<?xml version="1.0" standalone="no"?>
<svg width="567" height="328" viewBox="0 0 567 328" xmlns="http://www.w3.org/2000/svg">
<title>
images/analysis_g4bl_sin_phase_exec_d4_d5_l_bound50bin_16tight/counts/run_muon_rate_in_cu.svg
</title>
<desc>
Creator: ROOT Version 5.34/09
CreationDate: Mon Sep 16 19:34:48 2013</desc>
<defs>
</defs>
<rect x="0" y="0" width="567" height="328" fill="white"/>
<rect x="57" y="33" width="453" height="262" fill="white"/>
<rect x="57" y="33" width="453" height="262" fill="none" stroke="black"/>
<path d="M94,56v -5" fill="none" stroke="#000099"/>
<path d="M94,51v -6" fill="none" stroke="#000099"/>
<path d="M57,51h 37" fill="none" stroke="#000099"/>
<path d="M94,51h 38" fill="none" stroke="#000099"/>
<g stroke="black" stroke-width="1" fill="none">
<line x1="93" y1="51" x2="94" y2="51"/>
</g>
<path d="M170,283v -1" fill="none" stroke="#000099"/>
<path d="M170,282v -2" fill="none" stroke="#000099"/>
<path d="M132,282h 38" fill="none" stroke="#000099"/>
<path d="M170,282h 38" fill="none" stroke="#000099"/>
<g stroke="black" stroke-width="1" fill="none">
<line x1="169" y1="282" x2="170" y2="282"/>
</g>
<path d="M246,190v -3" fill="none" stroke="#000099"/>
<path d="M246,187v -3" fill="none" stroke="#000099"/>
<path d="M208,187h 38" fill="none" stroke="#000099"/>
<path d="M246,187h 37" fill="none" stroke="#000099"/>
<g stroke="black" stroke-width="1" fill="none">
<line x1="245" y1="187" x2="246" y2="187"/>
</g>
<path d="M321,157v -4" fill="none" stroke="#000099"/>
<path d="M321,153v -3" fill="none" stroke="#000099"/>
<path d="M283,153h 38" fill="none" stroke="#000099"/>
<path d="M321,153h 38" fill="none" stroke="#000099"/>
<g stroke="black" stroke-width="1" fill="none">
<line x1="320" y1="153" x2="321" y2="153"/>
</g>
<path d="M397,189v -2" fill="none" stroke="#000099"/>
<path d="M397,187v -3" fill="none" stroke="#000099"/>
<path d="M359,187h 38" fill="none" stroke="#000099"/>
<path d="M397,187h 38" fill="none" stroke="#000099"/>
<g stroke="black" stroke-width="1" fill="none">
<line x1="396" y1="187" x2="397" y2="187"/>
</g>
<path d="M472,252v -2" fill="none" stroke="#000099"/>
<path d="M472,250v -1" fill="none" stroke="#000099"/>
<path d="M435,250h 37" fill="none" stroke="#000099"/>
<path d="M472,250h 38" fill="none" stroke="#000099"/>
<g stroke="black" stroke-width="1" fill="none">
<line x1="471" y1="250" x2="472" y2="250"/>
</g>
<path d="M57,295h 453" fill="none" stroke="black"/>
<text x="466" y="317" fill="black" font-size="11" font-family="Helvetica">
Degrader
</text>
<text x="92" y="304" fill="black" font-size="7" font-family="Helvetica">
0
</text>
<text x="165" y="304" fill="black" font-size="7" font-family="Helvetica">
0.5
</text>
<text x="240" y="304" fill="black" font-size="7" font-family="Helvetica">
0.5
</text>
<text x="319" y="304" fill="black" font-size="7" font-family="Helvetica">
1
</text>
<text x="395" y="304" fill="black" font-size="7" font-family="Helvetica">
5
</text>
<text x="470" y="304" fill="black" font-size="7" font-family="Helvetica">
5
</text>
<path d="M57,287v 8" fill="none" stroke="black"/>
<path d="M132,287v 8" fill="none" stroke="black"/>
<path d="M208,287v 8" fill="none" stroke="black"/>
<path d="M283,287v 8" fill="none" stroke="black"/>
<path d="M359,287v 8" fill="none" stroke="black"/>
<path d="M435,287v 8" fill="none" stroke="black"/>
<path d="M510,287v 8" fill="none" stroke="black"/>
<path d="M57,295v -262" fill="none" stroke="black"/>
<g transform="rotate(-90,29,88)">
<text x="29" y="88" fill="black" font-size="11" font-family="Helvetica">
Muon count
</text>
</g>
<path d="M70,282h -13" fill="none" stroke="black"/>
<path d="M63,275h -6" fill="none" stroke="black"/>
<path d="M63,269h -6" fill="none" stroke="black"/>
<path d="M63,262h -6" fill="none" stroke="black"/>
<path d="M70,256h -13" fill="none" stroke="black"/>
<path d="M63,250h -6" fill="none" stroke="black"/>
<path d="M63,243h -6" fill="none" stroke="black"/>
<path d="M63,237h -6" fill="none" stroke="black"/>
<path d="M70,230h -13" fill="none" stroke="black"/>
<path d="M63,224h -6" fill="none" stroke="black"/>
<path d="M63,217h -6" fill="none" stroke="black"/>
<path d="M63,211h -6" fill="none" stroke="black"/>
<path d="M70,204h -13" fill="none" stroke="black"/>
<path d="M63,198h -6" fill="none" stroke="black"/>
<path d="M63,191h -6" fill="none" stroke="black"/>
<path d="M63,185h -6" fill="none" stroke="black"/>
<path d="M70,178h -13" fill="none" stroke="black"/>
<path d="M63,172h -6" fill="none" stroke="black"/>
<path d="M63,166h -6" fill="none" stroke="black"/>
<path d="M63,159h -6" fill="none" stroke="black"/>
<path d="M70,153h -13" fill="none" stroke="black"/>
<path d="M63,146h -6" fill="none" stroke="black"/>
<path d="M63,140h -6" fill="none" stroke="black"/>
<path d="M63,133h -6" fill="none" stroke="black"/>
<path d="M70,127h -13" fill="none" stroke="black"/>
<path d="M63,120h -6" fill="none" stroke="black"/>
<path d="M63,114h -6" fill="none" stroke="black"/>
<path d="M63,107h -6" fill="none" stroke="black"/>
<path d="M70,101h -13" fill="none" stroke="black"/>
<path d="M63,94h -6" fill="none" stroke="black"/>
<path d="M63,88h -6" fill="none" stroke="black"/>
<path d="M63,82h -6" fill="none" stroke="black"/>
<path d="M70,75h -13" fill="none" stroke="black"/>
<path d="M63,69h -6" fill="none" stroke="black"/>
<path d="M63,62h -6" fill="none" stroke="black"/>
<path d="M63,56h -6" fill="none" stroke="black"/>
<path d="M70,49h -13" fill="none" stroke="black"/>
<path d="M70,282h -13" fill="none" stroke="black"/>
<path d="M63,288h -6" fill="none" stroke="black"/>
<path d="M63,295h -6" fill="none" stroke="black"/>
<path d="M70,49h -13" fill="none" stroke="black"/>
<path d="M63,43h -6" fill="none" stroke="black"/>
<path d="M63,36h -6" fill="none" stroke="black"/>
<text x="30" y="286" fill="black" font-size="11" font-family="Helvetica">
2000
</text>
<text x="30" y="260" fill="black" font-size="11" font-family="Helvetica">
4000
</text>
<text x="30" y="234" fill="black" font-size="11" font-family="Helvetica">
6000
</text>
<text x="30" y="208" fill="black" font-size="11" font-family="Helvetica">
8000
</text>
<text x="25" y="182" fill="black" font-size="11" font-family="Helvetica">
10000
</text>
<text x="25" y="157" fill="black" font-size="11" font-family="Helvetica">
12000
</text>
<text x="25" y="130" fill="black" font-size="11" font-family="Helvetica">
14000
</text>
<text x="25" y="105" fill="black" font-size="11" font-family="Helvetica">
16000
</text>
<text x="25" y="79" fill="black" font-size="11" font-family="Helvetica">
18000
</text>
<text x="25" y="53" fill="black" font-size="11" font-family="Helvetica">
20000
</text>
<text x="175" y="16" fill="black" font-size="16" font-family="Helvetica">
Count of muons decaying in cu
</text>
<rect x="442" y="22" width="114" height="39" fill="white"/>
<path d="M442,61h 114" fill="none" stroke="black"/>
<path d="M556,61v -39" fill="none" stroke="black"/>
<path d="M556,22h -114" fill="none" stroke="black"/>
<path d="M442,22v 39" fill="none" stroke="black"/>
<text x="448" y="47" fill="black" font-size="16" font-family="Helvetica">
Entries 
</text>
<text x="536" y="47" fill="black" font-size="16" font-family="Helvetica">
 6
</text>
<text x="175" y="16" fill="black" font-size="16" font-family="Helvetica">
Count of muons decaying in cu
</text></svg>
