<?xml version="1.0" standalone="no"?>
<svg width="567" height="385" viewBox="0 0 567 385" xmlns="http://www.w3.org/2000/svg">
<title>
images/analysis_g4bl_phase_tight/448_D1.svg
</title>
<desc>
Creator: ROOT Version 5.34/05
CreationDate: Mon Jun 10 21:31:54 2013</desc>
<defs>
</defs>
<rect x="0" y="0" width="567" height="385" fill="white"/>
<rect x="57" y="38" width="453" height="308" fill="white"/>
<rect x="57" y="38" width="453" height="308" fill="none" stroke="black"/>
<rect x="57" y="38" width="453" height="308" fill="white"/>
<rect x="57" y="38" width="453" height="308" fill="none" stroke="black"/>
<path d="M57,346h 44v -3h 1v -3v 2v -7h 1v -25v 1v -12v 13h 1v -18v 14v -4h 1v -8v 15v -17v 15h 1v -15v 16v -8h 1v -14v 19v -8v 5h 1v 2v -13v 18v -10h 1v -9v 17v -20v 22h 1v -18v 13v -1h 1v -15v 19v -17v 11h 1v 8v -17v 15v -3h 1v -11v 11v -20v 21h 1v
 2v -16v 14h 1v -15v 16v -13v 11h 1v -17v 22v -3h 1v -13v 13v -14v 6h 1v 8v -16v 16h 1v -16v 16v -18v 10h 1v 7v -14v 11h 1v -8v 12v -15h 1v 15v -18v 15h 1v -11v 13v -13h 1v 16v -15v 11h 1v 1v -17v 17v -13h 1v 17v -16v 14h 1v -21v 24v -28h 1v 25v -13v
 11h 1v -18v 18v -17h 1v 20v -15v 15h 1v -15v 11v -14h 1v 17v -20v 19h 1v -15v 19v -18h 1v 12v -13v 15h 1v -14v 14v -13h 1v 17v -16v 10h 1v -15v 18v -12h 1v 11v -15v 8h 1v 9v -15v 12v -10h 1v -3v 18v -17v 7h 1v 3v -11v 15v -17h 1v 17v -16v 4h 1v 11v
 -23v 22v -5h 1v -10v 16v -12v 13h 1v -17v 15v -4h 1v -14v 19v -10v 8h 1v -19v 23v -9h 1v -11v 17v -15v 15h 1v -11v 11h 1v -17v 15v -17v 16h 1v 4v -16v 17v -5h 1v -12v 14v -16v 15h 1v 2v -12v 12v -1h 1v -16v 17v -14v 11h 1v -16v 21h 1v -13v 12v -18v
 10h 1v 9v -20v 17h 1v -14v 15v -20v 11h 1v 8v -13v 15h 1v -15v 14v -13h 1v 17v -21v 17h 1v -16v 16v -12v 4h 1v 8v -11v 15h 1v -19v 14v -15h 1v 19v -18v 14h 1v -14v 16v -18h 1v 16v -9v 9h 1v 1v -17v 16v -13h 1v 17v -18v 20h 1v -16v 12v -21h 1v 23v
 -15v 14h 1v -15v 14v -18h 1v 19v -20v 19h 1v 1v -13v 15v -19h 1v 16v -15v 10h 1v 6v -17v 13v -12h 1v 14v -16v 9h 1v 12v -18v 12v -7h 1v -7v 18v -19v 15h 1v -16v 20v -16h 1v -1v 16v -17v 6h 1v 14v -26v 23v -7h 1v -11v 17v -9h 1v 9v -13v 13v -3h 1v
 -15v 18v -12v 13h 1v -21v 22v -7h 1v -14v 20v -21v 21h 1v -12v 11v -1h 1v -18v 20v -15v 9h 1v 1v -11v 15v -4h 1v -13v 18v -23v 19h 1v 1v -10v 13h 1v -14v 12v -17v 16h 1v -15v 17v -1h 1v -12v 14v -15v 6h 1v 10v -16v 12v -1h 1v -11v 16v -19v 9h 1v 7v
 -12v 11h 1v -15v 20v -16h 1v 14v -16v 13v -1h 1v -14v 18v -13h 1v 13v -20v 21h 1v -19v 17v -15h 1v 16v -19v 18h 1v -15v 17v -20h 1v 18v -13v 10h 1v -18v 23v -19h 1v 15v -15v 18h 1v -17v 14v -15h 1v 19v -17v 14h 1v 3v -14v 11v -17h 1v 17v -18v 18h 1v
 1v -12v 10v -13h 1v 16v -17v 14h 1v 1v -17v 17v -15h 1v 15v -15v 8h 1v 7v -15v 16v -8h 1v -5v 14v -20v 13h 1v 4v -15v 18v -10h 1v -5v 14v -12v 4h 1v 9v -20v 18v -9h 1v -6v 15v -13v 6h 1v 6v -12v 10h 1v -17v 19v -10h 1v 12v -17v 17v -8h 1v -10v 19v
 -19v 20h 1v -13v 7h 1v -15v 18v -13v 8h 1v 6v -15v 17v -6h 1v -11v 14v -20v 19h 1v 3v -18v 17h 1v -14v 16v -20v 13h 1v 1v -15v 19v -3h 1v -16v 19v -16v 10h 1v 7v -19v 17v -1h 1v -14v 18v -19v 8h 1v 8v -14v 14h 1v -10v 10v -13v 5h 1v 9v -24v 22h 1v
 -14v 14v -12v 1h 1v 16v -17v 15h 1v -18v 16v -12v 1h 1v 10v -17v 20h 1v -19v 19v -21h 1v 23v -15v 8h 1v 4v -20v 17v -3v 2v -11h 1v 14v -19v 19h 1v -16v 15v -13h 1v 16v -15v 11h 1v -13v 16v -13h 1v 13v -17v 18h 1v 1v -18v 14v -11h 1v 9v -15v 17h 1v
 -21v 22v -19h 1v 18v -16v 11h 1v 7v -19v 17v -8h 1v -5v 14v -17v 9h 1v 9v -16v 17v -20h 1v 21v -17v 4h 1v 12v -22v 17v -4h 1v -5v 12v -18v 10h 1v 10v -20v 18v -7h 1v -13v 22v -14h 1v 9v -17v 18v -8h 1v -4v 10v -9h 1v 14v -16v 12h 1v -19v 22v -17v
 13h 1v 1v -11v 14v -1h 1v -19v 15v -16v 17h 1v 5v -19v 19h 1v -18v 15v -15v 9h 1v 3v -14v 18h 1v -20v 18v -13v 5h 1v 8v -13v 13v -2h 1v -13v 17v -23v 18h 1v 1v -14v 15h 1v -12v 15v -17v 3h 1v 13v -21v 19h 1v -18v 20v -16v 2h 1v 15v -18v 16h 1v -24v
 20v -11h 1v 10v -27v 12h 1v -231v 293v -203v 13v -14h 1v 46v -10v 11h 1v 11v -24v 33v -18v 2h 1v 18v -17v 12h 1v -7v 14v -3v 7v -26h 1v 25v -12v 11h 1v 10v -22v 20v -10h 1v 6v -2v 2v -14v 28h 1v -23v 11v -1v 7v -13h 1v 22v -20v 15h 1v 1v -17v 28v
 -31h 1v 28v -15v 9h 1v 9v -19v 18v -14h 1v -5v 24v -24v 23h 1v -9v 7v -14v 19v -17h 1v 16v -10v 2h 1v 14v -24v 22v -5h 1v -11v 21v -18v 13h 1v 4v -17v 14v -6h 1v -15v 25v -11h 1v 13v -20v 25v -14h 1v -6v 17v -15h 1v 17v -16v 12v -1h 1v -14v 21v -15h
 1v 13v -12v 19v -11h 1v -16v 22v -16h 1v 20v -14v 13v -1h 1v -14v 18v -10v 10h 1v -19v 26v -5h 1v -16v 18v -15v 8h 1v 7v -16v 18v -1h 1v -12v 17v -22v 15h 1v -2v 3v -10v 14h 1v -18v 19v -15v 8h 1v 8v -25v 26v -7h 1v -12v 20v -16v 12h 1v 4v -18v 21h
 1v -21v 20v -14h 1v 16v -25v 23h 1v -17v 17v -16h 1v 15v -9v 9h 1v 4v -26v 24v -13h 1v 18v -20v 18h 1v -18v 16v -19h 1v 20v -13v 9h 1v 6v -12v 12v -11h 1v 14v -22v 19h 1v 2v -14v 12v -12h 1v 15v -20v 17h 1v -16v 21v -18h 1v 13v -13v 12h 1v 1v -8v
 13v -15h 1v 11v -19v 18h 1v 3v -17v 18v -10h 1v 13v -20v 8h 1v 12v -21v 19v -6h 1v -6v 13v -14v 6h 1v 10v -16v 16v -9h 1v -8v 16v -11h 1v 11v -20v 23v -10h 1v -15v 22v -11v 4h 1v 10v -14v 10v -3h 1v -14v 21v -16h 1v 14v -17v 19v -7h 1v -8v 13v -22h
 1v 26v -18v 18h 1v -17v 18v -18h 1v 15v -15v 18h 1v -19v 16v -16v 11h 1v 9v -22v 17v -2h 1v -8v 13v -21v 11h 1v 7v -12v 16h 1v -15v 13v -13v 4h 1v 7v -17v 20h 1v -15v 14v -9v 1h 1v 11v -17v 17h 1v -18v 15v -11h 1v 10v -20v 25h 1v -21v 22v -20h 1v
 18v -13v 10h 1v -20v 24v -15h 1v 12v -9v 9h 1v -8v 11v -20h 1v 19v -15v 12h 1v 2v -15v 17v -16h 1v 15v -20v 21h 1v -23v 24v -18h 1v 19v -21v 19h 1v -12v 12v -21h 1v 20v -18v 14h 1v 5v -14v 14v -12h 1v 12v -20v 17h 1v 1v -9v 12v -15h 1v 12v -15v 8h
 1v 8v -16v 20v -9h 1v -8v 13v -16v 13h 1v 6v -15v 13v -5h 1v -10v 16v -15v 5h 1v 13v -23v 21v -11h 1v -2v 12v -18h 1v 15v -15v 18v -3h 1v -12v 15v -15h 1v 15v -13v 14v -3h 1v -12v 13v -16h 1v 18v -17v 15v -2h 1v -11v 15v -22h 1v 20v -13v 16h 1v -18v
 15v -15h 1v 16v -14v 12v -1h 1v -12v 16v -21v 19h 1v -16v 15h 1v -12v 13v -12v 3h 1v 11v -23v 20h 1v -11v 14v -19v 11h 1v 8v -17v 17h 1v -20v 20v -13h 1v 13v -18v 21h 1v -20v 18v -19h 1v 20v -17v 13h 1v -20v 22v -18h 1v 17v -15v 16h 1v -18v 18v -24h
 1v 24v -12v 8h 1v 4v -16v 19v -25h 1v 19v -18v 21h 1v -14v 12v -13h 1v 17v -17v 14h 1v 3v -20v 17v -18h 1v 19v -15v 10h 1v 6v -15v 13v -15h 1v 18v -20v 14h 1v -12v 19v -16h 1v -2v 15v -20v 14h 1v 8v -26v 23v -7h 1v -6v 14v -19v 13h 1v 7v -18v 17v
 -5h 1v -16v 22v -14v 6h 1v 6v -20v 21v -8h 1v -9v 20v -18h 1v 15v -13v 12h 1v -17v 20v -17h 1v 14v -13v 13v -5h 1v -12v 18v -17h 1v 18v -14v 15h 1v -19v 16v -15h 1v 14v -12v 18v -4h 1v -17v 16v -11h 1v 14v -15v 12v -1h 1v -10v 13v -20h 1v 16v -11v
 15h 1v -16v 16v -19v 10h 1v 9v -18v 16h 1v -13v 14v -16v 5h 1v 13v -17v 16h 1v -19v 21v -15h 1v 12v -19v 19h 1v -17v 20v -19h 1v 16v -12v 13h 1v -20v 19v -16h 1v 17v -12v 14h 1v -20v 16v -17h 1v 20v -16v 16h 1v -17v 16v -19h 1v 16v -2v 2v -15v 17h
 1v 1v -16v 14v -16h 1v 19v -16v 14h 1v -12v 12v -14h 1v 12v -14v 13h 1v 6v -19v 14v -12h 1v 14v -17v 16h 1v -16v 16v -17h 1v 17v -12v 6h 1v 5v -17v 20v -11h 1v -2v 13v -16v 8h 1v 9v -21v 21v -8h 1v -15v 21v -14v 3h 1v 13v -24v 25v -11h 1v -5v 13v
 -15h 1v 17v -18v 14h 1v -15v 20v -16h 1v 14v -14v 15v -7h 1v -10v 15v -19h 1v 19v -15v 12v -2h 1v -8v 15v -19h 1v 18v -17v 17v -3h 1v -15v 17v -17h 1v 18v -17v 17v -2h 1v -14v 18v -21h 1v 15v -10v 10h 1v -7v 11v -18h 1v 14v -15v 19v -4h 1v -8v 13v
 -18v 11h 1v 7v -16v 14h 1v -18v 19v -13v 5h 1v 7v -19v 20h 1v -15v 14v -17h 1v 21v -14v 10h 1v -19v 22v -17h 1v 13v -12v 13h 1v -12v 13v -21h 1v 20v -17v 16h 1v 3v -17v 16v -13h 1v 12v -15v 14h 1v 4v -18v 13v -14h 1v 15v -13v 11h 1v 2v -16v 19v -19h
 1v 15v -18v 15h 1v 4v -11v 13v -14h 1v 13v -23v 23h 1v -19v 19v -16h 1v 16v -17v 9h 1v 6v -15v 17v -11h 1v -1v 12v -17v 11h 1v 5v -21v 22v -4h 1v -14v 20v -14v 4h 1v 7v -17v 18v -11h 1v -1v 14v -18h 1v 19v -18v 16v -4h 1v -16v 22v -17h 1v 14v -13v
 15v -6h 1v -14v 16v -13h 1v 18v -19v 16v -2h 1v -14v 19v -19h 1v 17v -16v 18h 1v -19v 15v -14h 1v 17v -17v 17v -3h 1v -15v 18v -22h 1v 23v -18" fill="none" stroke="#000099"/>
<path d="M284,177v 5" fill="none" stroke="#ff0000" stroke-width="2"/>
<path d="M285,182v 18" fill="none" stroke="#ff0000" stroke-width="2"/>
<path d="M285,187v 21" fill="none" stroke="#ff0000" stroke-width="2"/>
<path d="M286,191v 21" fill="none" stroke="#ff0000" stroke-width="2"/>
<path d="M287,194v 22" fill="none" stroke="#ff0000" stroke-width="2"/>
<path d="M288,198v 21" fill="none" stroke="#ff0000" stroke-width="2"/>
<path d="M289,203v 20" fill="none" stroke="#ff0000" stroke-width="2"/>
<path d="M289,207v 20" fill="none" stroke="#ff0000" stroke-width="2"/>
<path d="M290,209v 20" fill="none" stroke="#ff0000" stroke-width="2"/>
<path d="M291,212v 20" fill="none" stroke="#ff0000" stroke-width="2"/>
<path d="M292,215v 18" fill="none" stroke="#ff0000" stroke-width="2"/>
<path d="M293,218v 20" fill="none" stroke="#ff0000" stroke-width="2"/>
<path d="M293,220v 20" fill="none" stroke="#ff0000" stroke-width="2"/>
<path d="M294,221v 21" fill="none" stroke="#ff0000" stroke-width="2"/>
<path d="M295,224v 20" fill="none" stroke="#ff0000" stroke-width="2"/>
<path d="M296,227v 19" fill="none" stroke="#ff0000" stroke-width="2"/>
<path d="M297,229v 20" fill="none" stroke="#ff0000" stroke-width="2"/>
<path d="M298,230v 21" fill="none" stroke="#ff0000" stroke-width="2"/>
<path d="M298,232v 20" fill="none" stroke="#ff0000" stroke-width="2"/>
<path d="M299,233v 21" fill="none" stroke="#ff0000" stroke-width="2"/>
<path d="M300,237v 18" fill="none" stroke="#ff0000" stroke-width="2"/>
<path d="M301,238v 20" fill="none" stroke="#ff0000" stroke-width="2"/>
<path d="M302,239v 21" fill="none" stroke="#ff0000" stroke-width="2"/>
<path d="M302,241v 20" fill="none" stroke="#ff0000" stroke-width="2"/>
<path d="M303,242v 20" fill="none" stroke="#ff0000" stroke-width="2"/>
<path d="M304,245v 19" fill="none" stroke="#ff0000" stroke-width="2"/>
<path d="M305,246v 20" fill="none" stroke="#ff0000" stroke-width="2"/>
<path d="M306,247v 20" fill="none" stroke="#ff0000" stroke-width="2"/>
<path d="M307,248v 21" fill="none" stroke="#ff0000" stroke-width="2"/>
<path d="M307,251v 18" fill="none" stroke="#ff0000" stroke-width="2"/>
<path d="M308,251v 21" fill="none" stroke="#ff0000" stroke-width="2"/>
<path d="M309,252v 21" fill="none" stroke="#ff0000" stroke-width="2"/>
<path d="M310,254v 19" fill="none" stroke="#ff0000" stroke-width="2"/>
<path d="M311,255v 19" fill="none" stroke="#ff0000" stroke-width="2"/>
<path d="M311,256v 19" fill="none" stroke="#ff0000" stroke-width="2"/>
<path d="M312,257v 20" fill="none" stroke="#ff0000" stroke-width="2"/>
<path d="M313,258v 20" fill="none" stroke="#ff0000" stroke-width="2"/>
<path d="M314,260v 19" fill="none" stroke="#ff0000" stroke-width="2"/>
<path d="M315,260v 20" fill="none" stroke="#ff0000" stroke-width="2"/>
<path d="M315,262v 19" fill="none" stroke="#ff0000" stroke-width="2"/>
<path d="M316,262v 20" fill="none" stroke="#ff0000" stroke-width="2"/>
<path d="M317,263v 20" fill="none" stroke="#ff0000" stroke-width="2"/>
<path d="M318,264v 19" fill="none" stroke="#ff0000" stroke-width="2"/>
<path d="M319,265v 19" fill="none" stroke="#ff0000" stroke-width="2"/>
<path d="M320,266v 19" fill="none" stroke="#ff0000" stroke-width="2"/>
<path d="M320,267v 19" fill="none" stroke="#ff0000" stroke-width="2"/>
<path d="M321,267v 20" fill="none" stroke="#ff0000" stroke-width="2"/>
<path d="M322,268v 19" fill="none" stroke="#ff0000" stroke-width="2"/>
<path d="M323,269v 19" fill="none" stroke="#ff0000" stroke-width="2"/>
<path d="M324,269v 20" fill="none" stroke="#ff0000" stroke-width="2"/>
<path d="M324,270v 20" fill="none" stroke="#ff0000" stroke-width="2"/>
<path d="M325,271v 20" fill="none" stroke="#ff0000" stroke-width="2"/>
<path d="M326,271v 20" fill="none" stroke="#ff0000" stroke-width="2"/>
<path d="M327,273v 18" fill="none" stroke="#ff0000" stroke-width="2"/>
<path d="M328,273v 19" fill="none" stroke="#ff0000" stroke-width="2"/>
<path d="M329,273v 20" fill="none" stroke="#ff0000" stroke-width="2"/>
<path d="M329,273v 20" fill="none" stroke="#ff0000" stroke-width="2"/>
<path d="M330,274v 20" fill="none" stroke="#ff0000" stroke-width="2"/>
<path d="M331,275v 19" fill="none" stroke="#ff0000" stroke-width="2"/>
<path d="M332,276v 19" fill="none" stroke="#ff0000" stroke-width="2"/>
<path d="M333,276v 19" fill="none" stroke="#ff0000" stroke-width="2"/>
<path d="M333,277v 18" fill="none" stroke="#ff0000" stroke-width="2"/>
<path d="M334,277v 19" fill="none" stroke="#ff0000" stroke-width="2"/>
<path d="M335,277v 20" fill="none" stroke="#ff0000" stroke-width="2"/>
<path d="M336,277v 20" fill="none" stroke="#ff0000" stroke-width="2"/>
<path d="M337,278v 20" fill="none" stroke="#ff0000" stroke-width="2"/>
<path d="M337,278v 20" fill="none" stroke="#ff0000" stroke-width="2"/>
<path d="M338,279v 19" fill="none" stroke="#ff0000" stroke-width="2"/>
<path d="M339,279v 20" fill="none" stroke="#ff0000" stroke-width="2"/>
<path d="M340,280v 19" fill="none" stroke="#ff0000" stroke-width="2"/>
<path d="M341,280v 19" fill="none" stroke="#ff0000" stroke-width="2"/>
<path d="M342,280v 19" fill="none" stroke="#ff0000" stroke-width="2"/>
<path d="M342,281v 19" fill="none" stroke="#ff0000" stroke-width="2"/>
<path d="M343,281v 19" fill="none" stroke="#ff0000" stroke-width="2"/>
<path d="M344,282v 19" fill="none" stroke="#ff0000" stroke-width="2"/>
<path d="M345,282v 19" fill="none" stroke="#ff0000" stroke-width="2"/>
<path d="M346,282v 19" fill="none" stroke="#ff0000" stroke-width="2"/>
<path d="M346,282v 19" fill="none" stroke="#ff0000" stroke-width="2"/>
<path d="M347,282v 20" fill="none" stroke="#ff0000" stroke-width="2"/>
<path d="M348,282v 20" fill="none" stroke="#ff0000" stroke-width="2"/>
<path d="M349,283v 20" fill="none" stroke="#ff0000" stroke-width="2"/>
<path d="M350,283v 20" fill="none" stroke="#ff0000" stroke-width="2"/>
<path d="M351,283v 20" fill="none" stroke="#ff0000" stroke-width="2"/>
<path d="M351,284v 19" fill="none" stroke="#ff0000" stroke-width="2"/>
<path d="M352,284v 20" fill="none" stroke="#ff0000" stroke-width="2"/>
<path d="M353,284v 20" fill="none" stroke="#ff0000" stroke-width="2"/>
<path d="M354,284v 20" fill="none" stroke="#ff0000" stroke-width="2"/>
<path d="M355,285v 19" fill="none" stroke="#ff0000" stroke-width="2"/>
<path d="M355,285v 19" fill="none" stroke="#ff0000" stroke-width="2"/>
<path d="M356,285v 19" fill="none" stroke="#ff0000" stroke-width="2"/>
<path d="M357,285v 19" fill="none" stroke="#ff0000" stroke-width="2"/>
<path d="M358,286v 18" fill="none" stroke="#ff0000" stroke-width="2"/>
<path d="M359,286v 19" fill="none" stroke="#ff0000" stroke-width="2"/>
<path d="M359,286v 19" fill="none" stroke="#ff0000" stroke-width="2"/>
<path d="M360,286v 19" fill="none" stroke="#ff0000" stroke-width="2"/>
<path d="M361,286v 19" fill="none" stroke="#ff0000" stroke-width="2"/>
<path d="M362,286v 19" fill="none" stroke="#ff0000" stroke-width="2"/>
<path d="M363,286v 20" fill="none" stroke="#ff0000" stroke-width="2"/>
<path d="M364,286v 20" fill="none" stroke="#ff0000" stroke-width="2"/>
<path d="M364,286v 20" fill="none" stroke="#ff0000" stroke-width="2"/>
<path d="M365,286v 20" fill="none" stroke="#ff0000" stroke-width="2"/>
<path d="M366,286v 20" fill="none" stroke="#ff0000" stroke-width="2"/>
<path d="M367,287v 19" fill="none" stroke="#ff0000" stroke-width="2"/>
<path d="M368,287v 19" fill="none" stroke="#ff0000" stroke-width="2"/>
<path d="M368,287v 20" fill="none" stroke="#ff0000" stroke-width="2"/>
<path d="M369,287v 20" fill="none" stroke="#ff0000" stroke-width="2"/>
<path d="M370,287v 20" fill="none" stroke="#ff0000" stroke-width="2"/>
<path d="M371,287v 20" fill="none" stroke="#ff0000" stroke-width="2"/>
<path d="M372,287v 20" fill="none" stroke="#ff0000" stroke-width="2"/>
<path d="M372,287v 20" fill="none" stroke="#ff0000" stroke-width="2"/>
<path d="M373,288v 19" fill="none" stroke="#ff0000" stroke-width="2"/>
<path d="M374,288v 20" fill="none" stroke="#ff0000" stroke-width="2"/>
<path d="M375,288v 20" fill="none" stroke="#ff0000" stroke-width="2"/>
<path d="M376,288v 20" fill="none" stroke="#ff0000" stroke-width="2"/>
<path d="M377,288v 20" fill="none" stroke="#ff0000" stroke-width="2"/>
<path d="M377,288v 20" fill="none" stroke="#ff0000" stroke-width="2"/>
<path d="M378,288v 20" fill="none" stroke="#ff0000" stroke-width="2"/>
<path d="M379,288v 20" fill="none" stroke="#ff0000" stroke-width="2"/>
<path d="M380,288v 20" fill="none" stroke="#ff0000" stroke-width="2"/>
<path d="M381,289v 19" fill="none" stroke="#ff0000" stroke-width="2"/>
<path d="M381,289v 19" fill="none" stroke="#ff0000" stroke-width="2"/>
<path d="M382,289v 19" fill="none" stroke="#ff0000" stroke-width="2"/>
<path d="M383,289v 19" fill="none" stroke="#ff0000" stroke-width="2"/>
<path d="M384,289v 19" fill="none" stroke="#ff0000" stroke-width="2"/>
<path d="M385,289v 19" fill="none" stroke="#ff0000" stroke-width="2"/>
<path d="M386,289v 19" fill="none" stroke="#ff0000" stroke-width="2"/>
<path d="M386,289v 19" fill="none" stroke="#ff0000" stroke-width="2"/>
<path d="M387,289v 19" fill="none" stroke="#ff0000" stroke-width="2"/>
<path d="M388,289v 19" fill="none" stroke="#ff0000" stroke-width="2"/>
<path d="M389,289v 19" fill="none" stroke="#ff0000" stroke-width="2"/>
<path d="M390,289v 19" fill="none" stroke="#ff0000" stroke-width="2"/>
<path d="M390,289v 19" fill="none" stroke="#ff0000" stroke-width="2"/>
<path d="M391,289v 19" fill="none" stroke="#ff0000" stroke-width="2"/>
<path d="M392,290v 18" fill="none" stroke="#ff0000" stroke-width="2"/>
<path d="M393,290v 18" fill="none" stroke="#ff0000" stroke-width="2"/>
<path d="M394,290v 18" fill="none" stroke="#ff0000" stroke-width="2"/>
<path d="M394,290v 18" fill="none" stroke="#ff0000" stroke-width="2"/>
<path d="M395,290v 18" fill="none" stroke="#ff0000" stroke-width="2"/>
<path d="M396,290v 18" fill="none" stroke="#ff0000" stroke-width="2"/>
<path d="M397,290v 18" fill="none" stroke="#ff0000" stroke-width="2"/>
<path d="M398,290v 19" fill="none" stroke="#ff0000" stroke-width="2"/>
<path d="M399,290v 19" fill="none" stroke="#ff0000" stroke-width="2"/>
<path d="M399,290v 19" fill="none" stroke="#ff0000" stroke-width="2"/>
<path d="M400,290v 19" fill="none" stroke="#ff0000" stroke-width="2"/>
<path d="M401,290v 19" fill="none" stroke="#ff0000" stroke-width="2"/>
<path d="M402,290v 19" fill="none" stroke="#ff0000" stroke-width="2"/>
<path d="M403,290v 19" fill="none" stroke="#ff0000" stroke-width="2"/>
<path d="M403,290v 19" fill="none" stroke="#ff0000" stroke-width="2"/>
<path d="M404,290v 19" fill="none" stroke="#ff0000" stroke-width="2"/>
<path d="M405,290v 19" fill="none" stroke="#ff0000" stroke-width="2"/>
<path d="M406,290v 19" fill="none" stroke="#ff0000" stroke-width="2"/>
<path d="M407,290v 19" fill="none" stroke="#ff0000" stroke-width="2"/>
<path d="M408,290v 19" fill="none" stroke="#ff0000" stroke-width="2"/>
<path d="M408,290v 19" fill="none" stroke="#ff0000" stroke-width="2"/>
<path d="M409,290v 19" fill="none" stroke="#ff0000" stroke-width="2"/>
<path d="M410,290v 19" fill="none" stroke="#ff0000" stroke-width="2"/>
<path d="M411,290v 19" fill="none" stroke="#ff0000" stroke-width="2"/>
<path d="M412,290v 19" fill="none" stroke="#ff0000" stroke-width="2"/>
<path d="M412,290v 19" fill="none" stroke="#ff0000" stroke-width="2"/>
<path d="M413,290v 19" fill="none" stroke="#ff0000" stroke-width="2"/>
<path d="M414,290v 19" fill="none" stroke="#ff0000" stroke-width="2"/>
<path d="M415,290v 19" fill="none" stroke="#ff0000" stroke-width="2"/>
<path d="M416,290v 19" fill="none" stroke="#ff0000" stroke-width="2"/>
<path d="M416,291v 18" fill="none" stroke="#ff0000" stroke-width="2"/>
<path d="M417,291v 18" fill="none" stroke="#ff0000" stroke-width="2"/>
<path d="M418,291v 18" fill="none" stroke="#ff0000" stroke-width="2"/>
<path d="M419,291v 18" fill="none" stroke="#ff0000" stroke-width="2"/>
<path d="M420,291v 18" fill="none" stroke="#ff0000" stroke-width="2"/>
<path d="M421,291v 18" fill="none" stroke="#ff0000" stroke-width="2"/>
<path d="M421,291v 18" fill="none" stroke="#ff0000" stroke-width="2"/>
<path d="M422,291v 18" fill="none" stroke="#ff0000" stroke-width="2"/>
<path d="M423,291v 18" fill="none" stroke="#ff0000" stroke-width="2"/>
<path d="M424,291v 18" fill="none" stroke="#ff0000" stroke-width="2"/>
<path d="M425,291v 18" fill="none" stroke="#ff0000" stroke-width="2"/>
<path d="M425,291v 18" fill="none" stroke="#ff0000" stroke-width="2"/>
<path d="M426,291v 18" fill="none" stroke="#ff0000" stroke-width="2"/>
<path d="M427,291v 18" fill="none" stroke="#ff0000" stroke-width="2"/>
<path d="M428,291v 18" fill="none" stroke="#ff0000" stroke-width="2"/>
<path d="M429,291v 18" fill="none" stroke="#ff0000" stroke-width="2"/>
<path d="M430,291v 18" fill="none" stroke="#ff0000" stroke-width="2"/>
<path d="M430,291v 19" fill="none" stroke="#ff0000" stroke-width="2"/>
<path d="M431,291v 19" fill="none" stroke="#ff0000" stroke-width="2"/>
<path d="M432,291v 19" fill="none" stroke="#ff0000" stroke-width="2"/>
<path d="M433,291v 19" fill="none" stroke="#ff0000" stroke-width="2"/>
<path d="M434,291v 19" fill="none" stroke="#ff0000" stroke-width="2"/>
<path d="M434,291v 19" fill="none" stroke="#ff0000" stroke-width="2"/>
<path d="M435,291v 19" fill="none" stroke="#ff0000" stroke-width="2"/>
<path d="M436,291v 19" fill="none" stroke="#ff0000" stroke-width="2"/>
<path d="M437,291v 19" fill="none" stroke="#ff0000" stroke-width="2"/>
<path d="M438,291v 19" fill="none" stroke="#ff0000" stroke-width="2"/>
<path d="M438,291v 19" fill="none" stroke="#ff0000" stroke-width="2"/>
<path d="M439,291v 19" fill="none" stroke="#ff0000" stroke-width="2"/>
<path d="M440,291v 19" fill="none" stroke="#ff0000" stroke-width="2"/>
<path d="M441,291v 19" fill="none" stroke="#ff0000" stroke-width="2"/>
<path d="M442,291v 19" fill="none" stroke="#ff0000" stroke-width="2"/>
<path d="M443,291v 19" fill="none" stroke="#ff0000" stroke-width="2"/>
<path d="M443,291v 19" fill="none" stroke="#ff0000" stroke-width="2"/>
<path d="M444,291v 19" fill="none" stroke="#ff0000" stroke-width="2"/>
<path d="M445,291v 19" fill="none" stroke="#ff0000" stroke-width="2"/>
<path d="M446,291v 19" fill="none" stroke="#ff0000" stroke-width="2"/>
<path d="M447,291v 19" fill="none" stroke="#ff0000" stroke-width="2"/>
<path d="M447,291v 19" fill="none" stroke="#ff0000" stroke-width="2"/>
<path d="M448,291v 19" fill="none" stroke="#ff0000" stroke-width="2"/>
<path d="M449,291v 19" fill="none" stroke="#ff0000" stroke-width="2"/>
<path d="M450,291v 19" fill="none" stroke="#ff0000" stroke-width="2"/>
<path d="M451,291v 19" fill="none" stroke="#ff0000" stroke-width="2"/>
<path d="M452,291v 19" fill="none" stroke="#ff0000" stroke-width="2"/>
<path d="M452,291v 19" fill="none" stroke="#ff0000" stroke-width="2"/>
<path d="M453,291v 19" fill="none" stroke="#ff0000" stroke-width="2"/>
<path d="M454,291v 19" fill="none" stroke="#ff0000" stroke-width="2"/>
<path d="M455,291v 19" fill="none" stroke="#ff0000" stroke-width="2"/>
<path d="M456,291v 19" fill="none" stroke="#ff0000" stroke-width="2"/>
<path d="M456,291v 19" fill="none" stroke="#ff0000" stroke-width="2"/>
<path d="M457,291v 19" fill="none" stroke="#ff0000" stroke-width="2"/>
<path d="M458,291v 19" fill="none" stroke="#ff0000" stroke-width="2"/>
<path d="M459,291v 19" fill="none" stroke="#ff0000" stroke-width="2"/>
<path d="M460,291v 19" fill="none" stroke="#ff0000" stroke-width="2"/>
<path d="M460,291v 19" fill="none" stroke="#ff0000" stroke-width="2"/>
<path d="M461,291v 19" fill="none" stroke="#ff0000" stroke-width="2"/>
<path d="M462,291v 19" fill="none" stroke="#ff0000" stroke-width="2"/>
<path d="M463,291v 19" fill="none" stroke="#ff0000" stroke-width="2"/>
<path d="M464,291v 19" fill="none" stroke="#ff0000" stroke-width="2"/>
<path d="M465,291v 19" fill="none" stroke="#ff0000" stroke-width="2"/>
<path d="M465,291v 19" fill="none" stroke="#ff0000" stroke-width="2"/>
<path d="M466,291v 19" fill="none" stroke="#ff0000" stroke-width="2"/>
<path d="M467,291v 19" fill="none" stroke="#ff0000" stroke-width="2"/>
<path d="M468,291v 19" fill="none" stroke="#ff0000" stroke-width="2"/>
<path d="M469,291v 19" fill="none" stroke="#ff0000" stroke-width="2"/>
<path d="M469,291v 19" fill="none" stroke="#ff0000" stroke-width="2"/>
<path d="M470,291v 19" fill="none" stroke="#ff0000" stroke-width="2"/>
<path d="M471,291v 19" fill="none" stroke="#ff0000" stroke-width="2"/>
<path d="M472,291v 19" fill="none" stroke="#ff0000" stroke-width="2"/>
<path d="M473,291v 19" fill="none" stroke="#ff0000" stroke-width="2"/>
<path d="M473,291v 19" fill="none" stroke="#ff0000" stroke-width="2"/>
<path d="M474,291v 19" fill="none" stroke="#ff0000" stroke-width="2"/>
<path d="M475,291v 19" fill="none" stroke="#ff0000" stroke-width="2"/>
<path d="M476,291v 19" fill="none" stroke="#ff0000" stroke-width="2"/>
<path d="M477,291v 19" fill="none" stroke="#ff0000" stroke-width="2"/>
<path d="M478,291v 19" fill="none" stroke="#ff0000" stroke-width="2"/>
<path d="M478,291v 19" fill="none" stroke="#ff0000" stroke-width="2"/>
<path d="M479,291v 19" fill="none" stroke="#ff0000" stroke-width="2"/>
<path d="M480,291v 19" fill="none" stroke="#ff0000" stroke-width="2"/>
<path d="M481,291v 19" fill="none" stroke="#ff0000" stroke-width="2"/>
<path d="M482,291v 19" fill="none" stroke="#ff0000" stroke-width="2"/>
<path d="M482,291v 19" fill="none" stroke="#ff0000" stroke-width="2"/>
<path d="M483,291v 19" fill="none" stroke="#ff0000" stroke-width="2"/>
<path d="M484,291v 19" fill="none" stroke="#ff0000" stroke-width="2"/>
<path d="M485,291v 19" fill="none" stroke="#ff0000" stroke-width="2"/>
<path d="M486,291v 19" fill="none" stroke="#ff0000" stroke-width="2"/>
<path d="M487,291v 19" fill="none" stroke="#ff0000" stroke-width="2"/>
<path d="M487,291v 19" fill="none" stroke="#ff0000" stroke-width="2"/>
<path d="M488,291v 19" fill="none" stroke="#ff0000" stroke-width="2"/>
<path d="M489,291v 19" fill="none" stroke="#ff0000" stroke-width="2"/>
<path d="M490,291v 19" fill="none" stroke="#ff0000" stroke-width="2"/>
<path d="M491,291v 19" fill="none" stroke="#ff0000" stroke-width="2"/>
<path d="M491,291v 19" fill="none" stroke="#ff0000" stroke-width="2"/>
<path d="M492,291v 19" fill="none" stroke="#ff0000" stroke-width="2"/>
<path d="M493,291v 19" fill="none" stroke="#ff0000" stroke-width="2"/>
<path d="M494,291v 19" fill="none" stroke="#ff0000" stroke-width="2"/>
<path d="M495,291v 19" fill="none" stroke="#ff0000" stroke-width="2"/>
<path d="M495,291v 19" fill="none" stroke="#ff0000" stroke-width="2"/>
<path d="M496,291v 19" fill="none" stroke="#ff0000" stroke-width="2"/>
<path d="M497,291v 19" fill="none" stroke="#ff0000" stroke-width="2"/>
<path d="M498,291v 19" fill="none" stroke="#ff0000" stroke-width="2"/>
<path d="M499,291v 19" fill="none" stroke="#ff0000" stroke-width="2"/>
<path d="M500,291v 19" fill="none" stroke="#ff0000" stroke-width="2"/>
<path d="M500,291v 19" fill="none" stroke="#ff0000" stroke-width="2"/>
<path d="M501,291v 19" fill="none" stroke="#ff0000" stroke-width="2"/>
<path d="M502,291v 19" fill="none" stroke="#ff0000" stroke-width="2"/>
<path d="M503,291v 19" fill="none" stroke="#ff0000" stroke-width="2"/>
<path d="M504,291v 19" fill="none" stroke="#ff0000" stroke-width="2"/>
<path d="M504,291v 19" fill="none" stroke="#ff0000" stroke-width="2"/>
<path d="M505,291v 19" fill="none" stroke="#ff0000" stroke-width="2"/>
<path d="M506,291v 19" fill="none" stroke="#ff0000" stroke-width="2"/>
<path d="M507,291v 19" fill="none" stroke="#ff0000" stroke-width="2"/>
<path d="M508,291v 19" fill="none" stroke="#ff0000" stroke-width="2"/>
<path d="M509,291v 19" fill="none" stroke="#ff0000" stroke-width="2"/>
<path d="M509,291v 19" fill="none" stroke="#ff0000" stroke-width="2"/>
<path d="M510,291v 10" fill="none" stroke="#ff0000" stroke-width="2"/>
<path d="M284,180l 1, 11v 7l 1, 4l 1, 3l 1, 3l 1, 5v 3l 1, 3l 1, 2l 1, 3l 1, 4v 1l 1, 2l 1, 2l 1, 3l 1, 2l 1, 2v 2l 1, 1l 1, 3l 1, 2l 1, 1v 2l 1, 1l 1, 2l 1, 1l 1, 2l 1, 1v 2l 1, 1l 1, 1l 1, 2h 1v 1l 1, 2l 1, 1l 1, 1l 1, 1v 1l 1, 1l 1, 1h 1l 1, 1l 1,
 1v 2h 2l 1, 1l 1, 1v 1l 1, 1h 1l 1, 1h 1l 1, 1l 1, 1h 1l 1, 2h 2l 1, 1h 1l 1, 1h 1l 1, 1l 1, 1h 2v 1h 4l 1, 1h 1l 1, 1h 2l 1, 1h 2l 1, 1h 7l 1, 1h 5v 1h 5l 1, 1h 8l 1, 1h 47v 1h 79l 1, -5" fill="none" stroke="#ff0000" stroke-width="2"/>
<rect x="351" y="25" width="205" height="169" fill="white"/>
<path d="M351,194h 205" fill="none" stroke="black"/>
<path d="M556,194v -169" fill="none" stroke="black"/>
<path d="M556,25h -205" fill="none" stroke="black"/>
<path d="M351,25v 169" fill="none" stroke="black"/>
<text x="362" y="38" fill="black" font-size="14" font-family="Helvetica">
Entries 
</text>
<text x="481" y="38" fill="black" font-size="14" font-family="Helvetica">
 1535863
</text>
<text x="374" y="57" fill="black" font-size="14" font-family="Helvetica">
 / ndf 
</text>
<text x="369" y="45" fill="black" font-size="10" font-family="Helvetica">
2
</text>
<text x="362" y="57" fill="black" font-size="14" font-family="Times">
&#0967;
</text>
<text x="455" y="54" fill="black" font-size="14" font-family="Helvetica">
  2744 / 1239
</text>
<text x="382" y="67" fill="black" font-size="14" font-family="Helvetica">
   
</text>
<text x="372" y="76" fill="black" font-size="10" font-family="Helvetica">
cu
</text>
<text x="362" y="67" fill="black" font-size="14" font-family="Helvetica">
N
</text>
<text x="511" y="73" fill="black" font-size="14" font-family="Helvetica">
 40.3
</text>
<text x="499" y="73" fill="black" font-size="14" font-family="Times">
&#0177;
</text>
<text x="451" y="73" fill="black" font-size="14" font-family="Helvetica">
 170.8 
</text>
<text x="377" y="86" fill="black" font-size="14" font-family="Helvetica">
 
</text>
<text x="367" y="96" fill="black" font-size="10" font-family="Helvetica">
cu
</text>
<text x="362" y="86" fill="black" font-size="14" font-family="Times">
&#0964;
</text>
<text x="511" y="90" fill="black" font-size="14" font-family="Helvetica">
 76.2
</text>
<text x="499" y="90" fill="black" font-size="14" font-family="Times">
&#0177;
</text>
<text x="451" y="90" fill="black" font-size="14" font-family="Helvetica">
 205.9 
</text>
<text x="375" y="102" fill="black" font-size="14" font-family="Helvetica">
    
</text>
<text x="372" y="110" fill="black" font-size="10" font-family="Helvetica">
f
</text>
<text x="362" y="102" fill="black" font-size="14" font-family="Helvetica">
N
</text>
<text x="511" y="107" fill="black" font-size="14" font-family="Helvetica">
 13.4
</text>
<text x="499" y="107" fill="black" font-size="14" font-family="Times">
&#0177;
</text>
<text x="451" y="107" fill="black" font-size="14" font-family="Helvetica">
  1339 
</text>
<text x="370" y="120" fill="black" font-size="14" font-family="Helvetica">
 
</text>
<text x="367" y="130" fill="black" font-size="10" font-family="Helvetica">
f
</text>
<text x="362" y="120" fill="black" font-size="14" font-family="Times">
&#0964;
</text>
<text x="511" y="124" fill="black" font-size="14" font-family="Helvetica">
 21.1
</text>
<text x="499" y="124" fill="black" font-size="14" font-family="Times">
&#0177;
</text>
<text x="451" y="124" fill="black" font-size="14" font-family="Helvetica">
  2192 
</text>
<text x="384" y="136" fill="black" font-size="14" font-family="Helvetica">
  
</text>
<text x="372" y="145" fill="black" font-size="10" font-family="Helvetica">
sin
</text>
<text x="362" y="136" fill="black" font-size="14" font-family="Helvetica">
N
</text>
<text x="520" y="141" fill="black" font-size="14" font-family="Helvetica">
 1.1
</text>
<text x="507" y="141" fill="black" font-size="14" font-family="Times">
&#0177;
</text>
<text x="460" y="141" fill="black" font-size="14" font-family="Helvetica">
 121.9 
</text>
<text x="367" y="158" fill="black" font-size="14" font-family="Helvetica">
     
</text>
<text x="362" y="158" fill="black" font-size="14" font-family="Times">
&#0966;
</text>
<text x="511" y="158" fill="black" font-size="14" font-family="Helvetica">
 0.21
</text>
<text x="499" y="158" fill="black" font-size="14" font-family="Times">
&#0177;
</text>
<text x="451" y="158" fill="black" font-size="14" font-family="Helvetica">
 46.82 
</text>
<text x="362" y="173" fill="black" font-size="14" font-family="Helvetica">
T        
</text>
<text x="511" y="175" fill="black" font-size="14" font-family="Helvetica">
 0.00
</text>
<text x="499" y="175" fill="black" font-size="14" font-family="Times">
&#0177;
</text>
<text x="451" y="175" fill="black" font-size="14" font-family="Helvetica">
 59.31 
</text>
<text x="377" y="186" fill="black" font-size="14" font-family="Helvetica">
    
</text>
<text x="372" y="195" fill="black" font-size="10" font-family="Helvetica">
b
</text>
<text x="362" y="186" fill="black" font-size="14" font-family="Helvetica">
N
</text>
<text x="520" y="192" fill="black" font-size="14" font-family="Helvetica">
 1.0
</text>
<text x="507" y="192" fill="black" font-size="14" font-family="Times">
&#0177;
</text>
<text x="460" y="192" fill="black" font-size="14" font-family="Helvetica">
 576.7 
</text>
<path d="M57,346h 453" fill="none" stroke="black"/>
<text x="419" y="372" fill="black" font-size="12" font-family="Helvetica">
TDC-TDC0 (ns)
</text>
<path d="M57,337v 9" fill="none" stroke="black"/>
<path d="M68,342v 4" fill="none" stroke="black"/>
<path d="M79,342v 4" fill="none" stroke="black"/>
<path d="M91,342v 4" fill="none" stroke="black"/>
<path d="M102,342v 4" fill="none" stroke="black"/>
<path d="M113,337v 9" fill="none" stroke="black"/>
<path d="M125,342v 4" fill="none" stroke="black"/>
<path d="M136,342v 4" fill="none" stroke="black"/>
<path d="M147,342v 4" fill="none" stroke="black"/>
<path d="M159,342v 4" fill="none" stroke="black"/>
<path d="M170,337v 9" fill="none" stroke="black"/>
<path d="M181,342v 4" fill="none" stroke="black"/>
<path d="M193,342v 4" fill="none" stroke="black"/>
<path d="M204,342v 4" fill="none" stroke="black"/>
<path d="M215,342v 4" fill="none" stroke="black"/>
<path d="M227,337v 9" fill="none" stroke="black"/>
<path d="M238,342v 4" fill="none" stroke="black"/>
<path d="M249,342v 4" fill="none" stroke="black"/>
<path d="M261,342v 4" fill="none" stroke="black"/>
<path d="M272,342v 4" fill="none" stroke="black"/>
<path d="M283,337v 9" fill="none" stroke="black"/>
<path d="M295,342v 4" fill="none" stroke="black"/>
<path d="M306,342v 4" fill="none" stroke="black"/>
<path d="M317,342v 4" fill="none" stroke="black"/>
<path d="M329,342v 4" fill="none" stroke="black"/>
<path d="M340,337v 9" fill="none" stroke="black"/>
<path d="M351,342v 4" fill="none" stroke="black"/>
<path d="M363,342v 4" fill="none" stroke="black"/>
<path d="M374,342v 4" fill="none" stroke="black"/>
<path d="M386,342v 4" fill="none" stroke="black"/>
<path d="M397,337v 9" fill="none" stroke="black"/>
<path d="M408,342v 4" fill="none" stroke="black"/>
<path d="M420,342v 4" fill="none" stroke="black"/>
<path d="M431,342v 4" fill="none" stroke="black"/>
<path d="M442,342v 4" fill="none" stroke="black"/>
<path d="M454,337v 9" fill="none" stroke="black"/>
<path d="M465,342v 4" fill="none" stroke="black"/>
<path d="M476,342v 4" fill="none" stroke="black"/>
<path d="M488,342v 4" fill="none" stroke="black"/>
<path d="M499,342v 4" fill="none" stroke="black"/>
<path d="M510,337v 9" fill="none" stroke="black"/>
<text x="36" y="359" fill="black" font-size="12" font-family="Helvetica">
-20000
</text>
<text x="93" y="359" fill="black" font-size="12" font-family="Helvetica">
-15000
</text>
<text x="149" y="359" fill="black" font-size="12" font-family="Helvetica">
-10000
</text>
<text x="210" y="359" fill="black" font-size="12" font-family="Helvetica">
-5000
</text>
<text x="280" y="359" fill="black" font-size="12" font-family="Helvetica">
0
</text>
<text x="325" y="359" fill="black" font-size="12" font-family="Helvetica">
5000
</text>
<text x="379" y="359" fill="black" font-size="12" font-family="Helvetica">
10000
</text>
<text x="435" y="359" fill="black" font-size="12" font-family="Helvetica">
15000
</text>
<text x="492" y="359" fill="black" font-size="12" font-family="Helvetica">
20000
</text>
<path d="M57,346v -308" fill="none" stroke="black"/>
<g transform="rotate(-90,29,72)">
<text x="29" y="72" fill="black" font-size="12" font-family="Helvetica">
Count
</text>
</g>
<path d="M70,346h -13" fill="none" stroke="black"/>
<path d="M63,339h -6" fill="none" stroke="black"/>
<path d="M63,331h -6" fill="none" stroke="black"/>
<path d="M63,323h -6" fill="none" stroke="black"/>
<path d="M63,315h -6" fill="none" stroke="black"/>
<path d="M70,307h -13" fill="none" stroke="black"/>
<path d="M63,299h -6" fill="none" stroke="black"/>
<path d="M63,291h -6" fill="none" stroke="black"/>
<path d="M63,283h -6" fill="none" stroke="black"/>
<path d="M63,275h -6" fill="none" stroke="black"/>
<path d="M70,267h -13" fill="none" stroke="black"/>
<path d="M63,259h -6" fill="none" stroke="black"/>
<path d="M63,251h -6" fill="none" stroke="black"/>
<path d="M63,243h -6" fill="none" stroke="black"/>
<path d="M63,235h -6" fill="none" stroke="black"/>
<path d="M70,227h -13" fill="none" stroke="black"/>
<path d="M63,219h -6" fill="none" stroke="black"/>
<path d="M63,211h -6" fill="none" stroke="black"/>
<path d="M63,204h -6" fill="none" stroke="black"/>
<path d="M63,196h -6" fill="none" stroke="black"/>
<path d="M70,188h -13" fill="none" stroke="black"/>
<path d="M63,180h -6" fill="none" stroke="black"/>
<path d="M63,172h -6" fill="none" stroke="black"/>
<path d="M63,164h -6" fill="none" stroke="black"/>
<path d="M63,156h -6" fill="none" stroke="black"/>
<path d="M70,148h -13" fill="none" stroke="black"/>
<path d="M63,140h -6" fill="none" stroke="black"/>
<path d="M63,132h -6" fill="none" stroke="black"/>
<path d="M63,124h -6" fill="none" stroke="black"/>
<path d="M63,116h -6" fill="none" stroke="black"/>
<path d="M70,108h -13" fill="none" stroke="black"/>
<path d="M63,100h -6" fill="none" stroke="black"/>
<path d="M63,92h -6" fill="none" stroke="black"/>
<path d="M63,84h -6" fill="none" stroke="black"/>
<path d="M63,77h -6" fill="none" stroke="black"/>
<path d="M70,69h -13" fill="none" stroke="black"/>
<path d="M70,69h -13" fill="none" stroke="black"/>
<path d="M63,61h -6" fill="none" stroke="black"/>
<path d="M63,53h -6" fill="none" stroke="black"/>
<path d="M63,45h -6" fill="none" stroke="black"/>
<text x="47" y="350" fill="black" font-size="12" font-family="Helvetica">
0
</text>
<text x="33" y="310" fill="black" font-size="12" font-family="Helvetica">
500
</text>
<text x="25" y="271" fill="black" font-size="12" font-family="Helvetica">
1000
</text>
<text x="25" y="231" fill="black" font-size="12" font-family="Helvetica">
1500
</text>
<text x="25" y="191" fill="black" font-size="12" font-family="Helvetica">
2000
</text>
<text x="25" y="152" fill="black" font-size="12" font-family="Helvetica">
2500
</text>
<text x="25" y="112" fill="black" font-size="12" font-family="Helvetica">
3000
</text>
<text x="25" y="72" fill="black" font-size="12" font-family="Helvetica">
3500
</text>
<rect x="351" y="25" width="205" height="169" fill="white"/>
<path d="M351,194h 205" fill="none" stroke="black"/>
<path d="M556,194v -169" fill="none" stroke="black"/>
<path d="M556,25h -205" fill="none" stroke="black"/>
<path d="M351,25v 169" fill="none" stroke="black"/>
<text x="362" y="38" fill="black" font-size="14" font-family="Helvetica">
Entries 
</text>
<text x="481" y="38" fill="black" font-size="14" font-family="Helvetica">
 1535863
</text>
<text x="374" y="57" fill="black" font-size="14" font-family="Helvetica">
 / ndf 
</text>
<text x="369" y="45" fill="black" font-size="10" font-family="Helvetica">
2
</text>
<text x="362" y="57" fill="black" font-size="14" font-family="Times">
&#0967;
</text>
<text x="455" y="54" fill="black" font-size="14" font-family="Helvetica">
  2744 / 1239
</text>
<text x="382" y="67" fill="black" font-size="14" font-family="Helvetica">
   
</text>
<text x="372" y="76" fill="black" font-size="10" font-family="Helvetica">
cu
</text>
<text x="362" y="67" fill="black" font-size="14" font-family="Helvetica">
N
</text>
<text x="511" y="73" fill="black" font-size="14" font-family="Helvetica">
 40.3
</text>
<text x="499" y="73" fill="black" font-size="14" font-family="Times">
&#0177;
</text>
<text x="451" y="73" fill="black" font-size="14" font-family="Helvetica">
 170.8 
</text>
<text x="377" y="86" fill="black" font-size="14" font-family="Helvetica">
 
</text>
<text x="367" y="96" fill="black" font-size="10" font-family="Helvetica">
cu
</text>
<text x="362" y="86" fill="black" font-size="14" font-family="Times">
&#0964;
</text>
<text x="511" y="90" fill="black" font-size="14" font-family="Helvetica">
 76.2
</text>
<text x="499" y="90" fill="black" font-size="14" font-family="Times">
&#0177;
</text>
<text x="451" y="90" fill="black" font-size="14" font-family="Helvetica">
 205.9 
</text>
<text x="375" y="102" fill="black" font-size="14" font-family="Helvetica">
    
</text>
<text x="372" y="110" fill="black" font-size="10" font-family="Helvetica">
f
</text>
<text x="362" y="102" fill="black" font-size="14" font-family="Helvetica">
N
</text>
<text x="511" y="107" fill="black" font-size="14" font-family="Helvetica">
 13.4
</text>
<text x="499" y="107" fill="black" font-size="14" font-family="Times">
&#0177;
</text>
<text x="451" y="107" fill="black" font-size="14" font-family="Helvetica">
  1339 
</text>
<text x="370" y="120" fill="black" font-size="14" font-family="Helvetica">
 
</text>
<text x="367" y="130" fill="black" font-size="10" font-family="Helvetica">
f
</text>
<text x="362" y="120" fill="black" font-size="14" font-family="Times">
&#0964;
</text>
<text x="511" y="124" fill="black" font-size="14" font-family="Helvetica">
 21.1
</text>
<text x="499" y="124" fill="black" font-size="14" font-family="Times">
&#0177;
</text>
<text x="451" y="124" fill="black" font-size="14" font-family="Helvetica">
  2192 
</text>
<text x="384" y="136" fill="black" font-size="14" font-family="Helvetica">
  
</text>
<text x="372" y="145" fill="black" font-size="10" font-family="Helvetica">
sin
</text>
<text x="362" y="136" fill="black" font-size="14" font-family="Helvetica">
N
</text>
<text x="520" y="141" fill="black" font-size="14" font-family="Helvetica">
 1.1
</text>
<text x="507" y="141" fill="black" font-size="14" font-family="Times">
&#0177;
</text>
<text x="460" y="141" fill="black" font-size="14" font-family="Helvetica">
 121.9 
</text>
<text x="367" y="158" fill="black" font-size="14" font-family="Helvetica">
     
</text>
<text x="362" y="158" fill="black" font-size="14" font-family="Times">
&#0966;
</text>
<text x="511" y="158" fill="black" font-size="14" font-family="Helvetica">
 0.21
</text>
<text x="499" y="158" fill="black" font-size="14" font-family="Times">
&#0177;
</text>
<text x="451" y="158" fill="black" font-size="14" font-family="Helvetica">
 46.82 
</text>
<text x="362" y="173" fill="black" font-size="14" font-family="Helvetica">
T        
</text>
<text x="511" y="175" fill="black" font-size="14" font-family="Helvetica">
 0.00
</text>
<text x="499" y="175" fill="black" font-size="14" font-family="Times">
&#0177;
</text>
<text x="451" y="175" fill="black" font-size="14" font-family="Helvetica">
 59.31 
</text>
<text x="377" y="186" fill="black" font-size="14" font-family="Helvetica">
    
</text>
<text x="372" y="195" fill="black" font-size="10" font-family="Helvetica">
b
</text>
<text x="362" y="186" fill="black" font-size="14" font-family="Helvetica">
N
</text>
<text x="520" y="192" fill="black" font-size="14" font-family="Helvetica">
 1.0
</text>
<text x="507" y="192" fill="black" font-size="14" font-family="Times">
&#0177;
</text>
<text x="460" y="192" fill="black" font-size="14" font-family="Helvetica">
 576.7 
</text>
<text x="270" y="21" fill="black" font-size="21" font-family="Helvetica">
D1
</text></svg>
