<?xml version="1.0" standalone="no"?>
<svg width="567" height="385" viewBox="0 0 567 385" xmlns="http://www.w3.org/2000/svg">
<title>
images/analysis_g4bl_phase_tight/458_D2.svg
</title>
<desc>
Creator: ROOT Version 5.34/05
CreationDate: Mon Jun 10 21:37:04 2013</desc>
<defs>
</defs>
<rect x="0" y="0" width="567" height="385" fill="white"/>
<rect x="57" y="38" width="453" height="308" fill="white"/>
<rect x="57" y="38" width="453" height="308" fill="none" stroke="black"/>
<rect x="57" y="38" width="453" height="308" fill="white"/>
<rect x="57" y="38" width="453" height="308" fill="none" stroke="black"/>
<path d="M57,346h 43v -2h 1v 2v -4v 2v -1h 1v -1v 1v -9h 1v 2v -8v 9v -12h 1v 10v -9v 7h 1v 2v -10v 6v -8h 1v 9v -7h 1v 5v -4v 8v -9h 1v -4v 14v -12v 6h 1v 3v -4v 6v -4h 1v -3v 6v -9h 1v 9v -11v 13v -3h 1v -9v 10v -10h 1v 11v -11v 10h 1v -8v 8v -7h
 1v 7v -6v 7v -1h 1v -12v 12v -7h 1v 11v -14v 11h 1v -8v 6v -6h 1v 5v -6v 7h 1v -7v 6v -9h 1v 12v -10v 9h 1v -10v 10v -8h 1v -5v 13v -10v 12h 1v -12v 8v -7h 1v 9v -9v 7h 1v -8v 11v -9h 1v 9v -10v 11h 1v -13v 12v -10h 1v -1v 12v -9v 5h 1v 1v -9v 11v
 -6h 1v -5v 9v -6v 6h 1v -6v 9v -6h 1v -7v 11v -10v 9h 1v -7v 7h 1v -11v 10v -5v 3h 1v 5v -12v 12v -2h 1v -10v 12v -6v 2h 1v 2v -8v 9h 1v -10v 10v -8v 5h 1v 4v -9v 6h 1v -9v 11v -9v 4h 1v 5v -6v 6h 1v -8v 7v -8v 2h 1v 7v -9v 8v -4h 1v -5v 8v -7h 1v
 9v -7v 8v -7h 1v -3v 8v -7v 1h 1v 6v -6v 8v -3h 1v -5v 6v -7h 1v 6v -10v 13v -2h 1v -8v 9v -12h 1v 14v -12v 11h 1v -9v 8v -7h 1v 8v -10v 10h 1v -8v 8v -9h 1v 8v -10v 10h 1v -7v 6v -9h 1v 11v -12v 13h 1v -12v 11v -15h 1v 13v -8v 10h 1v -11v 10v -7h
 1v -1v 6v -7v 11h 1v -10v 9v -5h 1v -7v 10v -9v 7h 1v -5v 8v -6h 1v -1v 9v -11v 9h 1v -12v 13v -5h 1v -6v 11v -10v 9h 1v -8v 7v -1h 1v -4v 8v -12v 6h 1v 4v -11v 10h 1v -7v 8v -8v 4h 1v 4v -8v 10h 1v -9v 7v -12v 9h 1v 4v -10v 6h 1v -8v 10v -8v 2h 1v
 5v -6v 5h 1v -3v 6v -10v 1h 1v 7v -4v 5h 1v -12v 15v -10v 3h 1v 4v -9v 10h 1v -12v 11v -8v 1h 1v 10v -11v 10h 1v -11v 8v -6h 1v 9v -9v 7h 1v -6v 5v -7h 1v 7v -6v 5h 1v -5v 6v -6h 1v 8v -12v 12h 1v -9v 8v -8h 1v 8v -9v 10h 1v -8v 7v -9h 1v 12v -12v
 12h 1v -11v 8v -5h 1v -3v 9v -8v 12h 1v -13v 9v -8h 1v 7v -7v 7h 1v -7v 5v -4h 1v 10v -15v 9h 1v -5v 8v -5h 1v -6v 11v -7v 8h 1v -8v 8v -6h 1v -3v 12v -12v 7h 1v -5v 5v -2h 1v -6v 8v -6v 5h 1v 2v -9v 8v -3h 1v -4v 8v -10v 8h 1v 2v -8v 7h 1v -9v 11v
 -11v 4h 1v 3v -6v 10h 1v -12v 12v -8h 1v 8v -10v 10h 1v -9v 8v -10v 5h 1v 4v -7v 9h 1v -12v 9v -6h 1v 7v -10v 12h 1v -9v 7v -7h 1v 8v -11v 10h 1v -10v 10v -8v 1h 1v 6v -7v 8h 1v -7v 7v -7h 1v 7v -7v 7h 1v 1v -10v 10v -10h 1v 12v -12v 8h 1v -11v 14v
 -11h 1v 10v -12v 12h 1v -8v 5v -7h 1v -1v 11v -9v 7h 1v -9v 9v -8h 1v 11v -8v 8h 1v -9v 8v -8h 1v 8v -8v 10h 1v -9v 6v -6h 1v 4v -5v 6h 1v -7v 10v -6h 1v -5v 9v -6v 5h 1v -9v 12v -3h 1v -8v 10v -9v 7h 1v -6v 7v -1h 1v -7v 10v -14v 12h 1v -8v 11v -6h
 1v -6v 12v -13v 6h 1v 2v -7v 8h 1v -7v 6v -6v 6h 1v 6v -13v 9v -3h 1v -7v 10v -9v 5h 1v 7v -13v 10h 1v -8v 7v -8v 2h 1v 9v -11v 9h 1v -12v 13v -8v 1h 1v 5v -9v 9h 1v -14v 15v -9h 1v 8v -7v 9h 1v -10v 9v -8v 1h 1v 8v -11v 11h 1v -12v 12v -13h 1v 12v
 -9v 7h 1v -6v 9v -12h 1v 10v -8v 9h 1v -10v 11v -15h 1v 13v -11v 9h 1v -6v 9v -9h 1v 10v -11v 6h 1v 4v -9v 6v -7h 1v 12v -12v 3h 1v 5v -9v 9v -9h 1v 9v -11v 14h 1v -11v 8v -7h 1v 6v -7v 12h 1v -10v 7v -5h 1v -1v 5v -9v 11h 1v -12v 13v -8h 1v -2v 6v
 -6v 8h 1v -10v 11v -10h 1v 9v -10v 10h 1v -11v 12h 1v -11v 9v -8v 6h 1v 3v -9v 6v -3h 1v -5v 10v -10v 4h 1v 7v -10v 8v -1h 1v -8v 7v -14v 2h 1v 10v -13v 15h 1v 19v -293v 120h 1v 47v -4v 18h 1v 1v -6v 18v -11v 3h 1v 11v -4v 1v -4v 12h 1v -8v 6v -12h
 1v 13v -8v 10v -2h 1v -5v 9v -7h 1v 17v -15v 10h 1v -7v 20v -16h 1v 12v -6v 1v -1h 1v 6v -8v 2h 1v -1v 12v -14v 16h 1v -11v 12v -7v 2h 1v 4v -6v 5h 1v 5v -10v 12v -8h 1v 6v -6v 6h 1v -5v 4v -2v 6h 1v -5v 11v -10h 1v 9v -12v 12v -11h 1v 9v -8v 3h 1v
 7v -7v 8v -11h 1v 17v -11v 6h 1v 5v -14v 11v -7h 1v -5v 17v -14v 7h 1v 4v -6v 11v -13h 1v 11v -7v 7h 1v -10v 10v -2h 1v -4v 10v -11v 8h 1v -9v 12v -7h 1v -7v 14v -6h 1v 10v -11v 13v -8h 1v -7v 13v -9v 7h 1v -10v 16v -8h 1v -7v 13v -7v 4h 1v 2v -11v
 11h 1v -7v 15v -18v 8h 1v 4v -11v 16h 1v -9v 7v -8v 4h 1v 2v -7v 10h 1v -10v 8v -11v 8h 1v 6v -12v 12h 1v -4v 6v -11h 1v 9v -10v 11h 1v -9v 8v -6v 1h 1v 7v -8v 11h 1v -13v 13v -17h 1v 17v -13v 13h 1v -11v 10v -12v 3h 1v 8v -8v 8h 1v -7v 7v -5h 1v 5v
 -9v 8h 1v -4v 10v -12h 1v 10v -7v 7h 1v -8v 10v -11h 1v 9v -8v 5h 1v 5v -11v 10v -6h 1v 8v -12v 7h 1v 7v -9v 7v -14h 1v 15v -11v 4h 1v 6v -9v 8v -8h 1v 9v -8h 1v 11v -13v 11v -8h 1v -2v 9v -8h 1v 7v -6v 12v -8h 1v -7v 10v -6v 2h 1v 7v -11v 9v -7h 1v
 6v -8v 1h 1v 6v -7v 12v -2h 1v -8v 5v -6v 8h 1v -7v 8v -1h 1v -6v 10v -12v 6h 1v 5v -9v 5h 1v -7v 13v -9h 1v 6v -7v 5h 1v -6v 6v -6v 8h 1v -10v 12h 1v -11v 11v -11v 4h 1v 5v -9v 7h 1v -5v 8v -9h 1v 8v -9v 13h 1v -13v 11v -12h 1v 12v -8v 8h 1v -8v 8v
 -10h 1v 9v -8v 9h 1v -10v 10v -8h 1v 7v -9v 10h 1v -11v 12v -13h 1v 11v -10v 9h 1v 2v -8v 9v -6h 1v -2v 7v -8v 6h 1v -5v 9v -10h 1v 7v -5h 1v 8v -12v 9v -6h 1v 9v -10v 4h 1v 5v -12v 11v -7h 1v 9v -8v 1h 1v 7v -9v 8v -6h 1v -3v 9v -10v 2h 1v 9v -10v
 9v -4h 1v -5v 12v -13v 2h 1v 7v -5v 9v -8h 1v -5v 9v -7h 1v 6v -5v 8v -7h 1v -2v 8v -10h 1v 9v -6v 7h 1v -9v 10v -7h 1v 7v -8v 7v -1h 1v -10v 12v -5h 1v -2v 7v -10v 8h 1v -6v 5v -6v 4h 1v 5v -10v 11h 1v -11v 10v -6v 2h 1v 2v -6v 9h 1v -12v 9v -6h 1v
 9v -13v 9h 1v -5v 6v -7v 1h 1v 7v -9v 13h 1v -18v 15v -10h 1v 11v -10v 11h 1v -7v 1v -4v 11v -11h 1v 8v -9v 10h 1v -11v 13v -13h 1v 12v -11v 6h 1v 3v -9v 9v -5h 1v 6v -7v 3h 1v 2v -7v 6v -9h 1v 11v -7v 6h 1v 2v -10v 8v -6h 1v 7v -7v 2h 1v 6v -9v 8v
 -5h 1v -3v 9v -10v 6h 1v 1v -9v 12v -11h 1v 11v -10v 3h 1v 9v -11v 10v -10h 1v -1v 9v -10h 1v 9v -8v 8v -5h 1v -5v 11v -9h 1v 8v -5v 9v -6h 1v -5v 8v -9h 1v 8v -6v 6v -1h 1v -11v 16v -7v 1h 1v 2v -10v 13v -3h 1v -6v 9v -9h 1v 7v -7v 7h 1v -12v 11v
 -9h 1v 11v -7v 7h 1v -11v 9v -6h 1v 8v -15v 16h 1v -13v 10v -10h 1v 13v -9v 8h 1v -10v 12v -9h 1v 7v -10v 9h 1v -10v 10v -5h 1v 4v -7v 11h 1v -9v 9v -10h 1v 8v -11v 10h 1v 1v -8v 6v -10h 1v 14v -11v 10h 1v -8v 9v -11h 1v 8v -9v 8h 1v -6v 7v -5h 1v
 7v -10v 4h 1v 5v -7v 5v -5h 1v 7v -10v 4h 1v 5v -10v 11v -6h 1v 8v -10v 1h 1v 8v -12v 8v -3h 1v -2v 8v -8h 1v 8v -11v 13v -7h 1v -2v 6v -8v 2h 1v 6v -7v 9v -5h 1v -2v 6v -8h 1v 7v -9v 9v -5h 1v -2v 8v -10h 1v 10v -8v 6v -3h 1v -3v 10v -12h 1v 12v
 -10v 8h 1v -10v 12v -9h 1v 6v -8v 11h 1v -14v 13v -14h 1v 14v -9v 8h 1v -9v 8v -10h 1v 13v -11v 12h 1v -13v 11v -11h 1v 10v -8v 9h 1v -10v 10v -8h 1v 7v -9v 7h 1v -7v 7v -7h 1v 9v -8v 7h 1v -9v 11v -6h 1v -4v 7v -8v 10h 1v -9v 8v -9h 1v 12v -14v 8h
 1v 1v -8v 10v -9h 1v 10v -7v 4h 1v 3v -9v 10v -7h 1v 9v -12v 7h 1v -11v 13v -8h 1v 8v -10v 8h 1v 3v -8v 6v -7h 1v 9v -14v 5h 1v 9v -7v 6v -12h 1v 12v -9v 4h 1v 7v -12v 10v -8h 1v 7v -4h 1v 5v -11v 9v -1h 1v -4v 5v -8h 1v 10v -10v 11v -4h 1v -6v 9v
 -9h 1v 7v -7v 11v -4h 1v -4v 7v -10h 1v 9v -8v 10v -7h 1v -4v 10v -8h 1v 8v -10v 8v -1h 1v -7v 11v -12h 1v 9v -8v 8h 1v -8v 7v -8h 1v 10v -9v 12h 1v -15v 12v -7h 1v 7v -6v 5h 1v -9v 11v -7h 1v 5v -12v 16h 1v -11v 11v -10h 1v -2v 9v -9v 9h 1v -11v
 11v -7h 1v -4v 14v -10v 6h 1v -6v 3v -3h 1v 7v -7" fill="none" stroke="#000099"/>
<path d="M284,219v 10" fill="none" stroke="#ff0000" stroke-width="2"/>
<path d="M285,229v 14" fill="none" stroke="#ff0000" stroke-width="2"/>
<path d="M285,235v 13" fill="none" stroke="#ff0000" stroke-width="2"/>
<path d="M286,239v 13" fill="none" stroke="#ff0000" stroke-width="2"/>
<path d="M287,243v 12" fill="none" stroke="#ff0000" stroke-width="2"/>
<path d="M288,249v 9" fill="none" stroke="#ff0000" stroke-width="2"/>
<path d="M289,251v 12" fill="none" stroke="#ff0000" stroke-width="2"/>
<path d="M289,253v 11" fill="none" stroke="#ff0000" stroke-width="2"/>
<path d="M290,255v 12" fill="none" stroke="#ff0000" stroke-width="2"/>
<path d="M291,257v 12" fill="none" stroke="#ff0000" stroke-width="2"/>
<path d="M292,260v 11" fill="none" stroke="#ff0000" stroke-width="2"/>
<path d="M293,262v 11" fill="none" stroke="#ff0000" stroke-width="2"/>
<path d="M293,264v 11" fill="none" stroke="#ff0000" stroke-width="2"/>
<path d="M294,265v 12" fill="none" stroke="#ff0000" stroke-width="2"/>
<path d="M295,267v 11" fill="none" stroke="#ff0000" stroke-width="2"/>
<path d="M296,269v 12" fill="none" stroke="#ff0000" stroke-width="2"/>
<path d="M297,271v 11" fill="none" stroke="#ff0000" stroke-width="2"/>
<path d="M298,273v 11" fill="none" stroke="#ff0000" stroke-width="2"/>
<path d="M298,273v 13" fill="none" stroke="#ff0000" stroke-width="2"/>
<path d="M299,277v 9" fill="none" stroke="#ff0000" stroke-width="2"/>
<path d="M300,277v 12" fill="none" stroke="#ff0000" stroke-width="2"/>
<path d="M301,279v 12" fill="none" stroke="#ff0000" stroke-width="2"/>
<path d="M302,280v 11" fill="none" stroke="#ff0000" stroke-width="2"/>
<path d="M302,281v 11" fill="none" stroke="#ff0000" stroke-width="2"/>
<path d="M303,283v 11" fill="none" stroke="#ff0000" stroke-width="2"/>
<path d="M304,284v 11" fill="none" stroke="#ff0000" stroke-width="2"/>
<path d="M305,286v 11" fill="none" stroke="#ff0000" stroke-width="2"/>
<path d="M306,286v 12" fill="none" stroke="#ff0000" stroke-width="2"/>
<path d="M307,287v 12" fill="none" stroke="#ff0000" stroke-width="2"/>
<path d="M307,289v 10" fill="none" stroke="#ff0000" stroke-width="2"/>
<path d="M308,290v 11" fill="none" stroke="#ff0000" stroke-width="2"/>
<path d="M309,291v 11" fill="none" stroke="#ff0000" stroke-width="2"/>
<path d="M310,292v 11" fill="none" stroke="#ff0000" stroke-width="2"/>
<path d="M311,293v 11" fill="none" stroke="#ff0000" stroke-width="2"/>
<path d="M311,294v 11" fill="none" stroke="#ff0000" stroke-width="2"/>
<path d="M312,295v 11" fill="none" stroke="#ff0000" stroke-width="2"/>
<path d="M313,295v 12" fill="none" stroke="#ff0000" stroke-width="2"/>
<path d="M314,296v 12" fill="none" stroke="#ff0000" stroke-width="2"/>
<path d="M315,298v 10" fill="none" stroke="#ff0000" stroke-width="2"/>
<path d="M315,299v 10" fill="none" stroke="#ff0000" stroke-width="2"/>
<path d="M316,299v 11" fill="none" stroke="#ff0000" stroke-width="2"/>
<path d="M317,299v 12" fill="none" stroke="#ff0000" stroke-width="2"/>
<path d="M318,300v 12" fill="none" stroke="#ff0000" stroke-width="2"/>
<path d="M319,301v 11" fill="none" stroke="#ff0000" stroke-width="2"/>
<path d="M320,302v 11" fill="none" stroke="#ff0000" stroke-width="2"/>
<path d="M320,303v 11" fill="none" stroke="#ff0000" stroke-width="2"/>
<path d="M321,304v 10" fill="none" stroke="#ff0000" stroke-width="2"/>
<path d="M322,304v 11" fill="none" stroke="#ff0000" stroke-width="2"/>
<path d="M323,304v 11" fill="none" stroke="#ff0000" stroke-width="2"/>
<path d="M324,305v 12" fill="none" stroke="#ff0000" stroke-width="2"/>
<path d="M324,306v 11" fill="none" stroke="#ff0000" stroke-width="2"/>
<path d="M325,306v 11" fill="none" stroke="#ff0000" stroke-width="2"/>
<path d="M326,307v 10" fill="none" stroke="#ff0000" stroke-width="2"/>
<path d="M327,308v 10" fill="none" stroke="#ff0000" stroke-width="2"/>
<path d="M328,308v 11" fill="none" stroke="#ff0000" stroke-width="2"/>
<path d="M329,308v 11" fill="none" stroke="#ff0000" stroke-width="2"/>
<path d="M329,308v 12" fill="none" stroke="#ff0000" stroke-width="2"/>
<path d="M330,309v 11" fill="none" stroke="#ff0000" stroke-width="2"/>
<path d="M331,309v 12" fill="none" stroke="#ff0000" stroke-width="2"/>
<path d="M332,310v 11" fill="none" stroke="#ff0000" stroke-width="2"/>
<path d="M333,310v 11" fill="none" stroke="#ff0000" stroke-width="2"/>
<path d="M333,311v 10" fill="none" stroke="#ff0000" stroke-width="2"/>
<path d="M334,312v 10" fill="none" stroke="#ff0000" stroke-width="2"/>
<path d="M335,312v 10" fill="none" stroke="#ff0000" stroke-width="2"/>
<path d="M336,312v 11" fill="none" stroke="#ff0000" stroke-width="2"/>
<path d="M337,313v 10" fill="none" stroke="#ff0000" stroke-width="2"/>
<path d="M337,313v 10" fill="none" stroke="#ff0000" stroke-width="2"/>
<path d="M338,313v 11" fill="none" stroke="#ff0000" stroke-width="2"/>
<path d="M339,313v 11" fill="none" stroke="#ff0000" stroke-width="2"/>
<path d="M340,313v 12" fill="none" stroke="#ff0000" stroke-width="2"/>
<path d="M341,314v 11" fill="none" stroke="#ff0000" stroke-width="2"/>
<path d="M342,314v 11" fill="none" stroke="#ff0000" stroke-width="2"/>
<path d="M342,314v 12" fill="none" stroke="#ff0000" stroke-width="2"/>
<path d="M343,315v 11" fill="none" stroke="#ff0000" stroke-width="2"/>
<path d="M344,315v 11" fill="none" stroke="#ff0000" stroke-width="2"/>
<path d="M345,315v 11" fill="none" stroke="#ff0000" stroke-width="2"/>
<path d="M346,316v 10" fill="none" stroke="#ff0000" stroke-width="2"/>
<path d="M346,316v 10" fill="none" stroke="#ff0000" stroke-width="2"/>
<path d="M347,316v 11" fill="none" stroke="#ff0000" stroke-width="2"/>
<path d="M348,316v 11" fill="none" stroke="#ff0000" stroke-width="2"/>
<path d="M349,317v 10" fill="none" stroke="#ff0000" stroke-width="2"/>
<path d="M350,317v 10" fill="none" stroke="#ff0000" stroke-width="2"/>
<path d="M351,317v 11" fill="none" stroke="#ff0000" stroke-width="2"/>
<path d="M351,317v 11" fill="none" stroke="#ff0000" stroke-width="2"/>
<path d="M352,317v 11" fill="none" stroke="#ff0000" stroke-width="2"/>
<path d="M353,317v 11" fill="none" stroke="#ff0000" stroke-width="2"/>
<path d="M354,317v 11" fill="none" stroke="#ff0000" stroke-width="2"/>
<path d="M355,317v 12" fill="none" stroke="#ff0000" stroke-width="2"/>
<path d="M355,317v 12" fill="none" stroke="#ff0000" stroke-width="2"/>
<path d="M356,318v 11" fill="none" stroke="#ff0000" stroke-width="2"/>
<path d="M357,318v 11" fill="none" stroke="#ff0000" stroke-width="2"/>
<path d="M358,318v 11" fill="none" stroke="#ff0000" stroke-width="2"/>
<path d="M359,318v 12" fill="none" stroke="#ff0000" stroke-width="2"/>
<path d="M359,318v 12" fill="none" stroke="#ff0000" stroke-width="2"/>
<path d="M360,318v 12" fill="none" stroke="#ff0000" stroke-width="2"/>
<path d="M361,319v 11" fill="none" stroke="#ff0000" stroke-width="2"/>
<path d="M362,319v 11" fill="none" stroke="#ff0000" stroke-width="2"/>
<path d="M363,319v 11" fill="none" stroke="#ff0000" stroke-width="2"/>
<path d="M364,319v 11" fill="none" stroke="#ff0000" stroke-width="2"/>
<path d="M364,319v 11" fill="none" stroke="#ff0000" stroke-width="2"/>
<path d="M365,319v 11" fill="none" stroke="#ff0000" stroke-width="2"/>
<path d="M366,320v 10" fill="none" stroke="#ff0000" stroke-width="2"/>
<path d="M367,320v 10" fill="none" stroke="#ff0000" stroke-width="2"/>
<path d="M368,320v 10" fill="none" stroke="#ff0000" stroke-width="2"/>
<path d="M368,320v 10" fill="none" stroke="#ff0000" stroke-width="2"/>
<path d="M369,320v 10" fill="none" stroke="#ff0000" stroke-width="2"/>
<path d="M370,320v 11" fill="none" stroke="#ff0000" stroke-width="2"/>
<path d="M371,320v 11" fill="none" stroke="#ff0000" stroke-width="2"/>
<path d="M372,320v 11" fill="none" stroke="#ff0000" stroke-width="2"/>
<path d="M372,320v 11" fill="none" stroke="#ff0000" stroke-width="2"/>
<path d="M373,321v 10" fill="none" stroke="#ff0000" stroke-width="2"/>
<path d="M374,321v 10" fill="none" stroke="#ff0000" stroke-width="2"/>
<path d="M375,321v 10" fill="none" stroke="#ff0000" stroke-width="2"/>
<path d="M376,321v 10" fill="none" stroke="#ff0000" stroke-width="2"/>
<path d="M377,321v 10" fill="none" stroke="#ff0000" stroke-width="2"/>
<path d="M377,321v 10" fill="none" stroke="#ff0000" stroke-width="2"/>
<path d="M378,321v 10" fill="none" stroke="#ff0000" stroke-width="2"/>
<path d="M379,321v 10" fill="none" stroke="#ff0000" stroke-width="2"/>
<path d="M380,321v 11" fill="none" stroke="#ff0000" stroke-width="2"/>
<path d="M381,321v 11" fill="none" stroke="#ff0000" stroke-width="2"/>
<path d="M381,321v 11" fill="none" stroke="#ff0000" stroke-width="2"/>
<path d="M382,321v 11" fill="none" stroke="#ff0000" stroke-width="2"/>
<path d="M383,321v 11" fill="none" stroke="#ff0000" stroke-width="2"/>
<path d="M384,321v 11" fill="none" stroke="#ff0000" stroke-width="2"/>
<path d="M385,321v 11" fill="none" stroke="#ff0000" stroke-width="2"/>
<path d="M386,321v 11" fill="none" stroke="#ff0000" stroke-width="2"/>
<path d="M386,321v 11" fill="none" stroke="#ff0000" stroke-width="2"/>
<path d="M387,321v 11" fill="none" stroke="#ff0000" stroke-width="2"/>
<path d="M388,321v 11" fill="none" stroke="#ff0000" stroke-width="2"/>
<path d="M389,321v 11" fill="none" stroke="#ff0000" stroke-width="2"/>
<path d="M390,321v 11" fill="none" stroke="#ff0000" stroke-width="2"/>
<path d="M390,321v 11" fill="none" stroke="#ff0000" stroke-width="2"/>
<path d="M391,321v 11" fill="none" stroke="#ff0000" stroke-width="2"/>
<path d="M392,321v 11" fill="none" stroke="#ff0000" stroke-width="2"/>
<path d="M393,321v 11" fill="none" stroke="#ff0000" stroke-width="2"/>
<path d="M394,321v 12" fill="none" stroke="#ff0000" stroke-width="2"/>
<path d="M394,321v 12" fill="none" stroke="#ff0000" stroke-width="2"/>
<path d="M395,321v 12" fill="none" stroke="#ff0000" stroke-width="2"/>
<path d="M396,321v 12" fill="none" stroke="#ff0000" stroke-width="2"/>
<path d="M397,321v 12" fill="none" stroke="#ff0000" stroke-width="2"/>
<path d="M398,321v 12" fill="none" stroke="#ff0000" stroke-width="2"/>
<path d="M399,321v 12" fill="none" stroke="#ff0000" stroke-width="2"/>
<path d="M399,321v 12" fill="none" stroke="#ff0000" stroke-width="2"/>
<path d="M400,321v 12" fill="none" stroke="#ff0000" stroke-width="2"/>
<path d="M401,322v 11" fill="none" stroke="#ff0000" stroke-width="2"/>
<path d="M402,322v 11" fill="none" stroke="#ff0000" stroke-width="2"/>
<path d="M403,322v 11" fill="none" stroke="#ff0000" stroke-width="2"/>
<path d="M403,322v 11" fill="none" stroke="#ff0000" stroke-width="2"/>
<path d="M404,322v 11" fill="none" stroke="#ff0000" stroke-width="2"/>
<path d="M405,322v 11" fill="none" stroke="#ff0000" stroke-width="2"/>
<path d="M406,322v 11" fill="none" stroke="#ff0000" stroke-width="2"/>
<path d="M407,322v 11" fill="none" stroke="#ff0000" stroke-width="2"/>
<path d="M408,322v 11" fill="none" stroke="#ff0000" stroke-width="2"/>
<path d="M408,322v 11" fill="none" stroke="#ff0000" stroke-width="2"/>
<path d="M409,322v 11" fill="none" stroke="#ff0000" stroke-width="2"/>
<path d="M410,322v 11" fill="none" stroke="#ff0000" stroke-width="2"/>
<path d="M411,322v 11" fill="none" stroke="#ff0000" stroke-width="2"/>
<path d="M412,322v 11" fill="none" stroke="#ff0000" stroke-width="2"/>
<path d="M412,322v 11" fill="none" stroke="#ff0000" stroke-width="2"/>
<path d="M413,322v 11" fill="none" stroke="#ff0000" stroke-width="2"/>
<path d="M414,322v 11" fill="none" stroke="#ff0000" stroke-width="2"/>
<path d="M415,322v 11" fill="none" stroke="#ff0000" stroke-width="2"/>
<path d="M416,322v 11" fill="none" stroke="#ff0000" stroke-width="2"/>
<path d="M416,322v 11" fill="none" stroke="#ff0000" stroke-width="2"/>
<path d="M417,322v 11" fill="none" stroke="#ff0000" stroke-width="2"/>
<path d="M418,322v 11" fill="none" stroke="#ff0000" stroke-width="2"/>
<path d="M419,322v 11" fill="none" stroke="#ff0000" stroke-width="2"/>
<path d="M420,322v 11" fill="none" stroke="#ff0000" stroke-width="2"/>
<path d="M421,322v 11" fill="none" stroke="#ff0000" stroke-width="2"/>
<path d="M421,322v 11" fill="none" stroke="#ff0000" stroke-width="2"/>
<path d="M422,322v 11" fill="none" stroke="#ff0000" stroke-width="2"/>
<path d="M423,322v 11" fill="none" stroke="#ff0000" stroke-width="2"/>
<path d="M424,322v 11" fill="none" stroke="#ff0000" stroke-width="2"/>
<path d="M425,322v 11" fill="none" stroke="#ff0000" stroke-width="2"/>
<path d="M425,322v 11" fill="none" stroke="#ff0000" stroke-width="2"/>
<path d="M426,322v 11" fill="none" stroke="#ff0000" stroke-width="2"/>
<path d="M427,322v 11" fill="none" stroke="#ff0000" stroke-width="2"/>
<path d="M428,322v 11" fill="none" stroke="#ff0000" stroke-width="2"/>
<path d="M429,322v 11" fill="none" stroke="#ff0000" stroke-width="2"/>
<path d="M430,322v 11" fill="none" stroke="#ff0000" stroke-width="2"/>
<path d="M430,322v 12" fill="none" stroke="#ff0000" stroke-width="2"/>
<path d="M431,322v 12" fill="none" stroke="#ff0000" stroke-width="2"/>
<path d="M432,322v 12" fill="none" stroke="#ff0000" stroke-width="2"/>
<path d="M433,322v 12" fill="none" stroke="#ff0000" stroke-width="2"/>
<path d="M434,322v 12" fill="none" stroke="#ff0000" stroke-width="2"/>
<path d="M434,322v 12" fill="none" stroke="#ff0000" stroke-width="2"/>
<path d="M435,322v 12" fill="none" stroke="#ff0000" stroke-width="2"/>
<path d="M436,322v 12" fill="none" stroke="#ff0000" stroke-width="2"/>
<path d="M437,322v 12" fill="none" stroke="#ff0000" stroke-width="2"/>
<path d="M438,322v 12" fill="none" stroke="#ff0000" stroke-width="2"/>
<path d="M438,322v 12" fill="none" stroke="#ff0000" stroke-width="2"/>
<path d="M439,322v 12" fill="none" stroke="#ff0000" stroke-width="2"/>
<path d="M440,322v 12" fill="none" stroke="#ff0000" stroke-width="2"/>
<path d="M441,322v 12" fill="none" stroke="#ff0000" stroke-width="2"/>
<path d="M442,322v 12" fill="none" stroke="#ff0000" stroke-width="2"/>
<path d="M443,322v 12" fill="none" stroke="#ff0000" stroke-width="2"/>
<path d="M443,322v 12" fill="none" stroke="#ff0000" stroke-width="2"/>
<path d="M444,322v 12" fill="none" stroke="#ff0000" stroke-width="2"/>
<path d="M445,322v 12" fill="none" stroke="#ff0000" stroke-width="2"/>
<path d="M446,322v 12" fill="none" stroke="#ff0000" stroke-width="2"/>
<path d="M447,322v 12" fill="none" stroke="#ff0000" stroke-width="2"/>
<path d="M447,322v 12" fill="none" stroke="#ff0000" stroke-width="2"/>
<path d="M448,322v 12" fill="none" stroke="#ff0000" stroke-width="2"/>
<path d="M449,322v 12" fill="none" stroke="#ff0000" stroke-width="2"/>
<path d="M450,322v 12" fill="none" stroke="#ff0000" stroke-width="2"/>
<path d="M451,322v 12" fill="none" stroke="#ff0000" stroke-width="2"/>
<path d="M452,322v 12" fill="none" stroke="#ff0000" stroke-width="2"/>
<path d="M452,322v 12" fill="none" stroke="#ff0000" stroke-width="2"/>
<path d="M453,322v 12" fill="none" stroke="#ff0000" stroke-width="2"/>
<path d="M454,322v 12" fill="none" stroke="#ff0000" stroke-width="2"/>
<path d="M455,322v 12" fill="none" stroke="#ff0000" stroke-width="2"/>
<path d="M456,322v 12" fill="none" stroke="#ff0000" stroke-width="2"/>
<path d="M456,322v 12" fill="none" stroke="#ff0000" stroke-width="2"/>
<path d="M457,322v 12" fill="none" stroke="#ff0000" stroke-width="2"/>
<path d="M458,322v 12" fill="none" stroke="#ff0000" stroke-width="2"/>
<path d="M459,322v 12" fill="none" stroke="#ff0000" stroke-width="2"/>
<path d="M460,322v 12" fill="none" stroke="#ff0000" stroke-width="2"/>
<path d="M460,322v 12" fill="none" stroke="#ff0000" stroke-width="2"/>
<path d="M461,322v 12" fill="none" stroke="#ff0000" stroke-width="2"/>
<path d="M462,322v 12" fill="none" stroke="#ff0000" stroke-width="2"/>
<path d="M463,322v 12" fill="none" stroke="#ff0000" stroke-width="2"/>
<path d="M464,322v 12" fill="none" stroke="#ff0000" stroke-width="2"/>
<path d="M465,322v 12" fill="none" stroke="#ff0000" stroke-width="2"/>
<path d="M465,322v 12" fill="none" stroke="#ff0000" stroke-width="2"/>
<path d="M466,322v 12" fill="none" stroke="#ff0000" stroke-width="2"/>
<path d="M467,322v 12" fill="none" stroke="#ff0000" stroke-width="2"/>
<path d="M468,322v 12" fill="none" stroke="#ff0000" stroke-width="2"/>
<path d="M469,322v 12" fill="none" stroke="#ff0000" stroke-width="2"/>
<path d="M469,322v 12" fill="none" stroke="#ff0000" stroke-width="2"/>
<path d="M470,322v 12" fill="none" stroke="#ff0000" stroke-width="2"/>
<path d="M471,322v 12" fill="none" stroke="#ff0000" stroke-width="2"/>
<path d="M472,322v 12" fill="none" stroke="#ff0000" stroke-width="2"/>
<path d="M473,322v 12" fill="none" stroke="#ff0000" stroke-width="2"/>
<path d="M473,322v 12" fill="none" stroke="#ff0000" stroke-width="2"/>
<path d="M474,322v 12" fill="none" stroke="#ff0000" stroke-width="2"/>
<path d="M475,322v 12" fill="none" stroke="#ff0000" stroke-width="2"/>
<path d="M476,322v 12" fill="none" stroke="#ff0000" stroke-width="2"/>
<path d="M477,322v 12" fill="none" stroke="#ff0000" stroke-width="2"/>
<path d="M478,322v 12" fill="none" stroke="#ff0000" stroke-width="2"/>
<path d="M478,322v 12" fill="none" stroke="#ff0000" stroke-width="2"/>
<path d="M479,322v 12" fill="none" stroke="#ff0000" stroke-width="2"/>
<path d="M480,322v 12" fill="none" stroke="#ff0000" stroke-width="2"/>
<path d="M481,322v 12" fill="none" stroke="#ff0000" stroke-width="2"/>
<path d="M482,322v 12" fill="none" stroke="#ff0000" stroke-width="2"/>
<path d="M482,322v 12" fill="none" stroke="#ff0000" stroke-width="2"/>
<path d="M483,322v 12" fill="none" stroke="#ff0000" stroke-width="2"/>
<path d="M484,322v 12" fill="none" stroke="#ff0000" stroke-width="2"/>
<path d="M485,322v 12" fill="none" stroke="#ff0000" stroke-width="2"/>
<path d="M486,322v 12" fill="none" stroke="#ff0000" stroke-width="2"/>
<path d="M487,322v 12" fill="none" stroke="#ff0000" stroke-width="2"/>
<path d="M487,322v 12" fill="none" stroke="#ff0000" stroke-width="2"/>
<path d="M488,322v 12" fill="none" stroke="#ff0000" stroke-width="2"/>
<path d="M489,322v 12" fill="none" stroke="#ff0000" stroke-width="2"/>
<path d="M490,322v 12" fill="none" stroke="#ff0000" stroke-width="2"/>
<path d="M491,322v 12" fill="none" stroke="#ff0000" stroke-width="2"/>
<path d="M491,322v 12" fill="none" stroke="#ff0000" stroke-width="2"/>
<path d="M492,322v 12" fill="none" stroke="#ff0000" stroke-width="2"/>
<path d="M493,322v 12" fill="none" stroke="#ff0000" stroke-width="2"/>
<path d="M494,322v 12" fill="none" stroke="#ff0000" stroke-width="2"/>
<path d="M495,322v 12" fill="none" stroke="#ff0000" stroke-width="2"/>
<path d="M495,322v 12" fill="none" stroke="#ff0000" stroke-width="2"/>
<path d="M496,322v 12" fill="none" stroke="#ff0000" stroke-width="2"/>
<path d="M497,322v 12" fill="none" stroke="#ff0000" stroke-width="2"/>
<path d="M498,322v 12" fill="none" stroke="#ff0000" stroke-width="2"/>
<path d="M499,322v 12" fill="none" stroke="#ff0000" stroke-width="2"/>
<path d="M500,322v 12" fill="none" stroke="#ff0000" stroke-width="2"/>
<path d="M500,322v 12" fill="none" stroke="#ff0000" stroke-width="2"/>
<path d="M501,322v 12" fill="none" stroke="#ff0000" stroke-width="2"/>
<path d="M502,322v 12" fill="none" stroke="#ff0000" stroke-width="2"/>
<path d="M503,322v 12" fill="none" stroke="#ff0000" stroke-width="2"/>
<path d="M504,322v 12" fill="none" stroke="#ff0000" stroke-width="2"/>
<path d="M504,322v 12" fill="none" stroke="#ff0000" stroke-width="2"/>
<path d="M505,322v 12" fill="none" stroke="#ff0000" stroke-width="2"/>
<path d="M506,322v 12" fill="none" stroke="#ff0000" stroke-width="2"/>
<path d="M507,322v 12" fill="none" stroke="#ff0000" stroke-width="2"/>
<path d="M508,322v 12" fill="none" stroke="#ff0000" stroke-width="2"/>
<path d="M509,322v 12" fill="none" stroke="#ff0000" stroke-width="2"/>
<path d="M509,322v 12" fill="none" stroke="#ff0000" stroke-width="2"/>
<path d="M510,323v 10" fill="none" stroke="#ff0000" stroke-width="2"/>
<path d="M284,224l 1, 12v 6l 1, 4l 1, 3l 1, 4l 1, 3v 3l 1, 1l 1, 3l 1, 2l 1, 3v 1l 1, 2l 1, 2l 1, 2l 1, 2l 1, 1v 1l 1, 3l 1, 1l 1, 2l 1, 1l 1, 2l 1, 2l 1, 1l 1, 1l 1, 1v 1l 1, 1l 1, 1l 1, 1l 1, 1v 1l 1, 1l 1, 1l 1, 1l 1, 1v 1h 1l 1, 1l 1, 1h 1l 1, 2h
 1l 1, 1h 1l 1, 2l 1, 1h 1l 1, 1h 2v 1h 1l 1, 1h 1l 1, 1l 1, 1h 3l 1, 1h 1l 1, 1h 2v 1h 2l 1, 1h 5l 1, 1h 3l 1, 1h 3l 1, 1h 5v 1h 5l 1, 1h 23l 1, 1h 36v 1h 80" fill="none" stroke="#ff0000" stroke-width="2"/>
<rect x="351" y="25" width="205" height="169" fill="white"/>
<path d="M351,194h 205" fill="none" stroke="black"/>
<path d="M556,194v -169" fill="none" stroke="black"/>
<path d="M556,25h -205" fill="none" stroke="black"/>
<path d="M351,25v 169" fill="none" stroke="black"/>
<text x="362" y="38" fill="black" font-size="14" font-family="Helvetica">
Entries 
</text>
<text x="490" y="38" fill="black" font-size="14" font-family="Helvetica">
 351500
</text>
<text x="374" y="57" fill="black" font-size="14" font-family="Helvetica">
 / ndf 
</text>
<text x="369" y="45" fill="black" font-size="10" font-family="Helvetica">
2
</text>
<text x="362" y="57" fill="black" font-size="14" font-family="Times">
&#0967;
</text>
<text x="455" y="54" fill="black" font-size="14" font-family="Helvetica">
  1364 / 1239
</text>
<text x="382" y="67" fill="black" font-size="14" font-family="Helvetica">
   
</text>
<text x="372" y="76" fill="black" font-size="10" font-family="Helvetica">
cu
</text>
<text x="362" y="67" fill="black" font-size="14" font-family="Helvetica">
N
</text>
<text x="511" y="73" fill="black" font-size="14" font-family="Helvetica">
 86.0
</text>
<text x="499" y="73" fill="black" font-size="14" font-family="Times">
&#0177;
</text>
<text x="451" y="73" fill="black" font-size="14" font-family="Helvetica">
 176.5 
</text>
<text x="377" y="86" fill="black" font-size="14" font-family="Helvetica">
 
</text>
<text x="367" y="96" fill="black" font-size="10" font-family="Helvetica">
cu
</text>
<text x="362" y="86" fill="black" font-size="14" font-family="Times">
&#0964;
</text>
<text x="511" y="90" fill="black" font-size="14" font-family="Helvetica">
 67.4
</text>
<text x="499" y="90" fill="black" font-size="14" font-family="Times">
&#0177;
</text>
<text x="453" y="90" fill="black" font-size="14" font-family="Helvetica">
 113.8 
</text>
<text x="375" y="102" fill="black" font-size="14" font-family="Helvetica">
    
</text>
<text x="372" y="110" fill="black" font-size="10" font-family="Helvetica">
f
</text>
<text x="362" y="102" fill="black" font-size="14" font-family="Helvetica">
N
</text>
<text x="520" y="107" fill="black" font-size="14" font-family="Helvetica">
 7.5
</text>
<text x="507" y="107" fill="black" font-size="14" font-family="Times">
&#0177;
</text>
<text x="460" y="107" fill="black" font-size="14" font-family="Helvetica">
 558.8 
</text>
<text x="370" y="120" fill="black" font-size="14" font-family="Helvetica">
 
</text>
<text x="367" y="130" fill="black" font-size="10" font-family="Helvetica">
f
</text>
<text x="362" y="120" fill="black" font-size="14" font-family="Times">
&#0964;
</text>
<text x="511" y="124" fill="black" font-size="14" font-family="Helvetica">
 27.1
</text>
<text x="499" y="124" fill="black" font-size="14" font-family="Times">
&#0177;
</text>
<text x="451" y="124" fill="black" font-size="14" font-family="Helvetica">
  2200 
</text>
<text x="384" y="136" fill="black" font-size="14" font-family="Helvetica">
  
</text>
<text x="372" y="145" fill="black" font-size="10" font-family="Helvetica">
sin
</text>
<text x="362" y="136" fill="black" font-size="14" font-family="Helvetica">
N
</text>
<text x="511" y="141" fill="black" font-size="14" font-family="Helvetica">
 0.53
</text>
<text x="499" y="141" fill="black" font-size="14" font-family="Times">
&#0177;
</text>
<text x="451" y="141" fill="black" font-size="14" font-family="Helvetica">
 34.42 
</text>
<text x="367" y="158" fill="black" font-size="14" font-family="Helvetica">
     
</text>
<text x="362" y="158" fill="black" font-size="14" font-family="Times">
&#0966;
</text>
<text x="511" y="158" fill="black" font-size="14" font-family="Helvetica">
 0.37
</text>
<text x="499" y="158" fill="black" font-size="14" font-family="Times">
&#0177;
</text>
<text x="451" y="158" fill="black" font-size="14" font-family="Helvetica">
 38.33 
</text>
<text x="362" y="173" fill="black" font-size="14" font-family="Helvetica">
T        
</text>
<text x="511" y="175" fill="black" font-size="14" font-family="Helvetica">
 0.00
</text>
<text x="499" y="175" fill="black" font-size="14" font-family="Times">
&#0177;
</text>
<text x="451" y="175" fill="black" font-size="14" font-family="Helvetica">
 59.36 
</text>
<text x="377" y="186" fill="black" font-size="14" font-family="Helvetica">
    
</text>
<text x="372" y="195" fill="black" font-size="10" font-family="Helvetica">
b
</text>
<text x="362" y="186" fill="black" font-size="14" font-family="Helvetica">
N
</text>
<text x="520" y="192" fill="black" font-size="14" font-family="Helvetica">
 0.4
</text>
<text x="507" y="192" fill="black" font-size="14" font-family="Times">
&#0177;
</text>
<text x="462" y="192" fill="black" font-size="14" font-family="Helvetica">
 113.8 
</text>
<path d="M57,346h 453" fill="none" stroke="black"/>
<text x="419" y="372" fill="black" font-size="12" font-family="Helvetica">
TDC-TDC0 (ns)
</text>
<path d="M57,337v 9" fill="none" stroke="black"/>
<path d="M68,342v 4" fill="none" stroke="black"/>
<path d="M79,342v 4" fill="none" stroke="black"/>
<path d="M91,342v 4" fill="none" stroke="black"/>
<path d="M102,342v 4" fill="none" stroke="black"/>
<path d="M113,337v 9" fill="none" stroke="black"/>
<path d="M125,342v 4" fill="none" stroke="black"/>
<path d="M136,342v 4" fill="none" stroke="black"/>
<path d="M147,342v 4" fill="none" stroke="black"/>
<path d="M159,342v 4" fill="none" stroke="black"/>
<path d="M170,337v 9" fill="none" stroke="black"/>
<path d="M181,342v 4" fill="none" stroke="black"/>
<path d="M193,342v 4" fill="none" stroke="black"/>
<path d="M204,342v 4" fill="none" stroke="black"/>
<path d="M215,342v 4" fill="none" stroke="black"/>
<path d="M227,337v 9" fill="none" stroke="black"/>
<path d="M238,342v 4" fill="none" stroke="black"/>
<path d="M249,342v 4" fill="none" stroke="black"/>
<path d="M261,342v 4" fill="none" stroke="black"/>
<path d="M272,342v 4" fill="none" stroke="black"/>
<path d="M283,337v 9" fill="none" stroke="black"/>
<path d="M295,342v 4" fill="none" stroke="black"/>
<path d="M306,342v 4" fill="none" stroke="black"/>
<path d="M317,342v 4" fill="none" stroke="black"/>
<path d="M329,342v 4" fill="none" stroke="black"/>
<path d="M340,337v 9" fill="none" stroke="black"/>
<path d="M351,342v 4" fill="none" stroke="black"/>
<path d="M363,342v 4" fill="none" stroke="black"/>
<path d="M374,342v 4" fill="none" stroke="black"/>
<path d="M386,342v 4" fill="none" stroke="black"/>
<path d="M397,337v 9" fill="none" stroke="black"/>
<path d="M408,342v 4" fill="none" stroke="black"/>
<path d="M420,342v 4" fill="none" stroke="black"/>
<path d="M431,342v 4" fill="none" stroke="black"/>
<path d="M442,342v 4" fill="none" stroke="black"/>
<path d="M454,337v 9" fill="none" stroke="black"/>
<path d="M465,342v 4" fill="none" stroke="black"/>
<path d="M476,342v 4" fill="none" stroke="black"/>
<path d="M488,342v 4" fill="none" stroke="black"/>
<path d="M499,342v 4" fill="none" stroke="black"/>
<path d="M510,337v 9" fill="none" stroke="black"/>
<text x="36" y="359" fill="black" font-size="12" font-family="Helvetica">
-20000
</text>
<text x="93" y="359" fill="black" font-size="12" font-family="Helvetica">
-15000
</text>
<text x="149" y="359" fill="black" font-size="12" font-family="Helvetica">
-10000
</text>
<text x="210" y="359" fill="black" font-size="12" font-family="Helvetica">
-5000
</text>
<text x="280" y="359" fill="black" font-size="12" font-family="Helvetica">
0
</text>
<text x="325" y="359" fill="black" font-size="12" font-family="Helvetica">
5000
</text>
<text x="379" y="359" fill="black" font-size="12" font-family="Helvetica">
10000
</text>
<text x="435" y="359" fill="black" font-size="12" font-family="Helvetica">
15000
</text>
<text x="492" y="359" fill="black" font-size="12" font-family="Helvetica">
20000
</text>
<path d="M57,346v -308" fill="none" stroke="black"/>
<g transform="rotate(-90,29,72)">
<text x="29" y="72" fill="black" font-size="12" font-family="Helvetica">
Count
</text>
</g>
<path d="M70,346h -13" fill="none" stroke="black"/>
<path d="M63,339h -6" fill="none" stroke="black"/>
<path d="M63,331h -6" fill="none" stroke="black"/>
<path d="M63,323h -6" fill="none" stroke="black"/>
<path d="M70,315h -13" fill="none" stroke="black"/>
<path d="M63,307h -6" fill="none" stroke="black"/>
<path d="M63,299h -6" fill="none" stroke="black"/>
<path d="M63,291h -6" fill="none" stroke="black"/>
<path d="M70,283h -13" fill="none" stroke="black"/>
<path d="M63,275h -6" fill="none" stroke="black"/>
<path d="M63,268h -6" fill="none" stroke="black"/>
<path d="M63,260h -6" fill="none" stroke="black"/>
<path d="M70,252h -13" fill="none" stroke="black"/>
<path d="M63,244h -6" fill="none" stroke="black"/>
<path d="M63,236h -6" fill="none" stroke="black"/>
<path d="M63,228h -6" fill="none" stroke="black"/>
<path d="M70,220h -13" fill="none" stroke="black"/>
<path d="M63,212h -6" fill="none" stroke="black"/>
<path d="M63,204h -6" fill="none" stroke="black"/>
<path d="M63,196h -6" fill="none" stroke="black"/>
<path d="M70,189h -13" fill="none" stroke="black"/>
<path d="M63,181h -6" fill="none" stroke="black"/>
<path d="M63,173h -6" fill="none" stroke="black"/>
<path d="M63,165h -6" fill="none" stroke="black"/>
<path d="M70,157h -13" fill="none" stroke="black"/>
<path d="M63,149h -6" fill="none" stroke="black"/>
<path d="M63,141h -6" fill="none" stroke="black"/>
<path d="M63,133h -6" fill="none" stroke="black"/>
<path d="M70,125h -13" fill="none" stroke="black"/>
<path d="M63,118h -6" fill="none" stroke="black"/>
<path d="M63,110h -6" fill="none" stroke="black"/>
<path d="M63,102h -6" fill="none" stroke="black"/>
<path d="M70,94h -13" fill="none" stroke="black"/>
<path d="M63,86h -6" fill="none" stroke="black"/>
<path d="M63,78h -6" fill="none" stroke="black"/>
<path d="M63,70h -6" fill="none" stroke="black"/>
<path d="M70,62h -13" fill="none" stroke="black"/>
<path d="M70,62h -13" fill="none" stroke="black"/>
<path d="M63,54h -6" fill="none" stroke="black"/>
<path d="M63,46h -6" fill="none" stroke="black"/>
<path d="M63,39h -6" fill="none" stroke="black"/>
<text x="47" y="350" fill="black" font-size="12" font-family="Helvetica">
0
</text>
<text x="33" y="318" fill="black" font-size="12" font-family="Helvetica">
200
</text>
<text x="33" y="287" fill="black" font-size="12" font-family="Helvetica">
400
</text>
<text x="33" y="255" fill="black" font-size="12" font-family="Helvetica">
600
</text>
<text x="33" y="224" fill="black" font-size="12" font-family="Helvetica">
800
</text>
<text x="25" y="192" fill="black" font-size="12" font-family="Helvetica">
1000
</text>
<text x="25" y="161" fill="black" font-size="12" font-family="Helvetica">
1200
</text>
<text x="25" y="129" fill="black" font-size="12" font-family="Helvetica">
1400
</text>
<text x="25" y="97" fill="black" font-size="12" font-family="Helvetica">
1600
</text>
<text x="25" y="66" fill="black" font-size="12" font-family="Helvetica">
1800
</text>
<rect x="351" y="25" width="205" height="169" fill="white"/>
<path d="M351,194h 205" fill="none" stroke="black"/>
<path d="M556,194v -169" fill="none" stroke="black"/>
<path d="M556,25h -205" fill="none" stroke="black"/>
<path d="M351,25v 169" fill="none" stroke="black"/>
<text x="362" y="38" fill="black" font-size="14" font-family="Helvetica">
Entries 
</text>
<text x="490" y="38" fill="black" font-size="14" font-family="Helvetica">
 351500
</text>
<text x="374" y="57" fill="black" font-size="14" font-family="Helvetica">
 / ndf 
</text>
<text x="369" y="45" fill="black" font-size="10" font-family="Helvetica">
2
</text>
<text x="362" y="57" fill="black" font-size="14" font-family="Times">
&#0967;
</text>
<text x="455" y="54" fill="black" font-size="14" font-family="Helvetica">
  1364 / 1239
</text>
<text x="382" y="67" fill="black" font-size="14" font-family="Helvetica">
   
</text>
<text x="372" y="76" fill="black" font-size="10" font-family="Helvetica">
cu
</text>
<text x="362" y="67" fill="black" font-size="14" font-family="Helvetica">
N
</text>
<text x="511" y="73" fill="black" font-size="14" font-family="Helvetica">
 86.0
</text>
<text x="499" y="73" fill="black" font-size="14" font-family="Times">
&#0177;
</text>
<text x="451" y="73" fill="black" font-size="14" font-family="Helvetica">
 176.5 
</text>
<text x="377" y="86" fill="black" font-size="14" font-family="Helvetica">
 
</text>
<text x="367" y="96" fill="black" font-size="10" font-family="Helvetica">
cu
</text>
<text x="362" y="86" fill="black" font-size="14" font-family="Times">
&#0964;
</text>
<text x="511" y="90" fill="black" font-size="14" font-family="Helvetica">
 67.4
</text>
<text x="499" y="90" fill="black" font-size="14" font-family="Times">
&#0177;
</text>
<text x="453" y="90" fill="black" font-size="14" font-family="Helvetica">
 113.8 
</text>
<text x="375" y="102" fill="black" font-size="14" font-family="Helvetica">
    
</text>
<text x="372" y="110" fill="black" font-size="10" font-family="Helvetica">
f
</text>
<text x="362" y="102" fill="black" font-size="14" font-family="Helvetica">
N
</text>
<text x="520" y="107" fill="black" font-size="14" font-family="Helvetica">
 7.5
</text>
<text x="507" y="107" fill="black" font-size="14" font-family="Times">
&#0177;
</text>
<text x="460" y="107" fill="black" font-size="14" font-family="Helvetica">
 558.8 
</text>
<text x="370" y="120" fill="black" font-size="14" font-family="Helvetica">
 
</text>
<text x="367" y="130" fill="black" font-size="10" font-family="Helvetica">
f
</text>
<text x="362" y="120" fill="black" font-size="14" font-family="Times">
&#0964;
</text>
<text x="511" y="124" fill="black" font-size="14" font-family="Helvetica">
 27.1
</text>
<text x="499" y="124" fill="black" font-size="14" font-family="Times">
&#0177;
</text>
<text x="451" y="124" fill="black" font-size="14" font-family="Helvetica">
  2200 
</text>
<text x="384" y="136" fill="black" font-size="14" font-family="Helvetica">
  
</text>
<text x="372" y="145" fill="black" font-size="10" font-family="Helvetica">
sin
</text>
<text x="362" y="136" fill="black" font-size="14" font-family="Helvetica">
N
</text>
<text x="511" y="141" fill="black" font-size="14" font-family="Helvetica">
 0.53
</text>
<text x="499" y="141" fill="black" font-size="14" font-family="Times">
&#0177;
</text>
<text x="451" y="141" fill="black" font-size="14" font-family="Helvetica">
 34.42 
</text>
<text x="367" y="158" fill="black" font-size="14" font-family="Helvetica">
     
</text>
<text x="362" y="158" fill="black" font-size="14" font-family="Times">
&#0966;
</text>
<text x="511" y="158" fill="black" font-size="14" font-family="Helvetica">
 0.37
</text>
<text x="499" y="158" fill="black" font-size="14" font-family="Times">
&#0177;
</text>
<text x="451" y="158" fill="black" font-size="14" font-family="Helvetica">
 38.33 
</text>
<text x="362" y="173" fill="black" font-size="14" font-family="Helvetica">
T        
</text>
<text x="511" y="175" fill="black" font-size="14" font-family="Helvetica">
 0.00
</text>
<text x="499" y="175" fill="black" font-size="14" font-family="Times">
&#0177;
</text>
<text x="451" y="175" fill="black" font-size="14" font-family="Helvetica">
 59.36 
</text>
<text x="377" y="186" fill="black" font-size="14" font-family="Helvetica">
    
</text>
<text x="372" y="195" fill="black" font-size="10" font-family="Helvetica">
b
</text>
<text x="362" y="186" fill="black" font-size="14" font-family="Helvetica">
N
</text>
<text x="520" y="192" fill="black" font-size="14" font-family="Helvetica">
 0.4
</text>
<text x="507" y="192" fill="black" font-size="14" font-family="Times">
&#0177;
</text>
<text x="462" y="192" fill="black" font-size="14" font-family="Helvetica">
 113.8 
</text>
<text x="270" y="21" fill="black" font-size="21" font-family="Helvetica">
D2
</text></svg>
