<?xml version="1.0" standalone="no"?>
<svg width="567" height="385" viewBox="0 0 567 385" xmlns="http://www.w3.org/2000/svg">
<title>
images/analysis_g4bl_phase_tight/459_D3.svg
</title>
<desc>
Creator: ROOT Version 5.34/05
CreationDate: Mon Jun 10 21:38:25 2013</desc>
<defs>
</defs>
<rect x="0" y="0" width="567" height="385" fill="white"/>
<rect x="57" y="38" width="453" height="308" fill="white"/>
<rect x="57" y="38" width="453" height="308" fill="none" stroke="black"/>
<rect x="57" y="38" width="453" height="308" fill="white"/>
<rect x="57" y="38" width="453" height="308" fill="none" stroke="black"/>
<path d="M57,346h 42v -1v 1h 1v -1v 1v -1h 1v 1v -2v 1h 1v 1v -7v 6v -8v 2h 1v -3v 8v -13v 9v -9h 1v -5v 18v -8v 4v -5h 1v 4v -7v 9v -2h 1v -3v 5v -7v 1h 1v 8v -16v 13v -3h 1v -6v 8v -8h 1v 10v -4v 2v -7h 1v 7v -9h 1v 15v -8v 3h 1v -5v 6v -10h 1v 9v
 -14v 14h 1v -13v 13v -13h 1v 16v -16v 13h 1v -12v 13v -5h 1v 8v -9v 4h 1v -12v 12v -8h 1v 6v -6v 12h 1v -22v 18v -4v 5h 1v -14v 11v -3v 11h 1v -27v 22v -3h 1v -11v 17v -8v 2v -2v 9h 1v -21v 16v -3h 1v -8v 12v -9v 10h 1v -13v 8h 1v 5v -14v 16h 1v
 -12v 8v -2h 1v -3v 6v -10v 11h 1v 2v -15v 11v -2h 1v -3v 7v -9v 4v -4v 3h 1v 8v -11v 12v -3h 1v -5v 4v -14v 6h 1v 9v -10v 8v -2v 2h 1v -8v 9v -17v 4h 1v 10v -9v 9h 1v -3v 7v -6v 4v -5h 1v 7v -5v 4v -3h 1v -15v 17v -3h 1v 3v -12v 10h 1v -7v 11v -11v
 5h 1v 9v -12v 9h 1v -11v 13v -9v 6h 1v -9v 4v -1v 9h 1v -9v 5v -4v 1h 1v 4v -14v 13h 1v -5v 7v -11h 1v 9v -3v 3h 1v -13v 14v -14h 1v 11h 1v -3v 1v -3v 9v -9h 1v 7v -12v 13h 1v -8v 5v -7h 1v 9v -3v 4h 1v -10v 13v -12h 1v 4v -3v 7v -7v 5v -3h 1v 3v
 -6v 12v -8h 1v 4v -7v 8v -13v 12h 1v -9v 6h 1v -6v 11v -11v 4h 1v 6v -8v 13v -15h 1v 9v -9v 5h 1v 8v -13v 9v -11h 1v 12v -8v 8h 1v -4v 7h 1v -15v 12v -4v 3v -7h 1v 3v -4v 10v -9h 1v -4v 9v -9v 13h 1v -10v 9h 1v -12v 12v -18v 10h 1v 7v -4v 2h 1v -3v
 9v -11h 1v 5v -5v 5h 1v -6v 9v -5h 1v 6v -14v 16h 1v -18v 16v -1h 1v -8v 5v -12v 16h 1v -14v 16v -8h 1v 4v -9v 4h 1v -3v 10v -7h 1v 7v -6v 1v -4h 1v 3v -13v 22v -12h 1v 4v -8v 12h 1v -4v 5v -7h 1v 9v -12v 13v -5h 1v -7v 5h 1v -2v 5v -15v 11h 1v -2v
 7v -15h 1v 10v -5v 8v -2h 1v -9v 9v -2v 1h 1v -13v 14v -10v 12h 1v -11v 13v -18h 1v 14v -11v 14h 1v -12v 12v -15h 1v 12v -14v 14h 1v 6v -7v 5v -5h 1v -1v 5v -15v 16h 1v -10v 10v -7h 1v -12v 14v -1v 8v -6h 1v -3v 1v -8v 12v -3h 1v -8v 16v -13v 6h 1v
 4v -6v 2v -3h 1v -4v 13v -17v 9h 1v 2v -9v 8h 1v -6v 13v -18h 1v 14v -5v 5v -2h 1v -6v 10v -9v 8h 1v -9v 8h 1v -16v 16v -8h 1v 6v -3v 6v -1h 1v -17v 21v -20v 11h 1v 7v -10v 9h 1v -8v 7v -7h 1v 7v -17v 19h 1v -11v 10v -14h 1v 18v -19v 9h 1v -3v 13v
 -18h 1v 17v -11v 14h 1v -15v 9v -9h 1v 10v -15v 9h 1v -4v 8v -9h 1v 11v -11v 4h 1v 5v -12v 10v -12h 1v 19v -12v 3h 1v 2v -16v 19v -9h 1v 9v -14v 10h 1v -8v 9v -3h 1v -2v 4v -5v 8h 1v -9v 10v -13h 1v -1v 15v -10v 9h 1v -13v 12v -7h 1v -5v 10v -11v
 14h 1v 1v -19v 19v -10h 1v -12v 18v -5v 4h 1v -6v 4h 1v -7v 16v -11v 3v -1h 1v 5v -11v 6v -2h 1v -1v 9v -10v 6h 1v 4v -10h 1v -2v 9v -10v 3h 1v 6v -15v 16h 1v -6v 13v -16v 8h 1v -9v 5v -6v 17h 1v -15v 8v -11v 6h 1v 5v -10v 9h 1v -8v 3v -13h 1v 20v
 -10v 17h 1v -21v 7v -11v 11h 1v 9v -14v 10h 1v -8v 9v -4v 2h 1v -11v 11h 1v 2v -10v 5v -6v 9v -4h 1v 7v -7v 1v -1h 1v 4v -4v 9v -8h 1v 8v -14v 12h 1v -15v 18v -15h 1v 6v -6v 11h 1v 1v -12v 14v -11h 1v -5v 16v -13v 5h 1v 1v -10v 13v -5h 1v 4v -9v 3h
 1v 4v -1v 1v -1h 1v -3v 12v -13h 1v 5v -16v 18v -15h 1v 12v -4v 3v -12v 8h 1v 2v -1v 5h 1v -10v 12v -12v 18h 1v -21v 13h 1v -2v 5v -14v 11h 1v -16v 19v -1h 1v -9v 6v -1v 4v -16v 9h 1v -9v 9v -6h 1v 7v -3v 12v -23v 17h 1v -9v 5v -9v 12h 1v -5v 7v -5v
 1h 1v 6v -9v 9h 1v -12v 3v -4v 9v -2h 1v -6v 1v -1v 14h 1v -9v 8v -9v 8v -8h 1v 8v -17v 6h 1v -15v 15v -22v 15h 1v 2v -10v 14h 1v 24v -293v 95h 1v 76v -19h 1v -4v 41v -36v 39v -34v 14h 1v 12v -8v 20h 1v -15v 17v -15v 6h 1v -5v 14h 1v 8v -26v 26v
 -13h 1v 15v -20v 22h 1v 1v -12v 31v -27h 1v 36v -40v 19h 1v 9v -20v 17v -28h 1v -4v 40v -16v 3h 1v 4v -27v 32v -10h 1v -3v 6v -5v 17v -8h 1v 13v -14v 9v -10h 1v 6v -13v 20h 1v -15v 8v -8v 4h 1v 14v -10v 4v -9v 5h 1v 10v -10v 7v -9h 1v 10v -10v 1h 1v
 1v -8v 16v -8h 1v 26v -30v 13h 1v 10v -19v 18v -17h 1v -2v 24v -15h 1v 11v -2v 1v -8v 18v -5h 1v -9v 5v -5v 5h 1v 4v -18v 14v -9h 1v -2v 24v -18v 4v -5h 1v 21v -21v 14v -2h 1v -21v 23v -11v 11h 1v 10v -21v 1h 1v 20v -23v 7h 1v 5v -7v 8h 1v -10v 11v
 -11v 11h 1v -9v 16v -9v 8h 1v -12v 14v -14v 5h 1v 16v -25v 14v -14v 22h 1v -24v 21v -11h 1v 5v -17v 18h 1v 5v -10v 9v -6v 2h 1v 13v -22v 17v -12h 1v 4v -13v 16v -10h 1v 7v -5v 5v -1v 1h 1v 8v -12v 12v -18h 1v 22v -23v 13h 1v 11v -40v 41v -21h 1v 11v
 -1v 10v -11v 5h 1v 4v -2v 4v -10h 1v 9v -10v 3h 1v 2v -9v 16v -5v 2h 1v -6v 9v -21v 9h 1v 10v -12v 18v -7h 1v -11v 7h 1v 9v -14v 11h 1v -9v 10v -11v 6h 1v -4v 4v -4v 15v -17h 1v 20v -19v 1h 1v 9v -5v 5v -3h 1v 6v -5v 2v -10h 1v 13v -18v 17v -2h 1v
 -12v 19v -14v 11h 1v -6v 2v -6v 9h 1v -4v 1v -16v 7h 1v 8v -4v 4v -9v 12h 1v -5v 6v -10h 1v 5v -3v 3v -5h 1v 9v -7v 11v -20h 1v 18v -10v 10v -6h 1v -5v 11v -9h 1v 13v -24v 25v -6h 1v -9v 12v -12v 17h 1v -14v 6h 1v 8v -12v 8v -17h 1v 17v -14v 14h 1v
 -13v 13v -4h 1v -9v 15h 1v -10v 10v -19h 1v 16v -24v 24h 1v 1v -10v 15v -17h 1v 13v -17v 20h 1v -16v 11v -13v 9h 1v 7v -12v 11h 1v 1v -12v 12v -7v 2h 1v -5v 9v -9v 9h 1v 3v -16v 17v -9h 1v 8v -12v 10h 1v -9v 11v -7v 3h 1v -3v 5v -6v 1v -4h 1v 8v
 -26v 29v -20h 1v 17v -5v 1v -2h 1v 7v -6v 6v -6v 5h 1v -5v 5v -10h 1v 9v -13v 17v -11h 1v -3v 9v -7h 1v 9v -11v 11v -8h 1v 12v -22v 1h 1v 17v -1v 5v -1h 1v -16v 12v -4h 1v 6v -9v 6v -4v 4h 1v -3v 4v -3v 2v -8h 1v 15v -6v 5v -5h 1v -8v 12v -11v 6h 1v
 2v -6v 9h 1v -16v 17v -10h 1v 6v -4v 2v -3h 1v -10v 14v -3v 8v -8h 1v -4v 9v -5v 3v -3v 2h 1v 3v -6v 8v -13h 1v 14v -15v 15h 1v -18v 18v -10h 1v 9v -8v 8h 1v -9v 9v -4h 1v 8v -25v 22h 1v -14v 15v -11v 4h 1v 5v -11v 11h 1v -16v 14v -10h 1v 16v -16v
 10h 1v -9v 11v -8v 4h 1v -3v 5v -10v 14h 1v -13v 15v -9h 1v 7v -15h 1v 13v -18v 20v -16v 5h 1v 7v -6v 1h 1v 9v -7v 1v -4v 3h 1v -2v 8v -9v 9h 1v -1v 1v -10v 11v -9h 1v 7v -17h 1v 14v -6v 9v -9h 1v 4v -6v 8v -1v 2h 1v 3v -12h 1v 15v -7h 1v 5v -6v 1v
 -4h 1v 4v -8h 1v 12v -13v 9h 1v -9v 13v -9v 4h 1v -1v 2v -10v 10v -6h 1v 4v -8v 15v -2h 1v -2v 3v -18v 14v -2h 1v -3v 8v -8h 1v 6v -7v 10h 1v -9v 6v -12h 1v 18v -22v 18h 1v -8v 13v -8h 1v -2v 5v -8v 8h 1v 1v -8v 5v -1h 1v -4v 5v -6v 6v -10v 9h 1v 3v
 -4v 6v -14h 1v 12v -7v 8v -10v 7h 1v -7v 9v -7h 1v 7v -7v 5h 1v -7v 7v -7v 1h 1v 6v -5v 7h 1v -12v 10v -3h 1v 12v -19v 9h 1v -2v 3v -5v 3h 1v 8v -12h 1v 12v -13v 7v -10h 1v 10v -2v 2h 1v 6v -11v 7v -2h 1v -1v 5v -10v 3h 1v 5v -9v 10v -10h 1v 13v -8v
 5h 1v 1v -7v 5v -4h 1v -10v 19v -16v 3h 1v 10v -9v 11v -6h 1v -7v 10v -10v 5h 1v 4v -11v 11v -7h 1v -2v 11v -5h 1v -5v 10v -7h 1v -3v 15v -21h 1v 19v -7v 3v -17v 17h 1v -12v 12v -9h 1v 6v -6v 9h 1v -5v 8v -17h 1v 17v -12v 9h 1v -4v 4v -8h 1v -2v 9v
 -7v 5h 1v -2v 5v -9h 1v 9v -8v 4h 1v -8v 8v -2h 1v 6v -9v 4h 1v 2v -9v 13v -14h 1v -2v 10v -5v 4h 1v 2v -14v 21v -15h 1v 12v -1v 4v -2h 1v -7v 1v -3v 8v -4h 1v -1v 5v -14v 14h 1v 1v -16v 11v -1h 1v -9v 14v -6v 5h 1v -3v 3v -16v 18v -15h 1v 14v -12v
 8h 1v 7v -11v 9v -7h 1v -2v 4v -2v 3h 1v -10v 12v -9h 1v 10v -12v 11h 1v 2v -15v 14v -9h 1v 12v -15h 1v 7v -12v 13v -6h 1v 13v -12h 1v 9v -9v 6v -2h 1v 4v -7v 2h 1v 2v -2v 5v -3h 1v -5v 13v -13v 6h 1v -1v 1v -9v 12v -8h 1v 5v -9h 1v 16v -12v 9h 1v
 -11v 11v -13h 1v 13v -18v 17v -12h 1v 9v -6h 1v 8v -9v 14v -4h 1v -9v 8v -7v 2h 1v 6v -5v 5v -5v 2h 1v -5v 8v -4h 1v 3v -3v 5h 1v -14v 16v -13h 1v 10v -10v 11h 1v -15v 15v -13h 1v 17v -17v 9h 1v -7v 10v -5h 1v -5v 13v -6v 2h 1v -14v 16v -5v 1h 1v
 -2v 4v -5v 7h 1v -14v 13v -8h 1v 5v -14v 17h 1v -6v 1v -1v 3v -3h 1v -11v 14v -9v 7h 1v 2v -7v 4h 1v -17v 20v -9" fill="none" stroke="#000099"/>
<path d="M284,207v 6" fill="none" stroke="#ff0000" stroke-width="2"/>
<path d="M285,215v 14" fill="none" stroke="#ff0000" stroke-width="2"/>
<path d="M285,224v 12" fill="none" stroke="#ff0000" stroke-width="2"/>
<path d="M286,229v 13" fill="none" stroke="#ff0000" stroke-width="2"/>
<path d="M287,234v 13" fill="none" stroke="#ff0000" stroke-width="2"/>
<path d="M288,240v 11" fill="none" stroke="#ff0000" stroke-width="2"/>
<path d="M289,246v 11" fill="none" stroke="#ff0000" stroke-width="2"/>
<path d="M289,249v 11" fill="none" stroke="#ff0000" stroke-width="2"/>
<path d="M290,251v 12" fill="none" stroke="#ff0000" stroke-width="2"/>
<path d="M291,254v 10" fill="none" stroke="#ff0000" stroke-width="2"/>
<path d="M292,259v 8" fill="none" stroke="#ff0000" stroke-width="2"/>
<path d="M293,260v 11" fill="none" stroke="#ff0000" stroke-width="2"/>
<path d="M293,263v 10" fill="none" stroke="#ff0000" stroke-width="2"/>
<path d="M294,264v 11" fill="none" stroke="#ff0000" stroke-width="2"/>
<path d="M295,266v 11" fill="none" stroke="#ff0000" stroke-width="2"/>
<path d="M296,269v 9" fill="none" stroke="#ff0000" stroke-width="2"/>
<path d="M297,271v 11" fill="none" stroke="#ff0000" stroke-width="2"/>
<path d="M298,273v 10" fill="none" stroke="#ff0000" stroke-width="2"/>
<path d="M298,274v 10" fill="none" stroke="#ff0000" stroke-width="2"/>
<path d="M299,276v 10" fill="none" stroke="#ff0000" stroke-width="2"/>
<path d="M300,278v 10" fill="none" stroke="#ff0000" stroke-width="2"/>
<path d="M301,280v 10" fill="none" stroke="#ff0000" stroke-width="2"/>
<path d="M302,281v 10" fill="none" stroke="#ff0000" stroke-width="2"/>
<path d="M302,282v 10" fill="none" stroke="#ff0000" stroke-width="2"/>
<path d="M303,284v 10" fill="none" stroke="#ff0000" stroke-width="2"/>
<path d="M304,286v 9" fill="none" stroke="#ff0000" stroke-width="2"/>
<path d="M305,287v 10" fill="none" stroke="#ff0000" stroke-width="2"/>
<path d="M306,288v 10" fill="none" stroke="#ff0000" stroke-width="2"/>
<path d="M307,289v 10" fill="none" stroke="#ff0000" stroke-width="2"/>
<path d="M307,291v 9" fill="none" stroke="#ff0000" stroke-width="2"/>
<path d="M308,292v 10" fill="none" stroke="#ff0000" stroke-width="2"/>
<path d="M309,293v 10" fill="none" stroke="#ff0000" stroke-width="2"/>
<path d="M310,294v 10" fill="none" stroke="#ff0000" stroke-width="2"/>
<path d="M311,295v 10" fill="none" stroke="#ff0000" stroke-width="2"/>
<path d="M311,297v 9" fill="none" stroke="#ff0000" stroke-width="2"/>
<path d="M312,298v 10" fill="none" stroke="#ff0000" stroke-width="2"/>
<path d="M313,299v 9" fill="none" stroke="#ff0000" stroke-width="2"/>
<path d="M314,299v 10" fill="none" stroke="#ff0000" stroke-width="2"/>
<path d="M315,300v 10" fill="none" stroke="#ff0000" stroke-width="2"/>
<path d="M315,302v 9" fill="none" stroke="#ff0000" stroke-width="2"/>
<path d="M316,303v 10" fill="none" stroke="#ff0000" stroke-width="2"/>
<path d="M317,303v 10" fill="none" stroke="#ff0000" stroke-width="2"/>
<path d="M318,304v 9" fill="none" stroke="#ff0000" stroke-width="2"/>
<path d="M319,305v 9" fill="none" stroke="#ff0000" stroke-width="2"/>
<path d="M320,306v 9" fill="none" stroke="#ff0000" stroke-width="2"/>
<path d="M320,306v 10" fill="none" stroke="#ff0000" stroke-width="2"/>
<path d="M321,307v 10" fill="none" stroke="#ff0000" stroke-width="2"/>
<path d="M322,308v 9" fill="none" stroke="#ff0000" stroke-width="2"/>
<path d="M323,308v 9" fill="none" stroke="#ff0000" stroke-width="2"/>
<path d="M324,309v 10" fill="none" stroke="#ff0000" stroke-width="2"/>
<path d="M324,310v 9" fill="none" stroke="#ff0000" stroke-width="2"/>
<path d="M325,310v 10" fill="none" stroke="#ff0000" stroke-width="2"/>
<path d="M326,311v 10" fill="none" stroke="#ff0000" stroke-width="2"/>
<path d="M327,312v 9" fill="none" stroke="#ff0000" stroke-width="2"/>
<path d="M328,313v 8" fill="none" stroke="#ff0000" stroke-width="2"/>
<path d="M329,313v 9" fill="none" stroke="#ff0000" stroke-width="2"/>
<path d="M329,313v 10" fill="none" stroke="#ff0000" stroke-width="2"/>
<path d="M330,313v 10" fill="none" stroke="#ff0000" stroke-width="2"/>
<path d="M331,314v 10" fill="none" stroke="#ff0000" stroke-width="2"/>
<path d="M332,315v 10" fill="none" stroke="#ff0000" stroke-width="2"/>
<path d="M333,315v 10" fill="none" stroke="#ff0000" stroke-width="2"/>
<path d="M333,316v 10" fill="none" stroke="#ff0000" stroke-width="2"/>
<path d="M334,317v 9" fill="none" stroke="#ff0000" stroke-width="2"/>
<path d="M335,317v 9" fill="none" stroke="#ff0000" stroke-width="2"/>
<path d="M336,317v 9" fill="none" stroke="#ff0000" stroke-width="2"/>
<path d="M337,317v 10" fill="none" stroke="#ff0000" stroke-width="2"/>
<path d="M337,317v 10" fill="none" stroke="#ff0000" stroke-width="2"/>
<path d="M338,318v 9" fill="none" stroke="#ff0000" stroke-width="2"/>
<path d="M339,318v 10" fill="none" stroke="#ff0000" stroke-width="2"/>
<path d="M340,319v 10" fill="none" stroke="#ff0000" stroke-width="2"/>
<path d="M341,319v 10" fill="none" stroke="#ff0000" stroke-width="2"/>
<path d="M342,320v 9" fill="none" stroke="#ff0000" stroke-width="2"/>
<path d="M342,320v 10" fill="none" stroke="#ff0000" stroke-width="2"/>
<path d="M343,320v 10" fill="none" stroke="#ff0000" stroke-width="2"/>
<path d="M344,321v 9" fill="none" stroke="#ff0000" stroke-width="2"/>
<path d="M345,321v 9" fill="none" stroke="#ff0000" stroke-width="2"/>
<path d="M346,321v 9" fill="none" stroke="#ff0000" stroke-width="2"/>
<path d="M346,321v 9" fill="none" stroke="#ff0000" stroke-width="2"/>
<path d="M347,321v 10" fill="none" stroke="#ff0000" stroke-width="2"/>
<path d="M348,322v 9" fill="none" stroke="#ff0000" stroke-width="2"/>
<path d="M349,322v 9" fill="none" stroke="#ff0000" stroke-width="2"/>
<path d="M350,322v 10" fill="none" stroke="#ff0000" stroke-width="2"/>
<path d="M351,323v 9" fill="none" stroke="#ff0000" stroke-width="2"/>
<path d="M351,323v 9" fill="none" stroke="#ff0000" stroke-width="2"/>
<path d="M352,323v 10" fill="none" stroke="#ff0000" stroke-width="2"/>
<path d="M353,323v 10" fill="none" stroke="#ff0000" stroke-width="2"/>
<path d="M354,324v 9" fill="none" stroke="#ff0000" stroke-width="2"/>
<path d="M355,324v 9" fill="none" stroke="#ff0000" stroke-width="2"/>
<path d="M355,324v 10" fill="none" stroke="#ff0000" stroke-width="2"/>
<path d="M356,324v 10" fill="none" stroke="#ff0000" stroke-width="2"/>
<path d="M357,324v 10" fill="none" stroke="#ff0000" stroke-width="2"/>
<path d="M358,325v 9" fill="none" stroke="#ff0000" stroke-width="2"/>
<path d="M359,325v 9" fill="none" stroke="#ff0000" stroke-width="2"/>
<path d="M359,325v 9" fill="none" stroke="#ff0000" stroke-width="2"/>
<path d="M360,325v 9" fill="none" stroke="#ff0000" stroke-width="2"/>
<path d="M361,325v 9" fill="none" stroke="#ff0000" stroke-width="2"/>
<path d="M362,326v 8" fill="none" stroke="#ff0000" stroke-width="2"/>
<path d="M363,326v 9" fill="none" stroke="#ff0000" stroke-width="2"/>
<path d="M364,326v 9" fill="none" stroke="#ff0000" stroke-width="2"/>
<path d="M364,326v 9" fill="none" stroke="#ff0000" stroke-width="2"/>
<path d="M365,326v 9" fill="none" stroke="#ff0000" stroke-width="2"/>
<path d="M366,326v 9" fill="none" stroke="#ff0000" stroke-width="2"/>
<path d="M367,326v 9" fill="none" stroke="#ff0000" stroke-width="2"/>
<path d="M368,326v 9" fill="none" stroke="#ff0000" stroke-width="2"/>
<path d="M368,326v 10" fill="none" stroke="#ff0000" stroke-width="2"/>
<path d="M369,326v 10" fill="none" stroke="#ff0000" stroke-width="2"/>
<path d="M370,326v 10" fill="none" stroke="#ff0000" stroke-width="2"/>
<path d="M371,326v 10" fill="none" stroke="#ff0000" stroke-width="2"/>
<path d="M372,327v 9" fill="none" stroke="#ff0000" stroke-width="2"/>
<path d="M372,327v 9" fill="none" stroke="#ff0000" stroke-width="2"/>
<path d="M373,327v 9" fill="none" stroke="#ff0000" stroke-width="2"/>
<path d="M374,327v 10" fill="none" stroke="#ff0000" stroke-width="2"/>
<path d="M375,327v 10" fill="none" stroke="#ff0000" stroke-width="2"/>
<path d="M376,327v 10" fill="none" stroke="#ff0000" stroke-width="2"/>
<path d="M377,327v 10" fill="none" stroke="#ff0000" stroke-width="2"/>
<path d="M377,327v 10" fill="none" stroke="#ff0000" stroke-width="2"/>
<path d="M378,327v 10" fill="none" stroke="#ff0000" stroke-width="2"/>
<path d="M379,328v 9" fill="none" stroke="#ff0000" stroke-width="2"/>
<path d="M380,328v 9" fill="none" stroke="#ff0000" stroke-width="2"/>
<path d="M381,328v 9" fill="none" stroke="#ff0000" stroke-width="2"/>
<path d="M381,328v 9" fill="none" stroke="#ff0000" stroke-width="2"/>
<path d="M382,328v 10" fill="none" stroke="#ff0000" stroke-width="2"/>
<path d="M383,328v 10" fill="none" stroke="#ff0000" stroke-width="2"/>
<path d="M384,328v 10" fill="none" stroke="#ff0000" stroke-width="2"/>
<path d="M385,328v 10" fill="none" stroke="#ff0000" stroke-width="2"/>
<path d="M386,328v 10" fill="none" stroke="#ff0000" stroke-width="2"/>
<path d="M386,328v 10" fill="none" stroke="#ff0000" stroke-width="2"/>
<path d="M387,328v 10" fill="none" stroke="#ff0000" stroke-width="2"/>
<path d="M388,328v 10" fill="none" stroke="#ff0000" stroke-width="2"/>
<path d="M389,329v 9" fill="none" stroke="#ff0000" stroke-width="2"/>
<path d="M390,329v 9" fill="none" stroke="#ff0000" stroke-width="2"/>
<path d="M390,329v 9" fill="none" stroke="#ff0000" stroke-width="2"/>
<path d="M391,329v 9" fill="none" stroke="#ff0000" stroke-width="2"/>
<path d="M392,329v 9" fill="none" stroke="#ff0000" stroke-width="2"/>
<path d="M393,329v 9" fill="none" stroke="#ff0000" stroke-width="2"/>
<path d="M394,329v 9" fill="none" stroke="#ff0000" stroke-width="2"/>
<path d="M394,329v 9" fill="none" stroke="#ff0000" stroke-width="2"/>
<path d="M395,329v 10" fill="none" stroke="#ff0000" stroke-width="2"/>
<path d="M396,329v 10" fill="none" stroke="#ff0000" stroke-width="2"/>
<path d="M397,329v 10" fill="none" stroke="#ff0000" stroke-width="2"/>
<path d="M398,329v 10" fill="none" stroke="#ff0000" stroke-width="2"/>
<path d="M399,329v 10" fill="none" stroke="#ff0000" stroke-width="2"/>
<path d="M399,329v 10" fill="none" stroke="#ff0000" stroke-width="2"/>
<path d="M400,329v 10" fill="none" stroke="#ff0000" stroke-width="2"/>
<path d="M401,329v 10" fill="none" stroke="#ff0000" stroke-width="2"/>
<path d="M402,329v 10" fill="none" stroke="#ff0000" stroke-width="2"/>
<path d="M403,329v 10" fill="none" stroke="#ff0000" stroke-width="2"/>
<path d="M403,329v 10" fill="none" stroke="#ff0000" stroke-width="2"/>
<path d="M404,329v 10" fill="none" stroke="#ff0000" stroke-width="2"/>
<path d="M405,330v 9" fill="none" stroke="#ff0000" stroke-width="2"/>
<path d="M406,330v 9" fill="none" stroke="#ff0000" stroke-width="2"/>
<path d="M407,330v 9" fill="none" stroke="#ff0000" stroke-width="2"/>
<path d="M408,330v 9" fill="none" stroke="#ff0000" stroke-width="2"/>
<path d="M408,330v 9" fill="none" stroke="#ff0000" stroke-width="2"/>
<path d="M409,330v 9" fill="none" stroke="#ff0000" stroke-width="2"/>
<path d="M410,330v 9" fill="none" stroke="#ff0000" stroke-width="2"/>
<path d="M411,330v 9" fill="none" stroke="#ff0000" stroke-width="2"/>
<path d="M412,330v 9" fill="none" stroke="#ff0000" stroke-width="2"/>
<path d="M412,330v 9" fill="none" stroke="#ff0000" stroke-width="2"/>
<path d="M413,330v 9" fill="none" stroke="#ff0000" stroke-width="2"/>
<path d="M414,330v 9" fill="none" stroke="#ff0000" stroke-width="2"/>
<path d="M415,330v 9" fill="none" stroke="#ff0000" stroke-width="2"/>
<path d="M416,330v 9" fill="none" stroke="#ff0000" stroke-width="2"/>
<path d="M416,330v 9" fill="none" stroke="#ff0000" stroke-width="2"/>
<path d="M417,330v 9" fill="none" stroke="#ff0000" stroke-width="2"/>
<path d="M418,330v 9" fill="none" stroke="#ff0000" stroke-width="2"/>
<path d="M419,330v 9" fill="none" stroke="#ff0000" stroke-width="2"/>
<path d="M420,330v 9" fill="none" stroke="#ff0000" stroke-width="2"/>
<path d="M421,330v 9" fill="none" stroke="#ff0000" stroke-width="2"/>
<path d="M421,330v 9" fill="none" stroke="#ff0000" stroke-width="2"/>
<path d="M422,330v 9" fill="none" stroke="#ff0000" stroke-width="2"/>
<path d="M423,330v 9" fill="none" stroke="#ff0000" stroke-width="2"/>
<path d="M424,330v 9" fill="none" stroke="#ff0000" stroke-width="2"/>
<path d="M425,330v 9" fill="none" stroke="#ff0000" stroke-width="2"/>
<path d="M425,330v 9" fill="none" stroke="#ff0000" stroke-width="2"/>
<path d="M426,330v 9" fill="none" stroke="#ff0000" stroke-width="2"/>
<path d="M427,330v 9" fill="none" stroke="#ff0000" stroke-width="2"/>
<path d="M428,330v 9" fill="none" stroke="#ff0000" stroke-width="2"/>
<path d="M429,330v 9" fill="none" stroke="#ff0000" stroke-width="2"/>
<path d="M430,330v 9" fill="none" stroke="#ff0000" stroke-width="2"/>
<path d="M430,330v 9" fill="none" stroke="#ff0000" stroke-width="2"/>
<path d="M431,330v 9" fill="none" stroke="#ff0000" stroke-width="2"/>
<path d="M432,330v 9" fill="none" stroke="#ff0000" stroke-width="2"/>
<path d="M433,330v 9" fill="none" stroke="#ff0000" stroke-width="2"/>
<path d="M434,330v 9" fill="none" stroke="#ff0000" stroke-width="2"/>
<path d="M434,330v 9" fill="none" stroke="#ff0000" stroke-width="2"/>
<path d="M435,330v 9" fill="none" stroke="#ff0000" stroke-width="2"/>
<path d="M436,330v 9" fill="none" stroke="#ff0000" stroke-width="2"/>
<path d="M437,330v 9" fill="none" stroke="#ff0000" stroke-width="2"/>
<path d="M438,330v 9" fill="none" stroke="#ff0000" stroke-width="2"/>
<path d="M438,330v 9" fill="none" stroke="#ff0000" stroke-width="2"/>
<path d="M439,330v 9" fill="none" stroke="#ff0000" stroke-width="2"/>
<path d="M440,330v 9" fill="none" stroke="#ff0000" stroke-width="2"/>
<path d="M441,330v 9" fill="none" stroke="#ff0000" stroke-width="2"/>
<path d="M442,330v 9" fill="none" stroke="#ff0000" stroke-width="2"/>
<path d="M443,330v 9" fill="none" stroke="#ff0000" stroke-width="2"/>
<path d="M443,330v 9" fill="none" stroke="#ff0000" stroke-width="2"/>
<path d="M444,330v 9" fill="none" stroke="#ff0000" stroke-width="2"/>
<path d="M445,330v 9" fill="none" stroke="#ff0000" stroke-width="2"/>
<path d="M446,330v 9" fill="none" stroke="#ff0000" stroke-width="2"/>
<path d="M447,330v 9" fill="none" stroke="#ff0000" stroke-width="2"/>
<path d="M447,330v 9" fill="none" stroke="#ff0000" stroke-width="2"/>
<path d="M448,330v 9" fill="none" stroke="#ff0000" stroke-width="2"/>
<path d="M449,330v 9" fill="none" stroke="#ff0000" stroke-width="2"/>
<path d="M450,330v 9" fill="none" stroke="#ff0000" stroke-width="2"/>
<path d="M451,330v 9" fill="none" stroke="#ff0000" stroke-width="2"/>
<path d="M452,330v 9" fill="none" stroke="#ff0000" stroke-width="2"/>
<path d="M452,330v 9" fill="none" stroke="#ff0000" stroke-width="2"/>
<path d="M453,330v 9" fill="none" stroke="#ff0000" stroke-width="2"/>
<path d="M454,330v 9" fill="none" stroke="#ff0000" stroke-width="2"/>
<path d="M455,330v 9" fill="none" stroke="#ff0000" stroke-width="2"/>
<path d="M456,330v 9" fill="none" stroke="#ff0000" stroke-width="2"/>
<path d="M456,330v 9" fill="none" stroke="#ff0000" stroke-width="2"/>
<path d="M457,330v 9" fill="none" stroke="#ff0000" stroke-width="2"/>
<path d="M458,330v 9" fill="none" stroke="#ff0000" stroke-width="2"/>
<path d="M459,330v 9" fill="none" stroke="#ff0000" stroke-width="2"/>
<path d="M460,330v 9" fill="none" stroke="#ff0000" stroke-width="2"/>
<path d="M460,330v 9" fill="none" stroke="#ff0000" stroke-width="2"/>
<path d="M461,330v 9" fill="none" stroke="#ff0000" stroke-width="2"/>
<path d="M462,330v 9" fill="none" stroke="#ff0000" stroke-width="2"/>
<path d="M463,330v 9" fill="none" stroke="#ff0000" stroke-width="2"/>
<path d="M464,330v 9" fill="none" stroke="#ff0000" stroke-width="2"/>
<path d="M465,330v 9" fill="none" stroke="#ff0000" stroke-width="2"/>
<path d="M465,330v 9" fill="none" stroke="#ff0000" stroke-width="2"/>
<path d="M466,330v 9" fill="none" stroke="#ff0000" stroke-width="2"/>
<path d="M467,330v 9" fill="none" stroke="#ff0000" stroke-width="2"/>
<path d="M468,330v 9" fill="none" stroke="#ff0000" stroke-width="2"/>
<path d="M469,330v 9" fill="none" stroke="#ff0000" stroke-width="2"/>
<path d="M469,330v 9" fill="none" stroke="#ff0000" stroke-width="2"/>
<path d="M470,330v 9" fill="none" stroke="#ff0000" stroke-width="2"/>
<path d="M471,330v 9" fill="none" stroke="#ff0000" stroke-width="2"/>
<path d="M472,330v 9" fill="none" stroke="#ff0000" stroke-width="2"/>
<path d="M473,330v 9" fill="none" stroke="#ff0000" stroke-width="2"/>
<path d="M473,330v 9" fill="none" stroke="#ff0000" stroke-width="2"/>
<path d="M474,330v 9" fill="none" stroke="#ff0000" stroke-width="2"/>
<path d="M475,330v 9" fill="none" stroke="#ff0000" stroke-width="2"/>
<path d="M476,330v 9" fill="none" stroke="#ff0000" stroke-width="2"/>
<path d="M477,330v 9" fill="none" stroke="#ff0000" stroke-width="2"/>
<path d="M478,330v 9" fill="none" stroke="#ff0000" stroke-width="2"/>
<path d="M478,330v 9" fill="none" stroke="#ff0000" stroke-width="2"/>
<path d="M479,330v 9" fill="none" stroke="#ff0000" stroke-width="2"/>
<path d="M480,330v 9" fill="none" stroke="#ff0000" stroke-width="2"/>
<path d="M481,330v 9" fill="none" stroke="#ff0000" stroke-width="2"/>
<path d="M482,330v 9" fill="none" stroke="#ff0000" stroke-width="2"/>
<path d="M482,330v 9" fill="none" stroke="#ff0000" stroke-width="2"/>
<path d="M483,330v 9" fill="none" stroke="#ff0000" stroke-width="2"/>
<path d="M484,330v 9" fill="none" stroke="#ff0000" stroke-width="2"/>
<path d="M485,330v 9" fill="none" stroke="#ff0000" stroke-width="2"/>
<path d="M486,330v 9" fill="none" stroke="#ff0000" stroke-width="2"/>
<path d="M487,330v 9" fill="none" stroke="#ff0000" stroke-width="2"/>
<path d="M487,330v 9" fill="none" stroke="#ff0000" stroke-width="2"/>
<path d="M488,330v 9" fill="none" stroke="#ff0000" stroke-width="2"/>
<path d="M489,330v 9" fill="none" stroke="#ff0000" stroke-width="2"/>
<path d="M490,330v 9" fill="none" stroke="#ff0000" stroke-width="2"/>
<path d="M491,330v 9" fill="none" stroke="#ff0000" stroke-width="2"/>
<path d="M491,330v 9" fill="none" stroke="#ff0000" stroke-width="2"/>
<path d="M492,330v 9" fill="none" stroke="#ff0000" stroke-width="2"/>
<path d="M493,330v 9" fill="none" stroke="#ff0000" stroke-width="2"/>
<path d="M494,330v 9" fill="none" stroke="#ff0000" stroke-width="2"/>
<path d="M495,330v 9" fill="none" stroke="#ff0000" stroke-width="2"/>
<path d="M495,330v 9" fill="none" stroke="#ff0000" stroke-width="2"/>
<path d="M496,330v 9" fill="none" stroke="#ff0000" stroke-width="2"/>
<path d="M497,330v 9" fill="none" stroke="#ff0000" stroke-width="2"/>
<path d="M498,330v 9" fill="none" stroke="#ff0000" stroke-width="2"/>
<path d="M499,330v 9" fill="none" stroke="#ff0000" stroke-width="2"/>
<path d="M500,330v 9" fill="none" stroke="#ff0000" stroke-width="2"/>
<path d="M500,330v 9" fill="none" stroke="#ff0000" stroke-width="2"/>
<path d="M501,330v 9" fill="none" stroke="#ff0000" stroke-width="2"/>
<path d="M502,330v 9" fill="none" stroke="#ff0000" stroke-width="2"/>
<path d="M503,330v 9" fill="none" stroke="#ff0000" stroke-width="2"/>
<path d="M504,330v 9" fill="none" stroke="#ff0000" stroke-width="2"/>
<path d="M504,330v 9" fill="none" stroke="#ff0000" stroke-width="2"/>
<path d="M505,330v 9" fill="none" stroke="#ff0000" stroke-width="2"/>
<path d="M506,330v 9" fill="none" stroke="#ff0000" stroke-width="2"/>
<path d="M507,330v 9" fill="none" stroke="#ff0000" stroke-width="2"/>
<path d="M508,330v 9" fill="none" stroke="#ff0000" stroke-width="2"/>
<path d="M509,330v 9" fill="none" stroke="#ff0000" stroke-width="2"/>
<path d="M509,330v 9" fill="none" stroke="#ff0000" stroke-width="2"/>
<path d="M510,331v 8" fill="none" stroke="#ff0000" stroke-width="2"/>
<path d="M284,210l 1, 11v 8l 1, 6l 1, 5l 1, 5l 1, 6v 3l 1, 3l 1, 2l 1, 4l 1, 2v 3l 1, 1l 1, 2l 1, 2l 1, 3l 1, 1v 2l 1, 2l 1, 2l 1, 2l 1, 1v 1l 1, 2l 1, 2l 1, 1l 1, 1l 1, 1v 1l 1, 2l 1, 1l 1, 1l 1, 1v 1l 1, 2l 1, 1h 1l 1, 1v 1l 1, 2h 2l 1, 1l 1, 1v 1l
 1, 1l 1, 1h 1l 1, 1l 1, 1l 1, 1h 1l 1, 1h 1v 1h 1l 1, 1l 1, 1h 1v 1h 3l 1, 1h 1l 1, 1l 1, 1h 2v 1h 1l 1, 1h 5l 1, 1h 1l 1, 1h 3v 1h 3l 1, 1h 9v 1h 5l 1, 1h 7l 1, 1h 12l 1, 1h 114l 1, 1" fill="none" stroke="#ff0000" stroke-width="2"/>
<rect x="351" y="25" width="205" height="169" fill="white"/>
<path d="M351,194h 205" fill="none" stroke="black"/>
<path d="M556,194v -169" fill="none" stroke="black"/>
<path d="M556,25h -205" fill="none" stroke="black"/>
<path d="M351,25v 169" fill="none" stroke="black"/>
<text x="362" y="38" fill="black" font-size="14" font-family="Helvetica">
Entries 
</text>
<text x="498" y="38" fill="black" font-size="14" font-family="Helvetica">
 33560
</text>
<text x="374" y="57" fill="black" font-size="14" font-family="Helvetica">
 / ndf 
</text>
<text x="369" y="45" fill="black" font-size="10" font-family="Helvetica">
2
</text>
<text x="362" y="57" fill="black" font-size="14" font-family="Times">
&#0967;
</text>
<text x="455" y="54" fill="black" font-size="14" font-family="Helvetica">
  1425 / 1239
</text>
<text x="382" y="67" fill="black" font-size="14" font-family="Helvetica">
   
</text>
<text x="372" y="76" fill="black" font-size="10" font-family="Helvetica">
cu
</text>
<text x="362" y="67" fill="black" font-size="14" font-family="Helvetica">
N
</text>
<text x="511" y="73" fill="black" font-size="14" font-family="Helvetica">
 7.56
</text>
<text x="499" y="73" fill="black" font-size="14" font-family="Times">
&#0177;
</text>
<text x="451" y="73" fill="black" font-size="14" font-family="Helvetica">
 26.98 
</text>
<text x="377" y="86" fill="black" font-size="14" font-family="Helvetica">
 
</text>
<text x="367" y="96" fill="black" font-size="10" font-family="Helvetica">
cu
</text>
<text x="362" y="86" fill="black" font-size="14" font-family="Times">
&#0964;
</text>
<text x="511" y="90" fill="black" font-size="14" font-family="Helvetica">
 76.3
</text>
<text x="499" y="90" fill="black" font-size="14" font-family="Times">
&#0177;
</text>
<text x="451" y="90" fill="black" font-size="14" font-family="Helvetica">
 217.7 
</text>
<text x="375" y="102" fill="black" font-size="14" font-family="Helvetica">
    
</text>
<text x="372" y="110" fill="black" font-size="10" font-family="Helvetica">
f
</text>
<text x="362" y="102" fill="black" font-size="14" font-family="Helvetica">
N
</text>
<text x="511" y="107" fill="black" font-size="14" font-family="Helvetica">
 2.13
</text>
<text x="499" y="107" fill="black" font-size="14" font-family="Times">
&#0177;
</text>
<text x="451" y="107" fill="black" font-size="14" font-family="Helvetica">
 76.49 
</text>
<text x="370" y="120" fill="black" font-size="14" font-family="Helvetica">
 
</text>
<text x="367" y="130" fill="black" font-size="10" font-family="Helvetica">
f
</text>
<text x="362" y="120" fill="black" font-size="14" font-family="Times">
&#0964;
</text>
<text x="511" y="124" fill="black" font-size="14" font-family="Helvetica">
 56.4
</text>
<text x="499" y="124" fill="black" font-size="14" font-family="Times">
&#0177;
</text>
<text x="451" y="124" fill="black" font-size="14" font-family="Helvetica">
  2298 
</text>
<text x="384" y="136" fill="black" font-size="14" font-family="Helvetica">
  
</text>
<text x="372" y="145" fill="black" font-size="10" font-family="Helvetica">
sin
</text>
<text x="362" y="136" fill="black" font-size="14" font-family="Helvetica">
N
</text>
<text x="503" y="141" fill="black" font-size="14" font-family="Helvetica">
 0.154
</text>
<text x="490" y="141" fill="black" font-size="14" font-family="Times">
&#0177;
</text>
<text x="443" y="141" fill="black" font-size="14" font-family="Helvetica">
 3.656 
</text>
<text x="367" y="158" fill="black" font-size="14" font-family="Helvetica">
     
</text>
<text x="362" y="158" fill="black" font-size="14" font-family="Times">
&#0966;
</text>
<text x="511" y="158" fill="black" font-size="14" font-family="Helvetica">
 1.02
</text>
<text x="499" y="158" fill="black" font-size="14" font-family="Times">
&#0177;
</text>
<text x="451" y="158" fill="black" font-size="14" font-family="Helvetica">
 43.22 
</text>
<text x="362" y="173" fill="black" font-size="14" font-family="Helvetica">
T        
</text>
<text x="511" y="175" fill="black" font-size="14" font-family="Helvetica">
 0.00
</text>
<text x="499" y="175" fill="black" font-size="14" font-family="Times">
&#0177;
</text>
<text x="451" y="175" fill="black" font-size="14" font-family="Helvetica">
 59.36 
</text>
<text x="377" y="186" fill="black" font-size="14" font-family="Helvetica">
    
</text>
<text x="372" y="195" fill="black" font-size="10" font-family="Helvetica">
b
</text>
<text x="362" y="186" fill="black" font-size="14" font-family="Helvetica">
N
</text>
<text x="503" y="192" fill="black" font-size="14" font-family="Helvetica">
 0.124
</text>
<text x="490" y="192" fill="black" font-size="14" font-family="Times">
&#0177;
</text>
<text x="443" y="192" fill="black" font-size="14" font-family="Helvetica">
 8.724 
</text>
<path d="M57,346h 453" fill="none" stroke="black"/>
<text x="419" y="372" fill="black" font-size="12" font-family="Helvetica">
TDC-TDC0 (ns)
</text>
<path d="M57,337v 9" fill="none" stroke="black"/>
<path d="M68,342v 4" fill="none" stroke="black"/>
<path d="M79,342v 4" fill="none" stroke="black"/>
<path d="M91,342v 4" fill="none" stroke="black"/>
<path d="M102,342v 4" fill="none" stroke="black"/>
<path d="M113,337v 9" fill="none" stroke="black"/>
<path d="M125,342v 4" fill="none" stroke="black"/>
<path d="M136,342v 4" fill="none" stroke="black"/>
<path d="M147,342v 4" fill="none" stroke="black"/>
<path d="M159,342v 4" fill="none" stroke="black"/>
<path d="M170,337v 9" fill="none" stroke="black"/>
<path d="M181,342v 4" fill="none" stroke="black"/>
<path d="M193,342v 4" fill="none" stroke="black"/>
<path d="M204,342v 4" fill="none" stroke="black"/>
<path d="M215,342v 4" fill="none" stroke="black"/>
<path d="M227,337v 9" fill="none" stroke="black"/>
<path d="M238,342v 4" fill="none" stroke="black"/>
<path d="M249,342v 4" fill="none" stroke="black"/>
<path d="M261,342v 4" fill="none" stroke="black"/>
<path d="M272,342v 4" fill="none" stroke="black"/>
<path d="M283,337v 9" fill="none" stroke="black"/>
<path d="M295,342v 4" fill="none" stroke="black"/>
<path d="M306,342v 4" fill="none" stroke="black"/>
<path d="M317,342v 4" fill="none" stroke="black"/>
<path d="M329,342v 4" fill="none" stroke="black"/>
<path d="M340,337v 9" fill="none" stroke="black"/>
<path d="M351,342v 4" fill="none" stroke="black"/>
<path d="M363,342v 4" fill="none" stroke="black"/>
<path d="M374,342v 4" fill="none" stroke="black"/>
<path d="M386,342v 4" fill="none" stroke="black"/>
<path d="M397,337v 9" fill="none" stroke="black"/>
<path d="M408,342v 4" fill="none" stroke="black"/>
<path d="M420,342v 4" fill="none" stroke="black"/>
<path d="M431,342v 4" fill="none" stroke="black"/>
<path d="M442,342v 4" fill="none" stroke="black"/>
<path d="M454,337v 9" fill="none" stroke="black"/>
<path d="M465,342v 4" fill="none" stroke="black"/>
<path d="M476,342v 4" fill="none" stroke="black"/>
<path d="M488,342v 4" fill="none" stroke="black"/>
<path d="M499,342v 4" fill="none" stroke="black"/>
<path d="M510,337v 9" fill="none" stroke="black"/>
<text x="36" y="359" fill="black" font-size="12" font-family="Helvetica">
-20000
</text>
<text x="93" y="359" fill="black" font-size="12" font-family="Helvetica">
-15000
</text>
<text x="149" y="359" fill="black" font-size="12" font-family="Helvetica">
-10000
</text>
<text x="210" y="359" fill="black" font-size="12" font-family="Helvetica">
-5000
</text>
<text x="280" y="359" fill="black" font-size="12" font-family="Helvetica">
0
</text>
<text x="325" y="359" fill="black" font-size="12" font-family="Helvetica">
5000
</text>
<text x="379" y="359" fill="black" font-size="12" font-family="Helvetica">
10000
</text>
<text x="435" y="359" fill="black" font-size="12" font-family="Helvetica">
15000
</text>
<text x="492" y="359" fill="black" font-size="12" font-family="Helvetica">
20000
</text>
<path d="M57,346v -308" fill="none" stroke="black"/>
<g transform="rotate(-90,29,72)">
<text x="29" y="72" fill="black" font-size="12" font-family="Helvetica">
Count
</text>
</g>
<path d="M70,346h -13" fill="none" stroke="black"/>
<path d="M63,340h -6" fill="none" stroke="black"/>
<path d="M63,334h -6" fill="none" stroke="black"/>
<path d="M63,327h -6" fill="none" stroke="black"/>
<path d="M70,321h -13" fill="none" stroke="black"/>
<path d="M63,314h -6" fill="none" stroke="black"/>
<path d="M63,308h -6" fill="none" stroke="black"/>
<path d="M63,301h -6" fill="none" stroke="black"/>
<path d="M70,295h -13" fill="none" stroke="black"/>
<path d="M63,289h -6" fill="none" stroke="black"/>
<path d="M63,282h -6" fill="none" stroke="black"/>
<path d="M63,276h -6" fill="none" stroke="black"/>
<path d="M70,269h -13" fill="none" stroke="black"/>
<path d="M63,263h -6" fill="none" stroke="black"/>
<path d="M63,256h -6" fill="none" stroke="black"/>
<path d="M63,250h -6" fill="none" stroke="black"/>
<path d="M70,243h -13" fill="none" stroke="black"/>
<path d="M63,237h -6" fill="none" stroke="black"/>
<path d="M63,231h -6" fill="none" stroke="black"/>
<path d="M63,224h -6" fill="none" stroke="black"/>
<path d="M70,218h -13" fill="none" stroke="black"/>
<path d="M63,211h -6" fill="none" stroke="black"/>
<path d="M63,205h -6" fill="none" stroke="black"/>
<path d="M63,198h -6" fill="none" stroke="black"/>
<path d="M70,192h -13" fill="none" stroke="black"/>
<path d="M63,186h -6" fill="none" stroke="black"/>
<path d="M63,179h -6" fill="none" stroke="black"/>
<path d="M63,173h -6" fill="none" stroke="black"/>
<path d="M70,166h -13" fill="none" stroke="black"/>
<path d="M63,160h -6" fill="none" stroke="black"/>
<path d="M63,153h -6" fill="none" stroke="black"/>
<path d="M63,147h -6" fill="none" stroke="black"/>
<path d="M70,140h -13" fill="none" stroke="black"/>
<path d="M63,134h -6" fill="none" stroke="black"/>
<path d="M63,128h -6" fill="none" stroke="black"/>
<path d="M63,121h -6" fill="none" stroke="black"/>
<path d="M70,115h -13" fill="none" stroke="black"/>
<path d="M63,108h -6" fill="none" stroke="black"/>
<path d="M63,102h -6" fill="none" stroke="black"/>
<path d="M63,95h -6" fill="none" stroke="black"/>
<path d="M70,89h -13" fill="none" stroke="black"/>
<path d="M63,83h -6" fill="none" stroke="black"/>
<path d="M63,76h -6" fill="none" stroke="black"/>
<path d="M63,70h -6" fill="none" stroke="black"/>
<path d="M70,63h -13" fill="none" stroke="black"/>
<path d="M70,63h -13" fill="none" stroke="black"/>
<path d="M63,57h -6" fill="none" stroke="black"/>
<path d="M63,50h -6" fill="none" stroke="black"/>
<path d="M63,44h -6" fill="none" stroke="black"/>
<text x="47" y="350" fill="black" font-size="12" font-family="Helvetica">
0
</text>
<text x="40" y="325" fill="black" font-size="12" font-family="Helvetica">
20
</text>
<text x="40" y="299" fill="black" font-size="12" font-family="Helvetica">
40
</text>
<text x="40" y="273" fill="black" font-size="12" font-family="Helvetica">
60
</text>
<text x="40" y="247" fill="black" font-size="12" font-family="Helvetica">
80
</text>
<text x="33" y="221" fill="black" font-size="12" font-family="Helvetica">
100
</text>
<text x="33" y="196" fill="black" font-size="12" font-family="Helvetica">
120
</text>
<text x="33" y="170" fill="black" font-size="12" font-family="Helvetica">
140
</text>
<text x="33" y="144" fill="black" font-size="12" font-family="Helvetica">
160
</text>
<text x="33" y="119" fill="black" font-size="12" font-family="Helvetica">
180
</text>
<text x="33" y="93" fill="black" font-size="12" font-family="Helvetica">
200
</text>
<text x="33" y="67" fill="black" font-size="12" font-family="Helvetica">
220
</text>
<rect x="351" y="25" width="205" height="169" fill="white"/>
<path d="M351,194h 205" fill="none" stroke="black"/>
<path d="M556,194v -169" fill="none" stroke="black"/>
<path d="M556,25h -205" fill="none" stroke="black"/>
<path d="M351,25v 169" fill="none" stroke="black"/>
<text x="362" y="38" fill="black" font-size="14" font-family="Helvetica">
Entries 
</text>
<text x="498" y="38" fill="black" font-size="14" font-family="Helvetica">
 33560
</text>
<text x="374" y="57" fill="black" font-size="14" font-family="Helvetica">
 / ndf 
</text>
<text x="369" y="45" fill="black" font-size="10" font-family="Helvetica">
2
</text>
<text x="362" y="57" fill="black" font-size="14" font-family="Times">
&#0967;
</text>
<text x="455" y="54" fill="black" font-size="14" font-family="Helvetica">
  1425 / 1239
</text>
<text x="382" y="67" fill="black" font-size="14" font-family="Helvetica">
   
</text>
<text x="372" y="76" fill="black" font-size="10" font-family="Helvetica">
cu
</text>
<text x="362" y="67" fill="black" font-size="14" font-family="Helvetica">
N
</text>
<text x="511" y="73" fill="black" font-size="14" font-family="Helvetica">
 7.56
</text>
<text x="499" y="73" fill="black" font-size="14" font-family="Times">
&#0177;
</text>
<text x="451" y="73" fill="black" font-size="14" font-family="Helvetica">
 26.98 
</text>
<text x="377" y="86" fill="black" font-size="14" font-family="Helvetica">
 
</text>
<text x="367" y="96" fill="black" font-size="10" font-family="Helvetica">
cu
</text>
<text x="362" y="86" fill="black" font-size="14" font-family="Times">
&#0964;
</text>
<text x="511" y="90" fill="black" font-size="14" font-family="Helvetica">
 76.3
</text>
<text x="499" y="90" fill="black" font-size="14" font-family="Times">
&#0177;
</text>
<text x="451" y="90" fill="black" font-size="14" font-family="Helvetica">
 217.7 
</text>
<text x="375" y="102" fill="black" font-size="14" font-family="Helvetica">
    
</text>
<text x="372" y="110" fill="black" font-size="10" font-family="Helvetica">
f
</text>
<text x="362" y="102" fill="black" font-size="14" font-family="Helvetica">
N
</text>
<text x="511" y="107" fill="black" font-size="14" font-family="Helvetica">
 2.13
</text>
<text x="499" y="107" fill="black" font-size="14" font-family="Times">
&#0177;
</text>
<text x="451" y="107" fill="black" font-size="14" font-family="Helvetica">
 76.49 
</text>
<text x="370" y="120" fill="black" font-size="14" font-family="Helvetica">
 
</text>
<text x="367" y="130" fill="black" font-size="10" font-family="Helvetica">
f
</text>
<text x="362" y="120" fill="black" font-size="14" font-family="Times">
&#0964;
</text>
<text x="511" y="124" fill="black" font-size="14" font-family="Helvetica">
 56.4
</text>
<text x="499" y="124" fill="black" font-size="14" font-family="Times">
&#0177;
</text>
<text x="451" y="124" fill="black" font-size="14" font-family="Helvetica">
  2298 
</text>
<text x="384" y="136" fill="black" font-size="14" font-family="Helvetica">
  
</text>
<text x="372" y="145" fill="black" font-size="10" font-family="Helvetica">
sin
</text>
<text x="362" y="136" fill="black" font-size="14" font-family="Helvetica">
N
</text>
<text x="503" y="141" fill="black" font-size="14" font-family="Helvetica">
 0.154
</text>
<text x="490" y="141" fill="black" font-size="14" font-family="Times">
&#0177;
</text>
<text x="443" y="141" fill="black" font-size="14" font-family="Helvetica">
 3.656 
</text>
<text x="367" y="158" fill="black" font-size="14" font-family="Helvetica">
     
</text>
<text x="362" y="158" fill="black" font-size="14" font-family="Times">
&#0966;
</text>
<text x="511" y="158" fill="black" font-size="14" font-family="Helvetica">
 1.02
</text>
<text x="499" y="158" fill="black" font-size="14" font-family="Times">
&#0177;
</text>
<text x="451" y="158" fill="black" font-size="14" font-family="Helvetica">
 43.22 
</text>
<text x="362" y="173" fill="black" font-size="14" font-family="Helvetica">
T        
</text>
<text x="511" y="175" fill="black" font-size="14" font-family="Helvetica">
 0.00
</text>
<text x="499" y="175" fill="black" font-size="14" font-family="Times">
&#0177;
</text>
<text x="451" y="175" fill="black" font-size="14" font-family="Helvetica">
 59.36 
</text>
<text x="377" y="186" fill="black" font-size="14" font-family="Helvetica">
    
</text>
<text x="372" y="195" fill="black" font-size="10" font-family="Helvetica">
b
</text>
<text x="362" y="186" fill="black" font-size="14" font-family="Helvetica">
N
</text>
<text x="503" y="192" fill="black" font-size="14" font-family="Helvetica">
 0.124
</text>
<text x="490" y="192" fill="black" font-size="14" font-family="Times">
&#0177;
</text>
<text x="443" y="192" fill="black" font-size="14" font-family="Helvetica">
 8.724 
</text>
<text x="270" y="21" fill="black" font-size="21" font-family="Helvetica">
D3
</text></svg>
