<?xml version="1.0" standalone="no"?>
<svg width="567" height="328" viewBox="0 0 567 328" xmlns="http://www.w3.org/2000/svg">
<title>
images/analysis_g4bl_phase_tight/run_muon_rate_in_cu.svg
</title>
<desc>
Creator: ROOT Version 5.34/05
CreationDate: Mon Jun 10 21:39:31 2013</desc>
<defs>
</defs>
<rect x="0" y="0" width="567" height="328" fill="white"/>
<rect x="57" y="33" width="453" height="262" fill="white"/>
<rect x="57" y="33" width="453" height="262" fill="none" stroke="black"/>
<path d="M94,101v -28" fill="none" stroke="#000099"/>
<path d="M94,73v -28" fill="none" stroke="#000099"/>
<path d="M57,73h 37" fill="none" stroke="#000099"/>
<path d="M94,73h 38" fill="none" stroke="#000099"/>
<g stroke="black" stroke-width="1" fill="none">
<line x1="93" y1="73" x2="94" y2="73"/>
</g>
<path d="M170,283v -52" fill="none" stroke="#000099"/>
<path d="M170,231v -53" fill="none" stroke="#000099"/>
<path d="M132,231h 38" fill="none" stroke="#000099"/>
<path d="M170,231h 38" fill="none" stroke="#000099"/>
<g stroke="black" stroke-width="1" fill="none">
<line x1="169" y1="231" x2="170" y2="231"/>
</g>
<path d="M246,237v -8" fill="none" stroke="#000099"/>
<path d="M246,229v -9" fill="none" stroke="#000099"/>
<path d="M208,229h 38" fill="none" stroke="#000099"/>
<path d="M246,229h 37" fill="none" stroke="#000099"/>
<g stroke="black" stroke-width="1" fill="none">
<line x1="245" y1="229" x2="246" y2="229"/>
</g>
<path d="M321,231v -7" fill="none" stroke="#000099"/>
<path d="M321,224v -6" fill="none" stroke="#000099"/>
<path d="M283,224h 38" fill="none" stroke="#000099"/>
<path d="M321,224h 38" fill="none" stroke="#000099"/>
<g stroke="black" stroke-width="1" fill="none">
<line x1="320" y1="224" x2="321" y2="224"/>
</g>
<path d="M397,245v -7" fill="none" stroke="#000099"/>
<path d="M397,238v -6" fill="none" stroke="#000099"/>
<path d="M359,238h 38" fill="none" stroke="#000099"/>
<path d="M397,238h 38" fill="none" stroke="#000099"/>
<g stroke="black" stroke-width="1" fill="none">
<line x1="396" y1="238" x2="397" y2="238"/>
</g>
<path d="M472,232v -8" fill="none" stroke="#000099"/>
<path d="M472,224v -8" fill="none" stroke="#000099"/>
<path d="M435,224h 37" fill="none" stroke="#000099"/>
<path d="M472,224h 38" fill="none" stroke="#000099"/>
<g stroke="black" stroke-width="1" fill="none">
<line x1="471" y1="224" x2="472" y2="224"/>
</g>
<path d="M57,295h 453" fill="none" stroke="black"/>
<text x="462" y="317" fill="black" font-size="11" font-family="Helvetica">
Degrader
</text>
<text x="92" y="305" fill="black" font-size="7" font-family="Helvetica">
0
</text>
<text x="165" y="305" fill="black" font-size="7" font-family="Helvetica">
0.5
</text>
<text x="240" y="305" fill="black" font-size="7" font-family="Helvetica">
0.5
</text>
<text x="319" y="305" fill="black" font-size="7" font-family="Helvetica">
1
</text>
<text x="395" y="305" fill="black" font-size="7" font-family="Helvetica">
5
</text>
<text x="470" y="305" fill="black" font-size="7" font-family="Helvetica">
5
</text>
<path d="M57,287v 8" fill="none" stroke="black"/>
<path d="M132,287v 8" fill="none" stroke="black"/>
<path d="M208,287v 8" fill="none" stroke="black"/>
<path d="M283,287v 8" fill="none" stroke="black"/>
<path d="M359,287v 8" fill="none" stroke="black"/>
<path d="M435,287v 8" fill="none" stroke="black"/>
<path d="M510,287v 8" fill="none" stroke="black"/>
<path d="M57,295v -262" fill="none" stroke="black"/>
<g transform="rotate(-90,28,122)">
<text x="28" y="122" fill="black" font-size="11" font-family="Helvetica">
Muons per proton
</text>
</g>
<path d="M70,285h -13" fill="none" stroke="black"/>
<path d="M63,279h -6" fill="none" stroke="black"/>
<path d="M63,272h -6" fill="none" stroke="black"/>
<path d="M63,266h -6" fill="none" stroke="black"/>
<path d="M63,259h -6" fill="none" stroke="black"/>
<path d="M70,253h -13" fill="none" stroke="black"/>
<path d="M63,247h -6" fill="none" stroke="black"/>
<path d="M63,240h -6" fill="none" stroke="black"/>
<path d="M63,234h -6" fill="none" stroke="black"/>
<path d="M63,227h -6" fill="none" stroke="black"/>
<path d="M70,221h -13" fill="none" stroke="black"/>
<path d="M63,214h -6" fill="none" stroke="black"/>
<path d="M63,208h -6" fill="none" stroke="black"/>
<path d="M63,201h -6" fill="none" stroke="black"/>
<path d="M63,195h -6" fill="none" stroke="black"/>
<path d="M70,188h -13" fill="none" stroke="black"/>
<path d="M63,182h -6" fill="none" stroke="black"/>
<path d="M63,176h -6" fill="none" stroke="black"/>
<path d="M63,169h -6" fill="none" stroke="black"/>
<path d="M63,163h -6" fill="none" stroke="black"/>
<path d="M70,156h -13" fill="none" stroke="black"/>
<path d="M63,150h -6" fill="none" stroke="black"/>
<path d="M63,143h -6" fill="none" stroke="black"/>
<path d="M63,137h -6" fill="none" stroke="black"/>
<path d="M63,130h -6" fill="none" stroke="black"/>
<path d="M70,124h -13" fill="none" stroke="black"/>
<path d="M63,118h -6" fill="none" stroke="black"/>
<path d="M63,111h -6" fill="none" stroke="black"/>
<path d="M63,105h -6" fill="none" stroke="black"/>
<path d="M63,98h -6" fill="none" stroke="black"/>
<path d="M70,92h -13" fill="none" stroke="black"/>
<path d="M63,85h -6" fill="none" stroke="black"/>
<path d="M63,79h -6" fill="none" stroke="black"/>
<path d="M63,72h -6" fill="none" stroke="black"/>
<path d="M63,66h -6" fill="none" stroke="black"/>
<path d="M70,59h -13" fill="none" stroke="black"/>
<path d="M70,285h -13" fill="none" stroke="black"/>
<path d="M63,292h -6" fill="none" stroke="black"/>
<path d="M70,59h -13" fill="none" stroke="black"/>
<path d="M63,53h -6" fill="none" stroke="black"/>
<path d="M63,47h -6" fill="none" stroke="black"/>
<path d="M63,40h -6" fill="none" stroke="black"/>
<path d="M63,34h -6" fill="none" stroke="black"/>
<text x="38" y="288" fill="black" font-size="11" font-family="Helvetica">
-10
</text>
<text x="48" y="256" fill="black" font-size="11" font-family="Helvetica">
0
</text>
<text x="41" y="224" fill="black" font-size="11" font-family="Helvetica">
10
</text>
<text x="41" y="192" fill="black" font-size="11" font-family="Helvetica">
20
</text>
<text x="41" y="160" fill="black" font-size="11" font-family="Helvetica">
30
</text>
<text x="41" y="127" fill="black" font-size="11" font-family="Helvetica">
40
</text>
<text x="41" y="95" fill="black" font-size="11" font-family="Helvetica">
50
</text>
<text x="41" y="63" fill="black" font-size="11" font-family="Helvetica">
60
</text>
<text x="76" y="22" fill="black" font-size="7" font-family="Helvetica">
-9
</text>
<text x="64" y="31" fill="black" font-size="11" font-family="Helvetica">
10
</text>
<text x="57" y="31" fill="black" font-size="11" font-family="Times">
&#0215;
</text>
<text x="164" y="17" fill="black" font-size="17" font-family="Helvetica">
Rate of muons decaying in cu
</text>
<rect x="442" y="21" width="114" height="40" fill="white"/>
<path d="M442,61h 114" fill="none" stroke="black"/>
<path d="M556,61v -40" fill="none" stroke="black"/>
<path d="M556,21h -114" fill="none" stroke="black"/>
<path d="M442,21v 40" fill="none" stroke="black"/>
<text x="448" y="46" fill="black" font-size="17" font-family="Helvetica">
Entries 
</text>
<text x="535" y="46" fill="black" font-size="17" font-family="Helvetica">
 6
</text>
<text x="164" y="17" fill="black" font-size="17" font-family="Helvetica">
Rate of muons decaying in cu
</text></svg>
