<?xml version="1.0" standalone="no"?>
<svg width="567" height="328" viewBox="0 0 567 328" xmlns="http://www.w3.org/2000/svg">
<title>
images/analysis_g4bl_phase_tight/sim_muon_rate_in_f.svg
</title>
<desc>
Creator: ROOT Version 5.34/05
CreationDate: Sat Jun 15 11:47:33 2013</desc>
<defs>
</defs>
<rect x="0" y="0" width="567" height="328" fill="white"/>
<rect x="57" y="33" width="453" height="262" fill="white"/>
<rect x="57" y="33" width="453" height="262" fill="none" stroke="black"/>
<path d="M113,59v -7" fill="none" stroke="#000099"/>
<path d="M113,52v -7" fill="none" stroke="#000099"/>
<path d="M57,52h 56" fill="none" stroke="#000099"/>
<path d="M113,52h 57" fill="none" stroke="#000099"/>
<g stroke="black" stroke-width="1" fill="none">
<line x1="112" y1="52" x2="113" y2="52"/>
</g>
<path d="M227,120v -7" fill="none" stroke="#000099"/>
<path d="M227,113v -6" fill="none" stroke="#000099"/>
<path d="M170,113h 57" fill="none" stroke="#000099"/>
<path d="M227,113h 56" fill="none" stroke="#000099"/>
<g stroke="black" stroke-width="1" fill="none">
<line x1="226" y1="113" x2="227" y2="113"/>
</g>
<path d="M340,148v -7" fill="none" stroke="#000099"/>
<path d="M340,141v -6" fill="none" stroke="#000099"/>
<path d="M283,141h 57" fill="none" stroke="#000099"/>
<path d="M340,141h 57" fill="none" stroke="#000099"/>
<g stroke="black" stroke-width="1" fill="none">
<line x1="339" y1="141" x2="340" y2="141"/>
</g>
<path d="M454,283v -5" fill="none" stroke="#000099"/>
<path d="M454,278v -5" fill="none" stroke="#000099"/>
<path d="M397,278h 57" fill="none" stroke="#000099"/>
<path d="M454,278h 56" fill="none" stroke="#000099"/>
<g stroke="black" stroke-width="1" fill="none">
<line x1="453" y1="278" x2="454" y2="278"/>
</g>
<path d="M57,295h 453" fill="none" stroke="black"/>
<text x="462" y="317" fill="black" font-size="11" font-family="Helvetica">
Degrader
</text>
<text x="111" y="305" fill="black" font-size="7" font-family="Helvetica">
0
</text>
<text x="221" y="305" fill="black" font-size="7" font-family="Helvetica">
0.5
</text>
<text x="338" y="305" fill="black" font-size="7" font-family="Helvetica">
1
</text>
<text x="451" y="305" fill="black" font-size="7" font-family="Helvetica">
5
</text>
<path d="M57,287v 8" fill="none" stroke="black"/>
<path d="M170,287v 8" fill="none" stroke="black"/>
<path d="M283,287v 8" fill="none" stroke="black"/>
<path d="M397,287v 8" fill="none" stroke="black"/>
<path d="M510,287v 8" fill="none" stroke="black"/>
<path d="M57,295v -262" fill="none" stroke="black"/>
<g transform="rotate(-90,28,122)">
<text x="28" y="122" fill="black" font-size="11" font-family="Helvetica">
Muons per proton
</text>
</g>
<path d="M70,273h -13" fill="none" stroke="black"/>
<path d="M63,264h -6" fill="none" stroke="black"/>
<path d="M63,256h -6" fill="none" stroke="black"/>
<path d="M63,247h -6" fill="none" stroke="black"/>
<path d="M63,238h -6" fill="none" stroke="black"/>
<path d="M70,230h -13" fill="none" stroke="black"/>
<path d="M63,221h -6" fill="none" stroke="black"/>
<path d="M63,213h -6" fill="none" stroke="black"/>
<path d="M63,204h -6" fill="none" stroke="black"/>
<path d="M63,196h -6" fill="none" stroke="black"/>
<path d="M70,187h -13" fill="none" stroke="black"/>
<path d="M63,178h -6" fill="none" stroke="black"/>
<path d="M63,170h -6" fill="none" stroke="black"/>
<path d="M63,161h -6" fill="none" stroke="black"/>
<path d="M63,153h -6" fill="none" stroke="black"/>
<path d="M70,144h -13" fill="none" stroke="black"/>
<path d="M63,136h -6" fill="none" stroke="black"/>
<path d="M63,127h -6" fill="none" stroke="black"/>
<path d="M63,118h -6" fill="none" stroke="black"/>
<path d="M63,110h -6" fill="none" stroke="black"/>
<path d="M70,101h -13" fill="none" stroke="black"/>
<path d="M63,93h -6" fill="none" stroke="black"/>
<path d="M63,84h -6" fill="none" stroke="black"/>
<path d="M63,76h -6" fill="none" stroke="black"/>
<path d="M63,67h -6" fill="none" stroke="black"/>
<path d="M70,58h -13" fill="none" stroke="black"/>
<path d="M70,273h -13" fill="none" stroke="black"/>
<path d="M63,281h -6" fill="none" stroke="black"/>
<path d="M63,290h -6" fill="none" stroke="black"/>
<path d="M70,58h -13" fill="none" stroke="black"/>
<path d="M63,50h -6" fill="none" stroke="black"/>
<path d="M63,41h -6" fill="none" stroke="black"/>
<path d="M63,33h -6" fill="none" stroke="black"/>
<text x="32" y="276" fill="black" font-size="11" font-family="Helvetica">
0.35
</text>
<text x="38" y="233" fill="black" font-size="11" font-family="Helvetica">
0.4
</text>
<text x="32" y="190" fill="black" font-size="11" font-family="Helvetica">
0.45
</text>
<text x="38" y="147" fill="black" font-size="11" font-family="Helvetica">
0.5
</text>
<text x="32" y="105" fill="black" font-size="11" font-family="Helvetica">
0.55
</text>
<text x="38" y="62" fill="black" font-size="11" font-family="Helvetica">
0.6
</text>
<text x="76" y="22" fill="black" font-size="7" font-family="Helvetica">
-3
</text>
<text x="64" y="31" fill="black" font-size="11" font-family="Helvetica">
10
</text>
<text x="57" y="31" fill="black" font-size="11" font-family="Times">
&#0215;
</text>
<text x="131" y="17" fill="black" font-size="17" font-family="Helvetica">
Simulated rate of muons decaying in f
</text>
<rect x="442" y="21" width="114" height="40" fill="white"/>
<path d="M442,61h 114" fill="none" stroke="black"/>
<path d="M556,61v -40" fill="none" stroke="black"/>
<path d="M556,21h -114" fill="none" stroke="black"/>
<path d="M442,21v 40" fill="none" stroke="black"/>
<text x="448" y="46" fill="black" font-size="17" font-family="Helvetica">
Entries 
</text>
<text x="535" y="46" fill="black" font-size="17" font-family="Helvetica">
 4
</text>
<text x="131" y="17" fill="black" font-size="17" font-family="Helvetica">
Simulated rate of muons decaying in f
</text></svg>
