<?xml version="1.0" standalone="no"?>
<svg width="567" height="328" viewBox="0 0 567 328" xmlns="http://www.w3.org/2000/svg">
<title>
images/analysis_g4bl_phase_tight/rates/sim_muon_rate_in_cu.svg
</title>
<desc>
Creator: ROOT Version 5.34/05
CreationDate: Mon Jun 17 13:39:06 2013</desc>
<defs>
</defs>
<rect x="0" y="0" width="567" height="328" fill="white"/>
<rect x="57" y="33" width="453" height="262" fill="white"/>
<rect x="57" y="33" width="453" height="262" fill="none" stroke="black"/>
<path d="M283,283v -119" fill="none" stroke="#000099"/>
<path d="M283,164v -119" fill="none" stroke="#000099"/>
<path d="M57,164h 226" fill="none" stroke="#000099"/>
<path d="M283,164h 227" fill="none" stroke="#000099"/>
<g stroke="black" stroke-width="1" fill="none">
<line x1="282" y1="164" x2="283" y2="164"/>
</g>
<path d="M57,295h 453" fill="none" stroke="black"/>
<text x="462" y="317" fill="black" font-size="11" font-family="Helvetica">
Degrader
</text>
<text x="281" y="305" fill="black" font-size="7" font-family="Helvetica">
0
</text>
<path d="M57,287v 8" fill="none" stroke="black"/>
<path d="M510,287v 8" fill="none" stroke="black"/>
<path d="M57,295v -262" fill="none" stroke="black"/>
<g transform="rotate(-90,28,122)">
<text x="28" y="122" fill="black" font-size="11" font-family="Helvetica">
Muons per proton
</text>
</g>
<path d="M70,270h -13" fill="none" stroke="black"/>
<path d="M63,264h -6" fill="none" stroke="black"/>
<path d="M63,259h -6" fill="none" stroke="black"/>
<path d="M63,254h -6" fill="none" stroke="black"/>
<path d="M63,248h -6" fill="none" stroke="black"/>
<path d="M70,243h -13" fill="none" stroke="black"/>
<path d="M63,238h -6" fill="none" stroke="black"/>
<path d="M63,233h -6" fill="none" stroke="black"/>
<path d="M63,227h -6" fill="none" stroke="black"/>
<path d="M63,222h -6" fill="none" stroke="black"/>
<path d="M70,217h -13" fill="none" stroke="black"/>
<path d="M63,212h -6" fill="none" stroke="black"/>
<path d="M63,206h -6" fill="none" stroke="black"/>
<path d="M63,201h -6" fill="none" stroke="black"/>
<path d="M63,196h -6" fill="none" stroke="black"/>
<path d="M70,191h -13" fill="none" stroke="black"/>
<path d="M63,185h -6" fill="none" stroke="black"/>
<path d="M63,180h -6" fill="none" stroke="black"/>
<path d="M63,175h -6" fill="none" stroke="black"/>
<path d="M63,169h -6" fill="none" stroke="black"/>
<path d="M70,164h -13" fill="none" stroke="black"/>
<path d="M63,159h -6" fill="none" stroke="black"/>
<path d="M63,154h -6" fill="none" stroke="black"/>
<path d="M63,148h -6" fill="none" stroke="black"/>
<path d="M63,143h -6" fill="none" stroke="black"/>
<path d="M70,138h -13" fill="none" stroke="black"/>
<path d="M63,133h -6" fill="none" stroke="black"/>
<path d="M63,127h -6" fill="none" stroke="black"/>
<path d="M63,122h -6" fill="none" stroke="black"/>
<path d="M63,117h -6" fill="none" stroke="black"/>
<path d="M70,112h -13" fill="none" stroke="black"/>
<path d="M63,106h -6" fill="none" stroke="black"/>
<path d="M63,101h -6" fill="none" stroke="black"/>
<path d="M63,96h -6" fill="none" stroke="black"/>
<path d="M63,90h -6" fill="none" stroke="black"/>
<path d="M70,85h -13" fill="none" stroke="black"/>
<path d="M63,80h -6" fill="none" stroke="black"/>
<path d="M63,75h -6" fill="none" stroke="black"/>
<path d="M63,69h -6" fill="none" stroke="black"/>
<path d="M63,64h -6" fill="none" stroke="black"/>
<path d="M70,59h -13" fill="none" stroke="black"/>
<path d="M70,270h -13" fill="none" stroke="black"/>
<path d="M63,275h -6" fill="none" stroke="black"/>
<path d="M63,280h -6" fill="none" stroke="black"/>
<path d="M63,285h -6" fill="none" stroke="black"/>
<path d="M63,291h -6" fill="none" stroke="black"/>
<path d="M70,59h -13" fill="none" stroke="black"/>
<path d="M63,54h -6" fill="none" stroke="black"/>
<path d="M63,48h -6" fill="none" stroke="black"/>
<path d="M63,43h -6" fill="none" stroke="black"/>
<path d="M63,38h -6" fill="none" stroke="black"/>
<text x="44" y="273" fill="black" font-size="11" font-family="Helvetica">
-2
</text>
<text x="34" y="246" fill="black" font-size="11" font-family="Helvetica">
-1.5
</text>
<text x="44" y="220" fill="black" font-size="11" font-family="Helvetica">
-1
</text>
<text x="34" y="194" fill="black" font-size="11" font-family="Helvetica">
-0.5
</text>
<text x="48" y="168" fill="black" font-size="11" font-family="Helvetica">
0
</text>
<text x="38" y="141" fill="black" font-size="11" font-family="Helvetica">
0.5
</text>
<text x="48" y="115" fill="black" font-size="11" font-family="Helvetica">
1
</text>
<text x="38" y="88" fill="black" font-size="11" font-family="Helvetica">
1.5
</text>
<text x="48" y="62" fill="black" font-size="11" font-family="Helvetica">
2
</text>
<text x="76" y="22" fill="black" font-size="7" font-family="Helvetica">
-6
</text>
<text x="64" y="31" fill="black" font-size="11" font-family="Helvetica">
10
</text>
<text x="57" y="31" fill="black" font-size="11" font-family="Times">
&#0215;
</text>
<text x="124" y="17" fill="black" font-size="17" font-family="Helvetica">
Simulated rate of muons decaying in cu
</text>
<rect x="442" y="21" width="114" height="40" fill="white"/>
<path d="M442,61h 114" fill="none" stroke="black"/>
<path d="M556,61v -40" fill="none" stroke="black"/>
<path d="M556,21h -114" fill="none" stroke="black"/>
<path d="M442,21v 40" fill="none" stroke="black"/>
<text x="448" y="46" fill="black" font-size="17" font-family="Helvetica">
Entries 
</text>
<text x="535" y="46" fill="black" font-size="17" font-family="Helvetica">
 1
</text>
<text x="124" y="17" fill="black" font-size="17" font-family="Helvetica">
Simulated rate of muons decaying in cu
</text></svg>
