<?xml version="1.0" standalone="no"?>
<svg width="567" height="384" viewBox="0 0 567 384" xmlns="http://www.w3.org/2000/svg">
<title>
images/analysis_g4bl_sin_phase_l_bound50bin_16tight/zoom/455_455_D3.svg
</title>
<desc>
Creator: ROOT Version 5.34/09
CreationDate: Tue Jan  7 17:12:16 2014</desc>
<defs>
</defs>
<rect x="0" y="0" width="567" height="384" fill="white"/>
<rect x="57" y="38" width="453" height="308" fill="white"/>
<rect x="57" y="38" width="453" height="308" fill="none" stroke="black"/>
<rect x="57" y="38" width="453" height="308" fill="white"/>
<rect x="57" y="38" width="453" height="308" fill="none" stroke="black"/>
<path d="M57,314h 17v 10h 18v 5h 17v -12h 17v -4h 18v 7h 17v 2h 18v -7h 17v -8h 18v 9h 17v -7h 18v -10h 17v 9h 17v 38h 35v -50h 18v -243h 17v 80h 18v 28h 17v 38h 18v 6h 17v 6h 17v 25h 18v -6h 17v -6h 18v 15h 17" fill="none" stroke="#000099"/>
<rect x="442" y="25" width="114" height="46" fill="white"/>
<path d="M442,71h 114" fill="none" stroke="black"/>
<path d="M556,71v -46" fill="none" stroke="black"/>
<path d="M556,25h -114" fill="none" stroke="black"/>
<path d="M442,25v 46" fill="none" stroke="black"/>
<text x="447" y="53" fill="black" font-size="14" font-family="Helvetica">
Entries 
</text>
<text x="497" y="53" fill="black" font-size="14" font-family="Helvetica">
 177058
</text>
<path d="M57,346h 453" fill="none" stroke="black"/>
<text x="425" y="371" fill="black" font-size="12" font-family="Helvetica">
TDC-TDC0 (ns)
</text>
<path d="M65,336v 10" fill="none" stroke="black"/>
<path d="M76,341v 5" fill="none" stroke="black"/>
<path d="M87,341v 5" fill="none" stroke="black"/>
<path d="M98,341v 5" fill="none" stroke="black"/>
<path d="M109,341v 5" fill="none" stroke="black"/>
<path d="M120,336v 10" fill="none" stroke="black"/>
<path d="M131,341v 5" fill="none" stroke="black"/>
<path d="M142,341v 5" fill="none" stroke="black"/>
<path d="M153,341v 5" fill="none" stroke="black"/>
<path d="M164,341v 5" fill="none" stroke="black"/>
<path d="M174,336v 10" fill="none" stroke="black"/>
<path d="M185,341v 5" fill="none" stroke="black"/>
<path d="M196,341v 5" fill="none" stroke="black"/>
<path d="M207,341v 5" fill="none" stroke="black"/>
<path d="M218,341v 5" fill="none" stroke="black"/>
<path d="M229,336v 10" fill="none" stroke="black"/>
<path d="M240,341v 5" fill="none" stroke="black"/>
<path d="M251,341v 5" fill="none" stroke="black"/>
<path d="M262,341v 5" fill="none" stroke="black"/>
<path d="M273,341v 5" fill="none" stroke="black"/>
<path d="M283,336v 10" fill="none" stroke="black"/>
<path d="M294,341v 5" fill="none" stroke="black"/>
<path d="M305,341v 5" fill="none" stroke="black"/>
<path d="M316,341v 5" fill="none" stroke="black"/>
<path d="M327,341v 5" fill="none" stroke="black"/>
<path d="M338,336v 10" fill="none" stroke="black"/>
<path d="M349,341v 5" fill="none" stroke="black"/>
<path d="M360,341v 5" fill="none" stroke="black"/>
<path d="M371,341v 5" fill="none" stroke="black"/>
<path d="M382,341v 5" fill="none" stroke="black"/>
<path d="M392,336v 10" fill="none" stroke="black"/>
<path d="M403,341v 5" fill="none" stroke="black"/>
<path d="M414,341v 5" fill="none" stroke="black"/>
<path d="M425,341v 5" fill="none" stroke="black"/>
<path d="M436,341v 5" fill="none" stroke="black"/>
<path d="M447,336v 10" fill="none" stroke="black"/>
<path d="M458,341v 5" fill="none" stroke="black"/>
<path d="M469,341v 5" fill="none" stroke="black"/>
<path d="M480,341v 5" fill="none" stroke="black"/>
<path d="M491,341v 5" fill="none" stroke="black"/>
<path d="M502,336v 10" fill="none" stroke="black"/>
<path d="M65,336v 10" fill="none" stroke="black"/>
<path d="M502,336v 10" fill="none" stroke="black"/>
<text x="53" y="358" fill="black" font-size="12" font-family="Helvetica">
-200
</text>
<text x="108" y="358" fill="black" font-size="12" font-family="Helvetica">
-150
</text>
<text x="162" y="358" fill="black" font-size="12" font-family="Helvetica">
-100
</text>
<text x="220" y="358" fill="black" font-size="12" font-family="Helvetica">
-50
</text>
<text x="280" y="358" fill="black" font-size="12" font-family="Helvetica">
0
</text>
<text x="330" y="358" fill="black" font-size="12" font-family="Helvetica">
50
</text>
<text x="381" y="358" fill="black" font-size="12" font-family="Helvetica">
100
</text>
<text x="436" y="358" fill="black" font-size="12" font-family="Helvetica">
150
</text>
<text x="490" y="358" fill="black" font-size="12" font-family="Helvetica">
200
</text>
<path d="M57,346v -308" fill="none" stroke="black"/>
<g transform="rotate(-90,29,70)">
<text x="29" y="70" fill="black" font-size="12" font-family="Helvetica">
Count
</text>
</g>
<path d="M70,346h -13" fill="none" stroke="black"/>
<path d="M63,332h -6" fill="none" stroke="black"/>
<path d="M63,318h -6" fill="none" stroke="black"/>
<path d="M63,304h -6" fill="none" stroke="black"/>
<path d="M70,291h -13" fill="none" stroke="black"/>
<path d="M63,277h -6" fill="none" stroke="black"/>
<path d="M63,263h -6" fill="none" stroke="black"/>
<path d="M63,250h -6" fill="none" stroke="black"/>
<path d="M70,236h -13" fill="none" stroke="black"/>
<path d="M63,222h -6" fill="none" stroke="black"/>
<path d="M63,208h -6" fill="none" stroke="black"/>
<path d="M63,195h -6" fill="none" stroke="black"/>
<path d="M70,181h -13" fill="none" stroke="black"/>
<path d="M63,167h -6" fill="none" stroke="black"/>
<path d="M63,154h -6" fill="none" stroke="black"/>
<path d="M63,140h -6" fill="none" stroke="black"/>
<path d="M70,126h -13" fill="none" stroke="black"/>
<path d="M63,112h -6" fill="none" stroke="black"/>
<path d="M63,99h -6" fill="none" stroke="black"/>
<path d="M63,85h -6" fill="none" stroke="black"/>
<path d="M70,71h -13" fill="none" stroke="black"/>
<path d="M70,71h -13" fill="none" stroke="black"/>
<path d="M63,58h -6" fill="none" stroke="black"/>
<path d="M63,44h -6" fill="none" stroke="black"/>
<text x="47" y="350" fill="black" font-size="12" font-family="Helvetica">
0
</text>
<text x="33" y="295" fill="black" font-size="12" font-family="Helvetica">
200
</text>
<text x="33" y="241" fill="black" font-size="12" font-family="Helvetica">
400
</text>
<text x="33" y="185" fill="black" font-size="12" font-family="Helvetica">
600
</text>
<text x="33" y="131" fill="black" font-size="12" font-family="Helvetica">
800
</text>
<text x="27" y="76" fill="black" font-size="12" font-family="Helvetica">
1000
</text>
<rect x="442" y="25" width="114" height="46" fill="white"/>
<path d="M442,71h 114" fill="none" stroke="black"/>
<path d="M556,71v -46" fill="none" stroke="black"/>
<path d="M556,25h -114" fill="none" stroke="black"/>
<path d="M442,25v 46" fill="none" stroke="black"/>
<text x="447" y="53" fill="black" font-size="14" font-family="Helvetica">
Entries 
</text>
<text x="497" y="53" fill="black" font-size="14" font-family="Helvetica">
 177058
</text>
<text x="252" y="18" fill="black" font-size="18" font-family="Helvetica">
455_D3
</text></svg>
