<?xml version="1.0" standalone="no"?>
<svg width="567" height="384" viewBox="0 0 567 384" xmlns="http://www.w3.org/2000/svg">
<title>
images/analysis_g4bl_sin_phase_tight/zoom/451_D4.svg
</title>
<desc>
Creator: ROOT Version 5.34/09
CreationDate: Fri Sep  6 21:47:47 2013</desc>
<defs>
</defs>
<rect x="0" y="0" width="567" height="384" fill="white"/>
<rect x="57" y="38" width="453" height="308" fill="white"/>
<rect x="57" y="38" width="453" height="308" fill="none" stroke="black"/>
<rect x="57" y="38" width="453" height="308" fill="white"/>
<rect x="57" y="38" width="453" height="308" fill="none" stroke="black"/>
<path d="M57,321h 17v 4h 18v -8h 17v 8h 35v -16h 17v -12h 18v 8h 17v -20h 18v 40h 35v -16h 17v -4h 17v 41h 70v -165h 18v -128h 17v 84h 18v 48h 17v 44h 17v 32h 18v -44h 17v 52h 18v 4h 17" fill="none" stroke="#000099"/>
<rect x="442" y="25" width="114" height="46" fill="white"/>
<path d="M442,71h 114" fill="none" stroke="black"/>
<path d="M556,71v -46" fill="none" stroke="black"/>
<path d="M556,25h -114" fill="none" stroke="black"/>
<path d="M442,25v 46" fill="none" stroke="black"/>
<text x="447" y="53" fill="black" font-size="15" font-family="Helvetica">
Entries 
</text>
<text x="512" y="53" fill="black" font-size="15" font-family="Helvetica">
 8150
</text>
<path d="M57,346h 453" fill="none" stroke="black"/>
<text x="425" y="371" fill="black" font-size="12" font-family="Helvetica">
TDC-TDC0 (ns)
</text>
<path d="M65,336v 10" fill="none" stroke="black"/>
<path d="M76,341v 5" fill="none" stroke="black"/>
<path d="M87,341v 5" fill="none" stroke="black"/>
<path d="M98,341v 5" fill="none" stroke="black"/>
<path d="M109,341v 5" fill="none" stroke="black"/>
<path d="M120,336v 10" fill="none" stroke="black"/>
<path d="M131,341v 5" fill="none" stroke="black"/>
<path d="M142,341v 5" fill="none" stroke="black"/>
<path d="M153,341v 5" fill="none" stroke="black"/>
<path d="M164,341v 5" fill="none" stroke="black"/>
<path d="M174,336v 10" fill="none" stroke="black"/>
<path d="M185,341v 5" fill="none" stroke="black"/>
<path d="M196,341v 5" fill="none" stroke="black"/>
<path d="M207,341v 5" fill="none" stroke="black"/>
<path d="M218,341v 5" fill="none" stroke="black"/>
<path d="M229,336v 10" fill="none" stroke="black"/>
<path d="M240,341v 5" fill="none" stroke="black"/>
<path d="M251,341v 5" fill="none" stroke="black"/>
<path d="M262,341v 5" fill="none" stroke="black"/>
<path d="M273,341v 5" fill="none" stroke="black"/>
<path d="M283,336v 10" fill="none" stroke="black"/>
<path d="M294,341v 5" fill="none" stroke="black"/>
<path d="M305,341v 5" fill="none" stroke="black"/>
<path d="M316,341v 5" fill="none" stroke="black"/>
<path d="M327,341v 5" fill="none" stroke="black"/>
<path d="M338,336v 10" fill="none" stroke="black"/>
<path d="M349,341v 5" fill="none" stroke="black"/>
<path d="M360,341v 5" fill="none" stroke="black"/>
<path d="M371,341v 5" fill="none" stroke="black"/>
<path d="M382,341v 5" fill="none" stroke="black"/>
<path d="M392,336v 10" fill="none" stroke="black"/>
<path d="M403,341v 5" fill="none" stroke="black"/>
<path d="M414,341v 5" fill="none" stroke="black"/>
<path d="M425,341v 5" fill="none" stroke="black"/>
<path d="M436,341v 5" fill="none" stroke="black"/>
<path d="M447,336v 10" fill="none" stroke="black"/>
<path d="M458,341v 5" fill="none" stroke="black"/>
<path d="M469,341v 5" fill="none" stroke="black"/>
<path d="M480,341v 5" fill="none" stroke="black"/>
<path d="M491,341v 5" fill="none" stroke="black"/>
<path d="M502,336v 10" fill="none" stroke="black"/>
<path d="M65,336v 10" fill="none" stroke="black"/>
<path d="M502,336v 10" fill="none" stroke="black"/>
<text x="53" y="358" fill="black" font-size="12" font-family="Helvetica">
-200
</text>
<text x="108" y="358" fill="black" font-size="12" font-family="Helvetica">
-150
</text>
<text x="162" y="358" fill="black" font-size="12" font-family="Helvetica">
-100
</text>
<text x="220" y="358" fill="black" font-size="12" font-family="Helvetica">
-50
</text>
<text x="280" y="358" fill="black" font-size="12" font-family="Helvetica">
0
</text>
<text x="331" y="358" fill="black" font-size="12" font-family="Helvetica">
50
</text>
<text x="381" y="358" fill="black" font-size="12" font-family="Helvetica">
100
</text>
<text x="436" y="358" fill="black" font-size="12" font-family="Helvetica">
150
</text>
<text x="490" y="358" fill="black" font-size="12" font-family="Helvetica">
200
</text>
<path d="M57,346v -308" fill="none" stroke="black"/>
<g transform="rotate(-90,29,70)">
<text x="29" y="70" fill="black" font-size="12" font-family="Helvetica">
Count
</text>
</g>
<path d="M70,346h -13" fill="none" stroke="black"/>
<path d="M63,338h -6" fill="none" stroke="black"/>
<path d="M63,330h -6" fill="none" stroke="black"/>
<path d="M63,321h -6" fill="none" stroke="black"/>
<path d="M63,313h -6" fill="none" stroke="black"/>
<path d="M70,305h -13" fill="none" stroke="black"/>
<path d="M63,297h -6" fill="none" stroke="black"/>
<path d="M63,289h -6" fill="none" stroke="black"/>
<path d="M63,281h -6" fill="none" stroke="black"/>
<path d="M63,273h -6" fill="none" stroke="black"/>
<path d="M70,265h -13" fill="none" stroke="black"/>
<path d="M63,257h -6" fill="none" stroke="black"/>
<path d="M63,249h -6" fill="none" stroke="black"/>
<path d="M63,241h -6" fill="none" stroke="black"/>
<path d="M63,233h -6" fill="none" stroke="black"/>
<path d="M70,225h -13" fill="none" stroke="black"/>
<path d="M63,217h -6" fill="none" stroke="black"/>
<path d="M63,209h -6" fill="none" stroke="black"/>
<path d="M63,201h -6" fill="none" stroke="black"/>
<path d="M63,193h -6" fill="none" stroke="black"/>
<path d="M70,185h -13" fill="none" stroke="black"/>
<path d="M63,177h -6" fill="none" stroke="black"/>
<path d="M63,169h -6" fill="none" stroke="black"/>
<path d="M63,161h -6" fill="none" stroke="black"/>
<path d="M63,153h -6" fill="none" stroke="black"/>
<path d="M70,145h -13" fill="none" stroke="black"/>
<path d="M63,137h -6" fill="none" stroke="black"/>
<path d="M63,129h -6" fill="none" stroke="black"/>
<path d="M63,121h -6" fill="none" stroke="black"/>
<path d="M63,113h -6" fill="none" stroke="black"/>
<path d="M70,105h -13" fill="none" stroke="black"/>
<path d="M63,97h -6" fill="none" stroke="black"/>
<path d="M63,89h -6" fill="none" stroke="black"/>
<path d="M63,81h -6" fill="none" stroke="black"/>
<path d="M63,73h -6" fill="none" stroke="black"/>
<path d="M70,65h -13" fill="none" stroke="black"/>
<path d="M70,65h -13" fill="none" stroke="black"/>
<path d="M63,57h -6" fill="none" stroke="black"/>
<path d="M63,49h -6" fill="none" stroke="black"/>
<path d="M63,41h -6" fill="none" stroke="black"/>
<text x="47" y="350" fill="black" font-size="12" font-family="Helvetica">
0
</text>
<text x="41" y="310" fill="black" font-size="12" font-family="Helvetica">
10
</text>
<text x="41" y="270" fill="black" font-size="12" font-family="Helvetica">
20
</text>
<text x="41" y="230" fill="black" font-size="12" font-family="Helvetica">
30
</text>
<text x="41" y="189" fill="black" font-size="12" font-family="Helvetica">
40
</text>
<text x="41" y="149" fill="black" font-size="12" font-family="Helvetica">
50
</text>
<text x="41" y="109" fill="black" font-size="12" font-family="Helvetica">
60
</text>
<text x="41" y="69" fill="black" font-size="12" font-family="Helvetica">
70
</text>
<rect x="442" y="25" width="114" height="46" fill="white"/>
<path d="M442,71h 114" fill="none" stroke="black"/>
<path d="M556,71v -46" fill="none" stroke="black"/>
<path d="M556,25h -114" fill="none" stroke="black"/>
<path d="M442,25v 46" fill="none" stroke="black"/>
<text x="447" y="53" fill="black" font-size="15" font-family="Helvetica">
Entries 
</text>
<text x="512" y="53" fill="black" font-size="15" font-family="Helvetica">
 8150
</text>
<text x="272" y="19" fill="black" font-size="16" font-family="Helvetica">
D4
</text></svg>
