<?xml version="1.0" standalone="no"?>
<svg width="567" height="384" viewBox="0 0 567 384" xmlns="http://www.w3.org/2000/svg">
<title>
images/analysis_g4bl_sin_phase_tight/zoom/451_451_D1.svg
</title>
<desc>
Creator: ROOT Version 5.34/09
CreationDate: Tue Sep 10 00:05:58 2013</desc>
<defs>
</defs>
<rect x="0" y="0" width="567" height="384" fill="white"/>
<rect x="57" y="38" width="453" height="308" fill="white"/>
<rect x="57" y="38" width="453" height="308" fill="none" stroke="black"/>
<rect x="57" y="38" width="453" height="308" fill="white"/>
<rect x="57" y="38" width="453" height="308" fill="none" stroke="black"/>
<path d="M57,303h 17v 1h 18v -4h 17v -13h 17v 17h 35v -22h 18v 18h 17v 9h 18v -27h 17v -5h 18v 9h 17v -233h 17v 293h 18v -3h 17v -258h 18v 79h 17v -5h 18v 22h 17v 41h 18v -5h 17v -30h 17v 20h 18v 7h 17v -7h 18v -14h 17" fill="none" stroke="#000099"/>
<rect x="442" y="25" width="114" height="46" fill="white"/>
<path d="M442,71h 114" fill="none" stroke="black"/>
<path d="M556,71v -46" fill="none" stroke="black"/>
<path d="M556,25h -114" fill="none" stroke="black"/>
<path d="M442,25v 46" fill="none" stroke="black"/>
<text x="447" y="53" fill="black" font-size="14" font-family="Helvetica">
Entries 
</text>
<text x="497" y="53" fill="black" font-size="14" font-family="Helvetica">
 106977
</text>
<path d="M57,346h 453" fill="none" stroke="black"/>
<text x="425" y="371" fill="black" font-size="12" font-family="Helvetica">
TDC-TDC0 (ns)
</text>
<path d="M65,336v 10" fill="none" stroke="black"/>
<path d="M76,341v 5" fill="none" stroke="black"/>
<path d="M87,341v 5" fill="none" stroke="black"/>
<path d="M98,341v 5" fill="none" stroke="black"/>
<path d="M109,341v 5" fill="none" stroke="black"/>
<path d="M120,336v 10" fill="none" stroke="black"/>
<path d="M131,341v 5" fill="none" stroke="black"/>
<path d="M142,341v 5" fill="none" stroke="black"/>
<path d="M153,341v 5" fill="none" stroke="black"/>
<path d="M164,341v 5" fill="none" stroke="black"/>
<path d="M174,336v 10" fill="none" stroke="black"/>
<path d="M185,341v 5" fill="none" stroke="black"/>
<path d="M196,341v 5" fill="none" stroke="black"/>
<path d="M207,341v 5" fill="none" stroke="black"/>
<path d="M218,341v 5" fill="none" stroke="black"/>
<path d="M229,336v 10" fill="none" stroke="black"/>
<path d="M240,341v 5" fill="none" stroke="black"/>
<path d="M251,341v 5" fill="none" stroke="black"/>
<path d="M262,341v 5" fill="none" stroke="black"/>
<path d="M273,341v 5" fill="none" stroke="black"/>
<path d="M283,336v 10" fill="none" stroke="black"/>
<path d="M294,341v 5" fill="none" stroke="black"/>
<path d="M305,341v 5" fill="none" stroke="black"/>
<path d="M316,341v 5" fill="none" stroke="black"/>
<path d="M327,341v 5" fill="none" stroke="black"/>
<path d="M338,336v 10" fill="none" stroke="black"/>
<path d="M349,341v 5" fill="none" stroke="black"/>
<path d="M360,341v 5" fill="none" stroke="black"/>
<path d="M371,341v 5" fill="none" stroke="black"/>
<path d="M382,341v 5" fill="none" stroke="black"/>
<path d="M392,336v 10" fill="none" stroke="black"/>
<path d="M403,341v 5" fill="none" stroke="black"/>
<path d="M414,341v 5" fill="none" stroke="black"/>
<path d="M425,341v 5" fill="none" stroke="black"/>
<path d="M436,341v 5" fill="none" stroke="black"/>
<path d="M447,336v 10" fill="none" stroke="black"/>
<path d="M458,341v 5" fill="none" stroke="black"/>
<path d="M469,341v 5" fill="none" stroke="black"/>
<path d="M480,341v 5" fill="none" stroke="black"/>
<path d="M491,341v 5" fill="none" stroke="black"/>
<path d="M502,336v 10" fill="none" stroke="black"/>
<path d="M65,336v 10" fill="none" stroke="black"/>
<path d="M502,336v 10" fill="none" stroke="black"/>
<text x="53" y="358" fill="black" font-size="12" font-family="Helvetica">
-200
</text>
<text x="108" y="358" fill="black" font-size="12" font-family="Helvetica">
-150
</text>
<text x="162" y="358" fill="black" font-size="12" font-family="Helvetica">
-100
</text>
<text x="220" y="358" fill="black" font-size="12" font-family="Helvetica">
-50
</text>
<text x="280" y="358" fill="black" font-size="12" font-family="Helvetica">
0
</text>
<text x="331" y="358" fill="black" font-size="12" font-family="Helvetica">
50
</text>
<text x="381" y="358" fill="black" font-size="12" font-family="Helvetica">
100
</text>
<text x="436" y="358" fill="black" font-size="12" font-family="Helvetica">
150
</text>
<text x="490" y="358" fill="black" font-size="12" font-family="Helvetica">
200
</text>
<path d="M57,346v -308" fill="none" stroke="black"/>
<g transform="rotate(-90,29,70)">
<text x="29" y="70" fill="black" font-size="12" font-family="Helvetica">
Count
</text>
</g>
<path d="M70,346h -13" fill="none" stroke="black"/>
<path d="M63,335h -6" fill="none" stroke="black"/>
<path d="M63,325h -6" fill="none" stroke="black"/>
<path d="M63,315h -6" fill="none" stroke="black"/>
<path d="M63,305h -6" fill="none" stroke="black"/>
<path d="M70,295h -13" fill="none" stroke="black"/>
<path d="M63,285h -6" fill="none" stroke="black"/>
<path d="M63,275h -6" fill="none" stroke="black"/>
<path d="M63,264h -6" fill="none" stroke="black"/>
<path d="M63,254h -6" fill="none" stroke="black"/>
<path d="M70,244h -13" fill="none" stroke="black"/>
<path d="M63,234h -6" fill="none" stroke="black"/>
<path d="M63,224h -6" fill="none" stroke="black"/>
<path d="M63,214h -6" fill="none" stroke="black"/>
<path d="M63,204h -6" fill="none" stroke="black"/>
<path d="M70,194h -13" fill="none" stroke="black"/>
<path d="M63,183h -6" fill="none" stroke="black"/>
<path d="M63,173h -6" fill="none" stroke="black"/>
<path d="M63,163h -6" fill="none" stroke="black"/>
<path d="M63,153h -6" fill="none" stroke="black"/>
<path d="M70,143h -13" fill="none" stroke="black"/>
<path d="M63,133h -6" fill="none" stroke="black"/>
<path d="M63,123h -6" fill="none" stroke="black"/>
<path d="M63,112h -6" fill="none" stroke="black"/>
<path d="M63,102h -6" fill="none" stroke="black"/>
<path d="M70,92h -13" fill="none" stroke="black"/>
<path d="M63,82h -6" fill="none" stroke="black"/>
<path d="M63,72h -6" fill="none" stroke="black"/>
<path d="M63,62h -6" fill="none" stroke="black"/>
<path d="M63,52h -6" fill="none" stroke="black"/>
<path d="M70,41h -13" fill="none" stroke="black"/>
<path d="M70,41h -13" fill="none" stroke="black"/>
<text x="47" y="350" fill="black" font-size="12" font-family="Helvetica">
0
</text>
<text x="41" y="299" fill="black" font-size="12" font-family="Helvetica">
50
</text>
<text x="33" y="249" fill="black" font-size="12" font-family="Helvetica">
100
</text>
<text x="33" y="198" fill="black" font-size="12" font-family="Helvetica">
150
</text>
<text x="33" y="147" fill="black" font-size="12" font-family="Helvetica">
200
</text>
<text x="33" y="96" fill="black" font-size="12" font-family="Helvetica">
250
</text>
<text x="33" y="46" fill="black" font-size="12" font-family="Helvetica">
300
</text>
<rect x="442" y="25" width="114" height="46" fill="white"/>
<path d="M442,71h 114" fill="none" stroke="black"/>
<path d="M556,71v -46" fill="none" stroke="black"/>
<path d="M556,25h -114" fill="none" stroke="black"/>
<path d="M442,25v 46" fill="none" stroke="black"/>
<text x="447" y="53" fill="black" font-size="14" font-family="Helvetica">
Entries 
</text>
<text x="497" y="53" fill="black" font-size="14" font-family="Helvetica">
 106977
</text>
<text x="253" y="18" fill="black" font-size="18" font-family="Helvetica">
451_D1
</text></svg>
