<?xml version="1.0" standalone="no"?>
<svg width="567" height="385" viewBox="0 0 567 385" xmlns="http://www.w3.org/2000/svg">
<title>
images/analysis_g4bl_tight/455_D5_zoom.svg
</title>
<desc>
Creator: ROOT Version 5.34/05
CreationDate: Wed Jun 12 17:38:44 2013</desc>
<defs>
</defs>
<rect x="0" y="0" width="567" height="385" fill="white"/>
<rect x="57" y="38" width="453" height="308" fill="white"/>
<rect x="57" y="38" width="453" height="308" fill="none" stroke="black"/>
<rect x="57" y="38" width="453" height="308" fill="white"/>
<rect x="57" y="38" width="453" height="308" fill="none" stroke="black"/>
<path d="M57,281h 17v -14h 18v -11h 17v -11h 17v 20h 18v -38h 17v -34h 18v -13h 17v -48h 18v -24h 17v -55h 18v 22h 17v 18h 17v 253h 88v -163h 17v 37h 18v 4h 17v 11h 17v -5h 18v 31h 17v 2h 18v -3h 17" fill="none" stroke="#000099"/>
<rect x="442" y="25" width="114" height="46" fill="white"/>
<path d="M442,71h 114" fill="none" stroke="black"/>
<path d="M556,71v -46" fill="none" stroke="black"/>
<path d="M556,25h -114" fill="none" stroke="black"/>
<path d="M442,25v 46" fill="none" stroke="black"/>
<text x="447" y="52" fill="black" font-size="14" font-family="Helvetica">
Entries 
</text>
<text x="505" y="52" fill="black" font-size="14" font-family="Helvetica">
 32555
</text>
<path d="M57,346h 453" fill="none" stroke="black"/>
<text x="419" y="372" fill="black" font-size="12" font-family="Helvetica">
TDC-TDC0 (ns)
</text>
<path d="M65,337v 9" fill="none" stroke="black"/>
<path d="M76,342v 4" fill="none" stroke="black"/>
<path d="M87,342v 4" fill="none" stroke="black"/>
<path d="M98,342v 4" fill="none" stroke="black"/>
<path d="M109,342v 4" fill="none" stroke="black"/>
<path d="M120,337v 9" fill="none" stroke="black"/>
<path d="M131,342v 4" fill="none" stroke="black"/>
<path d="M142,342v 4" fill="none" stroke="black"/>
<path d="M153,342v 4" fill="none" stroke="black"/>
<path d="M164,342v 4" fill="none" stroke="black"/>
<path d="M174,337v 9" fill="none" stroke="black"/>
<path d="M185,342v 4" fill="none" stroke="black"/>
<path d="M196,342v 4" fill="none" stroke="black"/>
<path d="M207,342v 4" fill="none" stroke="black"/>
<path d="M218,342v 4" fill="none" stroke="black"/>
<path d="M229,337v 9" fill="none" stroke="black"/>
<path d="M240,342v 4" fill="none" stroke="black"/>
<path d="M251,342v 4" fill="none" stroke="black"/>
<path d="M262,342v 4" fill="none" stroke="black"/>
<path d="M273,342v 4" fill="none" stroke="black"/>
<path d="M283,337v 9" fill="none" stroke="black"/>
<path d="M294,342v 4" fill="none" stroke="black"/>
<path d="M305,342v 4" fill="none" stroke="black"/>
<path d="M316,342v 4" fill="none" stroke="black"/>
<path d="M327,342v 4" fill="none" stroke="black"/>
<path d="M338,337v 9" fill="none" stroke="black"/>
<path d="M349,342v 4" fill="none" stroke="black"/>
<path d="M360,342v 4" fill="none" stroke="black"/>
<path d="M371,342v 4" fill="none" stroke="black"/>
<path d="M382,342v 4" fill="none" stroke="black"/>
<path d="M392,337v 9" fill="none" stroke="black"/>
<path d="M403,342v 4" fill="none" stroke="black"/>
<path d="M414,342v 4" fill="none" stroke="black"/>
<path d="M425,342v 4" fill="none" stroke="black"/>
<path d="M436,342v 4" fill="none" stroke="black"/>
<path d="M447,337v 9" fill="none" stroke="black"/>
<path d="M458,342v 4" fill="none" stroke="black"/>
<path d="M469,342v 4" fill="none" stroke="black"/>
<path d="M480,342v 4" fill="none" stroke="black"/>
<path d="M491,342v 4" fill="none" stroke="black"/>
<path d="M502,337v 9" fill="none" stroke="black"/>
<path d="M65,337v 9" fill="none" stroke="black"/>
<path d="M502,337v 9" fill="none" stroke="black"/>
<text x="52" y="359" fill="black" font-size="12" font-family="Helvetica">
-200
</text>
<text x="107" y="359" fill="black" font-size="12" font-family="Helvetica">
-150
</text>
<text x="161" y="359" fill="black" font-size="12" font-family="Helvetica">
-100
</text>
<text x="219" y="359" fill="black" font-size="12" font-family="Helvetica">
-50
</text>
<text x="280" y="359" fill="black" font-size="12" font-family="Helvetica">
0
</text>
<text x="330" y="359" fill="black" font-size="12" font-family="Helvetica">
50
</text>
<text x="381" y="359" fill="black" font-size="12" font-family="Helvetica">
100
</text>
<text x="436" y="359" fill="black" font-size="12" font-family="Helvetica">
150
</text>
<text x="490" y="359" fill="black" font-size="12" font-family="Helvetica">
200
</text>
<path d="M57,346v -308" fill="none" stroke="black"/>
<g transform="rotate(-90,29,72)">
<text x="29" y="72" fill="black" font-size="12" font-family="Helvetica">
Count
</text>
</g>
<path d="M70,346h -13" fill="none" stroke="black"/>
<path d="M63,335h -6" fill="none" stroke="black"/>
<path d="M63,323h -6" fill="none" stroke="black"/>
<path d="M63,311h -6" fill="none" stroke="black"/>
<path d="M63,300h -6" fill="none" stroke="black"/>
<path d="M70,288h -13" fill="none" stroke="black"/>
<path d="M63,276h -6" fill="none" stroke="black"/>
<path d="M63,265h -6" fill="none" stroke="black"/>
<path d="M63,253h -6" fill="none" stroke="black"/>
<path d="M63,241h -6" fill="none" stroke="black"/>
<path d="M70,230h -13" fill="none" stroke="black"/>
<path d="M63,218h -6" fill="none" stroke="black"/>
<path d="M63,206h -6" fill="none" stroke="black"/>
<path d="M63,194h -6" fill="none" stroke="black"/>
<path d="M63,183h -6" fill="none" stroke="black"/>
<path d="M70,171h -13" fill="none" stroke="black"/>
<path d="M63,159h -6" fill="none" stroke="black"/>
<path d="M63,148h -6" fill="none" stroke="black"/>
<path d="M63,136h -6" fill="none" stroke="black"/>
<path d="M63,124h -6" fill="none" stroke="black"/>
<path d="M70,113h -13" fill="none" stroke="black"/>
<path d="M63,101h -6" fill="none" stroke="black"/>
<path d="M63,89h -6" fill="none" stroke="black"/>
<path d="M63,77h -6" fill="none" stroke="black"/>
<path d="M63,66h -6" fill="none" stroke="black"/>
<path d="M70,54h -13" fill="none" stroke="black"/>
<path d="M70,54h -13" fill="none" stroke="black"/>
<path d="M63,42h -6" fill="none" stroke="black"/>
<text x="47" y="350" fill="black" font-size="12" font-family="Helvetica">
0
</text>
<text x="40" y="291" fill="black" font-size="12" font-family="Helvetica">
50
</text>
<text x="33" y="233" fill="black" font-size="12" font-family="Helvetica">
100
</text>
<text x="33" y="175" fill="black" font-size="12" font-family="Helvetica">
150
</text>
<text x="33" y="116" fill="black" font-size="12" font-family="Helvetica">
200
</text>
<text x="33" y="58" fill="black" font-size="12" font-family="Helvetica">
250
</text>
<rect x="442" y="25" width="114" height="46" fill="white"/>
<path d="M442,71h 114" fill="none" stroke="black"/>
<path d="M556,71v -46" fill="none" stroke="black"/>
<path d="M556,25h -114" fill="none" stroke="black"/>
<path d="M442,25v 46" fill="none" stroke="black"/>
<text x="447" y="52" fill="black" font-size="14" font-family="Helvetica">
Entries 
</text>
<text x="505" y="52" fill="black" font-size="14" font-family="Helvetica">
 32555
</text>
<text x="270" y="21" fill="black" font-size="21" font-family="Helvetica">
D5
</text></svg>
