<?xml version="1.0" standalone="no"?>
<svg width="567" height="328" viewBox="0 0 567 328" xmlns="http://www.w3.org/2000/svg">
<title>
images/analysis_g4bl_phase_tight/counts/run_muon_rate_in_cu.svg
</title>
<desc>
Creator: ROOT Version 5.34/05
CreationDate: Mon Jun 17 13:39:06 2013</desc>
<defs>
</defs>
<rect x="0" y="0" width="567" height="328" fill="white"/>
<rect x="57" y="33" width="453" height="262" fill="white"/>
<rect x="57" y="33" width="453" height="262" fill="none" stroke="black"/>
<path d="M283,283v -119" fill="none" stroke="#000099"/>
<path d="M283,164v -119" fill="none" stroke="#000099"/>
<path d="M57,164h 226" fill="none" stroke="#000099"/>
<path d="M283,164h 227" fill="none" stroke="#000099"/>
<g stroke="black" stroke-width="1" fill="none">
<line x1="282" y1="164" x2="283" y2="164"/>
</g>
<path d="M57,295h 453" fill="none" stroke="black"/>
<text x="462" y="317" fill="black" font-size="11" font-family="Helvetica">
Degrader
</text>
<text x="281" y="305" fill="black" font-size="7" font-family="Helvetica">
0
</text>
<path d="M57,287v 8" fill="none" stroke="black"/>
<path d="M510,287v 8" fill="none" stroke="black"/>
<path d="M57,295v -262" fill="none" stroke="black"/>
<g transform="rotate(-90,28,92)">
<text x="28" y="92" fill="black" font-size="11" font-family="Helvetica">
Muon count
</text>
</g>
<path d="M70,279h -13" fill="none" stroke="black"/>
<path d="M63,273h -6" fill="none" stroke="black"/>
<path d="M63,267h -6" fill="none" stroke="black"/>
<path d="M63,261h -6" fill="none" stroke="black"/>
<path d="M63,254h -6" fill="none" stroke="black"/>
<path d="M70,248h -13" fill="none" stroke="black"/>
<path d="M63,242h -6" fill="none" stroke="black"/>
<path d="M63,236h -6" fill="none" stroke="black"/>
<path d="M63,230h -6" fill="none" stroke="black"/>
<path d="M63,224h -6" fill="none" stroke="black"/>
<path d="M70,218h -13" fill="none" stroke="black"/>
<path d="M63,212h -6" fill="none" stroke="black"/>
<path d="M63,206h -6" fill="none" stroke="black"/>
<path d="M63,199h -6" fill="none" stroke="black"/>
<path d="M63,193h -6" fill="none" stroke="black"/>
<path d="M70,187h -13" fill="none" stroke="black"/>
<path d="M63,181h -6" fill="none" stroke="black"/>
<path d="M63,175h -6" fill="none" stroke="black"/>
<path d="M63,169h -6" fill="none" stroke="black"/>
<path d="M63,163h -6" fill="none" stroke="black"/>
<path d="M70,157h -13" fill="none" stroke="black"/>
<path d="M63,151h -6" fill="none" stroke="black"/>
<path d="M63,144h -6" fill="none" stroke="black"/>
<path d="M63,138h -6" fill="none" stroke="black"/>
<path d="M63,132h -6" fill="none" stroke="black"/>
<path d="M70,126h -13" fill="none" stroke="black"/>
<path d="M63,120h -6" fill="none" stroke="black"/>
<path d="M63,114h -6" fill="none" stroke="black"/>
<path d="M63,108h -6" fill="none" stroke="black"/>
<path d="M63,102h -6" fill="none" stroke="black"/>
<path d="M70,96h -13" fill="none" stroke="black"/>
<path d="M63,89h -6" fill="none" stroke="black"/>
<path d="M63,83h -6" fill="none" stroke="black"/>
<path d="M63,77h -6" fill="none" stroke="black"/>
<path d="M63,71h -6" fill="none" stroke="black"/>
<path d="M70,65h -13" fill="none" stroke="black"/>
<path d="M63,59h -6" fill="none" stroke="black"/>
<path d="M63,53h -6" fill="none" stroke="black"/>
<path d="M63,47h -6" fill="none" stroke="black"/>
<path d="M63,41h -6" fill="none" stroke="black"/>
<path d="M70,34h -13" fill="none" stroke="black"/>
<path d="M70,279h -13" fill="none" stroke="black"/>
<path d="M63,285h -6" fill="none" stroke="black"/>
<path d="M63,291h -6" fill="none" stroke="black"/>
<path d="M70,34h -13" fill="none" stroke="black"/>
<text x="22" y="282" fill="black" font-size="11" font-family="Helvetica">
15100
</text>
<text x="22" y="252" fill="black" font-size="11" font-family="Helvetica">
15200
</text>
<text x="22" y="221" fill="black" font-size="11" font-family="Helvetica">
15300
</text>
<text x="22" y="191" fill="black" font-size="11" font-family="Helvetica">
15400
</text>
<text x="22" y="160" fill="black" font-size="11" font-family="Helvetica">
15500
</text>
<text x="22" y="130" fill="black" font-size="11" font-family="Helvetica">
15600
</text>
<text x="22" y="99" fill="black" font-size="11" font-family="Helvetica">
15700
</text>
<text x="22" y="68" fill="black" font-size="11" font-family="Helvetica">
15800
</text>
<text x="22" y="38" fill="black" font-size="11" font-family="Helvetica">
15900
</text>
<text x="158" y="17" fill="black" font-size="17" font-family="Helvetica">
Count of muons decaying in cu
</text>
<rect x="442" y="21" width="114" height="40" fill="white"/>
<path d="M442,61h 114" fill="none" stroke="black"/>
<path d="M556,61v -40" fill="none" stroke="black"/>
<path d="M556,21h -114" fill="none" stroke="black"/>
<path d="M442,21v 40" fill="none" stroke="black"/>
<text x="448" y="46" fill="black" font-size="17" font-family="Helvetica">
Entries 
</text>
<text x="535" y="46" fill="black" font-size="17" font-family="Helvetica">
 1
</text>
<text x="158" y="17" fill="black" font-size="17" font-family="Helvetica">
Count of muons decaying in cu
</text></svg>
