<?xml version="1.0" standalone="no"?>
<svg width="567" height="328" viewBox="0 0 567 328" xmlns="http://www.w3.org/2000/svg">
<title>
images/analysis_g4bl_phase_tight/counts/sim_muon_rate_in_cu.svg
</title>
<desc>
Creator: ROOT Version 5.34/05
CreationDate: Mon Jun 17 13:39:06 2013</desc>
<defs>
</defs>
<rect x="0" y="0" width="567" height="328" fill="white"/>
<rect x="57" y="33" width="453" height="262" fill="white"/>
<rect x="57" y="33" width="453" height="262" fill="none" stroke="black"/>
<path d="M283,283v -119" fill="none" stroke="#000099"/>
<path d="M283,164v -119" fill="none" stroke="#000099"/>
<path d="M57,164h 226" fill="none" stroke="#000099"/>
<path d="M283,164h 227" fill="none" stroke="#000099"/>
<g stroke="black" stroke-width="1" fill="none">
<line x1="282" y1="164" x2="283" y2="164"/>
</g>
<path d="M57,295h 453" fill="none" stroke="black"/>
<text x="462" y="317" fill="black" font-size="11" font-family="Helvetica">
Degrader
</text>
<text x="281" y="305" fill="black" font-size="7" font-family="Helvetica">
0
</text>
<path d="M57,287v 8" fill="none" stroke="black"/>
<path d="M510,287v 8" fill="none" stroke="black"/>
<path d="M57,295v -262" fill="none" stroke="black"/>
<g transform="rotate(-90,28,92)">
<text x="28" y="92" fill="black" font-size="11" font-family="Helvetica">
Muon count
</text>
</g>
<path d="M70,281h -13" fill="none" stroke="black"/>
<path d="M63,275h -6" fill="none" stroke="black"/>
<path d="M63,270h -6" fill="none" stroke="black"/>
<path d="M63,264h -6" fill="none" stroke="black"/>
<path d="M63,258h -6" fill="none" stroke="black"/>
<path d="M70,252h -13" fill="none" stroke="black"/>
<path d="M63,246h -6" fill="none" stroke="black"/>
<path d="M63,240h -6" fill="none" stroke="black"/>
<path d="M63,234h -6" fill="none" stroke="black"/>
<path d="M63,229h -6" fill="none" stroke="black"/>
<path d="M70,223h -13" fill="none" stroke="black"/>
<path d="M63,217h -6" fill="none" stroke="black"/>
<path d="M63,211h -6" fill="none" stroke="black"/>
<path d="M63,205h -6" fill="none" stroke="black"/>
<path d="M63,199h -6" fill="none" stroke="black"/>
<path d="M70,193h -13" fill="none" stroke="black"/>
<path d="M63,188h -6" fill="none" stroke="black"/>
<path d="M63,182h -6" fill="none" stroke="black"/>
<path d="M63,176h -6" fill="none" stroke="black"/>
<path d="M63,170h -6" fill="none" stroke="black"/>
<path d="M70,164h -13" fill="none" stroke="black"/>
<path d="M63,158h -6" fill="none" stroke="black"/>
<path d="M63,152h -6" fill="none" stroke="black"/>
<path d="M63,147h -6" fill="none" stroke="black"/>
<path d="M63,141h -6" fill="none" stroke="black"/>
<path d="M70,135h -13" fill="none" stroke="black"/>
<path d="M63,129h -6" fill="none" stroke="black"/>
<path d="M63,123h -6" fill="none" stroke="black"/>
<path d="M63,117h -6" fill="none" stroke="black"/>
<path d="M63,112h -6" fill="none" stroke="black"/>
<path d="M70,106h -13" fill="none" stroke="black"/>
<path d="M63,100h -6" fill="none" stroke="black"/>
<path d="M63,94h -6" fill="none" stroke="black"/>
<path d="M63,88h -6" fill="none" stroke="black"/>
<path d="M63,82h -6" fill="none" stroke="black"/>
<path d="M70,76h -13" fill="none" stroke="black"/>
<path d="M63,71h -6" fill="none" stroke="black"/>
<path d="M63,65h -6" fill="none" stroke="black"/>
<path d="M63,59h -6" fill="none" stroke="black"/>
<path d="M63,53h -6" fill="none" stroke="black"/>
<path d="M70,47h -13" fill="none" stroke="black"/>
<path d="M70,281h -13" fill="none" stroke="black"/>
<path d="M63,287h -6" fill="none" stroke="black"/>
<path d="M63,293h -6" fill="none" stroke="black"/>
<path d="M70,47h -13" fill="none" stroke="black"/>
<path d="M63,41h -6" fill="none" stroke="black"/>
<path d="M63,35h -6" fill="none" stroke="black"/>
<text x="38" y="284" fill="black" font-size="11" font-family="Helvetica">
-20
</text>
<text x="38" y="256" fill="black" font-size="11" font-family="Helvetica">
-15
</text>
<text x="38" y="226" fill="black" font-size="11" font-family="Helvetica">
-10
</text>
<text x="44" y="197" fill="black" font-size="11" font-family="Helvetica">
-5
</text>
<text x="48" y="168" fill="black" font-size="11" font-family="Helvetica">
0
</text>
<text x="48" y="138" fill="black" font-size="11" font-family="Helvetica">
5
</text>
<text x="41" y="109" fill="black" font-size="11" font-family="Helvetica">
10
</text>
<text x="41" y="80" fill="black" font-size="11" font-family="Helvetica">
15
</text>
<text x="41" y="50" fill="black" font-size="11" font-family="Helvetica">
20
</text>
<text x="118" y="17" fill="black" font-size="17" font-family="Helvetica">
Simulated count of muons decaying in cu
</text>
<rect x="442" y="21" width="114" height="40" fill="white"/>
<path d="M442,61h 114" fill="none" stroke="black"/>
<path d="M556,61v -40" fill="none" stroke="black"/>
<path d="M556,21h -114" fill="none" stroke="black"/>
<path d="M442,21v 40" fill="none" stroke="black"/>
<text x="448" y="46" fill="black" font-size="17" font-family="Helvetica">
Entries 
</text>
<text x="535" y="46" fill="black" font-size="17" font-family="Helvetica">
 1
</text>
<text x="118" y="17" fill="black" font-size="17" font-family="Helvetica">
Simulated count of muons decaying in cu
</text></svg>
