<?xml version="1.0" standalone="no"?>
<svg width="567" height="328" viewBox="0 0 567 328" xmlns="http://www.w3.org/2000/svg">
<title>
images/analysis_g4bl_sin_phase_exec_d4_d5_l_bound50bin_32tight/fits/1mm_Aluminium_1mm_Aluminium_combined_1mm_Aluminium.svg
</title>
<desc>
Creator: ROOT Version 5.34/09
CreationDate: Tue Jan  7 17:34:23 2014</desc>
<defs>
</defs>
<rect x="0" y="0" width="567" height="328" fill="white"/>
<rect x="57" y="33" width="453" height="262" fill="white"/>
<rect x="57" y="33" width="453" height="262" fill="none" stroke="black"/>
<rect x="57" y="33" width="453" height="262" fill="white"/>
<rect x="57" y="33" width="453" height="262" fill="none" stroke="black"/>
<path d="M57,295h 227v -250h 1v 79v -18v 34h 1v -57v 48h 1v 3v -25v 15h 1v -28v 19h 1v -3v 22h 1v -10v 19h 1v -19v 35v -53h 1v 50h 1v -3v 6v -6h 1v -6v 22h 1v 16v -35h 1v 16h 1v 19v -32v 44h 1v -44h 1v 73v -48h 1v 19h 1v 16v -25h 1v 28h 1v 16v -47h
 1v 22h 1v -19v 41h 1v -25v 22v -35h 1v 13v -10v 22h 1v 10v -16h 1v -6v 25v -19h 1v 22v -38h 1v 35v -13v 10h 1v -16v 16h 1v 9h 1v -16v 16v -22h 1v 32v -4h 1v -12v 16h 1v 9v -28h 1v 22v -3v 9h 1v 3v -16v 19h 1v -9v 6h 1v 3v -15h 1v 12h 1v -12v 12h 1v
 -6v 13v -10h 1v 13v -13h 1v 13v -16h 1v 9h 1v 7v -7h 1v 10v -10h 1v -9v 19h 1v -16h 1v 16v -3h 1v -10v 7h 1v 3v -3v 12h 1v -12v 3h 1v -3v 15v -3h 1v -16v 19h 1v -15v 28h 1v -28v 9h 1v -16v 29v -19h 1v 12v -6h 1v -3v 13v -7h 1v -12v 12h 1v -3v 10h 1v
 -4h 1v -6h 1v 10h 1v -10h 1v -6v 12h 1v 7v -3v 6h 1v -6h 1v -7v 16v -22h 1v 16v -10v 10h 1v -10v 16h 1v 3v -22v 10h 1v -4v 10v -10h 1v -6h 1v 22h 1v -9v 9h 1v -9h 1v 6v -6h 1v 9h 1v -6v 6v -3h 1v 3v -16h 1v 7v -7v 13h 1v -6v 6h 1v -3h 1v -10v 13h 1v
 -3h 1v 3v -9h 1v 9h 1v -6v 6h 1v -6v 6v -6h 1v 9v -19h 1v 13h 1v 3v -3h 1v 6v -3v 3h 1v -6h 1v 6h 1v -6v 6v -3h 1v -6v 6h 1v -3h 1v 6v -9v 9h 1v -3h 1v 3v -3h 1v 3v -3h 1v 3h 2v -6v 6h 1v -6v 3h 1v 3h 1v -3h 1v -3v 6h 1v -6v 6v -3h 1v -3v 6h 1v -3h
 1v 3h 1v -3v 3h 2v -3h 1v 3h 1v -3v 3h 4v -3v 3v -3h 1v 3v -3h 1v -3v 6h 1v -6v 6h 1v -3h 1v 3h 1v -3v 3h 1v -3v 3h 1v -6h 1v 6h 1v -3v 3h 1v -3v 3h 1v -6h 1v 6h 1v -3v 3h 1v -3v 3h 1v -6v 6h 3v -6v 6h 4v -3v 3h 1v -3v 3v -3h 1v 3h 1v -3v 3h 7v -3v
 3h 3v -3v 3h 1v -3h 2v 3h 1v -3v 3h 3v -3h 1v 3h 4v -3v 3h 56" fill="none" stroke="#000099"/>
<rect x="442" y="22" width="114" height="39" fill="white"/>
<path d="M442,61h 114" fill="none" stroke="black"/>
<path d="M556,61v -39" fill="none" stroke="black"/>
<path d="M556,22h -114" fill="none" stroke="black"/>
<path d="M442,22v 39" fill="none" stroke="black"/>
<text x="448" y="27" fill="black" font-size="6" font-family="Helvetica">
Entries 
</text>
<text x="536" y="27" fill="black" font-size="6" font-family="Helvetica">
 4448
</text>
<text x="453" y="33" fill="black" font-size="6" font-family="Helvetica">
 / ndf 
</text>
<text x="451" y="31" fill="black" font-size="4" font-family="Helvetica">
2
</text>
<text x="448" y="33" fill="black" font-size="6" font-family="Times">
&#0967;
</text>
<text x="521" y="33" fill="black" font-size="6" font-family="Helvetica">
 375.1 / 619
</text>
<text x="456" y="39" fill="black" font-size="6" font-family="Helvetica">
   
</text>
<text x="452" y="41" fill="black" font-size="4" font-family="Helvetica">
cu
</text>
<text x="448" y="39" fill="black" font-size="6" font-family="Helvetica">
N
</text>
<text x="529" y="40" fill="black" font-size="6" font-family="Helvetica">
 12.0249
</text>
<text x="525" y="40" fill="black" font-size="6" font-family="Times">
&#0177;
</text>
<text x="505" y="40" fill="black" font-size="6" font-family="Helvetica">
 0.8567 
</text>
<text x="454" y="45" fill="black" font-size="6" font-family="Helvetica">
 
</text>
<text x="450" y="47" fill="black" font-size="4" font-family="Helvetica">
cu
</text>
<text x="448" y="45" fill="black" font-size="6" font-family="Times">
&#0964;
</text>
<text x="541" y="47" fill="black" font-size="6" font-family="Helvetica">
 0.4
</text>
<text x="538" y="47" fill="black" font-size="6" font-family="Times">
&#0177;
</text>
<text x="521" y="47" fill="black" font-size="6" font-family="Helvetica">
 162.6 
</text>
<text x="453" y="52" fill="black" font-size="6" font-family="Helvetica">
    
</text>
<text x="452" y="54" fill="black" font-size="4" font-family="Helvetica">
f
</text>
<text x="448" y="52" fill="black" font-size="6" font-family="Helvetica">
N
</text>
<text x="538" y="53" fill="black" font-size="6" font-family="Helvetica">
 1.05
</text>
<text x="534" y="53" fill="black" font-size="6" font-family="Times">
&#0177;
</text>
<text x="517" y="53" fill="black" font-size="6" font-family="Helvetica">
 66.28 
</text>
<text x="451" y="58" fill="black" font-size="6" font-family="Helvetica">
 
</text>
<text x="450" y="60" fill="black" font-size="4" font-family="Helvetica">
f
</text>
<text x="448" y="58" fill="black" font-size="6" font-family="Times">
&#0964;
</text>
<text x="541" y="60" fill="black" font-size="6" font-family="Helvetica">
 0.0
</text>
<text x="538" y="60" fill="black" font-size="6" font-family="Times">
&#0177;
</text>
<text x="521" y="60" fill="black" font-size="6" font-family="Helvetica">
  2197 
</text>
<path d="M284,88v 2" fill="none" stroke="#ff0000" stroke-width="2"/>
<path d="M284,90v 4" fill="none" stroke="#ff0000" stroke-width="2"/>
<path d="M285,94v 3" fill="none" stroke="#ff0000" stroke-width="2"/>
<path d="M285,97v 3" fill="none" stroke="#ff0000" stroke-width="2"/>
<path d="M286,101v 3" fill="none" stroke="#ff0000" stroke-width="2"/>
<path d="M286,104v 3" fill="none" stroke="#ff0000" stroke-width="2"/>
<path d="M286,107v 3" fill="none" stroke="#ff0000" stroke-width="2"/>
<path d="M287,110v 3" fill="none" stroke="#ff0000" stroke-width="2"/>
<path d="M287,113v 3" fill="none" stroke="#ff0000" stroke-width="2"/>
<path d="M288,116v 3" fill="none" stroke="#ff0000" stroke-width="2"/>
<path d="M288,119v 3" fill="none" stroke="#ff0000" stroke-width="2"/>
<path d="M288,122v 2" fill="none" stroke="#ff0000" stroke-width="2"/>
<path d="M289,125v 2" fill="none" stroke="#ff0000" stroke-width="2"/>
<path d="M289,127v 3" fill="none" stroke="#ff0000" stroke-width="2"/>
<path d="M290,130v 2" fill="none" stroke="#ff0000" stroke-width="2"/>
<path d="M290,132v 3" fill="none" stroke="#ff0000" stroke-width="2"/>
<path d="M290,135v 3" fill="none" stroke="#ff0000" stroke-width="2"/>
<path d="M291,138v 2" fill="none" stroke="#ff0000" stroke-width="2"/>
<path d="M291,140v 2" fill="none" stroke="#ff0000" stroke-width="2"/>
<path d="M292,143v 2" fill="none" stroke="#ff0000" stroke-width="2"/>
<path d="M292,145v 2" fill="none" stroke="#ff0000" stroke-width="2"/>
<path d="M292,147v 2" fill="none" stroke="#ff0000" stroke-width="2"/>
<path d="M293,149v 3" fill="none" stroke="#ff0000" stroke-width="2"/>
<path d="M293,152v 2" fill="none" stroke="#ff0000" stroke-width="2"/>
<path d="M293,154v 2" fill="none" stroke="#ff0000" stroke-width="2"/>
<path d="M294,157v 2" fill="none" stroke="#ff0000" stroke-width="2"/>
<path d="M294,159v 2" fill="none" stroke="#ff0000" stroke-width="2"/>
<path d="M295,161v 2" fill="none" stroke="#ff0000" stroke-width="2"/>
<path d="M295,163v 2" fill="none" stroke="#ff0000" stroke-width="2"/>
<path d="M295,165v 2" fill="none" stroke="#ff0000" stroke-width="2"/>
<path d="M296,167v 2" fill="none" stroke="#ff0000" stroke-width="2"/>
<path d="M296,169v 2" fill="none" stroke="#ff0000" stroke-width="2"/>
<path d="M297,171v 2" fill="none" stroke="#ff0000" stroke-width="2"/>
<path d="M297,173v 2" fill="none" stroke="#ff0000" stroke-width="2"/>
<path d="M297,175v 2" fill="none" stroke="#ff0000" stroke-width="2"/>
<path d="M298,177v 2" fill="none" stroke="#ff0000" stroke-width="2"/>
<path d="M298,179v 1" fill="none" stroke="#ff0000" stroke-width="2"/>
<path d="M299,181v 1" fill="none" stroke="#ff0000" stroke-width="2"/>
<path d="M299,182v 2" fill="none" stroke="#ff0000" stroke-width="2"/>
<path d="M299,184v 2" fill="none" stroke="#ff0000" stroke-width="2"/>
<path d="M300,186v 1" fill="none" stroke="#ff0000" stroke-width="2"/>
<path d="M300,187v 2" fill="none" stroke="#ff0000" stroke-width="2"/>
<path d="M301,189v 2" fill="none" stroke="#ff0000" stroke-width="2"/>
<path d="M301,191v 2" fill="none" stroke="#ff0000" stroke-width="2"/>
<path d="M301,193v 1" fill="none" stroke="#ff0000" stroke-width="2"/>
<path d="M302,194v 2" fill="none" stroke="#ff0000" stroke-width="2"/>
<path d="M302,196v 1" fill="none" stroke="#ff0000" stroke-width="2"/>
<path d="M303,197v 2" fill="none" stroke="#ff0000" stroke-width="2"/>
<path d="M303,199v 1" fill="none" stroke="#ff0000" stroke-width="2"/>
<path d="M303,201v 1" fill="none" stroke="#ff0000" stroke-width="2"/>
<path d="M304,202v 1" fill="none" stroke="#ff0000" stroke-width="2"/>
<path d="M304,203v 2" fill="none" stroke="#ff0000" stroke-width="2"/>
<path d="M305,205v 1" fill="none" stroke="#ff0000" stroke-width="2"/>
<path d="M305,206v 2" fill="none" stroke="#ff0000" stroke-width="2"/>
<path d="M305,208v 1" fill="none" stroke="#ff0000" stroke-width="2"/>
<path d="M306,209v 1" fill="none" stroke="#ff0000" stroke-width="2"/>
<path d="M306,210v 2" fill="none" stroke="#ff0000" stroke-width="2"/>
<path d="M307,212v 1" fill="none" stroke="#ff0000" stroke-width="2"/>
<path d="M307,213v 1" fill="none" stroke="#ff0000" stroke-width="2"/>
<path d="M307,214v 2" fill="none" stroke="#ff0000" stroke-width="2"/>
<path d="M308,216v 1" fill="none" stroke="#ff0000" stroke-width="2"/>
<path d="M308,217v 1" fill="none" stroke="#ff0000" stroke-width="2"/>
<path d="M309,218v 1" fill="none" stroke="#ff0000" stroke-width="2"/>
<path d="M309,219v 1" fill="none" stroke="#ff0000" stroke-width="2"/>
<path d="M309,220v 2" fill="none" stroke="#ff0000" stroke-width="2"/>
<path d="M310,222v 1" fill="none" stroke="#ff0000" stroke-width="2"/>
<path d="M310,223v 1" fill="none" stroke="#ff0000" stroke-width="2"/>
<path d="M311,224v 1" fill="none" stroke="#ff0000" stroke-width="2"/>
<path d="M311,225v 1" fill="none" stroke="#ff0000" stroke-width="2"/>
<path d="M311,226v 1" fill="none" stroke="#ff0000" stroke-width="2"/>
<path d="M312,227v 1" fill="none" stroke="#ff0000" stroke-width="2"/>
<path d="M312,228v 1" fill="none" stroke="#ff0000" stroke-width="2"/>
<path d="M312,229v 1" fill="none" stroke="#ff0000" stroke-width="2"/>
<path d="M313,230v 1" fill="none" stroke="#ff0000" stroke-width="2"/>
<path d="M313,231v 1" fill="none" stroke="#ff0000" stroke-width="2"/>
<path d="M314,233" fill="none" stroke="#ff0000" stroke-width="2"/>
<path d="M314,233v 1" fill="none" stroke="#ff0000" stroke-width="2"/>
<path d="M314,235" fill="none" stroke="#ff0000" stroke-width="2"/>
<path d="M315,235v 1" fill="none" stroke="#ff0000" stroke-width="2"/>
<path d="M315,236v 1" fill="none" stroke="#ff0000" stroke-width="2"/>
<path d="M316,237v 1" fill="none" stroke="#ff0000" stroke-width="2"/>
<path d="M316,238v 1" fill="none" stroke="#ff0000" stroke-width="2"/>
<path d="M316,239v 1" fill="none" stroke="#ff0000" stroke-width="2"/>
<path d="M317,240v 1" fill="none" stroke="#ff0000" stroke-width="2"/>
<path d="M317,241v 1" fill="none" stroke="#ff0000" stroke-width="2"/>
<path d="M318,242" fill="none" stroke="#ff0000" stroke-width="2"/>
<path d="M318,242v 1" fill="none" stroke="#ff0000" stroke-width="2"/>
<path d="M318,243v 1" fill="none" stroke="#ff0000" stroke-width="2"/>
<path d="M319,244v 1" fill="none" stroke="#ff0000" stroke-width="2"/>
<path d="M319,245v 1" fill="none" stroke="#ff0000" stroke-width="2"/>
<path d="M320,246" fill="none" stroke="#ff0000" stroke-width="2"/>
<path d="M320,246v 1" fill="none" stroke="#ff0000" stroke-width="2"/>
<path d="M320,247v 1" fill="none" stroke="#ff0000" stroke-width="2"/>
<path d="M321,248v 1" fill="none" stroke="#ff0000" stroke-width="2"/>
<path d="M321,249v 1" fill="none" stroke="#ff0000" stroke-width="2"/>
<path d="M322,250" fill="none" stroke="#ff0000" stroke-width="2"/>
<path d="M322,250v 1" fill="none" stroke="#ff0000" stroke-width="2"/>
<path d="M322,251v 1" fill="none" stroke="#ff0000" stroke-width="2"/>
<path d="M323,252" fill="none" stroke="#ff0000" stroke-width="2"/>
<path d="M323,252v 1" fill="none" stroke="#ff0000" stroke-width="2"/>
<path d="M324,253v 1" fill="none" stroke="#ff0000" stroke-width="2"/>
<path d="M324,254" fill="none" stroke="#ff0000" stroke-width="2"/>
<path d="M324,254v 1" fill="none" stroke="#ff0000" stroke-width="2"/>
<path d="M325,255v 1" fill="none" stroke="#ff0000" stroke-width="2"/>
<path d="M325,256" fill="none" stroke="#ff0000" stroke-width="2"/>
<path d="M326,256v 1" fill="none" stroke="#ff0000" stroke-width="2"/>
<path d="M326,257v 1" fill="none" stroke="#ff0000" stroke-width="2"/>
<path d="M326,258" fill="none" stroke="#ff0000" stroke-width="2"/>
<path d="M327,258v 1" fill="none" stroke="#ff0000" stroke-width="2"/>
<path d="M327,259" fill="none" stroke="#ff0000" stroke-width="2"/>
<path d="M328,259v 1" fill="none" stroke="#ff0000" stroke-width="2"/>
<path d="M328,260" fill="none" stroke="#ff0000" stroke-width="2"/>
<path d="M328,260v 1" fill="none" stroke="#ff0000" stroke-width="2"/>
<path d="M329,261" fill="none" stroke="#ff0000" stroke-width="2"/>
<path d="M329,261v 1" fill="none" stroke="#ff0000" stroke-width="2"/>
<path d="M330,262" fill="none" stroke="#ff0000" stroke-width="2"/>
<path d="M330,262v 1" fill="none" stroke="#ff0000" stroke-width="2"/>
<path d="M330,263" fill="none" stroke="#ff0000" stroke-width="2"/>
<path d="M331,263v 1" fill="none" stroke="#ff0000" stroke-width="2"/>
<path d="M331,264" fill="none" stroke="#ff0000" stroke-width="2"/>
<path d="M331,264v 1" fill="none" stroke="#ff0000" stroke-width="2"/>
<path d="M332,265" fill="none" stroke="#ff0000" stroke-width="2"/>
<path d="M332,265v 1" fill="none" stroke="#ff0000" stroke-width="2"/>
<path d="M333,266" fill="none" stroke="#ff0000" stroke-width="2"/>
<path d="M333,266v 1" fill="none" stroke="#ff0000" stroke-width="2"/>
<path d="M333,267" fill="none" stroke="#ff0000" stroke-width="2"/>
<path d="M334,267" fill="none" stroke="#ff0000" stroke-width="2"/>
<path d="M334,268" fill="none" stroke="#ff0000" stroke-width="2"/>
<path d="M335,268v 1" fill="none" stroke="#ff0000" stroke-width="2"/>
<path d="M335,269" fill="none" stroke="#ff0000" stroke-width="2"/>
<path d="M335,269" fill="none" stroke="#ff0000" stroke-width="2"/>
<path d="M336,269v 1" fill="none" stroke="#ff0000" stroke-width="2"/>
<path d="M336,270" fill="none" stroke="#ff0000" stroke-width="2"/>
<path d="M337,270v 1" fill="none" stroke="#ff0000" stroke-width="2"/>
<path d="M337,271" fill="none" stroke="#ff0000" stroke-width="2"/>
<path d="M337,271" fill="none" stroke="#ff0000" stroke-width="2"/>
<path d="M338,271v 1" fill="none" stroke="#ff0000" stroke-width="2"/>
<path d="M338,272" fill="none" stroke="#ff0000" stroke-width="2"/>
<path d="M339,272z" fill="none" stroke="#ff0000" stroke-width="2"/>
<path d="M339,273z" fill="none" stroke="#ff0000" stroke-width="2"/>
<path d="M339,273" fill="none" stroke="#ff0000" stroke-width="2"/>
<path d="M340,273" fill="none" stroke="#ff0000" stroke-width="2"/>
<path d="M340,273v 1" fill="none" stroke="#ff0000" stroke-width="2"/>
<path d="M341,274" fill="none" stroke="#ff0000" stroke-width="2"/>
<path d="M341,274v 1" fill="none" stroke="#ff0000" stroke-width="2"/>
<path d="M341,275" fill="none" stroke="#ff0000" stroke-width="2"/>
<path d="M342,275z" fill="none" stroke="#ff0000" stroke-width="2"/>
<path d="M342,275" fill="none" stroke="#ff0000" stroke-width="2"/>
<path d="M343,275v 1" fill="none" stroke="#ff0000" stroke-width="2"/>
<path d="M343,276" fill="none" stroke="#ff0000" stroke-width="2"/>
<path d="M343,276z" fill="none" stroke="#ff0000" stroke-width="2"/>
<path d="M344,276v 1" fill="none" stroke="#ff0000" stroke-width="2"/>
<path d="M344,277" fill="none" stroke="#ff0000" stroke-width="2"/>
<path d="M345,277" fill="none" stroke="#ff0000" stroke-width="2"/>
<path d="M345,277z" fill="none" stroke="#ff0000" stroke-width="2"/>
<path d="M345,277v 1" fill="none" stroke="#ff0000" stroke-width="2"/>
<path d="M346,278" fill="none" stroke="#ff0000" stroke-width="2"/>
<path d="M346,278z" fill="none" stroke="#ff0000" stroke-width="2"/>
<path d="M347,278v 1" fill="none" stroke="#ff0000" stroke-width="2"/>
<path d="M347,279" fill="none" stroke="#ff0000" stroke-width="2"/>
<path d="M347,279z" fill="none" stroke="#ff0000" stroke-width="2"/>
<path d="M348,279" fill="none" stroke="#ff0000" stroke-width="2"/>
<path d="M348,279v 1" fill="none" stroke="#ff0000" stroke-width="2"/>
<path d="M349,280z" fill="none" stroke="#ff0000" stroke-width="2"/>
<path d="M349,280" fill="none" stroke="#ff0000" stroke-width="2"/>
<path d="M349,280z" fill="none" stroke="#ff0000" stroke-width="2"/>
<path d="M350,280" fill="none" stroke="#ff0000" stroke-width="2"/>
<path d="M350,280v 1" fill="none" stroke="#ff0000" stroke-width="2"/>
<path d="M350,281z" fill="none" stroke="#ff0000" stroke-width="2"/>
<path d="M351,281" fill="none" stroke="#ff0000" stroke-width="2"/>
<path d="M351,281z" fill="none" stroke="#ff0000" stroke-width="2"/>
<path d="M352,281v 1" fill="none" stroke="#ff0000" stroke-width="2"/>
<path d="M352,282z" fill="none" stroke="#ff0000" stroke-width="2"/>
<path d="M352,282" fill="none" stroke="#ff0000" stroke-width="2"/>
<path d="M353,282z" fill="none" stroke="#ff0000" stroke-width="2"/>
<path d="M353,282" fill="none" stroke="#ff0000" stroke-width="2"/>
<path d="M354,282z" fill="none" stroke="#ff0000" stroke-width="2"/>
<path d="M354,282v 1" fill="none" stroke="#ff0000" stroke-width="2"/>
<path d="M354,283z" fill="none" stroke="#ff0000" stroke-width="2"/>
<path d="M355,283" fill="none" stroke="#ff0000" stroke-width="2"/>
<path d="M355,283z" fill="none" stroke="#ff0000" stroke-width="2"/>
<path d="M356,283v 1" fill="none" stroke="#ff0000" stroke-width="2"/>
<path d="M356,284z" fill="none" stroke="#ff0000" stroke-width="2"/>
<path d="M356,284" fill="none" stroke="#ff0000" stroke-width="2"/>
<path d="M357,284z" fill="none" stroke="#ff0000" stroke-width="2"/>
<path d="M357,284" fill="none" stroke="#ff0000" stroke-width="2"/>
<path d="M358,284z" fill="none" stroke="#ff0000" stroke-width="2"/>
<path d="M358,284z" fill="none" stroke="#ff0000" stroke-width="2"/>
<path d="M358,284v 1" fill="none" stroke="#ff0000" stroke-width="2"/>
<path d="M359,285z" fill="none" stroke="#ff0000" stroke-width="2"/>
<path d="M359,285" fill="none" stroke="#ff0000" stroke-width="2"/>
<path d="M360,285z" fill="none" stroke="#ff0000" stroke-width="2"/>
<path d="M360,285z" fill="none" stroke="#ff0000" stroke-width="2"/>
<path d="M360,285v 1" fill="none" stroke="#ff0000" stroke-width="2"/>
<path d="M361,286z" fill="none" stroke="#ff0000" stroke-width="2"/>
<path d="M361,286" fill="none" stroke="#ff0000" stroke-width="2"/>
<path d="M362,286z" fill="none" stroke="#ff0000" stroke-width="2"/>
<path d="M362,286z" fill="none" stroke="#ff0000" stroke-width="2"/>
<path d="M362,286" fill="none" stroke="#ff0000" stroke-width="2"/>
<path d="M363,286z" fill="none" stroke="#ff0000" stroke-width="2"/>
<path d="M363,286z" fill="none" stroke="#ff0000" stroke-width="2"/>
<path d="M364,286v 1" fill="none" stroke="#ff0000" stroke-width="2"/>
<path d="M364,287z" fill="none" stroke="#ff0000" stroke-width="2"/>
<path d="M364,287z" fill="none" stroke="#ff0000" stroke-width="2"/>
<path d="M365,287" fill="none" stroke="#ff0000" stroke-width="2"/>
<path d="M365,287z" fill="none" stroke="#ff0000" stroke-width="2"/>
<path d="M366,287z" fill="none" stroke="#ff0000" stroke-width="2"/>
<path d="M366,287v 1" fill="none" stroke="#ff0000" stroke-width="2"/>
<path d="M366,288z" fill="none" stroke="#ff0000" stroke-width="2"/>
<path d="M367,288z" fill="none" stroke="#ff0000" stroke-width="2"/>
<path d="M367,288z" fill="none" stroke="#ff0000" stroke-width="2"/>
<path d="M368,288" fill="none" stroke="#ff0000" stroke-width="2"/>
<path d="M368,288z" fill="none" stroke="#ff0000" stroke-width="2"/>
<path d="M368,288z" fill="none" stroke="#ff0000" stroke-width="2"/>
<path d="M369,288" fill="none" stroke="#ff0000" stroke-width="2"/>
<path d="M369,288z" fill="none" stroke="#ff0000" stroke-width="2"/>
<path d="M369,288z" fill="none" stroke="#ff0000" stroke-width="2"/>
<path d="M370,288z" fill="none" stroke="#ff0000" stroke-width="2"/>
<path d="M370,288v 1" fill="none" stroke="#ff0000" stroke-width="2"/>
<path d="M371,289z" fill="none" stroke="#ff0000" stroke-width="2"/>
<path d="M371,289z" fill="none" stroke="#ff0000" stroke-width="2"/>
<path d="M371,289z" fill="none" stroke="#ff0000" stroke-width="2"/>
<path d="M372,289" fill="none" stroke="#ff0000" stroke-width="2"/>
<path d="M372,289z" fill="none" stroke="#ff0000" stroke-width="2"/>
<path d="M373,289z" fill="none" stroke="#ff0000" stroke-width="2"/>
<path d="M373,289z" fill="none" stroke="#ff0000" stroke-width="2"/>
<path d="M373,289v 1" fill="none" stroke="#ff0000" stroke-width="2"/>
<path d="M374,290z" fill="none" stroke="#ff0000" stroke-width="2"/>
<path d="M374,290z" fill="none" stroke="#ff0000" stroke-width="2"/>
<path d="M375,290z" fill="none" stroke="#ff0000" stroke-width="2"/>
<path d="M375,290z" fill="none" stroke="#ff0000" stroke-width="2"/>
<path d="M375,290" fill="none" stroke="#ff0000" stroke-width="2"/>
<path d="M376,290z" fill="none" stroke="#ff0000" stroke-width="2"/>
<path d="M376,290z" fill="none" stroke="#ff0000" stroke-width="2"/>
<path d="M377,290z" fill="none" stroke="#ff0000" stroke-width="2"/>
<path d="M377,290z" fill="none" stroke="#ff0000" stroke-width="2"/>
<path d="M377,290" fill="none" stroke="#ff0000" stroke-width="2"/>
<path d="M378,290z" fill="none" stroke="#ff0000" stroke-width="2"/>
<path d="M378,290z" fill="none" stroke="#ff0000" stroke-width="2"/>
<path d="M379,290z" fill="none" stroke="#ff0000" stroke-width="2"/>
<path d="M379,290z" fill="none" stroke="#ff0000" stroke-width="2"/>
<path d="M379,290v 1" fill="none" stroke="#ff0000" stroke-width="2"/>
<path d="M380,291z" fill="none" stroke="#ff0000" stroke-width="2"/>
<path d="M380,291z" fill="none" stroke="#ff0000" stroke-width="2"/>
<path d="M381,291z" fill="none" stroke="#ff0000" stroke-width="2"/>
<path d="M381,291z" fill="none" stroke="#ff0000" stroke-width="2"/>
<path d="M381,291z" fill="none" stroke="#ff0000" stroke-width="2"/>
<path d="M382,291" fill="none" stroke="#ff0000" stroke-width="2"/>
<path d="M382,291z" fill="none" stroke="#ff0000" stroke-width="2"/>
<path d="M383,291z" fill="none" stroke="#ff0000" stroke-width="2"/>
<path d="M383,291z" fill="none" stroke="#ff0000" stroke-width="2"/>
<path d="M383,291z" fill="none" stroke="#ff0000" stroke-width="2"/>
<path d="M384,291z" fill="none" stroke="#ff0000" stroke-width="2"/>
<path d="M384,291v 1" fill="none" stroke="#ff0000" stroke-width="2"/>
<path d="M385,292z" fill="none" stroke="#ff0000" stroke-width="2"/>
<path d="M385,292z" fill="none" stroke="#ff0000" stroke-width="2"/>
<path d="M385,292z" fill="none" stroke="#ff0000" stroke-width="2"/>
<path d="M386,292z" fill="none" stroke="#ff0000" stroke-width="2"/>
<path d="M386,292z" fill="none" stroke="#ff0000" stroke-width="2"/>
<path d="M387,292z" fill="none" stroke="#ff0000" stroke-width="2"/>
<path d="M387,292z" fill="none" stroke="#ff0000" stroke-width="2"/>
<path d="M387,292" fill="none" stroke="#ff0000" stroke-width="2"/>
<path d="M388,292z" fill="none" stroke="#ff0000" stroke-width="2"/>
<path d="M388,292z" fill="none" stroke="#ff0000" stroke-width="2"/>
<path d="M388,292z" fill="none" stroke="#ff0000" stroke-width="2"/>
<path d="M389,292z" fill="none" stroke="#ff0000" stroke-width="2"/>
<path d="M389,292z" fill="none" stroke="#ff0000" stroke-width="2"/>
<path d="M390,292z" fill="none" stroke="#ff0000" stroke-width="2"/>
<path d="M390,292z" fill="none" stroke="#ff0000" stroke-width="2"/>
<path d="M390,292" fill="none" stroke="#ff0000" stroke-width="2"/>
<path d="M391,292z" fill="none" stroke="#ff0000" stroke-width="2"/>
<path d="M391,292z" fill="none" stroke="#ff0000" stroke-width="2"/>
<path d="M392,292z" fill="none" stroke="#ff0000" stroke-width="2"/>
<path d="M392,292z" fill="none" stroke="#ff0000" stroke-width="2"/>
<path d="M392,292z" fill="none" stroke="#ff0000" stroke-width="2"/>
<path d="M393,292z" fill="none" stroke="#ff0000" stroke-width="2"/>
<path d="M393,292z" fill="none" stroke="#ff0000" stroke-width="2"/>
<path d="M394,292z" fill="none" stroke="#ff0000" stroke-width="2"/>
<path d="M394,292v 1" fill="none" stroke="#ff0000" stroke-width="2"/>
<path d="M394,293z" fill="none" stroke="#ff0000" stroke-width="2"/>
<path d="M395,293z" fill="none" stroke="#ff0000" stroke-width="2"/>
<path d="M395,293z" fill="none" stroke="#ff0000" stroke-width="2"/>
<path d="M396,293z" fill="none" stroke="#ff0000" stroke-width="2"/>
<path d="M396,293z" fill="none" stroke="#ff0000" stroke-width="2"/>
<path d="M396,293z" fill="none" stroke="#ff0000" stroke-width="2"/>
<path d="M397,293z" fill="none" stroke="#ff0000" stroke-width="2"/>
<path d="M397,293z" fill="none" stroke="#ff0000" stroke-width="2"/>
<path d="M398,293z" fill="none" stroke="#ff0000" stroke-width="2"/>
<path d="M398,293z" fill="none" stroke="#ff0000" stroke-width="2"/>
<path d="M398,293" fill="none" stroke="#ff0000" stroke-width="2"/>
<path d="M399,293z" fill="none" stroke="#ff0000" stroke-width="2"/>
<path d="M399,293z" fill="none" stroke="#ff0000" stroke-width="2"/>
<path d="M400,293z" fill="none" stroke="#ff0000" stroke-width="2"/>
<path d="M400,293z" fill="none" stroke="#ff0000" stroke-width="2"/>
<path d="M400,293z" fill="none" stroke="#ff0000" stroke-width="2"/>
<path d="M401,293z" fill="none" stroke="#ff0000" stroke-width="2"/>
<path d="M401,293z" fill="none" stroke="#ff0000" stroke-width="2"/>
<path d="M402,293z" fill="none" stroke="#ff0000" stroke-width="2"/>
<path d="M402,293z" fill="none" stroke="#ff0000" stroke-width="2"/>
<path d="M402,293z" fill="none" stroke="#ff0000" stroke-width="2"/>
<path d="M403,293z" fill="none" stroke="#ff0000" stroke-width="2"/>
<path d="M403,293z" fill="none" stroke="#ff0000" stroke-width="2"/>
<path d="M404,293z" fill="none" stroke="#ff0000" stroke-width="2"/>
<path d="M404,293v 1" fill="none" stroke="#ff0000" stroke-width="2"/>
<path d="M404,294z" fill="none" stroke="#ff0000" stroke-width="2"/>
<path d="M405,294z" fill="none" stroke="#ff0000" stroke-width="2"/>
<path d="M405,294z" fill="none" stroke="#ff0000" stroke-width="2"/>
<path d="M406,294z" fill="none" stroke="#ff0000" stroke-width="2"/>
<path d="M406,294z" fill="none" stroke="#ff0000" stroke-width="2"/>
<path d="M406,294z" fill="none" stroke="#ff0000" stroke-width="2"/>
<path d="M407,294z" fill="none" stroke="#ff0000" stroke-width="2"/>
<path d="M407,294z" fill="none" stroke="#ff0000" stroke-width="2"/>
<path d="M408,294z" fill="none" stroke="#ff0000" stroke-width="2"/>
<path d="M408,294z" fill="none" stroke="#ff0000" stroke-width="2"/>
<path d="M408,294z" fill="none" stroke="#ff0000" stroke-width="2"/>
<path d="M409,294z" fill="none" stroke="#ff0000" stroke-width="2"/>
<path d="M409,294z" fill="none" stroke="#ff0000" stroke-width="2"/>
<path d="M409,294z" fill="none" stroke="#ff0000" stroke-width="2"/>
<path d="M410,294z" fill="none" stroke="#ff0000" stroke-width="2"/>
<path d="M410,294z" fill="none" stroke="#ff0000" stroke-width="2"/>
<path d="M411,294" fill="none" stroke="#ff0000" stroke-width="2"/>
<path d="M411,294z" fill="none" stroke="#ff0000" stroke-width="2"/>
<path d="M411,294z" fill="none" stroke="#ff0000" stroke-width="2"/>
<path d="M412,294z" fill="none" stroke="#ff0000" stroke-width="2"/>
<path d="M412,294z" fill="none" stroke="#ff0000" stroke-width="2"/>
<path d="M413,294z" fill="none" stroke="#ff0000" stroke-width="2"/>
<path d="M413,294z" fill="none" stroke="#ff0000" stroke-width="2"/>
<path d="M413,294z" fill="none" stroke="#ff0000" stroke-width="2"/>
<path d="M414,294z" fill="none" stroke="#ff0000" stroke-width="2"/>
<path d="M414,294z" fill="none" stroke="#ff0000" stroke-width="2"/>
<path d="M415,294z" fill="none" stroke="#ff0000" stroke-width="2"/>
<path d="M415,294z" fill="none" stroke="#ff0000" stroke-width="2"/>
<path d="M415,294z" fill="none" stroke="#ff0000" stroke-width="2"/>
<path d="M416,294z" fill="none" stroke="#ff0000" stroke-width="2"/>
<path d="M416,294z" fill="none" stroke="#ff0000" stroke-width="2"/>
<path d="M417,294z" fill="none" stroke="#ff0000" stroke-width="2"/>
<path d="M417,294z" fill="none" stroke="#ff0000" stroke-width="2"/>
<path d="M417,294z" fill="none" stroke="#ff0000" stroke-width="2"/>
<path d="M418,294z" fill="none" stroke="#ff0000" stroke-width="2"/>
<path d="M418,294z" fill="none" stroke="#ff0000" stroke-width="2"/>
<path d="M419,294z" fill="none" stroke="#ff0000" stroke-width="2"/>
<path d="M419,294z" fill="none" stroke="#ff0000" stroke-width="2"/>
<path d="M419,294z" fill="none" stroke="#ff0000" stroke-width="2"/>
<path d="M420,294z" fill="none" stroke="#ff0000" stroke-width="2"/>
<path d="M420,294z" fill="none" stroke="#ff0000" stroke-width="2"/>
<path d="M421,294z" fill="none" stroke="#ff0000" stroke-width="2"/>
<path d="M421,294z" fill="none" stroke="#ff0000" stroke-width="2"/>
<path d="M421,294z" fill="none" stroke="#ff0000" stroke-width="2"/>
<path d="M422,294z" fill="none" stroke="#ff0000" stroke-width="2"/>
<path d="M422,294z" fill="none" stroke="#ff0000" stroke-width="2"/>
<path d="M423,294z" fill="none" stroke="#ff0000" stroke-width="2"/>
<path d="M423,294z" fill="none" stroke="#ff0000" stroke-width="2"/>
<path d="M423,294z" fill="none" stroke="#ff0000" stroke-width="2"/>
<path d="M424,294z" fill="none" stroke="#ff0000" stroke-width="2"/>
<path d="M424,294z" fill="none" stroke="#ff0000" stroke-width="2"/>
<path d="M425,294z" fill="none" stroke="#ff0000" stroke-width="2"/>
<path d="M425,294z" fill="none" stroke="#ff0000" stroke-width="2"/>
<path d="M425,294z" fill="none" stroke="#ff0000" stroke-width="2"/>
<path d="M426,294z" fill="none" stroke="#ff0000" stroke-width="2"/>
<path d="M426,294z" fill="none" stroke="#ff0000" stroke-width="2"/>
<path d="M427,294z" fill="none" stroke="#ff0000" stroke-width="2"/>
<path d="M427,294z" fill="none" stroke="#ff0000" stroke-width="2"/>
<path d="M427,294z" fill="none" stroke="#ff0000" stroke-width="2"/>
<path d="M428,294z" fill="none" stroke="#ff0000" stroke-width="2"/>
<path d="M428,294z" fill="none" stroke="#ff0000" stroke-width="2"/>
<path d="M428,294z" fill="none" stroke="#ff0000" stroke-width="2"/>
<path d="M429,294z" fill="none" stroke="#ff0000" stroke-width="2"/>
<path d="M429,294z" fill="none" stroke="#ff0000" stroke-width="2"/>
<path d="M430,294z" fill="none" stroke="#ff0000" stroke-width="2"/>
<path d="M430,294z" fill="none" stroke="#ff0000" stroke-width="2"/>
<path d="M430,294z" fill="none" stroke="#ff0000" stroke-width="2"/>
<path d="M431,294z" fill="none" stroke="#ff0000" stroke-width="2"/>
<path d="M431,294z" fill="none" stroke="#ff0000" stroke-width="2"/>
<path d="M432,294z" fill="none" stroke="#ff0000" stroke-width="2"/>
<path d="M432,294z" fill="none" stroke="#ff0000" stroke-width="2"/>
<path d="M432,294z" fill="none" stroke="#ff0000" stroke-width="2"/>
<path d="M433,294z" fill="none" stroke="#ff0000" stroke-width="2"/>
<path d="M433,294z" fill="none" stroke="#ff0000" stroke-width="2"/>
<path d="M434,294z" fill="none" stroke="#ff0000" stroke-width="2"/>
<path d="M434,294z" fill="none" stroke="#ff0000" stroke-width="2"/>
<path d="M434,294z" fill="none" stroke="#ff0000" stroke-width="2"/>
<path d="M435,294z" fill="none" stroke="#ff0000" stroke-width="2"/>
<path d="M435,294v 1" fill="none" stroke="#ff0000" stroke-width="2"/>
<path d="M436,295z" fill="none" stroke="#ff0000" stroke-width="2"/>
<path d="M436,295z" fill="none" stroke="#ff0000" stroke-width="2"/>
<path d="M436,295z" fill="none" stroke="#ff0000" stroke-width="2"/>
<path d="M437,295z" fill="none" stroke="#ff0000" stroke-width="2"/>
<path d="M437,295z" fill="none" stroke="#ff0000" stroke-width="2"/>
<path d="M438,295z" fill="none" stroke="#ff0000" stroke-width="2"/>
<path d="M438,295z" fill="none" stroke="#ff0000" stroke-width="2"/>
<path d="M438,295z" fill="none" stroke="#ff0000" stroke-width="2"/>
<path d="M439,295z" fill="none" stroke="#ff0000" stroke-width="2"/>
<path d="M439,295z" fill="none" stroke="#ff0000" stroke-width="2"/>
<path d="M440,295z" fill="none" stroke="#ff0000" stroke-width="2"/>
<path d="M440,295z" fill="none" stroke="#ff0000" stroke-width="2"/>
<path d="M440,295z" fill="none" stroke="#ff0000" stroke-width="2"/>
<path d="M441,295z" fill="none" stroke="#ff0000" stroke-width="2"/>
<path d="M441,295z" fill="none" stroke="#ff0000" stroke-width="2"/>
<path d="M442,295z" fill="none" stroke="#ff0000" stroke-width="2"/>
<path d="M442,295z" fill="none" stroke="#ff0000" stroke-width="2"/>
<path d="M442,295z" fill="none" stroke="#ff0000" stroke-width="2"/>
<path d="M443,295z" fill="none" stroke="#ff0000" stroke-width="2"/>
<path d="M443,295z" fill="none" stroke="#ff0000" stroke-width="2"/>
<path d="M444,295z" fill="none" stroke="#ff0000" stroke-width="2"/>
<path d="M444,295z" fill="none" stroke="#ff0000" stroke-width="2"/>
<path d="M444,295z" fill="none" stroke="#ff0000" stroke-width="2"/>
<path d="M445,295z" fill="none" stroke="#ff0000" stroke-width="2"/>
<path d="M445,295z" fill="none" stroke="#ff0000" stroke-width="2"/>
<path d="M446,295z" fill="none" stroke="#ff0000" stroke-width="2"/>
<path d="M446,295z" fill="none" stroke="#ff0000" stroke-width="2"/>
<path d="M446,295z" fill="none" stroke="#ff0000" stroke-width="2"/>
<path d="M447,295z" fill="none" stroke="#ff0000" stroke-width="2"/>
<path d="M447,295z" fill="none" stroke="#ff0000" stroke-width="2"/>
<path d="M447,295z" fill="none" stroke="#ff0000" stroke-width="2"/>
<path d="M448,295z" fill="none" stroke="#ff0000" stroke-width="2"/>
<path d="M448,295z" fill="none" stroke="#ff0000" stroke-width="2"/>
<path d="M449,295z" fill="none" stroke="#ff0000" stroke-width="2"/>
<path d="M449,295z" fill="none" stroke="#ff0000" stroke-width="2"/>
<path d="M449,295z" fill="none" stroke="#ff0000" stroke-width="2"/>
<path d="M450,295z" fill="none" stroke="#ff0000" stroke-width="2"/>
<path d="M450,295z" fill="none" stroke="#ff0000" stroke-width="2"/>
<path d="M451,295z" fill="none" stroke="#ff0000" stroke-width="2"/>
<path d="M451,295z" fill="none" stroke="#ff0000" stroke-width="2"/>
<path d="M451,295z" fill="none" stroke="#ff0000" stroke-width="2"/>
<path d="M452,295z" fill="none" stroke="#ff0000" stroke-width="2"/>
<path d="M452,295z" fill="none" stroke="#ff0000" stroke-width="2"/>
<path d="M453,295z" fill="none" stroke="#ff0000" stroke-width="2"/>
<path d="M453,295z" fill="none" stroke="#ff0000" stroke-width="2"/>
<path d="M453,295z" fill="none" stroke="#ff0000" stroke-width="2"/>
<path d="M454,295z" fill="none" stroke="#ff0000" stroke-width="2"/>
<path d="M454,295z" fill="none" stroke="#ff0000" stroke-width="2"/>
<path d="M455,295z" fill="none" stroke="#ff0000" stroke-width="2"/>
<path d="M455,295z" fill="none" stroke="#ff0000" stroke-width="2"/>
<path d="M455,295z" fill="none" stroke="#ff0000" stroke-width="2"/>
<path d="M456,295z" fill="none" stroke="#ff0000" stroke-width="2"/>
<path d="M456,295z" fill="none" stroke="#ff0000" stroke-width="2"/>
<path d="M457,295z" fill="none" stroke="#ff0000" stroke-width="2"/>
<path d="M457,295z" fill="none" stroke="#ff0000" stroke-width="2"/>
<path d="M457,295z" fill="none" stroke="#ff0000" stroke-width="2"/>
<path d="M458,295z" fill="none" stroke="#ff0000" stroke-width="2"/>
<path d="M458,295z" fill="none" stroke="#ff0000" stroke-width="2"/>
<path d="M459,295z" fill="none" stroke="#ff0000" stroke-width="2"/>
<path d="M459,295z" fill="none" stroke="#ff0000" stroke-width="2"/>
<path d="M459,295z" fill="none" stroke="#ff0000" stroke-width="2"/>
<path d="M460,295z" fill="none" stroke="#ff0000" stroke-width="2"/>
<path d="M460,295z" fill="none" stroke="#ff0000" stroke-width="2"/>
<path d="M461,295z" fill="none" stroke="#ff0000" stroke-width="2"/>
<path d="M461,295z" fill="none" stroke="#ff0000" stroke-width="2"/>
<path d="M461,295z" fill="none" stroke="#ff0000" stroke-width="2"/>
<path d="M462,295z" fill="none" stroke="#ff0000" stroke-width="2"/>
<path d="M462,295z" fill="none" stroke="#ff0000" stroke-width="2"/>
<path d="M463,295z" fill="none" stroke="#ff0000" stroke-width="2"/>
<path d="M463,295z" fill="none" stroke="#ff0000" stroke-width="2"/>
<path d="M463,295z" fill="none" stroke="#ff0000" stroke-width="2"/>
<path d="M464,295z" fill="none" stroke="#ff0000" stroke-width="2"/>
<path d="M464,295z" fill="none" stroke="#ff0000" stroke-width="2"/>
<path d="M465,295z" fill="none" stroke="#ff0000" stroke-width="2"/>
<path d="M465,295z" fill="none" stroke="#ff0000" stroke-width="2"/>
<path d="M465,295z" fill="none" stroke="#ff0000" stroke-width="2"/>
<path d="M466,295z" fill="none" stroke="#ff0000" stroke-width="2"/>
<path d="M466,295z" fill="none" stroke="#ff0000" stroke-width="2"/>
<path d="M466,295z" fill="none" stroke="#ff0000" stroke-width="2"/>
<path d="M467,295z" fill="none" stroke="#ff0000" stroke-width="2"/>
<path d="M467,295z" fill="none" stroke="#ff0000" stroke-width="2"/>
<path d="M468,295z" fill="none" stroke="#ff0000" stroke-width="2"/>
<path d="M468,295z" fill="none" stroke="#ff0000" stroke-width="2"/>
<path d="M468,295z" fill="none" stroke="#ff0000" stroke-width="2"/>
<path d="M469,295z" fill="none" stroke="#ff0000" stroke-width="2"/>
<path d="M469,295z" fill="none" stroke="#ff0000" stroke-width="2"/>
<path d="M470,295z" fill="none" stroke="#ff0000" stroke-width="2"/>
<path d="M470,295z" fill="none" stroke="#ff0000" stroke-width="2"/>
<path d="M470,295z" fill="none" stroke="#ff0000" stroke-width="2"/>
<path d="M471,295z" fill="none" stroke="#ff0000" stroke-width="2"/>
<path d="M471,295z" fill="none" stroke="#ff0000" stroke-width="2"/>
<path d="M472,295z" fill="none" stroke="#ff0000" stroke-width="2"/>
<path d="M472,295z" fill="none" stroke="#ff0000" stroke-width="2"/>
<path d="M472,295z" fill="none" stroke="#ff0000" stroke-width="2"/>
<path d="M473,295z" fill="none" stroke="#ff0000" stroke-width="2"/>
<path d="M473,295z" fill="none" stroke="#ff0000" stroke-width="2"/>
<path d="M474,295z" fill="none" stroke="#ff0000" stroke-width="2"/>
<path d="M474,295z" fill="none" stroke="#ff0000" stroke-width="2"/>
<path d="M474,295z" fill="none" stroke="#ff0000" stroke-width="2"/>
<path d="M475,295z" fill="none" stroke="#ff0000" stroke-width="2"/>
<path d="M475,295z" fill="none" stroke="#ff0000" stroke-width="2"/>
<path d="M476,295z" fill="none" stroke="#ff0000" stroke-width="2"/>
<path d="M476,295z" fill="none" stroke="#ff0000" stroke-width="2"/>
<path d="M476,295z" fill="none" stroke="#ff0000" stroke-width="2"/>
<path d="M477,295z" fill="none" stroke="#ff0000" stroke-width="2"/>
<path d="M477,295z" fill="none" stroke="#ff0000" stroke-width="2"/>
<path d="M478,295z" fill="none" stroke="#ff0000" stroke-width="2"/>
<path d="M478,295z" fill="none" stroke="#ff0000" stroke-width="2"/>
<path d="M478,295z" fill="none" stroke="#ff0000" stroke-width="2"/>
<path d="M479,295z" fill="none" stroke="#ff0000" stroke-width="2"/>
<path d="M479,295z" fill="none" stroke="#ff0000" stroke-width="2"/>
<path d="M480,295z" fill="none" stroke="#ff0000" stroke-width="2"/>
<path d="M284,89v 3l 1, 4v 3l 1, 3v 6l 1, 3v 3l 1, 3v 6l 1, 3v 2l 1, 3v 5l 1, 3v 2l 1, 3v 4l 1, 3v 4l 1, 2v 2l 1, 3v 4l 1, 2v 2l 1, 2v 4l 1, 2v 2l 1, 2v 3l 1, 2v 1l 1, 2v 3l 1, 2v 2l 1, 1v 3l 1, 1v 2l 1, 1v 3l 1, 2v 1l 1, 1v 3l 1, 1v 1l 1, 1v 3l 1,
 1v 1l 1, 1v 3l 1, 1v 2l 1, 1v 1l 1, 1v 2l 1, 1v 1l 1, 1v 1l 1, 1v 1l 1, 1v 2h 1v 1l 1, 1v 2h 1v 1l 1, 1v 1l 1, 1l 1, 1v 1l 1, 1v 1h 1v 2h 1v 1h 1v 1l 1, 1l 1, 1v 1h 1v 2h 1l 1, 1v 1h 1v 1h 1v 1h 1v 1h 1v 1h 1v 1h 1v 1h 1l 1, 1v 1h 2v 1h 1v 1h 1l 1,
 1h 1v 1h 1l 1, 1h 1v 1h 2v 1h 2v 1h 2v 1h 2l 1, 1h 1l 1, 1h 3v 1h 2v 1h 4l 1, 1h 2l 1, 1h 5l 1, 1h 4l 1, 1h 9v 1h 10v 1h 31l 1, 1h 44" fill="none" stroke="#ff0000" stroke-width="2"/>
<path d="M57,295h 453" fill="none" stroke="black"/>
<text x="436" y="317" fill="black" font-size="11" font-family="Helvetica">
TDC-TDC0 (ns)
</text>
<path d="M57,287v 8" fill="none" stroke="black"/>
<path d="M68,291v 4" fill="none" stroke="black"/>
<path d="M79,291v 4" fill="none" stroke="black"/>
<path d="M91,291v 4" fill="none" stroke="black"/>
<path d="M102,291v 4" fill="none" stroke="black"/>
<path d="M113,287v 8" fill="none" stroke="black"/>
<path d="M125,291v 4" fill="none" stroke="black"/>
<path d="M136,291v 4" fill="none" stroke="black"/>
<path d="M147,291v 4" fill="none" stroke="black"/>
<path d="M159,291v 4" fill="none" stroke="black"/>
<path d="M170,287v 8" fill="none" stroke="black"/>
<path d="M181,291v 4" fill="none" stroke="black"/>
<path d="M193,291v 4" fill="none" stroke="black"/>
<path d="M204,291v 4" fill="none" stroke="black"/>
<path d="M215,291v 4" fill="none" stroke="black"/>
<path d="M227,287v 8" fill="none" stroke="black"/>
<path d="M238,291v 4" fill="none" stroke="black"/>
<path d="M249,291v 4" fill="none" stroke="black"/>
<path d="M261,291v 4" fill="none" stroke="black"/>
<path d="M272,291v 4" fill="none" stroke="black"/>
<path d="M283,287v 8" fill="none" stroke="black"/>
<path d="M295,291v 4" fill="none" stroke="black"/>
<path d="M306,291v 4" fill="none" stroke="black"/>
<path d="M317,291v 4" fill="none" stroke="black"/>
<path d="M329,291v 4" fill="none" stroke="black"/>
<path d="M340,287v 8" fill="none" stroke="black"/>
<path d="M351,291v 4" fill="none" stroke="black"/>
<path d="M363,291v 4" fill="none" stroke="black"/>
<path d="M374,291v 4" fill="none" stroke="black"/>
<path d="M386,291v 4" fill="none" stroke="black"/>
<path d="M397,287v 8" fill="none" stroke="black"/>
<path d="M408,291v 4" fill="none" stroke="black"/>
<path d="M420,291v 4" fill="none" stroke="black"/>
<path d="M431,291v 4" fill="none" stroke="black"/>
<path d="M442,291v 4" fill="none" stroke="black"/>
<path d="M454,287v 8" fill="none" stroke="black"/>
<path d="M465,291v 4" fill="none" stroke="black"/>
<path d="M476,291v 4" fill="none" stroke="black"/>
<path d="M488,291v 4" fill="none" stroke="black"/>
<path d="M499,291v 4" fill="none" stroke="black"/>
<path d="M510,287v 8" fill="none" stroke="black"/>
<text x="40" y="306" fill="black" font-size="11" font-family="Helvetica">
-20000
</text>
<text x="97" y="306" fill="black" font-size="11" font-family="Helvetica">
-15000
</text>
<text x="153" y="306" fill="black" font-size="11" font-family="Helvetica">
-10000
</text>
<text x="213" y="306" fill="black" font-size="11" font-family="Helvetica">
-5000
</text>
<text x="281" y="306" fill="black" font-size="11" font-family="Helvetica">
0
</text>
<text x="328" y="306" fill="black" font-size="11" font-family="Helvetica">
5000
</text>
<text x="382" y="306" fill="black" font-size="11" font-family="Helvetica">
10000
</text>
<text x="439" y="306" fill="black" font-size="11" font-family="Helvetica">
15000
</text>
<text x="495" y="306" fill="black" font-size="11" font-family="Helvetica">
20000
</text>
<path d="M57,295v -262" fill="none" stroke="black"/>
<g transform="rotate(-90,29,61)">
<text x="29" y="61" fill="black" font-size="11" font-family="Helvetica">
Count
</text>
</g>
<path d="M70,295h -13" fill="none" stroke="black"/>
<path d="M63,289h -6" fill="none" stroke="black"/>
<path d="M63,283h -6" fill="none" stroke="black"/>
<path d="M63,276h -6" fill="none" stroke="black"/>
<path d="M63,270h -6" fill="none" stroke="black"/>
<path d="M70,264h -13" fill="none" stroke="black"/>
<path d="M63,257h -6" fill="none" stroke="black"/>
<path d="M63,251h -6" fill="none" stroke="black"/>
<path d="M63,245h -6" fill="none" stroke="black"/>
<path d="M63,238h -6" fill="none" stroke="black"/>
<path d="M70,232h -13" fill="none" stroke="black"/>
<path d="M63,226h -6" fill="none" stroke="black"/>
<path d="M63,219h -6" fill="none" stroke="black"/>
<path d="M63,213h -6" fill="none" stroke="black"/>
<path d="M63,207h -6" fill="none" stroke="black"/>
<path d="M70,200h -13" fill="none" stroke="black"/>
<path d="M63,194h -6" fill="none" stroke="black"/>
<path d="M63,188h -6" fill="none" stroke="black"/>
<path d="M63,181h -6" fill="none" stroke="black"/>
<path d="M63,175h -6" fill="none" stroke="black"/>
<path d="M70,169h -13" fill="none" stroke="black"/>
<path d="M63,162h -6" fill="none" stroke="black"/>
<path d="M63,156h -6" fill="none" stroke="black"/>
<path d="M63,150h -6" fill="none" stroke="black"/>
<path d="M63,143h -6" fill="none" stroke="black"/>
<path d="M70,137h -13" fill="none" stroke="black"/>
<path d="M63,131h -6" fill="none" stroke="black"/>
<path d="M63,124h -6" fill="none" stroke="black"/>
<path d="M63,118h -6" fill="none" stroke="black"/>
<path d="M63,112h -6" fill="none" stroke="black"/>
<path d="M70,106h -13" fill="none" stroke="black"/>
<path d="M63,99h -6" fill="none" stroke="black"/>
<path d="M63,93h -6" fill="none" stroke="black"/>
<path d="M63,87h -6" fill="none" stroke="black"/>
<path d="M63,80h -6" fill="none" stroke="black"/>
<path d="M70,74h -13" fill="none" stroke="black"/>
<path d="M63,68h -6" fill="none" stroke="black"/>
<path d="M63,61h -6" fill="none" stroke="black"/>
<path d="M63,55h -6" fill="none" stroke="black"/>
<path d="M63,49h -6" fill="none" stroke="black"/>
<path d="M70,42h -13" fill="none" stroke="black"/>
<path d="M70,42h -13" fill="none" stroke="black"/>
<path d="M63,36h -6" fill="none" stroke="black"/>
<text x="48" y="299" fill="black" font-size="11" font-family="Helvetica">
0
</text>
<text x="42" y="267" fill="black" font-size="11" font-family="Helvetica">
10
</text>
<text x="42" y="236" fill="black" font-size="11" font-family="Helvetica">
20
</text>
<text x="42" y="204" fill="black" font-size="11" font-family="Helvetica">
30
</text>
<text x="42" y="172" fill="black" font-size="11" font-family="Helvetica">
40
</text>
<text x="42" y="141" fill="black" font-size="11" font-family="Helvetica">
50
</text>
<text x="42" y="109" fill="black" font-size="11" font-family="Helvetica">
60
</text>
<text x="42" y="78" fill="black" font-size="11" font-family="Helvetica">
70
</text>
<text x="42" y="46" fill="black" font-size="11" font-family="Helvetica">
80
</text>
<rect x="442" y="22" width="114" height="39" fill="white"/>
<path d="M442,61h 114" fill="none" stroke="black"/>
<path d="M556,61v -39" fill="none" stroke="black"/>
<path d="M556,22h -114" fill="none" stroke="black"/>
<path d="M442,22v 39" fill="none" stroke="black"/>
<text x="448" y="27" fill="black" font-size="6" font-family="Helvetica">
Entries 
</text>
<text x="536" y="27" fill="black" font-size="6" font-family="Helvetica">
 4448
</text>
<text x="453" y="33" fill="black" font-size="6" font-family="Helvetica">
 / ndf 
</text>
<text x="451" y="31" fill="black" font-size="4" font-family="Helvetica">
2
</text>
<text x="448" y="33" fill="black" font-size="6" font-family="Times">
&#0967;
</text>
<text x="521" y="33" fill="black" font-size="6" font-family="Helvetica">
 375.1 / 619
</text>
<text x="456" y="39" fill="black" font-size="6" font-family="Helvetica">
   
</text>
<text x="452" y="41" fill="black" font-size="4" font-family="Helvetica">
cu
</text>
<text x="448" y="39" fill="black" font-size="6" font-family="Helvetica">
N
</text>
<text x="529" y="40" fill="black" font-size="6" font-family="Helvetica">
 12.0249
</text>
<text x="525" y="40" fill="black" font-size="6" font-family="Times">
&#0177;
</text>
<text x="505" y="40" fill="black" font-size="6" font-family="Helvetica">
 0.8567 
</text>
<text x="454" y="45" fill="black" font-size="6" font-family="Helvetica">
 
</text>
<text x="450" y="47" fill="black" font-size="4" font-family="Helvetica">
cu
</text>
<text x="448" y="45" fill="black" font-size="6" font-family="Times">
&#0964;
</text>
<text x="541" y="47" fill="black" font-size="6" font-family="Helvetica">
 0.4
</text>
<text x="538" y="47" fill="black" font-size="6" font-family="Times">
&#0177;
</text>
<text x="521" y="47" fill="black" font-size="6" font-family="Helvetica">
 162.6 
</text>
<text x="453" y="52" fill="black" font-size="6" font-family="Helvetica">
    
</text>
<text x="452" y="54" fill="black" font-size="4" font-family="Helvetica">
f
</text>
<text x="448" y="52" fill="black" font-size="6" font-family="Helvetica">
N
</text>
<text x="538" y="53" fill="black" font-size="6" font-family="Helvetica">
 1.05
</text>
<text x="534" y="53" fill="black" font-size="6" font-family="Times">
&#0177;
</text>
<text x="517" y="53" fill="black" font-size="6" font-family="Helvetica">
 66.28 
</text>
<text x="451" y="58" fill="black" font-size="6" font-family="Helvetica">
 
</text>
<text x="450" y="60" fill="black" font-size="4" font-family="Helvetica">
f
</text>
<text x="448" y="58" fill="black" font-size="6" font-family="Times">
&#0964;
</text>
<text x="541" y="60" fill="black" font-size="6" font-family="Helvetica">
 0.0
</text>
<text x="538" y="60" fill="black" font-size="6" font-family="Times">
&#0177;
</text>
<text x="521" y="60" fill="black" font-size="6" font-family="Helvetica">
  2197 
</text>
<text x="127" y="16" fill="black" font-size="15" font-family="Helvetica">
1mm_Aluminium_combined_1mm_Aluminium
</text></svg>
