<?xml version="1.0" standalone="no"?>
<svg width="567" height="328" viewBox="0 0 567 328" xmlns="http://www.w3.org/2000/svg">
<title>
images/analysis_g4bl_sin_phase_exec_d4_d5_l_bound50bin_32tight/fits/5mm_Aluminium_5mm_Aluminium_combined_5mm_Aluminium.svg
</title>
<desc>
Creator: ROOT Version 5.34/09
CreationDate: Tue Jan  7 17:34:24 2014</desc>
<defs>
</defs>
<rect x="0" y="0" width="567" height="328" fill="white"/>
<rect x="57" y="33" width="453" height="262" fill="white"/>
<rect x="57" y="33" width="453" height="262" fill="none" stroke="black"/>
<rect x="57" y="33" width="453" height="262" fill="white"/>
<rect x="57" y="33" width="453" height="262" fill="none" stroke="black"/>
<path d="M57,295h 227v -208h 1v 5v -21h 1v 84v -78h 1v -32v 73h 1v -36v 26h 1v -21v 57v -47h 1v 47h 1v -47h 1v 68v -68h 1v 73h 1v -73v 58h 1v -84v 79h 1v 52h 1v -68v 57h 1v 5v -20v 5h 1v -31h 1v 41h 1v -41v 67h 1v -83v 83h 1v 5v -36v 5h 1v 26v -41h
 1v 36v -5h 1v 21v -58v 42h 1v -10v 20v -5h 1v 11v -6h 1v -20v 31v -11h 1v -41v 62v -26h 1v 21v -42h 1v -10v 62v -36h 1v 31h 1v -26v 16h 1v -16v 21h 1v -21v 21v -52h 1v 62v -57h 1v 47v -42h 1v 63v -31h 1v -26v 41h 1v 16v -11h 1v -10v 36v -41h 1v 15v
 -10h 1v 42h 1v -37h 1v -15v 46h 1v -15h 1v -5v 10v -5h 1v -26h 1v 26v -5v 15h 1v -41v 41h 1v 5v -20v 5h 1v -31v 36h 1v -16v 32h 1v -26h 1v 36v -26v 16h 1v -32v 6h 1v 20v -31v 31h 1v -15v 26v -16h 1v 21v -47v 11h 1v 10h 1v 21v -16h 1v 16v -11h 1v 16v
 -36v 36h 1v -36v 20h 1v -5v 11v -11h 1v 21v -26h 1v 16v -6v 6h 1v 5v -5h 1v 10v -26v 10h 1v 11v -37h 1v 47v -10h 1v -31v 26h 1v 5h 1v -11v 11v -5h 1v 15v -10v 10h 1v -26v 5h 1v 16h 1v -5h 1v 5v -10v 10h 1v 5v -10h 1v 5h 1v -5h 1v 5v -5h 1v 10v -15h
 1v 15h 1v -15v 10h 2v -10v 15h 1v -5v 5h 1v -5v 5h 1v -15h 1v 15v -5h 1v 5v -5h 1v 5h 1v -10v 10v -5h 3v 5h 1v -15v 15h 1v -5v 5h 2v -15v 15v -5h 1v -5v 10h 1v -10v 5h 2v 5v -10h 1v 10v -5h 1v 5v -5h 1v 5v -10h 1v 10v -5v 5h 1v -10h 1v 10h 1v -5v 5h
 3v -5v 5h 1v -5h 1v 5h 3v -5v 5v -10h 1v 10h 6v -5h 1v 5h 2v -5h 1v 5v -5v 5h 3v -5h 1v 5h 3v -5v 5h 1v -10h 1v 10h 1v -5v 5h 1v -5v 5h 7v -10h 1v 10h 3v -5v 5h 2v -5v 5h 3v -5v 5h 24v -5h 1v 5h 27v -5v 5h 16v -5h 1v 5h 1" fill="none"
 stroke="#000099"/>
<rect x="442" y="22" width="114" height="39" fill="white"/>
<path d="M442,61h 114" fill="none" stroke="black"/>
<path d="M556,61v -39" fill="none" stroke="black"/>
<path d="M556,22h -114" fill="none" stroke="black"/>
<path d="M442,22v 39" fill="none" stroke="black"/>
<text x="448" y="27" fill="black" font-size="6" font-family="Helvetica">
Entries 
</text>
<text x="536" y="27" fill="black" font-size="6" font-family="Helvetica">
 3039
</text>
<text x="453" y="33" fill="black" font-size="6" font-family="Helvetica">
 / ndf 
</text>
<text x="451" y="31" fill="black" font-size="4" font-family="Helvetica">
2
</text>
<text x="448" y="33" fill="black" font-size="6" font-family="Times">
&#0967;
</text>
<text x="521" y="33" fill="black" font-size="6" font-family="Helvetica">
 376.2 / 619
</text>
<text x="456" y="39" fill="black" font-size="6" font-family="Helvetica">
   
</text>
<text x="452" y="41" fill="black" font-size="4" font-family="Helvetica">
cu
</text>
<text x="448" y="39" fill="black" font-size="6" font-family="Helvetica">
N
</text>
<text x="522" y="40" fill="black" font-size="6" font-family="Helvetica">
 4.413e+00
</text>
<text x="519" y="40" fill="black" font-size="6" font-family="Times">
&#0177;
</text>
<text x="491" y="40" fill="black" font-size="6" font-family="Helvetica">
 4.023e-12 
</text>
<text x="454" y="45" fill="black" font-size="6" font-family="Helvetica">
 
</text>
<text x="450" y="47" fill="black" font-size="4" font-family="Helvetica">
cu
</text>
<text x="448" y="45" fill="black" font-size="6" font-family="Times">
&#0964;
</text>
<text x="542" y="47" fill="black" font-size="6" font-family="Helvetica">
 1.1
</text>
<text x="538" y="47" fill="black" font-size="6" font-family="Times">
&#0177;
</text>
<text x="521" y="47" fill="black" font-size="6" font-family="Helvetica">
 162.8 
</text>
<text x="453" y="52" fill="black" font-size="6" font-family="Helvetica">
    
</text>
<text x="452" y="54" fill="black" font-size="4" font-family="Helvetica">
f
</text>
<text x="448" y="52" fill="black" font-size="6" font-family="Helvetica">
N
</text>
<text x="541" y="53" fill="black" font-size="6" font-family="Helvetica">
 0.8
</text>
<text x="538" y="53" fill="black" font-size="6" font-family="Times">
&#0177;
</text>
<text x="522" y="53" fill="black" font-size="6" font-family="Helvetica">
  45.2 
</text>
<text x="451" y="58" fill="black" font-size="6" font-family="Helvetica">
 
</text>
<text x="450" y="60" fill="black" font-size="4" font-family="Helvetica">
f
</text>
<text x="448" y="58" fill="black" font-size="6" font-family="Times">
&#0964;
</text>
<text x="541" y="60" fill="black" font-size="6" font-family="Helvetica">
 0.0
</text>
<text x="538" y="60" fill="black" font-size="6" font-family="Times">
&#0177;
</text>
<text x="521" y="60" fill="black" font-size="6" font-family="Helvetica">
  2197 
</text>
<path d="M284,65v 2" fill="none" stroke="#ff0000" stroke-width="2"/>
<path d="M284,67v 4" fill="none" stroke="#ff0000" stroke-width="2"/>
<path d="M285,71v 3" fill="none" stroke="#ff0000" stroke-width="2"/>
<path d="M285,74v 4" fill="none" stroke="#ff0000" stroke-width="2"/>
<path d="M286,78v 3" fill="none" stroke="#ff0000" stroke-width="2"/>
<path d="M286,81v 4" fill="none" stroke="#ff0000" stroke-width="2"/>
<path d="M286,85v 3" fill="none" stroke="#ff0000" stroke-width="2"/>
<path d="M287,88v 3" fill="none" stroke="#ff0000" stroke-width="2"/>
<path d="M287,91v 3" fill="none" stroke="#ff0000" stroke-width="2"/>
<path d="M288,94v 3" fill="none" stroke="#ff0000" stroke-width="2"/>
<path d="M288,98v 3" fill="none" stroke="#ff0000" stroke-width="2"/>
<path d="M288,101v 3" fill="none" stroke="#ff0000" stroke-width="2"/>
<path d="M289,104v 3" fill="none" stroke="#ff0000" stroke-width="2"/>
<path d="M289,107v 2" fill="none" stroke="#ff0000" stroke-width="2"/>
<path d="M290,110v 3" fill="none" stroke="#ff0000" stroke-width="2"/>
<path d="M290,113v 2" fill="none" stroke="#ff0000" stroke-width="2"/>
<path d="M290,115v 3" fill="none" stroke="#ff0000" stroke-width="2"/>
<path d="M291,119v 2" fill="none" stroke="#ff0000" stroke-width="2"/>
<path d="M291,121v 3" fill="none" stroke="#ff0000" stroke-width="2"/>
<path d="M292,124v 2" fill="none" stroke="#ff0000" stroke-width="2"/>
<path d="M292,126v 3" fill="none" stroke="#ff0000" stroke-width="2"/>
<path d="M292,129v 3" fill="none" stroke="#ff0000" stroke-width="2"/>
<path d="M293,132v 2" fill="none" stroke="#ff0000" stroke-width="2"/>
<path d="M293,134v 3" fill="none" stroke="#ff0000" stroke-width="2"/>
<path d="M293,137v 3" fill="none" stroke="#ff0000" stroke-width="2"/>
<path d="M294,140v 2" fill="none" stroke="#ff0000" stroke-width="2"/>
<path d="M294,142v 2" fill="none" stroke="#ff0000" stroke-width="2"/>
<path d="M295,144v 3" fill="none" stroke="#ff0000" stroke-width="2"/>
<path d="M295,147v 2" fill="none" stroke="#ff0000" stroke-width="2"/>
<path d="M295,149v 2" fill="none" stroke="#ff0000" stroke-width="2"/>
<path d="M296,151v 2" fill="none" stroke="#ff0000" stroke-width="2"/>
<path d="M296,154v 2" fill="none" stroke="#ff0000" stroke-width="2"/>
<path d="M297,156v 2" fill="none" stroke="#ff0000" stroke-width="2"/>
<path d="M297,158v 2" fill="none" stroke="#ff0000" stroke-width="2"/>
<path d="M297,160v 2" fill="none" stroke="#ff0000" stroke-width="2"/>
<path d="M298,163v 1" fill="none" stroke="#ff0000" stroke-width="2"/>
<path d="M298,164v 2" fill="none" stroke="#ff0000" stroke-width="2"/>
<path d="M299,166v 2" fill="none" stroke="#ff0000" stroke-width="2"/>
<path d="M299,168v 2" fill="none" stroke="#ff0000" stroke-width="2"/>
<path d="M299,170v 2" fill="none" stroke="#ff0000" stroke-width="2"/>
<path d="M300,172v 2" fill="none" stroke="#ff0000" stroke-width="2"/>
<path d="M300,174v 2" fill="none" stroke="#ff0000" stroke-width="2"/>
<path d="M301,176v 2" fill="none" stroke="#ff0000" stroke-width="2"/>
<path d="M301,178v 2" fill="none" stroke="#ff0000" stroke-width="2"/>
<path d="M301,180v 2" fill="none" stroke="#ff0000" stroke-width="2"/>
<path d="M302,182v 1" fill="none" stroke="#ff0000" stroke-width="2"/>
<path d="M302,183v 2" fill="none" stroke="#ff0000" stroke-width="2"/>
<path d="M303,185v 2" fill="none" stroke="#ff0000" stroke-width="2"/>
<path d="M303,187v 2" fill="none" stroke="#ff0000" stroke-width="2"/>
<path d="M303,189v 2" fill="none" stroke="#ff0000" stroke-width="2"/>
<path d="M304,191v 1" fill="none" stroke="#ff0000" stroke-width="2"/>
<path d="M304,192v 2" fill="none" stroke="#ff0000" stroke-width="2"/>
<path d="M305,194v 1" fill="none" stroke="#ff0000" stroke-width="2"/>
<path d="M305,195v 2" fill="none" stroke="#ff0000" stroke-width="2"/>
<path d="M305,197v 2" fill="none" stroke="#ff0000" stroke-width="2"/>
<path d="M306,199v 1" fill="none" stroke="#ff0000" stroke-width="2"/>
<path d="M306,200v 1" fill="none" stroke="#ff0000" stroke-width="2"/>
<path d="M307,201v 2" fill="none" stroke="#ff0000" stroke-width="2"/>
<path d="M307,203v 1" fill="none" stroke="#ff0000" stroke-width="2"/>
<path d="M307,204v 2" fill="none" stroke="#ff0000" stroke-width="2"/>
<path d="M308,206v 1" fill="none" stroke="#ff0000" stroke-width="2"/>
<path d="M308,207v 1" fill="none" stroke="#ff0000" stroke-width="2"/>
<path d="M309,209v 1" fill="none" stroke="#ff0000" stroke-width="2"/>
<path d="M309,210v 1" fill="none" stroke="#ff0000" stroke-width="2"/>
<path d="M309,211v 1" fill="none" stroke="#ff0000" stroke-width="2"/>
<path d="M310,213v 1" fill="none" stroke="#ff0000" stroke-width="2"/>
<path d="M310,214v 1" fill="none" stroke="#ff0000" stroke-width="2"/>
<path d="M311,215v 1" fill="none" stroke="#ff0000" stroke-width="2"/>
<path d="M311,216v 2" fill="none" stroke="#ff0000" stroke-width="2"/>
<path d="M311,218v 1" fill="none" stroke="#ff0000" stroke-width="2"/>
<path d="M312,219v 1" fill="none" stroke="#ff0000" stroke-width="2"/>
<path d="M312,220v 1" fill="none" stroke="#ff0000" stroke-width="2"/>
<path d="M312,222" fill="none" stroke="#ff0000" stroke-width="2"/>
<path d="M313,222v 1" fill="none" stroke="#ff0000" stroke-width="2"/>
<path d="M313,223v 2" fill="none" stroke="#ff0000" stroke-width="2"/>
<path d="M314,225v 1" fill="none" stroke="#ff0000" stroke-width="2"/>
<path d="M314,226v 1" fill="none" stroke="#ff0000" stroke-width="2"/>
<path d="M314,227v 1" fill="none" stroke="#ff0000" stroke-width="2"/>
<path d="M315,228v 1" fill="none" stroke="#ff0000" stroke-width="2"/>
<path d="M315,229v 1" fill="none" stroke="#ff0000" stroke-width="2"/>
<path d="M316,230v 1" fill="none" stroke="#ff0000" stroke-width="2"/>
<path d="M316,231v 1" fill="none" stroke="#ff0000" stroke-width="2"/>
<path d="M316,232v 1" fill="none" stroke="#ff0000" stroke-width="2"/>
<path d="M317,233v 1" fill="none" stroke="#ff0000" stroke-width="2"/>
<path d="M317,234v 1" fill="none" stroke="#ff0000" stroke-width="2"/>
<path d="M318,235v 1" fill="none" stroke="#ff0000" stroke-width="2"/>
<path d="M318,236v 1" fill="none" stroke="#ff0000" stroke-width="2"/>
<path d="M318,237v 1" fill="none" stroke="#ff0000" stroke-width="2"/>
<path d="M319,238v 1" fill="none" stroke="#ff0000" stroke-width="2"/>
<path d="M319,239v 1" fill="none" stroke="#ff0000" stroke-width="2"/>
<path d="M320,240v 1" fill="none" stroke="#ff0000" stroke-width="2"/>
<path d="M320,241" fill="none" stroke="#ff0000" stroke-width="2"/>
<path d="M320,241v 1" fill="none" stroke="#ff0000" stroke-width="2"/>
<path d="M321,242v 1" fill="none" stroke="#ff0000" stroke-width="2"/>
<path d="M321,243v 1" fill="none" stroke="#ff0000" stroke-width="2"/>
<path d="M322,244v 1" fill="none" stroke="#ff0000" stroke-width="2"/>
<path d="M322,245" fill="none" stroke="#ff0000" stroke-width="2"/>
<path d="M322,246" fill="none" stroke="#ff0000" stroke-width="2"/>
<path d="M323,246v 1" fill="none" stroke="#ff0000" stroke-width="2"/>
<path d="M323,247v 1" fill="none" stroke="#ff0000" stroke-width="2"/>
<path d="M324,248" fill="none" stroke="#ff0000" stroke-width="2"/>
<path d="M324,248v 1" fill="none" stroke="#ff0000" stroke-width="2"/>
<path d="M324,249v 1" fill="none" stroke="#ff0000" stroke-width="2"/>
<path d="M325,250v 1" fill="none" stroke="#ff0000" stroke-width="2"/>
<path d="M325,251" fill="none" stroke="#ff0000" stroke-width="2"/>
<path d="M326,252" fill="none" stroke="#ff0000" stroke-width="2"/>
<path d="M326,252v 1" fill="none" stroke="#ff0000" stroke-width="2"/>
<path d="M326,253v 1" fill="none" stroke="#ff0000" stroke-width="2"/>
<path d="M327,254" fill="none" stroke="#ff0000" stroke-width="2"/>
<path d="M327,254v 1" fill="none" stroke="#ff0000" stroke-width="2"/>
<path d="M328,255" fill="none" stroke="#ff0000" stroke-width="2"/>
<path d="M328,256" fill="none" stroke="#ff0000" stroke-width="2"/>
<path d="M328,256v 1" fill="none" stroke="#ff0000" stroke-width="2"/>
<path d="M329,257" fill="none" stroke="#ff0000" stroke-width="2"/>
<path d="M329,257v 1" fill="none" stroke="#ff0000" stroke-width="2"/>
<path d="M330,258" fill="none" stroke="#ff0000" stroke-width="2"/>
<path d="M330,258v 1" fill="none" stroke="#ff0000" stroke-width="2"/>
<path d="M330,259v 1" fill="none" stroke="#ff0000" stroke-width="2"/>
<path d="M331,260" fill="none" stroke="#ff0000" stroke-width="2"/>
<path d="M331,260v 1" fill="none" stroke="#ff0000" stroke-width="2"/>
<path d="M331,261" fill="none" stroke="#ff0000" stroke-width="2"/>
<path d="M332,261v 1" fill="none" stroke="#ff0000" stroke-width="2"/>
<path d="M332,262" fill="none" stroke="#ff0000" stroke-width="2"/>
<path d="M333,262v 1" fill="none" stroke="#ff0000" stroke-width="2"/>
<path d="M333,263" fill="none" stroke="#ff0000" stroke-width="2"/>
<path d="M333,263v 1" fill="none" stroke="#ff0000" stroke-width="2"/>
<path d="M334,264" fill="none" stroke="#ff0000" stroke-width="2"/>
<path d="M334,264v 1" fill="none" stroke="#ff0000" stroke-width="2"/>
<path d="M335,265" fill="none" stroke="#ff0000" stroke-width="2"/>
<path d="M335,265v 1" fill="none" stroke="#ff0000" stroke-width="2"/>
<path d="M335,266" fill="none" stroke="#ff0000" stroke-width="2"/>
<path d="M336,266v 1" fill="none" stroke="#ff0000" stroke-width="2"/>
<path d="M336,267" fill="none" stroke="#ff0000" stroke-width="2"/>
<path d="M337,267" fill="none" stroke="#ff0000" stroke-width="2"/>
<path d="M337,267v 1" fill="none" stroke="#ff0000" stroke-width="2"/>
<path d="M337,268" fill="none" stroke="#ff0000" stroke-width="2"/>
<path d="M338,268v 1" fill="none" stroke="#ff0000" stroke-width="2"/>
<path d="M338,269" fill="none" stroke="#ff0000" stroke-width="2"/>
<path d="M339,269z" fill="none" stroke="#ff0000" stroke-width="2"/>
<path d="M339,270z" fill="none" stroke="#ff0000" stroke-width="2"/>
<path d="M339,270z" fill="none" stroke="#ff0000" stroke-width="2"/>
<path d="M340,271z" fill="none" stroke="#ff0000" stroke-width="2"/>
<path d="M340,271z" fill="none" stroke="#ff0000" stroke-width="2"/>
<path d="M341,271" fill="none" stroke="#ff0000" stroke-width="2"/>
<path d="M341,271v 1" fill="none" stroke="#ff0000" stroke-width="2"/>
<path d="M341,272" fill="none" stroke="#ff0000" stroke-width="2"/>
<path d="M342,272v 1" fill="none" stroke="#ff0000" stroke-width="2"/>
<path d="M342,273" fill="none" stroke="#ff0000" stroke-width="2"/>
<path d="M343,273" fill="none" stroke="#ff0000" stroke-width="2"/>
<path d="M343,273v 1" fill="none" stroke="#ff0000" stroke-width="2"/>
<path d="M343,274" fill="none" stroke="#ff0000" stroke-width="2"/>
<path d="M344,274z" fill="none" stroke="#ff0000" stroke-width="2"/>
<path d="M344,275z" fill="none" stroke="#ff0000" stroke-width="2"/>
<path d="M345,275" fill="none" stroke="#ff0000" stroke-width="2"/>
<path d="M345,275" fill="none" stroke="#ff0000" stroke-width="2"/>
<path d="M345,275v 1" fill="none" stroke="#ff0000" stroke-width="2"/>
<path d="M346,276z" fill="none" stroke="#ff0000" stroke-width="2"/>
<path d="M346,276" fill="none" stroke="#ff0000" stroke-width="2"/>
<path d="M347,276v 1" fill="none" stroke="#ff0000" stroke-width="2"/>
<path d="M347,277" fill="none" stroke="#ff0000" stroke-width="2"/>
<path d="M347,277z" fill="none" stroke="#ff0000" stroke-width="2"/>
<path d="M348,277" fill="none" stroke="#ff0000" stroke-width="2"/>
<path d="M348,277v 1" fill="none" stroke="#ff0000" stroke-width="2"/>
<path d="M349,278" fill="none" stroke="#ff0000" stroke-width="2"/>
<path d="M349,278z" fill="none" stroke="#ff0000" stroke-width="2"/>
<path d="M349,278v 1" fill="none" stroke="#ff0000" stroke-width="2"/>
<path d="M350,279" fill="none" stroke="#ff0000" stroke-width="2"/>
<path d="M350,279z" fill="none" stroke="#ff0000" stroke-width="2"/>
<path d="M350,279" fill="none" stroke="#ff0000" stroke-width="2"/>
<path d="M351,279z" fill="none" stroke="#ff0000" stroke-width="2"/>
<path d="M351,279v 1" fill="none" stroke="#ff0000" stroke-width="2"/>
<path d="M352,280" fill="none" stroke="#ff0000" stroke-width="2"/>
<path d="M352,280z" fill="none" stroke="#ff0000" stroke-width="2"/>
<path d="M352,280" fill="none" stroke="#ff0000" stroke-width="2"/>
<path d="M353,280z" fill="none" stroke="#ff0000" stroke-width="2"/>
<path d="M353,280v 1" fill="none" stroke="#ff0000" stroke-width="2"/>
<path d="M354,281" fill="none" stroke="#ff0000" stroke-width="2"/>
<path d="M354,281z" fill="none" stroke="#ff0000" stroke-width="2"/>
<path d="M354,281v 1" fill="none" stroke="#ff0000" stroke-width="2"/>
<path d="M355,282z" fill="none" stroke="#ff0000" stroke-width="2"/>
<path d="M355,282" fill="none" stroke="#ff0000" stroke-width="2"/>
<path d="M356,282z" fill="none" stroke="#ff0000" stroke-width="2"/>
<path d="M356,282" fill="none" stroke="#ff0000" stroke-width="2"/>
<path d="M356,282z" fill="none" stroke="#ff0000" stroke-width="2"/>
<path d="M357,282v 1" fill="none" stroke="#ff0000" stroke-width="2"/>
<path d="M357,283z" fill="none" stroke="#ff0000" stroke-width="2"/>
<path d="M358,283" fill="none" stroke="#ff0000" stroke-width="2"/>
<path d="M358,283z" fill="none" stroke="#ff0000" stroke-width="2"/>
<path d="M358,283v 1" fill="none" stroke="#ff0000" stroke-width="2"/>
<path d="M359,284z" fill="none" stroke="#ff0000" stroke-width="2"/>
<path d="M359,284" fill="none" stroke="#ff0000" stroke-width="2"/>
<path d="M360,284z" fill="none" stroke="#ff0000" stroke-width="2"/>
<path d="M360,284z" fill="none" stroke="#ff0000" stroke-width="2"/>
<path d="M360,284" fill="none" stroke="#ff0000" stroke-width="2"/>
<path d="M361,284z" fill="none" stroke="#ff0000" stroke-width="2"/>
<path d="M361,284v 1" fill="none" stroke="#ff0000" stroke-width="2"/>
<path d="M362,285z" fill="none" stroke="#ff0000" stroke-width="2"/>
<path d="M362,285" fill="none" stroke="#ff0000" stroke-width="2"/>
<path d="M362,285z" fill="none" stroke="#ff0000" stroke-width="2"/>
<path d="M363,285z" fill="none" stroke="#ff0000" stroke-width="2"/>
<path d="M363,285v 1" fill="none" stroke="#ff0000" stroke-width="2"/>
<path d="M364,286z" fill="none" stroke="#ff0000" stroke-width="2"/>
<path d="M364,286z" fill="none" stroke="#ff0000" stroke-width="2"/>
<path d="M364,286" fill="none" stroke="#ff0000" stroke-width="2"/>
<path d="M365,286z" fill="none" stroke="#ff0000" stroke-width="2"/>
<path d="M365,286" fill="none" stroke="#ff0000" stroke-width="2"/>
<path d="M366,286z" fill="none" stroke="#ff0000" stroke-width="2"/>
<path d="M366,286z" fill="none" stroke="#ff0000" stroke-width="2"/>
<path d="M366,286v 1" fill="none" stroke="#ff0000" stroke-width="2"/>
<path d="M367,287z" fill="none" stroke="#ff0000" stroke-width="2"/>
<path d="M367,287z" fill="none" stroke="#ff0000" stroke-width="2"/>
<path d="M368,287" fill="none" stroke="#ff0000" stroke-width="2"/>
<path d="M368,287z" fill="none" stroke="#ff0000" stroke-width="2"/>
<path d="M368,287z" fill="none" stroke="#ff0000" stroke-width="2"/>
<path d="M369,287z" fill="none" stroke="#ff0000" stroke-width="2"/>
<path d="M369,288z" fill="none" stroke="#ff0000" stroke-width="2"/>
<path d="M369,288z" fill="none" stroke="#ff0000" stroke-width="2"/>
<path d="M370,288z" fill="none" stroke="#ff0000" stroke-width="2"/>
<path d="M370,288" fill="none" stroke="#ff0000" stroke-width="2"/>
<path d="M371,288z" fill="none" stroke="#ff0000" stroke-width="2"/>
<path d="M371,288z" fill="none" stroke="#ff0000" stroke-width="2"/>
<path d="M371,288" fill="none" stroke="#ff0000" stroke-width="2"/>
<path d="M372,288z" fill="none" stroke="#ff0000" stroke-width="2"/>
<path d="M372,288z" fill="none" stroke="#ff0000" stroke-width="2"/>
<path d="M373,288z" fill="none" stroke="#ff0000" stroke-width="2"/>
<path d="M373,288v 1" fill="none" stroke="#ff0000" stroke-width="2"/>
<path d="M373,289z" fill="none" stroke="#ff0000" stroke-width="2"/>
<path d="M374,289z" fill="none" stroke="#ff0000" stroke-width="2"/>
<path d="M374,289z" fill="none" stroke="#ff0000" stroke-width="2"/>
<path d="M375,289" fill="none" stroke="#ff0000" stroke-width="2"/>
<path d="M375,289z" fill="none" stroke="#ff0000" stroke-width="2"/>
<path d="M375,289z" fill="none" stroke="#ff0000" stroke-width="2"/>
<path d="M376,289z" fill="none" stroke="#ff0000" stroke-width="2"/>
<path d="M376,289v 1" fill="none" stroke="#ff0000" stroke-width="2"/>
<path d="M377,290z" fill="none" stroke="#ff0000" stroke-width="2"/>
<path d="M377,290z" fill="none" stroke="#ff0000" stroke-width="2"/>
<path d="M377,290z" fill="none" stroke="#ff0000" stroke-width="2"/>
<path d="M378,290z" fill="none" stroke="#ff0000" stroke-width="2"/>
<path d="M378,290" fill="none" stroke="#ff0000" stroke-width="2"/>
<path d="M379,290z" fill="none" stroke="#ff0000" stroke-width="2"/>
<path d="M379,290z" fill="none" stroke="#ff0000" stroke-width="2"/>
<path d="M379,290z" fill="none" stroke="#ff0000" stroke-width="2"/>
<path d="M380,290z" fill="none" stroke="#ff0000" stroke-width="2"/>
<path d="M380,290" fill="none" stroke="#ff0000" stroke-width="2"/>
<path d="M381,290z" fill="none" stroke="#ff0000" stroke-width="2"/>
<path d="M381,290z" fill="none" stroke="#ff0000" stroke-width="2"/>
<path d="M381,290z" fill="none" stroke="#ff0000" stroke-width="2"/>
<path d="M382,290z" fill="none" stroke="#ff0000" stroke-width="2"/>
<path d="M382,290v 1" fill="none" stroke="#ff0000" stroke-width="2"/>
<path d="M383,291z" fill="none" stroke="#ff0000" stroke-width="2"/>
<path d="M383,291z" fill="none" stroke="#ff0000" stroke-width="2"/>
<path d="M383,291z" fill="none" stroke="#ff0000" stroke-width="2"/>
<path d="M384,291z" fill="none" stroke="#ff0000" stroke-width="2"/>
<path d="M384,291z" fill="none" stroke="#ff0000" stroke-width="2"/>
<path d="M385,291" fill="none" stroke="#ff0000" stroke-width="2"/>
<path d="M385,291z" fill="none" stroke="#ff0000" stroke-width="2"/>
<path d="M385,291z" fill="none" stroke="#ff0000" stroke-width="2"/>
<path d="M386,291z" fill="none" stroke="#ff0000" stroke-width="2"/>
<path d="M386,291z" fill="none" stroke="#ff0000" stroke-width="2"/>
<path d="M387,291z" fill="none" stroke="#ff0000" stroke-width="2"/>
<path d="M387,291z" fill="none" stroke="#ff0000" stroke-width="2"/>
<path d="M387,291v 1" fill="none" stroke="#ff0000" stroke-width="2"/>
<path d="M388,292z" fill="none" stroke="#ff0000" stroke-width="2"/>
<path d="M388,292z" fill="none" stroke="#ff0000" stroke-width="2"/>
<path d="M388,292z" fill="none" stroke="#ff0000" stroke-width="2"/>
<path d="M389,292z" fill="none" stroke="#ff0000" stroke-width="2"/>
<path d="M389,292z" fill="none" stroke="#ff0000" stroke-width="2"/>
<path d="M390,292z" fill="none" stroke="#ff0000" stroke-width="2"/>
<path d="M390,292" fill="none" stroke="#ff0000" stroke-width="2"/>
<path d="M390,292z" fill="none" stroke="#ff0000" stroke-width="2"/>
<path d="M391,292z" fill="none" stroke="#ff0000" stroke-width="2"/>
<path d="M391,292z" fill="none" stroke="#ff0000" stroke-width="2"/>
<path d="M392,292z" fill="none" stroke="#ff0000" stroke-width="2"/>
<path d="M392,292z" fill="none" stroke="#ff0000" stroke-width="2"/>
<path d="M392,292z" fill="none" stroke="#ff0000" stroke-width="2"/>
<path d="M393,292z" fill="none" stroke="#ff0000" stroke-width="2"/>
<path d="M393,292" fill="none" stroke="#ff0000" stroke-width="2"/>
<path d="M394,292z" fill="none" stroke="#ff0000" stroke-width="2"/>
<path d="M394,292z" fill="none" stroke="#ff0000" stroke-width="2"/>
<path d="M394,292z" fill="none" stroke="#ff0000" stroke-width="2"/>
<path d="M395,292z" fill="none" stroke="#ff0000" stroke-width="2"/>
<path d="M395,292z" fill="none" stroke="#ff0000" stroke-width="2"/>
<path d="M396,292z" fill="none" stroke="#ff0000" stroke-width="2"/>
<path d="M396,292z" fill="none" stroke="#ff0000" stroke-width="2"/>
<path d="M396,292z" fill="none" stroke="#ff0000" stroke-width="2"/>
<path d="M397,292z" fill="none" stroke="#ff0000" stroke-width="2"/>
<path d="M397,292v 1" fill="none" stroke="#ff0000" stroke-width="2"/>
<path d="M398,293z" fill="none" stroke="#ff0000" stroke-width="2"/>
<path d="M398,293z" fill="none" stroke="#ff0000" stroke-width="2"/>
<path d="M398,293z" fill="none" stroke="#ff0000" stroke-width="2"/>
<path d="M399,293z" fill="none" stroke="#ff0000" stroke-width="2"/>
<path d="M399,293z" fill="none" stroke="#ff0000" stroke-width="2"/>
<path d="M400,293z" fill="none" stroke="#ff0000" stroke-width="2"/>
<path d="M400,293z" fill="none" stroke="#ff0000" stroke-width="2"/>
<path d="M400,293z" fill="none" stroke="#ff0000" stroke-width="2"/>
<path d="M401,293z" fill="none" stroke="#ff0000" stroke-width="2"/>
<path d="M401,293z" fill="none" stroke="#ff0000" stroke-width="2"/>
<path d="M402,293" fill="none" stroke="#ff0000" stroke-width="2"/>
<path d="M402,293z" fill="none" stroke="#ff0000" stroke-width="2"/>
<path d="M402,293z" fill="none" stroke="#ff0000" stroke-width="2"/>
<path d="M403,293z" fill="none" stroke="#ff0000" stroke-width="2"/>
<path d="M403,293z" fill="none" stroke="#ff0000" stroke-width="2"/>
<path d="M404,293z" fill="none" stroke="#ff0000" stroke-width="2"/>
<path d="M404,293z" fill="none" stroke="#ff0000" stroke-width="2"/>
<path d="M404,293z" fill="none" stroke="#ff0000" stroke-width="2"/>
<path d="M405,293z" fill="none" stroke="#ff0000" stroke-width="2"/>
<path d="M405,293z" fill="none" stroke="#ff0000" stroke-width="2"/>
<path d="M406,293z" fill="none" stroke="#ff0000" stroke-width="2"/>
<path d="M406,293z" fill="none" stroke="#ff0000" stroke-width="2"/>
<path d="M406,293z" fill="none" stroke="#ff0000" stroke-width="2"/>
<path d="M407,293v 1" fill="none" stroke="#ff0000" stroke-width="2"/>
<path d="M407,294z" fill="none" stroke="#ff0000" stroke-width="2"/>
<path d="M408,294z" fill="none" stroke="#ff0000" stroke-width="2"/>
<path d="M408,294z" fill="none" stroke="#ff0000" stroke-width="2"/>
<path d="M408,294z" fill="none" stroke="#ff0000" stroke-width="2"/>
<path d="M409,294z" fill="none" stroke="#ff0000" stroke-width="2"/>
<path d="M409,294z" fill="none" stroke="#ff0000" stroke-width="2"/>
<path d="M409,294z" fill="none" stroke="#ff0000" stroke-width="2"/>
<path d="M410,294z" fill="none" stroke="#ff0000" stroke-width="2"/>
<path d="M410,294z" fill="none" stroke="#ff0000" stroke-width="2"/>
<path d="M411,294z" fill="none" stroke="#ff0000" stroke-width="2"/>
<path d="M411,294z" fill="none" stroke="#ff0000" stroke-width="2"/>
<path d="M411,294z" fill="none" stroke="#ff0000" stroke-width="2"/>
<path d="M412,294z" fill="none" stroke="#ff0000" stroke-width="2"/>
<path d="M412,294z" fill="none" stroke="#ff0000" stroke-width="2"/>
<path d="M413,294z" fill="none" stroke="#ff0000" stroke-width="2"/>
<path d="M413,294z" fill="none" stroke="#ff0000" stroke-width="2"/>
<path d="M413,294" fill="none" stroke="#ff0000" stroke-width="2"/>
<path d="M414,294z" fill="none" stroke="#ff0000" stroke-width="2"/>
<path d="M414,294z" fill="none" stroke="#ff0000" stroke-width="2"/>
<path d="M415,294z" fill="none" stroke="#ff0000" stroke-width="2"/>
<path d="M415,294z" fill="none" stroke="#ff0000" stroke-width="2"/>
<path d="M415,294z" fill="none" stroke="#ff0000" stroke-width="2"/>
<path d="M416,294z" fill="none" stroke="#ff0000" stroke-width="2"/>
<path d="M416,294z" fill="none" stroke="#ff0000" stroke-width="2"/>
<path d="M417,294z" fill="none" stroke="#ff0000" stroke-width="2"/>
<path d="M417,294z" fill="none" stroke="#ff0000" stroke-width="2"/>
<path d="M417,294z" fill="none" stroke="#ff0000" stroke-width="2"/>
<path d="M418,294z" fill="none" stroke="#ff0000" stroke-width="2"/>
<path d="M418,294z" fill="none" stroke="#ff0000" stroke-width="2"/>
<path d="M419,294z" fill="none" stroke="#ff0000" stroke-width="2"/>
<path d="M419,294z" fill="none" stroke="#ff0000" stroke-width="2"/>
<path d="M419,294z" fill="none" stroke="#ff0000" stroke-width="2"/>
<path d="M420,294z" fill="none" stroke="#ff0000" stroke-width="2"/>
<path d="M420,294z" fill="none" stroke="#ff0000" stroke-width="2"/>
<path d="M421,294z" fill="none" stroke="#ff0000" stroke-width="2"/>
<path d="M421,294z" fill="none" stroke="#ff0000" stroke-width="2"/>
<path d="M421,294z" fill="none" stroke="#ff0000" stroke-width="2"/>
<path d="M422,294z" fill="none" stroke="#ff0000" stroke-width="2"/>
<path d="M422,294z" fill="none" stroke="#ff0000" stroke-width="2"/>
<path d="M423,294z" fill="none" stroke="#ff0000" stroke-width="2"/>
<path d="M423,294" fill="none" stroke="#ff0000" stroke-width="2"/>
<path d="M423,294z" fill="none" stroke="#ff0000" stroke-width="2"/>
<path d="M424,294z" fill="none" stroke="#ff0000" stroke-width="2"/>
<path d="M424,294z" fill="none" stroke="#ff0000" stroke-width="2"/>
<path d="M425,294z" fill="none" stroke="#ff0000" stroke-width="2"/>
<path d="M425,294z" fill="none" stroke="#ff0000" stroke-width="2"/>
<path d="M425,294z" fill="none" stroke="#ff0000" stroke-width="2"/>
<path d="M426,294z" fill="none" stroke="#ff0000" stroke-width="2"/>
<path d="M426,294z" fill="none" stroke="#ff0000" stroke-width="2"/>
<path d="M427,294z" fill="none" stroke="#ff0000" stroke-width="2"/>
<path d="M427,294z" fill="none" stroke="#ff0000" stroke-width="2"/>
<path d="M427,294z" fill="none" stroke="#ff0000" stroke-width="2"/>
<path d="M428,294z" fill="none" stroke="#ff0000" stroke-width="2"/>
<path d="M428,294z" fill="none" stroke="#ff0000" stroke-width="2"/>
<path d="M428,294z" fill="none" stroke="#ff0000" stroke-width="2"/>
<path d="M429,294z" fill="none" stroke="#ff0000" stroke-width="2"/>
<path d="M429,294z" fill="none" stroke="#ff0000" stroke-width="2"/>
<path d="M430,294z" fill="none" stroke="#ff0000" stroke-width="2"/>
<path d="M430,294z" fill="none" stroke="#ff0000" stroke-width="2"/>
<path d="M430,294z" fill="none" stroke="#ff0000" stroke-width="2"/>
<path d="M431,294z" fill="none" stroke="#ff0000" stroke-width="2"/>
<path d="M431,294z" fill="none" stroke="#ff0000" stroke-width="2"/>
<path d="M432,294z" fill="none" stroke="#ff0000" stroke-width="2"/>
<path d="M432,294z" fill="none" stroke="#ff0000" stroke-width="2"/>
<path d="M432,294z" fill="none" stroke="#ff0000" stroke-width="2"/>
<path d="M433,294z" fill="none" stroke="#ff0000" stroke-width="2"/>
<path d="M433,294z" fill="none" stroke="#ff0000" stroke-width="2"/>
<path d="M434,294z" fill="none" stroke="#ff0000" stroke-width="2"/>
<path d="M434,294z" fill="none" stroke="#ff0000" stroke-width="2"/>
<path d="M434,294z" fill="none" stroke="#ff0000" stroke-width="2"/>
<path d="M435,294z" fill="none" stroke="#ff0000" stroke-width="2"/>
<path d="M435,294z" fill="none" stroke="#ff0000" stroke-width="2"/>
<path d="M436,294z" fill="none" stroke="#ff0000" stroke-width="2"/>
<path d="M436,294z" fill="none" stroke="#ff0000" stroke-width="2"/>
<path d="M436,294z" fill="none" stroke="#ff0000" stroke-width="2"/>
<path d="M437,294z" fill="none" stroke="#ff0000" stroke-width="2"/>
<path d="M437,294z" fill="none" stroke="#ff0000" stroke-width="2"/>
<path d="M438,294z" fill="none" stroke="#ff0000" stroke-width="2"/>
<path d="M438,294v 1" fill="none" stroke="#ff0000" stroke-width="2"/>
<path d="M438,295z" fill="none" stroke="#ff0000" stroke-width="2"/>
<path d="M439,295z" fill="none" stroke="#ff0000" stroke-width="2"/>
<path d="M439,295z" fill="none" stroke="#ff0000" stroke-width="2"/>
<path d="M440,295z" fill="none" stroke="#ff0000" stroke-width="2"/>
<path d="M440,295z" fill="none" stroke="#ff0000" stroke-width="2"/>
<path d="M440,295z" fill="none" stroke="#ff0000" stroke-width="2"/>
<path d="M441,295z" fill="none" stroke="#ff0000" stroke-width="2"/>
<path d="M441,295z" fill="none" stroke="#ff0000" stroke-width="2"/>
<path d="M442,295z" fill="none" stroke="#ff0000" stroke-width="2"/>
<path d="M442,295z" fill="none" stroke="#ff0000" stroke-width="2"/>
<path d="M442,295z" fill="none" stroke="#ff0000" stroke-width="2"/>
<path d="M443,295z" fill="none" stroke="#ff0000" stroke-width="2"/>
<path d="M443,295z" fill="none" stroke="#ff0000" stroke-width="2"/>
<path d="M444,295z" fill="none" stroke="#ff0000" stroke-width="2"/>
<path d="M444,295z" fill="none" stroke="#ff0000" stroke-width="2"/>
<path d="M444,295z" fill="none" stroke="#ff0000" stroke-width="2"/>
<path d="M445,295z" fill="none" stroke="#ff0000" stroke-width="2"/>
<path d="M445,295z" fill="none" stroke="#ff0000" stroke-width="2"/>
<path d="M446,295z" fill="none" stroke="#ff0000" stroke-width="2"/>
<path d="M446,295z" fill="none" stroke="#ff0000" stroke-width="2"/>
<path d="M446,295z" fill="none" stroke="#ff0000" stroke-width="2"/>
<path d="M447,295z" fill="none" stroke="#ff0000" stroke-width="2"/>
<path d="M447,295z" fill="none" stroke="#ff0000" stroke-width="2"/>
<path d="M447,295z" fill="none" stroke="#ff0000" stroke-width="2"/>
<path d="M448,295z" fill="none" stroke="#ff0000" stroke-width="2"/>
<path d="M448,295z" fill="none" stroke="#ff0000" stroke-width="2"/>
<path d="M449,295z" fill="none" stroke="#ff0000" stroke-width="2"/>
<path d="M449,295z" fill="none" stroke="#ff0000" stroke-width="2"/>
<path d="M449,295z" fill="none" stroke="#ff0000" stroke-width="2"/>
<path d="M450,295z" fill="none" stroke="#ff0000" stroke-width="2"/>
<path d="M450,295z" fill="none" stroke="#ff0000" stroke-width="2"/>
<path d="M451,295z" fill="none" stroke="#ff0000" stroke-width="2"/>
<path d="M451,295z" fill="none" stroke="#ff0000" stroke-width="2"/>
<path d="M451,295z" fill="none" stroke="#ff0000" stroke-width="2"/>
<path d="M452,295z" fill="none" stroke="#ff0000" stroke-width="2"/>
<path d="M452,295z" fill="none" stroke="#ff0000" stroke-width="2"/>
<path d="M453,295z" fill="none" stroke="#ff0000" stroke-width="2"/>
<path d="M453,295z" fill="none" stroke="#ff0000" stroke-width="2"/>
<path d="M453,295z" fill="none" stroke="#ff0000" stroke-width="2"/>
<path d="M454,295z" fill="none" stroke="#ff0000" stroke-width="2"/>
<path d="M454,295z" fill="none" stroke="#ff0000" stroke-width="2"/>
<path d="M455,295z" fill="none" stroke="#ff0000" stroke-width="2"/>
<path d="M455,295z" fill="none" stroke="#ff0000" stroke-width="2"/>
<path d="M455,295z" fill="none" stroke="#ff0000" stroke-width="2"/>
<path d="M456,295z" fill="none" stroke="#ff0000" stroke-width="2"/>
<path d="M456,295z" fill="none" stroke="#ff0000" stroke-width="2"/>
<path d="M457,295z" fill="none" stroke="#ff0000" stroke-width="2"/>
<path d="M457,295z" fill="none" stroke="#ff0000" stroke-width="2"/>
<path d="M457,295z" fill="none" stroke="#ff0000" stroke-width="2"/>
<path d="M458,295z" fill="none" stroke="#ff0000" stroke-width="2"/>
<path d="M458,295z" fill="none" stroke="#ff0000" stroke-width="2"/>
<path d="M459,295z" fill="none" stroke="#ff0000" stroke-width="2"/>
<path d="M459,295z" fill="none" stroke="#ff0000" stroke-width="2"/>
<path d="M459,295z" fill="none" stroke="#ff0000" stroke-width="2"/>
<path d="M460,295z" fill="none" stroke="#ff0000" stroke-width="2"/>
<path d="M460,295z" fill="none" stroke="#ff0000" stroke-width="2"/>
<path d="M461,295z" fill="none" stroke="#ff0000" stroke-width="2"/>
<path d="M461,295z" fill="none" stroke="#ff0000" stroke-width="2"/>
<path d="M461,295z" fill="none" stroke="#ff0000" stroke-width="2"/>
<path d="M462,295z" fill="none" stroke="#ff0000" stroke-width="2"/>
<path d="M462,295z" fill="none" stroke="#ff0000" stroke-width="2"/>
<path d="M463,295z" fill="none" stroke="#ff0000" stroke-width="2"/>
<path d="M463,295z" fill="none" stroke="#ff0000" stroke-width="2"/>
<path d="M463,295z" fill="none" stroke="#ff0000" stroke-width="2"/>
<path d="M464,295z" fill="none" stroke="#ff0000" stroke-width="2"/>
<path d="M464,295z" fill="none" stroke="#ff0000" stroke-width="2"/>
<path d="M465,295z" fill="none" stroke="#ff0000" stroke-width="2"/>
<path d="M465,295z" fill="none" stroke="#ff0000" stroke-width="2"/>
<path d="M465,295z" fill="none" stroke="#ff0000" stroke-width="2"/>
<path d="M466,295z" fill="none" stroke="#ff0000" stroke-width="2"/>
<path d="M466,295z" fill="none" stroke="#ff0000" stroke-width="2"/>
<path d="M466,295z" fill="none" stroke="#ff0000" stroke-width="2"/>
<path d="M467,295z" fill="none" stroke="#ff0000" stroke-width="2"/>
<path d="M467,295z" fill="none" stroke="#ff0000" stroke-width="2"/>
<path d="M468,295z" fill="none" stroke="#ff0000" stroke-width="2"/>
<path d="M468,295z" fill="none" stroke="#ff0000" stroke-width="2"/>
<path d="M468,295z" fill="none" stroke="#ff0000" stroke-width="2"/>
<path d="M469,295z" fill="none" stroke="#ff0000" stroke-width="2"/>
<path d="M469,295z" fill="none" stroke="#ff0000" stroke-width="2"/>
<path d="M470,295z" fill="none" stroke="#ff0000" stroke-width="2"/>
<path d="M470,295z" fill="none" stroke="#ff0000" stroke-width="2"/>
<path d="M470,295z" fill="none" stroke="#ff0000" stroke-width="2"/>
<path d="M471,295z" fill="none" stroke="#ff0000" stroke-width="2"/>
<path d="M471,295z" fill="none" stroke="#ff0000" stroke-width="2"/>
<path d="M472,295z" fill="none" stroke="#ff0000" stroke-width="2"/>
<path d="M472,295z" fill="none" stroke="#ff0000" stroke-width="2"/>
<path d="M472,295z" fill="none" stroke="#ff0000" stroke-width="2"/>
<path d="M473,295z" fill="none" stroke="#ff0000" stroke-width="2"/>
<path d="M473,295z" fill="none" stroke="#ff0000" stroke-width="2"/>
<path d="M474,295z" fill="none" stroke="#ff0000" stroke-width="2"/>
<path d="M474,295z" fill="none" stroke="#ff0000" stroke-width="2"/>
<path d="M474,295z" fill="none" stroke="#ff0000" stroke-width="2"/>
<path d="M475,295z" fill="none" stroke="#ff0000" stroke-width="2"/>
<path d="M475,295z" fill="none" stroke="#ff0000" stroke-width="2"/>
<path d="M476,295z" fill="none" stroke="#ff0000" stroke-width="2"/>
<path d="M476,295z" fill="none" stroke="#ff0000" stroke-width="2"/>
<path d="M476,295z" fill="none" stroke="#ff0000" stroke-width="2"/>
<path d="M477,295z" fill="none" stroke="#ff0000" stroke-width="2"/>
<path d="M477,295z" fill="none" stroke="#ff0000" stroke-width="2"/>
<path d="M478,295z" fill="none" stroke="#ff0000" stroke-width="2"/>
<path d="M478,295z" fill="none" stroke="#ff0000" stroke-width="2"/>
<path d="M478,295z" fill="none" stroke="#ff0000" stroke-width="2"/>
<path d="M479,295z" fill="none" stroke="#ff0000" stroke-width="2"/>
<path d="M479,295z" fill="none" stroke="#ff0000" stroke-width="2"/>
<path d="M480,295z" fill="none" stroke="#ff0000" stroke-width="2"/>
<path d="M480,295z" fill="none" stroke="#ff0000" stroke-width="2"/>
<path d="M480,295z" fill="none" stroke="#ff0000" stroke-width="2"/>
<path d="M481,295z" fill="none" stroke="#ff0000" stroke-width="2"/>
<path d="M481,295z" fill="none" stroke="#ff0000" stroke-width="2"/>
<path d="M482,295z" fill="none" stroke="#ff0000" stroke-width="2"/>
<path d="M482,295z" fill="none" stroke="#ff0000" stroke-width="2"/>
<path d="M482,295z" fill="none" stroke="#ff0000" stroke-width="2"/>
<path d="M483,295z" fill="none" stroke="#ff0000" stroke-width="2"/>
<path d="M284,66v 3l 1, 3v 4l 1, 3v 7l 1, 3v 4l 1, 3v 6l 1, 3v 3l 1, 3v 6l 1, 3v 2l 1, 3v 5l 1, 3v 5l 1, 3v 2l 1, 2v 5l 1, 2v 3l 1, 2v 4l 1, 2v 2l 1, 2v 4l 1, 2v 2l 1, 2v 4l 1, 2v 1l 1, 2v 3l 1, 2v 2l 1, 2v 3l 1, 1v 2l 1, 1v 3l 1, 1v 2l 1, 1v 3l 1,
 1v 1l 1, 2v 2l 1, 2v 2l 1, 1v 1l 1, 1v 2l 1, 2l 1, 2v 2h 1v 2h 1v 2l 1, 1v 1l 1, 1v 2h 1v 1l 1, 1v 2h 1v 1l 1, 1v 2h 1v 1l 1, 1v 1l 1, 1l 1, 1v 1l 1, 1v 1h 1v 1l 1, 1v 1h 1v 1h 1v 1l 1, 1l 1, 1v 1h 1v 1h 1v 1h 1v 1h 1v 1l 1, 1h 1v 1h 1v 1h 1v 1h 1v
 1h 1l 1, 1h 1v 1h 1l 1, 1l 1, 1h 1l 1, 1h 1l 1, 1l 1, 1h 2v 1h 1l 1, 1h 2l 1, 1h 1l 1, 1h 2l 1, 1h 2v 1h 4v 1h 3l 1, 1h 5l 1, 1h 4l 1, 1h 9l 1, 1h 9v 1h 31v 1h 45" fill="none" stroke="#ff0000" stroke-width="2"/>
<path d="M57,295h 453" fill="none" stroke="black"/>
<text x="436" y="317" fill="black" font-size="11" font-family="Helvetica">
TDC-TDC0 (ns)
</text>
<path d="M57,287v 8" fill="none" stroke="black"/>
<path d="M68,291v 4" fill="none" stroke="black"/>
<path d="M79,291v 4" fill="none" stroke="black"/>
<path d="M91,291v 4" fill="none" stroke="black"/>
<path d="M102,291v 4" fill="none" stroke="black"/>
<path d="M113,287v 8" fill="none" stroke="black"/>
<path d="M125,291v 4" fill="none" stroke="black"/>
<path d="M136,291v 4" fill="none" stroke="black"/>
<path d="M147,291v 4" fill="none" stroke="black"/>
<path d="M159,291v 4" fill="none" stroke="black"/>
<path d="M170,287v 8" fill="none" stroke="black"/>
<path d="M181,291v 4" fill="none" stroke="black"/>
<path d="M193,291v 4" fill="none" stroke="black"/>
<path d="M204,291v 4" fill="none" stroke="black"/>
<path d="M215,291v 4" fill="none" stroke="black"/>
<path d="M227,287v 8" fill="none" stroke="black"/>
<path d="M238,291v 4" fill="none" stroke="black"/>
<path d="M249,291v 4" fill="none" stroke="black"/>
<path d="M261,291v 4" fill="none" stroke="black"/>
<path d="M272,291v 4" fill="none" stroke="black"/>
<path d="M283,287v 8" fill="none" stroke="black"/>
<path d="M295,291v 4" fill="none" stroke="black"/>
<path d="M306,291v 4" fill="none" stroke="black"/>
<path d="M317,291v 4" fill="none" stroke="black"/>
<path d="M329,291v 4" fill="none" stroke="black"/>
<path d="M340,287v 8" fill="none" stroke="black"/>
<path d="M351,291v 4" fill="none" stroke="black"/>
<path d="M363,291v 4" fill="none" stroke="black"/>
<path d="M374,291v 4" fill="none" stroke="black"/>
<path d="M386,291v 4" fill="none" stroke="black"/>
<path d="M397,287v 8" fill="none" stroke="black"/>
<path d="M408,291v 4" fill="none" stroke="black"/>
<path d="M420,291v 4" fill="none" stroke="black"/>
<path d="M431,291v 4" fill="none" stroke="black"/>
<path d="M442,291v 4" fill="none" stroke="black"/>
<path d="M454,287v 8" fill="none" stroke="black"/>
<path d="M465,291v 4" fill="none" stroke="black"/>
<path d="M476,291v 4" fill="none" stroke="black"/>
<path d="M488,291v 4" fill="none" stroke="black"/>
<path d="M499,291v 4" fill="none" stroke="black"/>
<path d="M510,287v 8" fill="none" stroke="black"/>
<text x="40" y="306" fill="black" font-size="11" font-family="Helvetica">
-20000
</text>
<text x="97" y="306" fill="black" font-size="11" font-family="Helvetica">
-15000
</text>
<text x="153" y="306" fill="black" font-size="11" font-family="Helvetica">
-10000
</text>
<text x="213" y="306" fill="black" font-size="11" font-family="Helvetica">
-5000
</text>
<text x="281" y="306" fill="black" font-size="11" font-family="Helvetica">
0
</text>
<text x="328" y="306" fill="black" font-size="11" font-family="Helvetica">
5000
</text>
<text x="382" y="306" fill="black" font-size="11" font-family="Helvetica">
10000
</text>
<text x="439" y="306" fill="black" font-size="11" font-family="Helvetica">
15000
</text>
<text x="495" y="306" fill="black" font-size="11" font-family="Helvetica">
20000
</text>
<path d="M57,295v -262" fill="none" stroke="black"/>
<g transform="rotate(-90,29,61)">
<text x="29" y="61" fill="black" font-size="11" font-family="Helvetica">
Count
</text>
</g>
<path d="M70,295h -13" fill="none" stroke="black"/>
<path d="M63,285h -6" fill="none" stroke="black"/>
<path d="M63,274h -6" fill="none" stroke="black"/>
<path d="M63,264h -6" fill="none" stroke="black"/>
<path d="M63,254h -6" fill="none" stroke="black"/>
<path d="M70,243h -13" fill="none" stroke="black"/>
<path d="M63,233h -6" fill="none" stroke="black"/>
<path d="M63,222h -6" fill="none" stroke="black"/>
<path d="M63,212h -6" fill="none" stroke="black"/>
<path d="M63,202h -6" fill="none" stroke="black"/>
<path d="M70,191h -13" fill="none" stroke="black"/>
<path d="M63,181h -6" fill="none" stroke="black"/>
<path d="M63,170h -6" fill="none" stroke="black"/>
<path d="M63,160h -6" fill="none" stroke="black"/>
<path d="M63,150h -6" fill="none" stroke="black"/>
<path d="M70,139h -13" fill="none" stroke="black"/>
<path d="M63,129h -6" fill="none" stroke="black"/>
<path d="M63,118h -6" fill="none" stroke="black"/>
<path d="M63,108h -6" fill="none" stroke="black"/>
<path d="M63,97h -6" fill="none" stroke="black"/>
<path d="M70,87h -13" fill="none" stroke="black"/>
<path d="M63,77h -6" fill="none" stroke="black"/>
<path d="M63,66h -6" fill="none" stroke="black"/>
<path d="M63,56h -6" fill="none" stroke="black"/>
<path d="M63,45h -6" fill="none" stroke="black"/>
<path d="M70,35h -13" fill="none" stroke="black"/>
<path d="M70,35h -13" fill="none" stroke="black"/>
<text x="48" y="299" fill="black" font-size="11" font-family="Helvetica">
0
</text>
<text x="42" y="247" fill="black" font-size="11" font-family="Helvetica">
10
</text>
<text x="42" y="195" fill="black" font-size="11" font-family="Helvetica">
20
</text>
<text x="42" y="143" fill="black" font-size="11" font-family="Helvetica">
30
</text>
<text x="42" y="91" fill="black" font-size="11" font-family="Helvetica">
40
</text>
<text x="42" y="39" fill="black" font-size="11" font-family="Helvetica">
50
</text>
<rect x="442" y="22" width="114" height="39" fill="white"/>
<path d="M442,61h 114" fill="none" stroke="black"/>
<path d="M556,61v -39" fill="none" stroke="black"/>
<path d="M556,22h -114" fill="none" stroke="black"/>
<path d="M442,22v 39" fill="none" stroke="black"/>
<text x="448" y="27" fill="black" font-size="6" font-family="Helvetica">
Entries 
</text>
<text x="536" y="27" fill="black" font-size="6" font-family="Helvetica">
 3039
</text>
<text x="453" y="33" fill="black" font-size="6" font-family="Helvetica">
 / ndf 
</text>
<text x="451" y="31" fill="black" font-size="4" font-family="Helvetica">
2
</text>
<text x="448" y="33" fill="black" font-size="6" font-family="Times">
&#0967;
</text>
<text x="521" y="33" fill="black" font-size="6" font-family="Helvetica">
 376.2 / 619
</text>
<text x="456" y="39" fill="black" font-size="6" font-family="Helvetica">
   
</text>
<text x="452" y="41" fill="black" font-size="4" font-family="Helvetica">
cu
</text>
<text x="448" y="39" fill="black" font-size="6" font-family="Helvetica">
N
</text>
<text x="522" y="40" fill="black" font-size="6" font-family="Helvetica">
 4.413e+00
</text>
<text x="519" y="40" fill="black" font-size="6" font-family="Times">
&#0177;
</text>
<text x="491" y="40" fill="black" font-size="6" font-family="Helvetica">
 4.023e-12 
</text>
<text x="454" y="45" fill="black" font-size="6" font-family="Helvetica">
 
</text>
<text x="450" y="47" fill="black" font-size="4" font-family="Helvetica">
cu
</text>
<text x="448" y="45" fill="black" font-size="6" font-family="Times">
&#0964;
</text>
<text x="542" y="47" fill="black" font-size="6" font-family="Helvetica">
 1.1
</text>
<text x="538" y="47" fill="black" font-size="6" font-family="Times">
&#0177;
</text>
<text x="521" y="47" fill="black" font-size="6" font-family="Helvetica">
 162.8 
</text>
<text x="453" y="52" fill="black" font-size="6" font-family="Helvetica">
    
</text>
<text x="452" y="54" fill="black" font-size="4" font-family="Helvetica">
f
</text>
<text x="448" y="52" fill="black" font-size="6" font-family="Helvetica">
N
</text>
<text x="541" y="53" fill="black" font-size="6" font-family="Helvetica">
 0.8
</text>
<text x="538" y="53" fill="black" font-size="6" font-family="Times">
&#0177;
</text>
<text x="522" y="53" fill="black" font-size="6" font-family="Helvetica">
  45.2 
</text>
<text x="451" y="58" fill="black" font-size="6" font-family="Helvetica">
 
</text>
<text x="450" y="60" fill="black" font-size="4" font-family="Helvetica">
f
</text>
<text x="448" y="58" fill="black" font-size="6" font-family="Times">
&#0964;
</text>
<text x="541" y="60" fill="black" font-size="6" font-family="Helvetica">
 0.0
</text>
<text x="538" y="60" fill="black" font-size="6" font-family="Times">
&#0177;
</text>
<text x="521" y="60" fill="black" font-size="6" font-family="Helvetica">
  2197 
</text>
<text x="127" y="16" fill="black" font-size="15" font-family="Helvetica">
5mm_Aluminium_combined_5mm_Aluminium
</text></svg>
