<?xml version="1.0" standalone="no"?>
<svg width="567" height="328" viewBox="0 0 567 328" xmlns="http://www.w3.org/2000/svg">
<title>
images/analysis_g4bl_sin_phase_exec_d4_d5_l_bound50bin_32tight/fits/5mm_Air_5mm_Air_combined_5mm_Air.svg
</title>
<desc>
Creator: ROOT Version 5.34/09
CreationDate: Tue Sep 17 01:53:57 2013</desc>
<defs>
</defs>
<rect x="0" y="0" width="567" height="328" fill="white"/>
<rect x="57" y="33" width="453" height="262" fill="white"/>
<rect x="57" y="33" width="453" height="262" fill="none" stroke="black"/>
<rect x="57" y="33" width="453" height="262" fill="white"/>
<rect x="57" y="33" width="453" height="262" fill="none" stroke="black"/>
<path d="M57,295h 227v -197h 1v 35v -44h 1v -5v 8v -47h 1v 77v -5h 1v 11v -8h 1v -61v 69h 1v -17v 36v -25h 1v 11v -16v 25h 1v -20h 1v 22v -11v 25h 1v -14v 19h 1v -24v 11h 1v 5v -2h 1v 32h 1v -46h 1v 60v -19v 33h 1v -33v 5h 1v 28v -30h 1v 8v -6v 3h 1v
 30v -30h 1v 36h 1v -39v 28v -55h 1v 63v -58v 31h 1v 27v -5h 1v 8v -25h 1v 50v -22h 1v -44v 33h 1v 16v -8h 1v 22v -41v 24h 1v 9v -31h 1v 42h 1v -53h 1v 61v -19v 2h 1v -11h 1v 22v -16h 1v 22h 1v 8v -16h 1v 22h 1v -28h 1v -8v 19v -19h 1v 25v -17h 1v
 17h 1v -11v 8h 1v 5v -8h 1v 6v -6h 1v -14v 31h 1v -22v 11v -22h 1v 33h 1v 2v -8v 3h 1v 8v -16h 1v 2v -8v 17h 1v 13v -11h 1v -2v 13v -8h 1v -14v 3h 1v 6v -3v 5h 1v -5v 19h 1v -6v 3v -13h 1v -17v 17h 1v -3v 8h 1v 8v -16h 1v 16v -16h 1v 13h 1v -24v 22h
 1v 5v -3v 6h 1v -19h 1v 19h 1v -6h 1v 3v -3h 1v 3v -8v 5h 1v 6v -16h 1v 16v -6h 1v -5v 14h 1v -9h 1v -2v 11h 1v -3v 8h 1v -24v 8h 1v 11v -6h 1v 6v -9v 9h 2v -3v 5h 1v -5h 1v -6v 14v -8h 1v -3h 1v -5v 5h 1v 11v -5h 1v -6v 6h 1v 5h 1v -11h 1v -3v 11h
 1v -8h 1v 8v -8h 1v 8h 1v -2v 2h 1v 3v -5h 1v 2h 1v -8v 11h 1v -8v 8v -8h 1v 8h 1v -5h 1v 2h 1v -5v 8v -3h 1v -2v 2h 1v -2v 2h 1v -2h 1v 5h 1v -3v 3h 1v -3h 1v 3h 1v -14h 1v 11h 3v -2v 5h 1v -8v 8h 1v -3v 3h 2v -8h 1v 8h 1v -5v 5h 2v -8h 1v 8v -3v
 3h 1v -3v 3h 1v -3h 2v 3v -3v 3h 1v -3h 1v 3h 2v -3v 3v -5h 1v 5h 1v -3h 1v 3h 2v -3v 3h 1v -3h 1v 3v -3h 1v 3v -3h 1v -2v 5h 2v -5v 5h 2v -3h 1v 3h 2v -3v 3h 3v -3v 3h 3v -3h 1v 3h 1v -3v 3h 1v -3h 1v 3v -3h 2v 3h 1v -3v 3h 3v -3v 3h 1v -3h 1v 3h
 3v -3v 3h 3v -3v 3h 4v -3v 3h 4v -3v 3h 19v -3v 3h 30" fill="none" stroke="#000099"/>
<rect x="442" y="22" width="114" height="39" fill="white"/>
<path d="M442,61h 114" fill="none" stroke="black"/>
<path d="M556,61v -39" fill="none" stroke="black"/>
<path d="M556,22h -114" fill="none" stroke="black"/>
<path d="M442,22v 39" fill="none" stroke="black"/>
<text x="448" y="27" fill="black" font-size="6" font-family="Helvetica">
Entries 
</text>
<text x="536" y="27" fill="black" font-size="6" font-family="Helvetica">
 5367
</text>
<text x="453" y="33" fill="black" font-size="6" font-family="Helvetica">
 / ndf 
</text>
<text x="451" y="31" fill="black" font-size="4" font-family="Helvetica">
2
</text>
<text x="448" y="33" fill="black" font-size="6" font-family="Times">
&#0967;
</text>
<text x="521" y="33" fill="black" font-size="6" font-family="Helvetica">
 377.1 / 619
</text>
<text x="455" y="39" fill="black" font-size="6" font-family="Helvetica">
   
</text>
<text x="452" y="41" fill="black" font-size="4" font-family="Helvetica">
cu
</text>
<text x="448" y="39" fill="black" font-size="6" font-family="Helvetica">
N
</text>
<text x="522" y="40" fill="black" font-size="6" font-family="Helvetica">
 6.447e+00
</text>
<text x="519" y="40" fill="black" font-size="6" font-family="Times">
&#0177;
</text>
<text x="492" y="40" fill="black" font-size="6" font-family="Helvetica">
 1.713e-11 
</text>
<text x="454" y="45" fill="black" font-size="6" font-family="Helvetica">
 
</text>
<text x="450" y="47" fill="black" font-size="4" font-family="Helvetica">
cu
</text>
<text x="448" y="45" fill="black" font-size="6" font-family="Times">
&#0964;
</text>
<text x="541" y="46" fill="black" font-size="6" font-family="Helvetica">
 1.0
</text>
<text x="538" y="46" fill="black" font-size="6" font-family="Times">
&#0177;
</text>
<text x="521" y="46" fill="black" font-size="6" font-family="Helvetica">
 162.6 
</text>
<text x="453" y="52" fill="black" font-size="6" font-family="Helvetica">
    
</text>
<text x="452" y="54" fill="black" font-size="4" font-family="Helvetica">
f
</text>
<text x="448" y="52" fill="black" font-size="6" font-family="Helvetica">
N
</text>
<text x="538" y="53" fill="black" font-size="6" font-family="Helvetica">
 1.09
</text>
<text x="534" y="53" fill="black" font-size="6" font-family="Times">
&#0177;
</text>
<text x="517" y="53" fill="black" font-size="6" font-family="Helvetica">
 79.94 
</text>
<text x="451" y="58" fill="black" font-size="6" font-family="Helvetica">
 
</text>
<text x="450" y="60" fill="black" font-size="4" font-family="Helvetica">
f
</text>
<text x="448" y="58" fill="black" font-size="6" font-family="Times">
&#0964;
</text>
<text x="541" y="59" fill="black" font-size="6" font-family="Helvetica">
 0.0
</text>
<text x="538" y="59" fill="black" font-size="6" font-family="Times">
&#0177;
</text>
<text x="521" y="59" fill="black" font-size="6" font-family="Helvetica">
  2197 
</text>
<path d="M284,81v 2" fill="none" stroke="#ff0000" stroke-width="2"/>
<path d="M284,83v 3" fill="none" stroke="#ff0000" stroke-width="2"/>
<path d="M285,86v 3" fill="none" stroke="#ff0000" stroke-width="2"/>
<path d="M285,89v 3" fill="none" stroke="#ff0000" stroke-width="2"/>
<path d="M286,92v 4" fill="none" stroke="#ff0000" stroke-width="2"/>
<path d="M286,96v 2" fill="none" stroke="#ff0000" stroke-width="2"/>
<path d="M286,99v 3" fill="none" stroke="#ff0000" stroke-width="2"/>
<path d="M287,102v 3" fill="none" stroke="#ff0000" stroke-width="2"/>
<path d="M287,105v 3" fill="none" stroke="#ff0000" stroke-width="2"/>
<path d="M288,108v 3" fill="none" stroke="#ff0000" stroke-width="2"/>
<path d="M288,111v 3" fill="none" stroke="#ff0000" stroke-width="2"/>
<path d="M288,114v 3" fill="none" stroke="#ff0000" stroke-width="2"/>
<path d="M289,117v 2" fill="none" stroke="#ff0000" stroke-width="2"/>
<path d="M289,119v 3" fill="none" stroke="#ff0000" stroke-width="2"/>
<path d="M290,122v 3" fill="none" stroke="#ff0000" stroke-width="2"/>
<path d="M290,125v 2" fill="none" stroke="#ff0000" stroke-width="2"/>
<path d="M290,128v 2" fill="none" stroke="#ff0000" stroke-width="2"/>
<path d="M291,130v 3" fill="none" stroke="#ff0000" stroke-width="2"/>
<path d="M291,133v 2" fill="none" stroke="#ff0000" stroke-width="2"/>
<path d="M292,136v 2" fill="none" stroke="#ff0000" stroke-width="2"/>
<path d="M292,138v 2" fill="none" stroke="#ff0000" stroke-width="2"/>
<path d="M292,140v 3" fill="none" stroke="#ff0000" stroke-width="2"/>
<path d="M293,143v 2" fill="none" stroke="#ff0000" stroke-width="2"/>
<path d="M293,145v 2" fill="none" stroke="#ff0000" stroke-width="2"/>
<path d="M293,147v 3" fill="none" stroke="#ff0000" stroke-width="2"/>
<path d="M294,150v 2" fill="none" stroke="#ff0000" stroke-width="2"/>
<path d="M294,152v 2" fill="none" stroke="#ff0000" stroke-width="2"/>
<path d="M295,155v 2" fill="none" stroke="#ff0000" stroke-width="2"/>
<path d="M295,157v 2" fill="none" stroke="#ff0000" stroke-width="2"/>
<path d="M295,159v 2" fill="none" stroke="#ff0000" stroke-width="2"/>
<path d="M296,161v 2" fill="none" stroke="#ff0000" stroke-width="2"/>
<path d="M296,163v 2" fill="none" stroke="#ff0000" stroke-width="2"/>
<path d="M297,165v 2" fill="none" stroke="#ff0000" stroke-width="2"/>
<path d="M297,167v 2" fill="none" stroke="#ff0000" stroke-width="2"/>
<path d="M297,169v 2" fill="none" stroke="#ff0000" stroke-width="2"/>
<path d="M298,171v 2" fill="none" stroke="#ff0000" stroke-width="2"/>
<path d="M298,173v 2" fill="none" stroke="#ff0000" stroke-width="2"/>
<path d="M299,175v 2" fill="none" stroke="#ff0000" stroke-width="2"/>
<path d="M299,177v 2" fill="none" stroke="#ff0000" stroke-width="2"/>
<path d="M299,179v 2" fill="none" stroke="#ff0000" stroke-width="2"/>
<path d="M300,181v 1" fill="none" stroke="#ff0000" stroke-width="2"/>
<path d="M300,183v 1" fill="none" stroke="#ff0000" stroke-width="2"/>
<path d="M301,184v 2" fill="none" stroke="#ff0000" stroke-width="2"/>
<path d="M301,186v 2" fill="none" stroke="#ff0000" stroke-width="2"/>
<path d="M301,188v 1" fill="none" stroke="#ff0000" stroke-width="2"/>
<path d="M302,189v 2" fill="none" stroke="#ff0000" stroke-width="2"/>
<path d="M302,191v 2" fill="none" stroke="#ff0000" stroke-width="2"/>
<path d="M303,193v 1" fill="none" stroke="#ff0000" stroke-width="2"/>
<path d="M303,195v 1" fill="none" stroke="#ff0000" stroke-width="2"/>
<path d="M303,196v 1" fill="none" stroke="#ff0000" stroke-width="2"/>
<path d="M304,198v 1" fill="none" stroke="#ff0000" stroke-width="2"/>
<path d="M304,199v 2" fill="none" stroke="#ff0000" stroke-width="2"/>
<path d="M305,201v 1" fill="none" stroke="#ff0000" stroke-width="2"/>
<path d="M305,202v 1" fill="none" stroke="#ff0000" stroke-width="2"/>
<path d="M305,204v 1" fill="none" stroke="#ff0000" stroke-width="2"/>
<path d="M306,205v 1" fill="none" stroke="#ff0000" stroke-width="2"/>
<path d="M306,206v 2" fill="none" stroke="#ff0000" stroke-width="2"/>
<path d="M307,208v 1" fill="none" stroke="#ff0000" stroke-width="2"/>
<path d="M307,209v 1" fill="none" stroke="#ff0000" stroke-width="2"/>
<path d="M307,210v 2" fill="none" stroke="#ff0000" stroke-width="2"/>
<path d="M308,212v 1" fill="none" stroke="#ff0000" stroke-width="2"/>
<path d="M308,213v 1" fill="none" stroke="#ff0000" stroke-width="2"/>
<path d="M309,214v 2" fill="none" stroke="#ff0000" stroke-width="2"/>
<path d="M309,216v 1" fill="none" stroke="#ff0000" stroke-width="2"/>
<path d="M309,217v 1" fill="none" stroke="#ff0000" stroke-width="2"/>
<path d="M310,218v 2" fill="none" stroke="#ff0000" stroke-width="2"/>
<path d="M310,220v 1" fill="none" stroke="#ff0000" stroke-width="2"/>
<path d="M311,221v 1" fill="none" stroke="#ff0000" stroke-width="2"/>
<path d="M311,222v 1" fill="none" stroke="#ff0000" stroke-width="2"/>
<path d="M311,223v 1" fill="none" stroke="#ff0000" stroke-width="2"/>
<path d="M312,224v 1" fill="none" stroke="#ff0000" stroke-width="2"/>
<path d="M312,225v 1" fill="none" stroke="#ff0000" stroke-width="2"/>
<path d="M312,226v 1" fill="none" stroke="#ff0000" stroke-width="2"/>
<path d="M313,227v 1" fill="none" stroke="#ff0000" stroke-width="2"/>
<path d="M313,229" fill="none" stroke="#ff0000" stroke-width="2"/>
<path d="M314,229v 2" fill="none" stroke="#ff0000" stroke-width="2"/>
<path d="M314,231" fill="none" stroke="#ff0000" stroke-width="2"/>
<path d="M314,231v 2" fill="none" stroke="#ff0000" stroke-width="2"/>
<path d="M315,233" fill="none" stroke="#ff0000" stroke-width="2"/>
<path d="M315,233v 2" fill="none" stroke="#ff0000" stroke-width="2"/>
<path d="M316,235" fill="none" stroke="#ff0000" stroke-width="2"/>
<path d="M316,235v 2" fill="none" stroke="#ff0000" stroke-width="2"/>
<path d="M316,237" fill="none" stroke="#ff0000" stroke-width="2"/>
<path d="M317,237v 1" fill="none" stroke="#ff0000" stroke-width="2"/>
<path d="M317,238v 1" fill="none" stroke="#ff0000" stroke-width="2"/>
<path d="M318,239v 1" fill="none" stroke="#ff0000" stroke-width="2"/>
<path d="M318,240v 1" fill="none" stroke="#ff0000" stroke-width="2"/>
<path d="M318,241v 1" fill="none" stroke="#ff0000" stroke-width="2"/>
<path d="M319,242" fill="none" stroke="#ff0000" stroke-width="2"/>
<path d="M319,242v 1" fill="none" stroke="#ff0000" stroke-width="2"/>
<path d="M320,243v 1" fill="none" stroke="#ff0000" stroke-width="2"/>
<path d="M320,244v 1" fill="none" stroke="#ff0000" stroke-width="2"/>
<path d="M320,245v 1" fill="none" stroke="#ff0000" stroke-width="2"/>
<path d="M321,246" fill="none" stroke="#ff0000" stroke-width="2"/>
<path d="M321,246v 1" fill="none" stroke="#ff0000" stroke-width="2"/>
<path d="M322,247v 1" fill="none" stroke="#ff0000" stroke-width="2"/>
<path d="M322,248v 1" fill="none" stroke="#ff0000" stroke-width="2"/>
<path d="M322,249v 1" fill="none" stroke="#ff0000" stroke-width="2"/>
<path d="M323,250" fill="none" stroke="#ff0000" stroke-width="2"/>
<path d="M323,250v 1" fill="none" stroke="#ff0000" stroke-width="2"/>
<path d="M324,251v 1" fill="none" stroke="#ff0000" stroke-width="2"/>
<path d="M324,252" fill="none" stroke="#ff0000" stroke-width="2"/>
<path d="M324,252v 1" fill="none" stroke="#ff0000" stroke-width="2"/>
<path d="M325,253v 1" fill="none" stroke="#ff0000" stroke-width="2"/>
<path d="M325,254" fill="none" stroke="#ff0000" stroke-width="2"/>
<path d="M326,254v 1" fill="none" stroke="#ff0000" stroke-width="2"/>
<path d="M326,255v 1" fill="none" stroke="#ff0000" stroke-width="2"/>
<path d="M326,256" fill="none" stroke="#ff0000" stroke-width="2"/>
<path d="M327,256v 1" fill="none" stroke="#ff0000" stroke-width="2"/>
<path d="M327,257v 1" fill="none" stroke="#ff0000" stroke-width="2"/>
<path d="M328,258" fill="none" stroke="#ff0000" stroke-width="2"/>
<path d="M328,258v 1" fill="none" stroke="#ff0000" stroke-width="2"/>
<path d="M328,259" fill="none" stroke="#ff0000" stroke-width="2"/>
<path d="M329,259v 1" fill="none" stroke="#ff0000" stroke-width="2"/>
<path d="M329,260" fill="none" stroke="#ff0000" stroke-width="2"/>
<path d="M330,260v 1" fill="none" stroke="#ff0000" stroke-width="2"/>
<path d="M330,261" fill="none" stroke="#ff0000" stroke-width="2"/>
<path d="M330,261v 1" fill="none" stroke="#ff0000" stroke-width="2"/>
<path d="M331,262" fill="none" stroke="#ff0000" stroke-width="2"/>
<path d="M331,262v 1" fill="none" stroke="#ff0000" stroke-width="2"/>
<path d="M331,263" fill="none" stroke="#ff0000" stroke-width="2"/>
<path d="M332,263v 1" fill="none" stroke="#ff0000" stroke-width="2"/>
<path d="M332,264" fill="none" stroke="#ff0000" stroke-width="2"/>
<path d="M333,264v 1" fill="none" stroke="#ff0000" stroke-width="2"/>
<path d="M333,265" fill="none" stroke="#ff0000" stroke-width="2"/>
<path d="M333,265v 1" fill="none" stroke="#ff0000" stroke-width="2"/>
<path d="M334,266" fill="none" stroke="#ff0000" stroke-width="2"/>
<path d="M334,266v 1" fill="none" stroke="#ff0000" stroke-width="2"/>
<path d="M335,267" fill="none" stroke="#ff0000" stroke-width="2"/>
<path d="M335,267v 1" fill="none" stroke="#ff0000" stroke-width="2"/>
<path d="M335,268" fill="none" stroke="#ff0000" stroke-width="2"/>
<path d="M336,268v 1" fill="none" stroke="#ff0000" stroke-width="2"/>
<path d="M336,269" fill="none" stroke="#ff0000" stroke-width="2"/>
<path d="M337,269" fill="none" stroke="#ff0000" stroke-width="2"/>
<path d="M337,269v 1" fill="none" stroke="#ff0000" stroke-width="2"/>
<path d="M337,270" fill="none" stroke="#ff0000" stroke-width="2"/>
<path d="M338,270v 1" fill="none" stroke="#ff0000" stroke-width="2"/>
<path d="M338,271" fill="none" stroke="#ff0000" stroke-width="2"/>
<path d="M339,271" fill="none" stroke="#ff0000" stroke-width="2"/>
<path d="M339,271v 1" fill="none" stroke="#ff0000" stroke-width="2"/>
<path d="M339,272" fill="none" stroke="#ff0000" stroke-width="2"/>
<path d="M340,272v 1" fill="none" stroke="#ff0000" stroke-width="2"/>
<path d="M340,273z" fill="none" stroke="#ff0000" stroke-width="2"/>
<path d="M341,273z" fill="none" stroke="#ff0000" stroke-width="2"/>
<path d="M341,273" fill="none" stroke="#ff0000" stroke-width="2"/>
<path d="M341,273v 1" fill="none" stroke="#ff0000" stroke-width="2"/>
<path d="M342,274" fill="none" stroke="#ff0000" stroke-width="2"/>
<path d="M342,274v 1" fill="none" stroke="#ff0000" stroke-width="2"/>
<path d="M343,275" fill="none" stroke="#ff0000" stroke-width="2"/>
<path d="M343,275z" fill="none" stroke="#ff0000" stroke-width="2"/>
<path d="M343,275" fill="none" stroke="#ff0000" stroke-width="2"/>
<path d="M344,275v 1" fill="none" stroke="#ff0000" stroke-width="2"/>
<path d="M344,276" fill="none" stroke="#ff0000" stroke-width="2"/>
<path d="M345,276v 1" fill="none" stroke="#ff0000" stroke-width="2"/>
<path d="M345,277z" fill="none" stroke="#ff0000" stroke-width="2"/>
<path d="M345,277" fill="none" stroke="#ff0000" stroke-width="2"/>
<path d="M346,277" fill="none" stroke="#ff0000" stroke-width="2"/>
<path d="M346,277z" fill="none" stroke="#ff0000" stroke-width="2"/>
<path d="M347,277v 1" fill="none" stroke="#ff0000" stroke-width="2"/>
<path d="M347,278" fill="none" stroke="#ff0000" stroke-width="2"/>
<path d="M347,278z" fill="none" stroke="#ff0000" stroke-width="2"/>
<path d="M348,278v 1" fill="none" stroke="#ff0000" stroke-width="2"/>
<path d="M348,279" fill="none" stroke="#ff0000" stroke-width="2"/>
<path d="M349,279z" fill="none" stroke="#ff0000" stroke-width="2"/>
<path d="M349,279" fill="none" stroke="#ff0000" stroke-width="2"/>
<path d="M349,279v 1" fill="none" stroke="#ff0000" stroke-width="2"/>
<path d="M350,280z" fill="none" stroke="#ff0000" stroke-width="2"/>
<path d="M350,280" fill="none" stroke="#ff0000" stroke-width="2"/>
<path d="M350,280z" fill="none" stroke="#ff0000" stroke-width="2"/>
<path d="M351,280z" fill="none" stroke="#ff0000" stroke-width="2"/>
<path d="M351,280v 1" fill="none" stroke="#ff0000" stroke-width="2"/>
<path d="M352,281z" fill="none" stroke="#ff0000" stroke-width="2"/>
<path d="M352,281" fill="none" stroke="#ff0000" stroke-width="2"/>
<path d="M352,281z" fill="none" stroke="#ff0000" stroke-width="2"/>
<path d="M353,281v 1" fill="none" stroke="#ff0000" stroke-width="2"/>
<path d="M353,282z" fill="none" stroke="#ff0000" stroke-width="2"/>
<path d="M354,282" fill="none" stroke="#ff0000" stroke-width="2"/>
<path d="M354,282z" fill="none" stroke="#ff0000" stroke-width="2"/>
<path d="M354,282" fill="none" stroke="#ff0000" stroke-width="2"/>
<path d="M355,282z" fill="none" stroke="#ff0000" stroke-width="2"/>
<path d="M355,283z" fill="none" stroke="#ff0000" stroke-width="2"/>
<path d="M356,283z" fill="none" stroke="#ff0000" stroke-width="2"/>
<path d="M356,283" fill="none" stroke="#ff0000" stroke-width="2"/>
<path d="M356,283z" fill="none" stroke="#ff0000" stroke-width="2"/>
<path d="M357,283v 1" fill="none" stroke="#ff0000" stroke-width="2"/>
<path d="M357,284z" fill="none" stroke="#ff0000" stroke-width="2"/>
<path d="M358,284" fill="none" stroke="#ff0000" stroke-width="2"/>
<path d="M358,284z" fill="none" stroke="#ff0000" stroke-width="2"/>
<path d="M358,284" fill="none" stroke="#ff0000" stroke-width="2"/>
<path d="M359,284z" fill="none" stroke="#ff0000" stroke-width="2"/>
<path d="M359,284z" fill="none" stroke="#ff0000" stroke-width="2"/>
<path d="M360,284v 1" fill="none" stroke="#ff0000" stroke-width="2"/>
<path d="M360,285z" fill="none" stroke="#ff0000" stroke-width="2"/>
<path d="M360,285" fill="none" stroke="#ff0000" stroke-width="2"/>
<path d="M361,285z" fill="none" stroke="#ff0000" stroke-width="2"/>
<path d="M361,285z" fill="none" stroke="#ff0000" stroke-width="2"/>
<path d="M362,286z" fill="none" stroke="#ff0000" stroke-width="2"/>
<path d="M362,286z" fill="none" stroke="#ff0000" stroke-width="2"/>
<path d="M362,286" fill="none" stroke="#ff0000" stroke-width="2"/>
<path d="M363,286z" fill="none" stroke="#ff0000" stroke-width="2"/>
<path d="M363,286z" fill="none" stroke="#ff0000" stroke-width="2"/>
<path d="M364,286" fill="none" stroke="#ff0000" stroke-width="2"/>
<path d="M364,286z" fill="none" stroke="#ff0000" stroke-width="2"/>
<path d="M364,286z" fill="none" stroke="#ff0000" stroke-width="2"/>
<path d="M365,286v 1" fill="none" stroke="#ff0000" stroke-width="2"/>
<path d="M365,287z" fill="none" stroke="#ff0000" stroke-width="2"/>
<path d="M366,287z" fill="none" stroke="#ff0000" stroke-width="2"/>
<path d="M366,287" fill="none" stroke="#ff0000" stroke-width="2"/>
<path d="M366,287z" fill="none" stroke="#ff0000" stroke-width="2"/>
<path d="M367,287z" fill="none" stroke="#ff0000" stroke-width="2"/>
<path d="M367,287v 1" fill="none" stroke="#ff0000" stroke-width="2"/>
<path d="M368,288z" fill="none" stroke="#ff0000" stroke-width="2"/>
<path d="M368,288z" fill="none" stroke="#ff0000" stroke-width="2"/>
<path d="M368,288" fill="none" stroke="#ff0000" stroke-width="2"/>
<path d="M369,288z" fill="none" stroke="#ff0000" stroke-width="2"/>
<path d="M369,288z" fill="none" stroke="#ff0000" stroke-width="2"/>
<path d="M369,288z" fill="none" stroke="#ff0000" stroke-width="2"/>
<path d="M370,288" fill="none" stroke="#ff0000" stroke-width="2"/>
<path d="M370,288z" fill="none" stroke="#ff0000" stroke-width="2"/>
<path d="M371,288z" fill="none" stroke="#ff0000" stroke-width="2"/>
<path d="M371,288z" fill="none" stroke="#ff0000" stroke-width="2"/>
<path d="M371,288v 1" fill="none" stroke="#ff0000" stroke-width="2"/>
<path d="M372,289z" fill="none" stroke="#ff0000" stroke-width="2"/>
<path d="M372,289z" fill="none" stroke="#ff0000" stroke-width="2"/>
<path d="M373,289z" fill="none" stroke="#ff0000" stroke-width="2"/>
<path d="M373,289" fill="none" stroke="#ff0000" stroke-width="2"/>
<path d="M373,289z" fill="none" stroke="#ff0000" stroke-width="2"/>
<path d="M374,289z" fill="none" stroke="#ff0000" stroke-width="2"/>
<path d="M374,289z" fill="none" stroke="#ff0000" stroke-width="2"/>
<path d="M375,289v 1" fill="none" stroke="#ff0000" stroke-width="2"/>
<path d="M375,290z" fill="none" stroke="#ff0000" stroke-width="2"/>
<path d="M375,290z" fill="none" stroke="#ff0000" stroke-width="2"/>
<path d="M376,290z" fill="none" stroke="#ff0000" stroke-width="2"/>
<path d="M376,290z" fill="none" stroke="#ff0000" stroke-width="2"/>
<path d="M377,290" fill="none" stroke="#ff0000" stroke-width="2"/>
<path d="M377,290z" fill="none" stroke="#ff0000" stroke-width="2"/>
<path d="M377,290z" fill="none" stroke="#ff0000" stroke-width="2"/>
<path d="M378,290z" fill="none" stroke="#ff0000" stroke-width="2"/>
<path d="M378,290z" fill="none" stroke="#ff0000" stroke-width="2"/>
<path d="M379,290" fill="none" stroke="#ff0000" stroke-width="2"/>
<path d="M379,290z" fill="none" stroke="#ff0000" stroke-width="2"/>
<path d="M379,290z" fill="none" stroke="#ff0000" stroke-width="2"/>
<path d="M380,290z" fill="none" stroke="#ff0000" stroke-width="2"/>
<path d="M380,290z" fill="none" stroke="#ff0000" stroke-width="2"/>
<path d="M381,290v 1" fill="none" stroke="#ff0000" stroke-width="2"/>
<path d="M381,291z" fill="none" stroke="#ff0000" stroke-width="2"/>
<path d="M381,291z" fill="none" stroke="#ff0000" stroke-width="2"/>
<path d="M382,291z" fill="none" stroke="#ff0000" stroke-width="2"/>
<path d="M382,291z" fill="none" stroke="#ff0000" stroke-width="2"/>
<path d="M383,291z" fill="none" stroke="#ff0000" stroke-width="2"/>
<path d="M383,291" fill="none" stroke="#ff0000" stroke-width="2"/>
<path d="M383,291z" fill="none" stroke="#ff0000" stroke-width="2"/>
<path d="M384,291z" fill="none" stroke="#ff0000" stroke-width="2"/>
<path d="M384,291z" fill="none" stroke="#ff0000" stroke-width="2"/>
<path d="M385,291z" fill="none" stroke="#ff0000" stroke-width="2"/>
<path d="M385,291z" fill="none" stroke="#ff0000" stroke-width="2"/>
<path d="M385,291v 1" fill="none" stroke="#ff0000" stroke-width="2"/>
<path d="M386,292z" fill="none" stroke="#ff0000" stroke-width="2"/>
<path d="M386,292z" fill="none" stroke="#ff0000" stroke-width="2"/>
<path d="M387,292z" fill="none" stroke="#ff0000" stroke-width="2"/>
<path d="M387,292z" fill="none" stroke="#ff0000" stroke-width="2"/>
<path d="M387,292z" fill="none" stroke="#ff0000" stroke-width="2"/>
<path d="M388,292z" fill="none" stroke="#ff0000" stroke-width="2"/>
<path d="M388,292z" fill="none" stroke="#ff0000" stroke-width="2"/>
<path d="M388,292" fill="none" stroke="#ff0000" stroke-width="2"/>
<path d="M389,292z" fill="none" stroke="#ff0000" stroke-width="2"/>
<path d="M389,292z" fill="none" stroke="#ff0000" stroke-width="2"/>
<path d="M390,292z" fill="none" stroke="#ff0000" stroke-width="2"/>
<path d="M390,292z" fill="none" stroke="#ff0000" stroke-width="2"/>
<path d="M390,292z" fill="none" stroke="#ff0000" stroke-width="2"/>
<path d="M391,292z" fill="none" stroke="#ff0000" stroke-width="2"/>
<path d="M391,292z" fill="none" stroke="#ff0000" stroke-width="2"/>
<path d="M392,292" fill="none" stroke="#ff0000" stroke-width="2"/>
<path d="M392,292z" fill="none" stroke="#ff0000" stroke-width="2"/>
<path d="M392,292z" fill="none" stroke="#ff0000" stroke-width="2"/>
<path d="M393,292z" fill="none" stroke="#ff0000" stroke-width="2"/>
<path d="M393,292z" fill="none" stroke="#ff0000" stroke-width="2"/>
<path d="M394,292z" fill="none" stroke="#ff0000" stroke-width="2"/>
<path d="M394,292z" fill="none" stroke="#ff0000" stroke-width="2"/>
<path d="M394,292z" fill="none" stroke="#ff0000" stroke-width="2"/>
<path d="M395,292z" fill="none" stroke="#ff0000" stroke-width="2"/>
<path d="M395,292v 1" fill="none" stroke="#ff0000" stroke-width="2"/>
<path d="M396,293z" fill="none" stroke="#ff0000" stroke-width="2"/>
<path d="M396,293z" fill="none" stroke="#ff0000" stroke-width="2"/>
<path d="M396,293z" fill="none" stroke="#ff0000" stroke-width="2"/>
<path d="M397,293z" fill="none" stroke="#ff0000" stroke-width="2"/>
<path d="M397,293z" fill="none" stroke="#ff0000" stroke-width="2"/>
<path d="M398,293z" fill="none" stroke="#ff0000" stroke-width="2"/>
<path d="M398,293z" fill="none" stroke="#ff0000" stroke-width="2"/>
<path d="M398,293z" fill="none" stroke="#ff0000" stroke-width="2"/>
<path d="M399,293z" fill="none" stroke="#ff0000" stroke-width="2"/>
<path d="M399,293z" fill="none" stroke="#ff0000" stroke-width="2"/>
<path d="M400,293" fill="none" stroke="#ff0000" stroke-width="2"/>
<path d="M400,293z" fill="none" stroke="#ff0000" stroke-width="2"/>
<path d="M400,293z" fill="none" stroke="#ff0000" stroke-width="2"/>
<path d="M401,293z" fill="none" stroke="#ff0000" stroke-width="2"/>
<path d="M401,293z" fill="none" stroke="#ff0000" stroke-width="2"/>
<path d="M402,293z" fill="none" stroke="#ff0000" stroke-width="2"/>
<path d="M402,293z" fill="none" stroke="#ff0000" stroke-width="2"/>
<path d="M402,293z" fill="none" stroke="#ff0000" stroke-width="2"/>
<path d="M403,293z" fill="none" stroke="#ff0000" stroke-width="2"/>
<path d="M403,293z" fill="none" stroke="#ff0000" stroke-width="2"/>
<path d="M404,293z" fill="none" stroke="#ff0000" stroke-width="2"/>
<path d="M404,293z" fill="none" stroke="#ff0000" stroke-width="2"/>
<path d="M404,293z" fill="none" stroke="#ff0000" stroke-width="2"/>
<path d="M405,293z" fill="none" stroke="#ff0000" stroke-width="2"/>
<path d="M405,293v 1" fill="none" stroke="#ff0000" stroke-width="2"/>
<path d="M406,294z" fill="none" stroke="#ff0000" stroke-width="2"/>
<path d="M406,294z" fill="none" stroke="#ff0000" stroke-width="2"/>
<path d="M406,294z" fill="none" stroke="#ff0000" stroke-width="2"/>
<path d="M407,294z" fill="none" stroke="#ff0000" stroke-width="2"/>
<path d="M407,294z" fill="none" stroke="#ff0000" stroke-width="2"/>
<path d="M408,294z" fill="none" stroke="#ff0000" stroke-width="2"/>
<path d="M408,294z" fill="none" stroke="#ff0000" stroke-width="2"/>
<path d="M408,294z" fill="none" stroke="#ff0000" stroke-width="2"/>
<path d="M409,294z" fill="none" stroke="#ff0000" stroke-width="2"/>
<path d="M409,294z" fill="none" stroke="#ff0000" stroke-width="2"/>
<path d="M409,294z" fill="none" stroke="#ff0000" stroke-width="2"/>
<path d="M410,294z" fill="none" stroke="#ff0000" stroke-width="2"/>
<path d="M410,294z" fill="none" stroke="#ff0000" stroke-width="2"/>
<path d="M411,294z" fill="none" stroke="#ff0000" stroke-width="2"/>
<path d="M411,294z" fill="none" stroke="#ff0000" stroke-width="2"/>
<path d="M411,294z" fill="none" stroke="#ff0000" stroke-width="2"/>
<path d="M412,294" fill="none" stroke="#ff0000" stroke-width="2"/>
<path d="M412,294z" fill="none" stroke="#ff0000" stroke-width="2"/>
<path d="M413,294z" fill="none" stroke="#ff0000" stroke-width="2"/>
<path d="M413,294z" fill="none" stroke="#ff0000" stroke-width="2"/>
<path d="M413,294z" fill="none" stroke="#ff0000" stroke-width="2"/>
<path d="M414,294z" fill="none" stroke="#ff0000" stroke-width="2"/>
<path d="M414,294z" fill="none" stroke="#ff0000" stroke-width="2"/>
<path d="M415,294z" fill="none" stroke="#ff0000" stroke-width="2"/>
<path d="M415,294z" fill="none" stroke="#ff0000" stroke-width="2"/>
<path d="M415,294z" fill="none" stroke="#ff0000" stroke-width="2"/>
<path d="M416,294z" fill="none" stroke="#ff0000" stroke-width="2"/>
<path d="M416,294z" fill="none" stroke="#ff0000" stroke-width="2"/>
<path d="M417,294z" fill="none" stroke="#ff0000" stroke-width="2"/>
<path d="M417,294z" fill="none" stroke="#ff0000" stroke-width="2"/>
<path d="M417,294z" fill="none" stroke="#ff0000" stroke-width="2"/>
<path d="M418,294z" fill="none" stroke="#ff0000" stroke-width="2"/>
<path d="M418,294z" fill="none" stroke="#ff0000" stroke-width="2"/>
<path d="M419,294z" fill="none" stroke="#ff0000" stroke-width="2"/>
<path d="M419,294z" fill="none" stroke="#ff0000" stroke-width="2"/>
<path d="M419,294z" fill="none" stroke="#ff0000" stroke-width="2"/>
<path d="M420,294z" fill="none" stroke="#ff0000" stroke-width="2"/>
<path d="M420,294z" fill="none" stroke="#ff0000" stroke-width="2"/>
<path d="M421,294z" fill="none" stroke="#ff0000" stroke-width="2"/>
<path d="M421,294" fill="none" stroke="#ff0000" stroke-width="2"/>
<path d="M421,294z" fill="none" stroke="#ff0000" stroke-width="2"/>
<path d="M422,294z" fill="none" stroke="#ff0000" stroke-width="2"/>
<path d="M422,294z" fill="none" stroke="#ff0000" stroke-width="2"/>
<path d="M423,294z" fill="none" stroke="#ff0000" stroke-width="2"/>
<path d="M423,294z" fill="none" stroke="#ff0000" stroke-width="2"/>
<path d="M423,294z" fill="none" stroke="#ff0000" stroke-width="2"/>
<path d="M424,294z" fill="none" stroke="#ff0000" stroke-width="2"/>
<path d="M424,294z" fill="none" stroke="#ff0000" stroke-width="2"/>
<path d="M425,294z" fill="none" stroke="#ff0000" stroke-width="2"/>
<path d="M425,294z" fill="none" stroke="#ff0000" stroke-width="2"/>
<path d="M425,294z" fill="none" stroke="#ff0000" stroke-width="2"/>
<path d="M426,294z" fill="none" stroke="#ff0000" stroke-width="2"/>
<path d="M426,294z" fill="none" stroke="#ff0000" stroke-width="2"/>
<path d="M427,294z" fill="none" stroke="#ff0000" stroke-width="2"/>
<path d="M427,294z" fill="none" stroke="#ff0000" stroke-width="2"/>
<path d="M427,294z" fill="none" stroke="#ff0000" stroke-width="2"/>
<path d="M428,294z" fill="none" stroke="#ff0000" stroke-width="2"/>
<path d="M428,294z" fill="none" stroke="#ff0000" stroke-width="2"/>
<path d="M428,294z" fill="none" stroke="#ff0000" stroke-width="2"/>
<path d="M429,294z" fill="none" stroke="#ff0000" stroke-width="2"/>
<path d="M429,294z" fill="none" stroke="#ff0000" stroke-width="2"/>
<path d="M430,294z" fill="none" stroke="#ff0000" stroke-width="2"/>
<path d="M430,294z" fill="none" stroke="#ff0000" stroke-width="2"/>
<path d="M430,294z" fill="none" stroke="#ff0000" stroke-width="2"/>
<path d="M431,294z" fill="none" stroke="#ff0000" stroke-width="2"/>
<path d="M431,294z" fill="none" stroke="#ff0000" stroke-width="2"/>
<path d="M432,294z" fill="none" stroke="#ff0000" stroke-width="2"/>
<path d="M432,294z" fill="none" stroke="#ff0000" stroke-width="2"/>
<path d="M432,294z" fill="none" stroke="#ff0000" stroke-width="2"/>
<path d="M433,294z" fill="none" stroke="#ff0000" stroke-width="2"/>
<path d="M433,294z" fill="none" stroke="#ff0000" stroke-width="2"/>
<path d="M434,294z" fill="none" stroke="#ff0000" stroke-width="2"/>
<path d="M434,294z" fill="none" stroke="#ff0000" stroke-width="2"/>
<path d="M434,294z" fill="none" stroke="#ff0000" stroke-width="2"/>
<path d="M435,294z" fill="none" stroke="#ff0000" stroke-width="2"/>
<path d="M435,294z" fill="none" stroke="#ff0000" stroke-width="2"/>
<path d="M436,294z" fill="none" stroke="#ff0000" stroke-width="2"/>
<path d="M436,294z" fill="none" stroke="#ff0000" stroke-width="2"/>
<path d="M436,295z" fill="none" stroke="#ff0000" stroke-width="2"/>
<path d="M437,295z" fill="none" stroke="#ff0000" stroke-width="2"/>
<path d="M437,295z" fill="none" stroke="#ff0000" stroke-width="2"/>
<path d="M438,295z" fill="none" stroke="#ff0000" stroke-width="2"/>
<path d="M438,295z" fill="none" stroke="#ff0000" stroke-width="2"/>
<path d="M438,295z" fill="none" stroke="#ff0000" stroke-width="2"/>
<path d="M439,295z" fill="none" stroke="#ff0000" stroke-width="2"/>
<path d="M439,295z" fill="none" stroke="#ff0000" stroke-width="2"/>
<path d="M440,295z" fill="none" stroke="#ff0000" stroke-width="2"/>
<path d="M440,295z" fill="none" stroke="#ff0000" stroke-width="2"/>
<path d="M440,295z" fill="none" stroke="#ff0000" stroke-width="2"/>
<path d="M441,295z" fill="none" stroke="#ff0000" stroke-width="2"/>
<path d="M441,295z" fill="none" stroke="#ff0000" stroke-width="2"/>
<path d="M442,295z" fill="none" stroke="#ff0000" stroke-width="2"/>
<path d="M442,295z" fill="none" stroke="#ff0000" stroke-width="2"/>
<path d="M442,295z" fill="none" stroke="#ff0000" stroke-width="2"/>
<path d="M443,295z" fill="none" stroke="#ff0000" stroke-width="2"/>
<path d="M443,295z" fill="none" stroke="#ff0000" stroke-width="2"/>
<path d="M444,295z" fill="none" stroke="#ff0000" stroke-width="2"/>
<path d="M444,295z" fill="none" stroke="#ff0000" stroke-width="2"/>
<path d="M444,295z" fill="none" stroke="#ff0000" stroke-width="2"/>
<path d="M445,295z" fill="none" stroke="#ff0000" stroke-width="2"/>
<path d="M445,295z" fill="none" stroke="#ff0000" stroke-width="2"/>
<path d="M446,295z" fill="none" stroke="#ff0000" stroke-width="2"/>
<path d="M446,295z" fill="none" stroke="#ff0000" stroke-width="2"/>
<path d="M446,295z" fill="none" stroke="#ff0000" stroke-width="2"/>
<path d="M447,295z" fill="none" stroke="#ff0000" stroke-width="2"/>
<path d="M447,295z" fill="none" stroke="#ff0000" stroke-width="2"/>
<path d="M447,295z" fill="none" stroke="#ff0000" stroke-width="2"/>
<path d="M448,295z" fill="none" stroke="#ff0000" stroke-width="2"/>
<path d="M448,295z" fill="none" stroke="#ff0000" stroke-width="2"/>
<path d="M449,295z" fill="none" stroke="#ff0000" stroke-width="2"/>
<path d="M449,295z" fill="none" stroke="#ff0000" stroke-width="2"/>
<path d="M449,295z" fill="none" stroke="#ff0000" stroke-width="2"/>
<path d="M450,295z" fill="none" stroke="#ff0000" stroke-width="2"/>
<path d="M450,295z" fill="none" stroke="#ff0000" stroke-width="2"/>
<path d="M451,295z" fill="none" stroke="#ff0000" stroke-width="2"/>
<path d="M451,295z" fill="none" stroke="#ff0000" stroke-width="2"/>
<path d="M451,295z" fill="none" stroke="#ff0000" stroke-width="2"/>
<path d="M452,295z" fill="none" stroke="#ff0000" stroke-width="2"/>
<path d="M452,295z" fill="none" stroke="#ff0000" stroke-width="2"/>
<path d="M453,295z" fill="none" stroke="#ff0000" stroke-width="2"/>
<path d="M453,295z" fill="none" stroke="#ff0000" stroke-width="2"/>
<path d="M453,295z" fill="none" stroke="#ff0000" stroke-width="2"/>
<path d="M454,295z" fill="none" stroke="#ff0000" stroke-width="2"/>
<path d="M454,295z" fill="none" stroke="#ff0000" stroke-width="2"/>
<path d="M455,295z" fill="none" stroke="#ff0000" stroke-width="2"/>
<path d="M455,295z" fill="none" stroke="#ff0000" stroke-width="2"/>
<path d="M455,295z" fill="none" stroke="#ff0000" stroke-width="2"/>
<path d="M456,295z" fill="none" stroke="#ff0000" stroke-width="2"/>
<path d="M456,295z" fill="none" stroke="#ff0000" stroke-width="2"/>
<path d="M457,295z" fill="none" stroke="#ff0000" stroke-width="2"/>
<path d="M457,295z" fill="none" stroke="#ff0000" stroke-width="2"/>
<path d="M457,295z" fill="none" stroke="#ff0000" stroke-width="2"/>
<path d="M458,295z" fill="none" stroke="#ff0000" stroke-width="2"/>
<path d="M458,295z" fill="none" stroke="#ff0000" stroke-width="2"/>
<path d="M459,295z" fill="none" stroke="#ff0000" stroke-width="2"/>
<path d="M459,295z" fill="none" stroke="#ff0000" stroke-width="2"/>
<path d="M459,295z" fill="none" stroke="#ff0000" stroke-width="2"/>
<path d="M460,295z" fill="none" stroke="#ff0000" stroke-width="2"/>
<path d="M460,295z" fill="none" stroke="#ff0000" stroke-width="2"/>
<path d="M461,295z" fill="none" stroke="#ff0000" stroke-width="2"/>
<path d="M461,295z" fill="none" stroke="#ff0000" stroke-width="2"/>
<path d="M461,295z" fill="none" stroke="#ff0000" stroke-width="2"/>
<path d="M462,295z" fill="none" stroke="#ff0000" stroke-width="2"/>
<path d="M462,295z" fill="none" stroke="#ff0000" stroke-width="2"/>
<path d="M463,295z" fill="none" stroke="#ff0000" stroke-width="2"/>
<path d="M463,295z" fill="none" stroke="#ff0000" stroke-width="2"/>
<path d="M463,295z" fill="none" stroke="#ff0000" stroke-width="2"/>
<path d="M464,295z" fill="none" stroke="#ff0000" stroke-width="2"/>
<path d="M464,295z" fill="none" stroke="#ff0000" stroke-width="2"/>
<path d="M465,295z" fill="none" stroke="#ff0000" stroke-width="2"/>
<path d="M465,295z" fill="none" stroke="#ff0000" stroke-width="2"/>
<path d="M465,295z" fill="none" stroke="#ff0000" stroke-width="2"/>
<path d="M466,295z" fill="none" stroke="#ff0000" stroke-width="2"/>
<path d="M466,295z" fill="none" stroke="#ff0000" stroke-width="2"/>
<path d="M466,295z" fill="none" stroke="#ff0000" stroke-width="2"/>
<path d="M467,295z" fill="none" stroke="#ff0000" stroke-width="2"/>
<path d="M467,295z" fill="none" stroke="#ff0000" stroke-width="2"/>
<path d="M468,295z" fill="none" stroke="#ff0000" stroke-width="2"/>
<path d="M468,295z" fill="none" stroke="#ff0000" stroke-width="2"/>
<path d="M468,295z" fill="none" stroke="#ff0000" stroke-width="2"/>
<path d="M469,295z" fill="none" stroke="#ff0000" stroke-width="2"/>
<path d="M469,295z" fill="none" stroke="#ff0000" stroke-width="2"/>
<path d="M470,295z" fill="none" stroke="#ff0000" stroke-width="2"/>
<path d="M470,295z" fill="none" stroke="#ff0000" stroke-width="2"/>
<path d="M470,295z" fill="none" stroke="#ff0000" stroke-width="2"/>
<path d="M471,295z" fill="none" stroke="#ff0000" stroke-width="2"/>
<path d="M471,295z" fill="none" stroke="#ff0000" stroke-width="2"/>
<path d="M472,295z" fill="none" stroke="#ff0000" stroke-width="2"/>
<path d="M472,295z" fill="none" stroke="#ff0000" stroke-width="2"/>
<path d="M472,295z" fill="none" stroke="#ff0000" stroke-width="2"/>
<path d="M473,295z" fill="none" stroke="#ff0000" stroke-width="2"/>
<path d="M473,295z" fill="none" stroke="#ff0000" stroke-width="2"/>
<path d="M474,295z" fill="none" stroke="#ff0000" stroke-width="2"/>
<path d="M474,295z" fill="none" stroke="#ff0000" stroke-width="2"/>
<path d="M474,295z" fill="none" stroke="#ff0000" stroke-width="2"/>
<path d="M475,295z" fill="none" stroke="#ff0000" stroke-width="2"/>
<path d="M475,295z" fill="none" stroke="#ff0000" stroke-width="2"/>
<path d="M476,295z" fill="none" stroke="#ff0000" stroke-width="2"/>
<path d="M476,295z" fill="none" stroke="#ff0000" stroke-width="2"/>
<path d="M476,295z" fill="none" stroke="#ff0000" stroke-width="2"/>
<path d="M477,295z" fill="none" stroke="#ff0000" stroke-width="2"/>
<path d="M477,295z" fill="none" stroke="#ff0000" stroke-width="2"/>
<path d="M478,295z" fill="none" stroke="#ff0000" stroke-width="2"/>
<path d="M478,295z" fill="none" stroke="#ff0000" stroke-width="2"/>
<path d="M478,295z" fill="none" stroke="#ff0000" stroke-width="2"/>
<path d="M479,295z" fill="none" stroke="#ff0000" stroke-width="2"/>
<path d="M479,295z" fill="none" stroke="#ff0000" stroke-width="2"/>
<path d="M480,295z" fill="none" stroke="#ff0000" stroke-width="2"/>
<path d="M480,295z" fill="none" stroke="#ff0000" stroke-width="2"/>
<path d="M480,295z" fill="none" stroke="#ff0000" stroke-width="2"/>
<path d="M481,295z" fill="none" stroke="#ff0000" stroke-width="2"/>
<path d="M284,81v 3l 1, 3v 3l 1, 4v 6l 1, 3v 3l 1, 3v 6l 1, 3v 3l 1, 2v 6l 1, 3v 2l 1, 2v 6l 1, 2v 5l 1, 2v 2l 1, 2v 5l 1, 2v 2l 1, 2v 4l 1, 2v 2l 1, 2v 4l 1, 2v 1l 1, 2v 4l 1, 1v 2l 1, 1v 4l 1, 1v 2l 1, 1v 3l 1, 2v 1l 1, 1v 3l 1, 1v 2l 1, 1v 3l 1,
 1v 1l 1, 1v 2l 1, 2v 2l 1, 1v 1l 1, 1v 2l 1, 1v 1l 1, 1v 2l 1, 1v 1h 1v 2l 1, 1v 1l 1, 1v 1l 1, 1v 1l 1, 1v 1l 1, 1l 1, 1v 2h 1v 1l 1, 1v 1h 1v 1l 1, 1v 1l 1, 1h 1v 1l 1, 1v 1h 1v 1l 1, 1l 1, 1l 1, 1v 1h 1v 1h 1v 1h 1v 1h 1v 1h 1v 1h 1l 1, 1l 1, 1h
 1v 1h 1v 1h 2v 1h 1v 1h 1l 1, 1h 1l 1, 1h 1v 1h 2v 1h 2v 1h 3v 1h 1l 1, 1h 3v 1h 2l 1, 1h 3l 1, 1h 3v 1h 6v 1h 4l 1, 1h 9l 1, 1h 9l 1, 1h 30v 1h 45" fill="none" stroke="#ff0000" stroke-width="2"/>
<path d="M57,295h 453" fill="none" stroke="black"/>
<text x="436" y="317" fill="black" font-size="11" font-family="Helvetica">
TDC-TDC0 (ns)
</text>
<path d="M57,287v 8" fill="none" stroke="black"/>
<path d="M68,291v 4" fill="none" stroke="black"/>
<path d="M79,291v 4" fill="none" stroke="black"/>
<path d="M91,291v 4" fill="none" stroke="black"/>
<path d="M102,291v 4" fill="none" stroke="black"/>
<path d="M113,287v 8" fill="none" stroke="black"/>
<path d="M125,291v 4" fill="none" stroke="black"/>
<path d="M136,291v 4" fill="none" stroke="black"/>
<path d="M147,291v 4" fill="none" stroke="black"/>
<path d="M159,291v 4" fill="none" stroke="black"/>
<path d="M170,287v 8" fill="none" stroke="black"/>
<path d="M181,291v 4" fill="none" stroke="black"/>
<path d="M193,291v 4" fill="none" stroke="black"/>
<path d="M204,291v 4" fill="none" stroke="black"/>
<path d="M215,291v 4" fill="none" stroke="black"/>
<path d="M227,287v 8" fill="none" stroke="black"/>
<path d="M238,291v 4" fill="none" stroke="black"/>
<path d="M249,291v 4" fill="none" stroke="black"/>
<path d="M261,291v 4" fill="none" stroke="black"/>
<path d="M272,291v 4" fill="none" stroke="black"/>
<path d="M283,287v 8" fill="none" stroke="black"/>
<path d="M295,291v 4" fill="none" stroke="black"/>
<path d="M306,291v 4" fill="none" stroke="black"/>
<path d="M317,291v 4" fill="none" stroke="black"/>
<path d="M329,291v 4" fill="none" stroke="black"/>
<path d="M340,287v 8" fill="none" stroke="black"/>
<path d="M351,291v 4" fill="none" stroke="black"/>
<path d="M363,291v 4" fill="none" stroke="black"/>
<path d="M374,291v 4" fill="none" stroke="black"/>
<path d="M386,291v 4" fill="none" stroke="black"/>
<path d="M397,287v 8" fill="none" stroke="black"/>
<path d="M408,291v 4" fill="none" stroke="black"/>
<path d="M420,291v 4" fill="none" stroke="black"/>
<path d="M431,291v 4" fill="none" stroke="black"/>
<path d="M442,291v 4" fill="none" stroke="black"/>
<path d="M454,287v 8" fill="none" stroke="black"/>
<path d="M465,291v 4" fill="none" stroke="black"/>
<path d="M476,291v 4" fill="none" stroke="black"/>
<path d="M488,291v 4" fill="none" stroke="black"/>
<path d="M499,291v 4" fill="none" stroke="black"/>
<path d="M510,287v 8" fill="none" stroke="black"/>
<text x="40" y="306" fill="black" font-size="11" font-family="Helvetica">
-20000
</text>
<text x="97" y="306" fill="black" font-size="11" font-family="Helvetica">
-15000
</text>
<text x="153" y="306" fill="black" font-size="11" font-family="Helvetica">
-10000
</text>
<text x="213" y="306" fill="black" font-size="11" font-family="Helvetica">
-5000
</text>
<text x="281" y="306" fill="black" font-size="11" font-family="Helvetica">
0
</text>
<text x="328" y="306" fill="black" font-size="11" font-family="Helvetica">
5000
</text>
<text x="382" y="306" fill="black" font-size="11" font-family="Helvetica">
10000
</text>
<text x="439" y="306" fill="black" font-size="11" font-family="Helvetica">
15000
</text>
<text x="495" y="306" fill="black" font-size="11" font-family="Helvetica">
20000
</text>
<path d="M57,295v -262" fill="none" stroke="black"/>
<g transform="rotate(-90,29,61)">
<text x="29" y="61" fill="black" font-size="11" font-family="Helvetica">
Count
</text>
</g>
<path d="M70,295h -13" fill="none" stroke="black"/>
<path d="M63,290h -6" fill="none" stroke="black"/>
<path d="M63,284h -6" fill="none" stroke="black"/>
<path d="M63,279h -6" fill="none" stroke="black"/>
<path d="M63,273h -6" fill="none" stroke="black"/>
<path d="M70,268h -13" fill="none" stroke="black"/>
<path d="M63,262h -6" fill="none" stroke="black"/>
<path d="M63,257h -6" fill="none" stroke="black"/>
<path d="M63,251h -6" fill="none" stroke="black"/>
<path d="M63,246h -6" fill="none" stroke="black"/>
<path d="M70,240h -13" fill="none" stroke="black"/>
<path d="M63,235h -6" fill="none" stroke="black"/>
<path d="M63,229h -6" fill="none" stroke="black"/>
<path d="M63,224h -6" fill="none" stroke="black"/>
<path d="M63,218h -6" fill="none" stroke="black"/>
<path d="M70,213h -13" fill="none" stroke="black"/>
<path d="M63,207h -6" fill="none" stroke="black"/>
<path d="M63,202h -6" fill="none" stroke="black"/>
<path d="M63,196h -6" fill="none" stroke="black"/>
<path d="M63,191h -6" fill="none" stroke="black"/>
<path d="M70,185h -13" fill="none" stroke="black"/>
<path d="M63,180h -6" fill="none" stroke="black"/>
<path d="M63,174h -6" fill="none" stroke="black"/>
<path d="M63,169h -6" fill="none" stroke="black"/>
<path d="M63,163h -6" fill="none" stroke="black"/>
<path d="M70,158h -13" fill="none" stroke="black"/>
<path d="M63,153h -6" fill="none" stroke="black"/>
<path d="M63,147h -6" fill="none" stroke="black"/>
<path d="M63,142h -6" fill="none" stroke="black"/>
<path d="M63,136h -6" fill="none" stroke="black"/>
<path d="M70,131h -13" fill="none" stroke="black"/>
<path d="M63,125h -6" fill="none" stroke="black"/>
<path d="M63,120h -6" fill="none" stroke="black"/>
<path d="M63,114h -6" fill="none" stroke="black"/>
<path d="M63,109h -6" fill="none" stroke="black"/>
<path d="M70,103h -13" fill="none" stroke="black"/>
<path d="M63,98h -6" fill="none" stroke="black"/>
<path d="M63,92h -6" fill="none" stroke="black"/>
<path d="M63,87h -6" fill="none" stroke="black"/>
<path d="M63,81h -6" fill="none" stroke="black"/>
<path d="M70,76h -13" fill="none" stroke="black"/>
<path d="M63,70h -6" fill="none" stroke="black"/>
<path d="M63,65h -6" fill="none" stroke="black"/>
<path d="M63,59h -6" fill="none" stroke="black"/>
<path d="M63,54h -6" fill="none" stroke="black"/>
<path d="M70,48h -13" fill="none" stroke="black"/>
<path d="M70,48h -13" fill="none" stroke="black"/>
<path d="M63,43h -6" fill="none" stroke="black"/>
<path d="M63,37h -6" fill="none" stroke="black"/>
<text x="48" y="299" fill="black" font-size="11" font-family="Helvetica">
0
</text>
<text x="42" y="271" fill="black" font-size="11" font-family="Helvetica">
10
</text>
<text x="42" y="244" fill="black" font-size="11" font-family="Helvetica">
20
</text>
<text x="42" y="217" fill="black" font-size="11" font-family="Helvetica">
30
</text>
<text x="42" y="189" fill="black" font-size="11" font-family="Helvetica">
40
</text>
<text x="42" y="162" fill="black" font-size="11" font-family="Helvetica">
50
</text>
<text x="42" y="134" fill="black" font-size="11" font-family="Helvetica">
60
</text>
<text x="42" y="107" fill="black" font-size="11" font-family="Helvetica">
70
</text>
<text x="42" y="79" fill="black" font-size="11" font-family="Helvetica">
80
</text>
<text x="42" y="52" fill="black" font-size="11" font-family="Helvetica">
90
</text>
<rect x="442" y="22" width="114" height="39" fill="white"/>
<path d="M442,61h 114" fill="none" stroke="black"/>
<path d="M556,61v -39" fill="none" stroke="black"/>
<path d="M556,22h -114" fill="none" stroke="black"/>
<path d="M442,22v 39" fill="none" stroke="black"/>
<text x="448" y="27" fill="black" font-size="6" font-family="Helvetica">
Entries 
</text>
<text x="536" y="27" fill="black" font-size="6" font-family="Helvetica">
 5367
</text>
<text x="453" y="33" fill="black" font-size="6" font-family="Helvetica">
 / ndf 
</text>
<text x="451" y="31" fill="black" font-size="4" font-family="Helvetica">
2
</text>
<text x="448" y="33" fill="black" font-size="6" font-family="Times">
&#0967;
</text>
<text x="521" y="33" fill="black" font-size="6" font-family="Helvetica">
 377.1 / 619
</text>
<text x="455" y="39" fill="black" font-size="6" font-family="Helvetica">
   
</text>
<text x="452" y="41" fill="black" font-size="4" font-family="Helvetica">
cu
</text>
<text x="448" y="39" fill="black" font-size="6" font-family="Helvetica">
N
</text>
<text x="522" y="40" fill="black" font-size="6" font-family="Helvetica">
 6.447e+00
</text>
<text x="519" y="40" fill="black" font-size="6" font-family="Times">
&#0177;
</text>
<text x="492" y="40" fill="black" font-size="6" font-family="Helvetica">
 1.713e-11 
</text>
<text x="454" y="45" fill="black" font-size="6" font-family="Helvetica">
 
</text>
<text x="450" y="47" fill="black" font-size="4" font-family="Helvetica">
cu
</text>
<text x="448" y="45" fill="black" font-size="6" font-family="Times">
&#0964;
</text>
<text x="541" y="46" fill="black" font-size="6" font-family="Helvetica">
 1.0
</text>
<text x="538" y="46" fill="black" font-size="6" font-family="Times">
&#0177;
</text>
<text x="521" y="46" fill="black" font-size="6" font-family="Helvetica">
 162.6 
</text>
<text x="453" y="52" fill="black" font-size="6" font-family="Helvetica">
    
</text>
<text x="452" y="54" fill="black" font-size="4" font-family="Helvetica">
f
</text>
<text x="448" y="52" fill="black" font-size="6" font-family="Helvetica">
N
</text>
<text x="538" y="53" fill="black" font-size="6" font-family="Helvetica">
 1.09
</text>
<text x="534" y="53" fill="black" font-size="6" font-family="Times">
&#0177;
</text>
<text x="517" y="53" fill="black" font-size="6" font-family="Helvetica">
 79.94 
</text>
<text x="451" y="58" fill="black" font-size="6" font-family="Helvetica">
 
</text>
<text x="450" y="60" fill="black" font-size="4" font-family="Helvetica">
f
</text>
<text x="448" y="58" fill="black" font-size="6" font-family="Times">
&#0964;
</text>
<text x="541" y="59" fill="black" font-size="6" font-family="Helvetica">
 0.0
</text>
<text x="538" y="59" fill="black" font-size="6" font-family="Times">
&#0177;
</text>
<text x="521" y="59" fill="black" font-size="6" font-family="Helvetica">
  2197 
</text>
<text x="180" y="16" fill="black" font-size="15" font-family="Helvetica">
5mm_Air_combined_5mm_Air
</text></svg>
