<?xml version="1.0" standalone="no"?>
<svg width="567" height="328" viewBox="0 0 567 328" xmlns="http://www.w3.org/2000/svg">
<title>
images/analysis_g4bl_sin_phase_exec_d4_d5_l_bound50bin_8tight/counts/sim_muon_count_in_cu.svg
</title>
<desc>
Creator: ROOT Version 5.34/09
CreationDate: Tue Sep 17 01:52:03 2013</desc>
<defs>
</defs>
<rect x="0" y="0" width="567" height="328" fill="white"/>
<rect x="57" y="33" width="453" height="262" fill="white"/>
<rect x="57" y="33" width="453" height="262" fill="none" stroke="black"/>
<path d="M113,216v -52" fill="none" stroke="#000099"/>
<path d="M113,164v -51" fill="none" stroke="#000099"/>
<path d="M57,164h 56" fill="none" stroke="#000099"/>
<path d="M113,164h 57" fill="none" stroke="#000099"/>
<g stroke="black" stroke-width="1" fill="none">
<line x1="112" y1="164" x2="113" y2="164"/>
</g>
<path d="M227,211v -47" fill="none" stroke="#000099"/>
<path d="M227,164v -47" fill="none" stroke="#000099"/>
<path d="M170,164h 57" fill="none" stroke="#000099"/>
<path d="M227,164h 56" fill="none" stroke="#000099"/>
<g stroke="black" stroke-width="1" fill="none">
<line x1="226" y1="164" x2="227" y2="164"/>
</g>
<path d="M340,283v -119" fill="none" stroke="#000099"/>
<path d="M340,164v -119" fill="none" stroke="#000099"/>
<path d="M283,164h 57" fill="none" stroke="#000099"/>
<path d="M340,164h 57" fill="none" stroke="#000099"/>
<g stroke="black" stroke-width="1" fill="none">
<line x1="339" y1="164" x2="340" y2="164"/>
</g>
<path d="M454,244v -80" fill="none" stroke="#000099"/>
<path d="M454,164v -79" fill="none" stroke="#000099"/>
<path d="M397,164h 57" fill="none" stroke="#000099"/>
<path d="M454,164h 56" fill="none" stroke="#000099"/>
<g stroke="black" stroke-width="1" fill="none">
<line x1="453" y1="164" x2="454" y2="164"/>
</g>
<path d="M57,295h 453" fill="none" stroke="black"/>
<text x="466" y="317" fill="black" font-size="11" font-family="Helvetica">
Degrader
</text>
<text x="111" y="304" fill="black" font-size="7" font-family="Helvetica">
0
</text>
<text x="221" y="304" fill="black" font-size="7" font-family="Helvetica">
0.5
</text>
<text x="338" y="304" fill="black" font-size="7" font-family="Helvetica">
1
</text>
<text x="451" y="304" fill="black" font-size="7" font-family="Helvetica">
5
</text>
<path d="M57,287v 8" fill="none" stroke="black"/>
<path d="M170,287v 8" fill="none" stroke="black"/>
<path d="M283,287v 8" fill="none" stroke="black"/>
<path d="M397,287v 8" fill="none" stroke="black"/>
<path d="M510,287v 8" fill="none" stroke="black"/>
<path d="M57,295v -262" fill="none" stroke="black"/>
<g transform="rotate(-90,29,88)">
<text x="29" y="88" fill="black" font-size="11" font-family="Helvetica">
Muon count
</text>
</g>
<path d="M70,271h -13" fill="none" stroke="black"/>
<path d="M63,263h -6" fill="none" stroke="black"/>
<path d="M63,256h -6" fill="none" stroke="black"/>
<path d="M63,249h -6" fill="none" stroke="black"/>
<path d="M63,242h -6" fill="none" stroke="black"/>
<path d="M70,235h -13" fill="none" stroke="black"/>
<path d="M63,228h -6" fill="none" stroke="black"/>
<path d="M63,221h -6" fill="none" stroke="black"/>
<path d="M63,214h -6" fill="none" stroke="black"/>
<path d="M63,207h -6" fill="none" stroke="black"/>
<path d="M70,200h -13" fill="none" stroke="black"/>
<path d="M63,193h -6" fill="none" stroke="black"/>
<path d="M63,186h -6" fill="none" stroke="black"/>
<path d="M63,179h -6" fill="none" stroke="black"/>
<path d="M63,171h -6" fill="none" stroke="black"/>
<path d="M70,164h -13" fill="none" stroke="black"/>
<path d="M63,157h -6" fill="none" stroke="black"/>
<path d="M63,150h -6" fill="none" stroke="black"/>
<path d="M63,143h -6" fill="none" stroke="black"/>
<path d="M63,136h -6" fill="none" stroke="black"/>
<path d="M70,129h -13" fill="none" stroke="black"/>
<path d="M63,122h -6" fill="none" stroke="black"/>
<path d="M63,115h -6" fill="none" stroke="black"/>
<path d="M63,108h -6" fill="none" stroke="black"/>
<path d="M63,101h -6" fill="none" stroke="black"/>
<path d="M70,94h -13" fill="none" stroke="black"/>
<path d="M63,87h -6" fill="none" stroke="black"/>
<path d="M63,79h -6" fill="none" stroke="black"/>
<path d="M63,72h -6" fill="none" stroke="black"/>
<path d="M63,65h -6" fill="none" stroke="black"/>
<path d="M70,58h -13" fill="none" stroke="black"/>
<path d="M70,271h -13" fill="none" stroke="black"/>
<path d="M63,278h -6" fill="none" stroke="black"/>
<path d="M63,285h -6" fill="none" stroke="black"/>
<path d="M63,292h -6" fill="none" stroke="black"/>
<path d="M70,58h -13" fill="none" stroke="black"/>
<path d="M63,51h -6" fill="none" stroke="black"/>
<path d="M63,44h -6" fill="none" stroke="black"/>
<path d="M63,37h -6" fill="none" stroke="black"/>
<text x="39" y="274" fill="black" font-size="11" font-family="Helvetica">
-30
</text>
<text x="39" y="239" fill="black" font-size="11" font-family="Helvetica">
-20
</text>
<text x="39" y="204" fill="black" font-size="11" font-family="Helvetica">
-10
</text>
<text x="48" y="168" fill="black" font-size="11" font-family="Helvetica">
0
</text>
<text x="42" y="133" fill="black" font-size="11" font-family="Helvetica">
10
</text>
<text x="42" y="97" fill="black" font-size="11" font-family="Helvetica">
20
</text>
<text x="42" y="62" fill="black" font-size="11" font-family="Helvetica">
30
</text>
<text x="139" y="16" fill="black" font-size="16" font-family="Helvetica">
Simulated count of muons decaying in cu
</text>
<rect x="442" y="22" width="114" height="39" fill="white"/>
<path d="M442,61h 114" fill="none" stroke="black"/>
<path d="M556,61v -39" fill="none" stroke="black"/>
<path d="M556,22h -114" fill="none" stroke="black"/>
<path d="M442,22v 39" fill="none" stroke="black"/>
<text x="448" y="47" fill="black" font-size="16" font-family="Helvetica">
Entries 
</text>
<text x="536" y="47" fill="black" font-size="16" font-family="Helvetica">
 4
</text>
<text x="139" y="16" fill="black" font-size="16" font-family="Helvetica">
Simulated count of muons decaying in cu
</text></svg>
