<?xml version="1.0" standalone="no"?>
<svg width="567" height="328" viewBox="0 0 567 328" xmlns="http://www.w3.org/2000/svg">
<title>
images/analysis_g4bl_sin_phase_tight/fits/5mm_Aluminium_combined_5mm_Aluminium.svg
</title>
<desc>
Creator: ROOT Version 5.34/09
CreationDate: Fri Sep  6 21:53:29 2013</desc>
<defs>
</defs>
<rect x="0" y="0" width="567" height="328" fill="white"/>
<rect x="57" y="33" width="453" height="262" fill="white"/>
<rect x="57" y="33" width="453" height="262" fill="none" stroke="black"/>
<rect x="57" y="33" width="453" height="262" fill="white"/>
<rect x="57" y="33" width="453" height="262" fill="none" stroke="black"/>
<path d="M57,295h 227v -208v 50h 1v -17v 25v -33h 1v -8v 83v -50h 1v -67v 59v -84v 109h 1v -50v 75v -67h 1v 75v -117v 109v -67h 1v 50v -17v 59h 1v -59v 9v -50v 83v -58h 1v 100v -125v 66h 1v -8v 8v -8v 42h 1v 8v -117v 109h 1v -42v 25v -83v 75h 1v 66v
 -33v 17h 1v -100v 83h 1v 17v -59v 59v -9h 1v -33v 25v -33v 8h 1v -17v 42v -50v 50h 1v -58v 83h 1v -75v 67h 1v 16v -41v 8v -8h 1v 41v -58v 25h 1v 17v -42v 67v -67v 75h 1v -67v 50h 1v -33v 33v -50v 50v -16v 16h 1v -25v 42v -25h 1v -17v 42v -33v 16v
 -16h 1v -34v 59v -42h 1v 42v -9v 17v -50h 1v 8v -25v 84v -42h 1v -17v 17v -8v 33v -17h 1v -25v 34v -25v 41v -50h 1v 34v -42v 42v -17h 1v 25v -42v 42v -50h 1v -8v 66v -75v 34h 1v 8v -8v 25v -42v 8h 1v 59v -25v 16v -16h 1v -34v 42v -33h 1v 50v -17v 8v
 -16h 1v -9v 42v -50h 1v 33v -33v 33v -25v 9h 1v -9v 34h 1v 8v -33v 25v -25h 1v -17v 50h 1v -17v 9v -17v 17h 1v -25v 16v -16v 33v -17h 1v -8v 17v -42h 1v 33v -33v 50v -17v 9h 1v -42v 50v -25v 17h 1v -9v 17v -33v 25h 1v -42v 50v -33h 1v 25v -17v 8v
 -25v 42v -8h 1v -25v 16h 1v -16v 41v -33v 25h 1v -33v 8h 1v 17v -34v 42h 1v -25v 33v -16v 8h 1v -25v 33v -58v 33v -16h 1v 16v -16v 33v -17h 1v 17v -8v 8v -17v 9h 1v 8v -17h 1v 25v -50v 50h 1v -41v 33v -17h 1v -16v 41v -33v 25h 1v 8v -33v 25v -8h 1v
 -17v 33v -25v 25v -33v 25h 1v -8v 16v -16v 8h 1v 8v -33v 17v -9v 17h 1v 8v -16v 8v -42v 25h 1v 25v -8h 1v -42v 42v -8h 1v 8h 1v -17v 17v -8h 1v 16v -16v 16h 1v -33v 25v -17v 9h 1v 8v -8v 16h 1v -8v 8v -16v 8h 1v 8v -16v 8h 1v 8v -8v 8v -8h 1v 8v -8v
 8h 1v -8v 8v -16v 16h 1v -8v 8v -8v 8h 1v -16v 16v -25v 25v -25h 1v 25h 1v -8v 8v -16v 16h 1v -8v 8v -8h 1v 8v -8v 8v -25v 25h 1v -8v 8h 1v -8v 8h 1v -8h 1v -8v 16v -8h 1v 8v -8v 8h 1v -8v 8h 1v -16v 16h 1v -8v 8v -8v 8v -8h 1v 8v -8v 8v -8v 8h 2v
 -25v 25h 1v -8v 8h 2v -25v 25v -8v 8h 1v -16v 16h 1v -8v 8h 1v -8v 8v -8v 8v -8h 1v 8v -16h 1v 16h 1v -8v 8h 1v -8v 8v -8h 1v 8v -8v 8h 1v -8h 1v 8h 1v -8v 8h 3v -8v 8h 1v -8h 1v 8v -8v 8h 3v -8v 8h 1v -16v 16h 6v -8v 8v -8h 1v 8h 2v -8h 1v 8v -8v
 8h 3v -8v 8h 1v -8v 8h 3v -8v 8h 1v -8h 1v 8h 1v -8v 8h 1v -8v 8h 7v -16h 1v 16h 3v -8v 8h 2v -8v 8h 3v -8v 8h 24v -8v 8h 28v -8v 8h 16v -8h 1v 8h 1" fill="none" stroke="#000099"/>
<rect x="442" y="22" width="114" height="39" fill="white"/>
<path d="M442,61h 114" fill="none" stroke="black"/>
<path d="M556,61v -39" fill="none" stroke="black"/>
<path d="M556,22h -114" fill="none" stroke="black"/>
<path d="M442,22v 39" fill="none" stroke="black"/>
<text x="448" y="27" fill="black" font-size="6" font-family="Helvetica">
Entries 
</text>
<text x="536" y="27" fill="black" font-size="6" font-family="Helvetica">
 3039
</text>
<text x="453" y="33" fill="black" font-size="6" font-family="Helvetica">
 / ndf 
</text>
<text x="451" y="31" fill="black" font-size="4" font-family="Helvetica">
2
</text>
<text x="448" y="33" fill="black" font-size="6" font-family="Times">
&#0967;
</text>
<text x="518" y="33" fill="black" font-size="6" font-family="Helvetica">
 576.3 / 1243
</text>
<text x="455" y="39" fill="black" font-size="6" font-family="Helvetica">
   
</text>
<text x="452" y="41" fill="black" font-size="4" font-family="Helvetica">
cu
</text>
<text x="448" y="39" fill="black" font-size="6" font-family="Helvetica">
N
</text>
<text x="523" y="40" fill="black" font-size="6" font-family="Helvetica">
 4.164e+01
</text>
<text x="520" y="40" fill="black" font-size="6" font-family="Times">
&#0177;
</text>
<text x="492" y="40" fill="black" font-size="6" font-family="Helvetica">
 5.699e-12 
</text>
<text x="454" y="45" fill="black" font-size="6" font-family="Helvetica">
 
</text>
<text x="450" y="47" fill="black" font-size="4" font-family="Helvetica">
cu
</text>
<text x="448" y="45" fill="black" font-size="6" font-family="Times">
&#0964;
</text>
<text x="541" y="46" fill="black" font-size="6" font-family="Helvetica">
 1.5
</text>
<text x="538" y="46" fill="black" font-size="6" font-family="Times">
&#0177;
</text>
<text x="521" y="46" fill="black" font-size="6" font-family="Helvetica">
 164.5 
</text>
<text x="453" y="52" fill="black" font-size="6" font-family="Helvetica">
    
</text>
<text x="452" y="54" fill="black" font-size="4" font-family="Helvetica">
f
</text>
<text x="448" y="52" fill="black" font-size="6" font-family="Helvetica">
N
</text>
<text x="538" y="53" fill="black" font-size="6" font-family="Helvetica">
 0.37
</text>
<text x="534" y="53" fill="black" font-size="6" font-family="Times">
&#0177;
</text>
<text x="517" y="53" fill="black" font-size="6" font-family="Helvetica">
 22.62 
</text>
<text x="451" y="58" fill="black" font-size="6" font-family="Helvetica">
 
</text>
<text x="450" y="60" fill="black" font-size="4" font-family="Helvetica">
f
</text>
<text x="448" y="58" fill="black" font-size="6" font-family="Times">
&#0964;
</text>
<text x="541" y="59" fill="black" font-size="6" font-family="Helvetica">
 0.0
</text>
<text x="538" y="59" fill="black" font-size="6" font-family="Times">
&#0177;
</text>
<text x="521" y="59" fill="black" font-size="6" font-family="Helvetica">
  2197 
</text>
<path d="M284,111v 2" fill="none" stroke="#ff0000" stroke-width="2"/>
<path d="M284,113v 2" fill="none" stroke="#ff0000" stroke-width="2"/>
<path d="M285,115v 3" fill="none" stroke="#ff0000" stroke-width="2"/>
<path d="M285,118v 3" fill="none" stroke="#ff0000" stroke-width="2"/>
<path d="M286,121v 3" fill="none" stroke="#ff0000" stroke-width="2"/>
<path d="M286,124v 2" fill="none" stroke="#ff0000" stroke-width="2"/>
<path d="M286,126v 3" fill="none" stroke="#ff0000" stroke-width="2"/>
<path d="M287,129v 3" fill="none" stroke="#ff0000" stroke-width="2"/>
<path d="M287,132v 2" fill="none" stroke="#ff0000" stroke-width="2"/>
<path d="M288,134v 3" fill="none" stroke="#ff0000" stroke-width="2"/>
<path d="M288,137v 2" fill="none" stroke="#ff0000" stroke-width="2"/>
<path d="M288,140v 2" fill="none" stroke="#ff0000" stroke-width="2"/>
<path d="M289,142v 2" fill="none" stroke="#ff0000" stroke-width="2"/>
<path d="M289,144v 3" fill="none" stroke="#ff0000" stroke-width="2"/>
<path d="M290,147v 2" fill="none" stroke="#ff0000" stroke-width="2"/>
<path d="M290,149v 2" fill="none" stroke="#ff0000" stroke-width="2"/>
<path d="M290,151v 2" fill="none" stroke="#ff0000" stroke-width="2"/>
<path d="M291,153v 3" fill="none" stroke="#ff0000" stroke-width="2"/>
<path d="M291,156v 2" fill="none" stroke="#ff0000" stroke-width="2"/>
<path d="M292,158v 2" fill="none" stroke="#ff0000" stroke-width="2"/>
<path d="M292,160v 2" fill="none" stroke="#ff0000" stroke-width="2"/>
<path d="M292,162v 2" fill="none" stroke="#ff0000" stroke-width="2"/>
<path d="M293,164v 2" fill="none" stroke="#ff0000" stroke-width="2"/>
<path d="M293,166v 2" fill="none" stroke="#ff0000" stroke-width="2"/>
<path d="M293,168v 2" fill="none" stroke="#ff0000" stroke-width="2"/>
<path d="M294,170v 2" fill="none" stroke="#ff0000" stroke-width="2"/>
<path d="M294,172v 2" fill="none" stroke="#ff0000" stroke-width="2"/>
<path d="M295,174v 2" fill="none" stroke="#ff0000" stroke-width="2"/>
<path d="M295,176v 2" fill="none" stroke="#ff0000" stroke-width="2"/>
<path d="M295,178v 2" fill="none" stroke="#ff0000" stroke-width="2"/>
<path d="M296,180v 2" fill="none" stroke="#ff0000" stroke-width="2"/>
<path d="M296,182v 1" fill="none" stroke="#ff0000" stroke-width="2"/>
<path d="M297,183v 2" fill="none" stroke="#ff0000" stroke-width="2"/>
<path d="M297,185v 2" fill="none" stroke="#ff0000" stroke-width="2"/>
<path d="M297,187v 2" fill="none" stroke="#ff0000" stroke-width="2"/>
<path d="M298,189v 1" fill="none" stroke="#ff0000" stroke-width="2"/>
<path d="M298,191v 1" fill="none" stroke="#ff0000" stroke-width="2"/>
<path d="M299,192v 2" fill="none" stroke="#ff0000" stroke-width="2"/>
<path d="M299,194v 1" fill="none" stroke="#ff0000" stroke-width="2"/>
<path d="M299,195v 2" fill="none" stroke="#ff0000" stroke-width="2"/>
<path d="M300,197v 2" fill="none" stroke="#ff0000" stroke-width="2"/>
<path d="M300,199v 1" fill="none" stroke="#ff0000" stroke-width="2"/>
<path d="M301,200v 1" fill="none" stroke="#ff0000" stroke-width="2"/>
<path d="M301,201v 2" fill="none" stroke="#ff0000" stroke-width="2"/>
<path d="M301,203v 1" fill="none" stroke="#ff0000" stroke-width="2"/>
<path d="M302,204v 2" fill="none" stroke="#ff0000" stroke-width="2"/>
<path d="M302,206v 1" fill="none" stroke="#ff0000" stroke-width="2"/>
<path d="M303,207v 1" fill="none" stroke="#ff0000" stroke-width="2"/>
<path d="M303,209v 1" fill="none" stroke="#ff0000" stroke-width="2"/>
<path d="M303,210v 1" fill="none" stroke="#ff0000" stroke-width="2"/>
<path d="M304,211v 1" fill="none" stroke="#ff0000" stroke-width="2"/>
<path d="M304,213v 1" fill="none" stroke="#ff0000" stroke-width="2"/>
<path d="M305,214v 1" fill="none" stroke="#ff0000" stroke-width="2"/>
<path d="M305,215v 1" fill="none" stroke="#ff0000" stroke-width="2"/>
<path d="M305,216v 2" fill="none" stroke="#ff0000" stroke-width="2"/>
<path d="M306,218v 1" fill="none" stroke="#ff0000" stroke-width="2"/>
<path d="M306,219v 1" fill="none" stroke="#ff0000" stroke-width="2"/>
<path d="M307,220v 1" fill="none" stroke="#ff0000" stroke-width="2"/>
<path d="M307,222" fill="none" stroke="#ff0000" stroke-width="2"/>
<path d="M307,222v 1" fill="none" stroke="#ff0000" stroke-width="2"/>
<path d="M308,223v 2" fill="none" stroke="#ff0000" stroke-width="2"/>
<path d="M308,225v 1" fill="none" stroke="#ff0000" stroke-width="2"/>
<path d="M309,226v 1" fill="none" stroke="#ff0000" stroke-width="2"/>
<path d="M309,227v 1" fill="none" stroke="#ff0000" stroke-width="2"/>
<path d="M309,228v 1" fill="none" stroke="#ff0000" stroke-width="2"/>
<path d="M310,229v 1" fill="none" stroke="#ff0000" stroke-width="2"/>
<path d="M310,230v 1" fill="none" stroke="#ff0000" stroke-width="2"/>
<path d="M311,231v 1" fill="none" stroke="#ff0000" stroke-width="2"/>
<path d="M311,232v 1" fill="none" stroke="#ff0000" stroke-width="2"/>
<path d="M311,233v 1" fill="none" stroke="#ff0000" stroke-width="2"/>
<path d="M312,234v 1" fill="none" stroke="#ff0000" stroke-width="2"/>
<path d="M312,235v 1" fill="none" stroke="#ff0000" stroke-width="2"/>
<path d="M312,236v 1" fill="none" stroke="#ff0000" stroke-width="2"/>
<path d="M313,237v 1" fill="none" stroke="#ff0000" stroke-width="2"/>
<path d="M313,238v 1" fill="none" stroke="#ff0000" stroke-width="2"/>
<path d="M314,239v 1" fill="none" stroke="#ff0000" stroke-width="2"/>
<path d="M314,240v 1" fill="none" stroke="#ff0000" stroke-width="2"/>
<path d="M314,241" fill="none" stroke="#ff0000" stroke-width="2"/>
<path d="M315,241v 1" fill="none" stroke="#ff0000" stroke-width="2"/>
<path d="M315,242v 1" fill="none" stroke="#ff0000" stroke-width="2"/>
<path d="M316,243v 1" fill="none" stroke="#ff0000" stroke-width="2"/>
<path d="M316,244" fill="none" stroke="#ff0000" stroke-width="2"/>
<path d="M316,245" fill="none" stroke="#ff0000" stroke-width="2"/>
<path d="M317,246" fill="none" stroke="#ff0000" stroke-width="2"/>
<path d="M317,246v 1" fill="none" stroke="#ff0000" stroke-width="2"/>
<path d="M318,247v 1" fill="none" stroke="#ff0000" stroke-width="2"/>
<path d="M318,248" fill="none" stroke="#ff0000" stroke-width="2"/>
<path d="M318,248v 1" fill="none" stroke="#ff0000" stroke-width="2"/>
<path d="M319,249v 1" fill="none" stroke="#ff0000" stroke-width="2"/>
<path d="M319,250v 1" fill="none" stroke="#ff0000" stroke-width="2"/>
<path d="M320,251" fill="none" stroke="#ff0000" stroke-width="2"/>
<path d="M320,251v 1" fill="none" stroke="#ff0000" stroke-width="2"/>
<path d="M320,252v 1" fill="none" stroke="#ff0000" stroke-width="2"/>
<path d="M321,253v 1" fill="none" stroke="#ff0000" stroke-width="2"/>
<path d="M321,254" fill="none" stroke="#ff0000" stroke-width="2"/>
<path d="M322,254v 1" fill="none" stroke="#ff0000" stroke-width="2"/>
<path d="M322,255" fill="none" stroke="#ff0000" stroke-width="2"/>
<path d="M322,256" fill="none" stroke="#ff0000" stroke-width="2"/>
<path d="M323,256v 1" fill="none" stroke="#ff0000" stroke-width="2"/>
<path d="M323,257" fill="none" stroke="#ff0000" stroke-width="2"/>
<path d="M324,257v 1" fill="none" stroke="#ff0000" stroke-width="2"/>
<path d="M324,258" fill="none" stroke="#ff0000" stroke-width="2"/>
<path d="M324,258v 1" fill="none" stroke="#ff0000" stroke-width="2"/>
<path d="M325,259v 1" fill="none" stroke="#ff0000" stroke-width="2"/>
<path d="M325,260" fill="none" stroke="#ff0000" stroke-width="2"/>
<path d="M326,260v 1" fill="none" stroke="#ff0000" stroke-width="2"/>
<path d="M326,261" fill="none" stroke="#ff0000" stroke-width="2"/>
<path d="M326,261v 1" fill="none" stroke="#ff0000" stroke-width="2"/>
<path d="M327,262" fill="none" stroke="#ff0000" stroke-width="2"/>
<path d="M327,262v 1" fill="none" stroke="#ff0000" stroke-width="2"/>
<path d="M328,263" fill="none" stroke="#ff0000" stroke-width="2"/>
<path d="M328,263v 1" fill="none" stroke="#ff0000" stroke-width="2"/>
<path d="M328,264" fill="none" stroke="#ff0000" stroke-width="2"/>
<path d="M329,264v 1" fill="none" stroke="#ff0000" stroke-width="2"/>
<path d="M329,265" fill="none" stroke="#ff0000" stroke-width="2"/>
<path d="M330,265v 1" fill="none" stroke="#ff0000" stroke-width="2"/>
<path d="M330,266" fill="none" stroke="#ff0000" stroke-width="2"/>
<path d="M330,266v 1" fill="none" stroke="#ff0000" stroke-width="2"/>
<path d="M331,267" fill="none" stroke="#ff0000" stroke-width="2"/>
<path d="M331,267" fill="none" stroke="#ff0000" stroke-width="2"/>
<path d="M331,267v 1" fill="none" stroke="#ff0000" stroke-width="2"/>
<path d="M332,268" fill="none" stroke="#ff0000" stroke-width="2"/>
<path d="M332,268v 1" fill="none" stroke="#ff0000" stroke-width="2"/>
<path d="M333,269" fill="none" stroke="#ff0000" stroke-width="2"/>
<path d="M333,269" fill="none" stroke="#ff0000" stroke-width="2"/>
<path d="M333,269v 1" fill="none" stroke="#ff0000" stroke-width="2"/>
<path d="M334,270z" fill="none" stroke="#ff0000" stroke-width="2"/>
<path d="M334,271z" fill="none" stroke="#ff0000" stroke-width="2"/>
<path d="M335,271z" fill="none" stroke="#ff0000" stroke-width="2"/>
<path d="M335,271" fill="none" stroke="#ff0000" stroke-width="2"/>
<path d="M335,271v 1" fill="none" stroke="#ff0000" stroke-width="2"/>
<path d="M336,272" fill="none" stroke="#ff0000" stroke-width="2"/>
<path d="M336,272v 1" fill="none" stroke="#ff0000" stroke-width="2"/>
<path d="M337,273" fill="none" stroke="#ff0000" stroke-width="2"/>
<path d="M337,273" fill="none" stroke="#ff0000" stroke-width="2"/>
<path d="M337,273v 1" fill="none" stroke="#ff0000" stroke-width="2"/>
<path d="M338,274" fill="none" stroke="#ff0000" stroke-width="2"/>
<path d="M338,274z" fill="none" stroke="#ff0000" stroke-width="2"/>
<path d="M339,275z" fill="none" stroke="#ff0000" stroke-width="2"/>
<path d="M339,275" fill="none" stroke="#ff0000" stroke-width="2"/>
<path d="M339,275" fill="none" stroke="#ff0000" stroke-width="2"/>
<path d="M340,275v 1" fill="none" stroke="#ff0000" stroke-width="2"/>
<path d="M340,276z" fill="none" stroke="#ff0000" stroke-width="2"/>
<path d="M341,276" fill="none" stroke="#ff0000" stroke-width="2"/>
<path d="M341,276v 1" fill="none" stroke="#ff0000" stroke-width="2"/>
<path d="M341,277" fill="none" stroke="#ff0000" stroke-width="2"/>
<path d="M342,277z" fill="none" stroke="#ff0000" stroke-width="2"/>
<path d="M342,277" fill="none" stroke="#ff0000" stroke-width="2"/>
<path d="M343,277v 1" fill="none" stroke="#ff0000" stroke-width="2"/>
<path d="M343,278" fill="none" stroke="#ff0000" stroke-width="2"/>
<path d="M343,278z" fill="none" stroke="#ff0000" stroke-width="2"/>
<path d="M344,278v 1" fill="none" stroke="#ff0000" stroke-width="2"/>
<path d="M344,279" fill="none" stroke="#ff0000" stroke-width="2"/>
<path d="M345,279z" fill="none" stroke="#ff0000" stroke-width="2"/>
<path d="M345,279" fill="none" stroke="#ff0000" stroke-width="2"/>
<path d="M345,279z" fill="none" stroke="#ff0000" stroke-width="2"/>
<path d="M346,279v 1" fill="none" stroke="#ff0000" stroke-width="2"/>
<path d="M346,280" fill="none" stroke="#ff0000" stroke-width="2"/>
<path d="M347,280z" fill="none" stroke="#ff0000" stroke-width="2"/>
<path d="M347,280" fill="none" stroke="#ff0000" stroke-width="2"/>
<path d="M347,280z" fill="none" stroke="#ff0000" stroke-width="2"/>
<path d="M348,280v 1" fill="none" stroke="#ff0000" stroke-width="2"/>
<path d="M348,281" fill="none" stroke="#ff0000" stroke-width="2"/>
<path d="M349,281z" fill="none" stroke="#ff0000" stroke-width="2"/>
<path d="M349,281v 1" fill="none" stroke="#ff0000" stroke-width="2"/>
<path d="M349,282z" fill="none" stroke="#ff0000" stroke-width="2"/>
<path d="M350,282" fill="none" stroke="#ff0000" stroke-width="2"/>
<path d="M350,282z" fill="none" stroke="#ff0000" stroke-width="2"/>
<path d="M350,282" fill="none" stroke="#ff0000" stroke-width="2"/>
<path d="M351,282z" fill="none" stroke="#ff0000" stroke-width="2"/>
<path d="M351,282v 1" fill="none" stroke="#ff0000" stroke-width="2"/>
<path d="M352,283z" fill="none" stroke="#ff0000" stroke-width="2"/>
<path d="M352,283" fill="none" stroke="#ff0000" stroke-width="2"/>
<path d="M352,283z" fill="none" stroke="#ff0000" stroke-width="2"/>
<path d="M353,283v 1" fill="none" stroke="#ff0000" stroke-width="2"/>
<path d="M353,284z" fill="none" stroke="#ff0000" stroke-width="2"/>
<path d="M354,284" fill="none" stroke="#ff0000" stroke-width="2"/>
<path d="M354,284z" fill="none" stroke="#ff0000" stroke-width="2"/>
<path d="M354,284z" fill="none" stroke="#ff0000" stroke-width="2"/>
<path d="M355,284" fill="none" stroke="#ff0000" stroke-width="2"/>
<path d="M355,284z" fill="none" stroke="#ff0000" stroke-width="2"/>
<path d="M356,284v 1" fill="none" stroke="#ff0000" stroke-width="2"/>
<path d="M356,285z" fill="none" stroke="#ff0000" stroke-width="2"/>
<path d="M356,285" fill="none" stroke="#ff0000" stroke-width="2"/>
<path d="M357,285z" fill="none" stroke="#ff0000" stroke-width="2"/>
<path d="M357,285z" fill="none" stroke="#ff0000" stroke-width="2"/>
<path d="M358,285v 1" fill="none" stroke="#ff0000" stroke-width="2"/>
<path d="M358,286z" fill="none" stroke="#ff0000" stroke-width="2"/>
<path d="M358,286z" fill="none" stroke="#ff0000" stroke-width="2"/>
<path d="M359,286" fill="none" stroke="#ff0000" stroke-width="2"/>
<path d="M359,286z" fill="none" stroke="#ff0000" stroke-width="2"/>
<path d="M360,286" fill="none" stroke="#ff0000" stroke-width="2"/>
<path d="M360,286z" fill="none" stroke="#ff0000" stroke-width="2"/>
<path d="M360,286z" fill="none" stroke="#ff0000" stroke-width="2"/>
<path d="M361,286v 1" fill="none" stroke="#ff0000" stroke-width="2"/>
<path d="M361,287z" fill="none" stroke="#ff0000" stroke-width="2"/>
<path d="M362,287z" fill="none" stroke="#ff0000" stroke-width="2"/>
<path d="M362,287" fill="none" stroke="#ff0000" stroke-width="2"/>
<path d="M362,287z" fill="none" stroke="#ff0000" stroke-width="2"/>
<path d="M363,287z" fill="none" stroke="#ff0000" stroke-width="2"/>
<path d="M363,287z" fill="none" stroke="#ff0000" stroke-width="2"/>
<path d="M364,288z" fill="none" stroke="#ff0000" stroke-width="2"/>
<path d="M364,288z" fill="none" stroke="#ff0000" stroke-width="2"/>
<path d="M364,288z" fill="none" stroke="#ff0000" stroke-width="2"/>
<path d="M365,288" fill="none" stroke="#ff0000" stroke-width="2"/>
<path d="M365,288z" fill="none" stroke="#ff0000" stroke-width="2"/>
<path d="M366,288z" fill="none" stroke="#ff0000" stroke-width="2"/>
<path d="M366,288" fill="none" stroke="#ff0000" stroke-width="2"/>
<path d="M366,288z" fill="none" stroke="#ff0000" stroke-width="2"/>
<path d="M367,288z" fill="none" stroke="#ff0000" stroke-width="2"/>
<path d="M367,288z" fill="none" stroke="#ff0000" stroke-width="2"/>
<path d="M368,288v 1" fill="none" stroke="#ff0000" stroke-width="2"/>
<path d="M368,289z" fill="none" stroke="#ff0000" stroke-width="2"/>
<path d="M368,289z" fill="none" stroke="#ff0000" stroke-width="2"/>
<path d="M369,289z" fill="none" stroke="#ff0000" stroke-width="2"/>
<path d="M369,289" fill="none" stroke="#ff0000" stroke-width="2"/>
<path d="M369,289z" fill="none" stroke="#ff0000" stroke-width="2"/>
<path d="M370,289z" fill="none" stroke="#ff0000" stroke-width="2"/>
<path d="M370,289z" fill="none" stroke="#ff0000" stroke-width="2"/>
<path d="M371,289v 1" fill="none" stroke="#ff0000" stroke-width="2"/>
<path d="M371,290z" fill="none" stroke="#ff0000" stroke-width="2"/>
<path d="M371,290z" fill="none" stroke="#ff0000" stroke-width="2"/>
<path d="M372,290z" fill="none" stroke="#ff0000" stroke-width="2"/>
<path d="M372,290z" fill="none" stroke="#ff0000" stroke-width="2"/>
<path d="M373,290" fill="none" stroke="#ff0000" stroke-width="2"/>
<path d="M373,290z" fill="none" stroke="#ff0000" stroke-width="2"/>
<path d="M373,290z" fill="none" stroke="#ff0000" stroke-width="2"/>
<path d="M374,290z" fill="none" stroke="#ff0000" stroke-width="2"/>
<path d="M374,290z" fill="none" stroke="#ff0000" stroke-width="2"/>
<path d="M375,290" fill="none" stroke="#ff0000" stroke-width="2"/>
<path d="M375,290z" fill="none" stroke="#ff0000" stroke-width="2"/>
<path d="M375,290z" fill="none" stroke="#ff0000" stroke-width="2"/>
<path d="M376,290z" fill="none" stroke="#ff0000" stroke-width="2"/>
<path d="M376,290z" fill="none" stroke="#ff0000" stroke-width="2"/>
<path d="M377,290v 1" fill="none" stroke="#ff0000" stroke-width="2"/>
<path d="M377,291z" fill="none" stroke="#ff0000" stroke-width="2"/>
<path d="M377,291z" fill="none" stroke="#ff0000" stroke-width="2"/>
<path d="M378,291z" fill="none" stroke="#ff0000" stroke-width="2"/>
<path d="M378,291z" fill="none" stroke="#ff0000" stroke-width="2"/>
<path d="M379,291z" fill="none" stroke="#ff0000" stroke-width="2"/>
<path d="M379,291" fill="none" stroke="#ff0000" stroke-width="2"/>
<path d="M379,291z" fill="none" stroke="#ff0000" stroke-width="2"/>
<path d="M380,291z" fill="none" stroke="#ff0000" stroke-width="2"/>
<path d="M380,291z" fill="none" stroke="#ff0000" stroke-width="2"/>
<path d="M381,291z" fill="none" stroke="#ff0000" stroke-width="2"/>
<path d="M381,291z" fill="none" stroke="#ff0000" stroke-width="2"/>
<path d="M381,291z" fill="none" stroke="#ff0000" stroke-width="2"/>
<path d="M382,291v 1" fill="none" stroke="#ff0000" stroke-width="2"/>
<path d="M382,292z" fill="none" stroke="#ff0000" stroke-width="2"/>
<path d="M383,292z" fill="none" stroke="#ff0000" stroke-width="2"/>
<path d="M383,292z" fill="none" stroke="#ff0000" stroke-width="2"/>
<path d="M383,292z" fill="none" stroke="#ff0000" stroke-width="2"/>
<path d="M384,292z" fill="none" stroke="#ff0000" stroke-width="2"/>
<path d="M384,292z" fill="none" stroke="#ff0000" stroke-width="2"/>
<path d="M385,292" fill="none" stroke="#ff0000" stroke-width="2"/>
<path d="M385,292z" fill="none" stroke="#ff0000" stroke-width="2"/>
<path d="M385,292z" fill="none" stroke="#ff0000" stroke-width="2"/>
<path d="M386,292z" fill="none" stroke="#ff0000" stroke-width="2"/>
<path d="M386,292z" fill="none" stroke="#ff0000" stroke-width="2"/>
<path d="M387,292z" fill="none" stroke="#ff0000" stroke-width="2"/>
<path d="M387,292z" fill="none" stroke="#ff0000" stroke-width="2"/>
<path d="M387,292z" fill="none" stroke="#ff0000" stroke-width="2"/>
<path d="M388,292" fill="none" stroke="#ff0000" stroke-width="2"/>
<path d="M388,292z" fill="none" stroke="#ff0000" stroke-width="2"/>
<path d="M388,292z" fill="none" stroke="#ff0000" stroke-width="2"/>
<path d="M389,292z" fill="none" stroke="#ff0000" stroke-width="2"/>
<path d="M389,292z" fill="none" stroke="#ff0000" stroke-width="2"/>
<path d="M390,292z" fill="none" stroke="#ff0000" stroke-width="2"/>
<path d="M390,292z" fill="none" stroke="#ff0000" stroke-width="2"/>
<path d="M390,292z" fill="none" stroke="#ff0000" stroke-width="2"/>
<path d="M391,292z" fill="none" stroke="#ff0000" stroke-width="2"/>
<path d="M391,292z" fill="none" stroke="#ff0000" stroke-width="2"/>
<path d="M392,292v 1" fill="none" stroke="#ff0000" stroke-width="2"/>
<path d="M392,293z" fill="none" stroke="#ff0000" stroke-width="2"/>
<path d="M392,293z" fill="none" stroke="#ff0000" stroke-width="2"/>
<path d="M393,293z" fill="none" stroke="#ff0000" stroke-width="2"/>
<path d="M393,293z" fill="none" stroke="#ff0000" stroke-width="2"/>
<path d="M394,293z" fill="none" stroke="#ff0000" stroke-width="2"/>
<path d="M394,293z" fill="none" stroke="#ff0000" stroke-width="2"/>
<path d="M394,293z" fill="none" stroke="#ff0000" stroke-width="2"/>
<path d="M395,293z" fill="none" stroke="#ff0000" stroke-width="2"/>
<path d="M395,293z" fill="none" stroke="#ff0000" stroke-width="2"/>
<path d="M396,293z" fill="none" stroke="#ff0000" stroke-width="2"/>
<path d="M396,293" fill="none" stroke="#ff0000" stroke-width="2"/>
<path d="M396,293z" fill="none" stroke="#ff0000" stroke-width="2"/>
<path d="M397,293z" fill="none" stroke="#ff0000" stroke-width="2"/>
<path d="M397,293z" fill="none" stroke="#ff0000" stroke-width="2"/>
<path d="M398,293z" fill="none" stroke="#ff0000" stroke-width="2"/>
<path d="M398,293z" fill="none" stroke="#ff0000" stroke-width="2"/>
<path d="M398,293z" fill="none" stroke="#ff0000" stroke-width="2"/>
<path d="M399,293z" fill="none" stroke="#ff0000" stroke-width="2"/>
<path d="M399,293z" fill="none" stroke="#ff0000" stroke-width="2"/>
<path d="M400,293z" fill="none" stroke="#ff0000" stroke-width="2"/>
<path d="M400,293z" fill="none" stroke="#ff0000" stroke-width="2"/>
<path d="M400,293z" fill="none" stroke="#ff0000" stroke-width="2"/>
<path d="M401,293z" fill="none" stroke="#ff0000" stroke-width="2"/>
<path d="M401,293v 1" fill="none" stroke="#ff0000" stroke-width="2"/>
<path d="M402,294z" fill="none" stroke="#ff0000" stroke-width="2"/>
<path d="M402,294z" fill="none" stroke="#ff0000" stroke-width="2"/>
<path d="M402,294z" fill="none" stroke="#ff0000" stroke-width="2"/>
<path d="M403,294z" fill="none" stroke="#ff0000" stroke-width="2"/>
<path d="M403,294z" fill="none" stroke="#ff0000" stroke-width="2"/>
<path d="M404,294z" fill="none" stroke="#ff0000" stroke-width="2"/>
<path d="M404,294z" fill="none" stroke="#ff0000" stroke-width="2"/>
<path d="M404,294z" fill="none" stroke="#ff0000" stroke-width="2"/>
<path d="M405,294z" fill="none" stroke="#ff0000" stroke-width="2"/>
<path d="M405,294z" fill="none" stroke="#ff0000" stroke-width="2"/>
<path d="M406,294z" fill="none" stroke="#ff0000" stroke-width="2"/>
<path d="M406,294z" fill="none" stroke="#ff0000" stroke-width="2"/>
<path d="M406,294z" fill="none" stroke="#ff0000" stroke-width="2"/>
<path d="M407,294z" fill="none" stroke="#ff0000" stroke-width="2"/>
<path d="M407,294z" fill="none" stroke="#ff0000" stroke-width="2"/>
<path d="M408,294z" fill="none" stroke="#ff0000" stroke-width="2"/>
<path d="M408,294" fill="none" stroke="#ff0000" stroke-width="2"/>
<path d="M408,294z" fill="none" stroke="#ff0000" stroke-width="2"/>
<path d="M409,294z" fill="none" stroke="#ff0000" stroke-width="2"/>
<path d="M409,294z" fill="none" stroke="#ff0000" stroke-width="2"/>
<path d="M409,294z" fill="none" stroke="#ff0000" stroke-width="2"/>
<path d="M410,294z" fill="none" stroke="#ff0000" stroke-width="2"/>
<path d="M410,294z" fill="none" stroke="#ff0000" stroke-width="2"/>
<path d="M411,294z" fill="none" stroke="#ff0000" stroke-width="2"/>
<path d="M411,294z" fill="none" stroke="#ff0000" stroke-width="2"/>
<path d="M411,294z" fill="none" stroke="#ff0000" stroke-width="2"/>
<path d="M412,294z" fill="none" stroke="#ff0000" stroke-width="2"/>
<path d="M412,294z" fill="none" stroke="#ff0000" stroke-width="2"/>
<path d="M413,294z" fill="none" stroke="#ff0000" stroke-width="2"/>
<path d="M413,294z" fill="none" stroke="#ff0000" stroke-width="2"/>
<path d="M413,294z" fill="none" stroke="#ff0000" stroke-width="2"/>
<path d="M414,294z" fill="none" stroke="#ff0000" stroke-width="2"/>
<path d="M414,294z" fill="none" stroke="#ff0000" stroke-width="2"/>
<path d="M415,294z" fill="none" stroke="#ff0000" stroke-width="2"/>
<path d="M415,294z" fill="none" stroke="#ff0000" stroke-width="2"/>
<path d="M415,294z" fill="none" stroke="#ff0000" stroke-width="2"/>
<path d="M416,294z" fill="none" stroke="#ff0000" stroke-width="2"/>
<path d="M416,294z" fill="none" stroke="#ff0000" stroke-width="2"/>
<path d="M417,294z" fill="none" stroke="#ff0000" stroke-width="2"/>
<path d="M417,294z" fill="none" stroke="#ff0000" stroke-width="2"/>
<path d="M417,294" fill="none" stroke="#ff0000" stroke-width="2"/>
<path d="M418,294z" fill="none" stroke="#ff0000" stroke-width="2"/>
<path d="M418,294z" fill="none" stroke="#ff0000" stroke-width="2"/>
<path d="M419,294z" fill="none" stroke="#ff0000" stroke-width="2"/>
<path d="M419,294z" fill="none" stroke="#ff0000" stroke-width="2"/>
<path d="M419,294z" fill="none" stroke="#ff0000" stroke-width="2"/>
<path d="M420,294z" fill="none" stroke="#ff0000" stroke-width="2"/>
<path d="M420,294z" fill="none" stroke="#ff0000" stroke-width="2"/>
<path d="M421,294z" fill="none" stroke="#ff0000" stroke-width="2"/>
<path d="M421,294z" fill="none" stroke="#ff0000" stroke-width="2"/>
<path d="M421,294z" fill="none" stroke="#ff0000" stroke-width="2"/>
<path d="M422,294z" fill="none" stroke="#ff0000" stroke-width="2"/>
<path d="M422,294z" fill="none" stroke="#ff0000" stroke-width="2"/>
<path d="M423,294z" fill="none" stroke="#ff0000" stroke-width="2"/>
<path d="M423,294z" fill="none" stroke="#ff0000" stroke-width="2"/>
<path d="M423,294z" fill="none" stroke="#ff0000" stroke-width="2"/>
<path d="M424,294z" fill="none" stroke="#ff0000" stroke-width="2"/>
<path d="M424,294z" fill="none" stroke="#ff0000" stroke-width="2"/>
<path d="M425,294z" fill="none" stroke="#ff0000" stroke-width="2"/>
<path d="M425,294z" fill="none" stroke="#ff0000" stroke-width="2"/>
<path d="M425,294z" fill="none" stroke="#ff0000" stroke-width="2"/>
<path d="M426,294z" fill="none" stroke="#ff0000" stroke-width="2"/>
<path d="M426,294z" fill="none" stroke="#ff0000" stroke-width="2"/>
<path d="M427,294z" fill="none" stroke="#ff0000" stroke-width="2"/>
<path d="M427,294z" fill="none" stroke="#ff0000" stroke-width="2"/>
<path d="M427,294z" fill="none" stroke="#ff0000" stroke-width="2"/>
<path d="M428,294z" fill="none" stroke="#ff0000" stroke-width="2"/>
<path d="M428,294z" fill="none" stroke="#ff0000" stroke-width="2"/>
<path d="M428,294z" fill="none" stroke="#ff0000" stroke-width="2"/>
<path d="M429,294z" fill="none" stroke="#ff0000" stroke-width="2"/>
<path d="M429,294z" fill="none" stroke="#ff0000" stroke-width="2"/>
<path d="M430,294z" fill="none" stroke="#ff0000" stroke-width="2"/>
<path d="M430,294z" fill="none" stroke="#ff0000" stroke-width="2"/>
<path d="M430,294z" fill="none" stroke="#ff0000" stroke-width="2"/>
<path d="M431,294z" fill="none" stroke="#ff0000" stroke-width="2"/>
<path d="M431,294z" fill="none" stroke="#ff0000" stroke-width="2"/>
<path d="M432,294z" fill="none" stroke="#ff0000" stroke-width="2"/>
<path d="M432,294z" fill="none" stroke="#ff0000" stroke-width="2"/>
<path d="M432,294v 1" fill="none" stroke="#ff0000" stroke-width="2"/>
<path d="M433,295z" fill="none" stroke="#ff0000" stroke-width="2"/>
<path d="M433,295z" fill="none" stroke="#ff0000" stroke-width="2"/>
<path d="M434,295z" fill="none" stroke="#ff0000" stroke-width="2"/>
<path d="M434,295z" fill="none" stroke="#ff0000" stroke-width="2"/>
<path d="M434,295z" fill="none" stroke="#ff0000" stroke-width="2"/>
<path d="M435,295z" fill="none" stroke="#ff0000" stroke-width="2"/>
<path d="M435,295z" fill="none" stroke="#ff0000" stroke-width="2"/>
<path d="M436,295z" fill="none" stroke="#ff0000" stroke-width="2"/>
<path d="M436,295z" fill="none" stroke="#ff0000" stroke-width="2"/>
<path d="M436,295z" fill="none" stroke="#ff0000" stroke-width="2"/>
<path d="M437,295z" fill="none" stroke="#ff0000" stroke-width="2"/>
<path d="M437,295z" fill="none" stroke="#ff0000" stroke-width="2"/>
<path d="M438,295z" fill="none" stroke="#ff0000" stroke-width="2"/>
<path d="M438,295z" fill="none" stroke="#ff0000" stroke-width="2"/>
<path d="M438,295z" fill="none" stroke="#ff0000" stroke-width="2"/>
<path d="M439,295z" fill="none" stroke="#ff0000" stroke-width="2"/>
<path d="M439,295z" fill="none" stroke="#ff0000" stroke-width="2"/>
<path d="M440,295z" fill="none" stroke="#ff0000" stroke-width="2"/>
<path d="M440,295z" fill="none" stroke="#ff0000" stroke-width="2"/>
<path d="M440,295z" fill="none" stroke="#ff0000" stroke-width="2"/>
<path d="M441,295z" fill="none" stroke="#ff0000" stroke-width="2"/>
<path d="M441,295z" fill="none" stroke="#ff0000" stroke-width="2"/>
<path d="M442,295z" fill="none" stroke="#ff0000" stroke-width="2"/>
<path d="M442,295z" fill="none" stroke="#ff0000" stroke-width="2"/>
<path d="M442,295z" fill="none" stroke="#ff0000" stroke-width="2"/>
<path d="M443,295z" fill="none" stroke="#ff0000" stroke-width="2"/>
<path d="M443,295z" fill="none" stroke="#ff0000" stroke-width="2"/>
<path d="M444,295z" fill="none" stroke="#ff0000" stroke-width="2"/>
<path d="M444,295z" fill="none" stroke="#ff0000" stroke-width="2"/>
<path d="M444,295z" fill="none" stroke="#ff0000" stroke-width="2"/>
<path d="M445,295z" fill="none" stroke="#ff0000" stroke-width="2"/>
<path d="M445,295z" fill="none" stroke="#ff0000" stroke-width="2"/>
<path d="M446,295z" fill="none" stroke="#ff0000" stroke-width="2"/>
<path d="M446,295z" fill="none" stroke="#ff0000" stroke-width="2"/>
<path d="M446,295z" fill="none" stroke="#ff0000" stroke-width="2"/>
<path d="M447,295z" fill="none" stroke="#ff0000" stroke-width="2"/>
<path d="M447,295z" fill="none" stroke="#ff0000" stroke-width="2"/>
<path d="M447,295z" fill="none" stroke="#ff0000" stroke-width="2"/>
<path d="M448,295z" fill="none" stroke="#ff0000" stroke-width="2"/>
<path d="M448,295z" fill="none" stroke="#ff0000" stroke-width="2"/>
<path d="M449,295z" fill="none" stroke="#ff0000" stroke-width="2"/>
<path d="M449,295z" fill="none" stroke="#ff0000" stroke-width="2"/>
<path d="M449,295z" fill="none" stroke="#ff0000" stroke-width="2"/>
<path d="M450,295z" fill="none" stroke="#ff0000" stroke-width="2"/>
<path d="M450,295z" fill="none" stroke="#ff0000" stroke-width="2"/>
<path d="M451,295z" fill="none" stroke="#ff0000" stroke-width="2"/>
<path d="M451,295z" fill="none" stroke="#ff0000" stroke-width="2"/>
<path d="M451,295z" fill="none" stroke="#ff0000" stroke-width="2"/>
<path d="M452,295z" fill="none" stroke="#ff0000" stroke-width="2"/>
<path d="M452,295z" fill="none" stroke="#ff0000" stroke-width="2"/>
<path d="M453,295z" fill="none" stroke="#ff0000" stroke-width="2"/>
<path d="M453,295z" fill="none" stroke="#ff0000" stroke-width="2"/>
<path d="M453,295z" fill="none" stroke="#ff0000" stroke-width="2"/>
<path d="M454,295z" fill="none" stroke="#ff0000" stroke-width="2"/>
<path d="M454,295z" fill="none" stroke="#ff0000" stroke-width="2"/>
<path d="M455,295z" fill="none" stroke="#ff0000" stroke-width="2"/>
<path d="M455,295z" fill="none" stroke="#ff0000" stroke-width="2"/>
<path d="M455,295z" fill="none" stroke="#ff0000" stroke-width="2"/>
<path d="M456,295z" fill="none" stroke="#ff0000" stroke-width="2"/>
<path d="M456,295z" fill="none" stroke="#ff0000" stroke-width="2"/>
<path d="M457,295z" fill="none" stroke="#ff0000" stroke-width="2"/>
<path d="M457,295z" fill="none" stroke="#ff0000" stroke-width="2"/>
<path d="M457,295z" fill="none" stroke="#ff0000" stroke-width="2"/>
<path d="M458,295z" fill="none" stroke="#ff0000" stroke-width="2"/>
<path d="M458,295z" fill="none" stroke="#ff0000" stroke-width="2"/>
<path d="M459,295z" fill="none" stroke="#ff0000" stroke-width="2"/>
<path d="M459,295z" fill="none" stroke="#ff0000" stroke-width="2"/>
<path d="M459,295z" fill="none" stroke="#ff0000" stroke-width="2"/>
<path d="M460,295z" fill="none" stroke="#ff0000" stroke-width="2"/>
<path d="M460,295z" fill="none" stroke="#ff0000" stroke-width="2"/>
<path d="M461,295z" fill="none" stroke="#ff0000" stroke-width="2"/>
<path d="M461,295z" fill="none" stroke="#ff0000" stroke-width="2"/>
<path d="M461,295z" fill="none" stroke="#ff0000" stroke-width="2"/>
<path d="M462,295z" fill="none" stroke="#ff0000" stroke-width="2"/>
<path d="M462,295z" fill="none" stroke="#ff0000" stroke-width="2"/>
<path d="M463,295z" fill="none" stroke="#ff0000" stroke-width="2"/>
<path d="M463,295z" fill="none" stroke="#ff0000" stroke-width="2"/>
<path d="M463,295z" fill="none" stroke="#ff0000" stroke-width="2"/>
<path d="M464,295z" fill="none" stroke="#ff0000" stroke-width="2"/>
<path d="M464,295z" fill="none" stroke="#ff0000" stroke-width="2"/>
<path d="M465,295z" fill="none" stroke="#ff0000" stroke-width="2"/>
<path d="M465,295z" fill="none" stroke="#ff0000" stroke-width="2"/>
<path d="M465,295z" fill="none" stroke="#ff0000" stroke-width="2"/>
<path d="M466,295z" fill="none" stroke="#ff0000" stroke-width="2"/>
<path d="M466,295z" fill="none" stroke="#ff0000" stroke-width="2"/>
<path d="M466,295z" fill="none" stroke="#ff0000" stroke-width="2"/>
<path d="M467,295z" fill="none" stroke="#ff0000" stroke-width="2"/>
<path d="M467,295z" fill="none" stroke="#ff0000" stroke-width="2"/>
<path d="M468,295z" fill="none" stroke="#ff0000" stroke-width="2"/>
<path d="M468,295z" fill="none" stroke="#ff0000" stroke-width="2"/>
<path d="M468,295z" fill="none" stroke="#ff0000" stroke-width="2"/>
<path d="M469,295z" fill="none" stroke="#ff0000" stroke-width="2"/>
<path d="M469,295z" fill="none" stroke="#ff0000" stroke-width="2"/>
<path d="M470,295z" fill="none" stroke="#ff0000" stroke-width="2"/>
<path d="M470,295z" fill="none" stroke="#ff0000" stroke-width="2"/>
<path d="M470,295z" fill="none" stroke="#ff0000" stroke-width="2"/>
<path d="M471,295z" fill="none" stroke="#ff0000" stroke-width="2"/>
<path d="M471,295z" fill="none" stroke="#ff0000" stroke-width="2"/>
<path d="M472,295z" fill="none" stroke="#ff0000" stroke-width="2"/>
<path d="M472,295z" fill="none" stroke="#ff0000" stroke-width="2"/>
<path d="M472,295z" fill="none" stroke="#ff0000" stroke-width="2"/>
<path d="M473,295z" fill="none" stroke="#ff0000" stroke-width="2"/>
<path d="M473,295z" fill="none" stroke="#ff0000" stroke-width="2"/>
<path d="M474,295z" fill="none" stroke="#ff0000" stroke-width="2"/>
<path d="M474,295z" fill="none" stroke="#ff0000" stroke-width="2"/>
<path d="M474,295z" fill="none" stroke="#ff0000" stroke-width="2"/>
<path d="M475,295z" fill="none" stroke="#ff0000" stroke-width="2"/>
<path d="M475,295z" fill="none" stroke="#ff0000" stroke-width="2"/>
<path d="M476,295z" fill="none" stroke="#ff0000" stroke-width="2"/>
<path d="M476,295z" fill="none" stroke="#ff0000" stroke-width="2"/>
<path d="M476,295z" fill="none" stroke="#ff0000" stroke-width="2"/>
<path d="M477,295z" fill="none" stroke="#ff0000" stroke-width="2"/>
<path d="M477,295z" fill="none" stroke="#ff0000" stroke-width="2"/>
<path d="M284,112v 2l 1, 3v 2l 1, 3v 6l 1, 2v 3l 1, 3v 4l 1, 3v 2l 1, 3v 4l 1, 3v 2l 1, 2v 4l 1, 2v 4l 1, 2v 2l 1, 2v 4l 1, 2v 2l 1, 1v 4l 1, 1v 2l 1, 2v 3l 1, 2v 1l 1, 2v 3l 1, 1v 1l 1, 2v 2l 1, 2v 1l 1, 1v 3l 1, 1v 2l 1, 1v 2l 1, 1v 1l 1, 1v 3h 1v
 2h 1v 2l 1, 2v 2h 1v 1l 1, 1v 2l 1, 1l 1, 1v 2l 1, 1l 1, 1v 2l 1, 1l 1, 1v 1l 1, 1v 1h 1v 2h 1v 1l 1, 1v 1h 1v 1h 1v 1l 1, 1l 1, 1v 1h 1v 1h 1v 1l 1, 1l 1, 1l 1, 1l 1, 1v 1h 1l 1, 1l 1, 1l 1, 1l 1, 1h 1v 1h 1v 1h 2v 1h 1v 1h 2v 1h 2v 1h 1v 1h 2l 1,
 1h 1v 1h 3v 1h 2v 1h 3v 1h 2l 1, 1h 4v 1h 3v 1h 6v 1h 5v 1h 10v 1h 9l 1, 1h 30l 1, 1h 44" fill="none" stroke="#ff0000" stroke-width="2"/>
<path d="M57,295h 453" fill="none" stroke="black"/>
<text x="436" y="317" fill="black" font-size="11" font-family="Helvetica">
TDC-TDC0 (ns)
</text>
<path d="M57,287v 8" fill="none" stroke="black"/>
<path d="M68,291v 4" fill="none" stroke="black"/>
<path d="M79,291v 4" fill="none" stroke="black"/>
<path d="M91,291v 4" fill="none" stroke="black"/>
<path d="M102,291v 4" fill="none" stroke="black"/>
<path d="M113,287v 8" fill="none" stroke="black"/>
<path d="M125,291v 4" fill="none" stroke="black"/>
<path d="M136,291v 4" fill="none" stroke="black"/>
<path d="M147,291v 4" fill="none" stroke="black"/>
<path d="M159,291v 4" fill="none" stroke="black"/>
<path d="M170,287v 8" fill="none" stroke="black"/>
<path d="M181,291v 4" fill="none" stroke="black"/>
<path d="M193,291v 4" fill="none" stroke="black"/>
<path d="M204,291v 4" fill="none" stroke="black"/>
<path d="M215,291v 4" fill="none" stroke="black"/>
<path d="M227,287v 8" fill="none" stroke="black"/>
<path d="M238,291v 4" fill="none" stroke="black"/>
<path d="M249,291v 4" fill="none" stroke="black"/>
<path d="M261,291v 4" fill="none" stroke="black"/>
<path d="M272,291v 4" fill="none" stroke="black"/>
<path d="M283,287v 8" fill="none" stroke="black"/>
<path d="M295,291v 4" fill="none" stroke="black"/>
<path d="M306,291v 4" fill="none" stroke="black"/>
<path d="M317,291v 4" fill="none" stroke="black"/>
<path d="M329,291v 4" fill="none" stroke="black"/>
<path d="M340,287v 8" fill="none" stroke="black"/>
<path d="M351,291v 4" fill="none" stroke="black"/>
<path d="M363,291v 4" fill="none" stroke="black"/>
<path d="M374,291v 4" fill="none" stroke="black"/>
<path d="M386,291v 4" fill="none" stroke="black"/>
<path d="M397,287v 8" fill="none" stroke="black"/>
<path d="M408,291v 4" fill="none" stroke="black"/>
<path d="M420,291v 4" fill="none" stroke="black"/>
<path d="M431,291v 4" fill="none" stroke="black"/>
<path d="M442,291v 4" fill="none" stroke="black"/>
<path d="M454,287v 8" fill="none" stroke="black"/>
<path d="M465,291v 4" fill="none" stroke="black"/>
<path d="M476,291v 4" fill="none" stroke="black"/>
<path d="M488,291v 4" fill="none" stroke="black"/>
<path d="M499,291v 4" fill="none" stroke="black"/>
<path d="M510,287v 8" fill="none" stroke="black"/>
<text x="40" y="306" fill="black" font-size="11" font-family="Helvetica">
-20000
</text>
<text x="97" y="306" fill="black" font-size="11" font-family="Helvetica">
-15000
</text>
<text x="153" y="306" fill="black" font-size="11" font-family="Helvetica">
-10000
</text>
<text x="213" y="306" fill="black" font-size="11" font-family="Helvetica">
-5000
</text>
<text x="281" y="306" fill="black" font-size="11" font-family="Helvetica">
0
</text>
<text x="328" y="306" fill="black" font-size="11" font-family="Helvetica">
5000
</text>
<text x="382" y="306" fill="black" font-size="11" font-family="Helvetica">
10000
</text>
<text x="439" y="306" fill="black" font-size="11" font-family="Helvetica">
15000
</text>
<text x="495" y="306" fill="black" font-size="11" font-family="Helvetica">
20000
</text>
<path d="M57,295v -262" fill="none" stroke="black"/>
<g transform="rotate(-90,29,61)">
<text x="29" y="61" fill="black" font-size="11" font-family="Helvetica">
Count
</text>
</g>
<path d="M70,295h -13" fill="none" stroke="black"/>
<path d="M63,287h -6" fill="none" stroke="black"/>
<path d="M63,279h -6" fill="none" stroke="black"/>
<path d="M63,270h -6" fill="none" stroke="black"/>
<path d="M63,262h -6" fill="none" stroke="black"/>
<path d="M70,254h -13" fill="none" stroke="black"/>
<path d="M63,245h -6" fill="none" stroke="black"/>
<path d="M63,237h -6" fill="none" stroke="black"/>
<path d="M63,229h -6" fill="none" stroke="black"/>
<path d="M63,220h -6" fill="none" stroke="black"/>
<path d="M70,212h -13" fill="none" stroke="black"/>
<path d="M63,204h -6" fill="none" stroke="black"/>
<path d="M63,195h -6" fill="none" stroke="black"/>
<path d="M63,187h -6" fill="none" stroke="black"/>
<path d="M63,179h -6" fill="none" stroke="black"/>
<path d="M70,170h -13" fill="none" stroke="black"/>
<path d="M63,162h -6" fill="none" stroke="black"/>
<path d="M63,154h -6" fill="none" stroke="black"/>
<path d="M63,145h -6" fill="none" stroke="black"/>
<path d="M63,137h -6" fill="none" stroke="black"/>
<path d="M70,129h -13" fill="none" stroke="black"/>
<path d="M63,120h -6" fill="none" stroke="black"/>
<path d="M63,112h -6" fill="none" stroke="black"/>
<path d="M63,104h -6" fill="none" stroke="black"/>
<path d="M63,95h -6" fill="none" stroke="black"/>
<path d="M70,87h -13" fill="none" stroke="black"/>
<path d="M63,79h -6" fill="none" stroke="black"/>
<path d="M63,70h -6" fill="none" stroke="black"/>
<path d="M63,62h -6" fill="none" stroke="black"/>
<path d="M63,54h -6" fill="none" stroke="black"/>
<path d="M70,45h -13" fill="none" stroke="black"/>
<path d="M70,45h -13" fill="none" stroke="black"/>
<path d="M63,37h -6" fill="none" stroke="black"/>
<text x="48" y="299" fill="black" font-size="11" font-family="Helvetica">
0
</text>
<text x="48" y="258" fill="black" font-size="11" font-family="Helvetica">
5
</text>
<text x="42" y="216" fill="black" font-size="11" font-family="Helvetica">
10
</text>
<text x="42" y="174" fill="black" font-size="11" font-family="Helvetica">
15
</text>
<text x="42" y="132" fill="black" font-size="11" font-family="Helvetica">
20
</text>
<text x="42" y="91" fill="black" font-size="11" font-family="Helvetica">
25
</text>
<text x="42" y="49" fill="black" font-size="11" font-family="Helvetica">
30
</text>
<rect x="442" y="22" width="114" height="39" fill="white"/>
<path d="M442,61h 114" fill="none" stroke="black"/>
<path d="M556,61v -39" fill="none" stroke="black"/>
<path d="M556,22h -114" fill="none" stroke="black"/>
<path d="M442,22v 39" fill="none" stroke="black"/>
<text x="448" y="27" fill="black" font-size="6" font-family="Helvetica">
Entries 
</text>
<text x="536" y="27" fill="black" font-size="6" font-family="Helvetica">
 3039
</text>
<text x="453" y="33" fill="black" font-size="6" font-family="Helvetica">
 / ndf 
</text>
<text x="451" y="31" fill="black" font-size="4" font-family="Helvetica">
2
</text>
<text x="448" y="33" fill="black" font-size="6" font-family="Times">
&#0967;
</text>
<text x="518" y="33" fill="black" font-size="6" font-family="Helvetica">
 576.3 / 1243
</text>
<text x="455" y="39" fill="black" font-size="6" font-family="Helvetica">
   
</text>
<text x="452" y="41" fill="black" font-size="4" font-family="Helvetica">
cu
</text>
<text x="448" y="39" fill="black" font-size="6" font-family="Helvetica">
N
</text>
<text x="523" y="40" fill="black" font-size="6" font-family="Helvetica">
 4.164e+01
</text>
<text x="520" y="40" fill="black" font-size="6" font-family="Times">
&#0177;
</text>
<text x="492" y="40" fill="black" font-size="6" font-family="Helvetica">
 5.699e-12 
</text>
<text x="454" y="45" fill="black" font-size="6" font-family="Helvetica">
 
</text>
<text x="450" y="47" fill="black" font-size="4" font-family="Helvetica">
cu
</text>
<text x="448" y="45" fill="black" font-size="6" font-family="Times">
&#0964;
</text>
<text x="541" y="46" fill="black" font-size="6" font-family="Helvetica">
 1.5
</text>
<text x="538" y="46" fill="black" font-size="6" font-family="Times">
&#0177;
</text>
<text x="521" y="46" fill="black" font-size="6" font-family="Helvetica">
 164.5 
</text>
<text x="453" y="52" fill="black" font-size="6" font-family="Helvetica">
    
</text>
<text x="452" y="54" fill="black" font-size="4" font-family="Helvetica">
f
</text>
<text x="448" y="52" fill="black" font-size="6" font-family="Helvetica">
N
</text>
<text x="538" y="53" fill="black" font-size="6" font-family="Helvetica">
 0.37
</text>
<text x="534" y="53" fill="black" font-size="6" font-family="Times">
&#0177;
</text>
<text x="517" y="53" fill="black" font-size="6" font-family="Helvetica">
 22.62 
</text>
<text x="451" y="58" fill="black" font-size="6" font-family="Helvetica">
 
</text>
<text x="450" y="60" fill="black" font-size="4" font-family="Helvetica">
f
</text>
<text x="448" y="58" fill="black" font-size="6" font-family="Times">
&#0964;
</text>
<text x="541" y="59" fill="black" font-size="6" font-family="Helvetica">
 0.0
</text>
<text x="538" y="59" fill="black" font-size="6" font-family="Times">
&#0177;
</text>
<text x="521" y="59" fill="black" font-size="6" font-family="Helvetica">
  2197 
</text>
<text x="188" y="16" fill="black" font-size="15" font-family="Helvetica">
combined_5mm_Aluminium
</text></svg>
