<?xml version="1.0" standalone="no"?>
<svg width="567" height="328" viewBox="0 0 567 328" xmlns="http://www.w3.org/2000/svg">
<title>
images/analysis_g4bl_sin_phase_tight/fits/5mm_Air_5mm_Air_combined_5mm_Air.svg
</title>
<desc>
Creator: ROOT Version 5.34/09
CreationDate: Tue Sep 10 00:11:37 2013</desc>
<defs>
</defs>
<rect x="0" y="0" width="567" height="328" fill="white"/>
<rect x="57" y="33" width="453" height="262" fill="white"/>
<rect x="57" y="33" width="453" height="262" fill="none" stroke="black"/>
<rect x="57" y="33" width="453" height="262" fill="white"/>
<rect x="57" y="33" width="453" height="262" fill="none" stroke="black"/>
<path d="M57,295h 227v -175v 25v -60h 1v 75v -90v 75h 1v -75v 65v -35v 20v -30h 1v -45v 105v -25v 10v -5v 25h 1v -45v 55v -45v 30h 1v -85v 90v -15v 5h 1v 30v -95v 110v -45h 1v -15v 20v -35v 10h 1v 60v -55v 35v -50v 45h 1v -25v 45v -50v 35v -15v 40h
 1v -40v 25v -5h 1v 10v -45v 45v -30v 35h 1v -45v 40v -15h 1v 35v -15v 30v -40h 1v 25v -35h 1v -25v 75v -35v 40h 1v -35v 10v -25v 50h 1v -25v 30v -50h 1v 45v -40v 15v -10h 1v 40v -20v 40v -50h 1v 5v -5v 45h 1v -55v 45v -70v 20h 1v 60v -75v 40h 1v
 -10v 50v -25v 15v -5h 1v -15v 35v -45v 5h 1v 25v -10v 35v -30v 5h 1v -55v 50v -15v 15h 1v 10v -10v 10v -15h 1v 35v -55v 30h 1v 15v -60v 50h 1v -35v 60v -15v 5v -5h 1v -20v 35v -35v 5v -15h 1v -30v 70v -20v 20h 1v -30v 20v -25v 10h 1v 25v -10v 15v
 -30v 10h 1v 20v -40v 40h 1v -10v 10v -5v 15v -25h 1v 20v -5v 10h 1v -25v 5v -15v 15h 1v -35v 40v -10v 15v -20h 1v -10v 30v -5v 5v -15h 1v -5v 20v -10v 15v -15h 1v -5v 10v -10v 20h 1v -10v 10v -10h 1v -5v 20v -25v 15v -30h 1v 45v -40v 40h 1v -30v 20v
 -30h 1v 25v -5v 15v -15h 1v 25v -30v 25v -20h 1v 30v -50v 45h 1v -40v 30v -5h 1v 20v -30h 1v 30v -20v 25v -10h 1v -30v 20v -15v 15h 1v -10v 10v -5v 10h 1v -10v 20h 1v -10v 5v -5v 10v -20h 1v 5v -20v 20h 1v -15v 20v -15v 15h 1v 5v -15h 1v -10v 35v
 -15v 5h 1v -30v 20v -10v 25v -15h 1v -15v 25v -10h 1v 15v -10v 10h 1v -15v 5v -10v 5h 1v -10v 25v -5h 1v 10v -25v 20v -15h 1v 15v -15v 15v -15h 1v 10v -15v 10h 1v 5v -5v 10v -30h 1v 30v -10h 1v 10v -15v 20v -10h 1v -5v 5v -5h 1v 5v -5v 10h 1v -10v
 15h 1v -10v 10v -30v 20h 1v 10v -10v 5v -10h 1v 15v -25v 15h 1v 10v -10v 5h 1v -5v 5v -5v 10v -5h 1v -5v 5v -5v 5h 1v -15v 20v -15h 1v 15v -15v 15v -10h 1v -10v 15v -10v 10v -10h 1v 15v -10v 10v -5h 1v -10v 10v -5v 5h 1v 5h 1v -10v 10v -15v 10h 1v
 -10v 10v -5v 5h 1v 5v -10v 10v -15h 1v 15v -15h 1v 15v -5v 5h 1v -5v 5h 1v -5v 5v -5v 5v -5h 1v 5v -5h 1v -5v 10v -5v 5h 1v -10v 10h 1v -15v 15v -5v 5h 1v -5h 1v -5v 10v -5v 5h 1v -10v 10v -5h 1v 5v -5v 5v -10v 5h 1v 5v -10v 10h 1v -5v 5v -5h 1v 5v
 -10v 10h 1v -5v 5h 1v -5h 1v 5v -5v 5h 1v -20h 1v 20v -5v 5h 1v -5v 5v -5v 5v -5h 1v 5v -5v 5h 1v -5v 5h 1v -10v 10h 1v -5v 5v -5v 5h 2v -10h 1v 10h 1v -5v 5h 2v -10h 1v 10v -5v 5h 1v -5v 5h 1v -5v 5h 1v -5v 5v -5v 5v -5v 5h 1v -5v 5h 1v -5h 1v 5h
 2v -5v 5v -5h 1v 5h 1v -5h 1v 5h 2v -5v 5h 1v -5v 5h 1v -5v 5v -5v 5h 1v -5v 5h 1v -5v 5h 2v -10v 10h 2v -5v 5v -5h 1v 5h 2v -5v 5h 3v -5v 5h 3v -5h 1v 5h 1v -5v 5v -5v 5h 1v -5h 1v 5h 1v -5v 5v -5v 5h 2v -5v 5h 3v -5v 5h 2v -5v 5h 3v -5v 5h 3v -5v
 5h 4v -5v 5h 4v -5v 5h 19v -5v 5h 30" fill="none" stroke="#000099"/>
<rect x="442" y="22" width="114" height="39" fill="white"/>
<path d="M442,61h 114" fill="none" stroke="black"/>
<path d="M556,61v -39" fill="none" stroke="black"/>
<path d="M556,22h -114" fill="none" stroke="black"/>
<path d="M442,22v 39" fill="none" stroke="black"/>
<text x="448" y="27" fill="black" font-size="6" font-family="Helvetica">
Entries 
</text>
<text x="536" y="27" fill="black" font-size="6" font-family="Helvetica">
 5367
</text>
<text x="453" y="33" fill="black" font-size="6" font-family="Helvetica">
 / ndf 
</text>
<text x="451" y="31" fill="black" font-size="4" font-family="Helvetica">
2
</text>
<text x="448" y="33" fill="black" font-size="6" font-family="Times">
&#0967;
</text>
<text x="518" y="33" fill="black" font-size="6" font-family="Helvetica">
 689.9 / 1243
</text>
<text x="455" y="39" fill="black" font-size="6" font-family="Helvetica">
   
</text>
<text x="452" y="41" fill="black" font-size="4" font-family="Helvetica">
cu
</text>
<text x="448" y="39" fill="black" font-size="6" font-family="Helvetica">
N
</text>
<text x="522" y="40" fill="black" font-size="6" font-family="Helvetica">
 2.173e+00
</text>
<text x="519" y="40" fill="black" font-size="6" font-family="Times">
&#0177;
</text>
<text x="492" y="40" fill="black" font-size="6" font-family="Helvetica">
 2.234e-11 
</text>
<text x="454" y="45" fill="black" font-size="6" font-family="Helvetica">
 
</text>
<text x="450" y="47" fill="black" font-size="4" font-family="Helvetica">
cu
</text>
<text x="448" y="45" fill="black" font-size="6" font-family="Times">
&#0964;
</text>
<text x="541" y="46" fill="black" font-size="6" font-family="Helvetica">
 1.2
</text>
<text x="538" y="46" fill="black" font-size="6" font-family="Times">
&#0177;
</text>
<text x="521" y="46" fill="black" font-size="6" font-family="Helvetica">
 164.5 
</text>
<text x="453" y="52" fill="black" font-size="6" font-family="Helvetica">
    
</text>
<text x="452" y="54" fill="black" font-size="4" font-family="Helvetica">
f
</text>
<text x="448" y="52" fill="black" font-size="6" font-family="Helvetica">
N
</text>
<text x="538" y="53" fill="black" font-size="6" font-family="Helvetica">
 0.55
</text>
<text x="534" y="53" fill="black" font-size="6" font-family="Times">
&#0177;
</text>
<text x="517" y="53" fill="black" font-size="6" font-family="Helvetica">
 39.94 
</text>
<text x="451" y="58" fill="black" font-size="6" font-family="Helvetica">
 
</text>
<text x="450" y="60" fill="black" font-size="4" font-family="Helvetica">
f
</text>
<text x="448" y="58" fill="black" font-size="6" font-family="Times">
&#0964;
</text>
<text x="541" y="59" fill="black" font-size="6" font-family="Helvetica">
 0.0
</text>
<text x="538" y="59" fill="black" font-size="6" font-family="Times">
&#0177;
</text>
<text x="521" y="59" fill="black" font-size="6" font-family="Helvetica">
  2197 
</text>
<path d="M284,100v 2" fill="none" stroke="#ff0000" stroke-width="2"/>
<path d="M284,102v 3" fill="none" stroke="#ff0000" stroke-width="2"/>
<path d="M285,105v 3" fill="none" stroke="#ff0000" stroke-width="2"/>
<path d="M285,108v 3" fill="none" stroke="#ff0000" stroke-width="2"/>
<path d="M286,111v 2" fill="none" stroke="#ff0000" stroke-width="2"/>
<path d="M286,114v 2" fill="none" stroke="#ff0000" stroke-width="2"/>
<path d="M286,117v 2" fill="none" stroke="#ff0000" stroke-width="2"/>
<path d="M287,119v 3" fill="none" stroke="#ff0000" stroke-width="2"/>
<path d="M287,122v 3" fill="none" stroke="#ff0000" stroke-width="2"/>
<path d="M288,125v 2" fill="none" stroke="#ff0000" stroke-width="2"/>
<path d="M288,128v 2" fill="none" stroke="#ff0000" stroke-width="2"/>
<path d="M288,130v 2" fill="none" stroke="#ff0000" stroke-width="2"/>
<path d="M289,133v 2" fill="none" stroke="#ff0000" stroke-width="2"/>
<path d="M289,135v 3" fill="none" stroke="#ff0000" stroke-width="2"/>
<path d="M290,138v 2" fill="none" stroke="#ff0000" stroke-width="2"/>
<path d="M290,140v 3" fill="none" stroke="#ff0000" stroke-width="2"/>
<path d="M290,143v 2" fill="none" stroke="#ff0000" stroke-width="2"/>
<path d="M291,145v 2" fill="none" stroke="#ff0000" stroke-width="2"/>
<path d="M291,147v 3" fill="none" stroke="#ff0000" stroke-width="2"/>
<path d="M292,150v 2" fill="none" stroke="#ff0000" stroke-width="2"/>
<path d="M292,152v 2" fill="none" stroke="#ff0000" stroke-width="2"/>
<path d="M292,155v 2" fill="none" stroke="#ff0000" stroke-width="2"/>
<path d="M293,157v 2" fill="none" stroke="#ff0000" stroke-width="2"/>
<path d="M293,159v 2" fill="none" stroke="#ff0000" stroke-width="2"/>
<path d="M293,161v 2" fill="none" stroke="#ff0000" stroke-width="2"/>
<path d="M294,163v 2" fill="none" stroke="#ff0000" stroke-width="2"/>
<path d="M294,165v 2" fill="none" stroke="#ff0000" stroke-width="2"/>
<path d="M295,167v 2" fill="none" stroke="#ff0000" stroke-width="2"/>
<path d="M295,169v 2" fill="none" stroke="#ff0000" stroke-width="2"/>
<path d="M295,171v 2" fill="none" stroke="#ff0000" stroke-width="2"/>
<path d="M296,173v 2" fill="none" stroke="#ff0000" stroke-width="2"/>
<path d="M296,175v 2" fill="none" stroke="#ff0000" stroke-width="2"/>
<path d="M297,177v 2" fill="none" stroke="#ff0000" stroke-width="2"/>
<path d="M297,179v 2" fill="none" stroke="#ff0000" stroke-width="2"/>
<path d="M297,181v 1" fill="none" stroke="#ff0000" stroke-width="2"/>
<path d="M298,182v 2" fill="none" stroke="#ff0000" stroke-width="2"/>
<path d="M298,184v 2" fill="none" stroke="#ff0000" stroke-width="2"/>
<path d="M299,186v 2" fill="none" stroke="#ff0000" stroke-width="2"/>
<path d="M299,188v 1" fill="none" stroke="#ff0000" stroke-width="2"/>
<path d="M299,189v 2" fill="none" stroke="#ff0000" stroke-width="2"/>
<path d="M300,191v 2" fill="none" stroke="#ff0000" stroke-width="2"/>
<path d="M300,193v 1" fill="none" stroke="#ff0000" stroke-width="2"/>
<path d="M301,194v 2" fill="none" stroke="#ff0000" stroke-width="2"/>
<path d="M301,196v 1" fill="none" stroke="#ff0000" stroke-width="2"/>
<path d="M301,197v 2" fill="none" stroke="#ff0000" stroke-width="2"/>
<path d="M302,199v 2" fill="none" stroke="#ff0000" stroke-width="2"/>
<path d="M302,201v 1" fill="none" stroke="#ff0000" stroke-width="2"/>
<path d="M303,202v 1" fill="none" stroke="#ff0000" stroke-width="2"/>
<path d="M303,204v 1" fill="none" stroke="#ff0000" stroke-width="2"/>
<path d="M303,205v 1" fill="none" stroke="#ff0000" stroke-width="2"/>
<path d="M304,206v 2" fill="none" stroke="#ff0000" stroke-width="2"/>
<path d="M304,208v 1" fill="none" stroke="#ff0000" stroke-width="2"/>
<path d="M305,209v 1" fill="none" stroke="#ff0000" stroke-width="2"/>
<path d="M305,210v 2" fill="none" stroke="#ff0000" stroke-width="2"/>
<path d="M305,212v 1" fill="none" stroke="#ff0000" stroke-width="2"/>
<path d="M306,213v 1" fill="none" stroke="#ff0000" stroke-width="2"/>
<path d="M306,214v 2" fill="none" stroke="#ff0000" stroke-width="2"/>
<path d="M307,216v 1" fill="none" stroke="#ff0000" stroke-width="2"/>
<path d="M307,217v 1" fill="none" stroke="#ff0000" stroke-width="2"/>
<path d="M307,218v 2" fill="none" stroke="#ff0000" stroke-width="2"/>
<path d="M308,220" fill="none" stroke="#ff0000" stroke-width="2"/>
<path d="M308,221v 1" fill="none" stroke="#ff0000" stroke-width="2"/>
<path d="M309,222v 1" fill="none" stroke="#ff0000" stroke-width="2"/>
<path d="M309,223v 1" fill="none" stroke="#ff0000" stroke-width="2"/>
<path d="M309,224v 1" fill="none" stroke="#ff0000" stroke-width="2"/>
<path d="M310,225v 1" fill="none" stroke="#ff0000" stroke-width="2"/>
<path d="M310,226v 1" fill="none" stroke="#ff0000" stroke-width="2"/>
<path d="M311,227v 1" fill="none" stroke="#ff0000" stroke-width="2"/>
<path d="M311,229" fill="none" stroke="#ff0000" stroke-width="2"/>
<path d="M311,229v 2" fill="none" stroke="#ff0000" stroke-width="2"/>
<path d="M312,231" fill="none" stroke="#ff0000" stroke-width="2"/>
<path d="M312,231v 2" fill="none" stroke="#ff0000" stroke-width="2"/>
<path d="M312,233" fill="none" stroke="#ff0000" stroke-width="2"/>
<path d="M313,233v 2" fill="none" stroke="#ff0000" stroke-width="2"/>
<path d="M313,235" fill="none" stroke="#ff0000" stroke-width="2"/>
<path d="M314,235v 1" fill="none" stroke="#ff0000" stroke-width="2"/>
<path d="M314,237" fill="none" stroke="#ff0000" stroke-width="2"/>
<path d="M314,237v 1" fill="none" stroke="#ff0000" stroke-width="2"/>
<path d="M315,238v 1" fill="none" stroke="#ff0000" stroke-width="2"/>
<path d="M315,239v 1" fill="none" stroke="#ff0000" stroke-width="2"/>
<path d="M316,240v 1" fill="none" stroke="#ff0000" stroke-width="2"/>
<path d="M316,241v 1" fill="none" stroke="#ff0000" stroke-width="2"/>
<path d="M316,242" fill="none" stroke="#ff0000" stroke-width="2"/>
<path d="M317,242v 1" fill="none" stroke="#ff0000" stroke-width="2"/>
<path d="M317,243v 1" fill="none" stroke="#ff0000" stroke-width="2"/>
<path d="M318,244v 1" fill="none" stroke="#ff0000" stroke-width="2"/>
<path d="M318,245v 1" fill="none" stroke="#ff0000" stroke-width="2"/>
<path d="M318,246" fill="none" stroke="#ff0000" stroke-width="2"/>
<path d="M319,246v 1" fill="none" stroke="#ff0000" stroke-width="2"/>
<path d="M319,247v 1" fill="none" stroke="#ff0000" stroke-width="2"/>
<path d="M320,248v 1" fill="none" stroke="#ff0000" stroke-width="2"/>
<path d="M320,249v 1" fill="none" stroke="#ff0000" stroke-width="2"/>
<path d="M320,250" fill="none" stroke="#ff0000" stroke-width="2"/>
<path d="M321,250v 1" fill="none" stroke="#ff0000" stroke-width="2"/>
<path d="M321,251v 1" fill="none" stroke="#ff0000" stroke-width="2"/>
<path d="M322,252" fill="none" stroke="#ff0000" stroke-width="2"/>
<path d="M322,252v 1" fill="none" stroke="#ff0000" stroke-width="2"/>
<path d="M322,253v 1" fill="none" stroke="#ff0000" stroke-width="2"/>
<path d="M323,254" fill="none" stroke="#ff0000" stroke-width="2"/>
<path d="M323,254v 1" fill="none" stroke="#ff0000" stroke-width="2"/>
<path d="M324,255v 1" fill="none" stroke="#ff0000" stroke-width="2"/>
<path d="M324,256" fill="none" stroke="#ff0000" stroke-width="2"/>
<path d="M324,256v 1" fill="none" stroke="#ff0000" stroke-width="2"/>
<path d="M325,257v 1" fill="none" stroke="#ff0000" stroke-width="2"/>
<path d="M325,258" fill="none" stroke="#ff0000" stroke-width="2"/>
<path d="M326,258v 1" fill="none" stroke="#ff0000" stroke-width="2"/>
<path d="M326,259" fill="none" stroke="#ff0000" stroke-width="2"/>
<path d="M326,259v 1" fill="none" stroke="#ff0000" stroke-width="2"/>
<path d="M327,260" fill="none" stroke="#ff0000" stroke-width="2"/>
<path d="M327,260v 1" fill="none" stroke="#ff0000" stroke-width="2"/>
<path d="M328,261" fill="none" stroke="#ff0000" stroke-width="2"/>
<path d="M328,261v 1" fill="none" stroke="#ff0000" stroke-width="2"/>
<path d="M328,262" fill="none" stroke="#ff0000" stroke-width="2"/>
<path d="M329,262v 1" fill="none" stroke="#ff0000" stroke-width="2"/>
<path d="M329,263" fill="none" stroke="#ff0000" stroke-width="2"/>
<path d="M330,263v 1" fill="none" stroke="#ff0000" stroke-width="2"/>
<path d="M330,264" fill="none" stroke="#ff0000" stroke-width="2"/>
<path d="M330,264v 1" fill="none" stroke="#ff0000" stroke-width="2"/>
<path d="M331,265" fill="none" stroke="#ff0000" stroke-width="2"/>
<path d="M331,265v 1" fill="none" stroke="#ff0000" stroke-width="2"/>
<path d="M331,266" fill="none" stroke="#ff0000" stroke-width="2"/>
<path d="M332,266v 1" fill="none" stroke="#ff0000" stroke-width="2"/>
<path d="M332,267" fill="none" stroke="#ff0000" stroke-width="2"/>
<path d="M333,267v 1" fill="none" stroke="#ff0000" stroke-width="2"/>
<path d="M333,268" fill="none" stroke="#ff0000" stroke-width="2"/>
<path d="M333,268v 1" fill="none" stroke="#ff0000" stroke-width="2"/>
<path d="M334,269" fill="none" stroke="#ff0000" stroke-width="2"/>
<path d="M334,269" fill="none" stroke="#ff0000" stroke-width="2"/>
<path d="M335,269v 1" fill="none" stroke="#ff0000" stroke-width="2"/>
<path d="M335,270" fill="none" stroke="#ff0000" stroke-width="2"/>
<path d="M335,270v 1" fill="none" stroke="#ff0000" stroke-width="2"/>
<path d="M336,271" fill="none" stroke="#ff0000" stroke-width="2"/>
<path d="M336,271" fill="none" stroke="#ff0000" stroke-width="2"/>
<path d="M337,271v 1" fill="none" stroke="#ff0000" stroke-width="2"/>
<path d="M337,272" fill="none" stroke="#ff0000" stroke-width="2"/>
<path d="M337,272v 1" fill="none" stroke="#ff0000" stroke-width="2"/>
<path d="M338,273z" fill="none" stroke="#ff0000" stroke-width="2"/>
<path d="M338,273" fill="none" stroke="#ff0000" stroke-width="2"/>
<path d="M339,273" fill="none" stroke="#ff0000" stroke-width="2"/>
<path d="M339,273v 1" fill="none" stroke="#ff0000" stroke-width="2"/>
<path d="M339,274" fill="none" stroke="#ff0000" stroke-width="2"/>
<path d="M340,274v 1" fill="none" stroke="#ff0000" stroke-width="2"/>
<path d="M340,275" fill="none" stroke="#ff0000" stroke-width="2"/>
<path d="M341,275z" fill="none" stroke="#ff0000" stroke-width="2"/>
<path d="M341,275" fill="none" stroke="#ff0000" stroke-width="2"/>
<path d="M341,275v 1" fill="none" stroke="#ff0000" stroke-width="2"/>
<path d="M342,276" fill="none" stroke="#ff0000" stroke-width="2"/>
<path d="M342,276z" fill="none" stroke="#ff0000" stroke-width="2"/>
<path d="M343,277z" fill="none" stroke="#ff0000" stroke-width="2"/>
<path d="M343,277" fill="none" stroke="#ff0000" stroke-width="2"/>
<path d="M343,277" fill="none" stroke="#ff0000" stroke-width="2"/>
<path d="M344,277z" fill="none" stroke="#ff0000" stroke-width="2"/>
<path d="M344,277v 1" fill="none" stroke="#ff0000" stroke-width="2"/>
<path d="M345,278" fill="none" stroke="#ff0000" stroke-width="2"/>
<path d="M345,278z" fill="none" stroke="#ff0000" stroke-width="2"/>
<path d="M345,278v 1" fill="none" stroke="#ff0000" stroke-width="2"/>
<path d="M346,279" fill="none" stroke="#ff0000" stroke-width="2"/>
<path d="M346,279z" fill="none" stroke="#ff0000" stroke-width="2"/>
<path d="M347,279" fill="none" stroke="#ff0000" stroke-width="2"/>
<path d="M347,279v 1" fill="none" stroke="#ff0000" stroke-width="2"/>
<path d="M347,280z" fill="none" stroke="#ff0000" stroke-width="2"/>
<path d="M348,280" fill="none" stroke="#ff0000" stroke-width="2"/>
<path d="M348,280z" fill="none" stroke="#ff0000" stroke-width="2"/>
<path d="M349,280z" fill="none" stroke="#ff0000" stroke-width="2"/>
<path d="M349,280v 1" fill="none" stroke="#ff0000" stroke-width="2"/>
<path d="M349,281z" fill="none" stroke="#ff0000" stroke-width="2"/>
<path d="M350,281" fill="none" stroke="#ff0000" stroke-width="2"/>
<path d="M350,281z" fill="none" stroke="#ff0000" stroke-width="2"/>
<path d="M350,281v 1" fill="none" stroke="#ff0000" stroke-width="2"/>
<path d="M351,282z" fill="none" stroke="#ff0000" stroke-width="2"/>
<path d="M351,282" fill="none" stroke="#ff0000" stroke-width="2"/>
<path d="M352,282z" fill="none" stroke="#ff0000" stroke-width="2"/>
<path d="M352,282" fill="none" stroke="#ff0000" stroke-width="2"/>
<path d="M352,282z" fill="none" stroke="#ff0000" stroke-width="2"/>
<path d="M353,282v 1" fill="none" stroke="#ff0000" stroke-width="2"/>
<path d="M353,283z" fill="none" stroke="#ff0000" stroke-width="2"/>
<path d="M354,283" fill="none" stroke="#ff0000" stroke-width="2"/>
<path d="M354,283z" fill="none" stroke="#ff0000" stroke-width="2"/>
<path d="M354,283v 1" fill="none" stroke="#ff0000" stroke-width="2"/>
<path d="M355,284z" fill="none" stroke="#ff0000" stroke-width="2"/>
<path d="M355,284" fill="none" stroke="#ff0000" stroke-width="2"/>
<path d="M356,284z" fill="none" stroke="#ff0000" stroke-width="2"/>
<path d="M356,284" fill="none" stroke="#ff0000" stroke-width="2"/>
<path d="M356,284z" fill="none" stroke="#ff0000" stroke-width="2"/>
<path d="M357,284z" fill="none" stroke="#ff0000" stroke-width="2"/>
<path d="M357,284v 1" fill="none" stroke="#ff0000" stroke-width="2"/>
<path d="M358,285z" fill="none" stroke="#ff0000" stroke-width="2"/>
<path d="M358,285" fill="none" stroke="#ff0000" stroke-width="2"/>
<path d="M358,285z" fill="none" stroke="#ff0000" stroke-width="2"/>
<path d="M359,285z" fill="none" stroke="#ff0000" stroke-width="2"/>
<path d="M359,286z" fill="none" stroke="#ff0000" stroke-width="2"/>
<path d="M360,286z" fill="none" stroke="#ff0000" stroke-width="2"/>
<path d="M360,286" fill="none" stroke="#ff0000" stroke-width="2"/>
<path d="M360,286z" fill="none" stroke="#ff0000" stroke-width="2"/>
<path d="M361,286z" fill="none" stroke="#ff0000" stroke-width="2"/>
<path d="M361,286" fill="none" stroke="#ff0000" stroke-width="2"/>
<path d="M362,286z" fill="none" stroke="#ff0000" stroke-width="2"/>
<path d="M362,286z" fill="none" stroke="#ff0000" stroke-width="2"/>
<path d="M362,286v 1" fill="none" stroke="#ff0000" stroke-width="2"/>
<path d="M363,287z" fill="none" stroke="#ff0000" stroke-width="2"/>
<path d="M363,287z" fill="none" stroke="#ff0000" stroke-width="2"/>
<path d="M364,287" fill="none" stroke="#ff0000" stroke-width="2"/>
<path d="M364,287z" fill="none" stroke="#ff0000" stroke-width="2"/>
<path d="M364,287z" fill="none" stroke="#ff0000" stroke-width="2"/>
<path d="M365,287v 1" fill="none" stroke="#ff0000" stroke-width="2"/>
<path d="M365,288z" fill="none" stroke="#ff0000" stroke-width="2"/>
<path d="M366,288z" fill="none" stroke="#ff0000" stroke-width="2"/>
<path d="M366,288" fill="none" stroke="#ff0000" stroke-width="2"/>
<path d="M366,288z" fill="none" stroke="#ff0000" stroke-width="2"/>
<path d="M367,288z" fill="none" stroke="#ff0000" stroke-width="2"/>
<path d="M367,288z" fill="none" stroke="#ff0000" stroke-width="2"/>
<path d="M368,288" fill="none" stroke="#ff0000" stroke-width="2"/>
<path d="M368,288z" fill="none" stroke="#ff0000" stroke-width="2"/>
<path d="M368,288z" fill="none" stroke="#ff0000" stroke-width="2"/>
<path d="M369,288z" fill="none" stroke="#ff0000" stroke-width="2"/>
<path d="M369,288v 1" fill="none" stroke="#ff0000" stroke-width="2"/>
<path d="M369,289z" fill="none" stroke="#ff0000" stroke-width="2"/>
<path d="M370,289z" fill="none" stroke="#ff0000" stroke-width="2"/>
<path d="M370,289z" fill="none" stroke="#ff0000" stroke-width="2"/>
<path d="M371,289" fill="none" stroke="#ff0000" stroke-width="2"/>
<path d="M371,289z" fill="none" stroke="#ff0000" stroke-width="2"/>
<path d="M371,289z" fill="none" stroke="#ff0000" stroke-width="2"/>
<path d="M372,289z" fill="none" stroke="#ff0000" stroke-width="2"/>
<path d="M372,289v 1" fill="none" stroke="#ff0000" stroke-width="2"/>
<path d="M373,290z" fill="none" stroke="#ff0000" stroke-width="2"/>
<path d="M373,290z" fill="none" stroke="#ff0000" stroke-width="2"/>
<path d="M373,290z" fill="none" stroke="#ff0000" stroke-width="2"/>
<path d="M374,290z" fill="none" stroke="#ff0000" stroke-width="2"/>
<path d="M374,290" fill="none" stroke="#ff0000" stroke-width="2"/>
<path d="M375,290z" fill="none" stroke="#ff0000" stroke-width="2"/>
<path d="M375,290z" fill="none" stroke="#ff0000" stroke-width="2"/>
<path d="M375,290z" fill="none" stroke="#ff0000" stroke-width="2"/>
<path d="M376,290z" fill="none" stroke="#ff0000" stroke-width="2"/>
<path d="M376,290" fill="none" stroke="#ff0000" stroke-width="2"/>
<path d="M377,290z" fill="none" stroke="#ff0000" stroke-width="2"/>
<path d="M377,290z" fill="none" stroke="#ff0000" stroke-width="2"/>
<path d="M377,290z" fill="none" stroke="#ff0000" stroke-width="2"/>
<path d="M378,290z" fill="none" stroke="#ff0000" stroke-width="2"/>
<path d="M378,290v 1" fill="none" stroke="#ff0000" stroke-width="2"/>
<path d="M379,291z" fill="none" stroke="#ff0000" stroke-width="2"/>
<path d="M379,291z" fill="none" stroke="#ff0000" stroke-width="2"/>
<path d="M379,291z" fill="none" stroke="#ff0000" stroke-width="2"/>
<path d="M380,291z" fill="none" stroke="#ff0000" stroke-width="2"/>
<path d="M380,291z" fill="none" stroke="#ff0000" stroke-width="2"/>
<path d="M381,291" fill="none" stroke="#ff0000" stroke-width="2"/>
<path d="M381,291z" fill="none" stroke="#ff0000" stroke-width="2"/>
<path d="M381,291z" fill="none" stroke="#ff0000" stroke-width="2"/>
<path d="M382,291z" fill="none" stroke="#ff0000" stroke-width="2"/>
<path d="M382,291z" fill="none" stroke="#ff0000" stroke-width="2"/>
<path d="M383,291z" fill="none" stroke="#ff0000" stroke-width="2"/>
<path d="M383,291v 1" fill="none" stroke="#ff0000" stroke-width="2"/>
<path d="M383,292z" fill="none" stroke="#ff0000" stroke-width="2"/>
<path d="M384,292z" fill="none" stroke="#ff0000" stroke-width="2"/>
<path d="M384,292z" fill="none" stroke="#ff0000" stroke-width="2"/>
<path d="M385,292z" fill="none" stroke="#ff0000" stroke-width="2"/>
<path d="M385,292z" fill="none" stroke="#ff0000" stroke-width="2"/>
<path d="M385,292z" fill="none" stroke="#ff0000" stroke-width="2"/>
<path d="M386,292z" fill="none" stroke="#ff0000" stroke-width="2"/>
<path d="M386,292" fill="none" stroke="#ff0000" stroke-width="2"/>
<path d="M387,292z" fill="none" stroke="#ff0000" stroke-width="2"/>
<path d="M387,292z" fill="none" stroke="#ff0000" stroke-width="2"/>
<path d="M387,292z" fill="none" stroke="#ff0000" stroke-width="2"/>
<path d="M388,292z" fill="none" stroke="#ff0000" stroke-width="2"/>
<path d="M388,292z" fill="none" stroke="#ff0000" stroke-width="2"/>
<path d="M388,292z" fill="none" stroke="#ff0000" stroke-width="2"/>
<path d="M389,292z" fill="none" stroke="#ff0000" stroke-width="2"/>
<path d="M389,292" fill="none" stroke="#ff0000" stroke-width="2"/>
<path d="M390,292z" fill="none" stroke="#ff0000" stroke-width="2"/>
<path d="M390,292z" fill="none" stroke="#ff0000" stroke-width="2"/>
<path d="M390,292z" fill="none" stroke="#ff0000" stroke-width="2"/>
<path d="M391,292z" fill="none" stroke="#ff0000" stroke-width="2"/>
<path d="M391,292z" fill="none" stroke="#ff0000" stroke-width="2"/>
<path d="M392,292z" fill="none" stroke="#ff0000" stroke-width="2"/>
<path d="M392,292z" fill="none" stroke="#ff0000" stroke-width="2"/>
<path d="M392,292z" fill="none" stroke="#ff0000" stroke-width="2"/>
<path d="M393,292v 1" fill="none" stroke="#ff0000" stroke-width="2"/>
<path d="M393,293z" fill="none" stroke="#ff0000" stroke-width="2"/>
<path d="M394,293z" fill="none" stroke="#ff0000" stroke-width="2"/>
<path d="M394,293z" fill="none" stroke="#ff0000" stroke-width="2"/>
<path d="M394,293z" fill="none" stroke="#ff0000" stroke-width="2"/>
<path d="M395,293z" fill="none" stroke="#ff0000" stroke-width="2"/>
<path d="M395,293z" fill="none" stroke="#ff0000" stroke-width="2"/>
<path d="M396,293z" fill="none" stroke="#ff0000" stroke-width="2"/>
<path d="M396,293z" fill="none" stroke="#ff0000" stroke-width="2"/>
<path d="M396,293z" fill="none" stroke="#ff0000" stroke-width="2"/>
<path d="M397,293z" fill="none" stroke="#ff0000" stroke-width="2"/>
<path d="M397,293" fill="none" stroke="#ff0000" stroke-width="2"/>
<path d="M398,293z" fill="none" stroke="#ff0000" stroke-width="2"/>
<path d="M398,293z" fill="none" stroke="#ff0000" stroke-width="2"/>
<path d="M398,293z" fill="none" stroke="#ff0000" stroke-width="2"/>
<path d="M399,293z" fill="none" stroke="#ff0000" stroke-width="2"/>
<path d="M399,293z" fill="none" stroke="#ff0000" stroke-width="2"/>
<path d="M400,293z" fill="none" stroke="#ff0000" stroke-width="2"/>
<path d="M400,293z" fill="none" stroke="#ff0000" stroke-width="2"/>
<path d="M400,293z" fill="none" stroke="#ff0000" stroke-width="2"/>
<path d="M401,293z" fill="none" stroke="#ff0000" stroke-width="2"/>
<path d="M401,293z" fill="none" stroke="#ff0000" stroke-width="2"/>
<path d="M402,293z" fill="none" stroke="#ff0000" stroke-width="2"/>
<path d="M402,293z" fill="none" stroke="#ff0000" stroke-width="2"/>
<path d="M402,293z" fill="none" stroke="#ff0000" stroke-width="2"/>
<path d="M403,293v 1" fill="none" stroke="#ff0000" stroke-width="2"/>
<path d="M403,294z" fill="none" stroke="#ff0000" stroke-width="2"/>
<path d="M404,294z" fill="none" stroke="#ff0000" stroke-width="2"/>
<path d="M404,294z" fill="none" stroke="#ff0000" stroke-width="2"/>
<path d="M404,294z" fill="none" stroke="#ff0000" stroke-width="2"/>
<path d="M405,294z" fill="none" stroke="#ff0000" stroke-width="2"/>
<path d="M405,294z" fill="none" stroke="#ff0000" stroke-width="2"/>
<path d="M406,294z" fill="none" stroke="#ff0000" stroke-width="2"/>
<path d="M406,294z" fill="none" stroke="#ff0000" stroke-width="2"/>
<path d="M406,294z" fill="none" stroke="#ff0000" stroke-width="2"/>
<path d="M407,294z" fill="none" stroke="#ff0000" stroke-width="2"/>
<path d="M407,294z" fill="none" stroke="#ff0000" stroke-width="2"/>
<path d="M408,294z" fill="none" stroke="#ff0000" stroke-width="2"/>
<path d="M408,294z" fill="none" stroke="#ff0000" stroke-width="2"/>
<path d="M408,294z" fill="none" stroke="#ff0000" stroke-width="2"/>
<path d="M409,294z" fill="none" stroke="#ff0000" stroke-width="2"/>
<path d="M409,294z" fill="none" stroke="#ff0000" stroke-width="2"/>
<path d="M409,294" fill="none" stroke="#ff0000" stroke-width="2"/>
<path d="M410,294z" fill="none" stroke="#ff0000" stroke-width="2"/>
<path d="M410,294z" fill="none" stroke="#ff0000" stroke-width="2"/>
<path d="M411,294z" fill="none" stroke="#ff0000" stroke-width="2"/>
<path d="M411,294z" fill="none" stroke="#ff0000" stroke-width="2"/>
<path d="M411,294z" fill="none" stroke="#ff0000" stroke-width="2"/>
<path d="M412,294z" fill="none" stroke="#ff0000" stroke-width="2"/>
<path d="M412,294z" fill="none" stroke="#ff0000" stroke-width="2"/>
<path d="M413,294z" fill="none" stroke="#ff0000" stroke-width="2"/>
<path d="M413,294z" fill="none" stroke="#ff0000" stroke-width="2"/>
<path d="M413,294z" fill="none" stroke="#ff0000" stroke-width="2"/>
<path d="M414,294z" fill="none" stroke="#ff0000" stroke-width="2"/>
<path d="M414,294z" fill="none" stroke="#ff0000" stroke-width="2"/>
<path d="M415,294z" fill="none" stroke="#ff0000" stroke-width="2"/>
<path d="M415,294z" fill="none" stroke="#ff0000" stroke-width="2"/>
<path d="M415,294z" fill="none" stroke="#ff0000" stroke-width="2"/>
<path d="M416,294z" fill="none" stroke="#ff0000" stroke-width="2"/>
<path d="M416,294z" fill="none" stroke="#ff0000" stroke-width="2"/>
<path d="M417,294z" fill="none" stroke="#ff0000" stroke-width="2"/>
<path d="M417,294z" fill="none" stroke="#ff0000" stroke-width="2"/>
<path d="M417,294z" fill="none" stroke="#ff0000" stroke-width="2"/>
<path d="M418,294z" fill="none" stroke="#ff0000" stroke-width="2"/>
<path d="M418,294z" fill="none" stroke="#ff0000" stroke-width="2"/>
<path d="M419,294" fill="none" stroke="#ff0000" stroke-width="2"/>
<path d="M419,294z" fill="none" stroke="#ff0000" stroke-width="2"/>
<path d="M419,294z" fill="none" stroke="#ff0000" stroke-width="2"/>
<path d="M420,294z" fill="none" stroke="#ff0000" stroke-width="2"/>
<path d="M420,294z" fill="none" stroke="#ff0000" stroke-width="2"/>
<path d="M421,294z" fill="none" stroke="#ff0000" stroke-width="2"/>
<path d="M421,294z" fill="none" stroke="#ff0000" stroke-width="2"/>
<path d="M421,294z" fill="none" stroke="#ff0000" stroke-width="2"/>
<path d="M422,294z" fill="none" stroke="#ff0000" stroke-width="2"/>
<path d="M422,294z" fill="none" stroke="#ff0000" stroke-width="2"/>
<path d="M423,294z" fill="none" stroke="#ff0000" stroke-width="2"/>
<path d="M423,294z" fill="none" stroke="#ff0000" stroke-width="2"/>
<path d="M423,294z" fill="none" stroke="#ff0000" stroke-width="2"/>
<path d="M424,294z" fill="none" stroke="#ff0000" stroke-width="2"/>
<path d="M424,294z" fill="none" stroke="#ff0000" stroke-width="2"/>
<path d="M425,294z" fill="none" stroke="#ff0000" stroke-width="2"/>
<path d="M425,294z" fill="none" stroke="#ff0000" stroke-width="2"/>
<path d="M425,294z" fill="none" stroke="#ff0000" stroke-width="2"/>
<path d="M426,294z" fill="none" stroke="#ff0000" stroke-width="2"/>
<path d="M426,294z" fill="none" stroke="#ff0000" stroke-width="2"/>
<path d="M427,294z" fill="none" stroke="#ff0000" stroke-width="2"/>
<path d="M427,294z" fill="none" stroke="#ff0000" stroke-width="2"/>
<path d="M427,294z" fill="none" stroke="#ff0000" stroke-width="2"/>
<path d="M428,294z" fill="none" stroke="#ff0000" stroke-width="2"/>
<path d="M428,294z" fill="none" stroke="#ff0000" stroke-width="2"/>
<path d="M428,294z" fill="none" stroke="#ff0000" stroke-width="2"/>
<path d="M429,294z" fill="none" stroke="#ff0000" stroke-width="2"/>
<path d="M429,294z" fill="none" stroke="#ff0000" stroke-width="2"/>
<path d="M430,294z" fill="none" stroke="#ff0000" stroke-width="2"/>
<path d="M430,294z" fill="none" stroke="#ff0000" stroke-width="2"/>
<path d="M430,294z" fill="none" stroke="#ff0000" stroke-width="2"/>
<path d="M431,294z" fill="none" stroke="#ff0000" stroke-width="2"/>
<path d="M431,294z" fill="none" stroke="#ff0000" stroke-width="2"/>
<path d="M432,294z" fill="none" stroke="#ff0000" stroke-width="2"/>
<path d="M432,294z" fill="none" stroke="#ff0000" stroke-width="2"/>
<path d="M432,294z" fill="none" stroke="#ff0000" stroke-width="2"/>
<path d="M433,294z" fill="none" stroke="#ff0000" stroke-width="2"/>
<path d="M433,294z" fill="none" stroke="#ff0000" stroke-width="2"/>
<path d="M434,294z" fill="none" stroke="#ff0000" stroke-width="2"/>
<path d="M434,294v 1" fill="none" stroke="#ff0000" stroke-width="2"/>
<path d="M434,295z" fill="none" stroke="#ff0000" stroke-width="2"/>
<path d="M435,295z" fill="none" stroke="#ff0000" stroke-width="2"/>
<path d="M435,295z" fill="none" stroke="#ff0000" stroke-width="2"/>
<path d="M436,295z" fill="none" stroke="#ff0000" stroke-width="2"/>
<path d="M436,295z" fill="none" stroke="#ff0000" stroke-width="2"/>
<path d="M436,295z" fill="none" stroke="#ff0000" stroke-width="2"/>
<path d="M437,295z" fill="none" stroke="#ff0000" stroke-width="2"/>
<path d="M437,295z" fill="none" stroke="#ff0000" stroke-width="2"/>
<path d="M438,295z" fill="none" stroke="#ff0000" stroke-width="2"/>
<path d="M438,295z" fill="none" stroke="#ff0000" stroke-width="2"/>
<path d="M438,295z" fill="none" stroke="#ff0000" stroke-width="2"/>
<path d="M439,295z" fill="none" stroke="#ff0000" stroke-width="2"/>
<path d="M439,295z" fill="none" stroke="#ff0000" stroke-width="2"/>
<path d="M440,295z" fill="none" stroke="#ff0000" stroke-width="2"/>
<path d="M440,295z" fill="none" stroke="#ff0000" stroke-width="2"/>
<path d="M440,295z" fill="none" stroke="#ff0000" stroke-width="2"/>
<path d="M441,295z" fill="none" stroke="#ff0000" stroke-width="2"/>
<path d="M441,295z" fill="none" stroke="#ff0000" stroke-width="2"/>
<path d="M442,295z" fill="none" stroke="#ff0000" stroke-width="2"/>
<path d="M442,295z" fill="none" stroke="#ff0000" stroke-width="2"/>
<path d="M442,295z" fill="none" stroke="#ff0000" stroke-width="2"/>
<path d="M443,295z" fill="none" stroke="#ff0000" stroke-width="2"/>
<path d="M443,295z" fill="none" stroke="#ff0000" stroke-width="2"/>
<path d="M444,295z" fill="none" stroke="#ff0000" stroke-width="2"/>
<path d="M444,295z" fill="none" stroke="#ff0000" stroke-width="2"/>
<path d="M444,295z" fill="none" stroke="#ff0000" stroke-width="2"/>
<path d="M445,295z" fill="none" stroke="#ff0000" stroke-width="2"/>
<path d="M445,295z" fill="none" stroke="#ff0000" stroke-width="2"/>
<path d="M446,295z" fill="none" stroke="#ff0000" stroke-width="2"/>
<path d="M446,295z" fill="none" stroke="#ff0000" stroke-width="2"/>
<path d="M446,295z" fill="none" stroke="#ff0000" stroke-width="2"/>
<path d="M447,295z" fill="none" stroke="#ff0000" stroke-width="2"/>
<path d="M447,295z" fill="none" stroke="#ff0000" stroke-width="2"/>
<path d="M447,295z" fill="none" stroke="#ff0000" stroke-width="2"/>
<path d="M448,295z" fill="none" stroke="#ff0000" stroke-width="2"/>
<path d="M448,295z" fill="none" stroke="#ff0000" stroke-width="2"/>
<path d="M449,295z" fill="none" stroke="#ff0000" stroke-width="2"/>
<path d="M449,295z" fill="none" stroke="#ff0000" stroke-width="2"/>
<path d="M449,295z" fill="none" stroke="#ff0000" stroke-width="2"/>
<path d="M450,295z" fill="none" stroke="#ff0000" stroke-width="2"/>
<path d="M450,295z" fill="none" stroke="#ff0000" stroke-width="2"/>
<path d="M451,295z" fill="none" stroke="#ff0000" stroke-width="2"/>
<path d="M451,295z" fill="none" stroke="#ff0000" stroke-width="2"/>
<path d="M451,295z" fill="none" stroke="#ff0000" stroke-width="2"/>
<path d="M452,295z" fill="none" stroke="#ff0000" stroke-width="2"/>
<path d="M452,295z" fill="none" stroke="#ff0000" stroke-width="2"/>
<path d="M453,295z" fill="none" stroke="#ff0000" stroke-width="2"/>
<path d="M453,295z" fill="none" stroke="#ff0000" stroke-width="2"/>
<path d="M453,295z" fill="none" stroke="#ff0000" stroke-width="2"/>
<path d="M454,295z" fill="none" stroke="#ff0000" stroke-width="2"/>
<path d="M454,295z" fill="none" stroke="#ff0000" stroke-width="2"/>
<path d="M455,295z" fill="none" stroke="#ff0000" stroke-width="2"/>
<path d="M455,295z" fill="none" stroke="#ff0000" stroke-width="2"/>
<path d="M455,295z" fill="none" stroke="#ff0000" stroke-width="2"/>
<path d="M456,295z" fill="none" stroke="#ff0000" stroke-width="2"/>
<path d="M456,295z" fill="none" stroke="#ff0000" stroke-width="2"/>
<path d="M457,295z" fill="none" stroke="#ff0000" stroke-width="2"/>
<path d="M457,295z" fill="none" stroke="#ff0000" stroke-width="2"/>
<path d="M457,295z" fill="none" stroke="#ff0000" stroke-width="2"/>
<path d="M458,295z" fill="none" stroke="#ff0000" stroke-width="2"/>
<path d="M458,295z" fill="none" stroke="#ff0000" stroke-width="2"/>
<path d="M459,295z" fill="none" stroke="#ff0000" stroke-width="2"/>
<path d="M459,295z" fill="none" stroke="#ff0000" stroke-width="2"/>
<path d="M459,295z" fill="none" stroke="#ff0000" stroke-width="2"/>
<path d="M460,295z" fill="none" stroke="#ff0000" stroke-width="2"/>
<path d="M460,295z" fill="none" stroke="#ff0000" stroke-width="2"/>
<path d="M461,295z" fill="none" stroke="#ff0000" stroke-width="2"/>
<path d="M461,295z" fill="none" stroke="#ff0000" stroke-width="2"/>
<path d="M461,295z" fill="none" stroke="#ff0000" stroke-width="2"/>
<path d="M462,295z" fill="none" stroke="#ff0000" stroke-width="2"/>
<path d="M462,295z" fill="none" stroke="#ff0000" stroke-width="2"/>
<path d="M463,295z" fill="none" stroke="#ff0000" stroke-width="2"/>
<path d="M463,295z" fill="none" stroke="#ff0000" stroke-width="2"/>
<path d="M463,295z" fill="none" stroke="#ff0000" stroke-width="2"/>
<path d="M464,295z" fill="none" stroke="#ff0000" stroke-width="2"/>
<path d="M464,295z" fill="none" stroke="#ff0000" stroke-width="2"/>
<path d="M465,295z" fill="none" stroke="#ff0000" stroke-width="2"/>
<path d="M465,295z" fill="none" stroke="#ff0000" stroke-width="2"/>
<path d="M465,295z" fill="none" stroke="#ff0000" stroke-width="2"/>
<path d="M466,295z" fill="none" stroke="#ff0000" stroke-width="2"/>
<path d="M466,295z" fill="none" stroke="#ff0000" stroke-width="2"/>
<path d="M466,295z" fill="none" stroke="#ff0000" stroke-width="2"/>
<path d="M467,295z" fill="none" stroke="#ff0000" stroke-width="2"/>
<path d="M467,295z" fill="none" stroke="#ff0000" stroke-width="2"/>
<path d="M468,295z" fill="none" stroke="#ff0000" stroke-width="2"/>
<path d="M468,295z" fill="none" stroke="#ff0000" stroke-width="2"/>
<path d="M468,295z" fill="none" stroke="#ff0000" stroke-width="2"/>
<path d="M469,295z" fill="none" stroke="#ff0000" stroke-width="2"/>
<path d="M469,295z" fill="none" stroke="#ff0000" stroke-width="2"/>
<path d="M470,295z" fill="none" stroke="#ff0000" stroke-width="2"/>
<path d="M470,295z" fill="none" stroke="#ff0000" stroke-width="2"/>
<path d="M470,295z" fill="none" stroke="#ff0000" stroke-width="2"/>
<path d="M471,295z" fill="none" stroke="#ff0000" stroke-width="2"/>
<path d="M471,295z" fill="none" stroke="#ff0000" stroke-width="2"/>
<path d="M472,295z" fill="none" stroke="#ff0000" stroke-width="2"/>
<path d="M472,295z" fill="none" stroke="#ff0000" stroke-width="2"/>
<path d="M472,295z" fill="none" stroke="#ff0000" stroke-width="2"/>
<path d="M473,295z" fill="none" stroke="#ff0000" stroke-width="2"/>
<path d="M473,295z" fill="none" stroke="#ff0000" stroke-width="2"/>
<path d="M474,295z" fill="none" stroke="#ff0000" stroke-width="2"/>
<path d="M474,295z" fill="none" stroke="#ff0000" stroke-width="2"/>
<path d="M474,295z" fill="none" stroke="#ff0000" stroke-width="2"/>
<path d="M475,295z" fill="none" stroke="#ff0000" stroke-width="2"/>
<path d="M475,295z" fill="none" stroke="#ff0000" stroke-width="2"/>
<path d="M476,295z" fill="none" stroke="#ff0000" stroke-width="2"/>
<path d="M476,295z" fill="none" stroke="#ff0000" stroke-width="2"/>
<path d="M476,295z" fill="none" stroke="#ff0000" stroke-width="2"/>
<path d="M477,295z" fill="none" stroke="#ff0000" stroke-width="2"/>
<path d="M477,295z" fill="none" stroke="#ff0000" stroke-width="2"/>
<path d="M478,295z" fill="none" stroke="#ff0000" stroke-width="2"/>
<path d="M478,295z" fill="none" stroke="#ff0000" stroke-width="2"/>
<path d="M478,295z" fill="none" stroke="#ff0000" stroke-width="2"/>
<path d="M284,101v 2l 1, 3v 3l 1, 3v 6l 1, 3v 2l 1, 3v 5l 1, 3v 2l 1, 3v 5l 1, 2v 3l 1, 2v 4l 1, 2v 5l 1, 2v 2l 1, 2v 4l 1, 2v 2l 1, 2v 4l 1, 1v 2l 1, 2v 3l 1, 2v 1l 1, 2v 3l 1, 2v 1l 1, 1v 4l 1, 1v 1l 1, 2v 2l 1, 2v 1l 1, 1v 3l 1, 1v 1l 1, 1v 2l 1,
 1v 2l 1, 1v 2l 1, 1v 2l 1, 1v 1l 1, 1v 2l 1, 1l 1, 2v 1l 1, 1v 1h 1v 2l 1, 1v 1h 1v 2h 1v 1l 1, 1v 1l 1, 1l 1, 1v 1l 1, 1v 1h 1v 2h 1l 1, 1v 1l 1, 1h 1v 2h 1v 1h 1v 1h 1v 1l 1, 1h 1v 1l 1, 1h 1v 1l 1, 1h 1v 1h 1v 1h 1l 1, 1l 1, 1h 1l 1, 1l 1, 1h 1v
 1h 2v 1h 1l 1, 1h 2v 1h 1l 1, 1h 2l 1, 1h 1v 1h 3l 1, 1h 2v 1h 4v 1h 3l 1, 1h 5l 1, 1h 4v 1h 10v 1h 10v 1h 31v 1h 44" fill="none" stroke="#ff0000" stroke-width="2"/>
<path d="M57,295h 453" fill="none" stroke="black"/>
<text x="436" y="317" fill="black" font-size="11" font-family="Helvetica">
TDC-TDC0 (ns)
</text>
<path d="M57,287v 8" fill="none" stroke="black"/>
<path d="M68,291v 4" fill="none" stroke="black"/>
<path d="M79,291v 4" fill="none" stroke="black"/>
<path d="M91,291v 4" fill="none" stroke="black"/>
<path d="M102,291v 4" fill="none" stroke="black"/>
<path d="M113,287v 8" fill="none" stroke="black"/>
<path d="M125,291v 4" fill="none" stroke="black"/>
<path d="M136,291v 4" fill="none" stroke="black"/>
<path d="M147,291v 4" fill="none" stroke="black"/>
<path d="M159,291v 4" fill="none" stroke="black"/>
<path d="M170,287v 8" fill="none" stroke="black"/>
<path d="M181,291v 4" fill="none" stroke="black"/>
<path d="M193,291v 4" fill="none" stroke="black"/>
<path d="M204,291v 4" fill="none" stroke="black"/>
<path d="M215,291v 4" fill="none" stroke="black"/>
<path d="M227,287v 8" fill="none" stroke="black"/>
<path d="M238,291v 4" fill="none" stroke="black"/>
<path d="M249,291v 4" fill="none" stroke="black"/>
<path d="M261,291v 4" fill="none" stroke="black"/>
<path d="M272,291v 4" fill="none" stroke="black"/>
<path d="M283,287v 8" fill="none" stroke="black"/>
<path d="M295,291v 4" fill="none" stroke="black"/>
<path d="M306,291v 4" fill="none" stroke="black"/>
<path d="M317,291v 4" fill="none" stroke="black"/>
<path d="M329,291v 4" fill="none" stroke="black"/>
<path d="M340,287v 8" fill="none" stroke="black"/>
<path d="M351,291v 4" fill="none" stroke="black"/>
<path d="M363,291v 4" fill="none" stroke="black"/>
<path d="M374,291v 4" fill="none" stroke="black"/>
<path d="M386,291v 4" fill="none" stroke="black"/>
<path d="M397,287v 8" fill="none" stroke="black"/>
<path d="M408,291v 4" fill="none" stroke="black"/>
<path d="M420,291v 4" fill="none" stroke="black"/>
<path d="M431,291v 4" fill="none" stroke="black"/>
<path d="M442,291v 4" fill="none" stroke="black"/>
<path d="M454,287v 8" fill="none" stroke="black"/>
<path d="M465,291v 4" fill="none" stroke="black"/>
<path d="M476,291v 4" fill="none" stroke="black"/>
<path d="M488,291v 4" fill="none" stroke="black"/>
<path d="M499,291v 4" fill="none" stroke="black"/>
<path d="M510,287v 8" fill="none" stroke="black"/>
<text x="40" y="306" fill="black" font-size="11" font-family="Helvetica">
-20000
</text>
<text x="97" y="306" fill="black" font-size="11" font-family="Helvetica">
-15000
</text>
<text x="153" y="306" fill="black" font-size="11" font-family="Helvetica">
-10000
</text>
<text x="213" y="306" fill="black" font-size="11" font-family="Helvetica">
-5000
</text>
<text x="281" y="306" fill="black" font-size="11" font-family="Helvetica">
0
</text>
<text x="328" y="306" fill="black" font-size="11" font-family="Helvetica">
5000
</text>
<text x="382" y="306" fill="black" font-size="11" font-family="Helvetica">
10000
</text>
<text x="439" y="306" fill="black" font-size="11" font-family="Helvetica">
15000
</text>
<text x="495" y="306" fill="black" font-size="11" font-family="Helvetica">
20000
</text>
<path d="M57,295v -262" fill="none" stroke="black"/>
<g transform="rotate(-90,29,61)">
<text x="29" y="61" fill="black" font-size="11" font-family="Helvetica">
Count
</text>
</g>
<path d="M70,295h -13" fill="none" stroke="black"/>
<path d="M63,285h -6" fill="none" stroke="black"/>
<path d="M63,275h -6" fill="none" stroke="black"/>
<path d="M63,265h -6" fill="none" stroke="black"/>
<path d="M63,255h -6" fill="none" stroke="black"/>
<path d="M70,245h -13" fill="none" stroke="black"/>
<path d="M63,235h -6" fill="none" stroke="black"/>
<path d="M63,225h -6" fill="none" stroke="black"/>
<path d="M63,215h -6" fill="none" stroke="black"/>
<path d="M63,205h -6" fill="none" stroke="black"/>
<path d="M70,195h -13" fill="none" stroke="black"/>
<path d="M63,185h -6" fill="none" stroke="black"/>
<path d="M63,175h -6" fill="none" stroke="black"/>
<path d="M63,165h -6" fill="none" stroke="black"/>
<path d="M63,155h -6" fill="none" stroke="black"/>
<path d="M70,145h -13" fill="none" stroke="black"/>
<path d="M63,135h -6" fill="none" stroke="black"/>
<path d="M63,125h -6" fill="none" stroke="black"/>
<path d="M63,115h -6" fill="none" stroke="black"/>
<path d="M63,105h -6" fill="none" stroke="black"/>
<path d="M70,95h -13" fill="none" stroke="black"/>
<path d="M63,85h -6" fill="none" stroke="black"/>
<path d="M63,75h -6" fill="none" stroke="black"/>
<path d="M63,65h -6" fill="none" stroke="black"/>
<path d="M63,55h -6" fill="none" stroke="black"/>
<path d="M70,45h -13" fill="none" stroke="black"/>
<path d="M70,45h -13" fill="none" stroke="black"/>
<path d="M63,35h -6" fill="none" stroke="black"/>
<text x="48" y="299" fill="black" font-size="11" font-family="Helvetica">
0
</text>
<text x="42" y="249" fill="black" font-size="11" font-family="Helvetica">
10
</text>
<text x="42" y="199" fill="black" font-size="11" font-family="Helvetica">
20
</text>
<text x="42" y="149" fill="black" font-size="11" font-family="Helvetica">
30
</text>
<text x="42" y="99" fill="black" font-size="11" font-family="Helvetica">
40
</text>
<text x="42" y="49" fill="black" font-size="11" font-family="Helvetica">
50
</text>
<rect x="442" y="22" width="114" height="39" fill="white"/>
<path d="M442,61h 114" fill="none" stroke="black"/>
<path d="M556,61v -39" fill="none" stroke="black"/>
<path d="M556,22h -114" fill="none" stroke="black"/>
<path d="M442,22v 39" fill="none" stroke="black"/>
<text x="448" y="27" fill="black" font-size="6" font-family="Helvetica">
Entries 
</text>
<text x="536" y="27" fill="black" font-size="6" font-family="Helvetica">
 5367
</text>
<text x="453" y="33" fill="black" font-size="6" font-family="Helvetica">
 / ndf 
</text>
<text x="451" y="31" fill="black" font-size="4" font-family="Helvetica">
2
</text>
<text x="448" y="33" fill="black" font-size="6" font-family="Times">
&#0967;
</text>
<text x="518" y="33" fill="black" font-size="6" font-family="Helvetica">
 689.9 / 1243
</text>
<text x="455" y="39" fill="black" font-size="6" font-family="Helvetica">
   
</text>
<text x="452" y="41" fill="black" font-size="4" font-family="Helvetica">
cu
</text>
<text x="448" y="39" fill="black" font-size="6" font-family="Helvetica">
N
</text>
<text x="522" y="40" fill="black" font-size="6" font-family="Helvetica">
 2.173e+00
</text>
<text x="519" y="40" fill="black" font-size="6" font-family="Times">
&#0177;
</text>
<text x="492" y="40" fill="black" font-size="6" font-family="Helvetica">
 2.234e-11 
</text>
<text x="454" y="45" fill="black" font-size="6" font-family="Helvetica">
 
</text>
<text x="450" y="47" fill="black" font-size="4" font-family="Helvetica">
cu
</text>
<text x="448" y="45" fill="black" font-size="6" font-family="Times">
&#0964;
</text>
<text x="541" y="46" fill="black" font-size="6" font-family="Helvetica">
 1.2
</text>
<text x="538" y="46" fill="black" font-size="6" font-family="Times">
&#0177;
</text>
<text x="521" y="46" fill="black" font-size="6" font-family="Helvetica">
 164.5 
</text>
<text x="453" y="52" fill="black" font-size="6" font-family="Helvetica">
    
</text>
<text x="452" y="54" fill="black" font-size="4" font-family="Helvetica">
f
</text>
<text x="448" y="52" fill="black" font-size="6" font-family="Helvetica">
N
</text>
<text x="538" y="53" fill="black" font-size="6" font-family="Helvetica">
 0.55
</text>
<text x="534" y="53" fill="black" font-size="6" font-family="Times">
&#0177;
</text>
<text x="517" y="53" fill="black" font-size="6" font-family="Helvetica">
 39.94 
</text>
<text x="451" y="58" fill="black" font-size="6" font-family="Helvetica">
 
</text>
<text x="450" y="60" fill="black" font-size="4" font-family="Helvetica">
f
</text>
<text x="448" y="58" fill="black" font-size="6" font-family="Times">
&#0964;
</text>
<text x="541" y="59" fill="black" font-size="6" font-family="Helvetica">
 0.0
</text>
<text x="538" y="59" fill="black" font-size="6" font-family="Times">
&#0177;
</text>
<text x="521" y="59" fill="black" font-size="6" font-family="Helvetica">
  2197 
</text>
<text x="180" y="16" fill="black" font-size="15" font-family="Helvetica">
5mm_Air_combined_5mm_Air
</text></svg>
