<?xml version="1.0" standalone="no"?>
<svg width="567" height="328" viewBox="0 0 567 328" xmlns="http://www.w3.org/2000/svg">
<title>
images/sim_mu-_5mm_Aluminium_loose_cu_10ns_bins_500k.svg
</title>
<desc>
Creator: ROOT Version 5.34/05
CreationDate: Fri May 31 20:34:04 2013</desc>
<defs>
</defs>
<rect x="0" y="0" width="567" height="328" fill="white"/>
<rect x="57" y="33" width="453" height="262" fill="white"/>
<rect x="57" y="33" width="453" height="262" fill="none" stroke="black"/>
<rect x="57" y="33" width="453" height="262" fill="white"/>
<rect x="57" y="33" width="453" height="262" fill="none" stroke="black"/>
<path d="M57,295h 227v -249v 48v -20h 1v -24v 48v -20v 36v -32v 57v -45h 1v 37v -37v 61v -57v 65h 1v 24v -8v 20v -52v 36v -44v 72v -60v 20h 1v -28v 56v -24h 1v -12v 84v -80v 24h 1v 16v -68v 56v -4v 16v -20h 1v 12v -8v 24v -28v 20v -12h 1v 24v -28v
 24v -32v 32h 1v -12v 20v -40v 32v -36v 24v -24v 16h 1v -44v 64v -20v 8v -4v 8h 1v -24v 40v -32v 12h 1v 32v -60v 44v -12h 1v -28v 44v -24v 40v -8h 1v -16v 24v -28v 16v -16v 28h 1v -16v 20v -16v 4v -32v 64v -32v 16v -4h 1v 8v -40v 28v -16h 1v 20v -24v
 40v -52h 1v 44v -60v 60h 1v -24v 12v -4v 16v -16v 8v -8v 12v -16h 1v 16v -20v 28v -40v 36v -44v 24v -4h 1v 40v -36v 8v -24v 36v -16h 1v 20v -36v 24v -20v 40v -8v 4h 1v -36v 44v -12v 12h 1v -32v 28v -44v 20h 1v 28v -44v 32v -20v 4h 1v 8v -28v 28v
 -20v 56h 1v -36v 20v -44v 44v -20h 1v -16v 32v -28v 32h 1v -12v 16v -44v 24h 1v 16v -24v 12v -8v 20v -16v 16v -4h 1v 8v -8v 16v -20v 4h 1v 8v -20v 8v -4v 20v -12h 1v 4v -16v 16v -12v 20v -16h 1v -20v 32v -8v 24v -24v 16h 1v -28v 32v -32v 24v -20h 1v
 16v -24v 20v -24v 20h 1v -4v 24v -12v 8v -20v 28v -20v 12v -28h 1v 20v -16v 16v -12v 20v -12h 1v 8v -8v 28v -48v 36v -20h 1v 8v -20v 32v -20v 12v -4h 1v -16v 28v -24v 20v -28v 8h 1v 20v -4v 12v -12v 4h 1v -12v 16v -24v 4v -16v 36v -24h 1v 24v -40v
 48v -20v 12v -24v 24h 1v -20v 16v -4v 12v -20v 4v -16h 1v 28v -16v 20v -16v 20v -24v 4h 1v -4v 12v -12v 16v -20h 1v 20v -12v 20v -16v 4h 1v 8v -12v 8v -20v 16h 1v -16v 16v -4v 4v -8v 16h 1v -8v 4v -12v 16v -4h 1v -16v 20v -8v 4v -20v 12v -4v 16h 1v
 -16v 20v -20v 16v -16v 20v -8h 1v -8v 16h 1v -16v 4v -4v 12v -8v 8v -16h 1v 12v -12v 4v -4v 16v -4v 8v -20h 1v 16v -24v 24v -12h 1v 16v -8v 4v -16v 12v -12v 8h 1v 4v -12v 12v -16v 24v -8h 1v 4v -8v 12v -24v 28v -12v 4v -12h 1v 12v -12v 16v -8h 1v 8v
 -12v 8v -8v 8v -4h 1v 4v -8v 4v -4v 8v -8h 1v 12v -8v 12v -16v 16v -8h 1v -8v 16v -20v 16v -20v 16v -12h 1v 12v -4v 8v -8v 8v -4h 1v 8v -8v 8v -8v 8h 1v -4v 4v -12v 12h 1v -12v 8v -8v 12v -16v 16h 1v -8v 4v -12v 12v -8h 1v 12v -8v 4v -8v 12v -4h 1v
 -4v 8v -4v 4v -4h 1v -4v 8v -8v 8v -8v 4h 1v -4v 8v -12v 8v -8v 4v -4v 8h 1v -4v 8v -8v 4h 1v -8v 8v -4v 4v -4v 4h 1v 4v -8v 4v -8v 8h 1v 4v -20v 20v -16h 1v 12v -4v 8v -8v 4h 1v 4v -8v 4h 1v 4v -8v 8v -4v 4v -8h 1v 4v -8v 12v -12h 1v 8v -8v 12v -8v
 4h 1v -4v 4v -8v 8v -8v 12v -4h 1v 4v -16v 12v -12v 12h 1v 4v -4v 4v -4v 4h 1v -8v 8v -12v 8v -4v 8v -4h 1v -4v 8v -8v 8h 1v -4v 4v -4v 4h 1v -4v 4v -12v 12h 1v -8v 8h 1v -8v 8v -4v 4v -8v 8v -4v 4h 1v -8v 8v -4v 4h 1v -8v 8v -4h 1v 4v -4v 4v -4h 1v
 4v -12v 12v -4v 4v -8v 8h 1v -4v 4v -4v 4v -4v 4h 1v -12v 12v -4h 1v 4h 1v -12v 12h 1v -4v 4v -4v 4h 1v -8v 8h 1v -4v 4v -8v 8h 1v -8v 8v -4h 1v 4v -4v 4v -4v 4v -4v 4h 1v -4v 4v -4h 1v -4v 8v -4h 1v 4h 1v -8v 8v -4v 4h 1v -4v 4h 1v -4v 4v -4v 4v
 -4h 1v 4v -12v 12v -4h 1v 4v -4v 4v -4v 4v -4h 1v -4v 8v -4v 4h 2v -4v 4h 1v -4v 4v -4v 4v -4v 4h 1v -4v 4h 1v -4v 4v -4v 4h 1v -8v 8v -4h 1v 4v -4v 4v -4v 4h 1v -8v 8h 1v -8v 8v -4v 4h 1v -4v 4v -4v 4h 1v -8v 8v -4h 1v 4v -4v 4v -4h 1v 4v -4v 4v
 -4v 4h 1v -4v 4v -4v 4h 2v -4v 4v -4v 4h 1v -4v 4v -8v 8h 1v -4v 4h 2v -4v 4v -12v 12h 1v -4h 1v 4h 1v -4v 4h 2v -4v 4h 2v -4h 1v 4v -4v 4h 2v -4v 4h 1v -4v 4v -4v 4h 1v -4v 4h 1v -4v 4h 3v -4v 4h 1v -4v 4h 1v -4v 4h 1v -4v 4h 1v -4v 4h 1v -4h 1v 4h
 3v -4v 4h 5v -4v 4h 6v -4v 4h 4v -4v 4h 4v -4v 4h 8v -4v 4h 5v -4v 4h 30v -4v 4h 5" fill="none" stroke="#000099"/>
<path d="M285,111l 2, 57l 3, 20l 2, 12l 2, 9l 2, 7l 3, 7l 2, 6l 2, 6l 3, 5l 2, 5l 2, 4l 2, 4l 3, 4l 2, 3l 2, 3l 2, 3l 3, 3l 2, 2l 2, 2l 2, 2l 3, 2l 2, 1l 2, 2l 2, 1l 3, 1l 2, 1l 2, 1l 2, 1l 3, 1l 2, 1l 2, 1h 3l 2, 1l 2, 1h 5l 2, 1h 2l 2, 1h 7l 2, 1h
 9l 3, 1h 2" fill="none" stroke="#ff0000" stroke-width="2"/>
<path d="M396,294h 18l 2, 1h 91" fill="none" stroke="#ff0000" stroke-width="2"/>
<path d="M507,295h 2" fill="none" stroke="#ff0000" stroke-width="2"/>
<rect x="351" y="21" width="205" height="92" fill="white"/>
<path d="M351,113h 205" fill="none" stroke="black"/>
<path d="M556,113v -92" fill="none" stroke="black"/>
<path d="M556,21h -205" fill="none" stroke="black"/>
<path d="M351,21v 92" fill="none" stroke="black"/>
<text x="361" y="33" fill="black" font-size="13" font-family="Helvetica">
Entries 
</text>
<text x="511" y="33" fill="black" font-size="13" font-family="Helvetica">
 7531
</text>
<text x="373" y="50" fill="black" font-size="13" font-family="Helvetica">
 / ndf 
</text>
<text x="368" y="39" fill="black" font-size="9" font-family="Helvetica">
2
</text>
<text x="361" y="50" fill="black" font-size="13" font-family="Times">
&#0967;
</text>
<text x="464" y="48" fill="black" font-size="13" font-family="Helvetica">
  1040 / 1991
</text>
<text x="381" y="60" fill="black" font-size="13" font-family="Helvetica">
   
</text>
<text x="371" y="67" fill="black" font-size="9" font-family="Helvetica">
cu
</text>
<text x="361" y="60" fill="black" font-size="13" font-family="Helvetica">
N
</text>
<text x="515" y="64" fill="black" font-size="13" font-family="Helvetica">
 7.78
</text>
<text x="504" y="64" fill="black" font-size="13" font-family="Times">
&#0177;
</text>
<text x="462" y="64" fill="black" font-size="13" font-family="Helvetica">
 44.76 
</text>
<text x="376" y="77" fill="black" font-size="13" font-family="Helvetica">
 
</text>
<text x="367" y="85" fill="black" font-size="9" font-family="Helvetica">
cu
</text>
<text x="361" y="77" fill="black" font-size="13" font-family="Times">
&#0964;
</text>
<text x="515" y="80" fill="black" font-size="13" font-family="Helvetica">
 22.6
</text>
<text x="504" y="80" fill="black" font-size="13" font-family="Times">
&#0177;
</text>
<text x="462" y="80" fill="black" font-size="13" font-family="Helvetica">
 137.6 
</text>
<text x="374" y="90" fill="black" font-size="13" font-family="Helvetica">
    
</text>
<text x="371" y="98" fill="black" font-size="9" font-family="Helvetica">
f
</text>
<text x="361" y="90" fill="black" font-size="13" font-family="Helvetica">
N
</text>
<text x="515" y="95" fill="black" font-size="13" font-family="Helvetica">
 0.45
</text>
<text x="504" y="95" fill="black" font-size="13" font-family="Times">
&#0177;
</text>
<text x="462" y="95" fill="black" font-size="13" font-family="Helvetica">
 33.08 
</text>
<text x="369" y="107" fill="black" font-size="13" font-family="Helvetica">
 
</text>
<text x="367" y="115" fill="black" font-size="9" font-family="Helvetica">
f
</text>
<text x="361" y="107" fill="black" font-size="13" font-family="Times">
&#0964;
</text>
<text x="522" y="110" fill="black" font-size="13" font-family="Helvetica">
 0.0
</text>
<text x="512" y="110" fill="black" font-size="13" font-family="Times">
&#0177;
</text>
<text x="469" y="110" fill="black" font-size="13" font-family="Helvetica">
  2197 
</text>
<path d="M57,295h 453" fill="none" stroke="black"/>
<text x="462" y="317" fill="black" font-size="11" font-family="Helvetica">
Time (ns)
</text>
<path d="M57,287v 8" fill="none" stroke="black"/>
<path d="M68,291v 4" fill="none" stroke="black"/>
<path d="M79,291v 4" fill="none" stroke="black"/>
<path d="M91,291v 4" fill="none" stroke="black"/>
<path d="M102,291v 4" fill="none" stroke="black"/>
<path d="M113,287v 8" fill="none" stroke="black"/>
<path d="M125,291v 4" fill="none" stroke="black"/>
<path d="M136,291v 4" fill="none" stroke="black"/>
<path d="M147,291v 4" fill="none" stroke="black"/>
<path d="M159,291v 4" fill="none" stroke="black"/>
<path d="M170,287v 8" fill="none" stroke="black"/>
<path d="M181,291v 4" fill="none" stroke="black"/>
<path d="M193,291v 4" fill="none" stroke="black"/>
<path d="M204,291v 4" fill="none" stroke="black"/>
<path d="M215,291v 4" fill="none" stroke="black"/>
<path d="M227,287v 8" fill="none" stroke="black"/>
<path d="M238,291v 4" fill="none" stroke="black"/>
<path d="M249,291v 4" fill="none" stroke="black"/>
<path d="M261,291v 4" fill="none" stroke="black"/>
<path d="M272,291v 4" fill="none" stroke="black"/>
<path d="M283,287v 8" fill="none" stroke="black"/>
<path d="M295,291v 4" fill="none" stroke="black"/>
<path d="M306,291v 4" fill="none" stroke="black"/>
<path d="M317,291v 4" fill="none" stroke="black"/>
<path d="M329,291v 4" fill="none" stroke="black"/>
<path d="M340,287v 8" fill="none" stroke="black"/>
<path d="M351,291v 4" fill="none" stroke="black"/>
<path d="M363,291v 4" fill="none" stroke="black"/>
<path d="M374,291v 4" fill="none" stroke="black"/>
<path d="M386,291v 4" fill="none" stroke="black"/>
<path d="M397,287v 8" fill="none" stroke="black"/>
<path d="M408,291v 4" fill="none" stroke="black"/>
<path d="M420,291v 4" fill="none" stroke="black"/>
<path d="M431,291v 4" fill="none" stroke="black"/>
<path d="M442,291v 4" fill="none" stroke="black"/>
<path d="M454,287v 8" fill="none" stroke="black"/>
<path d="M465,291v 4" fill="none" stroke="black"/>
<path d="M476,291v 4" fill="none" stroke="black"/>
<path d="M488,291v 4" fill="none" stroke="black"/>
<path d="M499,291v 4" fill="none" stroke="black"/>
<path d="M510,287v 8" fill="none" stroke="black"/>
<text x="39" y="306" fill="black" font-size="11" font-family="Helvetica">
-20000
</text>
<text x="95" y="306" fill="black" font-size="11" font-family="Helvetica">
-15000
</text>
<text x="152" y="306" fill="black" font-size="11" font-family="Helvetica">
-10000
</text>
<text x="212" y="306" fill="black" font-size="11" font-family="Helvetica">
-5000
</text>
<text x="280" y="306" fill="black" font-size="11" font-family="Helvetica">
0
</text>
<text x="327" y="306" fill="black" font-size="11" font-family="Helvetica">
5000
</text>
<text x="381" y="306" fill="black" font-size="11" font-family="Helvetica">
10000
</text>
<text x="437" y="306" fill="black" font-size="11" font-family="Helvetica">
15000
</text>
<text x="494" y="306" fill="black" font-size="11" font-family="Helvetica">
20000
</text>
<path d="M57,295v -262" fill="none" stroke="black"/>
<g transform="rotate(-90,29,63)">
<text x="29" y="63" fill="black" font-size="11" font-family="Helvetica">
Count
</text>
</g>
<path d="M70,295h -13" fill="none" stroke="black"/>
<path d="M63,287h -6" fill="none" stroke="black"/>
<path d="M63,279h -6" fill="none" stroke="black"/>
<path d="M63,271h -6" fill="none" stroke="black"/>
<path d="M63,263h -6" fill="none" stroke="black"/>
<path d="M70,255h -13" fill="none" stroke="black"/>
<path d="M63,247h -6" fill="none" stroke="black"/>
<path d="M63,239h -6" fill="none" stroke="black"/>
<path d="M63,231h -6" fill="none" stroke="black"/>
<path d="M63,223h -6" fill="none" stroke="black"/>
<path d="M70,215h -13" fill="none" stroke="black"/>
<path d="M63,207h -6" fill="none" stroke="black"/>
<path d="M63,199h -6" fill="none" stroke="black"/>
<path d="M63,191h -6" fill="none" stroke="black"/>
<path d="M63,183h -6" fill="none" stroke="black"/>
<path d="M70,175h -13" fill="none" stroke="black"/>
<path d="M63,167h -6" fill="none" stroke="black"/>
<path d="M63,159h -6" fill="none" stroke="black"/>
<path d="M63,151h -6" fill="none" stroke="black"/>
<path d="M63,143h -6" fill="none" stroke="black"/>
<path d="M70,135h -13" fill="none" stroke="black"/>
<path d="M63,127h -6" fill="none" stroke="black"/>
<path d="M63,118h -6" fill="none" stroke="black"/>
<path d="M63,110h -6" fill="none" stroke="black"/>
<path d="M63,102h -6" fill="none" stroke="black"/>
<path d="M70,94h -13" fill="none" stroke="black"/>
<path d="M63,86h -6" fill="none" stroke="black"/>
<path d="M63,78h -6" fill="none" stroke="black"/>
<path d="M63,70h -6" fill="none" stroke="black"/>
<path d="M63,62h -6" fill="none" stroke="black"/>
<path d="M70,54h -13" fill="none" stroke="black"/>
<path d="M70,54h -13" fill="none" stroke="black"/>
<path d="M63,46h -6" fill="none" stroke="black"/>
<path d="M63,38h -6" fill="none" stroke="black"/>
<text x="48" y="299" fill="black" font-size="11" font-family="Helvetica">
0
</text>
<text x="41" y="258" fill="black" font-size="11" font-family="Helvetica">
10
</text>
<text x="41" y="218" fill="black" font-size="11" font-family="Helvetica">
20
</text>
<text x="41" y="178" fill="black" font-size="11" font-family="Helvetica">
30
</text>
<text x="41" y="138" fill="black" font-size="11" font-family="Helvetica">
40
</text>
<text x="41" y="98" fill="black" font-size="11" font-family="Helvetica">
50
</text>
<text x="41" y="58" fill="black" font-size="11" font-family="Helvetica">
60
</text>
<rect x="351" y="21" width="205" height="92" fill="white"/>
<path d="M351,113h 205" fill="none" stroke="black"/>
<path d="M556,113v -92" fill="none" stroke="black"/>
<path d="M556,21h -205" fill="none" stroke="black"/>
<path d="M351,21v 92" fill="none" stroke="black"/>
<text x="361" y="33" fill="black" font-size="13" font-family="Helvetica">
Entries 
</text>
<text x="511" y="33" fill="black" font-size="13" font-family="Helvetica">
 7531
</text>
<text x="373" y="50" fill="black" font-size="13" font-family="Helvetica">
 / ndf 
</text>
<text x="368" y="39" fill="black" font-size="9" font-family="Helvetica">
2
</text>
<text x="361" y="50" fill="black" font-size="13" font-family="Times">
&#0967;
</text>
<text x="464" y="48" fill="black" font-size="13" font-family="Helvetica">
  1040 / 1991
</text>
<text x="381" y="60" fill="black" font-size="13" font-family="Helvetica">
   
</text>
<text x="371" y="67" fill="black" font-size="9" font-family="Helvetica">
cu
</text>
<text x="361" y="60" fill="black" font-size="13" font-family="Helvetica">
N
</text>
<text x="515" y="64" fill="black" font-size="13" font-family="Helvetica">
 7.78
</text>
<text x="504" y="64" fill="black" font-size="13" font-family="Times">
&#0177;
</text>
<text x="462" y="64" fill="black" font-size="13" font-family="Helvetica">
 44.76 
</text>
<text x="376" y="77" fill="black" font-size="13" font-family="Helvetica">
 
</text>
<text x="367" y="85" fill="black" font-size="9" font-family="Helvetica">
cu
</text>
<text x="361" y="77" fill="black" font-size="13" font-family="Times">
&#0964;
</text>
<text x="515" y="80" fill="black" font-size="13" font-family="Helvetica">
 22.6
</text>
<text x="504" y="80" fill="black" font-size="13" font-family="Times">
&#0177;
</text>
<text x="462" y="80" fill="black" font-size="13" font-family="Helvetica">
 137.6 
</text>
<text x="374" y="90" fill="black" font-size="13" font-family="Helvetica">
    
</text>
<text x="371" y="98" fill="black" font-size="9" font-family="Helvetica">
f
</text>
<text x="361" y="90" fill="black" font-size="13" font-family="Helvetica">
N
</text>
<text x="515" y="95" fill="black" font-size="13" font-family="Helvetica">
 0.45
</text>
<text x="504" y="95" fill="black" font-size="13" font-family="Times">
&#0177;
</text>
<text x="462" y="95" fill="black" font-size="13" font-family="Helvetica">
 33.08 
</text>
<text x="369" y="107" fill="black" font-size="13" font-family="Helvetica">
 
</text>
<text x="367" y="115" fill="black" font-size="9" font-family="Helvetica">
f
</text>
<text x="361" y="107" fill="black" font-size="13" font-family="Times">
&#0964;
</text>
<text x="522" y="110" fill="black" font-size="13" font-family="Helvetica">
 0.0
</text>
<text x="512" y="110" fill="black" font-size="13" font-family="Times">
&#0177;
</text>
<text x="469" y="110" fill="black" font-size="13" font-family="Helvetica">
  2197 
</text>
<text x="160" y="17" fill="black" font-size="17" font-family="Helvetica">
mu-_5mm_Aluminium_500000
</text></svg>
