<?xml version="1.0" standalone="no"?>
<svg width="567" height="385" viewBox="0 0 567 385" xmlns="http://www.w3.org/2000/svg">
<title>
images/analysis_loose_f/448_D2.svg
</title>
<desc>
Creator: ROOT Version 5.34/05
CreationDate: Wed Jun 12 17:59:00 2013</desc>
<defs>
</defs>
<rect x="0" y="0" width="567" height="385" fill="white"/>
<rect x="57" y="38" width="453" height="308" fill="white"/>
<rect x="57" y="38" width="453" height="308" fill="none" stroke="black"/>
<rect x="57" y="38" width="453" height="308" fill="white"/>
<rect x="57" y="38" width="453" height="308" fill="none" stroke="black"/>
<path d="M57,346h 45v -4h 1v -3v 1v -23h 1v -29v 17h 1v -25v 19v -15h 1v 16v -14v 16h 1v -20v 22v -31h 1v 27v -19v 14h 1v 6v -22v 20v -19h 1v 19v -26v 28h 1v -17v 16v -24h 1v 25v -20v 15h 1v 3v -22v 26v -19h 1v 15v -23v 18h 1v 3v -19v 22v -11h 1v -5v
 18v -19v 11h 1v 2v -25v 28v -13h 1v -1v 15v -20v 8h 1v 11v -20v 18v -1h 1v -20v 25v -18v 6h 1v 12v -20v 20v -10h 1v -10v 16v -15h 1v 19v -20v 17h 1v -21v 22v -16h 1v 17v -20v 21v -3h 1v -24v 25v -19h 1v 17v -14v 18v -8h 1v -14v 23v -30h 1v 28v -19v
 20h 1v -23v 19v -18h 1v 20v -22v 24v -4h 1v -15v 15v -21h 1v 21v -18v 23h 1v -20v 16v -20h 1v 17v -22v 30v -4h 1v -19v 23v -18h 1v 16v -24v 21h 1v -26v 29v -19h 1v 17v -18v 19h 1v -24v 22v -10h 1v -10v 23v -24v 20h 1v 4v -19v 16v -10h 1v -7v 18v
 -15v 20h 1v -32v 24v -2v 3v -23h 1v 24v -15v 17h 1v -17v 16v -25h 1v 26v -23v 21h 1v -20v 24v -24h 1v 21v -24v 27h 1v -15v 13v -24h 1v 26v -24v 13h 1v 9v -27v 27v -16h 1v 13v -24v 24h 1v -14v 14v -9h 1v -5v 17v -19v 13h 1v 2v -22v 28v -19h 1v 16v
 -17v 5h 1v 12v -18v 20v -10h 1v -11v 21v -20v 7h 1v 11v -19v 21v -10h 1v -17v 25v -16h 1v 18v -23v 20v -4h 1v -14v 17v -14h 1v 17v -19v 21v -3h 1v -24v 22v -15h 1v 15v -15v 18v -5h 1v -14v 19v -28h 1v 29v -18v 17h 1v -18v 18v -20h 1v 20v -23v 25v
 -8h 1v -11v 19v -27h 1v 24v -21v 21h 1v -22v 25v -21h 1v 18v -23v 23h 1v -19v 19v -11h 1v -4v 15v -21v 22h 1v -23v 23v -15h 1v 14v -18v 19h 1v -21v 19v -8h 1v -7v 19v -27v 25h 1v -22v 23v -11h 1v -10v 19v -16v 14h 1v -22v 23v -3h 1v -18v 22v -17v
 21h 1v -23v 21v -29h 1v 26v -16v 13h 1v 5v -20v 21v -20h 1v 16v -23v 25h 1v -12v 13v -26h 1v 25v -21v 19h 1v 1v -22v 27v -23h 1v 19v -26v 22h 1v 5v -22v 20v -13h 1v -1v 15v -22v 21h 1v -28v 32v -17h 1v 18v -22v 6h 1v 9v -19v 19v -6h 1v -10v 21v -20v
 9h 1v 9v -21v 21v -7h 1v -16v 25v -20h 1v 22v -30v 23h 1v -21v 22v -13h 1v 17v -18v 18v -4h 1v -21v 21v -19h 1v 20v -15v 17v -5h 1v -17v 24v -28h 1v 25v -16v 17v -1h 1v -25v 26v -23h 1v 22v -25v 28v -4h 1v -10v 11v -24h 1v 23v -19v 20h 1v -19v 19v
 -19h 1v 17v -22v 23h 1v -14v 17v -21h 1v 22v -26v 23h 1v -23v 25v -17h 1v 16v -20v 21h 1v -24v 21v -12h 1v -10v 24v -21v 18h 1v -20v 22v -11h 1v -8v 21v -17v 16h 1v -28v 25v -5h 1v -14v 23v -18v 17h 1v -22v 24v -7h 1v -19v 22v -19v 17h 1v -21v 24v
 -23h 1v 23v -28v 31h 1v -16v 13v -25h 1v 25v -21v 18h 1v 3v -26v 26v -21h 1v 21v -28v 29h 1v -22v 23v -18h 1v 16v -16v 10h 1v 4v -21v 24v -19h 1v 16v -17v 8h 1v 14v -27v 22v -6h 1v -17v 26v -20v 8h 1v 9v -22v 23v -7h 1v -10v 18v -19h 1v 22v -26v 22h
 1v -19v 20v -21h 1v 21v -18v 18v -1h 1v -21v 19v -17h 1v 22v -20v 16v -2h 1v -16v 22v -27h 1v 24v -17v 16v -1h 1v -21v 25v -22h 1v 23v -26v 24v -5h 1v -12v 18v -27h 1v 26v -23v 26h 1v -22v 19v -20h 1v 18v -21v 23h 1v -22v 21v -19h 1v 18v -22v 21h 1v
 -21v 24v -19h 1v 18v -21v 22h 1v -20v 19v -11h 1v -10v 24v -25v 18h 1v 3v -23v 25v -17h 1v -2v 21v -21v 17h 1v 2v -27v 24v -1h 1v -23v 26v -18v 16h 1v -20v 23v -3h 1v -22v 24v -16v 15h 1v -20v 22v -6h 1v -15v 20v -25v 23h 1v -16v 19v -30h 1v 26v
 -19v 14h 1v 6v -15v 17v -18h 1v 15v -25v 24h 1v 4v -21v 20v -11h 1v -5v 15v -21v 18h 1v 3v -22v 22v -18h 1v 18v -21v 14h 1v 7v -27v 26v -11h 1v -9v 25v -21v 6h 1v 12v -19v 20v -16h 1v -1v 13v -14h 1v 20v -29v 26v -3h 1v -22v 25v -14v 1h 1v 12v -18v
 20v -4h 1v -28v 28v -23h 1v 19v -36v 92h 1v -293v 44v -16h 1v 72v -4v 36h 1v -36v 37v -20h 1v 19v -21v 28v -7h 1v -11v 25v -35h 1v 38v -18v 15h 1v -12v 20v -13h 1v 13v -24v 27h 1v -16v 26v -18h 1v -1v 20v -22v 16v -5h 1v 6v -22v 28v -25h 1v 30v -24v
 23h 1v -18v 21v -11h 1v -9v 27v -31v 22h 1v 3v -15v 21v -20h 1v 19v -17v 25h 1v -38v 32v -8v 4h 1v -11v 20v -22v 23h 1v -23v 27h 1v -30v 26v -13v 12h 1v 4v -25v 22v -1h 1v -12v 17v -21v 26h 1v -16v 14h 1v -21v 29v -26v 18h 1v 4v -22v 23v -10h 1v -9v
 18v -26v 30h 1v 1v -16v 15v -17h 1v 18v -23v 24h 1v -22v 26v -20h 1v 19v -21v 11h 1v 12v -19v 18v -16h 1v -2v 23v -26v 16h 1v 4v -20v 26v -15h 1v -7v 21v -15h 1v 18v -31v 27v -4h 1v -16v 25v -20v 1h 1v 20v -17v 20v -6h 1v -25v 26v -15h 1v 17v -26v
 29v -9h 1v -14v 22v -27h 1v 29v -17v 14h 1v -19v 24v -23h 1v 23v -25v 28v -9h 1v -10v 15v -27h 1v 28v -19v 19h 1v -18v 21v -21h 1v 20v -5v 1v -22v 28v -2h 1v -19v 18v -13h 1v 14v -22v 25h 1v -26v 25v -18h 1v 19v -18v 20h 1v -20v 18v -11h 1v -7v 19v
 -21v 18h 1v 2v -22v 23v -16h 1v 17v -20v 22h 1v -27v 24v -9h 1v -9v 22v -18v 19h 1v -28v 29v -8h 1v -23v 27v -19v 15h 1v 5v -24v 29v -10h 1v -15v 20v -23v 23h 1v -21v 21h 1v -29v 29v -16v 14h 1v 4v -18v 19v -5h 1v -11v 15v -27v 24h 1v 6v -18v 15v
 -1h 1v -19v 23v -25v 22h 1v -22v 24v -18h 1v 20v -22v 9h 1v 14v -23v 21v -12h 1v -9v 24v -30v 18h 1v 10v -25v 21v -13h 1v -2v 21v -18h 1v 17v -24v 17v -4h 1v -10v 15v -12v 5h 1v 14v -20v 19h 1v -26v 24v -16h 1v 13v -20v 26v -8h 1v -16v 21v -21h 1v
 25v -21v 20h 1v -27v 22v -21h 1v 25v -19v 21v -6h 1v -17v 22v -28h 1v 26v -20v 21h 1v -17v 15v -20h 1v 20v -4v 2v -22v 28h 1v -17v 14v -21h 1v 22v -21v 21v -1h 1v -23v 28v -22h 1v 17v -21v 22h 1v -19v 20v -12h 1v -4v 16v -27v 23h 1v -16v 22v -18h 1v
 -2v 19v -24v 27h 1v -33v 29v -6h 1v -18v 27v -21v 22h 1v -21v 16v -1h 1v -19v 23v -16v 16h 1v 1v -26v 24v -6h 1v -13v 17v -19v 23h 1v -21v 17h 1v -23v 28v -23v 22h 1v -18v 18v -6h 1v -19v 20v -24v 23h 1v 6v -20v 14h 1v -13v 22v -26v 21h 1v -25v 27v
 -4h 1v -14v 13v -19v 14h 1v 9v -24v 25v -13h 1v -9v 23v -28v 20h 1v 4v -18v 19v -9h 1v -8v 18v -17v 1h 1v 18v -27v 22v -3h 1v -15v 24v -22v 7h 1v 13v -22v 22v -2h 1v -23v 23v -14h 1v 16v -18v 15v -3h 1v -17v 20v -22h 1v 25v -14v 15h 1v -30v 30v -24h
 1v 23v -17v 15v -1h 1v -16v 15v -20h 1v 23v -15v 16h 1v -16v 16v -22h 1v 21v -20v 19h 1v -15v 14v -21h 1v 25v -24v 21v -4h 1v -16v 23v -23h 1v 21v -21v 22h 1v -19v 22v -16h 1v -3v 15v -26v 24h 1v -19v 22v -10h 1v -10v 19v -18v 16h 1v 2v -24v 25v -7h
 1v -10v 15v -19v 21h 1v -27v 29v -9h 1v -15v 19v -14v 14h 1v 2v -24v 22v -3h 1v -17v 21v -19v 23h 1v -18v 14v -1h 1v -23v 25v -22v 23h 1v 2v -20v 17v -4h 1v -13v 14v -22v 29h 1v -20v 20h 1v -26v 25v -24v 22h 1v -22v 22h 1v -23v 22v -16v 7h 1v 10v
 -19v 19v -5h 1v -15v 23v -26v 15h 1v 4v -19v 23v -12h 1v -7v 20v -16v 1h 1v 16v -28v 24v -5h 1v -12v 19v -19v 4h 1v 16v -20v 17h 1v -26v 30v -19h 1v 17v -23v 24v -7h 1v -17v 21v -23h 1v 26v -17v 16h 1v -25v 26v -24h 1v 23v -19v 19v -6h 1v -12v 14v
 -24h 1v 29v -21v 20h 1v -16v 16v -20h 1v 16v -1v 1v -20v 27h 1v -21v 16v -20h 1v 22v -22v 24v -3h 1v -19v 21v -24h 1v 22v -22v 23h 1v -19v 18v -13h 1v -2v 15v -20v 16v -1h 1v 4v -18v 21v -19h 1v 22v -20v 19h 1v -29v 26v -8h 1v -13v 21v -25v 24h 1v
 -18v 20v -7h 1v -17v 24v -17v 12h 1v 3v -20v 18v -6h 1v -11v 19v -20v 21h 1v -19v 18h 1v -22v 23v -21v 18h 1v 1v -14v 19v -7h 1v -16v 20v -25v 27h 1v -17v 17v -5h 1v -18v 23v -25v 20h 1v -19v 22v -1h 1v -20v 21v -19v 11h 1v 4v -19v 21v -1h 1v -14v
 19v -27v 20h 1v 5v -24v 24h 1v -19v 19v -17v 4h 1v 13v -25v 21v -3h 1v -12v 18v -14v 3h 1v 11v -18v 20v -4h 1v -28v 31v -15h 1v 14v -22v 26v -13h 1v -12v 22v -25h 1v 25v -15v 15h 1v -23v 22v -18h 1v 21v -24v 22v -2h 1v -20v 23v -26h 1v 24v -19v 18v
 -1h 1v -12v 18v -25h 1v 20v -21v 24v -3h 1v -16v 21v -23h 1v 19v -18v 20v -2h 1v -16v 20v -26h 1v 22v -22v 23h 1v -22v 21v -12h 1v 13v -24v 21h 1v -23v 26v -18h 1v 21v -25v 22h 1v 2v -27v 25v -9h 1v -4v 15v -23v 23h 1v -23v 21v -5h 1v -18v 24v -20v
 20h 1v -27v 24v -3h 1v -18v 21v -17v 22h 1v -21v 17h 1v -23v 23v -22v 20h 1v 4v -18v 19v -7h 1v -13v 19v -26v 26h 1v -15v 13h 1v -17v 19v -26v 25h 1v -21v 22v -1h 1v -22v 21v -23v 15h 1v 9v -19v 19v -4h 1v -15v 24v -8" fill="none" stroke="#000099"/>
<rect x="442" y="25" width="114" height="46" fill="white"/>
<path d="M442,71h 114" fill="none" stroke="black"/>
<path d="M556,71v -46" fill="none" stroke="black"/>
<path d="M556,25h -114" fill="none" stroke="black"/>
<path d="M442,25v 46" fill="none" stroke="black"/>
<text x="447" y="28" fill="black" font-size="4" font-family="Helvetica">
Entries 
</text>
<text x="534" y="28" fill="black" font-size="4" font-family="Helvetica">
 2397175
</text>
<text x="450" y="35" fill="black" font-size="4" font-family="Helvetica">
 / ndf 
</text>
<text x="449" y="31" fill="black" font-size="3" font-family="Helvetica">
2
</text>
<text x="447" y="35" fill="black" font-size="4" font-family="Times">
&#0967;
</text>
<text x="526" y="34" fill="black" font-size="4" font-family="Helvetica">
  9662 / 1240
</text>
<text x="452" y="37" fill="black" font-size="4" font-family="Helvetica">
   
</text>
<text x="450" y="40" fill="black" font-size="3" font-family="Helvetica">
cu
</text>
<text x="447" y="37" fill="black" font-size="4" font-family="Helvetica">
N
</text>
<text x="541" y="40" fill="black" font-size="4" font-family="Helvetica">
 42.9
</text>
<text x="538" y="40" fill="black" font-size="4" font-family="Times">
&#0177;
</text>
<text x="526" y="40" fill="black" font-size="4" font-family="Helvetica">
  1580 
</text>
<text x="450" y="43" fill="black" font-size="4" font-family="Helvetica">
 
</text>
<text x="448" y="46" fill="black" font-size="3" font-family="Helvetica">
cu
</text>
<text x="447" y="43" fill="black" font-size="4" font-family="Times">
&#0964;
</text>
<text x="543" y="45" fill="black" font-size="4" font-family="Helvetica">
 0.3
</text>
<text x="541" y="45" fill="black" font-size="4" font-family="Times">
&#0177;
</text>
<text x="529" y="45" fill="black" font-size="4" font-family="Helvetica">
 162.5 
</text>
<text x="450" y="48" fill="black" font-size="4" font-family="Helvetica">
    
</text>
<text x="450" y="51" fill="black" font-size="3" font-family="Helvetica">
f
</text>
<text x="447" y="48" fill="black" font-size="4" font-family="Helvetica">
N
</text>
<text x="541" y="50" fill="black" font-size="4" font-family="Helvetica">
 10.4
</text>
<text x="538" y="50" fill="black" font-size="4" font-family="Times">
&#0177;
</text>
<text x="526" y="50" fill="black" font-size="4" font-family="Helvetica">
  1903 
</text>
<text x="448" y="53" fill="black" font-size="4" font-family="Helvetica">
 
</text>
<text x="448" y="57" fill="black" font-size="3" font-family="Helvetica">
f
</text>
<text x="447" y="53" fill="black" font-size="4" font-family="Times">
&#0964;
</text>
<text x="541" y="55" fill="black" font-size="4" font-family="Helvetica">
 14.7
</text>
<text x="538" y="55" fill="black" font-size="4" font-family="Times">
&#0177;
</text>
<text x="526" y="55" fill="black" font-size="4" font-family="Helvetica">
  2275 
</text>
<text x="452" y="58" fill="black" font-size="4" font-family="Helvetica">
  
</text>
<text x="450" y="61" fill="black" font-size="3" font-family="Helvetica">
sin
</text>
<text x="447" y="58" fill="black" font-size="4" font-family="Helvetica">
N
</text>
<text x="543" y="60" fill="black" font-size="4" font-family="Helvetica">
 1.4
</text>
<text x="541" y="60" fill="black" font-size="4" font-family="Times">
&#0177;
</text>
<text x="529" y="60" fill="black" font-size="4" font-family="Helvetica">
 177.6 
</text>
<text x="447" y="65" fill="black" font-size="4" font-family="Helvetica">
T        
</text>
<text x="541" y="66" fill="black" font-size="4" font-family="Helvetica">
 0.00
</text>
<text x="538" y="66" fill="black" font-size="4" font-family="Times">
&#0177;
</text>
<text x="526" y="66" fill="black" font-size="4" font-family="Helvetica">
 59.35 
</text>
<text x="450" y="68" fill="black" font-size="4" font-family="Helvetica">
    
</text>
<text x="450" y="71" fill="black" font-size="3" font-family="Helvetica">
b
</text>
<text x="447" y="68" fill="black" font-size="4" font-family="Helvetica">
N
</text>
<text x="543" y="71" fill="black" font-size="4" font-family="Helvetica">
 1.2
</text>
<text x="541" y="71" fill="black" font-size="4" font-family="Times">
&#0177;
</text>
<text x="529" y="71" fill="black" font-size="4" font-family="Helvetica">
 910.2 
</text>
<path d="M284,105v 10" fill="none" stroke="#ff0000" stroke-width="2"/>
<path d="M285,106v 34" fill="none" stroke="#ff0000" stroke-width="2"/>
<path d="M285,137v 29" fill="none" stroke="#ff0000" stroke-width="2"/>
<path d="M286,155v 26" fill="none" stroke="#ff0000" stroke-width="2"/>
<path d="M287,164v 26" fill="none" stroke="#ff0000" stroke-width="2"/>
<path d="M288,171v 24" fill="none" stroke="#ff0000" stroke-width="2"/>
<path d="M289,176v 25" fill="none" stroke="#ff0000" stroke-width="2"/>
<path d="M289,185v 22" fill="none" stroke="#ff0000" stroke-width="2"/>
<path d="M290,189v 23" fill="none" stroke="#ff0000" stroke-width="2"/>
<path d="M291,191v 24" fill="none" stroke="#ff0000" stroke-width="2"/>
<path d="M292,194v 23" fill="none" stroke="#ff0000" stroke-width="2"/>
<path d="M293,198v 22" fill="none" stroke="#ff0000" stroke-width="2"/>
<path d="M293,201v 23" fill="none" stroke="#ff0000" stroke-width="2"/>
<path d="M294,203v 23" fill="none" stroke="#ff0000" stroke-width="2"/>
<path d="M295,205v 23" fill="none" stroke="#ff0000" stroke-width="2"/>
<path d="M296,207v 23" fill="none" stroke="#ff0000" stroke-width="2"/>
<path d="M297,211v 21" fill="none" stroke="#ff0000" stroke-width="2"/>
<path d="M298,213v 22" fill="none" stroke="#ff0000" stroke-width="2"/>
<path d="M298,215v 22" fill="none" stroke="#ff0000" stroke-width="2"/>
<path d="M299,216v 22" fill="none" stroke="#ff0000" stroke-width="2"/>
<path d="M300,218v 22" fill="none" stroke="#ff0000" stroke-width="2"/>
<path d="M301,221v 21" fill="none" stroke="#ff0000" stroke-width="2"/>
<path d="M302,222v 23" fill="none" stroke="#ff0000" stroke-width="2"/>
<path d="M302,224v 23" fill="none" stroke="#ff0000" stroke-width="2"/>
<path d="M303,225v 23" fill="none" stroke="#ff0000" stroke-width="2"/>
<path d="M304,227v 22" fill="none" stroke="#ff0000" stroke-width="2"/>
<path d="M305,229v 22" fill="none" stroke="#ff0000" stroke-width="2"/>
<path d="M306,231v 22" fill="none" stroke="#ff0000" stroke-width="2"/>
<path d="M307,232v 23" fill="none" stroke="#ff0000" stroke-width="2"/>
<path d="M307,233v 22" fill="none" stroke="#ff0000" stroke-width="2"/>
<path d="M308,236v 21" fill="none" stroke="#ff0000" stroke-width="2"/>
<path d="M309,237v 22" fill="none" stroke="#ff0000" stroke-width="2"/>
<path d="M310,238v 22" fill="none" stroke="#ff0000" stroke-width="2"/>
<path d="M311,239v 22" fill="none" stroke="#ff0000" stroke-width="2"/>
<path d="M311,240v 22" fill="none" stroke="#ff0000" stroke-width="2"/>
<path d="M312,242v 21" fill="none" stroke="#ff0000" stroke-width="2"/>
<path d="M313,243v 22" fill="none" stroke="#ff0000" stroke-width="2"/>
<path d="M314,244v 22" fill="none" stroke="#ff0000" stroke-width="2"/>
<path d="M315,245v 22" fill="none" stroke="#ff0000" stroke-width="2"/>
<path d="M315,246v 22" fill="none" stroke="#ff0000" stroke-width="2"/>
<path d="M316,247v 22" fill="none" stroke="#ff0000" stroke-width="2"/>
<path d="M317,248v 22" fill="none" stroke="#ff0000" stroke-width="2"/>
<path d="M318,249v 22" fill="none" stroke="#ff0000" stroke-width="2"/>
<path d="M319,250v 22" fill="none" stroke="#ff0000" stroke-width="2"/>
<path d="M320,251v 22" fill="none" stroke="#ff0000" stroke-width="2"/>
<path d="M320,252v 21" fill="none" stroke="#ff0000" stroke-width="2"/>
<path d="M321,253v 22" fill="none" stroke="#ff0000" stroke-width="2"/>
<path d="M322,254v 22" fill="none" stroke="#ff0000" stroke-width="2"/>
<path d="M323,254v 22" fill="none" stroke="#ff0000" stroke-width="2"/>
<path d="M324,255v 22" fill="none" stroke="#ff0000" stroke-width="2"/>
<path d="M324,256v 21" fill="none" stroke="#ff0000" stroke-width="2"/>
<path d="M325,257v 21" fill="none" stroke="#ff0000" stroke-width="2"/>
<path d="M326,257v 22" fill="none" stroke="#ff0000" stroke-width="2"/>
<path d="M327,258v 22" fill="none" stroke="#ff0000" stroke-width="2"/>
<path d="M328,259v 22" fill="none" stroke="#ff0000" stroke-width="2"/>
<path d="M329,260v 22" fill="none" stroke="#ff0000" stroke-width="2"/>
<path d="M329,260v 22" fill="none" stroke="#ff0000" stroke-width="2"/>
<path d="M330,260v 22" fill="none" stroke="#ff0000" stroke-width="2"/>
<path d="M331,261v 22" fill="none" stroke="#ff0000" stroke-width="2"/>
<path d="M332,262v 21" fill="none" stroke="#ff0000" stroke-width="2"/>
<path d="M333,263v 21" fill="none" stroke="#ff0000" stroke-width="2"/>
<path d="M333,263v 22" fill="none" stroke="#ff0000" stroke-width="2"/>
<path d="M334,264v 21" fill="none" stroke="#ff0000" stroke-width="2"/>
<path d="M335,264v 22" fill="none" stroke="#ff0000" stroke-width="2"/>
<path d="M336,264v 22" fill="none" stroke="#ff0000" stroke-width="2"/>
<path d="M337,265v 21" fill="none" stroke="#ff0000" stroke-width="2"/>
<path d="M337,265v 22" fill="none" stroke="#ff0000" stroke-width="2"/>
<path d="M338,266v 21" fill="none" stroke="#ff0000" stroke-width="2"/>
<path d="M339,266v 22" fill="none" stroke="#ff0000" stroke-width="2"/>
<path d="M340,267v 21" fill="none" stroke="#ff0000" stroke-width="2"/>
<path d="M341,267v 22" fill="none" stroke="#ff0000" stroke-width="2"/>
<path d="M342,268v 21" fill="none" stroke="#ff0000" stroke-width="2"/>
<path d="M342,268v 22" fill="none" stroke="#ff0000" stroke-width="2"/>
<path d="M343,269v 21" fill="none" stroke="#ff0000" stroke-width="2"/>
<path d="M344,269v 22" fill="none" stroke="#ff0000" stroke-width="2"/>
<path d="M345,269v 22" fill="none" stroke="#ff0000" stroke-width="2"/>
<path d="M346,269v 22" fill="none" stroke="#ff0000" stroke-width="2"/>
<path d="M346,269v 22" fill="none" stroke="#ff0000" stroke-width="2"/>
<path d="M347,270v 21" fill="none" stroke="#ff0000" stroke-width="2"/>
<path d="M348,270v 22" fill="none" stroke="#ff0000" stroke-width="2"/>
<path d="M349,270v 22" fill="none" stroke="#ff0000" stroke-width="2"/>
<path d="M350,271v 21" fill="none" stroke="#ff0000" stroke-width="2"/>
<path d="M351,271v 22" fill="none" stroke="#ff0000" stroke-width="2"/>
<path d="M351,271v 22" fill="none" stroke="#ff0000" stroke-width="2"/>
<path d="M352,272v 21" fill="none" stroke="#ff0000" stroke-width="2"/>
<path d="M353,272v 22" fill="none" stroke="#ff0000" stroke-width="2"/>
<path d="M354,272v 22" fill="none" stroke="#ff0000" stroke-width="2"/>
<path d="M355,273v 21" fill="none" stroke="#ff0000" stroke-width="2"/>
<path d="M355,273v 21" fill="none" stroke="#ff0000" stroke-width="2"/>
<path d="M356,273v 22" fill="none" stroke="#ff0000" stroke-width="2"/>
<path d="M357,273v 22" fill="none" stroke="#ff0000" stroke-width="2"/>
<path d="M358,273v 22" fill="none" stroke="#ff0000" stroke-width="2"/>
<path d="M359,273v 22" fill="none" stroke="#ff0000" stroke-width="2"/>
<path d="M359,273v 22" fill="none" stroke="#ff0000" stroke-width="2"/>
<path d="M360,273v 22" fill="none" stroke="#ff0000" stroke-width="2"/>
<path d="M361,274v 21" fill="none" stroke="#ff0000" stroke-width="2"/>
<path d="M362,274v 21" fill="none" stroke="#ff0000" stroke-width="2"/>
<path d="M363,274v 22" fill="none" stroke="#ff0000" stroke-width="2"/>
<path d="M364,274v 22" fill="none" stroke="#ff0000" stroke-width="2"/>
<path d="M364,274v 22" fill="none" stroke="#ff0000" stroke-width="2"/>
<path d="M365,275v 21" fill="none" stroke="#ff0000" stroke-width="2"/>
<path d="M366,275v 21" fill="none" stroke="#ff0000" stroke-width="2"/>
<path d="M367,275v 22" fill="none" stroke="#ff0000" stroke-width="2"/>
<path d="M368,275v 22" fill="none" stroke="#ff0000" stroke-width="2"/>
<path d="M368,275v 22" fill="none" stroke="#ff0000" stroke-width="2"/>
<path d="M369,275v 22" fill="none" stroke="#ff0000" stroke-width="2"/>
<path d="M370,276v 21" fill="none" stroke="#ff0000" stroke-width="2"/>
<path d="M371,276v 21" fill="none" stroke="#ff0000" stroke-width="2"/>
<path d="M372,276v 22" fill="none" stroke="#ff0000" stroke-width="2"/>
<path d="M372,276v 22" fill="none" stroke="#ff0000" stroke-width="2"/>
<path d="M373,276v 22" fill="none" stroke="#ff0000" stroke-width="2"/>
<path d="M374,276v 22" fill="none" stroke="#ff0000" stroke-width="2"/>
<path d="M375,277v 21" fill="none" stroke="#ff0000" stroke-width="2"/>
<path d="M376,277v 21" fill="none" stroke="#ff0000" stroke-width="2"/>
<path d="M377,277v 21" fill="none" stroke="#ff0000" stroke-width="2"/>
<path d="M377,277v 22" fill="none" stroke="#ff0000" stroke-width="2"/>
<path d="M378,277v 22" fill="none" stroke="#ff0000" stroke-width="2"/>
<path d="M379,277v 22" fill="none" stroke="#ff0000" stroke-width="2"/>
<path d="M380,277v 22" fill="none" stroke="#ff0000" stroke-width="2"/>
<path d="M381,277v 22" fill="none" stroke="#ff0000" stroke-width="2"/>
<path d="M381,277v 22" fill="none" stroke="#ff0000" stroke-width="2"/>
<path d="M382,277v 22" fill="none" stroke="#ff0000" stroke-width="2"/>
<path d="M383,277v 22" fill="none" stroke="#ff0000" stroke-width="2"/>
<path d="M384,277v 22" fill="none" stroke="#ff0000" stroke-width="2"/>
<path d="M385,277v 22" fill="none" stroke="#ff0000" stroke-width="2"/>
<path d="M386,277v 22" fill="none" stroke="#ff0000" stroke-width="2"/>
<path d="M386,277v 22" fill="none" stroke="#ff0000" stroke-width="2"/>
<path d="M387,277v 22" fill="none" stroke="#ff0000" stroke-width="2"/>
<path d="M388,277v 22" fill="none" stroke="#ff0000" stroke-width="2"/>
<path d="M389,277v 22" fill="none" stroke="#ff0000" stroke-width="2"/>
<path d="M390,277v 22" fill="none" stroke="#ff0000" stroke-width="2"/>
<path d="M390,277v 22" fill="none" stroke="#ff0000" stroke-width="2"/>
<path d="M391,277v 22" fill="none" stroke="#ff0000" stroke-width="2"/>
<path d="M392,278v 21" fill="none" stroke="#ff0000" stroke-width="2"/>
<path d="M393,278v 21" fill="none" stroke="#ff0000" stroke-width="2"/>
<path d="M394,278v 21" fill="none" stroke="#ff0000" stroke-width="2"/>
<path d="M394,278v 21" fill="none" stroke="#ff0000" stroke-width="2"/>
<path d="M395,278v 21" fill="none" stroke="#ff0000" stroke-width="2"/>
<path d="M396,278v 21" fill="none" stroke="#ff0000" stroke-width="2"/>
<path d="M397,278v 21" fill="none" stroke="#ff0000" stroke-width="2"/>
<path d="M398,278v 21" fill="none" stroke="#ff0000" stroke-width="2"/>
<path d="M399,278v 22" fill="none" stroke="#ff0000" stroke-width="2"/>
<path d="M399,278v 22" fill="none" stroke="#ff0000" stroke-width="2"/>
<path d="M400,278v 22" fill="none" stroke="#ff0000" stroke-width="2"/>
<path d="M401,278v 22" fill="none" stroke="#ff0000" stroke-width="2"/>
<path d="M402,278v 22" fill="none" stroke="#ff0000" stroke-width="2"/>
<path d="M403,278v 22" fill="none" stroke="#ff0000" stroke-width="2"/>
<path d="M403,278v 22" fill="none" stroke="#ff0000" stroke-width="2"/>
<path d="M404,278v 22" fill="none" stroke="#ff0000" stroke-width="2"/>
<path d="M405,278v 22" fill="none" stroke="#ff0000" stroke-width="2"/>
<path d="M406,278v 22" fill="none" stroke="#ff0000" stroke-width="2"/>
<path d="M407,278v 22" fill="none" stroke="#ff0000" stroke-width="2"/>
<path d="M408,278v 22" fill="none" stroke="#ff0000" stroke-width="2"/>
<path d="M408,279v 21" fill="none" stroke="#ff0000" stroke-width="2"/>
<path d="M409,279v 21" fill="none" stroke="#ff0000" stroke-width="2"/>
<path d="M410,279v 21" fill="none" stroke="#ff0000" stroke-width="2"/>
<path d="M411,279v 21" fill="none" stroke="#ff0000" stroke-width="2"/>
<path d="M412,279v 21" fill="none" stroke="#ff0000" stroke-width="2"/>
<path d="M412,279v 21" fill="none" stroke="#ff0000" stroke-width="2"/>
<path d="M413,279v 21" fill="none" stroke="#ff0000" stroke-width="2"/>
<path d="M414,279v 21" fill="none" stroke="#ff0000" stroke-width="2"/>
<path d="M415,279v 21" fill="none" stroke="#ff0000" stroke-width="2"/>
<path d="M416,279v 21" fill="none" stroke="#ff0000" stroke-width="2"/>
<path d="M416,279v 21" fill="none" stroke="#ff0000" stroke-width="2"/>
<path d="M417,279v 21" fill="none" stroke="#ff0000" stroke-width="2"/>
<path d="M418,279v 21" fill="none" stroke="#ff0000" stroke-width="2"/>
<path d="M419,279v 21" fill="none" stroke="#ff0000" stroke-width="2"/>
<path d="M420,279v 22" fill="none" stroke="#ff0000" stroke-width="2"/>
<path d="M421,279v 22" fill="none" stroke="#ff0000" stroke-width="2"/>
<path d="M421,279v 22" fill="none" stroke="#ff0000" stroke-width="2"/>
<path d="M422,279v 22" fill="none" stroke="#ff0000" stroke-width="2"/>
<path d="M423,279v 22" fill="none" stroke="#ff0000" stroke-width="2"/>
<path d="M424,279v 22" fill="none" stroke="#ff0000" stroke-width="2"/>
<path d="M425,279v 22" fill="none" stroke="#ff0000" stroke-width="2"/>
<path d="M425,279v 22" fill="none" stroke="#ff0000" stroke-width="2"/>
<path d="M426,279v 22" fill="none" stroke="#ff0000" stroke-width="2"/>
<path d="M427,279v 22" fill="none" stroke="#ff0000" stroke-width="2"/>
<path d="M428,279v 22" fill="none" stroke="#ff0000" stroke-width="2"/>
<path d="M429,279v 22" fill="none" stroke="#ff0000" stroke-width="2"/>
<path d="M430,279v 22" fill="none" stroke="#ff0000" stroke-width="2"/>
<path d="M430,279v 22" fill="none" stroke="#ff0000" stroke-width="2"/>
<path d="M431,279v 22" fill="none" stroke="#ff0000" stroke-width="2"/>
<path d="M432,279v 22" fill="none" stroke="#ff0000" stroke-width="2"/>
<path d="M433,279v 22" fill="none" stroke="#ff0000" stroke-width="2"/>
<path d="M434,279v 22" fill="none" stroke="#ff0000" stroke-width="2"/>
<path d="M434,279v 22" fill="none" stroke="#ff0000" stroke-width="2"/>
<path d="M435,279v 22" fill="none" stroke="#ff0000" stroke-width="2"/>
<path d="M436,279v 22" fill="none" stroke="#ff0000" stroke-width="2"/>
<path d="M437,279v 22" fill="none" stroke="#ff0000" stroke-width="2"/>
<path d="M438,279v 22" fill="none" stroke="#ff0000" stroke-width="2"/>
<path d="M438,279v 22" fill="none" stroke="#ff0000" stroke-width="2"/>
<path d="M439,279v 22" fill="none" stroke="#ff0000" stroke-width="2"/>
<path d="M440,279v 22" fill="none" stroke="#ff0000" stroke-width="2"/>
<path d="M441,279v 22" fill="none" stroke="#ff0000" stroke-width="2"/>
<path d="M442,279v 22" fill="none" stroke="#ff0000" stroke-width="2"/>
<path d="M443,279v 22" fill="none" stroke="#ff0000" stroke-width="2"/>
<path d="M443,279v 22" fill="none" stroke="#ff0000" stroke-width="2"/>
<path d="M444,279v 22" fill="none" stroke="#ff0000" stroke-width="2"/>
<path d="M445,279v 22" fill="none" stroke="#ff0000" stroke-width="2"/>
<path d="M446,279v 22" fill="none" stroke="#ff0000" stroke-width="2"/>
<path d="M447,279v 22" fill="none" stroke="#ff0000" stroke-width="2"/>
<path d="M447,279v 22" fill="none" stroke="#ff0000" stroke-width="2"/>
<path d="M448,279v 22" fill="none" stroke="#ff0000" stroke-width="2"/>
<path d="M449,279v 22" fill="none" stroke="#ff0000" stroke-width="2"/>
<path d="M450,279v 22" fill="none" stroke="#ff0000" stroke-width="2"/>
<path d="M451,279v 22" fill="none" stroke="#ff0000" stroke-width="2"/>
<path d="M452,279v 22" fill="none" stroke="#ff0000" stroke-width="2"/>
<path d="M452,279v 22" fill="none" stroke="#ff0000" stroke-width="2"/>
<path d="M453,279v 22" fill="none" stroke="#ff0000" stroke-width="2"/>
<path d="M454,279v 22" fill="none" stroke="#ff0000" stroke-width="2"/>
<path d="M455,279v 22" fill="none" stroke="#ff0000" stroke-width="2"/>
<path d="M456,279v 22" fill="none" stroke="#ff0000" stroke-width="2"/>
<path d="M456,279v 22" fill="none" stroke="#ff0000" stroke-width="2"/>
<path d="M457,279v 22" fill="none" stroke="#ff0000" stroke-width="2"/>
<path d="M458,279v 22" fill="none" stroke="#ff0000" stroke-width="2"/>
<path d="M459,279v 22" fill="none" stroke="#ff0000" stroke-width="2"/>
<path d="M460,280v 21" fill="none" stroke="#ff0000" stroke-width="2"/>
<path d="M460,279v 22" fill="none" stroke="#ff0000" stroke-width="2"/>
<path d="M461,279v 22" fill="none" stroke="#ff0000" stroke-width="2"/>
<path d="M462,280v 21" fill="none" stroke="#ff0000" stroke-width="2"/>
<path d="M463,279v 22" fill="none" stroke="#ff0000" stroke-width="2"/>
<path d="M464,279v 22" fill="none" stroke="#ff0000" stroke-width="2"/>
<path d="M465,280v 21" fill="none" stroke="#ff0000" stroke-width="2"/>
<path d="M465,280v 21" fill="none" stroke="#ff0000" stroke-width="2"/>
<path d="M466,280v 21" fill="none" stroke="#ff0000" stroke-width="2"/>
<path d="M467,280v 21" fill="none" stroke="#ff0000" stroke-width="2"/>
<path d="M468,280v 21" fill="none" stroke="#ff0000" stroke-width="2"/>
<path d="M469,280v 21" fill="none" stroke="#ff0000" stroke-width="2"/>
<path d="M469,280v 21" fill="none" stroke="#ff0000" stroke-width="2"/>
<path d="M470,280v 21" fill="none" stroke="#ff0000" stroke-width="2"/>
<path d="M471,280v 21" fill="none" stroke="#ff0000" stroke-width="2"/>
<path d="M472,280v 21" fill="none" stroke="#ff0000" stroke-width="2"/>
<path d="M473,280v 21" fill="none" stroke="#ff0000" stroke-width="2"/>
<path d="M473,280v 21" fill="none" stroke="#ff0000" stroke-width="2"/>
<path d="M474,280v 21" fill="none" stroke="#ff0000" stroke-width="2"/>
<path d="M475,280v 21" fill="none" stroke="#ff0000" stroke-width="2"/>
<path d="M476,280v 21" fill="none" stroke="#ff0000" stroke-width="2"/>
<path d="M477,280v 21" fill="none" stroke="#ff0000" stroke-width="2"/>
<path d="M478,280v 21" fill="none" stroke="#ff0000" stroke-width="2"/>
<path d="M478,280v 21" fill="none" stroke="#ff0000" stroke-width="2"/>
<path d="M479,280v 21" fill="none" stroke="#ff0000" stroke-width="2"/>
<path d="M480,280v 21" fill="none" stroke="#ff0000" stroke-width="2"/>
<path d="M481,280v 21" fill="none" stroke="#ff0000" stroke-width="2"/>
<path d="M482,280v 21" fill="none" stroke="#ff0000" stroke-width="2"/>
<path d="M482,280v 21" fill="none" stroke="#ff0000" stroke-width="2"/>
<path d="M483,280v 21" fill="none" stroke="#ff0000" stroke-width="2"/>
<path d="M484,280v 21" fill="none" stroke="#ff0000" stroke-width="2"/>
<path d="M485,280v 21" fill="none" stroke="#ff0000" stroke-width="2"/>
<path d="M486,280v 21" fill="none" stroke="#ff0000" stroke-width="2"/>
<path d="M487,280v 21" fill="none" stroke="#ff0000" stroke-width="2"/>
<path d="M487,280v 21" fill="none" stroke="#ff0000" stroke-width="2"/>
<path d="M488,280v 21" fill="none" stroke="#ff0000" stroke-width="2"/>
<path d="M489,280v 21" fill="none" stroke="#ff0000" stroke-width="2"/>
<path d="M490,280v 21" fill="none" stroke="#ff0000" stroke-width="2"/>
<path d="M491,280v 21" fill="none" stroke="#ff0000" stroke-width="2"/>
<path d="M491,280v 21" fill="none" stroke="#ff0000" stroke-width="2"/>
<path d="M492,280v 21" fill="none" stroke="#ff0000" stroke-width="2"/>
<path d="M493,280v 21" fill="none" stroke="#ff0000" stroke-width="2"/>
<path d="M494,280v 21" fill="none" stroke="#ff0000" stroke-width="2"/>
<path d="M495,280v 21" fill="none" stroke="#ff0000" stroke-width="2"/>
<path d="M495,280v 21" fill="none" stroke="#ff0000" stroke-width="2"/>
<path d="M496,280v 21" fill="none" stroke="#ff0000" stroke-width="2"/>
<path d="M497,280v 21" fill="none" stroke="#ff0000" stroke-width="2"/>
<path d="M498,280v 21" fill="none" stroke="#ff0000" stroke-width="2"/>
<path d="M499,280v 21" fill="none" stroke="#ff0000" stroke-width="2"/>
<path d="M500,280v 21" fill="none" stroke="#ff0000" stroke-width="2"/>
<path d="M500,280v 21" fill="none" stroke="#ff0000" stroke-width="2"/>
<path d="M501,280v 21" fill="none" stroke="#ff0000" stroke-width="2"/>
<path d="M502,280v 21" fill="none" stroke="#ff0000" stroke-width="2"/>
<path d="M503,280v 21" fill="none" stroke="#ff0000" stroke-width="2"/>
<path d="M504,280v 21" fill="none" stroke="#ff0000" stroke-width="2"/>
<path d="M504,280v 21" fill="none" stroke="#ff0000" stroke-width="2"/>
<path d="M505,280v 21" fill="none" stroke="#ff0000" stroke-width="2"/>
<path d="M506,280v 21" fill="none" stroke="#ff0000" stroke-width="2"/>
<path d="M507,280v 21" fill="none" stroke="#ff0000" stroke-width="2"/>
<path d="M508,280v 21" fill="none" stroke="#ff0000" stroke-width="2"/>
<path d="M509,280v 21" fill="none" stroke="#ff0000" stroke-width="2"/>
<path d="M509,280v 21" fill="none" stroke="#ff0000" stroke-width="2"/>
<path d="M510,292v 9" fill="none" stroke="#ff0000" stroke-width="2"/>
<path d="M284,110l 1, 13v 28l 1, 17l 1, 8l 1, 7l 1, 6v 6l 1, 5l 1, 3l 1, 3l 1, 3v 3l 1, 3l 1, 1l 1, 3l 1, 2l 1, 3v 1l 1, 2l 1, 2l 1, 2l 1, 2v 2l 1, 2l 1, 1l 1, 2l 1, 2l 1, 1v 1l 1, 3h 1l 1, 2l 1, 1v 1l 1, 1l 1, 2l 1, 1h 1v 1l 1, 2l 1, 1l 1, 1h 1l 1,
 1v 2l 1, 1h 2l 1, 2v 1l 1, 1h 1l 1, 1h 1l 1, 1v 1h 1l 1, 1l 1, 1h 1l 1, 1h 1l 1, 1l 1, 1l 1, 1h 3l 1, 1l 1, 1h 2l 1, 1l 1, 1h 2l 1, 1h 4l 1, 1h 2l 1, 1h 2l 1, 1h 3l 1, 1h 9l 1, 1h 6l 1, 1h 9l 1, 1h 16v 1h 51l 1, 1v -1h 1l 1, 1l 1, -1h 1l 1, 1h 44l
 1, 5" fill="none" stroke="#ff0000" stroke-width="2"/>
<path d="M57,346h 453" fill="none" stroke="black"/>
<text x="419" y="372" fill="black" font-size="12" font-family="Helvetica">
TDC-TDC0 (ns)
</text>
<path d="M57,337v 9" fill="none" stroke="black"/>
<path d="M68,342v 4" fill="none" stroke="black"/>
<path d="M79,342v 4" fill="none" stroke="black"/>
<path d="M91,342v 4" fill="none" stroke="black"/>
<path d="M102,342v 4" fill="none" stroke="black"/>
<path d="M113,337v 9" fill="none" stroke="black"/>
<path d="M125,342v 4" fill="none" stroke="black"/>
<path d="M136,342v 4" fill="none" stroke="black"/>
<path d="M147,342v 4" fill="none" stroke="black"/>
<path d="M159,342v 4" fill="none" stroke="black"/>
<path d="M170,337v 9" fill="none" stroke="black"/>
<path d="M181,342v 4" fill="none" stroke="black"/>
<path d="M193,342v 4" fill="none" stroke="black"/>
<path d="M204,342v 4" fill="none" stroke="black"/>
<path d="M215,342v 4" fill="none" stroke="black"/>
<path d="M227,337v 9" fill="none" stroke="black"/>
<path d="M238,342v 4" fill="none" stroke="black"/>
<path d="M249,342v 4" fill="none" stroke="black"/>
<path d="M261,342v 4" fill="none" stroke="black"/>
<path d="M272,342v 4" fill="none" stroke="black"/>
<path d="M283,337v 9" fill="none" stroke="black"/>
<path d="M295,342v 4" fill="none" stroke="black"/>
<path d="M306,342v 4" fill="none" stroke="black"/>
<path d="M317,342v 4" fill="none" stroke="black"/>
<path d="M329,342v 4" fill="none" stroke="black"/>
<path d="M340,337v 9" fill="none" stroke="black"/>
<path d="M351,342v 4" fill="none" stroke="black"/>
<path d="M363,342v 4" fill="none" stroke="black"/>
<path d="M374,342v 4" fill="none" stroke="black"/>
<path d="M386,342v 4" fill="none" stroke="black"/>
<path d="M397,337v 9" fill="none" stroke="black"/>
<path d="M408,342v 4" fill="none" stroke="black"/>
<path d="M420,342v 4" fill="none" stroke="black"/>
<path d="M431,342v 4" fill="none" stroke="black"/>
<path d="M442,342v 4" fill="none" stroke="black"/>
<path d="M454,337v 9" fill="none" stroke="black"/>
<path d="M465,342v 4" fill="none" stroke="black"/>
<path d="M476,342v 4" fill="none" stroke="black"/>
<path d="M488,342v 4" fill="none" stroke="black"/>
<path d="M499,342v 4" fill="none" stroke="black"/>
<path d="M510,337v 9" fill="none" stroke="black"/>
<text x="36" y="359" fill="black" font-size="12" font-family="Helvetica">
-20000
</text>
<text x="93" y="359" fill="black" font-size="12" font-family="Helvetica">
-15000
</text>
<text x="149" y="359" fill="black" font-size="12" font-family="Helvetica">
-10000
</text>
<text x="210" y="359" fill="black" font-size="12" font-family="Helvetica">
-5000
</text>
<text x="280" y="359" fill="black" font-size="12" font-family="Helvetica">
0
</text>
<text x="325" y="359" fill="black" font-size="12" font-family="Helvetica">
5000
</text>
<text x="379" y="359" fill="black" font-size="12" font-family="Helvetica">
10000
</text>
<text x="435" y="359" fill="black" font-size="12" font-family="Helvetica">
15000
</text>
<text x="492" y="359" fill="black" font-size="12" font-family="Helvetica">
20000
</text>
<path d="M57,346v -308" fill="none" stroke="black"/>
<g transform="rotate(-90,29,72)">
<text x="29" y="72" fill="black" font-size="12" font-family="Helvetica">
Count
</text>
</g>
<path d="M70,346h -13" fill="none" stroke="black"/>
<path d="M63,334h -6" fill="none" stroke="black"/>
<path d="M63,322h -6" fill="none" stroke="black"/>
<path d="M63,310h -6" fill="none" stroke="black"/>
<path d="M63,298h -6" fill="none" stroke="black"/>
<path d="M70,285h -13" fill="none" stroke="black"/>
<path d="M63,273h -6" fill="none" stroke="black"/>
<path d="M63,261h -6" fill="none" stroke="black"/>
<path d="M63,249h -6" fill="none" stroke="black"/>
<path d="M63,237h -6" fill="none" stroke="black"/>
<path d="M70,224h -13" fill="none" stroke="black"/>
<path d="M63,212h -6" fill="none" stroke="black"/>
<path d="M63,200h -6" fill="none" stroke="black"/>
<path d="M63,188h -6" fill="none" stroke="black"/>
<path d="M63,175h -6" fill="none" stroke="black"/>
<path d="M70,163h -13" fill="none" stroke="black"/>
<path d="M63,151h -6" fill="none" stroke="black"/>
<path d="M63,139h -6" fill="none" stroke="black"/>
<path d="M63,127h -6" fill="none" stroke="black"/>
<path d="M63,114h -6" fill="none" stroke="black"/>
<path d="M70,102h -13" fill="none" stroke="black"/>
<path d="M63,90h -6" fill="none" stroke="black"/>
<path d="M63,78h -6" fill="none" stroke="black"/>
<path d="M63,65h -6" fill="none" stroke="black"/>
<path d="M63,53h -6" fill="none" stroke="black"/>
<path d="M70,41h -13" fill="none" stroke="black"/>
<path d="M70,41h -13" fill="none" stroke="black"/>
<text x="47" y="350" fill="black" font-size="12" font-family="Helvetica">
0
</text>
<text x="25" y="289" fill="black" font-size="12" font-family="Helvetica">
1000
</text>
<text x="25" y="228" fill="black" font-size="12" font-family="Helvetica">
2000
</text>
<text x="25" y="167" fill="black" font-size="12" font-family="Helvetica">
3000
</text>
<text x="25" y="106" fill="black" font-size="12" font-family="Helvetica">
4000
</text>
<text x="25" y="45" fill="black" font-size="12" font-family="Helvetica">
5000
</text>
<rect x="442" y="25" width="114" height="46" fill="white"/>
<path d="M442,71h 114" fill="none" stroke="black"/>
<path d="M556,71v -46" fill="none" stroke="black"/>
<path d="M556,25h -114" fill="none" stroke="black"/>
<path d="M442,25v 46" fill="none" stroke="black"/>
<text x="447" y="28" fill="black" font-size="4" font-family="Helvetica">
Entries 
</text>
<text x="534" y="28" fill="black" font-size="4" font-family="Helvetica">
 2397175
</text>
<text x="450" y="35" fill="black" font-size="4" font-family="Helvetica">
 / ndf 
</text>
<text x="449" y="31" fill="black" font-size="3" font-family="Helvetica">
2
</text>
<text x="447" y="35" fill="black" font-size="4" font-family="Times">
&#0967;
</text>
<text x="526" y="34" fill="black" font-size="4" font-family="Helvetica">
  9662 / 1240
</text>
<text x="452" y="37" fill="black" font-size="4" font-family="Helvetica">
   
</text>
<text x="450" y="40" fill="black" font-size="3" font-family="Helvetica">
cu
</text>
<text x="447" y="37" fill="black" font-size="4" font-family="Helvetica">
N
</text>
<text x="541" y="40" fill="black" font-size="4" font-family="Helvetica">
 42.9
</text>
<text x="538" y="40" fill="black" font-size="4" font-family="Times">
&#0177;
</text>
<text x="526" y="40" fill="black" font-size="4" font-family="Helvetica">
  1580 
</text>
<text x="450" y="43" fill="black" font-size="4" font-family="Helvetica">
 
</text>
<text x="448" y="46" fill="black" font-size="3" font-family="Helvetica">
cu
</text>
<text x="447" y="43" fill="black" font-size="4" font-family="Times">
&#0964;
</text>
<text x="543" y="45" fill="black" font-size="4" font-family="Helvetica">
 0.3
</text>
<text x="541" y="45" fill="black" font-size="4" font-family="Times">
&#0177;
</text>
<text x="529" y="45" fill="black" font-size="4" font-family="Helvetica">
 162.5 
</text>
<text x="450" y="48" fill="black" font-size="4" font-family="Helvetica">
    
</text>
<text x="450" y="51" fill="black" font-size="3" font-family="Helvetica">
f
</text>
<text x="447" y="48" fill="black" font-size="4" font-family="Helvetica">
N
</text>
<text x="541" y="50" fill="black" font-size="4" font-family="Helvetica">
 10.4
</text>
<text x="538" y="50" fill="black" font-size="4" font-family="Times">
&#0177;
</text>
<text x="526" y="50" fill="black" font-size="4" font-family="Helvetica">
  1903 
</text>
<text x="448" y="53" fill="black" font-size="4" font-family="Helvetica">
 
</text>
<text x="448" y="57" fill="black" font-size="3" font-family="Helvetica">
f
</text>
<text x="447" y="53" fill="black" font-size="4" font-family="Times">
&#0964;
</text>
<text x="541" y="55" fill="black" font-size="4" font-family="Helvetica">
 14.7
</text>
<text x="538" y="55" fill="black" font-size="4" font-family="Times">
&#0177;
</text>
<text x="526" y="55" fill="black" font-size="4" font-family="Helvetica">
  2275 
</text>
<text x="452" y="58" fill="black" font-size="4" font-family="Helvetica">
  
</text>
<text x="450" y="61" fill="black" font-size="3" font-family="Helvetica">
sin
</text>
<text x="447" y="58" fill="black" font-size="4" font-family="Helvetica">
N
</text>
<text x="543" y="60" fill="black" font-size="4" font-family="Helvetica">
 1.4
</text>
<text x="541" y="60" fill="black" font-size="4" font-family="Times">
&#0177;
</text>
<text x="529" y="60" fill="black" font-size="4" font-family="Helvetica">
 177.6 
</text>
<text x="447" y="65" fill="black" font-size="4" font-family="Helvetica">
T        
</text>
<text x="541" y="66" fill="black" font-size="4" font-family="Helvetica">
 0.00
</text>
<text x="538" y="66" fill="black" font-size="4" font-family="Times">
&#0177;
</text>
<text x="526" y="66" fill="black" font-size="4" font-family="Helvetica">
 59.35 
</text>
<text x="450" y="68" fill="black" font-size="4" font-family="Helvetica">
    
</text>
<text x="450" y="71" fill="black" font-size="3" font-family="Helvetica">
b
</text>
<text x="447" y="68" fill="black" font-size="4" font-family="Helvetica">
N
</text>
<text x="543" y="71" fill="black" font-size="4" font-family="Helvetica">
 1.2
</text>
<text x="541" y="71" fill="black" font-size="4" font-family="Times">
&#0177;
</text>
<text x="529" y="71" fill="black" font-size="4" font-family="Helvetica">
 910.2 
</text>
<text x="270" y="21" fill="black" font-size="21" font-family="Helvetica">
D2
</text></svg>
