<?xml version="1.0" standalone="no"?>
<svg width="567" height="385" viewBox="0 0 567 385" xmlns="http://www.w3.org/2000/svg">
<title>
images/analysis_loose_f/452_D3.svg
</title>
<desc>
Creator: ROOT Version 5.34/05
CreationDate: Mon Jun 10 22:30:10 2013</desc>
<defs>
</defs>
<rect x="0" y="0" width="567" height="385" fill="white"/>
<rect x="57" y="38" width="453" height="308" fill="white"/>
<rect x="57" y="38" width="453" height="308" fill="none" stroke="black"/>
<rect x="57" y="38" width="453" height="308" fill="white"/>
<rect x="57" y="38" width="453" height="308" fill="none" stroke="black"/>
<path d="M57,346h 45v -20h 1v 3v -1v 2v -3v 7v -2h 1v -9v 6v -11h 1v 15v -7v 6v -1h 1v -13v 14v -8h 1v 8v -17v 14h 1v -5v 5v -8h 1v -2v 14v -15v 11v -2h 1v -7v 13v -3h 1v -2v 7v -12v 6h 1v -9v 11v -8h 1v 9v -7v 4h 1v -12v 19v -9h 1v -9v 14v -12v 11h
 1v -12v 13v -4h 1v -13v 19v -19v 17h 1v -7v 7v -6h 1v -13v 17v -8v 8h 1v 4v -11v 12h 1v -19v 15v -9v 9h 1v -8v 9h 1v -8v 7v -11v 6h 1v 5v -11v 12v -3h 1v -5v 8v -8v 3h 1v 7v -11v 12h 1v -11v 8v -8h 1v 8v -8v 8h 1v -12v 13v -15v 6h 1v 5v -15v 17h 1v
 -16v 21v -15h 1v 13v -15v 13h 1v -11v 13v -14h 1v 13v -15v 15h 1v -16v 13v -5h 1v 10v -12v 7h 1v -11v 11v -15h 1v 21v -16v 15h 1v -8v 1v -1v 5v -6h 1v 8v -16v 17h 1v -13v 9v -10h 1v 9v -7v 10h 1v -5v 2v -10v 16v -13h 1v 9v -15v 14h 1v -8v 12v -12h
 1v -2v 13v -14v 11h 1v -12v 11v -10h 1v 13v -9v 8h 1v -12v 14v -6h 1v -13v 20v -10v 6h 1v -12v 13v -5h 1v -6v 14v -10v 7h 1v -11v 12v -6h 1v -7v 16v -18v 11h 1v 4v -11v 10v -2h 1v -3v 5v -3v 6v -8v 2h 1v -6v 13v -3h 1v -11v 10v -8v 6h 1v 2v -8v 7v
 -1h 1v -6v 9v -12v 7h 1v 3v -12v 13h 1v -10v 8v -19v 18h 1v 5v -21v 19h 1v -9v 8v -10v 5h 1v 8v -14v 12h 1v -10v 10v -15h 1v 20v -15v 6v -1h 1v 4v -13v 14v -15h 1v 16v -7v 6h 1v -14v 15v -19h 1v 19v -9v 9h 1v -13v 11v -11v 2h 1v 9v -5v 6h 1v -9v 12v
 -20h 1v 15v -13v 12h 1v -6v 8v -12h 1v 12v -19v 17h 1v 1v -10v 11v -5h 1v 1v -9v 12h 1v 4v -12v 14v -12h 1v 5v -17v 17h 1v 6v -14v 11v -6h 1v -1v 8v -9v 2h 1v 6v -10v 16v -13h 1v 5v -12v 19h 1v -14v 15v -15h 1v -1v 12v -11v 11h 1v -18v 19v -9h 1v
 -4v 7v -7v 6h 1v 1v -8v 6h 1v -10v 16v -15v 12h 1v 2v -9v 13h 1v -19v 17v -16v 12h 1v 1v -18v 15v -2h 1v -13v 19v -19v 13h 1v 3v -11v 10v -1h 1v -7v 12v -14v 14h 1v -14v 14v -4h 1v -8v 15v -14v 2h 1v 3v -14v 19h 1v 1v -11v 12v -8h 1v 8v -17v 14h 1v
 -11v 7v -3v 1h 1v 7v -10v 14h 1v -15v 12v -12h 1v 13v -12v 11h 1v -14v 13v -17h 1v 18v -7v 5h 1v -15v 20v -22h 1v 21v -18v 17h 1v -11v 13v -15h 1v 13v -10v 5h 1v 4v -17v 15v -11h 1v 12v -14v 14h 1v 4v -17v 12v -3v 2h 1v -5v 5v -7v 6h 1v 3v -11v 12v
 -14h 1v 14v -13v 3h 1v 11v -13v 7v -6h 1v 11v -11v 1h 1v 10v -9v 12v -9h 1v -6v 13v -15h 1v 12v -14v 18v -5h 1v -6v 9v -10h 1v 10v -10v 5h 1v -10v 13v -11v 10h 1v 3v -11v 11v -6h 1v -9v 16v -8v 2h 1v 1v -10v 17v -6h 1v -11v 12v -5v 4h 1v -12v 15v
 -5h 1v -12v 17v -15v 13h 1v 2v -9v 10h 1v -13v 8v -8v 4h 1v 8v -14v 13h 1v -16v 17v -17v 6h 1v 10v -9v 11h 1v -13v 9v -10v 10h 1v -16v 18h 1v -11v 8v -7h 1v 12v -18v 12h 1v -10v 8v -11h 1v 21v -13h 1v 6v -8v 11v -11h 1v 7v -11v 12h 1v -10v 15v -17h
 1v 14v -15v 18h 1v -14v 8v -12h 1v 18v -20v 15h 1v 1v -4v 6v -15h 1v 12v -15v 16h 1v -13v 14v -7h 1v -3v 9v -12v 14h 1v 1v -21v 18v -11h 1v -2v 12v -24v 19h 1v 10v -12v 10v -9h 1v -5v 13v -18v 8h 1v 6v -9v 14v -11h 1v -5v 15v -15h 1v 12v -10v 10v
 -8h 1v -8v 15v -9h 1v 10v -12v 8h 1v -6v 12v -12h 1v 12v -14v 13v -8h 1v -7v 20v -16h 1v 7v -12v 11v -1h 1v -5v 12v -15v 6h 1v 6v -11v 8v -4h 1v -10v 18v -18v 6h 1v 8v -8v 10h 1v -10v 9v -18v 16h 1v 9v -21v 11h 1v -10v 13v -8v 3h 1v 9v -15v 11h 1v
 -12v 11v -8v 5h 1v -1v 5v -11v 12h 1v -17v 16v -15h 1v 12v -9v 10h 1v -8v 11v -16h 1v 17v -21v 20h 1v -16v 4v -6v 9v -17h 1v 13v -23v 32h 1v 25v -293v 60v -8h 1v 89v -10v 19h 1v -8v 19v -10v 19v -16h 1v 15v -8v 8v -8v 27h 1v -17v 3v -4v 22v -30h 1v
 16v -13v 14h 1v -4v 20v -24h 1v 24v -17v 17h 1v -1v 7v -13v 5v -7h 1v 9v -7v 8h 1v -2v 8v -18v 19v -5h 1v 18v -14v 2h 1v -12v 12h 1v 4v -1v 8v -25h 1v 23v -15v 24v -9h 1v -17v 20v -3h 1v 16v -28v 23v -8h 1v -3v 12v -12h 1v 7v -6v 22h 1v -20v 12v
 -16h 1v 25v -20v 18v -8h 1v -12v 16v -11h 1v 13v -9v 11v -1h 1v -7v 3v -3v 11v -6h 1v -7v 11v -4h 1v -8v 18v -12h 1v 11v -17v 19h 1v -15v 19v -17v 8h 1v -5v 8v -5h 1v 2v -12v 20v -13v 1h 1v 8v -5v 3h 1v 1v -4v 2v -2h 1v 12v -11v 13h 1v -17v 12v -12h
 1v 18v -10v 5v -10v 13h 1v 3v -8v 4v -3h 1v 9v -13v 1v -11v 18h 1v -8v 14v -16h 1v 13v -5v 10h 1v -15v 11v -7h 1v 5v -10v 17h 1v -18v 15v -10h 1v 16v -20v 17h 1v -4v 1v -7v 16v -9h 1v -8v 20v -15v 1h 1v -1v 7v -9v 11v -4h 1v 9v -18v 5h 1v 5v -7v 11v
 -6h 1v -6v 16v -14v 8h 1v 4v -10v 8v -13h 1v 12v -6h 1v 9v -10v 9h 1v -9v 10v -11v 3h 1v 10v -15v 17v -13h 1v 9v -12h 1v 17v -13v 15v -2h 1v -19v 15v -13h 1v 17v -17v 19h 1v -15v 12v -10h 1v 11v -14v 13h 1v -14v 12v -8h 1v 14v -22v 18h 1v -8v 7v -8h
 1v 5v -6v 14h 1v -15v 15v -12h 1v -2v 11v -6v 8h 1v -10v 11v -15h 1v 15v -13v 9h 1v -10v 10v -10h 1v 10v -9v 20h 1v -23v 16v -9h 1v 9v -7v 9h 1v -13v 9v -9h 1v 11v -9v 7h 1v 5v -16v 15v -19h 1v 18v -20v 17h 1v 3v -12v 12v -13h 1v 14v -16v 10h 1v -7v
 14v -13h 1v 12v -18v 14h 1v 4v -10v 8v -9h 1v 15v -16v 2h 1v 13v -17v 14v -15h 1v 12v -7v 2h 1v 5v -12v 13v -6h 1v -5v 17v -16v 5h 1v 8v -14v 14v -9h 1v 6v -11h 1v 14v -10v 11v -4h 1v -5v 5v -3h 1v 2v -4v 9h 1v -9v 9v -16h 1v 17v -7v 4h 1v -19v 22v
 -3v 5v -15h 1v 11v -6v 2v -8v 12h 1v -8v 10v -11h 1v 10v -15v 17h 1v -13v 10v -12h 1v 13v -14v 15v -1h 1v -14v 17v -17h 1v 16v -8v 4h 1v -13v 15v -7h 1v 7v -10v 9h 1v -11v 16v -9h 1v -1v 6v -10v 6h 1v 9v -16v 13v -9h 1v 8v -14v 15h 1v -10v 11v -8h
 1v -2v 9v -13v 11h 1v -13v 13v -5h 1v 7v -15v 16h 1v -13v 6v -2v 7v -12h 1v 11v -7v 7h 1v 1v -11v 8v -10h 1v 15v -12v 7h 1v 2v -18v 17v -7h 1v -5v 13v -10v 11h 1v -5v 6v -14v 16v -13h 1v 12v -19v 9h 1v 10v -17v 17v -9h 1v -2v 10v -13h 1v 9v -13v 19v
 -4h 1v -8v 6v -6v 4h 1v 7v -19v 17v -6h 1v -7v 14v -7v 3h 1v 3v -9v 7v -1v 1h 1v -20v 28v -22h 1v 19v -15v 9v -3h 1v -8v 16v -20h 1v 15v -6v 4h 1v -5v 11v -13h 1v 9v -5v 8v -5h 1v -4v 11v -11h 1v 9v -12v 10h 1v -7v 11v -10h 1v 11v -15v 13h 1v -14v
 15v -10h 1v 7v -9v 13h 1v -6v 4v -11h 1v -2v 13v -16v 20h 1v -16v 11v -8h 1v -3v 12v -14v 17h 1v -17v 17v -4h 1v -11v 13v -11v 7h 1v -12v 14v -5h 1v -6v 13v -14v 12h 1v -11v 10v -2h 1v -11v 12v -3v 9h 1v -17v 14v -5h 1v -7v 12v -8v 5h 1v 3v -17v 19v
 -17h 1v 12v -10v 7h 1v 6v -15v 13v -7h 1v 12v -20v 12h 1v 5v -16v 18v -10h 1v -2v 7v -7v 6h 1v 1v -11v 13v -6h 1v -2v 11v -16v 4h 1v 9v -7v 10v -7h 1v -10v 16v -9v 4h 1v 2v -6v 5v -1h 1v -7v 11v -10v 1h 1v 9v -9v 7v -2h 1v -2v 8v -11h 1v 9v -10v 10h
 1v -12v 10v -6h 1v 11v -13v 10h 1v -11v 13v -13h 1v 11v -12v 10h 1v -8v 10v -12h 1v 15v -15v 12h 1v -12v 9v -6h 1v 16v -18v 12h 1v -10v 10v -11h 1v 9v -18v 17h 1v 1v -16v 18v -9h 1v -8v 13v -9v 12h 1v -15v 20v -10h 1v -8v 13v -16v 13h 1v 2v -19v 23v
 -9h 1v -6v 14v -17v 15h 1v -12v 12v -2h 1v -6v 8v -16v 11h 1v 1v -8v 15v -6h 1v -14v 17v -15v 13h 1v 2v -12v 11h 1v -13v 15v -10v 12h 1v -15v 18v -3h 1v -13v 9v -8v 2h 1v 9v -18v 17h 1v -16v 18v -14v 11h 1v -3v 4v -18v 15v -10h 1v 12v -8h 1v 10v
 -23v 19v -2h 1v -10v 14v -12v 6h 1v 5v -8v 9h 1v -16v 13v -5v 3v -9h 1v 15v -11v 10v -1h 1v -11v 14v -15h 1v 13v -6v 5v -2h 1v -12v 19v -16h 1v 12v -11v 14v -3h 1v -12v 17v -20h 1v 15v -16v 15h 1v -7v 8v -11h 1v 11v -13v 10h 1v -7v 11v -14h 1v 11v
 -10v 12h 1v -13v 13v -12h 1v 13v -10v 9h 1v -11v 13v -13h 1v 14v -12v 7h 1v -15v 11v -3v 2h 1v -3v 12v -13v 10h 1v -10v 7v -1h 1v -8v 13v -12v 10h 1v 2v -11v 10v -3h 1v -16v 20v -20v 21h 1v -14v 14v -4h 1v -9v 12v -11v 5h 1v 6v -12v 10v -2h 1v -8v
 15v -8h 1v 4v -12v 15h 1v -13v 10v -18v 15h 1v 2v -11v 13v -2h 1v -11v 16v -13v 4h 1v 8v -18v 16h 1v -14v 14" fill="none" stroke="#000099"/>
<path d="M284,188v 6" fill="none" stroke="#ff0000" stroke-width="2"/>
<path d="M285,188v 19" fill="none" stroke="#ff0000" stroke-width="2"/>
<path d="M285,206v 15" fill="none" stroke="#ff0000" stroke-width="2"/>
<path d="M286,214v 15" fill="none" stroke="#ff0000" stroke-width="2"/>
<path d="M287,219v 14" fill="none" stroke="#ff0000" stroke-width="2"/>
<path d="M288,223v 15" fill="none" stroke="#ff0000" stroke-width="2"/>
<path d="M289,227v 14" fill="none" stroke="#ff0000" stroke-width="2"/>
<path d="M289,232v 13" fill="none" stroke="#ff0000" stroke-width="2"/>
<path d="M290,235v 14" fill="none" stroke="#ff0000" stroke-width="2"/>
<path d="M291,238v 13" fill="none" stroke="#ff0000" stroke-width="2"/>
<path d="M292,239v 14" fill="none" stroke="#ff0000" stroke-width="2"/>
<path d="M293,242v 13" fill="none" stroke="#ff0000" stroke-width="2"/>
<path d="M293,246v 14" fill="none" stroke="#ff0000" stroke-width="2"/>
<path d="M294,248v 13" fill="none" stroke="#ff0000" stroke-width="2"/>
<path d="M295,250v 14" fill="none" stroke="#ff0000" stroke-width="2"/>
<path d="M296,251v 14" fill="none" stroke="#ff0000" stroke-width="2"/>
<path d="M297,255v 12" fill="none" stroke="#ff0000" stroke-width="2"/>
<path d="M298,257v 13" fill="none" stroke="#ff0000" stroke-width="2"/>
<path d="M298,259v 14" fill="none" stroke="#ff0000" stroke-width="2"/>
<path d="M299,260v 14" fill="none" stroke="#ff0000" stroke-width="2"/>
<path d="M300,262v 13" fill="none" stroke="#ff0000" stroke-width="2"/>
<path d="M301,265v 12" fill="none" stroke="#ff0000" stroke-width="2"/>
<path d="M302,266v 14" fill="none" stroke="#ff0000" stroke-width="2"/>
<path d="M302,268v 14" fill="none" stroke="#ff0000" stroke-width="2"/>
<path d="M303,269v 13" fill="none" stroke="#ff0000" stroke-width="2"/>
<path d="M304,271v 13" fill="none" stroke="#ff0000" stroke-width="2"/>
<path d="M305,273v 13" fill="none" stroke="#ff0000" stroke-width="2"/>
<path d="M306,274v 14" fill="none" stroke="#ff0000" stroke-width="2"/>
<path d="M307,276v 13" fill="none" stroke="#ff0000" stroke-width="2"/>
<path d="M307,277v 14" fill="none" stroke="#ff0000" stroke-width="2"/>
<path d="M308,279v 12" fill="none" stroke="#ff0000" stroke-width="2"/>
<path d="M309,280v 13" fill="none" stroke="#ff0000" stroke-width="2"/>
<path d="M310,282v 13" fill="none" stroke="#ff0000" stroke-width="2"/>
<path d="M311,282v 13" fill="none" stroke="#ff0000" stroke-width="2"/>
<path d="M311,283v 13" fill="none" stroke="#ff0000" stroke-width="2"/>
<path d="M312,286v 12" fill="none" stroke="#ff0000" stroke-width="2"/>
<path d="M313,286v 13" fill="none" stroke="#ff0000" stroke-width="2"/>
<path d="M314,287v 13" fill="none" stroke="#ff0000" stroke-width="2"/>
<path d="M315,288v 13" fill="none" stroke="#ff0000" stroke-width="2"/>
<path d="M315,289v 13" fill="none" stroke="#ff0000" stroke-width="2"/>
<path d="M316,291v 12" fill="none" stroke="#ff0000" stroke-width="2"/>
<path d="M317,291v 13" fill="none" stroke="#ff0000" stroke-width="2"/>
<path d="M318,292v 13" fill="none" stroke="#ff0000" stroke-width="2"/>
<path d="M319,293v 13" fill="none" stroke="#ff0000" stroke-width="2"/>
<path d="M320,294v 13" fill="none" stroke="#ff0000" stroke-width="2"/>
<path d="M320,295v 13" fill="none" stroke="#ff0000" stroke-width="2"/>
<path d="M321,295v 13" fill="none" stroke="#ff0000" stroke-width="2"/>
<path d="M322,296v 13" fill="none" stroke="#ff0000" stroke-width="2"/>
<path d="M323,297v 13" fill="none" stroke="#ff0000" stroke-width="2"/>
<path d="M324,298v 12" fill="none" stroke="#ff0000" stroke-width="2"/>
<path d="M324,299v 13" fill="none" stroke="#ff0000" stroke-width="2"/>
<path d="M325,299v 14" fill="none" stroke="#ff0000" stroke-width="2"/>
<path d="M326,299v 14" fill="none" stroke="#ff0000" stroke-width="2"/>
<path d="M327,300v 13" fill="none" stroke="#ff0000" stroke-width="2"/>
<path d="M328,301v 13" fill="none" stroke="#ff0000" stroke-width="2"/>
<path d="M329,302v 13" fill="none" stroke="#ff0000" stroke-width="2"/>
<path d="M329,303v 12" fill="none" stroke="#ff0000" stroke-width="2"/>
<path d="M330,303v 13" fill="none" stroke="#ff0000" stroke-width="2"/>
<path d="M331,304v 13" fill="none" stroke="#ff0000" stroke-width="2"/>
<path d="M332,304v 13" fill="none" stroke="#ff0000" stroke-width="2"/>
<path d="M333,304v 13" fill="none" stroke="#ff0000" stroke-width="2"/>
<path d="M333,305v 13" fill="none" stroke="#ff0000" stroke-width="2"/>
<path d="M334,305v 13" fill="none" stroke="#ff0000" stroke-width="2"/>
<path d="M335,306v 13" fill="none" stroke="#ff0000" stroke-width="2"/>
<path d="M336,307v 12" fill="none" stroke="#ff0000" stroke-width="2"/>
<path d="M337,307v 13" fill="none" stroke="#ff0000" stroke-width="2"/>
<path d="M337,308v 12" fill="none" stroke="#ff0000" stroke-width="2"/>
<path d="M338,308v 13" fill="none" stroke="#ff0000" stroke-width="2"/>
<path d="M339,308v 13" fill="none" stroke="#ff0000" stroke-width="2"/>
<path d="M340,308v 13" fill="none" stroke="#ff0000" stroke-width="2"/>
<path d="M341,309v 12" fill="none" stroke="#ff0000" stroke-width="2"/>
<path d="M342,309v 13" fill="none" stroke="#ff0000" stroke-width="2"/>
<path d="M342,309v 13" fill="none" stroke="#ff0000" stroke-width="2"/>
<path d="M343,310v 12" fill="none" stroke="#ff0000" stroke-width="2"/>
<path d="M344,310v 13" fill="none" stroke="#ff0000" stroke-width="2"/>
<path d="M345,311v 12" fill="none" stroke="#ff0000" stroke-width="2"/>
<path d="M346,311v 13" fill="none" stroke="#ff0000" stroke-width="2"/>
<path d="M346,311v 13" fill="none" stroke="#ff0000" stroke-width="2"/>
<path d="M347,312v 12" fill="none" stroke="#ff0000" stroke-width="2"/>
<path d="M348,312v 13" fill="none" stroke="#ff0000" stroke-width="2"/>
<path d="M349,312v 13" fill="none" stroke="#ff0000" stroke-width="2"/>
<path d="M350,313v 12" fill="none" stroke="#ff0000" stroke-width="2"/>
<path d="M351,313v 13" fill="none" stroke="#ff0000" stroke-width="2"/>
<path d="M351,313v 13" fill="none" stroke="#ff0000" stroke-width="2"/>
<path d="M352,313v 13" fill="none" stroke="#ff0000" stroke-width="2"/>
<path d="M353,313v 13" fill="none" stroke="#ff0000" stroke-width="2"/>
<path d="M354,313v 13" fill="none" stroke="#ff0000" stroke-width="2"/>
<path d="M355,314v 12" fill="none" stroke="#ff0000" stroke-width="2"/>
<path d="M355,314v 12" fill="none" stroke="#ff0000" stroke-width="2"/>
<path d="M356,314v 13" fill="none" stroke="#ff0000" stroke-width="2"/>
<path d="M357,314v 13" fill="none" stroke="#ff0000" stroke-width="2"/>
<path d="M358,314v 13" fill="none" stroke="#ff0000" stroke-width="2"/>
<path d="M359,315v 12" fill="none" stroke="#ff0000" stroke-width="2"/>
<path d="M359,315v 12" fill="none" stroke="#ff0000" stroke-width="2"/>
<path d="M360,315v 13" fill="none" stroke="#ff0000" stroke-width="2"/>
<path d="M361,315v 13" fill="none" stroke="#ff0000" stroke-width="2"/>
<path d="M362,315v 13" fill="none" stroke="#ff0000" stroke-width="2"/>
<path d="M363,316v 12" fill="none" stroke="#ff0000" stroke-width="2"/>
<path d="M364,316v 12" fill="none" stroke="#ff0000" stroke-width="2"/>
<path d="M364,316v 13" fill="none" stroke="#ff0000" stroke-width="2"/>
<path d="M365,316v 13" fill="none" stroke="#ff0000" stroke-width="2"/>
<path d="M366,316v 13" fill="none" stroke="#ff0000" stroke-width="2"/>
<path d="M367,317v 12" fill="none" stroke="#ff0000" stroke-width="2"/>
<path d="M368,317v 12" fill="none" stroke="#ff0000" stroke-width="2"/>
<path d="M368,317v 12" fill="none" stroke="#ff0000" stroke-width="2"/>
<path d="M369,317v 13" fill="none" stroke="#ff0000" stroke-width="2"/>
<path d="M370,317v 13" fill="none" stroke="#ff0000" stroke-width="2"/>
<path d="M371,317v 13" fill="none" stroke="#ff0000" stroke-width="2"/>
<path d="M372,317v 13" fill="none" stroke="#ff0000" stroke-width="2"/>
<path d="M372,317v 13" fill="none" stroke="#ff0000" stroke-width="2"/>
<path d="M373,317v 13" fill="none" stroke="#ff0000" stroke-width="2"/>
<path d="M374,317v 13" fill="none" stroke="#ff0000" stroke-width="2"/>
<path d="M375,317v 13" fill="none" stroke="#ff0000" stroke-width="2"/>
<path d="M376,317v 13" fill="none" stroke="#ff0000" stroke-width="2"/>
<path d="M377,317v 13" fill="none" stroke="#ff0000" stroke-width="2"/>
<path d="M377,317v 13" fill="none" stroke="#ff0000" stroke-width="2"/>
<path d="M378,317v 13" fill="none" stroke="#ff0000" stroke-width="2"/>
<path d="M379,317v 13" fill="none" stroke="#ff0000" stroke-width="2"/>
<path d="M380,317v 13" fill="none" stroke="#ff0000" stroke-width="2"/>
<path d="M381,318v 12" fill="none" stroke="#ff0000" stroke-width="2"/>
<path d="M381,318v 12" fill="none" stroke="#ff0000" stroke-width="2"/>
<path d="M382,318v 12" fill="none" stroke="#ff0000" stroke-width="2"/>
<path d="M383,318v 12" fill="none" stroke="#ff0000" stroke-width="2"/>
<path d="M384,318v 12" fill="none" stroke="#ff0000" stroke-width="2"/>
<path d="M385,318v 13" fill="none" stroke="#ff0000" stroke-width="2"/>
<path d="M386,318v 13" fill="none" stroke="#ff0000" stroke-width="2"/>
<path d="M386,318v 13" fill="none" stroke="#ff0000" stroke-width="2"/>
<path d="M387,318v 13" fill="none" stroke="#ff0000" stroke-width="2"/>
<path d="M388,318v 13" fill="none" stroke="#ff0000" stroke-width="2"/>
<path d="M389,318v 13" fill="none" stroke="#ff0000" stroke-width="2"/>
<path d="M390,318v 13" fill="none" stroke="#ff0000" stroke-width="2"/>
<path d="M390,318v 13" fill="none" stroke="#ff0000" stroke-width="2"/>
<path d="M391,318v 13" fill="none" stroke="#ff0000" stroke-width="2"/>
<path d="M392,319v 12" fill="none" stroke="#ff0000" stroke-width="2"/>
<path d="M393,319v 12" fill="none" stroke="#ff0000" stroke-width="2"/>
<path d="M394,319v 12" fill="none" stroke="#ff0000" stroke-width="2"/>
<path d="M394,319v 12" fill="none" stroke="#ff0000" stroke-width="2"/>
<path d="M395,319v 12" fill="none" stroke="#ff0000" stroke-width="2"/>
<path d="M396,319v 12" fill="none" stroke="#ff0000" stroke-width="2"/>
<path d="M397,319v 12" fill="none" stroke="#ff0000" stroke-width="2"/>
<path d="M398,319v 12" fill="none" stroke="#ff0000" stroke-width="2"/>
<path d="M399,319v 13" fill="none" stroke="#ff0000" stroke-width="2"/>
<path d="M399,319v 13" fill="none" stroke="#ff0000" stroke-width="2"/>
<path d="M400,319v 13" fill="none" stroke="#ff0000" stroke-width="2"/>
<path d="M401,319v 13" fill="none" stroke="#ff0000" stroke-width="2"/>
<path d="M402,319v 13" fill="none" stroke="#ff0000" stroke-width="2"/>
<path d="M403,319v 13" fill="none" stroke="#ff0000" stroke-width="2"/>
<path d="M403,319v 13" fill="none" stroke="#ff0000" stroke-width="2"/>
<path d="M404,319v 13" fill="none" stroke="#ff0000" stroke-width="2"/>
<path d="M405,319v 13" fill="none" stroke="#ff0000" stroke-width="2"/>
<path d="M406,319v 13" fill="none" stroke="#ff0000" stroke-width="2"/>
<path d="M407,319v 13" fill="none" stroke="#ff0000" stroke-width="2"/>
<path d="M408,319v 13" fill="none" stroke="#ff0000" stroke-width="2"/>
<path d="M408,319v 13" fill="none" stroke="#ff0000" stroke-width="2"/>
<path d="M409,319v 13" fill="none" stroke="#ff0000" stroke-width="2"/>
<path d="M410,319v 13" fill="none" stroke="#ff0000" stroke-width="2"/>
<path d="M411,319v 13" fill="none" stroke="#ff0000" stroke-width="2"/>
<path d="M412,320v 12" fill="none" stroke="#ff0000" stroke-width="2"/>
<path d="M412,320v 12" fill="none" stroke="#ff0000" stroke-width="2"/>
<path d="M413,320v 12" fill="none" stroke="#ff0000" stroke-width="2"/>
<path d="M414,320v 12" fill="none" stroke="#ff0000" stroke-width="2"/>
<path d="M415,320v 12" fill="none" stroke="#ff0000" stroke-width="2"/>
<path d="M416,320v 12" fill="none" stroke="#ff0000" stroke-width="2"/>
<path d="M416,320v 12" fill="none" stroke="#ff0000" stroke-width="2"/>
<path d="M417,320v 12" fill="none" stroke="#ff0000" stroke-width="2"/>
<path d="M418,320v 12" fill="none" stroke="#ff0000" stroke-width="2"/>
<path d="M419,320v 12" fill="none" stroke="#ff0000" stroke-width="2"/>
<path d="M420,320v 12" fill="none" stroke="#ff0000" stroke-width="2"/>
<path d="M421,320v 12" fill="none" stroke="#ff0000" stroke-width="2"/>
<path d="M421,320v 12" fill="none" stroke="#ff0000" stroke-width="2"/>
<path d="M422,320v 12" fill="none" stroke="#ff0000" stroke-width="2"/>
<path d="M423,320v 12" fill="none" stroke="#ff0000" stroke-width="2"/>
<path d="M424,320v 12" fill="none" stroke="#ff0000" stroke-width="2"/>
<path d="M425,320v 12" fill="none" stroke="#ff0000" stroke-width="2"/>
<path d="M425,320v 12" fill="none" stroke="#ff0000" stroke-width="2"/>
<path d="M426,320v 12" fill="none" stroke="#ff0000" stroke-width="2"/>
<path d="M427,320v 12" fill="none" stroke="#ff0000" stroke-width="2"/>
<path d="M428,320v 12" fill="none" stroke="#ff0000" stroke-width="2"/>
<path d="M429,320v 12" fill="none" stroke="#ff0000" stroke-width="2"/>
<path d="M430,320v 12" fill="none" stroke="#ff0000" stroke-width="2"/>
<path d="M430,320v 13" fill="none" stroke="#ff0000" stroke-width="2"/>
<path d="M431,320v 13" fill="none" stroke="#ff0000" stroke-width="2"/>
<path d="M432,320v 13" fill="none" stroke="#ff0000" stroke-width="2"/>
<path d="M433,320v 13" fill="none" stroke="#ff0000" stroke-width="2"/>
<path d="M434,320v 13" fill="none" stroke="#ff0000" stroke-width="2"/>
<path d="M434,320v 13" fill="none" stroke="#ff0000" stroke-width="2"/>
<path d="M435,320v 13" fill="none" stroke="#ff0000" stroke-width="2"/>
<path d="M436,320v 13" fill="none" stroke="#ff0000" stroke-width="2"/>
<path d="M437,320v 13" fill="none" stroke="#ff0000" stroke-width="2"/>
<path d="M438,320v 13" fill="none" stroke="#ff0000" stroke-width="2"/>
<path d="M438,320v 13" fill="none" stroke="#ff0000" stroke-width="2"/>
<path d="M439,320v 13" fill="none" stroke="#ff0000" stroke-width="2"/>
<path d="M440,320v 13" fill="none" stroke="#ff0000" stroke-width="2"/>
<path d="M441,320v 13" fill="none" stroke="#ff0000" stroke-width="2"/>
<path d="M442,320v 13" fill="none" stroke="#ff0000" stroke-width="2"/>
<path d="M443,320v 13" fill="none" stroke="#ff0000" stroke-width="2"/>
<path d="M443,320v 13" fill="none" stroke="#ff0000" stroke-width="2"/>
<path d="M444,320v 13" fill="none" stroke="#ff0000" stroke-width="2"/>
<path d="M445,320v 13" fill="none" stroke="#ff0000" stroke-width="2"/>
<path d="M446,320v 13" fill="none" stroke="#ff0000" stroke-width="2"/>
<path d="M447,320v 13" fill="none" stroke="#ff0000" stroke-width="2"/>
<path d="M447,320v 13" fill="none" stroke="#ff0000" stroke-width="2"/>
<path d="M448,320v 13" fill="none" stroke="#ff0000" stroke-width="2"/>
<path d="M449,320v 13" fill="none" stroke="#ff0000" stroke-width="2"/>
<path d="M450,320v 13" fill="none" stroke="#ff0000" stroke-width="2"/>
<path d="M451,320v 13" fill="none" stroke="#ff0000" stroke-width="2"/>
<path d="M452,320v 13" fill="none" stroke="#ff0000" stroke-width="2"/>
<path d="M452,320v 13" fill="none" stroke="#ff0000" stroke-width="2"/>
<path d="M453,320v 13" fill="none" stroke="#ff0000" stroke-width="2"/>
<path d="M454,320v 13" fill="none" stroke="#ff0000" stroke-width="2"/>
<path d="M455,320v 13" fill="none" stroke="#ff0000" stroke-width="2"/>
<path d="M456,320v 13" fill="none" stroke="#ff0000" stroke-width="2"/>
<path d="M456,320v 13" fill="none" stroke="#ff0000" stroke-width="2"/>
<path d="M457,320v 13" fill="none" stroke="#ff0000" stroke-width="2"/>
<path d="M458,320v 13" fill="none" stroke="#ff0000" stroke-width="2"/>
<path d="M459,320v 13" fill="none" stroke="#ff0000" stroke-width="2"/>
<path d="M460,320v 13" fill="none" stroke="#ff0000" stroke-width="2"/>
<path d="M460,320v 13" fill="none" stroke="#ff0000" stroke-width="2"/>
<path d="M461,320v 13" fill="none" stroke="#ff0000" stroke-width="2"/>
<path d="M462,320v 13" fill="none" stroke="#ff0000" stroke-width="2"/>
<path d="M463,320v 13" fill="none" stroke="#ff0000" stroke-width="2"/>
<path d="M464,320v 13" fill="none" stroke="#ff0000" stroke-width="2"/>
<path d="M465,320v 13" fill="none" stroke="#ff0000" stroke-width="2"/>
<path d="M465,320v 13" fill="none" stroke="#ff0000" stroke-width="2"/>
<path d="M466,320v 13" fill="none" stroke="#ff0000" stroke-width="2"/>
<path d="M467,320v 13" fill="none" stroke="#ff0000" stroke-width="2"/>
<path d="M468,320v 13" fill="none" stroke="#ff0000" stroke-width="2"/>
<path d="M469,320v 13" fill="none" stroke="#ff0000" stroke-width="2"/>
<path d="M469,320v 13" fill="none" stroke="#ff0000" stroke-width="2"/>
<path d="M470,320v 13" fill="none" stroke="#ff0000" stroke-width="2"/>
<path d="M471,320v 13" fill="none" stroke="#ff0000" stroke-width="2"/>
<path d="M472,320v 13" fill="none" stroke="#ff0000" stroke-width="2"/>
<path d="M473,320v 13" fill="none" stroke="#ff0000" stroke-width="2"/>
<path d="M473,320v 13" fill="none" stroke="#ff0000" stroke-width="2"/>
<path d="M474,320v 13" fill="none" stroke="#ff0000" stroke-width="2"/>
<path d="M475,320v 13" fill="none" stroke="#ff0000" stroke-width="2"/>
<path d="M476,320v 13" fill="none" stroke="#ff0000" stroke-width="2"/>
<path d="M477,320v 13" fill="none" stroke="#ff0000" stroke-width="2"/>
<path d="M478,320v 13" fill="none" stroke="#ff0000" stroke-width="2"/>
<path d="M478,320v 13" fill="none" stroke="#ff0000" stroke-width="2"/>
<path d="M479,320v 13" fill="none" stroke="#ff0000" stroke-width="2"/>
<path d="M480,320v 13" fill="none" stroke="#ff0000" stroke-width="2"/>
<path d="M481,320v 13" fill="none" stroke="#ff0000" stroke-width="2"/>
<path d="M482,320v 13" fill="none" stroke="#ff0000" stroke-width="2"/>
<path d="M482,320v 13" fill="none" stroke="#ff0000" stroke-width="2"/>
<path d="M483,320v 13" fill="none" stroke="#ff0000" stroke-width="2"/>
<path d="M484,320v 13" fill="none" stroke="#ff0000" stroke-width="2"/>
<path d="M485,320v 13" fill="none" stroke="#ff0000" stroke-width="2"/>
<path d="M486,320v 13" fill="none" stroke="#ff0000" stroke-width="2"/>
<path d="M487,320v 13" fill="none" stroke="#ff0000" stroke-width="2"/>
<path d="M487,320v 13" fill="none" stroke="#ff0000" stroke-width="2"/>
<path d="M488,320v 13" fill="none" stroke="#ff0000" stroke-width="2"/>
<path d="M489,320v 13" fill="none" stroke="#ff0000" stroke-width="2"/>
<path d="M490,320v 13" fill="none" stroke="#ff0000" stroke-width="2"/>
<path d="M491,320v 13" fill="none" stroke="#ff0000" stroke-width="2"/>
<path d="M491,320v 13" fill="none" stroke="#ff0000" stroke-width="2"/>
<path d="M492,320v 13" fill="none" stroke="#ff0000" stroke-width="2"/>
<path d="M493,320v 13" fill="none" stroke="#ff0000" stroke-width="2"/>
<path d="M494,320v 13" fill="none" stroke="#ff0000" stroke-width="2"/>
<path d="M495,320v 13" fill="none" stroke="#ff0000" stroke-width="2"/>
<path d="M495,320v 13" fill="none" stroke="#ff0000" stroke-width="2"/>
<path d="M496,320v 13" fill="none" stroke="#ff0000" stroke-width="2"/>
<path d="M497,320v 13" fill="none" stroke="#ff0000" stroke-width="2"/>
<path d="M498,320v 13" fill="none" stroke="#ff0000" stroke-width="2"/>
<path d="M499,320v 13" fill="none" stroke="#ff0000" stroke-width="2"/>
<path d="M500,320v 13" fill="none" stroke="#ff0000" stroke-width="2"/>
<path d="M500,320v 13" fill="none" stroke="#ff0000" stroke-width="2"/>
<path d="M501,320v 13" fill="none" stroke="#ff0000" stroke-width="2"/>
<path d="M502,320v 13" fill="none" stroke="#ff0000" stroke-width="2"/>
<path d="M503,320v 13" fill="none" stroke="#ff0000" stroke-width="2"/>
<path d="M504,320v 13" fill="none" stroke="#ff0000" stroke-width="2"/>
<path d="M504,320v 13" fill="none" stroke="#ff0000" stroke-width="2"/>
<path d="M505,320v 13" fill="none" stroke="#ff0000" stroke-width="2"/>
<path d="M506,320v 13" fill="none" stroke="#ff0000" stroke-width="2"/>
<path d="M507,320v 13" fill="none" stroke="#ff0000" stroke-width="2"/>
<path d="M508,320v 13" fill="none" stroke="#ff0000" stroke-width="2"/>
<path d="M509,320v 13" fill="none" stroke="#ff0000" stroke-width="2"/>
<path d="M509,320v 13" fill="none" stroke="#ff0000" stroke-width="2"/>
<path d="M510,325v 8" fill="none" stroke="#ff0000" stroke-width="2"/>
<path d="M284,191l 1, 7v 15l 1, 8l 1, 5l 1, 4l 1, 3v 5l 1, 4l 1, 2l 1, 2l 1, 3v 3l 1, 3l 1, 1l 1, 2l 1, 3l 1, 3v 1l 1, 2l 1, 2l 1, 2l 1, 2v 1l 1, 2l 1, 1l 1, 2l 1, 2l 1, 1v 1l 1, 2l 1, 1l 1, 2l 1, 1v 1l 1, 1l 1, 2l 1, 1l 1, 1l 1, 1l 1, 2l 1, 1h 1l 1,
 1v 1l 1, 1l 1, 1l 1, 1h 1v 1l 1, 1h 1l 1, 1l 1, 1h 1l 1, 1l 1, 1h 1l 1, 1v 1h 1l 1, 1h 2l 1, 1h 1l 1, 1h 1l 1, 1h 1l 1, 1h 3l 1, 1h 2l 1, 1h 1l 1, 1h 2l 1, 1h 8v 1h 4l 1, 1h 6l 1, 1h 8l 1, 1h 13l 1, 1h 110l 1, 3" fill="none" stroke="#ff0000"
 stroke-width="2"/>
<rect x="351" y="25" width="205" height="154" fill="white"/>
<path d="M351,179h 205" fill="none" stroke="black"/>
<path d="M556,179v -154" fill="none" stroke="black"/>
<path d="M556,25h -205" fill="none" stroke="black"/>
<path d="M351,25v 154" fill="none" stroke="black"/>
<text x="362" y="38" fill="black" font-size="14" font-family="Helvetica">
Entries 
</text>
<text x="490" y="38" fill="black" font-size="14" font-family="Helvetica">
 149618
</text>
<text x="374" y="58" fill="black" font-size="14" font-family="Helvetica">
 / ndf 
</text>
<text x="369" y="45" fill="black" font-size="10" font-family="Helvetica">
2
</text>
<text x="362" y="58" fill="black" font-size="14" font-family="Times">
&#0967;
</text>
<text x="455" y="55" fill="black" font-size="14" font-family="Helvetica">
  1632 / 1240
</text>
<text x="382" y="68" fill="black" font-size="14" font-family="Helvetica">
   
</text>
<text x="372" y="77" fill="black" font-size="10" font-family="Helvetica">
cu
</text>
<text x="362" y="68" fill="black" font-size="14" font-family="Helvetica">
N
</text>
<text x="503" y="74" fill="black" font-size="14" font-family="Helvetica">
 31.81
</text>
<text x="490" y="74" fill="black" font-size="14" font-family="Times">
&#0177;
</text>
<text x="443" y="74" fill="black" font-size="14" font-family="Helvetica">
 96.24 
</text>
<text x="377" y="87" fill="black" font-size="14" font-family="Helvetica">
 
</text>
<text x="367" y="97" fill="black" font-size="10" font-family="Helvetica">
cu
</text>
<text x="362" y="87" fill="black" font-size="14" font-family="Times">
&#0964;
</text>
<text x="511" y="91" fill="black" font-size="14" font-family="Helvetica">
 49.2
</text>
<text x="499" y="91" fill="black" font-size="14" font-family="Times">
&#0177;
</text>
<text x="451" y="91" fill="black" font-size="14" font-family="Helvetica">
 133.5 
</text>
<text x="375" y="102" fill="black" font-size="14" font-family="Helvetica">
    
</text>
<text x="372" y="111" fill="black" font-size="10" font-family="Helvetica">
f
</text>
<text x="362" y="102" fill="black" font-size="14" font-family="Helvetica">
N
</text>
<text x="520" y="108" fill="black" font-size="14" font-family="Helvetica">
 2.3
</text>
<text x="507" y="108" fill="black" font-size="14" font-family="Times">
&#0177;
</text>
<text x="460" y="108" fill="black" font-size="14" font-family="Helvetica">
 262.7 
</text>
<text x="370" y="121" fill="black" font-size="14" font-family="Helvetica">
 
</text>
<text x="367" y="131" fill="black" font-size="10" font-family="Helvetica">
f
</text>
<text x="362" y="121" fill="black" font-size="14" font-family="Times">
&#0964;
</text>
<text x="520" y="125" fill="black" font-size="14" font-family="Helvetica">
 0.0
</text>
<text x="507" y="125" fill="black" font-size="14" font-family="Times">
&#0177;
</text>
<text x="460" y="125" fill="black" font-size="14" font-family="Helvetica">
  2197 
</text>
<text x="384" y="137" fill="black" font-size="14" font-family="Helvetica">
  
</text>
<text x="372" y="146" fill="black" font-size="10" font-family="Helvetica">
sin
</text>
<text x="362" y="137" fill="black" font-size="14" font-family="Helvetica">
N
</text>
<text x="511" y="142" fill="black" font-size="14" font-family="Helvetica">
 0.34
</text>
<text x="499" y="142" fill="black" font-size="14" font-family="Times">
&#0177;
</text>
<text x="451" y="142" fill="black" font-size="14" font-family="Helvetica">
 14.92 
</text>
<text x="362" y="158" fill="black" font-size="14" font-family="Helvetica">
T        
</text>
<text x="511" y="159" fill="black" font-size="14" font-family="Helvetica">
 0.00
</text>
<text x="499" y="159" fill="black" font-size="14" font-family="Times">
&#0177;
</text>
<text x="451" y="159" fill="black" font-size="14" font-family="Helvetica">
 59.33 
</text>
<text x="377" y="171" fill="black" font-size="14" font-family="Helvetica">
    
</text>
<text x="372" y="180" fill="black" font-size="10" font-family="Helvetica">
b
</text>
<text x="362" y="171" fill="black" font-size="14" font-family="Helvetica">
N
</text>
<text x="520" y="176" fill="black" font-size="14" font-family="Helvetica">
 0.2
</text>
<text x="507" y="176" fill="black" font-size="14" font-family="Times">
&#0177;
</text>
<text x="465" y="176" fill="black" font-size="14" font-family="Helvetica">
  46.1 
</text>
<path d="M57,346h 453" fill="none" stroke="black"/>
<text x="419" y="372" fill="black" font-size="12" font-family="Helvetica">
TDC-TDC0 (ns)
</text>
<path d="M57,337v 9" fill="none" stroke="black"/>
<path d="M68,342v 4" fill="none" stroke="black"/>
<path d="M79,342v 4" fill="none" stroke="black"/>
<path d="M91,342v 4" fill="none" stroke="black"/>
<path d="M102,342v 4" fill="none" stroke="black"/>
<path d="M113,337v 9" fill="none" stroke="black"/>
<path d="M125,342v 4" fill="none" stroke="black"/>
<path d="M136,342v 4" fill="none" stroke="black"/>
<path d="M147,342v 4" fill="none" stroke="black"/>
<path d="M159,342v 4" fill="none" stroke="black"/>
<path d="M170,337v 9" fill="none" stroke="black"/>
<path d="M181,342v 4" fill="none" stroke="black"/>
<path d="M193,342v 4" fill="none" stroke="black"/>
<path d="M204,342v 4" fill="none" stroke="black"/>
<path d="M215,342v 4" fill="none" stroke="black"/>
<path d="M227,337v 9" fill="none" stroke="black"/>
<path d="M238,342v 4" fill="none" stroke="black"/>
<path d="M249,342v 4" fill="none" stroke="black"/>
<path d="M261,342v 4" fill="none" stroke="black"/>
<path d="M272,342v 4" fill="none" stroke="black"/>
<path d="M283,337v 9" fill="none" stroke="black"/>
<path d="M295,342v 4" fill="none" stroke="black"/>
<path d="M306,342v 4" fill="none" stroke="black"/>
<path d="M317,342v 4" fill="none" stroke="black"/>
<path d="M329,342v 4" fill="none" stroke="black"/>
<path d="M340,337v 9" fill="none" stroke="black"/>
<path d="M351,342v 4" fill="none" stroke="black"/>
<path d="M363,342v 4" fill="none" stroke="black"/>
<path d="M374,342v 4" fill="none" stroke="black"/>
<path d="M386,342v 4" fill="none" stroke="black"/>
<path d="M397,337v 9" fill="none" stroke="black"/>
<path d="M408,342v 4" fill="none" stroke="black"/>
<path d="M420,342v 4" fill="none" stroke="black"/>
<path d="M431,342v 4" fill="none" stroke="black"/>
<path d="M442,342v 4" fill="none" stroke="black"/>
<path d="M454,337v 9" fill="none" stroke="black"/>
<path d="M465,342v 4" fill="none" stroke="black"/>
<path d="M476,342v 4" fill="none" stroke="black"/>
<path d="M488,342v 4" fill="none" stroke="black"/>
<path d="M499,342v 4" fill="none" stroke="black"/>
<path d="M510,337v 9" fill="none" stroke="black"/>
<text x="36" y="359" fill="black" font-size="12" font-family="Helvetica">
-20000
</text>
<text x="93" y="359" fill="black" font-size="12" font-family="Helvetica">
-15000
</text>
<text x="149" y="359" fill="black" font-size="12" font-family="Helvetica">
-10000
</text>
<text x="210" y="359" fill="black" font-size="12" font-family="Helvetica">
-5000
</text>
<text x="280" y="359" fill="black" font-size="12" font-family="Helvetica">
0
</text>
<text x="325" y="359" fill="black" font-size="12" font-family="Helvetica">
5000
</text>
<text x="379" y="359" fill="black" font-size="12" font-family="Helvetica">
10000
</text>
<text x="435" y="359" fill="black" font-size="12" font-family="Helvetica">
15000
</text>
<text x="492" y="359" fill="black" font-size="12" font-family="Helvetica">
20000
</text>
<path d="M57,346v -308" fill="none" stroke="black"/>
<g transform="rotate(-90,29,72)">
<text x="29" y="72" fill="black" font-size="12" font-family="Helvetica">
Count
</text>
</g>
<path d="M70,346h -13" fill="none" stroke="black"/>
<path d="M63,338h -6" fill="none" stroke="black"/>
<path d="M63,329h -6" fill="none" stroke="black"/>
<path d="M63,321h -6" fill="none" stroke="black"/>
<path d="M63,312h -6" fill="none" stroke="black"/>
<path d="M70,304h -13" fill="none" stroke="black"/>
<path d="M63,295h -6" fill="none" stroke="black"/>
<path d="M63,287h -6" fill="none" stroke="black"/>
<path d="M63,278h -6" fill="none" stroke="black"/>
<path d="M63,270h -6" fill="none" stroke="black"/>
<path d="M70,261h -13" fill="none" stroke="black"/>
<path d="M63,253h -6" fill="none" stroke="black"/>
<path d="M63,244h -6" fill="none" stroke="black"/>
<path d="M63,236h -6" fill="none" stroke="black"/>
<path d="M63,227h -6" fill="none" stroke="black"/>
<path d="M70,219h -13" fill="none" stroke="black"/>
<path d="M63,210h -6" fill="none" stroke="black"/>
<path d="M63,202h -6" fill="none" stroke="black"/>
<path d="M63,193h -6" fill="none" stroke="black"/>
<path d="M63,185h -6" fill="none" stroke="black"/>
<path d="M70,176h -13" fill="none" stroke="black"/>
<path d="M63,168h -6" fill="none" stroke="black"/>
<path d="M63,159h -6" fill="none" stroke="black"/>
<path d="M63,150h -6" fill="none" stroke="black"/>
<path d="M63,142h -6" fill="none" stroke="black"/>
<path d="M70,133h -13" fill="none" stroke="black"/>
<path d="M63,125h -6" fill="none" stroke="black"/>
<path d="M63,116h -6" fill="none" stroke="black"/>
<path d="M63,108h -6" fill="none" stroke="black"/>
<path d="M63,99h -6" fill="none" stroke="black"/>
<path d="M70,91h -13" fill="none" stroke="black"/>
<path d="M63,82h -6" fill="none" stroke="black"/>
<path d="M63,74h -6" fill="none" stroke="black"/>
<path d="M63,65h -6" fill="none" stroke="black"/>
<path d="M63,57h -6" fill="none" stroke="black"/>
<path d="M70,48h -13" fill="none" stroke="black"/>
<path d="M70,48h -13" fill="none" stroke="black"/>
<path d="M63,40h -6" fill="none" stroke="black"/>
<text x="47" y="350" fill="black" font-size="12" font-family="Helvetica">
0
</text>
<text x="33" y="308" fill="black" font-size="12" font-family="Helvetica">
100
</text>
<text x="33" y="265" fill="black" font-size="12" font-family="Helvetica">
200
</text>
<text x="33" y="222" fill="black" font-size="12" font-family="Helvetica">
300
</text>
<text x="33" y="180" fill="black" font-size="12" font-family="Helvetica">
400
</text>
<text x="33" y="137" fill="black" font-size="12" font-family="Helvetica">
500
</text>
<text x="33" y="94" fill="black" font-size="12" font-family="Helvetica">
600
</text>
<text x="33" y="52" fill="black" font-size="12" font-family="Helvetica">
700
</text>
<rect x="351" y="25" width="205" height="154" fill="white"/>
<path d="M351,179h 205" fill="none" stroke="black"/>
<path d="M556,179v -154" fill="none" stroke="black"/>
<path d="M556,25h -205" fill="none" stroke="black"/>
<path d="M351,25v 154" fill="none" stroke="black"/>
<text x="362" y="38" fill="black" font-size="14" font-family="Helvetica">
Entries 
</text>
<text x="490" y="38" fill="black" font-size="14" font-family="Helvetica">
 149618
</text>
<text x="374" y="58" fill="black" font-size="14" font-family="Helvetica">
 / ndf 
</text>
<text x="369" y="45" fill="black" font-size="10" font-family="Helvetica">
2
</text>
<text x="362" y="58" fill="black" font-size="14" font-family="Times">
&#0967;
</text>
<text x="455" y="55" fill="black" font-size="14" font-family="Helvetica">
  1632 / 1240
</text>
<text x="382" y="68" fill="black" font-size="14" font-family="Helvetica">
   
</text>
<text x="372" y="77" fill="black" font-size="10" font-family="Helvetica">
cu
</text>
<text x="362" y="68" fill="black" font-size="14" font-family="Helvetica">
N
</text>
<text x="503" y="74" fill="black" font-size="14" font-family="Helvetica">
 31.81
</text>
<text x="490" y="74" fill="black" font-size="14" font-family="Times">
&#0177;
</text>
<text x="443" y="74" fill="black" font-size="14" font-family="Helvetica">
 96.24 
</text>
<text x="377" y="87" fill="black" font-size="14" font-family="Helvetica">
 
</text>
<text x="367" y="97" fill="black" font-size="10" font-family="Helvetica">
cu
</text>
<text x="362" y="87" fill="black" font-size="14" font-family="Times">
&#0964;
</text>
<text x="511" y="91" fill="black" font-size="14" font-family="Helvetica">
 49.2
</text>
<text x="499" y="91" fill="black" font-size="14" font-family="Times">
&#0177;
</text>
<text x="451" y="91" fill="black" font-size="14" font-family="Helvetica">
 133.5 
</text>
<text x="375" y="102" fill="black" font-size="14" font-family="Helvetica">
    
</text>
<text x="372" y="111" fill="black" font-size="10" font-family="Helvetica">
f
</text>
<text x="362" y="102" fill="black" font-size="14" font-family="Helvetica">
N
</text>
<text x="520" y="108" fill="black" font-size="14" font-family="Helvetica">
 2.3
</text>
<text x="507" y="108" fill="black" font-size="14" font-family="Times">
&#0177;
</text>
<text x="460" y="108" fill="black" font-size="14" font-family="Helvetica">
 262.7 
</text>
<text x="370" y="121" fill="black" font-size="14" font-family="Helvetica">
 
</text>
<text x="367" y="131" fill="black" font-size="10" font-family="Helvetica">
f
</text>
<text x="362" y="121" fill="black" font-size="14" font-family="Times">
&#0964;
</text>
<text x="520" y="125" fill="black" font-size="14" font-family="Helvetica">
 0.0
</text>
<text x="507" y="125" fill="black" font-size="14" font-family="Times">
&#0177;
</text>
<text x="460" y="125" fill="black" font-size="14" font-family="Helvetica">
  2197 
</text>
<text x="384" y="137" fill="black" font-size="14" font-family="Helvetica">
  
</text>
<text x="372" y="146" fill="black" font-size="10" font-family="Helvetica">
sin
</text>
<text x="362" y="137" fill="black" font-size="14" font-family="Helvetica">
N
</text>
<text x="511" y="142" fill="black" font-size="14" font-family="Helvetica">
 0.34
</text>
<text x="499" y="142" fill="black" font-size="14" font-family="Times">
&#0177;
</text>
<text x="451" y="142" fill="black" font-size="14" font-family="Helvetica">
 14.92 
</text>
<text x="362" y="158" fill="black" font-size="14" font-family="Helvetica">
T        
</text>
<text x="511" y="159" fill="black" font-size="14" font-family="Helvetica">
 0.00
</text>
<text x="499" y="159" fill="black" font-size="14" font-family="Times">
&#0177;
</text>
<text x="451" y="159" fill="black" font-size="14" font-family="Helvetica">
 59.33 
</text>
<text x="377" y="171" fill="black" font-size="14" font-family="Helvetica">
    
</text>
<text x="372" y="180" fill="black" font-size="10" font-family="Helvetica">
b
</text>
<text x="362" y="171" fill="black" font-size="14" font-family="Helvetica">
N
</text>
<text x="520" y="176" fill="black" font-size="14" font-family="Helvetica">
 0.2
</text>
<text x="507" y="176" fill="black" font-size="14" font-family="Times">
&#0177;
</text>
<text x="465" y="176" fill="black" font-size="14" font-family="Helvetica">
  46.1 
</text>
<text x="270" y="21" fill="black" font-size="21" font-family="Helvetica">
D3
</text></svg>
