<?xml version="1.0" standalone="no"?>
<svg width="567" height="385" viewBox="0 0 567 385" xmlns="http://www.w3.org/2000/svg">
<title>
images/analysis_loose_f/455_D4.svg
</title>
<desc>
Creator: ROOT Version 5.34/05
CreationDate: Wed Jun 12 18:00:22 2013</desc>
<defs>
</defs>
<rect x="0" y="0" width="567" height="385" fill="white"/>
<rect x="57" y="38" width="453" height="308" fill="white"/>
<rect x="57" y="38" width="453" height="308" fill="none" stroke="black"/>
<rect x="57" y="38" width="453" height="308" fill="white"/>
<rect x="57" y="38" width="453" height="308" fill="none" stroke="black"/>
<path d="M57,346h 45v -1h 1v 1v -1v 1h 1v -4v 1h 1v -10v 8v -2v 4h 1v -4v 5v -6h 1v -1v 5v -5v 3h 1v 2v -2v 3v -4h 1v -2v 6v -6v 3h 1v 2v -7v 8v -5h 1v -2v 6v -2v 2h 1v 3v -8v 4h 1v -2v 2v -5v 9v -6v 1h 1v -3v 6v -5h 1v 1v -2v 4h 1v -2v 3h 1v -2v 5v
 -9v 4h 1v -5v 7v -3v 5h 1v -5v 4v -6v 8h 1v -8v 5h 1v -5v 3v -1v 2h 1v 2v -12v 12v -3h 1v -1v 5v -5v 4h 1v -4v 3v -7h 1v 4v -2v 6v -6v 2h 1v 2v -5v 8h 1v -9v 10v -7v 1h 1v 2v -6v 6h 1v -1v 2v -5v 2v -4h 1v 6v -3v 3v -5v 3h 1v 5v -7v 6v -2v 2v -4h 1v
 5v -9v 8h 1v -4v 2v -4v 4v -2h 1v -1v 3v -3v 5h 1v -4v 1v -3h 1v 4v -4v 5h 1v -4v 5v -5h 1v 3v -6v 6h 1v -4v 4v -2h 1v 2v -6v 8h 1v -2v 2v -6h 1v 8v -8v 6h 1v -4v 3v -9v 10v -4h 1v -6v 13v -5v 3v -2h 1v -2v 1v -1v 4v -1h 1v -5v 5v -8v 8h 1v -5h 1v
 5v -6v 6h 1v -4v 2v -3h 1v -3v 6v -4v 4h 1v -4v 7h 1v -6v 2v -1v 6h 1v -7v 5h 1v -4v 1v -2v 4v -6v 5h 1v -4v 4v -2h 1v 1v -1v 4v -6v 2h 1v 5v -7v 6h 1v -10v 6v -4v 5h 1v 1v -5v 7v -4h 1v -1v 5v -5v 3h 1v 3v -3v 2v -2h 1v -11v 11v -2v 4h 1v -3v 1h 1v
 3v -9v 5v -1h 1v 3v -9v 8h 1v -5v 7v -2v 1v -5h 1v 6v -3v 3v -4h 1v -1v 4v -3v 2v -4v 2h 1v -2v 5v -7v 6h 1v -4v 4v -4h 1v 5v -8v 8h 1v -4v 1v -7v 9v -2h 1v 3v -6v 7h 1v -4v 4v -3h 1v 3v -4v 4h 1v 1v -5v 4v -3h 1v -3v 3v -5h 1v 8v -6h 1v -1v 6v -7v
 6h 1v 4v -10v 8v -5h 1v 5v -4v 3h 1v 1v -10v 7v -2v 5h 1v -7v 7v -4v 2h 1v 1v -7v 5h 1v -1v 2v -4v 2h 1v 6v -6v 2h 1v -5v 7v -9v 9h 1v -6v 5v -1h 1v -2v 1v -3v 3h 1v 3v -6v 4h 1v -5v 7v -8v 8h 1v -6v 7v -3h 1v 2v -6h 1v 6v -5v 5h 1v -8v 8v -3v 1h 1v
 -1v 3v -2h 1v -4v 5v -6h 1v 6v -5v 5h 1v -5v 4v -3v 3h 1v 1v -5v 2h 1v 2v -6v 4v -3h 1v 5v -7v 5h 1v 2v -4v 2v -4v 1h 1v 4v -5v 6h 1v -2v 1v -7h 1v 9v -9v 6h 1v 2v -7v 7v -8h 1v 9v -7v 4h 1v 1v -2v 1v -1h 1v 3v -2v 4h 1v -4v 5v -7h 1v 4v -3v 5h 1v
 -8v 4v -2v 4h 1v -5h 1v 6v -9v 8v -1h 1v -3v 1v -7v 12h 1v 1v -7v 6v -5h 1v -1v 4v -4v 3h 1v 2v -1v 1v -4v 1h 1v 3v -3v 1h 1v -1v 4v -5v 4v -5h 1v 2v -3v 5v -7h 1v 7v -2v 2v -2h 1v -3v 7v -8v 4h 1v -2v 3v -5v 6h 1v -2v 1v -6v 6h 1v 3v -7v 4v -1h 1v
 -1v 2v -7v 8h 1v -9v 7v -2h 1v -3v 9v -5v 5v -6h 1v 2v -1v 2h 1v -5v 7v -5v 2h 1v 2v -4v 2h 1v 2v -6v 6v -6v 3h 1v -5v 7v -2v 2h 1v 1v -8v 5v -3h 1v 6v -6v 3v -2v 1h 1v -2v 4v -8h 1v 8v -6v 6h 1v -2v 2v -3v 1v -3h 1v 7v -7v 5h 1v -4v 2v -7v 11v -13h
 1v 11v -6v 2h 1v 7v -8v 6v -6v 1h 1v 4v -4v 2h 1v -2v 5v -7h 1v 8v -10v 4h 1v 5v -8v 9v -11h 1v 7v -5v 4h 1v 1v -2v 2v -6h 1v -1v 9v -4h 1v 1v -2v 3v -10h 1v 14v -9v 1h 1v 7v -5v 3v -7h 1v 6v -4v 2h 1v 5v -7v 4h 1v -8v 8v -12v 12h 1v -8v 4v -2v 4h
 1v 3v -7h 1v 11v -14v 11h 1v -6v 3v -8h 1v 9v -4v 3v -9v 7v -5h 1v 8v -6v 3h 1v -3v 2v -2h 1v -2v 3v -1v 1h 1v -8v 8v -3v 9v -5h 1v 3v -7v 1v -4v 3v -1h 1v 9v -11v 6h 1v -4v 11v -10v 4h 1v -4v 1v -1v 6h 1v -7v 1v -7h 1v 11v -6v 4h 1v -10v 13v -11h
 1v 10v -9v 6h 1v 1v -9v 9v -11h 1v 10v -10v 7v -4h 1v 9v -5v 2v -13v 8h 1v 8v -10v 8h 1v -4v 7v -7v 1v -4v 3h 1v 3v -12v 13v -6h 1v 3v -7v 6v -3h 1v 1v -1v 2v -2v 2h 1v -11v 31h 1v 1v -293h 1v 201v -4v 13h 1v 13v -4v 13v -13h 1v 13v -18v 19h 1v -4v
 7v -4h 1v 11v -21v 15h 1v -6v 23v -23h 1v 18v -5v 2h 1v -8v 13v -6v 4h 1v -3v 3v -4v 9v -11h 1v -6v 20v -16v 14h 1v -9v 8v -4v 4h 1v -9v 7v -2v 6v -6h 1v 7v -5v 3v -12h 1v 20v -11v 2h 1v 2v -15v 16v -1h 1v -4v 12v -8h 1v -4v 10v -10v 7h 1v -7v 15v
 -6h 1v 6v -14v 10v -5v 7h 1v -10v 8v -6h 1v -3v 10v -7v 10h 1v -9v 11v -1h 1v -11v 12h 1v -10v 9v -7h 1v 11v -15v 10h 1v 2v -6v 6v -2v 1v -9h 1v 8v -9v 8h 1v 10v -7h 1v -8v 10h 1v -3v 8v -11v 4h 1v 5v -3v 5v -9v 6h 1v 6v -12v 7v -1v 7v -9h 1v 6v
 -11v 10h 1v -13v 11v -5v 1h 1v 12v -9v 2v -4v 7h 1v -8v 8v -9h 1v 8v -3v 4v -12v 9h 1v -2v 3v -9v 15h 1v -15v 8v -7v 5h 1v -2v 11h 1v -11v 9v -6v 2h 1v 8v -8v 5v -4h 1v -6v 9v -6v 5v -6h 1v 8v -7v 5v -6h 1v 5v -6v 8v -1h 1v -5v 7v -7v 7h 1v -8v 5v
 -2v 1h 1v 2v -6v 11v -1h 1v -5v 3v -7h 1v 7v -7v 2v -2v 8h 1v -2v 2v -8v 4v -4h 1v 12v -5v 3v -8v 9h 1v -7v 6v -4v 2h 1v 1v -4v 4h 1v -9v 8v -4v 3h 1v -5v 6v -4v 4v -2h 1v 4v -8v 10v -5h 1v 3v -6v 5h 1v 3v -6v 3h 1v 1v -6v 6v -4h 1v 6v -6v 5v -6v 6h
 1v -5v 6v -5v 4h 1v -9v 10v -9h 1v 8v -2v 2v -5h 1v 2v -2v 6v -2h 1v -6v 7v -9v 9h 1v -8v 4v -1v 7v -11h 1v 7v -1v 1v -1v 4h 1v -2v 3v -8h 1v 7v -3v 2h 1v 1v -4v 8v -6v 2v -6h 1v -4v 9v -5v 2h 1v -3v 7v -2h 1v 2v -6v 2h 1v 7v -9v 4v -1h 1v -5v 9v
 -6v 7h 1v -9v 10v -6v 2h 1v -2v 4v -6v 2v -1h 1v 5v -5v 4v -5v 7h 1v -10v 7v -3v 2h 1v 2v -6v 6v -2h 1v -3v 7h 1v -7v 8h 1v -5v 4v -6v 4h 1v -3v 4v -3h 1v -5v 7v -1v 5v -10h 1v 6v -2v 1v -1v 4v -4h 1v 5v -4v 2v -3h 1v 8v -9v 4v -1h 1v -3v 5v -6h 1v
 5v -3v 6v -3h 1v -5v 6v -2h 1v -8v 10h 1v -3v 3v -6h 1v 6v -6v 8h 1v -4v 2v -1h 1v -5v 3v -3v 6v -4h 1v 2v -6v 10v -4h 1v -1v 5v -6v 4v -1h 1v -3v 4v -1h 1v 3v -7v 3h 1v 2v -10v 9h 1v -1v 2v -5v 5h 1v 2v -3v 3v -4h 1v -6v 6v -4v 7h 1v 1v -10v 9h 1v
 -11v 9v -3v 6h 1v -5v 3v -1h 1v -3v 4v -6v 5h 1v 1v -4v 1h 1v 3v -12v 10h 1v -3v 6v -3h 1v -1v 4v -3h 1v -4v 6h 1v -4v 6v -6v 3h 1v 2v -3v 2v -4h 1v -1v 7v -4h 1v 5v -11v 10v -2h 1v -9v 7v -2v 2v -2h 1v 2v -1v 4v -3v 3v -1h 1v -9v 9v -4h 1v 4v -5v
 3v -1h 1v 3v -2h 1v 4v -8v 4v -1h 1v -1v 2h 1v 3v -1h 1v -5v 9v -6h 1v -1v 5v -11v 13h 1v -6v 2v -7h 1v 8v -3v 3v -1h 1v -3v 1v -3v 5h 1v -3v 5v -4v 3v -1h 1v -4v 4v -2h 1v 4v -5v 3h 1v 2v -4v 4h 1v -5v 4v -5v 4h 1v -3v 5h 1v -7v 5v -1v 1v -6v 5h 1v
 3v -4h 1v 1v -1v 4v -8v 6h 1v -3v 3v -3v 5h 1v -4v 2v -3v 3v -1h 1v -3v 4h 1v -3v 5v -5v 3h 1v -3v 2h 1v 1v -3v 4h 1v -5v 5v -1h 1v -4v 6v -7h 1v 5v -4v 6v -8h 1v 6v -4h 1v 5v -3v 4h 1v -5v 2v -4h 1v 7v -4v 4h 1v -5v 4v -3h 1v 5v -7v 4h 1v 1v -3v 2v
 -6h 1v 5v -1v 1v -3v 2h 1v 3v -9h 1v 10v -5v 5v -5h 1v 1v -3v 10v -8h 1v -1v 6v -4v 5h 1v -13v 12v -6h 1v 7v -6v 2v -3h 1v 5v -5v 6v -4h 1v -3v 6v -3v 3h 1v 1v -5v 3v -1h 1v -5v 8v -6v 8h 1v -6v 2v -4v 4h 1v -8v 10v -5v 1v -2v 8h 1v -8v 7v -7v 3h 1v
 -2v 5v -5h 1v 4v -5v 7v -3h 1v -3v 5v -4h 1v 2v -7v 8v -3v 4h 1v -6v 6v -4v 2h 1v -2v 1v -3v 6h 1v -7v 5h 1v -6v 7h 1v -4v 4v -7v 6h 1v -4v 5v -1h 1v -8v 8v -1v 1h 1v -4v 4v -3h 1v 2v -2v 5v -5v 1h 1v 3v -5v 6v -4h 1v 2v -6v 7v -4v 4h 1v 2v -7v 8v
 -4h 1v -3v 6v -6v 2h 1v 2v -3v 5v -4h 1v -6v 9v -8h 1v 8v -3h 1v -2v 3v -9h 1v 10v -3v 5h 1v -5v 2v -6h 1v 4v -4v 8v -6h 1v 4v -1v 3v -7h 1v 5v -5v 7h 1v -4v 4v -7h 1v 4v -1v 4h 1v -6v 4v -3h 1v -1v 2v -3v 3v -1h 1v 4v -9h 1v 9v -2h 1v -2v 4v -5h 1v
 5v -6v 7h 1v -6v 6v -4h 1v -4v 6v -4v 6h 1v -5v 7h 1v -4v 2v -9v 8h 1v -3v 5h 1v -11v 10v -8v 6h 1v -2v 4v -4h 1v -4v 9v -3h 1v -1v 4h 1v -5v 2v -4v 4h 1v 1v -6v 7h 1v -8v 6v -2v 4h 1v -6v 6v -2h 1v -3v 3v -5v 2h 1v 3v -2v 2v -3h 1v 2v -2v 3v -2v 2h
 1v -4v 5h 1v -7v 6v -5h 1v 7v -10v 12h 1v -7v 4v -3h 1v 2v -6v 8h 1v -10v 8" fill="none" stroke="#000099"/>
<rect x="442" y="25" width="114" height="46" fill="white"/>
<path d="M442,71h 114" fill="none" stroke="black"/>
<path d="M556,71v -46" fill="none" stroke="black"/>
<path d="M556,25h -114" fill="none" stroke="black"/>
<path d="M442,25v 46" fill="none" stroke="black"/>
<text x="447" y="28" fill="black" font-size="4" font-family="Helvetica">
Entries 
</text>
<text x="538" y="28" fill="black" font-size="4" font-family="Helvetica">
 40529
</text>
<text x="450" y="35" fill="black" font-size="4" font-family="Helvetica">
 / ndf 
</text>
<text x="449" y="31" fill="black" font-size="3" font-family="Helvetica">
2
</text>
<text x="447" y="35" fill="black" font-size="4" font-family="Times">
&#0967;
</text>
<text x="517" y="34" fill="black" font-size="4" font-family="Helvetica">
 5.718e+04 / 1240
</text>
<text x="452" y="37" fill="black" font-size="4" font-family="Helvetica">
   
</text>
<text x="450" y="40" fill="black" font-size="3" font-family="Helvetica">
cu
</text>
<text x="447" y="37" fill="black" font-size="4" font-family="Helvetica">
N
</text>
<text x="543" y="40" fill="black" font-size="4" font-family="Helvetica">
 9.3
</text>
<text x="541" y="40" fill="black" font-size="4" font-family="Times">
&#0177;
</text>
<text x="529" y="40" fill="black" font-size="4" font-family="Helvetica">
 202.2 
</text>
<text x="450" y="43" fill="black" font-size="4" font-family="Helvetica">
 
</text>
<text x="448" y="46" fill="black" font-size="3" font-family="Helvetica">
cu
</text>
<text x="447" y="43" fill="black" font-size="4" font-family="Times">
&#0964;
</text>
<text x="543" y="45" fill="black" font-size="4" font-family="Helvetica">
 1.7
</text>
<text x="541" y="45" fill="black" font-size="4" font-family="Times">
&#0177;
</text>
<text x="529" y="45" fill="black" font-size="4" font-family="Helvetica">
 162.5 
</text>
<text x="450" y="48" fill="black" font-size="4" font-family="Helvetica">
    
</text>
<text x="450" y="51" fill="black" font-size="3" font-family="Helvetica">
f
</text>
<text x="447" y="48" fill="black" font-size="4" font-family="Helvetica">
N
</text>
<text x="541" y="50" fill="black" font-size="4" font-family="Helvetica">
 1.75
</text>
<text x="538" y="50" fill="black" font-size="4" font-family="Times">
&#0177;
</text>
<text x="526" y="50" fill="black" font-size="4" font-family="Helvetica">
 84.72 
</text>
<text x="448" y="53" fill="black" font-size="4" font-family="Helvetica">
 
</text>
<text x="448" y="57" fill="black" font-size="3" font-family="Helvetica">
f
</text>
<text x="447" y="53" fill="black" font-size="4" font-family="Times">
&#0964;
</text>
<text x="541" y="55" fill="black" font-size="4" font-family="Helvetica">
 47.4
</text>
<text x="538" y="55" fill="black" font-size="4" font-family="Times">
&#0177;
</text>
<text x="526" y="55" fill="black" font-size="4" font-family="Helvetica">
  2286 
</text>
<text x="452" y="58" fill="black" font-size="4" font-family="Helvetica">
  
</text>
<text x="450" y="61" fill="black" font-size="3" font-family="Helvetica">
sin
</text>
<text x="447" y="58" fill="black" font-size="4" font-family="Helvetica">
N
</text>
<text x="539" y="60" fill="black" font-size="4" font-family="Helvetica">
 0.164
</text>
<text x="537" y="60" fill="black" font-size="4" font-family="Times">
&#0177;
</text>
<text x="525" y="60" fill="black" font-size="4" font-family="Helvetica">
 2.858 
</text>
<text x="447" y="65" fill="black" font-size="4" font-family="Helvetica">
T        
</text>
<text x="541" y="66" fill="black" font-size="4" font-family="Helvetica">
 0.00
</text>
<text x="538" y="66" fill="black" font-size="4" font-family="Times">
&#0177;
</text>
<text x="526" y="66" fill="black" font-size="4" font-family="Helvetica">
 59.35 
</text>
<text x="450" y="68" fill="black" font-size="4" font-family="Helvetica">
    
</text>
<text x="450" y="71" fill="black" font-size="3" font-family="Helvetica">
b
</text>
<text x="447" y="68" fill="black" font-size="4" font-family="Helvetica">
N
</text>
<text x="541" y="71" fill="black" font-size="4" font-family="Helvetica">
 0.13
</text>
<text x="538" y="71" fill="black" font-size="4" font-family="Times">
&#0177;
</text>
<text x="526" y="71" fill="black" font-size="4" font-family="Helvetica">
 10.24 
</text>
<path d="M284,190v 8" fill="none" stroke="#ff0000" stroke-width="2"/>
<path d="M285,199v 32" fill="none" stroke="#ff0000" stroke-width="2"/>
<path d="M285,232v 23" fill="none" stroke="#ff0000" stroke-width="2"/>
<path d="M286,255v 14" fill="none" stroke="#ff0000" stroke-width="2"/>
<path d="M287,269v 8" fill="none" stroke="#ff0000" stroke-width="2"/>
<path d="M288,277v 6" fill="none" stroke="#ff0000" stroke-width="2"/>
<path d="M289,282v 6" fill="none" stroke="#ff0000" stroke-width="2"/>
<path d="M289,289v 5" fill="none" stroke="#ff0000" stroke-width="2"/>
<path d="M290,292v 5" fill="none" stroke="#ff0000" stroke-width="2"/>
<path d="M291,294v 5" fill="none" stroke="#ff0000" stroke-width="2"/>
<path d="M292,295v 5" fill="none" stroke="#ff0000" stroke-width="2"/>
<path d="M293,297v 5" fill="none" stroke="#ff0000" stroke-width="2"/>
<path d="M293,299v 5" fill="none" stroke="#ff0000" stroke-width="2"/>
<path d="M294,301v 4" fill="none" stroke="#ff0000" stroke-width="2"/>
<path d="M295,302v 4" fill="none" stroke="#ff0000" stroke-width="2"/>
<path d="M296,303v 4" fill="none" stroke="#ff0000" stroke-width="2"/>
<path d="M297,304v 4" fill="none" stroke="#ff0000" stroke-width="2"/>
<path d="M298,305v 4" fill="none" stroke="#ff0000" stroke-width="2"/>
<path d="M298,306v 4" fill="none" stroke="#ff0000" stroke-width="2"/>
<path d="M299,307v 4" fill="none" stroke="#ff0000" stroke-width="2"/>
<path d="M300,308v 4" fill="none" stroke="#ff0000" stroke-width="2"/>
<path d="M301,309v 4" fill="none" stroke="#ff0000" stroke-width="2"/>
<path d="M302,310v 4" fill="none" stroke="#ff0000" stroke-width="2"/>
<path d="M302,311v 4" fill="none" stroke="#ff0000" stroke-width="2"/>
<path d="M303,312v 4" fill="none" stroke="#ff0000" stroke-width="2"/>
<path d="M304,313v 4" fill="none" stroke="#ff0000" stroke-width="2"/>
<path d="M305,313v 4" fill="none" stroke="#ff0000" stroke-width="2"/>
<path d="M306,314v 4" fill="none" stroke="#ff0000" stroke-width="2"/>
<path d="M307,315v 4" fill="none" stroke="#ff0000" stroke-width="2"/>
<path d="M307,315v 4" fill="none" stroke="#ff0000" stroke-width="2"/>
<path d="M308,316v 4" fill="none" stroke="#ff0000" stroke-width="2"/>
<path d="M309,317v 4" fill="none" stroke="#ff0000" stroke-width="2"/>
<path d="M310,317v 4" fill="none" stroke="#ff0000" stroke-width="2"/>
<path d="M311,318v 4" fill="none" stroke="#ff0000" stroke-width="2"/>
<path d="M311,318v 4" fill="none" stroke="#ff0000" stroke-width="2"/>
<path d="M312,319v 4" fill="none" stroke="#ff0000" stroke-width="2"/>
<path d="M313,320v 4" fill="none" stroke="#ff0000" stroke-width="2"/>
<path d="M314,321v 3" fill="none" stroke="#ff0000" stroke-width="2"/>
<path d="M315,321v 4" fill="none" stroke="#ff0000" stroke-width="2"/>
<path d="M315,321v 5" fill="none" stroke="#ff0000" stroke-width="2"/>
<path d="M316,322v 4" fill="none" stroke="#ff0000" stroke-width="2"/>
<path d="M317,322v 4" fill="none" stroke="#ff0000" stroke-width="2"/>
<path d="M318,323v 3" fill="none" stroke="#ff0000" stroke-width="2"/>
<path d="M319,323v 4" fill="none" stroke="#ff0000" stroke-width="2"/>
<path d="M320,324v 3" fill="none" stroke="#ff0000" stroke-width="2"/>
<path d="M320,324v 4" fill="none" stroke="#ff0000" stroke-width="2"/>
<path d="M321,325v 4" fill="none" stroke="#ff0000" stroke-width="2"/>
<path d="M322,325v 4" fill="none" stroke="#ff0000" stroke-width="2"/>
<path d="M323,326v 3" fill="none" stroke="#ff0000" stroke-width="2"/>
<path d="M324,326v 4" fill="none" stroke="#ff0000" stroke-width="2"/>
<path d="M324,326v 4" fill="none" stroke="#ff0000" stroke-width="2"/>
<path d="M325,326v 4" fill="none" stroke="#ff0000" stroke-width="2"/>
<path d="M326,326v 4" fill="none" stroke="#ff0000" stroke-width="2"/>
<path d="M327,327v 4" fill="none" stroke="#ff0000" stroke-width="2"/>
<path d="M328,327v 4" fill="none" stroke="#ff0000" stroke-width="2"/>
<path d="M329,328v 4" fill="none" stroke="#ff0000" stroke-width="2"/>
<path d="M329,328v 4" fill="none" stroke="#ff0000" stroke-width="2"/>
<path d="M330,328v 4" fill="none" stroke="#ff0000" stroke-width="2"/>
<path d="M331,329v 3" fill="none" stroke="#ff0000" stroke-width="2"/>
<path d="M332,329v 4" fill="none" stroke="#ff0000" stroke-width="2"/>
<path d="M333,329v 4" fill="none" stroke="#ff0000" stroke-width="2"/>
<path d="M333,330v 3" fill="none" stroke="#ff0000" stroke-width="2"/>
<path d="M334,330v 4" fill="none" stroke="#ff0000" stroke-width="2"/>
<path d="M335,330v 4" fill="none" stroke="#ff0000" stroke-width="2"/>
<path d="M336,330v 4" fill="none" stroke="#ff0000" stroke-width="2"/>
<path d="M337,330v 4" fill="none" stroke="#ff0000" stroke-width="2"/>
<path d="M337,330v 4" fill="none" stroke="#ff0000" stroke-width="2"/>
<path d="M338,330v 4" fill="none" stroke="#ff0000" stroke-width="2"/>
<path d="M339,331v 3" fill="none" stroke="#ff0000" stroke-width="2"/>
<path d="M340,331v 4" fill="none" stroke="#ff0000" stroke-width="2"/>
<path d="M341,331v 4" fill="none" stroke="#ff0000" stroke-width="2"/>
<path d="M342,331v 4" fill="none" stroke="#ff0000" stroke-width="2"/>
<path d="M342,332v 3" fill="none" stroke="#ff0000" stroke-width="2"/>
<path d="M343,332v 3" fill="none" stroke="#ff0000" stroke-width="2"/>
<path d="M344,332v 4" fill="none" stroke="#ff0000" stroke-width="2"/>
<path d="M345,332v 4" fill="none" stroke="#ff0000" stroke-width="2"/>
<path d="M346,332v 4" fill="none" stroke="#ff0000" stroke-width="2"/>
<path d="M346,333v 3" fill="none" stroke="#ff0000" stroke-width="2"/>
<path d="M347,333v 3" fill="none" stroke="#ff0000" stroke-width="2"/>
<path d="M348,333v 4" fill="none" stroke="#ff0000" stroke-width="2"/>
<path d="M349,333v 4" fill="none" stroke="#ff0000" stroke-width="2"/>
<path d="M350,333v 4" fill="none" stroke="#ff0000" stroke-width="2"/>
<path d="M351,334v 3" fill="none" stroke="#ff0000" stroke-width="2"/>
<path d="M351,334v 3" fill="none" stroke="#ff0000" stroke-width="2"/>
<path d="M352,334v 4" fill="none" stroke="#ff0000" stroke-width="2"/>
<path d="M353,334v 4" fill="none" stroke="#ff0000" stroke-width="2"/>
<path d="M354,334v 4" fill="none" stroke="#ff0000" stroke-width="2"/>
<path d="M355,334v 4" fill="none" stroke="#ff0000" stroke-width="2"/>
<path d="M355,334v 4" fill="none" stroke="#ff0000" stroke-width="2"/>
<path d="M356,334v 4" fill="none" stroke="#ff0000" stroke-width="2"/>
<path d="M357,334v 4" fill="none" stroke="#ff0000" stroke-width="2"/>
<path d="M358,334v 4" fill="none" stroke="#ff0000" stroke-width="2"/>
<path d="M359,334v 5" fill="none" stroke="#ff0000" stroke-width="2"/>
<path d="M359,334v 5" fill="none" stroke="#ff0000" stroke-width="2"/>
<path d="M360,334v 5" fill="none" stroke="#ff0000" stroke-width="2"/>
<path d="M361,334v 5" fill="none" stroke="#ff0000" stroke-width="2"/>
<path d="M362,334v 5" fill="none" stroke="#ff0000" stroke-width="2"/>
<path d="M363,335v 4" fill="none" stroke="#ff0000" stroke-width="2"/>
<path d="M364,335v 4" fill="none" stroke="#ff0000" stroke-width="2"/>
<path d="M364,335v 4" fill="none" stroke="#ff0000" stroke-width="2"/>
<path d="M365,335v 4" fill="none" stroke="#ff0000" stroke-width="2"/>
<path d="M366,335v 4" fill="none" stroke="#ff0000" stroke-width="2"/>
<path d="M367,335v 4" fill="none" stroke="#ff0000" stroke-width="2"/>
<path d="M368,335v 4" fill="none" stroke="#ff0000" stroke-width="2"/>
<path d="M368,335v 4" fill="none" stroke="#ff0000" stroke-width="2"/>
<path d="M369,335v 4" fill="none" stroke="#ff0000" stroke-width="2"/>
<path d="M370,335v 4" fill="none" stroke="#ff0000" stroke-width="2"/>
<path d="M371,335v 4" fill="none" stroke="#ff0000" stroke-width="2"/>
<path d="M372,335v 4" fill="none" stroke="#ff0000" stroke-width="2"/>
<path d="M372,335v 4" fill="none" stroke="#ff0000" stroke-width="2"/>
<path d="M373,336v 3" fill="none" stroke="#ff0000" stroke-width="2"/>
<path d="M374,336v 3" fill="none" stroke="#ff0000" stroke-width="2"/>
<path d="M375,336v 3" fill="none" stroke="#ff0000" stroke-width="2"/>
<path d="M376,336v 3" fill="none" stroke="#ff0000" stroke-width="2"/>
<path d="M377,336v 3" fill="none" stroke="#ff0000" stroke-width="2"/>
<path d="M377,336v 3" fill="none" stroke="#ff0000" stroke-width="2"/>
<path d="M378,336v 4" fill="none" stroke="#ff0000" stroke-width="2"/>
<path d="M379,336v 4" fill="none" stroke="#ff0000" stroke-width="2"/>
<path d="M380,336v 4" fill="none" stroke="#ff0000" stroke-width="2"/>
<path d="M381,336v 4" fill="none" stroke="#ff0000" stroke-width="2"/>
<path d="M381,336v 4" fill="none" stroke="#ff0000" stroke-width="2"/>
<path d="M382,336v 4" fill="none" stroke="#ff0000" stroke-width="2"/>
<path d="M383,336v 4" fill="none" stroke="#ff0000" stroke-width="2"/>
<path d="M384,336v 4" fill="none" stroke="#ff0000" stroke-width="2"/>
<path d="M385,336v 4" fill="none" stroke="#ff0000" stroke-width="2"/>
<path d="M386,336v 4" fill="none" stroke="#ff0000" stroke-width="2"/>
<path d="M386,336v 4" fill="none" stroke="#ff0000" stroke-width="2"/>
<path d="M387,336v 4" fill="none" stroke="#ff0000" stroke-width="2"/>
<path d="M388,336v 4" fill="none" stroke="#ff0000" stroke-width="2"/>
<path d="M389,336v 4" fill="none" stroke="#ff0000" stroke-width="2"/>
<path d="M390,337v 3" fill="none" stroke="#ff0000" stroke-width="2"/>
<path d="M390,337v 3" fill="none" stroke="#ff0000" stroke-width="2"/>
<path d="M391,337v 3" fill="none" stroke="#ff0000" stroke-width="2"/>
<path d="M392,337v 3" fill="none" stroke="#ff0000" stroke-width="2"/>
<path d="M393,337v 3" fill="none" stroke="#ff0000" stroke-width="2"/>
<path d="M394,337v 3" fill="none" stroke="#ff0000" stroke-width="2"/>
<path d="M394,337v 3" fill="none" stroke="#ff0000" stroke-width="2"/>
<path d="M395,337v 3" fill="none" stroke="#ff0000" stroke-width="2"/>
<path d="M396,337v 3" fill="none" stroke="#ff0000" stroke-width="2"/>
<path d="M397,337v 3" fill="none" stroke="#ff0000" stroke-width="2"/>
<path d="M398,337v 3" fill="none" stroke="#ff0000" stroke-width="2"/>
<path d="M399,337v 3" fill="none" stroke="#ff0000" stroke-width="2"/>
<path d="M399,337v 3" fill="none" stroke="#ff0000" stroke-width="2"/>
<path d="M400,337v 4" fill="none" stroke="#ff0000" stroke-width="2"/>
<path d="M401,337v 4" fill="none" stroke="#ff0000" stroke-width="2"/>
<path d="M402,337v 4" fill="none" stroke="#ff0000" stroke-width="2"/>
<path d="M403,337v 4" fill="none" stroke="#ff0000" stroke-width="2"/>
<path d="M403,337v 4" fill="none" stroke="#ff0000" stroke-width="2"/>
<path d="M404,337v 4" fill="none" stroke="#ff0000" stroke-width="2"/>
<path d="M405,337v 4" fill="none" stroke="#ff0000" stroke-width="2"/>
<path d="M406,337v 4" fill="none" stroke="#ff0000" stroke-width="2"/>
<path d="M407,337v 4" fill="none" stroke="#ff0000" stroke-width="2"/>
<path d="M408,337v 4" fill="none" stroke="#ff0000" stroke-width="2"/>
<path d="M408,337v 4" fill="none" stroke="#ff0000" stroke-width="2"/>
<path d="M409,337v 4" fill="none" stroke="#ff0000" stroke-width="2"/>
<path d="M410,337v 4" fill="none" stroke="#ff0000" stroke-width="2"/>
<path d="M411,337v 4" fill="none" stroke="#ff0000" stroke-width="2"/>
<path d="M412,337v 4" fill="none" stroke="#ff0000" stroke-width="2"/>
<path d="M412,337v 4" fill="none" stroke="#ff0000" stroke-width="2"/>
<path d="M413,337v 4" fill="none" stroke="#ff0000" stroke-width="2"/>
<path d="M414,337v 4" fill="none" stroke="#ff0000" stroke-width="2"/>
<path d="M415,337v 4" fill="none" stroke="#ff0000" stroke-width="2"/>
<path d="M416,337v 4" fill="none" stroke="#ff0000" stroke-width="2"/>
<path d="M416,337v 4" fill="none" stroke="#ff0000" stroke-width="2"/>
<path d="M417,337v 4" fill="none" stroke="#ff0000" stroke-width="2"/>
<path d="M418,337v 4" fill="none" stroke="#ff0000" stroke-width="2"/>
<path d="M419,337v 4" fill="none" stroke="#ff0000" stroke-width="2"/>
<path d="M420,337v 4" fill="none" stroke="#ff0000" stroke-width="2"/>
<path d="M421,337v 4" fill="none" stroke="#ff0000" stroke-width="2"/>
<path d="M421,337v 4" fill="none" stroke="#ff0000" stroke-width="2"/>
<path d="M422,337v 4" fill="none" stroke="#ff0000" stroke-width="2"/>
<path d="M423,337v 4" fill="none" stroke="#ff0000" stroke-width="2"/>
<path d="M424,337v 4" fill="none" stroke="#ff0000" stroke-width="2"/>
<path d="M425,337v 4" fill="none" stroke="#ff0000" stroke-width="2"/>
<path d="M425,337v 4" fill="none" stroke="#ff0000" stroke-width="2"/>
<path d="M426,337v 4" fill="none" stroke="#ff0000" stroke-width="2"/>
<path d="M427,337v 4" fill="none" stroke="#ff0000" stroke-width="2"/>
<path d="M428,337v 4" fill="none" stroke="#ff0000" stroke-width="2"/>
<path d="M429,337v 4" fill="none" stroke="#ff0000" stroke-width="2"/>
<path d="M430,337v 4" fill="none" stroke="#ff0000" stroke-width="2"/>
<path d="M430,337v 4" fill="none" stroke="#ff0000" stroke-width="2"/>
<path d="M431,337v 4" fill="none" stroke="#ff0000" stroke-width="2"/>
<path d="M432,337v 4" fill="none" stroke="#ff0000" stroke-width="2"/>
<path d="M433,337v 4" fill="none" stroke="#ff0000" stroke-width="2"/>
<path d="M434,337v 4" fill="none" stroke="#ff0000" stroke-width="2"/>
<path d="M434,337v 4" fill="none" stroke="#ff0000" stroke-width="2"/>
<path d="M435,337v 4" fill="none" stroke="#ff0000" stroke-width="2"/>
<path d="M436,337v 4" fill="none" stroke="#ff0000" stroke-width="2"/>
<path d="M437,337v 4" fill="none" stroke="#ff0000" stroke-width="2"/>
<path d="M438,337v 4" fill="none" stroke="#ff0000" stroke-width="2"/>
<path d="M438,337v 4" fill="none" stroke="#ff0000" stroke-width="2"/>
<path d="M439,338v 3" fill="none" stroke="#ff0000" stroke-width="2"/>
<path d="M440,338v 3" fill="none" stroke="#ff0000" stroke-width="2"/>
<path d="M441,338v 3" fill="none" stroke="#ff0000" stroke-width="2"/>
<path d="M442,338v 3" fill="none" stroke="#ff0000" stroke-width="2"/>
<path d="M443,338v 3" fill="none" stroke="#ff0000" stroke-width="2"/>
<path d="M443,338v 3" fill="none" stroke="#ff0000" stroke-width="2"/>
<path d="M444,338v 3" fill="none" stroke="#ff0000" stroke-width="2"/>
<path d="M445,338v 3" fill="none" stroke="#ff0000" stroke-width="2"/>
<path d="M446,338v 3" fill="none" stroke="#ff0000" stroke-width="2"/>
<path d="M447,338v 3" fill="none" stroke="#ff0000" stroke-width="2"/>
<path d="M447,338v 3" fill="none" stroke="#ff0000" stroke-width="2"/>
<path d="M448,338v 3" fill="none" stroke="#ff0000" stroke-width="2"/>
<path d="M449,338v 3" fill="none" stroke="#ff0000" stroke-width="2"/>
<path d="M450,338v 3" fill="none" stroke="#ff0000" stroke-width="2"/>
<path d="M451,338v 3" fill="none" stroke="#ff0000" stroke-width="2"/>
<path d="M452,338v 3" fill="none" stroke="#ff0000" stroke-width="2"/>
<path d="M452,338v 3" fill="none" stroke="#ff0000" stroke-width="2"/>
<path d="M453,338v 3" fill="none" stroke="#ff0000" stroke-width="2"/>
<path d="M454,338v 3" fill="none" stroke="#ff0000" stroke-width="2"/>
<path d="M455,338v 3" fill="none" stroke="#ff0000" stroke-width="2"/>
<path d="M456,338v 3" fill="none" stroke="#ff0000" stroke-width="2"/>
<path d="M456,338v 3" fill="none" stroke="#ff0000" stroke-width="2"/>
<path d="M457,338v 3" fill="none" stroke="#ff0000" stroke-width="2"/>
<path d="M458,338v 3" fill="none" stroke="#ff0000" stroke-width="2"/>
<path d="M459,338v 3" fill="none" stroke="#ff0000" stroke-width="2"/>
<path d="M460,338v 3" fill="none" stroke="#ff0000" stroke-width="2"/>
<path d="M460,338v 3" fill="none" stroke="#ff0000" stroke-width="2"/>
<path d="M461,338v 3" fill="none" stroke="#ff0000" stroke-width="2"/>
<path d="M462,338v 3" fill="none" stroke="#ff0000" stroke-width="2"/>
<path d="M463,338v 3" fill="none" stroke="#ff0000" stroke-width="2"/>
<path d="M464,338v 3" fill="none" stroke="#ff0000" stroke-width="2"/>
<path d="M465,338v 3" fill="none" stroke="#ff0000" stroke-width="2"/>
<path d="M465,338v 3" fill="none" stroke="#ff0000" stroke-width="2"/>
<path d="M466,338v 3" fill="none" stroke="#ff0000" stroke-width="2"/>
<path d="M467,338v 3" fill="none" stroke="#ff0000" stroke-width="2"/>
<path d="M468,338v 3" fill="none" stroke="#ff0000" stroke-width="2"/>
<path d="M469,338v 3" fill="none" stroke="#ff0000" stroke-width="2"/>
<path d="M469,338v 3" fill="none" stroke="#ff0000" stroke-width="2"/>
<path d="M470,338v 3" fill="none" stroke="#ff0000" stroke-width="2"/>
<path d="M471,338v 3" fill="none" stroke="#ff0000" stroke-width="2"/>
<path d="M472,338v 3" fill="none" stroke="#ff0000" stroke-width="2"/>
<path d="M473,338v 3" fill="none" stroke="#ff0000" stroke-width="2"/>
<path d="M473,338v 3" fill="none" stroke="#ff0000" stroke-width="2"/>
<path d="M474,338v 3" fill="none" stroke="#ff0000" stroke-width="2"/>
<path d="M475,338v 3" fill="none" stroke="#ff0000" stroke-width="2"/>
<path d="M476,338v 3" fill="none" stroke="#ff0000" stroke-width="2"/>
<path d="M477,338v 3" fill="none" stroke="#ff0000" stroke-width="2"/>
<path d="M478,338v 3" fill="none" stroke="#ff0000" stroke-width="2"/>
<path d="M478,338v 3" fill="none" stroke="#ff0000" stroke-width="2"/>
<path d="M479,338v 3" fill="none" stroke="#ff0000" stroke-width="2"/>
<path d="M480,338v 3" fill="none" stroke="#ff0000" stroke-width="2"/>
<path d="M481,338v 3" fill="none" stroke="#ff0000" stroke-width="2"/>
<path d="M482,338v 3" fill="none" stroke="#ff0000" stroke-width="2"/>
<path d="M482,338v 3" fill="none" stroke="#ff0000" stroke-width="2"/>
<path d="M483,338v 3" fill="none" stroke="#ff0000" stroke-width="2"/>
<path d="M484,338v 3" fill="none" stroke="#ff0000" stroke-width="2"/>
<path d="M485,338v 3" fill="none" stroke="#ff0000" stroke-width="2"/>
<path d="M486,338v 3" fill="none" stroke="#ff0000" stroke-width="2"/>
<path d="M487,338v 3" fill="none" stroke="#ff0000" stroke-width="2"/>
<path d="M487,338v 3" fill="none" stroke="#ff0000" stroke-width="2"/>
<path d="M488,338v 3" fill="none" stroke="#ff0000" stroke-width="2"/>
<path d="M489,338v 3" fill="none" stroke="#ff0000" stroke-width="2"/>
<path d="M490,338v 3" fill="none" stroke="#ff0000" stroke-width="2"/>
<path d="M491,338v 3" fill="none" stroke="#ff0000" stroke-width="2"/>
<path d="M491,338v 3" fill="none" stroke="#ff0000" stroke-width="2"/>
<path d="M492,338v 3" fill="none" stroke="#ff0000" stroke-width="2"/>
<path d="M493,338v 3" fill="none" stroke="#ff0000" stroke-width="2"/>
<path d="M494,338v 3" fill="none" stroke="#ff0000" stroke-width="2"/>
<path d="M495,338v 3" fill="none" stroke="#ff0000" stroke-width="2"/>
<path d="M495,338v 3" fill="none" stroke="#ff0000" stroke-width="2"/>
<path d="M496,338v 3" fill="none" stroke="#ff0000" stroke-width="2"/>
<path d="M497,338v 3" fill="none" stroke="#ff0000" stroke-width="2"/>
<path d="M498,338v 3" fill="none" stroke="#ff0000" stroke-width="2"/>
<path d="M499,338v 3" fill="none" stroke="#ff0000" stroke-width="2"/>
<path d="M500,338v 3" fill="none" stroke="#ff0000" stroke-width="2"/>
<path d="M500,338v 3" fill="none" stroke="#ff0000" stroke-width="2"/>
<path d="M501,338v 3" fill="none" stroke="#ff0000" stroke-width="2"/>
<path d="M502,338v 3" fill="none" stroke="#ff0000" stroke-width="2"/>
<path d="M503,338v 3" fill="none" stroke="#ff0000" stroke-width="2"/>
<path d="M504,338v 3" fill="none" stroke="#ff0000" stroke-width="2"/>
<path d="M504,338v 3" fill="none" stroke="#ff0000" stroke-width="2"/>
<path d="M505,338v 3" fill="none" stroke="#ff0000" stroke-width="2"/>
<path d="M506,338v 3" fill="none" stroke="#ff0000" stroke-width="2"/>
<path d="M507,338v 3" fill="none" stroke="#ff0000" stroke-width="2"/>
<path d="M508,338v 3" fill="none" stroke="#ff0000" stroke-width="2"/>
<path d="M509,338v 3" fill="none" stroke="#ff0000" stroke-width="2"/>
<path d="M509,338v 3" fill="none" stroke="#ff0000" stroke-width="2"/>
<path d="M510,339v 2" fill="none" stroke="#ff0000" stroke-width="2"/>
<path d="M284,194l 1, 21v 28l 1, 19l 1, 11l 1, 7l 1, 5v 6l 1, 4l 1, 1l 1, 2l 1, 1v 2l 1, 2l 1, 1h 1l 1, 2l 1, 1v 1h 1l 1, 1l 1, 2l 1, 1v 1h 1l 1, 1l 1, 1l 1, 1l 1, 1h 1l 1, 1l 1, 1l 1, 1l 1, 1h 1l 1, 1h 1v 1l 1, 1h 1l 1, 1h 1l 1, 1h 2l 1, 1h 1v 1h 2l
 1, 1h 1l 1, 1h 4v 1h 2l 1, 1h 2l 1, 1h 3v 1h 8l 1, 1h 4l 1, 1h 6l 1, 1h 9l 1, 1h 16l 1, 1h 119l 1, 1" fill="none" stroke="#ff0000" stroke-width="2"/>
<path d="M57,346h 453" fill="none" stroke="black"/>
<text x="419" y="372" fill="black" font-size="12" font-family="Helvetica">
TDC-TDC0 (ns)
</text>
<path d="M57,337v 9" fill="none" stroke="black"/>
<path d="M68,342v 4" fill="none" stroke="black"/>
<path d="M79,342v 4" fill="none" stroke="black"/>
<path d="M91,342v 4" fill="none" stroke="black"/>
<path d="M102,342v 4" fill="none" stroke="black"/>
<path d="M113,337v 9" fill="none" stroke="black"/>
<path d="M125,342v 4" fill="none" stroke="black"/>
<path d="M136,342v 4" fill="none" stroke="black"/>
<path d="M147,342v 4" fill="none" stroke="black"/>
<path d="M159,342v 4" fill="none" stroke="black"/>
<path d="M170,337v 9" fill="none" stroke="black"/>
<path d="M181,342v 4" fill="none" stroke="black"/>
<path d="M193,342v 4" fill="none" stroke="black"/>
<path d="M204,342v 4" fill="none" stroke="black"/>
<path d="M215,342v 4" fill="none" stroke="black"/>
<path d="M227,337v 9" fill="none" stroke="black"/>
<path d="M238,342v 4" fill="none" stroke="black"/>
<path d="M249,342v 4" fill="none" stroke="black"/>
<path d="M261,342v 4" fill="none" stroke="black"/>
<path d="M272,342v 4" fill="none" stroke="black"/>
<path d="M283,337v 9" fill="none" stroke="black"/>
<path d="M295,342v 4" fill="none" stroke="black"/>
<path d="M306,342v 4" fill="none" stroke="black"/>
<path d="M317,342v 4" fill="none" stroke="black"/>
<path d="M329,342v 4" fill="none" stroke="black"/>
<path d="M340,337v 9" fill="none" stroke="black"/>
<path d="M351,342v 4" fill="none" stroke="black"/>
<path d="M363,342v 4" fill="none" stroke="black"/>
<path d="M374,342v 4" fill="none" stroke="black"/>
<path d="M386,342v 4" fill="none" stroke="black"/>
<path d="M397,337v 9" fill="none" stroke="black"/>
<path d="M408,342v 4" fill="none" stroke="black"/>
<path d="M420,342v 4" fill="none" stroke="black"/>
<path d="M431,342v 4" fill="none" stroke="black"/>
<path d="M442,342v 4" fill="none" stroke="black"/>
<path d="M454,337v 9" fill="none" stroke="black"/>
<path d="M465,342v 4" fill="none" stroke="black"/>
<path d="M476,342v 4" fill="none" stroke="black"/>
<path d="M488,342v 4" fill="none" stroke="black"/>
<path d="M499,342v 4" fill="none" stroke="black"/>
<path d="M510,337v 9" fill="none" stroke="black"/>
<text x="36" y="359" fill="black" font-size="12" font-family="Helvetica">
-20000
</text>
<text x="93" y="359" fill="black" font-size="12" font-family="Helvetica">
-15000
</text>
<text x="149" y="359" fill="black" font-size="12" font-family="Helvetica">
-10000
</text>
<text x="210" y="359" fill="black" font-size="12" font-family="Helvetica">
-5000
</text>
<text x="280" y="359" fill="black" font-size="12" font-family="Helvetica">
0
</text>
<text x="325" y="359" fill="black" font-size="12" font-family="Helvetica">
5000
</text>
<text x="379" y="359" fill="black" font-size="12" font-family="Helvetica">
10000
</text>
<text x="435" y="359" fill="black" font-size="12" font-family="Helvetica">
15000
</text>
<text x="492" y="359" fill="black" font-size="12" font-family="Helvetica">
20000
</text>
<path d="M57,346v -308" fill="none" stroke="black"/>
<g transform="rotate(-90,29,72)">
<text x="29" y="72" fill="black" font-size="12" font-family="Helvetica">
Count
</text>
</g>
<path d="M70,346h -13" fill="none" stroke="black"/>
<path d="M63,340h -6" fill="none" stroke="black"/>
<path d="M63,333h -6" fill="none" stroke="black"/>
<path d="M63,327h -6" fill="none" stroke="black"/>
<path d="M63,320h -6" fill="none" stroke="black"/>
<path d="M70,314h -13" fill="none" stroke="black"/>
<path d="M63,307h -6" fill="none" stroke="black"/>
<path d="M63,301h -6" fill="none" stroke="black"/>
<path d="M63,294h -6" fill="none" stroke="black"/>
<path d="M63,287h -6" fill="none" stroke="black"/>
<path d="M70,281h -13" fill="none" stroke="black"/>
<path d="M63,274h -6" fill="none" stroke="black"/>
<path d="M63,268h -6" fill="none" stroke="black"/>
<path d="M63,261h -6" fill="none" stroke="black"/>
<path d="M63,255h -6" fill="none" stroke="black"/>
<path d="M70,248h -13" fill="none" stroke="black"/>
<path d="M63,242h -6" fill="none" stroke="black"/>
<path d="M63,235h -6" fill="none" stroke="black"/>
<path d="M63,229h -6" fill="none" stroke="black"/>
<path d="M63,222h -6" fill="none" stroke="black"/>
<path d="M70,215h -13" fill="none" stroke="black"/>
<path d="M63,209h -6" fill="none" stroke="black"/>
<path d="M63,202h -6" fill="none" stroke="black"/>
<path d="M63,196h -6" fill="none" stroke="black"/>
<path d="M63,189h -6" fill="none" stroke="black"/>
<path d="M70,183h -13" fill="none" stroke="black"/>
<path d="M63,176h -6" fill="none" stroke="black"/>
<path d="M63,170h -6" fill="none" stroke="black"/>
<path d="M63,163h -6" fill="none" stroke="black"/>
<path d="M63,156h -6" fill="none" stroke="black"/>
<path d="M70,150h -13" fill="none" stroke="black"/>
<path d="M63,143h -6" fill="none" stroke="black"/>
<path d="M63,137h -6" fill="none" stroke="black"/>
<path d="M63,130h -6" fill="none" stroke="black"/>
<path d="M63,124h -6" fill="none" stroke="black"/>
<path d="M70,117h -13" fill="none" stroke="black"/>
<path d="M63,111h -6" fill="none" stroke="black"/>
<path d="M63,104h -6" fill="none" stroke="black"/>
<path d="M63,97h -6" fill="none" stroke="black"/>
<path d="M63,91h -6" fill="none" stroke="black"/>
<path d="M70,84h -13" fill="none" stroke="black"/>
<path d="M63,78h -6" fill="none" stroke="black"/>
<path d="M63,71h -6" fill="none" stroke="black"/>
<path d="M63,65h -6" fill="none" stroke="black"/>
<path d="M63,58h -6" fill="none" stroke="black"/>
<path d="M70,52h -13" fill="none" stroke="black"/>
<path d="M70,52h -13" fill="none" stroke="black"/>
<path d="M63,45h -6" fill="none" stroke="black"/>
<path d="M63,39h -6" fill="none" stroke="black"/>
<text x="47" y="350" fill="black" font-size="12" font-family="Helvetica">
0
</text>
<text x="40" y="317" fill="black" font-size="12" font-family="Helvetica">
50
</text>
<text x="33" y="285" fill="black" font-size="12" font-family="Helvetica">
100
</text>
<text x="33" y="252" fill="black" font-size="12" font-family="Helvetica">
150
</text>
<text x="33" y="219" fill="black" font-size="12" font-family="Helvetica">
200
</text>
<text x="33" y="186" fill="black" font-size="12" font-family="Helvetica">
250
</text>
<text x="33" y="154" fill="black" font-size="12" font-family="Helvetica">
300
</text>
<text x="33" y="121" fill="black" font-size="12" font-family="Helvetica">
350
</text>
<text x="33" y="88" fill="black" font-size="12" font-family="Helvetica">
400
</text>
<text x="33" y="55" fill="black" font-size="12" font-family="Helvetica">
450
</text>
<rect x="442" y="25" width="114" height="46" fill="white"/>
<path d="M442,71h 114" fill="none" stroke="black"/>
<path d="M556,71v -46" fill="none" stroke="black"/>
<path d="M556,25h -114" fill="none" stroke="black"/>
<path d="M442,25v 46" fill="none" stroke="black"/>
<text x="447" y="28" fill="black" font-size="4" font-family="Helvetica">
Entries 
</text>
<text x="538" y="28" fill="black" font-size="4" font-family="Helvetica">
 40529
</text>
<text x="450" y="35" fill="black" font-size="4" font-family="Helvetica">
 / ndf 
</text>
<text x="449" y="31" fill="black" font-size="3" font-family="Helvetica">
2
</text>
<text x="447" y="35" fill="black" font-size="4" font-family="Times">
&#0967;
</text>
<text x="517" y="34" fill="black" font-size="4" font-family="Helvetica">
 5.718e+04 / 1240
</text>
<text x="452" y="37" fill="black" font-size="4" font-family="Helvetica">
   
</text>
<text x="450" y="40" fill="black" font-size="3" font-family="Helvetica">
cu
</text>
<text x="447" y="37" fill="black" font-size="4" font-family="Helvetica">
N
</text>
<text x="543" y="40" fill="black" font-size="4" font-family="Helvetica">
 9.3
</text>
<text x="541" y="40" fill="black" font-size="4" font-family="Times">
&#0177;
</text>
<text x="529" y="40" fill="black" font-size="4" font-family="Helvetica">
 202.2 
</text>
<text x="450" y="43" fill="black" font-size="4" font-family="Helvetica">
 
</text>
<text x="448" y="46" fill="black" font-size="3" font-family="Helvetica">
cu
</text>
<text x="447" y="43" fill="black" font-size="4" font-family="Times">
&#0964;
</text>
<text x="543" y="45" fill="black" font-size="4" font-family="Helvetica">
 1.7
</text>
<text x="541" y="45" fill="black" font-size="4" font-family="Times">
&#0177;
</text>
<text x="529" y="45" fill="black" font-size="4" font-family="Helvetica">
 162.5 
</text>
<text x="450" y="48" fill="black" font-size="4" font-family="Helvetica">
    
</text>
<text x="450" y="51" fill="black" font-size="3" font-family="Helvetica">
f
</text>
<text x="447" y="48" fill="black" font-size="4" font-family="Helvetica">
N
</text>
<text x="541" y="50" fill="black" font-size="4" font-family="Helvetica">
 1.75
</text>
<text x="538" y="50" fill="black" font-size="4" font-family="Times">
&#0177;
</text>
<text x="526" y="50" fill="black" font-size="4" font-family="Helvetica">
 84.72 
</text>
<text x="448" y="53" fill="black" font-size="4" font-family="Helvetica">
 
</text>
<text x="448" y="57" fill="black" font-size="3" font-family="Helvetica">
f
</text>
<text x="447" y="53" fill="black" font-size="4" font-family="Times">
&#0964;
</text>
<text x="541" y="55" fill="black" font-size="4" font-family="Helvetica">
 47.4
</text>
<text x="538" y="55" fill="black" font-size="4" font-family="Times">
&#0177;
</text>
<text x="526" y="55" fill="black" font-size="4" font-family="Helvetica">
  2286 
</text>
<text x="452" y="58" fill="black" font-size="4" font-family="Helvetica">
  
</text>
<text x="450" y="61" fill="black" font-size="3" font-family="Helvetica">
sin
</text>
<text x="447" y="58" fill="black" font-size="4" font-family="Helvetica">
N
</text>
<text x="539" y="60" fill="black" font-size="4" font-family="Helvetica">
 0.164
</text>
<text x="537" y="60" fill="black" font-size="4" font-family="Times">
&#0177;
</text>
<text x="525" y="60" fill="black" font-size="4" font-family="Helvetica">
 2.858 
</text>
<text x="447" y="65" fill="black" font-size="4" font-family="Helvetica">
T        
</text>
<text x="541" y="66" fill="black" font-size="4" font-family="Helvetica">
 0.00
</text>
<text x="538" y="66" fill="black" font-size="4" font-family="Times">
&#0177;
</text>
<text x="526" y="66" fill="black" font-size="4" font-family="Helvetica">
 59.35 
</text>
<text x="450" y="68" fill="black" font-size="4" font-family="Helvetica">
    
</text>
<text x="450" y="71" fill="black" font-size="3" font-family="Helvetica">
b
</text>
<text x="447" y="68" fill="black" font-size="4" font-family="Helvetica">
N
</text>
<text x="541" y="71" fill="black" font-size="4" font-family="Helvetica">
 0.13
</text>
<text x="538" y="71" fill="black" font-size="4" font-family="Times">
&#0177;
</text>
<text x="526" y="71" fill="black" font-size="4" font-family="Helvetica">
 10.24 
</text>
<text x="270" y="21" fill="black" font-size="21" font-family="Helvetica">
D4
</text></svg>
