<?xml version="1.0" standalone="no"?>
<svg width="567" height="328" viewBox="0 0 567 328" xmlns="http://www.w3.org/2000/svg">
<title>
images/analysis_loose_f/run_muon_rate_in_cu.svg
</title>
<desc>
Creator: ROOT Version 5.34/05
CreationDate: Wed Jun 12 18:02:01 2013</desc>
<defs>
</defs>
<rect x="0" y="0" width="567" height="328" fill="white"/>
<rect x="57" y="33" width="453" height="262" fill="white"/>
<rect x="57" y="33" width="453" height="262" fill="none" stroke="black"/>
<path d="M94,77v -16" fill="none" stroke="#000099"/>
<path d="M94,61v -16" fill="none" stroke="#000099"/>
<path d="M57,61h 37" fill="none" stroke="#000099"/>
<path d="M94,61h 38" fill="none" stroke="#000099"/>
<g stroke="black" stroke-width="1" fill="none">
<line x1="93" y1="61" x2="94" y2="61"/>
</g>
<path d="M170,239v -37" fill="none" stroke="#000099"/>
<path d="M170,202v -36" fill="none" stroke="#000099"/>
<path d="M132,202h 38" fill="none" stroke="#000099"/>
<path d="M170,202h 38" fill="none" stroke="#000099"/>
<g stroke="black" stroke-width="1" fill="none">
<line x1="169" y1="202" x2="170" y2="202"/>
</g>
<path d="M246,153v -18" fill="none" stroke="#000099"/>
<path d="M246,135v -17" fill="none" stroke="#000099"/>
<path d="M208,135h 38" fill="none" stroke="#000099"/>
<path d="M246,135h 37" fill="none" stroke="#000099"/>
<g stroke="black" stroke-width="1" fill="none">
<line x1="245" y1="135" x2="246" y2="135"/>
</g>
<path d="M321,173v -14" fill="none" stroke="#000099"/>
<path d="M321,159v -15" fill="none" stroke="#000099"/>
<path d="M283,159h 38" fill="none" stroke="#000099"/>
<path d="M321,159h 38" fill="none" stroke="#000099"/>
<g stroke="black" stroke-width="1" fill="none">
<line x1="320" y1="159" x2="321" y2="159"/>
</g>
<path d="M397,283v -12" fill="none" stroke="#000099"/>
<path d="M397,271v -12" fill="none" stroke="#000099"/>
<path d="M359,271h 38" fill="none" stroke="#000099"/>
<path d="M397,271h 38" fill="none" stroke="#000099"/>
<g stroke="black" stroke-width="1" fill="none">
<line x1="396" y1="271" x2="397" y2="271"/>
</g>
<path d="M472,238v -18" fill="none" stroke="#000099"/>
<path d="M472,220v -18" fill="none" stroke="#000099"/>
<path d="M435,220h 37" fill="none" stroke="#000099"/>
<path d="M472,220h 38" fill="none" stroke="#000099"/>
<g stroke="black" stroke-width="1" fill="none">
<line x1="471" y1="220" x2="472" y2="220"/>
</g>
<path d="M57,295h 453" fill="none" stroke="black"/>
<text x="462" y="317" fill="black" font-size="11" font-family="Helvetica">
Degrader
</text>
<text x="92" y="305" fill="black" font-size="7" font-family="Helvetica">
0
</text>
<text x="165" y="305" fill="black" font-size="7" font-family="Helvetica">
0.5
</text>
<text x="240" y="305" fill="black" font-size="7" font-family="Helvetica">
0.5
</text>
<text x="319" y="305" fill="black" font-size="7" font-family="Helvetica">
1
</text>
<text x="395" y="305" fill="black" font-size="7" font-family="Helvetica">
5
</text>
<text x="470" y="305" fill="black" font-size="7" font-family="Helvetica">
5
</text>
<path d="M57,287v 8" fill="none" stroke="black"/>
<path d="M132,287v 8" fill="none" stroke="black"/>
<path d="M208,287v 8" fill="none" stroke="black"/>
<path d="M283,287v 8" fill="none" stroke="black"/>
<path d="M359,287v 8" fill="none" stroke="black"/>
<path d="M435,287v 8" fill="none" stroke="black"/>
<path d="M510,287v 8" fill="none" stroke="black"/>
<path d="M57,295v -262" fill="none" stroke="black"/>
<g transform="rotate(-90,28,122)">
<text x="28" y="122" fill="black" font-size="11" font-family="Helvetica">
Muons per proton
</text>
</g>
<path d="M70,269h -13" fill="none" stroke="black"/>
<path d="M63,262h -6" fill="none" stroke="black"/>
<path d="M63,255h -6" fill="none" stroke="black"/>
<path d="M63,248h -6" fill="none" stroke="black"/>
<path d="M70,241h -13" fill="none" stroke="black"/>
<path d="M63,234h -6" fill="none" stroke="black"/>
<path d="M63,228h -6" fill="none" stroke="black"/>
<path d="M63,221h -6" fill="none" stroke="black"/>
<path d="M70,214h -13" fill="none" stroke="black"/>
<path d="M63,207h -6" fill="none" stroke="black"/>
<path d="M63,200h -6" fill="none" stroke="black"/>
<path d="M63,193h -6" fill="none" stroke="black"/>
<path d="M70,186h -13" fill="none" stroke="black"/>
<path d="M63,179h -6" fill="none" stroke="black"/>
<path d="M63,172h -6" fill="none" stroke="black"/>
<path d="M63,165h -6" fill="none" stroke="black"/>
<path d="M70,158h -13" fill="none" stroke="black"/>
<path d="M63,151h -6" fill="none" stroke="black"/>
<path d="M63,144h -6" fill="none" stroke="black"/>
<path d="M63,137h -6" fill="none" stroke="black"/>
<path d="M70,130h -13" fill="none" stroke="black"/>
<path d="M63,123h -6" fill="none" stroke="black"/>
<path d="M63,116h -6" fill="none" stroke="black"/>
<path d="M63,109h -6" fill="none" stroke="black"/>
<path d="M70,102h -13" fill="none" stroke="black"/>
<path d="M63,95h -6" fill="none" stroke="black"/>
<path d="M63,88h -6" fill="none" stroke="black"/>
<path d="M63,81h -6" fill="none" stroke="black"/>
<path d="M70,74h -13" fill="none" stroke="black"/>
<path d="M63,68h -6" fill="none" stroke="black"/>
<path d="M63,61h -6" fill="none" stroke="black"/>
<path d="M63,54h -6" fill="none" stroke="black"/>
<path d="M70,47h -13" fill="none" stroke="black"/>
<path d="M70,269h -13" fill="none" stroke="black"/>
<path d="M63,276h -6" fill="none" stroke="black"/>
<path d="M63,283h -6" fill="none" stroke="black"/>
<path d="M63,290h -6" fill="none" stroke="black"/>
<path d="M70,47h -13" fill="none" stroke="black"/>
<path d="M63,40h -6" fill="none" stroke="black"/>
<path d="M63,33h -6" fill="none" stroke="black"/>
<text x="41" y="273" fill="black" font-size="11" font-family="Helvetica">
40
</text>
<text x="41" y="245" fill="black" font-size="11" font-family="Helvetica">
42
</text>
<text x="41" y="217" fill="black" font-size="11" font-family="Helvetica">
44
</text>
<text x="41" y="189" fill="black" font-size="11" font-family="Helvetica">
46
</text>
<text x="41" y="161" fill="black" font-size="11" font-family="Helvetica">
48
</text>
<text x="41" y="134" fill="black" font-size="11" font-family="Helvetica">
50
</text>
<text x="41" y="106" fill="black" font-size="11" font-family="Helvetica">
52
</text>
<text x="41" y="78" fill="black" font-size="11" font-family="Helvetica">
54
</text>
<text x="41" y="50" fill="black" font-size="11" font-family="Helvetica">
56
</text>
<text x="76" y="22" fill="black" font-size="7" font-family="Helvetica">
-9
</text>
<text x="64" y="31" fill="black" font-size="11" font-family="Helvetica">
10
</text>
<text x="57" y="31" fill="black" font-size="11" font-family="Times">
&#0215;
</text>
<text x="164" y="17" fill="black" font-size="17" font-family="Helvetica">
Rate of muons decaying in cu
</text>
<rect x="442" y="21" width="114" height="40" fill="white"/>
<path d="M442,61h 114" fill="none" stroke="black"/>
<path d="M556,61v -40" fill="none" stroke="black"/>
<path d="M556,21h -114" fill="none" stroke="black"/>
<path d="M442,21v 40" fill="none" stroke="black"/>
<text x="448" y="46" fill="black" font-size="17" font-family="Helvetica">
Entries 
</text>
<text x="535" y="46" fill="black" font-size="17" font-family="Helvetica">
 6
</text>
<text x="164" y="17" fill="black" font-size="17" font-family="Helvetica">
Rate of muons decaying in cu
</text></svg>
