<?xml version="1.0" standalone="no"?>
<svg width="567" height="384" viewBox="0 0 567 384" xmlns="http://www.w3.org/2000/svg">
<title>
images/analysis_g4bl_sin_phase_exec_d4_d5_l_bound50bin_8tight/zoom/448_448_D3.svg
</title>
<desc>
Creator: ROOT Version 5.34/09
CreationDate: Tue Jan  7 17:24:15 2014</desc>
<defs>
</defs>
<rect x="0" y="0" width="567" height="384" fill="white"/>
<rect x="57" y="38" width="453" height="308" fill="white"/>
<rect x="57" y="38" width="453" height="308" fill="none" stroke="black"/>
<rect x="57" y="38" width="453" height="308" fill="white"/>
<rect x="57" y="38" width="453" height="308" fill="none" stroke="black"/>
<path d="M57,292h 9v 19h 9v 2h 9v 2h 18v -13h 9v -6h 9v -6h 9v 15h 9v 3h 9v -6h 9v 1h 19v -3h 9v -16h 18v 15h 18v -5h 18v -19h 9v 5h 9v -6h 9v 15h 9v 12h 9v 40h 10v 5h 36v -122h 9v -171h 9v 35h 9v 23h 9v 9h 9v -20h 9v 39h 9v 7h 9v 40h 9v -6h 10v -25h
 9v 31h 9v 26h 9v -34h 9v 9h 9v -8h 9v 20h 9v 12h 9v 1h 9v -2h 9" fill="none" stroke="#000099"/>
<rect x="442" y="25" width="114" height="46" fill="white"/>
<path d="M442,71h 114" fill="none" stroke="black"/>
<path d="M556,71v -46" fill="none" stroke="black"/>
<path d="M556,25h -114" fill="none" stroke="black"/>
<path d="M442,25v 46" fill="none" stroke="black"/>
<text x="447" y="53" fill="black" font-size="14" font-family="Helvetica">
Entries 
</text>
<text x="497" y="53" fill="black" font-size="14" font-family="Helvetica">
 475773
</text>
<path d="M57,346h 453" fill="none" stroke="black"/>
<text x="425" y="371" fill="black" font-size="12" font-family="Helvetica">
TDC-TDC0 (ns)
</text>
<path d="M57,336v 10" fill="none" stroke="black"/>
<path d="M68,341v 5" fill="none" stroke="black"/>
<path d="M79,341v 5" fill="none" stroke="black"/>
<path d="M91,341v 5" fill="none" stroke="black"/>
<path d="M102,341v 5" fill="none" stroke="black"/>
<path d="M113,336v 10" fill="none" stroke="black"/>
<path d="M125,341v 5" fill="none" stroke="black"/>
<path d="M136,341v 5" fill="none" stroke="black"/>
<path d="M147,341v 5" fill="none" stroke="black"/>
<path d="M159,341v 5" fill="none" stroke="black"/>
<path d="M170,336v 10" fill="none" stroke="black"/>
<path d="M181,341v 5" fill="none" stroke="black"/>
<path d="M193,341v 5" fill="none" stroke="black"/>
<path d="M204,341v 5" fill="none" stroke="black"/>
<path d="M215,341v 5" fill="none" stroke="black"/>
<path d="M227,336v 10" fill="none" stroke="black"/>
<path d="M238,341v 5" fill="none" stroke="black"/>
<path d="M249,341v 5" fill="none" stroke="black"/>
<path d="M261,341v 5" fill="none" stroke="black"/>
<path d="M272,341v 5" fill="none" stroke="black"/>
<path d="M283,336v 10" fill="none" stroke="black"/>
<path d="M295,341v 5" fill="none" stroke="black"/>
<path d="M306,341v 5" fill="none" stroke="black"/>
<path d="M317,341v 5" fill="none" stroke="black"/>
<path d="M329,341v 5" fill="none" stroke="black"/>
<path d="M340,336v 10" fill="none" stroke="black"/>
<path d="M351,341v 5" fill="none" stroke="black"/>
<path d="M363,341v 5" fill="none" stroke="black"/>
<path d="M374,341v 5" fill="none" stroke="black"/>
<path d="M386,341v 5" fill="none" stroke="black"/>
<path d="M397,336v 10" fill="none" stroke="black"/>
<path d="M408,341v 5" fill="none" stroke="black"/>
<path d="M420,341v 5" fill="none" stroke="black"/>
<path d="M431,341v 5" fill="none" stroke="black"/>
<path d="M442,341v 5" fill="none" stroke="black"/>
<path d="M454,336v 10" fill="none" stroke="black"/>
<path d="M465,341v 5" fill="none" stroke="black"/>
<path d="M476,341v 5" fill="none" stroke="black"/>
<path d="M488,341v 5" fill="none" stroke="black"/>
<path d="M499,341v 5" fill="none" stroke="black"/>
<path d="M510,336v 10" fill="none" stroke="black"/>
<text x="44" y="358" fill="black" font-size="12" font-family="Helvetica">
-200
</text>
<text x="101" y="358" fill="black" font-size="12" font-family="Helvetica">
-150
</text>
<text x="157" y="358" fill="black" font-size="12" font-family="Helvetica">
-100
</text>
<text x="217" y="358" fill="black" font-size="12" font-family="Helvetica">
-50
</text>
<text x="280" y="358" fill="black" font-size="12" font-family="Helvetica">
0
</text>
<text x="332" y="358" fill="black" font-size="12" font-family="Helvetica">
50
</text>
<text x="386" y="358" fill="black" font-size="12" font-family="Helvetica">
100
</text>
<text x="442" y="358" fill="black" font-size="12" font-family="Helvetica">
150
</text>
<text x="499" y="358" fill="black" font-size="12" font-family="Helvetica">
200
</text>
<path d="M57,346v -308" fill="none" stroke="black"/>
<g transform="rotate(-90,29,70)">
<text x="29" y="70" fill="black" font-size="12" font-family="Helvetica">
Count
</text>
</g>
<path d="M70,346h -13" fill="none" stroke="black"/>
<path d="M63,338h -6" fill="none" stroke="black"/>
<path d="M63,331h -6" fill="none" stroke="black"/>
<path d="M63,324h -6" fill="none" stroke="black"/>
<path d="M63,317h -6" fill="none" stroke="black"/>
<path d="M70,310h -13" fill="none" stroke="black"/>
<path d="M63,303h -6" fill="none" stroke="black"/>
<path d="M63,296h -6" fill="none" stroke="black"/>
<path d="M63,288h -6" fill="none" stroke="black"/>
<path d="M63,281h -6" fill="none" stroke="black"/>
<path d="M70,274h -13" fill="none" stroke="black"/>
<path d="M63,267h -6" fill="none" stroke="black"/>
<path d="M63,260h -6" fill="none" stroke="black"/>
<path d="M63,253h -6" fill="none" stroke="black"/>
<path d="M63,246h -6" fill="none" stroke="black"/>
<path d="M70,239h -13" fill="none" stroke="black"/>
<path d="M63,231h -6" fill="none" stroke="black"/>
<path d="M63,224h -6" fill="none" stroke="black"/>
<path d="M63,217h -6" fill="none" stroke="black"/>
<path d="M63,210h -6" fill="none" stroke="black"/>
<path d="M70,203h -13" fill="none" stroke="black"/>
<path d="M63,196h -6" fill="none" stroke="black"/>
<path d="M63,189h -6" fill="none" stroke="black"/>
<path d="M63,181h -6" fill="none" stroke="black"/>
<path d="M63,174h -6" fill="none" stroke="black"/>
<path d="M70,167h -13" fill="none" stroke="black"/>
<path d="M63,160h -6" fill="none" stroke="black"/>
<path d="M63,153h -6" fill="none" stroke="black"/>
<path d="M63,146h -6" fill="none" stroke="black"/>
<path d="M63,139h -6" fill="none" stroke="black"/>
<path d="M70,131h -13" fill="none" stroke="black"/>
<path d="M63,124h -6" fill="none" stroke="black"/>
<path d="M63,117h -6" fill="none" stroke="black"/>
<path d="M63,110h -6" fill="none" stroke="black"/>
<path d="M63,103h -6" fill="none" stroke="black"/>
<path d="M70,96h -13" fill="none" stroke="black"/>
<path d="M63,89h -6" fill="none" stroke="black"/>
<path d="M63,82h -6" fill="none" stroke="black"/>
<path d="M63,74h -6" fill="none" stroke="black"/>
<path d="M63,67h -6" fill="none" stroke="black"/>
<path d="M70,60h -13" fill="none" stroke="black"/>
<path d="M70,60h -13" fill="none" stroke="black"/>
<path d="M63,53h -6" fill="none" stroke="black"/>
<path d="M63,46h -6" fill="none" stroke="black"/>
<path d="M63,39h -6" fill="none" stroke="black"/>
<text x="47" y="350" fill="black" font-size="12" font-family="Helvetica">
0
</text>
<text x="33" y="314" fill="black" font-size="12" font-family="Helvetica">
100
</text>
<text x="33" y="279" fill="black" font-size="12" font-family="Helvetica">
200
</text>
<text x="33" y="243" fill="black" font-size="12" font-family="Helvetica">
300
</text>
<text x="33" y="207" fill="black" font-size="12" font-family="Helvetica">
400
</text>
<text x="33" y="171" fill="black" font-size="12" font-family="Helvetica">
500
</text>
<text x="33" y="136" fill="black" font-size="12" font-family="Helvetica">
600
</text>
<text x="33" y="101" fill="black" font-size="12" font-family="Helvetica">
700
</text>
<text x="33" y="65" fill="black" font-size="12" font-family="Helvetica">
800
</text>
<rect x="442" y="25" width="114" height="46" fill="white"/>
<path d="M442,71h 114" fill="none" stroke="black"/>
<path d="M556,71v -46" fill="none" stroke="black"/>
<path d="M556,25h -114" fill="none" stroke="black"/>
<path d="M442,25v 46" fill="none" stroke="black"/>
<text x="447" y="53" fill="black" font-size="14" font-family="Helvetica">
Entries 
</text>
<text x="497" y="53" fill="black" font-size="14" font-family="Helvetica">
 475773
</text>
<text x="252" y="18" fill="black" font-size="18" font-family="Helvetica">
448_D3
</text></svg>
