<?xml version="1.0" standalone="no"?>
<svg width="567" height="384" viewBox="0 0 567 384" xmlns="http://www.w3.org/2000/svg">
<title>
images/analysis_g4bl_sin_phase_exec_d4_d5_l_bound50bin_8tight/zoom/455_455_D3.svg
</title>
<desc>
Creator: ROOT Version 5.34/09
CreationDate: Tue Sep 17 01:47:58 2013</desc>
<defs>
</defs>
<rect x="0" y="0" width="567" height="384" fill="white"/>
<rect x="57" y="38" width="453" height="308" fill="white"/>
<rect x="57" y="38" width="453" height="308" fill="none" stroke="black"/>
<rect x="57" y="38" width="453" height="308" fill="white"/>
<rect x="57" y="38" width="453" height="308" fill="none" stroke="black"/>
<path d="M57,315h 9v 12h 9v -3h 9v 7h 9v -3h 9v -6h 9v -8h 9v -1h 9v 5h 9v 11h 9v -15h 9v 11h 10v -3h 9v -2h 9v -7h 9v -5h 9v 3h 9v 5h 9v 3h 9v -11h 9v 5h 9v -4h 9v -14h 9v 15h 18v 36h 46v -94h 9v -199h 9v 31h 9v 59h 9v 2h 9v 14h 9v 23h 9v 21h 9v 8h
 9v -6h 10v 14h 9v 7h 9v -15h 9v 31h 9v -1h 9v -9h 9v 8h 9v -8h 9v -3h 9v 12h 9" fill="none" stroke="#000099"/>
<rect x="442" y="25" width="114" height="46" fill="white"/>
<path d="M442,71h 114" fill="none" stroke="black"/>
<path d="M556,71v -46" fill="none" stroke="black"/>
<path d="M556,25h -114" fill="none" stroke="black"/>
<path d="M442,25v 46" fill="none" stroke="black"/>
<text x="447" y="53" fill="black" font-size="14" font-family="Helvetica">
Entries 
</text>
<text x="497" y="53" fill="black" font-size="14" font-family="Helvetica">
 177058
</text>
<path d="M57,346h 453" fill="none" stroke="black"/>
<text x="425" y="371" fill="black" font-size="12" font-family="Helvetica">
TDC-TDC0 (ns)
</text>
<path d="M57,336v 10" fill="none" stroke="black"/>
<path d="M68,341v 5" fill="none" stroke="black"/>
<path d="M79,341v 5" fill="none" stroke="black"/>
<path d="M91,341v 5" fill="none" stroke="black"/>
<path d="M102,341v 5" fill="none" stroke="black"/>
<path d="M113,336v 10" fill="none" stroke="black"/>
<path d="M125,341v 5" fill="none" stroke="black"/>
<path d="M136,341v 5" fill="none" stroke="black"/>
<path d="M147,341v 5" fill="none" stroke="black"/>
<path d="M159,341v 5" fill="none" stroke="black"/>
<path d="M170,336v 10" fill="none" stroke="black"/>
<path d="M181,341v 5" fill="none" stroke="black"/>
<path d="M193,341v 5" fill="none" stroke="black"/>
<path d="M204,341v 5" fill="none" stroke="black"/>
<path d="M215,341v 5" fill="none" stroke="black"/>
<path d="M227,336v 10" fill="none" stroke="black"/>
<path d="M238,341v 5" fill="none" stroke="black"/>
<path d="M249,341v 5" fill="none" stroke="black"/>
<path d="M261,341v 5" fill="none" stroke="black"/>
<path d="M272,341v 5" fill="none" stroke="black"/>
<path d="M283,336v 10" fill="none" stroke="black"/>
<path d="M295,341v 5" fill="none" stroke="black"/>
<path d="M306,341v 5" fill="none" stroke="black"/>
<path d="M317,341v 5" fill="none" stroke="black"/>
<path d="M329,341v 5" fill="none" stroke="black"/>
<path d="M340,336v 10" fill="none" stroke="black"/>
<path d="M351,341v 5" fill="none" stroke="black"/>
<path d="M363,341v 5" fill="none" stroke="black"/>
<path d="M374,341v 5" fill="none" stroke="black"/>
<path d="M386,341v 5" fill="none" stroke="black"/>
<path d="M397,336v 10" fill="none" stroke="black"/>
<path d="M408,341v 5" fill="none" stroke="black"/>
<path d="M420,341v 5" fill="none" stroke="black"/>
<path d="M431,341v 5" fill="none" stroke="black"/>
<path d="M442,341v 5" fill="none" stroke="black"/>
<path d="M454,336v 10" fill="none" stroke="black"/>
<path d="M465,341v 5" fill="none" stroke="black"/>
<path d="M476,341v 5" fill="none" stroke="black"/>
<path d="M488,341v 5" fill="none" stroke="black"/>
<path d="M499,341v 5" fill="none" stroke="black"/>
<path d="M510,336v 10" fill="none" stroke="black"/>
<text x="44" y="358" fill="black" font-size="12" font-family="Helvetica">
-200
</text>
<text x="101" y="358" fill="black" font-size="12" font-family="Helvetica">
-150
</text>
<text x="157" y="358" fill="black" font-size="12" font-family="Helvetica">
-100
</text>
<text x="217" y="358" fill="black" font-size="12" font-family="Helvetica">
-50
</text>
<text x="280" y="358" fill="black" font-size="12" font-family="Helvetica">
0
</text>
<text x="333" y="358" fill="black" font-size="12" font-family="Helvetica">
50
</text>
<text x="386" y="358" fill="black" font-size="12" font-family="Helvetica">
100
</text>
<text x="442" y="358" fill="black" font-size="12" font-family="Helvetica">
150
</text>
<text x="499" y="358" fill="black" font-size="12" font-family="Helvetica">
200
</text>
<path d="M57,346v -308" fill="none" stroke="black"/>
<g transform="rotate(-90,29,70)">
<text x="29" y="70" fill="black" font-size="12" font-family="Helvetica">
Count
</text>
</g>
<path d="M70,346h -13" fill="none" stroke="black"/>
<path d="M63,335h -6" fill="none" stroke="black"/>
<path d="M63,325h -6" fill="none" stroke="black"/>
<path d="M63,314h -6" fill="none" stroke="black"/>
<path d="M63,304h -6" fill="none" stroke="black"/>
<path d="M70,294h -13" fill="none" stroke="black"/>
<path d="M63,283h -6" fill="none" stroke="black"/>
<path d="M63,273h -6" fill="none" stroke="black"/>
<path d="M63,262h -6" fill="none" stroke="black"/>
<path d="M63,252h -6" fill="none" stroke="black"/>
<path d="M70,242h -13" fill="none" stroke="black"/>
<path d="M63,231h -6" fill="none" stroke="black"/>
<path d="M63,221h -6" fill="none" stroke="black"/>
<path d="M63,211h -6" fill="none" stroke="black"/>
<path d="M63,200h -6" fill="none" stroke="black"/>
<path d="M70,190h -13" fill="none" stroke="black"/>
<path d="M63,179h -6" fill="none" stroke="black"/>
<path d="M63,169h -6" fill="none" stroke="black"/>
<path d="M63,159h -6" fill="none" stroke="black"/>
<path d="M63,148h -6" fill="none" stroke="black"/>
<path d="M70,138h -13" fill="none" stroke="black"/>
<path d="M63,127h -6" fill="none" stroke="black"/>
<path d="M63,117h -6" fill="none" stroke="black"/>
<path d="M63,107h -6" fill="none" stroke="black"/>
<path d="M63,96h -6" fill="none" stroke="black"/>
<path d="M70,86h -13" fill="none" stroke="black"/>
<path d="M70,86h -13" fill="none" stroke="black"/>
<path d="M63,75h -6" fill="none" stroke="black"/>
<path d="M63,65h -6" fill="none" stroke="black"/>
<path d="M63,55h -6" fill="none" stroke="black"/>
<path d="M63,44h -6" fill="none" stroke="black"/>
<text x="47" y="350" fill="black" font-size="12" font-family="Helvetica">
0
</text>
<text x="33" y="298" fill="black" font-size="12" font-family="Helvetica">
100
</text>
<text x="33" y="246" fill="black" font-size="12" font-family="Helvetica">
200
</text>
<text x="33" y="194" fill="black" font-size="12" font-family="Helvetica">
300
</text>
<text x="33" y="142" fill="black" font-size="12" font-family="Helvetica">
400
</text>
<text x="33" y="90" fill="black" font-size="12" font-family="Helvetica">
500
</text>
<rect x="442" y="25" width="114" height="46" fill="white"/>
<path d="M442,71h 114" fill="none" stroke="black"/>
<path d="M556,71v -46" fill="none" stroke="black"/>
<path d="M556,25h -114" fill="none" stroke="black"/>
<path d="M442,25v 46" fill="none" stroke="black"/>
<text x="447" y="53" fill="black" font-size="14" font-family="Helvetica">
Entries 
</text>
<text x="497" y="53" fill="black" font-size="14" font-family="Helvetica">
 177058
</text>
<text x="253" y="18" fill="black" font-size="18" font-family="Helvetica">
455_D3
</text></svg>
