<?xml version="1.0" standalone="no"?>
<svg width="567" height="385" viewBox="0 0 567 385" xmlns="http://www.w3.org/2000/svg">
<title>
images/analysis_g4bl_tight/1mm_Aluminium_combined_1mm_Aluminium.svg
</title>
<desc>
Creator: ROOT Version 5.34/05
CreationDate: Wed Jun 12 17:40:43 2013</desc>
<defs>
</defs>
<rect x="0" y="0" width="567" height="385" fill="white"/>
<rect x="57" y="38" width="453" height="308" fill="white"/>
<rect x="57" y="38" width="453" height="308" fill="none" stroke="black"/>
<rect x="57" y="38" width="453" height="308" fill="white"/>
<rect x="57" y="38" width="453" height="308" fill="none" stroke="black"/>
<path d="M57,346h 227v -280v 57h 1v 64v -26v 7v -32v 108h 1v -191v 198v -96h 1v 51v -25v 6v -45v 32v -19h 1v 38v -83v 71v -32h 1v 25v -13v 45h 1v -64v 77v -7h 1v -38v 7v -13v 57v -44h 1v -51v 89v -26h 1v 13v -6v 44v -83h 1v 58v -45v 38v -31h 1v 76v
 -38v 19v -45h 1v 13v -25v 38v -7h 1v 45v -83v 77h 1v -39v 45v -76v 6h 1v 32v -32v 96v -128h 1v 147v -83v 45v -32h 1v 38v -32h 1v 26v -7v 19v -32h 1v 45v -13v 13v -45v 51v -70h 1v 19v -12v 44v -38h 1v 38v -57v 70h 1v -38v 38v -57h 1v 57v -70v 32v
 -13v 19h 1v 26v -26h 1v -19v 57v -31v 12v -32h 1v 32v -12v 31v -51h 1v 45v -45v 26h 1v 13v -26v 26v -32v 13h 1v 31v -25v 32h 1v -32v 19v -38h 1v 44v -6v 6v -38h 1v 70v -51v 13v -19v 32h 1v -13v 19v -51v 38h 1v -6v 19v -19v 32h 1v -38v 25h 1v 7v -20v
 20v -20v 7h 1v 13v -7v 7v -20h 1v 20v -20v 26v -26h 1v 7v -13v 32h 1v -38v 38v -19h 1v 19v -32h 1v 38v -19v 19v -38h 1v 32v -32v 26h 1v -7v 19v -25v 13h 1v -7v 19v -25h 1v 13v -32v 38h 1v -13v 7v -20h 1v 32v -19v 19v -12h 1v 6v -13v 19v -25h 1v 19v
 -13v 26h 1v -26v 19v -6h 1v -6v 25v -13h 1v -19v 32v -19h 1v -26v 51v -6h 1v -32v 13h 1v 6v -32v 45h 1v -45v 39v -13h 1v 13v -26v 32v -13h 1v -6v 13v -32v 25h 1v -25v 44v -19v 7h 1v -13v 25v -19h 1v 7v -19v 19v -19v 19h 1v -13v 13h 1v -7v 7v -13v 6h
 1v -19v 26v -7h 1v 19v -19v 13h 1v -6v 6v -13v 13h 1v -19v 25v -19h 1v -12v 25v -19v 25h 1v -19v 7v -13v 25h 1v -25v 13h 1v -7v 19v -19h 1v 7v -7v 19v -31v 12h 1v -6v 25h 1v -12v 12v -12v 12h 1v -19v 19v -12h 1v 12v -6v 6v -12h 1v 12h 1v -6v 6v -6v
 6h 1v -19v 13v -13h 1v 13v -13v 19h 1v -12v 12h 1v -6v 6v -12v 12v -6h 1v -13v 13h 1v 6v -6v 6v -6v 6v -6h 1v 6v -6v 6v -25h 1v 25v -6v 6v -6v 6v -6h 1v 6v -19v 19h 1v -12v 12v -6h 1v -6v 12v -25h 1v 19v -6v 12v -12h 1v 12v -6v 6v -12v 6h 1v 6v -6v
 6h 1v -6v 6v -12h 1v 12h 1v -6v 6v -6h 1v 6v -12v 12v -19v 13h 1v 6v -12v 12v -6h 1v 6v -19v 19h 1v -6v 6v -6v 6h 1v -6v 6v -6v 6h 1v -6v 6v -6v 6h 3v -6v 6v -12v 12h 1v -12v 12v -6h 1v 6h 1v -6v 6v -6v 6h 1v -6v 6v -12v 12h 1v -6v 6h 1v -6v 6h 1v
 -6v 6h 2v -6v 6v -6v 6h 2v -6h 1v 6h 1v -6v 6h 4v -6v 6h 1v -6v 6v -6v 6h 1v -12v 12h 1v -6v 6h 2v -6v 6h 1v -6v 6h 1v -6v 6h 2v -12v 12h 1v -6v 6h 1v -6v 6h 1v -12h 1v 12h 1v -6v 6h 1v -6v 6h 1v -6v 6h 3v -6v 6h 4v -6v 6v -6v 6h 1v -6v 6v -6h 1v 6h
 1v -6v 6h 7v -6v 6h 3v -6v 6h 1v -6h 1v 6v -6v 6v -6h 1v 6v -6v 6h 1v -6v 6h 3v -6h 1v 6v -6v 6h 4v -6v 6h 56" fill="none" stroke="#000099"/>
<rect x="442" y="25" width="114" height="46" fill="white"/>
<path d="M442,71h 114" fill="none" stroke="black"/>
<path d="M556,71v -46" fill="none" stroke="black"/>
<path d="M556,25h -114" fill="none" stroke="black"/>
<path d="M442,25v 46" fill="none" stroke="black"/>
<text x="447" y="31" fill="black" font-size="7" font-family="Helvetica">
Entries 
</text>
<text x="534" y="31" fill="black" font-size="7" font-family="Helvetica">
 4448
</text>
<text x="452" y="39" fill="black" font-size="7" font-family="Helvetica">
 / ndf 
</text>
<text x="450" y="32" fill="black" font-size="4" font-family="Helvetica">
2
</text>
<text x="447" y="39" fill="black" font-size="7" font-family="Times">
&#0967;
</text>
<text x="512" y="38" fill="black" font-size="7" font-family="Helvetica">
 584.7 / 1243
</text>
<text x="455" y="45" fill="black" font-size="7" font-family="Helvetica">
   
</text>
<text x="451" y="48" fill="black" font-size="4" font-family="Helvetica">
cu
</text>
<text x="447" y="45" fill="black" font-size="7" font-family="Helvetica">
N
</text>
<text x="539" y="47" fill="black" font-size="7" font-family="Helvetica">
 2.9
</text>
<text x="534" y="47" fill="black" font-size="7" font-family="Times">
&#0177;
</text>
<text x="520" y="47" fill="black" font-size="7" font-family="Helvetica">
     1 
</text>
<text x="453" y="52" fill="black" font-size="7" font-family="Helvetica">
 
</text>
<text x="449" y="57" fill="black" font-size="4" font-family="Helvetica">
cu
</text>
<text x="447" y="52" fill="black" font-size="7" font-family="Times">
&#0964;
</text>
<text x="539" y="54" fill="black" font-size="7" font-family="Helvetica">
 1.0
</text>
<text x="534" y="54" fill="black" font-size="7" font-family="Times">
&#0177;
</text>
<text x="515" y="54" fill="black" font-size="7" font-family="Helvetica">
 162.5 
</text>
<text x="452" y="60" fill="black" font-size="7" font-family="Helvetica">
    
</text>
<text x="451" y="63" fill="black" font-size="4" font-family="Helvetica">
f
</text>
<text x="447" y="60" fill="black" font-size="7" font-family="Helvetica">
N
</text>
<text x="536" y="62" fill="black" font-size="7" font-family="Helvetica">
 0.50
</text>
<text x="531" y="62" fill="black" font-size="7" font-family="Times">
&#0177;
</text>
<text x="512" y="62" fill="black" font-size="7" font-family="Helvetica">
 33.05 
</text>
<text x="450" y="67" fill="black" font-size="7" font-family="Helvetica">
 
</text>
<text x="449" y="72" fill="black" font-size="4" font-family="Helvetica">
f
</text>
<text x="447" y="67" fill="black" font-size="7" font-family="Times">
&#0964;
</text>
<text x="539" y="70" fill="black" font-size="7" font-family="Helvetica">
 0.0
</text>
<text x="534" y="70" fill="black" font-size="7" font-family="Times">
&#0177;
</text>
<text x="515" y="70" fill="black" font-size="7" font-family="Helvetica">
  2197 
</text>
<path d="M284,135v 2" fill="none" stroke="#ff0000" stroke-width="2"/>
<path d="M285,138v 8" fill="none" stroke="#ff0000" stroke-width="2"/>
<path d="M285,146v 7" fill="none" stroke="#ff0000" stroke-width="2"/>
<path d="M286,154v 6" fill="none" stroke="#ff0000" stroke-width="2"/>
<path d="M287,160v 6" fill="none" stroke="#ff0000" stroke-width="2"/>
<path d="M288,167v 5" fill="none" stroke="#ff0000" stroke-width="2"/>
<path d="M289,172v 6" fill="none" stroke="#ff0000" stroke-width="2"/>
<path d="M289,178v 6" fill="none" stroke="#ff0000" stroke-width="2"/>
<path d="M290,184v 5" fill="none" stroke="#ff0000" stroke-width="2"/>
<path d="M291,189v 5" fill="none" stroke="#ff0000" stroke-width="2"/>
<path d="M292,194v 4" fill="none" stroke="#ff0000" stroke-width="2"/>
<path d="M293,199v 4" fill="none" stroke="#ff0000" stroke-width="2"/>
<path d="M293,203v 5" fill="none" stroke="#ff0000" stroke-width="2"/>
<path d="M294,208v 4" fill="none" stroke="#ff0000" stroke-width="2"/>
<path d="M295,212v 5" fill="none" stroke="#ff0000" stroke-width="2"/>
<path d="M296,217v 4" fill="none" stroke="#ff0000" stroke-width="2"/>
<path d="M297,221v 4" fill="none" stroke="#ff0000" stroke-width="2"/>
<path d="M298,225v 4" fill="none" stroke="#ff0000" stroke-width="2"/>
<path d="M298,229v 4" fill="none" stroke="#ff0000" stroke-width="2"/>
<path d="M299,233v 3" fill="none" stroke="#ff0000" stroke-width="2"/>
<path d="M300,237v 3" fill="none" stroke="#ff0000" stroke-width="2"/>
<path d="M301,240v 3" fill="none" stroke="#ff0000" stroke-width="2"/>
<path d="M302,243v 4" fill="none" stroke="#ff0000" stroke-width="2"/>
<path d="M302,247v 3" fill="none" stroke="#ff0000" stroke-width="2"/>
<path d="M303,250v 3" fill="none" stroke="#ff0000" stroke-width="2"/>
<path d="M304,253v 2" fill="none" stroke="#ff0000" stroke-width="2"/>
<path d="M305,256v 3" fill="none" stroke="#ff0000" stroke-width="2"/>
<path d="M306,259v 2" fill="none" stroke="#ff0000" stroke-width="2"/>
<path d="M307,262v 2" fill="none" stroke="#ff0000" stroke-width="2"/>
<path d="M307,264v 3" fill="none" stroke="#ff0000" stroke-width="2"/>
<path d="M308,267v 2" fill="none" stroke="#ff0000" stroke-width="2"/>
<path d="M309,269v 3" fill="none" stroke="#ff0000" stroke-width="2"/>
<path d="M310,272v 2" fill="none" stroke="#ff0000" stroke-width="2"/>
<path d="M311,274v 3" fill="none" stroke="#ff0000" stroke-width="2"/>
<path d="M311,277v 2" fill="none" stroke="#ff0000" stroke-width="2"/>
<path d="M312,279v 2" fill="none" stroke="#ff0000" stroke-width="2"/>
<path d="M313,281v 2" fill="none" stroke="#ff0000" stroke-width="2"/>
<path d="M314,283v 2" fill="none" stroke="#ff0000" stroke-width="2"/>
<path d="M315,285v 2" fill="none" stroke="#ff0000" stroke-width="2"/>
<path d="M315,287v 2" fill="none" stroke="#ff0000" stroke-width="2"/>
<path d="M316,289v 2" fill="none" stroke="#ff0000" stroke-width="2"/>
<path d="M317,291v 2" fill="none" stroke="#ff0000" stroke-width="2"/>
<path d="M318,293v 2" fill="none" stroke="#ff0000" stroke-width="2"/>
<path d="M319,295v 1" fill="none" stroke="#ff0000" stroke-width="2"/>
<path d="M320,296v 2" fill="none" stroke="#ff0000" stroke-width="2"/>
<path d="M320,298v 1" fill="none" stroke="#ff0000" stroke-width="2"/>
<path d="M321,299v 1" fill="none" stroke="#ff0000" stroke-width="2"/>
<path d="M322,301v 1" fill="none" stroke="#ff0000" stroke-width="2"/>
<path d="M323,302v 2" fill="none" stroke="#ff0000" stroke-width="2"/>
<path d="M324,304v 1" fill="none" stroke="#ff0000" stroke-width="2"/>
<path d="M324,305v 1" fill="none" stroke="#ff0000" stroke-width="2"/>
<path d="M325,306v 2" fill="none" stroke="#ff0000" stroke-width="2"/>
<path d="M326,308" fill="none" stroke="#ff0000" stroke-width="2"/>
<path d="M327,308v 2" fill="none" stroke="#ff0000" stroke-width="2"/>
<path d="M328,310v 1" fill="none" stroke="#ff0000" stroke-width="2"/>
<path d="M329,311v 2" fill="none" stroke="#ff0000" stroke-width="2"/>
<path d="M329,313" fill="none" stroke="#ff0000" stroke-width="2"/>
<path d="M330,313v 1" fill="none" stroke="#ff0000" stroke-width="2"/>
<path d="M331,314v 2" fill="none" stroke="#ff0000" stroke-width="2"/>
<path d="M332,316v 1" fill="none" stroke="#ff0000" stroke-width="2"/>
<path d="M333,317" fill="none" stroke="#ff0000" stroke-width="2"/>
<path d="M333,317v 1" fill="none" stroke="#ff0000" stroke-width="2"/>
<path d="M334,318v 1" fill="none" stroke="#ff0000" stroke-width="2"/>
<path d="M335,319v 1" fill="none" stroke="#ff0000" stroke-width="2"/>
<path d="M336,320v 1" fill="none" stroke="#ff0000" stroke-width="2"/>
<path d="M337,321" fill="none" stroke="#ff0000" stroke-width="2"/>
<path d="M337,321v 1" fill="none" stroke="#ff0000" stroke-width="2"/>
<path d="M338,322v 1" fill="none" stroke="#ff0000" stroke-width="2"/>
<path d="M339,323v 1" fill="none" stroke="#ff0000" stroke-width="2"/>
<path d="M340,324v 1" fill="none" stroke="#ff0000" stroke-width="2"/>
<path d="M341,325v 1" fill="none" stroke="#ff0000" stroke-width="2"/>
<path d="M342,326" fill="none" stroke="#ff0000" stroke-width="2"/>
<path d="M342,326z" fill="none" stroke="#ff0000" stroke-width="2"/>
<path d="M343,326v 1" fill="none" stroke="#ff0000" stroke-width="2"/>
<path d="M344,327v 1" fill="none" stroke="#ff0000" stroke-width="2"/>
<path d="M345,328v 1" fill="none" stroke="#ff0000" stroke-width="2"/>
<path d="M346,329z" fill="none" stroke="#ff0000" stroke-width="2"/>
<path d="M346,329v 1" fill="none" stroke="#ff0000" stroke-width="2"/>
<path d="M347,330" fill="none" stroke="#ff0000" stroke-width="2"/>
<path d="M348,330z" fill="none" stroke="#ff0000" stroke-width="2"/>
<path d="M349,330v 1" fill="none" stroke="#ff0000" stroke-width="2"/>
<path d="M350,331z" fill="none" stroke="#ff0000" stroke-width="2"/>
<path d="M351,331v 1" fill="none" stroke="#ff0000" stroke-width="2"/>
<path d="M351,332v 1" fill="none" stroke="#ff0000" stroke-width="2"/>
<path d="M352,333z" fill="none" stroke="#ff0000" stroke-width="2"/>
<path d="M353,333v 1" fill="none" stroke="#ff0000" stroke-width="2"/>
<path d="M354,334z" fill="none" stroke="#ff0000" stroke-width="2"/>
<path d="M355,334" fill="none" stroke="#ff0000" stroke-width="2"/>
<path d="M355,334z" fill="none" stroke="#ff0000" stroke-width="2"/>
<path d="M356,334v 1" fill="none" stroke="#ff0000" stroke-width="2"/>
<path d="M357,335z" fill="none" stroke="#ff0000" stroke-width="2"/>
<path d="M358,335z" fill="none" stroke="#ff0000" stroke-width="2"/>
<path d="M359,335v 1" fill="none" stroke="#ff0000" stroke-width="2"/>
<path d="M359,336z" fill="none" stroke="#ff0000" stroke-width="2"/>
<path d="M360,336v 1" fill="none" stroke="#ff0000" stroke-width="2"/>
<path d="M361,337z" fill="none" stroke="#ff0000" stroke-width="2"/>
<path d="M362,337z" fill="none" stroke="#ff0000" stroke-width="2"/>
<path d="M363,337v 1" fill="none" stroke="#ff0000" stroke-width="2"/>
<path d="M364,338z" fill="none" stroke="#ff0000" stroke-width="2"/>
<path d="M364,338z" fill="none" stroke="#ff0000" stroke-width="2"/>
<path d="M365,338v 1" fill="none" stroke="#ff0000" stroke-width="2"/>
<path d="M366,339z" fill="none" stroke="#ff0000" stroke-width="2"/>
<path d="M367,339z" fill="none" stroke="#ff0000" stroke-width="2"/>
<path d="M368,339" fill="none" stroke="#ff0000" stroke-width="2"/>
<path d="M368,339z" fill="none" stroke="#ff0000" stroke-width="2"/>
<path d="M369,339z" fill="none" stroke="#ff0000" stroke-width="2"/>
<path d="M370,339z" fill="none" stroke="#ff0000" stroke-width="2"/>
<path d="M371,339v 1" fill="none" stroke="#ff0000" stroke-width="2"/>
<path d="M372,340z" fill="none" stroke="#ff0000" stroke-width="2"/>
<path d="M372,340z" fill="none" stroke="#ff0000" stroke-width="2"/>
<path d="M373,340z" fill="none" stroke="#ff0000" stroke-width="2"/>
<path d="M374,340v 1" fill="none" stroke="#ff0000" stroke-width="2"/>
<path d="M375,341z" fill="none" stroke="#ff0000" stroke-width="2"/>
<path d="M376,341z" fill="none" stroke="#ff0000" stroke-width="2"/>
<path d="M377,341z" fill="none" stroke="#ff0000" stroke-width="2"/>
<path d="M377,341z" fill="none" stroke="#ff0000" stroke-width="2"/>
<path d="M378,341v 1" fill="none" stroke="#ff0000" stroke-width="2"/>
<path d="M379,342z" fill="none" stroke="#ff0000" stroke-width="2"/>
<path d="M380,342z" fill="none" stroke="#ff0000" stroke-width="2"/>
<path d="M381,342z" fill="none" stroke="#ff0000" stroke-width="2"/>
<path d="M381,342z" fill="none" stroke="#ff0000" stroke-width="2"/>
<path d="M382,342z" fill="none" stroke="#ff0000" stroke-width="2"/>
<path d="M383,342v 1" fill="none" stroke="#ff0000" stroke-width="2"/>
<path d="M384,343z" fill="none" stroke="#ff0000" stroke-width="2"/>
<path d="M385,343z" fill="none" stroke="#ff0000" stroke-width="2"/>
<path d="M386,343z" fill="none" stroke="#ff0000" stroke-width="2"/>
<path d="M386,343z" fill="none" stroke="#ff0000" stroke-width="2"/>
<path d="M387,343z" fill="none" stroke="#ff0000" stroke-width="2"/>
<path d="M388,343z" fill="none" stroke="#ff0000" stroke-width="2"/>
<path d="M389,343" fill="none" stroke="#ff0000" stroke-width="2"/>
<path d="M390,343z" fill="none" stroke="#ff0000" stroke-width="2"/>
<path d="M390,343z" fill="none" stroke="#ff0000" stroke-width="2"/>
<path d="M391,343z" fill="none" stroke="#ff0000" stroke-width="2"/>
<path d="M392,343z" fill="none" stroke="#ff0000" stroke-width="2"/>
<path d="M393,343z" fill="none" stroke="#ff0000" stroke-width="2"/>
<path d="M394,343z" fill="none" stroke="#ff0000" stroke-width="2"/>
<path d="M394,343z" fill="none" stroke="#ff0000" stroke-width="2"/>
<path d="M395,343z" fill="none" stroke="#ff0000" stroke-width="2"/>
<path d="M396,343z" fill="none" stroke="#ff0000" stroke-width="2"/>
<path d="M397,343v 1" fill="none" stroke="#ff0000" stroke-width="2"/>
<path d="M398,344z" fill="none" stroke="#ff0000" stroke-width="2"/>
<path d="M399,344z" fill="none" stroke="#ff0000" stroke-width="2"/>
<path d="M399,344z" fill="none" stroke="#ff0000" stroke-width="2"/>
<path d="M400,344z" fill="none" stroke="#ff0000" stroke-width="2"/>
<path d="M401,344z" fill="none" stroke="#ff0000" stroke-width="2"/>
<path d="M402,344z" fill="none" stroke="#ff0000" stroke-width="2"/>
<path d="M403,344z" fill="none" stroke="#ff0000" stroke-width="2"/>
<path d="M403,344z" fill="none" stroke="#ff0000" stroke-width="2"/>
<path d="M404,344z" fill="none" stroke="#ff0000" stroke-width="2"/>
<path d="M405,344z" fill="none" stroke="#ff0000" stroke-width="2"/>
<path d="M406,344z" fill="none" stroke="#ff0000" stroke-width="2"/>
<path d="M407,344z" fill="none" stroke="#ff0000" stroke-width="2"/>
<path d="M408,344z" fill="none" stroke="#ff0000" stroke-width="2"/>
<path d="M408,344v 1" fill="none" stroke="#ff0000" stroke-width="2"/>
<path d="M409,345z" fill="none" stroke="#ff0000" stroke-width="2"/>
<path d="M410,345z" fill="none" stroke="#ff0000" stroke-width="2"/>
<path d="M411,345z" fill="none" stroke="#ff0000" stroke-width="2"/>
<path d="M412,345z" fill="none" stroke="#ff0000" stroke-width="2"/>
<path d="M412,345z" fill="none" stroke="#ff0000" stroke-width="2"/>
<path d="M413,345z" fill="none" stroke="#ff0000" stroke-width="2"/>
<path d="M414,345z" fill="none" stroke="#ff0000" stroke-width="2"/>
<path d="M415,345z" fill="none" stroke="#ff0000" stroke-width="2"/>
<path d="M416,345z" fill="none" stroke="#ff0000" stroke-width="2"/>
<path d="M416,345z" fill="none" stroke="#ff0000" stroke-width="2"/>
<path d="M417,345z" fill="none" stroke="#ff0000" stroke-width="2"/>
<path d="M418,345z" fill="none" stroke="#ff0000" stroke-width="2"/>
<path d="M419,345z" fill="none" stroke="#ff0000" stroke-width="2"/>
<path d="M420,345z" fill="none" stroke="#ff0000" stroke-width="2"/>
<path d="M421,345z" fill="none" stroke="#ff0000" stroke-width="2"/>
<path d="M421,345z" fill="none" stroke="#ff0000" stroke-width="2"/>
<path d="M422,345z" fill="none" stroke="#ff0000" stroke-width="2"/>
<path d="M423,345z" fill="none" stroke="#ff0000" stroke-width="2"/>
<path d="M424,345z" fill="none" stroke="#ff0000" stroke-width="2"/>
<path d="M425,345z" fill="none" stroke="#ff0000" stroke-width="2"/>
<path d="M425,345z" fill="none" stroke="#ff0000" stroke-width="2"/>
<path d="M426,345z" fill="none" stroke="#ff0000" stroke-width="2"/>
<path d="M427,345z" fill="none" stroke="#ff0000" stroke-width="2"/>
<path d="M428,345z" fill="none" stroke="#ff0000" stroke-width="2"/>
<path d="M429,345z" fill="none" stroke="#ff0000" stroke-width="2"/>
<path d="M430,345z" fill="none" stroke="#ff0000" stroke-width="2"/>
<path d="M430,345z" fill="none" stroke="#ff0000" stroke-width="2"/>
<path d="M284,136l 1, 5v 9l 1, 7l 1, 6l 1, 6l 1, 6v 6l 1, 5l 1, 5l 1, 5l 1, 5v 5l 1, 4l 1, 5l 1, 4l 1, 4l 1, 4v 4l 1, 3l 1, 4l 1, 4l 1, 3v 3l 1, 3l 1, 3l 1, 3l 1, 3l 1, 3v 2l 1, 3l 1, 2l 1, 3l 1, 2v 2l 1, 3l 1, 2l 1, 2l 1, 2v 2l 1, 2l 1, 1l 1, 3l 1,
 1l 1, 2v 2h 1l 1, 2l 1, 2l 1, 1v 1l 1, 2l 1, 1l 1, 1l 1, 1l 1, 2v 1h 1l 1, 2l 1, 1l 1, 1l 1, 1l 1, 1l 1, 1l 1, 1l 1, 1l 1, 1l 1, 1l 1, 1l 1, 1h 1l 1, 1l 1, 1l 1, 1l 1, 1h 2l 1, 1h 1v 1l 1, 1h 1l 1, 1h 2l 1, 1h 2v 1h 1l 1, 1h 2l 1, 1h 1l 1, 1h 5l 1,
 1h 2l 1, 1h 3l 1, 1h 4l 1, 1h 13l 1, 1h 10l 1, 1h 21" fill="none" stroke="#ff0000" stroke-width="2"/>
<path d="M57,346h 453" fill="none" stroke="black"/>
<text x="419" y="372" fill="black" font-size="12" font-family="Helvetica">
TDC-TDC0 (ns)
</text>
<path d="M57,337v 9" fill="none" stroke="black"/>
<path d="M68,342v 4" fill="none" stroke="black"/>
<path d="M79,342v 4" fill="none" stroke="black"/>
<path d="M91,342v 4" fill="none" stroke="black"/>
<path d="M102,342v 4" fill="none" stroke="black"/>
<path d="M113,337v 9" fill="none" stroke="black"/>
<path d="M125,342v 4" fill="none" stroke="black"/>
<path d="M136,342v 4" fill="none" stroke="black"/>
<path d="M147,342v 4" fill="none" stroke="black"/>
<path d="M159,342v 4" fill="none" stroke="black"/>
<path d="M170,337v 9" fill="none" stroke="black"/>
<path d="M181,342v 4" fill="none" stroke="black"/>
<path d="M193,342v 4" fill="none" stroke="black"/>
<path d="M204,342v 4" fill="none" stroke="black"/>
<path d="M215,342v 4" fill="none" stroke="black"/>
<path d="M227,337v 9" fill="none" stroke="black"/>
<path d="M238,342v 4" fill="none" stroke="black"/>
<path d="M249,342v 4" fill="none" stroke="black"/>
<path d="M261,342v 4" fill="none" stroke="black"/>
<path d="M272,342v 4" fill="none" stroke="black"/>
<path d="M283,337v 9" fill="none" stroke="black"/>
<path d="M295,342v 4" fill="none" stroke="black"/>
<path d="M306,342v 4" fill="none" stroke="black"/>
<path d="M317,342v 4" fill="none" stroke="black"/>
<path d="M329,342v 4" fill="none" stroke="black"/>
<path d="M340,337v 9" fill="none" stroke="black"/>
<path d="M351,342v 4" fill="none" stroke="black"/>
<path d="M363,342v 4" fill="none" stroke="black"/>
<path d="M374,342v 4" fill="none" stroke="black"/>
<path d="M386,342v 4" fill="none" stroke="black"/>
<path d="M397,337v 9" fill="none" stroke="black"/>
<path d="M408,342v 4" fill="none" stroke="black"/>
<path d="M420,342v 4" fill="none" stroke="black"/>
<path d="M431,342v 4" fill="none" stroke="black"/>
<path d="M442,342v 4" fill="none" stroke="black"/>
<path d="M454,337v 9" fill="none" stroke="black"/>
<path d="M465,342v 4" fill="none" stroke="black"/>
<path d="M476,342v 4" fill="none" stroke="black"/>
<path d="M488,342v 4" fill="none" stroke="black"/>
<path d="M499,342v 4" fill="none" stroke="black"/>
<path d="M510,337v 9" fill="none" stroke="black"/>
<text x="36" y="359" fill="black" font-size="12" font-family="Helvetica">
-20000
</text>
<text x="93" y="359" fill="black" font-size="12" font-family="Helvetica">
-15000
</text>
<text x="149" y="359" fill="black" font-size="12" font-family="Helvetica">
-10000
</text>
<text x="210" y="359" fill="black" font-size="12" font-family="Helvetica">
-5000
</text>
<text x="280" y="359" fill="black" font-size="12" font-family="Helvetica">
0
</text>
<text x="325" y="359" fill="black" font-size="12" font-family="Helvetica">
5000
</text>
<text x="379" y="359" fill="black" font-size="12" font-family="Helvetica">
10000
</text>
<text x="435" y="359" fill="black" font-size="12" font-family="Helvetica">
15000
</text>
<text x="492" y="359" fill="black" font-size="12" font-family="Helvetica">
20000
</text>
<path d="M57,346v -308" fill="none" stroke="black"/>
<g transform="rotate(-90,29,72)">
<text x="29" y="72" fill="black" font-size="12" font-family="Helvetica">
Count
</text>
</g>
<path d="M70,346h -13" fill="none" stroke="black"/>
<path d="M63,340h -6" fill="none" stroke="black"/>
<path d="M63,334h -6" fill="none" stroke="black"/>
<path d="M63,327h -6" fill="none" stroke="black"/>
<path d="M63,321h -6" fill="none" stroke="black"/>
<path d="M70,315h -13" fill="none" stroke="black"/>
<path d="M63,308h -6" fill="none" stroke="black"/>
<path d="M63,302h -6" fill="none" stroke="black"/>
<path d="M63,295h -6" fill="none" stroke="black"/>
<path d="M63,289h -6" fill="none" stroke="black"/>
<path d="M70,283h -13" fill="none" stroke="black"/>
<path d="M63,276h -6" fill="none" stroke="black"/>
<path d="M63,270h -6" fill="none" stroke="black"/>
<path d="M63,264h -6" fill="none" stroke="black"/>
<path d="M63,257h -6" fill="none" stroke="black"/>
<path d="M70,251h -13" fill="none" stroke="black"/>
<path d="M63,244h -6" fill="none" stroke="black"/>
<path d="M63,238h -6" fill="none" stroke="black"/>
<path d="M63,232h -6" fill="none" stroke="black"/>
<path d="M63,225h -6" fill="none" stroke="black"/>
<path d="M70,219h -13" fill="none" stroke="black"/>
<path d="M63,212h -6" fill="none" stroke="black"/>
<path d="M63,206h -6" fill="none" stroke="black"/>
<path d="M63,200h -6" fill="none" stroke="black"/>
<path d="M63,193h -6" fill="none" stroke="black"/>
<path d="M70,187h -13" fill="none" stroke="black"/>
<path d="M63,181h -6" fill="none" stroke="black"/>
<path d="M63,174h -6" fill="none" stroke="black"/>
<path d="M63,168h -6" fill="none" stroke="black"/>
<path d="M63,161h -6" fill="none" stroke="black"/>
<path d="M70,155h -13" fill="none" stroke="black"/>
<path d="M63,149h -6" fill="none" stroke="black"/>
<path d="M63,142h -6" fill="none" stroke="black"/>
<path d="M63,136h -6" fill="none" stroke="black"/>
<path d="M63,130h -6" fill="none" stroke="black"/>
<path d="M70,123h -13" fill="none" stroke="black"/>
<path d="M63,117h -6" fill="none" stroke="black"/>
<path d="M63,110h -6" fill="none" stroke="black"/>
<path d="M63,104h -6" fill="none" stroke="black"/>
<path d="M63,98h -6" fill="none" stroke="black"/>
<path d="M70,91h -13" fill="none" stroke="black"/>
<path d="M63,85h -6" fill="none" stroke="black"/>
<path d="M63,78h -6" fill="none" stroke="black"/>
<path d="M63,72h -6" fill="none" stroke="black"/>
<path d="M63,66h -6" fill="none" stroke="black"/>
<path d="M70,59h -13" fill="none" stroke="black"/>
<path d="M70,59h -13" fill="none" stroke="black"/>
<path d="M63,53h -6" fill="none" stroke="black"/>
<path d="M63,47h -6" fill="none" stroke="black"/>
<path d="M63,40h -6" fill="none" stroke="black"/>
<text x="47" y="350" fill="black" font-size="12" font-family="Helvetica">
0
</text>
<text x="47" y="318" fill="black" font-size="12" font-family="Helvetica">
5
</text>
<text x="40" y="286" fill="black" font-size="12" font-family="Helvetica">
10
</text>
<text x="40" y="255" fill="black" font-size="12" font-family="Helvetica">
15
</text>
<text x="40" y="223" fill="black" font-size="12" font-family="Helvetica">
20
</text>
<text x="40" y="190" fill="black" font-size="12" font-family="Helvetica">
25
</text>
<text x="40" y="159" fill="black" font-size="12" font-family="Helvetica">
30
</text>
<text x="40" y="127" fill="black" font-size="12" font-family="Helvetica">
35
</text>
<text x="40" y="95" fill="black" font-size="12" font-family="Helvetica">
40
</text>
<text x="40" y="63" fill="black" font-size="12" font-family="Helvetica">
45
</text>
<rect x="442" y="25" width="114" height="46" fill="white"/>
<path d="M442,71h 114" fill="none" stroke="black"/>
<path d="M556,71v -46" fill="none" stroke="black"/>
<path d="M556,25h -114" fill="none" stroke="black"/>
<path d="M442,25v 46" fill="none" stroke="black"/>
<text x="447" y="31" fill="black" font-size="7" font-family="Helvetica">
Entries 
</text>
<text x="534" y="31" fill="black" font-size="7" font-family="Helvetica">
 4448
</text>
<text x="452" y="39" fill="black" font-size="7" font-family="Helvetica">
 / ndf 
</text>
<text x="450" y="32" fill="black" font-size="4" font-family="Helvetica">
2
</text>
<text x="447" y="39" fill="black" font-size="7" font-family="Times">
&#0967;
</text>
<text x="512" y="38" fill="black" font-size="7" font-family="Helvetica">
 584.7 / 1243
</text>
<text x="455" y="45" fill="black" font-size="7" font-family="Helvetica">
   
</text>
<text x="451" y="48" fill="black" font-size="4" font-family="Helvetica">
cu
</text>
<text x="447" y="45" fill="black" font-size="7" font-family="Helvetica">
N
</text>
<text x="539" y="47" fill="black" font-size="7" font-family="Helvetica">
 2.9
</text>
<text x="534" y="47" fill="black" font-size="7" font-family="Times">
&#0177;
</text>
<text x="520" y="47" fill="black" font-size="7" font-family="Helvetica">
     1 
</text>
<text x="453" y="52" fill="black" font-size="7" font-family="Helvetica">
 
</text>
<text x="449" y="57" fill="black" font-size="4" font-family="Helvetica">
cu
</text>
<text x="447" y="52" fill="black" font-size="7" font-family="Times">
&#0964;
</text>
<text x="539" y="54" fill="black" font-size="7" font-family="Helvetica">
 1.0
</text>
<text x="534" y="54" fill="black" font-size="7" font-family="Times">
&#0177;
</text>
<text x="515" y="54" fill="black" font-size="7" font-family="Helvetica">
 162.5 
</text>
<text x="452" y="60" fill="black" font-size="7" font-family="Helvetica">
    
</text>
<text x="451" y="63" fill="black" font-size="4" font-family="Helvetica">
f
</text>
<text x="447" y="60" fill="black" font-size="7" font-family="Helvetica">
N
</text>
<text x="536" y="62" fill="black" font-size="7" font-family="Helvetica">
 0.50
</text>
<text x="531" y="62" fill="black" font-size="7" font-family="Times">
&#0177;
</text>
<text x="512" y="62" fill="black" font-size="7" font-family="Helvetica">
 33.05 
</text>
<text x="450" y="67" fill="black" font-size="7" font-family="Helvetica">
 
</text>
<text x="449" y="72" fill="black" font-size="4" font-family="Helvetica">
f
</text>
<text x="447" y="67" fill="black" font-size="7" font-family="Times">
&#0964;
</text>
<text x="539" y="70" fill="black" font-size="7" font-family="Helvetica">
 0.0
</text>
<text x="534" y="70" fill="black" font-size="7" font-family="Times">
&#0177;
</text>
<text x="515" y="70" fill="black" font-size="7" font-family="Helvetica">
  2197 
</text>
<text x="147" y="21" fill="black" font-size="20" font-family="Helvetica">
combined_1mm_Aluminium
</text></svg>
