<?xml version="1.0" standalone="no"?>
<svg width="567" height="385" viewBox="0 0 567 385" xmlns="http://www.w3.org/2000/svg">
<title>
images/analysis_g4bl_tight/448_D3.svg
</title>
<desc>
Creator: ROOT Version 5.34/05
CreationDate: Wed Jun 12 17:37:05 2013</desc>
<defs>
</defs>
<rect x="0" y="0" width="567" height="385" fill="white"/>
<rect x="57" y="38" width="453" height="308" fill="white"/>
<rect x="57" y="38" width="453" height="308" fill="none" stroke="black"/>
<rect x="57" y="38" width="453" height="308" fill="white"/>
<rect x="57" y="38" width="453" height="308" fill="none" stroke="black"/>
<path d="M57,346h 45v -3h 1v 1v -2v 2v -10h 1v -11v 2v -16v 12h 1v 3v -13v 11v -11h 1v 12v -13v 10h 1v -14v 16v -12h 1v 11v -11v 3h 1v 9v -15v 13v -4h 1v -5v 12v -19v 13h 1v 7v -14v 9v -4h 1v -4v 10v -13v 2h 1v 12v -13v 12v -5h 1v -9v 17v -15v 2h 1v
 10v -9v 12v -3h 1v -10v 11v -15h 1v 16v -18v 18v -8h 1v -7v 15v -14h 1v 17v -14v 8h 1v -12v 10v -10h 1v 13v -15v 16v -2h 1v -10v 10v -13h 1v 14v -13v 17h 1v -15v 10v -14h 1v 15v -13v 15v -5h 1v -9v 11v -7h 1v -1v 12v -12v 8v -1h 1v -10v 10v -9h 1v
 7v -1v 2v -11v 13h 1v -10v 11v -5h 1v -7v 13v -13v 12h 1v 1v -21v 23v -9h 1v -4v 10v -12v 11h 1v -17v 17v -4h 1v -8v 14v -15v 14h 1v -12v 10v -5h 1v -3v 12v -16v 15h 1v 4v -23v 22v -7h 1v -10v 11v -18v 21h 1v -9v 4v -1v 5h 1v -12v 13v -13v 4h 1v 7v
 -9v 9v -2h 1v -12v 13v -13v 10h 1v 4v -8v 12v -16h 1v 14v -15v 10h 1v 2v -13v 17v -13h 1v 14v -13v 3h 1v 3v -9v 16v -10h 1v -6v 16v -12v 2h 1v 7v -10v 10v -6h 1v -6v 12v -8h 1v 9v -14v 14v -7h 1v -4v 10v -11h 1v 15v -16v 14v -5h 1v -10v 14v -12h 1v
 11v -10v 12v -6h 1v -6v 12v -20h 1v 20v -9v 4v -1h 1v -10v 13v -12h 1v 15v -18v 15h 1v -8v 6v -12h 1v 14v -15v 18h 1v -11v 11v -14h 1v 11v -16v 16h 1v -11v 13v -11h 1v 12v -17v 15h 1v -12v 13v -15h 1v 14v -9v 12h 1v -19v 14v -7h 1v -1v 8v -10v 11h
 1v -14v 16v -10h 1v -1v 7v -7v 10h 1v -14v 13v -3h 1v -14v 15v -6v 8h 1v -9v 9v -2h 1v -9v 13v -15v 14h 1v -13v 10v -7h 1v -4v 17v -13v 13h 1v -12v 8h 1v -11v 16v -15v 9h 1v 3v -13v 12h 1v -11v 9v -15v 15h 1v 5v -13v 9h 1v -10v 14v -11h 1v 8v -13v
 15v -14h 1v -4v 17v -14v 7h 1v 6v -11v 14v -5h 1v -9v 12v -11v 4h 1v 3v -10v 13v -12h 1v -4v 17v -14h 1v 15v -20v 20v -10h 1v -1v 9v -11h 1v 12v -14v 16v -8h 1v -8v 12v -8h 1v 7v -8v 9v -2h 1v -9v 11v -17h 1v 18v -13v 13h 1v -12v 12v -9h 1v 10v -16v
 14v -1h 1v -13v 14v -14h 1v 14v -12v 14h 1v -13v 14v -15h 1v 12v -12v 14h 1v -12v 13v -8h 1v -1v 10v -11v 7v -3h 1v -9v 14v -7h 1v -3v 9v -12v 11h 1v -11v 9v -3h 1v -7v 11v -16v 15h 1v -10v 14v -15h 1v 12v -7v 8h 1v -17v 15v -4h 1v -6v 13v -10v 7h
 1v -11v 18v -7h 1v -15v 21v -14v 13h 1v -16v 16v -8h 1v -12v 19v -16v 12h 1v 6v -17v 14v -4h 1v -13v 11v -12v 18h 1v -9v 8v -1h 1v -15v 14v -15v 14h 1v 2v -8v 9v -2h 1v -9v 13v -15v 13h 1v -15v 16v -3h 1v -10v 10v -10v 8h 1v 3v -10v 12v -9h 1v -6v
 13v -19v 14h 1v 8v -18v 14v -4h 1v -6v 13v -14v 7h 1v 7v -10v 13v -11h 1v -4v 16v -16h 1v 14v -15v 14v -4h 1v -14v 17v -10v 1h 1v 11v -18v 10h 1v -7v 8v -11h 1v 15v -11v 10h 1v -13v 16v -18h 1v 17v -15v 16h 1v -17v 15v -17h 1v 15v -13v 16h 1v -13v
 9v -11h 1v 11v -3v 4v -10v 15h 1v -14v 9v -15h 1v 19v -18v 17v -6h 1v -9v 12v -14h 1v 15v -11v 17h 1v -24v 20v -13h 1v 10v -14v 13h 1v -11v 11v -7h 1v -6v 14v -8v 9h 1v -16v 15v -6h 1v -4v 8v -7v 10h 1v -13v 11v -1h 1v -15v 17v -13v 12h 1v -13v 18v
 -9h 1v -8v 19v -23v 17h 1v -13v 14h 1v -14v 10v -8v 6h 1v 1v -15v 21v -7h 1v -10v 14v -9v 10h 1v 1v -18v 15v -1h 1v -13v 15v -12v 7h 1v -10v 17v -2h 1v -13v 12v -8v 2h 1v 5v -17v 21v -5h 1v -14v 16v -16v 14h 1v 1v -12v 10v -5h 1v -5v 10v -10h 1v 10v
 -10v 8v -4h 1v -5v 15v -19v 6h 1v 12v -11v 10v -2h 1v -14v 15v -8v 4h 1v 3v -14v 17v -10h 1v -4v 15v -21h 1v 14v -6v 8h 1v -14v 16v -14h 1v 13v -16v 14h 1v -10v 11v -14h 1v 14v -11v 16h 1v -19v 13v -11h 1v 9v -16v 21h 1v -19v 8v -14h 1v 5v -20v 70h
 1v 2v -293v 53h 1v 84v -17v 31h 1v -21v 19v -6h 1v 24v -23v 8h 1v 6v -9v 26v -27h 1v 25v -18v 21h 1v 1v -14v 16v -11h 1v 5v -2v 8v -15v 16h 1v -10v 1v -6v 17h 1v -15v 18v -7v 4v -7v 5h 1v 4v -25v 42v -18h 1v -1v 19v -24v 30h 1v -21v 13v -4h 1v -16v
 17v -13v 13h 1v -1v 4v -18v 23v -9h 1v -10v 17v -9v 12v -20v 22h 1v 1v -23v 20h 1v -17v 22v -10v 8h 1v -2v 4v -9v 14v -2h 1v -9v 6v -7v 6v -3h 1v 10v -14v 15v -6h 1v -13v 19v -11v 15h 1v -8v 7v -13v 17h 1v -13v 14v -13h 1v 18v -22v 19h 1v -20v 19v
 -13v 3h 1v 15v -14v 9v -4h 1v -13v 18v -10v 8h 1v 5v -18v 19v -3h 1v -13v 17v -15h 1v 16v -15v 12v -1v 3h 1v -13v 18v -17h 1v 16v -13v 12v -4h 1v -3v 7v -5h 1v 16v -19v 13h 1v -15v 18v -15h 1v 12v -14v 15v -1h 1v -12v 16v -12h 1v 13v -16v 10h 1v 2v
 -10v 19v -27h 1v 19v -2v 6v -11v 10v -2h 1v -12v 15v -9h 1v -1v 13v -11v 12v -10h 1v -6v 13v -15h 1v 23v -20v 13h 1v 3v -17v 14v -5h 1v -3v 7v -12v 16h 1v -12v 16v -8h 1v -12v 19v -13v 7h 1v 2v -16v 23v -10h 1v -12v 23v -15v 13h 1v -14v 9h 1v -12v
 15v -15v 9h 1v 7v -12v 14v -7h 1v -7v 14v -16v 13h 1v -13v 18h 1v -16v 12v -12v 11h 1v -4v 5v -17v 21h 1v -19v 15v -11v 10h 1v 3v -11v 15v -6h 1v -10v 12v -12v 11h 1v 4v -11v 6h 1v -8v 11v -12h 1v 13v -7v 9h 1v -11v 7v -12h 1v 13v -13v 13h 1v -21v
 26v -11h 1v 9v -17v 17v -6h 1v 1v -4v 6v -8v 1h 1v 10v -10v 6h 1v -13v 16v -10h 1v 10v -11v 12v -8h 1v -5v 13v -15h 1v 20v -12v 7v -1h 1v -9v 12v -13h 1v 14v -18v 15v -1h 1v -10v 14v -19h 1v 19v -17v 18v -1h 1v -11v 10v -13h 1v 16v -17v 21h 1v -24v
 17v -8h 1v -4v 11v -12v 14h 1v -7v 6v -7h 1v -3v 12v -15v 17h 1v -24v 20v -9h 1v -1v 16v -14v 10h 1v -18v 15v -4h 1v -8v 13v -16v 18h 1v -16v 15v -6h 1v -4v 12v -14v 14h 1v -11v 11v -6h 1v -11v 16v -10v 8h 1v -8v 10h 1v -10v 11v -16v 17h 1v 1v -17v
 13v -1h 1v -10v 10v -13v 15h 1v -10v 13h 1v -19v 17v -14v 7h 1v 8v -15v 16v -7h 1v -7v 12v -17v 11h 1v 4v -6v 8v -1h 1v -13v 18v -13v 1h 1v 9v -14v 13h 1v -11v 10v -11v 4h 1v 8v -19v 22h 1v -21v 19v -11h 1v 11v -16v 15h 1v -10v 11v -16h 1v 21v -17v
 12v -7h 1v -10v 19v -14v 1h 1v 6v -8v 14v -3h 1v -17v 15v -16h 1v 19v -17v 15v -1h 1v -7v 14v -15h 1v 14v -18v 16h 1v -7v 6v -15h 1v 14v -9v 13v -4h 1v -9v 9v -13h 1v 11v -8v 13v -2h 1v -9v 13v -11h 1v -6v 14v -13v 12h 1v -16v 17v -15h 1v 14v -9v
 11h 1v -21v 18v -5h 1v -5v 9v -10v 16h 1v -16v 18v -13h 1v -7v 14v -9v 7h 1v 1v -9v 15v -6h 1v -9v 12v -16v 12h 1v -10v 12v -3h 1v -10v 14v -11v 11h 1v 3v -16v 17v -9h 1v -11v 16v -12v 13h 1v -10v 9h 1v -9v 10v -10v 12h 1v -8v 2v -9v 12h 1v -17v 18v
 -21v 17h 1v 1v -8v 8h 1v -8v 13v -21v 15h 1v -9v 14h 1v -11v 8v -11v 1h 1v 13v -19v 16v -1h 1v -8v 9v -14v 4h 1v 9v -9v 13h 1v -17v 19v -8v 1v -7h 1v 11v -18v 18h 1v -13v 13v -10h 1v 10v -10v 6h 1v 2v -14v 19v -15h 1v 9v -9v 13v -4h 1v -10v 14v -14h
 1v 11v -9v 11v -3h 1v -8v 8v -14h 1v 16v -11v 12v -2h 1v -9v 11v -19h 1v 20v -15v 20v -5h 1v -12v 13v -21h 1v 17v -10v 13h 1v -12v 10v -13h 1v 15v -15v 14h 1v -14v 14v -14h 1v 15v -16v 16h 1v -19v 18v -11h 1v -1v 11v -9v 11h 1v -18v 22v -11h 1v -6v
 10v -9v 7h 1v 2v -18v 24v -10h 1v -8v 13v -13v 16h 1v -16v 11v -2h 1v -12v 20v -14v 11h 1v -15v 17v -5h 1v -14v 19v -23v 23h 1v -17v 12h 1v -11v 14v -14v 12h 1v 4v -16v 12h 1v -14v 15v -13v 12h 1v 2v -14v 12v -3h 1v -8v 13v -17v 14h 1v 2v -14v 14h
 1v -11v 12v -17v 6h 1v 13v -18v 17h 1v -15v 11v -5h 1v 7v -12v 15h 1v -20v 16v -9h 1v 10v -13v 14h 1v -12v 12v -15h 1v 15v -10v 7h 1v 1v -12v 15v -13h 1v 10v -7v 11h 1v -16v 16v -17h 1v 14v -14v 16h 1v -15v 11v -9h 1v 14v -16v 15v -5h 1v -11v 18v
 -15h 1v 13v -10v 10h 1v -14v 16v -14h 1v 11v -14v 18h 1v -13v 10v -15h 1v 17v -18v 13h 1v -12v 13v -13h 1v 14v -13v 11h 1v -20v 21v -9h 1v 9v -9v 5h 1v -12v 21v -9h 1v -6v 15v -16v 7h 1v 1v -13v 19v -9h 1v -2v 9v -13v 13h 1v -13v 14h 1v -18v 19v
 -15v 12h 1v 4v -15v 14v -5h 1v -8v 9v -9v 10h 1v 5v -15v 12v -4h 1v -9v 11v -7v 7h 1v 1v -11v 14h 1v -19v 13v -12v 9h 1v 5v -10v 14v -4h 1v -9v 10v -14v 12h 1v 1v -12v 14h 1v -14v 16v -13v 5h 1v 5v -17v 17h 1v -10v 9v -13v 10h 1v 2v -10v 15h 1v -19v
 17v -7h 1v 7v -17v 17h 1v -19v 16v -11h 1v 12v -11v 9h 1v -16v 18v -3" fill="none" stroke="#000099"/>
<rect x="442" y="25" width="114" height="46" fill="white"/>
<path d="M442,71h 114" fill="none" stroke="black"/>
<path d="M556,71v -46" fill="none" stroke="black"/>
<path d="M556,25h -114" fill="none" stroke="black"/>
<path d="M442,25v 46" fill="none" stroke="black"/>
<text x="447" y="28" fill="black" font-size="4" font-family="Helvetica">
Entries 
</text>
<text x="535" y="28" fill="black" font-size="4" font-family="Helvetica">
 475773
</text>
<text x="450" y="35" fill="black" font-size="4" font-family="Helvetica">
 / ndf 
</text>
<text x="449" y="31" fill="black" font-size="3" font-family="Helvetica">
2
</text>
<text x="447" y="35" fill="black" font-size="4" font-family="Times">
&#0967;
</text>
<text x="526" y="34" fill="black" font-size="4" font-family="Helvetica">
  4120 / 1240
</text>
<text x="452" y="37" fill="black" font-size="4" font-family="Helvetica">
   
</text>
<text x="450" y="40" fill="black" font-size="3" font-family="Helvetica">
cu
</text>
<text x="447" y="37" fill="black" font-size="4" font-family="Helvetica">
N
</text>
<text x="541" y="40" fill="black" font-size="4" font-family="Helvetica">
 20.6
</text>
<text x="538" y="40" fill="black" font-size="4" font-family="Times">
&#0177;
</text>
<text x="526" y="40" fill="black" font-size="4" font-family="Helvetica">
 576.4 
</text>
<text x="450" y="43" fill="black" font-size="4" font-family="Helvetica">
 
</text>
<text x="448" y="46" fill="black" font-size="3" font-family="Helvetica">
cu
</text>
<text x="447" y="43" fill="black" font-size="4" font-family="Times">
&#0964;
</text>
<text x="543" y="45" fill="black" font-size="4" font-family="Helvetica">
 0.4
</text>
<text x="541" y="45" fill="black" font-size="4" font-family="Times">
&#0177;
</text>
<text x="529" y="45" fill="black" font-size="4" font-family="Helvetica">
 162.5 
</text>
<text x="450" y="48" fill="black" font-size="4" font-family="Helvetica">
    
</text>
<text x="450" y="51" fill="black" font-size="3" font-family="Helvetica">
f
</text>
<text x="447" y="48" fill="black" font-size="4" font-family="Helvetica">
N
</text>
<text x="543" y="50" fill="black" font-size="4" font-family="Helvetica">
 3.4
</text>
<text x="541" y="50" fill="black" font-size="4" font-family="Times">
&#0177;
</text>
<text x="529" y="50" fill="black" font-size="4" font-family="Helvetica">
 624.2 
</text>
<text x="448" y="53" fill="black" font-size="4" font-family="Helvetica">
 
</text>
<text x="448" y="57" fill="black" font-size="3" font-family="Helvetica">
f
</text>
<text x="447" y="53" fill="black" font-size="4" font-family="Times">
&#0964;
</text>
<text x="543" y="55" fill="black" font-size="4" font-family="Helvetica">
 0.0
</text>
<text x="541" y="55" fill="black" font-size="4" font-family="Times">
&#0177;
</text>
<text x="529" y="55" fill="black" font-size="4" font-family="Helvetica">
  2197 
</text>
<text x="452" y="58" fill="black" font-size="4" font-family="Helvetica">
  
</text>
<text x="450" y="61" fill="black" font-size="3" font-family="Helvetica">
sin
</text>
<text x="447" y="58" fill="black" font-size="4" font-family="Helvetica">
N
</text>
<text x="541" y="60" fill="black" font-size="4" font-family="Helvetica">
 0.63
</text>
<text x="538" y="60" fill="black" font-size="4" font-family="Times">
&#0177;
</text>
<text x="526" y="60" fill="black" font-size="4" font-family="Helvetica">
 30.06 
</text>
<text x="447" y="65" fill="black" font-size="4" font-family="Helvetica">
T        
</text>
<text x="541" y="66" fill="black" font-size="4" font-family="Helvetica">
 0.00
</text>
<text x="538" y="66" fill="black" font-size="4" font-family="Times">
&#0177;
</text>
<text x="526" y="66" fill="black" font-size="4" font-family="Helvetica">
 59.38 
</text>
<text x="450" y="68" fill="black" font-size="4" font-family="Helvetica">
    
</text>
<text x="450" y="71" fill="black" font-size="3" font-family="Helvetica">
b
</text>
<text x="447" y="68" fill="black" font-size="4" font-family="Helvetica">
N
</text>
<text x="543" y="71" fill="black" font-size="4" font-family="Helvetica">
 0.4
</text>
<text x="541" y="71" fill="black" font-size="4" font-family="Times">
&#0177;
</text>
<text x="529" y="71" fill="black" font-size="4" font-family="Helvetica">
 163.9 
</text>
<path d="M284,123v 1" fill="none" stroke="#ff0000" stroke-width="2"/>
<path d="M285,124v 31" fill="none" stroke="#ff0000" stroke-width="2"/>
<path d="M285,157v 24" fill="none" stroke="#ff0000" stroke-width="2"/>
<path d="M286,180v 17" fill="none" stroke="#ff0000" stroke-width="2"/>
<path d="M287,190v 16" fill="none" stroke="#ff0000" stroke-width="2"/>
<path d="M288,198v 14" fill="none" stroke="#ff0000" stroke-width="2"/>
<path d="M289,204v 14" fill="none" stroke="#ff0000" stroke-width="2"/>
<path d="M289,213v 12" fill="none" stroke="#ff0000" stroke-width="2"/>
<path d="M290,216v 13" fill="none" stroke="#ff0000" stroke-width="2"/>
<path d="M291,220v 13" fill="none" stroke="#ff0000" stroke-width="2"/>
<path d="M292,223v 12" fill="none" stroke="#ff0000" stroke-width="2"/>
<path d="M293,226v 12" fill="none" stroke="#ff0000" stroke-width="2"/>
<path d="M293,230v 12" fill="none" stroke="#ff0000" stroke-width="2"/>
<path d="M294,233v 12" fill="none" stroke="#ff0000" stroke-width="2"/>
<path d="M295,234v 13" fill="none" stroke="#ff0000" stroke-width="2"/>
<path d="M296,237v 12" fill="none" stroke="#ff0000" stroke-width="2"/>
<path d="M297,240v 11" fill="none" stroke="#ff0000" stroke-width="2"/>
<path d="M298,242v 13" fill="none" stroke="#ff0000" stroke-width="2"/>
<path d="M298,244v 12" fill="none" stroke="#ff0000" stroke-width="2"/>
<path d="M299,246v 12" fill="none" stroke="#ff0000" stroke-width="2"/>
<path d="M300,247v 13" fill="none" stroke="#ff0000" stroke-width="2"/>
<path d="M301,251v 10" fill="none" stroke="#ff0000" stroke-width="2"/>
<path d="M302,252v 12" fill="none" stroke="#ff0000" stroke-width="2"/>
<path d="M302,254v 12" fill="none" stroke="#ff0000" stroke-width="2"/>
<path d="M303,255v 13" fill="none" stroke="#ff0000" stroke-width="2"/>
<path d="M304,257v 12" fill="none" stroke="#ff0000" stroke-width="2"/>
<path d="M305,260v 10" fill="none" stroke="#ff0000" stroke-width="2"/>
<path d="M306,261v 12" fill="none" stroke="#ff0000" stroke-width="2"/>
<path d="M307,262v 12" fill="none" stroke="#ff0000" stroke-width="2"/>
<path d="M307,264v 12" fill="none" stroke="#ff0000" stroke-width="2"/>
<path d="M308,265v 12" fill="none" stroke="#ff0000" stroke-width="2"/>
<path d="M309,267v 11" fill="none" stroke="#ff0000" stroke-width="2"/>
<path d="M310,269v 11" fill="none" stroke="#ff0000" stroke-width="2"/>
<path d="M311,269v 13" fill="none" stroke="#ff0000" stroke-width="2"/>
<path d="M311,270v 12" fill="none" stroke="#ff0000" stroke-width="2"/>
<path d="M312,273v 10" fill="none" stroke="#ff0000" stroke-width="2"/>
<path d="M313,273v 12" fill="none" stroke="#ff0000" stroke-width="2"/>
<path d="M314,274v 12" fill="none" stroke="#ff0000" stroke-width="2"/>
<path d="M315,275v 12" fill="none" stroke="#ff0000" stroke-width="2"/>
<path d="M315,276v 12" fill="none" stroke="#ff0000" stroke-width="2"/>
<path d="M316,277v 12" fill="none" stroke="#ff0000" stroke-width="2"/>
<path d="M317,278v 13" fill="none" stroke="#ff0000" stroke-width="2"/>
<path d="M318,279v 12" fill="none" stroke="#ff0000" stroke-width="2"/>
<path d="M319,280v 12" fill="none" stroke="#ff0000" stroke-width="2"/>
<path d="M320,281v 12" fill="none" stroke="#ff0000" stroke-width="2"/>
<path d="M320,282v 12" fill="none" stroke="#ff0000" stroke-width="2"/>
<path d="M321,283v 12" fill="none" stroke="#ff0000" stroke-width="2"/>
<path d="M322,284v 11" fill="none" stroke="#ff0000" stroke-width="2"/>
<path d="M323,285v 11" fill="none" stroke="#ff0000" stroke-width="2"/>
<path d="M324,286v 11" fill="none" stroke="#ff0000" stroke-width="2"/>
<path d="M324,286v 12" fill="none" stroke="#ff0000" stroke-width="2"/>
<path d="M325,287v 12" fill="none" stroke="#ff0000" stroke-width="2"/>
<path d="M326,288v 11" fill="none" stroke="#ff0000" stroke-width="2"/>
<path d="M327,288v 12" fill="none" stroke="#ff0000" stroke-width="2"/>
<path d="M328,290v 10" fill="none" stroke="#ff0000" stroke-width="2"/>
<path d="M329,290v 11" fill="none" stroke="#ff0000" stroke-width="2"/>
<path d="M329,291v 11" fill="none" stroke="#ff0000" stroke-width="2"/>
<path d="M330,291v 12" fill="none" stroke="#ff0000" stroke-width="2"/>
<path d="M331,291v 12" fill="none" stroke="#ff0000" stroke-width="2"/>
<path d="M332,292v 12" fill="none" stroke="#ff0000" stroke-width="2"/>
<path d="M333,293v 11" fill="none" stroke="#ff0000" stroke-width="2"/>
<path d="M333,293v 12" fill="none" stroke="#ff0000" stroke-width="2"/>
<path d="M334,294v 11" fill="none" stroke="#ff0000" stroke-width="2"/>
<path d="M335,294v 12" fill="none" stroke="#ff0000" stroke-width="2"/>
<path d="M336,295v 11" fill="none" stroke="#ff0000" stroke-width="2"/>
<path d="M337,295v 12" fill="none" stroke="#ff0000" stroke-width="2"/>
<path d="M337,295v 13" fill="none" stroke="#ff0000" stroke-width="2"/>
<path d="M338,296v 12" fill="none" stroke="#ff0000" stroke-width="2"/>
<path d="M339,296v 12" fill="none" stroke="#ff0000" stroke-width="2"/>
<path d="M340,297v 11" fill="none" stroke="#ff0000" stroke-width="2"/>
<path d="M341,297v 12" fill="none" stroke="#ff0000" stroke-width="2"/>
<path d="M342,298v 11" fill="none" stroke="#ff0000" stroke-width="2"/>
<path d="M342,298v 11" fill="none" stroke="#ff0000" stroke-width="2"/>
<path d="M343,299v 11" fill="none" stroke="#ff0000" stroke-width="2"/>
<path d="M344,299v 11" fill="none" stroke="#ff0000" stroke-width="2"/>
<path d="M345,299v 12" fill="none" stroke="#ff0000" stroke-width="2"/>
<path d="M346,299v 12" fill="none" stroke="#ff0000" stroke-width="2"/>
<path d="M346,299v 12" fill="none" stroke="#ff0000" stroke-width="2"/>
<path d="M347,300v 12" fill="none" stroke="#ff0000" stroke-width="2"/>
<path d="M348,300v 12" fill="none" stroke="#ff0000" stroke-width="2"/>
<path d="M349,300v 13" fill="none" stroke="#ff0000" stroke-width="2"/>
<path d="M350,301v 12" fill="none" stroke="#ff0000" stroke-width="2"/>
<path d="M351,301v 12" fill="none" stroke="#ff0000" stroke-width="2"/>
<path d="M351,302v 11" fill="none" stroke="#ff0000" stroke-width="2"/>
<path d="M352,302v 11" fill="none" stroke="#ff0000" stroke-width="2"/>
<path d="M353,302v 11" fill="none" stroke="#ff0000" stroke-width="2"/>
<path d="M354,302v 11" fill="none" stroke="#ff0000" stroke-width="2"/>
<path d="M355,303v 11" fill="none" stroke="#ff0000" stroke-width="2"/>
<path d="M355,303v 11" fill="none" stroke="#ff0000" stroke-width="2"/>
<path d="M356,303v 11" fill="none" stroke="#ff0000" stroke-width="2"/>
<path d="M357,303v 11" fill="none" stroke="#ff0000" stroke-width="2"/>
<path d="M358,304v 11" fill="none" stroke="#ff0000" stroke-width="2"/>
<path d="M359,304v 11" fill="none" stroke="#ff0000" stroke-width="2"/>
<path d="M359,304v 11" fill="none" stroke="#ff0000" stroke-width="2"/>
<path d="M360,304v 11" fill="none" stroke="#ff0000" stroke-width="2"/>
<path d="M361,304v 12" fill="none" stroke="#ff0000" stroke-width="2"/>
<path d="M362,304v 12" fill="none" stroke="#ff0000" stroke-width="2"/>
<path d="M363,304v 12" fill="none" stroke="#ff0000" stroke-width="2"/>
<path d="M364,304v 12" fill="none" stroke="#ff0000" stroke-width="2"/>
<path d="M364,304v 12" fill="none" stroke="#ff0000" stroke-width="2"/>
<path d="M365,304v 13" fill="none" stroke="#ff0000" stroke-width="2"/>
<path d="M366,305v 12" fill="none" stroke="#ff0000" stroke-width="2"/>
<path d="M367,305v 12" fill="none" stroke="#ff0000" stroke-width="2"/>
<path d="M368,305v 12" fill="none" stroke="#ff0000" stroke-width="2"/>
<path d="M368,305v 12" fill="none" stroke="#ff0000" stroke-width="2"/>
<path d="M369,305v 12" fill="none" stroke="#ff0000" stroke-width="2"/>
<path d="M370,305v 12" fill="none" stroke="#ff0000" stroke-width="2"/>
<path d="M371,306v 11" fill="none" stroke="#ff0000" stroke-width="2"/>
<path d="M372,306v 11" fill="none" stroke="#ff0000" stroke-width="2"/>
<path d="M372,306v 11" fill="none" stroke="#ff0000" stroke-width="2"/>
<path d="M373,306v 11" fill="none" stroke="#ff0000" stroke-width="2"/>
<path d="M374,306v 11" fill="none" stroke="#ff0000" stroke-width="2"/>
<path d="M375,306v 11" fill="none" stroke="#ff0000" stroke-width="2"/>
<path d="M376,306v 11" fill="none" stroke="#ff0000" stroke-width="2"/>
<path d="M377,306v 12" fill="none" stroke="#ff0000" stroke-width="2"/>
<path d="M377,307v 11" fill="none" stroke="#ff0000" stroke-width="2"/>
<path d="M378,307v 11" fill="none" stroke="#ff0000" stroke-width="2"/>
<path d="M379,307v 11" fill="none" stroke="#ff0000" stroke-width="2"/>
<path d="M380,307v 11" fill="none" stroke="#ff0000" stroke-width="2"/>
<path d="M381,307v 11" fill="none" stroke="#ff0000" stroke-width="2"/>
<path d="M381,307v 11" fill="none" stroke="#ff0000" stroke-width="2"/>
<path d="M382,307v 11" fill="none" stroke="#ff0000" stroke-width="2"/>
<path d="M383,307v 11" fill="none" stroke="#ff0000" stroke-width="2"/>
<path d="M384,307v 11" fill="none" stroke="#ff0000" stroke-width="2"/>
<path d="M385,307v 11" fill="none" stroke="#ff0000" stroke-width="2"/>
<path d="M386,308v 11" fill="none" stroke="#ff0000" stroke-width="2"/>
<path d="M386,308v 11" fill="none" stroke="#ff0000" stroke-width="2"/>
<path d="M387,308v 11" fill="none" stroke="#ff0000" stroke-width="2"/>
<path d="M388,308v 11" fill="none" stroke="#ff0000" stroke-width="2"/>
<path d="M389,308v 11" fill="none" stroke="#ff0000" stroke-width="2"/>
<path d="M390,308v 11" fill="none" stroke="#ff0000" stroke-width="2"/>
<path d="M390,308v 11" fill="none" stroke="#ff0000" stroke-width="2"/>
<path d="M391,308v 11" fill="none" stroke="#ff0000" stroke-width="2"/>
<path d="M392,308v 11" fill="none" stroke="#ff0000" stroke-width="2"/>
<path d="M393,308v 11" fill="none" stroke="#ff0000" stroke-width="2"/>
<path d="M394,308v 11" fill="none" stroke="#ff0000" stroke-width="2"/>
<path d="M394,308v 11" fill="none" stroke="#ff0000" stroke-width="2"/>
<path d="M395,308v 11" fill="none" stroke="#ff0000" stroke-width="2"/>
<path d="M396,308v 11" fill="none" stroke="#ff0000" stroke-width="2"/>
<path d="M397,308v 11" fill="none" stroke="#ff0000" stroke-width="2"/>
<path d="M398,308v 11" fill="none" stroke="#ff0000" stroke-width="2"/>
<path d="M399,308v 12" fill="none" stroke="#ff0000" stroke-width="2"/>
<path d="M399,308v 12" fill="none" stroke="#ff0000" stroke-width="2"/>
<path d="M400,308v 12" fill="none" stroke="#ff0000" stroke-width="2"/>
<path d="M401,308v 12" fill="none" stroke="#ff0000" stroke-width="2"/>
<path d="M402,308v 12" fill="none" stroke="#ff0000" stroke-width="2"/>
<path d="M403,308v 12" fill="none" stroke="#ff0000" stroke-width="2"/>
<path d="M403,308v 12" fill="none" stroke="#ff0000" stroke-width="2"/>
<path d="M404,308v 12" fill="none" stroke="#ff0000" stroke-width="2"/>
<path d="M405,308v 12" fill="none" stroke="#ff0000" stroke-width="2"/>
<path d="M406,308v 12" fill="none" stroke="#ff0000" stroke-width="2"/>
<path d="M407,308v 12" fill="none" stroke="#ff0000" stroke-width="2"/>
<path d="M408,308v 12" fill="none" stroke="#ff0000" stroke-width="2"/>
<path d="M408,308v 12" fill="none" stroke="#ff0000" stroke-width="2"/>
<path d="M409,308v 12" fill="none" stroke="#ff0000" stroke-width="2"/>
<path d="M410,308v 12" fill="none" stroke="#ff0000" stroke-width="2"/>
<path d="M411,308v 12" fill="none" stroke="#ff0000" stroke-width="2"/>
<path d="M412,308v 12" fill="none" stroke="#ff0000" stroke-width="2"/>
<path d="M412,308v 12" fill="none" stroke="#ff0000" stroke-width="2"/>
<path d="M413,308v 12" fill="none" stroke="#ff0000" stroke-width="2"/>
<path d="M414,308v 12" fill="none" stroke="#ff0000" stroke-width="2"/>
<path d="M415,308v 12" fill="none" stroke="#ff0000" stroke-width="2"/>
<path d="M416,308v 12" fill="none" stroke="#ff0000" stroke-width="2"/>
<path d="M416,308v 12" fill="none" stroke="#ff0000" stroke-width="2"/>
<path d="M417,308v 12" fill="none" stroke="#ff0000" stroke-width="2"/>
<path d="M418,308v 12" fill="none" stroke="#ff0000" stroke-width="2"/>
<path d="M419,308v 12" fill="none" stroke="#ff0000" stroke-width="2"/>
<path d="M420,308v 12" fill="none" stroke="#ff0000" stroke-width="2"/>
<path d="M421,308v 12" fill="none" stroke="#ff0000" stroke-width="2"/>
<path d="M421,308v 12" fill="none" stroke="#ff0000" stroke-width="2"/>
<path d="M422,308v 12" fill="none" stroke="#ff0000" stroke-width="2"/>
<path d="M423,308v 12" fill="none" stroke="#ff0000" stroke-width="2"/>
<path d="M424,308v 12" fill="none" stroke="#ff0000" stroke-width="2"/>
<path d="M425,308v 12" fill="none" stroke="#ff0000" stroke-width="2"/>
<path d="M425,308v 12" fill="none" stroke="#ff0000" stroke-width="2"/>
<path d="M426,308v 12" fill="none" stroke="#ff0000" stroke-width="2"/>
<path d="M427,308v 13" fill="none" stroke="#ff0000" stroke-width="2"/>
<path d="M428,308v 13" fill="none" stroke="#ff0000" stroke-width="2"/>
<path d="M429,309v 12" fill="none" stroke="#ff0000" stroke-width="2"/>
<path d="M430,309v 12" fill="none" stroke="#ff0000" stroke-width="2"/>
<path d="M430,309v 12" fill="none" stroke="#ff0000" stroke-width="2"/>
<path d="M431,309v 12" fill="none" stroke="#ff0000" stroke-width="2"/>
<path d="M432,309v 12" fill="none" stroke="#ff0000" stroke-width="2"/>
<path d="M433,309v 12" fill="none" stroke="#ff0000" stroke-width="2"/>
<path d="M434,309v 12" fill="none" stroke="#ff0000" stroke-width="2"/>
<path d="M434,309v 12" fill="none" stroke="#ff0000" stroke-width="2"/>
<path d="M435,309v 12" fill="none" stroke="#ff0000" stroke-width="2"/>
<path d="M436,309v 12" fill="none" stroke="#ff0000" stroke-width="2"/>
<path d="M437,309v 12" fill="none" stroke="#ff0000" stroke-width="2"/>
<path d="M438,309v 12" fill="none" stroke="#ff0000" stroke-width="2"/>
<path d="M438,309v 12" fill="none" stroke="#ff0000" stroke-width="2"/>
<path d="M439,309v 12" fill="none" stroke="#ff0000" stroke-width="2"/>
<path d="M440,309v 12" fill="none" stroke="#ff0000" stroke-width="2"/>
<path d="M441,309v 12" fill="none" stroke="#ff0000" stroke-width="2"/>
<path d="M442,309v 12" fill="none" stroke="#ff0000" stroke-width="2"/>
<path d="M443,309v 12" fill="none" stroke="#ff0000" stroke-width="2"/>
<path d="M443,309v 12" fill="none" stroke="#ff0000" stroke-width="2"/>
<path d="M444,309v 12" fill="none" stroke="#ff0000" stroke-width="2"/>
<path d="M445,309v 12" fill="none" stroke="#ff0000" stroke-width="2"/>
<path d="M446,309v 12" fill="none" stroke="#ff0000" stroke-width="2"/>
<path d="M447,309v 12" fill="none" stroke="#ff0000" stroke-width="2"/>
<path d="M447,309v 12" fill="none" stroke="#ff0000" stroke-width="2"/>
<path d="M448,309v 12" fill="none" stroke="#ff0000" stroke-width="2"/>
<path d="M449,309v 12" fill="none" stroke="#ff0000" stroke-width="2"/>
<path d="M450,309v 12" fill="none" stroke="#ff0000" stroke-width="2"/>
<path d="M451,309v 12" fill="none" stroke="#ff0000" stroke-width="2"/>
<path d="M452,309v 12" fill="none" stroke="#ff0000" stroke-width="2"/>
<path d="M452,309v 12" fill="none" stroke="#ff0000" stroke-width="2"/>
<path d="M453,309v 12" fill="none" stroke="#ff0000" stroke-width="2"/>
<path d="M454,309v 12" fill="none" stroke="#ff0000" stroke-width="2"/>
<path d="M455,309v 12" fill="none" stroke="#ff0000" stroke-width="2"/>
<path d="M456,309v 12" fill="none" stroke="#ff0000" stroke-width="2"/>
<path d="M456,309v 12" fill="none" stroke="#ff0000" stroke-width="2"/>
<path d="M457,309v 12" fill="none" stroke="#ff0000" stroke-width="2"/>
<path d="M458,309v 12" fill="none" stroke="#ff0000" stroke-width="2"/>
<path d="M459,309v 12" fill="none" stroke="#ff0000" stroke-width="2"/>
<path d="M460,309v 12" fill="none" stroke="#ff0000" stroke-width="2"/>
<path d="M460,309v 12" fill="none" stroke="#ff0000" stroke-width="2"/>
<path d="M461,309v 12" fill="none" stroke="#ff0000" stroke-width="2"/>
<path d="M462,309v 12" fill="none" stroke="#ff0000" stroke-width="2"/>
<path d="M463,309v 12" fill="none" stroke="#ff0000" stroke-width="2"/>
<path d="M464,309v 12" fill="none" stroke="#ff0000" stroke-width="2"/>
<path d="M465,309v 12" fill="none" stroke="#ff0000" stroke-width="2"/>
<path d="M465,309v 12" fill="none" stroke="#ff0000" stroke-width="2"/>
<path d="M466,309v 12" fill="none" stroke="#ff0000" stroke-width="2"/>
<path d="M467,309v 12" fill="none" stroke="#ff0000" stroke-width="2"/>
<path d="M468,309v 12" fill="none" stroke="#ff0000" stroke-width="2"/>
<path d="M469,309v 12" fill="none" stroke="#ff0000" stroke-width="2"/>
<path d="M469,309v 12" fill="none" stroke="#ff0000" stroke-width="2"/>
<path d="M470,309v 12" fill="none" stroke="#ff0000" stroke-width="2"/>
<path d="M471,309v 12" fill="none" stroke="#ff0000" stroke-width="2"/>
<path d="M472,309v 12" fill="none" stroke="#ff0000" stroke-width="2"/>
<path d="M473,309v 12" fill="none" stroke="#ff0000" stroke-width="2"/>
<path d="M473,309v 12" fill="none" stroke="#ff0000" stroke-width="2"/>
<path d="M474,309v 12" fill="none" stroke="#ff0000" stroke-width="2"/>
<path d="M475,309v 12" fill="none" stroke="#ff0000" stroke-width="2"/>
<path d="M476,309v 12" fill="none" stroke="#ff0000" stroke-width="2"/>
<path d="M477,309v 12" fill="none" stroke="#ff0000" stroke-width="2"/>
<path d="M478,309v 12" fill="none" stroke="#ff0000" stroke-width="2"/>
<path d="M478,309v 12" fill="none" stroke="#ff0000" stroke-width="2"/>
<path d="M479,309v 12" fill="none" stroke="#ff0000" stroke-width="2"/>
<path d="M480,309v 12" fill="none" stroke="#ff0000" stroke-width="2"/>
<path d="M481,309v 12" fill="none" stroke="#ff0000" stroke-width="2"/>
<path d="M482,309v 12" fill="none" stroke="#ff0000" stroke-width="2"/>
<path d="M482,309v 12" fill="none" stroke="#ff0000" stroke-width="2"/>
<path d="M483,309v 12" fill="none" stroke="#ff0000" stroke-width="2"/>
<path d="M484,309v 12" fill="none" stroke="#ff0000" stroke-width="2"/>
<path d="M485,309v 12" fill="none" stroke="#ff0000" stroke-width="2"/>
<path d="M486,309v 12" fill="none" stroke="#ff0000" stroke-width="2"/>
<path d="M487,309v 12" fill="none" stroke="#ff0000" stroke-width="2"/>
<path d="M487,309v 12" fill="none" stroke="#ff0000" stroke-width="2"/>
<path d="M488,309v 12" fill="none" stroke="#ff0000" stroke-width="2"/>
<path d="M489,309v 12" fill="none" stroke="#ff0000" stroke-width="2"/>
<path d="M490,309v 12" fill="none" stroke="#ff0000" stroke-width="2"/>
<path d="M491,309v 12" fill="none" stroke="#ff0000" stroke-width="2"/>
<path d="M491,309v 12" fill="none" stroke="#ff0000" stroke-width="2"/>
<path d="M492,309v 12" fill="none" stroke="#ff0000" stroke-width="2"/>
<path d="M493,309v 12" fill="none" stroke="#ff0000" stroke-width="2"/>
<path d="M494,309v 12" fill="none" stroke="#ff0000" stroke-width="2"/>
<path d="M495,309v 12" fill="none" stroke="#ff0000" stroke-width="2"/>
<path d="M495,309v 12" fill="none" stroke="#ff0000" stroke-width="2"/>
<path d="M496,309v 12" fill="none" stroke="#ff0000" stroke-width="2"/>
<path d="M497,309v 12" fill="none" stroke="#ff0000" stroke-width="2"/>
<path d="M498,309v 12" fill="none" stroke="#ff0000" stroke-width="2"/>
<path d="M499,309v 12" fill="none" stroke="#ff0000" stroke-width="2"/>
<path d="M500,309v 12" fill="none" stroke="#ff0000" stroke-width="2"/>
<path d="M500,309v 12" fill="none" stroke="#ff0000" stroke-width="2"/>
<path d="M501,309v 12" fill="none" stroke="#ff0000" stroke-width="2"/>
<path d="M502,309v 12" fill="none" stroke="#ff0000" stroke-width="2"/>
<path d="M503,309v 12" fill="none" stroke="#ff0000" stroke-width="2"/>
<path d="M504,309v 12" fill="none" stroke="#ff0000" stroke-width="2"/>
<path d="M504,309v 12" fill="none" stroke="#ff0000" stroke-width="2"/>
<path d="M505,309v 12" fill="none" stroke="#ff0000" stroke-width="2"/>
<path d="M506,309v 12" fill="none" stroke="#ff0000" stroke-width="2"/>
<path d="M507,309v 12" fill="none" stroke="#ff0000" stroke-width="2"/>
<path d="M508,309v 12" fill="none" stroke="#ff0000" stroke-width="2"/>
<path d="M509,309v 12" fill="none" stroke="#ff0000" stroke-width="2"/>
<path d="M509,309v 12" fill="none" stroke="#ff0000" stroke-width="2"/>
<path d="M510,310v 11" fill="none" stroke="#ff0000" stroke-width="2"/>
<path d="M284,123l 1, 17v 29l 1, 19l 1, 10l 1, 7l 1, 6v 8l 1, 4l 1, 3l 1, 3l 1, 3v 4l 1, 2l 1, 3l 1, 1l 1, 3l 1, 3v 2l 1, 1l 1, 2l 1, 2l 1, 3v 2l 1, 1l 1, 2l 1, 1l 1, 3l 1, 1v 1l 1, 2l 1, 2l 1, 1l 1, 1v 1l 1, 1l 1, 2l 1, 1l 1, 1v 1l 1, 1l 1, 1l 1, 1l
 1, 1h 1v 2l 1, 1l 1, 1l 1, 1h 1v 1l 1, 1l 1, 1h 1l 1, 1h 1v 1l 1, 1h 1l 1, 1l 1, 1h 2l 1, 1l 1, 1l 1, 1h 1l 1, 1h 1l 1, 1h 2l 1, 1h 1l 1, 1h 2l 1, 1h 1l 1, 1h 5l 1, 1h 3l 1, 1h 3l 1, 1h 4l 1, 1h 6v 1h 21l 1, 1h 29l 1, 1h 81" fill="none"
 stroke="#ff0000" stroke-width="2"/>
<path d="M57,346h 453" fill="none" stroke="black"/>
<text x="419" y="372" fill="black" font-size="12" font-family="Helvetica">
TDC-TDC0 (ns)
</text>
<path d="M57,337v 9" fill="none" stroke="black"/>
<path d="M68,342v 4" fill="none" stroke="black"/>
<path d="M79,342v 4" fill="none" stroke="black"/>
<path d="M91,342v 4" fill="none" stroke="black"/>
<path d="M102,342v 4" fill="none" stroke="black"/>
<path d="M113,337v 9" fill="none" stroke="black"/>
<path d="M125,342v 4" fill="none" stroke="black"/>
<path d="M136,342v 4" fill="none" stroke="black"/>
<path d="M147,342v 4" fill="none" stroke="black"/>
<path d="M159,342v 4" fill="none" stroke="black"/>
<path d="M170,337v 9" fill="none" stroke="black"/>
<path d="M181,342v 4" fill="none" stroke="black"/>
<path d="M193,342v 4" fill="none" stroke="black"/>
<path d="M204,342v 4" fill="none" stroke="black"/>
<path d="M215,342v 4" fill="none" stroke="black"/>
<path d="M227,337v 9" fill="none" stroke="black"/>
<path d="M238,342v 4" fill="none" stroke="black"/>
<path d="M249,342v 4" fill="none" stroke="black"/>
<path d="M261,342v 4" fill="none" stroke="black"/>
<path d="M272,342v 4" fill="none" stroke="black"/>
<path d="M283,337v 9" fill="none" stroke="black"/>
<path d="M295,342v 4" fill="none" stroke="black"/>
<path d="M306,342v 4" fill="none" stroke="black"/>
<path d="M317,342v 4" fill="none" stroke="black"/>
<path d="M329,342v 4" fill="none" stroke="black"/>
<path d="M340,337v 9" fill="none" stroke="black"/>
<path d="M351,342v 4" fill="none" stroke="black"/>
<path d="M363,342v 4" fill="none" stroke="black"/>
<path d="M374,342v 4" fill="none" stroke="black"/>
<path d="M386,342v 4" fill="none" stroke="black"/>
<path d="M397,337v 9" fill="none" stroke="black"/>
<path d="M408,342v 4" fill="none" stroke="black"/>
<path d="M420,342v 4" fill="none" stroke="black"/>
<path d="M431,342v 4" fill="none" stroke="black"/>
<path d="M442,342v 4" fill="none" stroke="black"/>
<path d="M454,337v 9" fill="none" stroke="black"/>
<path d="M465,342v 4" fill="none" stroke="black"/>
<path d="M476,342v 4" fill="none" stroke="black"/>
<path d="M488,342v 4" fill="none" stroke="black"/>
<path d="M499,342v 4" fill="none" stroke="black"/>
<path d="M510,337v 9" fill="none" stroke="black"/>
<text x="36" y="359" fill="black" font-size="12" font-family="Helvetica">
-20000
</text>
<text x="93" y="359" fill="black" font-size="12" font-family="Helvetica">
-15000
</text>
<text x="149" y="359" fill="black" font-size="12" font-family="Helvetica">
-10000
</text>
<text x="210" y="359" fill="black" font-size="12" font-family="Helvetica">
-5000
</text>
<text x="280" y="359" fill="black" font-size="12" font-family="Helvetica">
0
</text>
<text x="325" y="359" fill="black" font-size="12" font-family="Helvetica">
5000
</text>
<text x="379" y="359" fill="black" font-size="12" font-family="Helvetica">
10000
</text>
<text x="435" y="359" fill="black" font-size="12" font-family="Helvetica">
15000
</text>
<text x="492" y="359" fill="black" font-size="12" font-family="Helvetica">
20000
</text>
<path d="M57,346v -308" fill="none" stroke="black"/>
<g transform="rotate(-90,29,72)">
<text x="29" y="72" fill="black" font-size="12" font-family="Helvetica">
Count
</text>
</g>
<path d="M70,346h -13" fill="none" stroke="black"/>
<path d="M63,337h -6" fill="none" stroke="black"/>
<path d="M63,327h -6" fill="none" stroke="black"/>
<path d="M63,318h -6" fill="none" stroke="black"/>
<path d="M70,308h -13" fill="none" stroke="black"/>
<path d="M63,299h -6" fill="none" stroke="black"/>
<path d="M63,289h -6" fill="none" stroke="black"/>
<path d="M63,280h -6" fill="none" stroke="black"/>
<path d="M70,270h -13" fill="none" stroke="black"/>
<path d="M63,261h -6" fill="none" stroke="black"/>
<path d="M63,251h -6" fill="none" stroke="black"/>
<path d="M63,242h -6" fill="none" stroke="black"/>
<path d="M70,232h -13" fill="none" stroke="black"/>
<path d="M63,223h -6" fill="none" stroke="black"/>
<path d="M63,213h -6" fill="none" stroke="black"/>
<path d="M63,204h -6" fill="none" stroke="black"/>
<path d="M70,194h -13" fill="none" stroke="black"/>
<path d="M63,185h -6" fill="none" stroke="black"/>
<path d="M63,175h -6" fill="none" stroke="black"/>
<path d="M63,166h -6" fill="none" stroke="black"/>
<path d="M70,156h -13" fill="none" stroke="black"/>
<path d="M63,147h -6" fill="none" stroke="black"/>
<path d="M63,137h -6" fill="none" stroke="black"/>
<path d="M63,128h -6" fill="none" stroke="black"/>
<path d="M70,118h -13" fill="none" stroke="black"/>
<path d="M63,109h -6" fill="none" stroke="black"/>
<path d="M63,99h -6" fill="none" stroke="black"/>
<path d="M63,90h -6" fill="none" stroke="black"/>
<path d="M70,80h -13" fill="none" stroke="black"/>
<path d="M63,71h -6" fill="none" stroke="black"/>
<path d="M63,61h -6" fill="none" stroke="black"/>
<path d="M63,52h -6" fill="none" stroke="black"/>
<path d="M70,42h -13" fill="none" stroke="black"/>
<path d="M70,42h -13" fill="none" stroke="black"/>
<text x="47" y="350" fill="black" font-size="12" font-family="Helvetica">
0
</text>
<text x="33" y="313" fill="black" font-size="12" font-family="Helvetica">
200
</text>
<text x="33" y="274" fill="black" font-size="12" font-family="Helvetica">
400
</text>
<text x="33" y="236" fill="black" font-size="12" font-family="Helvetica">
600
</text>
<text x="33" y="198" fill="black" font-size="12" font-family="Helvetica">
800
</text>
<text x="25" y="160" fill="black" font-size="12" font-family="Helvetica">
1000
</text>
<text x="25" y="122" fill="black" font-size="12" font-family="Helvetica">
1200
</text>
<text x="25" y="84" fill="black" font-size="12" font-family="Helvetica">
1400
</text>
<text x="25" y="46" fill="black" font-size="12" font-family="Helvetica">
1600
</text>
<rect x="442" y="25" width="114" height="46" fill="white"/>
<path d="M442,71h 114" fill="none" stroke="black"/>
<path d="M556,71v -46" fill="none" stroke="black"/>
<path d="M556,25h -114" fill="none" stroke="black"/>
<path d="M442,25v 46" fill="none" stroke="black"/>
<text x="447" y="28" fill="black" font-size="4" font-family="Helvetica">
Entries 
</text>
<text x="535" y="28" fill="black" font-size="4" font-family="Helvetica">
 475773
</text>
<text x="450" y="35" fill="black" font-size="4" font-family="Helvetica">
 / ndf 
</text>
<text x="449" y="31" fill="black" font-size="3" font-family="Helvetica">
2
</text>
<text x="447" y="35" fill="black" font-size="4" font-family="Times">
&#0967;
</text>
<text x="526" y="34" fill="black" font-size="4" font-family="Helvetica">
  4120 / 1240
</text>
<text x="452" y="37" fill="black" font-size="4" font-family="Helvetica">
   
</text>
<text x="450" y="40" fill="black" font-size="3" font-family="Helvetica">
cu
</text>
<text x="447" y="37" fill="black" font-size="4" font-family="Helvetica">
N
</text>
<text x="541" y="40" fill="black" font-size="4" font-family="Helvetica">
 20.6
</text>
<text x="538" y="40" fill="black" font-size="4" font-family="Times">
&#0177;
</text>
<text x="526" y="40" fill="black" font-size="4" font-family="Helvetica">
 576.4 
</text>
<text x="450" y="43" fill="black" font-size="4" font-family="Helvetica">
 
</text>
<text x="448" y="46" fill="black" font-size="3" font-family="Helvetica">
cu
</text>
<text x="447" y="43" fill="black" font-size="4" font-family="Times">
&#0964;
</text>
<text x="543" y="45" fill="black" font-size="4" font-family="Helvetica">
 0.4
</text>
<text x="541" y="45" fill="black" font-size="4" font-family="Times">
&#0177;
</text>
<text x="529" y="45" fill="black" font-size="4" font-family="Helvetica">
 162.5 
</text>
<text x="450" y="48" fill="black" font-size="4" font-family="Helvetica">
    
</text>
<text x="450" y="51" fill="black" font-size="3" font-family="Helvetica">
f
</text>
<text x="447" y="48" fill="black" font-size="4" font-family="Helvetica">
N
</text>
<text x="543" y="50" fill="black" font-size="4" font-family="Helvetica">
 3.4
</text>
<text x="541" y="50" fill="black" font-size="4" font-family="Times">
&#0177;
</text>
<text x="529" y="50" fill="black" font-size="4" font-family="Helvetica">
 624.2 
</text>
<text x="448" y="53" fill="black" font-size="4" font-family="Helvetica">
 
</text>
<text x="448" y="57" fill="black" font-size="3" font-family="Helvetica">
f
</text>
<text x="447" y="53" fill="black" font-size="4" font-family="Times">
&#0964;
</text>
<text x="543" y="55" fill="black" font-size="4" font-family="Helvetica">
 0.0
</text>
<text x="541" y="55" fill="black" font-size="4" font-family="Times">
&#0177;
</text>
<text x="529" y="55" fill="black" font-size="4" font-family="Helvetica">
  2197 
</text>
<text x="452" y="58" fill="black" font-size="4" font-family="Helvetica">
  
</text>
<text x="450" y="61" fill="black" font-size="3" font-family="Helvetica">
sin
</text>
<text x="447" y="58" fill="black" font-size="4" font-family="Helvetica">
N
</text>
<text x="541" y="60" fill="black" font-size="4" font-family="Helvetica">
 0.63
</text>
<text x="538" y="60" fill="black" font-size="4" font-family="Times">
&#0177;
</text>
<text x="526" y="60" fill="black" font-size="4" font-family="Helvetica">
 30.06 
</text>
<text x="447" y="65" fill="black" font-size="4" font-family="Helvetica">
T        
</text>
<text x="541" y="66" fill="black" font-size="4" font-family="Helvetica">
 0.00
</text>
<text x="538" y="66" fill="black" font-size="4" font-family="Times">
&#0177;
</text>
<text x="526" y="66" fill="black" font-size="4" font-family="Helvetica">
 59.38 
</text>
<text x="450" y="68" fill="black" font-size="4" font-family="Helvetica">
    
</text>
<text x="450" y="71" fill="black" font-size="3" font-family="Helvetica">
b
</text>
<text x="447" y="68" fill="black" font-size="4" font-family="Helvetica">
N
</text>
<text x="543" y="71" fill="black" font-size="4" font-family="Helvetica">
 0.4
</text>
<text x="541" y="71" fill="black" font-size="4" font-family="Times">
&#0177;
</text>
<text x="529" y="71" fill="black" font-size="4" font-family="Helvetica">
 163.9 
</text>
<text x="270" y="21" fill="black" font-size="21" font-family="Helvetica">
D3
</text></svg>
