<?xml version="1.0" standalone="no"?>
<svg width="567" height="385" viewBox="0 0 567 385" xmlns="http://www.w3.org/2000/svg">
<title>
images/analysis_g4bl_tight/451_D5.svg
</title>
<desc>
Creator: ROOT Version 5.34/05
CreationDate: Mon Jun 10 21:49:49 2013</desc>
<defs>
</defs>
<rect x="0" y="0" width="567" height="385" fill="white"/>
<rect x="57" y="38" width="453" height="308" fill="white"/>
<rect x="57" y="38" width="453" height="308" fill="none" stroke="black"/>
<rect x="57" y="38" width="453" height="308" fill="white"/>
<rect x="57" y="38" width="453" height="308" fill="none" stroke="black"/>
<path d="M57,346h 45v -6v 6v -26h 1v 20v -7v 13v -33h 1v 27v -34v 34h 1v -14v 20v -20v 7h 1v 13v -26v 26v -26h 1v 26v -13h 1v 7v -27v 20h 1v -7v 14v -7v 7v -20v 26h 1v -26v 26h 1v -26v 26v -20v 14v -7h 1v 7v -20v 26v -6h 1v -27v 33v -13h 1v 7v -14v
 14h 1v -14v 14v -7v 13h 1v -20v 7h 1v 13v -33v 27h 1v 6v -26v 20h 1v -14v 20v -13h 1v -7v 20v -6h 1v -14v 14v -27v 13h 1v 14v -7v 7h 1v -7v 13v -33h 1v 27v -27v 33h 1v -26v 13v -7v 7v -7v 14h 1v -20v 26v -6h 1v 6v -33v 20v -13h 1v 13v -13v 20h 1v 6v
 -40v 34v -27h 1v 33v -20v 7v -7h 1v 14v -14v 14h 1v -27v 20h 1v 7v -27v 27v -20h 1v 26v -20v 20h 1v -6v 6v -20v 14h 1v -7v 7v -20v 20h 1v 6v -26v 20v -7h 1v -20v 33v -20v 7h 1v -7v 14v -14h 1v 7v -7v 20v -40v 40h 1v -20v 14v -7h 1v 13v -26v 26h 1v
 -20v 14v -14v 20h 1v -20v 20v -26h 1v 20v -14v 7h 1v 7v -14v 14v -7v 7v -14h 1v 7v -7v 20v -13h 1v -20v 33v -20h 1v 20v -13h 1v -13v 26v -20h 1v 20h 1v -33v 27v -27v 27h 1v -14v 14v -7v 7h 1v -20v 20v -14h 1v 14v -14v 20h 1v -20v 20v -26v 13h 1v
 -13v 13v -20v 27h 1v 6v -33v 27v -14h 1v 20v -20h 1v -13v 27v -14v 20h 1v -13v 13v -20v 20v -6h 1v -7v 13v -26v 13h 1v -13h 1v 20v -27h 1v 27v -27v 20h 1v 13v -26v 20v -14h 1v 14v -14v 14h 1v -20v 13v -7v 14v -14h 1v 14v -7v 7h 1v 6v -26v 26v -13v
 13h 1v -20v 14h 1v -20v 20v -27h 1v -13v 46v -13v 7v -7h 1v 13v -40v 40v -20h 1v 14v -14v 14h 1v -20v 20v -14h 1v 20v -13h 1v -7v 20v -13h 1v -7v 14v -7v 13h 1v -6v 6v -13h 1v -13v 20h 1v -14v 14v -7v 13h 1v -26v 26v -13v 7h 1v -7v 7v -14v 20h 1v
 -33v 33v -20v 14v -34v 40h 1v -20v 20v -26v 20h 1v -27v 33v -20v 14h 1v -14v 7v -13h 1v 20v -14v 14h 1v 6v -33v 33h 1v -13v 7h 1v -14v 7h 1v 7v -7v 7v -14h 1v 14v -7v 13v -13h 1v 13v -6v 6v -20v 7h 1v 13v -33v 27h 1v -34v 34v -20v 20v -14h 1v 14v
 -14v 14h 1v -14v 20v -20v 7h 1v 13v -33v 13v -6v 20h 1v -14v 7v -7v 7h 1v 7v -20v 6h 1v 20v -33v 27v -14h 1v 20v -13v 7h 1v -14v 20h 1v -13v 13v -13v 7h 1v -14v 20v -26v 20v -14h 1v 20v -26v 26v -6h 1v 6v -26v 20h 1v -27v 33h 1v -40v 40h 1v -13v 7v
 -7v 7v -20h 1v 20v -14v 14v -27h 1v 33v -20v 14h 1v -20v 20v -7h 1v 7v -14v 20h 1v -6v 6v -20v 14h 1v -7v 13v -26v 13h 1v -20v 27v -20v 6v -6h 1v 13v -13v 26v -26h 1v 26v -13h 1v -13v 6v -13v 7v -27h 1v 47v -20v 20v -14h 1v 20v -46h 1v 40v -20v 13h
 1v 13v -46v 13h 1v 27v -20v 13h 1v -13v 13v -20v 33h 1v -13h 1v 7v -34v 20h 1v 14v -20v 20v -7h 1v -7v 7v -7v 14h 1v -34v 34h 1v -27v 33v -13h 1v 13v -33v 33h 1v -20v 7v -20v 13h 1v 14v -14v 14h 1v -40v 40v -20h 1v 26v -13h 1v 7v -34h 1v 34v -34v
 20h 1v 14v -14v 14v -14h 1v 20v -33v 20v -13h 1v 6v -6v 20v -14v 7v -40h 1v 33v -26v 40v -7h 1v -13v 6v -33v 40v -27h 1v 34v -20v 20v -27v 20h 1v 7v -14h 1v 14v -27v 27h 1v -14v 7v -7v 7v -7v 7h 1v -20v 27v -40h 1v 40v -27v 13v -6v 26h 1v -20v 7v
 -7v 14h 1v -7v 13v -20v 20v -33h 1v 33v -6v 6v -40h 1v 34v -40v 33h 1v -20v 20v -27v 14h 1v 26v -33v 33v -20v 7v -13h 1v -7v 33v -40v 34v -27h 1v 27v -27v 27v -14h 1v -33v 40v -33h 1v 33v -20v 20v -20h 1v 27v -27v 27v -27h 1v -13v 26v -40v 34h 1v
 20v -14v 7h 1v -20h 1v 20v -13v 6h 1v -6v 6v -13h 1v -7v 27v -53v 53h 1v -13v 13v -27h 1v 27v -27h 1v 27v -20h 1v 13v -26v 33v -7h 1v -6v 20v -27v 7v -14h 1v -13v 20v -7v 27v -40v 33h 1v -13v 7v -20v 6h 1v -40v 54v -27v 7h 1v 26v -20v 14h 1v -20v
 20v -74h 1v 40v -53h 1v 27v -207h 1v 47v -20v 266h 1v -160v 74v -34h 1v 34v -47v 27v -60h 1v 113v -60v 67v -54h 1v 34v -54v 47h 1v 40v -53v 20v -20h 1v 46v -20v 20h 1v 14v -34v 14v -14v 27h 1v -33v 13v -13h 1v 33v -60h 1v 73v -60v 54v -60h 1v 46v
 -26v 26v -60v 47h 1v 27v -54v 60v -33h 1v -7v 47v -47h 1v 34v -20v 20h 1v -20v 13v -27h 1v -40v 67v -13v 13h 1v 7v -40v 26v -13v 20h 1v 20v -20v 13h 1v -20v 40v -46h 1v -20v 46v -33v 20h 1v -27v 34v -20v 26h 1v -13v 20v -40h 1v 20v -7v 7v -7v 20h 1v
 7v -53v 46v -20h 1v 20v -40v 34h 1v -7v 20v -13h 1v 6v -40v 34v -27h 1v 27v -20v 13v -7h 1v 34v -27v 20v -7h 1v -40v 40v -33h 1v 27v -27v 33h 1v -20v 20v -6v 6h 1v -33v 27v -27v 27h 1v 13v -40v 40v -27v 27h 1v -20v 13v -20v 27h 1v 7v -40v 26v -20h
 1v 27v -67v 60h 1v 14v -20v 20v -7h 1v -20v 13v -26v 40h 1v -47v 40v -27v 20v -13h 1v 7v -7v 20h 1v -13v 20v -27v 27h 1v -27v 27v -27v 20h 1v -7v 14v -34v 27v -27v 20h 1v 14v -27v 13h 1v 20v -33v 27h 1v -40v 33v -13h 1v 26v -40v 14v -14h 1v 40v -46v
 13h 1v 13v -13v 33h 1v -13v 7v -20v 6h 1v 14v -14v 14v -7h 1v -33v 26v -13h 1v 27v -20v 13h 1v -13v 20h 1v -7v 13v -13v 13h 1v -33v 20h 1v -7v 14v -20v 20h 1v -20v 13v -13v 20h 1v -14v 7v -20v 20v -13h 1v 20v -7h 1v -20v 33v -13v 13v -13h 1v -13v 6v
 -13h 1v 20v -13v 20v -27v 27h 1v -34v 27v -7h 1v 20v -20v 7v -7v 7v -7h 1v -13v 33h 1v -20v 14v -40h 1v 33v -7v 7v -7v 14v -7h 1v 13v -20v 7v -20v 7h 1v 20v -20v 26v -13h 1v 7v -7v 7v -20v 13h 1v 13v -33v 27h 1v -20v 26h 1v -33v 13h 1v 20v -6h 1v
 -14v 7v -7v 14v -14h 1v 14v -7h 1v -20v 27h 1v -7v 7v -7v 7v -7h 1v 7v -14h 1v -6v 26v -40h 1v 34v -7v 13v -20h 1v 20v -33h 1v 33v -26v 6h 1v 20v -13v 7h 1v -20v 20v -27h 1v 27v -20h 1v 20v -7v 7v -14v 7h 1v 13v -13h 1v 7v -14v 14h 1v -20v 26v -6h
 1v -7v 13v -33v 27v -20h 1v 20v -7h 1v 13v -13v 7h 1v -14v 14v -7h 1v -13v 13v -7v 7h 1v -27v 34v -27h 1v 33v -6h 1v -27v 27h 1v -7v 13v -13v 13h 1v -13v 13v -13h 1v -13v 13v -13h 1v 6v -13v 27v -14h 1v 20v -20v 20v -20h 1v 14v -20v 20h 1v -14v 14v
 -14v 20h 1v -13v 13v -20v 7h 1v -7v 20v -26v 26v -20h 1v 14v -14v 14h 1v -20v 20v -20h 1v 13v -7v 20v -33v 20h 1v -7v 20v -20h 1v 14v -20v 26v -20h 1v 20v -13h 1v 13v -13v 7h 1v 6v -20v 14h 1v -20v 26v -26v 20v -7h 1v -20v 33v -26v 6h 1v 20v -20v
 14h 1v -14v 14v -20h 1v 20v -7v 13v -13h 1v 7v -20v 13v -13v 13h 1v -7v 7v -27v 27v -13h 1v 26v -26v 6h 1v 20v -20v 14h 1v -14v 20h 1v -13v 7v -7h 1v 13v -20h 1v -6v 20v -20v 13h 1v 7v -20v 26v -20h 1v 7v -7v 14v -34v 34h 1v -14v 14v -7h 1v 13v -13v
 13h 1v -26v 26v -20h 1v -20v 40h 1v -26v 26v -20h 1v -6v 26v -33v 20h 1v -7v 20v -26v 20v -20h 1v 26v -20v 20v -6h 1v -27v 33v -6h 1v -20v 20v -20v 20h 1v -7v 13v -26v 20v -7h 1v 7v -40v 46v -20v 20h 1v -33v 27h 1v -20v 20v -20v 20h 1v -7v 13v -13v
 13v -26h 1v 20v -14v 14h 1v -7v 7v -20v 13v -7h 1v 14v -27h 1v 33v -6v 6h 1v -20v 20v -13h 1v 13v -33h 1v 33v -46v 33h 1v 7v -27v 27h 1v -34v 34v -14v 7h 1v 7v -14v 20h 1v -20v 20v -6h 1v -14v 20v -13h 1v 7v -7v 7v -20h 1v 20v -7v 7v -20v 6h 1v -6v
 13v -13h 1v 20v -14v 14v -14v 14h 1v -20v 26v -13v 7h 1v -14v 7v -7v 20v -13v 7h 1v -20v 20v -14h 1v 14v -14v 14v -14h 1v 7v -7v 14h 1v -20v 13h 1v -13v 20v -14v 20v -13h 1v -13v 26v -20v 14v -14h 1v -26v 40v -14h 1v 14v -14v 14v -14h 1v 7v -13v 26v
 -6h 1v -34v 34v -7h 1v 7v -20h 1v 26v -33v 33h 1v -33v 27v -14h 1v -6v 20v -14v 7v -20v 33h 1v -13v 7v -14v 14v -7h 1v -13v 20v -7v 13h 1v -33v 33v -20h 1v 20v -6v 6v -13v 7h 1v -20v 20h 1v -7v 13v -40v 40h 1v -6v 6v -13v 13h 1v -26v 20v -7v 7v -7h
 1v 13v -20v 14v -7v 13h 1v -33v 20h 1v -7v 14v -7h 1v -27v 40v -20h 1v -13v 27v -7v 7v -20h 1v 20v -7h 1v 7v -20v 20h 1v -7v 13v -26h 1v 20v -27v 27h 1v -27v 33v -13h 1v 7v -20v 13v -7v 20h 1v -13v 7v -27h 1v 27v -47v 47h 1v -20v 26v -13v 7h 1v -14v
 7v -7v 14v -7h 1v -20v 27v -27v 20v -13h 1v 20v -7v 13h 1v -26v 13v -7v 20h 1v -26v 26v -26v 20h 1v -14v 20h 1v -33v 33v -33v 13h 1v 20v -33v 33v -13h 1v -13v 20v -14v 7h 1v 7v -27v 20h 1v -27v 34v -14h 1v 7v -7v 20h 1v -20v 20v -20v 14v -14h 1v 20v
 -26v 26v -20h 1v 20v -33v 33h 1v -26v 20v -7h 1v -7v 14v -54v 60h 1v -26v 20v -20h 1v 13v -13v 26v -26v 26h 1v -13v 7v -34v 40v -26h 1v 26v -40v 34v -20v 13h 1v 13v -26v 20v -7h 1v 7v -20v 26v -33v 7h 1v 20v -27v 33v -6h 1v 6v -33v 33h 1v -13v 13h
 1v -26v 26v -13" fill="none" stroke="#000099"/>
<path d="M284,228v 2" fill="none" stroke="#ff0000" stroke-width="2"/>
<path d="M285,229v 26" fill="none" stroke="#ff0000" stroke-width="2"/>
<path d="M285,256v 19" fill="none" stroke="#ff0000" stroke-width="2"/>
<path d="M286,269v 16" fill="none" stroke="#ff0000" stroke-width="2"/>
<path d="M287,274v 15" fill="none" stroke="#ff0000" stroke-width="2"/>
<path d="M288,277v 15" fill="none" stroke="#ff0000" stroke-width="2"/>
<path d="M289,280v 14" fill="none" stroke="#ff0000" stroke-width="2"/>
<path d="M289,283v 12" fill="none" stroke="#ff0000" stroke-width="2"/>
<path d="M290,284v 15" fill="none" stroke="#ff0000" stroke-width="2"/>
<path d="M291,286v 13" fill="none" stroke="#ff0000" stroke-width="2"/>
<path d="M292,286v 14" fill="none" stroke="#ff0000" stroke-width="2"/>
<path d="M293,288v 14" fill="none" stroke="#ff0000" stroke-width="2"/>
<path d="M293,290v 13" fill="none" stroke="#ff0000" stroke-width="2"/>
<path d="M294,291v 13" fill="none" stroke="#ff0000" stroke-width="2"/>
<path d="M295,292v 14" fill="none" stroke="#ff0000" stroke-width="2"/>
<path d="M296,293v 14" fill="none" stroke="#ff0000" stroke-width="2"/>
<path d="M297,295v 13" fill="none" stroke="#ff0000" stroke-width="2"/>
<path d="M298,295v 13" fill="none" stroke="#ff0000" stroke-width="2"/>
<path d="M298,296v 14" fill="none" stroke="#ff0000" stroke-width="2"/>
<path d="M299,297v 14" fill="none" stroke="#ff0000" stroke-width="2"/>
<path d="M300,298v 14" fill="none" stroke="#ff0000" stroke-width="2"/>
<path d="M301,299v 14" fill="none" stroke="#ff0000" stroke-width="2"/>
<path d="M302,300v 13" fill="none" stroke="#ff0000" stroke-width="2"/>
<path d="M302,301v 13" fill="none" stroke="#ff0000" stroke-width="2"/>
<path d="M303,301v 14" fill="none" stroke="#ff0000" stroke-width="2"/>
<path d="M304,302v 14" fill="none" stroke="#ff0000" stroke-width="2"/>
<path d="M305,304v 13" fill="none" stroke="#ff0000" stroke-width="2"/>
<path d="M306,304v 13" fill="none" stroke="#ff0000" stroke-width="2"/>
<path d="M307,304v 14" fill="none" stroke="#ff0000" stroke-width="2"/>
<path d="M307,305v 14" fill="none" stroke="#ff0000" stroke-width="2"/>
<path d="M308,306v 13" fill="none" stroke="#ff0000" stroke-width="2"/>
<path d="M309,307v 13" fill="none" stroke="#ff0000" stroke-width="2"/>
<path d="M310,308v 13" fill="none" stroke="#ff0000" stroke-width="2"/>
<path d="M311,308v 13" fill="none" stroke="#ff0000" stroke-width="2"/>
<path d="M311,308v 13" fill="none" stroke="#ff0000" stroke-width="2"/>
<path d="M312,308v 14" fill="none" stroke="#ff0000" stroke-width="2"/>
<path d="M313,309v 14" fill="none" stroke="#ff0000" stroke-width="2"/>
<path d="M314,310v 14" fill="none" stroke="#ff0000" stroke-width="2"/>
<path d="M315,311v 13" fill="none" stroke="#ff0000" stroke-width="2"/>
<path d="M315,311v 14" fill="none" stroke="#ff0000" stroke-width="2"/>
<path d="M316,312v 13" fill="none" stroke="#ff0000" stroke-width="2"/>
<path d="M317,312v 14" fill="none" stroke="#ff0000" stroke-width="2"/>
<path d="M318,313v 13" fill="none" stroke="#ff0000" stroke-width="2"/>
<path d="M319,313v 13" fill="none" stroke="#ff0000" stroke-width="2"/>
<path d="M320,313v 13" fill="none" stroke="#ff0000" stroke-width="2"/>
<path d="M320,313v 14" fill="none" stroke="#ff0000" stroke-width="2"/>
<path d="M321,314v 13" fill="none" stroke="#ff0000" stroke-width="2"/>
<path d="M322,314v 14" fill="none" stroke="#ff0000" stroke-width="2"/>
<path d="M323,315v 13" fill="none" stroke="#ff0000" stroke-width="2"/>
<path d="M324,315v 14" fill="none" stroke="#ff0000" stroke-width="2"/>
<path d="M324,316v 13" fill="none" stroke="#ff0000" stroke-width="2"/>
<path d="M325,316v 13" fill="none" stroke="#ff0000" stroke-width="2"/>
<path d="M326,316v 14" fill="none" stroke="#ff0000" stroke-width="2"/>
<path d="M327,317v 13" fill="none" stroke="#ff0000" stroke-width="2"/>
<path d="M328,317v 13" fill="none" stroke="#ff0000" stroke-width="2"/>
<path d="M329,317v 13" fill="none" stroke="#ff0000" stroke-width="2"/>
<path d="M329,317v 13" fill="none" stroke="#ff0000" stroke-width="2"/>
<path d="M330,317v 14" fill="none" stroke="#ff0000" stroke-width="2"/>
<path d="M331,317v 14" fill="none" stroke="#ff0000" stroke-width="2"/>
<path d="M332,318v 13" fill="none" stroke="#ff0000" stroke-width="2"/>
<path d="M333,318v 13" fill="none" stroke="#ff0000" stroke-width="2"/>
<path d="M333,318v 14" fill="none" stroke="#ff0000" stroke-width="2"/>
<path d="M334,319v 13" fill="none" stroke="#ff0000" stroke-width="2"/>
<path d="M335,319v 13" fill="none" stroke="#ff0000" stroke-width="2"/>
<path d="M336,319v 13" fill="none" stroke="#ff0000" stroke-width="2"/>
<path d="M337,319v 14" fill="none" stroke="#ff0000" stroke-width="2"/>
<path d="M337,320v 13" fill="none" stroke="#ff0000" stroke-width="2"/>
<path d="M338,320v 13" fill="none" stroke="#ff0000" stroke-width="2"/>
<path d="M339,320v 13" fill="none" stroke="#ff0000" stroke-width="2"/>
<path d="M340,320v 14" fill="none" stroke="#ff0000" stroke-width="2"/>
<path d="M341,320v 14" fill="none" stroke="#ff0000" stroke-width="2"/>
<path d="M342,321v 13" fill="none" stroke="#ff0000" stroke-width="2"/>
<path d="M342,321v 13" fill="none" stroke="#ff0000" stroke-width="2"/>
<path d="M343,321v 13" fill="none" stroke="#ff0000" stroke-width="2"/>
<path d="M344,321v 13" fill="none" stroke="#ff0000" stroke-width="2"/>
<path d="M345,321v 13" fill="none" stroke="#ff0000" stroke-width="2"/>
<path d="M346,321v 13" fill="none" stroke="#ff0000" stroke-width="2"/>
<path d="M346,321v 13" fill="none" stroke="#ff0000" stroke-width="2"/>
<path d="M347,321v 13" fill="none" stroke="#ff0000" stroke-width="2"/>
<path d="M348,321v 13" fill="none" stroke="#ff0000" stroke-width="2"/>
<path d="M349,321v 13" fill="none" stroke="#ff0000" stroke-width="2"/>
<path d="M350,321v 14" fill="none" stroke="#ff0000" stroke-width="2"/>
<path d="M351,321v 14" fill="none" stroke="#ff0000" stroke-width="2"/>
<path d="M351,321v 14" fill="none" stroke="#ff0000" stroke-width="2"/>
<path d="M352,322v 13" fill="none" stroke="#ff0000" stroke-width="2"/>
<path d="M353,322v 13" fill="none" stroke="#ff0000" stroke-width="2"/>
<path d="M354,322v 13" fill="none" stroke="#ff0000" stroke-width="2"/>
<path d="M355,322v 13" fill="none" stroke="#ff0000" stroke-width="2"/>
<path d="M355,322v 13" fill="none" stroke="#ff0000" stroke-width="2"/>
<path d="M356,322v 14" fill="none" stroke="#ff0000" stroke-width="2"/>
<path d="M357,322v 14" fill="none" stroke="#ff0000" stroke-width="2"/>
<path d="M358,322v 14" fill="none" stroke="#ff0000" stroke-width="2"/>
<path d="M359,323v 13" fill="none" stroke="#ff0000" stroke-width="2"/>
<path d="M359,323v 13" fill="none" stroke="#ff0000" stroke-width="2"/>
<path d="M360,323v 13" fill="none" stroke="#ff0000" stroke-width="2"/>
<path d="M361,323v 13" fill="none" stroke="#ff0000" stroke-width="2"/>
<path d="M362,323v 13" fill="none" stroke="#ff0000" stroke-width="2"/>
<path d="M363,323v 13" fill="none" stroke="#ff0000" stroke-width="2"/>
<path d="M364,323v 13" fill="none" stroke="#ff0000" stroke-width="2"/>
<path d="M364,323v 13" fill="none" stroke="#ff0000" stroke-width="2"/>
<path d="M365,323v 14" fill="none" stroke="#ff0000" stroke-width="2"/>
<path d="M366,323v 14" fill="none" stroke="#ff0000" stroke-width="2"/>
<path d="M367,323v 14" fill="none" stroke="#ff0000" stroke-width="2"/>
<path d="M368,323v 14" fill="none" stroke="#ff0000" stroke-width="2"/>
<path d="M368,323v 14" fill="none" stroke="#ff0000" stroke-width="2"/>
<path d="M369,324v 13" fill="none" stroke="#ff0000" stroke-width="2"/>
<path d="M370,324v 13" fill="none" stroke="#ff0000" stroke-width="2"/>
<path d="M371,324v 13" fill="none" stroke="#ff0000" stroke-width="2"/>
<path d="M372,324v 13" fill="none" stroke="#ff0000" stroke-width="2"/>
<path d="M372,324v 13" fill="none" stroke="#ff0000" stroke-width="2"/>
<path d="M373,324v 13" fill="none" stroke="#ff0000" stroke-width="2"/>
<path d="M374,324v 13" fill="none" stroke="#ff0000" stroke-width="2"/>
<path d="M375,324v 13" fill="none" stroke="#ff0000" stroke-width="2"/>
<path d="M376,324v 13" fill="none" stroke="#ff0000" stroke-width="2"/>
<path d="M377,324v 13" fill="none" stroke="#ff0000" stroke-width="2"/>
<path d="M377,324v 13" fill="none" stroke="#ff0000" stroke-width="2"/>
<path d="M378,324v 13" fill="none" stroke="#ff0000" stroke-width="2"/>
<path d="M379,324v 13" fill="none" stroke="#ff0000" stroke-width="2"/>
<path d="M380,324v 13" fill="none" stroke="#ff0000" stroke-width="2"/>
<path d="M381,324v 14" fill="none" stroke="#ff0000" stroke-width="2"/>
<path d="M381,324v 14" fill="none" stroke="#ff0000" stroke-width="2"/>
<path d="M382,324v 14" fill="none" stroke="#ff0000" stroke-width="2"/>
<path d="M383,324v 14" fill="none" stroke="#ff0000" stroke-width="2"/>
<path d="M384,324v 14" fill="none" stroke="#ff0000" stroke-width="2"/>
<path d="M385,324v 14" fill="none" stroke="#ff0000" stroke-width="2"/>
<path d="M386,324v 14" fill="none" stroke="#ff0000" stroke-width="2"/>
<path d="M386,324v 14" fill="none" stroke="#ff0000" stroke-width="2"/>
<path d="M387,324v 14" fill="none" stroke="#ff0000" stroke-width="2"/>
<path d="M388,324v 14" fill="none" stroke="#ff0000" stroke-width="2"/>
<path d="M389,324v 14" fill="none" stroke="#ff0000" stroke-width="2"/>
<path d="M390,325v 13" fill="none" stroke="#ff0000" stroke-width="2"/>
<path d="M390,325v 13" fill="none" stroke="#ff0000" stroke-width="2"/>
<path d="M391,325v 13" fill="none" stroke="#ff0000" stroke-width="2"/>
<path d="M392,325v 13" fill="none" stroke="#ff0000" stroke-width="2"/>
<path d="M393,325v 13" fill="none" stroke="#ff0000" stroke-width="2"/>
<path d="M394,325v 13" fill="none" stroke="#ff0000" stroke-width="2"/>
<path d="M394,325v 13" fill="none" stroke="#ff0000" stroke-width="2"/>
<path d="M395,325v 13" fill="none" stroke="#ff0000" stroke-width="2"/>
<path d="M396,325v 13" fill="none" stroke="#ff0000" stroke-width="2"/>
<path d="M397,325v 13" fill="none" stroke="#ff0000" stroke-width="2"/>
<path d="M398,325v 13" fill="none" stroke="#ff0000" stroke-width="2"/>
<path d="M399,325v 13" fill="none" stroke="#ff0000" stroke-width="2"/>
<path d="M399,325v 13" fill="none" stroke="#ff0000" stroke-width="2"/>
<path d="M400,325v 13" fill="none" stroke="#ff0000" stroke-width="2"/>
<path d="M401,325v 13" fill="none" stroke="#ff0000" stroke-width="2"/>
<path d="M402,325v 13" fill="none" stroke="#ff0000" stroke-width="2"/>
<path d="M403,325v 13" fill="none" stroke="#ff0000" stroke-width="2"/>
<path d="M403,325v 13" fill="none" stroke="#ff0000" stroke-width="2"/>
<path d="M404,325v 13" fill="none" stroke="#ff0000" stroke-width="2"/>
<path d="M405,325v 13" fill="none" stroke="#ff0000" stroke-width="2"/>
<path d="M406,325v 13" fill="none" stroke="#ff0000" stroke-width="2"/>
<path d="M407,325v 13" fill="none" stroke="#ff0000" stroke-width="2"/>
<path d="M408,325v 13" fill="none" stroke="#ff0000" stroke-width="2"/>
<path d="M408,325v 13" fill="none" stroke="#ff0000" stroke-width="2"/>
<path d="M409,325v 13" fill="none" stroke="#ff0000" stroke-width="2"/>
<path d="M410,325v 13" fill="none" stroke="#ff0000" stroke-width="2"/>
<path d="M411,325v 13" fill="none" stroke="#ff0000" stroke-width="2"/>
<path d="M412,325v 13" fill="none" stroke="#ff0000" stroke-width="2"/>
<path d="M412,325v 13" fill="none" stroke="#ff0000" stroke-width="2"/>
<path d="M413,325v 13" fill="none" stroke="#ff0000" stroke-width="2"/>
<path d="M414,325v 13" fill="none" stroke="#ff0000" stroke-width="2"/>
<path d="M415,325v 13" fill="none" stroke="#ff0000" stroke-width="2"/>
<path d="M416,325v 13" fill="none" stroke="#ff0000" stroke-width="2"/>
<path d="M416,325v 13" fill="none" stroke="#ff0000" stroke-width="2"/>
<path d="M417,325v 13" fill="none" stroke="#ff0000" stroke-width="2"/>
<path d="M418,325v 13" fill="none" stroke="#ff0000" stroke-width="2"/>
<path d="M419,325v 13" fill="none" stroke="#ff0000" stroke-width="2"/>
<path d="M420,325v 13" fill="none" stroke="#ff0000" stroke-width="2"/>
<path d="M421,325v 13" fill="none" stroke="#ff0000" stroke-width="2"/>
<path d="M421,325v 13" fill="none" stroke="#ff0000" stroke-width="2"/>
<path d="M422,325v 13" fill="none" stroke="#ff0000" stroke-width="2"/>
<path d="M423,325v 13" fill="none" stroke="#ff0000" stroke-width="2"/>
<path d="M424,325v 13" fill="none" stroke="#ff0000" stroke-width="2"/>
<path d="M425,325v 13" fill="none" stroke="#ff0000" stroke-width="2"/>
<path d="M425,325v 13" fill="none" stroke="#ff0000" stroke-width="2"/>
<path d="M426,325v 13" fill="none" stroke="#ff0000" stroke-width="2"/>
<path d="M427,325v 13" fill="none" stroke="#ff0000" stroke-width="2"/>
<path d="M428,325v 13" fill="none" stroke="#ff0000" stroke-width="2"/>
<path d="M429,325v 13" fill="none" stroke="#ff0000" stroke-width="2"/>
<path d="M430,325v 13" fill="none" stroke="#ff0000" stroke-width="2"/>
<path d="M430,325v 13" fill="none" stroke="#ff0000" stroke-width="2"/>
<path d="M431,325v 13" fill="none" stroke="#ff0000" stroke-width="2"/>
<path d="M432,325v 13" fill="none" stroke="#ff0000" stroke-width="2"/>
<path d="M433,325v 14" fill="none" stroke="#ff0000" stroke-width="2"/>
<path d="M434,325v 14" fill="none" stroke="#ff0000" stroke-width="2"/>
<path d="M434,325v 14" fill="none" stroke="#ff0000" stroke-width="2"/>
<path d="M435,325v 13" fill="none" stroke="#ff0000" stroke-width="2"/>
<path d="M436,325v 13" fill="none" stroke="#ff0000" stroke-width="2"/>
<path d="M437,325v 14" fill="none" stroke="#ff0000" stroke-width="2"/>
<path d="M438,325v 14" fill="none" stroke="#ff0000" stroke-width="2"/>
<path d="M438,325v 14" fill="none" stroke="#ff0000" stroke-width="2"/>
<path d="M439,325v 14" fill="none" stroke="#ff0000" stroke-width="2"/>
<path d="M440,325v 14" fill="none" stroke="#ff0000" stroke-width="2"/>
<path d="M441,325v 14" fill="none" stroke="#ff0000" stroke-width="2"/>
<path d="M442,325v 14" fill="none" stroke="#ff0000" stroke-width="2"/>
<path d="M443,325v 14" fill="none" stroke="#ff0000" stroke-width="2"/>
<path d="M443,325v 14" fill="none" stroke="#ff0000" stroke-width="2"/>
<path d="M444,325v 14" fill="none" stroke="#ff0000" stroke-width="2"/>
<path d="M445,325v 14" fill="none" stroke="#ff0000" stroke-width="2"/>
<path d="M446,325v 14" fill="none" stroke="#ff0000" stroke-width="2"/>
<path d="M447,325v 14" fill="none" stroke="#ff0000" stroke-width="2"/>
<path d="M447,325v 14" fill="none" stroke="#ff0000" stroke-width="2"/>
<path d="M448,325v 14" fill="none" stroke="#ff0000" stroke-width="2"/>
<path d="M449,325v 14" fill="none" stroke="#ff0000" stroke-width="2"/>
<path d="M450,325v 14" fill="none" stroke="#ff0000" stroke-width="2"/>
<path d="M451,325v 14" fill="none" stroke="#ff0000" stroke-width="2"/>
<path d="M452,325v 14" fill="none" stroke="#ff0000" stroke-width="2"/>
<path d="M452,325v 14" fill="none" stroke="#ff0000" stroke-width="2"/>
<path d="M453,325v 14" fill="none" stroke="#ff0000" stroke-width="2"/>
<path d="M454,325v 14" fill="none" stroke="#ff0000" stroke-width="2"/>
<path d="M455,325v 14" fill="none" stroke="#ff0000" stroke-width="2"/>
<path d="M456,325v 14" fill="none" stroke="#ff0000" stroke-width="2"/>
<path d="M456,325v 14" fill="none" stroke="#ff0000" stroke-width="2"/>
<path d="M457,325v 14" fill="none" stroke="#ff0000" stroke-width="2"/>
<path d="M458,325v 14" fill="none" stroke="#ff0000" stroke-width="2"/>
<path d="M459,325v 14" fill="none" stroke="#ff0000" stroke-width="2"/>
<path d="M460,325v 14" fill="none" stroke="#ff0000" stroke-width="2"/>
<path d="M460,325v 14" fill="none" stroke="#ff0000" stroke-width="2"/>
<path d="M461,325v 14" fill="none" stroke="#ff0000" stroke-width="2"/>
<path d="M462,325v 14" fill="none" stroke="#ff0000" stroke-width="2"/>
<path d="M463,325v 14" fill="none" stroke="#ff0000" stroke-width="2"/>
<path d="M464,325v 14" fill="none" stroke="#ff0000" stroke-width="2"/>
<path d="M465,325v 14" fill="none" stroke="#ff0000" stroke-width="2"/>
<path d="M465,325v 14" fill="none" stroke="#ff0000" stroke-width="2"/>
<path d="M466,325v 14" fill="none" stroke="#ff0000" stroke-width="2"/>
<path d="M467,325v 14" fill="none" stroke="#ff0000" stroke-width="2"/>
<path d="M468,325v 14" fill="none" stroke="#ff0000" stroke-width="2"/>
<path d="M469,325v 14" fill="none" stroke="#ff0000" stroke-width="2"/>
<path d="M469,325v 14" fill="none" stroke="#ff0000" stroke-width="2"/>
<path d="M470,325v 14" fill="none" stroke="#ff0000" stroke-width="2"/>
<path d="M471,325v 14" fill="none" stroke="#ff0000" stroke-width="2"/>
<path d="M472,325v 14" fill="none" stroke="#ff0000" stroke-width="2"/>
<path d="M473,325v 14" fill="none" stroke="#ff0000" stroke-width="2"/>
<path d="M473,325v 14" fill="none" stroke="#ff0000" stroke-width="2"/>
<path d="M474,325v 14" fill="none" stroke="#ff0000" stroke-width="2"/>
<path d="M475,325v 14" fill="none" stroke="#ff0000" stroke-width="2"/>
<path d="M476,325v 14" fill="none" stroke="#ff0000" stroke-width="2"/>
<path d="M477,325v 14" fill="none" stroke="#ff0000" stroke-width="2"/>
<path d="M478,325v 14" fill="none" stroke="#ff0000" stroke-width="2"/>
<path d="M478,325v 14" fill="none" stroke="#ff0000" stroke-width="2"/>
<path d="M479,325v 14" fill="none" stroke="#ff0000" stroke-width="2"/>
<path d="M480,325v 14" fill="none" stroke="#ff0000" stroke-width="2"/>
<path d="M481,325v 14" fill="none" stroke="#ff0000" stroke-width="2"/>
<path d="M482,325v 14" fill="none" stroke="#ff0000" stroke-width="2"/>
<path d="M482,325v 14" fill="none" stroke="#ff0000" stroke-width="2"/>
<path d="M483,325v 14" fill="none" stroke="#ff0000" stroke-width="2"/>
<path d="M484,325v 14" fill="none" stroke="#ff0000" stroke-width="2"/>
<path d="M485,325v 14" fill="none" stroke="#ff0000" stroke-width="2"/>
<path d="M486,325v 14" fill="none" stroke="#ff0000" stroke-width="2"/>
<path d="M487,325v 14" fill="none" stroke="#ff0000" stroke-width="2"/>
<path d="M487,325v 14" fill="none" stroke="#ff0000" stroke-width="2"/>
<path d="M488,325v 14" fill="none" stroke="#ff0000" stroke-width="2"/>
<path d="M489,325v 14" fill="none" stroke="#ff0000" stroke-width="2"/>
<path d="M490,325v 14" fill="none" stroke="#ff0000" stroke-width="2"/>
<path d="M491,325v 14" fill="none" stroke="#ff0000" stroke-width="2"/>
<path d="M491,325v 14" fill="none" stroke="#ff0000" stroke-width="2"/>
<path d="M492,325v 14" fill="none" stroke="#ff0000" stroke-width="2"/>
<path d="M493,325v 14" fill="none" stroke="#ff0000" stroke-width="2"/>
<path d="M494,325v 14" fill="none" stroke="#ff0000" stroke-width="2"/>
<path d="M495,325v 14" fill="none" stroke="#ff0000" stroke-width="2"/>
<path d="M495,325v 14" fill="none" stroke="#ff0000" stroke-width="2"/>
<path d="M496,325v 14" fill="none" stroke="#ff0000" stroke-width="2"/>
<path d="M497,325v 14" fill="none" stroke="#ff0000" stroke-width="2"/>
<path d="M498,325v 14" fill="none" stroke="#ff0000" stroke-width="2"/>
<path d="M499,325v 14" fill="none" stroke="#ff0000" stroke-width="2"/>
<path d="M500,325v 14" fill="none" stroke="#ff0000" stroke-width="2"/>
<path d="M500,325v 14" fill="none" stroke="#ff0000" stroke-width="2"/>
<path d="M501,325v 14" fill="none" stroke="#ff0000" stroke-width="2"/>
<path d="M502,325v 14" fill="none" stroke="#ff0000" stroke-width="2"/>
<path d="M503,325v 14" fill="none" stroke="#ff0000" stroke-width="2"/>
<path d="M504,325v 14" fill="none" stroke="#ff0000" stroke-width="2"/>
<path d="M504,325v 14" fill="none" stroke="#ff0000" stroke-width="2"/>
<path d="M505,325v 14" fill="none" stroke="#ff0000" stroke-width="2"/>
<path d="M506,325v 14" fill="none" stroke="#ff0000" stroke-width="2"/>
<path d="M507,325v 14" fill="none" stroke="#ff0000" stroke-width="2"/>
<path d="M508,325v 14" fill="none" stroke="#ff0000" stroke-width="2"/>
<path d="M509,325v 14" fill="none" stroke="#ff0000" stroke-width="2"/>
<path d="M509,325v 14" fill="none" stroke="#ff0000" stroke-width="2"/>
<path d="M510,325v 13" fill="none" stroke="#ff0000" stroke-width="2"/>
<path d="M284,229l 1, 13v 23l 1, 12l 1, 5l 1, 3l 1, 1v 3l 1, 2l 1, 1l 1, 1l 1, 2v 1l 1, 2l 1, 1h 1l 1, 2l 1, 1v 1l 1, 1h 1l 1, 2l 1, 1v 1h 2l 1, 2l 1, 1h 1v 1l 1, 1h 1l 1, 1h 1v 1h 1l 1, 1l 1, 1h 1l 1, 1h 1l 1, 1h 1l 1, 1l 1, 1h 3v 1h 2l 1, 1h 1l 1,
 1h 2l 1, 1h 1l 1, 1h 7l 1, 1h 4v 1h 5l 1, 1h 6l 1, 1h 30l 1, 1h 120" fill="none" stroke="#ff0000" stroke-width="2"/>
<rect x="351" y="25" width="205" height="154" fill="white"/>
<path d="M351,179h 205" fill="none" stroke="black"/>
<path d="M556,179v -154" fill="none" stroke="black"/>
<path d="M556,25h -205" fill="none" stroke="black"/>
<path d="M351,25v 154" fill="none" stroke="black"/>
<text x="362" y="38" fill="black" font-size="14" font-family="Helvetica">
Entries 
</text>
<text x="507" y="38" fill="black" font-size="14" font-family="Helvetica">
 6476
</text>
<text x="374" y="58" fill="black" font-size="14" font-family="Helvetica">
 / ndf 
</text>
<text x="369" y="45" fill="black" font-size="10" font-family="Helvetica">
2
</text>
<text x="362" y="58" fill="black" font-size="14" font-family="Times">
&#0967;
</text>
<text x="455" y="55" fill="black" font-size="14" font-family="Helvetica">
  2076 / 1240
</text>
<text x="382" y="68" fill="black" font-size="14" font-family="Helvetica">
   
</text>
<text x="372" y="77" fill="black" font-size="10" font-family="Helvetica">
cu
</text>
<text x="362" y="68" fill="black" font-size="14" font-family="Helvetica">
N
</text>
<text x="511" y="74" fill="black" font-size="14" font-family="Helvetica">
 7.01
</text>
<text x="499" y="74" fill="black" font-size="14" font-family="Times">
&#0177;
</text>
<text x="451" y="74" fill="black" font-size="14" font-family="Helvetica">
 13.24 
</text>
<text x="377" y="87" fill="black" font-size="14" font-family="Helvetica">
 
</text>
<text x="367" y="97" fill="black" font-size="10" font-family="Helvetica">
cu
</text>
<text x="362" y="87" fill="black" font-size="14" font-family="Times">
&#0964;
</text>
<text x="511" y="91" fill="black" font-size="14" font-family="Helvetica">
 52.6
</text>
<text x="499" y="91" fill="black" font-size="14" font-family="Times">
&#0177;
</text>
<text x="451" y="91" fill="black" font-size="14" font-family="Helvetica">
 104.8 
</text>
<text x="375" y="102" fill="black" font-size="14" font-family="Helvetica">
    
</text>
<text x="372" y="111" fill="black" font-size="10" font-family="Helvetica">
f
</text>
<text x="362" y="102" fill="black" font-size="14" font-family="Helvetica">
N
</text>
<text x="503" y="108" fill="black" font-size="14" font-family="Helvetica">
 0.649
</text>
<text x="490" y="108" fill="black" font-size="14" font-family="Times">
&#0177;
</text>
<text x="443" y="108" fill="black" font-size="14" font-family="Helvetica">
 8.102 
</text>
<text x="370" y="121" fill="black" font-size="14" font-family="Helvetica">
 
</text>
<text x="367" y="131" fill="black" font-size="10" font-family="Helvetica">
f
</text>
<text x="362" y="121" fill="black" font-size="14" font-family="Times">
&#0964;
</text>
<text x="503" y="125" fill="black" font-size="14" font-family="Helvetica">
 168.1
</text>
<text x="490" y="125" fill="black" font-size="14" font-family="Times">
&#0177;
</text>
<text x="443" y="125" fill="black" font-size="14" font-family="Helvetica">
  2087 
</text>
<text x="384" y="137" fill="black" font-size="14" font-family="Helvetica">
  
</text>
<text x="372" y="146" fill="black" font-size="10" font-family="Helvetica">
sin
</text>
<text x="362" y="137" fill="black" font-size="14" font-family="Helvetica">
N
</text>
<text x="520" y="142" fill="black" font-size="14" font-family="Helvetica">
 0.0
</text>
<text x="507" y="142" fill="black" font-size="14" font-family="Times">
&#0177;
</text>
<text x="473" y="142" fill="black" font-size="14" font-family="Helvetica">
     1 
</text>
<text x="362" y="158" fill="black" font-size="14" font-family="Helvetica">
T        
</text>
<text x="511" y="159" fill="black" font-size="14" font-family="Helvetica">
 0.01
</text>
<text x="499" y="159" fill="black" font-size="14" font-family="Times">
&#0177;
</text>
<text x="451" y="159" fill="black" font-size="14" font-family="Helvetica">
 59.57 
</text>
<text x="377" y="171" fill="black" font-size="14" font-family="Helvetica">
    
</text>
<text x="372" y="180" fill="black" font-size="10" font-family="Helvetica">
b
</text>
<text x="362" y="171" fill="black" font-size="14" font-family="Helvetica">
N
</text>
<text x="503" y="176" fill="black" font-size="14" font-family="Helvetica">
 0.052
</text>
<text x="490" y="176" fill="black" font-size="14" font-family="Times">
&#0177;
</text>
<text x="443" y="176" fill="black" font-size="14" font-family="Helvetica">
 2.169 
</text>
<path d="M57,346h 453" fill="none" stroke="black"/>
<text x="419" y="372" fill="black" font-size="12" font-family="Helvetica">
TDC-TDC0 (ns)
</text>
<path d="M57,337v 9" fill="none" stroke="black"/>
<path d="M68,342v 4" fill="none" stroke="black"/>
<path d="M79,342v 4" fill="none" stroke="black"/>
<path d="M91,342v 4" fill="none" stroke="black"/>
<path d="M102,342v 4" fill="none" stroke="black"/>
<path d="M113,337v 9" fill="none" stroke="black"/>
<path d="M125,342v 4" fill="none" stroke="black"/>
<path d="M136,342v 4" fill="none" stroke="black"/>
<path d="M147,342v 4" fill="none" stroke="black"/>
<path d="M159,342v 4" fill="none" stroke="black"/>
<path d="M170,337v 9" fill="none" stroke="black"/>
<path d="M181,342v 4" fill="none" stroke="black"/>
<path d="M193,342v 4" fill="none" stroke="black"/>
<path d="M204,342v 4" fill="none" stroke="black"/>
<path d="M215,342v 4" fill="none" stroke="black"/>
<path d="M227,337v 9" fill="none" stroke="black"/>
<path d="M238,342v 4" fill="none" stroke="black"/>
<path d="M249,342v 4" fill="none" stroke="black"/>
<path d="M261,342v 4" fill="none" stroke="black"/>
<path d="M272,342v 4" fill="none" stroke="black"/>
<path d="M283,337v 9" fill="none" stroke="black"/>
<path d="M295,342v 4" fill="none" stroke="black"/>
<path d="M306,342v 4" fill="none" stroke="black"/>
<path d="M317,342v 4" fill="none" stroke="black"/>
<path d="M329,342v 4" fill="none" stroke="black"/>
<path d="M340,337v 9" fill="none" stroke="black"/>
<path d="M351,342v 4" fill="none" stroke="black"/>
<path d="M363,342v 4" fill="none" stroke="black"/>
<path d="M374,342v 4" fill="none" stroke="black"/>
<path d="M386,342v 4" fill="none" stroke="black"/>
<path d="M397,337v 9" fill="none" stroke="black"/>
<path d="M408,342v 4" fill="none" stroke="black"/>
<path d="M420,342v 4" fill="none" stroke="black"/>
<path d="M431,342v 4" fill="none" stroke="black"/>
<path d="M442,342v 4" fill="none" stroke="black"/>
<path d="M454,337v 9" fill="none" stroke="black"/>
<path d="M465,342v 4" fill="none" stroke="black"/>
<path d="M476,342v 4" fill="none" stroke="black"/>
<path d="M488,342v 4" fill="none" stroke="black"/>
<path d="M499,342v 4" fill="none" stroke="black"/>
<path d="M510,337v 9" fill="none" stroke="black"/>
<text x="36" y="359" fill="black" font-size="12" font-family="Helvetica">
-20000
</text>
<text x="93" y="359" fill="black" font-size="12" font-family="Helvetica">
-15000
</text>
<text x="149" y="359" fill="black" font-size="12" font-family="Helvetica">
-10000
</text>
<text x="210" y="359" fill="black" font-size="12" font-family="Helvetica">
-5000
</text>
<text x="280" y="359" fill="black" font-size="12" font-family="Helvetica">
0
</text>
<text x="325" y="359" fill="black" font-size="12" font-family="Helvetica">
5000
</text>
<text x="379" y="359" fill="black" font-size="12" font-family="Helvetica">
10000
</text>
<text x="435" y="359" fill="black" font-size="12" font-family="Helvetica">
15000
</text>
<text x="492" y="359" fill="black" font-size="12" font-family="Helvetica">
20000
</text>
<path d="M57,346v -308" fill="none" stroke="black"/>
<g transform="rotate(-90,29,72)">
<text x="29" y="72" fill="black" font-size="12" font-family="Helvetica">
Count
</text>
</g>
<path d="M70,346h -13" fill="none" stroke="black"/>
<path d="M63,340h -6" fill="none" stroke="black"/>
<path d="M63,333h -6" fill="none" stroke="black"/>
<path d="M63,326h -6" fill="none" stroke="black"/>
<path d="M63,320h -6" fill="none" stroke="black"/>
<path d="M70,313h -13" fill="none" stroke="black"/>
<path d="M63,306h -6" fill="none" stroke="black"/>
<path d="M63,300h -6" fill="none" stroke="black"/>
<path d="M63,293h -6" fill="none" stroke="black"/>
<path d="M63,286h -6" fill="none" stroke="black"/>
<path d="M70,280h -13" fill="none" stroke="black"/>
<path d="M63,273h -6" fill="none" stroke="black"/>
<path d="M63,266h -6" fill="none" stroke="black"/>
<path d="M63,260h -6" fill="none" stroke="black"/>
<path d="M63,253h -6" fill="none" stroke="black"/>
<path d="M70,246h -13" fill="none" stroke="black"/>
<path d="M63,240h -6" fill="none" stroke="black"/>
<path d="M63,233h -6" fill="none" stroke="black"/>
<path d="M63,226h -6" fill="none" stroke="black"/>
<path d="M63,220h -6" fill="none" stroke="black"/>
<path d="M70,213h -13" fill="none" stroke="black"/>
<path d="M63,206h -6" fill="none" stroke="black"/>
<path d="M63,200h -6" fill="none" stroke="black"/>
<path d="M63,193h -6" fill="none" stroke="black"/>
<path d="M63,186h -6" fill="none" stroke="black"/>
<path d="M70,180h -13" fill="none" stroke="black"/>
<path d="M63,173h -6" fill="none" stroke="black"/>
<path d="M63,166h -6" fill="none" stroke="black"/>
<path d="M63,160h -6" fill="none" stroke="black"/>
<path d="M63,153h -6" fill="none" stroke="black"/>
<path d="M70,146h -13" fill="none" stroke="black"/>
<path d="M63,140h -6" fill="none" stroke="black"/>
<path d="M63,133h -6" fill="none" stroke="black"/>
<path d="M63,126h -6" fill="none" stroke="black"/>
<path d="M63,120h -6" fill="none" stroke="black"/>
<path d="M70,113h -13" fill="none" stroke="black"/>
<path d="M63,106h -6" fill="none" stroke="black"/>
<path d="M63,100h -6" fill="none" stroke="black"/>
<path d="M63,93h -6" fill="none" stroke="black"/>
<path d="M63,86h -6" fill="none" stroke="black"/>
<path d="M70,80h -13" fill="none" stroke="black"/>
<path d="M63,73h -6" fill="none" stroke="black"/>
<path d="M63,66h -6" fill="none" stroke="black"/>
<path d="M63,60h -6" fill="none" stroke="black"/>
<path d="M63,53h -6" fill="none" stroke="black"/>
<path d="M70,46h -13" fill="none" stroke="black"/>
<path d="M70,46h -13" fill="none" stroke="black"/>
<path d="M63,40h -6" fill="none" stroke="black"/>
<text x="47" y="350" fill="black" font-size="12" font-family="Helvetica">
0
</text>
<text x="47" y="317" fill="black" font-size="12" font-family="Helvetica">
5
</text>
<text x="40" y="283" fill="black" font-size="12" font-family="Helvetica">
10
</text>
<text x="40" y="250" fill="black" font-size="12" font-family="Helvetica">
15
</text>
<text x="40" y="216" fill="black" font-size="12" font-family="Helvetica">
20
</text>
<text x="40" y="183" fill="black" font-size="12" font-family="Helvetica">
25
</text>
<text x="40" y="150" fill="black" font-size="12" font-family="Helvetica">
30
</text>
<text x="40" y="117" fill="black" font-size="12" font-family="Helvetica">
35
</text>
<text x="40" y="84" fill="black" font-size="12" font-family="Helvetica">
40
</text>
<text x="40" y="50" fill="black" font-size="12" font-family="Helvetica">
45
</text>
<rect x="351" y="25" width="205" height="154" fill="white"/>
<path d="M351,179h 205" fill="none" stroke="black"/>
<path d="M556,179v -154" fill="none" stroke="black"/>
<path d="M556,25h -205" fill="none" stroke="black"/>
<path d="M351,25v 154" fill="none" stroke="black"/>
<text x="362" y="38" fill="black" font-size="14" font-family="Helvetica">
Entries 
</text>
<text x="507" y="38" fill="black" font-size="14" font-family="Helvetica">
 6476
</text>
<text x="374" y="58" fill="black" font-size="14" font-family="Helvetica">
 / ndf 
</text>
<text x="369" y="45" fill="black" font-size="10" font-family="Helvetica">
2
</text>
<text x="362" y="58" fill="black" font-size="14" font-family="Times">
&#0967;
</text>
<text x="455" y="55" fill="black" font-size="14" font-family="Helvetica">
  2076 / 1240
</text>
<text x="382" y="68" fill="black" font-size="14" font-family="Helvetica">
   
</text>
<text x="372" y="77" fill="black" font-size="10" font-family="Helvetica">
cu
</text>
<text x="362" y="68" fill="black" font-size="14" font-family="Helvetica">
N
</text>
<text x="511" y="74" fill="black" font-size="14" font-family="Helvetica">
 7.01
</text>
<text x="499" y="74" fill="black" font-size="14" font-family="Times">
&#0177;
</text>
<text x="451" y="74" fill="black" font-size="14" font-family="Helvetica">
 13.24 
</text>
<text x="377" y="87" fill="black" font-size="14" font-family="Helvetica">
 
</text>
<text x="367" y="97" fill="black" font-size="10" font-family="Helvetica">
cu
</text>
<text x="362" y="87" fill="black" font-size="14" font-family="Times">
&#0964;
</text>
<text x="511" y="91" fill="black" font-size="14" font-family="Helvetica">
 52.6
</text>
<text x="499" y="91" fill="black" font-size="14" font-family="Times">
&#0177;
</text>
<text x="451" y="91" fill="black" font-size="14" font-family="Helvetica">
 104.8 
</text>
<text x="375" y="102" fill="black" font-size="14" font-family="Helvetica">
    
</text>
<text x="372" y="111" fill="black" font-size="10" font-family="Helvetica">
f
</text>
<text x="362" y="102" fill="black" font-size="14" font-family="Helvetica">
N
</text>
<text x="503" y="108" fill="black" font-size="14" font-family="Helvetica">
 0.649
</text>
<text x="490" y="108" fill="black" font-size="14" font-family="Times">
&#0177;
</text>
<text x="443" y="108" fill="black" font-size="14" font-family="Helvetica">
 8.102 
</text>
<text x="370" y="121" fill="black" font-size="14" font-family="Helvetica">
 
</text>
<text x="367" y="131" fill="black" font-size="10" font-family="Helvetica">
f
</text>
<text x="362" y="121" fill="black" font-size="14" font-family="Times">
&#0964;
</text>
<text x="503" y="125" fill="black" font-size="14" font-family="Helvetica">
 168.1
</text>
<text x="490" y="125" fill="black" font-size="14" font-family="Times">
&#0177;
</text>
<text x="443" y="125" fill="black" font-size="14" font-family="Helvetica">
  2087 
</text>
<text x="384" y="137" fill="black" font-size="14" font-family="Helvetica">
  
</text>
<text x="372" y="146" fill="black" font-size="10" font-family="Helvetica">
sin
</text>
<text x="362" y="137" fill="black" font-size="14" font-family="Helvetica">
N
</text>
<text x="520" y="142" fill="black" font-size="14" font-family="Helvetica">
 0.0
</text>
<text x="507" y="142" fill="black" font-size="14" font-family="Times">
&#0177;
</text>
<text x="473" y="142" fill="black" font-size="14" font-family="Helvetica">
     1 
</text>
<text x="362" y="158" fill="black" font-size="14" font-family="Helvetica">
T        
</text>
<text x="511" y="159" fill="black" font-size="14" font-family="Helvetica">
 0.01
</text>
<text x="499" y="159" fill="black" font-size="14" font-family="Times">
&#0177;
</text>
<text x="451" y="159" fill="black" font-size="14" font-family="Helvetica">
 59.57 
</text>
<text x="377" y="171" fill="black" font-size="14" font-family="Helvetica">
    
</text>
<text x="372" y="180" fill="black" font-size="10" font-family="Helvetica">
b
</text>
<text x="362" y="171" fill="black" font-size="14" font-family="Helvetica">
N
</text>
<text x="503" y="176" fill="black" font-size="14" font-family="Helvetica">
 0.052
</text>
<text x="490" y="176" fill="black" font-size="14" font-family="Times">
&#0177;
</text>
<text x="443" y="176" fill="black" font-size="14" font-family="Helvetica">
 2.169 
</text>
<text x="270" y="21" fill="black" font-size="21" font-family="Helvetica">
D5
</text></svg>
