<?xml version="1.0" standalone="no"?>
<svg width="567" height="385" viewBox="0 0 567 385" xmlns="http://www.w3.org/2000/svg">
<title>
images/analysis_g4bl_tight/451_D3.svg
</title>
<desc>
Creator: ROOT Version 5.34/05
CreationDate: Mon Jun 10 21:50:09 2013</desc>
<defs>
</defs>
<rect x="0" y="0" width="567" height="385" fill="white"/>
<rect x="57" y="38" width="453" height="308" fill="white"/>
<rect x="57" y="38" width="453" height="308" fill="none" stroke="black"/>
<rect x="57" y="38" width="453" height="308" fill="white"/>
<rect x="57" y="38" width="453" height="308" fill="none" stroke="black"/>
<path d="M57,346h 44v -1v 1h 1v -1v 1v -26h 1v 15v -20v 24h 1v -15v 13v -26h 1v 26v -32v 32v -2h 1v -13v 13v -26h 1v 23v -19v 19h 1v -19v 19v -4h 1v -4v 6v -23v 23h 1v -23v 25v -10h 1v 13v -17v 15h 1v -13v 13v -20h 1v 24v -30v 34h 1v -28v 26v -21h 1v
 21v -32v 21h 1v -11v 18v -15h 1v 13v -16v 24h 1v -26v 18v -7h 1v -6v 15v -22v 13h 1v 2v -11v 15v -2h 1v -30v 32v -6h 1v 2v -13v 15h 1v -4v 11v -17v 12h 1v -8v 4v -4v 13h 1v -7v 3v -16v 9h 1v 6v -15v 15h 1v -14v 12v -6v 9v -18v 11h 1v 6v -14v 15h 1v
 -20v 24v -15h 1v 8v -8v 17h 1v -21v 10v -6h 1v 6v -4v 6h 1v -6v 11v -15h 1v 13v -18v 13h 1v -8v 15v -13v 6h 1v 9v -15v 11h 1v -22v 24v -24h 1v 17v -8v 6h 1v 2v -15v 11v -13v 11h 1v 10v -8v 6h 1v -8v 11v -11h 1v 17v -24v 11h 1v -9v 15v -17v 3h 1v 19v
 -17v 10h 1v -13v 15v -17h 1v 18v -15v 14h 1v -19v 19h 1v -6v 6v -8v 6h 1v -15v 20v -13h 1v 10v -17v 17h 1v -30v 26v -11h 1v -8v 24v -22v 13h 1v -6v 10v -6h 1v -15v 28v -15v 4v -6v 15h 1v -11v 13v -5h 1v -2v 7v -7v 13h 1v -23v 8v -6h 1v 8v -4v 9v
 -16v 11h 1v -6v 15v -9h 1v -15v 24v -30v 15h 1v 8v -10v 8v -2h 1v -8v 10v -13v 5h 1v 10v -15v 20v -7h 1v 7v -7v 5v -13h 1v 19v -17v 13h 1v -17v 19v -19h 1v 19v -17v 10v -8h 1v -17v 32v -9h 1v 9v -22v 20h 1v -26v 21v -32h 1v 32v -4v 6h 1v -15v 15v
 -12h 1v 10v -17v 13h 1v 13v -24v 24v -19v 12v -19h 1v 15v -11v 18h 1v -13v 11v -3h 1v -6v 13v -24v 17h 1v 2v -32v 33v -7h 1v -6v 10v -17h 1v 20v -9v 4v -4h 1v -2v 13v -15v 10h 1v 2v -23v 26v -15h 1v -2v 10v -6v 4h 1v -15v 22v -9h 1v -4v 12v -19v 19h
 1v -19v 17v -8h 1v -5v 18v -18v 11h 1v -11v 18v -7h 1v -19v 23v -19v 28h 1v -28v 17v -4v 4h 1v -8v 10v -12v 4v -2v 11h 1v -28v 25v -6v 13h 1v -41v 30v -11v 7h 1v 11v -20v 17v -8h 1v -9v 20v -22v 11h 1v 6v -6v 10h 1v -15v 18v -26v 15h 1v 11v -41v 36v
 -6h 1v 8v -6v 13v -26v 22h 1v -15v 8v -6h 1v 15v -22v 17h 1v 7v -17v 11v -7h 1v -9v 11v -6v 10v -25h 1v 23v -10v 12h 1v -15v 16v -13h 1v 13v -22v 15h 1v 4v -13v 16v -31h 1v 31v -15v 14h 1v 5v -20v 16v -15h 1v 12v -19v 19h 1v -10v 6v -15h 1v 9v -3v
 7v -2h 1v -5v 26v -28h 1v 15v -17v 22h 1v 2v -20v 11v -2v 7v -13h 1v 8v -17v 22h 1v -15v 12v -27h 1v 25v -10v 6h 1v -6v 6v -22v 28v -21h 1v 21v -8v 4h 1v -8v 10v -6h 1v -15v 25v -32h 1v 20v -9v 7v -5v 7h 1v -2v 14v -21h 1v 19v -15v 22h 1v -26v 22v
 -16v 20h 1v -15v 6h 1v -15v 11v -15v 15h 1v 2v -23v 29h 1v -17v 18v -20v 11h 1v 2v -15v 24v -9h 1v -11v 20v -20v 11h 1v 11v -22v 15h 1v -12v 8v -11v 18v -16v 1h 1v 4v -13v 23v -14h 1v 4v -13v 24v -11h 1v 10v -15v 20v -22h 1v 3v -11v 23v -12h 1v 17v
 -17v 2h 1v 6v -8v 14v -19h 1v 15v -10v 4v -13v 13h 1v 10v -30v 26v -26h 1v 33v -17v 12h 1v -19v 15v -13v 11h 1v -19v 25h 1v -19v 21h 1v -12v 8v -10v 8h 1v 2v -25v 30v -18h 1v -4v 19v -15v 7h 1v 2v -9v 18v -26h 1v 28v -30h 1v 30v -26v 17v -9h 1v -4v
 15v -13v 13h 1v -8v 10v -27h 1v 34v -28v 13h 1v 8v -10v 12v -6h 1v -15v 21v -15h 1v -2v 5v -5v 11v -9h 1v 15v -27v 15h 1v 8v -15v 22v -9h 1v -17v 23v -15h 1v 18v -20v 13v -8h 1v -15v 15v -18h 1v 18v -2v 2v -11v 11h 1v 4v -4v 4v -21h 1v 17v -5v 11v
 -6h 1v -3v 5v -5v 11h 1v -23v 28v -5h 1v -23v 23v -21v 17h 1v -32v 32v -7h 1v -15v 30v -30h 1v 28v -28v 24v -8h 1v -5v 19v -27h 1v 25v -17v 15h 1v -17v 19v -21h 1v 21v -23v 19h 1v -19v 17v -19h 1v 27v -29v 30h 1v -28v 15v -13v 8h 1v -10v 15v -17v
 25h 1v -19v 9v -1v 3v -13h 1v 13v -33v 41h 1v 18v -293v 60h 1v 104v -56h 1v 32v -11v 60v -34v 28h 1v -33v 29h 1v -28v 38v -30v 15h 1v 4v -14v 23v -15h 1v 21v -23v 26v -22h 1v 26v -34v 38h 1v -13v 2v -12v 15v -15h 1v 25v -19v 22h 1v -35v 20v -18v 60v
 -23h 1v -28v 41v -48h 1v 46v -52v 41v -2h 1v -17v 25v -8h 1v 10v -17v 13v -13v 15h 1v -6v 9v -16v 3h 1v 41v -43v 23h 1v -47v 49v -17h 1v 4v -19v 17v -8v 10h 1v 26v -38h 1v 15v -1v 13v -13v 7h 1v -32v 38v -15h 1v 15v -17v 13v -9v 20v -15h 1v 10v -4v
 11v -21h 1v 42v -55v 36h 1v -13v 15v -23v 4h 1v -2v 17v -15v 32h 1v -24v 16v -39h 1v 30v -7v 1h 1v 4v -22v 33v -20v 9h 1v 23v -30h 1v 7v -22v 30v -36v 24h 1v 12v -8v 6v -15h 1v 9v -2v 11v -22v 11h 1v -3v 18v -11v 26h 1v -17v 8v -21h 1v 17v -17v 13h
 1v -20v 15v -2v 7v -9h 1v 15v -26v 13h 1v 17v -30v 32v -28v 3v -13h 1v 41v -26v 8h 1v -12v 17v -17v 19v -7h 1v 20v -15v 13h 1v -11v 6v -19v 22v -7h 1v -8v 14v -10v 10h 1v -19v 20v -11v 13h 1v -22v 19v -25v 8h 1v 24v -22v 18v -5h 1v -6v 13v -22v 11h
 1v 13v -26v 15v -15h 1v 28v -17h 1v 9v -11v 4h 1v -11v 30v -23h 1v -2v 21v -23v 17h 1v -13v 2v -2h 1v 13v -11v 2v -6v 17v -17h 1v 13v -11v 13v -17v 2h 1v 12v -17v 22h 1v -15v 15v -9v 9v -24h 1v 28v -21v 15h 1v -9v 15v -9h 1v -6v 13v -9v 5h 1v -24v
 26v -13h 1v 26v -33v 26v -15h 1v -8v 25v -10h 1v -11v 21h 1v -13v 11v -23h 1v 17v -4v 4v -7h 1v -2v 4v -10v 28v -24v 15h 1v -4v 10v -17v 5v -2h 1v -7v 15v -4h 1v 15v -11v 7v -20v 20h 1v -24v 17v -15h 1v 13v -15v 21h 1v -25v 23v -28h 1v 28v -26v 30h
 1v -14v 8v -2v 9v -24h 1v 15v -11v 11h 1v 9v -24v 2h 1v 13v -21v 27h 1v -6v 2v -4v 8v -15h 1v 26v -36v 13h 1v 2v -3v 11h 1v -32v 28v -21v 19h 1v 15v -34v 19v -9h 1v 11v -11v 9h 1v 11v -22v 22v -13h 1v -2v 8v -2v 8v -14h 1v 8v -17v 19h 1v -13v 22v
 -15v 2v -13h 1v 17v -21v 19v -2h 1v -15v 17v -21h 1v 27v -14v 8h 1v -11v 17v -29h 1v 25v -17v 17v -4h 1v -13v 17v -17h 1v 17v -6v 4v -11h 1v 17v -21h 1v 21v -6v 6v -8h 1v -19v 25v -34h 1v 39v -18v 9v -6h 1v -7v 20v -15h 1v 12v -19v 15v -4h 1v -7v
 17v -14h 1v 14v -12v 2v -5v 16h 1v -22v 24v -18h 1v -14v 27v -8v 10h 1v -15v 1v -11v 15h 1v -5v 15v -14v 6h 1v 2v -6v 12v -15h 1v 7v -9v 15h 1v 2v -14v 12v -17h 1v 17v -2v 7v -17v 10h 1v 5v -18v 20v -11h 1v -2v 17v -24v 7h 1v 6v -13v 17v -15h 1v 13v
 -17v 17h 1v -17v 22v -7h 1v 4v -29v 15h 1v 10v -13v 17v -6h 1v -13v 19h 1v -10v 6v -11h 1v -2v 18v -18v 13h 1v -8v 6v -17h 1v 21v -17h 1v 11v -9v 13h 1v -10v 19v -17v 4v -7h 1v 22v -19v 8h 1v -10v 6v -2v 6v -13h 1v 22v -11h 1v 6v -21h 1v 32v -32v
 21h 1v -4v 7v -26h 1v 24v -30v 32v -17h 1v -7v 32v -13h 1v -8v 4v -2v 19h 1v -25v 21v -30h 1v 24v -18v 7h 1v 4v -11v 26v -17h 1v -2v 15v -15v 11h 1v -5v 2v -2v 7v -11h 1v 2v -4v 11v -15v 12h 1v 2v -14v 15h 1v -9v 11v -5v 3v -11v 13h 1v -13v 4v -2v
 13h 1v -19v 15v -18v 13h 1v -10v 10v -10v 10v -8h 1v -2v 8v -21v 27h 1v 3v -18v 15h 1v -25v 28v -13h 1v 8v -15v 22v -13h 1v -2v 6v -21v 15h 1v 8v -10v 13v -15h 1v -9v 17v -6v 4v -7h 1v 15v -34v 35h 1v -5v 7v -17h 1v 12v -15v 17v -17h 1v 28v -28h 1v
 26v -30v 19v -6v 11h 1v -20v 15v -15v 9h 1v 8v -21v 22h 1v -24v 23v -23h 1v 19v -6v 4v -4v 11h 1v -7v 6v -10v 4h 1v 7v -13v 10h 1v -19v 22v -16h 1v 15v -21v 19v -8h 1v -9v 24v -32h 1v 27v -4v 7v -7v 9v -5h 1v -17v 18v -15v 2h 1v 15v -22v 11v -2v 13h
 1v -26v 21v -10h 1v -2v 12v -17v 13h 1v 4v -4v 7v -16h 1v 16v -15v 10v -2h 1v -6v 15v -17h 1v -3v 9v -15v 24h 1v -20v 15v -10h 1v 8v -11v 11v -21v 27h 1v -4v 11v -22h 1v 13v -13v 3v -2v 17h 1v -24v 26v -9h 1v -10v 14v -14v 17v -13v 8h 1v -25v 28h 1v
 -20v 20v -7v 13h 1v -15v 9h 1v -13v 13v -1v 1v -3v 2h 1v -19v 17v -4h 1v -11v 15v -28v 28h 1v 3v -26v 32v -11h 1v -8v 6v -19v 15h 1v 6v -19v 24v -7h 1v 4v -6v 17v -26v 9h 1v 9v -7v 11v -7h 1v -8v 10v -12h 1v 8v -38v 40v -2h 1v -15v 15v -19v 13h 1v
 -9v 13v -6v 8v -11h 1v 16v -13h 1v 19v -28v 17h 1v -15v 15v -2h 1v 6v -14v 15v -3h 1v -13v 15v -8h 1v 15v -22v 11h 1v -11v 15v -12h 1v 6v -6v 15v -2h 1v -15v 17v -24h 1v 22v -20v 17v -4h 1v -15v 17v -13h 1v 15v -15v 15v -10h 1v 6v -13v 24v -17h 1v
 12v -14v 15h 1v -24v 15v -7v 7h 1v -21v 30v -9v 8h 1v 5v -19v 10v -8h 1v -2v 17v -11v 8h 1v -17v 18h 1v -9v 8v -17v 18h 1v -13v 13v -16h 1v -12v 27v -8v 8v -4h 1v 11v -24v 17h 1v -27v 21v -11v 15h 1v -17v 19h 1v 1v -16v 13h 1v 3v -28v 32h 1v -24v
 13v -11v 13h 1v 2v -8v 15h 1v -22v 26" fill="none" stroke="#000099"/>
<path d="M284,190v 8" fill="none" stroke="#ff0000" stroke-width="2"/>
<path d="M285,190v 17" fill="none" stroke="#ff0000" stroke-width="2"/>
<path d="M285,204v 16" fill="none" stroke="#ff0000" stroke-width="2"/>
<path d="M286,212v 16" fill="none" stroke="#ff0000" stroke-width="2"/>
<path d="M287,217v 16" fill="none" stroke="#ff0000" stroke-width="2"/>
<path d="M288,222v 15" fill="none" stroke="#ff0000" stroke-width="2"/>
<path d="M289,226v 15" fill="none" stroke="#ff0000" stroke-width="2"/>
<path d="M289,233v 14" fill="none" stroke="#ff0000" stroke-width="2"/>
<path d="M290,235v 15" fill="none" stroke="#ff0000" stroke-width="2"/>
<path d="M291,238v 15" fill="none" stroke="#ff0000" stroke-width="2"/>
<path d="M292,241v 14" fill="none" stroke="#ff0000" stroke-width="2"/>
<path d="M293,244v 13" fill="none" stroke="#ff0000" stroke-width="2"/>
<path d="M293,247v 14" fill="none" stroke="#ff0000" stroke-width="2"/>
<path d="M294,250v 14" fill="none" stroke="#ff0000" stroke-width="2"/>
<path d="M295,251v 14" fill="none" stroke="#ff0000" stroke-width="2"/>
<path d="M296,253v 14" fill="none" stroke="#ff0000" stroke-width="2"/>
<path d="M297,256v 13" fill="none" stroke="#ff0000" stroke-width="2"/>
<path d="M298,258v 15" fill="none" stroke="#ff0000" stroke-width="2"/>
<path d="M298,260v 14" fill="none" stroke="#ff0000" stroke-width="2"/>
<path d="M299,261v 15" fill="none" stroke="#ff0000" stroke-width="2"/>
<path d="M300,263v 14" fill="none" stroke="#ff0000" stroke-width="2"/>
<path d="M301,266v 12" fill="none" stroke="#ff0000" stroke-width="2"/>
<path d="M302,268v 14" fill="none" stroke="#ff0000" stroke-width="2"/>
<path d="M302,269v 13" fill="none" stroke="#ff0000" stroke-width="2"/>
<path d="M303,270v 14" fill="none" stroke="#ff0000" stroke-width="2"/>
<path d="M304,272v 13" fill="none" stroke="#ff0000" stroke-width="2"/>
<path d="M305,273v 13" fill="none" stroke="#ff0000" stroke-width="2"/>
<path d="M306,275v 14" fill="none" stroke="#ff0000" stroke-width="2"/>
<path d="M307,276v 14" fill="none" stroke="#ff0000" stroke-width="2"/>
<path d="M307,277v 14" fill="none" stroke="#ff0000" stroke-width="2"/>
<path d="M308,279v 13" fill="none" stroke="#ff0000" stroke-width="2"/>
<path d="M309,281v 13" fill="none" stroke="#ff0000" stroke-width="2"/>
<path d="M310,282v 13" fill="none" stroke="#ff0000" stroke-width="2"/>
<path d="M311,282v 14" fill="none" stroke="#ff0000" stroke-width="2"/>
<path d="M311,283v 14" fill="none" stroke="#ff0000" stroke-width="2"/>
<path d="M312,285v 13" fill="none" stroke="#ff0000" stroke-width="2"/>
<path d="M313,286v 13" fill="none" stroke="#ff0000" stroke-width="2"/>
<path d="M314,287v 13" fill="none" stroke="#ff0000" stroke-width="2"/>
<path d="M315,288v 13" fill="none" stroke="#ff0000" stroke-width="2"/>
<path d="M315,289v 13" fill="none" stroke="#ff0000" stroke-width="2"/>
<path d="M316,290v 13" fill="none" stroke="#ff0000" stroke-width="2"/>
<path d="M317,291v 13" fill="none" stroke="#ff0000" stroke-width="2"/>
<path d="M318,291v 14" fill="none" stroke="#ff0000" stroke-width="2"/>
<path d="M319,292v 14" fill="none" stroke="#ff0000" stroke-width="2"/>
<path d="M320,293v 14" fill="none" stroke="#ff0000" stroke-width="2"/>
<path d="M320,295v 12" fill="none" stroke="#ff0000" stroke-width="2"/>
<path d="M321,295v 13" fill="none" stroke="#ff0000" stroke-width="2"/>
<path d="M322,295v 14" fill="none" stroke="#ff0000" stroke-width="2"/>
<path d="M323,296v 13" fill="none" stroke="#ff0000" stroke-width="2"/>
<path d="M324,297v 13" fill="none" stroke="#ff0000" stroke-width="2"/>
<path d="M324,298v 13" fill="none" stroke="#ff0000" stroke-width="2"/>
<path d="M325,299v 13" fill="none" stroke="#ff0000" stroke-width="2"/>
<path d="M326,299v 14" fill="none" stroke="#ff0000" stroke-width="2"/>
<path d="M327,299v 14" fill="none" stroke="#ff0000" stroke-width="2"/>
<path d="M328,300v 13" fill="none" stroke="#ff0000" stroke-width="2"/>
<path d="M329,301v 13" fill="none" stroke="#ff0000" stroke-width="2"/>
<path d="M329,301v 14" fill="none" stroke="#ff0000" stroke-width="2"/>
<path d="M330,302v 13" fill="none" stroke="#ff0000" stroke-width="2"/>
<path d="M331,302v 14" fill="none" stroke="#ff0000" stroke-width="2"/>
<path d="M332,303v 13" fill="none" stroke="#ff0000" stroke-width="2"/>
<path d="M333,304v 13" fill="none" stroke="#ff0000" stroke-width="2"/>
<path d="M333,304v 13" fill="none" stroke="#ff0000" stroke-width="2"/>
<path d="M334,304v 13" fill="none" stroke="#ff0000" stroke-width="2"/>
<path d="M335,305v 13" fill="none" stroke="#ff0000" stroke-width="2"/>
<path d="M336,305v 13" fill="none" stroke="#ff0000" stroke-width="2"/>
<path d="M337,306v 13" fill="none" stroke="#ff0000" stroke-width="2"/>
<path d="M337,306v 13" fill="none" stroke="#ff0000" stroke-width="2"/>
<path d="M338,306v 14" fill="none" stroke="#ff0000" stroke-width="2"/>
<path d="M339,307v 13" fill="none" stroke="#ff0000" stroke-width="2"/>
<path d="M340,307v 14" fill="none" stroke="#ff0000" stroke-width="2"/>
<path d="M341,308v 13" fill="none" stroke="#ff0000" stroke-width="2"/>
<path d="M342,308v 13" fill="none" stroke="#ff0000" stroke-width="2"/>
<path d="M342,308v 13" fill="none" stroke="#ff0000" stroke-width="2"/>
<path d="M343,308v 13" fill="none" stroke="#ff0000" stroke-width="2"/>
<path d="M344,308v 14" fill="none" stroke="#ff0000" stroke-width="2"/>
<path d="M345,309v 13" fill="none" stroke="#ff0000" stroke-width="2"/>
<path d="M346,309v 13" fill="none" stroke="#ff0000" stroke-width="2"/>
<path d="M346,309v 14" fill="none" stroke="#ff0000" stroke-width="2"/>
<path d="M347,310v 13" fill="none" stroke="#ff0000" stroke-width="2"/>
<path d="M348,310v 13" fill="none" stroke="#ff0000" stroke-width="2"/>
<path d="M349,310v 14" fill="none" stroke="#ff0000" stroke-width="2"/>
<path d="M350,311v 13" fill="none" stroke="#ff0000" stroke-width="2"/>
<path d="M351,311v 13" fill="none" stroke="#ff0000" stroke-width="2"/>
<path d="M351,311v 13" fill="none" stroke="#ff0000" stroke-width="2"/>
<path d="M352,312v 13" fill="none" stroke="#ff0000" stroke-width="2"/>
<path d="M353,312v 13" fill="none" stroke="#ff0000" stroke-width="2"/>
<path d="M354,312v 13" fill="none" stroke="#ff0000" stroke-width="2"/>
<path d="M355,312v 13" fill="none" stroke="#ff0000" stroke-width="2"/>
<path d="M355,313v 13" fill="none" stroke="#ff0000" stroke-width="2"/>
<path d="M356,313v 13" fill="none" stroke="#ff0000" stroke-width="2"/>
<path d="M357,313v 13" fill="none" stroke="#ff0000" stroke-width="2"/>
<path d="M358,313v 13" fill="none" stroke="#ff0000" stroke-width="2"/>
<path d="M359,313v 13" fill="none" stroke="#ff0000" stroke-width="2"/>
<path d="M359,313v 13" fill="none" stroke="#ff0000" stroke-width="2"/>
<path d="M360,313v 13" fill="none" stroke="#ff0000" stroke-width="2"/>
<path d="M361,313v 13" fill="none" stroke="#ff0000" stroke-width="2"/>
<path d="M362,313v 13" fill="none" stroke="#ff0000" stroke-width="2"/>
<path d="M363,313v 14" fill="none" stroke="#ff0000" stroke-width="2"/>
<path d="M364,314v 13" fill="none" stroke="#ff0000" stroke-width="2"/>
<path d="M364,314v 13" fill="none" stroke="#ff0000" stroke-width="2"/>
<path d="M365,314v 13" fill="none" stroke="#ff0000" stroke-width="2"/>
<path d="M366,314v 13" fill="none" stroke="#ff0000" stroke-width="2"/>
<path d="M367,314v 13" fill="none" stroke="#ff0000" stroke-width="2"/>
<path d="M368,314v 14" fill="none" stroke="#ff0000" stroke-width="2"/>
<path d="M368,314v 14" fill="none" stroke="#ff0000" stroke-width="2"/>
<path d="M369,315v 13" fill="none" stroke="#ff0000" stroke-width="2"/>
<path d="M370,315v 13" fill="none" stroke="#ff0000" stroke-width="2"/>
<path d="M371,315v 13" fill="none" stroke="#ff0000" stroke-width="2"/>
<path d="M372,315v 13" fill="none" stroke="#ff0000" stroke-width="2"/>
<path d="M372,315v 13" fill="none" stroke="#ff0000" stroke-width="2"/>
<path d="M373,315v 13" fill="none" stroke="#ff0000" stroke-width="2"/>
<path d="M374,315v 14" fill="none" stroke="#ff0000" stroke-width="2"/>
<path d="M375,316v 13" fill="none" stroke="#ff0000" stroke-width="2"/>
<path d="M376,316v 13" fill="none" stroke="#ff0000" stroke-width="2"/>
<path d="M377,316v 13" fill="none" stroke="#ff0000" stroke-width="2"/>
<path d="M377,316v 13" fill="none" stroke="#ff0000" stroke-width="2"/>
<path d="M378,316v 13" fill="none" stroke="#ff0000" stroke-width="2"/>
<path d="M379,316v 13" fill="none" stroke="#ff0000" stroke-width="2"/>
<path d="M380,316v 13" fill="none" stroke="#ff0000" stroke-width="2"/>
<path d="M381,316v 13" fill="none" stroke="#ff0000" stroke-width="2"/>
<path d="M381,316v 13" fill="none" stroke="#ff0000" stroke-width="2"/>
<path d="M382,316v 13" fill="none" stroke="#ff0000" stroke-width="2"/>
<path d="M383,316v 14" fill="none" stroke="#ff0000" stroke-width="2"/>
<path d="M384,316v 14" fill="none" stroke="#ff0000" stroke-width="2"/>
<path d="M385,317v 13" fill="none" stroke="#ff0000" stroke-width="2"/>
<path d="M386,317v 13" fill="none" stroke="#ff0000" stroke-width="2"/>
<path d="M386,317v 13" fill="none" stroke="#ff0000" stroke-width="2"/>
<path d="M387,317v 13" fill="none" stroke="#ff0000" stroke-width="2"/>
<path d="M388,317v 13" fill="none" stroke="#ff0000" stroke-width="2"/>
<path d="M389,317v 13" fill="none" stroke="#ff0000" stroke-width="2"/>
<path d="M390,317v 13" fill="none" stroke="#ff0000" stroke-width="2"/>
<path d="M390,317v 13" fill="none" stroke="#ff0000" stroke-width="2"/>
<path d="M391,317v 13" fill="none" stroke="#ff0000" stroke-width="2"/>
<path d="M392,317v 13" fill="none" stroke="#ff0000" stroke-width="2"/>
<path d="M393,317v 13" fill="none" stroke="#ff0000" stroke-width="2"/>
<path d="M394,317v 13" fill="none" stroke="#ff0000" stroke-width="2"/>
<path d="M394,317v 13" fill="none" stroke="#ff0000" stroke-width="2"/>
<path d="M395,317v 13" fill="none" stroke="#ff0000" stroke-width="2"/>
<path d="M396,317v 13" fill="none" stroke="#ff0000" stroke-width="2"/>
<path d="M397,317v 13" fill="none" stroke="#ff0000" stroke-width="2"/>
<path d="M398,317v 13" fill="none" stroke="#ff0000" stroke-width="2"/>
<path d="M399,317v 13" fill="none" stroke="#ff0000" stroke-width="2"/>
<path d="M399,317v 13" fill="none" stroke="#ff0000" stroke-width="2"/>
<path d="M400,317v 13" fill="none" stroke="#ff0000" stroke-width="2"/>
<path d="M401,317v 13" fill="none" stroke="#ff0000" stroke-width="2"/>
<path d="M402,317v 13" fill="none" stroke="#ff0000" stroke-width="2"/>
<path d="M403,317v 13" fill="none" stroke="#ff0000" stroke-width="2"/>
<path d="M403,317v 13" fill="none" stroke="#ff0000" stroke-width="2"/>
<path d="M404,317v 13" fill="none" stroke="#ff0000" stroke-width="2"/>
<path d="M405,317v 13" fill="none" stroke="#ff0000" stroke-width="2"/>
<path d="M406,317v 13" fill="none" stroke="#ff0000" stroke-width="2"/>
<path d="M407,317v 13" fill="none" stroke="#ff0000" stroke-width="2"/>
<path d="M408,317v 13" fill="none" stroke="#ff0000" stroke-width="2"/>
<path d="M408,317v 13" fill="none" stroke="#ff0000" stroke-width="2"/>
<path d="M409,317v 13" fill="none" stroke="#ff0000" stroke-width="2"/>
<path d="M410,317v 13" fill="none" stroke="#ff0000" stroke-width="2"/>
<path d="M411,317v 13" fill="none" stroke="#ff0000" stroke-width="2"/>
<path d="M412,317v 13" fill="none" stroke="#ff0000" stroke-width="2"/>
<path d="M412,317v 13" fill="none" stroke="#ff0000" stroke-width="2"/>
<path d="M413,317v 13" fill="none" stroke="#ff0000" stroke-width="2"/>
<path d="M414,317v 13" fill="none" stroke="#ff0000" stroke-width="2"/>
<path d="M415,317v 13" fill="none" stroke="#ff0000" stroke-width="2"/>
<path d="M416,317v 13" fill="none" stroke="#ff0000" stroke-width="2"/>
<path d="M416,317v 13" fill="none" stroke="#ff0000" stroke-width="2"/>
<path d="M417,317v 13" fill="none" stroke="#ff0000" stroke-width="2"/>
<path d="M418,317v 13" fill="none" stroke="#ff0000" stroke-width="2"/>
<path d="M419,317v 13" fill="none" stroke="#ff0000" stroke-width="2"/>
<path d="M420,317v 13" fill="none" stroke="#ff0000" stroke-width="2"/>
<path d="M421,317v 13" fill="none" stroke="#ff0000" stroke-width="2"/>
<path d="M421,317v 13" fill="none" stroke="#ff0000" stroke-width="2"/>
<path d="M422,317v 13" fill="none" stroke="#ff0000" stroke-width="2"/>
<path d="M423,317v 13" fill="none" stroke="#ff0000" stroke-width="2"/>
<path d="M424,317v 13" fill="none" stroke="#ff0000" stroke-width="2"/>
<path d="M425,317v 13" fill="none" stroke="#ff0000" stroke-width="2"/>
<path d="M425,317v 13" fill="none" stroke="#ff0000" stroke-width="2"/>
<path d="M426,317v 13" fill="none" stroke="#ff0000" stroke-width="2"/>
<path d="M427,317v 14" fill="none" stroke="#ff0000" stroke-width="2"/>
<path d="M428,317v 14" fill="none" stroke="#ff0000" stroke-width="2"/>
<path d="M429,317v 14" fill="none" stroke="#ff0000" stroke-width="2"/>
<path d="M430,317v 14" fill="none" stroke="#ff0000" stroke-width="2"/>
<path d="M430,317v 14" fill="none" stroke="#ff0000" stroke-width="2"/>
<path d="M431,317v 14" fill="none" stroke="#ff0000" stroke-width="2"/>
<path d="M432,317v 14" fill="none" stroke="#ff0000" stroke-width="2"/>
<path d="M433,317v 14" fill="none" stroke="#ff0000" stroke-width="2"/>
<path d="M434,317v 14" fill="none" stroke="#ff0000" stroke-width="2"/>
<path d="M434,317v 14" fill="none" stroke="#ff0000" stroke-width="2"/>
<path d="M435,317v 14" fill="none" stroke="#ff0000" stroke-width="2"/>
<path d="M436,317v 14" fill="none" stroke="#ff0000" stroke-width="2"/>
<path d="M437,317v 14" fill="none" stroke="#ff0000" stroke-width="2"/>
<path d="M438,317v 14" fill="none" stroke="#ff0000" stroke-width="2"/>
<path d="M438,317v 14" fill="none" stroke="#ff0000" stroke-width="2"/>
<path d="M439,318v 13" fill="none" stroke="#ff0000" stroke-width="2"/>
<path d="M440,317v 14" fill="none" stroke="#ff0000" stroke-width="2"/>
<path d="M441,318v 13" fill="none" stroke="#ff0000" stroke-width="2"/>
<path d="M442,318v 13" fill="none" stroke="#ff0000" stroke-width="2"/>
<path d="M443,318v 13" fill="none" stroke="#ff0000" stroke-width="2"/>
<path d="M443,318v 13" fill="none" stroke="#ff0000" stroke-width="2"/>
<path d="M444,318v 13" fill="none" stroke="#ff0000" stroke-width="2"/>
<path d="M445,318v 13" fill="none" stroke="#ff0000" stroke-width="2"/>
<path d="M446,318v 13" fill="none" stroke="#ff0000" stroke-width="2"/>
<path d="M447,318v 13" fill="none" stroke="#ff0000" stroke-width="2"/>
<path d="M447,318v 13" fill="none" stroke="#ff0000" stroke-width="2"/>
<path d="M448,318v 13" fill="none" stroke="#ff0000" stroke-width="2"/>
<path d="M449,318v 13" fill="none" stroke="#ff0000" stroke-width="2"/>
<path d="M450,318v 13" fill="none" stroke="#ff0000" stroke-width="2"/>
<path d="M451,318v 13" fill="none" stroke="#ff0000" stroke-width="2"/>
<path d="M452,318v 13" fill="none" stroke="#ff0000" stroke-width="2"/>
<path d="M452,318v 13" fill="none" stroke="#ff0000" stroke-width="2"/>
<path d="M453,318v 13" fill="none" stroke="#ff0000" stroke-width="2"/>
<path d="M454,318v 13" fill="none" stroke="#ff0000" stroke-width="2"/>
<path d="M455,318v 13" fill="none" stroke="#ff0000" stroke-width="2"/>
<path d="M456,318v 13" fill="none" stroke="#ff0000" stroke-width="2"/>
<path d="M456,318v 13" fill="none" stroke="#ff0000" stroke-width="2"/>
<path d="M457,318v 13" fill="none" stroke="#ff0000" stroke-width="2"/>
<path d="M458,318v 13" fill="none" stroke="#ff0000" stroke-width="2"/>
<path d="M459,318v 13" fill="none" stroke="#ff0000" stroke-width="2"/>
<path d="M460,318v 13" fill="none" stroke="#ff0000" stroke-width="2"/>
<path d="M460,318v 13" fill="none" stroke="#ff0000" stroke-width="2"/>
<path d="M461,318v 13" fill="none" stroke="#ff0000" stroke-width="2"/>
<path d="M462,318v 13" fill="none" stroke="#ff0000" stroke-width="2"/>
<path d="M463,318v 13" fill="none" stroke="#ff0000" stroke-width="2"/>
<path d="M464,318v 13" fill="none" stroke="#ff0000" stroke-width="2"/>
<path d="M465,318v 13" fill="none" stroke="#ff0000" stroke-width="2"/>
<path d="M465,318v 13" fill="none" stroke="#ff0000" stroke-width="2"/>
<path d="M466,318v 13" fill="none" stroke="#ff0000" stroke-width="2"/>
<path d="M467,318v 13" fill="none" stroke="#ff0000" stroke-width="2"/>
<path d="M468,318v 13" fill="none" stroke="#ff0000" stroke-width="2"/>
<path d="M469,318v 13" fill="none" stroke="#ff0000" stroke-width="2"/>
<path d="M469,318v 13" fill="none" stroke="#ff0000" stroke-width="2"/>
<path d="M470,318v 13" fill="none" stroke="#ff0000" stroke-width="2"/>
<path d="M471,318v 13" fill="none" stroke="#ff0000" stroke-width="2"/>
<path d="M472,318v 13" fill="none" stroke="#ff0000" stroke-width="2"/>
<path d="M473,318v 13" fill="none" stroke="#ff0000" stroke-width="2"/>
<path d="M473,318v 13" fill="none" stroke="#ff0000" stroke-width="2"/>
<path d="M474,318v 13" fill="none" stroke="#ff0000" stroke-width="2"/>
<path d="M475,318v 13" fill="none" stroke="#ff0000" stroke-width="2"/>
<path d="M476,318v 13" fill="none" stroke="#ff0000" stroke-width="2"/>
<path d="M477,318v 13" fill="none" stroke="#ff0000" stroke-width="2"/>
<path d="M478,318v 13" fill="none" stroke="#ff0000" stroke-width="2"/>
<path d="M478,318v 13" fill="none" stroke="#ff0000" stroke-width="2"/>
<path d="M479,318v 13" fill="none" stroke="#ff0000" stroke-width="2"/>
<path d="M480,318v 13" fill="none" stroke="#ff0000" stroke-width="2"/>
<path d="M481,318v 13" fill="none" stroke="#ff0000" stroke-width="2"/>
<path d="M482,318v 13" fill="none" stroke="#ff0000" stroke-width="2"/>
<path d="M482,318v 13" fill="none" stroke="#ff0000" stroke-width="2"/>
<path d="M483,318v 13" fill="none" stroke="#ff0000" stroke-width="2"/>
<path d="M484,318v 13" fill="none" stroke="#ff0000" stroke-width="2"/>
<path d="M485,318v 13" fill="none" stroke="#ff0000" stroke-width="2"/>
<path d="M486,318v 13" fill="none" stroke="#ff0000" stroke-width="2"/>
<path d="M487,318v 13" fill="none" stroke="#ff0000" stroke-width="2"/>
<path d="M487,318v 13" fill="none" stroke="#ff0000" stroke-width="2"/>
<path d="M488,318v 13" fill="none" stroke="#ff0000" stroke-width="2"/>
<path d="M489,318v 13" fill="none" stroke="#ff0000" stroke-width="2"/>
<path d="M490,318v 13" fill="none" stroke="#ff0000" stroke-width="2"/>
<path d="M491,318v 13" fill="none" stroke="#ff0000" stroke-width="2"/>
<path d="M491,318v 13" fill="none" stroke="#ff0000" stroke-width="2"/>
<path d="M492,318v 13" fill="none" stroke="#ff0000" stroke-width="2"/>
<path d="M493,318v 13" fill="none" stroke="#ff0000" stroke-width="2"/>
<path d="M494,318v 13" fill="none" stroke="#ff0000" stroke-width="2"/>
<path d="M495,318v 13" fill="none" stroke="#ff0000" stroke-width="2"/>
<path d="M495,318v 13" fill="none" stroke="#ff0000" stroke-width="2"/>
<path d="M496,318v 13" fill="none" stroke="#ff0000" stroke-width="2"/>
<path d="M497,318v 13" fill="none" stroke="#ff0000" stroke-width="2"/>
<path d="M498,318v 13" fill="none" stroke="#ff0000" stroke-width="2"/>
<path d="M499,318v 13" fill="none" stroke="#ff0000" stroke-width="2"/>
<path d="M500,318v 13" fill="none" stroke="#ff0000" stroke-width="2"/>
<path d="M500,318v 13" fill="none" stroke="#ff0000" stroke-width="2"/>
<path d="M501,318v 13" fill="none" stroke="#ff0000" stroke-width="2"/>
<path d="M502,318v 13" fill="none" stroke="#ff0000" stroke-width="2"/>
<path d="M503,318v 13" fill="none" stroke="#ff0000" stroke-width="2"/>
<path d="M504,318v 13" fill="none" stroke="#ff0000" stroke-width="2"/>
<path d="M504,318v 13" fill="none" stroke="#ff0000" stroke-width="2"/>
<path d="M505,318v 13" fill="none" stroke="#ff0000" stroke-width="2"/>
<path d="M506,318v 13" fill="none" stroke="#ff0000" stroke-width="2"/>
<path d="M507,318v 13" fill="none" stroke="#ff0000" stroke-width="2"/>
<path d="M508,318v 13" fill="none" stroke="#ff0000" stroke-width="2"/>
<path d="M509,318v 13" fill="none" stroke="#ff0000" stroke-width="2"/>
<path d="M509,318v 13" fill="none" stroke="#ff0000" stroke-width="2"/>
<path d="M510,322v 9" fill="none" stroke="#ff0000" stroke-width="2"/>
<path d="M284,194l 1, 4v 14l 1, 8l 1, 5l 1, 4l 1, 4v 6l 1, 3l 1, 4l 1, 2l 1, 3v 3l 1, 2l 1, 2l 1, 2l 1, 3l 1, 2v 2l 1, 2h 1l 1, 3l 1, 2v 1l 1, 2l 1, 1l 1, 2l 1, 2h 1v 2l 1, 2l 1, 1l 1, 1l 1, 1v 1l 1, 1l 1, 2l 1, 1l 1, 1l 1, 1l 1, 1l 1, 1l 1, 1h 1v 1l
 1, 1l 1, 1l 1, 1l 1, 1l 1, 1h 1l 1, 1l 1, 1l 1, 1h 2l 1, 1l 1, 1l 1, 1l 1, 1h 1l 1, 1h 3l 1, 1h 1l 1, 1h 1l 1, 1h 1l 1, 1h 4l 1, 1h 3v 1h 3l 1, 1h 4l 1, 1h 10l 1, 1h 9l 1, 1h 14v 1h 39l 1, 1l 1, -1l 1, 1h 68l 1, 1" fill="none" stroke="#ff0000"
 stroke-width="2"/>
<rect x="351" y="25" width="205" height="154" fill="white"/>
<path d="M351,179h 205" fill="none" stroke="black"/>
<path d="M556,179v -154" fill="none" stroke="black"/>
<path d="M556,25h -205" fill="none" stroke="black"/>
<path d="M351,25v 154" fill="none" stroke="black"/>
<text x="362" y="38" fill="black" font-size="14" font-family="Helvetica">
Entries 
</text>
<text x="498" y="38" fill="black" font-size="14" font-family="Helvetica">
 36072
</text>
<text x="374" y="58" fill="black" font-size="14" font-family="Helvetica">
 / ndf 
</text>
<text x="369" y="45" fill="black" font-size="10" font-family="Helvetica">
2
</text>
<text x="362" y="58" fill="black" font-size="14" font-family="Times">
&#0967;
</text>
<text x="455" y="55" fill="black" font-size="14" font-family="Helvetica">
  1623 / 1240
</text>
<text x="382" y="68" fill="black" font-size="14" font-family="Helvetica">
   
</text>
<text x="372" y="77" fill="black" font-size="10" font-family="Helvetica">
cu
</text>
<text x="362" y="68" fill="black" font-size="14" font-family="Helvetica">
N
</text>
<text x="511" y="74" fill="black" font-size="14" font-family="Helvetica">
 8.09
</text>
<text x="499" y="74" fill="black" font-size="14" font-family="Times">
&#0177;
</text>
<text x="451" y="74" fill="black" font-size="14" font-family="Helvetica">
 19.57 
</text>
<text x="377" y="87" fill="black" font-size="14" font-family="Helvetica">
 
</text>
<text x="367" y="97" fill="black" font-size="10" font-family="Helvetica">
cu
</text>
<text x="362" y="87" fill="black" font-size="14" font-family="Times">
&#0964;
</text>
<text x="503" y="91" fill="black" font-size="14" font-family="Helvetica">
 154.6
</text>
<text x="490" y="91" fill="black" font-size="14" font-family="Times">
&#0177;
</text>
<text x="443" y="91" fill="black" font-size="14" font-family="Helvetica">
 219.2 
</text>
<text x="375" y="102" fill="black" font-size="14" font-family="Helvetica">
    
</text>
<text x="372" y="111" fill="black" font-size="10" font-family="Helvetica">
f
</text>
<text x="362" y="102" fill="black" font-size="14" font-family="Helvetica">
N
</text>
<text x="511" y="108" fill="black" font-size="14" font-family="Helvetica">
 2.70
</text>
<text x="499" y="108" fill="black" font-size="14" font-family="Times">
&#0177;
</text>
<text x="451" y="108" fill="black" font-size="14" font-family="Helvetica">
 56.61 
</text>
<text x="370" y="121" fill="black" font-size="14" font-family="Helvetica">
 
</text>
<text x="367" y="131" fill="black" font-size="10" font-family="Helvetica">
f
</text>
<text x="362" y="121" fill="black" font-size="14" font-family="Times">
&#0964;
</text>
<text x="511" y="125" fill="black" font-size="14" font-family="Helvetica">
 88.7
</text>
<text x="499" y="125" fill="black" font-size="14" font-family="Times">
&#0177;
</text>
<text x="451" y="125" fill="black" font-size="14" font-family="Helvetica">
  2191 
</text>
<text x="384" y="137" fill="black" font-size="14" font-family="Helvetica">
  
</text>
<text x="372" y="146" fill="black" font-size="10" font-family="Helvetica">
sin
</text>
<text x="362" y="137" fill="black" font-size="14" font-family="Helvetica">
N
</text>
<text x="503" y="142" fill="black" font-size="14" font-family="Helvetica">
 0.167
</text>
<text x="490" y="142" fill="black" font-size="14" font-family="Times">
&#0177;
</text>
<text x="443" y="142" fill="black" font-size="14" font-family="Helvetica">
 3.528 
</text>
<text x="362" y="158" fill="black" font-size="14" font-family="Helvetica">
T        
</text>
<text x="511" y="159" fill="black" font-size="14" font-family="Helvetica">
 0.00
</text>
<text x="499" y="159" fill="black" font-size="14" font-family="Times">
&#0177;
</text>
<text x="451" y="159" fill="black" font-size="14" font-family="Helvetica">
 59.33 
</text>
<text x="377" y="171" fill="black" font-size="14" font-family="Helvetica">
    
</text>
<text x="372" y="180" fill="black" font-size="10" font-family="Helvetica">
b
</text>
<text x="362" y="171" fill="black" font-size="14" font-family="Helvetica">
N
</text>
<text x="511" y="176" fill="black" font-size="14" font-family="Helvetica">
 0.14
</text>
<text x="499" y="176" fill="black" font-size="14" font-family="Times">
&#0177;
</text>
<text x="453" y="176" fill="black" font-size="14" font-family="Helvetica">
 11.49 
</text>
<path d="M57,346h 453" fill="none" stroke="black"/>
<text x="419" y="372" fill="black" font-size="12" font-family="Helvetica">
TDC-TDC0 (ns)
</text>
<path d="M57,337v 9" fill="none" stroke="black"/>
<path d="M68,342v 4" fill="none" stroke="black"/>
<path d="M79,342v 4" fill="none" stroke="black"/>
<path d="M91,342v 4" fill="none" stroke="black"/>
<path d="M102,342v 4" fill="none" stroke="black"/>
<path d="M113,337v 9" fill="none" stroke="black"/>
<path d="M125,342v 4" fill="none" stroke="black"/>
<path d="M136,342v 4" fill="none" stroke="black"/>
<path d="M147,342v 4" fill="none" stroke="black"/>
<path d="M159,342v 4" fill="none" stroke="black"/>
<path d="M170,337v 9" fill="none" stroke="black"/>
<path d="M181,342v 4" fill="none" stroke="black"/>
<path d="M193,342v 4" fill="none" stroke="black"/>
<path d="M204,342v 4" fill="none" stroke="black"/>
<path d="M215,342v 4" fill="none" stroke="black"/>
<path d="M227,337v 9" fill="none" stroke="black"/>
<path d="M238,342v 4" fill="none" stroke="black"/>
<path d="M249,342v 4" fill="none" stroke="black"/>
<path d="M261,342v 4" fill="none" stroke="black"/>
<path d="M272,342v 4" fill="none" stroke="black"/>
<path d="M283,337v 9" fill="none" stroke="black"/>
<path d="M295,342v 4" fill="none" stroke="black"/>
<path d="M306,342v 4" fill="none" stroke="black"/>
<path d="M317,342v 4" fill="none" stroke="black"/>
<path d="M329,342v 4" fill="none" stroke="black"/>
<path d="M340,337v 9" fill="none" stroke="black"/>
<path d="M351,342v 4" fill="none" stroke="black"/>
<path d="M363,342v 4" fill="none" stroke="black"/>
<path d="M374,342v 4" fill="none" stroke="black"/>
<path d="M386,342v 4" fill="none" stroke="black"/>
<path d="M397,337v 9" fill="none" stroke="black"/>
<path d="M408,342v 4" fill="none" stroke="black"/>
<path d="M420,342v 4" fill="none" stroke="black"/>
<path d="M431,342v 4" fill="none" stroke="black"/>
<path d="M442,342v 4" fill="none" stroke="black"/>
<path d="M454,337v 9" fill="none" stroke="black"/>
<path d="M465,342v 4" fill="none" stroke="black"/>
<path d="M476,342v 4" fill="none" stroke="black"/>
<path d="M488,342v 4" fill="none" stroke="black"/>
<path d="M499,342v 4" fill="none" stroke="black"/>
<path d="M510,337v 9" fill="none" stroke="black"/>
<text x="36" y="359" fill="black" font-size="12" font-family="Helvetica">
-20000
</text>
<text x="93" y="359" fill="black" font-size="12" font-family="Helvetica">
-15000
</text>
<text x="149" y="359" fill="black" font-size="12" font-family="Helvetica">
-10000
</text>
<text x="210" y="359" fill="black" font-size="12" font-family="Helvetica">
-5000
</text>
<text x="280" y="359" fill="black" font-size="12" font-family="Helvetica">
0
</text>
<text x="325" y="359" fill="black" font-size="12" font-family="Helvetica">
5000
</text>
<text x="379" y="359" fill="black" font-size="12" font-family="Helvetica">
10000
</text>
<text x="435" y="359" fill="black" font-size="12" font-family="Helvetica">
15000
</text>
<text x="492" y="359" fill="black" font-size="12" font-family="Helvetica">
20000
</text>
<path d="M57,346v -308" fill="none" stroke="black"/>
<g transform="rotate(-90,29,72)">
<text x="29" y="72" fill="black" font-size="12" font-family="Helvetica">
Count
</text>
</g>
<path d="M70,346h -13" fill="none" stroke="black"/>
<path d="M63,337h -6" fill="none" stroke="black"/>
<path d="M63,328h -6" fill="none" stroke="black"/>
<path d="M63,318h -6" fill="none" stroke="black"/>
<path d="M70,309h -13" fill="none" stroke="black"/>
<path d="M63,300h -6" fill="none" stroke="black"/>
<path d="M63,290h -6" fill="none" stroke="black"/>
<path d="M63,281h -6" fill="none" stroke="black"/>
<path d="M70,272h -13" fill="none" stroke="black"/>
<path d="M63,262h -6" fill="none" stroke="black"/>
<path d="M63,253h -6" fill="none" stroke="black"/>
<path d="M63,244h -6" fill="none" stroke="black"/>
<path d="M70,234h -13" fill="none" stroke="black"/>
<path d="M63,225h -6" fill="none" stroke="black"/>
<path d="M63,216h -6" fill="none" stroke="black"/>
<path d="M63,206h -6" fill="none" stroke="black"/>
<path d="M70,197h -13" fill="none" stroke="black"/>
<path d="M63,188h -6" fill="none" stroke="black"/>
<path d="M63,178h -6" fill="none" stroke="black"/>
<path d="M63,169h -6" fill="none" stroke="black"/>
<path d="M70,159h -13" fill="none" stroke="black"/>
<path d="M63,150h -6" fill="none" stroke="black"/>
<path d="M63,141h -6" fill="none" stroke="black"/>
<path d="M63,131h -6" fill="none" stroke="black"/>
<path d="M70,122h -13" fill="none" stroke="black"/>
<path d="M63,113h -6" fill="none" stroke="black"/>
<path d="M63,103h -6" fill="none" stroke="black"/>
<path d="M63,94h -6" fill="none" stroke="black"/>
<path d="M70,85h -13" fill="none" stroke="black"/>
<path d="M63,75h -6" fill="none" stroke="black"/>
<path d="M63,66h -6" fill="none" stroke="black"/>
<path d="M63,57h -6" fill="none" stroke="black"/>
<path d="M70,47h -13" fill="none" stroke="black"/>
<path d="M70,47h -13" fill="none" stroke="black"/>
<text x="47" y="350" fill="black" font-size="12" font-family="Helvetica">
0
</text>
<text x="40" y="313" fill="black" font-size="12" font-family="Helvetica">
20
</text>
<text x="40" y="275" fill="black" font-size="12" font-family="Helvetica">
40
</text>
<text x="40" y="238" fill="black" font-size="12" font-family="Helvetica">
60
</text>
<text x="40" y="201" fill="black" font-size="12" font-family="Helvetica">
80
</text>
<text x="33" y="163" fill="black" font-size="12" font-family="Helvetica">
100
</text>
<text x="33" y="126" fill="black" font-size="12" font-family="Helvetica">
120
</text>
<text x="33" y="89" fill="black" font-size="12" font-family="Helvetica">
140
</text>
<text x="33" y="51" fill="black" font-size="12" font-family="Helvetica">
160
</text>
<rect x="351" y="25" width="205" height="154" fill="white"/>
<path d="M351,179h 205" fill="none" stroke="black"/>
<path d="M556,179v -154" fill="none" stroke="black"/>
<path d="M556,25h -205" fill="none" stroke="black"/>
<path d="M351,25v 154" fill="none" stroke="black"/>
<text x="362" y="38" fill="black" font-size="14" font-family="Helvetica">
Entries 
</text>
<text x="498" y="38" fill="black" font-size="14" font-family="Helvetica">
 36072
</text>
<text x="374" y="58" fill="black" font-size="14" font-family="Helvetica">
 / ndf 
</text>
<text x="369" y="45" fill="black" font-size="10" font-family="Helvetica">
2
</text>
<text x="362" y="58" fill="black" font-size="14" font-family="Times">
&#0967;
</text>
<text x="455" y="55" fill="black" font-size="14" font-family="Helvetica">
  1623 / 1240
</text>
<text x="382" y="68" fill="black" font-size="14" font-family="Helvetica">
   
</text>
<text x="372" y="77" fill="black" font-size="10" font-family="Helvetica">
cu
</text>
<text x="362" y="68" fill="black" font-size="14" font-family="Helvetica">
N
</text>
<text x="511" y="74" fill="black" font-size="14" font-family="Helvetica">
 8.09
</text>
<text x="499" y="74" fill="black" font-size="14" font-family="Times">
&#0177;
</text>
<text x="451" y="74" fill="black" font-size="14" font-family="Helvetica">
 19.57 
</text>
<text x="377" y="87" fill="black" font-size="14" font-family="Helvetica">
 
</text>
<text x="367" y="97" fill="black" font-size="10" font-family="Helvetica">
cu
</text>
<text x="362" y="87" fill="black" font-size="14" font-family="Times">
&#0964;
</text>
<text x="503" y="91" fill="black" font-size="14" font-family="Helvetica">
 154.6
</text>
<text x="490" y="91" fill="black" font-size="14" font-family="Times">
&#0177;
</text>
<text x="443" y="91" fill="black" font-size="14" font-family="Helvetica">
 219.2 
</text>
<text x="375" y="102" fill="black" font-size="14" font-family="Helvetica">
    
</text>
<text x="372" y="111" fill="black" font-size="10" font-family="Helvetica">
f
</text>
<text x="362" y="102" fill="black" font-size="14" font-family="Helvetica">
N
</text>
<text x="511" y="108" fill="black" font-size="14" font-family="Helvetica">
 2.70
</text>
<text x="499" y="108" fill="black" font-size="14" font-family="Times">
&#0177;
</text>
<text x="451" y="108" fill="black" font-size="14" font-family="Helvetica">
 56.61 
</text>
<text x="370" y="121" fill="black" font-size="14" font-family="Helvetica">
 
</text>
<text x="367" y="131" fill="black" font-size="10" font-family="Helvetica">
f
</text>
<text x="362" y="121" fill="black" font-size="14" font-family="Times">
&#0964;
</text>
<text x="511" y="125" fill="black" font-size="14" font-family="Helvetica">
 88.7
</text>
<text x="499" y="125" fill="black" font-size="14" font-family="Times">
&#0177;
</text>
<text x="451" y="125" fill="black" font-size="14" font-family="Helvetica">
  2191 
</text>
<text x="384" y="137" fill="black" font-size="14" font-family="Helvetica">
  
</text>
<text x="372" y="146" fill="black" font-size="10" font-family="Helvetica">
sin
</text>
<text x="362" y="137" fill="black" font-size="14" font-family="Helvetica">
N
</text>
<text x="503" y="142" fill="black" font-size="14" font-family="Helvetica">
 0.167
</text>
<text x="490" y="142" fill="black" font-size="14" font-family="Times">
&#0177;
</text>
<text x="443" y="142" fill="black" font-size="14" font-family="Helvetica">
 3.528 
</text>
<text x="362" y="158" fill="black" font-size="14" font-family="Helvetica">
T        
</text>
<text x="511" y="159" fill="black" font-size="14" font-family="Helvetica">
 0.00
</text>
<text x="499" y="159" fill="black" font-size="14" font-family="Times">
&#0177;
</text>
<text x="451" y="159" fill="black" font-size="14" font-family="Helvetica">
 59.33 
</text>
<text x="377" y="171" fill="black" font-size="14" font-family="Helvetica">
    
</text>
<text x="372" y="180" fill="black" font-size="10" font-family="Helvetica">
b
</text>
<text x="362" y="171" fill="black" font-size="14" font-family="Helvetica">
N
</text>
<text x="511" y="176" fill="black" font-size="14" font-family="Helvetica">
 0.14
</text>
<text x="499" y="176" fill="black" font-size="14" font-family="Times">
&#0177;
</text>
<text x="453" y="176" fill="black" font-size="14" font-family="Helvetica">
 11.49 
</text>
<text x="270" y="21" fill="black" font-size="21" font-family="Helvetica">
D3
</text></svg>
