<?xml version="1.0" standalone="no"?>
<svg width="567" height="385" viewBox="0 0 567 385" xmlns="http://www.w3.org/2000/svg">
<title>
images/analysis_g4bl_tight/452_D4.svg
</title>
<desc>
Creator: ROOT Version 5.34/05
CreationDate: Wed Jun 12 17:38:09 2013</desc>
<defs>
</defs>
<rect x="0" y="0" width="567" height="385" fill="white"/>
<rect x="57" y="38" width="453" height="308" fill="white"/>
<rect x="57" y="38" width="453" height="308" fill="none" stroke="black"/>
<rect x="57" y="38" width="453" height="308" fill="white"/>
<rect x="57" y="38" width="453" height="308" fill="none" stroke="black"/>
<path d="M57,346h 47v -9v 5v -2h 1v -3v 1v -1v 4v -4v 1h 1v 4v -9v 9v -5h 1v -2v 6v -4v 7h 1v -8v 4h 1v -4v 8v -7v 3v -2h 1v 4v -5v 5v -1h 1v 1v -8v 7h 1v 1v -5v 5h 1v -6v 8v -11v 8h 1v -5v 4v -1v 3h 1v -4v 4v -7v 7h 1v -8v 8v -5h 1v -5v 9v -4v 5h 1v
 1v -3h 1v -3v 4v -4v 2h 1v 5v -9v 8v -5h 1v 3v -3v 3v -4h 1v 2v -4v 7h 1v -6v 6v -2h 1v 4v -6v 4v -3h 1v -3v 5v -10v 5h 1v 6v -4v 6v -2h 1v -7v 7v -7v 4h 1v 4v -1h 1v 1v -10v 9v -8h 1v 7v -4v 5v -6h 1v 5v -7v 8v -8h 1v 9v -8v 9h 1v -7v 5v -5v 6v
 -10h 1v 8v -4v 5v -3h 1v -4v 6v -2h 1v -1v 5v -10v 7h 1v -7v 10v -5h 1v 6v -7v 6h 1v -7v 8v -8h 1v 7v -14v 11h 1v -1v 2v -8v 11v -2h 1v -4v 3v -3h 1v 7v -7v 7v -5h 1v -3v 6v -5v 3h 1v -4v 5v -1h 1v -3v 4v -9v 9h 1v -5v 5v -1h 1v -4v 1v -1v 5v -3v 3h
 1v -7v 7v -4h 1v -5v 8v -4v 5h 1v -2v 1v -2h 1v -2v 4v -5v 4h 1v -3v 8v -4h 1v -2v 3h 1v 1v -6v 4v -1h 1v 1v -1v 4v -6h 1v 7v -10v 7v -2h 1v 2v -9v 8v -7v 2h 1v 9v -15v 12v -3h 1v 3v -6v 7v -2v 1v -6h 1v 6v -6v 7h 1v -6v 5h 1v -3v 2v -1v 2v -1h 1v
 -8v 10v -6v 2h 1v 1v -7v 8h 1v 2v -7v 8v -10h 1v 7v -5v 2h 1v 4v -8v 8h 1v -5v 4v -7v 2h 1v 6v -5v 5v -3h 1v 3v -9v 2h 1v 6v -7v 8v -5h 1v 4v -1h 1v 3v -5v 1v -3h 1v 3v -1v 5v -10v 9h 1v -6v 7v -6h 1v -3v 7v -1v 1h 1v -7v 6v -3h 1v 4v -5h 1v 6v -4v
 2h 1v -3v 7v -5v 3h 1v -13v 16v -6h 1v -7v 10v -6h 1v 1v -7v 12v -1h 1v -7v 8v -5v 5h 1v -2v 2v -4v 6h 1v -7v 2v -4v 5h 1v -3v 2v -2v 7v -8h 1v 4v -9v 11h 1v -8v 9h 1v -4v 3v -4v 4h 1v -9v 9h 1v -6v 6v -2h 1v 2v -5v 6v -5h 1v 2v -2v 4v -5h 1v 8v
 -14v 13v -2h 1v -9v 9v -12h 1v 11v -4v 5v -4h 1v -1v 5v -5h 1v 5v -2v 1h 1v -4v 4v -4v 1h 1v 8v -11v 6h 1v -5v 6v -4v 3v -11h 1v 12v -6v 6h 1v -5v 5v -9h 1v 9v -2v 3h 1v -5v 5v -3v 1v -7h 1v 6v -5v 5h 1v 1v -4v 4v -6h 1v 9v -10v 8h 1v -5v 5h 1v -2v
 4v -8v 2v -6h 1v 9v -7v 7v -1h 1v -3v 3v -5v 4h 1v 3v -5v 5v -5h 1v -2v 9v -7h 1v 4v -5v 8h 1v -6v 4v -2v 3v -11h 1v 10v -7v 3v -2v 1h 1v -4v 9v -2v 2v -5h 1v 5v -9v 5v -2h 1v 7v -8h 1v 7v -9v 7h 1v -7v 8v -6h 1v 8v -14v 13v -1h 1v -13v 10h 1v 5v
 -8v 4h 1v -2v 1v -1v 4h 1v 1v -14v 14h 1v -10v 6v -6v 9h 1v -4v 5v -6h 1v -2v 5v -5v 1h 1v -3v 7v -3v 1h 1v -5v 8v -7v 3h 1v -1v 3v -5v 4h 1v 5v -6v 1v -1v 1h 1v 4v -7v 10h 1v -11v 4v -1v 1v -2h 1v -1v 5v -7v 8v -2h 1v -6v 5v -2v 4h 1v 1v -6v 2v -9v
 14h 1v -7v 7v -8v 5h 1v -5v 3v -2v 4h 1v -8v 9v -8h 1v 7v -2v 2h 1v -10v 11v -3h 1v -2v 5v -5h 1v 6v -6v 3v -4h 1v 7h 1v -12v 11v -4v 1h 1v -3v 5v -6h 1v 5v -9v 9h 1v -3v 2v -5h 1v 9v -7v 4h 1v -9v 8v -8h 1v 9v -4v 3v -6h 1v -2v 14v -11h 1v 9v -8v
 7h 1v -10v 8v -8h 1v 4v -2v 6v -12h 1v 8v -1v 4v -3h 1v 3v -5v 7v -10h 1v 9v -13v 9v -9h 1v 8v -4v 8v -1h 1v -6v 8v -3h 1v -6v 9v -12v 11h 1v -8v 9v -8h 1v -2v 4v -3v 3h 1v -15v 17v -3v 7v -5h 1v -4v 8v -14v 16h 1v -12v 7v -11v 8h 1v 3v -3v 2v -4h
 1v 5v -5v 3v -7h 1v 7v -3v 3v -11v 4h 1v 9v -6v 1h 1v -5v 8v -2h 1v -7v 1h 1v -1v 9v -9v 2h 1v -5v 7v -3v 1h 1v 5v -7v 8v -14v 8h 1v -3v 3v -13v 7h 1v 5v -3v 5v -6v 3h 1v 6v -23v 24v -16v 33h 1v -293h 1v 207h 1v 19v -15v 14h 1v -5v 12v -4v 6h 1v 1v
 -5v 4v -13h 1v 25v -6h 1v -16v 25v -20v 12h 1v -7v 5v -5v 8h 1v -3v 15v -22h 1v 16v -10v 5v -2v 10h 1v -7v 1v -11v 14v -6h 1v 6v -18v 25h 1v -14v 11v -12v 4h 1v 9v -10v 11v -13h 1v 12v -3v 9v -17v 10h 1v -3v 5v -6v 5h 1v 6v -14v 13v -10h 1v -2v 13v
 -9v 14h 1v -12v 11v -13h 1v 11v -9v 11h 1v -8v 5v -16h 1v 21v -2v 8v -5h 1v -13v 11v -8h 1v 15v -14v 9h 1v 3v -8v 5v -2h 1v -3v 2v -11v 10h 1v 1v -3v 10v -10v 6h 1v 11v -21v 15h 1v 1v -11v 7v -8v 4h 1v 5v -8v 17h 1v -15v 3h 1v 5v -12v 16h 1v -8v 1v
 -13v 19h 1v 3v -6v 1v -9v 4h 1v 6v -9v 8v -7h 1v 15v -9h 1v 4v -7v 4h 1v 1v -7v 10v -3h 1v 8v -17v 7v -5h 1v 13v -12v 8h 1v 4v -11v 12v -9h 1v 9v -12v 4h 1v 10v -7v 4v -10h 1v 8v -2v 1h 1v -1v 1v -3v 4v -2h 1v -2v 9v -7h 1v -2v 7v -8v 3h 1v 7v -6h
 1v 8v -15v 15h 1v -14v 15v -11h 1v 5v -2v 9v -8h 1v 4v -7v 9v -19h 1v 16v -5v 4v -12v 12h 1v -7v 8v -8h 1v 10v -7v 6v -7h 1v 10v -8v 7v -4v 1h 1v -5v 6v -3v 5h 1v -6v 6v -4h 1v 4v -8v 6h 1v -6v 4v -5v 1h 1v -1v 8v -9v 8h 1v -2v 1v -5v 7h 1v 1v -5v
 5h 1v -5v 5h 1v -6v 9v -7h 1v 9v -12h 1v 9v -9v 6h 1v -5v 3v -1v 4v -2h 1v 5v -7v 4h 1v -4v 6v -10h 1v -1v 6v -1v 6h 1v -11v 14v -9v 2h 1v -1v 3v -1v 4h 1v -2v 2v -3v 1v -6h 1v 8v -7v 3h 1v -4v 5v -5v 8h 1v -12v 10v -5v 2h 1v -4v 2v -2v 6v -1h 1v 5v
 -12v 6h 1v 5v -5v 1h 1v -4v 10v -6h 1v 5v -8v 7h 1v -4v 5v -9h 1v 10v -5v 2v -2v 1v -3h 1v 5v -7v 3h 1v -1v 6v -2h 1v -4v 2v -4h 1v 9v -11v 9v -3h 1v -1v 3v -2v 5h 1v -6v 2v -3v 5h 1v -4v 6v -5v 1h 1v -3v 7v -8v 4h 1v -2v 3v -4v 11v -8h 1v -1v 3v
 -7v 7h 1v -4v 6v -3h 1v -5v 8v -12v 11v -5h 1v 3v -2v 5v -6h 1v 5v -4v 3v -3h 1v 3v -3v 1v -1h 1v -7v 7v -1v 1v -4v 3h 1v 5v -4v 1h 1v -4v 5v -4v 2h 1v 2v -3v 3h 1v -5v 8v -6v 4h 1v -2v 4v -5h 1v -6v 14v -12v 6h 1v 2v -4v 3v -3h 1v 4v -5v 6h 1v -5v
 2v -1h 1v 4v -6v 1h 1v -1v 4v -5h 1v 7v -6v 1h 1v 5v -7v 5v -2h 1v -6v 8v -3v 3v -3h 1v 5v -6v 3v -1h 1v -5v 12v -8h 1v 7v -13v 11v -2h 1v -2v 1v -5v 1h 1v 7v -1v 1v -9v 7v -7h 1v 7v -5h 1v 3v -2v 7v -5h 1v 2v -7h 1v 7v -1v 2v -8v 12h 1v -10v 7v -5h
 1v 5v -5v 1v -1v 5h 1v -5v 4v -5h 1v 5v -4v 5h 1v -8v 6v -2v 4v -7h 1v -1v 8v -5v 7h 1v -9v 6h 1v -6v 8v -8v 7h 1v -5v 3v -2h 1v -1v 6v -6v 5v -8h 1v 5v -4v 4h 1v -7v 10v -3v 1v -2h 1v 5v -1h 1v -10v 10v -8v 6h 1v -6v 8v -5h 1v -2v 7v -2h 1v -5v 8v
 -7h 1v 5v -7v 5h 1v 3v -8v 8h 1v -6v 4v -3h 1v 3v -3v 5v -2h 1v -1v 5v -10h 1v 8v -6v 5v -2h 1v -2v 3v -2v 1h 1v -2v 3v -5v 6v -2h 1v -5v 8v -4h 1v 4v -11v 11v -1h 1v -5v 6v -3v 2h 1v 1v -9v 9v -3h 1v -1v 1v -2v 2v -2h 1v 7v -6v 3h 1v -6v 9v -6h 1v
 8v -8v 1v -1v 1h 1v -3v 6v -6v 4h 1v 1v -4v 3h 1v -3v 5v -5v 5h 1v -4v 1v -2v 2h 1v -3v 5v -3h 1v 5v -7v 6h 1v -10v 9v -6h 1v 8v -6v 6h 1v -7v 9v -11h 1v 8v -10v 9h 1v -4v 4v -4v 2h 1v 3v -2v 3v -6v 8h 1v -7v 4v -2h 1v -3v 6v -9v 8h 1v -4v 4v -2h 1v
 -7v 9v -4v 4h 1v -9v 7v -1v 3v -5h 1v -1v 4v -2v 3v -1h 1v -3v 4v -2h 1v -2v 3v -3v 5h 1v -4v 4h 1v -9v 11v -12v 8h 1v 2v -9v 8v -1h 1v -3v 5v -7v 8v -1h 1v -5v 4h 1v -6v 8v -6h 1v 5v -3v 2v -2h 1v -1v 4v -6v 1v -1h 1v 6v -7v 6v -1h 1v -5v 5v -7v 6h
 1v -1v 5v -3v 2v -3h 1v 4v -3v 3v -11v 9h 1v -1v 5v -8v 1v -1h 1v -2v 5v -3v 5v -5h 1v 5v -4v 4v -2h 1v -3v 6v -9h 1v 7v -4v 5h 1v -2v 3v -6h 1v 2v -2v 6v -6v 6v -6h 1v -4v 8v -5v 3h 1v -1v 4v -7v 7h 1v -5v 4v -5v 5h 1v -4v 7v -7v 4v -1h 1v -2v 4v
 -9h 1v 9v -7v 7h 1v -4v 6v -3h 1v -8v 9v -2v 1h 1v -6v 6v -3v 6h 1v -6v 4v -9v 8v -4h 1v 2v -7v 11v -2h 1v -7v 8v -3h 1v 2v -1v 3v -4h 1v -9v 12v -7v 11v -9h 1v 5v -9v 9v -5h 1v -3v 5v -1v 3v -3v 4h 1v -8v 6v -2v 3v -1h 1v -7v 8v -3v 2h 1v 5v -4v 2v
 -1h 1v -4v 5v -5v 2h 1v 4v -6v 1h 1v 3v -5v 2h 1v 6v -8v 5v -7h 1v -5v 12v -3v 2h 1v -4v 7h 1v -7v 5v -3v 4h 1v -9v 7h 1v 1v -1v 1v -6v 1h 1v 6v -9v 8h 1v -5v 4v -4v 3v -7h 1v 6v -3v 6h 1v -5v 1v -1" fill="none" stroke="#000099"/>
<rect x="442" y="25" width="114" height="46" fill="white"/>
<path d="M442,71h 114" fill="none" stroke="black"/>
<path d="M556,71v -46" fill="none" stroke="black"/>
<path d="M556,25h -114" fill="none" stroke="black"/>
<path d="M442,25v 46" fill="none" stroke="black"/>
<text x="447" y="28" fill="black" font-size="4" font-family="Helvetica">
Entries 
</text>
<text x="538" y="28" fill="black" font-size="4" font-family="Helvetica">
 34598
</text>
<text x="450" y="35" fill="black" font-size="4" font-family="Helvetica">
 / ndf 
</text>
<text x="449" y="31" fill="black" font-size="3" font-family="Helvetica">
2
</text>
<text x="447" y="35" fill="black" font-size="4" font-family="Times">
&#0967;
</text>
<text x="517" y="34" fill="black" font-size="4" font-family="Helvetica">
 3.205e+04 / 1240
</text>
<text x="452" y="37" fill="black" font-size="4" font-family="Helvetica">
   
</text>
<text x="450" y="40" fill="black" font-size="3" font-family="Helvetica">
cu
</text>
<text x="447" y="37" fill="black" font-size="4" font-family="Helvetica">
N
</text>
<text x="543" y="40" fill="black" font-size="4" font-family="Helvetica">
 7.5
</text>
<text x="541" y="40" fill="black" font-size="4" font-family="Times">
&#0177;
</text>
<text x="529" y="40" fill="black" font-size="4" font-family="Helvetica">
 128.2 
</text>
<text x="450" y="43" fill="black" font-size="4" font-family="Helvetica">
 
</text>
<text x="448" y="46" fill="black" font-size="3" font-family="Helvetica">
cu
</text>
<text x="447" y="43" fill="black" font-size="4" font-family="Times">
&#0964;
</text>
<text x="543" y="45" fill="black" font-size="4" font-family="Helvetica">
 0.4
</text>
<text x="541" y="45" fill="black" font-size="4" font-family="Times">
&#0177;
</text>
<text x="529" y="45" fill="black" font-size="4" font-family="Helvetica">
 162.5 
</text>
<text x="450" y="48" fill="black" font-size="4" font-family="Helvetica">
    
</text>
<text x="450" y="51" fill="black" font-size="3" font-family="Helvetica">
f
</text>
<text x="447" y="48" fill="black" font-size="4" font-family="Helvetica">
N
</text>
<text x="541" y="50" fill="black" font-size="4" font-family="Helvetica">
 1.05
</text>
<text x="538" y="50" fill="black" font-size="4" font-family="Times">
&#0177;
</text>
<text x="526" y="50" fill="black" font-size="4" font-family="Helvetica">
 76.62 
</text>
<text x="448" y="53" fill="black" font-size="4" font-family="Helvetica">
 
</text>
<text x="448" y="57" fill="black" font-size="3" font-family="Helvetica">
f
</text>
<text x="447" y="53" fill="black" font-size="4" font-family="Times">
&#0964;
</text>
<text x="543" y="55" fill="black" font-size="4" font-family="Helvetica">
 0.0
</text>
<text x="541" y="55" fill="black" font-size="4" font-family="Times">
&#0177;
</text>
<text x="529" y="55" fill="black" font-size="4" font-family="Helvetica">
  2197 
</text>
<text x="452" y="58" fill="black" font-size="4" font-family="Helvetica">
  
</text>
<text x="450" y="61" fill="black" font-size="3" font-family="Helvetica">
sin
</text>
<text x="447" y="58" fill="black" font-size="4" font-family="Helvetica">
N
</text>
<text x="539" y="60" fill="black" font-size="4" font-family="Helvetica">
 0.154
</text>
<text x="537" y="60" fill="black" font-size="4" font-family="Times">
&#0177;
</text>
<text x="525" y="60" fill="black" font-size="4" font-family="Helvetica">
 2.489 
</text>
<text x="447" y="65" fill="black" font-size="4" font-family="Helvetica">
T        
</text>
<text x="541" y="66" fill="black" font-size="4" font-family="Helvetica">
 0.00
</text>
<text x="538" y="66" fill="black" font-size="4" font-family="Times">
&#0177;
</text>
<text x="526" y="66" fill="black" font-size="4" font-family="Helvetica">
 59.36 
</text>
<text x="450" y="68" fill="black" font-size="4" font-family="Helvetica">
    
</text>
<text x="450" y="71" fill="black" font-size="3" font-family="Helvetica">
b
</text>
<text x="447" y="68" fill="black" font-size="4" font-family="Helvetica">
N
</text>
<text x="541" y="71" fill="black" font-size="4" font-family="Helvetica">
 0.10
</text>
<text x="538" y="71" fill="black" font-size="4" font-family="Times">
&#0177;
</text>
<text x="528" y="71" fill="black" font-size="4" font-family="Helvetica">
  8.95 
</text>
<path d="M284,203v 5" fill="none" stroke="#ff0000" stroke-width="2"/>
<path d="M285,209v 26" fill="none" stroke="#ff0000" stroke-width="2"/>
<path d="M285,236v 19" fill="none" stroke="#ff0000" stroke-width="2"/>
<path d="M286,255v 13" fill="none" stroke="#ff0000" stroke-width="2"/>
<path d="M287,266v 8" fill="none" stroke="#ff0000" stroke-width="2"/>
<path d="M288,273v 7" fill="none" stroke="#ff0000" stroke-width="2"/>
<path d="M289,277v 7" fill="none" stroke="#ff0000" stroke-width="2"/>
<path d="M289,284v 5" fill="none" stroke="#ff0000" stroke-width="2"/>
<path d="M290,286v 6" fill="none" stroke="#ff0000" stroke-width="2"/>
<path d="M291,289v 5" fill="none" stroke="#ff0000" stroke-width="2"/>
<path d="M292,291v 4" fill="none" stroke="#ff0000" stroke-width="2"/>
<path d="M293,292v 5" fill="none" stroke="#ff0000" stroke-width="2"/>
<path d="M293,295v 4" fill="none" stroke="#ff0000" stroke-width="2"/>
<path d="M294,296v 4" fill="none" stroke="#ff0000" stroke-width="2"/>
<path d="M295,297v 5" fill="none" stroke="#ff0000" stroke-width="2"/>
<path d="M296,298v 5" fill="none" stroke="#ff0000" stroke-width="2"/>
<path d="M297,300v 4" fill="none" stroke="#ff0000" stroke-width="2"/>
<path d="M298,301v 5" fill="none" stroke="#ff0000" stroke-width="2"/>
<path d="M298,302v 5" fill="none" stroke="#ff0000" stroke-width="2"/>
<path d="M299,304v 4" fill="none" stroke="#ff0000" stroke-width="2"/>
<path d="M300,304v 4" fill="none" stroke="#ff0000" stroke-width="2"/>
<path d="M301,306v 3" fill="none" stroke="#ff0000" stroke-width="2"/>
<path d="M302,307v 4" fill="none" stroke="#ff0000" stroke-width="2"/>
<path d="M302,308v 4" fill="none" stroke="#ff0000" stroke-width="2"/>
<path d="M303,308v 5" fill="none" stroke="#ff0000" stroke-width="2"/>
<path d="M304,309v 4" fill="none" stroke="#ff0000" stroke-width="2"/>
<path d="M305,310v 4" fill="none" stroke="#ff0000" stroke-width="2"/>
<path d="M306,311v 5" fill="none" stroke="#ff0000" stroke-width="2"/>
<path d="M307,312v 5" fill="none" stroke="#ff0000" stroke-width="2"/>
<path d="M307,313v 4" fill="none" stroke="#ff0000" stroke-width="2"/>
<path d="M308,313v 4" fill="none" stroke="#ff0000" stroke-width="2"/>
<path d="M309,314v 4" fill="none" stroke="#ff0000" stroke-width="2"/>
<path d="M310,315v 4" fill="none" stroke="#ff0000" stroke-width="2"/>
<path d="M311,316v 4" fill="none" stroke="#ff0000" stroke-width="2"/>
<path d="M311,316v 5" fill="none" stroke="#ff0000" stroke-width="2"/>
<path d="M312,317v 4" fill="none" stroke="#ff0000" stroke-width="2"/>
<path d="M313,317v 5" fill="none" stroke="#ff0000" stroke-width="2"/>
<path d="M314,318v 4" fill="none" stroke="#ff0000" stroke-width="2"/>
<path d="M315,319v 4" fill="none" stroke="#ff0000" stroke-width="2"/>
<path d="M315,319v 4" fill="none" stroke="#ff0000" stroke-width="2"/>
<path d="M316,320v 4" fill="none" stroke="#ff0000" stroke-width="2"/>
<path d="M317,321v 4" fill="none" stroke="#ff0000" stroke-width="2"/>
<path d="M318,321v 5" fill="none" stroke="#ff0000" stroke-width="2"/>
<path d="M319,321v 5" fill="none" stroke="#ff0000" stroke-width="2"/>
<path d="M320,321v 5" fill="none" stroke="#ff0000" stroke-width="2"/>
<path d="M320,322v 4" fill="none" stroke="#ff0000" stroke-width="2"/>
<path d="M321,323v 4" fill="none" stroke="#ff0000" stroke-width="2"/>
<path d="M322,323v 4" fill="none" stroke="#ff0000" stroke-width="2"/>
<path d="M323,324v 4" fill="none" stroke="#ff0000" stroke-width="2"/>
<path d="M324,324v 4" fill="none" stroke="#ff0000" stroke-width="2"/>
<path d="M324,325v 4" fill="none" stroke="#ff0000" stroke-width="2"/>
<path d="M325,325v 5" fill="none" stroke="#ff0000" stroke-width="2"/>
<path d="M326,326v 4" fill="none" stroke="#ff0000" stroke-width="2"/>
<path d="M327,326v 4" fill="none" stroke="#ff0000" stroke-width="2"/>
<path d="M328,326v 4" fill="none" stroke="#ff0000" stroke-width="2"/>
<path d="M329,326v 4" fill="none" stroke="#ff0000" stroke-width="2"/>
<path d="M329,326v 5" fill="none" stroke="#ff0000" stroke-width="2"/>
<path d="M330,327v 4" fill="none" stroke="#ff0000" stroke-width="2"/>
<path d="M331,327v 4" fill="none" stroke="#ff0000" stroke-width="2"/>
<path d="M332,328v 4" fill="none" stroke="#ff0000" stroke-width="2"/>
<path d="M333,328v 4" fill="none" stroke="#ff0000" stroke-width="2"/>
<path d="M333,328v 4" fill="none" stroke="#ff0000" stroke-width="2"/>
<path d="M334,329v 4" fill="none" stroke="#ff0000" stroke-width="2"/>
<path d="M335,329v 4" fill="none" stroke="#ff0000" stroke-width="2"/>
<path d="M336,329v 4" fill="none" stroke="#ff0000" stroke-width="2"/>
<path d="M337,330v 4" fill="none" stroke="#ff0000" stroke-width="2"/>
<path d="M337,330v 4" fill="none" stroke="#ff0000" stroke-width="2"/>
<path d="M338,330v 4" fill="none" stroke="#ff0000" stroke-width="2"/>
<path d="M339,330v 4" fill="none" stroke="#ff0000" stroke-width="2"/>
<path d="M340,330v 4" fill="none" stroke="#ff0000" stroke-width="2"/>
<path d="M341,330v 4" fill="none" stroke="#ff0000" stroke-width="2"/>
<path d="M342,330v 4" fill="none" stroke="#ff0000" stroke-width="2"/>
<path d="M342,330v 4" fill="none" stroke="#ff0000" stroke-width="2"/>
<path d="M343,331v 4" fill="none" stroke="#ff0000" stroke-width="2"/>
<path d="M344,331v 4" fill="none" stroke="#ff0000" stroke-width="2"/>
<path d="M345,331v 4" fill="none" stroke="#ff0000" stroke-width="2"/>
<path d="M346,331v 4" fill="none" stroke="#ff0000" stroke-width="2"/>
<path d="M346,331v 5" fill="none" stroke="#ff0000" stroke-width="2"/>
<path d="M347,332v 4" fill="none" stroke="#ff0000" stroke-width="2"/>
<path d="M348,332v 4" fill="none" stroke="#ff0000" stroke-width="2"/>
<path d="M349,332v 4" fill="none" stroke="#ff0000" stroke-width="2"/>
<path d="M350,332v 4" fill="none" stroke="#ff0000" stroke-width="2"/>
<path d="M351,332v 4" fill="none" stroke="#ff0000" stroke-width="2"/>
<path d="M351,333v 4" fill="none" stroke="#ff0000" stroke-width="2"/>
<path d="M352,333v 4" fill="none" stroke="#ff0000" stroke-width="2"/>
<path d="M353,333v 4" fill="none" stroke="#ff0000" stroke-width="2"/>
<path d="M354,333v 4" fill="none" stroke="#ff0000" stroke-width="2"/>
<path d="M355,333v 4" fill="none" stroke="#ff0000" stroke-width="2"/>
<path d="M355,333v 4" fill="none" stroke="#ff0000" stroke-width="2"/>
<path d="M356,334v 4" fill="none" stroke="#ff0000" stroke-width="2"/>
<path d="M357,334v 4" fill="none" stroke="#ff0000" stroke-width="2"/>
<path d="M358,334v 4" fill="none" stroke="#ff0000" stroke-width="2"/>
<path d="M359,334v 4" fill="none" stroke="#ff0000" stroke-width="2"/>
<path d="M359,334v 4" fill="none" stroke="#ff0000" stroke-width="2"/>
<path d="M360,334v 4" fill="none" stroke="#ff0000" stroke-width="2"/>
<path d="M361,334v 4" fill="none" stroke="#ff0000" stroke-width="2"/>
<path d="M362,334v 4" fill="none" stroke="#ff0000" stroke-width="2"/>
<path d="M363,334v 4" fill="none" stroke="#ff0000" stroke-width="2"/>
<path d="M364,334v 5" fill="none" stroke="#ff0000" stroke-width="2"/>
<path d="M364,334v 5" fill="none" stroke="#ff0000" stroke-width="2"/>
<path d="M365,334v 5" fill="none" stroke="#ff0000" stroke-width="2"/>
<path d="M366,334v 5" fill="none" stroke="#ff0000" stroke-width="2"/>
<path d="M367,334v 5" fill="none" stroke="#ff0000" stroke-width="2"/>
<path d="M368,334v 5" fill="none" stroke="#ff0000" stroke-width="2"/>
<path d="M368,334v 5" fill="none" stroke="#ff0000" stroke-width="2"/>
<path d="M369,334v 5" fill="none" stroke="#ff0000" stroke-width="2"/>
<path d="M370,334v 5" fill="none" stroke="#ff0000" stroke-width="2"/>
<path d="M371,334v 5" fill="none" stroke="#ff0000" stroke-width="2"/>
<path d="M372,334v 5" fill="none" stroke="#ff0000" stroke-width="2"/>
<path d="M372,335v 4" fill="none" stroke="#ff0000" stroke-width="2"/>
<path d="M373,335v 4" fill="none" stroke="#ff0000" stroke-width="2"/>
<path d="M374,335v 4" fill="none" stroke="#ff0000" stroke-width="2"/>
<path d="M375,335v 4" fill="none" stroke="#ff0000" stroke-width="2"/>
<path d="M376,335v 4" fill="none" stroke="#ff0000" stroke-width="2"/>
<path d="M377,335v 4" fill="none" stroke="#ff0000" stroke-width="2"/>
<path d="M377,335v 4" fill="none" stroke="#ff0000" stroke-width="2"/>
<path d="M378,335v 4" fill="none" stroke="#ff0000" stroke-width="2"/>
<path d="M379,335v 4" fill="none" stroke="#ff0000" stroke-width="2"/>
<path d="M380,335v 4" fill="none" stroke="#ff0000" stroke-width="2"/>
<path d="M381,335v 4" fill="none" stroke="#ff0000" stroke-width="2"/>
<path d="M381,335v 4" fill="none" stroke="#ff0000" stroke-width="2"/>
<path d="M382,335v 4" fill="none" stroke="#ff0000" stroke-width="2"/>
<path d="M383,335v 4" fill="none" stroke="#ff0000" stroke-width="2"/>
<path d="M384,335v 4" fill="none" stroke="#ff0000" stroke-width="2"/>
<path d="M385,335v 4" fill="none" stroke="#ff0000" stroke-width="2"/>
<path d="M386,335v 4" fill="none" stroke="#ff0000" stroke-width="2"/>
<path d="M386,335v 4" fill="none" stroke="#ff0000" stroke-width="2"/>
<path d="M387,335v 5" fill="none" stroke="#ff0000" stroke-width="2"/>
<path d="M388,336v 4" fill="none" stroke="#ff0000" stroke-width="2"/>
<path d="M389,336v 4" fill="none" stroke="#ff0000" stroke-width="2"/>
<path d="M390,336v 4" fill="none" stroke="#ff0000" stroke-width="2"/>
<path d="M390,336v 4" fill="none" stroke="#ff0000" stroke-width="2"/>
<path d="M391,336v 4" fill="none" stroke="#ff0000" stroke-width="2"/>
<path d="M392,336v 4" fill="none" stroke="#ff0000" stroke-width="2"/>
<path d="M393,336v 4" fill="none" stroke="#ff0000" stroke-width="2"/>
<path d="M394,336v 4" fill="none" stroke="#ff0000" stroke-width="2"/>
<path d="M394,336v 4" fill="none" stroke="#ff0000" stroke-width="2"/>
<path d="M395,336v 4" fill="none" stroke="#ff0000" stroke-width="2"/>
<path d="M396,336v 4" fill="none" stroke="#ff0000" stroke-width="2"/>
<path d="M397,336v 4" fill="none" stroke="#ff0000" stroke-width="2"/>
<path d="M398,336v 4" fill="none" stroke="#ff0000" stroke-width="2"/>
<path d="M399,336v 4" fill="none" stroke="#ff0000" stroke-width="2"/>
<path d="M399,336v 4" fill="none" stroke="#ff0000" stroke-width="2"/>
<path d="M400,336v 4" fill="none" stroke="#ff0000" stroke-width="2"/>
<path d="M401,336v 4" fill="none" stroke="#ff0000" stroke-width="2"/>
<path d="M402,336v 4" fill="none" stroke="#ff0000" stroke-width="2"/>
<path d="M403,336v 4" fill="none" stroke="#ff0000" stroke-width="2"/>
<path d="M403,336v 4" fill="none" stroke="#ff0000" stroke-width="2"/>
<path d="M404,336v 4" fill="none" stroke="#ff0000" stroke-width="2"/>
<path d="M405,336v 4" fill="none" stroke="#ff0000" stroke-width="2"/>
<path d="M406,336v 4" fill="none" stroke="#ff0000" stroke-width="2"/>
<path d="M407,336v 4" fill="none" stroke="#ff0000" stroke-width="2"/>
<path d="M408,336v 4" fill="none" stroke="#ff0000" stroke-width="2"/>
<path d="M408,336v 4" fill="none" stroke="#ff0000" stroke-width="2"/>
<path d="M409,336v 4" fill="none" stroke="#ff0000" stroke-width="2"/>
<path d="M410,336v 4" fill="none" stroke="#ff0000" stroke-width="2"/>
<path d="M411,336v 4" fill="none" stroke="#ff0000" stroke-width="2"/>
<path d="M412,336v 4" fill="none" stroke="#ff0000" stroke-width="2"/>
<path d="M412,336v 4" fill="none" stroke="#ff0000" stroke-width="2"/>
<path d="M413,336v 4" fill="none" stroke="#ff0000" stroke-width="2"/>
<path d="M414,336v 4" fill="none" stroke="#ff0000" stroke-width="2"/>
<path d="M415,336v 4" fill="none" stroke="#ff0000" stroke-width="2"/>
<path d="M416,336v 4" fill="none" stroke="#ff0000" stroke-width="2"/>
<path d="M416,336v 4" fill="none" stroke="#ff0000" stroke-width="2"/>
<path d="M417,336v 4" fill="none" stroke="#ff0000" stroke-width="2"/>
<path d="M418,336v 4" fill="none" stroke="#ff0000" stroke-width="2"/>
<path d="M419,336v 4" fill="none" stroke="#ff0000" stroke-width="2"/>
<path d="M420,336v 4" fill="none" stroke="#ff0000" stroke-width="2"/>
<path d="M421,336v 4" fill="none" stroke="#ff0000" stroke-width="2"/>
<path d="M421,336v 4" fill="none" stroke="#ff0000" stroke-width="2"/>
<path d="M422,336v 4" fill="none" stroke="#ff0000" stroke-width="2"/>
<path d="M423,336v 4" fill="none" stroke="#ff0000" stroke-width="2"/>
<path d="M424,336v 4" fill="none" stroke="#ff0000" stroke-width="2"/>
<path d="M425,336v 4" fill="none" stroke="#ff0000" stroke-width="2"/>
<path d="M425,336v 4" fill="none" stroke="#ff0000" stroke-width="2"/>
<path d="M426,336v 4" fill="none" stroke="#ff0000" stroke-width="2"/>
<path d="M427,336v 4" fill="none" stroke="#ff0000" stroke-width="2"/>
<path d="M428,336v 4" fill="none" stroke="#ff0000" stroke-width="2"/>
<path d="M429,336v 4" fill="none" stroke="#ff0000" stroke-width="2"/>
<path d="M430,336v 4" fill="none" stroke="#ff0000" stroke-width="2"/>
<path d="M430,336v 4" fill="none" stroke="#ff0000" stroke-width="2"/>
<path d="M431,336v 4" fill="none" stroke="#ff0000" stroke-width="2"/>
<path d="M432,336v 4" fill="none" stroke="#ff0000" stroke-width="2"/>
<path d="M433,337v 3" fill="none" stroke="#ff0000" stroke-width="2"/>
<path d="M434,337v 4" fill="none" stroke="#ff0000" stroke-width="2"/>
<path d="M434,337v 4" fill="none" stroke="#ff0000" stroke-width="2"/>
<path d="M435,337v 4" fill="none" stroke="#ff0000" stroke-width="2"/>
<path d="M436,337v 4" fill="none" stroke="#ff0000" stroke-width="2"/>
<path d="M437,337v 4" fill="none" stroke="#ff0000" stroke-width="2"/>
<path d="M438,337v 4" fill="none" stroke="#ff0000" stroke-width="2"/>
<path d="M438,337v 4" fill="none" stroke="#ff0000" stroke-width="2"/>
<path d="M439,337v 4" fill="none" stroke="#ff0000" stroke-width="2"/>
<path d="M440,337v 4" fill="none" stroke="#ff0000" stroke-width="2"/>
<path d="M441,337v 4" fill="none" stroke="#ff0000" stroke-width="2"/>
<path d="M442,337v 4" fill="none" stroke="#ff0000" stroke-width="2"/>
<path d="M443,337v 4" fill="none" stroke="#ff0000" stroke-width="2"/>
<path d="M443,337v 4" fill="none" stroke="#ff0000" stroke-width="2"/>
<path d="M444,337v 4" fill="none" stroke="#ff0000" stroke-width="2"/>
<path d="M445,337v 4" fill="none" stroke="#ff0000" stroke-width="2"/>
<path d="M446,337v 4" fill="none" stroke="#ff0000" stroke-width="2"/>
<path d="M447,337v 4" fill="none" stroke="#ff0000" stroke-width="2"/>
<path d="M447,337v 4" fill="none" stroke="#ff0000" stroke-width="2"/>
<path d="M448,337v 4" fill="none" stroke="#ff0000" stroke-width="2"/>
<path d="M449,337v 4" fill="none" stroke="#ff0000" stroke-width="2"/>
<path d="M450,337v 4" fill="none" stroke="#ff0000" stroke-width="2"/>
<path d="M451,337v 4" fill="none" stroke="#ff0000" stroke-width="2"/>
<path d="M452,337v 4" fill="none" stroke="#ff0000" stroke-width="2"/>
<path d="M452,337v 4" fill="none" stroke="#ff0000" stroke-width="2"/>
<path d="M453,337v 4" fill="none" stroke="#ff0000" stroke-width="2"/>
<path d="M454,337v 4" fill="none" stroke="#ff0000" stroke-width="2"/>
<path d="M455,337v 4" fill="none" stroke="#ff0000" stroke-width="2"/>
<path d="M456,337v 4" fill="none" stroke="#ff0000" stroke-width="2"/>
<path d="M456,337v 4" fill="none" stroke="#ff0000" stroke-width="2"/>
<path d="M457,337v 4" fill="none" stroke="#ff0000" stroke-width="2"/>
<path d="M458,337v 4" fill="none" stroke="#ff0000" stroke-width="2"/>
<path d="M459,337v 4" fill="none" stroke="#ff0000" stroke-width="2"/>
<path d="M460,337v 4" fill="none" stroke="#ff0000" stroke-width="2"/>
<path d="M460,337v 4" fill="none" stroke="#ff0000" stroke-width="2"/>
<path d="M461,337v 4" fill="none" stroke="#ff0000" stroke-width="2"/>
<path d="M462,337v 4" fill="none" stroke="#ff0000" stroke-width="2"/>
<path d="M463,337v 4" fill="none" stroke="#ff0000" stroke-width="2"/>
<path d="M464,337v 4" fill="none" stroke="#ff0000" stroke-width="2"/>
<path d="M465,337v 4" fill="none" stroke="#ff0000" stroke-width="2"/>
<path d="M465,337v 4" fill="none" stroke="#ff0000" stroke-width="2"/>
<path d="M466,337v 4" fill="none" stroke="#ff0000" stroke-width="2"/>
<path d="M467,337v 4" fill="none" stroke="#ff0000" stroke-width="2"/>
<path d="M468,337v 4" fill="none" stroke="#ff0000" stroke-width="2"/>
<path d="M469,337v 4" fill="none" stroke="#ff0000" stroke-width="2"/>
<path d="M469,337v 4" fill="none" stroke="#ff0000" stroke-width="2"/>
<path d="M470,337v 4" fill="none" stroke="#ff0000" stroke-width="2"/>
<path d="M471,337v 4" fill="none" stroke="#ff0000" stroke-width="2"/>
<path d="M472,337v 4" fill="none" stroke="#ff0000" stroke-width="2"/>
<path d="M473,337v 4" fill="none" stroke="#ff0000" stroke-width="2"/>
<path d="M473,337v 4" fill="none" stroke="#ff0000" stroke-width="2"/>
<path d="M474,337v 4" fill="none" stroke="#ff0000" stroke-width="2"/>
<path d="M475,337v 4" fill="none" stroke="#ff0000" stroke-width="2"/>
<path d="M476,337v 4" fill="none" stroke="#ff0000" stroke-width="2"/>
<path d="M477,337v 4" fill="none" stroke="#ff0000" stroke-width="2"/>
<path d="M478,337v 4" fill="none" stroke="#ff0000" stroke-width="2"/>
<path d="M478,337v 4" fill="none" stroke="#ff0000" stroke-width="2"/>
<path d="M479,337v 4" fill="none" stroke="#ff0000" stroke-width="2"/>
<path d="M480,337v 4" fill="none" stroke="#ff0000" stroke-width="2"/>
<path d="M481,337v 4" fill="none" stroke="#ff0000" stroke-width="2"/>
<path d="M482,337v 4" fill="none" stroke="#ff0000" stroke-width="2"/>
<path d="M482,337v 4" fill="none" stroke="#ff0000" stroke-width="2"/>
<path d="M483,337v 4" fill="none" stroke="#ff0000" stroke-width="2"/>
<path d="M484,337v 4" fill="none" stroke="#ff0000" stroke-width="2"/>
<path d="M485,337v 4" fill="none" stroke="#ff0000" stroke-width="2"/>
<path d="M486,337v 4" fill="none" stroke="#ff0000" stroke-width="2"/>
<path d="M487,337v 4" fill="none" stroke="#ff0000" stroke-width="2"/>
<path d="M487,337v 4" fill="none" stroke="#ff0000" stroke-width="2"/>
<path d="M488,337v 4" fill="none" stroke="#ff0000" stroke-width="2"/>
<path d="M489,337v 4" fill="none" stroke="#ff0000" stroke-width="2"/>
<path d="M490,337v 4" fill="none" stroke="#ff0000" stroke-width="2"/>
<path d="M491,337v 4" fill="none" stroke="#ff0000" stroke-width="2"/>
<path d="M491,337v 4" fill="none" stroke="#ff0000" stroke-width="2"/>
<path d="M492,337v 4" fill="none" stroke="#ff0000" stroke-width="2"/>
<path d="M493,337v 4" fill="none" stroke="#ff0000" stroke-width="2"/>
<path d="M494,337v 4" fill="none" stroke="#ff0000" stroke-width="2"/>
<path d="M495,337v 4" fill="none" stroke="#ff0000" stroke-width="2"/>
<path d="M495,337v 4" fill="none" stroke="#ff0000" stroke-width="2"/>
<path d="M496,337v 4" fill="none" stroke="#ff0000" stroke-width="2"/>
<path d="M497,337v 4" fill="none" stroke="#ff0000" stroke-width="2"/>
<path d="M498,337v 4" fill="none" stroke="#ff0000" stroke-width="2"/>
<path d="M499,337v 4" fill="none" stroke="#ff0000" stroke-width="2"/>
<path d="M500,337v 4" fill="none" stroke="#ff0000" stroke-width="2"/>
<path d="M500,337v 4" fill="none" stroke="#ff0000" stroke-width="2"/>
<path d="M501,337v 4" fill="none" stroke="#ff0000" stroke-width="2"/>
<path d="M502,337v 4" fill="none" stroke="#ff0000" stroke-width="2"/>
<path d="M503,337v 4" fill="none" stroke="#ff0000" stroke-width="2"/>
<path d="M504,337v 4" fill="none" stroke="#ff0000" stroke-width="2"/>
<path d="M504,337v 4" fill="none" stroke="#ff0000" stroke-width="2"/>
<path d="M505,337v 4" fill="none" stroke="#ff0000" stroke-width="2"/>
<path d="M506,337v 4" fill="none" stroke="#ff0000" stroke-width="2"/>
<path d="M507,337v 4" fill="none" stroke="#ff0000" stroke-width="2"/>
<path d="M508,337v 4" fill="none" stroke="#ff0000" stroke-width="2"/>
<path d="M509,337v 4" fill="none" stroke="#ff0000" stroke-width="2"/>
<path d="M509,337v 4" fill="none" stroke="#ff0000" stroke-width="2"/>
<path d="M510,339v 2" fill="none" stroke="#ff0000" stroke-width="2"/>
<path d="M284,205l 1, 17v 23l 1, 16l 1, 9l 1, 6l 1, 5v 5l 1, 3l 1, 2l 1, 2l 1, 2v 2l 1, 1l 1, 1l 1, 1l 1, 2l 1, 2l 1, 1l 1, 1l 1, 2h 1v 1l 1, 1l 1, 1l 1, 1l 1, 1l 1, 1l 1, 1l 1, 1l 1, 1h 1v 1l 1, 1l 1, 1h 1l 1, 1h 1l 1, 1l 1, 1h 1l 1, 1l 1, 1h 1l 1,
 1h 1l 1, 1h 2l 1, 1h 1v 1h 2l 1, 1h 4l 1, 1h 1l 1, 1h 3l 1, 1h 3v 1h 9l 1, 1h 6l 1, 1h 9v 1h 14l 1, 1h 45l 1, 1h 77" fill="none" stroke="#ff0000" stroke-width="2"/>
<path d="M57,346h 453" fill="none" stroke="black"/>
<text x="419" y="372" fill="black" font-size="12" font-family="Helvetica">
TDC-TDC0 (ns)
</text>
<path d="M57,337v 9" fill="none" stroke="black"/>
<path d="M68,342v 4" fill="none" stroke="black"/>
<path d="M79,342v 4" fill="none" stroke="black"/>
<path d="M91,342v 4" fill="none" stroke="black"/>
<path d="M102,342v 4" fill="none" stroke="black"/>
<path d="M113,337v 9" fill="none" stroke="black"/>
<path d="M125,342v 4" fill="none" stroke="black"/>
<path d="M136,342v 4" fill="none" stroke="black"/>
<path d="M147,342v 4" fill="none" stroke="black"/>
<path d="M159,342v 4" fill="none" stroke="black"/>
<path d="M170,337v 9" fill="none" stroke="black"/>
<path d="M181,342v 4" fill="none" stroke="black"/>
<path d="M193,342v 4" fill="none" stroke="black"/>
<path d="M204,342v 4" fill="none" stroke="black"/>
<path d="M215,342v 4" fill="none" stroke="black"/>
<path d="M227,337v 9" fill="none" stroke="black"/>
<path d="M238,342v 4" fill="none" stroke="black"/>
<path d="M249,342v 4" fill="none" stroke="black"/>
<path d="M261,342v 4" fill="none" stroke="black"/>
<path d="M272,342v 4" fill="none" stroke="black"/>
<path d="M283,337v 9" fill="none" stroke="black"/>
<path d="M295,342v 4" fill="none" stroke="black"/>
<path d="M306,342v 4" fill="none" stroke="black"/>
<path d="M317,342v 4" fill="none" stroke="black"/>
<path d="M329,342v 4" fill="none" stroke="black"/>
<path d="M340,337v 9" fill="none" stroke="black"/>
<path d="M351,342v 4" fill="none" stroke="black"/>
<path d="M363,342v 4" fill="none" stroke="black"/>
<path d="M374,342v 4" fill="none" stroke="black"/>
<path d="M386,342v 4" fill="none" stroke="black"/>
<path d="M397,337v 9" fill="none" stroke="black"/>
<path d="M408,342v 4" fill="none" stroke="black"/>
<path d="M420,342v 4" fill="none" stroke="black"/>
<path d="M431,342v 4" fill="none" stroke="black"/>
<path d="M442,342v 4" fill="none" stroke="black"/>
<path d="M454,337v 9" fill="none" stroke="black"/>
<path d="M465,342v 4" fill="none" stroke="black"/>
<path d="M476,342v 4" fill="none" stroke="black"/>
<path d="M488,342v 4" fill="none" stroke="black"/>
<path d="M499,342v 4" fill="none" stroke="black"/>
<path d="M510,337v 9" fill="none" stroke="black"/>
<text x="36" y="359" fill="black" font-size="12" font-family="Helvetica">
-20000
</text>
<text x="93" y="359" fill="black" font-size="12" font-family="Helvetica">
-15000
</text>
<text x="149" y="359" fill="black" font-size="12" font-family="Helvetica">
-10000
</text>
<text x="210" y="359" fill="black" font-size="12" font-family="Helvetica">
-5000
</text>
<text x="280" y="359" fill="black" font-size="12" font-family="Helvetica">
0
</text>
<text x="325" y="359" fill="black" font-size="12" font-family="Helvetica">
5000
</text>
<text x="379" y="359" fill="black" font-size="12" font-family="Helvetica">
10000
</text>
<text x="435" y="359" fill="black" font-size="12" font-family="Helvetica">
15000
</text>
<text x="492" y="359" fill="black" font-size="12" font-family="Helvetica">
20000
</text>
<path d="M57,346v -308" fill="none" stroke="black"/>
<g transform="rotate(-90,29,72)">
<text x="29" y="72" fill="black" font-size="12" font-family="Helvetica">
Count
</text>
</g>
<path d="M70,346h -13" fill="none" stroke="black"/>
<path d="M63,338h -6" fill="none" stroke="black"/>
<path d="M63,330h -6" fill="none" stroke="black"/>
<path d="M63,322h -6" fill="none" stroke="black"/>
<path d="M63,314h -6" fill="none" stroke="black"/>
<path d="M70,305h -13" fill="none" stroke="black"/>
<path d="M63,297h -6" fill="none" stroke="black"/>
<path d="M63,289h -6" fill="none" stroke="black"/>
<path d="M63,281h -6" fill="none" stroke="black"/>
<path d="M63,273h -6" fill="none" stroke="black"/>
<path d="M70,264h -13" fill="none" stroke="black"/>
<path d="M63,256h -6" fill="none" stroke="black"/>
<path d="M63,248h -6" fill="none" stroke="black"/>
<path d="M63,240h -6" fill="none" stroke="black"/>
<path d="M63,232h -6" fill="none" stroke="black"/>
<path d="M70,223h -13" fill="none" stroke="black"/>
<path d="M63,215h -6" fill="none" stroke="black"/>
<path d="M63,207h -6" fill="none" stroke="black"/>
<path d="M63,199h -6" fill="none" stroke="black"/>
<path d="M63,191h -6" fill="none" stroke="black"/>
<path d="M70,182h -13" fill="none" stroke="black"/>
<path d="M63,174h -6" fill="none" stroke="black"/>
<path d="M63,166h -6" fill="none" stroke="black"/>
<path d="M63,158h -6" fill="none" stroke="black"/>
<path d="M63,150h -6" fill="none" stroke="black"/>
<path d="M70,141h -13" fill="none" stroke="black"/>
<path d="M63,133h -6" fill="none" stroke="black"/>
<path d="M63,125h -6" fill="none" stroke="black"/>
<path d="M63,117h -6" fill="none" stroke="black"/>
<path d="M63,109h -6" fill="none" stroke="black"/>
<path d="M70,100h -13" fill="none" stroke="black"/>
<path d="M63,92h -6" fill="none" stroke="black"/>
<path d="M63,84h -6" fill="none" stroke="black"/>
<path d="M63,76h -6" fill="none" stroke="black"/>
<path d="M63,68h -6" fill="none" stroke="black"/>
<path d="M70,59h -13" fill="none" stroke="black"/>
<path d="M70,59h -13" fill="none" stroke="black"/>
<path d="M63,51h -6" fill="none" stroke="black"/>
<path d="M63,43h -6" fill="none" stroke="black"/>
<text x="47" y="350" fill="black" font-size="12" font-family="Helvetica">
0
</text>
<text x="40" y="309" fill="black" font-size="12" font-family="Helvetica">
50
</text>
<text x="33" y="269" fill="black" font-size="12" font-family="Helvetica">
100
</text>
<text x="33" y="227" fill="black" font-size="12" font-family="Helvetica">
150
</text>
<text x="33" y="186" fill="black" font-size="12" font-family="Helvetica">
200
</text>
<text x="33" y="146" fill="black" font-size="12" font-family="Helvetica">
250
</text>
<text x="33" y="104" fill="black" font-size="12" font-family="Helvetica">
300
</text>
<text x="33" y="63" fill="black" font-size="12" font-family="Helvetica">
350
</text>
<rect x="442" y="25" width="114" height="46" fill="white"/>
<path d="M442,71h 114" fill="none" stroke="black"/>
<path d="M556,71v -46" fill="none" stroke="black"/>
<path d="M556,25h -114" fill="none" stroke="black"/>
<path d="M442,25v 46" fill="none" stroke="black"/>
<text x="447" y="28" fill="black" font-size="4" font-family="Helvetica">
Entries 
</text>
<text x="538" y="28" fill="black" font-size="4" font-family="Helvetica">
 34598
</text>
<text x="450" y="35" fill="black" font-size="4" font-family="Helvetica">
 / ndf 
</text>
<text x="449" y="31" fill="black" font-size="3" font-family="Helvetica">
2
</text>
<text x="447" y="35" fill="black" font-size="4" font-family="Times">
&#0967;
</text>
<text x="517" y="34" fill="black" font-size="4" font-family="Helvetica">
 3.205e+04 / 1240
</text>
<text x="452" y="37" fill="black" font-size="4" font-family="Helvetica">
   
</text>
<text x="450" y="40" fill="black" font-size="3" font-family="Helvetica">
cu
</text>
<text x="447" y="37" fill="black" font-size="4" font-family="Helvetica">
N
</text>
<text x="543" y="40" fill="black" font-size="4" font-family="Helvetica">
 7.5
</text>
<text x="541" y="40" fill="black" font-size="4" font-family="Times">
&#0177;
</text>
<text x="529" y="40" fill="black" font-size="4" font-family="Helvetica">
 128.2 
</text>
<text x="450" y="43" fill="black" font-size="4" font-family="Helvetica">
 
</text>
<text x="448" y="46" fill="black" font-size="3" font-family="Helvetica">
cu
</text>
<text x="447" y="43" fill="black" font-size="4" font-family="Times">
&#0964;
</text>
<text x="543" y="45" fill="black" font-size="4" font-family="Helvetica">
 0.4
</text>
<text x="541" y="45" fill="black" font-size="4" font-family="Times">
&#0177;
</text>
<text x="529" y="45" fill="black" font-size="4" font-family="Helvetica">
 162.5 
</text>
<text x="450" y="48" fill="black" font-size="4" font-family="Helvetica">
    
</text>
<text x="450" y="51" fill="black" font-size="3" font-family="Helvetica">
f
</text>
<text x="447" y="48" fill="black" font-size="4" font-family="Helvetica">
N
</text>
<text x="541" y="50" fill="black" font-size="4" font-family="Helvetica">
 1.05
</text>
<text x="538" y="50" fill="black" font-size="4" font-family="Times">
&#0177;
</text>
<text x="526" y="50" fill="black" font-size="4" font-family="Helvetica">
 76.62 
</text>
<text x="448" y="53" fill="black" font-size="4" font-family="Helvetica">
 
</text>
<text x="448" y="57" fill="black" font-size="3" font-family="Helvetica">
f
</text>
<text x="447" y="53" fill="black" font-size="4" font-family="Times">
&#0964;
</text>
<text x="543" y="55" fill="black" font-size="4" font-family="Helvetica">
 0.0
</text>
<text x="541" y="55" fill="black" font-size="4" font-family="Times">
&#0177;
</text>
<text x="529" y="55" fill="black" font-size="4" font-family="Helvetica">
  2197 
</text>
<text x="452" y="58" fill="black" font-size="4" font-family="Helvetica">
  
</text>
<text x="450" y="61" fill="black" font-size="3" font-family="Helvetica">
sin
</text>
<text x="447" y="58" fill="black" font-size="4" font-family="Helvetica">
N
</text>
<text x="539" y="60" fill="black" font-size="4" font-family="Helvetica">
 0.154
</text>
<text x="537" y="60" fill="black" font-size="4" font-family="Times">
&#0177;
</text>
<text x="525" y="60" fill="black" font-size="4" font-family="Helvetica">
 2.489 
</text>
<text x="447" y="65" fill="black" font-size="4" font-family="Helvetica">
T        
</text>
<text x="541" y="66" fill="black" font-size="4" font-family="Helvetica">
 0.00
</text>
<text x="538" y="66" fill="black" font-size="4" font-family="Times">
&#0177;
</text>
<text x="526" y="66" fill="black" font-size="4" font-family="Helvetica">
 59.36 
</text>
<text x="450" y="68" fill="black" font-size="4" font-family="Helvetica">
    
</text>
<text x="450" y="71" fill="black" font-size="3" font-family="Helvetica">
b
</text>
<text x="447" y="68" fill="black" font-size="4" font-family="Helvetica">
N
</text>
<text x="541" y="71" fill="black" font-size="4" font-family="Helvetica">
 0.10
</text>
<text x="538" y="71" fill="black" font-size="4" font-family="Times">
&#0177;
</text>
<text x="528" y="71" fill="black" font-size="4" font-family="Helvetica">
  8.95 
</text>
<text x="270" y="21" fill="black" font-size="21" font-family="Helvetica">
D4
</text></svg>
