<?xml version="1.0" standalone="no"?>
<svg width="567" height="385" viewBox="0 0 567 385" xmlns="http://www.w3.org/2000/svg">
<title>
images/analysis_g4bl_tight/452_D4.svg
</title>
<desc>
Creator: ROOT Version 5.34/05
CreationDate: Mon Jun 10 21:51:00 2013</desc>
<defs>
</defs>
<rect x="0" y="0" width="567" height="385" fill="white"/>
<rect x="57" y="38" width="453" height="308" fill="white"/>
<rect x="57" y="38" width="453" height="308" fill="none" stroke="black"/>
<rect x="57" y="38" width="453" height="308" fill="white"/>
<rect x="57" y="38" width="453" height="308" fill="none" stroke="black"/>
<path d="M57,346h 45v -2h 1v -11v 8v -6v 6h 1v -5v 2v -2v 3h 1v -4v 4v -4v 5h 1v -4v 8v -7h 1v -5v 7v -4v 6h 1v -7v 8v -5h 1v -3v 8v -2h 1v -6v 8h 1v -5v 5v -6v 3h 1v 1v -4v 4v -9h 1v 9v -3v 4v -4v 4h 1v -6v 8v -9h 1v 5v -8v 10h 1v -4v 5v -8v 9h 1v
 -2v 1v -6v 2h 1v -3v 7h 1v -7v 6v -4h 1v 4v -8v 6h 1v -5v 6v -2v 4v -10h 1v 10v -3v 2h 1v 2v -5v 4v -7v 1h 1v 5v -12v 12h 1v -5v 8v -10h 1v 10v -10v 4h 1v 5v -9h 1v 8v -12v 10h 1v -3v 3v -4v 2v -7h 1v 10v -6v 8h 1v -11v 13v -8h 1v 4v -8v 11h 1v -9v
 4v -3v 4v -10h 1v 9v -1h 1v 5v -11v 8v -5h 1v -2v 10v -6v 4h 1v 3v -9v 10v -11h 1v 9v -10v 5h 1v 4v -15v 13v -3h 1v -3v 11v -4v 1v -3h 1v -1v 2v -4v 6v -6h 1v 6v -1v 3v -7v 3h 1v 1v -4v 5v -3v 1v -4h 1v 4v -2v 6h 1v -13v 12v -2h 1v -5v 6v -5v 1v -4h
 1v 9v -9h 1v 7v -12v 10h 1v -1v 6h 1v -9v 4h 1v 1v -4v 3v -3h 1v -2v 11v -8v 1h 1v 2v -1v 4h 1v -6v 3v -2v 4h 1v -1v 1v -2h 1v -4v 6v -8h 1v 6v -8v 7h 1v -7v 12v -8h 1v 9v -11v 8h 1v -6v 6v -7h 1v 8v -4v 3v -2v 1h 1v -5v 8v -6v 2v -9h 1v 12v -6v 1v
 -1h 1v -6v 9v -1h 1v 3v -10v 10h 1v -8v 6v -9h 1v 9v -4v 5v -4h 1v 1v -5v 8v -7h 1v 8v -5v 6h 1v -12v 10v -9h 1v 8v -6v 6h 1v -2v 4v -1v 1h 1v -6v 2v -4v 3h 1v 3v -8v 11v -11h 1v 9v -1v 1v -9v 2h 1v 10v -8v 5v -11h 1v 9v -5v 6h 1v -3v 1v -3v 10v -6h
 1v -1v 1v -4h 1v 9v -6v 4v -7h 1v -5v 15v -14h 1v 15v -14v 5v -3h 1v -2v 9v -7h 1v 8v -8v 6v -1v 3h 1v -5v 6v -8v 3h 1v 1v -6v 8v -3h 1v -4v 4v -1v 3v -6v 2h 1v 5v -11v 11v -1h 1v -8v 12v -7v 5h 1v -5v 2v -1v 3h 1v -9v 10v -8v 6h 1v 2v -4v 4v -2v 2h
 1v -5v 5v -5v 2h 1v 6v -10v 7v -1h 1v -9v 13v -13v 3h 1v 5v -11v 9h 1v 2v -4v 2h 1v 1v -6v 7h 1v 1v -2v 1v -4h 1v 2v -4v 10h 1v 2v -9v 2v -5h 1v 7v -10v 6h 1v 4v -4v 4v -5h 1v 6v -9v 7h 1v -1v 3v -3v 3v -3h 1v 2v -8v 7h 1v -5v 7v -7h 1v 6v -7v 3h 1v
 6v -9v 7v -3h 1v -4v 8v -4v 5h 1v -11v 7v -4h 1v -1v 6v -5h 1v 1v -1v 5v -3h 1v 3v -4v 5v -8v 5h 1v 4v -11v 9v -4h 1v 1v -3v 9v -6h 1v 5v -8v 8v -5h 1v -4v 5v -6h 1v 13v -7v 1v -3v 3v -3h 1v -3v 2v -2v 8h 1v 2v -8v 6v -3h 1v -4v 7v -6v 2h 1v -5v 7v
 -4v 7v -5h 1v -5v 10v -8h 1v 3v -9v 15v -3h 1v -8v 6v -3v 2h 1v -2v 7h 1v -14v 12v -12v 5h 1v 6v -7v 6v -1h 1v 3v -3v 1v -8h 1v 9v -5v 1v -5h 1v 8v -4v 3v -4v 1v -8h 1v 12v -10v 11v -6h 1v 3v -3v 7v -6h 1v 4v -4v 6h 1v -10v 13v -9h 1v 1v -2v 3h 1v
 -5v 8v -9h 1v 4v -3v 8v -5h 1v 2v -6v 8v -6v 2h 1v 5v -7v 6v -4h 1v -3v 6v -10h 1v 11v -9v 7h 1v -2v 3v -6v 1h 1v -6v 11v -4v 3h 1v 3v -8v 9v -7h 1v 6v -7v 2h 1v -1v 7v -1v 1v -10h 1v -3v 15v -10v 2v -3h 1v 4v -4v 3v -2v 5h 1v -12v 14v -6v 1h 1v -4v
 3v -4v 10v -4h 1v -7h 1v 7v -6v 10v -12h 1v 9v -13v 11h 1v 6v -8v 6v -4h 1v -3v 6v -8h 1v -3v 8v -6v 5v -1h 1v -2v 6v -15v 4h 1v 13v -11v 9v -1h 1v -8v 8v -7h 1v -3v 6v -13v 13h 1v -6v 11v -6v 5h 1v -7v 8v -12v 9h 1v -10v 11v -7h 1v 6v -12v 7h 1v 2v
 -5v 5v -10h 1v 13v -8v 6h 1v -10v 14v -14v 13h 1v -14v 11v -3h 1v 1v -4v 8v -9v 10h 1v -13v 6v -3h 1v 4v -9v 3v -1v 10h 1v 1v -10v 6v -15h 1v 21v -8v 1v -9h 1v 4v -10v 12h 1v 2v -5v 1v -2v 1h 1v -7v 11v -6v 9h 1v -9v 2v -1v 1v -7h 1v 5v -13v 15h 1v
 -4v 7v -7v 9v -21h 1v 19v -6v 28h 1v -293v 138h 1v 79h 1v -7v 11v -27v 24h 1v -3v 13v -10v 17h 1v -25v 28v -30v 23v -10h 1v 17v -22h 1v 26v -21v 12v -8h 1v 11v -5v 9h 1v 4v -21v 20v -12h 1v 6v -1v 15v -22h 1v 9v -7v 11v -6v 4h 1v -13v 26v -22h 1v
 12v -7v 10v -7h 1v 10v -16v 13h 1v 5v -20v 17v -1v 10h 1v -14v 6v -10v 17h 1v -13v 2v -3v 12h 1v -11v 15v -15h 1v 17v -18v 13v -5h 1v -2v 11v -6v 6h 1v -16v 19v -3h 1v 6v -9v 12v -16v 4h 1v -4v 8v -7v 9v -1h 1v -7v 14h 1v -11v 3v -6h 1v -2v 5v -2v
 5h 1v -2v 7v -9v 12v -1h 1v -18v 23v -17h 1v 11v -13v 14h 1v -10v 13v -3v 1h 1v -11v 9h 1v -10v 17v -13v 6h 1v -16v 21v -3v 8h 1v -19v 11v -2h 1v 2v -4v 4v -2v 11h 1v -4v 4v -13v 12v -6h 1v -12v 17v -9h 1v 8v -5v 7v -13h 1v 5v -8v 15h 1v -6v 5v -8v
 11v -8h 1v -4v 11v -8v 1h 1v 10v -20v 20v -3h 1v -4v 2v -12v 11h 1v -1v 8v -14v 13v -8v 4h 1v -7v 7v -2h 1v -3v 11v -12v 4v -1h 1v 9v -15v 12v -4h 1v 4v -3v 7v -7h 1v -7v 14v -17h 1v 18v -14v 10v -2h 1v -2v 7v -7h 1v -2v 8v -13v 13v -5h 1v -8v 5h 1v
 4v -1v 2v -6v 9v -2h 1v -7v 7v -4v 7h 1v -5v 6v -10v 7h 1v -4v 5v -1h 1v -5v 7v -4v 4v -1h 1v -6v 6v -6h 1v 1v -4v 8h 1v -7v 8v -3h 1v 3v -3v 5v -1h 1v -5v 7v -2h 1v -9v 9v -4v 3h 1v 3v -8v 2h 1v 7v -7v 4h 1v -6v 3h 1v 3v -2v 4h 1v -4v 2v -6h 1v 12v
 -19v 10h 1v -3v 5v -2v 4h 1v -2v 3v -6v 2h 1v 6v -5v 3h 1v 1v -13v 11h 1v 2v -5v 5v -9h 1v 5v -4v 5v -9h 1v 11v -8v 5v -5v 3h 1v 4v -1v 2h 1v -9v 7v -1v 7h 1v -12v 10v -11h 1v 11v -3v 3v -1h 1v -3v 3v -8v 11h 1v -7v 7h 1v -7v 5v -6v 1h 1v 6v -8v 3v
 -1h 1v 4v -3h 1v -3v 4v -3v 3h 1v -2v 6v -6v 2v -3h 1v 9v -5v 4v -7h 1v 4v -4v 8v -6h 1v -2v 9v -9v 6h 1v -6v 1v -1v 3v -1h 1v 9v -12v 7h 1v -6v 6v -5v 2h 1v 3v -6v 9h 1v -14v 10v -3v 2h 1v -4v 6v -6v 5h 1v -4v 4v -3v 1h 1v 1v -4v 5v -13v 11h 1v -3v
 5v -3h 1v 1v -1v 4v -8v 3h 1v 2v -1v 2h 1v -4v 3v -7v 12h 1v -10v 7v -1v 2h 1v -3v 5v -12v 11h 1v 3v -14v 11h 1v -7v 6v -5v 5h 1v -6v 7v -2h 1v -5v 5v -3v 3h 1v 2v -7v 2v -1h 1v -1v 5v -6v 2h 1v 3v -2v 3h 1v -2v 2v -5h 1v 4v -2v 7h 1v -8v 2v -4v 6h
 1v -2v 3h 1v -9v 10v -5h 1v 2v -4v 9v -3h 1v -6v 1v -1h 1v 5v -8v 6v -2h 1v -1v 7v -5h 1v 4v -8v 9h 1v -9v 13v -13h 1v 10v -8v 8v -5h 1v -1v 5v -6h 1v 6v -7v 6v -4h 1v 6v -6v 4v -6h 1v 8v -4v 3v -14v 14h 1v -7v 11v -4h 1v -8v 5v -1v 5h 1v -6v 3v -4h
 1v 4v -3v 7h 1v -7v 5v -7v 2h 1v -2v 4v -8v 13h 1v -5v 1v -5v 9h 1v -3v 3v -11v 9h 1v -6v 7v -8h 1v 2v -2v 9v -9v 5h 1v 3v -8h 1v -1v 8v -8v 10h 1v -8v 7h 1v -6v 5v -7h 1v 7v -4v 1v -1h 1v 4v -6v 10h 1v -9v 3v -4v 3h 1v -1v 5v -7v 3h 1v 1v -3v 3h 1v
 -5v 7v -7v 2h 1v 4v -2v 1v -1h 1v -14v 19v -7v 3h 1v 1v -3v 5v -9h 1v 8v -7h 1v 9v -10v 6v -1v 6v -4h 1v -6v 6v -3v 2v -4h 1v 8v -8v 10h 1v -9v 3v -3v 2h 1v -4v 8v -9v 8h 1v -4v 3v -6v 8h 1v -4v 3v -4v 2v -1h 1v -4v 5v -1v 1v -5h 1v 7v -6v 8v -1h 1v
 -7v 4v -5h 1v 6v -6v 3v -1v 8h 1v -9h 1v 8v -11v 12h 1v -13v 7v -1v 4h 1v -7v 8v -7v 9h 1v -10v 9v -4h 1v -5v 9v -6v 6h 1v -10v 9v -6h 1v 4v -8v 10h 1v 2v -9v 6v -5h 1v 3v -2v 2v -6v 8h 1v -5v 3v -1v 3h 1v -2v 2v -7v 4h 1v 2v -5v 5v -1h 1v -2v 3v
 -7v 10h 1v 2v -17v 14h 1v -9v 7v -5v 10h 1v -11v 8v -2h 1v -4v 4v -9v 9h 1v 1v -9v 11v -4h 1v -3v 4v -1v 3v -6v 3h 1v 1v -6v 5h 1v -5v 7v -7v 2h 1v 3v -5v 5v -1h 1v 5v -5v 2v -1v 3v -3h 1v 3v -11v 10v -1h 1v 4v -10v 3h 1v 5v -5v 2v -1h 1v 5v -6v 4v
 -6h 1v 6v -10v 12v -6h 1v 4v -7v 7v -6h 1v 8v -7v 2h 1v 3v -3v 3v -8h 1v 7v -7v 11v -7h 1v -3v 9v -6h 1v -1v 3v -4v 7h 1v -3h 1v 3v -8v 7v -1h 1v -4v 6v -7h 1v 5v -1v 6v -14v 12h 1v 1v -6v 2h 1v -6v 6h 1v -6v 6v -5h 1v -2v 10v -4v 1v -7v 9h 1v -3v
 3v -5v 5h 1v -5v 5v -9v 10h 1v -8v 8v -5v 2h 1v -5v 5v -6v 3h 1v 3v -4v 4v -5h 1v 5v -5v 7v -11v 11h 1v -4v 3v -7v 11h 1v -6v 6v -10v 6h 1v 2v -6v 6v -3h 1v 1v -5v 4v -3v 4h 1v 1v -7v 7h 1v -8v 7v -7v 4v -14v 13h 1v 4v -4v 3h 1v -5v 10v -8h 1v 5v
 -3v 5v -3h 1v -8v 10v -4v 1h 1v -6v 8h 1v -9v 7v -4h 1v 4v -6v 5h 1v -5v 6v -5h 1v 3v -3v 4h 1v -10v 14" fill="none" stroke="#000099"/>
<path d="M284,254z" fill="none" stroke="#ff0000" stroke-width="2"/>
<path d="M285,254v 11" fill="none" stroke="#ff0000" stroke-width="2"/>
<path d="M285,266v 8" fill="none" stroke="#ff0000" stroke-width="2"/>
<path d="M286,273v 5" fill="none" stroke="#ff0000" stroke-width="2"/>
<path d="M287,275v 6" fill="none" stroke="#ff0000" stroke-width="2"/>
<path d="M288,277v 6" fill="none" stroke="#ff0000" stroke-width="2"/>
<path d="M289,279v 6" fill="none" stroke="#ff0000" stroke-width="2"/>
<path d="M289,282v 5" fill="none" stroke="#ff0000" stroke-width="2"/>
<path d="M290,284v 5" fill="none" stroke="#ff0000" stroke-width="2"/>
<path d="M291,285v 6" fill="none" stroke="#ff0000" stroke-width="2"/>
<path d="M292,286v 5" fill="none" stroke="#ff0000" stroke-width="2"/>
<path d="M293,288v 5" fill="none" stroke="#ff0000" stroke-width="2"/>
<path d="M293,291v 4" fill="none" stroke="#ff0000" stroke-width="2"/>
<path d="M294,291v 5" fill="none" stroke="#ff0000" stroke-width="2"/>
<path d="M295,292v 6" fill="none" stroke="#ff0000" stroke-width="2"/>
<path d="M296,294v 5" fill="none" stroke="#ff0000" stroke-width="2"/>
<path d="M297,295v 4" fill="none" stroke="#ff0000" stroke-width="2"/>
<path d="M298,297v 5" fill="none" stroke="#ff0000" stroke-width="2"/>
<path d="M298,298v 5" fill="none" stroke="#ff0000" stroke-width="2"/>
<path d="M299,299v 5" fill="none" stroke="#ff0000" stroke-width="2"/>
<path d="M300,299v 6" fill="none" stroke="#ff0000" stroke-width="2"/>
<path d="M301,302v 4" fill="none" stroke="#ff0000" stroke-width="2"/>
<path d="M302,303v 5" fill="none" stroke="#ff0000" stroke-width="2"/>
<path d="M302,304v 4" fill="none" stroke="#ff0000" stroke-width="2"/>
<path d="M303,304v 5" fill="none" stroke="#ff0000" stroke-width="2"/>
<path d="M304,305v 5" fill="none" stroke="#ff0000" stroke-width="2"/>
<path d="M305,307v 4" fill="none" stroke="#ff0000" stroke-width="2"/>
<path d="M306,308v 5" fill="none" stroke="#ff0000" stroke-width="2"/>
<path d="M307,308v 5" fill="none" stroke="#ff0000" stroke-width="2"/>
<path d="M307,308v 5" fill="none" stroke="#ff0000" stroke-width="2"/>
<path d="M308,310v 4" fill="none" stroke="#ff0000" stroke-width="2"/>
<path d="M309,311v 5" fill="none" stroke="#ff0000" stroke-width="2"/>
<path d="M310,312v 5" fill="none" stroke="#ff0000" stroke-width="2"/>
<path d="M311,313v 4" fill="none" stroke="#ff0000" stroke-width="2"/>
<path d="M311,313v 4" fill="none" stroke="#ff0000" stroke-width="2"/>
<path d="M312,314v 4" fill="none" stroke="#ff0000" stroke-width="2"/>
<path d="M313,314v 5" fill="none" stroke="#ff0000" stroke-width="2"/>
<path d="M314,315v 5" fill="none" stroke="#ff0000" stroke-width="2"/>
<path d="M315,316v 5" fill="none" stroke="#ff0000" stroke-width="2"/>
<path d="M315,316v 5" fill="none" stroke="#ff0000" stroke-width="2"/>
<path d="M316,317v 4" fill="none" stroke="#ff0000" stroke-width="2"/>
<path d="M317,317v 5" fill="none" stroke="#ff0000" stroke-width="2"/>
<path d="M318,318v 5" fill="none" stroke="#ff0000" stroke-width="2"/>
<path d="M319,318v 5" fill="none" stroke="#ff0000" stroke-width="2"/>
<path d="M320,319v 5" fill="none" stroke="#ff0000" stroke-width="2"/>
<path d="M320,320v 4" fill="none" stroke="#ff0000" stroke-width="2"/>
<path d="M321,320v 5" fill="none" stroke="#ff0000" stroke-width="2"/>
<path d="M322,321v 5" fill="none" stroke="#ff0000" stroke-width="2"/>
<path d="M323,321v 5" fill="none" stroke="#ff0000" stroke-width="2"/>
<path d="M324,321v 5" fill="none" stroke="#ff0000" stroke-width="2"/>
<path d="M324,322v 4" fill="none" stroke="#ff0000" stroke-width="2"/>
<path d="M325,322v 5" fill="none" stroke="#ff0000" stroke-width="2"/>
<path d="M326,323v 4" fill="none" stroke="#ff0000" stroke-width="2"/>
<path d="M327,323v 5" fill="none" stroke="#ff0000" stroke-width="2"/>
<path d="M328,324v 4" fill="none" stroke="#ff0000" stroke-width="2"/>
<path d="M329,324v 5" fill="none" stroke="#ff0000" stroke-width="2"/>
<path d="M329,325v 4" fill="none" stroke="#ff0000" stroke-width="2"/>
<path d="M330,325v 5" fill="none" stroke="#ff0000" stroke-width="2"/>
<path d="M331,325v 5" fill="none" stroke="#ff0000" stroke-width="2"/>
<path d="M332,326v 4" fill="none" stroke="#ff0000" stroke-width="2"/>
<path d="M333,326v 4" fill="none" stroke="#ff0000" stroke-width="2"/>
<path d="M333,326v 4" fill="none" stroke="#ff0000" stroke-width="2"/>
<path d="M334,326v 5" fill="none" stroke="#ff0000" stroke-width="2"/>
<path d="M335,326v 5" fill="none" stroke="#ff0000" stroke-width="2"/>
<path d="M336,327v 4" fill="none" stroke="#ff0000" stroke-width="2"/>
<path d="M337,327v 5" fill="none" stroke="#ff0000" stroke-width="2"/>
<path d="M337,327v 5" fill="none" stroke="#ff0000" stroke-width="2"/>
<path d="M338,328v 4" fill="none" stroke="#ff0000" stroke-width="2"/>
<path d="M339,328v 5" fill="none" stroke="#ff0000" stroke-width="2"/>
<path d="M340,328v 5" fill="none" stroke="#ff0000" stroke-width="2"/>
<path d="M341,329v 4" fill="none" stroke="#ff0000" stroke-width="2"/>
<path d="M342,329v 5" fill="none" stroke="#ff0000" stroke-width="2"/>
<path d="M342,329v 5" fill="none" stroke="#ff0000" stroke-width="2"/>
<path d="M343,329v 5" fill="none" stroke="#ff0000" stroke-width="2"/>
<path d="M344,330v 4" fill="none" stroke="#ff0000" stroke-width="2"/>
<path d="M345,330v 4" fill="none" stroke="#ff0000" stroke-width="2"/>
<path d="M346,330v 4" fill="none" stroke="#ff0000" stroke-width="2"/>
<path d="M346,330v 4" fill="none" stroke="#ff0000" stroke-width="2"/>
<path d="M347,330v 4" fill="none" stroke="#ff0000" stroke-width="2"/>
<path d="M348,330v 4" fill="none" stroke="#ff0000" stroke-width="2"/>
<path d="M349,330v 5" fill="none" stroke="#ff0000" stroke-width="2"/>
<path d="M350,330v 5" fill="none" stroke="#ff0000" stroke-width="2"/>
<path d="M351,330v 5" fill="none" stroke="#ff0000" stroke-width="2"/>
<path d="M351,331v 4" fill="none" stroke="#ff0000" stroke-width="2"/>
<path d="M352,331v 4" fill="none" stroke="#ff0000" stroke-width="2"/>
<path d="M353,331v 5" fill="none" stroke="#ff0000" stroke-width="2"/>
<path d="M354,331v 5" fill="none" stroke="#ff0000" stroke-width="2"/>
<path d="M355,331v 5" fill="none" stroke="#ff0000" stroke-width="2"/>
<path d="M355,331v 5" fill="none" stroke="#ff0000" stroke-width="2"/>
<path d="M356,332v 4" fill="none" stroke="#ff0000" stroke-width="2"/>
<path d="M357,332v 4" fill="none" stroke="#ff0000" stroke-width="2"/>
<path d="M358,332v 4" fill="none" stroke="#ff0000" stroke-width="2"/>
<path d="M359,332v 5" fill="none" stroke="#ff0000" stroke-width="2"/>
<path d="M359,332v 5" fill="none" stroke="#ff0000" stroke-width="2"/>
<path d="M360,332v 5" fill="none" stroke="#ff0000" stroke-width="2"/>
<path d="M361,332v 5" fill="none" stroke="#ff0000" stroke-width="2"/>
<path d="M362,332v 5" fill="none" stroke="#ff0000" stroke-width="2"/>
<path d="M363,333v 4" fill="none" stroke="#ff0000" stroke-width="2"/>
<path d="M364,333v 4" fill="none" stroke="#ff0000" stroke-width="2"/>
<path d="M364,333v 5" fill="none" stroke="#ff0000" stroke-width="2"/>
<path d="M365,333v 5" fill="none" stroke="#ff0000" stroke-width="2"/>
<path d="M366,333v 5" fill="none" stroke="#ff0000" stroke-width="2"/>
<path d="M367,333v 5" fill="none" stroke="#ff0000" stroke-width="2"/>
<path d="M368,333v 5" fill="none" stroke="#ff0000" stroke-width="2"/>
<path d="M368,333v 5" fill="none" stroke="#ff0000" stroke-width="2"/>
<path d="M369,333v 5" fill="none" stroke="#ff0000" stroke-width="2"/>
<path d="M370,334v 4" fill="none" stroke="#ff0000" stroke-width="2"/>
<path d="M371,334v 4" fill="none" stroke="#ff0000" stroke-width="2"/>
<path d="M372,334v 4" fill="none" stroke="#ff0000" stroke-width="2"/>
<path d="M372,334v 4" fill="none" stroke="#ff0000" stroke-width="2"/>
<path d="M373,334v 5" fill="none" stroke="#ff0000" stroke-width="2"/>
<path d="M374,334v 5" fill="none" stroke="#ff0000" stroke-width="2"/>
<path d="M375,334v 5" fill="none" stroke="#ff0000" stroke-width="2"/>
<path d="M376,334v 5" fill="none" stroke="#ff0000" stroke-width="2"/>
<path d="M377,334v 5" fill="none" stroke="#ff0000" stroke-width="2"/>
<path d="M377,334v 5" fill="none" stroke="#ff0000" stroke-width="2"/>
<path d="M378,334v 5" fill="none" stroke="#ff0000" stroke-width="2"/>
<path d="M379,334v 5" fill="none" stroke="#ff0000" stroke-width="2"/>
<path d="M380,334v 5" fill="none" stroke="#ff0000" stroke-width="2"/>
<path d="M381,334v 5" fill="none" stroke="#ff0000" stroke-width="2"/>
<path d="M381,334v 5" fill="none" stroke="#ff0000" stroke-width="2"/>
<path d="M382,334v 5" fill="none" stroke="#ff0000" stroke-width="2"/>
<path d="M383,334v 5" fill="none" stroke="#ff0000" stroke-width="2"/>
<path d="M384,334v 5" fill="none" stroke="#ff0000" stroke-width="2"/>
<path d="M385,334v 5" fill="none" stroke="#ff0000" stroke-width="2"/>
<path d="M386,334v 5" fill="none" stroke="#ff0000" stroke-width="2"/>
<path d="M386,334v 5" fill="none" stroke="#ff0000" stroke-width="2"/>
<path d="M387,334v 5" fill="none" stroke="#ff0000" stroke-width="2"/>
<path d="M388,334v 5" fill="none" stroke="#ff0000" stroke-width="2"/>
<path d="M389,334v 5" fill="none" stroke="#ff0000" stroke-width="2"/>
<path d="M390,334v 5" fill="none" stroke="#ff0000" stroke-width="2"/>
<path d="M390,334v 5" fill="none" stroke="#ff0000" stroke-width="2"/>
<path d="M391,334v 5" fill="none" stroke="#ff0000" stroke-width="2"/>
<path d="M392,334v 5" fill="none" stroke="#ff0000" stroke-width="2"/>
<path d="M393,334v 5" fill="none" stroke="#ff0000" stroke-width="2"/>
<path d="M394,334v 5" fill="none" stroke="#ff0000" stroke-width="2"/>
<path d="M394,334v 5" fill="none" stroke="#ff0000" stroke-width="2"/>
<path d="M395,334v 5" fill="none" stroke="#ff0000" stroke-width="2"/>
<path d="M396,334v 5" fill="none" stroke="#ff0000" stroke-width="2"/>
<path d="M397,334v 5" fill="none" stroke="#ff0000" stroke-width="2"/>
<path d="M398,334v 5" fill="none" stroke="#ff0000" stroke-width="2"/>
<path d="M399,334v 5" fill="none" stroke="#ff0000" stroke-width="2"/>
<path d="M399,334v 5" fill="none" stroke="#ff0000" stroke-width="2"/>
<path d="M400,335v 4" fill="none" stroke="#ff0000" stroke-width="2"/>
<path d="M401,335v 4" fill="none" stroke="#ff0000" stroke-width="2"/>
<path d="M402,335v 4" fill="none" stroke="#ff0000" stroke-width="2"/>
<path d="M403,335v 4" fill="none" stroke="#ff0000" stroke-width="2"/>
<path d="M403,335v 4" fill="none" stroke="#ff0000" stroke-width="2"/>
<path d="M404,335v 4" fill="none" stroke="#ff0000" stroke-width="2"/>
<path d="M405,335v 4" fill="none" stroke="#ff0000" stroke-width="2"/>
<path d="M406,335v 4" fill="none" stroke="#ff0000" stroke-width="2"/>
<path d="M407,335v 4" fill="none" stroke="#ff0000" stroke-width="2"/>
<path d="M408,335v 4" fill="none" stroke="#ff0000" stroke-width="2"/>
<path d="M408,335v 4" fill="none" stroke="#ff0000" stroke-width="2"/>
<path d="M409,335v 4" fill="none" stroke="#ff0000" stroke-width="2"/>
<path d="M410,335v 4" fill="none" stroke="#ff0000" stroke-width="2"/>
<path d="M411,335v 4" fill="none" stroke="#ff0000" stroke-width="2"/>
<path d="M412,335v 4" fill="none" stroke="#ff0000" stroke-width="2"/>
<path d="M412,335v 4" fill="none" stroke="#ff0000" stroke-width="2"/>
<path d="M413,335v 4" fill="none" stroke="#ff0000" stroke-width="2"/>
<path d="M414,335v 4" fill="none" stroke="#ff0000" stroke-width="2"/>
<path d="M415,335v 4" fill="none" stroke="#ff0000" stroke-width="2"/>
<path d="M416,335v 5" fill="none" stroke="#ff0000" stroke-width="2"/>
<path d="M416,335v 5" fill="none" stroke="#ff0000" stroke-width="2"/>
<path d="M417,335v 5" fill="none" stroke="#ff0000" stroke-width="2"/>
<path d="M418,335v 5" fill="none" stroke="#ff0000" stroke-width="2"/>
<path d="M419,335v 5" fill="none" stroke="#ff0000" stroke-width="2"/>
<path d="M420,335v 5" fill="none" stroke="#ff0000" stroke-width="2"/>
<path d="M421,335v 5" fill="none" stroke="#ff0000" stroke-width="2"/>
<path d="M421,335v 5" fill="none" stroke="#ff0000" stroke-width="2"/>
<path d="M422,335v 5" fill="none" stroke="#ff0000" stroke-width="2"/>
<path d="M423,335v 5" fill="none" stroke="#ff0000" stroke-width="2"/>
<path d="M424,335v 5" fill="none" stroke="#ff0000" stroke-width="2"/>
<path d="M425,335v 5" fill="none" stroke="#ff0000" stroke-width="2"/>
<path d="M425,335v 5" fill="none" stroke="#ff0000" stroke-width="2"/>
<path d="M426,335v 5" fill="none" stroke="#ff0000" stroke-width="2"/>
<path d="M427,335v 5" fill="none" stroke="#ff0000" stroke-width="2"/>
<path d="M428,335v 5" fill="none" stroke="#ff0000" stroke-width="2"/>
<path d="M429,335v 5" fill="none" stroke="#ff0000" stroke-width="2"/>
<path d="M430,335v 5" fill="none" stroke="#ff0000" stroke-width="2"/>
<path d="M430,335v 5" fill="none" stroke="#ff0000" stroke-width="2"/>
<path d="M431,335v 5" fill="none" stroke="#ff0000" stroke-width="2"/>
<path d="M432,335v 5" fill="none" stroke="#ff0000" stroke-width="2"/>
<path d="M433,335v 5" fill="none" stroke="#ff0000" stroke-width="2"/>
<path d="M434,335v 5" fill="none" stroke="#ff0000" stroke-width="2"/>
<path d="M434,335v 5" fill="none" stroke="#ff0000" stroke-width="2"/>
<path d="M435,335v 5" fill="none" stroke="#ff0000" stroke-width="2"/>
<path d="M436,335v 5" fill="none" stroke="#ff0000" stroke-width="2"/>
<path d="M437,335v 5" fill="none" stroke="#ff0000" stroke-width="2"/>
<path d="M438,335v 5" fill="none" stroke="#ff0000" stroke-width="2"/>
<path d="M438,335v 5" fill="none" stroke="#ff0000" stroke-width="2"/>
<path d="M439,335v 5" fill="none" stroke="#ff0000" stroke-width="2"/>
<path d="M440,335v 5" fill="none" stroke="#ff0000" stroke-width="2"/>
<path d="M441,335v 5" fill="none" stroke="#ff0000" stroke-width="2"/>
<path d="M442,335v 5" fill="none" stroke="#ff0000" stroke-width="2"/>
<path d="M443,335v 5" fill="none" stroke="#ff0000" stroke-width="2"/>
<path d="M443,335v 5" fill="none" stroke="#ff0000" stroke-width="2"/>
<path d="M444,335v 5" fill="none" stroke="#ff0000" stroke-width="2"/>
<path d="M445,335v 5" fill="none" stroke="#ff0000" stroke-width="2"/>
<path d="M446,335v 5" fill="none" stroke="#ff0000" stroke-width="2"/>
<path d="M447,335v 5" fill="none" stroke="#ff0000" stroke-width="2"/>
<path d="M447,335v 5" fill="none" stroke="#ff0000" stroke-width="2"/>
<path d="M448,335v 5" fill="none" stroke="#ff0000" stroke-width="2"/>
<path d="M449,335v 5" fill="none" stroke="#ff0000" stroke-width="2"/>
<path d="M450,335v 5" fill="none" stroke="#ff0000" stroke-width="2"/>
<path d="M451,335v 5" fill="none" stroke="#ff0000" stroke-width="2"/>
<path d="M452,335v 5" fill="none" stroke="#ff0000" stroke-width="2"/>
<path d="M452,335v 5" fill="none" stroke="#ff0000" stroke-width="2"/>
<path d="M453,335v 5" fill="none" stroke="#ff0000" stroke-width="2"/>
<path d="M454,335v 5" fill="none" stroke="#ff0000" stroke-width="2"/>
<path d="M455,335v 5" fill="none" stroke="#ff0000" stroke-width="2"/>
<path d="M456,335v 5" fill="none" stroke="#ff0000" stroke-width="2"/>
<path d="M456,335v 5" fill="none" stroke="#ff0000" stroke-width="2"/>
<path d="M457,335v 5" fill="none" stroke="#ff0000" stroke-width="2"/>
<path d="M458,335v 5" fill="none" stroke="#ff0000" stroke-width="2"/>
<path d="M459,335v 5" fill="none" stroke="#ff0000" stroke-width="2"/>
<path d="M460,335v 5" fill="none" stroke="#ff0000" stroke-width="2"/>
<path d="M460,335v 5" fill="none" stroke="#ff0000" stroke-width="2"/>
<path d="M461,335v 5" fill="none" stroke="#ff0000" stroke-width="2"/>
<path d="M462,335v 5" fill="none" stroke="#ff0000" stroke-width="2"/>
<path d="M463,335v 5" fill="none" stroke="#ff0000" stroke-width="2"/>
<path d="M464,335v 5" fill="none" stroke="#ff0000" stroke-width="2"/>
<path d="M465,335v 5" fill="none" stroke="#ff0000" stroke-width="2"/>
<path d="M465,335v 5" fill="none" stroke="#ff0000" stroke-width="2"/>
<path d="M466,335v 5" fill="none" stroke="#ff0000" stroke-width="2"/>
<path d="M467,335v 5" fill="none" stroke="#ff0000" stroke-width="2"/>
<path d="M468,335v 5" fill="none" stroke="#ff0000" stroke-width="2"/>
<path d="M469,335v 5" fill="none" stroke="#ff0000" stroke-width="2"/>
<path d="M469,335v 5" fill="none" stroke="#ff0000" stroke-width="2"/>
<path d="M470,335v 5" fill="none" stroke="#ff0000" stroke-width="2"/>
<path d="M471,335v 5" fill="none" stroke="#ff0000" stroke-width="2"/>
<path d="M472,335v 5" fill="none" stroke="#ff0000" stroke-width="2"/>
<path d="M473,335v 5" fill="none" stroke="#ff0000" stroke-width="2"/>
<path d="M473,335v 5" fill="none" stroke="#ff0000" stroke-width="2"/>
<path d="M474,335v 5" fill="none" stroke="#ff0000" stroke-width="2"/>
<path d="M475,335v 5" fill="none" stroke="#ff0000" stroke-width="2"/>
<path d="M476,335v 5" fill="none" stroke="#ff0000" stroke-width="2"/>
<path d="M477,335v 5" fill="none" stroke="#ff0000" stroke-width="2"/>
<path d="M478,335v 5" fill="none" stroke="#ff0000" stroke-width="2"/>
<path d="M478,335v 5" fill="none" stroke="#ff0000" stroke-width="2"/>
<path d="M479,335v 5" fill="none" stroke="#ff0000" stroke-width="2"/>
<path d="M480,335v 5" fill="none" stroke="#ff0000" stroke-width="2"/>
<path d="M481,335v 5" fill="none" stroke="#ff0000" stroke-width="2"/>
<path d="M482,335v 5" fill="none" stroke="#ff0000" stroke-width="2"/>
<path d="M482,335v 5" fill="none" stroke="#ff0000" stroke-width="2"/>
<path d="M483,335v 5" fill="none" stroke="#ff0000" stroke-width="2"/>
<path d="M484,335v 5" fill="none" stroke="#ff0000" stroke-width="2"/>
<path d="M485,335v 5" fill="none" stroke="#ff0000" stroke-width="2"/>
<path d="M486,335v 5" fill="none" stroke="#ff0000" stroke-width="2"/>
<path d="M487,335v 5" fill="none" stroke="#ff0000" stroke-width="2"/>
<path d="M487,335v 5" fill="none" stroke="#ff0000" stroke-width="2"/>
<path d="M488,335v 5" fill="none" stroke="#ff0000" stroke-width="2"/>
<path d="M489,335v 5" fill="none" stroke="#ff0000" stroke-width="2"/>
<path d="M490,335v 5" fill="none" stroke="#ff0000" stroke-width="2"/>
<path d="M491,335v 5" fill="none" stroke="#ff0000" stroke-width="2"/>
<path d="M491,335v 5" fill="none" stroke="#ff0000" stroke-width="2"/>
<path d="M492,335v 5" fill="none" stroke="#ff0000" stroke-width="2"/>
<path d="M493,335v 5" fill="none" stroke="#ff0000" stroke-width="2"/>
<path d="M494,335v 5" fill="none" stroke="#ff0000" stroke-width="2"/>
<path d="M495,335v 5" fill="none" stroke="#ff0000" stroke-width="2"/>
<path d="M495,335v 5" fill="none" stroke="#ff0000" stroke-width="2"/>
<path d="M496,335v 5" fill="none" stroke="#ff0000" stroke-width="2"/>
<path d="M497,335v 5" fill="none" stroke="#ff0000" stroke-width="2"/>
<path d="M498,335v 5" fill="none" stroke="#ff0000" stroke-width="2"/>
<path d="M499,335v 5" fill="none" stroke="#ff0000" stroke-width="2"/>
<path d="M500,335v 5" fill="none" stroke="#ff0000" stroke-width="2"/>
<path d="M500,335v 5" fill="none" stroke="#ff0000" stroke-width="2"/>
<path d="M501,335v 5" fill="none" stroke="#ff0000" stroke-width="2"/>
<path d="M502,335v 5" fill="none" stroke="#ff0000" stroke-width="2"/>
<path d="M503,335v 5" fill="none" stroke="#ff0000" stroke-width="2"/>
<path d="M504,335v 5" fill="none" stroke="#ff0000" stroke-width="2"/>
<path d="M504,335v 5" fill="none" stroke="#ff0000" stroke-width="2"/>
<path d="M505,335v 5" fill="none" stroke="#ff0000" stroke-width="2"/>
<path d="M506,335v 5" fill="none" stroke="#ff0000" stroke-width="2"/>
<path d="M507,335v 5" fill="none" stroke="#ff0000" stroke-width="2"/>
<path d="M508,335v 5" fill="none" stroke="#ff0000" stroke-width="2"/>
<path d="M509,335v 5" fill="none" stroke="#ff0000" stroke-width="2"/>
<path d="M509,335v 5" fill="none" stroke="#ff0000" stroke-width="2"/>
<path d="M510,337v 3" fill="none" stroke="#ff0000" stroke-width="2"/>
<path d="M284,254l 1, 6v 10l 1, 5l 1, 2l 1, 3l 1, 2v 3l 1, 1l 1, 1l 1, 2l 1, 2v 2l 1, 1l 1, 1l 1, 1l 1, 1l 1, 2v 1l 1, 1l 1, 1l 1, 2l 1, 1v 1l 1, 1l 1, 1h 1l 1, 2l 1, 1l 1, 1l 1, 1l 1, 1l 1, 1l 1, 1l 1, 1h 1l 1, 1l 1, 1l 1, 1l 1, 1h 2l 1, 1l 1, 1h 1l
 1, 1l 1, 1h 1l 1, 1h 2l 1, 1h 2l 1, 1l 1, 1h 2l 1, 1h 4l 1, 1h 2l 1, 1h 3l 1, 1h 3l 1, 1h 11v 1h 8l 1, 1h 13l 1, 1h 28l 1, 1h 93l 1, 1" fill="none" stroke="#ff0000" stroke-width="2"/>
<rect x="351" y="25" width="205" height="154" fill="white"/>
<path d="M351,179h 205" fill="none" stroke="black"/>
<path d="M556,179v -154" fill="none" stroke="black"/>
<path d="M556,25h -205" fill="none" stroke="black"/>
<path d="M351,25v 154" fill="none" stroke="black"/>
<text x="362" y="38" fill="black" font-size="14" font-family="Helvetica">
Entries 
</text>
<text x="498" y="38" fill="black" font-size="14" font-family="Helvetica">
 34598
</text>
<text x="374" y="58" fill="black" font-size="14" font-family="Helvetica">
 / ndf 
</text>
<text x="369" y="45" fill="black" font-size="10" font-family="Helvetica">
2
</text>
<text x="362" y="58" fill="black" font-size="14" font-family="Times">
&#0967;
</text>
<text x="455" y="55" fill="black" font-size="14" font-family="Helvetica">
  1479 / 1240
</text>
<text x="382" y="68" fill="black" font-size="14" font-family="Helvetica">
   
</text>
<text x="372" y="77" fill="black" font-size="10" font-family="Helvetica">
cu
</text>
<text x="362" y="68" fill="black" font-size="14" font-family="Helvetica">
N
</text>
<text x="503" y="74" fill="black" font-size="14" font-family="Helvetica">
 24.06
</text>
<text x="490" y="74" fill="black" font-size="14" font-family="Times">
&#0177;
</text>
<text x="443" y="74" fill="black" font-size="14" font-family="Helvetica">
 36.25 
</text>
<text x="377" y="87" fill="black" font-size="14" font-family="Helvetica">
 
</text>
<text x="367" y="97" fill="black" font-size="10" font-family="Helvetica">
cu
</text>
<text x="362" y="87" fill="black" font-size="14" font-family="Times">
&#0964;
</text>
<text x="503" y="91" fill="black" font-size="14" font-family="Helvetica">
 64.09
</text>
<text x="490" y="91" fill="black" font-size="14" font-family="Times">
&#0177;
</text>
<text x="443" y="91" fill="black" font-size="14" font-family="Helvetica">
 96.32 
</text>
<text x="375" y="102" fill="black" font-size="14" font-family="Helvetica">
    
</text>
<text x="372" y="111" fill="black" font-size="10" font-family="Helvetica">
f
</text>
<text x="362" y="102" fill="black" font-size="14" font-family="Helvetica">
N
</text>
<text x="511" y="108" fill="black" font-size="14" font-family="Helvetica">
 1.78
</text>
<text x="499" y="108" fill="black" font-size="14" font-family="Times">
&#0177;
</text>
<text x="451" y="108" fill="black" font-size="14" font-family="Helvetica">
 73.39 
</text>
<text x="370" y="121" fill="black" font-size="14" font-family="Helvetica">
 
</text>
<text x="367" y="131" fill="black" font-size="10" font-family="Helvetica">
f
</text>
<text x="362" y="121" fill="black" font-size="14" font-family="Times">
&#0964;
</text>
<text x="511" y="125" fill="black" font-size="14" font-family="Helvetica">
 53.9
</text>
<text x="499" y="125" fill="black" font-size="14" font-family="Times">
&#0177;
</text>
<text x="451" y="125" fill="black" font-size="14" font-family="Helvetica">
  2249 
</text>
<text x="384" y="137" fill="black" font-size="14" font-family="Helvetica">
  
</text>
<text x="372" y="146" fill="black" font-size="10" font-family="Helvetica">
sin
</text>
<text x="362" y="137" fill="black" font-size="14" font-family="Helvetica">
N
</text>
<text x="503" y="142" fill="black" font-size="14" font-family="Helvetica">
 0.153
</text>
<text x="490" y="142" fill="black" font-size="14" font-family="Times">
&#0177;
</text>
<text x="443" y="142" fill="black" font-size="14" font-family="Helvetica">
 2.468 
</text>
<text x="362" y="158" fill="black" font-size="14" font-family="Helvetica">
T        
</text>
<text x="511" y="159" fill="black" font-size="14" font-family="Helvetica">
 0.00
</text>
<text x="499" y="159" fill="black" font-size="14" font-family="Times">
&#0177;
</text>
<text x="451" y="159" fill="black" font-size="14" font-family="Helvetica">
 59.36 
</text>
<text x="377" y="171" fill="black" font-size="14" font-family="Helvetica">
    
</text>
<text x="372" y="180" fill="black" font-size="10" font-family="Helvetica">
b
</text>
<text x="362" y="171" fill="black" font-size="14" font-family="Helvetica">
N
</text>
<text x="503" y="176" fill="black" font-size="14" font-family="Helvetica">
 0.124
</text>
<text x="490" y="176" fill="black" font-size="14" font-family="Times">
&#0177;
</text>
<text x="443" y="176" fill="black" font-size="14" font-family="Helvetica">
 8.826 
</text>
<path d="M57,346h 453" fill="none" stroke="black"/>
<text x="419" y="372" fill="black" font-size="12" font-family="Helvetica">
TDC-TDC0 (ns)
</text>
<path d="M57,337v 9" fill="none" stroke="black"/>
<path d="M68,342v 4" fill="none" stroke="black"/>
<path d="M79,342v 4" fill="none" stroke="black"/>
<path d="M91,342v 4" fill="none" stroke="black"/>
<path d="M102,342v 4" fill="none" stroke="black"/>
<path d="M113,337v 9" fill="none" stroke="black"/>
<path d="M125,342v 4" fill="none" stroke="black"/>
<path d="M136,342v 4" fill="none" stroke="black"/>
<path d="M147,342v 4" fill="none" stroke="black"/>
<path d="M159,342v 4" fill="none" stroke="black"/>
<path d="M170,337v 9" fill="none" stroke="black"/>
<path d="M181,342v 4" fill="none" stroke="black"/>
<path d="M193,342v 4" fill="none" stroke="black"/>
<path d="M204,342v 4" fill="none" stroke="black"/>
<path d="M215,342v 4" fill="none" stroke="black"/>
<path d="M227,337v 9" fill="none" stroke="black"/>
<path d="M238,342v 4" fill="none" stroke="black"/>
<path d="M249,342v 4" fill="none" stroke="black"/>
<path d="M261,342v 4" fill="none" stroke="black"/>
<path d="M272,342v 4" fill="none" stroke="black"/>
<path d="M283,337v 9" fill="none" stroke="black"/>
<path d="M295,342v 4" fill="none" stroke="black"/>
<path d="M306,342v 4" fill="none" stroke="black"/>
<path d="M317,342v 4" fill="none" stroke="black"/>
<path d="M329,342v 4" fill="none" stroke="black"/>
<path d="M340,337v 9" fill="none" stroke="black"/>
<path d="M351,342v 4" fill="none" stroke="black"/>
<path d="M363,342v 4" fill="none" stroke="black"/>
<path d="M374,342v 4" fill="none" stroke="black"/>
<path d="M386,342v 4" fill="none" stroke="black"/>
<path d="M397,337v 9" fill="none" stroke="black"/>
<path d="M408,342v 4" fill="none" stroke="black"/>
<path d="M420,342v 4" fill="none" stroke="black"/>
<path d="M431,342v 4" fill="none" stroke="black"/>
<path d="M442,342v 4" fill="none" stroke="black"/>
<path d="M454,337v 9" fill="none" stroke="black"/>
<path d="M465,342v 4" fill="none" stroke="black"/>
<path d="M476,342v 4" fill="none" stroke="black"/>
<path d="M488,342v 4" fill="none" stroke="black"/>
<path d="M499,342v 4" fill="none" stroke="black"/>
<path d="M510,337v 9" fill="none" stroke="black"/>
<text x="36" y="359" fill="black" font-size="12" font-family="Helvetica">
-20000
</text>
<text x="93" y="359" fill="black" font-size="12" font-family="Helvetica">
-15000
</text>
<text x="149" y="359" fill="black" font-size="12" font-family="Helvetica">
-10000
</text>
<text x="210" y="359" fill="black" font-size="12" font-family="Helvetica">
-5000
</text>
<text x="280" y="359" fill="black" font-size="12" font-family="Helvetica">
0
</text>
<text x="325" y="359" fill="black" font-size="12" font-family="Helvetica">
5000
</text>
<text x="379" y="359" fill="black" font-size="12" font-family="Helvetica">
10000
</text>
<text x="435" y="359" fill="black" font-size="12" font-family="Helvetica">
15000
</text>
<text x="492" y="359" fill="black" font-size="12" font-family="Helvetica">
20000
</text>
<path d="M57,346v -308" fill="none" stroke="black"/>
<g transform="rotate(-90,29,72)">
<text x="29" y="72" fill="black" font-size="12" font-family="Helvetica">
Count
</text>
</g>
<path d="M70,346h -13" fill="none" stroke="black"/>
<path d="M63,337h -6" fill="none" stroke="black"/>
<path d="M63,328h -6" fill="none" stroke="black"/>
<path d="M63,319h -6" fill="none" stroke="black"/>
<path d="M63,309h -6" fill="none" stroke="black"/>
<path d="M70,300h -13" fill="none" stroke="black"/>
<path d="M63,291h -6" fill="none" stroke="black"/>
<path d="M63,282h -6" fill="none" stroke="black"/>
<path d="M63,272h -6" fill="none" stroke="black"/>
<path d="M63,263h -6" fill="none" stroke="black"/>
<path d="M70,254h -13" fill="none" stroke="black"/>
<path d="M63,245h -6" fill="none" stroke="black"/>
<path d="M63,235h -6" fill="none" stroke="black"/>
<path d="M63,226h -6" fill="none" stroke="black"/>
<path d="M63,217h -6" fill="none" stroke="black"/>
<path d="M70,208h -13" fill="none" stroke="black"/>
<path d="M63,198h -6" fill="none" stroke="black"/>
<path d="M63,189h -6" fill="none" stroke="black"/>
<path d="M63,180h -6" fill="none" stroke="black"/>
<path d="M63,171h -6" fill="none" stroke="black"/>
<path d="M70,161h -13" fill="none" stroke="black"/>
<path d="M63,152h -6" fill="none" stroke="black"/>
<path d="M63,143h -6" fill="none" stroke="black"/>
<path d="M63,133h -6" fill="none" stroke="black"/>
<path d="M63,124h -6" fill="none" stroke="black"/>
<path d="M70,115h -13" fill="none" stroke="black"/>
<path d="M63,106h -6" fill="none" stroke="black"/>
<path d="M63,96h -6" fill="none" stroke="black"/>
<path d="M63,87h -6" fill="none" stroke="black"/>
<path d="M63,78h -6" fill="none" stroke="black"/>
<path d="M70,69h -13" fill="none" stroke="black"/>
<path d="M70,69h -13" fill="none" stroke="black"/>
<path d="M63,59h -6" fill="none" stroke="black"/>
<path d="M63,50h -6" fill="none" stroke="black"/>
<path d="M63,41h -6" fill="none" stroke="black"/>
<text x="47" y="350" fill="black" font-size="12" font-family="Helvetica">
0
</text>
<text x="40" y="304" fill="black" font-size="12" font-family="Helvetica">
50
</text>
<text x="33" y="258" fill="black" font-size="12" font-family="Helvetica">
100
</text>
<text x="33" y="212" fill="black" font-size="12" font-family="Helvetica">
150
</text>
<text x="33" y="165" fill="black" font-size="12" font-family="Helvetica">
200
</text>
<text x="33" y="119" fill="black" font-size="12" font-family="Helvetica">
250
</text>
<text x="33" y="72" fill="black" font-size="12" font-family="Helvetica">
300
</text>
<rect x="351" y="25" width="205" height="154" fill="white"/>
<path d="M351,179h 205" fill="none" stroke="black"/>
<path d="M556,179v -154" fill="none" stroke="black"/>
<path d="M556,25h -205" fill="none" stroke="black"/>
<path d="M351,25v 154" fill="none" stroke="black"/>
<text x="362" y="38" fill="black" font-size="14" font-family="Helvetica">
Entries 
</text>
<text x="498" y="38" fill="black" font-size="14" font-family="Helvetica">
 34598
</text>
<text x="374" y="58" fill="black" font-size="14" font-family="Helvetica">
 / ndf 
</text>
<text x="369" y="45" fill="black" font-size="10" font-family="Helvetica">
2
</text>
<text x="362" y="58" fill="black" font-size="14" font-family="Times">
&#0967;
</text>
<text x="455" y="55" fill="black" font-size="14" font-family="Helvetica">
  1479 / 1240
</text>
<text x="382" y="68" fill="black" font-size="14" font-family="Helvetica">
   
</text>
<text x="372" y="77" fill="black" font-size="10" font-family="Helvetica">
cu
</text>
<text x="362" y="68" fill="black" font-size="14" font-family="Helvetica">
N
</text>
<text x="503" y="74" fill="black" font-size="14" font-family="Helvetica">
 24.06
</text>
<text x="490" y="74" fill="black" font-size="14" font-family="Times">
&#0177;
</text>
<text x="443" y="74" fill="black" font-size="14" font-family="Helvetica">
 36.25 
</text>
<text x="377" y="87" fill="black" font-size="14" font-family="Helvetica">
 
</text>
<text x="367" y="97" fill="black" font-size="10" font-family="Helvetica">
cu
</text>
<text x="362" y="87" fill="black" font-size="14" font-family="Times">
&#0964;
</text>
<text x="503" y="91" fill="black" font-size="14" font-family="Helvetica">
 64.09
</text>
<text x="490" y="91" fill="black" font-size="14" font-family="Times">
&#0177;
</text>
<text x="443" y="91" fill="black" font-size="14" font-family="Helvetica">
 96.32 
</text>
<text x="375" y="102" fill="black" font-size="14" font-family="Helvetica">
    
</text>
<text x="372" y="111" fill="black" font-size="10" font-family="Helvetica">
f
</text>
<text x="362" y="102" fill="black" font-size="14" font-family="Helvetica">
N
</text>
<text x="511" y="108" fill="black" font-size="14" font-family="Helvetica">
 1.78
</text>
<text x="499" y="108" fill="black" font-size="14" font-family="Times">
&#0177;
</text>
<text x="451" y="108" fill="black" font-size="14" font-family="Helvetica">
 73.39 
</text>
<text x="370" y="121" fill="black" font-size="14" font-family="Helvetica">
 
</text>
<text x="367" y="131" fill="black" font-size="10" font-family="Helvetica">
f
</text>
<text x="362" y="121" fill="black" font-size="14" font-family="Times">
&#0964;
</text>
<text x="511" y="125" fill="black" font-size="14" font-family="Helvetica">
 53.9
</text>
<text x="499" y="125" fill="black" font-size="14" font-family="Times">
&#0177;
</text>
<text x="451" y="125" fill="black" font-size="14" font-family="Helvetica">
  2249 
</text>
<text x="384" y="137" fill="black" font-size="14" font-family="Helvetica">
  
</text>
<text x="372" y="146" fill="black" font-size="10" font-family="Helvetica">
sin
</text>
<text x="362" y="137" fill="black" font-size="14" font-family="Helvetica">
N
</text>
<text x="503" y="142" fill="black" font-size="14" font-family="Helvetica">
 0.153
</text>
<text x="490" y="142" fill="black" font-size="14" font-family="Times">
&#0177;
</text>
<text x="443" y="142" fill="black" font-size="14" font-family="Helvetica">
 2.468 
</text>
<text x="362" y="158" fill="black" font-size="14" font-family="Helvetica">
T        
</text>
<text x="511" y="159" fill="black" font-size="14" font-family="Helvetica">
 0.00
</text>
<text x="499" y="159" fill="black" font-size="14" font-family="Times">
&#0177;
</text>
<text x="451" y="159" fill="black" font-size="14" font-family="Helvetica">
 59.36 
</text>
<text x="377" y="171" fill="black" font-size="14" font-family="Helvetica">
    
</text>
<text x="372" y="180" fill="black" font-size="10" font-family="Helvetica">
b
</text>
<text x="362" y="171" fill="black" font-size="14" font-family="Helvetica">
N
</text>
<text x="503" y="176" fill="black" font-size="14" font-family="Helvetica">
 0.124
</text>
<text x="490" y="176" fill="black" font-size="14" font-family="Times">
&#0177;
</text>
<text x="443" y="176" fill="black" font-size="14" font-family="Helvetica">
 8.826 
</text>
<text x="270" y="21" fill="black" font-size="21" font-family="Helvetica">
D4
</text></svg>
