<?xml version="1.0" standalone="no"?>
<svg width="567" height="385" viewBox="0 0 567 385" xmlns="http://www.w3.org/2000/svg">
<title>
images/analysis_g4bl_tight/458_D3.svg
</title>
<desc>
Creator: ROOT Version 5.34/05
CreationDate: Wed Jun 12 17:39:55 2013</desc>
<defs>
</defs>
<rect x="0" y="0" width="567" height="385" fill="white"/>
<rect x="57" y="38" width="453" height="308" fill="white"/>
<rect x="57" y="38" width="453" height="308" fill="none" stroke="black"/>
<rect x="57" y="38" width="453" height="308" fill="white"/>
<rect x="57" y="38" width="453" height="308" fill="none" stroke="black"/>
<path d="M57,346h 44v -1h 1v 1v -1v 1v -1h 1v -5v 3v -4h 1v -4v 4v -3h 1v -9v 14v -9h 1v 5v -4v 8h 1v -6v 5v -11v 10h 1v 6v -16v 10v -1h 1v -14v 12v -6v 5h 1v 2v -5v 5h 1v -8v 8v -6h 1v 10v -11v 12h 1v -12v 10v -9v 1h 1v 7v -8v 11h 1v -10v 9v -11h 1v
 10v -6v 4h 1v -8v 8v -9h 1v 10v -11v 11h 1v -9v 12v -10h 1v 7v -8v 5h 1v 3v -9v 10v -7h 1v -1v 9v -10v 5h 1v 5v -8v 7v -9h 1v 8v -3v 2h 1v 3v -7v 9v -12h 1v 9v -9v 5h 1v 4v -4v 1v -2v 4v -6h 1v 5v -5h 1v 7v -12v 11v -8h 1v 9v -8v 3h 1v 5v -10v 11v
 -1h 1v -6v 3v -4v 2h 1v 6v -12v 11v -7h 1v 4v -6v 3h 1v 4v -8v 9h 1v -6v 6v -7h 1v 7v -7v 5v -6h 1v 11v -10h 1v 11v -11v 6h 1v -7v 6v -1v 1v -8h 1v 10v -8v 10v -3h 1v -11v 10v -7h 1v 7v -3v 5h 1v -9v 10v -9v 4h 1v 6v -8v 6h 1v -6v 6v -8v 9h 1v -12v
 11h 1v -10v 12v -12h 1v 9v -11v 11h 1v -6v 9v -9h 1v 7v -11v 14h 1v -12v 10v -6h 1v 5v -8v 8h 1v -5v 2v -2v 4v -4h 1v 4v -8v 9h 1v -6v 6v -10h 1v 11v -8v 4h 1v 6v -13v 13v -10h 1v 8v -11v 7h 1v 2v -8v 8v -8h 1v 9v -11v 8h 1v -2v 1v -4v 6v -4h 1v 5v
 -3h 1v 5v -11v 11v -5h 1v 4v -8h 1v 8v -10v 12v -8h 1v 4v -3h 1v 5v -6v 7v -8h 1v 8v -10h 1v 11v -6v 7v -8h 1v -3v 4v -2v 3h 1v 4v -8v 8v -3h 1v -7v 10v -12h 1v 9v -1v 5v -7v 4h 1v -16v 16v -7v 4h 1v 5v -7v 4v -2h 1v -4v 8v -7h 1v 7v -11v 10h 1v -4v
 5v -11h 1v 14v -12v 10h 1v -11v 13v -14h 1v 9v -8v 11h 1v -9v 8v -6h 1v 8v -14v 12h 1v -5v 1v -1v 6v -7h 1v 5v -5v 7h 1v -15v 14v -6h 1v 9v -11v 7h 1v -5v 6v -8h 1v 11v -9v 5h 1v -9v 12v -12h 1v 12v -7v 6h 1v -6v 2v -4v 8v -5h 1v -1v 2v -4v 2h 1v 6v
 -6v 3v -7h 1v 10v -14v 9h 1v 6v -8v 4v -4h 1v 5v -6h 1v 7v -5v 5v -6h 1v 8v -9v 4h 1v 3v -6v 7v -6h 1v -3v 8v -8v 6h 1v 2v -7v 7v -7h 1v -1v 8v -6v 2h 1v 1v -2v 7v -4h 1v -4v 4v -9h 1v 12v -7v 5v -2h 1v -7v 12v -13v 7h 1v 6v -10v 9v -1h 1v -7v 7v
 -1h 1v -2v 4v -11v 9v -3h 1v -5v 11v -6v 1h 1v -2v 6v -3v 2h 1v -4v 6v -6h 1v 5v -12v 11v -1h 1v -3v 4v -8h 1v 9v -8v 8h 1v -9v 6v -3h 1v 3v -6v 4v -2v 1h 1v 5v -8v 7v -7h 1v 9v -17v 16h 1v -10v 13v -10h 1v 8v -7v 6v -8v 9h 1v -7v 4v -4h 1v -2v 4v
 -6v 7h 1v -8v 12v -9h 1v 9v -7v 3h 1v 2v -13v 13v -5h 1v 3v -4v 5h 1v -6v 10v -13h 1v 12v -9v 8h 1v -11v 12v -5h 1v -3v 6v -6v 4h 1v 3v -8v 7v -8h 1v 6v -9v 5h 1v 7v -12v 10v -7h 1v 6v -6h 1v 9v -7v 7v -13h 1v 12v -7h 1v 11v -14v 8v -3h 1v -2v 7v
 -8h 1v 6v -4v 7v -10h 1v -5v 12v -8h 1v 11v -11v 8v -7h 1v 6v -5h 1v 9v -12v 10h 1v -8v 9v -9h 1v 7v -5v 3v -4h 1v 2v -1v 2v -9h 1v 14v -5v 2h 1v -5v 5v -6h 1v 10v -14v 9v -1h 1v -8v 12v -12h 1v 14v -14v 9h 1v -10v 10v -8h 1v 10v -8v 11h 1v -15v 11v
 -4h 1v -1v 7v -8v 10h 1v -11v 8v -7h 1v -2v 5v -7v 7h 1v 4v -9v 10v -8h 1v -1v 5v -9v 7h 1v 5v -7v 6v -7h 1v 7v -4v 2h 1v -1v 3v -6h 1v -4v 9v -6v 4h 1v 1v -7v 5v -5h 1v 6v -4v 3v -4h 1v 8v -12v 11v -6h 1v 6v -12v 7h 1v 5v -8v 7v -6h 1v 6v -6v 4h 1v
 1v -12v 16v -8h 1v -9v 14v -12v 8h 1v 2v -7v 11v -6h 1v -5v 4v -10v 8h 1v 6v -7v 8h 1v -13v 11v -7v 2h 1v 8v -7v 6v -10h 1v 5v -5v 1h 1v 5v -3v 3v -2v 6v -8h 1v -6v 11v -25h 1v 15v -13v 39h 1v -293v 110h 1v 63v -12v 21v -10h 1v 34v -24h 1v 20v -4v
 9v -16h 1v -7v 20v -3h 1v -1v 11v -6v 12v -7v 3h 1v -8v 17v -16v 4h 1v 11v -17v 15h 1v -5v 4v -11h 1v 19v -25v 18h 1v 5v -5v 9v -4h 1v 10v -11v 2v -9v 20h 1v -10v 1v -3v 1h 1v 7v -11v 14v -13v 15h 1v -9v 14v -15h 1v 15v -23v 24h 1v -11v 7v -12h 1v
 21v -22v 12v -1h 1v 10v -9h 1v 8v -17v 14h 1v -8v 6v -4v 9h 1v 3v -14v 11v -5v 13h 1v -12v 5v -3v 9v -7h 1v -6v 11v -5v 3v -9h 1v 10v -14v 19h 1v -12v 8v -5v 3h 1v 3v -6v 10v -11h 1v 16v -18h 1v 15v -9v 8v -10v 8h 1v 3v -7v 1h 1v -3v 6v -8v 12v -3h
 1v -6v 12v -11v 3h 1v 6v -5v 9v -8h 1v -5v 13v -9v 4h 1v 10v -17v 20h 1v -17v 6v -3h 1v 7v -7v 11h 1v -10v 9v -8v 3h 1v 4v -8v 7h 1v -10v 11v -8v 4h 1v -5v 12v -5v 5v -3h 1v -9v 15v -13h 1v 10v -6v 3v -4v 6h 1v -7v 9v -2v 5h 1v -4v 6v -18v 7v -3h 1v
 8v -2v 9v -14h 1v 13v -12v 7h 1v -6v 12v -8h 1v 8v -14v 8v -4h 1v 12v -14h 1v 12v -9v 5v -1h 1v -3v 5v -4h 1v -3v 8v -13v 8h 1v 5v -4v 7v -6h 1v 4v -12v 6h 1v 1v -7v 13v -3h 1v -8v 12v -7v 8h 1v -12v 8v -5v 1h 1v -2v 9v -9v 6h 1v 1v -6v 6v -7h 1v 6v
 -8v 7v -3v 5v -3h 1v 4v -4v 5v -3h 1v -11v 13v -9v 4h 1v 8v -12v 6v -1h 1v -3v 8v -6v 3h 1v 5v -7v 8h 1v -11v 9v -8v 1h 1v 10v -9v 12v -7h 1v -5v 10v -14h 1v 13v -13v 11v -3h 1v -1v 9v -18h 1v 15v -13v 10v -1h 1v -1v 3v -6h 1v 11v -8v 7v -5h 1v -5v
 11v -9v 1h 1v -2v 4v -2v 5v -6h 1v 4v -8h 1v 9v -8v 8h 1v -8v 11v -7h 1v 8v -14v 14h 1v -15v 14v -5h 1v -2v 6v -8v 6h 1v -6v 9v -6h 1v -5v 10v -6v 2h 1v 1v -7v 11v -10h 1v 11v -11v 9v -1h 1v -7v 8v -8h 1v 8v -11v 11h 1v -7v 6v -3h 1v -3v 6v -1v 2h
 1v -7v 8v -1h 1v -5v 4v -4v 5h 1v -9v 12v -3h 1v -10v 12v -8v 9h 1v -10v 12v -4h 1v -3v 5v -12v 8h 1v 5v -9v 8h 1v -11v 13v -12v 7h 1v 4v -13v 13h 1v -13v 12v -12h 1v 11v -9v 11h 1v -7v 4v -9h 1v 8v -6v 7h 1v -3v 5v -6v 1h 1v 3v -11v 11h 1v -7v 7v
 -4v 1h 1v 4v -5v 5h 1v -11v 10v -8h 1v 7v -6v 9v -4h 1v -5v 10v -10h 1v 9v -8v 9v -3h 1v -5v 6v -8h 1v 13v -13v 7h 1v -3v 5v -6v 3h 1v -4v 7v -9v 8h 1v -11v 13v -10h 1v 8v -6v 6h 1v -11v 8v -8h 1v 10v -6v 7h 1v -7v 8v -10h 1v 8v -6v 8h 1v -6v 7v -9h
 1v 8v -8v 10h 1v -8v 4v -3h 1v -3v 7v -8v 9h 1v -10v 10v -6h 1v -2v 9v -8v 9h 1v -13v 13v -6h 1v 1v -2v 6v -7v 1h 1v 6v -9v 7v -3h 1v -2v 6v -10v 9h 1v -6v 6h 1v -6v 10v -7h 1v 6v -11v 7h 1v -4v 8v -8v 2h 1v 5v -11v 7h 1v -6v 10v -7h 1v 8v -8v 6h 1v
 -9v 8v -5v 1h 1v 4v -8v 10h 1v -10v 7v -5v 1h 1v 6v -11v 13h 1v -13v 10v -5v 2h 1v 7v -9v 7h 1v -9v 5v -6h 1v 6v -5v 10h 1v -7v 7v -10h 1v 8v -9v 10h 1v -12v 6v -4h 1v 9v -8v 8h 1v -11v 13v -7h 1v -1v 9v -9v 4h 1v -5v 9v -8h 1v 6v -6v 4v -2h 1v -6v
 8v -5h 1v 8v -6v 5h 1v -6v 8v -5h 1v -2v 7v -9v 10h 1v -10v 6v -1h 1v -3v 5v -10v 8h 1v 3v -9v 8v -10h 1v 6v -4v 7h 1v 2v -7v 8h 1v -11v 11v -11v 9h 1v 1v -5v 6h 1v -7v 8v -10v 2h 1v 5v -6v 5h 1v -7v 9v -12v 8h 1v -4v 7h 1v -7v 4v -8v 7h 1v 3v -6v
 6h 1v -6v 7v -6v 2h 1v 2v -6v 7h 1v -6v 7v -5v 2h 1v 3v -6v 6h 1v -5v 4v -9v 7h 1v -1v 5v -3h 1v -5v 9v -15h 1v 12v -5v 3h 1v 1v -4v 6v -3h 1v 3v -11v 9h 1v 3v -8v 9v -12h 1v 10v -8v 6h 1v -5v 10v -10h 1v 7v -5v 3h 1v 3v -9v 12v -14h 1v 11v -9v 5h
 1v 5v -10v 7v -5h 1v -1v 8v -9v 6h 1v 1v -10v 11v -8h 1v 8v -8v 9h 1v -6v 5v -9h 1v 9v -7v 6h 1v -4v 6v -6h 1v -1v 5v -4v 6h 1v -6v 5v -2h 1v -10v 14v -7v 5h 1v -7v 4v -3h 1v -6v 13v -7v 4h 1v 1v -6v 8h 1v -9v 9v -9v 5h 1v 4v -7v 5h 1v -7v 8v -10v
 6h 1v 2v -5v 6h 1v -6v 5v -5h 1v 7v -8v 8v -1h 1v -5v 6v -3v 3h 1v 2v -8v 4h 1v -8v 11v -8v 5h 1v 4v -11v 9h 1v -7v 7v -8v 1h 1v 9v -6v 6h 1v -9v 7v -3v 1h 1v 3v -4v 7h 1v -10v 7v -9v 1h 1v 6v -7v 8h 1v -4v 5v -11h 1v 8v -6v 10h 1v -8v 7v -7h 1v 7v
 -10v 6h 1v 6v -13v 11v -8h 1v 6v -5v 3h 1v 5v -9v 5v -4v 2h 1v 6v -7h 1v 3v -5v 8v -4h 1v 3v -7v 6h 1v 3v -12v 7" fill="none" stroke="#000099"/>
<rect x="442" y="25" width="114" height="46" fill="white"/>
<path d="M442,71h 114" fill="none" stroke="black"/>
<path d="M556,71v -46" fill="none" stroke="black"/>
<path d="M556,25h -114" fill="none" stroke="black"/>
<path d="M442,25v 46" fill="none" stroke="black"/>
<text x="447" y="28" fill="black" font-size="4" font-family="Helvetica">
Entries 
</text>
<text x="538" y="28" fill="black" font-size="4" font-family="Helvetica">
 78750
</text>
<text x="450" y="35" fill="black" font-size="4" font-family="Helvetica">
 / ndf 
</text>
<text x="449" y="31" fill="black" font-size="3" font-family="Helvetica">
2
</text>
<text x="447" y="35" fill="black" font-size="4" font-family="Times">
&#0967;
</text>
<text x="526" y="34" fill="black" font-size="4" font-family="Helvetica">
  1663 / 1240
</text>
<text x="452" y="37" fill="black" font-size="4" font-family="Helvetica">
   
</text>
<text x="450" y="40" fill="black" font-size="3" font-family="Helvetica">
cu
</text>
<text x="447" y="37" fill="black" font-size="4" font-family="Helvetica">
N
</text>
<text x="541" y="40" fill="black" font-size="4" font-family="Helvetica">
 10.8
</text>
<text x="538" y="40" fill="black" font-size="4" font-family="Times">
&#0177;
</text>
<text x="528" y="40" fill="black" font-size="4" font-family="Helvetica">
   234 
</text>
<text x="450" y="43" fill="black" font-size="4" font-family="Helvetica">
 
</text>
<text x="448" y="46" fill="black" font-size="3" font-family="Helvetica">
cu
</text>
<text x="447" y="43" fill="black" font-size="4" font-family="Times">
&#0964;
</text>
<text x="543" y="45" fill="black" font-size="4" font-family="Helvetica">
 1.3
</text>
<text x="541" y="45" fill="black" font-size="4" font-family="Times">
&#0177;
</text>
<text x="529" y="45" fill="black" font-size="4" font-family="Helvetica">
 162.5 
</text>
<text x="450" y="48" fill="black" font-size="4" font-family="Helvetica">
    
</text>
<text x="450" y="51" fill="black" font-size="3" font-family="Helvetica">
f
</text>
<text x="447" y="48" fill="black" font-size="4" font-family="Helvetica">
N
</text>
<text x="543" y="50" fill="black" font-size="4" font-family="Helvetica">
 1.6
</text>
<text x="541" y="50" fill="black" font-size="4" font-family="Times">
&#0177;
</text>
<text x="529" y="50" fill="black" font-size="4" font-family="Helvetica">
 178.5 
</text>
<text x="448" y="53" fill="black" font-size="4" font-family="Helvetica">
 
</text>
<text x="448" y="57" fill="black" font-size="3" font-family="Helvetica">
f
</text>
<text x="447" y="53" fill="black" font-size="4" font-family="Times">
&#0964;
</text>
<text x="543" y="55" fill="black" font-size="4" font-family="Helvetica">
 0.0
</text>
<text x="541" y="55" fill="black" font-size="4" font-family="Times">
&#0177;
</text>
<text x="529" y="55" fill="black" font-size="4" font-family="Helvetica">
  2197 
</text>
<text x="452" y="58" fill="black" font-size="4" font-family="Helvetica">
  
</text>
<text x="450" y="61" fill="black" font-size="3" font-family="Helvetica">
sin
</text>
<text x="447" y="58" fill="black" font-size="4" font-family="Helvetica">
N
</text>
<text x="539" y="60" fill="black" font-size="4" font-family="Helvetica">
 0.240
</text>
<text x="537" y="60" fill="black" font-size="4" font-family="Times">
&#0177;
</text>
<text x="525" y="60" fill="black" font-size="4" font-family="Helvetica">
 7.774 
</text>
<text x="447" y="65" fill="black" font-size="4" font-family="Helvetica">
T        
</text>
<text x="541" y="66" fill="black" font-size="4" font-family="Helvetica">
 0.00
</text>
<text x="538" y="66" fill="black" font-size="4" font-family="Times">
&#0177;
</text>
<text x="526" y="66" fill="black" font-size="4" font-family="Helvetica">
 59.41 
</text>
<text x="450" y="68" fill="black" font-size="4" font-family="Helvetica">
    
</text>
<text x="450" y="71" fill="black" font-size="3" font-family="Helvetica">
b
</text>
<text x="447" y="68" fill="black" font-size="4" font-family="Helvetica">
N
</text>
<text x="541" y="71" fill="black" font-size="4" font-family="Helvetica">
 0.16
</text>
<text x="538" y="71" fill="black" font-size="4" font-family="Times">
&#0177;
</text>
<text x="526" y="71" fill="black" font-size="4" font-family="Helvetica">
 21.43 
</text>
<path d="M284,163v 4" fill="none" stroke="#ff0000" stroke-width="2"/>
<path d="M285,168v 30" fill="none" stroke="#ff0000" stroke-width="2"/>
<path d="M285,200v 24" fill="none" stroke="#ff0000" stroke-width="2"/>
<path d="M286,225v 13" fill="none" stroke="#ff0000" stroke-width="2"/>
<path d="M287,234v 13" fill="none" stroke="#ff0000" stroke-width="2"/>
<path d="M288,242v 11" fill="none" stroke="#ff0000" stroke-width="2"/>
<path d="M289,248v 11" fill="none" stroke="#ff0000" stroke-width="2"/>
<path d="M289,256v 9" fill="none" stroke="#ff0000" stroke-width="2"/>
<path d="M290,260v 9" fill="none" stroke="#ff0000" stroke-width="2"/>
<path d="M291,262v 10" fill="none" stroke="#ff0000" stroke-width="2"/>
<path d="M292,264v 9" fill="none" stroke="#ff0000" stroke-width="2"/>
<path d="M293,267v 9" fill="none" stroke="#ff0000" stroke-width="2"/>
<path d="M293,271v 8" fill="none" stroke="#ff0000" stroke-width="2"/>
<path d="M294,273v 8" fill="none" stroke="#ff0000" stroke-width="2"/>
<path d="M295,274v 8" fill="none" stroke="#ff0000" stroke-width="2"/>
<path d="M296,276v 8" fill="none" stroke="#ff0000" stroke-width="2"/>
<path d="M297,278v 8" fill="none" stroke="#ff0000" stroke-width="2"/>
<path d="M298,280v 9" fill="none" stroke="#ff0000" stroke-width="2"/>
<path d="M298,282v 8" fill="none" stroke="#ff0000" stroke-width="2"/>
<path d="M299,282v 9" fill="none" stroke="#ff0000" stroke-width="2"/>
<path d="M300,284v 9" fill="none" stroke="#ff0000" stroke-width="2"/>
<path d="M301,286v 8" fill="none" stroke="#ff0000" stroke-width="2"/>
<path d="M302,288v 8" fill="none" stroke="#ff0000" stroke-width="2"/>
<path d="M302,289v 8" fill="none" stroke="#ff0000" stroke-width="2"/>
<path d="M303,290v 9" fill="none" stroke="#ff0000" stroke-width="2"/>
<path d="M304,291v 8" fill="none" stroke="#ff0000" stroke-width="2"/>
<path d="M305,293v 7" fill="none" stroke="#ff0000" stroke-width="2"/>
<path d="M306,295v 8" fill="none" stroke="#ff0000" stroke-width="2"/>
<path d="M307,295v 9" fill="none" stroke="#ff0000" stroke-width="2"/>
<path d="M307,296v 8" fill="none" stroke="#ff0000" stroke-width="2"/>
<path d="M308,297v 8" fill="none" stroke="#ff0000" stroke-width="2"/>
<path d="M309,299v 8" fill="none" stroke="#ff0000" stroke-width="2"/>
<path d="M310,299v 9" fill="none" stroke="#ff0000" stroke-width="2"/>
<path d="M311,300v 9" fill="none" stroke="#ff0000" stroke-width="2"/>
<path d="M311,301v 9" fill="none" stroke="#ff0000" stroke-width="2"/>
<path d="M312,303v 8" fill="none" stroke="#ff0000" stroke-width="2"/>
<path d="M313,304v 8" fill="none" stroke="#ff0000" stroke-width="2"/>
<path d="M314,304v 9" fill="none" stroke="#ff0000" stroke-width="2"/>
<path d="M315,305v 8" fill="none" stroke="#ff0000" stroke-width="2"/>
<path d="M315,306v 8" fill="none" stroke="#ff0000" stroke-width="2"/>
<path d="M316,308v 7" fill="none" stroke="#ff0000" stroke-width="2"/>
<path d="M317,308v 8" fill="none" stroke="#ff0000" stroke-width="2"/>
<path d="M318,308v 9" fill="none" stroke="#ff0000" stroke-width="2"/>
<path d="M319,309v 8" fill="none" stroke="#ff0000" stroke-width="2"/>
<path d="M320,310v 8" fill="none" stroke="#ff0000" stroke-width="2"/>
<path d="M320,311v 7" fill="none" stroke="#ff0000" stroke-width="2"/>
<path d="M321,312v 8" fill="none" stroke="#ff0000" stroke-width="2"/>
<path d="M322,312v 8" fill="none" stroke="#ff0000" stroke-width="2"/>
<path d="M323,313v 8" fill="none" stroke="#ff0000" stroke-width="2"/>
<path d="M324,313v 8" fill="none" stroke="#ff0000" stroke-width="2"/>
<path d="M324,314v 7" fill="none" stroke="#ff0000" stroke-width="2"/>
<path d="M325,314v 8" fill="none" stroke="#ff0000" stroke-width="2"/>
<path d="M326,315v 8" fill="none" stroke="#ff0000" stroke-width="2"/>
<path d="M327,315v 8" fill="none" stroke="#ff0000" stroke-width="2"/>
<path d="M328,316v 8" fill="none" stroke="#ff0000" stroke-width="2"/>
<path d="M329,317v 7" fill="none" stroke="#ff0000" stroke-width="2"/>
<path d="M329,317v 8" fill="none" stroke="#ff0000" stroke-width="2"/>
<path d="M330,317v 9" fill="none" stroke="#ff0000" stroke-width="2"/>
<path d="M331,317v 9" fill="none" stroke="#ff0000" stroke-width="2"/>
<path d="M332,318v 8" fill="none" stroke="#ff0000" stroke-width="2"/>
<path d="M333,319v 7" fill="none" stroke="#ff0000" stroke-width="2"/>
<path d="M333,319v 8" fill="none" stroke="#ff0000" stroke-width="2"/>
<path d="M334,319v 8" fill="none" stroke="#ff0000" stroke-width="2"/>
<path d="M335,320v 8" fill="none" stroke="#ff0000" stroke-width="2"/>
<path d="M336,321v 7" fill="none" stroke="#ff0000" stroke-width="2"/>
<path d="M337,321v 8" fill="none" stroke="#ff0000" stroke-width="2"/>
<path d="M337,321v 8" fill="none" stroke="#ff0000" stroke-width="2"/>
<path d="M338,321v 8" fill="none" stroke="#ff0000" stroke-width="2"/>
<path d="M339,321v 9" fill="none" stroke="#ff0000" stroke-width="2"/>
<path d="M340,322v 8" fill="none" stroke="#ff0000" stroke-width="2"/>
<path d="M341,322v 8" fill="none" stroke="#ff0000" stroke-width="2"/>
<path d="M342,322v 8" fill="none" stroke="#ff0000" stroke-width="2"/>
<path d="M342,322v 8" fill="none" stroke="#ff0000" stroke-width="2"/>
<path d="M343,323v 8" fill="none" stroke="#ff0000" stroke-width="2"/>
<path d="M344,323v 8" fill="none" stroke="#ff0000" stroke-width="2"/>
<path d="M345,324v 7" fill="none" stroke="#ff0000" stroke-width="2"/>
<path d="M346,324v 8" fill="none" stroke="#ff0000" stroke-width="2"/>
<path d="M346,324v 8" fill="none" stroke="#ff0000" stroke-width="2"/>
<path d="M347,324v 8" fill="none" stroke="#ff0000" stroke-width="2"/>
<path d="M348,325v 7" fill="none" stroke="#ff0000" stroke-width="2"/>
<path d="M349,325v 8" fill="none" stroke="#ff0000" stroke-width="2"/>
<path d="M350,325v 8" fill="none" stroke="#ff0000" stroke-width="2"/>
<path d="M351,325v 8" fill="none" stroke="#ff0000" stroke-width="2"/>
<path d="M351,326v 7" fill="none" stroke="#ff0000" stroke-width="2"/>
<path d="M352,326v 8" fill="none" stroke="#ff0000" stroke-width="2"/>
<path d="M353,326v 8" fill="none" stroke="#ff0000" stroke-width="2"/>
<path d="M354,326v 8" fill="none" stroke="#ff0000" stroke-width="2"/>
<path d="M355,326v 8" fill="none" stroke="#ff0000" stroke-width="2"/>
<path d="M355,326v 8" fill="none" stroke="#ff0000" stroke-width="2"/>
<path d="M356,326v 8" fill="none" stroke="#ff0000" stroke-width="2"/>
<path d="M357,326v 8" fill="none" stroke="#ff0000" stroke-width="2"/>
<path d="M358,326v 8" fill="none" stroke="#ff0000" stroke-width="2"/>
<path d="M359,326v 8" fill="none" stroke="#ff0000" stroke-width="2"/>
<path d="M359,327v 7" fill="none" stroke="#ff0000" stroke-width="2"/>
<path d="M360,327v 8" fill="none" stroke="#ff0000" stroke-width="2"/>
<path d="M361,327v 8" fill="none" stroke="#ff0000" stroke-width="2"/>
<path d="M362,327v 8" fill="none" stroke="#ff0000" stroke-width="2"/>
<path d="M363,327v 8" fill="none" stroke="#ff0000" stroke-width="2"/>
<path d="M364,328v 7" fill="none" stroke="#ff0000" stroke-width="2"/>
<path d="M364,328v 7" fill="none" stroke="#ff0000" stroke-width="2"/>
<path d="M365,328v 8" fill="none" stroke="#ff0000" stroke-width="2"/>
<path d="M366,328v 8" fill="none" stroke="#ff0000" stroke-width="2"/>
<path d="M367,328v 8" fill="none" stroke="#ff0000" stroke-width="2"/>
<path d="M368,328v 8" fill="none" stroke="#ff0000" stroke-width="2"/>
<path d="M368,328v 8" fill="none" stroke="#ff0000" stroke-width="2"/>
<path d="M369,328v 8" fill="none" stroke="#ff0000" stroke-width="2"/>
<path d="M370,328v 8" fill="none" stroke="#ff0000" stroke-width="2"/>
<path d="M371,329v 7" fill="none" stroke="#ff0000" stroke-width="2"/>
<path d="M372,329v 8" fill="none" stroke="#ff0000" stroke-width="2"/>
<path d="M372,329v 8" fill="none" stroke="#ff0000" stroke-width="2"/>
<path d="M373,329v 8" fill="none" stroke="#ff0000" stroke-width="2"/>
<path d="M374,329v 8" fill="none" stroke="#ff0000" stroke-width="2"/>
<path d="M375,329v 8" fill="none" stroke="#ff0000" stroke-width="2"/>
<path d="M376,329v 8" fill="none" stroke="#ff0000" stroke-width="2"/>
<path d="M377,329v 8" fill="none" stroke="#ff0000" stroke-width="2"/>
<path d="M377,329v 8" fill="none" stroke="#ff0000" stroke-width="2"/>
<path d="M378,330v 7" fill="none" stroke="#ff0000" stroke-width="2"/>
<path d="M379,330v 7" fill="none" stroke="#ff0000" stroke-width="2"/>
<path d="M380,330v 7" fill="none" stroke="#ff0000" stroke-width="2"/>
<path d="M381,330v 7" fill="none" stroke="#ff0000" stroke-width="2"/>
<path d="M381,330v 8" fill="none" stroke="#ff0000" stroke-width="2"/>
<path d="M382,330v 8" fill="none" stroke="#ff0000" stroke-width="2"/>
<path d="M383,330v 8" fill="none" stroke="#ff0000" stroke-width="2"/>
<path d="M384,330v 8" fill="none" stroke="#ff0000" stroke-width="2"/>
<path d="M385,330v 8" fill="none" stroke="#ff0000" stroke-width="2"/>
<path d="M386,330v 8" fill="none" stroke="#ff0000" stroke-width="2"/>
<path d="M386,330v 8" fill="none" stroke="#ff0000" stroke-width="2"/>
<path d="M387,330v 8" fill="none" stroke="#ff0000" stroke-width="2"/>
<path d="M388,330v 8" fill="none" stroke="#ff0000" stroke-width="2"/>
<path d="M389,330v 8" fill="none" stroke="#ff0000" stroke-width="2"/>
<path d="M390,330v 8" fill="none" stroke="#ff0000" stroke-width="2"/>
<path d="M390,330v 8" fill="none" stroke="#ff0000" stroke-width="2"/>
<path d="M391,330v 8" fill="none" stroke="#ff0000" stroke-width="2"/>
<path d="M392,330v 8" fill="none" stroke="#ff0000" stroke-width="2"/>
<path d="M393,330v 8" fill="none" stroke="#ff0000" stroke-width="2"/>
<path d="M394,330v 8" fill="none" stroke="#ff0000" stroke-width="2"/>
<path d="M394,330v 8" fill="none" stroke="#ff0000" stroke-width="2"/>
<path d="M395,330v 8" fill="none" stroke="#ff0000" stroke-width="2"/>
<path d="M396,330v 8" fill="none" stroke="#ff0000" stroke-width="2"/>
<path d="M397,330v 9" fill="none" stroke="#ff0000" stroke-width="2"/>
<path d="M398,330v 9" fill="none" stroke="#ff0000" stroke-width="2"/>
<path d="M399,330v 9" fill="none" stroke="#ff0000" stroke-width="2"/>
<path d="M399,330v 9" fill="none" stroke="#ff0000" stroke-width="2"/>
<path d="M400,330v 9" fill="none" stroke="#ff0000" stroke-width="2"/>
<path d="M401,330v 9" fill="none" stroke="#ff0000" stroke-width="2"/>
<path d="M402,330v 9" fill="none" stroke="#ff0000" stroke-width="2"/>
<path d="M403,330v 9" fill="none" stroke="#ff0000" stroke-width="2"/>
<path d="M403,330v 9" fill="none" stroke="#ff0000" stroke-width="2"/>
<path d="M404,330v 9" fill="none" stroke="#ff0000" stroke-width="2"/>
<path d="M405,330v 9" fill="none" stroke="#ff0000" stroke-width="2"/>
<path d="M406,330v 9" fill="none" stroke="#ff0000" stroke-width="2"/>
<path d="M407,330v 9" fill="none" stroke="#ff0000" stroke-width="2"/>
<path d="M408,330v 9" fill="none" stroke="#ff0000" stroke-width="2"/>
<path d="M408,330v 9" fill="none" stroke="#ff0000" stroke-width="2"/>
<path d="M409,330v 9" fill="none" stroke="#ff0000" stroke-width="2"/>
<path d="M410,330v 9" fill="none" stroke="#ff0000" stroke-width="2"/>
<path d="M411,330v 9" fill="none" stroke="#ff0000" stroke-width="2"/>
<path d="M412,330v 9" fill="none" stroke="#ff0000" stroke-width="2"/>
<path d="M412,330v 9" fill="none" stroke="#ff0000" stroke-width="2"/>
<path d="M413,330v 9" fill="none" stroke="#ff0000" stroke-width="2"/>
<path d="M414,330v 9" fill="none" stroke="#ff0000" stroke-width="2"/>
<path d="M415,330v 9" fill="none" stroke="#ff0000" stroke-width="2"/>
<path d="M416,330v 9" fill="none" stroke="#ff0000" stroke-width="2"/>
<path d="M416,330v 9" fill="none" stroke="#ff0000" stroke-width="2"/>
<path d="M417,330v 9" fill="none" stroke="#ff0000" stroke-width="2"/>
<path d="M418,330v 9" fill="none" stroke="#ff0000" stroke-width="2"/>
<path d="M419,330v 9" fill="none" stroke="#ff0000" stroke-width="2"/>
<path d="M420,331v 8" fill="none" stroke="#ff0000" stroke-width="2"/>
<path d="M421,331v 8" fill="none" stroke="#ff0000" stroke-width="2"/>
<path d="M421,331v 8" fill="none" stroke="#ff0000" stroke-width="2"/>
<path d="M422,331v 8" fill="none" stroke="#ff0000" stroke-width="2"/>
<path d="M423,331v 8" fill="none" stroke="#ff0000" stroke-width="2"/>
<path d="M424,331v 8" fill="none" stroke="#ff0000" stroke-width="2"/>
<path d="M425,331v 8" fill="none" stroke="#ff0000" stroke-width="2"/>
<path d="M425,331v 8" fill="none" stroke="#ff0000" stroke-width="2"/>
<path d="M426,331v 8" fill="none" stroke="#ff0000" stroke-width="2"/>
<path d="M427,331v 8" fill="none" stroke="#ff0000" stroke-width="2"/>
<path d="M428,331v 8" fill="none" stroke="#ff0000" stroke-width="2"/>
<path d="M429,331v 8" fill="none" stroke="#ff0000" stroke-width="2"/>
<path d="M430,331v 8" fill="none" stroke="#ff0000" stroke-width="2"/>
<path d="M430,331v 8" fill="none" stroke="#ff0000" stroke-width="2"/>
<path d="M431,331v 8" fill="none" stroke="#ff0000" stroke-width="2"/>
<path d="M432,331v 8" fill="none" stroke="#ff0000" stroke-width="2"/>
<path d="M433,331v 8" fill="none" stroke="#ff0000" stroke-width="2"/>
<path d="M434,331v 8" fill="none" stroke="#ff0000" stroke-width="2"/>
<path d="M434,331v 8" fill="none" stroke="#ff0000" stroke-width="2"/>
<path d="M435,331v 8" fill="none" stroke="#ff0000" stroke-width="2"/>
<path d="M436,331v 8" fill="none" stroke="#ff0000" stroke-width="2"/>
<path d="M437,331v 8" fill="none" stroke="#ff0000" stroke-width="2"/>
<path d="M438,331v 8" fill="none" stroke="#ff0000" stroke-width="2"/>
<path d="M438,331v 8" fill="none" stroke="#ff0000" stroke-width="2"/>
<path d="M439,331v 8" fill="none" stroke="#ff0000" stroke-width="2"/>
<path d="M440,331v 8" fill="none" stroke="#ff0000" stroke-width="2"/>
<path d="M441,331v 8" fill="none" stroke="#ff0000" stroke-width="2"/>
<path d="M442,331v 8" fill="none" stroke="#ff0000" stroke-width="2"/>
<path d="M443,331v 8" fill="none" stroke="#ff0000" stroke-width="2"/>
<path d="M443,331v 8" fill="none" stroke="#ff0000" stroke-width="2"/>
<path d="M444,331v 8" fill="none" stroke="#ff0000" stroke-width="2"/>
<path d="M445,331v 8" fill="none" stroke="#ff0000" stroke-width="2"/>
<path d="M446,331v 8" fill="none" stroke="#ff0000" stroke-width="2"/>
<path d="M447,331v 8" fill="none" stroke="#ff0000" stroke-width="2"/>
<path d="M447,331v 8" fill="none" stroke="#ff0000" stroke-width="2"/>
<path d="M448,331v 8" fill="none" stroke="#ff0000" stroke-width="2"/>
<path d="M449,331v 8" fill="none" stroke="#ff0000" stroke-width="2"/>
<path d="M450,331v 8" fill="none" stroke="#ff0000" stroke-width="2"/>
<path d="M451,331v 8" fill="none" stroke="#ff0000" stroke-width="2"/>
<path d="M452,331v 8" fill="none" stroke="#ff0000" stroke-width="2"/>
<path d="M452,331v 8" fill="none" stroke="#ff0000" stroke-width="2"/>
<path d="M453,331v 8" fill="none" stroke="#ff0000" stroke-width="2"/>
<path d="M454,331v 8" fill="none" stroke="#ff0000" stroke-width="2"/>
<path d="M455,331v 8" fill="none" stroke="#ff0000" stroke-width="2"/>
<path d="M456,331v 8" fill="none" stroke="#ff0000" stroke-width="2"/>
<path d="M456,331v 8" fill="none" stroke="#ff0000" stroke-width="2"/>
<path d="M457,331v 8" fill="none" stroke="#ff0000" stroke-width="2"/>
<path d="M458,331v 8" fill="none" stroke="#ff0000" stroke-width="2"/>
<path d="M459,331v 8" fill="none" stroke="#ff0000" stroke-width="2"/>
<path d="M460,331v 8" fill="none" stroke="#ff0000" stroke-width="2"/>
<path d="M460,331v 8" fill="none" stroke="#ff0000" stroke-width="2"/>
<path d="M461,331v 8" fill="none" stroke="#ff0000" stroke-width="2"/>
<path d="M462,331v 8" fill="none" stroke="#ff0000" stroke-width="2"/>
<path d="M463,331v 8" fill="none" stroke="#ff0000" stroke-width="2"/>
<path d="M464,331v 8" fill="none" stroke="#ff0000" stroke-width="2"/>
<path d="M465,331v 8" fill="none" stroke="#ff0000" stroke-width="2"/>
<path d="M465,331v 8" fill="none" stroke="#ff0000" stroke-width="2"/>
<path d="M466,331v 8" fill="none" stroke="#ff0000" stroke-width="2"/>
<path d="M467,331v 8" fill="none" stroke="#ff0000" stroke-width="2"/>
<path d="M468,331v 8" fill="none" stroke="#ff0000" stroke-width="2"/>
<path d="M469,331v 8" fill="none" stroke="#ff0000" stroke-width="2"/>
<path d="M469,331v 8" fill="none" stroke="#ff0000" stroke-width="2"/>
<path d="M470,331v 8" fill="none" stroke="#ff0000" stroke-width="2"/>
<path d="M471,331v 8" fill="none" stroke="#ff0000" stroke-width="2"/>
<path d="M472,331v 8" fill="none" stroke="#ff0000" stroke-width="2"/>
<path d="M473,331v 8" fill="none" stroke="#ff0000" stroke-width="2"/>
<path d="M473,331v 8" fill="none" stroke="#ff0000" stroke-width="2"/>
<path d="M474,331v 8" fill="none" stroke="#ff0000" stroke-width="2"/>
<path d="M475,331v 8" fill="none" stroke="#ff0000" stroke-width="2"/>
<path d="M476,331v 8" fill="none" stroke="#ff0000" stroke-width="2"/>
<path d="M477,331v 8" fill="none" stroke="#ff0000" stroke-width="2"/>
<path d="M478,331v 8" fill="none" stroke="#ff0000" stroke-width="2"/>
<path d="M478,331v 8" fill="none" stroke="#ff0000" stroke-width="2"/>
<path d="M479,331v 8" fill="none" stroke="#ff0000" stroke-width="2"/>
<path d="M480,331v 8" fill="none" stroke="#ff0000" stroke-width="2"/>
<path d="M481,331v 8" fill="none" stroke="#ff0000" stroke-width="2"/>
<path d="M482,331v 8" fill="none" stroke="#ff0000" stroke-width="2"/>
<path d="M482,331v 8" fill="none" stroke="#ff0000" stroke-width="2"/>
<path d="M483,331v 8" fill="none" stroke="#ff0000" stroke-width="2"/>
<path d="M484,331v 8" fill="none" stroke="#ff0000" stroke-width="2"/>
<path d="M485,331v 8" fill="none" stroke="#ff0000" stroke-width="2"/>
<path d="M486,331v 8" fill="none" stroke="#ff0000" stroke-width="2"/>
<path d="M487,331v 8" fill="none" stroke="#ff0000" stroke-width="2"/>
<path d="M487,331v 8" fill="none" stroke="#ff0000" stroke-width="2"/>
<path d="M488,331v 8" fill="none" stroke="#ff0000" stroke-width="2"/>
<path d="M489,331v 8" fill="none" stroke="#ff0000" stroke-width="2"/>
<path d="M490,331v 8" fill="none" stroke="#ff0000" stroke-width="2"/>
<path d="M491,331v 8" fill="none" stroke="#ff0000" stroke-width="2"/>
<path d="M491,331v 8" fill="none" stroke="#ff0000" stroke-width="2"/>
<path d="M492,331v 8" fill="none" stroke="#ff0000" stroke-width="2"/>
<path d="M493,331v 8" fill="none" stroke="#ff0000" stroke-width="2"/>
<path d="M494,331v 8" fill="none" stroke="#ff0000" stroke-width="2"/>
<path d="M495,331v 8" fill="none" stroke="#ff0000" stroke-width="2"/>
<path d="M495,331v 8" fill="none" stroke="#ff0000" stroke-width="2"/>
<path d="M496,331v 8" fill="none" stroke="#ff0000" stroke-width="2"/>
<path d="M497,331v 8" fill="none" stroke="#ff0000" stroke-width="2"/>
<path d="M498,331v 8" fill="none" stroke="#ff0000" stroke-width="2"/>
<path d="M499,331v 8" fill="none" stroke="#ff0000" stroke-width="2"/>
<path d="M500,331v 8" fill="none" stroke="#ff0000" stroke-width="2"/>
<path d="M500,331v 8" fill="none" stroke="#ff0000" stroke-width="2"/>
<path d="M501,331v 8" fill="none" stroke="#ff0000" stroke-width="2"/>
<path d="M502,331v 8" fill="none" stroke="#ff0000" stroke-width="2"/>
<path d="M503,331v 8" fill="none" stroke="#ff0000" stroke-width="2"/>
<path d="M504,331v 8" fill="none" stroke="#ff0000" stroke-width="2"/>
<path d="M504,331v 8" fill="none" stroke="#ff0000" stroke-width="2"/>
<path d="M505,331v 8" fill="none" stroke="#ff0000" stroke-width="2"/>
<path d="M506,331v 8" fill="none" stroke="#ff0000" stroke-width="2"/>
<path d="M507,331v 8" fill="none" stroke="#ff0000" stroke-width="2"/>
<path d="M508,331v 8" fill="none" stroke="#ff0000" stroke-width="2"/>
<path d="M509,331v 8" fill="none" stroke="#ff0000" stroke-width="2"/>
<path d="M509,331v 8" fill="none" stroke="#ff0000" stroke-width="2"/>
<path d="M510,331v 6" fill="none" stroke="#ff0000" stroke-width="2"/>
<path d="M284,164l 1, 19v 29l 1, 19l 1, 10l 1, 6l 1, 6v 7l 1, 4l 1, 3l 1, 2l 1, 2v 4l 1, 2l 1, 1l 1, 2l 1, 2l 1, 2v 2h 1l 1, 2l 1, 2l 1, 2v 1l 1, 1l 1, 1l 1, 1l 1, 3h 1v 1l 1, 1l 1, 2l 1, 1h 1v 1l 1, 2l 1, 1h 1l 1, 1v 1l 1, 1l 1, 1l 1, 1h 1l 1, 1l 1,
 2h 1l 1, 1h 1l 1, 1l 1, 1h 1l 1, 1h 1v 1h 2l 1, 1h 1v 1h 1l 1, 1h 1l 1, 1h 1l 1, 1h 3l 1, 1h 2l 1, 1h 2l 1, 1h 2l 1, 1h 7l 1, 1h 4l 1, 1h 6l 1, 1h 9v 1h 64l 1, 1l 1, -1l 1, 1h 61l 1, -1" fill="none" stroke="#ff0000" stroke-width="2"/>
<path d="M57,346h 453" fill="none" stroke="black"/>
<text x="419" y="372" fill="black" font-size="12" font-family="Helvetica">
TDC-TDC0 (ns)
</text>
<path d="M57,337v 9" fill="none" stroke="black"/>
<path d="M68,342v 4" fill="none" stroke="black"/>
<path d="M79,342v 4" fill="none" stroke="black"/>
<path d="M91,342v 4" fill="none" stroke="black"/>
<path d="M102,342v 4" fill="none" stroke="black"/>
<path d="M113,337v 9" fill="none" stroke="black"/>
<path d="M125,342v 4" fill="none" stroke="black"/>
<path d="M136,342v 4" fill="none" stroke="black"/>
<path d="M147,342v 4" fill="none" stroke="black"/>
<path d="M159,342v 4" fill="none" stroke="black"/>
<path d="M170,337v 9" fill="none" stroke="black"/>
<path d="M181,342v 4" fill="none" stroke="black"/>
<path d="M193,342v 4" fill="none" stroke="black"/>
<path d="M204,342v 4" fill="none" stroke="black"/>
<path d="M215,342v 4" fill="none" stroke="black"/>
<path d="M227,337v 9" fill="none" stroke="black"/>
<path d="M238,342v 4" fill="none" stroke="black"/>
<path d="M249,342v 4" fill="none" stroke="black"/>
<path d="M261,342v 4" fill="none" stroke="black"/>
<path d="M272,342v 4" fill="none" stroke="black"/>
<path d="M283,337v 9" fill="none" stroke="black"/>
<path d="M295,342v 4" fill="none" stroke="black"/>
<path d="M306,342v 4" fill="none" stroke="black"/>
<path d="M317,342v 4" fill="none" stroke="black"/>
<path d="M329,342v 4" fill="none" stroke="black"/>
<path d="M340,337v 9" fill="none" stroke="black"/>
<path d="M351,342v 4" fill="none" stroke="black"/>
<path d="M363,342v 4" fill="none" stroke="black"/>
<path d="M374,342v 4" fill="none" stroke="black"/>
<path d="M386,342v 4" fill="none" stroke="black"/>
<path d="M397,337v 9" fill="none" stroke="black"/>
<path d="M408,342v 4" fill="none" stroke="black"/>
<path d="M420,342v 4" fill="none" stroke="black"/>
<path d="M431,342v 4" fill="none" stroke="black"/>
<path d="M442,342v 4" fill="none" stroke="black"/>
<path d="M454,337v 9" fill="none" stroke="black"/>
<path d="M465,342v 4" fill="none" stroke="black"/>
<path d="M476,342v 4" fill="none" stroke="black"/>
<path d="M488,342v 4" fill="none" stroke="black"/>
<path d="M499,342v 4" fill="none" stroke="black"/>
<path d="M510,337v 9" fill="none" stroke="black"/>
<text x="36" y="359" fill="black" font-size="12" font-family="Helvetica">
-20000
</text>
<text x="93" y="359" fill="black" font-size="12" font-family="Helvetica">
-15000
</text>
<text x="149" y="359" fill="black" font-size="12" font-family="Helvetica">
-10000
</text>
<text x="210" y="359" fill="black" font-size="12" font-family="Helvetica">
-5000
</text>
<text x="280" y="359" fill="black" font-size="12" font-family="Helvetica">
0
</text>
<text x="325" y="359" fill="black" font-size="12" font-family="Helvetica">
5000
</text>
<text x="379" y="359" fill="black" font-size="12" font-family="Helvetica">
10000
</text>
<text x="435" y="359" fill="black" font-size="12" font-family="Helvetica">
15000
</text>
<text x="492" y="359" fill="black" font-size="12" font-family="Helvetica">
20000
</text>
<path d="M57,346v -308" fill="none" stroke="black"/>
<g transform="rotate(-90,29,72)">
<text x="29" y="72" fill="black" font-size="12" font-family="Helvetica">
Count
</text>
</g>
<path d="M70,346h -13" fill="none" stroke="black"/>
<path d="M63,336h -6" fill="none" stroke="black"/>
<path d="M63,326h -6" fill="none" stroke="black"/>
<path d="M63,316h -6" fill="none" stroke="black"/>
<path d="M63,306h -6" fill="none" stroke="black"/>
<path d="M70,296h -13" fill="none" stroke="black"/>
<path d="M63,285h -6" fill="none" stroke="black"/>
<path d="M63,275h -6" fill="none" stroke="black"/>
<path d="M63,265h -6" fill="none" stroke="black"/>
<path d="M63,255h -6" fill="none" stroke="black"/>
<path d="M70,245h -13" fill="none" stroke="black"/>
<path d="M63,235h -6" fill="none" stroke="black"/>
<path d="M63,224h -6" fill="none" stroke="black"/>
<path d="M63,214h -6" fill="none" stroke="black"/>
<path d="M63,204h -6" fill="none" stroke="black"/>
<path d="M70,194h -13" fill="none" stroke="black"/>
<path d="M63,184h -6" fill="none" stroke="black"/>
<path d="M63,173h -6" fill="none" stroke="black"/>
<path d="M63,163h -6" fill="none" stroke="black"/>
<path d="M63,153h -6" fill="none" stroke="black"/>
<path d="M70,143h -13" fill="none" stroke="black"/>
<path d="M63,133h -6" fill="none" stroke="black"/>
<path d="M63,123h -6" fill="none" stroke="black"/>
<path d="M63,112h -6" fill="none" stroke="black"/>
<path d="M63,102h -6" fill="none" stroke="black"/>
<path d="M70,92h -13" fill="none" stroke="black"/>
<path d="M63,82h -6" fill="none" stroke="black"/>
<path d="M63,72h -6" fill="none" stroke="black"/>
<path d="M63,62h -6" fill="none" stroke="black"/>
<path d="M63,51h -6" fill="none" stroke="black"/>
<path d="M70,41h -13" fill="none" stroke="black"/>
<path d="M70,41h -13" fill="none" stroke="black"/>
<text x="47" y="350" fill="black" font-size="12" font-family="Helvetica">
0
</text>
<text x="33" y="299" fill="black" font-size="12" font-family="Helvetica">
100
</text>
<text x="33" y="248" fill="black" font-size="12" font-family="Helvetica">
200
</text>
<text x="33" y="198" fill="black" font-size="12" font-family="Helvetica">
300
</text>
<text x="33" y="146" fill="black" font-size="12" font-family="Helvetica">
400
</text>
<text x="33" y="96" fill="black" font-size="12" font-family="Helvetica">
500
</text>
<text x="33" y="45" fill="black" font-size="12" font-family="Helvetica">
600
</text>
<rect x="442" y="25" width="114" height="46" fill="white"/>
<path d="M442,71h 114" fill="none" stroke="black"/>
<path d="M556,71v -46" fill="none" stroke="black"/>
<path d="M556,25h -114" fill="none" stroke="black"/>
<path d="M442,25v 46" fill="none" stroke="black"/>
<text x="447" y="28" fill="black" font-size="4" font-family="Helvetica">
Entries 
</text>
<text x="538" y="28" fill="black" font-size="4" font-family="Helvetica">
 78750
</text>
<text x="450" y="35" fill="black" font-size="4" font-family="Helvetica">
 / ndf 
</text>
<text x="449" y="31" fill="black" font-size="3" font-family="Helvetica">
2
</text>
<text x="447" y="35" fill="black" font-size="4" font-family="Times">
&#0967;
</text>
<text x="526" y="34" fill="black" font-size="4" font-family="Helvetica">
  1663 / 1240
</text>
<text x="452" y="37" fill="black" font-size="4" font-family="Helvetica">
   
</text>
<text x="450" y="40" fill="black" font-size="3" font-family="Helvetica">
cu
</text>
<text x="447" y="37" fill="black" font-size="4" font-family="Helvetica">
N
</text>
<text x="541" y="40" fill="black" font-size="4" font-family="Helvetica">
 10.8
</text>
<text x="538" y="40" fill="black" font-size="4" font-family="Times">
&#0177;
</text>
<text x="528" y="40" fill="black" font-size="4" font-family="Helvetica">
   234 
</text>
<text x="450" y="43" fill="black" font-size="4" font-family="Helvetica">
 
</text>
<text x="448" y="46" fill="black" font-size="3" font-family="Helvetica">
cu
</text>
<text x="447" y="43" fill="black" font-size="4" font-family="Times">
&#0964;
</text>
<text x="543" y="45" fill="black" font-size="4" font-family="Helvetica">
 1.3
</text>
<text x="541" y="45" fill="black" font-size="4" font-family="Times">
&#0177;
</text>
<text x="529" y="45" fill="black" font-size="4" font-family="Helvetica">
 162.5 
</text>
<text x="450" y="48" fill="black" font-size="4" font-family="Helvetica">
    
</text>
<text x="450" y="51" fill="black" font-size="3" font-family="Helvetica">
f
</text>
<text x="447" y="48" fill="black" font-size="4" font-family="Helvetica">
N
</text>
<text x="543" y="50" fill="black" font-size="4" font-family="Helvetica">
 1.6
</text>
<text x="541" y="50" fill="black" font-size="4" font-family="Times">
&#0177;
</text>
<text x="529" y="50" fill="black" font-size="4" font-family="Helvetica">
 178.5 
</text>
<text x="448" y="53" fill="black" font-size="4" font-family="Helvetica">
 
</text>
<text x="448" y="57" fill="black" font-size="3" font-family="Helvetica">
f
</text>
<text x="447" y="53" fill="black" font-size="4" font-family="Times">
&#0964;
</text>
<text x="543" y="55" fill="black" font-size="4" font-family="Helvetica">
 0.0
</text>
<text x="541" y="55" fill="black" font-size="4" font-family="Times">
&#0177;
</text>
<text x="529" y="55" fill="black" font-size="4" font-family="Helvetica">
  2197 
</text>
<text x="452" y="58" fill="black" font-size="4" font-family="Helvetica">
  
</text>
<text x="450" y="61" fill="black" font-size="3" font-family="Helvetica">
sin
</text>
<text x="447" y="58" fill="black" font-size="4" font-family="Helvetica">
N
</text>
<text x="539" y="60" fill="black" font-size="4" font-family="Helvetica">
 0.240
</text>
<text x="537" y="60" fill="black" font-size="4" font-family="Times">
&#0177;
</text>
<text x="525" y="60" fill="black" font-size="4" font-family="Helvetica">
 7.774 
</text>
<text x="447" y="65" fill="black" font-size="4" font-family="Helvetica">
T        
</text>
<text x="541" y="66" fill="black" font-size="4" font-family="Helvetica">
 0.00
</text>
<text x="538" y="66" fill="black" font-size="4" font-family="Times">
&#0177;
</text>
<text x="526" y="66" fill="black" font-size="4" font-family="Helvetica">
 59.41 
</text>
<text x="450" y="68" fill="black" font-size="4" font-family="Helvetica">
    
</text>
<text x="450" y="71" fill="black" font-size="3" font-family="Helvetica">
b
</text>
<text x="447" y="68" fill="black" font-size="4" font-family="Helvetica">
N
</text>
<text x="541" y="71" fill="black" font-size="4" font-family="Helvetica">
 0.16
</text>
<text x="538" y="71" fill="black" font-size="4" font-family="Times">
&#0177;
</text>
<text x="526" y="71" fill="black" font-size="4" font-family="Helvetica">
 21.43 
</text>
<text x="270" y="21" fill="black" font-size="21" font-family="Helvetica">
D3
</text></svg>
