<?xml version="1.0" standalone="no"?>
<svg width="567" height="385" viewBox="0 0 567 385" xmlns="http://www.w3.org/2000/svg">
<title>
images/analysis_g4bl_tight/459_D2.svg
</title>
<desc>
Creator: ROOT Version 5.34/05
CreationDate: Mon Jun 10 21:54:19 2013</desc>
<defs>
</defs>
<rect x="0" y="0" width="567" height="385" fill="white"/>
<rect x="57" y="38" width="453" height="308" fill="white"/>
<rect x="57" y="38" width="453" height="308" fill="none" stroke="black"/>
<rect x="57" y="38" width="453" height="308" fill="white"/>
<rect x="57" y="38" width="453" height="308" fill="none" stroke="black"/>
<path d="M57,346h 44v -2h 1v -3v 3v -7h 1v -10v 11v -11h 1v 10v -10v 2h 1v 5v -10v 10v -4h 1v -2v 6v -6h 1v 7v -8v 7v -9h 1v -2v 15v -13h 1v 6v -4v 7v -5h 1v -4v 10v -7h 1v 8v -8v 5v -2h 1v -6v 11v -8h 1v 7v -9v 9v -5h 1v -6v 10v -10h 1v 8v -7v 9v
 -2h 1v -5v 9v -16h 1v 19v -8v 3v -2h 1v -7v 8v -5v 2h 1v -5v 10v -9v 8h 1v -6v 8v -10h 1v 8v -5v 8h 1v -12v 9v -9h 1v -2v 14v -13v 13h 1v -10v 7v -3h 1v -6v 8v -6v 6h 1v -5v 7v -8h 1v -2v 10v -6v 2h 1v -5v 9v -5h 1v 5v -10v 9h 1v 1v -9v 12v -9h 1v
 -4v 9v -6v 3h 1v 4v -9v 12v -8h 1v -4v 7v -7v 7h 1v -9v 10v -8h 1v 10v -6v 1h 1v -9v 11h 1v -5v 2v -7v 4h 1v 6v -10v 12v -1h 1v -7v 6v -8v 3h 1v 8v -8v 6h 1v -7v 7v -6h 1v 9v -8v 9h 1v -12v 10v -12v 5h 1v 7v -15v 11h 1v -8v 11v -9v 2h 1v 5v -5v 5v
 -1h 1v -7v 7v -10h 1v 9v -4v 5v -2h 1v -4v 8v -13h 1v 12v -8v 10v -7h 1v -5v 11v -12h 1v 10v -10v 12v -3h 1v -10v 16v -7h 1v -1v 3v -7v 7h 1v -7v 11v -6h 1v 6v -11v 8h 1v -11v 12v -6h 1v 7v -9v 11h 1v -15v 13v -10h 1v 9v -6v 5h 1v -5v 8v -4h 1v -7v
 8v -10v 13h 1v -13v 9v -4h 1v -4v 10v -10v 10h 1v -13v 12v -7h 1v 8v -9v 8h 1v -6v 7v -7h 1v -2v 11v -13v 10h 1v -10v 11v -3h 1v -7v 11v -14v 12h 1v 3v -9v 8h 1v -8v 6v -6v 4h 1v -4v 6h 1v -10v 11v -6v 3h 1v 3v -9v 10h 1v -8v 6v -8v 2h 1v 6v -2h 1v
 -4v 8v -11h 1v 7v -5v 8h 1v -10v 12v -13h 1v 13v -10v 6h 1v -7v 10v -10h 1v 11v -12v 10h 1v -6v 4v -6v 1h 1v 6v -8v 14v -3h 1v -13v 13v -10h 1v 11v -11v 5v -1h 1v -4v 7v -6h 1v 10v -11v 8h 1v -14v 14v -7h 1v 8v -8v 1v -2v 5h 1v -4v 7v -4h 1v -3v 8v
 -9v 10h 1v -13v 10v -3h 1v -2v 7v -10v 8h 1v -9v 13v -10h 1v -1v 8v -7v 6h 1v -12v 16v -11h 1v -7v 16v -7v 6h 1v -11v 12v -5h 1v -7v 11v -7v 6h 1v -7v 5h 1v -5v 4v -2v 7h 1v -12v 8v -1h 1v -4v 9v -7v 8h 1v -13v 12v -2h 1v -5v 4v -1v 2h 1v 3v -12v 9v
 -2h 1v -4v 8v -10v 7h 1v 2v -9v 5v -2h 1v -1v 2v -1v 2v -5v 1h 1v 11v -7v 4h 1v -9v 10v -7v 1h 1v 5v -9v 13h 1v -13v 8v -9v 2h 1v 10v -10v 7h 1v -12v 12v -8h 1v 9v -8v 10h 1v -11v 11v -11h 1v 7v -11v 8h 1v 2v -3v 6v -12h 1v 9v -4v 3v -5v 11h 1v -15v
 9v -1v 2h 1v -1v 1v -5v 6v -2h 1v 1v -4v 4v -5h 1v -4v 10v -7v 6v -4h 1v 3v -4v 7v -4h 1v 4v -6v 6h 1v -9v 9v -13h 1v 17v -13v 8h 1v -4v 5v -2h 1v -8v 11v -4v 3h 1v -4v 5v -7h 1v -4v 11v -12v 12h 1v -9v 10v -7h 1v -4v 9v -6v 7h 1v -10v 9v -6h 1v 1v
 -2v 7v -12v 11h 1v 2v -13v 15v -6h 1v -4v 8v -10v 8h 1v -7v 5v -4v 5h 1v -6v 7v -9v 1h 1v 13v -13v 9v -1h 1v -2v 4v -6v 1h 1v 3v -9v 10h 1v -8v 6v -5v 2h 1v 6v -13v 14v -2h 1v -7v 4v -6h 1v 4v -5v 7v -2h 1v -6v 12v -8v 2h 1v -1v 3h 1v -5v 9v -13h 1v
 12v -9v 10h 1v -8v 3v -6v 1h 1v 9v -10v 7h 1v -6v 8v -5v 3h 1v 1v -8v 11h 1v -7v 11v -12h 1v 5v -7v 7h 1v 2v -12v 12v -8h 1v 9v -12v 11h 1v -6v 4v -7h 1v 6v -5v 2h 1v 6v -8v 6v -4v 1h 1v -5v 8v -7v 5h 1v 6v -9v 5v -3h 1v -5v 10v -11v 11h 1v -9v 10v
 -6h 1v 4v -9v 9h 1v -9v 4v -1v 2h 1v -7v 10v -11v 8h 1v -6v 8v -6h 1v -1v 8v -7v 5h 1v -2v 6v -6h 1v -9v 17v -9v 5h 1v -12v 14v -4h 1v -7v 8v -5v 1h 1v -2v 5h 1v -13v 14v -7v 6h 1v 5v -8v 1h 1v -4v 4v -9v 4h 1v -9v 11h 1v 22v -293v 110h 1v 39v -2v
 39v -8h 1v 9v -4v 9v -13v 4h 1v 11h 1v 5v -13v 18v -10v 9h 1v -2v 3v -15v 22v -10h 1v 3v -4v 13v -15v 7h 1v 17v -20v 16h 1v -13v 6v -5v 7v -14h 1v 16v -8v 21h 1v -16v 7v -7h 1v 21v -32v 23h 1v 4v -13v 11v -13h 1v 7v -2v 6v -3v 7h 1v 12v -19v 18v
 -20h 1v -3v 20v -16v 7h 1v 2v -3v 18v -23h 1v 19v -11v 7h 1v -8v 18v -20h 1v 16v -8h 1v 9v -20v 15v -5v 3h 1v 3v -1v 3v -3v 2h 1v -3v 2v -12v 20v -6h 1v -5v 14v -15v 12h 1v -12v 12v -6h 1v -3v 14v -17v 8h 1v 11v -16v 10v -4h 1v 4v -5v 3h 1v 4v -8v
 14v -12h 1v 3v -1v 5v -9v 10h 1v -11v 15v -5h 1v -5v 6v -3v 5h 1v 4v -10v 10h 1v -8v 10v -18v 13h 1v -6v 6h 1v 4v -6v 6v -21v 15h 1v 8v -7v 5h 1v -12v 18v -13v 8h 1v 2v -10v 15h 1v -15v 12v -8h 1v 3v -2v 1v -8v 6h 1v 11v -11v 6v -4v 2h 1v 3v -10v
 16h 1v -10v 4v -7h 1v 9v -10v 4v -1h 1v 14v -14h 1v 7v -10v 7h 1v -4v 10v -12h 1v 10v -5v 6h 1v -11v 14v -13h 1v 12v -14v 9h 1v 4v -7v 7v -5h 1v 10v -13v 11h 1v -6v 7v -6h 1v -1v 5h 1v 2v -8v 7v -11h 1v 12v -11v 10h 1v 8v -13v 3v -6h 1v 5v -2v 1h 1v
 7v -9v 11v -15h 1v 12v -12v 4h 1v 6v -5v 10v -9h 1v -6v 11v -8v 3h 1v 6v -11v 8v -2h 1v 6v -6v 10v -9h 1v 4v -4v 4v -3h 1v 4v -11v 2h 1v 4v -4v 9v -4h 1v -4v 7v -9v 11h 1v 4v -17v 13h 1v -9v 10v -12v 11h 1v -13v 13v -2h 1v -7v 10v -12v 6h 1v 5v -11v
 15h 1v -18v 17v -11h 1v 10v -7v 7h 1v -7v 7v -9h 1v 8v -8v 5h 1v 2v -10v 15v -13v 7h 1v 6v -12v 10h 1v -7v 8v -10h 1v 8v -7v 9h 1v -13v 12v -8h 1v 8v -7v 7h 1v -7v 12v -10h 1v 6v -9v 4h 1v -5v 9v -6h 1v 9v -16v 9h 1v 4v -7v 9v -7h 1v -1v 9v -14v 11h
 1v -6v 7v -6h 1v -1v 8v -8v 1h 1v 6v -7v 8v -10h 1v -3v 10v -7v 2h 1v 8v -9v 7v -7h 1v -5v 13v -9h 1v 9v -13v 15v -9h 1v 8v -8v 3h 1v 5v -7v 7v -6h 1v -1v 6v -5h 1v 4v -7v 6v -6h 1v -5v 15v -13v 3h 1v 10v -5h 1v -6v 5v -9h 1v 13v -10v 9v -3h 1v -6v
 8v -7h 1v 10v -10v 7h 1v -5v 10v -11v 2h 1v 5v -9v 8v -3h 1v -5v 9v -6v 4h 1v 5v -10v 8h 1v -5v 5v -8v 2h 1v 3v -4v 9h 1v -11v 11v -12h 1v 15v -14v 11h 1v -14v 13v -9v 1h 1v 8v -10v 5h 1v -3v 8v -12h 1v 10v -6v 10h 1v -9v 11v -13v 1h 1v 9v -7v 2v
 -1h 1v 4v -5v 9v -13h 1v 11v -5v 2h 1v -4v 8v -12h 1v 9v -7v 1h 1v 7v -10v 8v -6h 1v 9v -17v 10h 1v 4v -7v 9v -6h 1v -3v 9v -8v 3h 1v 5v -10v 13v -13h 1v 9v -11v 13h 1v 1v -10v 6v -1h 1v -5v 9v -4h 1v 3v -6v 5v -5h 1v 5v -7h 1v 10v -11v 12v -6h 1v
 -4v 5v -3h 1v 4v -9v 9v -5h 1v -4v 7v -3v 1h 1v 6v -5v 1h 1v 1v -2v 8v -15h 1v 14v -16v 14h 1v -10v 9v -8h 1v 11v -7v 4v -2h 1v -5v 10v -14h 1v 12v -10v 10h 1v -6v 3v -4h 1v -1v 8v -8v 9h 1v -9v 7v -2v 1v -9h 1v 9v -5v 8h 1v -11v 14v -13h 1v 11v
 -14v 9v -1h 1v -4v 8v -10h 1v 12v -11v 8h 1v 1v -10v 12v -11v 3h 1v 9v -12v 8h 1v -8v 8v -6h 1v 10v -11v 6h 1v -4v 7v -7h 1v 8v -11v 8h 1v -2v 1v -5v 8v -12h 1v 13v -11v 8h 1v 1v -8v 7v -5h 1v 5v -11v 10h 1v 4v -11v 12v -10h 1v -1v 10v -8h 1v 6v -7v
 9v -9h 1v -2v 10v -13v 4h 1v 10v -9v 8v -4h 1v -5v 6v -6h 1v 10v -11v 9v -7h 1v 5v -4v 2h 1v 4v -13v 11v -2h 1v -6v 13v -15v 5h 1v 8v -12v 12v -7h 1v 5v -11h 1v 9v -11v 13h 1v -8v 11v -7v 3h 1v -1v 1v -9v 10v -1h 1v -1v 1v -8h 1v 12v -15v 12h 1v
 -10v 10v -8h 1v 7v -6v 7h 1v -5v 7v -4h 1v -3v 4v -5v 6h 1v -12v 11v -9h 1v 6v -3v 11h 1v -11v 9v -9h 1v 10v -9v 6h 1v -7v 7v -8h 1v 9v -6v 5h 1v -6v 5v -12h 1v 14v -8v 7h 1v 2v -11v 10v -16h 1v 19v -11v 6h 1v -11v 11v -5h 1v 10v -11v 5h 1v 4v -14v
 12v -4h 1v 2v -4v 4h 1v 3v -7v 5v -6h 1v 9v -11h 1v 9v -8v 12v -11h 1v 10v -11v 3h 1v 9v -11v 8v -8h 1v -3v 8v -6v 2h 1v 6v -10v 9v -5h 1v 8v -7h 1v 6v -10v 8v -7h 1v 11v -16h 1v 14v -5v 6v -4h 1v -10v 16v -12v 5h 1v 3v -7v 8h 1v -10v 8v -9h 1v 13v
 -17v 13h 1v -7v 8v -12h 1v 13v -7v 8h 1v -12v 14v -9h 1v -1v 10v -11v 7h 1v -8v 9v -4h 1v -2v 9v -12v 9h 1v -10v 9v -9h 1v 12v -10v 9h 1v -9v 10v -8h 1v 3v -9v 10h 1v 1v -8v 12v -7h 1v -8v 11v -7v 8h 1v -9v 11v -9h 1v 2v -1v 3v -1" fill="none"
 stroke="#000099"/>
<path d="M284,228v 3" fill="none" stroke="#ff0000" stroke-width="2"/>
<path d="M285,228v 10" fill="none" stroke="#ff0000" stroke-width="2"/>
<path d="M285,237v 9" fill="none" stroke="#ff0000" stroke-width="2"/>
<path d="M286,242v 9" fill="none" stroke="#ff0000" stroke-width="2"/>
<path d="M287,246v 8" fill="none" stroke="#ff0000" stroke-width="2"/>
<path d="M288,249v 8" fill="none" stroke="#ff0000" stroke-width="2"/>
<path d="M289,251v 9" fill="none" stroke="#ff0000" stroke-width="2"/>
<path d="M289,256v 8" fill="none" stroke="#ff0000" stroke-width="2"/>
<path d="M290,259v 7" fill="none" stroke="#ff0000" stroke-width="2"/>
<path d="M291,260v 8" fill="none" stroke="#ff0000" stroke-width="2"/>
<path d="M292,262v 7" fill="none" stroke="#ff0000" stroke-width="2"/>
<path d="M293,264v 8" fill="none" stroke="#ff0000" stroke-width="2"/>
<path d="M293,268v 7" fill="none" stroke="#ff0000" stroke-width="2"/>
<path d="M294,269v 8" fill="none" stroke="#ff0000" stroke-width="2"/>
<path d="M295,270v 7" fill="none" stroke="#ff0000" stroke-width="2"/>
<path d="M296,272v 7" fill="none" stroke="#ff0000" stroke-width="2"/>
<path d="M297,275v 6" fill="none" stroke="#ff0000" stroke-width="2"/>
<path d="M298,276v 7" fill="none" stroke="#ff0000" stroke-width="2"/>
<path d="M298,277v 8" fill="none" stroke="#ff0000" stroke-width="2"/>
<path d="M299,278v 8" fill="none" stroke="#ff0000" stroke-width="2"/>
<path d="M300,280v 7" fill="none" stroke="#ff0000" stroke-width="2"/>
<path d="M301,282v 7" fill="none" stroke="#ff0000" stroke-width="2"/>
<path d="M302,283v 8" fill="none" stroke="#ff0000" stroke-width="2"/>
<path d="M302,285v 6" fill="none" stroke="#ff0000" stroke-width="2"/>
<path d="M303,286v 7" fill="none" stroke="#ff0000" stroke-width="2"/>
<path d="M304,287v 7" fill="none" stroke="#ff0000" stroke-width="2"/>
<path d="M305,289v 6" fill="none" stroke="#ff0000" stroke-width="2"/>
<path d="M306,290v 7" fill="none" stroke="#ff0000" stroke-width="2"/>
<path d="M307,291v 7" fill="none" stroke="#ff0000" stroke-width="2"/>
<path d="M307,291v 8" fill="none" stroke="#ff0000" stroke-width="2"/>
<path d="M308,293v 6" fill="none" stroke="#ff0000" stroke-width="2"/>
<path d="M309,294v 7" fill="none" stroke="#ff0000" stroke-width="2"/>
<path d="M310,295v 7" fill="none" stroke="#ff0000" stroke-width="2"/>
<path d="M311,295v 8" fill="none" stroke="#ff0000" stroke-width="2"/>
<path d="M311,296v 8" fill="none" stroke="#ff0000" stroke-width="2"/>
<path d="M312,298v 6" fill="none" stroke="#ff0000" stroke-width="2"/>
<path d="M313,299v 7" fill="none" stroke="#ff0000" stroke-width="2"/>
<path d="M314,299v 8" fill="none" stroke="#ff0000" stroke-width="2"/>
<path d="M315,300v 7" fill="none" stroke="#ff0000" stroke-width="2"/>
<path d="M315,301v 7" fill="none" stroke="#ff0000" stroke-width="2"/>
<path d="M316,302v 6" fill="none" stroke="#ff0000" stroke-width="2"/>
<path d="M317,303v 6" fill="none" stroke="#ff0000" stroke-width="2"/>
<path d="M318,304v 6" fill="none" stroke="#ff0000" stroke-width="2"/>
<path d="M319,304v 7" fill="none" stroke="#ff0000" stroke-width="2"/>
<path d="M320,305v 7" fill="none" stroke="#ff0000" stroke-width="2"/>
<path d="M320,306v 7" fill="none" stroke="#ff0000" stroke-width="2"/>
<path d="M321,306v 7" fill="none" stroke="#ff0000" stroke-width="2"/>
<path d="M322,307v 6" fill="none" stroke="#ff0000" stroke-width="2"/>
<path d="M323,307v 7" fill="none" stroke="#ff0000" stroke-width="2"/>
<path d="M324,308v 6" fill="none" stroke="#ff0000" stroke-width="2"/>
<path d="M324,308v 8" fill="none" stroke="#ff0000" stroke-width="2"/>
<path d="M325,309v 7" fill="none" stroke="#ff0000" stroke-width="2"/>
<path d="M326,309v 8" fill="none" stroke="#ff0000" stroke-width="2"/>
<path d="M327,310v 7" fill="none" stroke="#ff0000" stroke-width="2"/>
<path d="M328,311v 6" fill="none" stroke="#ff0000" stroke-width="2"/>
<path d="M329,311v 7" fill="none" stroke="#ff0000" stroke-width="2"/>
<path d="M329,312v 6" fill="none" stroke="#ff0000" stroke-width="2"/>
<path d="M330,312v 7" fill="none" stroke="#ff0000" stroke-width="2"/>
<path d="M331,313v 6" fill="none" stroke="#ff0000" stroke-width="2"/>
<path d="M332,313v 7" fill="none" stroke="#ff0000" stroke-width="2"/>
<path d="M333,313v 7" fill="none" stroke="#ff0000" stroke-width="2"/>
<path d="M333,313v 8" fill="none" stroke="#ff0000" stroke-width="2"/>
<path d="M334,314v 7" fill="none" stroke="#ff0000" stroke-width="2"/>
<path d="M335,315v 6" fill="none" stroke="#ff0000" stroke-width="2"/>
<path d="M336,315v 6" fill="none" stroke="#ff0000" stroke-width="2"/>
<path d="M337,315v 7" fill="none" stroke="#ff0000" stroke-width="2"/>
<path d="M337,316v 6" fill="none" stroke="#ff0000" stroke-width="2"/>
<path d="M338,316v 6" fill="none" stroke="#ff0000" stroke-width="2"/>
<path d="M339,317v 6" fill="none" stroke="#ff0000" stroke-width="2"/>
<path d="M340,317v 6" fill="none" stroke="#ff0000" stroke-width="2"/>
<path d="M341,317v 6" fill="none" stroke="#ff0000" stroke-width="2"/>
<path d="M342,317v 7" fill="none" stroke="#ff0000" stroke-width="2"/>
<path d="M342,317v 7" fill="none" stroke="#ff0000" stroke-width="2"/>
<path d="M343,317v 7" fill="none" stroke="#ff0000" stroke-width="2"/>
<path d="M344,318v 7" fill="none" stroke="#ff0000" stroke-width="2"/>
<path d="M345,318v 7" fill="none" stroke="#ff0000" stroke-width="2"/>
<path d="M346,318v 7" fill="none" stroke="#ff0000" stroke-width="2"/>
<path d="M346,319v 7" fill="none" stroke="#ff0000" stroke-width="2"/>
<path d="M347,319v 7" fill="none" stroke="#ff0000" stroke-width="2"/>
<path d="M348,319v 7" fill="none" stroke="#ff0000" stroke-width="2"/>
<path d="M349,319v 7" fill="none" stroke="#ff0000" stroke-width="2"/>
<path d="M350,320v 6" fill="none" stroke="#ff0000" stroke-width="2"/>
<path d="M351,320v 6" fill="none" stroke="#ff0000" stroke-width="2"/>
<path d="M351,320v 6" fill="none" stroke="#ff0000" stroke-width="2"/>
<path d="M352,320v 7" fill="none" stroke="#ff0000" stroke-width="2"/>
<path d="M353,321v 6" fill="none" stroke="#ff0000" stroke-width="2"/>
<path d="M354,321v 6" fill="none" stroke="#ff0000" stroke-width="2"/>
<path d="M355,321v 6" fill="none" stroke="#ff0000" stroke-width="2"/>
<path d="M355,321v 6" fill="none" stroke="#ff0000" stroke-width="2"/>
<path d="M356,321v 7" fill="none" stroke="#ff0000" stroke-width="2"/>
<path d="M357,321v 7" fill="none" stroke="#ff0000" stroke-width="2"/>
<path d="M358,321v 7" fill="none" stroke="#ff0000" stroke-width="2"/>
<path d="M359,321v 7" fill="none" stroke="#ff0000" stroke-width="2"/>
<path d="M359,321v 7" fill="none" stroke="#ff0000" stroke-width="2"/>
<path d="M360,321v 7" fill="none" stroke="#ff0000" stroke-width="2"/>
<path d="M361,321v 8" fill="none" stroke="#ff0000" stroke-width="2"/>
<path d="M362,322v 7" fill="none" stroke="#ff0000" stroke-width="2"/>
<path d="M363,322v 7" fill="none" stroke="#ff0000" stroke-width="2"/>
<path d="M364,322v 7" fill="none" stroke="#ff0000" stroke-width="2"/>
<path d="M364,322v 7" fill="none" stroke="#ff0000" stroke-width="2"/>
<path d="M365,322v 7" fill="none" stroke="#ff0000" stroke-width="2"/>
<path d="M366,322v 7" fill="none" stroke="#ff0000" stroke-width="2"/>
<path d="M367,323v 7" fill="none" stroke="#ff0000" stroke-width="2"/>
<path d="M368,323v 7" fill="none" stroke="#ff0000" stroke-width="2"/>
<path d="M368,323v 7" fill="none" stroke="#ff0000" stroke-width="2"/>
<path d="M369,323v 7" fill="none" stroke="#ff0000" stroke-width="2"/>
<path d="M370,323v 7" fill="none" stroke="#ff0000" stroke-width="2"/>
<path d="M371,323v 7" fill="none" stroke="#ff0000" stroke-width="2"/>
<path d="M372,323v 7" fill="none" stroke="#ff0000" stroke-width="2"/>
<path d="M372,323v 7" fill="none" stroke="#ff0000" stroke-width="2"/>
<path d="M373,323v 7" fill="none" stroke="#ff0000" stroke-width="2"/>
<path d="M374,324v 6" fill="none" stroke="#ff0000" stroke-width="2"/>
<path d="M375,324v 6" fill="none" stroke="#ff0000" stroke-width="2"/>
<path d="M376,324v 6" fill="none" stroke="#ff0000" stroke-width="2"/>
<path d="M377,324v 6" fill="none" stroke="#ff0000" stroke-width="2"/>
<path d="M377,324v 6" fill="none" stroke="#ff0000" stroke-width="2"/>
<path d="M378,324v 6" fill="none" stroke="#ff0000" stroke-width="2"/>
<path d="M379,324v 6" fill="none" stroke="#ff0000" stroke-width="2"/>
<path d="M380,324v 6" fill="none" stroke="#ff0000" stroke-width="2"/>
<path d="M381,324v 6" fill="none" stroke="#ff0000" stroke-width="2"/>
<path d="M381,324v 6" fill="none" stroke="#ff0000" stroke-width="2"/>
<path d="M382,324v 7" fill="none" stroke="#ff0000" stroke-width="2"/>
<path d="M383,324v 7" fill="none" stroke="#ff0000" stroke-width="2"/>
<path d="M384,324v 7" fill="none" stroke="#ff0000" stroke-width="2"/>
<path d="M385,325v 6" fill="none" stroke="#ff0000" stroke-width="2"/>
<path d="M386,325v 6" fill="none" stroke="#ff0000" stroke-width="2"/>
<path d="M386,325v 6" fill="none" stroke="#ff0000" stroke-width="2"/>
<path d="M387,325v 6" fill="none" stroke="#ff0000" stroke-width="2"/>
<path d="M388,325v 6" fill="none" stroke="#ff0000" stroke-width="2"/>
<path d="M389,325v 6" fill="none" stroke="#ff0000" stroke-width="2"/>
<path d="M390,325v 6" fill="none" stroke="#ff0000" stroke-width="2"/>
<path d="M390,325v 6" fill="none" stroke="#ff0000" stroke-width="2"/>
<path d="M391,325v 6" fill="none" stroke="#ff0000" stroke-width="2"/>
<path d="M392,325v 6" fill="none" stroke="#ff0000" stroke-width="2"/>
<path d="M393,325v 6" fill="none" stroke="#ff0000" stroke-width="2"/>
<path d="M394,325v 6" fill="none" stroke="#ff0000" stroke-width="2"/>
<path d="M394,325v 6" fill="none" stroke="#ff0000" stroke-width="2"/>
<path d="M395,325v 6" fill="none" stroke="#ff0000" stroke-width="2"/>
<path d="M396,325v 6" fill="none" stroke="#ff0000" stroke-width="2"/>
<path d="M397,325v 6" fill="none" stroke="#ff0000" stroke-width="2"/>
<path d="M398,325v 7" fill="none" stroke="#ff0000" stroke-width="2"/>
<path d="M399,325v 7" fill="none" stroke="#ff0000" stroke-width="2"/>
<path d="M399,325v 7" fill="none" stroke="#ff0000" stroke-width="2"/>
<path d="M400,326v 6" fill="none" stroke="#ff0000" stroke-width="2"/>
<path d="M401,326v 6" fill="none" stroke="#ff0000" stroke-width="2"/>
<path d="M402,326v 6" fill="none" stroke="#ff0000" stroke-width="2"/>
<path d="M403,326v 6" fill="none" stroke="#ff0000" stroke-width="2"/>
<path d="M403,326v 6" fill="none" stroke="#ff0000" stroke-width="2"/>
<path d="M404,326v 6" fill="none" stroke="#ff0000" stroke-width="2"/>
<path d="M405,326v 6" fill="none" stroke="#ff0000" stroke-width="2"/>
<path d="M406,326v 6" fill="none" stroke="#ff0000" stroke-width="2"/>
<path d="M407,326v 6" fill="none" stroke="#ff0000" stroke-width="2"/>
<path d="M408,326v 6" fill="none" stroke="#ff0000" stroke-width="2"/>
<path d="M408,326v 6" fill="none" stroke="#ff0000" stroke-width="2"/>
<path d="M409,326v 6" fill="none" stroke="#ff0000" stroke-width="2"/>
<path d="M410,326v 6" fill="none" stroke="#ff0000" stroke-width="2"/>
<path d="M411,326v 6" fill="none" stroke="#ff0000" stroke-width="2"/>
<path d="M412,326v 6" fill="none" stroke="#ff0000" stroke-width="2"/>
<path d="M412,326v 6" fill="none" stroke="#ff0000" stroke-width="2"/>
<path d="M413,326v 6" fill="none" stroke="#ff0000" stroke-width="2"/>
<path d="M414,326v 6" fill="none" stroke="#ff0000" stroke-width="2"/>
<path d="M415,326v 6" fill="none" stroke="#ff0000" stroke-width="2"/>
<path d="M416,326v 6" fill="none" stroke="#ff0000" stroke-width="2"/>
<path d="M416,326v 6" fill="none" stroke="#ff0000" stroke-width="2"/>
<path d="M417,326v 6" fill="none" stroke="#ff0000" stroke-width="2"/>
<path d="M418,326v 6" fill="none" stroke="#ff0000" stroke-width="2"/>
<path d="M419,326v 6" fill="none" stroke="#ff0000" stroke-width="2"/>
<path d="M420,326v 6" fill="none" stroke="#ff0000" stroke-width="2"/>
<path d="M421,326v 6" fill="none" stroke="#ff0000" stroke-width="2"/>
<path d="M421,326v 6" fill="none" stroke="#ff0000" stroke-width="2"/>
<path d="M422,326v 6" fill="none" stroke="#ff0000" stroke-width="2"/>
<path d="M423,326v 6" fill="none" stroke="#ff0000" stroke-width="2"/>
<path d="M424,326v 6" fill="none" stroke="#ff0000" stroke-width="2"/>
<path d="M425,326v 6" fill="none" stroke="#ff0000" stroke-width="2"/>
<path d="M425,326v 6" fill="none" stroke="#ff0000" stroke-width="2"/>
<path d="M426,326v 6" fill="none" stroke="#ff0000" stroke-width="2"/>
<path d="M427,326v 6" fill="none" stroke="#ff0000" stroke-width="2"/>
<path d="M428,326v 6" fill="none" stroke="#ff0000" stroke-width="2"/>
<path d="M429,326v 6" fill="none" stroke="#ff0000" stroke-width="2"/>
<path d="M430,326v 6" fill="none" stroke="#ff0000" stroke-width="2"/>
<path d="M430,326v 6" fill="none" stroke="#ff0000" stroke-width="2"/>
<path d="M431,326v 6" fill="none" stroke="#ff0000" stroke-width="2"/>
<path d="M432,326v 6" fill="none" stroke="#ff0000" stroke-width="2"/>
<path d="M433,326v 6" fill="none" stroke="#ff0000" stroke-width="2"/>
<path d="M434,326v 6" fill="none" stroke="#ff0000" stroke-width="2"/>
<path d="M434,326v 6" fill="none" stroke="#ff0000" stroke-width="2"/>
<path d="M435,326v 6" fill="none" stroke="#ff0000" stroke-width="2"/>
<path d="M436,326v 6" fill="none" stroke="#ff0000" stroke-width="2"/>
<path d="M437,326v 6" fill="none" stroke="#ff0000" stroke-width="2"/>
<path d="M438,326v 6" fill="none" stroke="#ff0000" stroke-width="2"/>
<path d="M438,326v 6" fill="none" stroke="#ff0000" stroke-width="2"/>
<path d="M439,326v 6" fill="none" stroke="#ff0000" stroke-width="2"/>
<path d="M440,326v 7" fill="none" stroke="#ff0000" stroke-width="2"/>
<path d="M441,326v 6" fill="none" stroke="#ff0000" stroke-width="2"/>
<path d="M442,326v 7" fill="none" stroke="#ff0000" stroke-width="2"/>
<path d="M443,326v 7" fill="none" stroke="#ff0000" stroke-width="2"/>
<path d="M443,326v 7" fill="none" stroke="#ff0000" stroke-width="2"/>
<path d="M444,326v 7" fill="none" stroke="#ff0000" stroke-width="2"/>
<path d="M445,326v 7" fill="none" stroke="#ff0000" stroke-width="2"/>
<path d="M446,326v 7" fill="none" stroke="#ff0000" stroke-width="2"/>
<path d="M447,326v 7" fill="none" stroke="#ff0000" stroke-width="2"/>
<path d="M447,326v 7" fill="none" stroke="#ff0000" stroke-width="2"/>
<path d="M448,326v 7" fill="none" stroke="#ff0000" stroke-width="2"/>
<path d="M449,326v 7" fill="none" stroke="#ff0000" stroke-width="2"/>
<path d="M450,326v 7" fill="none" stroke="#ff0000" stroke-width="2"/>
<path d="M451,326v 7" fill="none" stroke="#ff0000" stroke-width="2"/>
<path d="M452,326v 7" fill="none" stroke="#ff0000" stroke-width="2"/>
<path d="M452,326v 7" fill="none" stroke="#ff0000" stroke-width="2"/>
<path d="M453,326v 7" fill="none" stroke="#ff0000" stroke-width="2"/>
<path d="M454,326v 7" fill="none" stroke="#ff0000" stroke-width="2"/>
<path d="M455,326v 7" fill="none" stroke="#ff0000" stroke-width="2"/>
<path d="M456,326v 7" fill="none" stroke="#ff0000" stroke-width="2"/>
<path d="M456,326v 7" fill="none" stroke="#ff0000" stroke-width="2"/>
<path d="M457,326v 7" fill="none" stroke="#ff0000" stroke-width="2"/>
<path d="M458,326v 7" fill="none" stroke="#ff0000" stroke-width="2"/>
<path d="M459,326v 7" fill="none" stroke="#ff0000" stroke-width="2"/>
<path d="M460,326v 7" fill="none" stroke="#ff0000" stroke-width="2"/>
<path d="M460,326v 7" fill="none" stroke="#ff0000" stroke-width="2"/>
<path d="M461,326v 7" fill="none" stroke="#ff0000" stroke-width="2"/>
<path d="M462,326v 7" fill="none" stroke="#ff0000" stroke-width="2"/>
<path d="M463,326v 7" fill="none" stroke="#ff0000" stroke-width="2"/>
<path d="M464,326v 7" fill="none" stroke="#ff0000" stroke-width="2"/>
<path d="M465,326v 7" fill="none" stroke="#ff0000" stroke-width="2"/>
<path d="M465,326v 7" fill="none" stroke="#ff0000" stroke-width="2"/>
<path d="M466,326v 7" fill="none" stroke="#ff0000" stroke-width="2"/>
<path d="M467,326v 7" fill="none" stroke="#ff0000" stroke-width="2"/>
<path d="M468,326v 7" fill="none" stroke="#ff0000" stroke-width="2"/>
<path d="M469,326v 7" fill="none" stroke="#ff0000" stroke-width="2"/>
<path d="M469,326v 7" fill="none" stroke="#ff0000" stroke-width="2"/>
<path d="M470,326v 7" fill="none" stroke="#ff0000" stroke-width="2"/>
<path d="M471,326v 7" fill="none" stroke="#ff0000" stroke-width="2"/>
<path d="M472,326v 7" fill="none" stroke="#ff0000" stroke-width="2"/>
<path d="M473,326v 7" fill="none" stroke="#ff0000" stroke-width="2"/>
<path d="M473,326v 7" fill="none" stroke="#ff0000" stroke-width="2"/>
<path d="M474,326v 7" fill="none" stroke="#ff0000" stroke-width="2"/>
<path d="M475,326v 7" fill="none" stroke="#ff0000" stroke-width="2"/>
<path d="M476,326v 7" fill="none" stroke="#ff0000" stroke-width="2"/>
<path d="M477,326v 7" fill="none" stroke="#ff0000" stroke-width="2"/>
<path d="M478,326v 7" fill="none" stroke="#ff0000" stroke-width="2"/>
<path d="M478,326v 7" fill="none" stroke="#ff0000" stroke-width="2"/>
<path d="M479,326v 7" fill="none" stroke="#ff0000" stroke-width="2"/>
<path d="M480,326v 7" fill="none" stroke="#ff0000" stroke-width="2"/>
<path d="M481,326v 7" fill="none" stroke="#ff0000" stroke-width="2"/>
<path d="M482,326v 7" fill="none" stroke="#ff0000" stroke-width="2"/>
<path d="M482,326v 7" fill="none" stroke="#ff0000" stroke-width="2"/>
<path d="M483,326v 7" fill="none" stroke="#ff0000" stroke-width="2"/>
<path d="M484,326v 7" fill="none" stroke="#ff0000" stroke-width="2"/>
<path d="M485,326v 7" fill="none" stroke="#ff0000" stroke-width="2"/>
<path d="M486,326v 7" fill="none" stroke="#ff0000" stroke-width="2"/>
<path d="M487,326v 7" fill="none" stroke="#ff0000" stroke-width="2"/>
<path d="M487,326v 7" fill="none" stroke="#ff0000" stroke-width="2"/>
<path d="M488,326v 7" fill="none" stroke="#ff0000" stroke-width="2"/>
<path d="M489,326v 7" fill="none" stroke="#ff0000" stroke-width="2"/>
<path d="M490,326v 7" fill="none" stroke="#ff0000" stroke-width="2"/>
<path d="M491,326v 7" fill="none" stroke="#ff0000" stroke-width="2"/>
<path d="M491,326v 7" fill="none" stroke="#ff0000" stroke-width="2"/>
<path d="M492,326v 7" fill="none" stroke="#ff0000" stroke-width="2"/>
<path d="M493,326v 7" fill="none" stroke="#ff0000" stroke-width="2"/>
<path d="M494,326v 7" fill="none" stroke="#ff0000" stroke-width="2"/>
<path d="M495,326v 7" fill="none" stroke="#ff0000" stroke-width="2"/>
<path d="M495,326v 7" fill="none" stroke="#ff0000" stroke-width="2"/>
<path d="M496,326v 7" fill="none" stroke="#ff0000" stroke-width="2"/>
<path d="M497,326v 7" fill="none" stroke="#ff0000" stroke-width="2"/>
<path d="M498,326v 7" fill="none" stroke="#ff0000" stroke-width="2"/>
<path d="M499,326v 7" fill="none" stroke="#ff0000" stroke-width="2"/>
<path d="M500,326v 7" fill="none" stroke="#ff0000" stroke-width="2"/>
<path d="M500,326v 7" fill="none" stroke="#ff0000" stroke-width="2"/>
<path d="M501,326v 7" fill="none" stroke="#ff0000" stroke-width="2"/>
<path d="M502,326v 7" fill="none" stroke="#ff0000" stroke-width="2"/>
<path d="M503,326v 7" fill="none" stroke="#ff0000" stroke-width="2"/>
<path d="M504,326v 7" fill="none" stroke="#ff0000" stroke-width="2"/>
<path d="M504,326v 7" fill="none" stroke="#ff0000" stroke-width="2"/>
<path d="M505,326v 7" fill="none" stroke="#ff0000" stroke-width="2"/>
<path d="M506,326v 7" fill="none" stroke="#ff0000" stroke-width="2"/>
<path d="M507,326v 7" fill="none" stroke="#ff0000" stroke-width="2"/>
<path d="M508,326v 7" fill="none" stroke="#ff0000" stroke-width="2"/>
<path d="M509,326v 7" fill="none" stroke="#ff0000" stroke-width="2"/>
<path d="M509,326v 7" fill="none" stroke="#ff0000" stroke-width="2"/>
<path d="M510,326v 4" fill="none" stroke="#ff0000" stroke-width="2"/>
<path d="M284,229l 1, 4v 8l 1, 6l 1, 3l 1, 3l 1, 2v 5l 1, 2l 1, 2l 1, 1l 1, 3v 3l 1, 2h 1l 1, 2l 1, 2l 1, 2v 2l 1, 1l 1, 1l 1, 3h 1v 2l 1, 1l 1, 2l 1, 1l 1, 1l 1, 1v 1l 1, 1l 1, 1l 1, 1l 1, 1l 1, 2l 1, 1l 1, 1l 1, 1l 1, 1l 1, 1l 1, 1h 1l 1, 1v 1h 1l
 1, 1h 1l 1, 1v 1l 1, 1h 2l 1, 1h 1v 1h 1l 1, 1l 1, 1h 3l 1, 1h 1v 1h 1l 1, 1h 2l 1, 1h 4v 1h 3l 1, 1h 2l 1, 1h 3l 1, 1h 4l 1, 1h 11l 1, 1h 10l 1, 1h 14l 1, 1h 54l 1, 1h 54l 1, -2" fill="none" stroke="#ff0000" stroke-width="2"/>
<rect x="351" y="25" width="205" height="154" fill="white"/>
<path d="M351,179h 205" fill="none" stroke="black"/>
<path d="M556,179v -154" fill="none" stroke="black"/>
<path d="M556,25h -205" fill="none" stroke="black"/>
<path d="M351,25v 154" fill="none" stroke="black"/>
<text x="362" y="38" fill="black" font-size="14" font-family="Helvetica">
Entries 
</text>
<text x="490" y="38" fill="black" font-size="14" font-family="Helvetica">
 149814
</text>
<text x="374" y="58" fill="black" font-size="14" font-family="Helvetica">
 / ndf 
</text>
<text x="369" y="45" fill="black" font-size="10" font-family="Helvetica">
2
</text>
<text x="362" y="58" fill="black" font-size="14" font-family="Times">
&#0967;
</text>
<text x="455" y="55" fill="black" font-size="14" font-family="Helvetica">
  2342 / 1240
</text>
<text x="382" y="68" fill="black" font-size="14" font-family="Helvetica">
   
</text>
<text x="372" y="77" fill="black" font-size="10" font-family="Helvetica">
cu
</text>
<text x="362" y="68" fill="black" font-size="14" font-family="Helvetica">
N
</text>
<text x="503" y="74" fill="black" font-size="14" font-family="Helvetica">
 17.05
</text>
<text x="490" y="74" fill="black" font-size="14" font-family="Times">
&#0177;
</text>
<text x="443" y="74" fill="black" font-size="14" font-family="Helvetica">
 55.59 
</text>
<text x="377" y="87" fill="black" font-size="14" font-family="Helvetica">
 
</text>
<text x="367" y="97" fill="black" font-size="10" font-family="Helvetica">
cu
</text>
<text x="362" y="87" fill="black" font-size="14" font-family="Times">
&#0964;
</text>
<text x="503" y="91" fill="black" font-size="14" font-family="Helvetica">
 100.0
</text>
<text x="490" y="91" fill="black" font-size="14" font-family="Times">
&#0177;
</text>
<text x="443" y="91" fill="black" font-size="14" font-family="Helvetica">
 206.1 
</text>
<text x="375" y="102" fill="black" font-size="14" font-family="Helvetica">
    
</text>
<text x="372" y="111" fill="black" font-size="10" font-family="Helvetica">
f
</text>
<text x="362" y="102" fill="black" font-size="14" font-family="Helvetica">
N
</text>
<text x="520" y="108" fill="black" font-size="14" font-family="Helvetica">
 4.9
</text>
<text x="507" y="108" fill="black" font-size="14" font-family="Times">
&#0177;
</text>
<text x="460" y="108" fill="black" font-size="14" font-family="Helvetica">
 247.6 
</text>
<text x="370" y="121" fill="black" font-size="14" font-family="Helvetica">
 
</text>
<text x="367" y="131" fill="black" font-size="10" font-family="Helvetica">
f
</text>
<text x="362" y="121" fill="black" font-size="14" font-family="Times">
&#0964;
</text>
<text x="511" y="125" fill="black" font-size="14" font-family="Helvetica">
 39.8
</text>
<text x="499" y="125" fill="black" font-size="14" font-family="Times">
&#0177;
</text>
<text x="451" y="125" fill="black" font-size="14" font-family="Helvetica">
  2258 
</text>
<text x="384" y="137" fill="black" font-size="14" font-family="Helvetica">
  
</text>
<text x="372" y="146" fill="black" font-size="10" font-family="Helvetica">
sin
</text>
<text x="362" y="137" fill="black" font-size="14" font-family="Helvetica">
N
</text>
<text x="503" y="142" fill="black" font-size="14" font-family="Helvetica">
 0.349
</text>
<text x="490" y="142" fill="black" font-size="14" font-family="Times">
&#0177;
</text>
<text x="443" y="142" fill="black" font-size="14" font-family="Helvetica">
 9.377 
</text>
<text x="362" y="158" fill="black" font-size="14" font-family="Helvetica">
T        
</text>
<text x="511" y="159" fill="black" font-size="14" font-family="Helvetica">
 0.00
</text>
<text x="499" y="159" fill="black" font-size="14" font-family="Times">
&#0177;
</text>
<text x="451" y="159" fill="black" font-size="14" font-family="Helvetica">
 59.28 
</text>
<text x="377" y="171" fill="black" font-size="14" font-family="Helvetica">
    
</text>
<text x="372" y="180" fill="black" font-size="10" font-family="Helvetica">
b
</text>
<text x="362" y="171" fill="black" font-size="14" font-family="Helvetica">
N
</text>
<text x="511" y="176" fill="black" font-size="14" font-family="Helvetica">
 0.29
</text>
<text x="499" y="176" fill="black" font-size="14" font-family="Times">
&#0177;
</text>
<text x="451" y="176" fill="black" font-size="14" font-family="Helvetica">
 47.42 
</text>
<path d="M57,346h 453" fill="none" stroke="black"/>
<text x="419" y="372" fill="black" font-size="12" font-family="Helvetica">
TDC-TDC0 (ns)
</text>
<path d="M57,337v 9" fill="none" stroke="black"/>
<path d="M68,342v 4" fill="none" stroke="black"/>
<path d="M79,342v 4" fill="none" stroke="black"/>
<path d="M91,342v 4" fill="none" stroke="black"/>
<path d="M102,342v 4" fill="none" stroke="black"/>
<path d="M113,337v 9" fill="none" stroke="black"/>
<path d="M125,342v 4" fill="none" stroke="black"/>
<path d="M136,342v 4" fill="none" stroke="black"/>
<path d="M147,342v 4" fill="none" stroke="black"/>
<path d="M159,342v 4" fill="none" stroke="black"/>
<path d="M170,337v 9" fill="none" stroke="black"/>
<path d="M181,342v 4" fill="none" stroke="black"/>
<path d="M193,342v 4" fill="none" stroke="black"/>
<path d="M204,342v 4" fill="none" stroke="black"/>
<path d="M215,342v 4" fill="none" stroke="black"/>
<path d="M227,337v 9" fill="none" stroke="black"/>
<path d="M238,342v 4" fill="none" stroke="black"/>
<path d="M249,342v 4" fill="none" stroke="black"/>
<path d="M261,342v 4" fill="none" stroke="black"/>
<path d="M272,342v 4" fill="none" stroke="black"/>
<path d="M283,337v 9" fill="none" stroke="black"/>
<path d="M295,342v 4" fill="none" stroke="black"/>
<path d="M306,342v 4" fill="none" stroke="black"/>
<path d="M317,342v 4" fill="none" stroke="black"/>
<path d="M329,342v 4" fill="none" stroke="black"/>
<path d="M340,337v 9" fill="none" stroke="black"/>
<path d="M351,342v 4" fill="none" stroke="black"/>
<path d="M363,342v 4" fill="none" stroke="black"/>
<path d="M374,342v 4" fill="none" stroke="black"/>
<path d="M386,342v 4" fill="none" stroke="black"/>
<path d="M397,337v 9" fill="none" stroke="black"/>
<path d="M408,342v 4" fill="none" stroke="black"/>
<path d="M420,342v 4" fill="none" stroke="black"/>
<path d="M431,342v 4" fill="none" stroke="black"/>
<path d="M442,342v 4" fill="none" stroke="black"/>
<path d="M454,337v 9" fill="none" stroke="black"/>
<path d="M465,342v 4" fill="none" stroke="black"/>
<path d="M476,342v 4" fill="none" stroke="black"/>
<path d="M488,342v 4" fill="none" stroke="black"/>
<path d="M499,342v 4" fill="none" stroke="black"/>
<path d="M510,337v 9" fill="none" stroke="black"/>
<text x="36" y="359" fill="black" font-size="12" font-family="Helvetica">
-20000
</text>
<text x="93" y="359" fill="black" font-size="12" font-family="Helvetica">
-15000
</text>
<text x="149" y="359" fill="black" font-size="12" font-family="Helvetica">
-10000
</text>
<text x="210" y="359" fill="black" font-size="12" font-family="Helvetica">
-5000
</text>
<text x="280" y="359" fill="black" font-size="12" font-family="Helvetica">
0
</text>
<text x="325" y="359" fill="black" font-size="12" font-family="Helvetica">
5000
</text>
<text x="379" y="359" fill="black" font-size="12" font-family="Helvetica">
10000
</text>
<text x="435" y="359" fill="black" font-size="12" font-family="Helvetica">
15000
</text>
<text x="492" y="359" fill="black" font-size="12" font-family="Helvetica">
20000
</text>
<path d="M57,346v -308" fill="none" stroke="black"/>
<g transform="rotate(-90,29,72)">
<text x="29" y="72" fill="black" font-size="12" font-family="Helvetica">
Count
</text>
</g>
<path d="M70,346h -13" fill="none" stroke="black"/>
<path d="M63,339h -6" fill="none" stroke="black"/>
<path d="M63,332h -6" fill="none" stroke="black"/>
<path d="M63,325h -6" fill="none" stroke="black"/>
<path d="M63,318h -6" fill="none" stroke="black"/>
<path d="M70,311h -13" fill="none" stroke="black"/>
<path d="M63,304h -6" fill="none" stroke="black"/>
<path d="M63,297h -6" fill="none" stroke="black"/>
<path d="M63,290h -6" fill="none" stroke="black"/>
<path d="M63,283h -6" fill="none" stroke="black"/>
<path d="M70,276h -13" fill="none" stroke="black"/>
<path d="M63,269h -6" fill="none" stroke="black"/>
<path d="M63,262h -6" fill="none" stroke="black"/>
<path d="M63,255h -6" fill="none" stroke="black"/>
<path d="M63,248h -6" fill="none" stroke="black"/>
<path d="M70,241h -13" fill="none" stroke="black"/>
<path d="M63,234h -6" fill="none" stroke="black"/>
<path d="M63,227h -6" fill="none" stroke="black"/>
<path d="M63,220h -6" fill="none" stroke="black"/>
<path d="M63,213h -6" fill="none" stroke="black"/>
<path d="M70,206h -13" fill="none" stroke="black"/>
<path d="M63,198h -6" fill="none" stroke="black"/>
<path d="M63,191h -6" fill="none" stroke="black"/>
<path d="M63,184h -6" fill="none" stroke="black"/>
<path d="M63,177h -6" fill="none" stroke="black"/>
<path d="M70,170h -13" fill="none" stroke="black"/>
<path d="M63,163h -6" fill="none" stroke="black"/>
<path d="M63,156h -6" fill="none" stroke="black"/>
<path d="M63,149h -6" fill="none" stroke="black"/>
<path d="M63,142h -6" fill="none" stroke="black"/>
<path d="M70,135h -13" fill="none" stroke="black"/>
<path d="M63,128h -6" fill="none" stroke="black"/>
<path d="M63,121h -6" fill="none" stroke="black"/>
<path d="M63,114h -6" fill="none" stroke="black"/>
<path d="M63,107h -6" fill="none" stroke="black"/>
<path d="M70,100h -13" fill="none" stroke="black"/>
<path d="M63,93h -6" fill="none" stroke="black"/>
<path d="M63,86h -6" fill="none" stroke="black"/>
<path d="M63,79h -6" fill="none" stroke="black"/>
<path d="M63,72h -6" fill="none" stroke="black"/>
<path d="M70,65h -13" fill="none" stroke="black"/>
<path d="M70,65h -13" fill="none" stroke="black"/>
<path d="M63,58h -6" fill="none" stroke="black"/>
<path d="M63,50h -6" fill="none" stroke="black"/>
<path d="M63,43h -6" fill="none" stroke="black"/>
<text x="47" y="350" fill="black" font-size="12" font-family="Helvetica">
0
</text>
<text x="33" y="315" fill="black" font-size="12" font-family="Helvetica">
100
</text>
<text x="33" y="280" fill="black" font-size="12" font-family="Helvetica">
200
</text>
<text x="33" y="244" fill="black" font-size="12" font-family="Helvetica">
300
</text>
<text x="33" y="209" fill="black" font-size="12" font-family="Helvetica">
400
</text>
<text x="33" y="174" fill="black" font-size="12" font-family="Helvetica">
500
</text>
<text x="33" y="139" fill="black" font-size="12" font-family="Helvetica">
600
</text>
<text x="33" y="103" fill="black" font-size="12" font-family="Helvetica">
700
</text>
<text x="33" y="68" fill="black" font-size="12" font-family="Helvetica">
800
</text>
<rect x="351" y="25" width="205" height="154" fill="white"/>
<path d="M351,179h 205" fill="none" stroke="black"/>
<path d="M556,179v -154" fill="none" stroke="black"/>
<path d="M556,25h -205" fill="none" stroke="black"/>
<path d="M351,25v 154" fill="none" stroke="black"/>
<text x="362" y="38" fill="black" font-size="14" font-family="Helvetica">
Entries 
</text>
<text x="490" y="38" fill="black" font-size="14" font-family="Helvetica">
 149814
</text>
<text x="374" y="58" fill="black" font-size="14" font-family="Helvetica">
 / ndf 
</text>
<text x="369" y="45" fill="black" font-size="10" font-family="Helvetica">
2
</text>
<text x="362" y="58" fill="black" font-size="14" font-family="Times">
&#0967;
</text>
<text x="455" y="55" fill="black" font-size="14" font-family="Helvetica">
  2342 / 1240
</text>
<text x="382" y="68" fill="black" font-size="14" font-family="Helvetica">
   
</text>
<text x="372" y="77" fill="black" font-size="10" font-family="Helvetica">
cu
</text>
<text x="362" y="68" fill="black" font-size="14" font-family="Helvetica">
N
</text>
<text x="503" y="74" fill="black" font-size="14" font-family="Helvetica">
 17.05
</text>
<text x="490" y="74" fill="black" font-size="14" font-family="Times">
&#0177;
</text>
<text x="443" y="74" fill="black" font-size="14" font-family="Helvetica">
 55.59 
</text>
<text x="377" y="87" fill="black" font-size="14" font-family="Helvetica">
 
</text>
<text x="367" y="97" fill="black" font-size="10" font-family="Helvetica">
cu
</text>
<text x="362" y="87" fill="black" font-size="14" font-family="Times">
&#0964;
</text>
<text x="503" y="91" fill="black" font-size="14" font-family="Helvetica">
 100.0
</text>
<text x="490" y="91" fill="black" font-size="14" font-family="Times">
&#0177;
</text>
<text x="443" y="91" fill="black" font-size="14" font-family="Helvetica">
 206.1 
</text>
<text x="375" y="102" fill="black" font-size="14" font-family="Helvetica">
    
</text>
<text x="372" y="111" fill="black" font-size="10" font-family="Helvetica">
f
</text>
<text x="362" y="102" fill="black" font-size="14" font-family="Helvetica">
N
</text>
<text x="520" y="108" fill="black" font-size="14" font-family="Helvetica">
 4.9
</text>
<text x="507" y="108" fill="black" font-size="14" font-family="Times">
&#0177;
</text>
<text x="460" y="108" fill="black" font-size="14" font-family="Helvetica">
 247.6 
</text>
<text x="370" y="121" fill="black" font-size="14" font-family="Helvetica">
 
</text>
<text x="367" y="131" fill="black" font-size="10" font-family="Helvetica">
f
</text>
<text x="362" y="121" fill="black" font-size="14" font-family="Times">
&#0964;
</text>
<text x="511" y="125" fill="black" font-size="14" font-family="Helvetica">
 39.8
</text>
<text x="499" y="125" fill="black" font-size="14" font-family="Times">
&#0177;
</text>
<text x="451" y="125" fill="black" font-size="14" font-family="Helvetica">
  2258 
</text>
<text x="384" y="137" fill="black" font-size="14" font-family="Helvetica">
  
</text>
<text x="372" y="146" fill="black" font-size="10" font-family="Helvetica">
sin
</text>
<text x="362" y="137" fill="black" font-size="14" font-family="Helvetica">
N
</text>
<text x="503" y="142" fill="black" font-size="14" font-family="Helvetica">
 0.349
</text>
<text x="490" y="142" fill="black" font-size="14" font-family="Times">
&#0177;
</text>
<text x="443" y="142" fill="black" font-size="14" font-family="Helvetica">
 9.377 
</text>
<text x="362" y="158" fill="black" font-size="14" font-family="Helvetica">
T        
</text>
<text x="511" y="159" fill="black" font-size="14" font-family="Helvetica">
 0.00
</text>
<text x="499" y="159" fill="black" font-size="14" font-family="Times">
&#0177;
</text>
<text x="451" y="159" fill="black" font-size="14" font-family="Helvetica">
 59.28 
</text>
<text x="377" y="171" fill="black" font-size="14" font-family="Helvetica">
    
</text>
<text x="372" y="180" fill="black" font-size="10" font-family="Helvetica">
b
</text>
<text x="362" y="171" fill="black" font-size="14" font-family="Helvetica">
N
</text>
<text x="511" y="176" fill="black" font-size="14" font-family="Helvetica">
 0.29
</text>
<text x="499" y="176" fill="black" font-size="14" font-family="Times">
&#0177;
</text>
<text x="451" y="176" fill="black" font-size="14" font-family="Helvetica">
 47.42 
</text>
<text x="270" y="21" fill="black" font-size="21" font-family="Helvetica">
D2
</text></svg>
