<?xml version="1.0" standalone="no"?>
<svg width="567" height="385" viewBox="0 0 567 385" xmlns="http://www.w3.org/2000/svg">
<title>
images/analysis_g4bl_tight/459_D1.svg
</title>
<desc>
Creator: ROOT Version 5.34/05
CreationDate: Wed Jun 12 17:40:41 2013</desc>
<defs>
</defs>
<rect x="0" y="0" width="567" height="385" fill="white"/>
<rect x="57" y="38" width="453" height="308" fill="white"/>
<rect x="57" y="38" width="453" height="308" fill="none" stroke="black"/>
<rect x="57" y="38" width="453" height="308" fill="white"/>
<rect x="57" y="38" width="453" height="308" fill="none" stroke="black"/>
<path d="M57,346h 44v -1v 1h 1v -3v 2v -2v 1v -2h 1v 2v -6v 2v -4v 4h 1v -14v 11v -10h 1v 9v -5v 8h 1v -12v 9v -13h 1v 11v -12v 12h 1v -6v 7v -11h 1v 9v -6v 8h 1v -4v 8v -13h 1v -2v 13v -15v 17h 1v -11v 9v -1h 1v -9v 12v -9v 7h 1v -16v 15v -3h 1v
 -10v 13v -13v 8h 1v 2v -9v 10v -4h 1v 1v -2v 3v -7v 8h 1v 1v -12v 14h 1v -14v 13v -4v 2v -4h 1v -2v 7v -5v 6v -6h 1v 1v -1v 8v -10v 3h 1v 7v -10v 9h 1v -15v 13v -10v 5h 1v 7v -13v 12h 1v -16v 16v -11h 1v 11v -14v 15h 1v -15v 9v -1v 2v -7h 1v 10v
 -12v 12h 1v -9v 10v -10v 4h 1v 6v -8v 8h 1v -10v 11v -11h 1v 7v -12v 16h 1v -11v 11v -7h 1v 5v -11v 12h 1v 1v -16v 15v -6h 1v 8v -8v 10h 1v -12v 7v -7h 1v 8v -9v 3h 1v 5v -7v 8v -8h 1v 7v -7v 3h 1v 1v -2v 4v -7h 1v 10v -9v 5h 1v 3v -4v 3v -14h 1v
 15v -8v 10h 1v -10v 8v -3h 1v -3v 3v -10v 11h 1v -2v 4v -3h 1v -3v 2v -4v 9h 1v -9v 6v -1v 2v -6h 1v 3v -4v 7h 1v -12v 16v -12h 1v 8v -11v 12h 1v -5v 5h 1v -11v 15v -14v 9h 1v -4v 6h 1v -15v 15v -12v 9h 1v 4v -12v 9v -4h 1v -3v 9v -9v 3h 1v 5v -8v
 7h 1v -8v 9v -8h 1v 6v -4v 12h 1v -15v 9v -10v 4h 1v 9v -12v 12h 1v -14v 13v -12h 1v 8v -9v 14h 1v -14v 14v -7h 1v 7v -13v 9h 1v 5v -12v 7v -5h 1v 7v -14v 5h 1v 5v -9v 14v -13h 1v 11v -10v 12h 1v -6v 1v -15h 1v 17v -7v 9h 1v -10v 9v -11h 1v 11v -5v
 2v -3v 6h 1v -8v 5v -4h 1v -4v 10v -12v 9h 1v 4v -11v 16v -15h 1v 7v -3v 3v -6h 1v 12v -13v 10h 1v -8v 10v -15v 5h 1v 9v -9v 7v -11h 1v 13v -6h 1v 5v -8v 8v -5h 1v -7v 9v -6v 9v -4h 1v 8v -17v 14v -5h 1v -4v 12v -15v 10h 1v 3v -17v 17v -5h 1v -8v 8v
 -7v 10h 1v -4v 1v -1h 1v -7v 13v -8v 6h 1v 2v -8v 5v -3v 2h 1v -11v 18v -12h 1v 11v -12v 7h 1v -8v 9v -7h 1v 5v -7v 8v -1h 1v -10v 12v -6h 1v 3v -5v 4h 1v 2v -6v 7v -8h 1v 8v -6v 7h 1v -9v 7v -7h 1v 8v -3v 6h 1v -9v 7v -8v 1h 1v 6v -10v 11h 1v -8v
 10v -12h 1v 9v -9v 10h 1v -8v 9v -5h 1v 3v -7v 2h 1v 5v -8v 7v -2v 3h 1v -4v 6v -13v 7h 1v 4v -10v 13v -7h 1v -6v 13v -10v 2h 1v 9v -6v 3v -3h 1v -4v 9v -13v 8h 1v 4v -7v 9v -9h 1v 8v -8v 1h 1v 2v -7v 10v -9h 1v 7v -9v 6h 1v 4v -8v 10v -5h 1v 4v -9v
 5h 1v 2v -4v 2v -2v 8v -11h 1v -7v 14v -12h 1v 13v -7v 10v -4h 1v -9v 14v -10v 1h 1v 7v -13v 10v -1h 1v -3v 4v -11v 9h 1v 2v -3v 8h 1v -7v 2v -2v 3v -7v 2h 1v 6v -10v 10v -1h 1v -10v 12v -13v 4h 1v 7v -8h 1v 6v -12v 9h 1v 6v -11v 12h 1v -12v 12v
 -14h 1v 14v -13v 14h 1v -14v 13v -7h 1v -1v 1v -4v 2h 1v 7v -7v 7v -11v 5h 1v 6v -5v 6h 1v -7v 8v -10h 1v 10v -10v 7h 1v -7v 6v -6h 1v 6v -10v 12h 1v 1v -11v 9v -13h 1v 7v -4v 13h 1v 3v -16v 10v -9h 1v 8v -10v 5h 1v 4v -10v 15v -12h 1v 8v -5v 5h 1v
 4v -11v 11v -10h 1v -5v 10v -4v 7v -7h 1v 9v -7v 6v -9h 1v -4v 7v -10v 11h 1v 3v -14v 19v -12h 1v 7v -10v 4h 1v 7v -9v 10v -12h 1v 9v -8v 6h 1v 2v -8v 10v -3h 1v -7v 10v -12h 1v 11v -6v 6h 1v -6v 4v -1h 1v -1v 4v -6v 6h 1v -7v 4v -4v 3h 1v 5v -9v
 11v -9h 1v -9v 19v -11h 1v 4v -14v 13h 1v -6v 13v -16v 11h 1v -8v 8h 1v -8v 12v -9h 1v 5v -11v 9h 1v -9v 12v -9h 1v 9v -7v 8h 1v -8v 5v -5v 2h 1v 5v -14v 8h 1v 3v -11v 14v -11v 3h 1v 8v -9v 5h 1v 6v -13v 13v -9h 1v 2v -10v 17h 1v -14v 11v -4h 1v 3v
 -7h 1v 4v -5v 5v -7h 1v -6v 7v -6v 14h 1v -272v 289h 1v -293v 173h 1v 23v -16v 16v -12h 1v 16v -4v 10v -8h 1v 13v -19v 10h 1v 13v -6v 3v -10v 18h 1v -20v 12v -1v 5h 1v -8v 8v -12v 7h 1v 17v -29v 30h 1v -8v 16v -27h 1v 22v -10v 7v -10h 1v 18v -21h 1v
 19v -16v 11v -3h 1v -1v 8v -10v 8h 1v -5v 11v -5v 5v -6v 12h 1v -15v 10v -13v 7h 1v -1v 5v -8v 16v -4h 1v -10v 8v -3h 1v -1v 7v -13v 17v -4h 1v -13v 13v -13h 1v 12v -4v 15v -2v 1h 1v -19v 12v -16h 1v 16v -7v 22v -16h 1v 2v -4v 10v -8h 1v 7v -11v 5v
 -1v 10h 1v -14v 16v -16h 1v 13v -13v 16h 1v 2v -8v 7v -8h 1v 7v -10v 15h 1v -12v 9v -9h 1v 12v -12v 10h 1v -11v 17v -12h 1v 9v -9v 1h 1v 3v -7v 10v -9h 1v 14v -16v 9h 1v 1v -9v 11v -7v 1h 1v 12v -10v 4h 1v -4v 6v -2h 1v 6v -16v 6h 1v 8v -1v 6v -12h
 1v 9v -13v 7h 1v 9v -6v 1v -5v 1h 1v 12v -12v 1h 1v 4v -7v 6v -3h 1v -7v 13v -6h 1v 8v -9v 7h 1v -7v 12v -17h 1v 14v -5v 8v -9h 1v -1v 11v -11v 1h 1v 9v -7v 3v -3v 1h 1v -7v 11v -13h 1v 12v -10v 12v -2h 1v -4v 9v -9h 1v 3v -3v 8h 1v -15v 18v -9h 1v
 3v -10v 14h 1v -13v 15v -11h 1v 11v -13v 13h 1v -9v 7v -3h 1v -3v 10v -16v 18h 1v -16v 7v -5h 1v 11v -8v 8h 1v -11v 8v -4v 4h 1v -7v 12v -7v 6h 1v -13v 10v -4h 1v -5v 13v -15v 12h 1v -17v 18v -8h 1v -2v 12v -9v 4v -7v 13h 1v -12v 10v -8v 3h 1v -1v
 4v -3v 7h 1v -16v 12v -9h 1v 11v -14v 13h 1v -5v 4v -6h 1v 7v -9v 5h 1v 6v -12v 5v -5h 1v 16v -19v 2h 1v 13v -8v 6v -10h 1v 14v -8h 1v 5v -7v 9v -7h 1v -5v 11v -6h 1v 5v -7v 10v -8h 1v -1v 7v -6v 6h 1v -8v 9v -6h 1v 8v -11v 1v -3h 1v 8v -6v 10v -7h
 1v -8v 10v -8h 1v 15v -15v 9h 1v -7v 11v -9h 1v 8v -10v 9h 1v -9v 10v -10h 1v 8v -7v 12v -11h 1v -2v 12v -13h 1v 14v -13v 10h 1v -10v 10v -12h 1v 12v -12v 11h 1v -6v 8v -7h 1v -7v 15v -6v 4v -9v 8h 1v -8v 9v -6h 1v 5v -1v 2v -11v 15h 1v -8v 4h 1v
 -16v 16v -10v 8h 1v -2v 3v -6h 1v 8v -11v 10h 1v 1v -8v 8v -2h 1v -3v 2v -6v 6h 1v 2v -3v 3h 1v -14v 15v -13v 12h 1v -8v 10v -7h 1v -4v 7v -4v 2h 1v 7v -10v 8v -4h 1v 4v -9v 9v -3h 1v 4v -15v 12v -8h 1v 3v -4v 7h 1v 5v -9v 8v -4h 1v 4v -11v 5h 1v 8v
 -9v 3v -4h 1v 11v -15h 1v 10v -3v 9v -12h 1v 11v -13v 5h 1v 4v -12v 12v -2h 1v -4v 7v -4h 1v 5v -6v 8h 1v -8v 3v -10h 1v 10v -5v 4v -3h 1v -1v 9v -9h 1v 8v -11v 11v -9h 1v 6v -6v 8v -10h 1v 10v -7v 8h 1v -10v 10v -5h 1v -1v 10v -11v 4h 1v -6v 8v -3h
 1v 5v -12v 10v -1h 1v -7v 9v -5h 1v -3v 5v -3v 8h 1v -10v 9v -8h 1v 10v -7v 7h 1v -9v 5v -7h 1v -5v 12v -5v 7h 1v -10v 8v -6h 1v -1v 9v -13v 8h 1v 5v -14v 15v -6h 1v -3v 5v -7v 10h 1v -7v 3v -3h 1v -3v 11v -15v 9h 1v 1v -6v 8h 1v -2v 2v -6h 1v 3v
 -8v 12v -1h 1v -7v 5v -9v 6h 1v 9v -12v 11h 1v -15v 15v -12h 1v 9v -7v 5v -5h 1v -2v 9v -7h 1v 11v -13v 12v -9h 1v 7v -13h 1v 14v -8v 3v -2v 3h 1v -3v 2v -5h 1v 7v -11v 14v -5h 1v -5v 11v -11h 1v 8v -7v 7v -3h 1v -8v 10v -4v 2h 1v 6v -5v 7h 1v -14v
 11v -14h 1v 10v -6v 9h 1v -9v 9v -14h 1v 13v -5v 5v -2h 1v 1v -3v 5v -15h 1v 16v -7v 7h 1v -3v 2v -14h 1v 12v -7v 8h 1v -13v 14v -8h 1v 7v -4v 6h 1v -13v 12v -9h 1v 7v -10v 7h 1v -5v 10v -10h 1v 12v -12v 12h 1v -7v 2v -1h 1v -2v 8v -14v 12h 1v -8v
 14v -11h 1v -1v 8v -5v 5v -10v 4h 1v 8v -13v 6v -2h 1v -1v 4v -2v 1h 1v 3v -10v 8h 1v -7v 9v -8h 1v 9v -10v 9h 1v -10v 9v -8v 5h 1v 3v -11v 11v -3h 1v -5v 9v -8v 10h 1v -13v 12v -3h 1v -6v 10v -12h 1v 11v -9v 10h 1v -8v 4v -12h 1v 14v -8v 8v -1h 1v
 -6v 8v -8v 2v -5h 1v 9v -7v 9v -1h 1v -3v 2v -9v 4h 1v 9v -12v 8v -1h 1v -12v 14v -12h 1v 14v -7v 4v -1h 1v -5v 6v -8v 1h 1v 8v -5v 5h 1v -8v 11v -16h 1v 13v -11v 7v -1h 1v -5v 10v -10h 1v 8v -4v 5h 1v -8v 9v -11h 1v 13v -6v 4h 1v -12v 14v -6h 1v
 -5v 11v -7v 8h 1v -12v 9v -3h 1v -6v 7v -9v 8h 1v 2v -6v 7v -6h 1v -3v 8v -10v 9h 1v -10v 13v -4h 1v -7v 9v -6v 6h 1v 2v -10v 11v -6h 1v -7v 13v -16v 14h 1v -7v 8v -5h 1v -5v 11v -10v 11h 1v -9v 6v -6v 1h 1v -4v 7v -9v 11h 1v 3v -13v 8h 1v -7v 9v
 -8h 1v 11v -11v 10h 1v -8v 7v -6v 1v -4h 1v 9v -6v 8h 1v -13v 7v -6v 2h 1v 4v -3v 9h 1v -12v 8" fill="none" stroke="#000099"/>
<rect x="442" y="25" width="114" height="46" fill="white"/>
<path d="M442,71h 114" fill="none" stroke="black"/>
<path d="M556,71v -46" fill="none" stroke="black"/>
<path d="M556,25h -114" fill="none" stroke="black"/>
<path d="M442,25v 46" fill="none" stroke="black"/>
<text x="447" y="28" fill="black" font-size="4" font-family="Helvetica">
Entries 
</text>
<text x="538" y="28" fill="black" font-size="4" font-family="Helvetica">
 95809
</text>
<text x="450" y="35" fill="black" font-size="4" font-family="Helvetica">
 / ndf 
</text>
<text x="449" y="31" fill="black" font-size="3" font-family="Helvetica">
2
</text>
<text x="447" y="35" fill="black" font-size="4" font-family="Times">
&#0967;
</text>
<text x="526" y="34" fill="black" font-size="4" font-family="Helvetica">
  1327 / 1240
</text>
<text x="452" y="37" fill="black" font-size="4" font-family="Helvetica">
   
</text>
<text x="450" y="40" fill="black" font-size="3" font-family="Helvetica">
cu
</text>
<text x="447" y="37" fill="black" font-size="4" font-family="Helvetica">
N
</text>
<text x="543" y="40" fill="black" font-size="4" font-family="Helvetica">
 9.8
</text>
<text x="541" y="40" fill="black" font-size="4" font-family="Times">
&#0177;
</text>
<text x="529" y="40" fill="black" font-size="4" font-family="Helvetica">
 115.6 
</text>
<text x="450" y="43" fill="black" font-size="4" font-family="Helvetica">
 
</text>
<text x="448" y="46" fill="black" font-size="3" font-family="Helvetica">
cu
</text>
<text x="447" y="43" fill="black" font-size="4" font-family="Times">
&#0964;
</text>
<text x="543" y="45" fill="black" font-size="4" font-family="Helvetica">
 1.9
</text>
<text x="541" y="45" fill="black" font-size="4" font-family="Times">
&#0177;
</text>
<text x="529" y="45" fill="black" font-size="4" font-family="Helvetica">
 162.5 
</text>
<text x="450" y="48" fill="black" font-size="4" font-family="Helvetica">
    
</text>
<text x="450" y="51" fill="black" font-size="3" font-family="Helvetica">
f
</text>
<text x="447" y="48" fill="black" font-size="4" font-family="Helvetica">
N
</text>
<text x="543" y="50" fill="black" font-size="4" font-family="Helvetica">
 1.6
</text>
<text x="541" y="50" fill="black" font-size="4" font-family="Times">
&#0177;
</text>
<text x="530" y="50" fill="black" font-size="4" font-family="Helvetica">
   155 
</text>
<text x="448" y="53" fill="black" font-size="4" font-family="Helvetica">
 
</text>
<text x="448" y="57" fill="black" font-size="3" font-family="Helvetica">
f
</text>
<text x="447" y="53" fill="black" font-size="4" font-family="Times">
&#0964;
</text>
<text x="543" y="55" fill="black" font-size="4" font-family="Helvetica">
 0.0
</text>
<text x="541" y="55" fill="black" font-size="4" font-family="Times">
&#0177;
</text>
<text x="529" y="55" fill="black" font-size="4" font-family="Helvetica">
  2197 
</text>
<text x="452" y="58" fill="black" font-size="4" font-family="Helvetica">
  
</text>
<text x="450" y="61" fill="black" font-size="3" font-family="Helvetica">
sin
</text>
<text x="447" y="58" fill="black" font-size="4" font-family="Helvetica">
N
</text>
<text x="539" y="60" fill="black" font-size="4" font-family="Helvetica">
 0.278
</text>
<text x="537" y="60" fill="black" font-size="4" font-family="Times">
&#0177;
</text>
<text x="525" y="60" fill="black" font-size="4" font-family="Helvetica">
 8.798 
</text>
<text x="447" y="65" fill="black" font-size="4" font-family="Helvetica">
T        
</text>
<text x="541" y="66" fill="black" font-size="4" font-family="Helvetica">
 0.00
</text>
<text x="538" y="66" fill="black" font-size="4" font-family="Times">
&#0177;
</text>
<text x="526" y="66" fill="black" font-size="4" font-family="Helvetica">
 59.35 
</text>
<text x="450" y="68" fill="black" font-size="4" font-family="Helvetica">
    
</text>
<text x="450" y="71" fill="black" font-size="3" font-family="Helvetica">
b
</text>
<text x="447" y="68" fill="black" font-size="4" font-family="Helvetica">
N
</text>
<text x="541" y="71" fill="black" font-size="4" font-family="Helvetica">
 0.19
</text>
<text x="538" y="71" fill="black" font-size="4" font-family="Times">
&#0177;
</text>
<text x="526" y="71" fill="black" font-size="4" font-family="Helvetica">
 30.66 
</text>
<path d="M284,211v 1" fill="none" stroke="#ff0000" stroke-width="2"/>
<path d="M285,211v 18" fill="none" stroke="#ff0000" stroke-width="2"/>
<path d="M285,229v 17" fill="none" stroke="#ff0000" stroke-width="2"/>
<path d="M286,242v 13" fill="none" stroke="#ff0000" stroke-width="2"/>
<path d="M287,248v 12" fill="none" stroke="#ff0000" stroke-width="2"/>
<path d="M288,252v 12" fill="none" stroke="#ff0000" stroke-width="2"/>
<path d="M289,256v 11" fill="none" stroke="#ff0000" stroke-width="2"/>
<path d="M289,262v 9" fill="none" stroke="#ff0000" stroke-width="2"/>
<path d="M290,264v 10" fill="none" stroke="#ff0000" stroke-width="2"/>
<path d="M291,266v 10" fill="none" stroke="#ff0000" stroke-width="2"/>
<path d="M292,268v 10" fill="none" stroke="#ff0000" stroke-width="2"/>
<path d="M293,270v 10" fill="none" stroke="#ff0000" stroke-width="2"/>
<path d="M293,273v 9" fill="none" stroke="#ff0000" stroke-width="2"/>
<path d="M294,274v 10" fill="none" stroke="#ff0000" stroke-width="2"/>
<path d="M295,276v 10" fill="none" stroke="#ff0000" stroke-width="2"/>
<path d="M296,277v 9" fill="none" stroke="#ff0000" stroke-width="2"/>
<path d="M297,280v 8" fill="none" stroke="#ff0000" stroke-width="2"/>
<path d="M298,281v 10" fill="none" stroke="#ff0000" stroke-width="2"/>
<path d="M298,282v 10" fill="none" stroke="#ff0000" stroke-width="2"/>
<path d="M299,283v 10" fill="none" stroke="#ff0000" stroke-width="2"/>
<path d="M300,285v 9" fill="none" stroke="#ff0000" stroke-width="2"/>
<path d="M301,286v 9" fill="none" stroke="#ff0000" stroke-width="2"/>
<path d="M302,288v 9" fill="none" stroke="#ff0000" stroke-width="2"/>
<path d="M302,289v 9" fill="none" stroke="#ff0000" stroke-width="2"/>
<path d="M303,290v 9" fill="none" stroke="#ff0000" stroke-width="2"/>
<path d="M304,291v 9" fill="none" stroke="#ff0000" stroke-width="2"/>
<path d="M305,292v 9" fill="none" stroke="#ff0000" stroke-width="2"/>
<path d="M306,294v 9" fill="none" stroke="#ff0000" stroke-width="2"/>
<path d="M307,295v 9" fill="none" stroke="#ff0000" stroke-width="2"/>
<path d="M307,295v 9" fill="none" stroke="#ff0000" stroke-width="2"/>
<path d="M308,296v 9" fill="none" stroke="#ff0000" stroke-width="2"/>
<path d="M309,298v 9" fill="none" stroke="#ff0000" stroke-width="2"/>
<path d="M310,299v 9" fill="none" stroke="#ff0000" stroke-width="2"/>
<path d="M311,299v 9" fill="none" stroke="#ff0000" stroke-width="2"/>
<path d="M311,299v 10" fill="none" stroke="#ff0000" stroke-width="2"/>
<path d="M312,301v 9" fill="none" stroke="#ff0000" stroke-width="2"/>
<path d="M313,302v 9" fill="none" stroke="#ff0000" stroke-width="2"/>
<path d="M314,303v 9" fill="none" stroke="#ff0000" stroke-width="2"/>
<path d="M315,303v 10" fill="none" stroke="#ff0000" stroke-width="2"/>
<path d="M315,304v 9" fill="none" stroke="#ff0000" stroke-width="2"/>
<path d="M316,305v 8" fill="none" stroke="#ff0000" stroke-width="2"/>
<path d="M317,305v 10" fill="none" stroke="#ff0000" stroke-width="2"/>
<path d="M318,306v 9" fill="none" stroke="#ff0000" stroke-width="2"/>
<path d="M319,307v 9" fill="none" stroke="#ff0000" stroke-width="2"/>
<path d="M320,307v 10" fill="none" stroke="#ff0000" stroke-width="2"/>
<path d="M320,308v 9" fill="none" stroke="#ff0000" stroke-width="2"/>
<path d="M321,308v 9" fill="none" stroke="#ff0000" stroke-width="2"/>
<path d="M322,309v 9" fill="none" stroke="#ff0000" stroke-width="2"/>
<path d="M323,309v 9" fill="none" stroke="#ff0000" stroke-width="2"/>
<path d="M324,310v 9" fill="none" stroke="#ff0000" stroke-width="2"/>
<path d="M324,311v 9" fill="none" stroke="#ff0000" stroke-width="2"/>
<path d="M325,311v 9" fill="none" stroke="#ff0000" stroke-width="2"/>
<path d="M326,312v 9" fill="none" stroke="#ff0000" stroke-width="2"/>
<path d="M327,312v 9" fill="none" stroke="#ff0000" stroke-width="2"/>
<path d="M328,313v 8" fill="none" stroke="#ff0000" stroke-width="2"/>
<path d="M329,313v 9" fill="none" stroke="#ff0000" stroke-width="2"/>
<path d="M329,313v 9" fill="none" stroke="#ff0000" stroke-width="2"/>
<path d="M330,313v 10" fill="none" stroke="#ff0000" stroke-width="2"/>
<path d="M331,314v 9" fill="none" stroke="#ff0000" stroke-width="2"/>
<path d="M332,314v 9" fill="none" stroke="#ff0000" stroke-width="2"/>
<path d="M333,315v 9" fill="none" stroke="#ff0000" stroke-width="2"/>
<path d="M333,315v 9" fill="none" stroke="#ff0000" stroke-width="2"/>
<path d="M334,316v 9" fill="none" stroke="#ff0000" stroke-width="2"/>
<path d="M335,316v 9" fill="none" stroke="#ff0000" stroke-width="2"/>
<path d="M336,317v 8" fill="none" stroke="#ff0000" stroke-width="2"/>
<path d="M337,317v 9" fill="none" stroke="#ff0000" stroke-width="2"/>
<path d="M337,317v 9" fill="none" stroke="#ff0000" stroke-width="2"/>
<path d="M338,317v 9" fill="none" stroke="#ff0000" stroke-width="2"/>
<path d="M339,317v 9" fill="none" stroke="#ff0000" stroke-width="2"/>
<path d="M340,317v 9" fill="none" stroke="#ff0000" stroke-width="2"/>
<path d="M341,318v 9" fill="none" stroke="#ff0000" stroke-width="2"/>
<path d="M342,318v 9" fill="none" stroke="#ff0000" stroke-width="2"/>
<path d="M342,318v 9" fill="none" stroke="#ff0000" stroke-width="2"/>
<path d="M343,319v 9" fill="none" stroke="#ff0000" stroke-width="2"/>
<path d="M344,319v 9" fill="none" stroke="#ff0000" stroke-width="2"/>
<path d="M345,319v 9" fill="none" stroke="#ff0000" stroke-width="2"/>
<path d="M346,319v 9" fill="none" stroke="#ff0000" stroke-width="2"/>
<path d="M346,319v 10" fill="none" stroke="#ff0000" stroke-width="2"/>
<path d="M347,320v 9" fill="none" stroke="#ff0000" stroke-width="2"/>
<path d="M348,320v 9" fill="none" stroke="#ff0000" stroke-width="2"/>
<path d="M349,320v 9" fill="none" stroke="#ff0000" stroke-width="2"/>
<path d="M350,320v 10" fill="none" stroke="#ff0000" stroke-width="2"/>
<path d="M351,321v 9" fill="none" stroke="#ff0000" stroke-width="2"/>
<path d="M351,321v 9" fill="none" stroke="#ff0000" stroke-width="2"/>
<path d="M352,321v 9" fill="none" stroke="#ff0000" stroke-width="2"/>
<path d="M353,321v 9" fill="none" stroke="#ff0000" stroke-width="2"/>
<path d="M354,321v 9" fill="none" stroke="#ff0000" stroke-width="2"/>
<path d="M355,321v 9" fill="none" stroke="#ff0000" stroke-width="2"/>
<path d="M355,321v 9" fill="none" stroke="#ff0000" stroke-width="2"/>
<path d="M356,321v 9" fill="none" stroke="#ff0000" stroke-width="2"/>
<path d="M357,321v 9" fill="none" stroke="#ff0000" stroke-width="2"/>
<path d="M358,321v 10" fill="none" stroke="#ff0000" stroke-width="2"/>
<path d="M359,322v 9" fill="none" stroke="#ff0000" stroke-width="2"/>
<path d="M359,322v 9" fill="none" stroke="#ff0000" stroke-width="2"/>
<path d="M360,322v 9" fill="none" stroke="#ff0000" stroke-width="2"/>
<path d="M361,322v 9" fill="none" stroke="#ff0000" stroke-width="2"/>
<path d="M362,322v 9" fill="none" stroke="#ff0000" stroke-width="2"/>
<path d="M363,322v 9" fill="none" stroke="#ff0000" stroke-width="2"/>
<path d="M364,322v 10" fill="none" stroke="#ff0000" stroke-width="2"/>
<path d="M364,323v 9" fill="none" stroke="#ff0000" stroke-width="2"/>
<path d="M365,323v 9" fill="none" stroke="#ff0000" stroke-width="2"/>
<path d="M366,323v 9" fill="none" stroke="#ff0000" stroke-width="2"/>
<path d="M367,323v 9" fill="none" stroke="#ff0000" stroke-width="2"/>
<path d="M368,323v 9" fill="none" stroke="#ff0000" stroke-width="2"/>
<path d="M368,323v 9" fill="none" stroke="#ff0000" stroke-width="2"/>
<path d="M369,323v 9" fill="none" stroke="#ff0000" stroke-width="2"/>
<path d="M370,323v 9" fill="none" stroke="#ff0000" stroke-width="2"/>
<path d="M371,323v 9" fill="none" stroke="#ff0000" stroke-width="2"/>
<path d="M372,324v 9" fill="none" stroke="#ff0000" stroke-width="2"/>
<path d="M372,324v 9" fill="none" stroke="#ff0000" stroke-width="2"/>
<path d="M373,324v 9" fill="none" stroke="#ff0000" stroke-width="2"/>
<path d="M374,324v 9" fill="none" stroke="#ff0000" stroke-width="2"/>
<path d="M375,324v 9" fill="none" stroke="#ff0000" stroke-width="2"/>
<path d="M376,324v 9" fill="none" stroke="#ff0000" stroke-width="2"/>
<path d="M377,324v 9" fill="none" stroke="#ff0000" stroke-width="2"/>
<path d="M377,324v 9" fill="none" stroke="#ff0000" stroke-width="2"/>
<path d="M378,324v 9" fill="none" stroke="#ff0000" stroke-width="2"/>
<path d="M379,324v 9" fill="none" stroke="#ff0000" stroke-width="2"/>
<path d="M380,324v 9" fill="none" stroke="#ff0000" stroke-width="2"/>
<path d="M381,324v 9" fill="none" stroke="#ff0000" stroke-width="2"/>
<path d="M381,324v 9" fill="none" stroke="#ff0000" stroke-width="2"/>
<path d="M382,325v 9" fill="none" stroke="#ff0000" stroke-width="2"/>
<path d="M383,325v 9" fill="none" stroke="#ff0000" stroke-width="2"/>
<path d="M384,325v 9" fill="none" stroke="#ff0000" stroke-width="2"/>
<path d="M385,325v 9" fill="none" stroke="#ff0000" stroke-width="2"/>
<path d="M386,325v 9" fill="none" stroke="#ff0000" stroke-width="2"/>
<path d="M386,325v 9" fill="none" stroke="#ff0000" stroke-width="2"/>
<path d="M387,325v 9" fill="none" stroke="#ff0000" stroke-width="2"/>
<path d="M388,325v 9" fill="none" stroke="#ff0000" stroke-width="2"/>
<path d="M389,325v 9" fill="none" stroke="#ff0000" stroke-width="2"/>
<path d="M390,325v 9" fill="none" stroke="#ff0000" stroke-width="2"/>
<path d="M390,325v 9" fill="none" stroke="#ff0000" stroke-width="2"/>
<path d="M391,325v 9" fill="none" stroke="#ff0000" stroke-width="2"/>
<path d="M392,325v 9" fill="none" stroke="#ff0000" stroke-width="2"/>
<path d="M393,325v 9" fill="none" stroke="#ff0000" stroke-width="2"/>
<path d="M394,325v 9" fill="none" stroke="#ff0000" stroke-width="2"/>
<path d="M394,325v 9" fill="none" stroke="#ff0000" stroke-width="2"/>
<path d="M395,325v 9" fill="none" stroke="#ff0000" stroke-width="2"/>
<path d="M396,325v 9" fill="none" stroke="#ff0000" stroke-width="2"/>
<path d="M397,325v 9" fill="none" stroke="#ff0000" stroke-width="2"/>
<path d="M398,325v 9" fill="none" stroke="#ff0000" stroke-width="2"/>
<path d="M399,325v 9" fill="none" stroke="#ff0000" stroke-width="2"/>
<path d="M399,325v 9" fill="none" stroke="#ff0000" stroke-width="2"/>
<path d="M400,325v 9" fill="none" stroke="#ff0000" stroke-width="2"/>
<path d="M401,325v 9" fill="none" stroke="#ff0000" stroke-width="2"/>
<path d="M402,326v 8" fill="none" stroke="#ff0000" stroke-width="2"/>
<path d="M403,326v 8" fill="none" stroke="#ff0000" stroke-width="2"/>
<path d="M403,326v 8" fill="none" stroke="#ff0000" stroke-width="2"/>
<path d="M404,326v 8" fill="none" stroke="#ff0000" stroke-width="2"/>
<path d="M405,326v 8" fill="none" stroke="#ff0000" stroke-width="2"/>
<path d="M406,326v 8" fill="none" stroke="#ff0000" stroke-width="2"/>
<path d="M407,326v 8" fill="none" stroke="#ff0000" stroke-width="2"/>
<path d="M408,326v 8" fill="none" stroke="#ff0000" stroke-width="2"/>
<path d="M408,326v 8" fill="none" stroke="#ff0000" stroke-width="2"/>
<path d="M409,326v 8" fill="none" stroke="#ff0000" stroke-width="2"/>
<path d="M410,326v 8" fill="none" stroke="#ff0000" stroke-width="2"/>
<path d="M411,326v 8" fill="none" stroke="#ff0000" stroke-width="2"/>
<path d="M412,326v 8" fill="none" stroke="#ff0000" stroke-width="2"/>
<path d="M412,326v 8" fill="none" stroke="#ff0000" stroke-width="2"/>
<path d="M413,326v 8" fill="none" stroke="#ff0000" stroke-width="2"/>
<path d="M414,326v 8" fill="none" stroke="#ff0000" stroke-width="2"/>
<path d="M415,326v 8" fill="none" stroke="#ff0000" stroke-width="2"/>
<path d="M416,326v 8" fill="none" stroke="#ff0000" stroke-width="2"/>
<path d="M416,326v 8" fill="none" stroke="#ff0000" stroke-width="2"/>
<path d="M417,326v 8" fill="none" stroke="#ff0000" stroke-width="2"/>
<path d="M418,326v 8" fill="none" stroke="#ff0000" stroke-width="2"/>
<path d="M419,326v 8" fill="none" stroke="#ff0000" stroke-width="2"/>
<path d="M420,326v 8" fill="none" stroke="#ff0000" stroke-width="2"/>
<path d="M421,326v 8" fill="none" stroke="#ff0000" stroke-width="2"/>
<path d="M421,326v 8" fill="none" stroke="#ff0000" stroke-width="2"/>
<path d="M422,326v 8" fill="none" stroke="#ff0000" stroke-width="2"/>
<path d="M423,326v 8" fill="none" stroke="#ff0000" stroke-width="2"/>
<path d="M424,326v 8" fill="none" stroke="#ff0000" stroke-width="2"/>
<path d="M425,326v 8" fill="none" stroke="#ff0000" stroke-width="2"/>
<path d="M425,326v 8" fill="none" stroke="#ff0000" stroke-width="2"/>
<path d="M426,326v 8" fill="none" stroke="#ff0000" stroke-width="2"/>
<path d="M427,326v 8" fill="none" stroke="#ff0000" stroke-width="2"/>
<path d="M428,326v 8" fill="none" stroke="#ff0000" stroke-width="2"/>
<path d="M429,326v 8" fill="none" stroke="#ff0000" stroke-width="2"/>
<path d="M430,326v 8" fill="none" stroke="#ff0000" stroke-width="2"/>
<path d="M430,326v 8" fill="none" stroke="#ff0000" stroke-width="2"/>
<path d="M431,326v 8" fill="none" stroke="#ff0000" stroke-width="2"/>
<path d="M432,326v 8" fill="none" stroke="#ff0000" stroke-width="2"/>
<path d="M433,326v 8" fill="none" stroke="#ff0000" stroke-width="2"/>
<path d="M434,326v 8" fill="none" stroke="#ff0000" stroke-width="2"/>
<path d="M434,326v 8" fill="none" stroke="#ff0000" stroke-width="2"/>
<path d="M435,326v 8" fill="none" stroke="#ff0000" stroke-width="2"/>
<path d="M436,326v 8" fill="none" stroke="#ff0000" stroke-width="2"/>
<path d="M437,326v 8" fill="none" stroke="#ff0000" stroke-width="2"/>
<path d="M438,326v 8" fill="none" stroke="#ff0000" stroke-width="2"/>
<path d="M438,326v 8" fill="none" stroke="#ff0000" stroke-width="2"/>
<path d="M439,326v 8" fill="none" stroke="#ff0000" stroke-width="2"/>
<path d="M440,326v 8" fill="none" stroke="#ff0000" stroke-width="2"/>
<path d="M441,326v 8" fill="none" stroke="#ff0000" stroke-width="2"/>
<path d="M442,326v 8" fill="none" stroke="#ff0000" stroke-width="2"/>
<path d="M443,326v 8" fill="none" stroke="#ff0000" stroke-width="2"/>
<path d="M443,326v 8" fill="none" stroke="#ff0000" stroke-width="2"/>
<path d="M444,326v 8" fill="none" stroke="#ff0000" stroke-width="2"/>
<path d="M445,326v 8" fill="none" stroke="#ff0000" stroke-width="2"/>
<path d="M446,326v 8" fill="none" stroke="#ff0000" stroke-width="2"/>
<path d="M447,326v 8" fill="none" stroke="#ff0000" stroke-width="2"/>
<path d="M447,326v 8" fill="none" stroke="#ff0000" stroke-width="2"/>
<path d="M448,326v 8" fill="none" stroke="#ff0000" stroke-width="2"/>
<path d="M449,326v 8" fill="none" stroke="#ff0000" stroke-width="2"/>
<path d="M450,326v 8" fill="none" stroke="#ff0000" stroke-width="2"/>
<path d="M451,326v 8" fill="none" stroke="#ff0000" stroke-width="2"/>
<path d="M452,326v 8" fill="none" stroke="#ff0000" stroke-width="2"/>
<path d="M452,326v 8" fill="none" stroke="#ff0000" stroke-width="2"/>
<path d="M453,326v 8" fill="none" stroke="#ff0000" stroke-width="2"/>
<path d="M454,326v 8" fill="none" stroke="#ff0000" stroke-width="2"/>
<path d="M455,326v 8" fill="none" stroke="#ff0000" stroke-width="2"/>
<path d="M456,326v 8" fill="none" stroke="#ff0000" stroke-width="2"/>
<path d="M456,326v 8" fill="none" stroke="#ff0000" stroke-width="2"/>
<path d="M457,326v 8" fill="none" stroke="#ff0000" stroke-width="2"/>
<path d="M458,326v 8" fill="none" stroke="#ff0000" stroke-width="2"/>
<path d="M459,326v 8" fill="none" stroke="#ff0000" stroke-width="2"/>
<path d="M460,326v 8" fill="none" stroke="#ff0000" stroke-width="2"/>
<path d="M460,326v 8" fill="none" stroke="#ff0000" stroke-width="2"/>
<path d="M461,326v 8" fill="none" stroke="#ff0000" stroke-width="2"/>
<path d="M462,326v 8" fill="none" stroke="#ff0000" stroke-width="2"/>
<path d="M463,326v 8" fill="none" stroke="#ff0000" stroke-width="2"/>
<path d="M464,326v 8" fill="none" stroke="#ff0000" stroke-width="2"/>
<path d="M465,326v 8" fill="none" stroke="#ff0000" stroke-width="2"/>
<path d="M465,326v 8" fill="none" stroke="#ff0000" stroke-width="2"/>
<path d="M466,326v 8" fill="none" stroke="#ff0000" stroke-width="2"/>
<path d="M467,326v 8" fill="none" stroke="#ff0000" stroke-width="2"/>
<path d="M468,326v 8" fill="none" stroke="#ff0000" stroke-width="2"/>
<path d="M469,326v 8" fill="none" stroke="#ff0000" stroke-width="2"/>
<path d="M469,326v 8" fill="none" stroke="#ff0000" stroke-width="2"/>
<path d="M470,326v 8" fill="none" stroke="#ff0000" stroke-width="2"/>
<path d="M471,326v 8" fill="none" stroke="#ff0000" stroke-width="2"/>
<path d="M472,326v 8" fill="none" stroke="#ff0000" stroke-width="2"/>
<path d="M473,326v 8" fill="none" stroke="#ff0000" stroke-width="2"/>
<path d="M473,326v 8" fill="none" stroke="#ff0000" stroke-width="2"/>
<path d="M474,326v 8" fill="none" stroke="#ff0000" stroke-width="2"/>
<path d="M475,326v 8" fill="none" stroke="#ff0000" stroke-width="2"/>
<path d="M476,326v 8" fill="none" stroke="#ff0000" stroke-width="2"/>
<path d="M477,326v 8" fill="none" stroke="#ff0000" stroke-width="2"/>
<path d="M478,326v 8" fill="none" stroke="#ff0000" stroke-width="2"/>
<path d="M478,326v 8" fill="none" stroke="#ff0000" stroke-width="2"/>
<path d="M479,326v 8" fill="none" stroke="#ff0000" stroke-width="2"/>
<path d="M480,326v 8" fill="none" stroke="#ff0000" stroke-width="2"/>
<path d="M481,326v 8" fill="none" stroke="#ff0000" stroke-width="2"/>
<path d="M482,326v 8" fill="none" stroke="#ff0000" stroke-width="2"/>
<path d="M482,326v 8" fill="none" stroke="#ff0000" stroke-width="2"/>
<path d="M483,326v 8" fill="none" stroke="#ff0000" stroke-width="2"/>
<path d="M484,326v 8" fill="none" stroke="#ff0000" stroke-width="2"/>
<path d="M485,326v 8" fill="none" stroke="#ff0000" stroke-width="2"/>
<path d="M486,326v 8" fill="none" stroke="#ff0000" stroke-width="2"/>
<path d="M487,326v 8" fill="none" stroke="#ff0000" stroke-width="2"/>
<path d="M487,326v 8" fill="none" stroke="#ff0000" stroke-width="2"/>
<path d="M488,326v 8" fill="none" stroke="#ff0000" stroke-width="2"/>
<path d="M489,326v 8" fill="none" stroke="#ff0000" stroke-width="2"/>
<path d="M490,326v 8" fill="none" stroke="#ff0000" stroke-width="2"/>
<path d="M491,326v 8" fill="none" stroke="#ff0000" stroke-width="2"/>
<path d="M491,326v 8" fill="none" stroke="#ff0000" stroke-width="2"/>
<path d="M492,326v 8" fill="none" stroke="#ff0000" stroke-width="2"/>
<path d="M493,326v 8" fill="none" stroke="#ff0000" stroke-width="2"/>
<path d="M494,326v 8" fill="none" stroke="#ff0000" stroke-width="2"/>
<path d="M495,326v 8" fill="none" stroke="#ff0000" stroke-width="2"/>
<path d="M495,326v 8" fill="none" stroke="#ff0000" stroke-width="2"/>
<path d="M496,326v 8" fill="none" stroke="#ff0000" stroke-width="2"/>
<path d="M497,326v 8" fill="none" stroke="#ff0000" stroke-width="2"/>
<path d="M498,326v 8" fill="none" stroke="#ff0000" stroke-width="2"/>
<path d="M499,326v 8" fill="none" stroke="#ff0000" stroke-width="2"/>
<path d="M500,326v 8" fill="none" stroke="#ff0000" stroke-width="2"/>
<path d="M500,326v 8" fill="none" stroke="#ff0000" stroke-width="2"/>
<path d="M501,326v 8" fill="none" stroke="#ff0000" stroke-width="2"/>
<path d="M502,326v 8" fill="none" stroke="#ff0000" stroke-width="2"/>
<path d="M503,326v 8" fill="none" stroke="#ff0000" stroke-width="2"/>
<path d="M504,326v 8" fill="none" stroke="#ff0000" stroke-width="2"/>
<path d="M504,326v 8" fill="none" stroke="#ff0000" stroke-width="2"/>
<path d="M505,326v 8" fill="none" stroke="#ff0000" stroke-width="2"/>
<path d="M506,326v 8" fill="none" stroke="#ff0000" stroke-width="2"/>
<path d="M507,326v 8" fill="none" stroke="#ff0000" stroke-width="2"/>
<path d="M508,326v 8" fill="none" stroke="#ff0000" stroke-width="2"/>
<path d="M509,326v 8" fill="none" stroke="#ff0000" stroke-width="2"/>
<path d="M509,326v 8" fill="none" stroke="#ff0000" stroke-width="2"/>
<path d="M510,331v 3" fill="none" stroke="#ff0000" stroke-width="2"/>
<path d="M284,212l 1, 8v 18l 1, 10l 1, 6l 1, 4l 1, 3v 5l 1, 3l 1, 2l 1, 2l 1, 2v 2l 1, 2l 1, 2l 1, 1l 1, 2l 1, 2v 1l 1, 1l 1, 1l 1, 2l 1, 1v 1l 1, 2h 1l 1, 1l 1, 2l 1, 1l 1, 1l 1, 2l 1, 1l 1, 1l 1, 1l 1, 1l 1, 1l 1, 1l 1, 1l 1, 1h 1l 1, 1l 1, 1l 1,
 1h 2l 1, 1v 1h 1l 1, 1h 1l 1, 1h 1l 1, 1h 2l 1, 1l 1, 1h 1l 1, 1h 4l 1, 1h 1l 1, 1h 3v 1h 3l 1, 1h 2l 1, 1h 10l 1, 1h 7l 1, 1h 9l 1, 1h 17l 1, 1h 109l 1, 3" fill="none" stroke="#ff0000" stroke-width="2"/>
<path d="M57,346h 453" fill="none" stroke="black"/>
<text x="419" y="372" fill="black" font-size="12" font-family="Helvetica">
TDC-TDC0 (ns)
</text>
<path d="M57,337v 9" fill="none" stroke="black"/>
<path d="M68,342v 4" fill="none" stroke="black"/>
<path d="M79,342v 4" fill="none" stroke="black"/>
<path d="M91,342v 4" fill="none" stroke="black"/>
<path d="M102,342v 4" fill="none" stroke="black"/>
<path d="M113,337v 9" fill="none" stroke="black"/>
<path d="M125,342v 4" fill="none" stroke="black"/>
<path d="M136,342v 4" fill="none" stroke="black"/>
<path d="M147,342v 4" fill="none" stroke="black"/>
<path d="M159,342v 4" fill="none" stroke="black"/>
<path d="M170,337v 9" fill="none" stroke="black"/>
<path d="M181,342v 4" fill="none" stroke="black"/>
<path d="M193,342v 4" fill="none" stroke="black"/>
<path d="M204,342v 4" fill="none" stroke="black"/>
<path d="M215,342v 4" fill="none" stroke="black"/>
<path d="M227,337v 9" fill="none" stroke="black"/>
<path d="M238,342v 4" fill="none" stroke="black"/>
<path d="M249,342v 4" fill="none" stroke="black"/>
<path d="M261,342v 4" fill="none" stroke="black"/>
<path d="M272,342v 4" fill="none" stroke="black"/>
<path d="M283,337v 9" fill="none" stroke="black"/>
<path d="M295,342v 4" fill="none" stroke="black"/>
<path d="M306,342v 4" fill="none" stroke="black"/>
<path d="M317,342v 4" fill="none" stroke="black"/>
<path d="M329,342v 4" fill="none" stroke="black"/>
<path d="M340,337v 9" fill="none" stroke="black"/>
<path d="M351,342v 4" fill="none" stroke="black"/>
<path d="M363,342v 4" fill="none" stroke="black"/>
<path d="M374,342v 4" fill="none" stroke="black"/>
<path d="M386,342v 4" fill="none" stroke="black"/>
<path d="M397,337v 9" fill="none" stroke="black"/>
<path d="M408,342v 4" fill="none" stroke="black"/>
<path d="M420,342v 4" fill="none" stroke="black"/>
<path d="M431,342v 4" fill="none" stroke="black"/>
<path d="M442,342v 4" fill="none" stroke="black"/>
<path d="M454,337v 9" fill="none" stroke="black"/>
<path d="M465,342v 4" fill="none" stroke="black"/>
<path d="M476,342v 4" fill="none" stroke="black"/>
<path d="M488,342v 4" fill="none" stroke="black"/>
<path d="M499,342v 4" fill="none" stroke="black"/>
<path d="M510,337v 9" fill="none" stroke="black"/>
<text x="36" y="359" fill="black" font-size="12" font-family="Helvetica">
-20000
</text>
<text x="93" y="359" fill="black" font-size="12" font-family="Helvetica">
-15000
</text>
<text x="149" y="359" fill="black" font-size="12" font-family="Helvetica">
-10000
</text>
<text x="210" y="359" fill="black" font-size="12" font-family="Helvetica">
-5000
</text>
<text x="280" y="359" fill="black" font-size="12" font-family="Helvetica">
0
</text>
<text x="325" y="359" fill="black" font-size="12" font-family="Helvetica">
5000
</text>
<text x="379" y="359" fill="black" font-size="12" font-family="Helvetica">
10000
</text>
<text x="435" y="359" fill="black" font-size="12" font-family="Helvetica">
15000
</text>
<text x="492" y="359" fill="black" font-size="12" font-family="Helvetica">
20000
</text>
<path d="M57,346v -308" fill="none" stroke="black"/>
<g transform="rotate(-90,29,72)">
<text x="29" y="72" fill="black" font-size="12" font-family="Helvetica">
Count
</text>
</g>
<path d="M70,346h -13" fill="none" stroke="black"/>
<path d="M63,336h -6" fill="none" stroke="black"/>
<path d="M63,326h -6" fill="none" stroke="black"/>
<path d="M63,316h -6" fill="none" stroke="black"/>
<path d="M63,305h -6" fill="none" stroke="black"/>
<path d="M70,295h -13" fill="none" stroke="black"/>
<path d="M63,285h -6" fill="none" stroke="black"/>
<path d="M63,275h -6" fill="none" stroke="black"/>
<path d="M63,264h -6" fill="none" stroke="black"/>
<path d="M63,254h -6" fill="none" stroke="black"/>
<path d="M70,244h -13" fill="none" stroke="black"/>
<path d="M63,234h -6" fill="none" stroke="black"/>
<path d="M63,223h -6" fill="none" stroke="black"/>
<path d="M63,213h -6" fill="none" stroke="black"/>
<path d="M63,203h -6" fill="none" stroke="black"/>
<path d="M70,193h -13" fill="none" stroke="black"/>
<path d="M63,182h -6" fill="none" stroke="black"/>
<path d="M63,172h -6" fill="none" stroke="black"/>
<path d="M63,162h -6" fill="none" stroke="black"/>
<path d="M63,151h -6" fill="none" stroke="black"/>
<path d="M70,141h -13" fill="none" stroke="black"/>
<path d="M63,131h -6" fill="none" stroke="black"/>
<path d="M63,121h -6" fill="none" stroke="black"/>
<path d="M63,110h -6" fill="none" stroke="black"/>
<path d="M63,100h -6" fill="none" stroke="black"/>
<path d="M70,90h -13" fill="none" stroke="black"/>
<path d="M63,80h -6" fill="none" stroke="black"/>
<path d="M63,69h -6" fill="none" stroke="black"/>
<path d="M63,59h -6" fill="none" stroke="black"/>
<path d="M63,49h -6" fill="none" stroke="black"/>
<path d="M70,39h -13" fill="none" stroke="black"/>
<path d="M70,39h -13" fill="none" stroke="black"/>
<text x="47" y="350" fill="black" font-size="12" font-family="Helvetica">
0
</text>
<text x="33" y="299" fill="black" font-size="12" font-family="Helvetica">
100
</text>
<text x="33" y="247" fill="black" font-size="12" font-family="Helvetica">
200
</text>
<text x="33" y="196" fill="black" font-size="12" font-family="Helvetica">
300
</text>
<text x="33" y="145" fill="black" font-size="12" font-family="Helvetica">
400
</text>
<text x="33" y="93" fill="black" font-size="12" font-family="Helvetica">
500
</text>
<text x="33" y="42" fill="black" font-size="12" font-family="Helvetica">
600
</text>
<rect x="442" y="25" width="114" height="46" fill="white"/>
<path d="M442,71h 114" fill="none" stroke="black"/>
<path d="M556,71v -46" fill="none" stroke="black"/>
<path d="M556,25h -114" fill="none" stroke="black"/>
<path d="M442,25v 46" fill="none" stroke="black"/>
<text x="447" y="28" fill="black" font-size="4" font-family="Helvetica">
Entries 
</text>
<text x="538" y="28" fill="black" font-size="4" font-family="Helvetica">
 95809
</text>
<text x="450" y="35" fill="black" font-size="4" font-family="Helvetica">
 / ndf 
</text>
<text x="449" y="31" fill="black" font-size="3" font-family="Helvetica">
2
</text>
<text x="447" y="35" fill="black" font-size="4" font-family="Times">
&#0967;
</text>
<text x="526" y="34" fill="black" font-size="4" font-family="Helvetica">
  1327 / 1240
</text>
<text x="452" y="37" fill="black" font-size="4" font-family="Helvetica">
   
</text>
<text x="450" y="40" fill="black" font-size="3" font-family="Helvetica">
cu
</text>
<text x="447" y="37" fill="black" font-size="4" font-family="Helvetica">
N
</text>
<text x="543" y="40" fill="black" font-size="4" font-family="Helvetica">
 9.8
</text>
<text x="541" y="40" fill="black" font-size="4" font-family="Times">
&#0177;
</text>
<text x="529" y="40" fill="black" font-size="4" font-family="Helvetica">
 115.6 
</text>
<text x="450" y="43" fill="black" font-size="4" font-family="Helvetica">
 
</text>
<text x="448" y="46" fill="black" font-size="3" font-family="Helvetica">
cu
</text>
<text x="447" y="43" fill="black" font-size="4" font-family="Times">
&#0964;
</text>
<text x="543" y="45" fill="black" font-size="4" font-family="Helvetica">
 1.9
</text>
<text x="541" y="45" fill="black" font-size="4" font-family="Times">
&#0177;
</text>
<text x="529" y="45" fill="black" font-size="4" font-family="Helvetica">
 162.5 
</text>
<text x="450" y="48" fill="black" font-size="4" font-family="Helvetica">
    
</text>
<text x="450" y="51" fill="black" font-size="3" font-family="Helvetica">
f
</text>
<text x="447" y="48" fill="black" font-size="4" font-family="Helvetica">
N
</text>
<text x="543" y="50" fill="black" font-size="4" font-family="Helvetica">
 1.6
</text>
<text x="541" y="50" fill="black" font-size="4" font-family="Times">
&#0177;
</text>
<text x="530" y="50" fill="black" font-size="4" font-family="Helvetica">
   155 
</text>
<text x="448" y="53" fill="black" font-size="4" font-family="Helvetica">
 
</text>
<text x="448" y="57" fill="black" font-size="3" font-family="Helvetica">
f
</text>
<text x="447" y="53" fill="black" font-size="4" font-family="Times">
&#0964;
</text>
<text x="543" y="55" fill="black" font-size="4" font-family="Helvetica">
 0.0
</text>
<text x="541" y="55" fill="black" font-size="4" font-family="Times">
&#0177;
</text>
<text x="529" y="55" fill="black" font-size="4" font-family="Helvetica">
  2197 
</text>
<text x="452" y="58" fill="black" font-size="4" font-family="Helvetica">
  
</text>
<text x="450" y="61" fill="black" font-size="3" font-family="Helvetica">
sin
</text>
<text x="447" y="58" fill="black" font-size="4" font-family="Helvetica">
N
</text>
<text x="539" y="60" fill="black" font-size="4" font-family="Helvetica">
 0.278
</text>
<text x="537" y="60" fill="black" font-size="4" font-family="Times">
&#0177;
</text>
<text x="525" y="60" fill="black" font-size="4" font-family="Helvetica">
 8.798 
</text>
<text x="447" y="65" fill="black" font-size="4" font-family="Helvetica">
T        
</text>
<text x="541" y="66" fill="black" font-size="4" font-family="Helvetica">
 0.00
</text>
<text x="538" y="66" fill="black" font-size="4" font-family="Times">
&#0177;
</text>
<text x="526" y="66" fill="black" font-size="4" font-family="Helvetica">
 59.35 
</text>
<text x="450" y="68" fill="black" font-size="4" font-family="Helvetica">
    
</text>
<text x="450" y="71" fill="black" font-size="3" font-family="Helvetica">
b
</text>
<text x="447" y="68" fill="black" font-size="4" font-family="Helvetica">
N
</text>
<text x="541" y="71" fill="black" font-size="4" font-family="Helvetica">
 0.19
</text>
<text x="538" y="71" fill="black" font-size="4" font-family="Times">
&#0177;
</text>
<text x="526" y="71" fill="black" font-size="4" font-family="Helvetica">
 30.66 
</text>
<text x="270" y="21" fill="black" font-size="21" font-family="Helvetica">
D1
</text></svg>
