<?xml version="1.0" standalone="no"?>
<svg width="567" height="328" viewBox="0 0 567 328" xmlns="http://www.w3.org/2000/svg">
<title>
images/sim_mu-_5mm_Aluminium_loose_f_100ns_bins_500k.svg
</title>
<desc>
Creator: ROOT Version 5.34/05
CreationDate: Sun Jun  2 16:28:28 2013</desc>
<defs>
</defs>
<rect x="0" y="0" width="567" height="328" fill="white"/>
<rect x="57" y="33" width="453" height="262" fill="white"/>
<rect x="57" y="33" width="453" height="262" fill="none" stroke="black"/>
<rect x="57" y="33" width="453" height="262" fill="white"/>
<rect x="57" y="33" width="453" height="262" fill="none" stroke="black"/>
<path d="M57,295h 226v -145h 2v -105h 1v 70h 1v 11h 1v 23h 1v 10h 1v 12h 1v 4h 2v -4h 1v -7h 1v 13h 1v 3h 1v 26h 1v 5h 1v 5h 3v 1h 1v 8h 1v -7h 1v -2h 1v 22h 1v -5h 1v -5h 2v 1h 1v 9h 1v 3h 1v -5h 1v 23h 1v -7h 1v 3h 1v 2h 2v -5h 1v -1h 1v 8h 1v 3h
 3v 7h 2v -8h 1v 4h 1v 2h 1v 2h 1v 3h 2v -3h 1v 6h 2v -3h 1v 7h 2v -5h 1v 2h 1v 1h 1v -2h 2v 5h 1v 2h 1v -1h 1v 1h 1v 2h 1v -3h 1v 7h 1v -1h 3v -1h 1v 4h 2v -4h 1v 2h 1v -1h 2v 3h 1v -6h 1v 6h 1v 2h 1v -2h 1v -3h 3v -1h 1v 6h 1v -2h 1v 2h 1v -2h 1v
 2h 4v -1h 1v 3h 1v -4h 1v 3h 2v -1h 1v 2h 2v -1h 1v -1h 1v 2h 1v -1h 1v 1h 3v 1h 2v -2h 1v -1h 1v -1h 1v 4h 2v -1h 1v 1h 2v -1h 1v -1h 1v 2h 1v -3h 1v 2h 6v 1h 1v -1h 2v 1h 1v -2h 1v 2h 7v -1h 1v 1h 3v -2h 1v 2h 80" fill="none" stroke="#000099"/>
<path d="M285,117l 2, 21l 3, 16l 2, 13l 2, 12l 2, 10l 3, 10l 2, 9l 2, 7l 3, 8l 2, 6l 2, 6l 2, 6l 3, 4l 2, 5l 2, 4l 2, 4l 3, 3l 2, 3l 2, 3l 2, 3l 3, 2l 2, 2l 2, 2l 2, 2l 3, 1l 2, 2l 2, 1l 2, 1l 3, 1l 2, 1l 2, 1l 3, 1l 2, 1h 2l 2, 1l 3, 1h 4l 2, 1h 3l
 2, 1h 4l 3, 1h 9l 2, 1" fill="none" stroke="#ff0000" stroke-width="2"/>
<path d="M396,294h 20l 3, 1h 88" fill="none" stroke="#ff0000" stroke-width="2"/>
<path d="M507,295h 2" fill="none" stroke="#ff0000" stroke-width="2"/>
<rect x="351" y="21" width="205" height="92" fill="white"/>
<path d="M351,113h 205" fill="none" stroke="black"/>
<path d="M556,113v -92" fill="none" stroke="black"/>
<path d="M556,21h -205" fill="none" stroke="black"/>
<path d="M351,21v 92" fill="none" stroke="black"/>
<text x="361" y="33" fill="black" font-size="13" font-family="Helvetica">
Entries 
</text>
<text x="511" y="33" fill="black" font-size="13" font-family="Helvetica">
 7531
</text>
<text x="373" y="50" fill="black" font-size="13" font-family="Helvetica">
 / ndf 
</text>
<text x="368" y="39" fill="black" font-size="9" font-family="Helvetica">
2
</text>
<text x="361" y="50" fill="black" font-size="13" font-family="Times">
&#0967;
</text>
<text x="472" y="48" fill="black" font-size="13" font-family="Helvetica">
 243.5 / 196
</text>
<text x="381" y="60" fill="black" font-size="13" font-family="Helvetica">
   
</text>
<text x="371" y="67" fill="black" font-size="9" font-family="Helvetica">
cu
</text>
<text x="361" y="60" fill="black" font-size="13" font-family="Helvetica">
N
</text>
<text x="507" y="64" fill="black" font-size="13" font-family="Helvetica">
 26.51
</text>
<text x="496" y="64" fill="black" font-size="13" font-family="Times">
&#0177;
</text>
<text x="454" y="64" fill="black" font-size="13" font-family="Helvetica">
 39.92 
</text>
<text x="376" y="77" fill="black" font-size="13" font-family="Helvetica">
 
</text>
<text x="367" y="85" fill="black" font-size="9" font-family="Helvetica">
cu
</text>
<text x="361" y="77" fill="black" font-size="13" font-family="Times">
&#0964;
</text>
<text x="522" y="80" fill="black" font-size="13" font-family="Helvetica">
 1.1
</text>
<text x="512" y="80" fill="black" font-size="13" font-family="Times">
&#0177;
</text>
<text x="469" y="80" fill="black" font-size="13" font-family="Helvetica">
 164.5 
</text>
<text x="374" y="90" fill="black" font-size="13" font-family="Helvetica">
    
</text>
<text x="371" y="98" fill="black" font-size="9" font-family="Helvetica">
f
</text>
<text x="361" y="90" fill="black" font-size="13" font-family="Helvetica">
N
</text>
<text x="522" y="95" fill="black" font-size="13" font-family="Helvetica">
 7.0
</text>
<text x="512" y="95" fill="black" font-size="13" font-family="Times">
&#0177;
</text>
<text x="469" y="95" fill="black" font-size="13" font-family="Helvetica">
 353.6 
</text>
<text x="369" y="107" fill="black" font-size="13" font-family="Helvetica">
 
</text>
<text x="367" y="115" fill="black" font-size="9" font-family="Helvetica">
f
</text>
<text x="361" y="107" fill="black" font-size="13" font-family="Times">
&#0964;
</text>
<text x="515" y="110" fill="black" font-size="13" font-family="Helvetica">
 26.9
</text>
<text x="504" y="110" fill="black" font-size="13" font-family="Times">
&#0177;
</text>
<text x="464" y="110" fill="black" font-size="13" font-family="Helvetica">
  2111 
</text>
<path d="M57,295h 453" fill="none" stroke="black"/>
<text x="462" y="317" fill="black" font-size="11" font-family="Helvetica">
Time (ns)
</text>
<path d="M57,287v 8" fill="none" stroke="black"/>
<path d="M68,291v 4" fill="none" stroke="black"/>
<path d="M79,291v 4" fill="none" stroke="black"/>
<path d="M91,291v 4" fill="none" stroke="black"/>
<path d="M102,291v 4" fill="none" stroke="black"/>
<path d="M113,287v 8" fill="none" stroke="black"/>
<path d="M125,291v 4" fill="none" stroke="black"/>
<path d="M136,291v 4" fill="none" stroke="black"/>
<path d="M147,291v 4" fill="none" stroke="black"/>
<path d="M159,291v 4" fill="none" stroke="black"/>
<path d="M170,287v 8" fill="none" stroke="black"/>
<path d="M181,291v 4" fill="none" stroke="black"/>
<path d="M193,291v 4" fill="none" stroke="black"/>
<path d="M204,291v 4" fill="none" stroke="black"/>
<path d="M215,291v 4" fill="none" stroke="black"/>
<path d="M227,287v 8" fill="none" stroke="black"/>
<path d="M238,291v 4" fill="none" stroke="black"/>
<path d="M249,291v 4" fill="none" stroke="black"/>
<path d="M261,291v 4" fill="none" stroke="black"/>
<path d="M272,291v 4" fill="none" stroke="black"/>
<path d="M283,287v 8" fill="none" stroke="black"/>
<path d="M295,291v 4" fill="none" stroke="black"/>
<path d="M306,291v 4" fill="none" stroke="black"/>
<path d="M317,291v 4" fill="none" stroke="black"/>
<path d="M329,291v 4" fill="none" stroke="black"/>
<path d="M340,287v 8" fill="none" stroke="black"/>
<path d="M351,291v 4" fill="none" stroke="black"/>
<path d="M363,291v 4" fill="none" stroke="black"/>
<path d="M374,291v 4" fill="none" stroke="black"/>
<path d="M386,291v 4" fill="none" stroke="black"/>
<path d="M397,287v 8" fill="none" stroke="black"/>
<path d="M408,291v 4" fill="none" stroke="black"/>
<path d="M420,291v 4" fill="none" stroke="black"/>
<path d="M431,291v 4" fill="none" stroke="black"/>
<path d="M442,291v 4" fill="none" stroke="black"/>
<path d="M454,287v 8" fill="none" stroke="black"/>
<path d="M465,291v 4" fill="none" stroke="black"/>
<path d="M476,291v 4" fill="none" stroke="black"/>
<path d="M488,291v 4" fill="none" stroke="black"/>
<path d="M499,291v 4" fill="none" stroke="black"/>
<path d="M510,287v 8" fill="none" stroke="black"/>
<text x="39" y="306" fill="black" font-size="11" font-family="Helvetica">
-20000
</text>
<text x="95" y="306" fill="black" font-size="11" font-family="Helvetica">
-15000
</text>
<text x="152" y="306" fill="black" font-size="11" font-family="Helvetica">
-10000
</text>
<text x="212" y="306" fill="black" font-size="11" font-family="Helvetica">
-5000
</text>
<text x="280" y="306" fill="black" font-size="11" font-family="Helvetica">
0
</text>
<text x="327" y="306" fill="black" font-size="11" font-family="Helvetica">
5000
</text>
<text x="381" y="306" fill="black" font-size="11" font-family="Helvetica">
10000
</text>
<text x="437" y="306" fill="black" font-size="11" font-family="Helvetica">
15000
</text>
<text x="494" y="306" fill="black" font-size="11" font-family="Helvetica">
20000
</text>
<path d="M57,295v -262" fill="none" stroke="black"/>
<g transform="rotate(-90,29,63)">
<text x="29" y="63" fill="black" font-size="11" font-family="Helvetica">
Count
</text>
</g>
<path d="M70,295h -13" fill="none" stroke="black"/>
<path d="M63,285h -6" fill="none" stroke="black"/>
<path d="M63,275h -6" fill="none" stroke="black"/>
<path d="M63,264h -6" fill="none" stroke="black"/>
<path d="M63,254h -6" fill="none" stroke="black"/>
<path d="M70,244h -13" fill="none" stroke="black"/>
<path d="M63,233h -6" fill="none" stroke="black"/>
<path d="M63,223h -6" fill="none" stroke="black"/>
<path d="M63,213h -6" fill="none" stroke="black"/>
<path d="M63,202h -6" fill="none" stroke="black"/>
<path d="M70,192h -13" fill="none" stroke="black"/>
<path d="M63,182h -6" fill="none" stroke="black"/>
<path d="M63,171h -6" fill="none" stroke="black"/>
<path d="M63,161h -6" fill="none" stroke="black"/>
<path d="M63,151h -6" fill="none" stroke="black"/>
<path d="M70,141h -13" fill="none" stroke="black"/>
<path d="M63,130h -6" fill="none" stroke="black"/>
<path d="M63,120h -6" fill="none" stroke="black"/>
<path d="M63,110h -6" fill="none" stroke="black"/>
<path d="M63,99h -6" fill="none" stroke="black"/>
<path d="M70,89h -13" fill="none" stroke="black"/>
<path d="M63,79h -6" fill="none" stroke="black"/>
<path d="M63,68h -6" fill="none" stroke="black"/>
<path d="M63,58h -6" fill="none" stroke="black"/>
<path d="M63,48h -6" fill="none" stroke="black"/>
<path d="M70,37h -13" fill="none" stroke="black"/>
<path d="M70,37h -13" fill="none" stroke="black"/>
<text x="48" y="299" fill="black" font-size="11" font-family="Helvetica">
0
</text>
<text x="35" y="247" fill="black" font-size="11" font-family="Helvetica">
100
</text>
<text x="35" y="195" fill="black" font-size="11" font-family="Helvetica">
200
</text>
<text x="35" y="144" fill="black" font-size="11" font-family="Helvetica">
300
</text>
<text x="35" y="92" fill="black" font-size="11" font-family="Helvetica">
400
</text>
<text x="35" y="41" fill="black" font-size="11" font-family="Helvetica">
500
</text>
<rect x="351" y="21" width="205" height="92" fill="white"/>
<path d="M351,113h 205" fill="none" stroke="black"/>
<path d="M556,113v -92" fill="none" stroke="black"/>
<path d="M556,21h -205" fill="none" stroke="black"/>
<path d="M351,21v 92" fill="none" stroke="black"/>
<text x="361" y="33" fill="black" font-size="13" font-family="Helvetica">
Entries 
</text>
<text x="511" y="33" fill="black" font-size="13" font-family="Helvetica">
 7531
</text>
<text x="373" y="50" fill="black" font-size="13" font-family="Helvetica">
 / ndf 
</text>
<text x="368" y="39" fill="black" font-size="9" font-family="Helvetica">
2
</text>
<text x="361" y="50" fill="black" font-size="13" font-family="Times">
&#0967;
</text>
<text x="472" y="48" fill="black" font-size="13" font-family="Helvetica">
 243.5 / 196
</text>
<text x="381" y="60" fill="black" font-size="13" font-family="Helvetica">
   
</text>
<text x="371" y="67" fill="black" font-size="9" font-family="Helvetica">
cu
</text>
<text x="361" y="60" fill="black" font-size="13" font-family="Helvetica">
N
</text>
<text x="507" y="64" fill="black" font-size="13" font-family="Helvetica">
 26.51
</text>
<text x="496" y="64" fill="black" font-size="13" font-family="Times">
&#0177;
</text>
<text x="454" y="64" fill="black" font-size="13" font-family="Helvetica">
 39.92 
</text>
<text x="376" y="77" fill="black" font-size="13" font-family="Helvetica">
 
</text>
<text x="367" y="85" fill="black" font-size="9" font-family="Helvetica">
cu
</text>
<text x="361" y="77" fill="black" font-size="13" font-family="Times">
&#0964;
</text>
<text x="522" y="80" fill="black" font-size="13" font-family="Helvetica">
 1.1
</text>
<text x="512" y="80" fill="black" font-size="13" font-family="Times">
&#0177;
</text>
<text x="469" y="80" fill="black" font-size="13" font-family="Helvetica">
 164.5 
</text>
<text x="374" y="90" fill="black" font-size="13" font-family="Helvetica">
    
</text>
<text x="371" y="98" fill="black" font-size="9" font-family="Helvetica">
f
</text>
<text x="361" y="90" fill="black" font-size="13" font-family="Helvetica">
N
</text>
<text x="522" y="95" fill="black" font-size="13" font-family="Helvetica">
 7.0
</text>
<text x="512" y="95" fill="black" font-size="13" font-family="Times">
&#0177;
</text>
<text x="469" y="95" fill="black" font-size="13" font-family="Helvetica">
 353.6 
</text>
<text x="369" y="107" fill="black" font-size="13" font-family="Helvetica">
 
</text>
<text x="367" y="115" fill="black" font-size="9" font-family="Helvetica">
f
</text>
<text x="361" y="107" fill="black" font-size="13" font-family="Times">
&#0964;
</text>
<text x="515" y="110" fill="black" font-size="13" font-family="Helvetica">
 26.9
</text>
<text x="504" y="110" fill="black" font-size="13" font-family="Times">
&#0177;
</text>
<text x="464" y="110" fill="black" font-size="13" font-family="Helvetica">
  2111 
</text>
<text x="160" y="17" fill="black" font-size="17" font-family="Helvetica">
mu-_5mm_Aluminium_500000
</text></svg>
