<?xml version="1.0" standalone="no"?>
<svg width="567" height="385" viewBox="0 0 567 385" xmlns="http://www.w3.org/2000/svg">
<title>
images/analysis_g4bl_phase_loose_f/451_D4.svg
</title>
<desc>
Creator: ROOT Version 5.34/05
CreationDate: Mon Jun 10 22:04:45 2013</desc>
<defs>
</defs>
<rect x="0" y="0" width="567" height="385" fill="white"/>
<rect x="57" y="38" width="453" height="308" fill="white"/>
<rect x="57" y="38" width="453" height="308" fill="none" stroke="black"/>
<rect x="57" y="38" width="453" height="308" fill="white"/>
<rect x="57" y="38" width="453" height="308" fill="none" stroke="black"/>
<path d="M57,346h 44v -4v 4h 1v -8v 4v -4h 1v -4v 4v -8v 8h 1v -16v 24v -12h 1v 8v -12v 12h 1v -16v 16v -4h 1v -8v 16v -8v 8v -8h 1v -4v 12h 1v -28v 24v -8h 1v 8v -8v 8h 1v -24v 16h 1v 8v -8v 8h 1v -8v 8v -8v 12h 1v -16v 8v -12h 1v 20v -20v 16v -8h
 1v 4v -8v 16h 1v -12v 4v -4h 1v 4v -4v 12v -16h 1v 8v -4v 4v -8v 12h 1v -29v 29h 1v -8v 12v -20v 8h 1v 8v -12h 1v 16v -20v 12h 1v 8v -8h 1v 8v -37v 37v -12v 8v -16h 1v 20v -16v 4h 1v -8v 20v -4h 1v 4v -8h 1v -8v 8v -12v 16v -4h 1v -4v 8v -4h 1v -4v
 8v -16h 1v 20v -16v 12h 1v 4v -16v 16h 1v -16v 16v -12h 1v -8v 16v -16h 1v 12v -20v 24h 1v -4v 4v -8v 8h 1v -4v 8v -8v 8h 1v -12v 12v -12h 1v 12v -8v 4v -20h 1v 16v -4v 8v -4h 1v -4v 12v -12h 1v 12v -8v 4h 1v -24v 20v -12v 16v -8v 12h 1v -16v 8h 1v
 -4v 8v -4h 1v 4v -8v 8h 1v -8v 4v -4v 8v -4v 4h 1v -20v 16h 1v -12v 12v -12v 20v -12v 4h 1v -8v 8v -4v 12h 1v -20v 12v -12v 12v -4h 1v -4v 12v -8v 4h 1v -8v 8v -4v 4h 1v 4v -16v 20h 1v -24v 20v -16v 12h 1v 4v -8v 8h 1v -8v 12v -8h 1v 8v -16v 4h 1v
 12v -28v 24v -20h 1v 24v -16v 12h 1v -20v 20v -12h 1v 12v -4v 4v -20h 1v 24v -12v 8v -8h 1v 12v -28v 20h 1v -8v 16v -12h 1v 4v -12v 16h 1v -4v 8v -24v 24v -24h 1v 24v -8v 4h 1v 4v -20v 16v -20h 1v 24v -12v 4h 1v -12v 16h 1v -8v 12v -12h 1v 8v -8v 4h
 1v -12v 16v -8v 8h 1v 4v -20v 16v -8h 1v -4v 8v -12v 16h 1v -8v 8v -8v 8v -4h 1v -8v 16v -20v 12h 1v 8v -12v 8v -12h 1v 8v -4v 12v -8h 1v 8v -16v 12h 1v -8v 8v -20h 1v 20v -16v 20v -12h 1v 12v -8v 4v -12h 1v 16v -8v 8v -20h 1v 20v -4v 4h 1v -16v 16v
 -4h 1v -4v 4v -20v 20h 1v -4v 4h 1v -8v 8v -16h 1v 16v -12v 12h 1v -16v 20v -16v 4h 1v 8v -16v 20v -8h 1v -8v 16v -24v 8h 1v 12v -12v 16h 1v -20v 12v -16h 1v 20v -12v 12h 1v -16v 16v -12v 12h 1v -8v 12h 1v -20v 16h 1v -12v 12v -8h 1v 8v -12v 12v -4v
 4h 1v -12h 1v 8v -4v 12v -16h 1v -4v 20v -20v 16h 1v -8v 8v -4h 1v -4v 8v -8v 4v -4h 1v -8v 12v -12v 4h 1v -8v 24v -12h 1v 12v -4v 4v -16h 1v 16v -8v 4v -12h 1v 12v -12h 1v 12v -8v 8h 1v -20v 24v -12v 8v -16h 1v 20v -16v 12h 1v -12v 16v -8h 1v -8v
 8v -8h 1v -21v 33v -4h 1v -20v 24v -8v 12v -8h 1v 4v -8v 8v -12h 1v 8v -4h 1v 12v -20v 16h 1v -24v 20h 1v -8v 16h 1v -12v 8v -20h 1v 20v -12v 12v -16h 1v 16v -4v 4v -16h 1v 8v -4v 12v -8v 4h 1v 4v -16v 12v -8h 1v 12v -8v 8v -4h 1v 8v -20v 20v -12h
 1v -4v 8v -8v 8v -8h 1v 16v -12v 4v -12h 1v 12v -4v 4v -4h 1v -16v 20v -16v 8h 1v 8v -12v 8h 1v -4v 4v -8v 12v -16h 1v 16v -8v 12h 1v -12v 16v -12h 1v -4v 16v -12h 1v -4v 8v -8v 8v -16h 1v 24v -20v 8v -8v 8h 1v 8v -12v 4h 1v 8v -16v 8h 1v -8v 8v -8v
 8v -4v 8h 1v -12v 4h 1v -4v 12v -16v 12h 1v 12v -24h 1v 16v -12v 20v -28h 1v 16v -4v 12v -16v 4h 1v -4v 8v -12v 16v -8h 1v 4v -16v 24h 1v -12v 8v -4h 1v -12v 8v -12v 16h 1v 4v -20v 16v -8h 1v 16v -12h 1v -8v 20v -29h 1v 33v -24h 1v 4v -4v 8v -4h 1v
 -8v 24v -8h 1v -12v 16v -12v 4h 1v 12v -12v 4v -8v 4h 1v -8v 8v -8v 8v -8h 1v 8v -4v 8v -4h 1v 16v -20v 8v -4v 4v -4h 1v -4v 8v -4h 1v 12v -16v 12h 1v -16v 20v -24v 4h 1v 12v -25h 1v 25v -21v 21v -8v 4h 1v -4v 8v -16v 12h 1v -12v 12v -4h 1v -13v 25v
 -16v 16h 1v -33v 33v -33v 17h 1v 16v -29v 9h 1v 8v -13v 29v -8h 1v -12v 8v -29v 8h 1v 4v -8v 25v -17v 17h 1v -17v 17v -17v 21h 1v -41v 16v -8v 21h 1v -13v 37h 1v -293v 153h 1v 66v -21h 1v 46v -41v 37v -17h 1v 17v -17v 21v -13h 1v -37v 29v -20v 24h
 1v 9v -17v 29v -17v 9h 1v -21v 8v -16v 16v -4h 1v 8v -24v 41v -25v 8h 1v 9v -42v 58v -20h 1v 16v -16v 12v -4h 1v -17v 21v -37v 37v -25h 1v 17v -4v 29v -29h 1v 16v -29v 13h 1v -13v 33v -20h 1v 4v -13v 21h 1v 12v -12v 12v -45v 29h 1v 29v -25v 8h 1v
 -12v 16v -12v 12h 1v -41v 58v -41h 1v 8v -17v 29v -4v 8h 1v -20v 20v -29v 34h 1v 8v -37v 33v -29h 1v 37v -21v 9h 1v -17v 21v -4h 1v -9v 25v -25h 1v -20v 16v -8v 33h 1v -21v 25v -41v 12h 1v 29v -29v 21v -25h 1v 25v -25v 25h 1v -21v 25v -41v 12h 1v
 17v -17v 29v -4v 4h 1v -17v 17v -21h 1v 21v -25h 1v 25v -8v 4h 1v 8v -25v 29h 1v -20v 4h 1v 8v -29v 17h 1v 16v -29v 29v -25h 1v 33v -24v 4h 1v -13v 25v -25v 9h 1v 12v -17v 9v -4v 12h 1v -8v 4v -17v 13v -9h 1v 25v -41v 33h 1v 4v -12v 8v -8h 1v 16v
 -12h 1v 4v -17v 13v -8v 24h 1v -29v 25v -8h 1v -4v 8v -16v 20h 1v -25v 29v -16h 1v 12v -25v 17v -21h 1v 33v -8v 4v -12v 12h 1v -20v 20v -8v 8v -8h 1v 16v -20v 20v -20h 1v 16v -16v 16v -8v 12h 1v -33v 21h 1v -12v 20v -16v 16h 1v -29v 25v -20v 28h 1v
 -24v 12v -21v 25h 1v -8v 8v -8v 8h 1v -8v 8v -8v 8h 1v -12v 12v -8h 1v 8v -16v 4h 1v 12v -4h 1v 4v -12v 12v -12v 12h 1v 4v -20v 20v -8h 1v -4v 4v -8v 12v -4v 4h 1v -8v 12v -4h 1v -16v 24v -16v 16v -12v 4h 1v -16v 20v -24h 1v 16v -8v 16v -4h 1v 4v
 -12v 16v -16v 16v -28h 1v 28v -12v 8h 1v -12v 8v -12v 12v -4h 1v -4v 12v -16v 8h 1v 12v -20v 12v -16h 1v 20v -12h 1v -12v 20v -8v 12v -8h 1v 4v -4v 8v -24v 20h 1v 8v -20v 16v -8h 1v -12v 24v -4h 1v -12v 12v -12v 4v -4h 1v 4v -12v 16h 1v 4v -20v 16v
 -12v 8h 1v 8v -12v 4v -8h 1v 16v -20v 16v -4h 1v 12v -24v 16h 1v 8v -20v 16v -8v 4h 1v -8v 12v -12v 12h 1v -20v 16h 1v 4v -16v 20v -16h 1v 12v -8v 12v -8v 4h 1v 4v -12v 8v -12h 1v 12v -20v 24v -8v 4h 1v -8v 8v -4h 1v -4v 8v -4v 4h 1v 4v -28v 20h 1v
 -8v 12v -12h 1v 12v -8v 8v -16v 12h 1v 4v -4v 4v -20h 1v 12v -4v 8h 1v -16v 20v -8v 4v -4h 1v -4v 8v -4v 4h 1v 4v -8v 8h 1v -8v 12h 1v -8v 8v -20v 16h 1v -8v 12h 1v -8v 8v -8v 4h 1v -4v 4v -4v 4h 1v -24v 20h 1v -8v 12v -8v 8v -8h 1v -4v 4v -16v 20h
 1v 8v -16v 12h 1v -8v 12v -20h 1v 16v -4v 8v -20h 1v -4v 20v -12h 1v 12v -24v 24v -4h 1v -12v 16v -16h 1v -4v 20v -20v 16h 1v -4v 12v -12h 1v 12v -16v 16h 1v -20v 16h 1v 4v -16v 8v -8h 1v 16v -20h 1v 16v -20v 16h 1v 4v -16h 1v 16v -12v 8v -4h 1v 4v
 -12v 20v -8h 1v 4h 1v -12v 12v -8h 1v 8v -20v 24h 1v -16v 8h 1v -4v 8v -4v 8v -8h 1v -8v 8v -4v 4v -4h 1v -8v 20v -12v 4h 1v -16v 24h 1v -16v 8h 1v 4v -4v 8v -8h 1v -8v 12v -8h 1v 12v -24v 20h 1v -12v 12v -12h 1v 12v -8v 12h 1v -12h 1v -4v 8v -16v
 16h 1v 4v -8v 8h 1v -8v 8v -16v 12v -4h 1v 4v -4v 8h 1v -12v 4v -4v 16h 1v -8v 4v -4v 4h 1v -12v 12v -8h 1v 8v -8v 8h 1v -20v 24h 1v -8v 4v -4v 8v -4h 1v -4v 4v -16v 20v -12v 8h 1v -4v 4v -16v 16v -4h 1v -4v 8v -20v 24h 1v -20v 20v -16h 1v 16v -20v
 8h 1v 12v -33h 1v 29v -24v 24h 1v -4v 4v -16h 1v 20v -12v 8v -4h 1v 8v -12v 8v -20h 1v 24v -16v 12v -8h 1v -4v 12v -4h 1v -12v 16h 1v -12v 8h 1v 4v -16v 16h 1v -20v 24v -16h 1v -4v 20v -12v 8h 1v -29v 33h 1v -8v 4v -8v 12h 1v -12v 12v -4h 1v -24v
 24v -4v 4h 1v -20v 24v -4h 1v -4v 4v -8v 12v -8h 1v -8v 16v -12h 1v 8v -4v 8v -4h 1v -12v 16v -8v 8h 1v -24v 20v -12v 4h 1v 8v -8v 4h 1v -12v 20v -20v 12h 1v 4v -8v 4h 1v 4v -4v 4v -12h 1v 12v -4v 4h 1v -16v 16v -8v 8h 1v 4v -16v 12h 1v -16v 16v
 -12v 4h 1v 8v -8v 12h 1v -20v 12v -4v 8v -24v 8h 1v 12h 1v -4v 12v -8v 4h 1v 4v -12v 8v -8h 1v 8h 1v -4v 8v -16h 1v 8v -12v 4h 1v 12v -4v 4v -8h 1v 8v -20v 24v -12h 1v 8v -8v 8v -16v 8h 1v -12v 20h 1v -8v 8v -12v 12h 1v -8v 8v -4v 8h 1v -8v 4v -8v
 12h 1v -20v 16h 1v 4v -24v 12h 1v 8v -16v 20v -8v 8h 1v -16v 16v -16v 16v -8h 1v 8v -20v 16h 1v -8v 8h 1v -12v 8h 1v 4v -8v 8v -16v 16h 1v 4v -16v 4h 1v 4v -8v 4v -4v 16h 1v -20v 16h 1v -12v 16v -12v 4v -8h 1v 12v -12v 12h 1v -16v 20h 1v -8v 4v -12h
 1v 12v -20v 4h 1v 20h 1v -4v 4v -20v 8v -4h 1v 16v -16v 4h 1v 4v -8v 16v -16v 8h 1v -4v 8h 1v -8v 8v -12v 12h 1v -8v 12h 1v -16v 16v -12h 1v 8v -12v 12v -4h 1v -12v 20" fill="none" stroke="#000099"/>
<path d="M284,252v 10" fill="none" stroke="#ff0000" stroke-width="2"/>
<path d="M285,263v 14" fill="none" stroke="#ff0000" stroke-width="2"/>
<path d="M285,272v 7" fill="none" stroke="#ff0000" stroke-width="2"/>
<path d="M286,273v 9" fill="none" stroke="#ff0000" stroke-width="2"/>
<path d="M287,274v 10" fill="none" stroke="#ff0000" stroke-width="2"/>
<path d="M288,276v 9" fill="none" stroke="#ff0000" stroke-width="2"/>
<path d="M289,278v 8" fill="none" stroke="#ff0000" stroke-width="2"/>
<path d="M289,281v 8" fill="none" stroke="#ff0000" stroke-width="2"/>
<path d="M290,282v 9" fill="none" stroke="#ff0000" stroke-width="2"/>
<path d="M291,283v 9" fill="none" stroke="#ff0000" stroke-width="2"/>
<path d="M292,285v 9" fill="none" stroke="#ff0000" stroke-width="2"/>
<path d="M293,287v 8" fill="none" stroke="#ff0000" stroke-width="2"/>
<path d="M293,288v 9" fill="none" stroke="#ff0000" stroke-width="2"/>
<path d="M294,290v 9" fill="none" stroke="#ff0000" stroke-width="2"/>
<path d="M295,291v 8" fill="none" stroke="#ff0000" stroke-width="2"/>
<path d="M296,291v 9" fill="none" stroke="#ff0000" stroke-width="2"/>
<path d="M297,294v 8" fill="none" stroke="#ff0000" stroke-width="2"/>
<path d="M298,295v 9" fill="none" stroke="#ff0000" stroke-width="2"/>
<path d="M298,296v 8" fill="none" stroke="#ff0000" stroke-width="2"/>
<path d="M299,297v 8" fill="none" stroke="#ff0000" stroke-width="2"/>
<path d="M300,298v 9" fill="none" stroke="#ff0000" stroke-width="2"/>
<path d="M301,299v 9" fill="none" stroke="#ff0000" stroke-width="2"/>
<path d="M302,300v 9" fill="none" stroke="#ff0000" stroke-width="2"/>
<path d="M302,301v 9" fill="none" stroke="#ff0000" stroke-width="2"/>
<path d="M303,302v 9" fill="none" stroke="#ff0000" stroke-width="2"/>
<path d="M304,304v 8" fill="none" stroke="#ff0000" stroke-width="2"/>
<path d="M305,304v 9" fill="none" stroke="#ff0000" stroke-width="2"/>
<path d="M306,305v 9" fill="none" stroke="#ff0000" stroke-width="2"/>
<path d="M307,306v 9" fill="none" stroke="#ff0000" stroke-width="2"/>
<path d="M307,307v 8" fill="none" stroke="#ff0000" stroke-width="2"/>
<path d="M308,308v 8" fill="none" stroke="#ff0000" stroke-width="2"/>
<path d="M309,308v 9" fill="none" stroke="#ff0000" stroke-width="2"/>
<path d="M310,309v 9" fill="none" stroke="#ff0000" stroke-width="2"/>
<path d="M311,310v 8" fill="none" stroke="#ff0000" stroke-width="2"/>
<path d="M311,311v 8" fill="none" stroke="#ff0000" stroke-width="2"/>
<path d="M312,312v 8" fill="none" stroke="#ff0000" stroke-width="2"/>
<path d="M313,313v 8" fill="none" stroke="#ff0000" stroke-width="2"/>
<path d="M314,313v 8" fill="none" stroke="#ff0000" stroke-width="2"/>
<path d="M315,313v 8" fill="none" stroke="#ff0000" stroke-width="2"/>
<path d="M315,314v 8" fill="none" stroke="#ff0000" stroke-width="2"/>
<path d="M316,315v 8" fill="none" stroke="#ff0000" stroke-width="2"/>
<path d="M317,315v 9" fill="none" stroke="#ff0000" stroke-width="2"/>
<path d="M318,316v 8" fill="none" stroke="#ff0000" stroke-width="2"/>
<path d="M319,316v 9" fill="none" stroke="#ff0000" stroke-width="2"/>
<path d="M320,317v 8" fill="none" stroke="#ff0000" stroke-width="2"/>
<path d="M320,317v 9" fill="none" stroke="#ff0000" stroke-width="2"/>
<path d="M321,318v 8" fill="none" stroke="#ff0000" stroke-width="2"/>
<path d="M322,318v 8" fill="none" stroke="#ff0000" stroke-width="2"/>
<path d="M323,319v 8" fill="none" stroke="#ff0000" stroke-width="2"/>
<path d="M324,319v 9" fill="none" stroke="#ff0000" stroke-width="2"/>
<path d="M324,320v 8" fill="none" stroke="#ff0000" stroke-width="2"/>
<path d="M325,320v 9" fill="none" stroke="#ff0000" stroke-width="2"/>
<path d="M326,321v 8" fill="none" stroke="#ff0000" stroke-width="2"/>
<path d="M327,321v 8" fill="none" stroke="#ff0000" stroke-width="2"/>
<path d="M328,321v 9" fill="none" stroke="#ff0000" stroke-width="2"/>
<path d="M329,321v 9" fill="none" stroke="#ff0000" stroke-width="2"/>
<path d="M329,321v 9" fill="none" stroke="#ff0000" stroke-width="2"/>
<path d="M330,322v 8" fill="none" stroke="#ff0000" stroke-width="2"/>
<path d="M331,322v 8" fill="none" stroke="#ff0000" stroke-width="2"/>
<path d="M332,323v 8" fill="none" stroke="#ff0000" stroke-width="2"/>
<path d="M333,323v 8" fill="none" stroke="#ff0000" stroke-width="2"/>
<path d="M333,323v 9" fill="none" stroke="#ff0000" stroke-width="2"/>
<path d="M334,324v 8" fill="none" stroke="#ff0000" stroke-width="2"/>
<path d="M335,324v 9" fill="none" stroke="#ff0000" stroke-width="2"/>
<path d="M336,325v 8" fill="none" stroke="#ff0000" stroke-width="2"/>
<path d="M337,325v 8" fill="none" stroke="#ff0000" stroke-width="2"/>
<path d="M337,325v 8" fill="none" stroke="#ff0000" stroke-width="2"/>
<path d="M338,326v 8" fill="none" stroke="#ff0000" stroke-width="2"/>
<path d="M339,326v 8" fill="none" stroke="#ff0000" stroke-width="2"/>
<path d="M340,326v 8" fill="none" stroke="#ff0000" stroke-width="2"/>
<path d="M341,326v 8" fill="none" stroke="#ff0000" stroke-width="2"/>
<path d="M342,326v 8" fill="none" stroke="#ff0000" stroke-width="2"/>
<path d="M342,326v 8" fill="none" stroke="#ff0000" stroke-width="2"/>
<path d="M343,326v 8" fill="none" stroke="#ff0000" stroke-width="2"/>
<path d="M344,326v 9" fill="none" stroke="#ff0000" stroke-width="2"/>
<path d="M345,326v 9" fill="none" stroke="#ff0000" stroke-width="2"/>
<path d="M346,327v 8" fill="none" stroke="#ff0000" stroke-width="2"/>
<path d="M346,327v 8" fill="none" stroke="#ff0000" stroke-width="2"/>
<path d="M347,327v 8" fill="none" stroke="#ff0000" stroke-width="2"/>
<path d="M348,327v 9" fill="none" stroke="#ff0000" stroke-width="2"/>
<path d="M349,328v 8" fill="none" stroke="#ff0000" stroke-width="2"/>
<path d="M350,328v 8" fill="none" stroke="#ff0000" stroke-width="2"/>
<path d="M351,328v 8" fill="none" stroke="#ff0000" stroke-width="2"/>
<path d="M351,328v 8" fill="none" stroke="#ff0000" stroke-width="2"/>
<path d="M352,328v 8" fill="none" stroke="#ff0000" stroke-width="2"/>
<path d="M353,329v 8" fill="none" stroke="#ff0000" stroke-width="2"/>
<path d="M354,329v 8" fill="none" stroke="#ff0000" stroke-width="2"/>
<path d="M355,329v 8" fill="none" stroke="#ff0000" stroke-width="2"/>
<path d="M355,329v 8" fill="none" stroke="#ff0000" stroke-width="2"/>
<path d="M356,329v 8" fill="none" stroke="#ff0000" stroke-width="2"/>
<path d="M357,329v 8" fill="none" stroke="#ff0000" stroke-width="2"/>
<path d="M358,329v 9" fill="none" stroke="#ff0000" stroke-width="2"/>
<path d="M359,330v 8" fill="none" stroke="#ff0000" stroke-width="2"/>
<path d="M359,330v 8" fill="none" stroke="#ff0000" stroke-width="2"/>
<path d="M360,330v 8" fill="none" stroke="#ff0000" stroke-width="2"/>
<path d="M361,330v 8" fill="none" stroke="#ff0000" stroke-width="2"/>
<path d="M362,330v 8" fill="none" stroke="#ff0000" stroke-width="2"/>
<path d="M363,330v 8" fill="none" stroke="#ff0000" stroke-width="2"/>
<path d="M364,330v 8" fill="none" stroke="#ff0000" stroke-width="2"/>
<path d="M364,330v 8" fill="none" stroke="#ff0000" stroke-width="2"/>
<path d="M365,330v 9" fill="none" stroke="#ff0000" stroke-width="2"/>
<path d="M366,330v 9" fill="none" stroke="#ff0000" stroke-width="2"/>
<path d="M367,330v 9" fill="none" stroke="#ff0000" stroke-width="2"/>
<path d="M368,330v 9" fill="none" stroke="#ff0000" stroke-width="2"/>
<path d="M368,330v 9" fill="none" stroke="#ff0000" stroke-width="2"/>
<path d="M369,330v 9" fill="none" stroke="#ff0000" stroke-width="2"/>
<path d="M370,330v 9" fill="none" stroke="#ff0000" stroke-width="2"/>
<path d="M371,330v 9" fill="none" stroke="#ff0000" stroke-width="2"/>
<path d="M372,330v 9" fill="none" stroke="#ff0000" stroke-width="2"/>
<path d="M372,330v 9" fill="none" stroke="#ff0000" stroke-width="2"/>
<path d="M373,330v 9" fill="none" stroke="#ff0000" stroke-width="2"/>
<path d="M374,330v 9" fill="none" stroke="#ff0000" stroke-width="2"/>
<path d="M375,330v 9" fill="none" stroke="#ff0000" stroke-width="2"/>
<path d="M376,331v 8" fill="none" stroke="#ff0000" stroke-width="2"/>
<path d="M377,331v 8" fill="none" stroke="#ff0000" stroke-width="2"/>
<path d="M377,331v 8" fill="none" stroke="#ff0000" stroke-width="2"/>
<path d="M378,331v 8" fill="none" stroke="#ff0000" stroke-width="2"/>
<path d="M379,331v 8" fill="none" stroke="#ff0000" stroke-width="2"/>
<path d="M380,331v 8" fill="none" stroke="#ff0000" stroke-width="2"/>
<path d="M381,331v 8" fill="none" stroke="#ff0000" stroke-width="2"/>
<path d="M381,331v 8" fill="none" stroke="#ff0000" stroke-width="2"/>
<path d="M382,331v 8" fill="none" stroke="#ff0000" stroke-width="2"/>
<path d="M383,331v 8" fill="none" stroke="#ff0000" stroke-width="2"/>
<path d="M384,331v 8" fill="none" stroke="#ff0000" stroke-width="2"/>
<path d="M385,331v 8" fill="none" stroke="#ff0000" stroke-width="2"/>
<path d="M386,331v 8" fill="none" stroke="#ff0000" stroke-width="2"/>
<path d="M386,331v 8" fill="none" stroke="#ff0000" stroke-width="2"/>
<path d="M387,331v 8" fill="none" stroke="#ff0000" stroke-width="2"/>
<path d="M388,331v 8" fill="none" stroke="#ff0000" stroke-width="2"/>
<path d="M389,331v 8" fill="none" stroke="#ff0000" stroke-width="2"/>
<path d="M390,331v 8" fill="none" stroke="#ff0000" stroke-width="2"/>
<path d="M390,331v 9" fill="none" stroke="#ff0000" stroke-width="2"/>
<path d="M391,331v 9" fill="none" stroke="#ff0000" stroke-width="2"/>
<path d="M392,331v 9" fill="none" stroke="#ff0000" stroke-width="2"/>
<path d="M393,331v 9" fill="none" stroke="#ff0000" stroke-width="2"/>
<path d="M394,332v 8" fill="none" stroke="#ff0000" stroke-width="2"/>
<path d="M394,332v 8" fill="none" stroke="#ff0000" stroke-width="2"/>
<path d="M395,332v 8" fill="none" stroke="#ff0000" stroke-width="2"/>
<path d="M396,332v 8" fill="none" stroke="#ff0000" stroke-width="2"/>
<path d="M397,332v 8" fill="none" stroke="#ff0000" stroke-width="2"/>
<path d="M398,332v 8" fill="none" stroke="#ff0000" stroke-width="2"/>
<path d="M399,332v 8" fill="none" stroke="#ff0000" stroke-width="2"/>
<path d="M399,332v 8" fill="none" stroke="#ff0000" stroke-width="2"/>
<path d="M400,332v 8" fill="none" stroke="#ff0000" stroke-width="2"/>
<path d="M401,332v 8" fill="none" stroke="#ff0000" stroke-width="2"/>
<path d="M402,332v 8" fill="none" stroke="#ff0000" stroke-width="2"/>
<path d="M403,332v 8" fill="none" stroke="#ff0000" stroke-width="2"/>
<path d="M403,332v 8" fill="none" stroke="#ff0000" stroke-width="2"/>
<path d="M404,332v 8" fill="none" stroke="#ff0000" stroke-width="2"/>
<path d="M405,332v 8" fill="none" stroke="#ff0000" stroke-width="2"/>
<path d="M406,332v 8" fill="none" stroke="#ff0000" stroke-width="2"/>
<path d="M407,332v 8" fill="none" stroke="#ff0000" stroke-width="2"/>
<path d="M408,332v 8" fill="none" stroke="#ff0000" stroke-width="2"/>
<path d="M408,332v 8" fill="none" stroke="#ff0000" stroke-width="2"/>
<path d="M409,332v 8" fill="none" stroke="#ff0000" stroke-width="2"/>
<path d="M410,332v 8" fill="none" stroke="#ff0000" stroke-width="2"/>
<path d="M411,332v 8" fill="none" stroke="#ff0000" stroke-width="2"/>
<path d="M412,332v 8" fill="none" stroke="#ff0000" stroke-width="2"/>
<path d="M412,332v 8" fill="none" stroke="#ff0000" stroke-width="2"/>
<path d="M413,332v 8" fill="none" stroke="#ff0000" stroke-width="2"/>
<path d="M414,332v 8" fill="none" stroke="#ff0000" stroke-width="2"/>
<path d="M415,332v 8" fill="none" stroke="#ff0000" stroke-width="2"/>
<path d="M416,332v 8" fill="none" stroke="#ff0000" stroke-width="2"/>
<path d="M416,332v 8" fill="none" stroke="#ff0000" stroke-width="2"/>
<path d="M417,332v 8" fill="none" stroke="#ff0000" stroke-width="2"/>
<path d="M418,332v 8" fill="none" stroke="#ff0000" stroke-width="2"/>
<path d="M419,332v 8" fill="none" stroke="#ff0000" stroke-width="2"/>
<path d="M420,332v 8" fill="none" stroke="#ff0000" stroke-width="2"/>
<path d="M421,332v 8" fill="none" stroke="#ff0000" stroke-width="2"/>
<path d="M421,332v 8" fill="none" stroke="#ff0000" stroke-width="2"/>
<path d="M422,332v 8" fill="none" stroke="#ff0000" stroke-width="2"/>
<path d="M423,332v 8" fill="none" stroke="#ff0000" stroke-width="2"/>
<path d="M424,332v 8" fill="none" stroke="#ff0000" stroke-width="2"/>
<path d="M425,332v 8" fill="none" stroke="#ff0000" stroke-width="2"/>
<path d="M425,332v 8" fill="none" stroke="#ff0000" stroke-width="2"/>
<path d="M426,332v 8" fill="none" stroke="#ff0000" stroke-width="2"/>
<path d="M427,332v 8" fill="none" stroke="#ff0000" stroke-width="2"/>
<path d="M428,332v 8" fill="none" stroke="#ff0000" stroke-width="2"/>
<path d="M429,332v 8" fill="none" stroke="#ff0000" stroke-width="2"/>
<path d="M430,332v 8" fill="none" stroke="#ff0000" stroke-width="2"/>
<path d="M430,332v 8" fill="none" stroke="#ff0000" stroke-width="2"/>
<path d="M431,332v 8" fill="none" stroke="#ff0000" stroke-width="2"/>
<path d="M432,332v 8" fill="none" stroke="#ff0000" stroke-width="2"/>
<path d="M433,332v 8" fill="none" stroke="#ff0000" stroke-width="2"/>
<path d="M434,332v 8" fill="none" stroke="#ff0000" stroke-width="2"/>
<path d="M434,332v 8" fill="none" stroke="#ff0000" stroke-width="2"/>
<path d="M435,332v 8" fill="none" stroke="#ff0000" stroke-width="2"/>
<path d="M436,332v 8" fill="none" stroke="#ff0000" stroke-width="2"/>
<path d="M437,332v 8" fill="none" stroke="#ff0000" stroke-width="2"/>
<path d="M438,332v 8" fill="none" stroke="#ff0000" stroke-width="2"/>
<path d="M438,332v 8" fill="none" stroke="#ff0000" stroke-width="2"/>
<path d="M439,332v 8" fill="none" stroke="#ff0000" stroke-width="2"/>
<path d="M440,332v 8" fill="none" stroke="#ff0000" stroke-width="2"/>
<path d="M441,332v 8" fill="none" stroke="#ff0000" stroke-width="2"/>
<path d="M442,332v 9" fill="none" stroke="#ff0000" stroke-width="2"/>
<path d="M443,332v 9" fill="none" stroke="#ff0000" stroke-width="2"/>
<path d="M443,332v 9" fill="none" stroke="#ff0000" stroke-width="2"/>
<path d="M444,332v 8" fill="none" stroke="#ff0000" stroke-width="2"/>
<path d="M445,332v 9" fill="none" stroke="#ff0000" stroke-width="2"/>
<path d="M446,332v 9" fill="none" stroke="#ff0000" stroke-width="2"/>
<path d="M447,332v 9" fill="none" stroke="#ff0000" stroke-width="2"/>
<path d="M447,332v 9" fill="none" stroke="#ff0000" stroke-width="2"/>
<path d="M448,332v 9" fill="none" stroke="#ff0000" stroke-width="2"/>
<path d="M449,332v 9" fill="none" stroke="#ff0000" stroke-width="2"/>
<path d="M450,332v 9" fill="none" stroke="#ff0000" stroke-width="2"/>
<path d="M451,332v 9" fill="none" stroke="#ff0000" stroke-width="2"/>
<path d="M452,332v 9" fill="none" stroke="#ff0000" stroke-width="2"/>
<path d="M452,332v 9" fill="none" stroke="#ff0000" stroke-width="2"/>
<path d="M453,332v 9" fill="none" stroke="#ff0000" stroke-width="2"/>
<path d="M454,332v 9" fill="none" stroke="#ff0000" stroke-width="2"/>
<path d="M455,332v 9" fill="none" stroke="#ff0000" stroke-width="2"/>
<path d="M456,332v 9" fill="none" stroke="#ff0000" stroke-width="2"/>
<path d="M456,332v 9" fill="none" stroke="#ff0000" stroke-width="2"/>
<path d="M457,332v 9" fill="none" stroke="#ff0000" stroke-width="2"/>
<path d="M458,332v 9" fill="none" stroke="#ff0000" stroke-width="2"/>
<path d="M459,332v 9" fill="none" stroke="#ff0000" stroke-width="2"/>
<path d="M460,332v 9" fill="none" stroke="#ff0000" stroke-width="2"/>
<path d="M460,332v 9" fill="none" stroke="#ff0000" stroke-width="2"/>
<path d="M461,332v 9" fill="none" stroke="#ff0000" stroke-width="2"/>
<path d="M462,332v 9" fill="none" stroke="#ff0000" stroke-width="2"/>
<path d="M463,332v 9" fill="none" stroke="#ff0000" stroke-width="2"/>
<path d="M464,332v 9" fill="none" stroke="#ff0000" stroke-width="2"/>
<path d="M465,332v 9" fill="none" stroke="#ff0000" stroke-width="2"/>
<path d="M465,332v 9" fill="none" stroke="#ff0000" stroke-width="2"/>
<path d="M466,332v 9" fill="none" stroke="#ff0000" stroke-width="2"/>
<path d="M467,332v 9" fill="none" stroke="#ff0000" stroke-width="2"/>
<path d="M468,332v 9" fill="none" stroke="#ff0000" stroke-width="2"/>
<path d="M469,332v 9" fill="none" stroke="#ff0000" stroke-width="2"/>
<path d="M469,332v 9" fill="none" stroke="#ff0000" stroke-width="2"/>
<path d="M470,332v 9" fill="none" stroke="#ff0000" stroke-width="2"/>
<path d="M471,332v 9" fill="none" stroke="#ff0000" stroke-width="2"/>
<path d="M472,332v 9" fill="none" stroke="#ff0000" stroke-width="2"/>
<path d="M473,332v 9" fill="none" stroke="#ff0000" stroke-width="2"/>
<path d="M473,332v 9" fill="none" stroke="#ff0000" stroke-width="2"/>
<path d="M474,332v 9" fill="none" stroke="#ff0000" stroke-width="2"/>
<path d="M475,332v 9" fill="none" stroke="#ff0000" stroke-width="2"/>
<path d="M476,332v 9" fill="none" stroke="#ff0000" stroke-width="2"/>
<path d="M477,332v 9" fill="none" stroke="#ff0000" stroke-width="2"/>
<path d="M478,332v 9" fill="none" stroke="#ff0000" stroke-width="2"/>
<path d="M478,332v 9" fill="none" stroke="#ff0000" stroke-width="2"/>
<path d="M479,332v 9" fill="none" stroke="#ff0000" stroke-width="2"/>
<path d="M480,332v 9" fill="none" stroke="#ff0000" stroke-width="2"/>
<path d="M481,332v 9" fill="none" stroke="#ff0000" stroke-width="2"/>
<path d="M482,332v 9" fill="none" stroke="#ff0000" stroke-width="2"/>
<path d="M482,332v 9" fill="none" stroke="#ff0000" stroke-width="2"/>
<path d="M483,332v 9" fill="none" stroke="#ff0000" stroke-width="2"/>
<path d="M484,332v 9" fill="none" stroke="#ff0000" stroke-width="2"/>
<path d="M485,332v 9" fill="none" stroke="#ff0000" stroke-width="2"/>
<path d="M486,332v 9" fill="none" stroke="#ff0000" stroke-width="2"/>
<path d="M487,332v 9" fill="none" stroke="#ff0000" stroke-width="2"/>
<path d="M487,332v 9" fill="none" stroke="#ff0000" stroke-width="2"/>
<path d="M488,332v 9" fill="none" stroke="#ff0000" stroke-width="2"/>
<path d="M489,332v 9" fill="none" stroke="#ff0000" stroke-width="2"/>
<path d="M490,332v 9" fill="none" stroke="#ff0000" stroke-width="2"/>
<path d="M491,332v 9" fill="none" stroke="#ff0000" stroke-width="2"/>
<path d="M491,332v 9" fill="none" stroke="#ff0000" stroke-width="2"/>
<path d="M492,332v 9" fill="none" stroke="#ff0000" stroke-width="2"/>
<path d="M493,332v 9" fill="none" stroke="#ff0000" stroke-width="2"/>
<path d="M494,332v 9" fill="none" stroke="#ff0000" stroke-width="2"/>
<path d="M495,332v 9" fill="none" stroke="#ff0000" stroke-width="2"/>
<path d="M495,332v 9" fill="none" stroke="#ff0000" stroke-width="2"/>
<path d="M496,332v 9" fill="none" stroke="#ff0000" stroke-width="2"/>
<path d="M497,332v 9" fill="none" stroke="#ff0000" stroke-width="2"/>
<path d="M498,333v 8" fill="none" stroke="#ff0000" stroke-width="2"/>
<path d="M499,332v 9" fill="none" stroke="#ff0000" stroke-width="2"/>
<path d="M500,332v 9" fill="none" stroke="#ff0000" stroke-width="2"/>
<path d="M500,332v 9" fill="none" stroke="#ff0000" stroke-width="2"/>
<path d="M501,332v 9" fill="none" stroke="#ff0000" stroke-width="2"/>
<path d="M502,332v 9" fill="none" stroke="#ff0000" stroke-width="2"/>
<path d="M503,332v 9" fill="none" stroke="#ff0000" stroke-width="2"/>
<path d="M504,332v 9" fill="none" stroke="#ff0000" stroke-width="2"/>
<path d="M504,332v 9" fill="none" stroke="#ff0000" stroke-width="2"/>
<path d="M505,333v 8" fill="none" stroke="#ff0000" stroke-width="2"/>
<path d="M506,332v 9" fill="none" stroke="#ff0000" stroke-width="2"/>
<path d="M507,332v 9" fill="none" stroke="#ff0000" stroke-width="2"/>
<path d="M508,332v 9" fill="none" stroke="#ff0000" stroke-width="2"/>
<path d="M509,332v 9" fill="none" stroke="#ff0000" stroke-width="2"/>
<path d="M509,332v 9" fill="none" stroke="#ff0000" stroke-width="2"/>
<path d="M510,333v 8" fill="none" stroke="#ff0000" stroke-width="2"/>
<path d="M284,257l 1, 12v 6l 1, 2l 1, 2l 1, 1l 1, 2v 3l 1, 1l 1, 1l 1, 2l 1, 2v 1l 1, 2l 1, 1h 1l 1, 3l 1, 1v 1l 1, 1l 1, 1l 1, 2h 1v 1l 1, 1l 1, 2h 1l 1, 1l 1, 1v 1l 1, 1l 1, 1h 1l 1, 1v 1l 1, 1l 1, 1h 2v 1l 1, 1h 1l 1, 1h 1l 1, 1l 1, 1h 1l 1, 1h 1v
 1h 1l 1, 1h 1l 1, 1h 3l 1, 1h 1l 1, 1h 1l 1, 1h 1l 1, 1h 7l 1, 1h 2l 1, 1h 3l 1, 1h 5l 1, 1h 16l 1, 1h 17l 1, 1h 103l 1, 1l 1, -1h 5l 1, 1l 1, -1h 3l 1, 1" fill="none" stroke="#ff0000" stroke-width="2"/>
<rect x="351" y="25" width="205" height="169" fill="white"/>
<path d="M351,194h 205" fill="none" stroke="black"/>
<path d="M556,194v -169" fill="none" stroke="black"/>
<path d="M556,25h -205" fill="none" stroke="black"/>
<path d="M351,25v 169" fill="none" stroke="black"/>
<text x="362" y="37" fill="black" font-size="14" font-family="Helvetica">
Entries 
</text>
<text x="508" y="37" fill="black" font-size="14" font-family="Helvetica">
 8150
</text>
<text x="374" y="56" fill="black" font-size="14" font-family="Helvetica">
 / ndf 
</text>
<text x="369" y="45" fill="black" font-size="9" font-family="Helvetica">
2
</text>
<text x="362" y="56" fill="black" font-size="14" font-family="Times">
&#0967;
</text>
<text x="459" y="53" fill="black" font-size="14" font-family="Helvetica">
  2085 / 1239
</text>
<text x="381" y="67" fill="black" font-size="14" font-family="Helvetica">
   
</text>
<text x="371" y="76" fill="black" font-size="9" font-family="Helvetica">
cu
</text>
<text x="362" y="67" fill="black" font-size="14" font-family="Helvetica">
N
</text>
<text x="512" y="72" fill="black" font-size="14" font-family="Helvetica">
 16.7
</text>
<text x="501" y="72" fill="black" font-size="14" font-family="Times">
&#0177;
</text>
<text x="456" y="72" fill="black" font-size="14" font-family="Helvetica">
 141.1 
</text>
<text x="376" y="86" fill="black" font-size="14" font-family="Helvetica">
 
</text>
<text x="367" y="96" fill="black" font-size="9" font-family="Helvetica">
cu
</text>
<text x="362" y="86" fill="black" font-size="14" font-family="Times">
&#0964;
</text>
<text x="512" y="89" fill="black" font-size="14" font-family="Helvetica">
 4.60
</text>
<text x="501" y="89" fill="black" font-size="14" font-family="Times">
&#0177;
</text>
<text x="456" y="89" fill="black" font-size="14" font-family="Helvetica">
 15.57 
</text>
<text x="374" y="102" fill="black" font-size="14" font-family="Helvetica">
    
</text>
<text x="371" y="110" fill="black" font-size="9" font-family="Helvetica">
f
</text>
<text x="362" y="102" fill="black" font-size="14" font-family="Helvetica">
N
</text>
<text x="512" y="106" fill="black" font-size="14" font-family="Helvetica">
 0.44
</text>
<text x="501" y="106" fill="black" font-size="14" font-family="Times">
&#0177;
</text>
<text x="458" y="106" fill="black" font-size="14" font-family="Helvetica">
 16.11 
</text>
<text x="369" y="120" fill="black" font-size="14" font-family="Helvetica">
 
</text>
<text x="367" y="130" fill="black" font-size="9" font-family="Helvetica">
f
</text>
<text x="362" y="120" fill="black" font-size="14" font-family="Times">
&#0964;
</text>
<text x="520" y="124" fill="black" font-size="14" font-family="Helvetica">
 0.0
</text>
<text x="509" y="124" fill="black" font-size="14" font-family="Times">
&#0177;
</text>
<text x="464" y="124" fill="black" font-size="14" font-family="Helvetica">
  2197 
</text>
<text x="384" y="136" fill="black" font-size="14" font-family="Helvetica">
  
</text>
<text x="371" y="145" fill="black" font-size="9" font-family="Helvetica">
sin
</text>
<text x="362" y="136" fill="black" font-size="14" font-family="Helvetica">
N
</text>
<text x="512" y="141" fill="black" font-size="14" font-family="Helvetica">
 17.4
</text>
<text x="501" y="141" fill="black" font-size="14" font-family="Times">
&#0177;
</text>
<text x="468" y="141" fill="black" font-size="14" font-family="Helvetica">
     1 
</text>
<text x="367" y="157" fill="black" font-size="14" font-family="Helvetica">
     
</text>
<text x="362" y="157" fill="black" font-size="14" font-family="Times">
&#0966;
</text>
<text x="488" y="157" fill="black" font-size="14" font-family="Helvetica">
 5.0e+01
</text>
<text x="477" y="157" fill="black" font-size="14" font-family="Times">
&#0177;
</text>
<text x="419" y="157" fill="black" font-size="14" font-family="Helvetica">
 6.7e-12 
</text>
<text x="362" y="172" fill="black" font-size="14" font-family="Helvetica">
T        
</text>
<text x="512" y="174" fill="black" font-size="14" font-family="Helvetica">
 0.01
</text>
<text x="501" y="174" fill="black" font-size="14" font-family="Times">
&#0177;
</text>
<text x="456" y="174" fill="black" font-size="14" font-family="Helvetica">
 59.13 
</text>
<text x="376" y="186" fill="black" font-size="14" font-family="Helvetica">
    
</text>
<text x="371" y="195" fill="black" font-size="9" font-family="Helvetica">
b
</text>
<text x="362" y="186" fill="black" font-size="14" font-family="Helvetica">
N
</text>
<text x="504" y="191" fill="black" font-size="14" font-family="Helvetica">
 0.050
</text>
<text x="493" y="191" fill="black" font-size="14" font-family="Times">
&#0177;
</text>
<text x="448" y="191" fill="black" font-size="14" font-family="Helvetica">
 2.292 
</text>
<path d="M57,346h 453" fill="none" stroke="black"/>
<text x="419" y="372" fill="black" font-size="12" font-family="Helvetica">
TDC-TDC0 (ns)
</text>
<path d="M57,337v 9" fill="none" stroke="black"/>
<path d="M68,342v 4" fill="none" stroke="black"/>
<path d="M79,342v 4" fill="none" stroke="black"/>
<path d="M91,342v 4" fill="none" stroke="black"/>
<path d="M102,342v 4" fill="none" stroke="black"/>
<path d="M113,337v 9" fill="none" stroke="black"/>
<path d="M125,342v 4" fill="none" stroke="black"/>
<path d="M136,342v 4" fill="none" stroke="black"/>
<path d="M147,342v 4" fill="none" stroke="black"/>
<path d="M159,342v 4" fill="none" stroke="black"/>
<path d="M170,337v 9" fill="none" stroke="black"/>
<path d="M181,342v 4" fill="none" stroke="black"/>
<path d="M193,342v 4" fill="none" stroke="black"/>
<path d="M204,342v 4" fill="none" stroke="black"/>
<path d="M215,342v 4" fill="none" stroke="black"/>
<path d="M227,337v 9" fill="none" stroke="black"/>
<path d="M238,342v 4" fill="none" stroke="black"/>
<path d="M249,342v 4" fill="none" stroke="black"/>
<path d="M261,342v 4" fill="none" stroke="black"/>
<path d="M272,342v 4" fill="none" stroke="black"/>
<path d="M283,337v 9" fill="none" stroke="black"/>
<path d="M295,342v 4" fill="none" stroke="black"/>
<path d="M306,342v 4" fill="none" stroke="black"/>
<path d="M317,342v 4" fill="none" stroke="black"/>
<path d="M329,342v 4" fill="none" stroke="black"/>
<path d="M340,337v 9" fill="none" stroke="black"/>
<path d="M351,342v 4" fill="none" stroke="black"/>
<path d="M363,342v 4" fill="none" stroke="black"/>
<path d="M374,342v 4" fill="none" stroke="black"/>
<path d="M386,342v 4" fill="none" stroke="black"/>
<path d="M397,337v 9" fill="none" stroke="black"/>
<path d="M408,342v 4" fill="none" stroke="black"/>
<path d="M420,342v 4" fill="none" stroke="black"/>
<path d="M431,342v 4" fill="none" stroke="black"/>
<path d="M442,342v 4" fill="none" stroke="black"/>
<path d="M454,337v 9" fill="none" stroke="black"/>
<path d="M465,342v 4" fill="none" stroke="black"/>
<path d="M476,342v 4" fill="none" stroke="black"/>
<path d="M488,342v 4" fill="none" stroke="black"/>
<path d="M499,342v 4" fill="none" stroke="black"/>
<path d="M510,337v 9" fill="none" stroke="black"/>
<text x="36" y="359" fill="black" font-size="12" font-family="Helvetica">
-20000
</text>
<text x="93" y="359" fill="black" font-size="12" font-family="Helvetica">
-15000
</text>
<text x="149" y="359" fill="black" font-size="12" font-family="Helvetica">
-10000
</text>
<text x="210" y="359" fill="black" font-size="12" font-family="Helvetica">
-5000
</text>
<text x="280" y="359" fill="black" font-size="12" font-family="Helvetica">
0
</text>
<text x="325" y="359" fill="black" font-size="12" font-family="Helvetica">
5000
</text>
<text x="379" y="359" fill="black" font-size="12" font-family="Helvetica">
10000
</text>
<text x="435" y="359" fill="black" font-size="12" font-family="Helvetica">
15000
</text>
<text x="492" y="359" fill="black" font-size="12" font-family="Helvetica">
20000
</text>
<path d="M57,346v -308" fill="none" stroke="black"/>
<g transform="rotate(-90,29,72)">
<text x="29" y="72" fill="black" font-size="12" font-family="Helvetica">
Count
</text>
</g>
<path d="M70,346h -13" fill="none" stroke="black"/>
<path d="M63,338h -6" fill="none" stroke="black"/>
<path d="M63,330h -6" fill="none" stroke="black"/>
<path d="M63,322h -6" fill="none" stroke="black"/>
<path d="M63,313h -6" fill="none" stroke="black"/>
<path d="M70,305h -13" fill="none" stroke="black"/>
<path d="M63,297h -6" fill="none" stroke="black"/>
<path d="M63,289h -6" fill="none" stroke="black"/>
<path d="M63,280h -6" fill="none" stroke="black"/>
<path d="M63,272h -6" fill="none" stroke="black"/>
<path d="M70,264h -13" fill="none" stroke="black"/>
<path d="M63,256h -6" fill="none" stroke="black"/>
<path d="M63,247h -6" fill="none" stroke="black"/>
<path d="M63,239h -6" fill="none" stroke="black"/>
<path d="M63,231h -6" fill="none" stroke="black"/>
<path d="M70,222h -13" fill="none" stroke="black"/>
<path d="M63,214h -6" fill="none" stroke="black"/>
<path d="M63,206h -6" fill="none" stroke="black"/>
<path d="M63,198h -6" fill="none" stroke="black"/>
<path d="M63,189h -6" fill="none" stroke="black"/>
<path d="M70,181h -13" fill="none" stroke="black"/>
<path d="M63,173h -6" fill="none" stroke="black"/>
<path d="M63,165h -6" fill="none" stroke="black"/>
<path d="M63,156h -6" fill="none" stroke="black"/>
<path d="M63,148h -6" fill="none" stroke="black"/>
<path d="M70,140h -13" fill="none" stroke="black"/>
<path d="M63,131h -6" fill="none" stroke="black"/>
<path d="M63,123h -6" fill="none" stroke="black"/>
<path d="M63,115h -6" fill="none" stroke="black"/>
<path d="M63,107h -6" fill="none" stroke="black"/>
<path d="M70,98h -13" fill="none" stroke="black"/>
<path d="M63,90h -6" fill="none" stroke="black"/>
<path d="M63,82h -6" fill="none" stroke="black"/>
<path d="M63,74h -6" fill="none" stroke="black"/>
<path d="M63,65h -6" fill="none" stroke="black"/>
<path d="M70,57h -13" fill="none" stroke="black"/>
<path d="M70,57h -13" fill="none" stroke="black"/>
<path d="M63,49h -6" fill="none" stroke="black"/>
<path d="M63,41h -6" fill="none" stroke="black"/>
<text x="47" y="350" fill="black" font-size="12" font-family="Helvetica">
0
</text>
<text x="40" y="308" fill="black" font-size="12" font-family="Helvetica">
10
</text>
<text x="40" y="268" fill="black" font-size="12" font-family="Helvetica">
20
</text>
<text x="40" y="226" fill="black" font-size="12" font-family="Helvetica">
30
</text>
<text x="40" y="185" fill="black" font-size="12" font-family="Helvetica">
40
</text>
<text x="40" y="143" fill="black" font-size="12" font-family="Helvetica">
50
</text>
<text x="40" y="102" fill="black" font-size="12" font-family="Helvetica">
60
</text>
<text x="40" y="61" fill="black" font-size="12" font-family="Helvetica">
70
</text>
<rect x="351" y="25" width="205" height="169" fill="white"/>
<path d="M351,194h 205" fill="none" stroke="black"/>
<path d="M556,194v -169" fill="none" stroke="black"/>
<path d="M556,25h -205" fill="none" stroke="black"/>
<path d="M351,25v 169" fill="none" stroke="black"/>
<text x="362" y="37" fill="black" font-size="14" font-family="Helvetica">
Entries 
</text>
<text x="508" y="37" fill="black" font-size="14" font-family="Helvetica">
 8150
</text>
<text x="374" y="56" fill="black" font-size="14" font-family="Helvetica">
 / ndf 
</text>
<text x="369" y="45" fill="black" font-size="9" font-family="Helvetica">
2
</text>
<text x="362" y="56" fill="black" font-size="14" font-family="Times">
&#0967;
</text>
<text x="459" y="53" fill="black" font-size="14" font-family="Helvetica">
  2085 / 1239
</text>
<text x="381" y="67" fill="black" font-size="14" font-family="Helvetica">
   
</text>
<text x="371" y="76" fill="black" font-size="9" font-family="Helvetica">
cu
</text>
<text x="362" y="67" fill="black" font-size="14" font-family="Helvetica">
N
</text>
<text x="512" y="72" fill="black" font-size="14" font-family="Helvetica">
 16.7
</text>
<text x="501" y="72" fill="black" font-size="14" font-family="Times">
&#0177;
</text>
<text x="456" y="72" fill="black" font-size="14" font-family="Helvetica">
 141.1 
</text>
<text x="376" y="86" fill="black" font-size="14" font-family="Helvetica">
 
</text>
<text x="367" y="96" fill="black" font-size="9" font-family="Helvetica">
cu
</text>
<text x="362" y="86" fill="black" font-size="14" font-family="Times">
&#0964;
</text>
<text x="512" y="89" fill="black" font-size="14" font-family="Helvetica">
 4.60
</text>
<text x="501" y="89" fill="black" font-size="14" font-family="Times">
&#0177;
</text>
<text x="456" y="89" fill="black" font-size="14" font-family="Helvetica">
 15.57 
</text>
<text x="374" y="102" fill="black" font-size="14" font-family="Helvetica">
    
</text>
<text x="371" y="110" fill="black" font-size="9" font-family="Helvetica">
f
</text>
<text x="362" y="102" fill="black" font-size="14" font-family="Helvetica">
N
</text>
<text x="512" y="106" fill="black" font-size="14" font-family="Helvetica">
 0.44
</text>
<text x="501" y="106" fill="black" font-size="14" font-family="Times">
&#0177;
</text>
<text x="458" y="106" fill="black" font-size="14" font-family="Helvetica">
 16.11 
</text>
<text x="369" y="120" fill="black" font-size="14" font-family="Helvetica">
 
</text>
<text x="367" y="130" fill="black" font-size="9" font-family="Helvetica">
f
</text>
<text x="362" y="120" fill="black" font-size="14" font-family="Times">
&#0964;
</text>
<text x="520" y="124" fill="black" font-size="14" font-family="Helvetica">
 0.0
</text>
<text x="509" y="124" fill="black" font-size="14" font-family="Times">
&#0177;
</text>
<text x="464" y="124" fill="black" font-size="14" font-family="Helvetica">
  2197 
</text>
<text x="384" y="136" fill="black" font-size="14" font-family="Helvetica">
  
</text>
<text x="371" y="145" fill="black" font-size="9" font-family="Helvetica">
sin
</text>
<text x="362" y="136" fill="black" font-size="14" font-family="Helvetica">
N
</text>
<text x="512" y="141" fill="black" font-size="14" font-family="Helvetica">
 17.4
</text>
<text x="501" y="141" fill="black" font-size="14" font-family="Times">
&#0177;
</text>
<text x="468" y="141" fill="black" font-size="14" font-family="Helvetica">
     1 
</text>
<text x="367" y="157" fill="black" font-size="14" font-family="Helvetica">
     
</text>
<text x="362" y="157" fill="black" font-size="14" font-family="Times">
&#0966;
</text>
<text x="488" y="157" fill="black" font-size="14" font-family="Helvetica">
 5.0e+01
</text>
<text x="477" y="157" fill="black" font-size="14" font-family="Times">
&#0177;
</text>
<text x="419" y="157" fill="black" font-size="14" font-family="Helvetica">
 6.7e-12 
</text>
<text x="362" y="172" fill="black" font-size="14" font-family="Helvetica">
T        
</text>
<text x="512" y="174" fill="black" font-size="14" font-family="Helvetica">
 0.01
</text>
<text x="501" y="174" fill="black" font-size="14" font-family="Times">
&#0177;
</text>
<text x="456" y="174" fill="black" font-size="14" font-family="Helvetica">
 59.13 
</text>
<text x="376" y="186" fill="black" font-size="14" font-family="Helvetica">
    
</text>
<text x="371" y="195" fill="black" font-size="9" font-family="Helvetica">
b
</text>
<text x="362" y="186" fill="black" font-size="14" font-family="Helvetica">
N
</text>
<text x="504" y="191" fill="black" font-size="14" font-family="Helvetica">
 0.050
</text>
<text x="493" y="191" fill="black" font-size="14" font-family="Times">
&#0177;
</text>
<text x="448" y="191" fill="black" font-size="14" font-family="Helvetica">
 2.292 
</text>
<text x="270" y="21" fill="black" font-size="21" font-family="Helvetica">
D4
</text></svg>
