<?xml version="1.0" standalone="no"?>
<svg width="567" height="385" viewBox="0 0 567 385" xmlns="http://www.w3.org/2000/svg">
<title>
images/analysis_g4bl_phase_loose_f/455_D2.svg
</title>
<desc>
Creator: ROOT Version 5.34/05
CreationDate: Wed Jun 12 17:47:47 2013</desc>
<defs>
</defs>
<rect x="0" y="0" width="567" height="385" fill="white"/>
<rect x="57" y="38" width="453" height="308" fill="white"/>
<rect x="57" y="38" width="453" height="308" fill="none" stroke="black"/>
<rect x="57" y="38" width="453" height="308" fill="white"/>
<rect x="57" y="38" width="453" height="308" fill="none" stroke="black"/>
<path d="M57,346h 46v -2v 1v -22h 1v -14v 9h 1v -8v 9v -18v 16h 1v 1v -11v 15v -5h 1v -8v 11v -18v 14h 1v 4v -18v 17h 1v -12v 15v -16v 6h 1v 6v -12v 11h 1v -15v 19v -10h 1v 9v -16v 14h 1v -16v 17v -13h 1v 16v -15v 12h 1v -20v 20v -10h 1v 10v -11v 11h
 1v -15v 17v -18h 1v 15v -9v 10h 1v -12v 12v -11h 1v 12v -18v 16h 1v 1v -15v 15v -13h 1v 16v -18v 17h 1v -14v 12v -13h 1v 12v -1v 3v -15v 14h 1v 1v -13v 14v -13h 1v 12v -14v 11h 1v -13v 17v -11h 1v -2v 12v -11v 9h 1v -12v 16v -9h 1v -7v 15v -16v 8h
 1v 9v -17v 15v -4h 1v -8v 12v -10v 3h 1v 7v -13v 12v -3h 1v -12v 15v -11h 1v 11v -11v 14v -7h 1v -13v 18v -14h 1v 14v -13v 12v -4h 1v -12v 18v -18h 1v 18v -14v 15v -8h 1v -7v 11v -14h 1v 13v -15v 20v -6h 1v -12v 17v -15h 1v 14v -17v 18h 1v -11v 8v
 -18v 14h 1v 6v -15v 15h 1v -12v 11v -12v 2h 1v 10v -16v 15h 1v -13v 14v -9h 1v 12v -16v 14h 1v -17v 17v -15h 1v 16v -16v 15h 1v -18v 17v -12h 1v 11v -12v 14h 1v -18v 18v -16h 1v 14v -11v 9h 1v 6v -18v 14v -10h 1v 15v -19v 19h 1v -15v 11v -10h 1v 8v
 -11v 10h 1v -6v 11v -18h 1v 16v -14v 10h 1v 3v -12v 15v -9h 1v 7v -14v 8h 1v 6v -18v 17v -7h 1v 10v -13v 5h 1v 5v -12v 15v -6h 1v -10v 16v -13v 5h 1v 7v -18v 17v -5h 1v -5v 7v -6h 1v 12v -19v 18v -5h 1v -14v 17v -11h 1v 9v -8v 13v -6h 1v -15v 15v
 -1v 1v -10h 1v 13v -10v 12v -5h 1v -11v 17v -17h 1v 13v -13v 15v -2h 1v -11v 11v -14h 1v 17v -19v 19h 1v -16v 16v -17h 1v 15v -16v 16v -2h 1v -13v 15v -14h 1v 16v -12v 9h 1v -10v 11v -10h 1v 8v -15v 20h 1v -19v 16v -8h 1v 10v -16v 15h 1v -15v 14v
 -11h 1v 10v -11v 12h 1v -15v 16v -14h 1v 14v -14v 16h 1v -16v 14v -17h 1v 17v -11v 14h 1v -16v 14v -15h 1v 14v -18v 14h 1v 5v -13v 11v -17h 1v 18v -17v 17h 1v -16v 18v -16h 1v 15v -16v 12h 1v -15v 21v -13h 1v 8v -8v 4h 1v 7v -19v 16v -6h 1v -4v 9v
 -7v 2h 1v 8v -20v 21v -5h 1v -13v 17v -10v 1h 1v 9v -15v 12h 1v -16v 18v -15h 1v 14v -13v 15v -3h 1v -16v 18v -9h 1v 9v -11v 12v -4h 1v -10v 14v -17h 1v 15v -9v 11v -1h 1v -12v 12v -14h 1v 13v -14v 16v -6h 1v -3v 9v -17h 1v 17v -17v 16h 1v -9v 14v
 -20h 1v 17v -21v 17v -1h 1v -11v 13v -11h 1v 15v -17v 14h 1v -14v 13v -9h 1v 14v -17v 11h 1v -13v 14v -5h 1v -6v 12v -10v 8h 1v -13v 15v -5h 1v -12v 16v -9v 11h 1v -15v 16v -18h 1v 15v -14v 13h 1v -11v 14v -20h 1v 18v -9v 8h 1v 5v -14v 12v -19h 1v
 20v -14v 10h 1v 2v -12v 12v -16h 1v 19v -20v 15h 1v -11v 15v -10h 1v -3v 11v -13v 8h 1v 5v -18v 17v -8h 1v -2v 13v -12v 2h 1v 6v -17v 19v -5h 1v -11v 14v -11h 1v 14v -21v 20v -1h 1v -14v 14v -10h 1v 11v -14v 16v -6h 1v -12v 15v -14h 1v 15v -12v 11h
 1v -16v 14v -18h 1v 19v -9v 11h 1v -14v 11v -16h 1v 17v -15v 16h 1v -11v 11v -13h 1v 12v -15v 19v -6h 1v -9v 14v -15h 1v 10v -13v 14h 1v -9v 12v -14h 1v 14v -17v 16v -2h 1v -14v 17v -11h 1v 11v -17v 14h 1v -11v 14v -13h 1v 11v -12v 13h 1v -15v 12v
 -1h 1v -9v 14v -13v 13h 1v -18v 20v -6h 1v -17v 20v -11v 10h 1v -11v 9h 1v -13v 18v -19v 17h 1v -11v 10h 1v -15v 16v -17v 15h 1v -11v 16v -16h 1v 14v -17v 16h 1v -17v 16v -15h 1v 16v -14v 10h 1v 1v -12v 15v -10h 1v -6v 19v -15v 5h 1v 5v -15v 16v -7h
 1v -6v 15v -15v 6h 1v 5v -13v 13h 1v -16v 17v -9h 1v 15v -20v 15v -2h 1v -13v 15v -12h 1v 12v -15v 16v -6h 1v -9v 13v -14h 1v 14v -12v 10h 1v -12v 11v -19h 1v 17v -26v 61h 1v -293v 80h 1v 52v -4v 1v -1v 23h 1v -12v 20v -18h 1v 20v -13v 21h 1v -7v
 12v -16h 1v 16v -16v 22v -3h 1v 2v -23v 25v -8v 3h 1v -3v 13v -13v 14h 1v -13v 15v -7h 1v -4v 8v -10v 16h 1v 2v -24v 30v -17h 1v 18v -20v 21h 1v -18v 17v -9h 1v 11v -13v 9h 1v -11v 16v -1h 1v -15v 16v -11v 14h 1v 4v -15v 9v -1h 1v -7v 18v -17v 17h
 1v -15v 17v -8h 1v -8v 14v -14v 17h 1v 1v -16v 13v -2h 1v -10v 14v -16v 20h 1v -11v 11v -1h 1v -13v 19v -18v 13h 1v -15v 21v -2h 1v -10v 13v -19v 13h 1v 6v -20v 19v -8h 1v -4v 16v -12v 5h 1v 5v -12v 12v -7h 1v -9v 18v -11h 1v 12v -14v 15v -3h 1v
 -11v 15v -15h 1v 18v -14v 14v -4h 1v -12v 22v -26h 1v 23v -15v 15h 1v -20v 20v -14h 1v 14v -17v 15h 1v -7v 6v -11h 1v 16v -13v 19v -9h 1v -4v 10v -22h 1v 21v -12v 14v -3h 1v -11v 13v -16h 1v 18v -16v 18v -4h 1v -7v 9v -10h 1v 12v -21v 23h 1v -16v
 13v -10h 1v -4v 11v -9v 11h 1v -19v 20v -8h 1v -3v 16v -15v 12h 1v -18v 17v -2h 1v -8v 9v -7v 13h 1v -19v 17v -4h 1v -12v 15v -11v 14h 1v -22v 24v -8h 1v -14v 21v -12v 11h 1v -14v 16v -4h 1v -19v 21v -13v 15h 1v -17v 18v -7h 1v -9v 11v -11v 12h 1v
 2v -15v 15h 1v -10v 12v -13v 8h 1v 1v -14v 18h 1v -13v 12v -13v 6h 1v 7v -17v 17v -1h 1v -13v 15v -8h 1v 8v -18v 19h 1v -14v 11v -15h 1v 19v -15v 12h 1v -16v 16v -10h 1v 12v -12v 15v -5h 1v -14v 14v -12h 1v 16v -11v 10v -3h 1v -13v 14v -17h 1v 21v
 -16v 15v -2h 1v -6v 12v -21h 1v 15v -17v 19v -1h 1v -12v 15v -14h 1v 11v -14v 16h 1v -14v 16v -15h 1v 13v -18v 17h 1v -10v 12v -14h 1v 11v -14v 17h 1v -13v 11v -6h 1v -4v 13v -17v 14h 1v -19v 22v -12h 1v -5v 17v -15v 17h 1v -16v 14v -5h 1v -12v 17v
 -11v 10h 1v -11v 8v -2h 1v -10v 14v -13v 18h 1v -15v 13v -2h 1v -17v 20v -20v 14h 1v 4v -13v 14v -2h 1v -13v 12v -14v 16h 1v 2v -18v 16v -2h 1v -8v 9v -16v 12h 1v 4v -12v 15h 1v -13v 13v -14v 8h 1v 1v -15v 17h 1v -14v 14v -11v 6h 1v 7v -13v 9h 1v 1v
 -17v 19v -11v 4h 1v 9v -17v 10v -1h 1v 3v -14v 17v -11h 1v 14v -15v 14h 1v -19v 17v -13h 1v 15v -9v 5h 1v -13v 13v -15h 1v 17v -11v 12v -5h 1v -9v 14v -17h 1v 16v -14v 17h 1v -12v 8v -14h 1v 15v -12v 14v -5h 1v -8v 12v -10h 1v 8v -15v 16h 1v -11v
 14v -12h 1v 12v -14v 13h 1v -17v 18v -14h 1v -2v 17v -16v 12h 1v -15v 15v -7h 1v -3v 13v -11v 9h 1v -13v 12v -1h 1v -13v 15v -11v 9h 1v 5v -19v 18h 1v -20v 18v -13v 13h 1v -12v 12v -5h 1v -7v 9v -13v 16h 1v -11v 11v -3h 1v -12v 17v -18v 17h 1v -16v
 16v -2h 1v -10v 10v -11v 11h 1v -14v 17v -4h 1v -10v 15v -19v 10h 1v 7v -13v 11h 1v -12v 12v -14v 9h 1v 9v -19v 15h 1v -14v 15v -10v 3h 1v 6v -17v 18h 1v -10v 11v -13h 1v 14v -14v 12h 1v -17v 18v -12h 1v 12v -10v 7h 1v 3v -17v 15v -16h 1v 20v -12v
 9h 1v 1v -13v 14v -17h 1v 16v -15v 14h 1v 3v -13v 11v -14h 1v 12v -13v 15h 1v -10v 10v -17h 1v 13v -2v 2v -10v 15v -5h 1v -10v 18v -19h 1v 15v -18v 19v -2h 1v -15v 18v -11h 1v 10v -18v 16h 1v -16v 18v -7h 1v -6v 14v -19v 16h 1v -15v 16v -5h 1v -8v
 16v -15v 10h 1v -13v 16v -9h 1v -5v 12v -8v 7h 1v -9v 6h 1v -13v 17v -11v 13h 1v -14v 15v -3h 1v -17v 19v -16v 13h 1v 3v -11v 9h 1v -15v 18v -17v 12h 1v 6v -15v 13v -3h 1v -9v 11v -17v 14h 1v 2v -15v 16v -2h 1v -5v 7v -15v 11h 1v 3v -13v 13h 1v -13v
 16v -10v 2h 1v 8v -17v 14h 1v -13v 12v -10v 4h 1v 9v -18v 18h 1v -15v 13v -11h 1v 14v -15v 12h 1v -13v 11v -11h 1v 14v -10v 13h 1v -19v 13v -13h 1v 17v -14v 14h 1v 2v -16v 12v -16h 1v 19v -15v 11h 1v 1v -11v 11v -17h 1v 17v -12v 11h 1v 1v -11v 12v
 -14h 1v 12v -10v 13h 1v -19v 16v -14h 1v 17v -17v 15h 1v -14v 14v -8h 1v -4v 15v -14v 9h 1v -18v 20v -7h 1v -5v 14v -12v 10h 1v 1v -14v 14v -6h 1v -9v 16v -14v 15h 1v -13v 12v -4h 1v -14v 18v -11v 10h 1v -14v 14v -4h 1v -6v 11v -16v 14h 1v 1v -12v
 14v -2h 1v -15v 15v -15v 10h 1v 5v -12v 14v -2h 1v -14v 13v -17v 19h 1v -15v 16h 1v -17v 17v -17v 11h 1v 5v -21v 19h 1v -8v 10v -12v 9h 1v 4v -14v 13h 1v -15v 12v -13v 5h 1v 14v -18v 16h 1v -19v 18v -12h 1v 11v -14v 14h 1v -18v 20v -16h 1v 15v -13v
 8h 1v 6v -18v 15v -12h 1v 13v -12v 13h 1v 1v -16v 14v -15h 1v 16v -12v 9h 1v 2v -11v 12v -18h 1v 16v -15v 16h 1v -13v 14v -15h 1v 14v -18v 21h 1v -16v 13v -14h 1v 14v -17v 14h 1v 1v -13v 14v -9h 1v 9v -15v 10h 1v 7v -15v 12" fill="none"
 stroke="#000099"/>
<rect x="442" y="25" width="114" height="46" fill="white"/>
<path d="M442,71h 114" fill="none" stroke="black"/>
<path d="M556,71v -46" fill="none" stroke="black"/>
<path d="M556,25h -114" fill="none" stroke="black"/>
<path d="M442,25v 46" fill="none" stroke="black"/>
<text x="447" y="28" fill="black" font-size="4" font-family="Helvetica">
Entries 
</text>
<text x="535" y="28" fill="black" font-size="4" font-family="Helvetica">
 822492
</text>
<text x="450" y="34" fill="black" font-size="4" font-family="Helvetica">
 / ndf 
</text>
<text x="449" y="30" fill="black" font-size="3" font-family="Helvetica">
2
</text>
<text x="447" y="34" fill="black" font-size="4" font-family="Times">
&#0967;
</text>
<text x="526" y="33" fill="black" font-size="4" font-family="Helvetica">
  2716 / 1239
</text>
<text x="452" y="36" fill="black" font-size="4" font-family="Helvetica">
   
</text>
<text x="450" y="39" fill="black" font-size="3" font-family="Helvetica">
cu
</text>
<text x="447" y="36" fill="black" font-size="4" font-family="Helvetica">
N
</text>
<text x="541" y="38" fill="black" font-size="4" font-family="Helvetica">
 28.7
</text>
<text x="538" y="38" fill="black" font-size="4" font-family="Times">
&#0177;
</text>
<text x="526" y="38" fill="black" font-size="4" font-family="Helvetica">
 941.6 
</text>
<text x="450" y="41" fill="black" font-size="4" font-family="Helvetica">
 
</text>
<text x="448" y="45" fill="black" font-size="3" font-family="Helvetica">
cu
</text>
<text x="447" y="41" fill="black" font-size="4" font-family="Times">
&#0964;
</text>
<text x="543" y="43" fill="black" font-size="4" font-family="Helvetica">
 0.3
</text>
<text x="541" y="43" fill="black" font-size="4" font-family="Times">
&#0177;
</text>
<text x="529" y="43" fill="black" font-size="4" font-family="Helvetica">
 162.5 
</text>
<text x="450" y="45" fill="black" font-size="4" font-family="Helvetica">
    
</text>
<text x="450" y="49" fill="black" font-size="3" font-family="Helvetica">
f
</text>
<text x="447" y="45" fill="black" font-size="4" font-family="Helvetica">
N
</text>
<text x="543" y="48" fill="black" font-size="4" font-family="Helvetica">
 6.7
</text>
<text x="541" y="48" fill="black" font-size="4" font-family="Times">
&#0177;
</text>
<text x="529" y="48" fill="black" font-size="4" font-family="Helvetica">
 948.9 
</text>
<text x="448" y="50" fill="black" font-size="4" font-family="Helvetica">
 
</text>
<text x="448" y="53" fill="black" font-size="3" font-family="Helvetica">
f
</text>
<text x="447" y="50" fill="black" font-size="4" font-family="Times">
&#0964;
</text>
<text x="541" y="52" fill="black" font-size="4" font-family="Helvetica">
 18.0
</text>
<text x="538" y="52" fill="black" font-size="4" font-family="Times">
&#0177;
</text>
<text x="526" y="52" fill="black" font-size="4" font-family="Helvetica">
  2262 
</text>
<text x="452" y="54" fill="black" font-size="4" font-family="Helvetica">
  
</text>
<text x="450" y="58" fill="black" font-size="3" font-family="Helvetica">
sin
</text>
<text x="447" y="54" fill="black" font-size="4" font-family="Helvetica">
N
</text>
<text x="541" y="57" fill="black" font-size="4" font-family="Helvetica">
 0.83
</text>
<text x="538" y="57" fill="black" font-size="4" font-family="Times">
&#0177;
</text>
<text x="526" y="57" fill="black" font-size="4" font-family="Helvetica">
 73.73 
</text>
<text x="448" y="62" fill="black" font-size="4" font-family="Helvetica">
     
</text>
<text x="447" y="62" fill="black" font-size="4" font-family="Times">
&#0966;
</text>
<text x="541" y="62" fill="black" font-size="4" font-family="Helvetica">
 0.26
</text>
<text x="538" y="62" fill="black" font-size="4" font-family="Times">
&#0177;
</text>
<text x="526" y="62" fill="black" font-size="4" font-family="Helvetica">
 12.41 
</text>
<text x="447" y="65" fill="black" font-size="4" font-family="Helvetica">
T        
</text>
<text x="541" y="66" fill="black" font-size="4" font-family="Helvetica">
 0.00
</text>
<text x="538" y="66" fill="black" font-size="4" font-family="Times">
&#0177;
</text>
<text x="526" y="66" fill="black" font-size="4" font-family="Helvetica">
 59.36 
</text>
<text x="450" y="68" fill="black" font-size="4" font-family="Helvetica">
    
</text>
<text x="450" y="71" fill="black" font-size="3" font-family="Helvetica">
b
</text>
<text x="447" y="68" fill="black" font-size="4" font-family="Helvetica">
N
</text>
<text x="543" y="71" fill="black" font-size="4" font-family="Helvetica">
 0.7
</text>
<text x="541" y="71" fill="black" font-size="4" font-family="Times">
&#0177;
</text>
<text x="529" y="71" fill="black" font-size="4" font-family="Helvetica">
 292.7 
</text>
<path d="M284,138v 7" fill="none" stroke="#ff0000" stroke-width="2"/>
<path d="M285,139v 30" fill="none" stroke="#ff0000" stroke-width="2"/>
<path d="M285,162v 25" fill="none" stroke="#ff0000" stroke-width="2"/>
<path d="M286,185v 22" fill="none" stroke="#ff0000" stroke-width="2"/>
<path d="M287,198v 20" fill="none" stroke="#ff0000" stroke-width="2"/>
<path d="M288,205v 20" fill="none" stroke="#ff0000" stroke-width="2"/>
<path d="M289,211v 18" fill="none" stroke="#ff0000" stroke-width="2"/>
<path d="M289,215v 18" fill="none" stroke="#ff0000" stroke-width="2"/>
<path d="M290,221v 17" fill="none" stroke="#ff0000" stroke-width="2"/>
<path d="M291,225v 17" fill="none" stroke="#ff0000" stroke-width="2"/>
<path d="M292,227v 18" fill="none" stroke="#ff0000" stroke-width="2"/>
<path d="M293,229v 18" fill="none" stroke="#ff0000" stroke-width="2"/>
<path d="M293,233v 16" fill="none" stroke="#ff0000" stroke-width="2"/>
<path d="M294,235v 18" fill="none" stroke="#ff0000" stroke-width="2"/>
<path d="M295,238v 17" fill="none" stroke="#ff0000" stroke-width="2"/>
<path d="M296,239v 17" fill="none" stroke="#ff0000" stroke-width="2"/>
<path d="M297,241v 17" fill="none" stroke="#ff0000" stroke-width="2"/>
<path d="M298,244v 16" fill="none" stroke="#ff0000" stroke-width="2"/>
<path d="M298,246v 17" fill="none" stroke="#ff0000" stroke-width="2"/>
<path d="M299,247v 17" fill="none" stroke="#ff0000" stroke-width="2"/>
<path d="M300,249v 17" fill="none" stroke="#ff0000" stroke-width="2"/>
<path d="M301,251v 17" fill="none" stroke="#ff0000" stroke-width="2"/>
<path d="M302,253v 16" fill="none" stroke="#ff0000" stroke-width="2"/>
<path d="M302,255v 17" fill="none" stroke="#ff0000" stroke-width="2"/>
<path d="M303,255v 18" fill="none" stroke="#ff0000" stroke-width="2"/>
<path d="M304,257v 17" fill="none" stroke="#ff0000" stroke-width="2"/>
<path d="M305,258v 17" fill="none" stroke="#ff0000" stroke-width="2"/>
<path d="M306,260v 17" fill="none" stroke="#ff0000" stroke-width="2"/>
<path d="M307,262v 17" fill="none" stroke="#ff0000" stroke-width="2"/>
<path d="M307,263v 17" fill="none" stroke="#ff0000" stroke-width="2"/>
<path d="M308,264v 17" fill="none" stroke="#ff0000" stroke-width="2"/>
<path d="M309,266v 16" fill="none" stroke="#ff0000" stroke-width="2"/>
<path d="M310,267v 17" fill="none" stroke="#ff0000" stroke-width="2"/>
<path d="M311,268v 17" fill="none" stroke="#ff0000" stroke-width="2"/>
<path d="M311,269v 17" fill="none" stroke="#ff0000" stroke-width="2"/>
<path d="M312,270v 17" fill="none" stroke="#ff0000" stroke-width="2"/>
<path d="M313,272v 16" fill="none" stroke="#ff0000" stroke-width="2"/>
<path d="M314,273v 17" fill="none" stroke="#ff0000" stroke-width="2"/>
<path d="M315,273v 18" fill="none" stroke="#ff0000" stroke-width="2"/>
<path d="M315,274v 17" fill="none" stroke="#ff0000" stroke-width="2"/>
<path d="M316,275v 17" fill="none" stroke="#ff0000" stroke-width="2"/>
<path d="M317,277v 16" fill="none" stroke="#ff0000" stroke-width="2"/>
<path d="M318,277v 18" fill="none" stroke="#ff0000" stroke-width="2"/>
<path d="M319,278v 17" fill="none" stroke="#ff0000" stroke-width="2"/>
<path d="M320,279v 16" fill="none" stroke="#ff0000" stroke-width="2"/>
<path d="M320,279v 17" fill="none" stroke="#ff0000" stroke-width="2"/>
<path d="M321,281v 16" fill="none" stroke="#ff0000" stroke-width="2"/>
<path d="M322,282v 16" fill="none" stroke="#ff0000" stroke-width="2"/>
<path d="M323,282v 17" fill="none" stroke="#ff0000" stroke-width="2"/>
<path d="M324,282v 17" fill="none" stroke="#ff0000" stroke-width="2"/>
<path d="M324,283v 17" fill="none" stroke="#ff0000" stroke-width="2"/>
<path d="M325,284v 16" fill="none" stroke="#ff0000" stroke-width="2"/>
<path d="M326,285v 17" fill="none" stroke="#ff0000" stroke-width="2"/>
<path d="M327,286v 16" fill="none" stroke="#ff0000" stroke-width="2"/>
<path d="M328,286v 17" fill="none" stroke="#ff0000" stroke-width="2"/>
<path d="M329,286v 17" fill="none" stroke="#ff0000" stroke-width="2"/>
<path d="M329,287v 17" fill="none" stroke="#ff0000" stroke-width="2"/>
<path d="M330,288v 16" fill="none" stroke="#ff0000" stroke-width="2"/>
<path d="M331,288v 17" fill="none" stroke="#ff0000" stroke-width="2"/>
<path d="M332,289v 16" fill="none" stroke="#ff0000" stroke-width="2"/>
<path d="M333,290v 16" fill="none" stroke="#ff0000" stroke-width="2"/>
<path d="M333,290v 17" fill="none" stroke="#ff0000" stroke-width="2"/>
<path d="M334,291v 16" fill="none" stroke="#ff0000" stroke-width="2"/>
<path d="M335,291v 17" fill="none" stroke="#ff0000" stroke-width="2"/>
<path d="M336,291v 17" fill="none" stroke="#ff0000" stroke-width="2"/>
<path d="M337,291v 17" fill="none" stroke="#ff0000" stroke-width="2"/>
<path d="M337,292v 16" fill="none" stroke="#ff0000" stroke-width="2"/>
<path d="M338,292v 17" fill="none" stroke="#ff0000" stroke-width="2"/>
<path d="M339,293v 16" fill="none" stroke="#ff0000" stroke-width="2"/>
<path d="M340,293v 17" fill="none" stroke="#ff0000" stroke-width="2"/>
<path d="M341,294v 16" fill="none" stroke="#ff0000" stroke-width="2"/>
<path d="M342,294v 17" fill="none" stroke="#ff0000" stroke-width="2"/>
<path d="M342,295v 16" fill="none" stroke="#ff0000" stroke-width="2"/>
<path d="M343,295v 16" fill="none" stroke="#ff0000" stroke-width="2"/>
<path d="M344,295v 17" fill="none" stroke="#ff0000" stroke-width="2"/>
<path d="M345,295v 17" fill="none" stroke="#ff0000" stroke-width="2"/>
<path d="M346,295v 18" fill="none" stroke="#ff0000" stroke-width="2"/>
<path d="M346,295v 18" fill="none" stroke="#ff0000" stroke-width="2"/>
<path d="M347,296v 17" fill="none" stroke="#ff0000" stroke-width="2"/>
<path d="M348,296v 17" fill="none" stroke="#ff0000" stroke-width="2"/>
<path d="M349,297v 16" fill="none" stroke="#ff0000" stroke-width="2"/>
<path d="M350,297v 16" fill="none" stroke="#ff0000" stroke-width="2"/>
<path d="M351,297v 17" fill="none" stroke="#ff0000" stroke-width="2"/>
<path d="M351,297v 17" fill="none" stroke="#ff0000" stroke-width="2"/>
<path d="M352,298v 16" fill="none" stroke="#ff0000" stroke-width="2"/>
<path d="M353,298v 16" fill="none" stroke="#ff0000" stroke-width="2"/>
<path d="M354,298v 17" fill="none" stroke="#ff0000" stroke-width="2"/>
<path d="M355,299v 16" fill="none" stroke="#ff0000" stroke-width="2"/>
<path d="M355,299v 16" fill="none" stroke="#ff0000" stroke-width="2"/>
<path d="M356,299v 16" fill="none" stroke="#ff0000" stroke-width="2"/>
<path d="M357,299v 17" fill="none" stroke="#ff0000" stroke-width="2"/>
<path d="M358,299v 17" fill="none" stroke="#ff0000" stroke-width="2"/>
<path d="M359,299v 17" fill="none" stroke="#ff0000" stroke-width="2"/>
<path d="M359,299v 17" fill="none" stroke="#ff0000" stroke-width="2"/>
<path d="M360,299v 18" fill="none" stroke="#ff0000" stroke-width="2"/>
<path d="M361,299v 18" fill="none" stroke="#ff0000" stroke-width="2"/>
<path d="M362,300v 17" fill="none" stroke="#ff0000" stroke-width="2"/>
<path d="M363,300v 17" fill="none" stroke="#ff0000" stroke-width="2"/>
<path d="M364,300v 17" fill="none" stroke="#ff0000" stroke-width="2"/>
<path d="M364,300v 17" fill="none" stroke="#ff0000" stroke-width="2"/>
<path d="M365,300v 17" fill="none" stroke="#ff0000" stroke-width="2"/>
<path d="M366,300v 17" fill="none" stroke="#ff0000" stroke-width="2"/>
<path d="M367,301v 16" fill="none" stroke="#ff0000" stroke-width="2"/>
<path d="M368,301v 16" fill="none" stroke="#ff0000" stroke-width="2"/>
<path d="M368,301v 16" fill="none" stroke="#ff0000" stroke-width="2"/>
<path d="M369,301v 16" fill="none" stroke="#ff0000" stroke-width="2"/>
<path d="M370,301v 17" fill="none" stroke="#ff0000" stroke-width="2"/>
<path d="M371,301v 17" fill="none" stroke="#ff0000" stroke-width="2"/>
<path d="M372,302v 16" fill="none" stroke="#ff0000" stroke-width="2"/>
<path d="M372,302v 16" fill="none" stroke="#ff0000" stroke-width="2"/>
<path d="M373,302v 16" fill="none" stroke="#ff0000" stroke-width="2"/>
<path d="M374,302v 16" fill="none" stroke="#ff0000" stroke-width="2"/>
<path d="M375,302v 16" fill="none" stroke="#ff0000" stroke-width="2"/>
<path d="M376,302v 16" fill="none" stroke="#ff0000" stroke-width="2"/>
<path d="M377,302v 17" fill="none" stroke="#ff0000" stroke-width="2"/>
<path d="M377,302v 17" fill="none" stroke="#ff0000" stroke-width="2"/>
<path d="M378,302v 17" fill="none" stroke="#ff0000" stroke-width="2"/>
<path d="M379,303v 16" fill="none" stroke="#ff0000" stroke-width="2"/>
<path d="M380,303v 16" fill="none" stroke="#ff0000" stroke-width="2"/>
<path d="M381,303v 16" fill="none" stroke="#ff0000" stroke-width="2"/>
<path d="M381,303v 16" fill="none" stroke="#ff0000" stroke-width="2"/>
<path d="M382,303v 16" fill="none" stroke="#ff0000" stroke-width="2"/>
<path d="M383,303v 16" fill="none" stroke="#ff0000" stroke-width="2"/>
<path d="M384,303v 16" fill="none" stroke="#ff0000" stroke-width="2"/>
<path d="M385,303v 16" fill="none" stroke="#ff0000" stroke-width="2"/>
<path d="M386,303v 17" fill="none" stroke="#ff0000" stroke-width="2"/>
<path d="M386,303v 17" fill="none" stroke="#ff0000" stroke-width="2"/>
<path d="M387,303v 17" fill="none" stroke="#ff0000" stroke-width="2"/>
<path d="M388,303v 17" fill="none" stroke="#ff0000" stroke-width="2"/>
<path d="M389,304v 16" fill="none" stroke="#ff0000" stroke-width="2"/>
<path d="M390,304v 16" fill="none" stroke="#ff0000" stroke-width="2"/>
<path d="M390,304v 16" fill="none" stroke="#ff0000" stroke-width="2"/>
<path d="M391,304v 16" fill="none" stroke="#ff0000" stroke-width="2"/>
<path d="M392,304v 16" fill="none" stroke="#ff0000" stroke-width="2"/>
<path d="M393,304v 16" fill="none" stroke="#ff0000" stroke-width="2"/>
<path d="M394,304v 16" fill="none" stroke="#ff0000" stroke-width="2"/>
<path d="M394,304v 16" fill="none" stroke="#ff0000" stroke-width="2"/>
<path d="M395,304v 16" fill="none" stroke="#ff0000" stroke-width="2"/>
<path d="M396,304v 16" fill="none" stroke="#ff0000" stroke-width="2"/>
<path d="M397,304v 16" fill="none" stroke="#ff0000" stroke-width="2"/>
<path d="M398,304v 16" fill="none" stroke="#ff0000" stroke-width="2"/>
<path d="M399,304v 17" fill="none" stroke="#ff0000" stroke-width="2"/>
<path d="M399,304v 17" fill="none" stroke="#ff0000" stroke-width="2"/>
<path d="M400,304v 17" fill="none" stroke="#ff0000" stroke-width="2"/>
<path d="M401,304v 17" fill="none" stroke="#ff0000" stroke-width="2"/>
<path d="M402,304v 17" fill="none" stroke="#ff0000" stroke-width="2"/>
<path d="M403,304v 17" fill="none" stroke="#ff0000" stroke-width="2"/>
<path d="M403,304v 17" fill="none" stroke="#ff0000" stroke-width="2"/>
<path d="M404,304v 17" fill="none" stroke="#ff0000" stroke-width="2"/>
<path d="M405,304v 17" fill="none" stroke="#ff0000" stroke-width="2"/>
<path d="M406,304v 17" fill="none" stroke="#ff0000" stroke-width="2"/>
<path d="M407,304v 17" fill="none" stroke="#ff0000" stroke-width="2"/>
<path d="M408,304v 17" fill="none" stroke="#ff0000" stroke-width="2"/>
<path d="M408,304v 17" fill="none" stroke="#ff0000" stroke-width="2"/>
<path d="M409,304v 17" fill="none" stroke="#ff0000" stroke-width="2"/>
<path d="M410,304v 17" fill="none" stroke="#ff0000" stroke-width="2"/>
<path d="M411,304v 17" fill="none" stroke="#ff0000" stroke-width="2"/>
<path d="M412,304v 17" fill="none" stroke="#ff0000" stroke-width="2"/>
<path d="M412,304v 17" fill="none" stroke="#ff0000" stroke-width="2"/>
<path d="M413,304v 17" fill="none" stroke="#ff0000" stroke-width="2"/>
<path d="M414,304v 17" fill="none" stroke="#ff0000" stroke-width="2"/>
<path d="M415,304v 17" fill="none" stroke="#ff0000" stroke-width="2"/>
<path d="M416,304v 17" fill="none" stroke="#ff0000" stroke-width="2"/>
<path d="M416,304v 17" fill="none" stroke="#ff0000" stroke-width="2"/>
<path d="M417,304v 17" fill="none" stroke="#ff0000" stroke-width="2"/>
<path d="M418,304v 17" fill="none" stroke="#ff0000" stroke-width="2"/>
<path d="M419,304v 17" fill="none" stroke="#ff0000" stroke-width="2"/>
<path d="M420,304v 17" fill="none" stroke="#ff0000" stroke-width="2"/>
<path d="M421,304v 17" fill="none" stroke="#ff0000" stroke-width="2"/>
<path d="M421,304v 17" fill="none" stroke="#ff0000" stroke-width="2"/>
<path d="M422,304v 17" fill="none" stroke="#ff0000" stroke-width="2"/>
<path d="M423,304v 17" fill="none" stroke="#ff0000" stroke-width="2"/>
<path d="M424,304v 17" fill="none" stroke="#ff0000" stroke-width="2"/>
<path d="M425,304v 17" fill="none" stroke="#ff0000" stroke-width="2"/>
<path d="M425,304v 17" fill="none" stroke="#ff0000" stroke-width="2"/>
<path d="M426,304v 17" fill="none" stroke="#ff0000" stroke-width="2"/>
<path d="M427,304v 17" fill="none" stroke="#ff0000" stroke-width="2"/>
<path d="M428,304v 17" fill="none" stroke="#ff0000" stroke-width="2"/>
<path d="M429,304v 17" fill="none" stroke="#ff0000" stroke-width="2"/>
<path d="M430,304v 17" fill="none" stroke="#ff0000" stroke-width="2"/>
<path d="M430,304v 17" fill="none" stroke="#ff0000" stroke-width="2"/>
<path d="M431,304v 17" fill="none" stroke="#ff0000" stroke-width="2"/>
<path d="M432,304v 17" fill="none" stroke="#ff0000" stroke-width="2"/>
<path d="M433,304v 17" fill="none" stroke="#ff0000" stroke-width="2"/>
<path d="M434,304v 17" fill="none" stroke="#ff0000" stroke-width="2"/>
<path d="M434,304v 17" fill="none" stroke="#ff0000" stroke-width="2"/>
<path d="M435,304v 17" fill="none" stroke="#ff0000" stroke-width="2"/>
<path d="M436,304v 17" fill="none" stroke="#ff0000" stroke-width="2"/>
<path d="M437,304v 17" fill="none" stroke="#ff0000" stroke-width="2"/>
<path d="M438,304v 17" fill="none" stroke="#ff0000" stroke-width="2"/>
<path d="M438,304v 17" fill="none" stroke="#ff0000" stroke-width="2"/>
<path d="M439,304v 17" fill="none" stroke="#ff0000" stroke-width="2"/>
<path d="M440,304v 17" fill="none" stroke="#ff0000" stroke-width="2"/>
<path d="M441,304v 17" fill="none" stroke="#ff0000" stroke-width="2"/>
<path d="M442,304v 17" fill="none" stroke="#ff0000" stroke-width="2"/>
<path d="M443,304v 17" fill="none" stroke="#ff0000" stroke-width="2"/>
<path d="M443,304v 17" fill="none" stroke="#ff0000" stroke-width="2"/>
<path d="M444,304v 17" fill="none" stroke="#ff0000" stroke-width="2"/>
<path d="M445,304v 17" fill="none" stroke="#ff0000" stroke-width="2"/>
<path d="M446,304v 17" fill="none" stroke="#ff0000" stroke-width="2"/>
<path d="M447,304v 17" fill="none" stroke="#ff0000" stroke-width="2"/>
<path d="M447,304v 17" fill="none" stroke="#ff0000" stroke-width="2"/>
<path d="M448,304v 17" fill="none" stroke="#ff0000" stroke-width="2"/>
<path d="M449,304v 17" fill="none" stroke="#ff0000" stroke-width="2"/>
<path d="M450,304v 17" fill="none" stroke="#ff0000" stroke-width="2"/>
<path d="M451,305v 16" fill="none" stroke="#ff0000" stroke-width="2"/>
<path d="M452,305v 16" fill="none" stroke="#ff0000" stroke-width="2"/>
<path d="M452,305v 16" fill="none" stroke="#ff0000" stroke-width="2"/>
<path d="M453,305v 16" fill="none" stroke="#ff0000" stroke-width="2"/>
<path d="M454,305v 16" fill="none" stroke="#ff0000" stroke-width="2"/>
<path d="M455,305v 16" fill="none" stroke="#ff0000" stroke-width="2"/>
<path d="M456,305v 16" fill="none" stroke="#ff0000" stroke-width="2"/>
<path d="M456,305v 16" fill="none" stroke="#ff0000" stroke-width="2"/>
<path d="M457,305v 16" fill="none" stroke="#ff0000" stroke-width="2"/>
<path d="M458,305v 16" fill="none" stroke="#ff0000" stroke-width="2"/>
<path d="M459,305v 16" fill="none" stroke="#ff0000" stroke-width="2"/>
<path d="M460,305v 16" fill="none" stroke="#ff0000" stroke-width="2"/>
<path d="M460,305v 16" fill="none" stroke="#ff0000" stroke-width="2"/>
<path d="M461,305v 16" fill="none" stroke="#ff0000" stroke-width="2"/>
<path d="M462,305v 16" fill="none" stroke="#ff0000" stroke-width="2"/>
<path d="M463,305v 16" fill="none" stroke="#ff0000" stroke-width="2"/>
<path d="M464,305v 16" fill="none" stroke="#ff0000" stroke-width="2"/>
<path d="M465,305v 16" fill="none" stroke="#ff0000" stroke-width="2"/>
<path d="M465,305v 16" fill="none" stroke="#ff0000" stroke-width="2"/>
<path d="M466,305v 16" fill="none" stroke="#ff0000" stroke-width="2"/>
<path d="M467,305v 16" fill="none" stroke="#ff0000" stroke-width="2"/>
<path d="M468,305v 16" fill="none" stroke="#ff0000" stroke-width="2"/>
<path d="M469,305v 16" fill="none" stroke="#ff0000" stroke-width="2"/>
<path d="M469,305v 16" fill="none" stroke="#ff0000" stroke-width="2"/>
<path d="M470,305v 16" fill="none" stroke="#ff0000" stroke-width="2"/>
<path d="M471,305v 16" fill="none" stroke="#ff0000" stroke-width="2"/>
<path d="M472,305v 16" fill="none" stroke="#ff0000" stroke-width="2"/>
<path d="M473,305v 16" fill="none" stroke="#ff0000" stroke-width="2"/>
<path d="M473,305v 16" fill="none" stroke="#ff0000" stroke-width="2"/>
<path d="M474,305v 16" fill="none" stroke="#ff0000" stroke-width="2"/>
<path d="M475,305v 16" fill="none" stroke="#ff0000" stroke-width="2"/>
<path d="M476,305v 16" fill="none" stroke="#ff0000" stroke-width="2"/>
<path d="M477,305v 16" fill="none" stroke="#ff0000" stroke-width="2"/>
<path d="M478,305v 16" fill="none" stroke="#ff0000" stroke-width="2"/>
<path d="M478,305v 16" fill="none" stroke="#ff0000" stroke-width="2"/>
<path d="M479,305v 16" fill="none" stroke="#ff0000" stroke-width="2"/>
<path d="M480,305v 16" fill="none" stroke="#ff0000" stroke-width="2"/>
<path d="M481,305v 16" fill="none" stroke="#ff0000" stroke-width="2"/>
<path d="M482,305v 16" fill="none" stroke="#ff0000" stroke-width="2"/>
<path d="M482,305v 16" fill="none" stroke="#ff0000" stroke-width="2"/>
<path d="M483,305v 16" fill="none" stroke="#ff0000" stroke-width="2"/>
<path d="M484,305v 16" fill="none" stroke="#ff0000" stroke-width="2"/>
<path d="M485,305v 16" fill="none" stroke="#ff0000" stroke-width="2"/>
<path d="M486,305v 16" fill="none" stroke="#ff0000" stroke-width="2"/>
<path d="M487,305v 16" fill="none" stroke="#ff0000" stroke-width="2"/>
<path d="M487,305v 16" fill="none" stroke="#ff0000" stroke-width="2"/>
<path d="M488,305v 16" fill="none" stroke="#ff0000" stroke-width="2"/>
<path d="M489,305v 16" fill="none" stroke="#ff0000" stroke-width="2"/>
<path d="M490,305v 16" fill="none" stroke="#ff0000" stroke-width="2"/>
<path d="M491,305v 16" fill="none" stroke="#ff0000" stroke-width="2"/>
<path d="M491,305v 16" fill="none" stroke="#ff0000" stroke-width="2"/>
<path d="M492,305v 16" fill="none" stroke="#ff0000" stroke-width="2"/>
<path d="M493,305v 16" fill="none" stroke="#ff0000" stroke-width="2"/>
<path d="M494,305v 16" fill="none" stroke="#ff0000" stroke-width="2"/>
<path d="M495,305v 16" fill="none" stroke="#ff0000" stroke-width="2"/>
<path d="M495,305v 16" fill="none" stroke="#ff0000" stroke-width="2"/>
<path d="M496,305v 16" fill="none" stroke="#ff0000" stroke-width="2"/>
<path d="M497,305v 16" fill="none" stroke="#ff0000" stroke-width="2"/>
<path d="M498,305v 16" fill="none" stroke="#ff0000" stroke-width="2"/>
<path d="M499,305v 16" fill="none" stroke="#ff0000" stroke-width="2"/>
<path d="M500,305v 16" fill="none" stroke="#ff0000" stroke-width="2"/>
<path d="M500,305v 16" fill="none" stroke="#ff0000" stroke-width="2"/>
<path d="M501,305v 16" fill="none" stroke="#ff0000" stroke-width="2"/>
<path d="M502,305v 16" fill="none" stroke="#ff0000" stroke-width="2"/>
<path d="M503,305v 16" fill="none" stroke="#ff0000" stroke-width="2"/>
<path d="M504,305v 16" fill="none" stroke="#ff0000" stroke-width="2"/>
<path d="M504,305v 16" fill="none" stroke="#ff0000" stroke-width="2"/>
<path d="M505,305v 16" fill="none" stroke="#ff0000" stroke-width="2"/>
<path d="M506,305v 16" fill="none" stroke="#ff0000" stroke-width="2"/>
<path d="M507,305v 16" fill="none" stroke="#ff0000" stroke-width="2"/>
<path d="M508,305v 16" fill="none" stroke="#ff0000" stroke-width="2"/>
<path d="M509,305v 16" fill="none" stroke="#ff0000" stroke-width="2"/>
<path d="M509,305v 16" fill="none" stroke="#ff0000" stroke-width="2"/>
<path d="M510,305v 15" fill="none" stroke="#ff0000" stroke-width="2"/>
<path d="M284,141l 1, 13v 20l 1, 22l 1, 12l 1, 7l 1, 5v 4l 1, 5l 1, 4l 1, 3l 1, 2v 3l 1, 3l 1, 2l 1, 1l 1, 2l 1, 2v 3l 1, 1l 1, 2l 1, 2l 1, 2v 2l 1, 1l 1, 1l 1, 1l 1, 3l 1, 1v 1l 1, 1l 1, 2l 1, 1l 1, 1v 1l 1, 1l 1, 2l 1, 1l 1, 1l 1, 1l 1, 2l 1, 1h 1l
 1, 1l 1, 2l 1, 1h 1l 1, 1l 1, 1l 1, 1l 1, 1h 1l 1, 1l 1, 1h 1l 1, 1l 1, 1l 1, 1h 3v 1h 1l 1, 1h 1l 1, 1h 1v 1h 1l 1, 1h 4l 1, 1h 2l 1, 1h 2l 1, 1h 3l 1, 1h 7l 1, 1h 4l 1, 1h 6l 1, 1h 9l 1, 1h 14l 1, 1h 106" fill="none" stroke="#ff0000"
 stroke-width="2"/>
<path d="M57,346h 453" fill="none" stroke="black"/>
<text x="419" y="372" fill="black" font-size="12" font-family="Helvetica">
TDC-TDC0 (ns)
</text>
<path d="M57,337v 9" fill="none" stroke="black"/>
<path d="M68,342v 4" fill="none" stroke="black"/>
<path d="M79,342v 4" fill="none" stroke="black"/>
<path d="M91,342v 4" fill="none" stroke="black"/>
<path d="M102,342v 4" fill="none" stroke="black"/>
<path d="M113,337v 9" fill="none" stroke="black"/>
<path d="M125,342v 4" fill="none" stroke="black"/>
<path d="M136,342v 4" fill="none" stroke="black"/>
<path d="M147,342v 4" fill="none" stroke="black"/>
<path d="M159,342v 4" fill="none" stroke="black"/>
<path d="M170,337v 9" fill="none" stroke="black"/>
<path d="M181,342v 4" fill="none" stroke="black"/>
<path d="M193,342v 4" fill="none" stroke="black"/>
<path d="M204,342v 4" fill="none" stroke="black"/>
<path d="M215,342v 4" fill="none" stroke="black"/>
<path d="M227,337v 9" fill="none" stroke="black"/>
<path d="M238,342v 4" fill="none" stroke="black"/>
<path d="M249,342v 4" fill="none" stroke="black"/>
<path d="M261,342v 4" fill="none" stroke="black"/>
<path d="M272,342v 4" fill="none" stroke="black"/>
<path d="M283,337v 9" fill="none" stroke="black"/>
<path d="M295,342v 4" fill="none" stroke="black"/>
<path d="M306,342v 4" fill="none" stroke="black"/>
<path d="M317,342v 4" fill="none" stroke="black"/>
<path d="M329,342v 4" fill="none" stroke="black"/>
<path d="M340,337v 9" fill="none" stroke="black"/>
<path d="M351,342v 4" fill="none" stroke="black"/>
<path d="M363,342v 4" fill="none" stroke="black"/>
<path d="M374,342v 4" fill="none" stroke="black"/>
<path d="M386,342v 4" fill="none" stroke="black"/>
<path d="M397,337v 9" fill="none" stroke="black"/>
<path d="M408,342v 4" fill="none" stroke="black"/>
<path d="M420,342v 4" fill="none" stroke="black"/>
<path d="M431,342v 4" fill="none" stroke="black"/>
<path d="M442,342v 4" fill="none" stroke="black"/>
<path d="M454,337v 9" fill="none" stroke="black"/>
<path d="M465,342v 4" fill="none" stroke="black"/>
<path d="M476,342v 4" fill="none" stroke="black"/>
<path d="M488,342v 4" fill="none" stroke="black"/>
<path d="M499,342v 4" fill="none" stroke="black"/>
<path d="M510,337v 9" fill="none" stroke="black"/>
<text x="36" y="359" fill="black" font-size="12" font-family="Helvetica">
-20000
</text>
<text x="93" y="359" fill="black" font-size="12" font-family="Helvetica">
-15000
</text>
<text x="149" y="359" fill="black" font-size="12" font-family="Helvetica">
-10000
</text>
<text x="210" y="359" fill="black" font-size="12" font-family="Helvetica">
-5000
</text>
<text x="280" y="359" fill="black" font-size="12" font-family="Helvetica">
0
</text>
<text x="325" y="359" fill="black" font-size="12" font-family="Helvetica">
5000
</text>
<text x="379" y="359" fill="black" font-size="12" font-family="Helvetica">
10000
</text>
<text x="435" y="359" fill="black" font-size="12" font-family="Helvetica">
15000
</text>
<text x="492" y="359" fill="black" font-size="12" font-family="Helvetica">
20000
</text>
<path d="M57,346v -308" fill="none" stroke="black"/>
<g transform="rotate(-90,29,72)">
<text x="29" y="72" fill="black" font-size="12" font-family="Helvetica">
Count
</text>
</g>
<path d="M70,346h -13" fill="none" stroke="black"/>
<path d="M63,335h -6" fill="none" stroke="black"/>
<path d="M63,324h -6" fill="none" stroke="black"/>
<path d="M63,313h -6" fill="none" stroke="black"/>
<path d="M63,302h -6" fill="none" stroke="black"/>
<path d="M70,290h -13" fill="none" stroke="black"/>
<path d="M63,279h -6" fill="none" stroke="black"/>
<path d="M63,268h -6" fill="none" stroke="black"/>
<path d="M63,257h -6" fill="none" stroke="black"/>
<path d="M63,245h -6" fill="none" stroke="black"/>
<path d="M70,234h -13" fill="none" stroke="black"/>
<path d="M63,223h -6" fill="none" stroke="black"/>
<path d="M63,212h -6" fill="none" stroke="black"/>
<path d="M63,200h -6" fill="none" stroke="black"/>
<path d="M63,189h -6" fill="none" stroke="black"/>
<path d="M70,178h -13" fill="none" stroke="black"/>
<path d="M63,167h -6" fill="none" stroke="black"/>
<path d="M63,156h -6" fill="none" stroke="black"/>
<path d="M63,144h -6" fill="none" stroke="black"/>
<path d="M63,133h -6" fill="none" stroke="black"/>
<path d="M70,122h -13" fill="none" stroke="black"/>
<path d="M63,111h -6" fill="none" stroke="black"/>
<path d="M63,99h -6" fill="none" stroke="black"/>
<path d="M63,88h -6" fill="none" stroke="black"/>
<path d="M63,77h -6" fill="none" stroke="black"/>
<path d="M70,66h -13" fill="none" stroke="black"/>
<path d="M70,66h -13" fill="none" stroke="black"/>
<path d="M63,54h -6" fill="none" stroke="black"/>
<path d="M63,43h -6" fill="none" stroke="black"/>
<text x="47" y="350" fill="black" font-size="12" font-family="Helvetica">
0
</text>
<text x="33" y="294" fill="black" font-size="12" font-family="Helvetica">
500
</text>
<text x="25" y="238" fill="black" font-size="12" font-family="Helvetica">
1000
</text>
<text x="25" y="181" fill="black" font-size="12" font-family="Helvetica">
1500
</text>
<text x="25" y="125" fill="black" font-size="12" font-family="Helvetica">
2000
</text>
<text x="25" y="70" fill="black" font-size="12" font-family="Helvetica">
2500
</text>
<rect x="442" y="25" width="114" height="46" fill="white"/>
<path d="M442,71h 114" fill="none" stroke="black"/>
<path d="M556,71v -46" fill="none" stroke="black"/>
<path d="M556,25h -114" fill="none" stroke="black"/>
<path d="M442,25v 46" fill="none" stroke="black"/>
<text x="447" y="28" fill="black" font-size="4" font-family="Helvetica">
Entries 
</text>
<text x="535" y="28" fill="black" font-size="4" font-family="Helvetica">
 822492
</text>
<text x="450" y="34" fill="black" font-size="4" font-family="Helvetica">
 / ndf 
</text>
<text x="449" y="30" fill="black" font-size="3" font-family="Helvetica">
2
</text>
<text x="447" y="34" fill="black" font-size="4" font-family="Times">
&#0967;
</text>
<text x="526" y="33" fill="black" font-size="4" font-family="Helvetica">
  2716 / 1239
</text>
<text x="452" y="36" fill="black" font-size="4" font-family="Helvetica">
   
</text>
<text x="450" y="39" fill="black" font-size="3" font-family="Helvetica">
cu
</text>
<text x="447" y="36" fill="black" font-size="4" font-family="Helvetica">
N
</text>
<text x="541" y="38" fill="black" font-size="4" font-family="Helvetica">
 28.7
</text>
<text x="538" y="38" fill="black" font-size="4" font-family="Times">
&#0177;
</text>
<text x="526" y="38" fill="black" font-size="4" font-family="Helvetica">
 941.6 
</text>
<text x="450" y="41" fill="black" font-size="4" font-family="Helvetica">
 
</text>
<text x="448" y="45" fill="black" font-size="3" font-family="Helvetica">
cu
</text>
<text x="447" y="41" fill="black" font-size="4" font-family="Times">
&#0964;
</text>
<text x="543" y="43" fill="black" font-size="4" font-family="Helvetica">
 0.3
</text>
<text x="541" y="43" fill="black" font-size="4" font-family="Times">
&#0177;
</text>
<text x="529" y="43" fill="black" font-size="4" font-family="Helvetica">
 162.5 
</text>
<text x="450" y="45" fill="black" font-size="4" font-family="Helvetica">
    
</text>
<text x="450" y="49" fill="black" font-size="3" font-family="Helvetica">
f
</text>
<text x="447" y="45" fill="black" font-size="4" font-family="Helvetica">
N
</text>
<text x="543" y="48" fill="black" font-size="4" font-family="Helvetica">
 6.7
</text>
<text x="541" y="48" fill="black" font-size="4" font-family="Times">
&#0177;
</text>
<text x="529" y="48" fill="black" font-size="4" font-family="Helvetica">
 948.9 
</text>
<text x="448" y="50" fill="black" font-size="4" font-family="Helvetica">
 
</text>
<text x="448" y="53" fill="black" font-size="3" font-family="Helvetica">
f
</text>
<text x="447" y="50" fill="black" font-size="4" font-family="Times">
&#0964;
</text>
<text x="541" y="52" fill="black" font-size="4" font-family="Helvetica">
 18.0
</text>
<text x="538" y="52" fill="black" font-size="4" font-family="Times">
&#0177;
</text>
<text x="526" y="52" fill="black" font-size="4" font-family="Helvetica">
  2262 
</text>
<text x="452" y="54" fill="black" font-size="4" font-family="Helvetica">
  
</text>
<text x="450" y="58" fill="black" font-size="3" font-family="Helvetica">
sin
</text>
<text x="447" y="54" fill="black" font-size="4" font-family="Helvetica">
N
</text>
<text x="541" y="57" fill="black" font-size="4" font-family="Helvetica">
 0.83
</text>
<text x="538" y="57" fill="black" font-size="4" font-family="Times">
&#0177;
</text>
<text x="526" y="57" fill="black" font-size="4" font-family="Helvetica">
 73.73 
</text>
<text x="448" y="62" fill="black" font-size="4" font-family="Helvetica">
     
</text>
<text x="447" y="62" fill="black" font-size="4" font-family="Times">
&#0966;
</text>
<text x="541" y="62" fill="black" font-size="4" font-family="Helvetica">
 0.26
</text>
<text x="538" y="62" fill="black" font-size="4" font-family="Times">
&#0177;
</text>
<text x="526" y="62" fill="black" font-size="4" font-family="Helvetica">
 12.41 
</text>
<text x="447" y="65" fill="black" font-size="4" font-family="Helvetica">
T        
</text>
<text x="541" y="66" fill="black" font-size="4" font-family="Helvetica">
 0.00
</text>
<text x="538" y="66" fill="black" font-size="4" font-family="Times">
&#0177;
</text>
<text x="526" y="66" fill="black" font-size="4" font-family="Helvetica">
 59.36 
</text>
<text x="450" y="68" fill="black" font-size="4" font-family="Helvetica">
    
</text>
<text x="450" y="71" fill="black" font-size="3" font-family="Helvetica">
b
</text>
<text x="447" y="68" fill="black" font-size="4" font-family="Helvetica">
N
</text>
<text x="543" y="71" fill="black" font-size="4" font-family="Helvetica">
 0.7
</text>
<text x="541" y="71" fill="black" font-size="4" font-family="Times">
&#0177;
</text>
<text x="529" y="71" fill="black" font-size="4" font-family="Helvetica">
 292.7 
</text>
<text x="270" y="21" fill="black" font-size="21" font-family="Helvetica">
D2
</text></svg>
