<?xml version="1.0" standalone="no"?>
<svg width="567" height="385" viewBox="0 0 567 385" xmlns="http://www.w3.org/2000/svg">
<title>
images/analysis_g4bl_phase_loose_f/458_D3.svg
</title>
<desc>
Creator: ROOT Version 5.34/05
CreationDate: Mon Jun 10 22:10:11 2013</desc>
<defs>
</defs>
<rect x="0" y="0" width="567" height="385" fill="white"/>
<rect x="57" y="38" width="453" height="308" fill="white"/>
<rect x="57" y="38" width="453" height="308" fill="none" stroke="black"/>
<rect x="57" y="38" width="453" height="308" fill="white"/>
<rect x="57" y="38" width="453" height="308" fill="none" stroke="black"/>
<path d="M57,346h 44v -2v 1h 1v -5v 5v -9h 1v 3v -7v 5v -6h 1v -3v 9v -7h 1v 4v -3v 7v -2h 1v -3v 6v -9h 1v 12v -14v 11v -4h 1v -11v 13v -9v 2h 1v 8v -10v 11v -8h 1v -3v 12v -13h 1v 16v -18v 15v -4h 1v -8v 10v -10h 1v 11v -15v 12h 1v -6v 9v -6h 1v
 -4v 8v -5v 3h 1v -10v 12v -7h 1v -3v 10v -9v 11h 1v -12v 13v -8h 1v 4v -9v 12h 1v -10v 8v -2h 1v -6v 8v -9v 9h 1v -4v 6v -9h 1v -1v 8v -3v 4h 1v 1v -6v 11v -11h 1v -5v 11v -13v 10h 1v 1v -4v 5v -4v 3h 1v -10v 11v -7v 1h 1v 7v -11v 8v -6h 1v 7v -9v
 7h 1v 3v -11v 13h 1v -9v 8v -8v 5h 1v -6v 7v -3h 1v -4v 7v -7h 1v 9v -10v 10h 1v -10v 8v -5h 1v 6v -8v 6h 1v -8v 11v -11v 3h 1v 10v -14v 10h 1v -12v 15v -13v 1h 1v 12v -12v 13h 1v -15v 8v -5h 1v 7v -5v 8h 1v -12v 8v -6h 1v 7v -6v 7v -3h 1v -4v 8v
 -5v 1h 1v 3v -13v 16v -9h 1v -2v 10v -12h 1v 12v -13v 10h 1v -7v 11v -9h 1v 5v -7v 10h 1v -10v 9v -5h 1v -2v 9v -12v 8h 1v -6v 7v -6h 1v 8v -14v 14h 1v -8v 4v -4h 1v -4v 12v -15v 12h 1v -10v 16v -8h 1v -4v 6v -11v 11h 1v -14v 17v -8h 1v -4v 14v -16v
 11h 1v -6v 5h 1v -4v 7v -6v 4h 1v -8v 12v -3h 1v -5v 10v -15v 10h 1v -13v 16v -5h 1v -5v 9v -8v 3h 1v 3v -6v 8v -2h 1v -12v 15v -9v 3h 1v 4v -8v 9v -3h 1v -8v 7v -7v 10h 1v 1v -12v 9v -1h 1v -8v 13v -13v 1h 1v 10v -3v 2h 1v -13v 15v -9v 3h 1v 4v -5v
 2h 1v -4v 4v -1v 9v -15v 3h 1v 9v -14v 12h 1v -7v 10v -15v 2h 1v 10v -9v 12h 1v -11v 10v -14h 1v 10v -8v 6h 1v 3v -11v 11v -6v 2h 1v 7v -18v 17h 1v -8v 8v -7h 1v -1v 7v -5v 7h 1v -16v 15v -7h 1v 12v -12v 5h 1v -6v 7v -9h 1v 12v -12v 10h 1v -19v 20v
 -11h 1v 12v -7v 4h 1v -4v 6v -7h 1v -3v 8v -9v 6h 1v 2v -6v 6v -7h 1v 8v -10v 6h 1v 8v -16v 11v -2h 1v -8v 13v -8v 6h 1v -4v 5v -5h 1v -3v 9v -12v 8h 1v 4v -9v 8v -5h 1v -2v 8v -10v 7h 1v 3v -13v 12v -1h 1v -12v 14v -9v 6h 1v -5v 8v -2h 1v -6v 3v
 -4v 3h 1v 1v -1v 6h 1v -15v 17v -16v 14h 1v -12v 16h 1v -13v 10v -6h 1v 2v -12v 17h 1v -13v 12v -10h 1v 9v -3v 3v -4v 3h 1v -7v 8v -9v 4h 1v 5v -11v 11h 1v -8v 4v -1v 2v -12h 1v 13v -8v 13h 1v -14v 9v -10v 6h 1v 1v -5v 2h 1v 3v -6v 10v -8h 1v 6v
 -14v 14h 1v -11v 16v -7h 1v -3v 6v -5v 2h 1v 5v -8v 6v -7v 1h 1v -5v 10v -14v 12h 1v 1v -10v 14v -13h 1v 13v -9v 8h 1v -16v 15v -6v 2h 1v -1v 4v -9v 8v -1h 1v -6v 10v -11h 1v -6v 13v -4v 9h 1v -11v 10v -7h 1v -3v 11v -9v 6h 1v 1v -14v 14v -6h 1v -4v
 7v -10v 10h 1v 2v -11v 13v -8h 1v -2v 6v -6v 2h 1v 7v -12v 12v -3h 1v -8v 11v -17v 17h 1v 2v -14v 12v -6h 1v -4v 8v -10v 5h 1v 4v -6v 9v -4h 1v -11v 14v -11v 3h 1v 8v -13v 10v -2h 1v -4v 9v -9h 1v 10v -17v 16h 1v -8v 10v -13v 2h 1v 10v -9v 3v -1v 3h
 1v -8v 8v -11v 2h 1v 16v -14v 8h 1v -8v 7v -9h 1v 11v -11v 4h 1v 4v -8v 14v -18h 1v 16v -14v 8h 1v -7v 10v -9h 1v 13v -16v 13h 1v -11v 12v -12h 1v 10v -9v 12h 1v -9v 6v -12h 1v 10v -12v 11h 1v 1v -13v 15v -12h 1v 10v -11v 6h 1v 5v -6v 5v -4h 1v -2v
 11v -7h 1v 3v -4v 5v -3v 4v -14h 1v 14v -12v 6h 1v 3v -5v 4v -4h 1v -3v 8v -8v 6h 1v 2v -10v 14v -7h 1v -6v 10v -9v 12h 1v -12v 11v -4h 1v -10v 10v -3v 3h 1v -17v 21v -7h 1v -8v 9v -12v 13h 1v -7v 11v -4h 1v -10v 8v -12v 14h 1v -11v 11v -10v 16h 1v
 -16v 10v -8h 1v 11v -9v 9v -5h 1v -13v 17v -12v 5v -3h 1v 9v -7h 1v -7v 10v -26v 4h 1v 9v -7v 19h 1v 22v -293v 97h 1v 64v -30v 26h 1v -9v 36v -9h 1v 9v -3v 2h 1v -23v 25v -4h 1v 17v -4v 6h 1v -13v 18v -10v 1h 1v -1v 16v -19v 17h 1v -12v 9v -11v 5h
 1v 16v -19h 1v 8v -2v 16v -10v 9h 1v 4v -17v 7h 1v 11v -13v 9v -11v 6h 1v 9v -5h 1v 7v -11v 19v -16h 1v -3v 20v -23v 18h 1v -6v 8v -19h 1v 29v -29v 14h 1v 10v -9v 6v -1v 5v -12h 1v 11v -5v 2v -15v 10h 1v 4v -5v 8v -5v 8h 1v -8v 5v -1v 1h 1v 13v -18v
 15v -10h 1v -3v 9v -10h 1v 11v -13v 18v -2h 1v -12v 13v -10h 1v 15v -19v 22v -16h 1v 19v -30v 26h 1v -8v 7v -11v 7h 1v -3v 10v -19v 13h 1v -7v 16h 1v -18v 17v -12h 1v 6v -4v 14h 1v -17v 16v -10v 12h 1v 6v -22v 20h 1v -20v 10v -5v 4h 1v 7v -8v 6h 1v
 5v -8v 2v -8v 8h 1v 3v -14v 18h 1v -13v 10v -10v 5v -6h 1v 8v -5v 9v -3v 4h 1v -11v 12v -7h 1v 9v -10v 4h 1v -6v 13v -2h 1v 3v -19v 14h 1v -11v 11v -3v 12v -11v 2h 1v 6v -18v 15h 1v -6v 11v -12h 1v 13v -13v 2h 1v 3v -4v 15v -19h 1v 14v -12v 12h 1v
 -15v 14v -6v 3h 1v -7v 12v -14v 1h 1v 12v -4v 6v -9h 1v 5v -5v 13v -24v 9h 1v 4v -7v 12v -4h 1v -3v 5v -5v 6h 1v 8v -20v 12v -8h 1v 12v -8h 1v 4v -7v 9v -4h 1v -5v 7v -5v 7h 1v -6v 11v -10v 13v -16h 1v -3v 13v -12h 1v 10v -10v 8v -1h 1v -4v 12v -12v
 8h 1v 2v -10v 11v -1h 1v -10v 11v -14h 1v 17v -11v 15h 1v -16v 15v -15v 3h 1v 10v -13v 9h 1v -7v 13v -23v 13h 1v 7v -16v 15h 1v -5v 5v -9v 8h 1v 3v -7v 10h 1v -13v 9v -10v 2h 1v 4v -1v 5h 1v -6v 5v -13h 1v 15v -9v 6h 1v -8v 10v -5h 1v 5v -13v 15h 1v
 -19v 21v -9h 1v -1v 3v -5v 9h 1v -6v 6v -12h 1v 14v -11v 2h 1v 5v -6v 8v -13h 1v 12v -8v 8h 1v 1v -10v 10v -12h 1v 15v -13v 5h 1v 4v -11v 14v -8h 1v -4v 10v -4v 2h 1v 5v -13v 12v -6h 1v -3v 9v -11v 5h 1v 4v -11v 15v -14h 1v -2v 13v -5v 3h 1v 2v -6v
 11v -7h 1v -3v 7v -13h 1v 18v -17v 15v -12h 1v -1v 10v -10h 1v 13v -15v 15v -7h 1v -11v 17v -15h 1v 11v -9v 12h 1v -10v 9v -12h 1v 8v -6v 9h 1v -4v 7v -12h 1v 8v -11v 10h 1v -6v 10v -11h 1v 12v -6v 3v -8v 11h 1v -14v 12v -8h 1v 5v -8v 13h 1v -11v
 12v -12v 4h 1v 5v -8v 12h 1v -12v 10v -12h 1v 9v -9v 7h 1v 4v -8v 7v -7h 1v 8v -11v 7h 1v -9v 12v -8v 1h 1v 9v -11v 7h 1v -14v 13v -8h 1v 8v -3v 1v -1h 1v 8v -9v 3v -10h 1v 13v -5v 9h 1v -13v 12v -15h 1v 14v -12v 8h 1v 5v -9v 5v -5h 1v 7v -9v 2h 1v
 10v -17v 13v -8h 1v 13v -13v 9h 1v 2v -18v 19v -10h 1v 7v -8h 1v 8v -14v 14v -6h 1v -2v 13v -14v 3h 1v 5v -9v 12v -3h 1v -2v 5v -6v 3h 1v 2v -10v 9v -4h 1v -1v 8v -14h 1v 11v -9v 8v -2h 1v -7v 12v -9h 1v 9v -11v 11h 1v -11v 7v -4h 1v 6v -8v 10v -2h
 1v -9v 7v -5h 1v 6v -11v 12h 1v -13v 15v -10h 1v 13v -10v 7h 1v -13v 11v -7h 1v -2v 2v -2v 6v -1v 5h 1v -8v 8v -9h 1v 9v -10v 13h 1v -14v 5v -9h 1v 14v -10v 10h 1v -12v 15v -9v 3h 1v 7v -14v 8h 1v -7v 11v -9h 1v 8v -8v 4h 1v -10v 12v -7h 1v 10v -8v
 6h 1v -7v 8v -2h 1v -1v 4v -9v 6h 1v 5v -13v 11v -7h 1v 5v -13v 6h 1v 10v -15v 11v -9h 1v 9v -8v 2h 1v 10v -9v 10v -8h 1v -4v 11v -12h 1v 11v -9v 11v -2h 1v -5v 2v -8h 1v 11v -6v 1v -3v 8v -5h 1v -10v 13v -10h 1v 10v -9v 11v -6h 1v -5v 8v -13h 1v
 14v -6v 8v -5h 1v -7v 10v -6h 1v 6v -10v 12v -6h 1v 2v -2v 3v -3h 1v 4v -3v 3h 1v -5v 4v -12h 1v 13v -2v 1h 1v -8v 9v -9h 1v -1v 9v -3v 4h 1v -8v 10v -5h 1v 8v -21v 16h 1v -4v 5v -10h 1v 9v -7v 9h 1v -12v 15v -14h 1v 9v -8v 14h 1v -10v 4v -2h 1v
 -11v 15v -12v 12h 1v -13v 11v -3h 1v -4v 9v -9v 7h 1v -10v 12v -5h 1v -5v 9v -10v 8h 1v -3v 4v -13h 1v 11v -7v 5h 1v 1v -4v 7v -6h 1v 9v -7v 1v -1h 1v 3v -4v 3v -1v 2v -4h 1v -5v 15v -10v 4h 1v 2v -14v 13v -14h 1v 16v -10h 1v 9v -9v 10v -5h 1v -6v
 7v -7h 1v 11v -8v 9v -7h 1v -3v 6v -12h 1v 13v -8v 13v -11h 1v 5v -7h 1v 7v -10v 13v -7h 1v -1v 6v -5v 4h 1v 4v -10v 6h 1v -8v 8v -5v 4h 1v 3v -9v 9v -3h 1v -6v 11v -10v 3h 1v -3v 11v -9v 7h 1v -11v 4v -1v 6v -6h 1v 7v -5v 7v -3h 1v -8v 10v -12h 1v
 10v -4v 3h 1v -3v 6v -9h 1v -1v 9v -13v 15h 1v -9v 4v -4h 1v 6v -11v 14h 1v -18v 15v -3h 1v -4v 7v -10v 11h 1v -11v 11v -11h 1v 10v -7v 5h 1v -5v 10v -4h 1v 2v -7v 9h 1v -18v 14v -1h 1v -5v 11v -13" fill="none" stroke="#000099"/>
<path d="M284,188v 13" fill="none" stroke="#ff0000" stroke-width="2"/>
<path d="M285,203v 25" fill="none" stroke="#ff0000" stroke-width="2"/>
<path d="M285,223v 15" fill="none" stroke="#ff0000" stroke-width="2"/>
<path d="M286,229v 13" fill="none" stroke="#ff0000" stroke-width="2"/>
<path d="M287,234v 13" fill="none" stroke="#ff0000" stroke-width="2"/>
<path d="M288,239v 10" fill="none" stroke="#ff0000" stroke-width="2"/>
<path d="M289,242v 12" fill="none" stroke="#ff0000" stroke-width="2"/>
<path d="M289,245v 11" fill="none" stroke="#ff0000" stroke-width="2"/>
<path d="M290,247v 12" fill="none" stroke="#ff0000" stroke-width="2"/>
<path d="M291,250v 11" fill="none" stroke="#ff0000" stroke-width="2"/>
<path d="M292,254v 9" fill="none" stroke="#ff0000" stroke-width="2"/>
<path d="M293,255v 12" fill="none" stroke="#ff0000" stroke-width="2"/>
<path d="M293,258v 11" fill="none" stroke="#ff0000" stroke-width="2"/>
<path d="M294,260v 11" fill="none" stroke="#ff0000" stroke-width="2"/>
<path d="M295,261v 12" fill="none" stroke="#ff0000" stroke-width="2"/>
<path d="M296,264v 10" fill="none" stroke="#ff0000" stroke-width="2"/>
<path d="M297,266v 11" fill="none" stroke="#ff0000" stroke-width="2"/>
<path d="M298,269v 10" fill="none" stroke="#ff0000" stroke-width="2"/>
<path d="M298,269v 12" fill="none" stroke="#ff0000" stroke-width="2"/>
<path d="M299,272v 10" fill="none" stroke="#ff0000" stroke-width="2"/>
<path d="M300,274v 11" fill="none" stroke="#ff0000" stroke-width="2"/>
<path d="M301,276v 10" fill="none" stroke="#ff0000" stroke-width="2"/>
<path d="M302,277v 11" fill="none" stroke="#ff0000" stroke-width="2"/>
<path d="M302,278v 12" fill="none" stroke="#ff0000" stroke-width="2"/>
<path d="M303,281v 10" fill="none" stroke="#ff0000" stroke-width="2"/>
<path d="M304,282v 11" fill="none" stroke="#ff0000" stroke-width="2"/>
<path d="M305,283v 12" fill="none" stroke="#ff0000" stroke-width="2"/>
<path d="M306,285v 10" fill="none" stroke="#ff0000" stroke-width="2"/>
<path d="M307,286v 11" fill="none" stroke="#ff0000" stroke-width="2"/>
<path d="M307,288v 10" fill="none" stroke="#ff0000" stroke-width="2"/>
<path d="M308,289v 11" fill="none" stroke="#ff0000" stroke-width="2"/>
<path d="M309,291v 10" fill="none" stroke="#ff0000" stroke-width="2"/>
<path d="M310,291v 11" fill="none" stroke="#ff0000" stroke-width="2"/>
<path d="M311,292v 11" fill="none" stroke="#ff0000" stroke-width="2"/>
<path d="M311,294v 10" fill="none" stroke="#ff0000" stroke-width="2"/>
<path d="M312,295v 11" fill="none" stroke="#ff0000" stroke-width="2"/>
<path d="M313,296v 11" fill="none" stroke="#ff0000" stroke-width="2"/>
<path d="M314,297v 11" fill="none" stroke="#ff0000" stroke-width="2"/>
<path d="M315,298v 10" fill="none" stroke="#ff0000" stroke-width="2"/>
<path d="M315,299v 10" fill="none" stroke="#ff0000" stroke-width="2"/>
<path d="M316,300v 11" fill="none" stroke="#ff0000" stroke-width="2"/>
<path d="M317,301v 11" fill="none" stroke="#ff0000" stroke-width="2"/>
<path d="M318,301v 11" fill="none" stroke="#ff0000" stroke-width="2"/>
<path d="M319,303v 10" fill="none" stroke="#ff0000" stroke-width="2"/>
<path d="M320,304v 10" fill="none" stroke="#ff0000" stroke-width="2"/>
<path d="M320,304v 11" fill="none" stroke="#ff0000" stroke-width="2"/>
<path d="M321,305v 11" fill="none" stroke="#ff0000" stroke-width="2"/>
<path d="M322,305v 11" fill="none" stroke="#ff0000" stroke-width="2"/>
<path d="M323,307v 10" fill="none" stroke="#ff0000" stroke-width="2"/>
<path d="M324,308v 9" fill="none" stroke="#ff0000" stroke-width="2"/>
<path d="M324,308v 10" fill="none" stroke="#ff0000" stroke-width="2"/>
<path d="M325,308v 11" fill="none" stroke="#ff0000" stroke-width="2"/>
<path d="M326,308v 11" fill="none" stroke="#ff0000" stroke-width="2"/>
<path d="M327,310v 10" fill="none" stroke="#ff0000" stroke-width="2"/>
<path d="M328,310v 11" fill="none" stroke="#ff0000" stroke-width="2"/>
<path d="M329,311v 10" fill="none" stroke="#ff0000" stroke-width="2"/>
<path d="M329,311v 10" fill="none" stroke="#ff0000" stroke-width="2"/>
<path d="M330,312v 10" fill="none" stroke="#ff0000" stroke-width="2"/>
<path d="M331,313v 9" fill="none" stroke="#ff0000" stroke-width="2"/>
<path d="M332,313v 10" fill="none" stroke="#ff0000" stroke-width="2"/>
<path d="M333,313v 11" fill="none" stroke="#ff0000" stroke-width="2"/>
<path d="M333,314v 10" fill="none" stroke="#ff0000" stroke-width="2"/>
<path d="M334,315v 10" fill="none" stroke="#ff0000" stroke-width="2"/>
<path d="M335,315v 11" fill="none" stroke="#ff0000" stroke-width="2"/>
<path d="M336,315v 11" fill="none" stroke="#ff0000" stroke-width="2"/>
<path d="M337,316v 10" fill="none" stroke="#ff0000" stroke-width="2"/>
<path d="M337,316v 10" fill="none" stroke="#ff0000" stroke-width="2"/>
<path d="M338,317v 9" fill="none" stroke="#ff0000" stroke-width="2"/>
<path d="M339,317v 10" fill="none" stroke="#ff0000" stroke-width="2"/>
<path d="M340,317v 11" fill="none" stroke="#ff0000" stroke-width="2"/>
<path d="M341,317v 11" fill="none" stroke="#ff0000" stroke-width="2"/>
<path d="M342,317v 11" fill="none" stroke="#ff0000" stroke-width="2"/>
<path d="M342,318v 11" fill="none" stroke="#ff0000" stroke-width="2"/>
<path d="M343,318v 11" fill="none" stroke="#ff0000" stroke-width="2"/>
<path d="M344,319v 10" fill="none" stroke="#ff0000" stroke-width="2"/>
<path d="M345,319v 11" fill="none" stroke="#ff0000" stroke-width="2"/>
<path d="M346,320v 10" fill="none" stroke="#ff0000" stroke-width="2"/>
<path d="M346,320v 10" fill="none" stroke="#ff0000" stroke-width="2"/>
<path d="M347,320v 10" fill="none" stroke="#ff0000" stroke-width="2"/>
<path d="M348,320v 10" fill="none" stroke="#ff0000" stroke-width="2"/>
<path d="M349,321v 9" fill="none" stroke="#ff0000" stroke-width="2"/>
<path d="M350,321v 10" fill="none" stroke="#ff0000" stroke-width="2"/>
<path d="M351,321v 10" fill="none" stroke="#ff0000" stroke-width="2"/>
<path d="M351,321v 10" fill="none" stroke="#ff0000" stroke-width="2"/>
<path d="M352,321v 11" fill="none" stroke="#ff0000" stroke-width="2"/>
<path d="M353,321v 11" fill="none" stroke="#ff0000" stroke-width="2"/>
<path d="M354,322v 10" fill="none" stroke="#ff0000" stroke-width="2"/>
<path d="M355,322v 10" fill="none" stroke="#ff0000" stroke-width="2"/>
<path d="M355,322v 11" fill="none" stroke="#ff0000" stroke-width="2"/>
<path d="M356,322v 11" fill="none" stroke="#ff0000" stroke-width="2"/>
<path d="M357,322v 11" fill="none" stroke="#ff0000" stroke-width="2"/>
<path d="M358,323v 10" fill="none" stroke="#ff0000" stroke-width="2"/>
<path d="M359,323v 11" fill="none" stroke="#ff0000" stroke-width="2"/>
<path d="M359,323v 11" fill="none" stroke="#ff0000" stroke-width="2"/>
<path d="M360,323v 11" fill="none" stroke="#ff0000" stroke-width="2"/>
<path d="M361,323v 11" fill="none" stroke="#ff0000" stroke-width="2"/>
<path d="M362,324v 10" fill="none" stroke="#ff0000" stroke-width="2"/>
<path d="M363,324v 10" fill="none" stroke="#ff0000" stroke-width="2"/>
<path d="M364,324v 10" fill="none" stroke="#ff0000" stroke-width="2"/>
<path d="M364,324v 10" fill="none" stroke="#ff0000" stroke-width="2"/>
<path d="M365,324v 10" fill="none" stroke="#ff0000" stroke-width="2"/>
<path d="M366,324v 10" fill="none" stroke="#ff0000" stroke-width="2"/>
<path d="M367,325v 9" fill="none" stroke="#ff0000" stroke-width="2"/>
<path d="M368,325v 9" fill="none" stroke="#ff0000" stroke-width="2"/>
<path d="M368,325v 9" fill="none" stroke="#ff0000" stroke-width="2"/>
<path d="M369,325v 10" fill="none" stroke="#ff0000" stroke-width="2"/>
<path d="M370,325v 10" fill="none" stroke="#ff0000" stroke-width="2"/>
<path d="M371,325v 10" fill="none" stroke="#ff0000" stroke-width="2"/>
<path d="M372,325v 10" fill="none" stroke="#ff0000" stroke-width="2"/>
<path d="M372,325v 10" fill="none" stroke="#ff0000" stroke-width="2"/>
<path d="M373,326v 9" fill="none" stroke="#ff0000" stroke-width="2"/>
<path d="M374,326v 9" fill="none" stroke="#ff0000" stroke-width="2"/>
<path d="M375,326v 10" fill="none" stroke="#ff0000" stroke-width="2"/>
<path d="M376,326v 10" fill="none" stroke="#ff0000" stroke-width="2"/>
<path d="M377,326v 10" fill="none" stroke="#ff0000" stroke-width="2"/>
<path d="M377,326v 10" fill="none" stroke="#ff0000" stroke-width="2"/>
<path d="M378,326v 10" fill="none" stroke="#ff0000" stroke-width="2"/>
<path d="M379,326v 10" fill="none" stroke="#ff0000" stroke-width="2"/>
<path d="M380,326v 10" fill="none" stroke="#ff0000" stroke-width="2"/>
<path d="M381,326v 10" fill="none" stroke="#ff0000" stroke-width="2"/>
<path d="M381,326v 10" fill="none" stroke="#ff0000" stroke-width="2"/>
<path d="M382,326v 10" fill="none" stroke="#ff0000" stroke-width="2"/>
<path d="M383,326v 10" fill="none" stroke="#ff0000" stroke-width="2"/>
<path d="M384,326v 10" fill="none" stroke="#ff0000" stroke-width="2"/>
<path d="M385,326v 11" fill="none" stroke="#ff0000" stroke-width="2"/>
<path d="M386,326v 11" fill="none" stroke="#ff0000" stroke-width="2"/>
<path d="M386,326v 11" fill="none" stroke="#ff0000" stroke-width="2"/>
<path d="M387,326v 11" fill="none" stroke="#ff0000" stroke-width="2"/>
<path d="M388,326v 11" fill="none" stroke="#ff0000" stroke-width="2"/>
<path d="M389,326v 11" fill="none" stroke="#ff0000" stroke-width="2"/>
<path d="M390,326v 11" fill="none" stroke="#ff0000" stroke-width="2"/>
<path d="M390,326v 11" fill="none" stroke="#ff0000" stroke-width="2"/>
<path d="M391,326v 11" fill="none" stroke="#ff0000" stroke-width="2"/>
<path d="M392,326v 11" fill="none" stroke="#ff0000" stroke-width="2"/>
<path d="M393,327v 10" fill="none" stroke="#ff0000" stroke-width="2"/>
<path d="M394,327v 10" fill="none" stroke="#ff0000" stroke-width="2"/>
<path d="M394,327v 10" fill="none" stroke="#ff0000" stroke-width="2"/>
<path d="M395,327v 10" fill="none" stroke="#ff0000" stroke-width="2"/>
<path d="M396,327v 10" fill="none" stroke="#ff0000" stroke-width="2"/>
<path d="M397,327v 10" fill="none" stroke="#ff0000" stroke-width="2"/>
<path d="M398,327v 10" fill="none" stroke="#ff0000" stroke-width="2"/>
<path d="M399,327v 10" fill="none" stroke="#ff0000" stroke-width="2"/>
<path d="M399,327v 11" fill="none" stroke="#ff0000" stroke-width="2"/>
<path d="M400,327v 11" fill="none" stroke="#ff0000" stroke-width="2"/>
<path d="M401,327v 11" fill="none" stroke="#ff0000" stroke-width="2"/>
<path d="M402,327v 11" fill="none" stroke="#ff0000" stroke-width="2"/>
<path d="M403,327v 11" fill="none" stroke="#ff0000" stroke-width="2"/>
<path d="M403,327v 11" fill="none" stroke="#ff0000" stroke-width="2"/>
<path d="M404,327v 11" fill="none" stroke="#ff0000" stroke-width="2"/>
<path d="M405,327v 11" fill="none" stroke="#ff0000" stroke-width="2"/>
<path d="M406,327v 11" fill="none" stroke="#ff0000" stroke-width="2"/>
<path d="M407,327v 11" fill="none" stroke="#ff0000" stroke-width="2"/>
<path d="M408,327v 11" fill="none" stroke="#ff0000" stroke-width="2"/>
<path d="M408,327v 11" fill="none" stroke="#ff0000" stroke-width="2"/>
<path d="M409,327v 11" fill="none" stroke="#ff0000" stroke-width="2"/>
<path d="M410,327v 11" fill="none" stroke="#ff0000" stroke-width="2"/>
<path d="M411,327v 11" fill="none" stroke="#ff0000" stroke-width="2"/>
<path d="M412,327v 11" fill="none" stroke="#ff0000" stroke-width="2"/>
<path d="M412,327v 11" fill="none" stroke="#ff0000" stroke-width="2"/>
<path d="M413,327v 11" fill="none" stroke="#ff0000" stroke-width="2"/>
<path d="M414,327v 11" fill="none" stroke="#ff0000" stroke-width="2"/>
<path d="M415,327v 11" fill="none" stroke="#ff0000" stroke-width="2"/>
<path d="M416,328v 10" fill="none" stroke="#ff0000" stroke-width="2"/>
<path d="M416,328v 10" fill="none" stroke="#ff0000" stroke-width="2"/>
<path d="M417,328v 10" fill="none" stroke="#ff0000" stroke-width="2"/>
<path d="M418,328v 10" fill="none" stroke="#ff0000" stroke-width="2"/>
<path d="M419,328v 10" fill="none" stroke="#ff0000" stroke-width="2"/>
<path d="M420,328v 10" fill="none" stroke="#ff0000" stroke-width="2"/>
<path d="M421,328v 10" fill="none" stroke="#ff0000" stroke-width="2"/>
<path d="M421,328v 10" fill="none" stroke="#ff0000" stroke-width="2"/>
<path d="M422,328v 10" fill="none" stroke="#ff0000" stroke-width="2"/>
<path d="M423,328v 10" fill="none" stroke="#ff0000" stroke-width="2"/>
<path d="M424,328v 10" fill="none" stroke="#ff0000" stroke-width="2"/>
<path d="M425,328v 10" fill="none" stroke="#ff0000" stroke-width="2"/>
<path d="M425,328v 10" fill="none" stroke="#ff0000" stroke-width="2"/>
<path d="M426,328v 10" fill="none" stroke="#ff0000" stroke-width="2"/>
<path d="M427,328v 10" fill="none" stroke="#ff0000" stroke-width="2"/>
<path d="M428,328v 10" fill="none" stroke="#ff0000" stroke-width="2"/>
<path d="M429,328v 10" fill="none" stroke="#ff0000" stroke-width="2"/>
<path d="M430,328v 10" fill="none" stroke="#ff0000" stroke-width="2"/>
<path d="M430,328v 10" fill="none" stroke="#ff0000" stroke-width="2"/>
<path d="M431,328v 10" fill="none" stroke="#ff0000" stroke-width="2"/>
<path d="M432,328v 10" fill="none" stroke="#ff0000" stroke-width="2"/>
<path d="M433,328v 10" fill="none" stroke="#ff0000" stroke-width="2"/>
<path d="M434,328v 10" fill="none" stroke="#ff0000" stroke-width="2"/>
<path d="M434,328v 10" fill="none" stroke="#ff0000" stroke-width="2"/>
<path d="M435,328v 10" fill="none" stroke="#ff0000" stroke-width="2"/>
<path d="M436,328v 10" fill="none" stroke="#ff0000" stroke-width="2"/>
<path d="M437,328v 10" fill="none" stroke="#ff0000" stroke-width="2"/>
<path d="M438,328v 10" fill="none" stroke="#ff0000" stroke-width="2"/>
<path d="M438,328v 10" fill="none" stroke="#ff0000" stroke-width="2"/>
<path d="M439,328v 11" fill="none" stroke="#ff0000" stroke-width="2"/>
<path d="M440,328v 11" fill="none" stroke="#ff0000" stroke-width="2"/>
<path d="M441,328v 11" fill="none" stroke="#ff0000" stroke-width="2"/>
<path d="M442,328v 11" fill="none" stroke="#ff0000" stroke-width="2"/>
<path d="M443,328v 11" fill="none" stroke="#ff0000" stroke-width="2"/>
<path d="M443,328v 11" fill="none" stroke="#ff0000" stroke-width="2"/>
<path d="M444,328v 11" fill="none" stroke="#ff0000" stroke-width="2"/>
<path d="M445,328v 11" fill="none" stroke="#ff0000" stroke-width="2"/>
<path d="M446,328v 11" fill="none" stroke="#ff0000" stroke-width="2"/>
<path d="M447,328v 11" fill="none" stroke="#ff0000" stroke-width="2"/>
<path d="M447,328v 11" fill="none" stroke="#ff0000" stroke-width="2"/>
<path d="M448,328v 11" fill="none" stroke="#ff0000" stroke-width="2"/>
<path d="M449,328v 11" fill="none" stroke="#ff0000" stroke-width="2"/>
<path d="M450,328v 11" fill="none" stroke="#ff0000" stroke-width="2"/>
<path d="M451,328v 11" fill="none" stroke="#ff0000" stroke-width="2"/>
<path d="M452,328v 11" fill="none" stroke="#ff0000" stroke-width="2"/>
<path d="M452,328v 11" fill="none" stroke="#ff0000" stroke-width="2"/>
<path d="M453,328v 11" fill="none" stroke="#ff0000" stroke-width="2"/>
<path d="M454,328v 11" fill="none" stroke="#ff0000" stroke-width="2"/>
<path d="M455,328v 11" fill="none" stroke="#ff0000" stroke-width="2"/>
<path d="M456,328v 11" fill="none" stroke="#ff0000" stroke-width="2"/>
<path d="M456,328v 11" fill="none" stroke="#ff0000" stroke-width="2"/>
<path d="M457,328v 11" fill="none" stroke="#ff0000" stroke-width="2"/>
<path d="M458,328v 11" fill="none" stroke="#ff0000" stroke-width="2"/>
<path d="M459,328v 11" fill="none" stroke="#ff0000" stroke-width="2"/>
<path d="M460,328v 11" fill="none" stroke="#ff0000" stroke-width="2"/>
<path d="M460,328v 11" fill="none" stroke="#ff0000" stroke-width="2"/>
<path d="M461,328v 11" fill="none" stroke="#ff0000" stroke-width="2"/>
<path d="M462,328v 11" fill="none" stroke="#ff0000" stroke-width="2"/>
<path d="M463,328v 11" fill="none" stroke="#ff0000" stroke-width="2"/>
<path d="M464,328v 11" fill="none" stroke="#ff0000" stroke-width="2"/>
<path d="M465,328v 11" fill="none" stroke="#ff0000" stroke-width="2"/>
<path d="M465,328v 11" fill="none" stroke="#ff0000" stroke-width="2"/>
<path d="M466,328v 11" fill="none" stroke="#ff0000" stroke-width="2"/>
<path d="M467,328v 11" fill="none" stroke="#ff0000" stroke-width="2"/>
<path d="M468,328v 11" fill="none" stroke="#ff0000" stroke-width="2"/>
<path d="M469,328v 11" fill="none" stroke="#ff0000" stroke-width="2"/>
<path d="M469,328v 11" fill="none" stroke="#ff0000" stroke-width="2"/>
<path d="M470,328v 11" fill="none" stroke="#ff0000" stroke-width="2"/>
<path d="M471,328v 11" fill="none" stroke="#ff0000" stroke-width="2"/>
<path d="M472,328v 11" fill="none" stroke="#ff0000" stroke-width="2"/>
<path d="M473,328v 11" fill="none" stroke="#ff0000" stroke-width="2"/>
<path d="M473,328v 11" fill="none" stroke="#ff0000" stroke-width="2"/>
<path d="M474,328v 11" fill="none" stroke="#ff0000" stroke-width="2"/>
<path d="M475,328v 11" fill="none" stroke="#ff0000" stroke-width="2"/>
<path d="M476,328v 11" fill="none" stroke="#ff0000" stroke-width="2"/>
<path d="M477,328v 11" fill="none" stroke="#ff0000" stroke-width="2"/>
<path d="M478,328v 11" fill="none" stroke="#ff0000" stroke-width="2"/>
<path d="M478,328v 11" fill="none" stroke="#ff0000" stroke-width="2"/>
<path d="M479,328v 11" fill="none" stroke="#ff0000" stroke-width="2"/>
<path d="M480,328v 11" fill="none" stroke="#ff0000" stroke-width="2"/>
<path d="M481,328v 11" fill="none" stroke="#ff0000" stroke-width="2"/>
<path d="M482,328v 11" fill="none" stroke="#ff0000" stroke-width="2"/>
<path d="M482,328v 11" fill="none" stroke="#ff0000" stroke-width="2"/>
<path d="M483,328v 11" fill="none" stroke="#ff0000" stroke-width="2"/>
<path d="M484,328v 11" fill="none" stroke="#ff0000" stroke-width="2"/>
<path d="M485,328v 11" fill="none" stroke="#ff0000" stroke-width="2"/>
<path d="M486,328v 11" fill="none" stroke="#ff0000" stroke-width="2"/>
<path d="M487,328v 11" fill="none" stroke="#ff0000" stroke-width="2"/>
<path d="M487,328v 11" fill="none" stroke="#ff0000" stroke-width="2"/>
<path d="M488,328v 11" fill="none" stroke="#ff0000" stroke-width="2"/>
<path d="M489,328v 11" fill="none" stroke="#ff0000" stroke-width="2"/>
<path d="M490,328v 11" fill="none" stroke="#ff0000" stroke-width="2"/>
<path d="M491,328v 11" fill="none" stroke="#ff0000" stroke-width="2"/>
<path d="M491,328v 11" fill="none" stroke="#ff0000" stroke-width="2"/>
<path d="M492,328v 11" fill="none" stroke="#ff0000" stroke-width="2"/>
<path d="M493,328v 11" fill="none" stroke="#ff0000" stroke-width="2"/>
<path d="M494,328v 11" fill="none" stroke="#ff0000" stroke-width="2"/>
<path d="M495,328v 11" fill="none" stroke="#ff0000" stroke-width="2"/>
<path d="M495,328v 11" fill="none" stroke="#ff0000" stroke-width="2"/>
<path d="M496,328v 11" fill="none" stroke="#ff0000" stroke-width="2"/>
<path d="M497,328v 11" fill="none" stroke="#ff0000" stroke-width="2"/>
<path d="M498,328v 11" fill="none" stroke="#ff0000" stroke-width="2"/>
<path d="M499,328v 11" fill="none" stroke="#ff0000" stroke-width="2"/>
<path d="M500,328v 11" fill="none" stroke="#ff0000" stroke-width="2"/>
<path d="M500,328v 11" fill="none" stroke="#ff0000" stroke-width="2"/>
<path d="M501,328v 11" fill="none" stroke="#ff0000" stroke-width="2"/>
<path d="M502,328v 11" fill="none" stroke="#ff0000" stroke-width="2"/>
<path d="M503,328v 11" fill="none" stroke="#ff0000" stroke-width="2"/>
<path d="M504,328v 11" fill="none" stroke="#ff0000" stroke-width="2"/>
<path d="M504,328v 11" fill="none" stroke="#ff0000" stroke-width="2"/>
<path d="M505,328v 11" fill="none" stroke="#ff0000" stroke-width="2"/>
<path d="M506,328v 11" fill="none" stroke="#ff0000" stroke-width="2"/>
<path d="M507,328v 11" fill="none" stroke="#ff0000" stroke-width="2"/>
<path d="M508,328v 11" fill="none" stroke="#ff0000" stroke-width="2"/>
<path d="M509,328v 11" fill="none" stroke="#ff0000" stroke-width="2"/>
<path d="M509,328v 11" fill="none" stroke="#ff0000" stroke-width="2"/>
<path d="M510,330v 9" fill="none" stroke="#ff0000" stroke-width="2"/>
<path d="M284,194l 1, 22v 14l 1, 6l 1, 4l 1, 4l 1, 4v 3l 1, 2l 1, 2l 1, 3l 1, 3v 2l 1, 2l 1, 2l 1, 2l 1, 3l 1, 1v 2l 1, 2l 1, 2l 1, 2l 1, 1v 2l 1, 2l 1, 1l 1, 2l 1, 1l 1, 1v 2l 1, 2h 1l 1, 1l 1, 1v 2l 1, 1l 1, 1l 1, 1l 1, 1v 1l 1, 1l 1, 1h 1l 1, 2h
 1v 1l 1, 1h 1l 1, 2l 1, 1h 2l 1, 2h 1l 1, 1l 1, 1h 1l 1, 1h 1v 1l 1, 1h 2l 1, 1h 2l 1, 1h 2v 1h 1l 1, 1h 1l 1, 1h 2l 1, 1h 4l 1, 1h 3l 1, 1h 3l 1, 1h 4l 1, 1h 13l 1, 1h 11l 1, 1h 22l 1, 1h 93l 1, 1" fill="none" stroke="#ff0000" stroke-width="2"/>
<rect x="351" y="25" width="205" height="169" fill="white"/>
<path d="M351,194h 205" fill="none" stroke="black"/>
<path d="M556,194v -169" fill="none" stroke="black"/>
<path d="M556,25h -205" fill="none" stroke="black"/>
<path d="M351,25v 169" fill="none" stroke="black"/>
<text x="362" y="38" fill="black" font-size="14" font-family="Helvetica">
Entries 
</text>
<text x="498" y="38" fill="black" font-size="14" font-family="Helvetica">
 78750
</text>
<text x="374" y="57" fill="black" font-size="14" font-family="Helvetica">
 / ndf 
</text>
<text x="369" y="45" fill="black" font-size="10" font-family="Helvetica">
2
</text>
<text x="362" y="57" fill="black" font-size="14" font-family="Times">
&#0967;
</text>
<text x="455" y="54" fill="black" font-size="14" font-family="Helvetica">
  1365 / 1239
</text>
<text x="382" y="67" fill="black" font-size="14" font-family="Helvetica">
   
</text>
<text x="372" y="76" fill="black" font-size="10" font-family="Helvetica">
cu
</text>
<text x="362" y="67" fill="black" font-size="14" font-family="Helvetica">
N
</text>
<text x="511" y="73" fill="black" font-size="14" font-family="Helvetica">
 67.9
</text>
<text x="499" y="73" fill="black" font-size="14" font-family="Times">
&#0177;
</text>
<text x="451" y="73" fill="black" font-size="14" font-family="Helvetica">
 124.2 
</text>
<text x="377" y="86" fill="black" font-size="14" font-family="Helvetica">
 
</text>
<text x="367" y="96" fill="black" font-size="10" font-family="Helvetica">
cu
</text>
<text x="362" y="86" fill="black" font-size="14" font-family="Times">
&#0964;
</text>
<text x="503" y="90" fill="black" font-size="14" font-family="Helvetica">
 35.83
</text>
<text x="490" y="90" fill="black" font-size="14" font-family="Times">
&#0177;
</text>
<text x="443" y="90" fill="black" font-size="14" font-family="Helvetica">
 76.25 
</text>
<text x="375" y="102" fill="black" font-size="14" font-family="Helvetica">
    
</text>
<text x="372" y="110" fill="black" font-size="10" font-family="Helvetica">
f
</text>
<text x="362" y="102" fill="black" font-size="14" font-family="Helvetica">
N
</text>
<text x="520" y="107" fill="black" font-size="14" font-family="Helvetica">
 1.7
</text>
<text x="507" y="107" fill="black" font-size="14" font-family="Times">
&#0177;
</text>
<text x="465" y="107" fill="black" font-size="14" font-family="Helvetica">
   176 
</text>
<text x="370" y="120" fill="black" font-size="14" font-family="Helvetica">
 
</text>
<text x="367" y="130" fill="black" font-size="10" font-family="Helvetica">
f
</text>
<text x="362" y="120" fill="black" font-size="14" font-family="Times">
&#0964;
</text>
<text x="520" y="124" fill="black" font-size="14" font-family="Helvetica">
 0.0
</text>
<text x="507" y="124" fill="black" font-size="14" font-family="Times">
&#0177;
</text>
<text x="460" y="124" fill="black" font-size="14" font-family="Helvetica">
  2197 
</text>
<text x="384" y="136" fill="black" font-size="14" font-family="Helvetica">
  
</text>
<text x="372" y="145" fill="black" font-size="10" font-family="Helvetica">
sin
</text>
<text x="362" y="136" fill="black" font-size="14" font-family="Helvetica">
N
</text>
<text x="503" y="141" fill="black" font-size="14" font-family="Helvetica">
 0.238
</text>
<text x="490" y="141" fill="black" font-size="14" font-family="Times">
&#0177;
</text>
<text x="443" y="141" fill="black" font-size="14" font-family="Helvetica">
 8.559 
</text>
<text x="367" y="158" fill="black" font-size="14" font-family="Helvetica">
     
</text>
<text x="362" y="158" fill="black" font-size="14" font-family="Times">
&#0966;
</text>
<text x="511" y="158" fill="black" font-size="14" font-family="Helvetica">
 0.68
</text>
<text x="499" y="158" fill="black" font-size="14" font-family="Times">
&#0177;
</text>
<text x="451" y="158" fill="black" font-size="14" font-family="Helvetica">
 41.98 
</text>
<text x="362" y="173" fill="black" font-size="14" font-family="Helvetica">
T        
</text>
<text x="511" y="175" fill="black" font-size="14" font-family="Helvetica">
 0.00
</text>
<text x="499" y="175" fill="black" font-size="14" font-family="Times">
&#0177;
</text>
<text x="451" y="175" fill="black" font-size="14" font-family="Helvetica">
 59.37 
</text>
<text x="377" y="186" fill="black" font-size="14" font-family="Helvetica">
    
</text>
<text x="372" y="195" fill="black" font-size="10" font-family="Helvetica">
b
</text>
<text x="362" y="186" fill="black" font-size="14" font-family="Helvetica">
N
</text>
<text x="511" y="192" fill="black" font-size="14" font-family="Helvetica">
 0.16
</text>
<text x="499" y="192" fill="black" font-size="14" font-family="Times">
&#0177;
</text>
<text x="451" y="192" fill="black" font-size="14" font-family="Helvetica">
 21.36 
</text>
<path d="M57,346h 453" fill="none" stroke="black"/>
<text x="419" y="372" fill="black" font-size="12" font-family="Helvetica">
TDC-TDC0 (ns)
</text>
<path d="M57,337v 9" fill="none" stroke="black"/>
<path d="M68,342v 4" fill="none" stroke="black"/>
<path d="M79,342v 4" fill="none" stroke="black"/>
<path d="M91,342v 4" fill="none" stroke="black"/>
<path d="M102,342v 4" fill="none" stroke="black"/>
<path d="M113,337v 9" fill="none" stroke="black"/>
<path d="M125,342v 4" fill="none" stroke="black"/>
<path d="M136,342v 4" fill="none" stroke="black"/>
<path d="M147,342v 4" fill="none" stroke="black"/>
<path d="M159,342v 4" fill="none" stroke="black"/>
<path d="M170,337v 9" fill="none" stroke="black"/>
<path d="M181,342v 4" fill="none" stroke="black"/>
<path d="M193,342v 4" fill="none" stroke="black"/>
<path d="M204,342v 4" fill="none" stroke="black"/>
<path d="M215,342v 4" fill="none" stroke="black"/>
<path d="M227,337v 9" fill="none" stroke="black"/>
<path d="M238,342v 4" fill="none" stroke="black"/>
<path d="M249,342v 4" fill="none" stroke="black"/>
<path d="M261,342v 4" fill="none" stroke="black"/>
<path d="M272,342v 4" fill="none" stroke="black"/>
<path d="M283,337v 9" fill="none" stroke="black"/>
<path d="M295,342v 4" fill="none" stroke="black"/>
<path d="M306,342v 4" fill="none" stroke="black"/>
<path d="M317,342v 4" fill="none" stroke="black"/>
<path d="M329,342v 4" fill="none" stroke="black"/>
<path d="M340,337v 9" fill="none" stroke="black"/>
<path d="M351,342v 4" fill="none" stroke="black"/>
<path d="M363,342v 4" fill="none" stroke="black"/>
<path d="M374,342v 4" fill="none" stroke="black"/>
<path d="M386,342v 4" fill="none" stroke="black"/>
<path d="M397,337v 9" fill="none" stroke="black"/>
<path d="M408,342v 4" fill="none" stroke="black"/>
<path d="M420,342v 4" fill="none" stroke="black"/>
<path d="M431,342v 4" fill="none" stroke="black"/>
<path d="M442,342v 4" fill="none" stroke="black"/>
<path d="M454,337v 9" fill="none" stroke="black"/>
<path d="M465,342v 4" fill="none" stroke="black"/>
<path d="M476,342v 4" fill="none" stroke="black"/>
<path d="M488,342v 4" fill="none" stroke="black"/>
<path d="M499,342v 4" fill="none" stroke="black"/>
<path d="M510,337v 9" fill="none" stroke="black"/>
<text x="36" y="359" fill="black" font-size="12" font-family="Helvetica">
-20000
</text>
<text x="93" y="359" fill="black" font-size="12" font-family="Helvetica">
-15000
</text>
<text x="149" y="359" fill="black" font-size="12" font-family="Helvetica">
-10000
</text>
<text x="210" y="359" fill="black" font-size="12" font-family="Helvetica">
-5000
</text>
<text x="280" y="359" fill="black" font-size="12" font-family="Helvetica">
0
</text>
<text x="325" y="359" fill="black" font-size="12" font-family="Helvetica">
5000
</text>
<text x="379" y="359" fill="black" font-size="12" font-family="Helvetica">
10000
</text>
<text x="435" y="359" fill="black" font-size="12" font-family="Helvetica">
15000
</text>
<text x="492" y="359" fill="black" font-size="12" font-family="Helvetica">
20000
</text>
<path d="M57,346v -308" fill="none" stroke="black"/>
<g transform="rotate(-90,29,72)">
<text x="29" y="72" fill="black" font-size="12" font-family="Helvetica">
Count
</text>
</g>
<path d="M70,346h -13" fill="none" stroke="black"/>
<path d="M63,334h -6" fill="none" stroke="black"/>
<path d="M63,322h -6" fill="none" stroke="black"/>
<path d="M63,310h -6" fill="none" stroke="black"/>
<path d="M63,298h -6" fill="none" stroke="black"/>
<path d="M70,286h -13" fill="none" stroke="black"/>
<path d="M63,274h -6" fill="none" stroke="black"/>
<path d="M63,262h -6" fill="none" stroke="black"/>
<path d="M63,250h -6" fill="none" stroke="black"/>
<path d="M63,238h -6" fill="none" stroke="black"/>
<path d="M70,226h -13" fill="none" stroke="black"/>
<path d="M63,214h -6" fill="none" stroke="black"/>
<path d="M63,202h -6" fill="none" stroke="black"/>
<path d="M63,190h -6" fill="none" stroke="black"/>
<path d="M63,178h -6" fill="none" stroke="black"/>
<path d="M70,166h -13" fill="none" stroke="black"/>
<path d="M63,154h -6" fill="none" stroke="black"/>
<path d="M63,142h -6" fill="none" stroke="black"/>
<path d="M63,130h -6" fill="none" stroke="black"/>
<path d="M63,118h -6" fill="none" stroke="black"/>
<path d="M70,106h -13" fill="none" stroke="black"/>
<path d="M63,94h -6" fill="none" stroke="black"/>
<path d="M63,82h -6" fill="none" stroke="black"/>
<path d="M63,70h -6" fill="none" stroke="black"/>
<path d="M63,58h -6" fill="none" stroke="black"/>
<path d="M70,46h -13" fill="none" stroke="black"/>
<path d="M70,46h -13" fill="none" stroke="black"/>
<text x="47" y="350" fill="black" font-size="12" font-family="Helvetica">
0
</text>
<text x="33" y="291" fill="black" font-size="12" font-family="Helvetica">
100
</text>
<text x="33" y="230" fill="black" font-size="12" font-family="Helvetica">
200
</text>
<text x="33" y="170" fill="black" font-size="12" font-family="Helvetica">
300
</text>
<text x="33" y="110" fill="black" font-size="12" font-family="Helvetica">
400
</text>
<text x="33" y="50" fill="black" font-size="12" font-family="Helvetica">
500
</text>
<rect x="351" y="25" width="205" height="169" fill="white"/>
<path d="M351,194h 205" fill="none" stroke="black"/>
<path d="M556,194v -169" fill="none" stroke="black"/>
<path d="M556,25h -205" fill="none" stroke="black"/>
<path d="M351,25v 169" fill="none" stroke="black"/>
<text x="362" y="38" fill="black" font-size="14" font-family="Helvetica">
Entries 
</text>
<text x="498" y="38" fill="black" font-size="14" font-family="Helvetica">
 78750
</text>
<text x="374" y="57" fill="black" font-size="14" font-family="Helvetica">
 / ndf 
</text>
<text x="369" y="45" fill="black" font-size="10" font-family="Helvetica">
2
</text>
<text x="362" y="57" fill="black" font-size="14" font-family="Times">
&#0967;
</text>
<text x="455" y="54" fill="black" font-size="14" font-family="Helvetica">
  1365 / 1239
</text>
<text x="382" y="67" fill="black" font-size="14" font-family="Helvetica">
   
</text>
<text x="372" y="76" fill="black" font-size="10" font-family="Helvetica">
cu
</text>
<text x="362" y="67" fill="black" font-size="14" font-family="Helvetica">
N
</text>
<text x="511" y="73" fill="black" font-size="14" font-family="Helvetica">
 67.9
</text>
<text x="499" y="73" fill="black" font-size="14" font-family="Times">
&#0177;
</text>
<text x="451" y="73" fill="black" font-size="14" font-family="Helvetica">
 124.2 
</text>
<text x="377" y="86" fill="black" font-size="14" font-family="Helvetica">
 
</text>
<text x="367" y="96" fill="black" font-size="10" font-family="Helvetica">
cu
</text>
<text x="362" y="86" fill="black" font-size="14" font-family="Times">
&#0964;
</text>
<text x="503" y="90" fill="black" font-size="14" font-family="Helvetica">
 35.83
</text>
<text x="490" y="90" fill="black" font-size="14" font-family="Times">
&#0177;
</text>
<text x="443" y="90" fill="black" font-size="14" font-family="Helvetica">
 76.25 
</text>
<text x="375" y="102" fill="black" font-size="14" font-family="Helvetica">
    
</text>
<text x="372" y="110" fill="black" font-size="10" font-family="Helvetica">
f
</text>
<text x="362" y="102" fill="black" font-size="14" font-family="Helvetica">
N
</text>
<text x="520" y="107" fill="black" font-size="14" font-family="Helvetica">
 1.7
</text>
<text x="507" y="107" fill="black" font-size="14" font-family="Times">
&#0177;
</text>
<text x="465" y="107" fill="black" font-size="14" font-family="Helvetica">
   176 
</text>
<text x="370" y="120" fill="black" font-size="14" font-family="Helvetica">
 
</text>
<text x="367" y="130" fill="black" font-size="10" font-family="Helvetica">
f
</text>
<text x="362" y="120" fill="black" font-size="14" font-family="Times">
&#0964;
</text>
<text x="520" y="124" fill="black" font-size="14" font-family="Helvetica">
 0.0
</text>
<text x="507" y="124" fill="black" font-size="14" font-family="Times">
&#0177;
</text>
<text x="460" y="124" fill="black" font-size="14" font-family="Helvetica">
  2197 
</text>
<text x="384" y="136" fill="black" font-size="14" font-family="Helvetica">
  
</text>
<text x="372" y="145" fill="black" font-size="10" font-family="Helvetica">
sin
</text>
<text x="362" y="136" fill="black" font-size="14" font-family="Helvetica">
N
</text>
<text x="503" y="141" fill="black" font-size="14" font-family="Helvetica">
 0.238
</text>
<text x="490" y="141" fill="black" font-size="14" font-family="Times">
&#0177;
</text>
<text x="443" y="141" fill="black" font-size="14" font-family="Helvetica">
 8.559 
</text>
<text x="367" y="158" fill="black" font-size="14" font-family="Helvetica">
     
</text>
<text x="362" y="158" fill="black" font-size="14" font-family="Times">
&#0966;
</text>
<text x="511" y="158" fill="black" font-size="14" font-family="Helvetica">
 0.68
</text>
<text x="499" y="158" fill="black" font-size="14" font-family="Times">
&#0177;
</text>
<text x="451" y="158" fill="black" font-size="14" font-family="Helvetica">
 41.98 
</text>
<text x="362" y="173" fill="black" font-size="14" font-family="Helvetica">
T        
</text>
<text x="511" y="175" fill="black" font-size="14" font-family="Helvetica">
 0.00
</text>
<text x="499" y="175" fill="black" font-size="14" font-family="Times">
&#0177;
</text>
<text x="451" y="175" fill="black" font-size="14" font-family="Helvetica">
 59.37 
</text>
<text x="377" y="186" fill="black" font-size="14" font-family="Helvetica">
    
</text>
<text x="372" y="195" fill="black" font-size="10" font-family="Helvetica">
b
</text>
<text x="362" y="186" fill="black" font-size="14" font-family="Helvetica">
N
</text>
<text x="511" y="192" fill="black" font-size="14" font-family="Helvetica">
 0.16
</text>
<text x="499" y="192" fill="black" font-size="14" font-family="Times">
&#0177;
</text>
<text x="451" y="192" fill="black" font-size="14" font-family="Helvetica">
 21.36 
</text>
<text x="270" y="21" fill="black" font-size="21" font-family="Helvetica">
D3
</text></svg>
