<?xml version="1.0" standalone="no"?>
<svg width="567" height="328" viewBox="0 0 567 328" xmlns="http://www.w3.org/2000/svg">
<title>
images/analysis_g4bl_phase_loose_f/sim_muon_rate_in_cu.svg
</title>
<desc>
Creator: ROOT Version 5.34/05
CreationDate: Mon Jun 10 22:12:00 2013</desc>
<defs>
</defs>
<rect x="0" y="0" width="567" height="328" fill="white"/>
<rect x="57" y="33" width="453" height="262" fill="white"/>
<rect x="57" y="33" width="453" height="262" fill="none" stroke="black"/>
<path d="M113,178v -14" fill="none" stroke="#000099"/>
<path d="M113,164v -13" fill="none" stroke="#000099"/>
<path d="M57,164h 56" fill="none" stroke="#000099"/>
<path d="M113,164h 57" fill="none" stroke="#000099"/>
<g stroke="black" stroke-width="1" fill="none">
<line x1="112" y1="164" x2="113" y2="164"/>
</g>
<path d="M227,283v -119" fill="none" stroke="#000099"/>
<path d="M227,164v -119" fill="none" stroke="#000099"/>
<path d="M170,164h 57" fill="none" stroke="#000099"/>
<path d="M227,164h 56" fill="none" stroke="#000099"/>
<g stroke="black" stroke-width="1" fill="none">
<line x1="226" y1="164" x2="227" y2="164"/>
</g>
<path d="M340,166" fill="none" stroke="#000099"/>
<path d="M340,166" fill="none" stroke="#000099"/>
<path d="M283,166h 57" fill="none" stroke="#000099"/>
<path d="M340,166h 57" fill="none" stroke="#000099"/>
<g stroke="black" stroke-width="1" fill="none">
<line x1="339" y1="166" x2="340" y2="166"/>
</g>
<path d="M454,166" fill="none" stroke="#000099"/>
<path d="M454,166" fill="none" stroke="#000099"/>
<path d="M397,166h 57" fill="none" stroke="#000099"/>
<path d="M454,166h 56" fill="none" stroke="#000099"/>
<g stroke="black" stroke-width="1" fill="none">
<line x1="453" y1="166" x2="454" y2="166"/>
</g>
<path d="M57,295h 453" fill="none" stroke="black"/>
<text x="462" y="317" fill="black" font-size="11" font-family="Helvetica">
Degrader
</text>
<text x="111" y="305" fill="black" font-size="7" font-family="Helvetica">
0
</text>
<text x="221" y="305" fill="black" font-size="7" font-family="Helvetica">
0.5
</text>
<text x="338" y="305" fill="black" font-size="7" font-family="Helvetica">
1
</text>
<text x="451" y="305" fill="black" font-size="7" font-family="Helvetica">
5
</text>
<path d="M57,287v 8" fill="none" stroke="black"/>
<path d="M170,287v 8" fill="none" stroke="black"/>
<path d="M283,287v 8" fill="none" stroke="black"/>
<path d="M397,287v 8" fill="none" stroke="black"/>
<path d="M510,287v 8" fill="none" stroke="black"/>
<path d="M57,295v -262" fill="none" stroke="black"/>
<g transform="rotate(-90,28,122)">
<text x="28" y="122" fill="black" font-size="11" font-family="Helvetica">
Muons per proton
</text>
</g>
<path d="M70,284h -13" fill="none" stroke="black"/>
<path d="M63,276h -6" fill="none" stroke="black"/>
<path d="M63,269h -6" fill="none" stroke="black"/>
<path d="M63,262h -6" fill="none" stroke="black"/>
<path d="M70,254h -13" fill="none" stroke="black"/>
<path d="M63,247h -6" fill="none" stroke="black"/>
<path d="M63,239h -6" fill="none" stroke="black"/>
<path d="M63,232h -6" fill="none" stroke="black"/>
<path d="M70,225h -13" fill="none" stroke="black"/>
<path d="M63,217h -6" fill="none" stroke="black"/>
<path d="M63,210h -6" fill="none" stroke="black"/>
<path d="M63,203h -6" fill="none" stroke="black"/>
<path d="M70,195h -13" fill="none" stroke="black"/>
<path d="M63,188h -6" fill="none" stroke="black"/>
<path d="M63,181h -6" fill="none" stroke="black"/>
<path d="M63,173h -6" fill="none" stroke="black"/>
<path d="M70,166h -13" fill="none" stroke="black"/>
<path d="M63,158h -6" fill="none" stroke="black"/>
<path d="M63,151h -6" fill="none" stroke="black"/>
<path d="M63,144h -6" fill="none" stroke="black"/>
<path d="M70,136h -13" fill="none" stroke="black"/>
<path d="M63,129h -6" fill="none" stroke="black"/>
<path d="M63,122h -6" fill="none" stroke="black"/>
<path d="M63,114h -6" fill="none" stroke="black"/>
<path d="M70,107h -13" fill="none" stroke="black"/>
<path d="M63,99h -6" fill="none" stroke="black"/>
<path d="M63,92h -6" fill="none" stroke="black"/>
<path d="M63,85h -6" fill="none" stroke="black"/>
<path d="M70,77h -13" fill="none" stroke="black"/>
<path d="M63,70h -6" fill="none" stroke="black"/>
<path d="M63,63h -6" fill="none" stroke="black"/>
<path d="M63,55h -6" fill="none" stroke="black"/>
<path d="M70,48h -13" fill="none" stroke="black"/>
<path d="M70,284h -13" fill="none" stroke="black"/>
<path d="M63,291h -6" fill="none" stroke="black"/>
<path d="M70,48h -13" fill="none" stroke="black"/>
<path d="M63,40h -6" fill="none" stroke="black"/>
<path d="M63,33h -6" fill="none" stroke="black"/>
<text x="34" y="287" fill="black" font-size="11" font-family="Helvetica">
-0.8
</text>
<text x="34" y="258" fill="black" font-size="11" font-family="Helvetica">
-0.6
</text>
<text x="34" y="228" fill="black" font-size="11" font-family="Helvetica">
-0.4
</text>
<text x="34" y="199" fill="black" font-size="11" font-family="Helvetica">
-0.2
</text>
<text x="48" y="169" fill="black" font-size="11" font-family="Helvetica">
0
</text>
<text x="38" y="140" fill="black" font-size="11" font-family="Helvetica">
0.2
</text>
<text x="38" y="110" fill="black" font-size="11" font-family="Helvetica">
0.4
</text>
<text x="38" y="81" fill="black" font-size="11" font-family="Helvetica">
0.6
</text>
<text x="38" y="51" fill="black" font-size="11" font-family="Helvetica">
0.8
</text>
<text x="76" y="22" fill="black" font-size="7" font-family="Helvetica">
-3
</text>
<text x="64" y="31" fill="black" font-size="11" font-family="Helvetica">
10
</text>
<text x="57" y="31" fill="black" font-size="11" font-family="Times">
&#0215;
</text>
<text x="124" y="17" fill="black" font-size="17" font-family="Helvetica">
Simulated rate of muons decaying in cu
</text>
<rect x="442" y="21" width="114" height="40" fill="white"/>
<path d="M442,61h 114" fill="none" stroke="black"/>
<path d="M556,61v -40" fill="none" stroke="black"/>
<path d="M556,21h -114" fill="none" stroke="black"/>
<path d="M442,21v 40" fill="none" stroke="black"/>
<text x="448" y="46" fill="black" font-size="17" font-family="Helvetica">
Entries 
</text>
<text x="535" y="46" fill="black" font-size="17" font-family="Helvetica">
 4
</text>
<text x="124" y="17" fill="black" font-size="17" font-family="Helvetica">
Simulated rate of muons decaying in cu
</text></svg>
