<?xml version="1.0" standalone="no"?>
<svg width="567" height="385" viewBox="0 0 567 385" xmlns="http://www.w3.org/2000/svg">
<title>
images/analysis_g4bl_loose_f/452_D3.svg
</title>
<desc>
Creator: ROOT Version 5.34/05
CreationDate: Wed Jun 12 17:56:46 2013</desc>
<defs>
</defs>
<rect x="0" y="0" width="567" height="385" fill="white"/>
<rect x="57" y="38" width="453" height="308" fill="white"/>
<rect x="57" y="38" width="453" height="308" fill="none" stroke="black"/>
<rect x="57" y="38" width="453" height="308" fill="white"/>
<rect x="57" y="38" width="453" height="308" fill="none" stroke="black"/>
<path d="M57,346h 46v -22h 1v 12v -7v 6h 1v -11v 8v -7v 1h 1v 9v -7v 6h 1v -17v 16v -7h 1v 9v -16v 12h 1v -6v 8v -13h 1v 14v -12v 9h 1v -6v 10v -4h 1v -1v 7v -16v 11h 1v 2v -11v 9v -8h 1v 8v -4v 4h 1v -7v 14v -18h 1v 12v -17v 15h 1v 3v -9v 10v -13h
 1v 11v -13v 10h 1v 4v -6v 4v -11h 1v 14v -13v 9h 1v 2v -8v 11v -8h 1v -3v 8v -9v 7h 1v -3v 3v -9v 12v -5h 1v -3v 7v -9v 4h 1v 6v -9v 7v -2h 1v -4v 11v -13v 4h 1v 6v -7v 8v -1h 1v -8v 7v -6h 1v 9v -9v 6h 1v -10v 10v -12h 1v 13v -13v 12h 1v -11v 16v
 -17h 1v 15v -13v 11h 1v -6v 6v -8h 1v -1v 12v -15v 12h 1v -12v 9v -4h 1v 8v -12v 11h 1v -11v 9v -8h 1v 13v -16v 12h 1v -6v 9v -10h 1v 9v -13v 13h 1v -12v 8v -6h 1v 8v -5v 3h 1v -4v 11v -13h 1v 8v -12v 10h 1v -5v 10v -12h 1v 10v -13v 12h 1v -8v 6v
 -8h 1v 11v -9v 10h 1v -10v 10v -13h 1v 13v -11v 12h 1v -13v 10v -8h 1v 10v -8v 4h 1v 5v -9v 7v -7h 1v 7v -15v 9h 1v 5v -13v 15v -6h 1v 3v -1v 5v -4h 1v -6v 11v -7h 1v -7v 12v -7v 2h 1v 3v -11v 12v -4h 1v -6v 10v -11v 7h 1v 3v -12v 15v -7h 1v -8v 14v
 -15v 4h 1v 12v -14v 14v -6h 1v -5v 5v -6h 1v 12v -14v 11v -1h 1v -6v 7v -9h 1v 11v -9v 7h 1v -8v 6v -17h 1v 20v -6v 3v -1h 1v -6v 7v -15h 1v 17v -7v 9h 1v -10v 8v -14h 1v 15v -6v 6v -9v 10v -5h 1v -3v 7v -8h 1v -2v 7v -8v 6h 1v -5v 10v -9h 1v 10v
 -16v 15h 1v -13v 12v -5h 1v -1v 4v -9v 15h 1v -13v 11v -2h 1v -9v 9v -15v 17h 1v -13v 12v -3h 1v -6v 9v -7v 4h 1v -8v 15v -13h 1v 8v -8v 9h 1v -8v 9v -10h 1v 8v -9v 11h 1v -15v 14v -9h 1v 5v -9v 7h 1v 3v -10v 11v -13h 1v 16v -11v 3h 1v 6v -7v 10v
 -9h 1v 10v -12v 2h 1v 6v -13v 8v -7h 1v -2v 13v -10v 2h 1v 7v -8v 9v -6h 1v -5v 12v -6h 1v 5v -9v 7v -2h 1v -7v 15v -12h 1v 9v -11v 12v -3h 1v -7v 11v -8h 1v 9v -12v 8v -1h 1v -10v 7v -4h 1v 11v -14v 16v -3h 1v -9v 9v -11h 1v 11v -9v 9v -1h 1v -11v
 14v -17h 1v 14v -6v 6h 1v -11v 12v -12h 1v 12v -13v 12h 1v -10v 10v -5h 1v -3v 8v -8v 9h 1v -13v 12v -5h 1v -5v 11v -10v 10h 1v -11v 8h 1v -2v 4v -9v 10h 1v -15v 13v -5h 1v -4v 13v -15v 10h 1v -10v 9v -1h 1v -10v 14v -16v 16h 1v -8v 8h 1v -10v 14v
 -16v 6h 1v 7v -12v 14v -7h 1v 1v -2v 5v -7v 5h 1v 3v -16v 14v -13h 1v 15v -9v 3h 1v 6v -10v 10v -11h 1v 11v -8h 1v 7v -9v 12v -11h 1v 9v -7h 1v 5v -18v 20v -9h 1v -4v 11v -9v 3h 1v 8v -10v 9v -3h 1v -11v 15v -11h 1v 12v -10v 8v -2h 1v -13v 15v -14h
 1v 16v -8v 9v -8h 1v -3v 5v -7h 1v 8v -12v 15v -1h 1v -12v 10v -6h 1v 8v -18v 15h 1v -8v 6v -10h 1v 16v -12v 7h 1v -10v 14v -5h 1v -5v 6v -10v 11v -2h 1v -6v 12v -14h 1v 12v -10v 9h 1v -11v 12v -10h 1v 12v -17v 13h 1v 3v -7v 6v -12h 1v 13v -14v 11h
 1v -14v 13h 1v -4v 4v -5v 9h 1v -20v 18v -5h 1v -11v 15v -11v 11h 1v 1v -8v 10v -10h 1v 9v -16v 10h 1v -3v 6h 1v -11v 13v -11v 7h 1v -11v 12v -3h 1v -10v 15v -6h 1v 6v -12v 10h 1v -10v 12v -13v 9h 1v 3v -12v 13h 1v -12v 15v -15v 6h 1v 2v -13v 15v
 -7h 1v 11v -14h 1v 11v -11v 8v -10h 1v -4v 17v -17h 1v 15v -9v 9v -3h 1v -6v 8v -9h 1v 12v -13v 8v -1h 1v -8v 12v -8h 1v 9v -10v 8h 1v -7v 9v -9v 3h 1v 3v -3v 8h 1v -15v 9v -9h 1v 6v -3v 4v -8v 10h 1v -7v 13v -15h 1v 12v -20v 19h 1v -13v 4v -2v 2v
 -3h 1v -4v 3v -19v 52h 1v -293v 75h 1v 77v -4v 20h 1v -13v 19v -1v 10h 1v -7v 22h 1v -8v 1v -3v 6v -4h 1v -8v 14v -15v 10v -2h 1v 19v -18v 7h 1v -9v 20v -12v 13h 1v -4v 1v -7v 6v -1h 1v -8v 10v -9v 11h 1v 3v -6v 7v -6v 3h 1v 14v -14h 1v 12v -17v 16h
 1v -8v 12v -23v 13h 1v 5v -5v 17h 1v -20v 12v -7v 19h 1v -29v 22h 1v -6v 10v -12v 13h 1v -10v 13h 1v -3v 2v -7v 6h 1v 8v -19v 20v -6h 1v -16v 16v -7h 1v 9v -11v 15v -5h 1v -2v 6v -7h 1v 1v -4v 13h 1v -14v 17v -7h 1v 3v -5v 14v -6h 1v -12v 17v -11h
 1v -2v 12v -15v 14v -7v 6h 1v -20v 31v -23v 2h 1v 10v -8v 7h 1v -6v 6v -9h 1v 15v -7v 7h 1v -13v 14v -11v 2h 1v 11v -12v 10h 1v 4v -13v 8v -2v 3h 1v 1v -15v 12h 1v -5v 14v -14h 1v 6v -4v 9v -2h 1v -9v 11v -4h 1v -5v 8v -11v 12h 1v -16v 17v -7h 1v
 -1v 14v -17v 10h 1v 3v -3v 7h 1v -12v 12v -9v 3v -3h 1v 5v -3v 7h 1v -9v 9v -18v 18h 1v -10v 12h 1v -16v 17v -9v 10h 1v -9v 5v -6h 1v -5v 10v -5v 6h 1v 4v -13v 12h 1v -8v 7v -10v 9h 1v 1v -7v 5h 1v -5v 9v -10v 2h 1v 8v -8v 13h 1v -14v 10v -14v 10h
 1v 6v -18v 15h 1v 2v -20v 20v -7v 1h 1v 6v -15v 15h 1v -13v 12v -11h 1v 15v -17v 13h 1v 2v -11v 8v -5v 1h 1v 5v -10v 10h 1v 4v -11v 7v -12h 1v 14v -7v 7h 1v 1v -14v 16v -17h 1v 15v -10v 7v -1h 1v -5v 9v -6h 1v -5v 12v -8v 9h 1v -12v 12v -10h 1v 11v
 -8v 4v -1h 1v -4v 8v -10h 1v 11v -15v 13h 1v -13v 13v -16h 1v 17v -11v 15h 1v -18v 13v -4h 1v -9v 14v -9v 4h 1v -6v 10h 1v -9v 13v -13v 11h 1v -9v 7v -3h 1v -4v 12v -15v 11h 1v 4v -15v 10v -3h 1v -6v 12v -10v 5h 1v 4v -11v 12h 1v -14v 13v -15v 16h
 1v 1v -11v 9h 1v -10v 6v -2v 5v -10v 6h 1v 6v -9v 10h 1v -9v 7v -4h 1v 2v -10v 13h 1v -12v 15v -13v 4h 1v 6v -6v 7h 1v -13v 15v -9h 1v 5v -8v 9h 1v -14v 16v -7h 1v 6v -12v 15h 1v -17v 16v -12v 3h 1v 9v -16v 15h 1v -15v 15v -15h 1v 15v -10v 9h 1v
 -14v 9v -1v 6v -11h 1v 10v -6v 3h 1v 5v -12v 13v -9h 1v 7v -11v 8h 1v 3v -9v 8v -3h 1v -1v 3v -13v 16h 1v -8v 8v -6h 1v -2v 10v -10v 10h 1v -13v 15v -10h 1v 5v -13v 16h 1v -13v 9v -4h 1v -4v 9v -8v 7h 1v -7v 7v -9h 1v 11v -10v 9h 1v -16v 17v -6h 1v
 -9v 13v -7v 8h 1v 2v -13v 12v -4h 1v -7v 13v -13v 9h 1v 2v -12v 13v -1h 1v -10v 8v -10v 7h 1v -7v 15h 1v -10v 5v -7v 9h 1v -13v 16h 1v -17v 15v -10v 9h 1v -7v 7h 1v -14v 18v -14h 1v 12v -16v 11v -2h 1v -8v 18v -16h 1v 9v -9v 5h 1v -2v 9v -9v 1h 1v
 5v -7v 9v -3h 1v -3v 8v -10h 1v 8v -8v 8h 1v -13v 15v -9h 1v 10v -11v 9h 1v -16v 15v -10h 1v 9v -7v 9h 1v -4v 4v -17h 1v 17v -14v 17h 1v -13v 8v -10h 1v 10v -10v 10h 1v 7v -22v 20v -14h 1v 12v -11v 7h 1v -6v 7v -10h 1v 13v -13v 6h 1v 6v -10v 9v -9h
 1v -3v 12v -6v 6h 1v -12v 13v -7h 1v -5v 13v -7v 3h 1v -15v 20v -5h 1v -9v 9v -6v 9h 1v 1v -14v 12h 1v -9v 12v -17v 11h 1v 7v -14v 14v -7h 1v -8v 10v -5v 2h 1v 4v -12v 11h 1v -8v 13v -14v 5h 1v 7v -7v 8h 1v -16v 17v -11v 9h 1v -11v 8h 1v -5v 6v -14v
 12h 1v 6v -12v 5h 1v 1v -2v 6v -9v 3h 1v -5v 9h 1v -11v 9v -4h 1v 6v -10v 7h 1v 2v -13v 17v -11h 1v 8v -11v 9h 1v -7v 12v -13h 1v 14v -12v 8h 1v -9v 8v -11h 1v 18v -13v 9h 1v -10v 9v -10h 1v 7v -13v 13h 1v 4v -17v 18v -11h 1v -7v 14v -8v 9h 1v -9v
 12v -9h 1v 6v -15v 15h 1v 1v -13v 14v -13h 1v 12v -11v 5h 1v 8v -12v 13v -9h 1v -1v 5v -15v 13h 1v -7v 11v -8h 1v -1v 11v -12v 1h 1v 10v -10v 10v -4h 1v -15v 18v -9v 7h 1v 5v -16v 17v -10h 1v -4v 9v -5h 1v 8v -16v 14v -4h 1v -11v 17v -10v 6h 1v 3v
 -11v 8v -7h 1v 6v -6v 11h 1v -16v 12h 1v -10v 12v -10v 6h 1v 3v -6v 8v -2h 1v -7v 5v -9v 7h 1v 4v -7v 10v -3h 1v -7v 10v -14v 6h 1v 7v -8v 6v -1h 1v -9v 13v -12v 6h 1v 5v -12v 11h 1v -11v 14v -14v 1h 1v 9v -12v 12h 1v -9v 10v -10h 1v 10v -12v 12h 1v
 -9v 8v -11h 1v 15v -16v 12h 1v -14v 13v -9h 1v 13v -10v 7h 1v -8v 9v -10h 1v 12v -16v 11h 1v 3v -12v 8v -7h 1v 9v -1v 2v -11v 9h 1v 3v -10v 9v -11h 1v 10v -9v 6h 1v 4v -7v 8v -15h 1v 15v -20v 14h 1v 5v -7v 7v -5h 1v -3v 9v -12v 6h 1v 4v -11v 11v -3h
 1v -6v 13v -7h 1v 4v -16v 16v -2h 1v -9v 11v -12h 1v 10v -10v 13v -8h 1v -5v 13v -9h 1v 12v -15v 5" fill="none" stroke="#000099"/>
<rect x="442" y="25" width="114" height="46" fill="white"/>
<path d="M442,71h 114" fill="none" stroke="black"/>
<path d="M556,71v -46" fill="none" stroke="black"/>
<path d="M556,25h -114" fill="none" stroke="black"/>
<path d="M442,25v 46" fill="none" stroke="black"/>
<text x="447" y="28" fill="black" font-size="4" font-family="Helvetica">
Entries 
</text>
<text x="535" y="28" fill="black" font-size="4" font-family="Helvetica">
 149618
</text>
<text x="450" y="35" fill="black" font-size="4" font-family="Helvetica">
 / ndf 
</text>
<text x="449" y="31" fill="black" font-size="3" font-family="Helvetica">
2
</text>
<text x="447" y="35" fill="black" font-size="4" font-family="Times">
&#0967;
</text>
<text x="526" y="34" fill="black" font-size="4" font-family="Helvetica">
  3727 / 1240
</text>
<text x="452" y="37" fill="black" font-size="4" font-family="Helvetica">
   
</text>
<text x="450" y="40" fill="black" font-size="3" font-family="Helvetica">
cu
</text>
<text x="447" y="37" fill="black" font-size="4" font-family="Helvetica">
N
</text>
<text x="541" y="40" fill="black" font-size="4" font-family="Helvetica">
 14.8
</text>
<text x="538" y="40" fill="black" font-size="4" font-family="Times">
&#0177;
</text>
<text x="526" y="40" fill="black" font-size="4" font-family="Helvetica">
 347.2 
</text>
<text x="450" y="43" fill="black" font-size="4" font-family="Helvetica">
 
</text>
<text x="448" y="46" fill="black" font-size="3" font-family="Helvetica">
cu
</text>
<text x="447" y="43" fill="black" font-size="4" font-family="Times">
&#0964;
</text>
<text x="543" y="45" fill="black" font-size="4" font-family="Helvetica">
 1.3
</text>
<text x="541" y="45" fill="black" font-size="4" font-family="Times">
&#0177;
</text>
<text x="529" y="45" fill="black" font-size="4" font-family="Helvetica">
 162.5 
</text>
<text x="450" y="48" fill="black" font-size="4" font-family="Helvetica">
    
</text>
<text x="450" y="51" fill="black" font-size="3" font-family="Helvetica">
f
</text>
<text x="447" y="48" fill="black" font-size="4" font-family="Helvetica">
N
</text>
<text x="543" y="50" fill="black" font-size="4" font-family="Helvetica">
 3.2
</text>
<text x="541" y="50" fill="black" font-size="4" font-family="Times">
&#0177;
</text>
<text x="529" y="50" fill="black" font-size="4" font-family="Helvetica">
 260.4 
</text>
<text x="448" y="53" fill="black" font-size="4" font-family="Helvetica">
 
</text>
<text x="448" y="57" fill="black" font-size="3" font-family="Helvetica">
f
</text>
<text x="447" y="53" fill="black" font-size="4" font-family="Times">
&#0964;
</text>
<text x="541" y="55" fill="black" font-size="4" font-family="Helvetica">
 29.4
</text>
<text x="538" y="55" fill="black" font-size="4" font-family="Times">
&#0177;
</text>
<text x="526" y="55" fill="black" font-size="4" font-family="Helvetica">
  2279 
</text>
<text x="452" y="58" fill="black" font-size="4" font-family="Helvetica">
  
</text>
<text x="450" y="61" fill="black" font-size="3" font-family="Helvetica">
sin
</text>
<text x="447" y="58" fill="black" font-size="4" font-family="Helvetica">
N
</text>
<text x="539" y="60" fill="black" font-size="4" font-family="Helvetica">
 0.348
</text>
<text x="537" y="60" fill="black" font-size="4" font-family="Times">
&#0177;
</text>
<text x="525" y="60" fill="black" font-size="4" font-family="Helvetica">
 4.439 
</text>
<text x="447" y="65" fill="black" font-size="4" font-family="Helvetica">
T        
</text>
<text x="541" y="66" fill="black" font-size="4" font-family="Helvetica">
 0.00
</text>
<text x="538" y="66" fill="black" font-size="4" font-family="Times">
&#0177;
</text>
<text x="526" y="66" fill="black" font-size="4" font-family="Helvetica">
 59.21 
</text>
<text x="450" y="68" fill="black" font-size="4" font-family="Helvetica">
    
</text>
<text x="450" y="71" fill="black" font-size="3" font-family="Helvetica">
b
</text>
<text x="447" y="68" fill="black" font-size="4" font-family="Helvetica">
N
</text>
<text x="541" y="71" fill="black" font-size="4" font-family="Helvetica">
 0.28
</text>
<text x="538" y="71" fill="black" font-size="4" font-family="Times">
&#0177;
</text>
<text x="526" y="71" fill="black" font-size="4" font-family="Helvetica">
 45.82 
</text>
<path d="M284,139v 9" fill="none" stroke="#ff0000" stroke-width="2"/>
<path d="M285,150v 32" fill="none" stroke="#ff0000" stroke-width="2"/>
<path d="M285,183v 24" fill="none" stroke="#ff0000" stroke-width="2"/>
<path d="M286,207v 15" fill="none" stroke="#ff0000" stroke-width="2"/>
<path d="M287,222v 9" fill="none" stroke="#ff0000" stroke-width="2"/>
<path d="M288,230v 8" fill="none" stroke="#ff0000" stroke-width="2"/>
<path d="M289,238v 6" fill="none" stroke="#ff0000" stroke-width="2"/>
<path d="M289,245v 6" fill="none" stroke="#ff0000" stroke-width="2"/>
<path d="M290,249v 5" fill="none" stroke="#ff0000" stroke-width="2"/>
<path d="M291,252v 5" fill="none" stroke="#ff0000" stroke-width="2"/>
<path d="M292,255v 4" fill="none" stroke="#ff0000" stroke-width="2"/>
<path d="M293,257v 5" fill="none" stroke="#ff0000" stroke-width="2"/>
<path d="M293,261v 4" fill="none" stroke="#ff0000" stroke-width="2"/>
<path d="M294,263v 4" fill="none" stroke="#ff0000" stroke-width="2"/>
<path d="M295,264v 5" fill="none" stroke="#ff0000" stroke-width="2"/>
<path d="M296,266v 4" fill="none" stroke="#ff0000" stroke-width="2"/>
<path d="M297,269v 4" fill="none" stroke="#ff0000" stroke-width="2"/>
<path d="M298,271v 4" fill="none" stroke="#ff0000" stroke-width="2"/>
<path d="M298,273v 4" fill="none" stroke="#ff0000" stroke-width="2"/>
<path d="M299,273v 4" fill="none" stroke="#ff0000" stroke-width="2"/>
<path d="M300,275v 4" fill="none" stroke="#ff0000" stroke-width="2"/>
<path d="M301,277v 5" fill="none" stroke="#ff0000" stroke-width="2"/>
<path d="M302,279v 4" fill="none" stroke="#ff0000" stroke-width="2"/>
<path d="M302,280v 4" fill="none" stroke="#ff0000" stroke-width="2"/>
<path d="M303,282v 4" fill="none" stroke="#ff0000" stroke-width="2"/>
<path d="M304,283v 3" fill="none" stroke="#ff0000" stroke-width="2"/>
<path d="M305,285v 4" fill="none" stroke="#ff0000" stroke-width="2"/>
<path d="M306,286v 4" fill="none" stroke="#ff0000" stroke-width="2"/>
<path d="M307,287v 4" fill="none" stroke="#ff0000" stroke-width="2"/>
<path d="M307,288v 4" fill="none" stroke="#ff0000" stroke-width="2"/>
<path d="M308,290v 3" fill="none" stroke="#ff0000" stroke-width="2"/>
<path d="M309,291v 4" fill="none" stroke="#ff0000" stroke-width="2"/>
<path d="M310,292v 3" fill="none" stroke="#ff0000" stroke-width="2"/>
<path d="M311,293v 3" fill="none" stroke="#ff0000" stroke-width="2"/>
<path d="M311,294v 4" fill="none" stroke="#ff0000" stroke-width="2"/>
<path d="M312,295v 4" fill="none" stroke="#ff0000" stroke-width="2"/>
<path d="M313,296v 4" fill="none" stroke="#ff0000" stroke-width="2"/>
<path d="M314,297v 4" fill="none" stroke="#ff0000" stroke-width="2"/>
<path d="M315,298v 4" fill="none" stroke="#ff0000" stroke-width="2"/>
<path d="M315,299v 3" fill="none" stroke="#ff0000" stroke-width="2"/>
<path d="M316,300v 4" fill="none" stroke="#ff0000" stroke-width="2"/>
<path d="M317,301v 3" fill="none" stroke="#ff0000" stroke-width="2"/>
<path d="M318,301v 4" fill="none" stroke="#ff0000" stroke-width="2"/>
<path d="M319,302v 4" fill="none" stroke="#ff0000" stroke-width="2"/>
<path d="M320,304v 2" fill="none" stroke="#ff0000" stroke-width="2"/>
<path d="M320,304v 4" fill="none" stroke="#ff0000" stroke-width="2"/>
<path d="M321,304v 4" fill="none" stroke="#ff0000" stroke-width="2"/>
<path d="M322,305v 3" fill="none" stroke="#ff0000" stroke-width="2"/>
<path d="M323,306v 3" fill="none" stroke="#ff0000" stroke-width="2"/>
<path d="M324,307v 3" fill="none" stroke="#ff0000" stroke-width="2"/>
<path d="M324,308v 3" fill="none" stroke="#ff0000" stroke-width="2"/>
<path d="M325,308v 4" fill="none" stroke="#ff0000" stroke-width="2"/>
<path d="M326,308v 4" fill="none" stroke="#ff0000" stroke-width="2"/>
<path d="M327,309v 4" fill="none" stroke="#ff0000" stroke-width="2"/>
<path d="M328,310v 3" fill="none" stroke="#ff0000" stroke-width="2"/>
<path d="M329,310v 3" fill="none" stroke="#ff0000" stroke-width="2"/>
<path d="M329,311v 3" fill="none" stroke="#ff0000" stroke-width="2"/>
<path d="M330,311v 4" fill="none" stroke="#ff0000" stroke-width="2"/>
<path d="M331,312v 3" fill="none" stroke="#ff0000" stroke-width="2"/>
<path d="M332,313v 3" fill="none" stroke="#ff0000" stroke-width="2"/>
<path d="M333,313v 3" fill="none" stroke="#ff0000" stroke-width="2"/>
<path d="M333,313v 4" fill="none" stroke="#ff0000" stroke-width="2"/>
<path d="M334,313v 4" fill="none" stroke="#ff0000" stroke-width="2"/>
<path d="M335,314v 3" fill="none" stroke="#ff0000" stroke-width="2"/>
<path d="M336,314v 4" fill="none" stroke="#ff0000" stroke-width="2"/>
<path d="M337,315v 3" fill="none" stroke="#ff0000" stroke-width="2"/>
<path d="M337,315v 3" fill="none" stroke="#ff0000" stroke-width="2"/>
<path d="M338,316v 3" fill="none" stroke="#ff0000" stroke-width="2"/>
<path d="M339,316v 3" fill="none" stroke="#ff0000" stroke-width="2"/>
<path d="M340,317v 3" fill="none" stroke="#ff0000" stroke-width="2"/>
<path d="M341,317v 3" fill="none" stroke="#ff0000" stroke-width="2"/>
<path d="M342,317v 4" fill="none" stroke="#ff0000" stroke-width="2"/>
<path d="M342,317v 4" fill="none" stroke="#ff0000" stroke-width="2"/>
<path d="M343,317v 4" fill="none" stroke="#ff0000" stroke-width="2"/>
<path d="M344,318v 3" fill="none" stroke="#ff0000" stroke-width="2"/>
<path d="M345,318v 3" fill="none" stroke="#ff0000" stroke-width="2"/>
<path d="M346,318v 3" fill="none" stroke="#ff0000" stroke-width="2"/>
<path d="M346,319v 3" fill="none" stroke="#ff0000" stroke-width="2"/>
<path d="M347,319v 3" fill="none" stroke="#ff0000" stroke-width="2"/>
<path d="M348,319v 3" fill="none" stroke="#ff0000" stroke-width="2"/>
<path d="M349,319v 4" fill="none" stroke="#ff0000" stroke-width="2"/>
<path d="M350,320v 3" fill="none" stroke="#ff0000" stroke-width="2"/>
<path d="M351,320v 3" fill="none" stroke="#ff0000" stroke-width="2"/>
<path d="M351,320v 4" fill="none" stroke="#ff0000" stroke-width="2"/>
<path d="M352,321v 3" fill="none" stroke="#ff0000" stroke-width="2"/>
<path d="M353,321v 3" fill="none" stroke="#ff0000" stroke-width="2"/>
<path d="M354,321v 3" fill="none" stroke="#ff0000" stroke-width="2"/>
<path d="M355,321v 4" fill="none" stroke="#ff0000" stroke-width="2"/>
<path d="M355,321v 4" fill="none" stroke="#ff0000" stroke-width="2"/>
<path d="M356,321v 4" fill="none" stroke="#ff0000" stroke-width="2"/>
<path d="M357,321v 4" fill="none" stroke="#ff0000" stroke-width="2"/>
<path d="M358,321v 4" fill="none" stroke="#ff0000" stroke-width="2"/>
<path d="M359,322v 4" fill="none" stroke="#ff0000" stroke-width="2"/>
<path d="M359,322v 4" fill="none" stroke="#ff0000" stroke-width="2"/>
<path d="M360,322v 4" fill="none" stroke="#ff0000" stroke-width="2"/>
<path d="M361,322v 4" fill="none" stroke="#ff0000" stroke-width="2"/>
<path d="M362,322v 4" fill="none" stroke="#ff0000" stroke-width="2"/>
<path d="M363,322v 4" fill="none" stroke="#ff0000" stroke-width="2"/>
<path d="M364,323v 3" fill="none" stroke="#ff0000" stroke-width="2"/>
<path d="M364,323v 3" fill="none" stroke="#ff0000" stroke-width="2"/>
<path d="M365,323v 3" fill="none" stroke="#ff0000" stroke-width="2"/>
<path d="M366,323v 3" fill="none" stroke="#ff0000" stroke-width="2"/>
<path d="M367,323v 3" fill="none" stroke="#ff0000" stroke-width="2"/>
<path d="M368,323v 4" fill="none" stroke="#ff0000" stroke-width="2"/>
<path d="M368,324v 3" fill="none" stroke="#ff0000" stroke-width="2"/>
<path d="M369,324v 3" fill="none" stroke="#ff0000" stroke-width="2"/>
<path d="M370,324v 3" fill="none" stroke="#ff0000" stroke-width="2"/>
<path d="M371,324v 3" fill="none" stroke="#ff0000" stroke-width="2"/>
<path d="M372,324v 3" fill="none" stroke="#ff0000" stroke-width="2"/>
<path d="M372,324v 3" fill="none" stroke="#ff0000" stroke-width="2"/>
<path d="M373,324v 3" fill="none" stroke="#ff0000" stroke-width="2"/>
<path d="M374,324v 4" fill="none" stroke="#ff0000" stroke-width="2"/>
<path d="M375,325v 3" fill="none" stroke="#ff0000" stroke-width="2"/>
<path d="M376,325v 3" fill="none" stroke="#ff0000" stroke-width="2"/>
<path d="M377,325v 3" fill="none" stroke="#ff0000" stroke-width="2"/>
<path d="M377,325v 3" fill="none" stroke="#ff0000" stroke-width="2"/>
<path d="M378,325v 3" fill="none" stroke="#ff0000" stroke-width="2"/>
<path d="M379,325v 3" fill="none" stroke="#ff0000" stroke-width="2"/>
<path d="M380,325v 3" fill="none" stroke="#ff0000" stroke-width="2"/>
<path d="M381,325v 3" fill="none" stroke="#ff0000" stroke-width="2"/>
<path d="M381,325v 3" fill="none" stroke="#ff0000" stroke-width="2"/>
<path d="M382,325v 4" fill="none" stroke="#ff0000" stroke-width="2"/>
<path d="M383,325v 4" fill="none" stroke="#ff0000" stroke-width="2"/>
<path d="M384,326v 3" fill="none" stroke="#ff0000" stroke-width="2"/>
<path d="M385,326v 3" fill="none" stroke="#ff0000" stroke-width="2"/>
<path d="M386,326v 3" fill="none" stroke="#ff0000" stroke-width="2"/>
<path d="M386,326v 3" fill="none" stroke="#ff0000" stroke-width="2"/>
<path d="M387,326v 3" fill="none" stroke="#ff0000" stroke-width="2"/>
<path d="M388,326v 3" fill="none" stroke="#ff0000" stroke-width="2"/>
<path d="M389,326v 3" fill="none" stroke="#ff0000" stroke-width="2"/>
<path d="M390,326v 3" fill="none" stroke="#ff0000" stroke-width="2"/>
<path d="M390,326v 3" fill="none" stroke="#ff0000" stroke-width="2"/>
<path d="M391,326v 3" fill="none" stroke="#ff0000" stroke-width="2"/>
<path d="M392,326v 3" fill="none" stroke="#ff0000" stroke-width="2"/>
<path d="M393,326v 3" fill="none" stroke="#ff0000" stroke-width="2"/>
<path d="M394,326v 3" fill="none" stroke="#ff0000" stroke-width="2"/>
<path d="M394,326v 4" fill="none" stroke="#ff0000" stroke-width="2"/>
<path d="M395,326v 4" fill="none" stroke="#ff0000" stroke-width="2"/>
<path d="M396,326v 4" fill="none" stroke="#ff0000" stroke-width="2"/>
<path d="M397,326v 4" fill="none" stroke="#ff0000" stroke-width="2"/>
<path d="M398,326v 4" fill="none" stroke="#ff0000" stroke-width="2"/>
<path d="M399,326v 4" fill="none" stroke="#ff0000" stroke-width="2"/>
<path d="M399,326v 4" fill="none" stroke="#ff0000" stroke-width="2"/>
<path d="M400,326v 4" fill="none" stroke="#ff0000" stroke-width="2"/>
<path d="M401,326v 4" fill="none" stroke="#ff0000" stroke-width="2"/>
<path d="M402,326v 4" fill="none" stroke="#ff0000" stroke-width="2"/>
<path d="M403,326v 4" fill="none" stroke="#ff0000" stroke-width="2"/>
<path d="M403,326v 4" fill="none" stroke="#ff0000" stroke-width="2"/>
<path d="M404,326v 4" fill="none" stroke="#ff0000" stroke-width="2"/>
<path d="M405,326v 4" fill="none" stroke="#ff0000" stroke-width="2"/>
<path d="M406,326v 4" fill="none" stroke="#ff0000" stroke-width="2"/>
<path d="M407,326v 4" fill="none" stroke="#ff0000" stroke-width="2"/>
<path d="M408,326v 4" fill="none" stroke="#ff0000" stroke-width="2"/>
<path d="M408,326v 4" fill="none" stroke="#ff0000" stroke-width="2"/>
<path d="M409,326v 4" fill="none" stroke="#ff0000" stroke-width="2"/>
<path d="M410,326v 4" fill="none" stroke="#ff0000" stroke-width="2"/>
<path d="M411,326v 4" fill="none" stroke="#ff0000" stroke-width="2"/>
<path d="M412,326v 4" fill="none" stroke="#ff0000" stroke-width="2"/>
<path d="M412,326v 4" fill="none" stroke="#ff0000" stroke-width="2"/>
<path d="M413,326v 4" fill="none" stroke="#ff0000" stroke-width="2"/>
<path d="M414,326v 4" fill="none" stroke="#ff0000" stroke-width="2"/>
<path d="M415,326v 4" fill="none" stroke="#ff0000" stroke-width="2"/>
<path d="M416,326v 4" fill="none" stroke="#ff0000" stroke-width="2"/>
<path d="M416,326v 4" fill="none" stroke="#ff0000" stroke-width="2"/>
<path d="M417,326v 4" fill="none" stroke="#ff0000" stroke-width="2"/>
<path d="M418,326v 4" fill="none" stroke="#ff0000" stroke-width="2"/>
<path d="M419,326v 4" fill="none" stroke="#ff0000" stroke-width="2"/>
<path d="M420,326v 4" fill="none" stroke="#ff0000" stroke-width="2"/>
<path d="M421,326v 4" fill="none" stroke="#ff0000" stroke-width="2"/>
<path d="M421,326v 4" fill="none" stroke="#ff0000" stroke-width="2"/>
<path d="M422,326v 4" fill="none" stroke="#ff0000" stroke-width="2"/>
<path d="M423,327v 3" fill="none" stroke="#ff0000" stroke-width="2"/>
<path d="M424,327v 3" fill="none" stroke="#ff0000" stroke-width="2"/>
<path d="M425,327v 3" fill="none" stroke="#ff0000" stroke-width="2"/>
<path d="M425,327v 3" fill="none" stroke="#ff0000" stroke-width="2"/>
<path d="M426,327v 3" fill="none" stroke="#ff0000" stroke-width="2"/>
<path d="M427,327v 3" fill="none" stroke="#ff0000" stroke-width="2"/>
<path d="M428,327v 3" fill="none" stroke="#ff0000" stroke-width="2"/>
<path d="M429,327v 3" fill="none" stroke="#ff0000" stroke-width="2"/>
<path d="M430,327v 3" fill="none" stroke="#ff0000" stroke-width="2"/>
<path d="M430,327v 3" fill="none" stroke="#ff0000" stroke-width="2"/>
<path d="M431,327v 3" fill="none" stroke="#ff0000" stroke-width="2"/>
<path d="M432,327v 3" fill="none" stroke="#ff0000" stroke-width="2"/>
<path d="M433,327v 3" fill="none" stroke="#ff0000" stroke-width="2"/>
<path d="M434,327v 3" fill="none" stroke="#ff0000" stroke-width="2"/>
<path d="M434,327v 3" fill="none" stroke="#ff0000" stroke-width="2"/>
<path d="M435,327v 3" fill="none" stroke="#ff0000" stroke-width="2"/>
<path d="M436,327v 3" fill="none" stroke="#ff0000" stroke-width="2"/>
<path d="M437,327v 3" fill="none" stroke="#ff0000" stroke-width="2"/>
<path d="M438,327v 3" fill="none" stroke="#ff0000" stroke-width="2"/>
<path d="M438,327v 3" fill="none" stroke="#ff0000" stroke-width="2"/>
<path d="M439,327v 3" fill="none" stroke="#ff0000" stroke-width="2"/>
<path d="M440,327v 3" fill="none" stroke="#ff0000" stroke-width="2"/>
<path d="M441,327v 3" fill="none" stroke="#ff0000" stroke-width="2"/>
<path d="M442,327v 3" fill="none" stroke="#ff0000" stroke-width="2"/>
<path d="M443,327v 3" fill="none" stroke="#ff0000" stroke-width="2"/>
<path d="M443,327v 3" fill="none" stroke="#ff0000" stroke-width="2"/>
<path d="M444,327v 3" fill="none" stroke="#ff0000" stroke-width="2"/>
<path d="M445,327v 3" fill="none" stroke="#ff0000" stroke-width="2"/>
<path d="M446,327v 3" fill="none" stroke="#ff0000" stroke-width="2"/>
<path d="M447,327v 3" fill="none" stroke="#ff0000" stroke-width="2"/>
<path d="M447,327v 3" fill="none" stroke="#ff0000" stroke-width="2"/>
<path d="M448,327v 3" fill="none" stroke="#ff0000" stroke-width="2"/>
<path d="M449,327v 3" fill="none" stroke="#ff0000" stroke-width="2"/>
<path d="M450,327v 3" fill="none" stroke="#ff0000" stroke-width="2"/>
<path d="M451,327v 3" fill="none" stroke="#ff0000" stroke-width="2"/>
<path d="M452,327v 3" fill="none" stroke="#ff0000" stroke-width="2"/>
<path d="M452,327v 3" fill="none" stroke="#ff0000" stroke-width="2"/>
<path d="M453,327v 3" fill="none" stroke="#ff0000" stroke-width="2"/>
<path d="M454,327v 3" fill="none" stroke="#ff0000" stroke-width="2"/>
<path d="M455,327v 3" fill="none" stroke="#ff0000" stroke-width="2"/>
<path d="M456,327v 3" fill="none" stroke="#ff0000" stroke-width="2"/>
<path d="M456,327v 3" fill="none" stroke="#ff0000" stroke-width="2"/>
<path d="M457,327v 3" fill="none" stroke="#ff0000" stroke-width="2"/>
<path d="M458,327v 3" fill="none" stroke="#ff0000" stroke-width="2"/>
<path d="M459,327v 3" fill="none" stroke="#ff0000" stroke-width="2"/>
<path d="M460,327v 3" fill="none" stroke="#ff0000" stroke-width="2"/>
<path d="M460,327v 3" fill="none" stroke="#ff0000" stroke-width="2"/>
<path d="M461,327v 3" fill="none" stroke="#ff0000" stroke-width="2"/>
<path d="M462,327v 3" fill="none" stroke="#ff0000" stroke-width="2"/>
<path d="M463,327v 3" fill="none" stroke="#ff0000" stroke-width="2"/>
<path d="M464,327v 3" fill="none" stroke="#ff0000" stroke-width="2"/>
<path d="M465,327v 3" fill="none" stroke="#ff0000" stroke-width="2"/>
<path d="M465,327v 3" fill="none" stroke="#ff0000" stroke-width="2"/>
<path d="M466,327v 3" fill="none" stroke="#ff0000" stroke-width="2"/>
<path d="M467,327v 3" fill="none" stroke="#ff0000" stroke-width="2"/>
<path d="M468,327v 3" fill="none" stroke="#ff0000" stroke-width="2"/>
<path d="M469,327v 3" fill="none" stroke="#ff0000" stroke-width="2"/>
<path d="M469,327v 3" fill="none" stroke="#ff0000" stroke-width="2"/>
<path d="M470,327v 3" fill="none" stroke="#ff0000" stroke-width="2"/>
<path d="M471,327v 3" fill="none" stroke="#ff0000" stroke-width="2"/>
<path d="M472,327v 3" fill="none" stroke="#ff0000" stroke-width="2"/>
<path d="M473,327v 3" fill="none" stroke="#ff0000" stroke-width="2"/>
<path d="M473,327v 3" fill="none" stroke="#ff0000" stroke-width="2"/>
<path d="M474,327v 3" fill="none" stroke="#ff0000" stroke-width="2"/>
<path d="M475,327v 3" fill="none" stroke="#ff0000" stroke-width="2"/>
<path d="M476,327v 3" fill="none" stroke="#ff0000" stroke-width="2"/>
<path d="M477,327v 3" fill="none" stroke="#ff0000" stroke-width="2"/>
<path d="M478,327v 3" fill="none" stroke="#ff0000" stroke-width="2"/>
<path d="M478,327v 3" fill="none" stroke="#ff0000" stroke-width="2"/>
<path d="M479,327v 3" fill="none" stroke="#ff0000" stroke-width="2"/>
<path d="M480,327v 3" fill="none" stroke="#ff0000" stroke-width="2"/>
<path d="M481,327v 3" fill="none" stroke="#ff0000" stroke-width="2"/>
<path d="M482,327v 3" fill="none" stroke="#ff0000" stroke-width="2"/>
<path d="M482,327v 3" fill="none" stroke="#ff0000" stroke-width="2"/>
<path d="M483,327v 3" fill="none" stroke="#ff0000" stroke-width="2"/>
<path d="M484,327v 3" fill="none" stroke="#ff0000" stroke-width="2"/>
<path d="M485,327v 3" fill="none" stroke="#ff0000" stroke-width="2"/>
<path d="M486,327v 3" fill="none" stroke="#ff0000" stroke-width="2"/>
<path d="M487,327v 3" fill="none" stroke="#ff0000" stroke-width="2"/>
<path d="M487,327v 3" fill="none" stroke="#ff0000" stroke-width="2"/>
<path d="M488,327v 3" fill="none" stroke="#ff0000" stroke-width="2"/>
<path d="M489,327v 3" fill="none" stroke="#ff0000" stroke-width="2"/>
<path d="M490,327v 3" fill="none" stroke="#ff0000" stroke-width="2"/>
<path d="M491,327v 3" fill="none" stroke="#ff0000" stroke-width="2"/>
<path d="M491,327v 3" fill="none" stroke="#ff0000" stroke-width="2"/>
<path d="M492,327v 3" fill="none" stroke="#ff0000" stroke-width="2"/>
<path d="M493,327v 3" fill="none" stroke="#ff0000" stroke-width="2"/>
<path d="M494,327v 3" fill="none" stroke="#ff0000" stroke-width="2"/>
<path d="M495,327v 3" fill="none" stroke="#ff0000" stroke-width="2"/>
<path d="M495,327v 3" fill="none" stroke="#ff0000" stroke-width="2"/>
<path d="M496,327v 3" fill="none" stroke="#ff0000" stroke-width="2"/>
<path d="M497,327v 3" fill="none" stroke="#ff0000" stroke-width="2"/>
<path d="M498,327v 3" fill="none" stroke="#ff0000" stroke-width="2"/>
<path d="M499,327v 3" fill="none" stroke="#ff0000" stroke-width="2"/>
<path d="M500,327v 3" fill="none" stroke="#ff0000" stroke-width="2"/>
<path d="M500,327v 3" fill="none" stroke="#ff0000" stroke-width="2"/>
<path d="M501,327v 3" fill="none" stroke="#ff0000" stroke-width="2"/>
<path d="M502,327v 3" fill="none" stroke="#ff0000" stroke-width="2"/>
<path d="M503,327v 3" fill="none" stroke="#ff0000" stroke-width="2"/>
<path d="M504,327v 3" fill="none" stroke="#ff0000" stroke-width="2"/>
<path d="M504,327v 3" fill="none" stroke="#ff0000" stroke-width="2"/>
<path d="M505,327v 3" fill="none" stroke="#ff0000" stroke-width="2"/>
<path d="M506,327v 3" fill="none" stroke="#ff0000" stroke-width="2"/>
<path d="M507,327v 3" fill="none" stroke="#ff0000" stroke-width="2"/>
<path d="M508,327v 3" fill="none" stroke="#ff0000" stroke-width="2"/>
<path d="M509,327v 3" fill="none" stroke="#ff0000" stroke-width="2"/>
<path d="M509,327v 3" fill="none" stroke="#ff0000" stroke-width="2"/>
<path d="M510,327v 3" fill="none" stroke="#ff0000" stroke-width="2"/>
<path d="M284,143l 1, 23v 28l 1, 20l 1, 12l 1, 7l 1, 8v 6l 1, 4l 1, 4l 1, 1l 1, 4v 3l 1, 1l 1, 2l 1, 2l 1, 3l 1, 2v 1l 1, 1l 1, 2l 1, 2l 1, 2v 1l 1, 1l 1, 2l 1, 1l 1, 1l 1, 2v 1l 1, 1l 1, 2l 1, 1l 1, 1l 1, 2l 1, 1l 1, 1h 1v 1l 1, 2l 1, 1h 1l 1, 1h 1v
 1l 1, 1l 1, 1l 1, 1h 1v 1h 1l 1, 1l 1, 1l 1, 1h 1v 1h 2l 1, 1h 1v 1h 1l 1, 1h 1l 1, 1h 2l 1, 1h 2v 1h 1l 1, 1h 2v 1h 5l 1, 1h 3v 1h 3l 1, 1h 4l 1, 1h 4v 1h 15l 1, 1h 11l 1, 1h 26l 1, 1h 87" fill="none" stroke="#ff0000" stroke-width="2"/>
<path d="M57,346h 453" fill="none" stroke="black"/>
<text x="419" y="372" fill="black" font-size="12" font-family="Helvetica">
TDC-TDC0 (ns)
</text>
<path d="M57,337v 9" fill="none" stroke="black"/>
<path d="M68,342v 4" fill="none" stroke="black"/>
<path d="M79,342v 4" fill="none" stroke="black"/>
<path d="M91,342v 4" fill="none" stroke="black"/>
<path d="M102,342v 4" fill="none" stroke="black"/>
<path d="M113,337v 9" fill="none" stroke="black"/>
<path d="M125,342v 4" fill="none" stroke="black"/>
<path d="M136,342v 4" fill="none" stroke="black"/>
<path d="M147,342v 4" fill="none" stroke="black"/>
<path d="M159,342v 4" fill="none" stroke="black"/>
<path d="M170,337v 9" fill="none" stroke="black"/>
<path d="M181,342v 4" fill="none" stroke="black"/>
<path d="M193,342v 4" fill="none" stroke="black"/>
<path d="M204,342v 4" fill="none" stroke="black"/>
<path d="M215,342v 4" fill="none" stroke="black"/>
<path d="M227,337v 9" fill="none" stroke="black"/>
<path d="M238,342v 4" fill="none" stroke="black"/>
<path d="M249,342v 4" fill="none" stroke="black"/>
<path d="M261,342v 4" fill="none" stroke="black"/>
<path d="M272,342v 4" fill="none" stroke="black"/>
<path d="M283,337v 9" fill="none" stroke="black"/>
<path d="M295,342v 4" fill="none" stroke="black"/>
<path d="M306,342v 4" fill="none" stroke="black"/>
<path d="M317,342v 4" fill="none" stroke="black"/>
<path d="M329,342v 4" fill="none" stroke="black"/>
<path d="M340,337v 9" fill="none" stroke="black"/>
<path d="M351,342v 4" fill="none" stroke="black"/>
<path d="M363,342v 4" fill="none" stroke="black"/>
<path d="M374,342v 4" fill="none" stroke="black"/>
<path d="M386,342v 4" fill="none" stroke="black"/>
<path d="M397,337v 9" fill="none" stroke="black"/>
<path d="M408,342v 4" fill="none" stroke="black"/>
<path d="M420,342v 4" fill="none" stroke="black"/>
<path d="M431,342v 4" fill="none" stroke="black"/>
<path d="M442,342v 4" fill="none" stroke="black"/>
<path d="M454,337v 9" fill="none" stroke="black"/>
<path d="M465,342v 4" fill="none" stroke="black"/>
<path d="M476,342v 4" fill="none" stroke="black"/>
<path d="M488,342v 4" fill="none" stroke="black"/>
<path d="M499,342v 4" fill="none" stroke="black"/>
<path d="M510,337v 9" fill="none" stroke="black"/>
<text x="36" y="359" fill="black" font-size="12" font-family="Helvetica">
-20000
</text>
<text x="93" y="359" fill="black" font-size="12" font-family="Helvetica">
-15000
</text>
<text x="149" y="359" fill="black" font-size="12" font-family="Helvetica">
-10000
</text>
<text x="210" y="359" fill="black" font-size="12" font-family="Helvetica">
-5000
</text>
<text x="280" y="359" fill="black" font-size="12" font-family="Helvetica">
0
</text>
<text x="325" y="359" fill="black" font-size="12" font-family="Helvetica">
5000
</text>
<text x="379" y="359" fill="black" font-size="12" font-family="Helvetica">
10000
</text>
<text x="435" y="359" fill="black" font-size="12" font-family="Helvetica">
15000
</text>
<text x="492" y="359" fill="black" font-size="12" font-family="Helvetica">
20000
</text>
<path d="M57,346v -308" fill="none" stroke="black"/>
<g transform="rotate(-90,29,72)">
<text x="29" y="72" fill="black" font-size="12" font-family="Helvetica">
Count
</text>
</g>
<path d="M70,346h -13" fill="none" stroke="black"/>
<path d="M63,339h -6" fill="none" stroke="black"/>
<path d="M63,331h -6" fill="none" stroke="black"/>
<path d="M63,324h -6" fill="none" stroke="black"/>
<path d="M63,316h -6" fill="none" stroke="black"/>
<path d="M70,309h -13" fill="none" stroke="black"/>
<path d="M63,301h -6" fill="none" stroke="black"/>
<path d="M63,294h -6" fill="none" stroke="black"/>
<path d="M63,286h -6" fill="none" stroke="black"/>
<path d="M63,279h -6" fill="none" stroke="black"/>
<path d="M70,271h -13" fill="none" stroke="black"/>
<path d="M63,264h -6" fill="none" stroke="black"/>
<path d="M63,256h -6" fill="none" stroke="black"/>
<path d="M63,249h -6" fill="none" stroke="black"/>
<path d="M63,241h -6" fill="none" stroke="black"/>
<path d="M70,234h -13" fill="none" stroke="black"/>
<path d="M63,226h -6" fill="none" stroke="black"/>
<path d="M63,219h -6" fill="none" stroke="black"/>
<path d="M63,211h -6" fill="none" stroke="black"/>
<path d="M63,204h -6" fill="none" stroke="black"/>
<path d="M70,196h -13" fill="none" stroke="black"/>
<path d="M63,189h -6" fill="none" stroke="black"/>
<path d="M63,181h -6" fill="none" stroke="black"/>
<path d="M63,174h -6" fill="none" stroke="black"/>
<path d="M63,166h -6" fill="none" stroke="black"/>
<path d="M70,159h -13" fill="none" stroke="black"/>
<path d="M63,151h -6" fill="none" stroke="black"/>
<path d="M63,144h -6" fill="none" stroke="black"/>
<path d="M63,136h -6" fill="none" stroke="black"/>
<path d="M63,129h -6" fill="none" stroke="black"/>
<path d="M70,121h -13" fill="none" stroke="black"/>
<path d="M63,114h -6" fill="none" stroke="black"/>
<path d="M63,106h -6" fill="none" stroke="black"/>
<path d="M63,99h -6" fill="none" stroke="black"/>
<path d="M63,91h -6" fill="none" stroke="black"/>
<path d="M70,84h -13" fill="none" stroke="black"/>
<path d="M63,76h -6" fill="none" stroke="black"/>
<path d="M63,69h -6" fill="none" stroke="black"/>
<path d="M63,61h -6" fill="none" stroke="black"/>
<path d="M63,54h -6" fill="none" stroke="black"/>
<path d="M70,46h -13" fill="none" stroke="black"/>
<path d="M70,46h -13" fill="none" stroke="black"/>
<path d="M63,39h -6" fill="none" stroke="black"/>
<text x="47" y="350" fill="black" font-size="12" font-family="Helvetica">
0
</text>
<text x="33" y="313" fill="black" font-size="12" font-family="Helvetica">
100
</text>
<text x="33" y="275" fill="black" font-size="12" font-family="Helvetica">
200
</text>
<text x="33" y="238" fill="black" font-size="12" font-family="Helvetica">
300
</text>
<text x="33" y="200" fill="black" font-size="12" font-family="Helvetica">
400
</text>
<text x="33" y="163" fill="black" font-size="12" font-family="Helvetica">
500
</text>
<text x="33" y="125" fill="black" font-size="12" font-family="Helvetica">
600
</text>
<text x="33" y="88" fill="black" font-size="12" font-family="Helvetica">
700
</text>
<text x="33" y="50" fill="black" font-size="12" font-family="Helvetica">
800
</text>
<rect x="442" y="25" width="114" height="46" fill="white"/>
<path d="M442,71h 114" fill="none" stroke="black"/>
<path d="M556,71v -46" fill="none" stroke="black"/>
<path d="M556,25h -114" fill="none" stroke="black"/>
<path d="M442,25v 46" fill="none" stroke="black"/>
<text x="447" y="28" fill="black" font-size="4" font-family="Helvetica">
Entries 
</text>
<text x="535" y="28" fill="black" font-size="4" font-family="Helvetica">
 149618
</text>
<text x="450" y="35" fill="black" font-size="4" font-family="Helvetica">
 / ndf 
</text>
<text x="449" y="31" fill="black" font-size="3" font-family="Helvetica">
2
</text>
<text x="447" y="35" fill="black" font-size="4" font-family="Times">
&#0967;
</text>
<text x="526" y="34" fill="black" font-size="4" font-family="Helvetica">
  3727 / 1240
</text>
<text x="452" y="37" fill="black" font-size="4" font-family="Helvetica">
   
</text>
<text x="450" y="40" fill="black" font-size="3" font-family="Helvetica">
cu
</text>
<text x="447" y="37" fill="black" font-size="4" font-family="Helvetica">
N
</text>
<text x="541" y="40" fill="black" font-size="4" font-family="Helvetica">
 14.8
</text>
<text x="538" y="40" fill="black" font-size="4" font-family="Times">
&#0177;
</text>
<text x="526" y="40" fill="black" font-size="4" font-family="Helvetica">
 347.2 
</text>
<text x="450" y="43" fill="black" font-size="4" font-family="Helvetica">
 
</text>
<text x="448" y="46" fill="black" font-size="3" font-family="Helvetica">
cu
</text>
<text x="447" y="43" fill="black" font-size="4" font-family="Times">
&#0964;
</text>
<text x="543" y="45" fill="black" font-size="4" font-family="Helvetica">
 1.3
</text>
<text x="541" y="45" fill="black" font-size="4" font-family="Times">
&#0177;
</text>
<text x="529" y="45" fill="black" font-size="4" font-family="Helvetica">
 162.5 
</text>
<text x="450" y="48" fill="black" font-size="4" font-family="Helvetica">
    
</text>
<text x="450" y="51" fill="black" font-size="3" font-family="Helvetica">
f
</text>
<text x="447" y="48" fill="black" font-size="4" font-family="Helvetica">
N
</text>
<text x="543" y="50" fill="black" font-size="4" font-family="Helvetica">
 3.2
</text>
<text x="541" y="50" fill="black" font-size="4" font-family="Times">
&#0177;
</text>
<text x="529" y="50" fill="black" font-size="4" font-family="Helvetica">
 260.4 
</text>
<text x="448" y="53" fill="black" font-size="4" font-family="Helvetica">
 
</text>
<text x="448" y="57" fill="black" font-size="3" font-family="Helvetica">
f
</text>
<text x="447" y="53" fill="black" font-size="4" font-family="Times">
&#0964;
</text>
<text x="541" y="55" fill="black" font-size="4" font-family="Helvetica">
 29.4
</text>
<text x="538" y="55" fill="black" font-size="4" font-family="Times">
&#0177;
</text>
<text x="526" y="55" fill="black" font-size="4" font-family="Helvetica">
  2279 
</text>
<text x="452" y="58" fill="black" font-size="4" font-family="Helvetica">
  
</text>
<text x="450" y="61" fill="black" font-size="3" font-family="Helvetica">
sin
</text>
<text x="447" y="58" fill="black" font-size="4" font-family="Helvetica">
N
</text>
<text x="539" y="60" fill="black" font-size="4" font-family="Helvetica">
 0.348
</text>
<text x="537" y="60" fill="black" font-size="4" font-family="Times">
&#0177;
</text>
<text x="525" y="60" fill="black" font-size="4" font-family="Helvetica">
 4.439 
</text>
<text x="447" y="65" fill="black" font-size="4" font-family="Helvetica">
T        
</text>
<text x="541" y="66" fill="black" font-size="4" font-family="Helvetica">
 0.00
</text>
<text x="538" y="66" fill="black" font-size="4" font-family="Times">
&#0177;
</text>
<text x="526" y="66" fill="black" font-size="4" font-family="Helvetica">
 59.21 
</text>
<text x="450" y="68" fill="black" font-size="4" font-family="Helvetica">
    
</text>
<text x="450" y="71" fill="black" font-size="3" font-family="Helvetica">
b
</text>
<text x="447" y="68" fill="black" font-size="4" font-family="Helvetica">
N
</text>
<text x="541" y="71" fill="black" font-size="4" font-family="Helvetica">
 0.28
</text>
<text x="538" y="71" fill="black" font-size="4" font-family="Times">
&#0177;
</text>
<text x="526" y="71" fill="black" font-size="4" font-family="Helvetica">
 45.82 
</text>
<text x="270" y="21" fill="black" font-size="21" font-family="Helvetica">
D3
</text></svg>
