<?xml version="1.0" standalone="no"?>
<svg width="567" height="385" viewBox="0 0 567 385" xmlns="http://www.w3.org/2000/svg">
<title>
images/analysis_g4bl_phase_loose_cu/448_D1.svg
</title>
<desc>
Creator: ROOT Version 5.34/05
CreationDate: Wed Jun 12 17:25:51 2013</desc>
<defs>
</defs>
<rect x="0" y="0" width="567" height="385" fill="white"/>
<rect x="57" y="38" width="453" height="308" fill="white"/>
<rect x="57" y="38" width="453" height="308" fill="none" stroke="black"/>
<rect x="57" y="38" width="453" height="308" fill="white"/>
<rect x="57" y="38" width="453" height="308" fill="none" stroke="black"/>
<path d="M57,346h 44v -1h 1v -2h 1v -27h 1v -9v 9h 1v -13v 15v -15v 5h 1v 9v -20v 14h 1v -11v 15v -16v 5h 1v 11v -11v 7h 1v -11v 14v -11h 1v 10v -13v 15h 1v -18v 15v -18h 1v 18v -9v 9h 1v 1v -14v 15v -15h 1v 14v -16v 18h 1v -15v 11v -15h 1v 19v -12v
 9h 1v -11v 13v -14h 1v 11v -14v 17h 1v -12v 13v -13h 1v 11v -15v 14h 1v -11v 13v -13h 1v 12v -15v 9h 1v 4v -10v 12v -12h 1v 14v -22v 16h 1v 5v -15v 14v -9h 1v 10v -16v 6h 1v 10v -15v 12v -6h 1v -8v 18v -17v 7h 1v 8v -13v 16v -12h 1v -5v 12v -9h 1v
 12v -15v 15v -5h 1v -10v 14v -10h 1v 10v -13v 14v -5h 1v -13v 20v -16h 1v 14v -11v 12v -7h 1v -9v 14v -16h 1v 16v -10v 12h 1v -16v 14v -13h 1v 12v -14v 15h 1v -12v 11v -14h 1v 18v -14v 10v -1h 1v -9v 10v -16h 1v 15v -13v 16h 1v -16v 16v -11h 1v 11v
 -15v 11h 1v -11v 13v -11v 2h 1v 13v -15v 12h 1v -20v 21v -13h 1v 13v -12v 12h 1v -14v 14v -18h 1v 16v -12v 11h 1v -15v 18v -16h 1v 13v -12v 14h 1v -13v 12v -18h 1v 18v -13v 11h 1v -10v 14v -14h 1v 14v -17v 17h 1v -16v 15v -13h 1v 14v -18v 16h 1v
 -10v 11v -14h 1v 13v -14v 8h 1v 9v -16v 14v -9h 1v -3v 11v -14v 11h 1v 3v -12v 14v -9h 1v -4v 12v -14v 5h 1v 11v -18v 12v -3h 1v -5v 11v -14v 6h 1v 8v -11v 12v -6h 1v -11v 17v -11v 1h 1v 11v -17v 18v -8h 1v -6v 13v -17h 1v 16v -12v 12v -5h 1v -11v
 15v -12h 1v 16v -12v 8h 1v -12v 12v -18h 1v 20v -13v 12h 1v -13v 12v -14h 1v 16v -17v 18h 1v -16v 14v -13h 1v 14v -14v 15v -4h 1v -11v 15v -21h 1v 17v -13v 14h 1v -10v 11v -13h 1v 15v -16v 13h 1v -11v 14v -12h 1v 13v -18v 19h 1v -23v 19v -12h 1v 12v
 -13v 14h 1v -15v 15v -17h 1v 18v -13v 6h 1v 2v -17v 21v -16h 1v 17v -20v 19h 1v -12v 10v -17h 1v 17v -12v 11h 1v 2v -11v 12v -17h 1v 17v -17v 19h 1v -14v 9v -12h 1v 16v -14v 11h 1v -9v 10v -15h 1v 15v -14v 9h 1v 7v -12v 12v -9h 1v -6v 14v -17v 12h
 1v 2v -14v 18v -13h 1v 12v -15v 5h 1v 11v -20v 17v -4h 1v -5v 11v -15v 7h 1v 7v -15v 16v -9h 1v -10v 18v -11v 2h 1v 6v -17v 21v -7h 1v -8v 13v -10h 1v 13v -14v 12h 1v -15v 14v -14h 1v 15v -13v 14v -5h 1v -7v 8v -16h 1v 20v -12v 11v -1h 1v -14v 15v
 -15h 1v 15v -16v 16h 1v -14v 14v -12h 1v 12v -14v 14v -1h 1v -12v 17v -18h 1v 10v -1v 4v -10v 11h 1v -13v 15v -15h 1v 12v -14v 12h 1v -9v 11v -13h 1v 14v -13v 14h 1v -20v 19v -11h 1v 11v -17v 19h 1v -14v 10v -12h 1v 14v -12v 10h 1v 1v -14v 16v -15h
 1v 13v -15v 17h 1v -18v 15v -14h 1v 18v -15v 11h 1v -10v 12v -15h 1v 14v -16v 19h 1v -17v 15v -13h 1v 15v -17v 13h 1v 2v -14v 17v -18h 1v 12v -13v 14h 1v 1v -11v 13v -13h 1v 11v -17v 15h 1v 2v -10v 11v -12h 1v 13v -15v 7h 1v 7v -19v 17v -4h 1v -6v
 11v -14v 6h 1v 13v -18v 13v -5h 1v -12v 19v -9h 1v 5v -15v 19v -13h 1v -4v 14v -11h 1v 14v -16v 12v -3h 1v -10v 17v -14h 1v 14v -16v 19v -8h 1v -11v 13v -14h 1v 15v -11v 12h 1v -18v 17v -16h 1v 16v -16v 18h 1v -19v 17v -12h 1v 12v -13v 14v -2h 1v
 -9v 12v -22h 1v 19v -13v 16h 1v -15v 13v -10h 1v 11v -16v 15h 1v -14v 16v -18h 1v 17v -14v 12h 1v -19v 19v -6h 1v -5v 12v -15v 15h 1v -15v 13v -14h 1v 16v -14v 11h 1v 1v -13v 15v -17h 1v 16v -12v 13h 1v -13v 12v -20h 1v 19v -9v 5h 1v 4v -11v 12v
 -16h 1v 14v -15v 14h 1v 2v -11v 11v -13h 1v 13v -14v 14h 1v -16v 17v -17h 1v 14v -13v 9h 1v 7v -13v 13v -14h 1v 14v -18v 13h 1v 4v -18v 17v -14h 1v 14v -14v 6h 1v 5v -26v 16v -243v 293h 1v -225v 58v -18v 41h 1v 4v -6v 20v -6h 1v -11v 20v -7v 1v -2h
 1v 14v -19v 18v -11h 1v -1v 19v -18h 1v 17v -10v 11h 1v -18v 21v -10h 1v 13v -11v 20v -10h 1v -11v 13v -8v 10v -21h 1v 27v -20v 20h 1v -12v 17v -18h 1v 14v -14v 20h 1v -24v 20v -2v 5v -17h 1v 19v -11v 15v -10h 1v -7v 17v -17h 1v 13v -5v 14h 1v -18v
 20v -16h 1v 15v -19v 21v -7h 1v 1v -12v 10v -10h 1v 18v -13v 14h 1v -19v 23v -10h 1v -3v 15v -21v 16h 1v -7v 7v -6h 1v -5v 15v -14v 11h 1v -15v 19v -13h 1v -3v 16v -12v 16h 1v -16v 14v -18h 1v 21v -10v 9h 1v 2v -13v 15v -17h 1v 16v -6v 3v -11v 14h
 1v -16v 21v -17h 1v 15v -13v 13h 1v -11v 11v -17h 1v 17v -2v 1v -11v 10h 1v 5v -16v 18v -16h 1v 18v -18v 16h 1v -14v 16v -18h 1v 19v -17v 7h 1v 12v -26v 20v -8h 1v -2v 10v -12v 7h 1v 9v -15v 17v -10h 1v -11v 18v -10v 4h 1v 8v -21v 21v -11h 1v -3v
 13v -12v 3h 1v 8v -10v 12h 1v -13v 16v -13v 5h 1v 11v -16v 11v -2h 1v -8v 11v -15h 1v 17v -14v 12v -1h 1v -14v 20v -14h 1v 10v -11v 12v -1h 1v -12v 12v -12h 1v 12v -12v 15v -2h 1v -11v 11v -11h 1v 11v -13v 16h 1v -12v 11v -9h 1v 11v -19v 17h 1v -10v
 10v -13h 1v 16v -15v 14h 1v -15v 14v -12h 1v 11v -13v 16h 1v -14v 14v -9h 1v -5v 15v -15v 13h 1v -16v 17v -8h 1v -5v 14v -13v 16h 1v -20v 18v -4h 1v -13v 18v -14v 13h 1v -10v 11v -14h 1v 12v -14v 16h 1v -18v 14v -10h 1v 14v -14v 8h 1v 3v -9v 12v
 -17h 1v 16v -14v 10h 1v 3v -9v 10v -12h 1v 13v -14v 12h 1v -9v 12v -8h 1v -4v 12v -14v 6h 1v 9v -22v 21v -8h 1v -4v 10v -13v 9h 1v 7v -15v 14v -7h 1v -11v 21v -13v 5h 1v 4v -13v 15v -7h 1v -4v 13v -13h 1v 10v -14v 12v -1v 1h 1v -15v 18v -13h 1v 14v
 -14v 13v -8h 1v -7v 15v -16h 1v 17v -14v 13v -2h 1v -9v 13v -18h 1v 18v -17v 16v -1h 1v -18v 18v -15h 1v 15v -13v 15v -4h 1v -8v 12v -15h 1v 10v -12v 16h 1v -14v 16v -14h 1v 11v -16v 18v -3h 1v -7v 9v -14h 1v 14v -15v 13h 1v -13v 14v -10h 1v 13v
 -19v 17h 1v -17v 17v -5h 1v -4v 8v -12v 12h 1v -15v 19v -10h 1v -5v 13v -14v 14h 1v -16v 12v -1h 1v -12v 17v -14v 10h 1v 3v -11v 11v -3h 1v -10v 14v -16v 13h 1v 3v -13v 11v -14h 1v 13v -12v 16h 1v -14v 12v -17h 1v 15v -11v 10h 1v 2v -12v 12v -14h 1v
 16v -19v 18h 1v -11v 13v -14h 1v 14v -16v 9h 1v 7v -16v 16v -11h 1v -1v 12v -17v 11h 1v 7v -16v 13v -8h 1v -7v 18v -14h 1v 9v -14v 16v -5h 1v -9v 15v -15h 1v 16v -14v 11v -1h 1v -15v 19v -16h 1v 15v -14v 15v -6h 1v -6v 11v -13h 1v 16v -14v 13h 1v
 -17v 15v -13h 1v 14v -11v 11h 1v -17v 15v -13h 1v 16v -14v 10v -2h 1v -9v 16v -20h 1v 17v -14v 15h 1v -13v 11v -11h 1v 12v -17v 17v -4h 1v -9v 13v -13h 1v 12v -12v 13h 1v -19v 22v -14h 1v 14v -21v 20h 1v -13v 13v -9h 1v -5v 16v -18v 12h 1v -13v 15v
 -9h 1v -3v 12v -12v 13h 1v -12v 12v -4h 1v -15v 18v -15v 12h 1v 3v -13v 16v -8h 1v -9v 13v -11v 15h 1v -18v 14v -1h 1v -10v 12v -11v 11h 1v -11v 11v -18h 1v 16v -13v 13h 1v 3v -10v 10v -15h 1v 15v -17v 14h 1v -11v 13v -13h 1v 16v -16v 7h 1v 7v -17v
 17v -13h 1v 13v -16v 9h 1v 6v -12v 13v -8h 1v -7v 14v -11v 4h 1v 8v -19v 21v -14h 1v 12v -13h 1v 16v -18v 14v -2h 1v -15v 19v -13h 1v 11v -10v 12v -7h 1v -7v 10v -13h 1v 16v -12v 11v -3h 1v -9v 13v -15h 1v 15v -13v 14v -2h 1v -15v 13v -13h 1v 15v
 -10v 10v -1h 1v -11v 12v -18h 1v 16v -8v 8h 1v -12v 14v -14h 1v 17v -19v 15h 1v -11v 14v -18h 1v 17v -16v 18h 1v -20v 17v -9h 1v 8v -17v 21h 1v -13v 11v -8h 1v -5v 13v -14v 13h 1v -15v 17v -12h 1v 10v -11v 13h 1v -15v 12v -5h 1v -9v 16v -13v 12h 1v
 2v -13v 10v -5h 1v -8v 14v -13v 14h 1v 1v -15v 13v -1h 1v -14v 18v -15v 10h 1v 1v -10v 12h 1v -14v 13v -14v 8h 1v 5v -10v 13v -13h 1v 13v -18v 15h 1v 3v -10v 7v -10h 1v 14v -15v 8h 1v 6v -17v 16v -9h 1v -2v 10v -16v 12h 1v 7v -14v 13v -6h 1v -9v 14v
 -11v 3h 1v 5v -14v 16v -8h 1v -5v 14v -15v 1h 1v 14v -15v 14v -3h 1v -12v 16v -11v 2h 1v 10v -11v 9v -4h 1v -8v 9v -11h 1v 16v -17v 12h 1v -14v 18v -16h 1v 14v -13v 14h 1v -15v 14v -12h 1v 11v -11v 13v -4h 1v -9v 13v -19h 1v 18v -13v 14h 1v -11v 11v
 -17h 1v 17v -16v 15h 1v -12v 13v -13h 1v 14v -15v 13h 1v -16v 20v -14h 1v 10v -20v 23h 1v -16v 18v -13h 1v -1v 11v -10v 5h 1v 2v -13v 18v -14h 1v -2v 14v -10v 11h 1v -15v 14v -6h 1v -10v 16v -12v 12h 1v -14v 15v -5h 1v -9v 13v -16v 15h 1v 2v -14v
 12v -1h 1v -13v 15v -7" fill="none" stroke="#000099"/>
<rect x="442" y="25" width="114" height="46" fill="white"/>
<path d="M442,71h 114" fill="none" stroke="black"/>
<path d="M556,71v -46" fill="none" stroke="black"/>
<path d="M556,25h -114" fill="none" stroke="black"/>
<path d="M442,25v 46" fill="none" stroke="black"/>
<text x="447" y="28" fill="black" font-size="4" font-family="Helvetica">
Entries 
</text>
<text x="534" y="28" fill="black" font-size="4" font-family="Helvetica">
 1535863
</text>
<text x="450" y="34" fill="black" font-size="4" font-family="Helvetica">
 / ndf 
</text>
<text x="449" y="30" fill="black" font-size="3" font-family="Helvetica">
2
</text>
<text x="447" y="34" fill="black" font-size="4" font-family="Times">
&#0967;
</text>
<text x="526" y="33" fill="black" font-size="4" font-family="Helvetica">
  3071 / 1239
</text>
<text x="452" y="36" fill="black" font-size="4" font-family="Helvetica">
   
</text>
<text x="450" y="39" fill="black" font-size="3" font-family="Helvetica">
cu
</text>
<text x="447" y="36" fill="black" font-size="4" font-family="Helvetica">
N
</text>
<text x="537" y="38" fill="black" font-size="4" font-family="Helvetica">
 1949.3
</text>
<text x="534" y="38" fill="black" font-size="4" font-family="Times">
&#0177;
</text>
<text x="522" y="38" fill="black" font-size="4" font-family="Helvetica">
  7090 
</text>
<text x="450" y="41" fill="black" font-size="4" font-family="Helvetica">
 
</text>
<text x="448" y="45" fill="black" font-size="3" font-family="Helvetica">
cu
</text>
<text x="447" y="41" fill="black" font-size="4" font-family="Times">
&#0964;
</text>
<text x="532" y="43" fill="black" font-size="4" font-family="Helvetica">
 4596.420
</text>
<text x="529" y="43" fill="black" font-size="4" font-family="Times">
&#0177;
</text>
<text x="517" y="43" fill="black" font-size="4" font-family="Helvetica">
 1.212 
</text>
<text x="450" y="45" fill="black" font-size="4" font-family="Helvetica">
    
</text>
<text x="450" y="49" fill="black" font-size="3" font-family="Helvetica">
f
</text>
<text x="447" y="45" fill="black" font-size="4" font-family="Helvetica">
N
</text>
<text x="543" y="48" fill="black" font-size="4" font-family="Helvetica">
 4.6
</text>
<text x="541" y="48" fill="black" font-size="4" font-family="Times">
&#0177;
</text>
<text x="529" y="48" fill="black" font-size="4" font-family="Helvetica">
  1425 
</text>
<text x="448" y="50" fill="black" font-size="4" font-family="Helvetica">
 
</text>
<text x="448" y="53" fill="black" font-size="3" font-family="Helvetica">
f
</text>
<text x="447" y="50" fill="black" font-size="4" font-family="Times">
&#0964;
</text>
<text x="543" y="52" fill="black" font-size="4" font-family="Helvetica">
 0.0
</text>
<text x="541" y="52" fill="black" font-size="4" font-family="Times">
&#0177;
</text>
<text x="529" y="52" fill="black" font-size="4" font-family="Helvetica">
  2197 
</text>
<text x="452" y="54" fill="black" font-size="4" font-family="Helvetica">
  
</text>
<text x="450" y="58" fill="black" font-size="3" font-family="Helvetica">
sin
</text>
<text x="447" y="54" fill="black" font-size="4" font-family="Helvetica">
N
</text>
<text x="543" y="57" fill="black" font-size="4" font-family="Helvetica">
 1.1
</text>
<text x="541" y="57" fill="black" font-size="4" font-family="Times">
&#0177;
</text>
<text x="529" y="57" fill="black" font-size="4" font-family="Helvetica">
 121.1 
</text>
<text x="448" y="62" fill="black" font-size="4" font-family="Helvetica">
     
</text>
<text x="447" y="62" fill="black" font-size="4" font-family="Times">
&#0966;
</text>
<text x="539" y="62" fill="black" font-size="4" font-family="Helvetica">
 0.092
</text>
<text x="537" y="62" fill="black" font-size="4" font-family="Times">
&#0177;
</text>
<text x="525" y="62" fill="black" font-size="4" font-family="Helvetica">
 2.109 
</text>
<text x="447" y="65" fill="black" font-size="4" font-family="Helvetica">
T        
</text>
<text x="541" y="66" fill="black" font-size="4" font-family="Helvetica">
 0.00
</text>
<text x="538" y="66" fill="black" font-size="4" font-family="Times">
&#0177;
</text>
<text x="526" y="66" fill="black" font-size="4" font-family="Helvetica">
 59.31 
</text>
<text x="450" y="68" fill="black" font-size="4" font-family="Helvetica">
    
</text>
<text x="450" y="71" fill="black" font-size="3" font-family="Helvetica">
b
</text>
<text x="447" y="68" fill="black" font-size="4" font-family="Helvetica">
N
</text>
<text x="543" y="71" fill="black" font-size="4" font-family="Helvetica">
 0.7
</text>
<text x="541" y="71" fill="black" font-size="4" font-family="Times">
&#0177;
</text>
<text x="530" y="71" fill="black" font-size="4" font-family="Helvetica">
   575 
</text>
<path d="M284,204v 14" fill="none" stroke="#ff0000" stroke-width="2"/>
<path d="M285,203v 18" fill="none" stroke="#ff0000" stroke-width="2"/>
<path d="M285,208v 16" fill="none" stroke="#ff0000" stroke-width="2"/>
<path d="M286,211v 18" fill="none" stroke="#ff0000" stroke-width="2"/>
<path d="M287,213v 18" fill="none" stroke="#ff0000" stroke-width="2"/>
<path d="M288,216v 17" fill="none" stroke="#ff0000" stroke-width="2"/>
<path d="M289,217v 18" fill="none" stroke="#ff0000" stroke-width="2"/>
<path d="M289,221v 17" fill="none" stroke="#ff0000" stroke-width="2"/>
<path d="M290,224v 18" fill="none" stroke="#ff0000" stroke-width="2"/>
<path d="M291,225v 18" fill="none" stroke="#ff0000" stroke-width="2"/>
<path d="M292,228v 17" fill="none" stroke="#ff0000" stroke-width="2"/>
<path d="M293,230v 17" fill="none" stroke="#ff0000" stroke-width="2"/>
<path d="M293,233v 17" fill="none" stroke="#ff0000" stroke-width="2"/>
<path d="M294,235v 17" fill="none" stroke="#ff0000" stroke-width="2"/>
<path d="M295,237v 17" fill="none" stroke="#ff0000" stroke-width="2"/>
<path d="M296,238v 17" fill="none" stroke="#ff0000" stroke-width="2"/>
<path d="M297,242v 15" fill="none" stroke="#ff0000" stroke-width="2"/>
<path d="M298,242v 18" fill="none" stroke="#ff0000" stroke-width="2"/>
<path d="M298,244v 18" fill="none" stroke="#ff0000" stroke-width="2"/>
<path d="M299,246v 17" fill="none" stroke="#ff0000" stroke-width="2"/>
<path d="M300,247v 17" fill="none" stroke="#ff0000" stroke-width="2"/>
<path d="M301,250v 16" fill="none" stroke="#ff0000" stroke-width="2"/>
<path d="M302,251v 18" fill="none" stroke="#ff0000" stroke-width="2"/>
<path d="M302,252v 17" fill="none" stroke="#ff0000" stroke-width="2"/>
<path d="M303,254v 17" fill="none" stroke="#ff0000" stroke-width="2"/>
<path d="M304,255v 17" fill="none" stroke="#ff0000" stroke-width="2"/>
<path d="M305,257v 16" fill="none" stroke="#ff0000" stroke-width="2"/>
<path d="M306,258v 17" fill="none" stroke="#ff0000" stroke-width="2"/>
<path d="M307,260v 17" fill="none" stroke="#ff0000" stroke-width="2"/>
<path d="M307,260v 17" fill="none" stroke="#ff0000" stroke-width="2"/>
<path d="M308,262v 16" fill="none" stroke="#ff0000" stroke-width="2"/>
<path d="M309,263v 17" fill="none" stroke="#ff0000" stroke-width="2"/>
<path d="M310,264v 18" fill="none" stroke="#ff0000" stroke-width="2"/>
<path d="M311,265v 17" fill="none" stroke="#ff0000" stroke-width="2"/>
<path d="M311,266v 17" fill="none" stroke="#ff0000" stroke-width="2"/>
<path d="M312,268v 16" fill="none" stroke="#ff0000" stroke-width="2"/>
<path d="M313,269v 17" fill="none" stroke="#ff0000" stroke-width="2"/>
<path d="M314,269v 17" fill="none" stroke="#ff0000" stroke-width="2"/>
<path d="M315,270v 17" fill="none" stroke="#ff0000" stroke-width="2"/>
<path d="M315,271v 17" fill="none" stroke="#ff0000" stroke-width="2"/>
<path d="M316,272v 16" fill="none" stroke="#ff0000" stroke-width="2"/>
<path d="M317,273v 17" fill="none" stroke="#ff0000" stroke-width="2"/>
<path d="M318,273v 18" fill="none" stroke="#ff0000" stroke-width="2"/>
<path d="M319,274v 17" fill="none" stroke="#ff0000" stroke-width="2"/>
<path d="M320,275v 17" fill="none" stroke="#ff0000" stroke-width="2"/>
<path d="M320,276v 16" fill="none" stroke="#ff0000" stroke-width="2"/>
<path d="M321,277v 17" fill="none" stroke="#ff0000" stroke-width="2"/>
<path d="M322,277v 17" fill="none" stroke="#ff0000" stroke-width="2"/>
<path d="M323,277v 18" fill="none" stroke="#ff0000" stroke-width="2"/>
<path d="M324,279v 16" fill="none" stroke="#ff0000" stroke-width="2"/>
<path d="M324,279v 17" fill="none" stroke="#ff0000" stroke-width="2"/>
<path d="M325,280v 17" fill="none" stroke="#ff0000" stroke-width="2"/>
<path d="M326,280v 17" fill="none" stroke="#ff0000" stroke-width="2"/>
<path d="M327,281v 17" fill="none" stroke="#ff0000" stroke-width="2"/>
<path d="M328,282v 16" fill="none" stroke="#ff0000" stroke-width="2"/>
<path d="M329,282v 17" fill="none" stroke="#ff0000" stroke-width="2"/>
<path d="M329,282v 17" fill="none" stroke="#ff0000" stroke-width="2"/>
<path d="M330,283v 16" fill="none" stroke="#ff0000" stroke-width="2"/>
<path d="M331,283v 17" fill="none" stroke="#ff0000" stroke-width="2"/>
<path d="M332,284v 16" fill="none" stroke="#ff0000" stroke-width="2"/>
<path d="M333,285v 16" fill="none" stroke="#ff0000" stroke-width="2"/>
<path d="M333,285v 17" fill="none" stroke="#ff0000" stroke-width="2"/>
<path d="M334,286v 16" fill="none" stroke="#ff0000" stroke-width="2"/>
<path d="M335,286v 17" fill="none" stroke="#ff0000" stroke-width="2"/>
<path d="M336,286v 17" fill="none" stroke="#ff0000" stroke-width="2"/>
<path d="M337,286v 18" fill="none" stroke="#ff0000" stroke-width="2"/>
<path d="M337,286v 18" fill="none" stroke="#ff0000" stroke-width="2"/>
<path d="M338,287v 17" fill="none" stroke="#ff0000" stroke-width="2"/>
<path d="M339,288v 16" fill="none" stroke="#ff0000" stroke-width="2"/>
<path d="M340,288v 17" fill="none" stroke="#ff0000" stroke-width="2"/>
<path d="M341,288v 17" fill="none" stroke="#ff0000" stroke-width="2"/>
<path d="M342,289v 16" fill="none" stroke="#ff0000" stroke-width="2"/>
<path d="M342,289v 17" fill="none" stroke="#ff0000" stroke-width="2"/>
<path d="M343,289v 17" fill="none" stroke="#ff0000" stroke-width="2"/>
<path d="M344,290v 16" fill="none" stroke="#ff0000" stroke-width="2"/>
<path d="M345,290v 17" fill="none" stroke="#ff0000" stroke-width="2"/>
<path d="M346,290v 17" fill="none" stroke="#ff0000" stroke-width="2"/>
<path d="M346,291v 16" fill="none" stroke="#ff0000" stroke-width="2"/>
<path d="M347,291v 16" fill="none" stroke="#ff0000" stroke-width="2"/>
<path d="M348,291v 17" fill="none" stroke="#ff0000" stroke-width="2"/>
<path d="M349,291v 17" fill="none" stroke="#ff0000" stroke-width="2"/>
<path d="M350,291v 17" fill="none" stroke="#ff0000" stroke-width="2"/>
<path d="M351,291v 17" fill="none" stroke="#ff0000" stroke-width="2"/>
<path d="M351,292v 16" fill="none" stroke="#ff0000" stroke-width="2"/>
<path d="M352,292v 16" fill="none" stroke="#ff0000" stroke-width="2"/>
<path d="M353,292v 16" fill="none" stroke="#ff0000" stroke-width="2"/>
<path d="M354,292v 17" fill="none" stroke="#ff0000" stroke-width="2"/>
<path d="M355,292v 17" fill="none" stroke="#ff0000" stroke-width="2"/>
<path d="M355,293v 16" fill="none" stroke="#ff0000" stroke-width="2"/>
<path d="M356,293v 16" fill="none" stroke="#ff0000" stroke-width="2"/>
<path d="M357,293v 17" fill="none" stroke="#ff0000" stroke-width="2"/>
<path d="M358,293v 17" fill="none" stroke="#ff0000" stroke-width="2"/>
<path d="M359,294v 16" fill="none" stroke="#ff0000" stroke-width="2"/>
<path d="M359,294v 16" fill="none" stroke="#ff0000" stroke-width="2"/>
<path d="M360,294v 16" fill="none" stroke="#ff0000" stroke-width="2"/>
<path d="M361,294v 16" fill="none" stroke="#ff0000" stroke-width="2"/>
<path d="M362,294v 17" fill="none" stroke="#ff0000" stroke-width="2"/>
<path d="M363,294v 17" fill="none" stroke="#ff0000" stroke-width="2"/>
<path d="M364,295v 16" fill="none" stroke="#ff0000" stroke-width="2"/>
<path d="M364,295v 16" fill="none" stroke="#ff0000" stroke-width="2"/>
<path d="M365,295v 16" fill="none" stroke="#ff0000" stroke-width="2"/>
<path d="M366,295v 16" fill="none" stroke="#ff0000" stroke-width="2"/>
<path d="M367,295v 16" fill="none" stroke="#ff0000" stroke-width="2"/>
<path d="M368,295v 17" fill="none" stroke="#ff0000" stroke-width="2"/>
<path d="M368,295v 17" fill="none" stroke="#ff0000" stroke-width="2"/>
<path d="M369,295v 17" fill="none" stroke="#ff0000" stroke-width="2"/>
<path d="M370,295v 17" fill="none" stroke="#ff0000" stroke-width="2"/>
<path d="M371,295v 17" fill="none" stroke="#ff0000" stroke-width="2"/>
<path d="M372,295v 17" fill="none" stroke="#ff0000" stroke-width="2"/>
<path d="M372,295v 17" fill="none" stroke="#ff0000" stroke-width="2"/>
<path d="M373,295v 17" fill="none" stroke="#ff0000" stroke-width="2"/>
<path d="M374,295v 18" fill="none" stroke="#ff0000" stroke-width="2"/>
<path d="M375,295v 18" fill="none" stroke="#ff0000" stroke-width="2"/>
<path d="M376,295v 18" fill="none" stroke="#ff0000" stroke-width="2"/>
<path d="M377,295v 18" fill="none" stroke="#ff0000" stroke-width="2"/>
<path d="M377,296v 17" fill="none" stroke="#ff0000" stroke-width="2"/>
<path d="M378,296v 17" fill="none" stroke="#ff0000" stroke-width="2"/>
<path d="M379,296v 17" fill="none" stroke="#ff0000" stroke-width="2"/>
<path d="M380,296v 17" fill="none" stroke="#ff0000" stroke-width="2"/>
<path d="M381,296v 17" fill="none" stroke="#ff0000" stroke-width="2"/>
<path d="M381,296v 17" fill="none" stroke="#ff0000" stroke-width="2"/>
<path d="M382,296v 17" fill="none" stroke="#ff0000" stroke-width="2"/>
<path d="M383,296v 17" fill="none" stroke="#ff0000" stroke-width="2"/>
<path d="M384,296v 17" fill="none" stroke="#ff0000" stroke-width="2"/>
<path d="M385,296v 17" fill="none" stroke="#ff0000" stroke-width="2"/>
<path d="M386,296v 17" fill="none" stroke="#ff0000" stroke-width="2"/>
<path d="M386,296v 17" fill="none" stroke="#ff0000" stroke-width="2"/>
<path d="M387,296v 17" fill="none" stroke="#ff0000" stroke-width="2"/>
<path d="M388,296v 17" fill="none" stroke="#ff0000" stroke-width="2"/>
<path d="M389,297v 16" fill="none" stroke="#ff0000" stroke-width="2"/>
<path d="M390,297v 16" fill="none" stroke="#ff0000" stroke-width="2"/>
<path d="M390,297v 16" fill="none" stroke="#ff0000" stroke-width="2"/>
<path d="M391,297v 16" fill="none" stroke="#ff0000" stroke-width="2"/>
<path d="M392,297v 16" fill="none" stroke="#ff0000" stroke-width="2"/>
<path d="M393,297v 16" fill="none" stroke="#ff0000" stroke-width="2"/>
<path d="M394,297v 16" fill="none" stroke="#ff0000" stroke-width="2"/>
<path d="M394,297v 16" fill="none" stroke="#ff0000" stroke-width="2"/>
<path d="M395,297v 16" fill="none" stroke="#ff0000" stroke-width="2"/>
<path d="M396,297v 16" fill="none" stroke="#ff0000" stroke-width="2"/>
<path d="M397,297v 17" fill="none" stroke="#ff0000" stroke-width="2"/>
<path d="M398,297v 17" fill="none" stroke="#ff0000" stroke-width="2"/>
<path d="M399,297v 17" fill="none" stroke="#ff0000" stroke-width="2"/>
<path d="M399,297v 17" fill="none" stroke="#ff0000" stroke-width="2"/>
<path d="M400,297v 17" fill="none" stroke="#ff0000" stroke-width="2"/>
<path d="M401,297v 17" fill="none" stroke="#ff0000" stroke-width="2"/>
<path d="M402,297v 17" fill="none" stroke="#ff0000" stroke-width="2"/>
<path d="M403,297v 17" fill="none" stroke="#ff0000" stroke-width="2"/>
<path d="M403,297v 17" fill="none" stroke="#ff0000" stroke-width="2"/>
<path d="M404,297v 17" fill="none" stroke="#ff0000" stroke-width="2"/>
<path d="M405,297v 17" fill="none" stroke="#ff0000" stroke-width="2"/>
<path d="M406,297v 17" fill="none" stroke="#ff0000" stroke-width="2"/>
<path d="M407,297v 17" fill="none" stroke="#ff0000" stroke-width="2"/>
<path d="M408,297v 17" fill="none" stroke="#ff0000" stroke-width="2"/>
<path d="M408,298v 16" fill="none" stroke="#ff0000" stroke-width="2"/>
<path d="M409,298v 16" fill="none" stroke="#ff0000" stroke-width="2"/>
<path d="M410,298v 16" fill="none" stroke="#ff0000" stroke-width="2"/>
<path d="M411,298v 16" fill="none" stroke="#ff0000" stroke-width="2"/>
<path d="M412,298v 16" fill="none" stroke="#ff0000" stroke-width="2"/>
<path d="M412,298v 16" fill="none" stroke="#ff0000" stroke-width="2"/>
<path d="M413,298v 16" fill="none" stroke="#ff0000" stroke-width="2"/>
<path d="M414,298v 16" fill="none" stroke="#ff0000" stroke-width="2"/>
<path d="M415,298v 16" fill="none" stroke="#ff0000" stroke-width="2"/>
<path d="M416,298v 16" fill="none" stroke="#ff0000" stroke-width="2"/>
<path d="M416,298v 16" fill="none" stroke="#ff0000" stroke-width="2"/>
<path d="M417,298v 16" fill="none" stroke="#ff0000" stroke-width="2"/>
<path d="M418,298v 16" fill="none" stroke="#ff0000" stroke-width="2"/>
<path d="M419,298v 16" fill="none" stroke="#ff0000" stroke-width="2"/>
<path d="M420,298v 16" fill="none" stroke="#ff0000" stroke-width="2"/>
<path d="M421,298v 16" fill="none" stroke="#ff0000" stroke-width="2"/>
<path d="M421,298v 16" fill="none" stroke="#ff0000" stroke-width="2"/>
<path d="M422,298v 16" fill="none" stroke="#ff0000" stroke-width="2"/>
<path d="M423,298v 16" fill="none" stroke="#ff0000" stroke-width="2"/>
<path d="M424,298v 16" fill="none" stroke="#ff0000" stroke-width="2"/>
<path d="M425,298v 16" fill="none" stroke="#ff0000" stroke-width="2"/>
<path d="M425,298v 16" fill="none" stroke="#ff0000" stroke-width="2"/>
<path d="M426,298v 16" fill="none" stroke="#ff0000" stroke-width="2"/>
<path d="M427,298v 16" fill="none" stroke="#ff0000" stroke-width="2"/>
<path d="M428,298v 16" fill="none" stroke="#ff0000" stroke-width="2"/>
<path d="M429,298v 16" fill="none" stroke="#ff0000" stroke-width="2"/>
<path d="M430,298v 16" fill="none" stroke="#ff0000" stroke-width="2"/>
<path d="M430,298v 16" fill="none" stroke="#ff0000" stroke-width="2"/>
<path d="M431,298v 16" fill="none" stroke="#ff0000" stroke-width="2"/>
<path d="M432,298v 16" fill="none" stroke="#ff0000" stroke-width="2"/>
<path d="M433,298v 16" fill="none" stroke="#ff0000" stroke-width="2"/>
<path d="M434,298v 16" fill="none" stroke="#ff0000" stroke-width="2"/>
<path d="M434,298v 17" fill="none" stroke="#ff0000" stroke-width="2"/>
<path d="M435,298v 16" fill="none" stroke="#ff0000" stroke-width="2"/>
<path d="M436,298v 17" fill="none" stroke="#ff0000" stroke-width="2"/>
<path d="M437,298v 17" fill="none" stroke="#ff0000" stroke-width="2"/>
<path d="M438,298v 16" fill="none" stroke="#ff0000" stroke-width="2"/>
<path d="M438,298v 17" fill="none" stroke="#ff0000" stroke-width="2"/>
<path d="M439,298v 17" fill="none" stroke="#ff0000" stroke-width="2"/>
<path d="M440,298v 17" fill="none" stroke="#ff0000" stroke-width="2"/>
<path d="M441,298v 17" fill="none" stroke="#ff0000" stroke-width="2"/>
<path d="M442,298v 17" fill="none" stroke="#ff0000" stroke-width="2"/>
<path d="M443,298v 17" fill="none" stroke="#ff0000" stroke-width="2"/>
<path d="M443,298v 17" fill="none" stroke="#ff0000" stroke-width="2"/>
<path d="M444,298v 17" fill="none" stroke="#ff0000" stroke-width="2"/>
<path d="M445,298v 17" fill="none" stroke="#ff0000" stroke-width="2"/>
<path d="M446,298v 17" fill="none" stroke="#ff0000" stroke-width="2"/>
<path d="M447,298v 17" fill="none" stroke="#ff0000" stroke-width="2"/>
<path d="M447,298v 17" fill="none" stroke="#ff0000" stroke-width="2"/>
<path d="M448,298v 17" fill="none" stroke="#ff0000" stroke-width="2"/>
<path d="M449,298v 17" fill="none" stroke="#ff0000" stroke-width="2"/>
<path d="M450,298v 17" fill="none" stroke="#ff0000" stroke-width="2"/>
<path d="M451,298v 17" fill="none" stroke="#ff0000" stroke-width="2"/>
<path d="M452,298v 17" fill="none" stroke="#ff0000" stroke-width="2"/>
<path d="M452,298v 17" fill="none" stroke="#ff0000" stroke-width="2"/>
<path d="M453,298v 17" fill="none" stroke="#ff0000" stroke-width="2"/>
<path d="M454,298v 17" fill="none" stroke="#ff0000" stroke-width="2"/>
<path d="M455,298v 17" fill="none" stroke="#ff0000" stroke-width="2"/>
<path d="M456,298v 17" fill="none" stroke="#ff0000" stroke-width="2"/>
<path d="M456,298v 17" fill="none" stroke="#ff0000" stroke-width="2"/>
<path d="M457,298v 17" fill="none" stroke="#ff0000" stroke-width="2"/>
<path d="M458,298v 17" fill="none" stroke="#ff0000" stroke-width="2"/>
<path d="M459,298v 17" fill="none" stroke="#ff0000" stroke-width="2"/>
<path d="M460,298v 17" fill="none" stroke="#ff0000" stroke-width="2"/>
<path d="M460,298v 17" fill="none" stroke="#ff0000" stroke-width="2"/>
<path d="M461,298v 17" fill="none" stroke="#ff0000" stroke-width="2"/>
<path d="M462,298v 17" fill="none" stroke="#ff0000" stroke-width="2"/>
<path d="M463,298v 17" fill="none" stroke="#ff0000" stroke-width="2"/>
<path d="M464,298v 17" fill="none" stroke="#ff0000" stroke-width="2"/>
<path d="M465,298v 17" fill="none" stroke="#ff0000" stroke-width="2"/>
<path d="M465,298v 17" fill="none" stroke="#ff0000" stroke-width="2"/>
<path d="M466,298v 17" fill="none" stroke="#ff0000" stroke-width="2"/>
<path d="M467,298v 17" fill="none" stroke="#ff0000" stroke-width="2"/>
<path d="M468,298v 17" fill="none" stroke="#ff0000" stroke-width="2"/>
<path d="M469,298v 17" fill="none" stroke="#ff0000" stroke-width="2"/>
<path d="M469,298v 17" fill="none" stroke="#ff0000" stroke-width="2"/>
<path d="M470,298v 17" fill="none" stroke="#ff0000" stroke-width="2"/>
<path d="M471,298v 17" fill="none" stroke="#ff0000" stroke-width="2"/>
<path d="M472,298v 17" fill="none" stroke="#ff0000" stroke-width="2"/>
<path d="M473,298v 17" fill="none" stroke="#ff0000" stroke-width="2"/>
<path d="M473,298v 17" fill="none" stroke="#ff0000" stroke-width="2"/>
<path d="M474,298v 17" fill="none" stroke="#ff0000" stroke-width="2"/>
<path d="M475,298v 17" fill="none" stroke="#ff0000" stroke-width="2"/>
<path d="M476,298v 17" fill="none" stroke="#ff0000" stroke-width="2"/>
<path d="M477,298v 17" fill="none" stroke="#ff0000" stroke-width="2"/>
<path d="M478,298v 17" fill="none" stroke="#ff0000" stroke-width="2"/>
<path d="M478,298v 17" fill="none" stroke="#ff0000" stroke-width="2"/>
<path d="M479,298v 17" fill="none" stroke="#ff0000" stroke-width="2"/>
<path d="M480,298v 17" fill="none" stroke="#ff0000" stroke-width="2"/>
<path d="M481,298v 17" fill="none" stroke="#ff0000" stroke-width="2"/>
<path d="M482,298v 17" fill="none" stroke="#ff0000" stroke-width="2"/>
<path d="M482,298v 17" fill="none" stroke="#ff0000" stroke-width="2"/>
<path d="M483,298v 17" fill="none" stroke="#ff0000" stroke-width="2"/>
<path d="M484,298v 17" fill="none" stroke="#ff0000" stroke-width="2"/>
<path d="M485,298v 17" fill="none" stroke="#ff0000" stroke-width="2"/>
<path d="M486,298v 17" fill="none" stroke="#ff0000" stroke-width="2"/>
<path d="M487,298v 17" fill="none" stroke="#ff0000" stroke-width="2"/>
<path d="M487,298v 17" fill="none" stroke="#ff0000" stroke-width="2"/>
<path d="M488,298v 17" fill="none" stroke="#ff0000" stroke-width="2"/>
<path d="M489,298v 17" fill="none" stroke="#ff0000" stroke-width="2"/>
<path d="M490,298v 17" fill="none" stroke="#ff0000" stroke-width="2"/>
<path d="M491,298v 17" fill="none" stroke="#ff0000" stroke-width="2"/>
<path d="M491,298v 17" fill="none" stroke="#ff0000" stroke-width="2"/>
<path d="M492,298v 17" fill="none" stroke="#ff0000" stroke-width="2"/>
<path d="M493,298v 17" fill="none" stroke="#ff0000" stroke-width="2"/>
<path d="M494,298v 17" fill="none" stroke="#ff0000" stroke-width="2"/>
<path d="M495,298v 17" fill="none" stroke="#ff0000" stroke-width="2"/>
<path d="M495,298v 17" fill="none" stroke="#ff0000" stroke-width="2"/>
<path d="M496,298v 17" fill="none" stroke="#ff0000" stroke-width="2"/>
<path d="M497,298v 17" fill="none" stroke="#ff0000" stroke-width="2"/>
<path d="M498,298v 17" fill="none" stroke="#ff0000" stroke-width="2"/>
<path d="M499,298v 17" fill="none" stroke="#ff0000" stroke-width="2"/>
<path d="M500,298v 17" fill="none" stroke="#ff0000" stroke-width="2"/>
<path d="M500,298v 17" fill="none" stroke="#ff0000" stroke-width="2"/>
<path d="M501,298v 17" fill="none" stroke="#ff0000" stroke-width="2"/>
<path d="M502,298v 17" fill="none" stroke="#ff0000" stroke-width="2"/>
<path d="M503,298v 17" fill="none" stroke="#ff0000" stroke-width="2"/>
<path d="M504,298v 17" fill="none" stroke="#ff0000" stroke-width="2"/>
<path d="M504,298v 17" fill="none" stroke="#ff0000" stroke-width="2"/>
<path d="M505,298v 17" fill="none" stroke="#ff0000" stroke-width="2"/>
<path d="M506,298v 17" fill="none" stroke="#ff0000" stroke-width="2"/>
<path d="M507,298v 17" fill="none" stroke="#ff0000" stroke-width="2"/>
<path d="M508,298v 17" fill="none" stroke="#ff0000" stroke-width="2"/>
<path d="M509,298v 17" fill="none" stroke="#ff0000" stroke-width="2"/>
<path d="M509,298v 17" fill="none" stroke="#ff0000" stroke-width="2"/>
<path d="M510,300v 15" fill="none" stroke="#ff0000" stroke-width="2"/>
<path d="M284,211l 1, 1v 4l 1, 4l 1, 2l 1, 2l 1, 2v 3l 1, 4l 1, 1l 1, 2l 1, 2v 3l 1, 2l 1, 2l 1, 2l 1, 2l 1, 2v 2l 1, 1l 1, 1l 1, 3l 1, 2l 1, 2l 1, 1l 1, 2l 1, 1l 1, 2v 1l 1, 1l 1, 1l 1, 2h 1v 1l 1, 2l 1, 1h 1l 1, 1v 1l 1, 1l 1, 1l 1, 1h 1l 1, 1v 1l
 1, 1l 1, 1h 1l 1, 1l 1, 1h 1l 1, 1l 1, 1l 1, 1h 2l 1, 1l 1, 1l 1, 1h 1l 1, 1h 2l 1, 1h 2l 1, 1h 1l 1, 1h 2v 1h 5v 1h 4v 1h 3l 1, 1h 4l 1, 1h 5l 1, 1h 18l 1, 1h 19v 1h 101l 1, 2" fill="none" stroke="#ff0000" stroke-width="2"/>
<path d="M57,346h 453" fill="none" stroke="black"/>
<text x="419" y="372" fill="black" font-size="12" font-family="Helvetica">
TDC-TDC0 (ns)
</text>
<path d="M57,337v 9" fill="none" stroke="black"/>
<path d="M68,342v 4" fill="none" stroke="black"/>
<path d="M79,342v 4" fill="none" stroke="black"/>
<path d="M91,342v 4" fill="none" stroke="black"/>
<path d="M102,342v 4" fill="none" stroke="black"/>
<path d="M113,337v 9" fill="none" stroke="black"/>
<path d="M125,342v 4" fill="none" stroke="black"/>
<path d="M136,342v 4" fill="none" stroke="black"/>
<path d="M147,342v 4" fill="none" stroke="black"/>
<path d="M159,342v 4" fill="none" stroke="black"/>
<path d="M170,337v 9" fill="none" stroke="black"/>
<path d="M181,342v 4" fill="none" stroke="black"/>
<path d="M193,342v 4" fill="none" stroke="black"/>
<path d="M204,342v 4" fill="none" stroke="black"/>
<path d="M215,342v 4" fill="none" stroke="black"/>
<path d="M227,337v 9" fill="none" stroke="black"/>
<path d="M238,342v 4" fill="none" stroke="black"/>
<path d="M249,342v 4" fill="none" stroke="black"/>
<path d="M261,342v 4" fill="none" stroke="black"/>
<path d="M272,342v 4" fill="none" stroke="black"/>
<path d="M283,337v 9" fill="none" stroke="black"/>
<path d="M295,342v 4" fill="none" stroke="black"/>
<path d="M306,342v 4" fill="none" stroke="black"/>
<path d="M317,342v 4" fill="none" stroke="black"/>
<path d="M329,342v 4" fill="none" stroke="black"/>
<path d="M340,337v 9" fill="none" stroke="black"/>
<path d="M351,342v 4" fill="none" stroke="black"/>
<path d="M363,342v 4" fill="none" stroke="black"/>
<path d="M374,342v 4" fill="none" stroke="black"/>
<path d="M386,342v 4" fill="none" stroke="black"/>
<path d="M397,337v 9" fill="none" stroke="black"/>
<path d="M408,342v 4" fill="none" stroke="black"/>
<path d="M420,342v 4" fill="none" stroke="black"/>
<path d="M431,342v 4" fill="none" stroke="black"/>
<path d="M442,342v 4" fill="none" stroke="black"/>
<path d="M454,337v 9" fill="none" stroke="black"/>
<path d="M465,342v 4" fill="none" stroke="black"/>
<path d="M476,342v 4" fill="none" stroke="black"/>
<path d="M488,342v 4" fill="none" stroke="black"/>
<path d="M499,342v 4" fill="none" stroke="black"/>
<path d="M510,337v 9" fill="none" stroke="black"/>
<text x="36" y="359" fill="black" font-size="12" font-family="Helvetica">
-20000
</text>
<text x="93" y="359" fill="black" font-size="12" font-family="Helvetica">
-15000
</text>
<text x="149" y="359" fill="black" font-size="12" font-family="Helvetica">
-10000
</text>
<text x="210" y="359" fill="black" font-size="12" font-family="Helvetica">
-5000
</text>
<text x="280" y="359" fill="black" font-size="12" font-family="Helvetica">
0
</text>
<text x="325" y="359" fill="black" font-size="12" font-family="Helvetica">
5000
</text>
<text x="379" y="359" fill="black" font-size="12" font-family="Helvetica">
10000
</text>
<text x="435" y="359" fill="black" font-size="12" font-family="Helvetica">
15000
</text>
<text x="492" y="359" fill="black" font-size="12" font-family="Helvetica">
20000
</text>
<path d="M57,346v -308" fill="none" stroke="black"/>
<g transform="rotate(-90,29,72)">
<text x="29" y="72" fill="black" font-size="12" font-family="Helvetica">
Count
</text>
</g>
<path d="M70,346h -13" fill="none" stroke="black"/>
<path d="M63,340h -6" fill="none" stroke="black"/>
<path d="M63,333h -6" fill="none" stroke="black"/>
<path d="M63,326h -6" fill="none" stroke="black"/>
<path d="M63,319h -6" fill="none" stroke="black"/>
<path d="M70,312h -13" fill="none" stroke="black"/>
<path d="M63,305h -6" fill="none" stroke="black"/>
<path d="M63,298h -6" fill="none" stroke="black"/>
<path d="M63,291h -6" fill="none" stroke="black"/>
<path d="M63,284h -6" fill="none" stroke="black"/>
<path d="M70,278h -13" fill="none" stroke="black"/>
<path d="M63,271h -6" fill="none" stroke="black"/>
<path d="M63,264h -6" fill="none" stroke="black"/>
<path d="M63,257h -6" fill="none" stroke="black"/>
<path d="M63,250h -6" fill="none" stroke="black"/>
<path d="M70,243h -13" fill="none" stroke="black"/>
<path d="M63,236h -6" fill="none" stroke="black"/>
<path d="M63,229h -6" fill="none" stroke="black"/>
<path d="M63,222h -6" fill="none" stroke="black"/>
<path d="M63,216h -6" fill="none" stroke="black"/>
<path d="M70,209h -13" fill="none" stroke="black"/>
<path d="M63,202h -6" fill="none" stroke="black"/>
<path d="M63,195h -6" fill="none" stroke="black"/>
<path d="M63,188h -6" fill="none" stroke="black"/>
<path d="M63,181h -6" fill="none" stroke="black"/>
<path d="M70,174h -13" fill="none" stroke="black"/>
<path d="M63,167h -6" fill="none" stroke="black"/>
<path d="M63,160h -6" fill="none" stroke="black"/>
<path d="M63,153h -6" fill="none" stroke="black"/>
<path d="M63,147h -6" fill="none" stroke="black"/>
<path d="M70,140h -13" fill="none" stroke="black"/>
<path d="M63,133h -6" fill="none" stroke="black"/>
<path d="M63,126h -6" fill="none" stroke="black"/>
<path d="M63,119h -6" fill="none" stroke="black"/>
<path d="M63,112h -6" fill="none" stroke="black"/>
<path d="M70,105h -13" fill="none" stroke="black"/>
<path d="M63,98h -6" fill="none" stroke="black"/>
<path d="M63,91h -6" fill="none" stroke="black"/>
<path d="M63,85h -6" fill="none" stroke="black"/>
<path d="M63,78h -6" fill="none" stroke="black"/>
<path d="M70,71h -13" fill="none" stroke="black"/>
<path d="M70,71h -13" fill="none" stroke="black"/>
<path d="M63,64h -6" fill="none" stroke="black"/>
<path d="M63,57h -6" fill="none" stroke="black"/>
<path d="M63,50h -6" fill="none" stroke="black"/>
<path d="M63,43h -6" fill="none" stroke="black"/>
<text x="47" y="350" fill="black" font-size="12" font-family="Helvetica">
0
</text>
<text x="33" y="316" fill="black" font-size="12" font-family="Helvetica">
500
</text>
<text x="25" y="282" fill="black" font-size="12" font-family="Helvetica">
1000
</text>
<text x="25" y="247" fill="black" font-size="12" font-family="Helvetica">
1500
</text>
<text x="25" y="212" fill="black" font-size="12" font-family="Helvetica">
2000
</text>
<text x="25" y="178" fill="black" font-size="12" font-family="Helvetica">
2500
</text>
<text x="25" y="143" fill="black" font-size="12" font-family="Helvetica">
3000
</text>
<text x="25" y="109" fill="black" font-size="12" font-family="Helvetica">
3500
</text>
<text x="25" y="75" fill="black" font-size="12" font-family="Helvetica">
4000
</text>
<rect x="442" y="25" width="114" height="46" fill="white"/>
<path d="M442,71h 114" fill="none" stroke="black"/>
<path d="M556,71v -46" fill="none" stroke="black"/>
<path d="M556,25h -114" fill="none" stroke="black"/>
<path d="M442,25v 46" fill="none" stroke="black"/>
<text x="447" y="28" fill="black" font-size="4" font-family="Helvetica">
Entries 
</text>
<text x="534" y="28" fill="black" font-size="4" font-family="Helvetica">
 1535863
</text>
<text x="450" y="34" fill="black" font-size="4" font-family="Helvetica">
 / ndf 
</text>
<text x="449" y="30" fill="black" font-size="3" font-family="Helvetica">
2
</text>
<text x="447" y="34" fill="black" font-size="4" font-family="Times">
&#0967;
</text>
<text x="526" y="33" fill="black" font-size="4" font-family="Helvetica">
  3071 / 1239
</text>
<text x="452" y="36" fill="black" font-size="4" font-family="Helvetica">
   
</text>
<text x="450" y="39" fill="black" font-size="3" font-family="Helvetica">
cu
</text>
<text x="447" y="36" fill="black" font-size="4" font-family="Helvetica">
N
</text>
<text x="537" y="38" fill="black" font-size="4" font-family="Helvetica">
 1949.3
</text>
<text x="534" y="38" fill="black" font-size="4" font-family="Times">
&#0177;
</text>
<text x="522" y="38" fill="black" font-size="4" font-family="Helvetica">
  7090 
</text>
<text x="450" y="41" fill="black" font-size="4" font-family="Helvetica">
 
</text>
<text x="448" y="45" fill="black" font-size="3" font-family="Helvetica">
cu
</text>
<text x="447" y="41" fill="black" font-size="4" font-family="Times">
&#0964;
</text>
<text x="532" y="43" fill="black" font-size="4" font-family="Helvetica">
 4596.420
</text>
<text x="529" y="43" fill="black" font-size="4" font-family="Times">
&#0177;
</text>
<text x="517" y="43" fill="black" font-size="4" font-family="Helvetica">
 1.212 
</text>
<text x="450" y="45" fill="black" font-size="4" font-family="Helvetica">
    
</text>
<text x="450" y="49" fill="black" font-size="3" font-family="Helvetica">
f
</text>
<text x="447" y="45" fill="black" font-size="4" font-family="Helvetica">
N
</text>
<text x="543" y="48" fill="black" font-size="4" font-family="Helvetica">
 4.6
</text>
<text x="541" y="48" fill="black" font-size="4" font-family="Times">
&#0177;
</text>
<text x="529" y="48" fill="black" font-size="4" font-family="Helvetica">
  1425 
</text>
<text x="448" y="50" fill="black" font-size="4" font-family="Helvetica">
 
</text>
<text x="448" y="53" fill="black" font-size="3" font-family="Helvetica">
f
</text>
<text x="447" y="50" fill="black" font-size="4" font-family="Times">
&#0964;
</text>
<text x="543" y="52" fill="black" font-size="4" font-family="Helvetica">
 0.0
</text>
<text x="541" y="52" fill="black" font-size="4" font-family="Times">
&#0177;
</text>
<text x="529" y="52" fill="black" font-size="4" font-family="Helvetica">
  2197 
</text>
<text x="452" y="54" fill="black" font-size="4" font-family="Helvetica">
  
</text>
<text x="450" y="58" fill="black" font-size="3" font-family="Helvetica">
sin
</text>
<text x="447" y="54" fill="black" font-size="4" font-family="Helvetica">
N
</text>
<text x="543" y="57" fill="black" font-size="4" font-family="Helvetica">
 1.1
</text>
<text x="541" y="57" fill="black" font-size="4" font-family="Times">
&#0177;
</text>
<text x="529" y="57" fill="black" font-size="4" font-family="Helvetica">
 121.1 
</text>
<text x="448" y="62" fill="black" font-size="4" font-family="Helvetica">
     
</text>
<text x="447" y="62" fill="black" font-size="4" font-family="Times">
&#0966;
</text>
<text x="539" y="62" fill="black" font-size="4" font-family="Helvetica">
 0.092
</text>
<text x="537" y="62" fill="black" font-size="4" font-family="Times">
&#0177;
</text>
<text x="525" y="62" fill="black" font-size="4" font-family="Helvetica">
 2.109 
</text>
<text x="447" y="65" fill="black" font-size="4" font-family="Helvetica">
T        
</text>
<text x="541" y="66" fill="black" font-size="4" font-family="Helvetica">
 0.00
</text>
<text x="538" y="66" fill="black" font-size="4" font-family="Times">
&#0177;
</text>
<text x="526" y="66" fill="black" font-size="4" font-family="Helvetica">
 59.31 
</text>
<text x="450" y="68" fill="black" font-size="4" font-family="Helvetica">
    
</text>
<text x="450" y="71" fill="black" font-size="3" font-family="Helvetica">
b
</text>
<text x="447" y="68" fill="black" font-size="4" font-family="Helvetica">
N
</text>
<text x="543" y="71" fill="black" font-size="4" font-family="Helvetica">
 0.7
</text>
<text x="541" y="71" fill="black" font-size="4" font-family="Times">
&#0177;
</text>
<text x="530" y="71" fill="black" font-size="4" font-family="Helvetica">
   575 
</text>
<text x="270" y="21" fill="black" font-size="21" font-family="Helvetica">
D1
</text></svg>
