<?xml version="1.0" standalone="no"?>
<svg width="567" height="385" viewBox="0 0 567 385" xmlns="http://www.w3.org/2000/svg">
<title>
images/analysis_g4bl_phase_loose_cu/458_D1.svg
</title>
<desc>
Creator: ROOT Version 5.34/05
CreationDate: Wed Jun 12 17:29:28 2013</desc>
<defs>
</defs>
<rect x="0" y="0" width="567" height="385" fill="white"/>
<rect x="57" y="38" width="453" height="308" fill="white"/>
<rect x="57" y="38" width="453" height="308" fill="none" stroke="black"/>
<rect x="57" y="38" width="453" height="308" fill="white"/>
<rect x="57" y="38" width="453" height="308" fill="none" stroke="black"/>
<path d="M57,346h 44v -2v 2h 1v -5v 2v -1h 1v 2v -9v 1h 1v -7v 8v -7h 1v 6v -6v 5h 1v -4v 1v -2v 5v -13h 1v 11v -7v 10h 1v -9v 9v -9h 1v 7v -11v 15h 1v -11v 6v -5h 1v -4v 10v -9v 8h 1v -9v 11v -5h 1v -3v 6v -7v 7h 1v -9v 11v -4h 1v -6v 10v -10v 8h 1v
 -7v 8v -2h 1v -5v 7v -7v 4h 1v -3v 6v -2h 1v -7v 10v -9v 2h 1v 5v -9v 10h 1v -12v 14v -12v 8h 1v 3v -8v 6v -5h 1v -2v 8v -7v 1h 1v 6v -7v 6h 1v -9v 11v -8h 1v 9v -9v 7h 1v -10v 10v -9h 1v 7v -5v 6h 1v -4v 6v -10v 2h 1v 5v -6v 7h 1v -7v 9v -9h 1v 11v
 -11v 6h 1v -7v 11v -10h 1v 8v -10v 9h 1v 1v -9v 7v -7h 1v 10v -8v 4h 1v 2v -7v 9v -10h 1v 9v -7v 7h 1v -6v 3v -5h 1v 5v -8v 8h 1v 2v -7v 10v -8h 1v 8v -8h 1v 7v -7v 7v -10h 1v 8v -7v 4h 1v -4v 11v -7h 1v -4v 8v -9v 11h 1v -10v 8v -6h 1v -8v 11v -6v
 8h 1v -11v 10v -2h 1v -5v 10v -10v 6h 1v -5v 9v -6h 1v -5v 12v -11v 6h 1v -9v 13v -5h 1v -5v 10v -6h 1v 5v -11v 10v -1h 1v -7v 10v -9v 4h 1v 2v -12v 17h 1v -11v 6v -8v 3h 1v 8v -9v 12h 1v -14v 12v -8v 1h 1v 8v -12v 8h 1v -6v 7v -7v 1h 1v 4v -9v 13h
 1v -11v 8v -9h 1v 11v -10v 8h 1v -7v 5v -6v 3h 1v 5v -10v 9h 1v -3v 5v -11h 1v 16v -15v 9h 1v -5v 4v -9h 1v 9v -4v 4h 1v 1v -11v 11v -6h 1v 5v -5v 8h 1v -8v 8v -10h 1v 7v -7v 5h 1v 5v -11v 11v -9h 1v 10v -15v 7h 1v 6v -12v 8v -7h 1v 10v -6h 1v 9v
 -10v 10v -9h 1v -2v 10v -10h 1v 7v -5v 7v -3h 1v -1v 2v -6h 1v 8v -9v 9v -7h 1v -4v 12v -12v 9h 1v 3v -6v 4h 1v -5v 6v -8v 7h 1v 2v -7v 7h 1v -10v 7v -4v 4h 1v 1v -6v 5v -1h 1v -4v 10v -10v 5h 1v -5v 5h 1v -8v 11v -12v 6h 1v 6v -12v 12h 1v -9v 8v
 -7h 1v 9v -10v 10h 1v -10v 7v -10v 8h 1v 3v -9v 7h 1v -8v 8v -8v 5h 1v 3v -7v 10h 1v -10v 10v -9h 1v 8v -11v 12h 1v -10v 13v -13h 1v 8v -8v 8h 1v -10v 10v -6h 1v 8v -8v 2h 1v 4v -9v 12v -15h 1v 12v -7v 9h 1v -10v 7v -5h 1v 6v -7v 6h 1v 4v -10v 6v
 -6h 1v 8v -11v 7h 1v 5v -8v 5v -4h 1v -1v 9v -16v 6h 1v 8v -9v 9v -10h 1v 11v -11v 2h 1v 8v -8v 6v -3h 1v -4v 9v -8h 1v 9v -11v 10v -6h 1v -6v 13v -8h 1v 7v -9v 7h 1v -4v 4v -6h 1v 8v -8v 8v -4h 1v -4v 7v -8h 1v 10v -13v 13v -3h 1v -6v 9v -10v 4h 1v
 4v -6v 7v -6h 1v -6v 13v -11v 4h 1v 4v -7v 7v -1h 1v -4v 7v -10v 7h 1v 1v -5v 5v -1h 1v -7v 9v -10v 7h 1v 1v -6v 9h 1v -12v 12v -5h 1v 4v -10v 10h 1v -6v 7v -7h 1v 6v -6v 6h 1v -8v 9v -9h 1v 11v -11v 6h 1v 1v -8v 9v -7h 1v 7v -8v 9h 1v -11v 8v -6h
 1v 8v -12v 10h 1v 1v -6v 8v -8h 1v 5v -8v 7h 1v 3v -9v 9v -8h 1v 7v -5v 2h 1v 1v -6v 7v -5h 1v 7v -11v 9h 1v 1v -9v 7v -3h 1v -3v 10v -8v 2h 1v 7v -12v 9v -9h 1v -2v 11v -8v 5h 1v 4v -10v 14v -8h 1v -4v 8v -9v 5h 1v 3v -8v 8v -3h 1v -3v 6v -8h 1v 8v
 -8v 11v -6h 1v -3v 7v -10h 1v 9v -7v 6v -2h 1v -2v 7v -14h 1v 13v -9v 8v -1h 1v -6v 8v -10h 1v 8v -8v 10h 1v -10v 9v -9h 1v 9v -9v 6h 1v -7v 12v -14v 6h 1v 4v -7v 9h 1v -9v 9v -7v 2h 1v 4v -7v 7h 1v -8v 6v -7v 1h 1v 8v -6v 10h 1v -15v 9v -6h 1v 7v
 -10v 11h 1v -8v 5v -2h 1v 4v -8v 7h 1v -12v 13v -5h 1v 4v -6v 4h 1v 2v -9v 8v -8h 1v 9v -11v 7h 1v 5v -10v 5v -6h 1v 7v -8v 5h 1v 6v -13v 9v -243v 264h 1v -293v 178h 1v 12v -4v 14v -8h 1v 13v -8h 1v 14v -11v 16v -14h 1v -3v 7v -5v 5h 1v 5v -5v 8v
 -6h 1v 10v -7v 4v -7v 4h 1v 4v -6v 12v -6h 1v 5v -14h 1v 15v -10v 17v -10h 1v -1v 10v -12v 5h 1v 10v -10v 11v -1h 1v -9v 12v -6v 1h 1v 3v -5v 12h 1v -13v 11v -6h 1v -5v 13v -8v 10h 1v -8v 8v -8h 1v 4v -3v 6v -2h 1v -12v 18v -13h 1v 10v -7v 6v -2v 2h
 1v -5v 8v -8h 1v 15v -14v 12v -4h 1v -7v 10v -5v 2h 1v 3v -3v 7h 1v -12v 12v -4h 1v -7v 12v -12v 13h 1v -5v 5v -12h 1v 16v -15v 7h 1v -2v 4v -3h 1v 8v -9v 8h 1v 3v -11v 16v -14h 1v 10v -6v 1h 1v 4v -10v 12v -11h 1v 12v -14v 10h 1v 4v -4v 6v -9h 1v
 -2v 11v -14v 9h 1v 4v -9v 7v -5h 1v 8v -9v 8h 1v -5v 7v -5h 1v 11v -13h 1v 7v -8v 7v -7h 1v -2v 12v -6v 1h 1v 3v -3v 7v -8h 1v 4v -8v 4h 1v 9v -16v 14v -7h 1v 10v -13h 1v 11v -8v 7v -2h 1v -7v 14v -10v 1h 1v 9v -14v 10h 1v -8v 12v -14h 1v 13v -6v 7v
 -3h 1v -10v 13v -9h 1v 8v -7v 11v -8h 1v -2v 7v -9h 1v 12v -13v 8h 1v -7v 13v -11h 1v 6v -8v 9v -1h 1v -7v 11v -8h 1v 7v -9v 8h 1v -5v 6v -8h 1v -1v 7v -3v 2v -7v 7h 1v -9v 11v -5h 1v 5v -6v 7h 1v -9v 9h 1v -7v 10v -8v 8h 1v -8v 3v -2h 1v -3v 9v
 -11v 9h 1v 1v -6v 10v -7h 1v 7v -13v 11h 1v -9v 4v -2h 1v -2v 8v -8v 10h 1v -8v 4v -5h 1v 6v -8v 6h 1v 1v -7v 10v -8h 1v -5v 11v -5h 1v 9v -11v 7v -9h 1v 10v -5v 3h 1v 1v -3v 6v -9h 1v -3v 11v -9v 2h 1v 10v -13v 12v -11h 1v 10v -8h 1v 6v -5v 8v -5h
 1v -3v 11v -12v 3h 1v 5v -11v 11v -8h 1v -4v 10v -11h 1v 12v -13v 15v -6h 1v -4v 8v -8v 1h 1v 11v -9v 7v -3h 1v -6v 9v -11h 1v 8v -5v 8v -3h 1v -5v 8v -8h 1v 7v -9v 11h 1v -8v 4v -6h 1v 13v -10v 7h 1v -12v 9v -4h 1v -1v 7v -10v 13h 1v -15v 15v -8h
 1v -3v 10v -12v 11h 1v -10v 10v -6h 1v -3v 8v -6v 9h 1v -11v 7v -3h 1v -9v 16v -14v 12h 1v -10v 9v -4h 1v -3v 10v -8v 4h 1v 1v -14v 14v -3h 1v -2v 5v -8v 4h 1v 3v -7v 9h 1v -10v 10v -12v 11h 1v 2v -11v 10v -9h 1v 8v -9v 6h 1v 2v -5v 5v -1h 1v -5v 8v
 -14v 13h 1v 2v -11v 8v -8h 1v 8v -6v 2h 1v 5v -9v 10h 1v -7v 8v -9v 3h 1v 5v -11v 13v -11h 1v 9v -8h 1v 7v -2v 3h 1v -8v 7v -7h 1v 10v -7v 4h 1v -7v 8v -7h 1v 7v -8v 9v -2h 1v -5v 6v -7v 2h 1v 6v -11v 8h 1v -5v 10v -10h 1v 6v -10v 10v -1h 1v -7v 8v
 -8h 1v 8v -2v 2h 1v -6v 5v -2h 1v -4v 9v -12v 10h 1v -5v 6v -4h 1v -5v 9v -4v 2h 1v 1v -5v 5v -6h 1v 9v -11v 10h 1v -9v 7v -9h 1v 11v -9v 8h 1v -6v 8v -4h 1v -7v 9v -7v 8h 1v -10v 11v -5h 1v -7v 12v -11v 8h 1v 2v -8v 9v -5h 1v -4v 5v -7v 9h 1v -7v
 8h 1v -9v 10v -11v 5h 1v 5v -8v 6v -1h 1v -7v 11v -8v 2h 1v 6v -11v 11v -2h 1v -8v 9v -10v 3h 1v 9v -10v 8v -8h 1v -1v 9v -12v 7h 1v 5v -13v 11v -5h 1v -3v 8v -4v 1h 1v 3v -10v 13v -5h 1v -5v 8v -10v 6h 1v 6v -9v 8v -6h 1v -2v 8v -9v 2h 1v 6v -8v
 12v -4h 1v -6v 8v -11h 1v 10v -9v 7v -5h 1v -1v 9v -9h 1v 6v -7v 6h 1v -3v 2v -5h 1v 10v -10v 12h 1v -13v 9v -6h 1v 6v -13v 17h 1v -11v 7v -8h 1v 7v -7v 7h 1v -9v 10v -3h 1v -3v 6v -7v 6h 1v -6v 10v -11h 1v 9v -5v 6h 1v -13v 15v -10h 1v 7v -8v 6h 1v
 -6v 8v -5h 1v -6v 12v -9v 7h 1v 1v -14v 14v -5h 1v -5v 9v -9v 7h 1v -7v 11v -6h 1v -3v 8v -8v 6h 1v -5v 6v -1h 1v -9v 10v -8v 6h 1v 4v -8v 7h 1v -8v 9v -7h 1v 6v -10v 10v -3h 1v -7v 12v -14v 5h 1v 6v -9v 7h 1v -9v 13v -7v 1h 1v 6v -13v 10h 1v -6v 8v
 -6h 1v 10v -13v 8v -2h 1v -4v 8v -12v 7h 1v 3v -9v 13v -9h 1v -4v 13v -11h 1v 9v -9v 9v -3h 1v -5v 9v -11h 1v 10v -9v 7v -2h 1v -4v 3v -4h 1v 8v -7v 4h 1v -5v 9v -9h 1v 7v -6v 6v -1h 1v -8v 13v -13h 1v 13v -11v 9h 1v -10v 9v -4h 1v -2v 6v -9v 9h 1v
 -6v 6v -5h 1v -3v 6v -5v 5h 1v -9v 9v -3h 1v 5v -9v 9h 1v -7v 6v -4h 1v -3v 9v -9v 4h 1v 6v -7v 3v -4h 1v 6v -8v 6h 1v -6v 11v -8h 1v -5v 8v -6v 6h 1v 5v -8v 5v -3h 1v -4v 7v -10v 7h 1v -6v 9v -4h 1v -5v 8v -6v 4h 1v 2v -6v 5v -1h 1v -3v 7v -9v 2h
 1v 6v -11v 12h 1v -10v 10v -10h 1v 8v -6v 4h 1v -5v 8v -7v 1h 1v 7v -13v 11h 1v -9v 9" fill="none" stroke="#000099"/>
<rect x="442" y="25" width="114" height="46" fill="white"/>
<path d="M442,71h 114" fill="none" stroke="black"/>
<path d="M556,71v -46" fill="none" stroke="black"/>
<path d="M556,25h -114" fill="none" stroke="black"/>
<path d="M442,25v 46" fill="none" stroke="black"/>
<text x="447" y="28" fill="black" font-size="4" font-family="Helvetica">
Entries 
</text>
<text x="535" y="28" fill="black" font-size="4" font-family="Helvetica">
 224251
</text>
<text x="450" y="34" fill="black" font-size="4" font-family="Helvetica">
 / ndf 
</text>
<text x="449" y="30" fill="black" font-size="3" font-family="Helvetica">
2
</text>
<text x="447" y="34" fill="black" font-size="4" font-family="Times">
&#0967;
</text>
<text x="526" y="33" fill="black" font-size="4" font-family="Helvetica">
  1274 / 1239
</text>
<text x="452" y="36" fill="black" font-size="4" font-family="Helvetica">
   
</text>
<text x="450" y="39" fill="black" font-size="3" font-family="Helvetica">
cu
</text>
<text x="447" y="36" fill="black" font-size="4" font-family="Helvetica">
N
</text>
<text x="539" y="38" fill="black" font-size="4" font-family="Helvetica">
 294.8
</text>
<text x="537" y="38" fill="black" font-size="4" font-family="Times">
&#0177;
</text>
<text x="525" y="38" fill="black" font-size="4" font-family="Helvetica">
  2552 
</text>
<text x="450" y="41" fill="black" font-size="4" font-family="Helvetica">
 
</text>
<text x="448" y="45" fill="black" font-size="3" font-family="Helvetica">
cu
</text>
<text x="447" y="41" fill="black" font-size="4" font-family="Times">
&#0964;
</text>
<text x="541" y="43" fill="black" font-size="4" font-family="Helvetica">
 0.75
</text>
<text x="538" y="43" fill="black" font-size="4" font-family="Times">
&#0177;
</text>
<text x="526" y="43" fill="black" font-size="4" font-family="Helvetica">
 29.37 
</text>
<text x="450" y="45" fill="black" font-size="4" font-family="Helvetica">
    
</text>
<text x="450" y="49" fill="black" font-size="3" font-family="Helvetica">
f
</text>
<text x="447" y="45" fill="black" font-size="4" font-family="Helvetica">
N
</text>
<text x="543" y="48" fill="black" font-size="4" font-family="Helvetica">
 2.3
</text>
<text x="541" y="48" fill="black" font-size="4" font-family="Times">
&#0177;
</text>
<text x="529" y="48" fill="black" font-size="4" font-family="Helvetica">
 357.8 
</text>
<text x="448" y="50" fill="black" font-size="4" font-family="Helvetica">
 
</text>
<text x="448" y="53" fill="black" font-size="3" font-family="Helvetica">
f
</text>
<text x="447" y="50" fill="black" font-size="4" font-family="Times">
&#0964;
</text>
<text x="543" y="52" fill="black" font-size="4" font-family="Helvetica">
 0.0
</text>
<text x="541" y="52" fill="black" font-size="4" font-family="Times">
&#0177;
</text>
<text x="529" y="52" fill="black" font-size="4" font-family="Helvetica">
  2197 
</text>
<text x="452" y="54" fill="black" font-size="4" font-family="Helvetica">
  
</text>
<text x="450" y="58" fill="black" font-size="3" font-family="Helvetica">
sin
</text>
<text x="447" y="54" fill="black" font-size="4" font-family="Helvetica">
N
</text>
<text x="541" y="57" fill="black" font-size="4" font-family="Helvetica">
 0.43
</text>
<text x="538" y="57" fill="black" font-size="4" font-family="Times">
&#0177;
</text>
<text x="526" y="57" fill="black" font-size="4" font-family="Helvetica">
 21.51 
</text>
<text x="448" y="62" fill="black" font-size="4" font-family="Helvetica">
     
</text>
<text x="447" y="62" fill="black" font-size="4" font-family="Times">
&#0966;
</text>
<text x="531" y="62" fill="black" font-size="4" font-family="Helvetica">
 3.920e-02
</text>
<text x="529" y="62" fill="black" font-size="4" font-family="Times">
&#0177;
</text>
<text x="508" y="62" fill="black" font-size="4" font-family="Helvetica">
 4.763e-13 
</text>
<text x="447" y="65" fill="black" font-size="4" font-family="Helvetica">
T        
</text>
<text x="541" y="66" fill="black" font-size="4" font-family="Helvetica">
 0.00
</text>
<text x="538" y="66" fill="black" font-size="4" font-family="Times">
&#0177;
</text>
<text x="526" y="66" fill="black" font-size="4" font-family="Helvetica">
 59.35 
</text>
<text x="450" y="68" fill="black" font-size="4" font-family="Helvetica">
    
</text>
<text x="450" y="71" fill="black" font-size="3" font-family="Helvetica">
b
</text>
<text x="447" y="68" fill="black" font-size="4" font-family="Helvetica">
N
</text>
<text x="543" y="71" fill="black" font-size="4" font-family="Helvetica">
 0.3
</text>
<text x="541" y="71" fill="black" font-size="4" font-family="Times">
&#0177;
</text>
<text x="530" y="71" fill="black" font-size="4" font-family="Helvetica">
  73.5 
</text>
<path d="M284,149v 43" fill="none" stroke="#ff0000" stroke-width="2"/>
<path d="M285,195v 50" fill="none" stroke="#ff0000" stroke-width="2"/>
<path d="M285,246v 11" fill="none" stroke="#ff0000" stroke-width="2"/>
<path d="M286,251v 11" fill="none" stroke="#ff0000" stroke-width="2"/>
<path d="M287,253v 11" fill="none" stroke="#ff0000" stroke-width="2"/>
<path d="M288,255v 10" fill="none" stroke="#ff0000" stroke-width="2"/>
<path d="M289,256v 12" fill="none" stroke="#ff0000" stroke-width="2"/>
<path d="M289,260v 10" fill="none" stroke="#ff0000" stroke-width="2"/>
<path d="M290,262v 11" fill="none" stroke="#ff0000" stroke-width="2"/>
<path d="M291,264v 10" fill="none" stroke="#ff0000" stroke-width="2"/>
<path d="M292,265v 11" fill="none" stroke="#ff0000" stroke-width="2"/>
<path d="M293,268v 9" fill="none" stroke="#ff0000" stroke-width="2"/>
<path d="M293,269v 11" fill="none" stroke="#ff0000" stroke-width="2"/>
<path d="M294,271v 11" fill="none" stroke="#ff0000" stroke-width="2"/>
<path d="M295,273v 10" fill="none" stroke="#ff0000" stroke-width="2"/>
<path d="M296,274v 11" fill="none" stroke="#ff0000" stroke-width="2"/>
<path d="M297,277v 9" fill="none" stroke="#ff0000" stroke-width="2"/>
<path d="M298,277v 11" fill="none" stroke="#ff0000" stroke-width="2"/>
<path d="M298,279v 11" fill="none" stroke="#ff0000" stroke-width="2"/>
<path d="M299,280v 11" fill="none" stroke="#ff0000" stroke-width="2"/>
<path d="M300,282v 10" fill="none" stroke="#ff0000" stroke-width="2"/>
<path d="M301,284v 9" fill="none" stroke="#ff0000" stroke-width="2"/>
<path d="M302,285v 10" fill="none" stroke="#ff0000" stroke-width="2"/>
<path d="M302,286v 10" fill="none" stroke="#ff0000" stroke-width="2"/>
<path d="M303,287v 10" fill="none" stroke="#ff0000" stroke-width="2"/>
<path d="M304,288v 10" fill="none" stroke="#ff0000" stroke-width="2"/>
<path d="M305,290v 9" fill="none" stroke="#ff0000" stroke-width="2"/>
<path d="M306,291v 10" fill="none" stroke="#ff0000" stroke-width="2"/>
<path d="M307,291v 11" fill="none" stroke="#ff0000" stroke-width="2"/>
<path d="M307,292v 11" fill="none" stroke="#ff0000" stroke-width="2"/>
<path d="M308,294v 10" fill="none" stroke="#ff0000" stroke-width="2"/>
<path d="M309,295v 10" fill="none" stroke="#ff0000" stroke-width="2"/>
<path d="M310,295v 11" fill="none" stroke="#ff0000" stroke-width="2"/>
<path d="M311,296v 11" fill="none" stroke="#ff0000" stroke-width="2"/>
<path d="M311,297v 11" fill="none" stroke="#ff0000" stroke-width="2"/>
<path d="M312,299v 9" fill="none" stroke="#ff0000" stroke-width="2"/>
<path d="M313,299v 10" fill="none" stroke="#ff0000" stroke-width="2"/>
<path d="M314,300v 10" fill="none" stroke="#ff0000" stroke-width="2"/>
<path d="M315,300v 11" fill="none" stroke="#ff0000" stroke-width="2"/>
<path d="M315,301v 11" fill="none" stroke="#ff0000" stroke-width="2"/>
<path d="M316,303v 9" fill="none" stroke="#ff0000" stroke-width="2"/>
<path d="M317,303v 10" fill="none" stroke="#ff0000" stroke-width="2"/>
<path d="M318,304v 10" fill="none" stroke="#ff0000" stroke-width="2"/>
<path d="M319,304v 10" fill="none" stroke="#ff0000" stroke-width="2"/>
<path d="M320,304v 11" fill="none" stroke="#ff0000" stroke-width="2"/>
<path d="M320,306v 9" fill="none" stroke="#ff0000" stroke-width="2"/>
<path d="M321,306v 11" fill="none" stroke="#ff0000" stroke-width="2"/>
<path d="M322,307v 10" fill="none" stroke="#ff0000" stroke-width="2"/>
<path d="M323,307v 10" fill="none" stroke="#ff0000" stroke-width="2"/>
<path d="M324,308v 9" fill="none" stroke="#ff0000" stroke-width="2"/>
<path d="M324,308v 10" fill="none" stroke="#ff0000" stroke-width="2"/>
<path d="M325,309v 10" fill="none" stroke="#ff0000" stroke-width="2"/>
<path d="M326,309v 10" fill="none" stroke="#ff0000" stroke-width="2"/>
<path d="M327,310v 10" fill="none" stroke="#ff0000" stroke-width="2"/>
<path d="M328,310v 10" fill="none" stroke="#ff0000" stroke-width="2"/>
<path d="M329,311v 10" fill="none" stroke="#ff0000" stroke-width="2"/>
<path d="M329,311v 10" fill="none" stroke="#ff0000" stroke-width="2"/>
<path d="M330,312v 9" fill="none" stroke="#ff0000" stroke-width="2"/>
<path d="M331,312v 10" fill="none" stroke="#ff0000" stroke-width="2"/>
<path d="M332,313v 9" fill="none" stroke="#ff0000" stroke-width="2"/>
<path d="M333,313v 10" fill="none" stroke="#ff0000" stroke-width="2"/>
<path d="M333,313v 10" fill="none" stroke="#ff0000" stroke-width="2"/>
<path d="M334,313v 10" fill="none" stroke="#ff0000" stroke-width="2"/>
<path d="M335,314v 10" fill="none" stroke="#ff0000" stroke-width="2"/>
<path d="M336,314v 10" fill="none" stroke="#ff0000" stroke-width="2"/>
<path d="M337,314v 11" fill="none" stroke="#ff0000" stroke-width="2"/>
<path d="M337,315v 10" fill="none" stroke="#ff0000" stroke-width="2"/>
<path d="M338,315v 10" fill="none" stroke="#ff0000" stroke-width="2"/>
<path d="M339,316v 10" fill="none" stroke="#ff0000" stroke-width="2"/>
<path d="M340,316v 10" fill="none" stroke="#ff0000" stroke-width="2"/>
<path d="M341,316v 10" fill="none" stroke="#ff0000" stroke-width="2"/>
<path d="M342,317v 9" fill="none" stroke="#ff0000" stroke-width="2"/>
<path d="M342,317v 9" fill="none" stroke="#ff0000" stroke-width="2"/>
<path d="M343,317v 9" fill="none" stroke="#ff0000" stroke-width="2"/>
<path d="M344,317v 10" fill="none" stroke="#ff0000" stroke-width="2"/>
<path d="M345,317v 10" fill="none" stroke="#ff0000" stroke-width="2"/>
<path d="M346,317v 10" fill="none" stroke="#ff0000" stroke-width="2"/>
<path d="M346,317v 10" fill="none" stroke="#ff0000" stroke-width="2"/>
<path d="M347,318v 10" fill="none" stroke="#ff0000" stroke-width="2"/>
<path d="M348,318v 10" fill="none" stroke="#ff0000" stroke-width="2"/>
<path d="M349,318v 10" fill="none" stroke="#ff0000" stroke-width="2"/>
<path d="M350,318v 10" fill="none" stroke="#ff0000" stroke-width="2"/>
<path d="M351,319v 10" fill="none" stroke="#ff0000" stroke-width="2"/>
<path d="M351,319v 10" fill="none" stroke="#ff0000" stroke-width="2"/>
<path d="M352,319v 10" fill="none" stroke="#ff0000" stroke-width="2"/>
<path d="M353,319v 10" fill="none" stroke="#ff0000" stroke-width="2"/>
<path d="M354,319v 11" fill="none" stroke="#ff0000" stroke-width="2"/>
<path d="M355,320v 10" fill="none" stroke="#ff0000" stroke-width="2"/>
<path d="M355,320v 10" fill="none" stroke="#ff0000" stroke-width="2"/>
<path d="M356,320v 10" fill="none" stroke="#ff0000" stroke-width="2"/>
<path d="M357,320v 10" fill="none" stroke="#ff0000" stroke-width="2"/>
<path d="M358,320v 10" fill="none" stroke="#ff0000" stroke-width="2"/>
<path d="M359,321v 9" fill="none" stroke="#ff0000" stroke-width="2"/>
<path d="M359,321v 9" fill="none" stroke="#ff0000" stroke-width="2"/>
<path d="M360,321v 9" fill="none" stroke="#ff0000" stroke-width="2"/>
<path d="M361,321v 9" fill="none" stroke="#ff0000" stroke-width="2"/>
<path d="M362,321v 9" fill="none" stroke="#ff0000" stroke-width="2"/>
<path d="M363,321v 9" fill="none" stroke="#ff0000" stroke-width="2"/>
<path d="M364,321v 10" fill="none" stroke="#ff0000" stroke-width="2"/>
<path d="M364,321v 10" fill="none" stroke="#ff0000" stroke-width="2"/>
<path d="M365,321v 10" fill="none" stroke="#ff0000" stroke-width="2"/>
<path d="M366,321v 10" fill="none" stroke="#ff0000" stroke-width="2"/>
<path d="M367,321v 10" fill="none" stroke="#ff0000" stroke-width="2"/>
<path d="M368,321v 10" fill="none" stroke="#ff0000" stroke-width="2"/>
<path d="M368,321v 10" fill="none" stroke="#ff0000" stroke-width="2"/>
<path d="M369,321v 10" fill="none" stroke="#ff0000" stroke-width="2"/>
<path d="M370,321v 10" fill="none" stroke="#ff0000" stroke-width="2"/>
<path d="M371,321v 10" fill="none" stroke="#ff0000" stroke-width="2"/>
<path d="M372,321v 11" fill="none" stroke="#ff0000" stroke-width="2"/>
<path d="M372,322v 10" fill="none" stroke="#ff0000" stroke-width="2"/>
<path d="M373,322v 10" fill="none" stroke="#ff0000" stroke-width="2"/>
<path d="M374,322v 10" fill="none" stroke="#ff0000" stroke-width="2"/>
<path d="M375,322v 10" fill="none" stroke="#ff0000" stroke-width="2"/>
<path d="M376,322v 10" fill="none" stroke="#ff0000" stroke-width="2"/>
<path d="M377,322v 10" fill="none" stroke="#ff0000" stroke-width="2"/>
<path d="M377,322v 10" fill="none" stroke="#ff0000" stroke-width="2"/>
<path d="M378,322v 10" fill="none" stroke="#ff0000" stroke-width="2"/>
<path d="M379,322v 10" fill="none" stroke="#ff0000" stroke-width="2"/>
<path d="M380,322v 10" fill="none" stroke="#ff0000" stroke-width="2"/>
<path d="M381,322v 10" fill="none" stroke="#ff0000" stroke-width="2"/>
<path d="M381,322v 11" fill="none" stroke="#ff0000" stroke-width="2"/>
<path d="M382,322v 11" fill="none" stroke="#ff0000" stroke-width="2"/>
<path d="M383,323v 10" fill="none" stroke="#ff0000" stroke-width="2"/>
<path d="M384,323v 10" fill="none" stroke="#ff0000" stroke-width="2"/>
<path d="M385,323v 10" fill="none" stroke="#ff0000" stroke-width="2"/>
<path d="M386,323v 10" fill="none" stroke="#ff0000" stroke-width="2"/>
<path d="M386,323v 10" fill="none" stroke="#ff0000" stroke-width="2"/>
<path d="M387,323v 10" fill="none" stroke="#ff0000" stroke-width="2"/>
<path d="M388,323v 10" fill="none" stroke="#ff0000" stroke-width="2"/>
<path d="M389,323v 10" fill="none" stroke="#ff0000" stroke-width="2"/>
<path d="M390,323v 10" fill="none" stroke="#ff0000" stroke-width="2"/>
<path d="M390,323v 10" fill="none" stroke="#ff0000" stroke-width="2"/>
<path d="M391,323v 10" fill="none" stroke="#ff0000" stroke-width="2"/>
<path d="M392,323v 10" fill="none" stroke="#ff0000" stroke-width="2"/>
<path d="M393,323v 10" fill="none" stroke="#ff0000" stroke-width="2"/>
<path d="M394,323v 10" fill="none" stroke="#ff0000" stroke-width="2"/>
<path d="M394,323v 10" fill="none" stroke="#ff0000" stroke-width="2"/>
<path d="M395,323v 10" fill="none" stroke="#ff0000" stroke-width="2"/>
<path d="M396,323v 10" fill="none" stroke="#ff0000" stroke-width="2"/>
<path d="M397,323v 10" fill="none" stroke="#ff0000" stroke-width="2"/>
<path d="M398,323v 10" fill="none" stroke="#ff0000" stroke-width="2"/>
<path d="M399,323v 11" fill="none" stroke="#ff0000" stroke-width="2"/>
<path d="M399,323v 11" fill="none" stroke="#ff0000" stroke-width="2"/>
<path d="M400,323v 11" fill="none" stroke="#ff0000" stroke-width="2"/>
<path d="M401,323v 11" fill="none" stroke="#ff0000" stroke-width="2"/>
<path d="M402,324v 10" fill="none" stroke="#ff0000" stroke-width="2"/>
<path d="M403,324v 10" fill="none" stroke="#ff0000" stroke-width="2"/>
<path d="M403,324v 10" fill="none" stroke="#ff0000" stroke-width="2"/>
<path d="M404,324v 10" fill="none" stroke="#ff0000" stroke-width="2"/>
<path d="M405,324v 10" fill="none" stroke="#ff0000" stroke-width="2"/>
<path d="M406,324v 10" fill="none" stroke="#ff0000" stroke-width="2"/>
<path d="M407,324v 10" fill="none" stroke="#ff0000" stroke-width="2"/>
<path d="M408,324v 10" fill="none" stroke="#ff0000" stroke-width="2"/>
<path d="M408,324v 10" fill="none" stroke="#ff0000" stroke-width="2"/>
<path d="M409,324v 10" fill="none" stroke="#ff0000" stroke-width="2"/>
<path d="M410,324v 10" fill="none" stroke="#ff0000" stroke-width="2"/>
<path d="M411,324v 10" fill="none" stroke="#ff0000" stroke-width="2"/>
<path d="M412,324v 10" fill="none" stroke="#ff0000" stroke-width="2"/>
<path d="M412,324v 10" fill="none" stroke="#ff0000" stroke-width="2"/>
<path d="M413,324v 10" fill="none" stroke="#ff0000" stroke-width="2"/>
<path d="M414,324v 10" fill="none" stroke="#ff0000" stroke-width="2"/>
<path d="M415,324v 10" fill="none" stroke="#ff0000" stroke-width="2"/>
<path d="M416,324v 10" fill="none" stroke="#ff0000" stroke-width="2"/>
<path d="M416,324v 10" fill="none" stroke="#ff0000" stroke-width="2"/>
<path d="M417,324v 10" fill="none" stroke="#ff0000" stroke-width="2"/>
<path d="M418,324v 10" fill="none" stroke="#ff0000" stroke-width="2"/>
<path d="M419,324v 10" fill="none" stroke="#ff0000" stroke-width="2"/>
<path d="M420,324v 10" fill="none" stroke="#ff0000" stroke-width="2"/>
<path d="M421,324v 10" fill="none" stroke="#ff0000" stroke-width="2"/>
<path d="M421,324v 10" fill="none" stroke="#ff0000" stroke-width="2"/>
<path d="M422,324v 10" fill="none" stroke="#ff0000" stroke-width="2"/>
<path d="M423,324v 10" fill="none" stroke="#ff0000" stroke-width="2"/>
<path d="M424,324v 10" fill="none" stroke="#ff0000" stroke-width="2"/>
<path d="M425,324v 10" fill="none" stroke="#ff0000" stroke-width="2"/>
<path d="M425,324v 10" fill="none" stroke="#ff0000" stroke-width="2"/>
<path d="M426,324v 10" fill="none" stroke="#ff0000" stroke-width="2"/>
<path d="M427,324v 10" fill="none" stroke="#ff0000" stroke-width="2"/>
<path d="M428,324v 10" fill="none" stroke="#ff0000" stroke-width="2"/>
<path d="M429,324v 10" fill="none" stroke="#ff0000" stroke-width="2"/>
<path d="M430,324v 10" fill="none" stroke="#ff0000" stroke-width="2"/>
<path d="M430,324v 10" fill="none" stroke="#ff0000" stroke-width="2"/>
<path d="M431,324v 10" fill="none" stroke="#ff0000" stroke-width="2"/>
<path d="M432,324v 10" fill="none" stroke="#ff0000" stroke-width="2"/>
<path d="M433,324v 10" fill="none" stroke="#ff0000" stroke-width="2"/>
<path d="M434,324v 10" fill="none" stroke="#ff0000" stroke-width="2"/>
<path d="M434,324v 10" fill="none" stroke="#ff0000" stroke-width="2"/>
<path d="M435,324v 10" fill="none" stroke="#ff0000" stroke-width="2"/>
<path d="M436,324v 10" fill="none" stroke="#ff0000" stroke-width="2"/>
<path d="M437,324v 10" fill="none" stroke="#ff0000" stroke-width="2"/>
<path d="M438,324v 10" fill="none" stroke="#ff0000" stroke-width="2"/>
<path d="M438,324v 10" fill="none" stroke="#ff0000" stroke-width="2"/>
<path d="M439,324v 10" fill="none" stroke="#ff0000" stroke-width="2"/>
<path d="M440,324v 10" fill="none" stroke="#ff0000" stroke-width="2"/>
<path d="M441,324v 10" fill="none" stroke="#ff0000" stroke-width="2"/>
<path d="M442,324v 10" fill="none" stroke="#ff0000" stroke-width="2"/>
<path d="M443,324v 10" fill="none" stroke="#ff0000" stroke-width="2"/>
<path d="M443,324v 10" fill="none" stroke="#ff0000" stroke-width="2"/>
<path d="M444,324v 10" fill="none" stroke="#ff0000" stroke-width="2"/>
<path d="M445,324v 10" fill="none" stroke="#ff0000" stroke-width="2"/>
<path d="M446,324v 10" fill="none" stroke="#ff0000" stroke-width="2"/>
<path d="M447,324v 10" fill="none" stroke="#ff0000" stroke-width="2"/>
<path d="M447,324v 10" fill="none" stroke="#ff0000" stroke-width="2"/>
<path d="M448,324v 10" fill="none" stroke="#ff0000" stroke-width="2"/>
<path d="M449,324v 10" fill="none" stroke="#ff0000" stroke-width="2"/>
<path d="M450,324v 10" fill="none" stroke="#ff0000" stroke-width="2"/>
<path d="M451,324v 10" fill="none" stroke="#ff0000" stroke-width="2"/>
<path d="M452,324v 10" fill="none" stroke="#ff0000" stroke-width="2"/>
<path d="M452,324v 10" fill="none" stroke="#ff0000" stroke-width="2"/>
<path d="M453,324v 10" fill="none" stroke="#ff0000" stroke-width="2"/>
<path d="M454,324v 10" fill="none" stroke="#ff0000" stroke-width="2"/>
<path d="M455,324v 10" fill="none" stroke="#ff0000" stroke-width="2"/>
<path d="M456,324v 10" fill="none" stroke="#ff0000" stroke-width="2"/>
<path d="M456,324v 10" fill="none" stroke="#ff0000" stroke-width="2"/>
<path d="M457,324v 10" fill="none" stroke="#ff0000" stroke-width="2"/>
<path d="M458,324v 10" fill="none" stroke="#ff0000" stroke-width="2"/>
<path d="M459,324v 10" fill="none" stroke="#ff0000" stroke-width="2"/>
<path d="M460,324v 10" fill="none" stroke="#ff0000" stroke-width="2"/>
<path d="M460,324v 10" fill="none" stroke="#ff0000" stroke-width="2"/>
<path d="M461,324v 10" fill="none" stroke="#ff0000" stroke-width="2"/>
<path d="M462,324v 10" fill="none" stroke="#ff0000" stroke-width="2"/>
<path d="M463,324v 10" fill="none" stroke="#ff0000" stroke-width="2"/>
<path d="M464,324v 10" fill="none" stroke="#ff0000" stroke-width="2"/>
<path d="M465,324v 10" fill="none" stroke="#ff0000" stroke-width="2"/>
<path d="M465,324v 10" fill="none" stroke="#ff0000" stroke-width="2"/>
<path d="M466,324v 10" fill="none" stroke="#ff0000" stroke-width="2"/>
<path d="M467,324v 10" fill="none" stroke="#ff0000" stroke-width="2"/>
<path d="M468,324v 10" fill="none" stroke="#ff0000" stroke-width="2"/>
<path d="M469,324v 10" fill="none" stroke="#ff0000" stroke-width="2"/>
<path d="M469,324v 10" fill="none" stroke="#ff0000" stroke-width="2"/>
<path d="M470,324v 10" fill="none" stroke="#ff0000" stroke-width="2"/>
<path d="M471,324v 10" fill="none" stroke="#ff0000" stroke-width="2"/>
<path d="M472,324v 10" fill="none" stroke="#ff0000" stroke-width="2"/>
<path d="M473,324v 10" fill="none" stroke="#ff0000" stroke-width="2"/>
<path d="M473,324v 10" fill="none" stroke="#ff0000" stroke-width="2"/>
<path d="M474,324v 10" fill="none" stroke="#ff0000" stroke-width="2"/>
<path d="M475,324v 10" fill="none" stroke="#ff0000" stroke-width="2"/>
<path d="M476,324v 10" fill="none" stroke="#ff0000" stroke-width="2"/>
<path d="M477,324v 10" fill="none" stroke="#ff0000" stroke-width="2"/>
<path d="M478,324v 10" fill="none" stroke="#ff0000" stroke-width="2"/>
<path d="M478,324v 10" fill="none" stroke="#ff0000" stroke-width="2"/>
<path d="M479,324v 10" fill="none" stroke="#ff0000" stroke-width="2"/>
<path d="M480,324v 10" fill="none" stroke="#ff0000" stroke-width="2"/>
<path d="M481,324v 10" fill="none" stroke="#ff0000" stroke-width="2"/>
<path d="M482,324v 10" fill="none" stroke="#ff0000" stroke-width="2"/>
<path d="M482,324v 10" fill="none" stroke="#ff0000" stroke-width="2"/>
<path d="M483,324v 10" fill="none" stroke="#ff0000" stroke-width="2"/>
<path d="M484,324v 10" fill="none" stroke="#ff0000" stroke-width="2"/>
<path d="M485,324v 10" fill="none" stroke="#ff0000" stroke-width="2"/>
<path d="M486,324v 10" fill="none" stroke="#ff0000" stroke-width="2"/>
<path d="M487,324v 10" fill="none" stroke="#ff0000" stroke-width="2"/>
<path d="M487,324v 10" fill="none" stroke="#ff0000" stroke-width="2"/>
<path d="M488,324v 10" fill="none" stroke="#ff0000" stroke-width="2"/>
<path d="M489,324v 10" fill="none" stroke="#ff0000" stroke-width="2"/>
<path d="M490,324v 10" fill="none" stroke="#ff0000" stroke-width="2"/>
<path d="M491,324v 10" fill="none" stroke="#ff0000" stroke-width="2"/>
<path d="M491,324v 10" fill="none" stroke="#ff0000" stroke-width="2"/>
<path d="M492,324v 10" fill="none" stroke="#ff0000" stroke-width="2"/>
<path d="M493,324v 10" fill="none" stroke="#ff0000" stroke-width="2"/>
<path d="M494,324v 10" fill="none" stroke="#ff0000" stroke-width="2"/>
<path d="M495,324v 10" fill="none" stroke="#ff0000" stroke-width="2"/>
<path d="M495,324v 10" fill="none" stroke="#ff0000" stroke-width="2"/>
<path d="M496,324v 10" fill="none" stroke="#ff0000" stroke-width="2"/>
<path d="M497,324v 10" fill="none" stroke="#ff0000" stroke-width="2"/>
<path d="M498,324v 10" fill="none" stroke="#ff0000" stroke-width="2"/>
<path d="M499,324v 10" fill="none" stroke="#ff0000" stroke-width="2"/>
<path d="M500,324v 10" fill="none" stroke="#ff0000" stroke-width="2"/>
<path d="M500,324v 10" fill="none" stroke="#ff0000" stroke-width="2"/>
<path d="M501,324v 10" fill="none" stroke="#ff0000" stroke-width="2"/>
<path d="M502,324v 10" fill="none" stroke="#ff0000" stroke-width="2"/>
<path d="M503,324v 10" fill="none" stroke="#ff0000" stroke-width="2"/>
<path d="M504,324v 10" fill="none" stroke="#ff0000" stroke-width="2"/>
<path d="M504,324v 10" fill="none" stroke="#ff0000" stroke-width="2"/>
<path d="M505,324v 10" fill="none" stroke="#ff0000" stroke-width="2"/>
<path d="M506,324v 10" fill="none" stroke="#ff0000" stroke-width="2"/>
<path d="M507,324v 10" fill="none" stroke="#ff0000" stroke-width="2"/>
<path d="M508,324v 10" fill="none" stroke="#ff0000" stroke-width="2"/>
<path d="M509,324v 10" fill="none" stroke="#ff0000" stroke-width="2"/>
<path d="M509,324v 10" fill="none" stroke="#ff0000" stroke-width="2"/>
<path d="M510,330v 4" fill="none" stroke="#ff0000" stroke-width="2"/>
<path d="M284,170l 1, 50v 31l 1, 5l 1, 2l 1, 2l 1, 2v 3l 1, 2l 1, 2l 1, 1l 1, 3v 1l 1, 2l 1, 1l 1, 2l 1, 2l 1, 1v 2l 1, 1l 1, 1l 1, 2l 1, 2v 1l 1, 1l 1, 1l 1, 2h 1l 1, 1v 1l 1, 2h 1l 1, 1l 1, 1v 1l 1, 2h 1l 1, 1h 1v 1l 1, 1l 1, 1h 1l 1, 1h 1v 1l 1,
 1l 1, 1h 1l 1, 1l 1, 1h 1l 1, 1h 1l 1, 1l 1, 1h 3v 1h 1l 1, 1h 2v 1h 1l 1, 1h 4l 1, 1h 2l 1, 1h 3l 1, 1h 3l 1, 1h 3l 1, 1h 13v 1h 10l 1, 1h 18l 1, 1h 107l 1, 3" fill="none" stroke="#ff0000" stroke-width="2"/>
<path d="M57,346h 453" fill="none" stroke="black"/>
<text x="419" y="372" fill="black" font-size="12" font-family="Helvetica">
TDC-TDC0 (ns)
</text>
<path d="M57,337v 9" fill="none" stroke="black"/>
<path d="M68,342v 4" fill="none" stroke="black"/>
<path d="M79,342v 4" fill="none" stroke="black"/>
<path d="M91,342v 4" fill="none" stroke="black"/>
<path d="M102,342v 4" fill="none" stroke="black"/>
<path d="M113,337v 9" fill="none" stroke="black"/>
<path d="M125,342v 4" fill="none" stroke="black"/>
<path d="M136,342v 4" fill="none" stroke="black"/>
<path d="M147,342v 4" fill="none" stroke="black"/>
<path d="M159,342v 4" fill="none" stroke="black"/>
<path d="M170,337v 9" fill="none" stroke="black"/>
<path d="M181,342v 4" fill="none" stroke="black"/>
<path d="M193,342v 4" fill="none" stroke="black"/>
<path d="M204,342v 4" fill="none" stroke="black"/>
<path d="M215,342v 4" fill="none" stroke="black"/>
<path d="M227,337v 9" fill="none" stroke="black"/>
<path d="M238,342v 4" fill="none" stroke="black"/>
<path d="M249,342v 4" fill="none" stroke="black"/>
<path d="M261,342v 4" fill="none" stroke="black"/>
<path d="M272,342v 4" fill="none" stroke="black"/>
<path d="M283,337v 9" fill="none" stroke="black"/>
<path d="M295,342v 4" fill="none" stroke="black"/>
<path d="M306,342v 4" fill="none" stroke="black"/>
<path d="M317,342v 4" fill="none" stroke="black"/>
<path d="M329,342v 4" fill="none" stroke="black"/>
<path d="M340,337v 9" fill="none" stroke="black"/>
<path d="M351,342v 4" fill="none" stroke="black"/>
<path d="M363,342v 4" fill="none" stroke="black"/>
<path d="M374,342v 4" fill="none" stroke="black"/>
<path d="M386,342v 4" fill="none" stroke="black"/>
<path d="M397,337v 9" fill="none" stroke="black"/>
<path d="M408,342v 4" fill="none" stroke="black"/>
<path d="M420,342v 4" fill="none" stroke="black"/>
<path d="M431,342v 4" fill="none" stroke="black"/>
<path d="M442,342v 4" fill="none" stroke="black"/>
<path d="M454,337v 9" fill="none" stroke="black"/>
<path d="M465,342v 4" fill="none" stroke="black"/>
<path d="M476,342v 4" fill="none" stroke="black"/>
<path d="M488,342v 4" fill="none" stroke="black"/>
<path d="M499,342v 4" fill="none" stroke="black"/>
<path d="M510,337v 9" fill="none" stroke="black"/>
<text x="36" y="359" fill="black" font-size="12" font-family="Helvetica">
-20000
</text>
<text x="93" y="359" fill="black" font-size="12" font-family="Helvetica">
-15000
</text>
<text x="149" y="359" fill="black" font-size="12" font-family="Helvetica">
-10000
</text>
<text x="210" y="359" fill="black" font-size="12" font-family="Helvetica">
-5000
</text>
<text x="280" y="359" fill="black" font-size="12" font-family="Helvetica">
0
</text>
<text x="325" y="359" fill="black" font-size="12" font-family="Helvetica">
5000
</text>
<text x="379" y="359" fill="black" font-size="12" font-family="Helvetica">
10000
</text>
<text x="435" y="359" fill="black" font-size="12" font-family="Helvetica">
15000
</text>
<text x="492" y="359" fill="black" font-size="12" font-family="Helvetica">
20000
</text>
<path d="M57,346v -308" fill="none" stroke="black"/>
<g transform="rotate(-90,29,72)">
<text x="29" y="72" fill="black" font-size="12" font-family="Helvetica">
Count
</text>
</g>
<path d="M70,346h -13" fill="none" stroke="black"/>
<path d="M63,335h -6" fill="none" stroke="black"/>
<path d="M63,323h -6" fill="none" stroke="black"/>
<path d="M63,312h -6" fill="none" stroke="black"/>
<path d="M70,300h -13" fill="none" stroke="black"/>
<path d="M63,289h -6" fill="none" stroke="black"/>
<path d="M63,277h -6" fill="none" stroke="black"/>
<path d="M63,266h -6" fill="none" stroke="black"/>
<path d="M70,254h -13" fill="none" stroke="black"/>
<path d="M63,243h -6" fill="none" stroke="black"/>
<path d="M63,231h -6" fill="none" stroke="black"/>
<path d="M63,220h -6" fill="none" stroke="black"/>
<path d="M70,208h -13" fill="none" stroke="black"/>
<path d="M63,197h -6" fill="none" stroke="black"/>
<path d="M63,185h -6" fill="none" stroke="black"/>
<path d="M63,174h -6" fill="none" stroke="black"/>
<path d="M70,162h -13" fill="none" stroke="black"/>
<path d="M63,151h -6" fill="none" stroke="black"/>
<path d="M63,139h -6" fill="none" stroke="black"/>
<path d="M63,128h -6" fill="none" stroke="black"/>
<path d="M70,116h -13" fill="none" stroke="black"/>
<path d="M63,105h -6" fill="none" stroke="black"/>
<path d="M63,93h -6" fill="none" stroke="black"/>
<path d="M63,82h -6" fill="none" stroke="black"/>
<path d="M70,70h -13" fill="none" stroke="black"/>
<path d="M70,70h -13" fill="none" stroke="black"/>
<path d="M63,59h -6" fill="none" stroke="black"/>
<path d="M63,47h -6" fill="none" stroke="black"/>
<text x="47" y="350" fill="black" font-size="12" font-family="Helvetica">
0
</text>
<text x="33" y="304" fill="black" font-size="12" font-family="Helvetica">
200
</text>
<text x="33" y="258" fill="black" font-size="12" font-family="Helvetica">
400
</text>
<text x="33" y="212" fill="black" font-size="12" font-family="Helvetica">
600
</text>
<text x="33" y="166" fill="black" font-size="12" font-family="Helvetica">
800
</text>
<text x="25" y="120" fill="black" font-size="12" font-family="Helvetica">
1000
</text>
<text x="25" y="74" fill="black" font-size="12" font-family="Helvetica">
1200
</text>
<rect x="442" y="25" width="114" height="46" fill="white"/>
<path d="M442,71h 114" fill="none" stroke="black"/>
<path d="M556,71v -46" fill="none" stroke="black"/>
<path d="M556,25h -114" fill="none" stroke="black"/>
<path d="M442,25v 46" fill="none" stroke="black"/>
<text x="447" y="28" fill="black" font-size="4" font-family="Helvetica">
Entries 
</text>
<text x="535" y="28" fill="black" font-size="4" font-family="Helvetica">
 224251
</text>
<text x="450" y="34" fill="black" font-size="4" font-family="Helvetica">
 / ndf 
</text>
<text x="449" y="30" fill="black" font-size="3" font-family="Helvetica">
2
</text>
<text x="447" y="34" fill="black" font-size="4" font-family="Times">
&#0967;
</text>
<text x="526" y="33" fill="black" font-size="4" font-family="Helvetica">
  1274 / 1239
</text>
<text x="452" y="36" fill="black" font-size="4" font-family="Helvetica">
   
</text>
<text x="450" y="39" fill="black" font-size="3" font-family="Helvetica">
cu
</text>
<text x="447" y="36" fill="black" font-size="4" font-family="Helvetica">
N
</text>
<text x="539" y="38" fill="black" font-size="4" font-family="Helvetica">
 294.8
</text>
<text x="537" y="38" fill="black" font-size="4" font-family="Times">
&#0177;
</text>
<text x="525" y="38" fill="black" font-size="4" font-family="Helvetica">
  2552 
</text>
<text x="450" y="41" fill="black" font-size="4" font-family="Helvetica">
 
</text>
<text x="448" y="45" fill="black" font-size="3" font-family="Helvetica">
cu
</text>
<text x="447" y="41" fill="black" font-size="4" font-family="Times">
&#0964;
</text>
<text x="541" y="43" fill="black" font-size="4" font-family="Helvetica">
 0.75
</text>
<text x="538" y="43" fill="black" font-size="4" font-family="Times">
&#0177;
</text>
<text x="526" y="43" fill="black" font-size="4" font-family="Helvetica">
 29.37 
</text>
<text x="450" y="45" fill="black" font-size="4" font-family="Helvetica">
    
</text>
<text x="450" y="49" fill="black" font-size="3" font-family="Helvetica">
f
</text>
<text x="447" y="45" fill="black" font-size="4" font-family="Helvetica">
N
</text>
<text x="543" y="48" fill="black" font-size="4" font-family="Helvetica">
 2.3
</text>
<text x="541" y="48" fill="black" font-size="4" font-family="Times">
&#0177;
</text>
<text x="529" y="48" fill="black" font-size="4" font-family="Helvetica">
 357.8 
</text>
<text x="448" y="50" fill="black" font-size="4" font-family="Helvetica">
 
</text>
<text x="448" y="53" fill="black" font-size="3" font-family="Helvetica">
f
</text>
<text x="447" y="50" fill="black" font-size="4" font-family="Times">
&#0964;
</text>
<text x="543" y="52" fill="black" font-size="4" font-family="Helvetica">
 0.0
</text>
<text x="541" y="52" fill="black" font-size="4" font-family="Times">
&#0177;
</text>
<text x="529" y="52" fill="black" font-size="4" font-family="Helvetica">
  2197 
</text>
<text x="452" y="54" fill="black" font-size="4" font-family="Helvetica">
  
</text>
<text x="450" y="58" fill="black" font-size="3" font-family="Helvetica">
sin
</text>
<text x="447" y="54" fill="black" font-size="4" font-family="Helvetica">
N
</text>
<text x="541" y="57" fill="black" font-size="4" font-family="Helvetica">
 0.43
</text>
<text x="538" y="57" fill="black" font-size="4" font-family="Times">
&#0177;
</text>
<text x="526" y="57" fill="black" font-size="4" font-family="Helvetica">
 21.51 
</text>
<text x="448" y="62" fill="black" font-size="4" font-family="Helvetica">
     
</text>
<text x="447" y="62" fill="black" font-size="4" font-family="Times">
&#0966;
</text>
<text x="531" y="62" fill="black" font-size="4" font-family="Helvetica">
 3.920e-02
</text>
<text x="529" y="62" fill="black" font-size="4" font-family="Times">
&#0177;
</text>
<text x="508" y="62" fill="black" font-size="4" font-family="Helvetica">
 4.763e-13 
</text>
<text x="447" y="65" fill="black" font-size="4" font-family="Helvetica">
T        
</text>
<text x="541" y="66" fill="black" font-size="4" font-family="Helvetica">
 0.00
</text>
<text x="538" y="66" fill="black" font-size="4" font-family="Times">
&#0177;
</text>
<text x="526" y="66" fill="black" font-size="4" font-family="Helvetica">
 59.35 
</text>
<text x="450" y="68" fill="black" font-size="4" font-family="Helvetica">
    
</text>
<text x="450" y="71" fill="black" font-size="3" font-family="Helvetica">
b
</text>
<text x="447" y="68" fill="black" font-size="4" font-family="Helvetica">
N
</text>
<text x="543" y="71" fill="black" font-size="4" font-family="Helvetica">
 0.3
</text>
<text x="541" y="71" fill="black" font-size="4" font-family="Times">
&#0177;
</text>
<text x="530" y="71" fill="black" font-size="4" font-family="Helvetica">
  73.5 
</text>
<text x="270" y="21" fill="black" font-size="21" font-family="Helvetica">
D1
</text></svg>
