<?xml version="1.0" standalone="no"?>
<svg width="567" height="384" viewBox="0 0 567 384" xmlns="http://www.w3.org/2000/svg">
<title>
images/analysis_g4bl_sin_phase_exec_d4_d5_tight/zoom/1mm_Aluminium_1mm_Aluminium_combined_1mm_Aluminium.svg
</title>
<desc>
Creator: ROOT Version 5.34/09
CreationDate: Thu Sep 12 21:49:36 2013</desc>
<defs>
</defs>
<rect x="0" y="0" width="567" height="384" fill="white"/>
<rect x="57" y="38" width="453" height="308" fill="white"/>
<rect x="57" y="38" width="453" height="308" fill="none" stroke="black"/>
<rect x="57" y="38" width="453" height="308" fill="white"/>
<rect x="57" y="38" width="453" height="308" fill="none" stroke="black"/>
<path d="M57,346h 259v -93h 32v -200h 33v 92h 32v -22h 32v 41h 33v -67h 32" fill="none" stroke="#000099"/>
<rect x="442" y="25" width="114" height="46" fill="white"/>
<path d="M442,71h 114" fill="none" stroke="black"/>
<path d="M556,71v -46" fill="none" stroke="black"/>
<path d="M556,25h -114" fill="none" stroke="black"/>
<path d="M442,25v 46" fill="none" stroke="black"/>
<text x="447" y="53" fill="black" font-size="15" font-family="Helvetica">
Entries 
</text>
<text x="512" y="53" fill="black" font-size="15" font-family="Helvetica">
 4448
</text>
<path d="M57,346h 453" fill="none" stroke="black"/>
<text x="425" y="371" fill="black" font-size="12" font-family="Helvetica">
TDC-TDC0 (ns)
</text>
<path d="M81,336v 10" fill="none" stroke="black"/>
<path d="M91,341v 5" fill="none" stroke="black"/>
<path d="M101,341v 5" fill="none" stroke="black"/>
<path d="M111,341v 5" fill="none" stroke="black"/>
<path d="M121,341v 5" fill="none" stroke="black"/>
<path d="M132,336v 10" fill="none" stroke="black"/>
<path d="M142,341v 5" fill="none" stroke="black"/>
<path d="M152,341v 5" fill="none" stroke="black"/>
<path d="M162,341v 5" fill="none" stroke="black"/>
<path d="M172,341v 5" fill="none" stroke="black"/>
<path d="M182,336v 10" fill="none" stroke="black"/>
<path d="M192,341v 5" fill="none" stroke="black"/>
<path d="M202,341v 5" fill="none" stroke="black"/>
<path d="M213,341v 5" fill="none" stroke="black"/>
<path d="M223,341v 5" fill="none" stroke="black"/>
<path d="M233,336v 10" fill="none" stroke="black"/>
<path d="M243,341v 5" fill="none" stroke="black"/>
<path d="M253,341v 5" fill="none" stroke="black"/>
<path d="M263,341v 5" fill="none" stroke="black"/>
<path d="M273,341v 5" fill="none" stroke="black"/>
<path d="M283,336v 10" fill="none" stroke="black"/>
<path d="M294,341v 5" fill="none" stroke="black"/>
<path d="M304,341v 5" fill="none" stroke="black"/>
<path d="M314,341v 5" fill="none" stroke="black"/>
<path d="M324,341v 5" fill="none" stroke="black"/>
<path d="M334,336v 10" fill="none" stroke="black"/>
<path d="M344,341v 5" fill="none" stroke="black"/>
<path d="M354,341v 5" fill="none" stroke="black"/>
<path d="M364,341v 5" fill="none" stroke="black"/>
<path d="M375,341v 5" fill="none" stroke="black"/>
<path d="M385,336v 10" fill="none" stroke="black"/>
<path d="M395,341v 5" fill="none" stroke="black"/>
<path d="M405,341v 5" fill="none" stroke="black"/>
<path d="M415,341v 5" fill="none" stroke="black"/>
<path d="M425,341v 5" fill="none" stroke="black"/>
<path d="M435,336v 10" fill="none" stroke="black"/>
<path d="M445,341v 5" fill="none" stroke="black"/>
<path d="M456,341v 5" fill="none" stroke="black"/>
<path d="M466,341v 5" fill="none" stroke="black"/>
<path d="M476,341v 5" fill="none" stroke="black"/>
<path d="M486,336v 10" fill="none" stroke="black"/>
<path d="M81,336v 10" fill="none" stroke="black"/>
<path d="M71,341v 5" fill="none" stroke="black"/>
<path d="M61,341v 5" fill="none" stroke="black"/>
<path d="M486,336v 10" fill="none" stroke="black"/>
<path d="M496,341v 5" fill="none" stroke="black"/>
<path d="M506,341v 5" fill="none" stroke="black"/>
<text x="68" y="358" fill="black" font-size="12" font-family="Helvetica">
-200
</text>
<text x="119" y="358" fill="black" font-size="12" font-family="Helvetica">
-150
</text>
<text x="169" y="358" fill="black" font-size="12" font-family="Helvetica">
-100
</text>
<text x="223" y="358" fill="black" font-size="12" font-family="Helvetica">
-50
</text>
<text x="280" y="358" fill="black" font-size="12" font-family="Helvetica">
0
</text>
<text x="327" y="358" fill="black" font-size="12" font-family="Helvetica">
50
</text>
<text x="374" y="358" fill="black" font-size="12" font-family="Helvetica">
100
</text>
<text x="424" y="358" fill="black" font-size="12" font-family="Helvetica">
150
</text>
<text x="475" y="358" fill="black" font-size="12" font-family="Helvetica">
200
</text>
<path d="M57,346v -308" fill="none" stroke="black"/>
<g transform="rotate(-90,29,70)">
<text x="29" y="70" fill="black" font-size="12" font-family="Helvetica">
Count
</text>
</g>
<path d="M70,346h -13" fill="none" stroke="black"/>
<path d="M63,338h -6" fill="none" stroke="black"/>
<path d="M63,331h -6" fill="none" stroke="black"/>
<path d="M63,323h -6" fill="none" stroke="black"/>
<path d="M63,316h -6" fill="none" stroke="black"/>
<path d="M70,308h -13" fill="none" stroke="black"/>
<path d="M63,301h -6" fill="none" stroke="black"/>
<path d="M63,294h -6" fill="none" stroke="black"/>
<path d="M63,286h -6" fill="none" stroke="black"/>
<path d="M63,279h -6" fill="none" stroke="black"/>
<path d="M70,271h -13" fill="none" stroke="black"/>
<path d="M63,264h -6" fill="none" stroke="black"/>
<path d="M63,257h -6" fill="none" stroke="black"/>
<path d="M63,249h -6" fill="none" stroke="black"/>
<path d="M63,242h -6" fill="none" stroke="black"/>
<path d="M70,234h -13" fill="none" stroke="black"/>
<path d="M63,227h -6" fill="none" stroke="black"/>
<path d="M63,219h -6" fill="none" stroke="black"/>
<path d="M63,212h -6" fill="none" stroke="black"/>
<path d="M63,205h -6" fill="none" stroke="black"/>
<path d="M70,197h -13" fill="none" stroke="black"/>
<path d="M63,190h -6" fill="none" stroke="black"/>
<path d="M63,182h -6" fill="none" stroke="black"/>
<path d="M63,175h -6" fill="none" stroke="black"/>
<path d="M63,168h -6" fill="none" stroke="black"/>
<path d="M70,160h -13" fill="none" stroke="black"/>
<path d="M63,153h -6" fill="none" stroke="black"/>
<path d="M63,145h -6" fill="none" stroke="black"/>
<path d="M63,138h -6" fill="none" stroke="black"/>
<path d="M63,130h -6" fill="none" stroke="black"/>
<path d="M70,123h -13" fill="none" stroke="black"/>
<path d="M63,116h -6" fill="none" stroke="black"/>
<path d="M63,108h -6" fill="none" stroke="black"/>
<path d="M63,101h -6" fill="none" stroke="black"/>
<path d="M63,93h -6" fill="none" stroke="black"/>
<path d="M70,86h -13" fill="none" stroke="black"/>
<path d="M63,79h -6" fill="none" stroke="black"/>
<path d="M63,71h -6" fill="none" stroke="black"/>
<path d="M63,64h -6" fill="none" stroke="black"/>
<path d="M63,56h -6" fill="none" stroke="black"/>
<path d="M70,49h -13" fill="none" stroke="black"/>
<path d="M70,49h -13" fill="none" stroke="black"/>
<path d="M63,42h -6" fill="none" stroke="black"/>
<text x="47" y="350" fill="black" font-size="12" font-family="Helvetica">
0
</text>
<text x="41" y="313" fill="black" font-size="12" font-family="Helvetica">
10
</text>
<text x="41" y="276" fill="black" font-size="12" font-family="Helvetica">
20
</text>
<text x="41" y="239" fill="black" font-size="12" font-family="Helvetica">
30
</text>
<text x="41" y="202" fill="black" font-size="12" font-family="Helvetica">
40
</text>
<text x="41" y="165" fill="black" font-size="12" font-family="Helvetica">
50
</text>
<text x="41" y="127" fill="black" font-size="12" font-family="Helvetica">
60
</text>
<text x="41" y="91" fill="black" font-size="12" font-family="Helvetica">
70
</text>
<text x="41" y="53" fill="black" font-size="12" font-family="Helvetica">
80
</text>
<rect x="442" y="25" width="114" height="46" fill="white"/>
<path d="M442,71h 114" fill="none" stroke="black"/>
<path d="M556,71v -46" fill="none" stroke="black"/>
<path d="M556,25h -114" fill="none" stroke="black"/>
<path d="M442,25v 46" fill="none" stroke="black"/>
<text x="447" y="53" fill="black" font-size="15" font-family="Helvetica">
Entries 
</text>
<text x="512" y="53" fill="black" font-size="15" font-family="Helvetica">
 4448
</text>
<text x="102" y="18" fill="black" font-size="18" font-family="Helvetica">
1mm_Aluminium_combined_1mm_Aluminium
</text></svg>
