<?xml version="1.0" standalone="no"?>
<svg width="567" height="385" viewBox="0 0 567 385" xmlns="http://www.w3.org/2000/svg">
<title>
images/analysis_phase_tight/458_D1.svg
</title>
<desc>
Creator: ROOT Version 5.34/05
CreationDate: Mon Jun 10 21:46:10 2013</desc>
<defs>
</defs>
<rect x="0" y="0" width="567" height="385" fill="white"/>
<rect x="57" y="38" width="453" height="308" fill="white"/>
<rect x="57" y="38" width="453" height="308" fill="none" stroke="black"/>
<rect x="57" y="38" width="453" height="308" fill="white"/>
<rect x="57" y="38" width="453" height="308" fill="none" stroke="black"/>
<path d="M57,346h 43v -2h 1v 2v -5v 1h 1v -2v 3v -11h 1v -1v 3v -7v 8v -8h 1v -3v 9v -8v 2h 1v 4v -8v 9v -13h 1v -2v 12v -11h 1v 16v -13v 12v -7h 1v -4v 9v -10h 1v 11v -11v 9v -2h 1v -14v 15v -11h 1v 8v -2v 5h 1v -8v 11v -13h 1v 11v -14v 17h 1v -13v
 13v -12h 1v 7v -6v 9v -4h 1v -6v 11v -14h 1v 11v -7v 9h 1v -11v 15v -17h 1v 11v -9v 14h 1v -16v 14v -11h 1v 11v -12v 10h 1v -12v 14v -11h 1v 11v -11v 6h 1v -9v 16v -10h 1v -1v 9v -11v 10h 1v -13v 15v -10h 1v -2v 9v -8v 5h 1v 3v -6v 10v -11h 1v -1v
 5v -6v 8h 1v -8v 10v -4h 1v -6v 13v -14v 9h 1v -12v 14h 1v -11v 9v -11v 9h 1v 5v -14v 10h 1v -6v 8v -8v 2h 1v 9v -11v 13h 1v -14v 9v -6v 4h 1v 1v -5v 5h 1v -11v 12v -13v 6h 1v 7v -7v 12h 1v -13v 9v -9h 1v 9v -6v 7h 1v -14v 14v -11v 3h 1v 3v -9v 14h
 1v -15v 16v -14h 1v 12v -7v 6v -1h 1v -17v 17v -14h 1v 15v -13v 14v -6h 1v -6v 13v -11h 1v 7v -10v 15v -5h 1v -8v 10v -10h 1v 8v -10v 13h 1v -11v 12v -9h 1v 7v -10v 13h 1v -13v 12v -10h 1v 6v -12v 20h 1v -16v 8v -6h 1v -6v 14v -10v 16h 1v -18v 15v
 -6h 1v -7v 11v -9v 6h 1v 1v -8v 8v -2h 1v -6v 8v -11v 12h 1v -12v 12v -6h 1v -2v 13v -15v 10h 1v -11v 12v -11h 1v 12v -13v 4h 1v 5v -5v 9v -4h 1v -12v 21v -17v 6h 1v 5v -10v 8h 1v -9v 10v -7v 2h 1v 7v -14v 9h 1v -6v 8v -8v 4h 1v 8v -11v 8v -1h 1v
 -11v 12v -11v 4h 1v 7v -13v 16h 1v -12v 10v -15h 1v 16v -16v 16h 1v -15v 14v -6h 1v 5v -9v 13h 1v -14v 13v -15h 1v 8v -4v 8h 1v 1v -7v 8v -12h 1v 10v -11v 12h 1v -16v 17v -12h 1v 12v -9v 8h 1v -6v 8v -12h 1v 14v -14v 12h 1v -13v 7v -4h 1v 10v -10v
 4h 1v -2v 5v -7h 1v 8v -9v 7h 1v -8v 11v -10h 1v -5v 14v -15v 16h 1v -13v 11v -3h 1v -5v 8v -8v 13h 1v -16v 14v -10h 1v -3v 13v -13v 9h 1v -8v 10v -11h 1v 10v -8v 9h 1v -10v 9v -1h 1v -9v 9v -8v 9h 1v -10v 13h 1v -12v 10v -13v 9h 1v 2v -10v 8h 1v
 -7v 10v -11v 5h 1v 5v -7v 9v -1h 1v -12v 13v -12v 7h 1v 5v -13v 11h 1v -9v 8v -1v 2v -11v 6h 1v 10v -12v 5h 1v -4v 8v -15v 11h 1v 4v -8v 4h 1v -9v 16v -17h 1v 12v -8v 11h 1v -14v 11v -14h 1v 15v -12v 12h 1v -10v 11v -13h 1v 10v -11v 11h 1v -10v 12v
 -7h 1v 9v -14v 6h 1v 11v -16v 15v -15h 1v 14v -13v 13h 1v -14v 13v -12h 1v 13v -17v 10h 1v 5v -8v 7v -9h 1v 7v -4v 4h 1v -12v 13v -10h 1v 10v -13v 13h 1v -5v 5v -8h 1v 8v -7v 11h 1v -11v 7v -9h 1v 8v -10v 11h 1v -11v 13v -5h 1v -1v 6v -10v 8h 1v -7v
 11v -8h 1v -5v 10v -10v 9h 1v -11v 11h 1v -7v 11v -16v 6h 1v 8v -10v 6h 1v -5v 9v -15v 13h 1v 1v -11v 7h 1v -5v 7v -13v 7h 1v 6v -8v 11h 1v -9v 7v -13v 7h 1v 7v -14v 15h 1v -12v 10v -9v 1h 1v 9v -12v 11h 1v -9v 9v -12v 4h 1v 9v -9v 4h 1v -3v 7v -6v
 2h 1v 4v -12v 15h 1v -18v 14v -7h 1v 6v -6v 12h 1v -11v 6v -7h 1v 6v -9v 7h 1v 3v -8v 7v -9h 1v 14v -14v 9h 1v 4v -13v 14v -11h 1v 11v -13v 4h 1v 4v -5v 6v -9h 1v 10v -11v 5h 1v 6v -9v 8v -11h 1v 12v -12v 1h 1v 13v -13v 9v -7h 1v -1v 7v -13v 9h 1v
 3v -10v 13v -10h 1v -1v 9v -10v 11h 1v -7v 13v -16h 1v 10v -13v 11h 1v -9v 10v -8h 1v -3v 13v -10v 13h 1v -21v 17v -9h 1v -1v 10v -12v 9h 1v -7v 7v -2h 1v -4v 12v -19v 13h 1v -10v 11h 1v -4v 3v -8h 1v 11v -13v 9h 1v -7v 7v -8h 1v 9v -12v 8v -3h 1v
 -8v 9v -6v 1h 1v 10v -13v 4v -15h 1v -246v 293v -267v 92h 1v 50v -15v 21h 1v -9v 27v -25h 1v 20v -15v 24h 1v -23v 9v -3v 2h 1v 7v -3v 11h 1v -8v 8v -7v 7v -16h 1v 23v -14v 16h 1v -9v 8v -12h 1v 9v -12v 21h 1v -14v 11v -6v 3h 1v 11v -18v 14h 1v 10v
 -15v 9v -2h 1v -3v 13v -15v 7h 1v 9v -15v 14v -3h 1v -13v 19v -8h 1v 8v -12v 17v -11h 1v 2v -3v 7v -8h 1v 8v -19v 25v -21h 1v 20v -9h 1v 6v -9v 11v -8h 1v 17v -14v 6h 1v 2v -9v 12v -2h 1v -8v 13v -10v 7h 1v 7v -19v 17v -5h 1v -7v 16v -21v 8h 1v 8v
 -4v 6v -8h 1v -6v 12v -8v 7h 1v -5v 9v -6h 1v 4v -3v 6v -10v 7h 1v 9v -19v 21h 1v -11v 11v -17v 15h 1v -13v 12h 1v -11v 15v -16v 6h 1v 9v -4v 5v -2h 1v -13v 16v -11h 1v 9v -11v 14h 1v -8v 5v -9v 7h 1v 5v -11v 17h 1v -11v 9v -11h 1v 10v -9v 8h 1v
 -16v 20v -9h 1v 5v -7v 15h 1v -15v 13v -19h 1v 21v -19v 14h 1v -9v 12v -14h 1v 11v -5v 6h 1v -9v 10v -9h 1v 10v -9v 4h 1v 3v -11v 12v -12h 1v 14v -7v 7h 1v 5v -19v 15v -10h 1v 13v -10v 5h 1v -5v 8v -11h 1v 14v -17v 9h 1v 7v -10v 10v -5h 1v -9v 12v
 -10v 3h 1v 11v -14v 11v -3h 1v -6v 8v -6v 6h 1v 2v -6v 5v -4h 1v -5v 10v -11h 1v 10v -10v 10v -3h 1v -5v 9v -8h 1v 13v -13v 11h 1v -11v 14v -13h 1v 12v -10v 5v -3h 1v -7v 11v -7h 1v 10v -11v 13h 1v -10v 9v -14v 10h 1v 2v -12v 8h 1v -7v 10v -9v 10h
 1v 4v -12v 5h 1v -3v 2v -11v 12h 1v 4v -12v 13h 1v -18v 14v -6v 4h 1v 3v -7v 10h 1v -15v 16v -8v 1h 1v 5v -6v 10h 1v -15v 13v -11v 2h 1v 9v -13v 15h 1v -17v 15v -9h 1v 6v -8v 11h 1v -11v 13v -12h 1v 10v -11v 13h 1v -15v 13v -11h 1v 10v -14v 18h 1v
 -17v 11v -6h 1v 12v -9v 4h 1v 2v -12v 12v -10h 1v 6v -6v 8h 1v -1v 1v -11v 13v -4h 1v -5v 12v -10h 1v 9v -9v 7v -9h 1v -2v 14v -12h 1v 9v -11v 12v -5h 1v -3v 6v -9h 1v 12v -16v 16v -4h 1v -9v 14v -11h 1v 11v -13v 11v -2h 1v -7v 6v -6h 1v 10v -10v 9h
 1v -17v 22v -18h 1v 10v -6v 8h 1v -9v 13v -11h 1v 8v -12v 12h 1v -6v 5v -5h 1v -3v 8v -8v 10h 1v -12v 11v -11h 1v 13v -15v 17h 1v -13v 10v -10h 1v 7v -8v 10h 1v -6v 9v -13v 1h 1v 11v -15v 14h 1v -11v 10v -9h 1v 9v -9v 9h 1v 2v -10v 10v -8h 1v 7v
 -10v 12h 1v -13v 12v -11h 1v 11v -5v 1v -1h 1v 5v -8v 7v -12h 1v 14v -10v 5h 1v 4v -11v 11v -13h 1v 13v -10v 8h 1v 3v -12v 9v -6h 1v 11v -19v 12h 1v 2v -6v 9v -8h 1v -3v 8v -12v 8h 1v 2v -8v 9v -9h 1v 11v -4v 1v -1h 1v 3v -8v 9v -3h 1v -7v 9v -11v
 8h 1v 3v -8v 8h 1v -11v 14v -9h 1v 7v -6v 6v -4h 1v -1v 11v -22h 1v 19v -12v 11v -13h 1v 16v -14h 1v 11v -9v 10v -3h 1v -8v 10v -10h 1v 8v -11v 14v -2h 1v -10v 12v -13h 1v 12v -10v 12h 1v -16v 12v -17h 1v 19v -11v 10h 1v -12v 11v -12h 1v 14v -11v 9h
 1v -12v 12v -5h 1v -5v 15v -17v 18h 1v -16v 13v -14h 1v -1v 16v -13v 11h 1v -13v 10v -8h 1v 10v -14v 13h 1v -11v 13v -8h 1v 10v -19v 20h 1v -17v 16v -18v 10h 1v 8v -12v 5h 1v 1v -8v 13v -13h 1v 13v -11v 10h 1v 4v -15v 11v -9h 1v 11v -16v 8h 1v 3v
 -8v 12v -13h 1v 12v -11v 3h 1v 5v -3v 2v -5h 1v -2v 10v -12v 5h 1v 11v -15v 10v -4h 1v -7v 15v -16v 2h 1v 14v -12v 8v -6h 1v -6v 12v -10v 1h 1v 9v -11v 13v -4h 1v -4v 10v -13h 1v 8v -8v 12v -8h 1v -2v 10v -6h 1v 5v -12v 16v -8h 1v -6v 15v -18h 1v
 12v -10v 12v -3h 1v -12v 14v -10h 1v 11v -14v 12v -1h 1v -9v 14v -15v 1h 1v 9v -11v 13h 1v -11v 7v -4h 1v 5v -8v 11h 1v -14v 12v -8h 1v 11v -13v 13h 1v -14v 11v -2h 1v -9v 13v -16v 14h 1v -11v 12v -11h 1v 8v -8v 8h 1v 3v -11v 14v -7h 1v -2v 9v -17v
 10h 1v 1v -9v 16v -10h 1v -2v 11v -14v 7h 1v 3v -9v 15v -15v 3h 1v 9v -14v 11h 1v -11v 16v -16h 1v 12v -12v 11h 1v -7v 9v -14h 1v 14v -9v 3h 1v 4v -5v 3v -7h 1v 9v -11v 9h 1v 1v -8v 12v -9h 1v 6v -10v 11h 1v 1v -14v 13v -10h 1v -1v 12v -12v 4h 1v 7v
 -9v 9v -1h 1v -6v 7v -10h 1v 7v -4v 11v -7h 1v -5v 9v -8h 1v 6v -9v 9v -4h 1v -3v 7v -10h 1v 10v -7v 9v -4h 1v -7v 13v -12h 1v 9v -4v 3h 1v -9v 11v -9h 1v 7v -9v 11v -2h 1v -10v 9v -8h 1v 15v -10v 4h 1v -9v 9v -9h 1v 9v -11v 11h 1v -9v 12v -12h 1v
 8v -8v 10h 1v -9v 8v -8h 1v 7v -9v 13h 1v -18v 16v -8h 1v -2v 9v -6v 2h 1v 3v -7v 12v -8h 1v -5v 13v -18v 10h 1v 4v -10v 14v -9h 1v -8v 13v -6" fill="none" stroke="#000099"/>
<path d="M284,203v 14" fill="none" stroke="#ff0000" stroke-width="2"/>
<path d="M285,219v 16" fill="none" stroke="#ff0000" stroke-width="2"/>
<path d="M285,225v 14" fill="none" stroke="#ff0000" stroke-width="2"/>
<path d="M286,228v 14" fill="none" stroke="#ff0000" stroke-width="2"/>
<path d="M287,230v 14" fill="none" stroke="#ff0000" stroke-width="2"/>
<path d="M288,235v 12" fill="none" stroke="#ff0000" stroke-width="2"/>
<path d="M289,238v 13" fill="none" stroke="#ff0000" stroke-width="2"/>
<path d="M289,240v 13" fill="none" stroke="#ff0000" stroke-width="2"/>
<path d="M290,242v 13" fill="none" stroke="#ff0000" stroke-width="2"/>
<path d="M291,244v 13" fill="none" stroke="#ff0000" stroke-width="2"/>
<path d="M292,248v 12" fill="none" stroke="#ff0000" stroke-width="2"/>
<path d="M293,250v 14" fill="none" stroke="#ff0000" stroke-width="2"/>
<path d="M293,251v 14" fill="none" stroke="#ff0000" stroke-width="2"/>
<path d="M294,253v 14" fill="none" stroke="#ff0000" stroke-width="2"/>
<path d="M295,255v 14" fill="none" stroke="#ff0000" stroke-width="2"/>
<path d="M296,259v 11" fill="none" stroke="#ff0000" stroke-width="2"/>
<path d="M297,260v 13" fill="none" stroke="#ff0000" stroke-width="2"/>
<path d="M298,262v 13" fill="none" stroke="#ff0000" stroke-width="2"/>
<path d="M298,264v 13" fill="none" stroke="#ff0000" stroke-width="2"/>
<path d="M299,265v 13" fill="none" stroke="#ff0000" stroke-width="2"/>
<path d="M300,268v 13" fill="none" stroke="#ff0000" stroke-width="2"/>
<path d="M301,269v 13" fill="none" stroke="#ff0000" stroke-width="2"/>
<path d="M302,270v 13" fill="none" stroke="#ff0000" stroke-width="2"/>
<path d="M302,272v 13" fill="none" stroke="#ff0000" stroke-width="2"/>
<path d="M303,274v 12" fill="none" stroke="#ff0000" stroke-width="2"/>
<path d="M304,275v 14" fill="none" stroke="#ff0000" stroke-width="2"/>
<path d="M305,277v 13" fill="none" stroke="#ff0000" stroke-width="2"/>
<path d="M306,277v 14" fill="none" stroke="#ff0000" stroke-width="2"/>
<path d="M307,279v 13" fill="none" stroke="#ff0000" stroke-width="2"/>
<path d="M307,281v 12" fill="none" stroke="#ff0000" stroke-width="2"/>
<path d="M308,282v 13" fill="none" stroke="#ff0000" stroke-width="2"/>
<path d="M309,283v 13" fill="none" stroke="#ff0000" stroke-width="2"/>
<path d="M310,284v 13" fill="none" stroke="#ff0000" stroke-width="2"/>
<path d="M311,285v 13" fill="none" stroke="#ff0000" stroke-width="2"/>
<path d="M311,286v 13" fill="none" stroke="#ff0000" stroke-width="2"/>
<path d="M312,287v 13" fill="none" stroke="#ff0000" stroke-width="2"/>
<path d="M313,288v 13" fill="none" stroke="#ff0000" stroke-width="2"/>
<path d="M314,289v 13" fill="none" stroke="#ff0000" stroke-width="2"/>
<path d="M315,291v 12" fill="none" stroke="#ff0000" stroke-width="2"/>
<path d="M315,291v 13" fill="none" stroke="#ff0000" stroke-width="2"/>
<path d="M316,292v 13" fill="none" stroke="#ff0000" stroke-width="2"/>
<path d="M317,293v 13" fill="none" stroke="#ff0000" stroke-width="2"/>
<path d="M318,294v 13" fill="none" stroke="#ff0000" stroke-width="2"/>
<path d="M319,295v 12" fill="none" stroke="#ff0000" stroke-width="2"/>
<path d="M320,295v 13" fill="none" stroke="#ff0000" stroke-width="2"/>
<path d="M320,296v 13" fill="none" stroke="#ff0000" stroke-width="2"/>
<path d="M321,297v 12" fill="none" stroke="#ff0000" stroke-width="2"/>
<path d="M322,297v 13" fill="none" stroke="#ff0000" stroke-width="2"/>
<path d="M323,299v 12" fill="none" stroke="#ff0000" stroke-width="2"/>
<path d="M324,299v 13" fill="none" stroke="#ff0000" stroke-width="2"/>
<path d="M324,299v 14" fill="none" stroke="#ff0000" stroke-width="2"/>
<path d="M325,300v 13" fill="none" stroke="#ff0000" stroke-width="2"/>
<path d="M326,300v 13" fill="none" stroke="#ff0000" stroke-width="2"/>
<path d="M327,302v 12" fill="none" stroke="#ff0000" stroke-width="2"/>
<path d="M328,302v 13" fill="none" stroke="#ff0000" stroke-width="2"/>
<path d="M329,303v 12" fill="none" stroke="#ff0000" stroke-width="2"/>
<path d="M329,303v 13" fill="none" stroke="#ff0000" stroke-width="2"/>
<path d="M330,304v 12" fill="none" stroke="#ff0000" stroke-width="2"/>
<path d="M331,304v 13" fill="none" stroke="#ff0000" stroke-width="2"/>
<path d="M332,304v 13" fill="none" stroke="#ff0000" stroke-width="2"/>
<path d="M333,305v 12" fill="none" stroke="#ff0000" stroke-width="2"/>
<path d="M333,305v 13" fill="none" stroke="#ff0000" stroke-width="2"/>
<path d="M334,306v 12" fill="none" stroke="#ff0000" stroke-width="2"/>
<path d="M335,306v 13" fill="none" stroke="#ff0000" stroke-width="2"/>
<path d="M336,307v 12" fill="none" stroke="#ff0000" stroke-width="2"/>
<path d="M337,307v 13" fill="none" stroke="#ff0000" stroke-width="2"/>
<path d="M337,308v 12" fill="none" stroke="#ff0000" stroke-width="2"/>
<path d="M338,308v 12" fill="none" stroke="#ff0000" stroke-width="2"/>
<path d="M339,308v 13" fill="none" stroke="#ff0000" stroke-width="2"/>
<path d="M340,308v 13" fill="none" stroke="#ff0000" stroke-width="2"/>
<path d="M341,308v 13" fill="none" stroke="#ff0000" stroke-width="2"/>
<path d="M342,309v 12" fill="none" stroke="#ff0000" stroke-width="2"/>
<path d="M342,309v 12" fill="none" stroke="#ff0000" stroke-width="2"/>
<path d="M343,310v 12" fill="none" stroke="#ff0000" stroke-width="2"/>
<path d="M344,310v 12" fill="none" stroke="#ff0000" stroke-width="2"/>
<path d="M345,310v 13" fill="none" stroke="#ff0000" stroke-width="2"/>
<path d="M346,311v 12" fill="none" stroke="#ff0000" stroke-width="2"/>
<path d="M346,311v 12" fill="none" stroke="#ff0000" stroke-width="2"/>
<path d="M347,311v 13" fill="none" stroke="#ff0000" stroke-width="2"/>
<path d="M348,311v 13" fill="none" stroke="#ff0000" stroke-width="2"/>
<path d="M349,312v 12" fill="none" stroke="#ff0000" stroke-width="2"/>
<path d="M350,312v 12" fill="none" stroke="#ff0000" stroke-width="2"/>
<path d="M351,312v 13" fill="none" stroke="#ff0000" stroke-width="2"/>
<path d="M351,313v 12" fill="none" stroke="#ff0000" stroke-width="2"/>
<path d="M352,313v 12" fill="none" stroke="#ff0000" stroke-width="2"/>
<path d="M353,313v 12" fill="none" stroke="#ff0000" stroke-width="2"/>
<path d="M354,313v 13" fill="none" stroke="#ff0000" stroke-width="2"/>
<path d="M355,313v 13" fill="none" stroke="#ff0000" stroke-width="2"/>
<path d="M355,313v 13" fill="none" stroke="#ff0000" stroke-width="2"/>
<path d="M356,313v 13" fill="none" stroke="#ff0000" stroke-width="2"/>
<path d="M357,313v 13" fill="none" stroke="#ff0000" stroke-width="2"/>
<path d="M358,313v 13" fill="none" stroke="#ff0000" stroke-width="2"/>
<path d="M359,314v 12" fill="none" stroke="#ff0000" stroke-width="2"/>
<path d="M359,314v 12" fill="none" stroke="#ff0000" stroke-width="2"/>
<path d="M360,314v 12" fill="none" stroke="#ff0000" stroke-width="2"/>
<path d="M361,314v 13" fill="none" stroke="#ff0000" stroke-width="2"/>
<path d="M362,314v 13" fill="none" stroke="#ff0000" stroke-width="2"/>
<path d="M363,314v 13" fill="none" stroke="#ff0000" stroke-width="2"/>
<path d="M364,315v 12" fill="none" stroke="#ff0000" stroke-width="2"/>
<path d="M364,315v 12" fill="none" stroke="#ff0000" stroke-width="2"/>
<path d="M365,315v 12" fill="none" stroke="#ff0000" stroke-width="2"/>
<path d="M366,315v 12" fill="none" stroke="#ff0000" stroke-width="2"/>
<path d="M367,315v 13" fill="none" stroke="#ff0000" stroke-width="2"/>
<path d="M368,315v 13" fill="none" stroke="#ff0000" stroke-width="2"/>
<path d="M368,315v 13" fill="none" stroke="#ff0000" stroke-width="2"/>
<path d="M369,316v 12" fill="none" stroke="#ff0000" stroke-width="2"/>
<path d="M370,316v 12" fill="none" stroke="#ff0000" stroke-width="2"/>
<path d="M371,316v 12" fill="none" stroke="#ff0000" stroke-width="2"/>
<path d="M372,316v 12" fill="none" stroke="#ff0000" stroke-width="2"/>
<path d="M372,316v 12" fill="none" stroke="#ff0000" stroke-width="2"/>
<path d="M373,316v 13" fill="none" stroke="#ff0000" stroke-width="2"/>
<path d="M374,316v 13" fill="none" stroke="#ff0000" stroke-width="2"/>
<path d="M375,316v 13" fill="none" stroke="#ff0000" stroke-width="2"/>
<path d="M376,316v 13" fill="none" stroke="#ff0000" stroke-width="2"/>
<path d="M377,317v 12" fill="none" stroke="#ff0000" stroke-width="2"/>
<path d="M377,317v 12" fill="none" stroke="#ff0000" stroke-width="2"/>
<path d="M378,317v 12" fill="none" stroke="#ff0000" stroke-width="2"/>
<path d="M379,317v 12" fill="none" stroke="#ff0000" stroke-width="2"/>
<path d="M380,317v 12" fill="none" stroke="#ff0000" stroke-width="2"/>
<path d="M381,317v 12" fill="none" stroke="#ff0000" stroke-width="2"/>
<path d="M381,317v 12" fill="none" stroke="#ff0000" stroke-width="2"/>
<path d="M382,317v 13" fill="none" stroke="#ff0000" stroke-width="2"/>
<path d="M383,317v 13" fill="none" stroke="#ff0000" stroke-width="2"/>
<path d="M384,317v 13" fill="none" stroke="#ff0000" stroke-width="2"/>
<path d="M385,317v 13" fill="none" stroke="#ff0000" stroke-width="2"/>
<path d="M386,317v 13" fill="none" stroke="#ff0000" stroke-width="2"/>
<path d="M386,317v 13" fill="none" stroke="#ff0000" stroke-width="2"/>
<path d="M387,317v 13" fill="none" stroke="#ff0000" stroke-width="2"/>
<path d="M388,317v 13" fill="none" stroke="#ff0000" stroke-width="2"/>
<path d="M389,317v 13" fill="none" stroke="#ff0000" stroke-width="2"/>
<path d="M390,317v 13" fill="none" stroke="#ff0000" stroke-width="2"/>
<path d="M390,317v 13" fill="none" stroke="#ff0000" stroke-width="2"/>
<path d="M391,317v 13" fill="none" stroke="#ff0000" stroke-width="2"/>
<path d="M392,317v 13" fill="none" stroke="#ff0000" stroke-width="2"/>
<path d="M393,317v 13" fill="none" stroke="#ff0000" stroke-width="2"/>
<path d="M394,317v 13" fill="none" stroke="#ff0000" stroke-width="2"/>
<path d="M394,317v 13" fill="none" stroke="#ff0000" stroke-width="2"/>
<path d="M395,317v 13" fill="none" stroke="#ff0000" stroke-width="2"/>
<path d="M396,317v 13" fill="none" stroke="#ff0000" stroke-width="2"/>
<path d="M397,317v 13" fill="none" stroke="#ff0000" stroke-width="2"/>
<path d="M398,317v 13" fill="none" stroke="#ff0000" stroke-width="2"/>
<path d="M399,317v 13" fill="none" stroke="#ff0000" stroke-width="2"/>
<path d="M399,317v 13" fill="none" stroke="#ff0000" stroke-width="2"/>
<path d="M400,317v 13" fill="none" stroke="#ff0000" stroke-width="2"/>
<path d="M401,317v 13" fill="none" stroke="#ff0000" stroke-width="2"/>
<path d="M402,317v 13" fill="none" stroke="#ff0000" stroke-width="2"/>
<path d="M403,317v 13" fill="none" stroke="#ff0000" stroke-width="2"/>
<path d="M403,317v 13" fill="none" stroke="#ff0000" stroke-width="2"/>
<path d="M404,317v 13" fill="none" stroke="#ff0000" stroke-width="2"/>
<path d="M405,317v 13" fill="none" stroke="#ff0000" stroke-width="2"/>
<path d="M406,318v 12" fill="none" stroke="#ff0000" stroke-width="2"/>
<path d="M407,318v 12" fill="none" stroke="#ff0000" stroke-width="2"/>
<path d="M408,318v 12" fill="none" stroke="#ff0000" stroke-width="2"/>
<path d="M408,318v 12" fill="none" stroke="#ff0000" stroke-width="2"/>
<path d="M409,318v 12" fill="none" stroke="#ff0000" stroke-width="2"/>
<path d="M410,318v 12" fill="none" stroke="#ff0000" stroke-width="2"/>
<path d="M411,318v 12" fill="none" stroke="#ff0000" stroke-width="2"/>
<path d="M412,318v 12" fill="none" stroke="#ff0000" stroke-width="2"/>
<path d="M412,318v 12" fill="none" stroke="#ff0000" stroke-width="2"/>
<path d="M413,318v 12" fill="none" stroke="#ff0000" stroke-width="2"/>
<path d="M414,318v 12" fill="none" stroke="#ff0000" stroke-width="2"/>
<path d="M415,318v 12" fill="none" stroke="#ff0000" stroke-width="2"/>
<path d="M416,318v 12" fill="none" stroke="#ff0000" stroke-width="2"/>
<path d="M416,318v 12" fill="none" stroke="#ff0000" stroke-width="2"/>
<path d="M417,318v 12" fill="none" stroke="#ff0000" stroke-width="2"/>
<path d="M418,318v 12" fill="none" stroke="#ff0000" stroke-width="2"/>
<path d="M419,318v 12" fill="none" stroke="#ff0000" stroke-width="2"/>
<path d="M420,318v 12" fill="none" stroke="#ff0000" stroke-width="2"/>
<path d="M421,318v 12" fill="none" stroke="#ff0000" stroke-width="2"/>
<path d="M421,318v 12" fill="none" stroke="#ff0000" stroke-width="2"/>
<path d="M422,318v 12" fill="none" stroke="#ff0000" stroke-width="2"/>
<path d="M423,318v 12" fill="none" stroke="#ff0000" stroke-width="2"/>
<path d="M424,318v 12" fill="none" stroke="#ff0000" stroke-width="2"/>
<path d="M425,318v 12" fill="none" stroke="#ff0000" stroke-width="2"/>
<path d="M425,318v 12" fill="none" stroke="#ff0000" stroke-width="2"/>
<path d="M426,318v 12" fill="none" stroke="#ff0000" stroke-width="2"/>
<path d="M427,318v 12" fill="none" stroke="#ff0000" stroke-width="2"/>
<path d="M428,318v 12" fill="none" stroke="#ff0000" stroke-width="2"/>
<path d="M429,318v 12" fill="none" stroke="#ff0000" stroke-width="2"/>
<path d="M430,318v 12" fill="none" stroke="#ff0000" stroke-width="2"/>
<path d="M430,318v 12" fill="none" stroke="#ff0000" stroke-width="2"/>
<path d="M431,318v 12" fill="none" stroke="#ff0000" stroke-width="2"/>
<path d="M432,318v 12" fill="none" stroke="#ff0000" stroke-width="2"/>
<path d="M433,318v 12" fill="none" stroke="#ff0000" stroke-width="2"/>
<path d="M434,318v 12" fill="none" stroke="#ff0000" stroke-width="2"/>
<path d="M434,318v 12" fill="none" stroke="#ff0000" stroke-width="2"/>
<path d="M435,318v 12" fill="none" stroke="#ff0000" stroke-width="2"/>
<path d="M436,318v 12" fill="none" stroke="#ff0000" stroke-width="2"/>
<path d="M437,318v 12" fill="none" stroke="#ff0000" stroke-width="2"/>
<path d="M438,318v 12" fill="none" stroke="#ff0000" stroke-width="2"/>
<path d="M438,318v 12" fill="none" stroke="#ff0000" stroke-width="2"/>
<path d="M439,318v 12" fill="none" stroke="#ff0000" stroke-width="2"/>
<path d="M440,318v 13" fill="none" stroke="#ff0000" stroke-width="2"/>
<path d="M441,318v 13" fill="none" stroke="#ff0000" stroke-width="2"/>
<path d="M442,318v 13" fill="none" stroke="#ff0000" stroke-width="2"/>
<path d="M443,318v 13" fill="none" stroke="#ff0000" stroke-width="2"/>
<path d="M443,318v 13" fill="none" stroke="#ff0000" stroke-width="2"/>
<path d="M444,318v 13" fill="none" stroke="#ff0000" stroke-width="2"/>
<path d="M445,318v 13" fill="none" stroke="#ff0000" stroke-width="2"/>
<path d="M446,318v 13" fill="none" stroke="#ff0000" stroke-width="2"/>
<path d="M447,318v 13" fill="none" stroke="#ff0000" stroke-width="2"/>
<path d="M447,318v 13" fill="none" stroke="#ff0000" stroke-width="2"/>
<path d="M448,318v 13" fill="none" stroke="#ff0000" stroke-width="2"/>
<path d="M449,318v 13" fill="none" stroke="#ff0000" stroke-width="2"/>
<path d="M450,318v 13" fill="none" stroke="#ff0000" stroke-width="2"/>
<path d="M451,318v 13" fill="none" stroke="#ff0000" stroke-width="2"/>
<path d="M452,318v 13" fill="none" stroke="#ff0000" stroke-width="2"/>
<path d="M452,318v 13" fill="none" stroke="#ff0000" stroke-width="2"/>
<path d="M453,318v 13" fill="none" stroke="#ff0000" stroke-width="2"/>
<path d="M454,318v 13" fill="none" stroke="#ff0000" stroke-width="2"/>
<path d="M455,318v 13" fill="none" stroke="#ff0000" stroke-width="2"/>
<path d="M456,318v 13" fill="none" stroke="#ff0000" stroke-width="2"/>
<path d="M456,318v 13" fill="none" stroke="#ff0000" stroke-width="2"/>
<path d="M457,318v 13" fill="none" stroke="#ff0000" stroke-width="2"/>
<path d="M458,318v 13" fill="none" stroke="#ff0000" stroke-width="2"/>
<path d="M459,318v 13" fill="none" stroke="#ff0000" stroke-width="2"/>
<path d="M460,318v 13" fill="none" stroke="#ff0000" stroke-width="2"/>
<path d="M460,318v 13" fill="none" stroke="#ff0000" stroke-width="2"/>
<path d="M461,318v 13" fill="none" stroke="#ff0000" stroke-width="2"/>
<path d="M462,318v 13" fill="none" stroke="#ff0000" stroke-width="2"/>
<path d="M463,318v 13" fill="none" stroke="#ff0000" stroke-width="2"/>
<path d="M464,318v 13" fill="none" stroke="#ff0000" stroke-width="2"/>
<path d="M465,318v 13" fill="none" stroke="#ff0000" stroke-width="2"/>
<path d="M465,318v 13" fill="none" stroke="#ff0000" stroke-width="2"/>
<path d="M466,318v 13" fill="none" stroke="#ff0000" stroke-width="2"/>
<path d="M467,318v 13" fill="none" stroke="#ff0000" stroke-width="2"/>
<path d="M468,318v 13" fill="none" stroke="#ff0000" stroke-width="2"/>
<path d="M469,318v 13" fill="none" stroke="#ff0000" stroke-width="2"/>
<path d="M469,318v 13" fill="none" stroke="#ff0000" stroke-width="2"/>
<path d="M470,318v 13" fill="none" stroke="#ff0000" stroke-width="2"/>
<path d="M471,318v 13" fill="none" stroke="#ff0000" stroke-width="2"/>
<path d="M472,318v 13" fill="none" stroke="#ff0000" stroke-width="2"/>
<path d="M473,318v 13" fill="none" stroke="#ff0000" stroke-width="2"/>
<path d="M473,318v 13" fill="none" stroke="#ff0000" stroke-width="2"/>
<path d="M474,318v 13" fill="none" stroke="#ff0000" stroke-width="2"/>
<path d="M475,318v 13" fill="none" stroke="#ff0000" stroke-width="2"/>
<path d="M476,318v 13" fill="none" stroke="#ff0000" stroke-width="2"/>
<path d="M477,318v 13" fill="none" stroke="#ff0000" stroke-width="2"/>
<path d="M478,318v 13" fill="none" stroke="#ff0000" stroke-width="2"/>
<path d="M478,318v 13" fill="none" stroke="#ff0000" stroke-width="2"/>
<path d="M479,318v 13" fill="none" stroke="#ff0000" stroke-width="2"/>
<path d="M480,318v 13" fill="none" stroke="#ff0000" stroke-width="2"/>
<path d="M481,318v 13" fill="none" stroke="#ff0000" stroke-width="2"/>
<path d="M482,318v 13" fill="none" stroke="#ff0000" stroke-width="2"/>
<path d="M482,318v 13" fill="none" stroke="#ff0000" stroke-width="2"/>
<path d="M483,318v 13" fill="none" stroke="#ff0000" stroke-width="2"/>
<path d="M484,318v 13" fill="none" stroke="#ff0000" stroke-width="2"/>
<path d="M485,318v 13" fill="none" stroke="#ff0000" stroke-width="2"/>
<path d="M486,318v 13" fill="none" stroke="#ff0000" stroke-width="2"/>
<path d="M487,318v 13" fill="none" stroke="#ff0000" stroke-width="2"/>
<path d="M487,318v 13" fill="none" stroke="#ff0000" stroke-width="2"/>
<path d="M488,318v 13" fill="none" stroke="#ff0000" stroke-width="2"/>
<path d="M489,318v 13" fill="none" stroke="#ff0000" stroke-width="2"/>
<path d="M490,318v 13" fill="none" stroke="#ff0000" stroke-width="2"/>
<path d="M491,318v 13" fill="none" stroke="#ff0000" stroke-width="2"/>
<path d="M491,318v 13" fill="none" stroke="#ff0000" stroke-width="2"/>
<path d="M492,318v 13" fill="none" stroke="#ff0000" stroke-width="2"/>
<path d="M493,318v 13" fill="none" stroke="#ff0000" stroke-width="2"/>
<path d="M494,318v 13" fill="none" stroke="#ff0000" stroke-width="2"/>
<path d="M495,318v 13" fill="none" stroke="#ff0000" stroke-width="2"/>
<path d="M495,318v 13" fill="none" stroke="#ff0000" stroke-width="2"/>
<path d="M496,318v 13" fill="none" stroke="#ff0000" stroke-width="2"/>
<path d="M497,318v 13" fill="none" stroke="#ff0000" stroke-width="2"/>
<path d="M498,318v 13" fill="none" stroke="#ff0000" stroke-width="2"/>
<path d="M499,318v 13" fill="none" stroke="#ff0000" stroke-width="2"/>
<path d="M500,318v 13" fill="none" stroke="#ff0000" stroke-width="2"/>
<path d="M500,318v 13" fill="none" stroke="#ff0000" stroke-width="2"/>
<path d="M501,318v 13" fill="none" stroke="#ff0000" stroke-width="2"/>
<path d="M502,318v 13" fill="none" stroke="#ff0000" stroke-width="2"/>
<path d="M503,318v 13" fill="none" stroke="#ff0000" stroke-width="2"/>
<path d="M504,318v 13" fill="none" stroke="#ff0000" stroke-width="2"/>
<path d="M504,318v 13" fill="none" stroke="#ff0000" stroke-width="2"/>
<path d="M505,318v 13" fill="none" stroke="#ff0000" stroke-width="2"/>
<path d="M506,318v 13" fill="none" stroke="#ff0000" stroke-width="2"/>
<path d="M507,318v 13" fill="none" stroke="#ff0000" stroke-width="2"/>
<path d="M508,318v 13" fill="none" stroke="#ff0000" stroke-width="2"/>
<path d="M509,318v 13" fill="none" stroke="#ff0000" stroke-width="2"/>
<path d="M509,318v 13" fill="none" stroke="#ff0000" stroke-width="2"/>
<path d="M510,319v 12" fill="none" stroke="#ff0000" stroke-width="2"/>
<path d="M284,210l 1, 17v 5l 1, 2l 1, 3l 1, 4l 1, 3v 3l 1, 1l 1, 3l 1, 3l 1, 2v 2l 1, 2l 1, 2l 1, 2l 1, 3l 1, 2v 1l 1, 2l 1, 2l 1, 2l 1, 1v 1l 1, 2l 1, 2l 1, 1l 1, 1l 1, 2l 1, 2l 1, 2l 1, 1h 1v 1l 1, 2l 1, 1h 1l 1, 1v 1l 1, 2h 1l 1, 1h 1l 1, 2v 1h 1l
 1, 1h 1l 1, 1v 1h 1l 1, 1l 1, 1h 2v 1h 1l 1, 1l 1, 1h 1v 1h 1l 1, 1h 3l 1, 1l 1, 1h 2l 1, 1h 1l 1, 1h 5l 1, 1h 2l 1, 1h 2l 1, 1h 3l 1, 1h 11l 1, 1h 8l 1, 1h 14l 1, 1h 42l 1, 1h 70" fill="none" stroke="#ff0000" stroke-width="2"/>
<rect x="351" y="25" width="205" height="169" fill="white"/>
<path d="M351,194h 205" fill="none" stroke="black"/>
<path d="M556,194v -169" fill="none" stroke="black"/>
<path d="M556,25h -205" fill="none" stroke="black"/>
<path d="M351,25v 169" fill="none" stroke="black"/>
<text x="362" y="38" fill="black" font-size="14" font-family="Helvetica">
Entries 
</text>
<text x="490" y="38" fill="black" font-size="14" font-family="Helvetica">
 224251
</text>
<text x="374" y="57" fill="black" font-size="14" font-family="Helvetica">
 / ndf 
</text>
<text x="369" y="45" fill="black" font-size="10" font-family="Helvetica">
2
</text>
<text x="362" y="57" fill="black" font-size="14" font-family="Times">
&#0967;
</text>
<text x="455" y="54" fill="black" font-size="14" font-family="Helvetica">
  1300 / 1239
</text>
<text x="382" y="67" fill="black" font-size="14" font-family="Helvetica">
   
</text>
<text x="372" y="76" fill="black" font-size="10" font-family="Helvetica">
cu
</text>
<text x="362" y="67" fill="black" font-size="14" font-family="Helvetica">
N
</text>
<text x="503" y="73" fill="black" font-size="14" font-family="Helvetica">
 319.8
</text>
<text x="490" y="73" fill="black" font-size="14" font-family="Times">
&#0177;
</text>
<text x="448" y="73" fill="black" font-size="14" font-family="Helvetica">
   269 
</text>
<text x="377" y="86" fill="black" font-size="14" font-family="Helvetica">
 
</text>
<text x="367" y="96" fill="black" font-size="10" font-family="Helvetica">
cu
</text>
<text x="362" y="86" fill="black" font-size="14" font-family="Times">
&#0964;
</text>
<text x="511" y="90" fill="black" font-size="14" font-family="Helvetica">
 21.9
</text>
<text x="499" y="90" fill="black" font-size="14" font-family="Times">
&#0177;
</text>
<text x="456" y="90" fill="black" font-size="14" font-family="Helvetica">
  34.6 
</text>
<text x="375" y="102" fill="black" font-size="14" font-family="Helvetica">
    
</text>
<text x="372" y="110" fill="black" font-size="10" font-family="Helvetica">
f
</text>
<text x="362" y="102" fill="black" font-size="14" font-family="Helvetica">
N
</text>
<text x="520" y="107" fill="black" font-size="14" font-family="Helvetica">
 3.4
</text>
<text x="507" y="107" fill="black" font-size="14" font-family="Times">
&#0177;
</text>
<text x="460" y="107" fill="black" font-size="14" font-family="Helvetica">
 348.6 
</text>
<text x="370" y="120" fill="black" font-size="14" font-family="Helvetica">
 
</text>
<text x="367" y="130" fill="black" font-size="10" font-family="Helvetica">
f
</text>
<text x="362" y="120" fill="black" font-size="14" font-family="Times">
&#0964;
</text>
<text x="511" y="124" fill="black" font-size="14" font-family="Helvetica">
 24.2
</text>
<text x="499" y="124" fill="black" font-size="14" font-family="Times">
&#0177;
</text>
<text x="451" y="124" fill="black" font-size="14" font-family="Helvetica">
  2164 
</text>
<text x="384" y="136" fill="black" font-size="14" font-family="Helvetica">
  
</text>
<text x="372" y="145" fill="black" font-size="10" font-family="Helvetica">
sin
</text>
<text x="362" y="136" fill="black" font-size="14" font-family="Helvetica">
N
</text>
<text x="511" y="141" fill="black" font-size="14" font-family="Helvetica">
 0.43
</text>
<text x="499" y="141" fill="black" font-size="14" font-family="Times">
&#0177;
</text>
<text x="451" y="141" fill="black" font-size="14" font-family="Helvetica">
 21.71 
</text>
<text x="367" y="158" fill="black" font-size="14" font-family="Helvetica">
     
</text>
<text x="362" y="158" fill="black" font-size="14" font-family="Times">
&#0966;
</text>
<text x="520" y="158" fill="black" font-size="14" font-family="Helvetica">
 0.5
</text>
<text x="507" y="158" fill="black" font-size="14" font-family="Times">
&#0177;
</text>
<text x="465" y="158" fill="black" font-size="14" font-family="Helvetica">
  41.6 
</text>
<text x="362" y="173" fill="black" font-size="14" font-family="Helvetica">
T        
</text>
<text x="511" y="175" fill="black" font-size="14" font-family="Helvetica">
 0.00
</text>
<text x="499" y="175" fill="black" font-size="14" font-family="Times">
&#0177;
</text>
<text x="451" y="175" fill="black" font-size="14" font-family="Helvetica">
 59.36 
</text>
<text x="377" y="186" fill="black" font-size="14" font-family="Helvetica">
    
</text>
<text x="372" y="195" fill="black" font-size="10" font-family="Helvetica">
b
</text>
<text x="362" y="186" fill="black" font-size="14" font-family="Helvetica">
N
</text>
<text x="511" y="192" fill="black" font-size="14" font-family="Helvetica">
 0.34
</text>
<text x="499" y="192" fill="black" font-size="14" font-family="Times">
&#0177;
</text>
<text x="451" y="192" fill="black" font-size="14" font-family="Helvetica">
 73.78 
</text>
<path d="M57,346h 453" fill="none" stroke="black"/>
<text x="419" y="372" fill="black" font-size="12" font-family="Helvetica">
TDC-TDC0 (ns)
</text>
<path d="M57,337v 9" fill="none" stroke="black"/>
<path d="M68,342v 4" fill="none" stroke="black"/>
<path d="M79,342v 4" fill="none" stroke="black"/>
<path d="M91,342v 4" fill="none" stroke="black"/>
<path d="M102,342v 4" fill="none" stroke="black"/>
<path d="M113,337v 9" fill="none" stroke="black"/>
<path d="M125,342v 4" fill="none" stroke="black"/>
<path d="M136,342v 4" fill="none" stroke="black"/>
<path d="M147,342v 4" fill="none" stroke="black"/>
<path d="M159,342v 4" fill="none" stroke="black"/>
<path d="M170,337v 9" fill="none" stroke="black"/>
<path d="M181,342v 4" fill="none" stroke="black"/>
<path d="M193,342v 4" fill="none" stroke="black"/>
<path d="M204,342v 4" fill="none" stroke="black"/>
<path d="M215,342v 4" fill="none" stroke="black"/>
<path d="M227,337v 9" fill="none" stroke="black"/>
<path d="M238,342v 4" fill="none" stroke="black"/>
<path d="M249,342v 4" fill="none" stroke="black"/>
<path d="M261,342v 4" fill="none" stroke="black"/>
<path d="M272,342v 4" fill="none" stroke="black"/>
<path d="M283,337v 9" fill="none" stroke="black"/>
<path d="M295,342v 4" fill="none" stroke="black"/>
<path d="M306,342v 4" fill="none" stroke="black"/>
<path d="M317,342v 4" fill="none" stroke="black"/>
<path d="M329,342v 4" fill="none" stroke="black"/>
<path d="M340,337v 9" fill="none" stroke="black"/>
<path d="M351,342v 4" fill="none" stroke="black"/>
<path d="M363,342v 4" fill="none" stroke="black"/>
<path d="M374,342v 4" fill="none" stroke="black"/>
<path d="M386,342v 4" fill="none" stroke="black"/>
<path d="M397,337v 9" fill="none" stroke="black"/>
<path d="M408,342v 4" fill="none" stroke="black"/>
<path d="M420,342v 4" fill="none" stroke="black"/>
<path d="M431,342v 4" fill="none" stroke="black"/>
<path d="M442,342v 4" fill="none" stroke="black"/>
<path d="M454,337v 9" fill="none" stroke="black"/>
<path d="M465,342v 4" fill="none" stroke="black"/>
<path d="M476,342v 4" fill="none" stroke="black"/>
<path d="M488,342v 4" fill="none" stroke="black"/>
<path d="M499,342v 4" fill="none" stroke="black"/>
<path d="M510,337v 9" fill="none" stroke="black"/>
<text x="36" y="359" fill="black" font-size="12" font-family="Helvetica">
-20000
</text>
<text x="93" y="359" fill="black" font-size="12" font-family="Helvetica">
-15000
</text>
<text x="149" y="359" fill="black" font-size="12" font-family="Helvetica">
-10000
</text>
<text x="210" y="359" fill="black" font-size="12" font-family="Helvetica">
-5000
</text>
<text x="280" y="359" fill="black" font-size="12" font-family="Helvetica">
0
</text>
<text x="325" y="359" fill="black" font-size="12" font-family="Helvetica">
5000
</text>
<text x="379" y="359" fill="black" font-size="12" font-family="Helvetica">
10000
</text>
<text x="435" y="359" fill="black" font-size="12" font-family="Helvetica">
15000
</text>
<text x="492" y="359" fill="black" font-size="12" font-family="Helvetica">
20000
</text>
<path d="M57,346v -308" fill="none" stroke="black"/>
<g transform="rotate(-90,29,72)">
<text x="29" y="72" fill="black" font-size="12" font-family="Helvetica">
Count
</text>
</g>
<path d="M70,346h -13" fill="none" stroke="black"/>
<path d="M63,332h -6" fill="none" stroke="black"/>
<path d="M63,318h -6" fill="none" stroke="black"/>
<path d="M63,303h -6" fill="none" stroke="black"/>
<path d="M70,289h -13" fill="none" stroke="black"/>
<path d="M63,274h -6" fill="none" stroke="black"/>
<path d="M63,260h -6" fill="none" stroke="black"/>
<path d="M63,245h -6" fill="none" stroke="black"/>
<path d="M70,231h -13" fill="none" stroke="black"/>
<path d="M63,216h -6" fill="none" stroke="black"/>
<path d="M63,202h -6" fill="none" stroke="black"/>
<path d="M63,188h -6" fill="none" stroke="black"/>
<path d="M70,173h -13" fill="none" stroke="black"/>
<path d="M63,159h -6" fill="none" stroke="black"/>
<path d="M63,144h -6" fill="none" stroke="black"/>
<path d="M63,130h -6" fill="none" stroke="black"/>
<path d="M70,115h -13" fill="none" stroke="black"/>
<path d="M63,101h -6" fill="none" stroke="black"/>
<path d="M63,86h -6" fill="none" stroke="black"/>
<path d="M63,72h -6" fill="none" stroke="black"/>
<path d="M70,58h -13" fill="none" stroke="black"/>
<path d="M70,58h -13" fill="none" stroke="black"/>
<path d="M63,43h -6" fill="none" stroke="black"/>
<text x="47" y="350" fill="black" font-size="12" font-family="Helvetica">
0
</text>
<text x="33" y="292" fill="black" font-size="12" font-family="Helvetica">
200
</text>
<text x="33" y="234" fill="black" font-size="12" font-family="Helvetica">
400
</text>
<text x="33" y="176" fill="black" font-size="12" font-family="Helvetica">
600
</text>
<text x="33" y="119" fill="black" font-size="12" font-family="Helvetica">
800
</text>
<text x="25" y="61" fill="black" font-size="12" font-family="Helvetica">
1000
</text>
<rect x="351" y="25" width="205" height="169" fill="white"/>
<path d="M351,194h 205" fill="none" stroke="black"/>
<path d="M556,194v -169" fill="none" stroke="black"/>
<path d="M556,25h -205" fill="none" stroke="black"/>
<path d="M351,25v 169" fill="none" stroke="black"/>
<text x="362" y="38" fill="black" font-size="14" font-family="Helvetica">
Entries 
</text>
<text x="490" y="38" fill="black" font-size="14" font-family="Helvetica">
 224251
</text>
<text x="374" y="57" fill="black" font-size="14" font-family="Helvetica">
 / ndf 
</text>
<text x="369" y="45" fill="black" font-size="10" font-family="Helvetica">
2
</text>
<text x="362" y="57" fill="black" font-size="14" font-family="Times">
&#0967;
</text>
<text x="455" y="54" fill="black" font-size="14" font-family="Helvetica">
  1300 / 1239
</text>
<text x="382" y="67" fill="black" font-size="14" font-family="Helvetica">
   
</text>
<text x="372" y="76" fill="black" font-size="10" font-family="Helvetica">
cu
</text>
<text x="362" y="67" fill="black" font-size="14" font-family="Helvetica">
N
</text>
<text x="503" y="73" fill="black" font-size="14" font-family="Helvetica">
 319.8
</text>
<text x="490" y="73" fill="black" font-size="14" font-family="Times">
&#0177;
</text>
<text x="448" y="73" fill="black" font-size="14" font-family="Helvetica">
   269 
</text>
<text x="377" y="86" fill="black" font-size="14" font-family="Helvetica">
 
</text>
<text x="367" y="96" fill="black" font-size="10" font-family="Helvetica">
cu
</text>
<text x="362" y="86" fill="black" font-size="14" font-family="Times">
&#0964;
</text>
<text x="511" y="90" fill="black" font-size="14" font-family="Helvetica">
 21.9
</text>
<text x="499" y="90" fill="black" font-size="14" font-family="Times">
&#0177;
</text>
<text x="456" y="90" fill="black" font-size="14" font-family="Helvetica">
  34.6 
</text>
<text x="375" y="102" fill="black" font-size="14" font-family="Helvetica">
    
</text>
<text x="372" y="110" fill="black" font-size="10" font-family="Helvetica">
f
</text>
<text x="362" y="102" fill="black" font-size="14" font-family="Helvetica">
N
</text>
<text x="520" y="107" fill="black" font-size="14" font-family="Helvetica">
 3.4
</text>
<text x="507" y="107" fill="black" font-size="14" font-family="Times">
&#0177;
</text>
<text x="460" y="107" fill="black" font-size="14" font-family="Helvetica">
 348.6 
</text>
<text x="370" y="120" fill="black" font-size="14" font-family="Helvetica">
 
</text>
<text x="367" y="130" fill="black" font-size="10" font-family="Helvetica">
f
</text>
<text x="362" y="120" fill="black" font-size="14" font-family="Times">
&#0964;
</text>
<text x="511" y="124" fill="black" font-size="14" font-family="Helvetica">
 24.2
</text>
<text x="499" y="124" fill="black" font-size="14" font-family="Times">
&#0177;
</text>
<text x="451" y="124" fill="black" font-size="14" font-family="Helvetica">
  2164 
</text>
<text x="384" y="136" fill="black" font-size="14" font-family="Helvetica">
  
</text>
<text x="372" y="145" fill="black" font-size="10" font-family="Helvetica">
sin
</text>
<text x="362" y="136" fill="black" font-size="14" font-family="Helvetica">
N
</text>
<text x="511" y="141" fill="black" font-size="14" font-family="Helvetica">
 0.43
</text>
<text x="499" y="141" fill="black" font-size="14" font-family="Times">
&#0177;
</text>
<text x="451" y="141" fill="black" font-size="14" font-family="Helvetica">
 21.71 
</text>
<text x="367" y="158" fill="black" font-size="14" font-family="Helvetica">
     
</text>
<text x="362" y="158" fill="black" font-size="14" font-family="Times">
&#0966;
</text>
<text x="520" y="158" fill="black" font-size="14" font-family="Helvetica">
 0.5
</text>
<text x="507" y="158" fill="black" font-size="14" font-family="Times">
&#0177;
</text>
<text x="465" y="158" fill="black" font-size="14" font-family="Helvetica">
  41.6 
</text>
<text x="362" y="173" fill="black" font-size="14" font-family="Helvetica">
T        
</text>
<text x="511" y="175" fill="black" font-size="14" font-family="Helvetica">
 0.00
</text>
<text x="499" y="175" fill="black" font-size="14" font-family="Times">
&#0177;
</text>
<text x="451" y="175" fill="black" font-size="14" font-family="Helvetica">
 59.36 
</text>
<text x="377" y="186" fill="black" font-size="14" font-family="Helvetica">
    
</text>
<text x="372" y="195" fill="black" font-size="10" font-family="Helvetica">
b
</text>
<text x="362" y="186" fill="black" font-size="14" font-family="Helvetica">
N
</text>
<text x="511" y="192" fill="black" font-size="14" font-family="Helvetica">
 0.34
</text>
<text x="499" y="192" fill="black" font-size="14" font-family="Times">
&#0177;
</text>
<text x="451" y="192" fill="black" font-size="14" font-family="Helvetica">
 73.78 
</text>
<text x="270" y="21" fill="black" font-size="21" font-family="Helvetica">
D1
</text></svg>
