<?xml version="1.0" standalone="no"?>
<svg width="567" height="328" viewBox="0 0 567 328" xmlns="http://www.w3.org/2000/svg">
<title>
images/analysis_phase_tight/sim_muon_rate_in_cu.svg
</title>
<desc>
Creator: ROOT Version 5.34/05
CreationDate: Mon Jun 10 21:48:09 2013</desc>
<defs>
</defs>
<rect x="0" y="0" width="567" height="328" fill="white"/>
<rect x="57" y="33" width="453" height="262" fill="white"/>
<rect x="57" y="33" width="453" height="262" fill="none" stroke="black"/>
<path d="M113,241v -5" fill="none" stroke="#000099"/>
<path d="M113,236v -5" fill="none" stroke="#000099"/>
<path d="M57,236h 56" fill="none" stroke="#000099"/>
<path d="M113,236h 57" fill="none" stroke="#000099"/>
<g stroke="black" stroke-width="1" fill="none">
<line x1="112" y1="236" x2="113" y2="236"/>
</g>
<path d="M227,283v -119" fill="none" stroke="#000099"/>
<path d="M227,164v -119" fill="none" stroke="#000099"/>
<path d="M170,164h 57" fill="none" stroke="#000099"/>
<path d="M227,164h 56" fill="none" stroke="#000099"/>
<g stroke="black" stroke-width="1" fill="none">
<line x1="226" y1="164" x2="227" y2="164"/>
</g>
<path d="M340,69v -3" fill="none" stroke="#000099"/>
<path d="M340,66v -3" fill="none" stroke="#000099"/>
<path d="M283,66h 57" fill="none" stroke="#000099"/>
<path d="M340,66h 57" fill="none" stroke="#000099"/>
<g stroke="black" stroke-width="1" fill="none">
<line x1="339" y1="66" x2="340" y2="66"/>
</g>
<path d="M454,157v -17" fill="none" stroke="#000099"/>
<path d="M454,140v -16" fill="none" stroke="#000099"/>
<path d="M397,140h 57" fill="none" stroke="#000099"/>
<path d="M454,140h 56" fill="none" stroke="#000099"/>
<g stroke="black" stroke-width="1" fill="none">
<line x1="453" y1="140" x2="454" y2="140"/>
</g>
<path d="M57,295h 453" fill="none" stroke="black"/>
<text x="462" y="317" fill="black" font-size="11" font-family="Helvetica">
Degrader
</text>
<text x="111" y="305" fill="black" font-size="7" font-family="Helvetica">
0
</text>
<text x="221" y="305" fill="black" font-size="7" font-family="Helvetica">
0.5
</text>
<text x="338" y="305" fill="black" font-size="7" font-family="Helvetica">
1
</text>
<text x="451" y="305" fill="black" font-size="7" font-family="Helvetica">
5
</text>
<path d="M57,287v 8" fill="none" stroke="black"/>
<path d="M170,287v 8" fill="none" stroke="black"/>
<path d="M283,287v 8" fill="none" stroke="black"/>
<path d="M397,287v 8" fill="none" stroke="black"/>
<path d="M510,287v 8" fill="none" stroke="black"/>
<path d="M57,295v -262" fill="none" stroke="black"/>
<g transform="rotate(-90,28,122)">
<text x="28" y="122" fill="black" font-size="11" font-family="Helvetica">
Muons per proton
</text>
</g>
<path d="M70,288h -13" fill="none" stroke="black"/>
<path d="M63,276h -6" fill="none" stroke="black"/>
<path d="M63,265h -6" fill="none" stroke="black"/>
<path d="M63,253h -6" fill="none" stroke="black"/>
<path d="M70,241h -13" fill="none" stroke="black"/>
<path d="M63,229h -6" fill="none" stroke="black"/>
<path d="M63,218h -6" fill="none" stroke="black"/>
<path d="M63,206h -6" fill="none" stroke="black"/>
<path d="M70,194h -13" fill="none" stroke="black"/>
<path d="M63,182h -6" fill="none" stroke="black"/>
<path d="M63,171h -6" fill="none" stroke="black"/>
<path d="M63,159h -6" fill="none" stroke="black"/>
<path d="M70,147h -13" fill="none" stroke="black"/>
<path d="M63,136h -6" fill="none" stroke="black"/>
<path d="M63,124h -6" fill="none" stroke="black"/>
<path d="M63,112h -6" fill="none" stroke="black"/>
<path d="M70,100h -13" fill="none" stroke="black"/>
<path d="M63,89h -6" fill="none" stroke="black"/>
<path d="M63,77h -6" fill="none" stroke="black"/>
<path d="M63,65h -6" fill="none" stroke="black"/>
<path d="M70,53h -13" fill="none" stroke="black"/>
<path d="M70,288h -13" fill="none" stroke="black"/>
<path d="M70,53h -13" fill="none" stroke="black"/>
<path d="M63,42h -6" fill="none" stroke="black"/>
<text x="44" y="292" fill="black" font-size="11" font-family="Helvetica">
-2
</text>
<text x="48" y="244" fill="black" font-size="11" font-family="Helvetica">
0
</text>
<text x="48" y="198" fill="black" font-size="11" font-family="Helvetica">
2
</text>
<text x="48" y="151" fill="black" font-size="11" font-family="Helvetica">
4
</text>
<text x="48" y="104" fill="black" font-size="11" font-family="Helvetica">
6
</text>
<text x="48" y="57" fill="black" font-size="11" font-family="Helvetica">
8
</text>
<text x="76" y="22" fill="black" font-size="7" font-family="Helvetica">
-6
</text>
<text x="64" y="31" fill="black" font-size="11" font-family="Helvetica">
10
</text>
<text x="57" y="31" fill="black" font-size="11" font-family="Times">
&#0215;
</text>
<text x="124" y="17" fill="black" font-size="17" font-family="Helvetica">
Simulated rate of muons decaying in cu
</text>
<rect x="442" y="21" width="114" height="40" fill="white"/>
<path d="M442,61h 114" fill="none" stroke="black"/>
<path d="M556,61v -40" fill="none" stroke="black"/>
<path d="M556,21h -114" fill="none" stroke="black"/>
<path d="M442,21v 40" fill="none" stroke="black"/>
<text x="448" y="46" fill="black" font-size="17" font-family="Helvetica">
Entries 
</text>
<text x="535" y="46" fill="black" font-size="17" font-family="Helvetica">
 4
</text>
<text x="124" y="17" fill="black" font-size="17" font-family="Helvetica">
Simulated rate of muons decaying in cu
</text></svg>
