<?xml version="1.0" standalone="no"?>
<svg width="567" height="385" viewBox="0 0 567 385" xmlns="http://www.w3.org/2000/svg">
<title>
images/analysis_tight/452_D5.svg
</title>
<desc>
Creator: ROOT Version 5.34/05
CreationDate: Mon Jun 10 21:59:04 2013</desc>
<defs>
</defs>
<rect x="0" y="0" width="567" height="385" fill="white"/>
<rect x="57" y="38" width="453" height="308" fill="white"/>
<rect x="57" y="38" width="453" height="308" fill="none" stroke="black"/>
<rect x="57" y="38" width="453" height="308" fill="white"/>
<rect x="57" y="38" width="453" height="308" fill="none" stroke="black"/>
<path d="M57,346h 45v -10h 1v -4v 6v -13v 16v -2h 1v 2v -7v 5v -1h 1v -2v 5v -13v 10h 1v -12v 13v -10h 1v 5v -6v 10v -12v 16v -3h 1v 2v -10v 8v -8h 1v 10v -3v 1v -11h 1v 14v -17v 17v -3h 1v 3v -8v 4h 1v 1v -8v 10h 1v -5v 3v -1v 1v -8v 4h 1v -7v 13v
 -2h 1v -8v 7v -7v 4h 1v 7v -10v 7h 1v -5v 8v -10v 6h 1v -10v 13v -3h 1v -4v 7v -3v 3v -5h 1v 8v -10v 5h 1v -7v 10v -7h 1v -1v 5v -7v 9v -3h 1v -16v 20v -13v 6h 1v 3v -13v 16h 1v -6v 4v -8v 4h 1v 4v -13v 13h 1v -8v 11v -19h 1v 15v -13v 9h 1v -5v 12v
 -3h 1v 4v -14v 6h 1v 4v -9v 9v -12h 1v 10v -8v 13h 1v -9v 7v -13h 1v 16v -8v 5h 1v -5v 5v -5v 5v -7h 1v 6v -6v 4h 1v 2v -3v 3v -3h 1v 3v -6h 1v 4v -5v 15v -14h 1v -4v 13v -7v 1h 1v 3v -9v 10v -7h 1v 7v -13v 16h 1v -4v 4v -7v 6h 1v -3v 1v -8v 5h 1v
 3v -10v 7v -10v 9h 1v -3v 6v -3v 6v -6h 1v 1v -4v 2v -5h 1v 7v -5v 8h 1v -8v 11v -11h 1v -8v 16v -5v 8v -4h 1v 7v -10v 6v -2h 1v -8v 11v -10v 6h 1v 1v -10v 10v -5h 1v -2v 4v -7v 9h 1v -7v 8v -3h 1v -7v 5v -2h 1v 4v -13v 12h 1v -7v 6v -5h 1v 13v -10v
 10v -7v 10h 1v -14v 4v -6v 9h 1v -6v 6v -9v 7h 1v -7v 10v -17h 1v 16v -6v 6h 1v 4v -13v 10v -4v 3h 1v -16v 13h 1v -6v 10v -16h 1v 13v -2v 4h 1v -12v 12v -10v 1h 1v 10v -17v 14h 1v 5v -18v 15v -3h 1v 7v -4h 1v 4v -10v 10v -21h 1v 14v -3v 6h 1v -9v
 13h 1v -4v 4v -16v 10h 1v 3v -4v 6v -5h 1v 6v -13v 10h 1v -4v 4v -13v 10v -4h 1v -3v 7v -8v 10h 1v 1v -4v 3v -6h 1v 9v -12v 16h 1v -10v 3v -13v 13v -2v 3h 1v -5v 7v -15v 3h 1v 10v -8v 7v -2h 1v -7v 6h 1v 4v -7v 7v -1h 1v -2v 6v -14v 4h 1v 6v -7v 5v
 -2h 1v -2v 7v -3v 3h 1v -8v 7v -2h 1v -4v 9v -7v 5h 1v -7v 9v -5h 1v -5v 7v -13v 13h 1v -4v 11v -10h 1v 4v -10v 9v -7h 1v 4v -4v 8h 1v -16v 15v -9v 10h 1v -13v 10h 1v -11v 16v -15h 1v 13v -4v 3v -13v 16h 1v -12v 9v -7v 3v -11h 1v 19v -19v 18h 1v
 -12v 7v -7h 1v 10v -8v 8h 1v 2v -6v 3v -6v 2v -6h 1v 13v -19v 9h 1v 8v -3v 3v -8h 1v 8v -8v 8v -5h 1v 2v -11v 14v -5h 1v -3v 13v -16v 8h 1v 3v -5h 1v -3v 11v -13v 7h 1v 2v -9v 10v -7v 9v -15h 1v 18v -16v 6h 1v 4v -7v 11v -8h 1v -3v 8v -7h 1v 4v -8v
 8h 1v -8v 7v -6v 5h 1v -2v 3v -3v 3v -6v 13h 1v -13v 12v -16h 1v 14v -8v 8v -1h 1v -4v 7v -12h 1v 9v -9v 12h 1v -20v 18v -13v 10h 1v -5v 8v -11v 10h 1v -4v 2v -1v 6h 1v -12v 7v -8h 1v -5v 11v -8v 6h 1v 12v -12h 1v -14v 21v -8v 10h 1v -7v 5v -11h 1v
 4v -4v 7v -3h 1v 7v -11v 4v -3h 1v -3v 10v -10h 1v 13v -17v 13h 1v 3v -13v 11v -8h 1v 8v -15v 11h 1v 3v -3v 4v -5v 5h 1v -2v 1v -10v 9h 1v -3v 10v -15h 1v 6v -6v 3v -1v 1h 1v 9v -9v 7v -13h 1v 16v -14h 1v 6v -5v 10v -2h 1v -11v 5h 1v 7v -10v 11h 1v
 -2v 4v -15v 13h 1v -11v 7v -11h 1v 11v -17v 19h 1v -8v 3v -3v 2h 1v 8v -11v 11v -10h 1v 13v -13v 6h 1v -10v 9v -12v 17h 1v -13v 12v -6v 5v -5h 1v 7v -10v 13h 1v -11v 11v -14v 7v -7v 6h 1v -12v 23v -23h 1v 17v -8v 6v -12v 12h 1v -15v 15v -8v 6v -7h
 1v 6v -6v 3v -6h 1v 10v -9h 1v 6v -8v 5v -3h 1v -2v 5v -1v 10v -17h 1v 14v -19v 15h 1v -10v 11v -7v 1h 1v -1v 10v -13v 10v -1h 1v -6v 4v -4v 7h 1v -6v 6v -10v 9h 1v -18v 8v -2h 1v 10v -17v 14v -8h 1v 1v -1v 14v -8v 8h 1v -29v 21h 1v 10v -22v 14v -4h
 1v 9v -19v 14v -14h 1v 14v -11v 14v -14h 1v 17v -27v 14h 1v -6v 8v -22v 27v -10v 3h 1v -14v 7v -1h 1v 4v -16v 9v -18h 1v -17v 6v -19h 1v -182h 1v 14v -36v 293h 1v -135v 16v -1v 1h 1v 36v -6v 3h 1v 30v -28v 23v -13h 1v 11v -10v 16v -7h 1v -12v 15v
 -9v 19v -8h 1v 13v -21v 11h 1v 12v -22v 19v -6v 2h 1v -3v 1v -17v 22v -9h 1v 17v -1v 7v -27v 23v -8h 1v -14v 26v -19v 19h 1v -12v 5v -9v 9v -9v 7h 1v -24v 27h 1v -1v 10v -23v 17v -13h 1v -14v 28v -11h 1v 10v -11v 20v -10v 7h 1v -26v 32v -25h 1v 23v
 -21v 25h 1v -31v 17v -20v 30h 1v -16v 10v -17v 22h 1v -13v 16v -15h 1v -4v 26v -22v 13v -4h 1v -5v 11v -6v 3h 1v -12v 9v -12v 5v -2h 1v 13v -11v 14h 1v 6v -6v 10v -22v 11h 1v -11v 8v -18v 13h 1v 5v -2v 5h 1v -12v 26v -22h 1v -5v 11v -4v 8h 1v -20v
 19v -13h 1v 16v -7v 3v -12v 19h 1v -10v 7v -2v 13v -23h 1v 19v -10h 1v 1v -1v 7v -11v 16v -13h 1v 5v -4v 6v -10h 1v 10v -3v 3v -10v 7v -2h 1v 2v -4v 7v -10h 1v 4v -7v 19v -19h 1v 14v -14v 6h 1v 5v -8v 16v -12h 1v -9v 21v -18h 1v 10v -7v 12h 1v -13v
 10v -7h 1v 13v -13v 4h 1v 4v -10v 7h 1v 5v -3v 4v -7h 1v 7v -10v 9v -12h 1v 4v -7v 20v -5v 3h 1v -11v 18v -13h 1v -2v 8v -5v 2v -10h 1v 8v -7v 7v -14h 1v 14v -1v 7v -10h 1v -10v 20v -19v 7h 1v 12v -9v 10h 1v -11v 11v -18h 1v 17v -6v 6h 1v -7v 10v
 -6v 2v -13h 1v 13v -9v 19h 1v -32v 19v -6h 1v 9v -3v 5v -13v 15h 1v -13v 16v -16h 1v -3v 10v -4v 3v -18v 22h 1v -13v 14v -8v 6h 1v -8v 13v -11v 1v -11v 21h 1v -10v 12v -15v 8h 1v -9v 9h 1v 7v -9v 3v -1h 1v -9v 11v -11v 16h 1v -18v 9v -7h 1v 11v -14v
 9h 1v -3v 8v -11v 10v -6h 1v 10v -7h 1v -4v 1v -6v 12v -1h 1v 1v -6h 1v 10v -10v 12v -13h 1v 10v -16v 12h 1v 5v -10v 3v -3v 3h 1v -1v 4v -9h 1v 8v -3v 7v -10v 3v -6h 1v 14v -10v 3h 1v 3v -6v 9v -4h 1v -18v 16v -6v 6h 1v -4v 13v -20v 17v -3h 1v -3v
 3v -7h 1v 11v -14v 10h 1v -14v 15v -5h 1v 5v -8v 7v -3h 1v -4v 11v -20h 1v 16v -7v 10h 1v -10v 6v -5v 13v -13h 1v -4v 13v -12v 15h 1v -13v 8v -7v 2v -2h 1v 9v -9v 7v -4v 4h 1v -5v 11v -11v 8h 1v -10v 6v -6v 10h 1v 2v -10v 7v -6h 1v -11v 18v -13v 13v
 -11h 1v 6v -5v 5h 1v -8v 10v -8v 4v -3h 1v 7v -1v 3h 1v -6v 10v -16v 16h 1v -8v 5v -4v 6h 1v -12v 13v -16v 12h 1v 1v -10v 9h 1v -13v 14v -10v 6h 1v -3v 6v -7h 1v 11v -7v 1h 1v 6v -6v 5v -9h 1v -1v 11v -13h 1v 12v -7v 5v -4v 3h 1v -6v 4v -10v 9h 1v
 3v -4v 12v -17h 1v -4v 10v -9v 12h 1v -6v 3v -4v 11v -6h 1v -8v 14v -10v 4v -1h 1v 7v -13v 7v -11h 1v 11v -1h 1v -1v 8v -10v 12v -8h 1v -4v 6v -2h 1v 9v -20v 11v -5h 1v 10v -12v 15h 1v -16v 11v -7h 1v 6v -4v 4v -2h 1v 2v -4v 7v -6v 9h 1v -15v 12v
 -18h 1v 19v -6v 3v -8v 11h 1v -19h 1v 16v -10v 12h 1v -15v 10v -7h 1v 12v -19v 19v -3h 1v -4v 8v -13v 2h 1v 7v -4v 2v -10v 12h 1v 7v -16v 6v -1h 1v -2v 4v -5v 10h 1v -12v 9v -9h 1v -1v 8v -2v 7h 1v -10v 5v -10v 15h 1v -9v 9v -16v 17h 1v -7v 7v -3h
 1v -8v 8v -7h 1v -9v 13v -2v 4h 1v -15v 19h 1v -20v 17v -8h 1v 8v -16v 15h 1v 4v -26v 20h 1v 3v -7v 3h 1v 3v -6v 4v -1h 1v -12v 19v -10v 12h 1v -9v 1v -14v 19v -2h 1v -10v 12v -20v 14h 1v -3v 3v -6v 9v -13h 1v 14v -13h 1v 15v -5v 2v -7v 5v -1h 1v
 -4v 13v -8v 6h 1v -10v 7v -7v 10h 1v -14v 11v -8h 1v 5v -13v 15h 1v -7v 7v -6v 7v -5h 1v 5v -13v 16h 1v -17v 17v -6v 2v -13h 1v 10v -10v 11v -15v 15h 1v 3v -8v 5v -2v 1h 1v 4v -16v 12v -10h 1v 11v -10h 1v 18v -16v 10v -3h 1v 3v -7v 13v -15h 1v 10v
 -3v 3h 1v -5v 8v -8h 1v 11v -26v 23v -16h 1v 3v -8v 18v -1h 1v -3v 1v -4v 3h 1v 4v -10v 9v -6v 12h 1v -15v 12v -16v 10h 1v 6v -10v 10v -6h 1v -9v 6h 1v 3v -4v 3v -2h 1v -6v 15v -7h 1v 10v -26v 23v -9h 1v 9v -5v 5h 1v -7v 1v -1v 7h 1v 1v -8v 4v -7h
 1v 10v -10v 8v -3h 1v -10v 13v -8v 7h 1v -3v 7v -16v 10h 1v -1v 4v -14v 7h 1v 7h 1v -7v 6v -6h 1v 9v -10v 8v -4v 3h 1v -2v 2v -4v 2v -7h 1v 13v -11v 3v -2h 1v -6v 12v -2v 5v -10h 1v 4v -7v 17v -9h 1v 5v -9h 1v 6v -7v 5v -1h 1v -3v 4v -2h 1v -2v 2v
 -2v 9h 1v -13v 16v -3h 1v -5v 3v -4v 6h 1v -3v 1v -7h 1v -4v 13v -10v 7h 1v -7v 3v -2v 4h 1v 6v -13h 1v 9v -6v 9v -12h 1v 12v -10v 11h 1v -10v 4v -4h 1v 2v -5v 13h 1v -10v 6v -10h 1v -10v 23v -16v 14v -10h 1v 13v -10v 7v -13h 1v 15v -5h 1v 5v -12v
 13v -6h 1v -2v 7v -12v 5h 1v 5v -7v 4v -1h 1v 3v -4v 7v -5v 2h 1v 4v -7v 9v -6h 1v -4v 11v -13v 6h 1v 1v -11v 17v -9h 1v -8v 10v -17v 15h 1v -2v 2h 1v -5v 5v -5v 1h 1v 9v -9v 4h 1v -11v 14v -13h 1v 12v -7v 7h 1v 3v -10v 4v -1v 7h 1v -9v 10h 1v -14v
 6v -3v 7h 1v -3v 1v -4v 6h 1v -23v 17" fill="none" stroke="#000099"/>
<path d="M284,262v 1" fill="none" stroke="#ff0000" stroke-width="2"/>
<path d="M285,263v 9" fill="none" stroke="#ff0000" stroke-width="2"/>
<path d="M285,272v 7" fill="none" stroke="#ff0000" stroke-width="2"/>
<path d="M286,280v 5" fill="none" stroke="#ff0000" stroke-width="2"/>
<path d="M287,283v 5" fill="none" stroke="#ff0000" stroke-width="2"/>
<path d="M288,286v 5" fill="none" stroke="#ff0000" stroke-width="2"/>
<path d="M289,289v 3" fill="none" stroke="#ff0000" stroke-width="2"/>
<path d="M289,292v 3" fill="none" stroke="#ff0000" stroke-width="2"/>
<path d="M290,294v 3" fill="none" stroke="#ff0000" stroke-width="2"/>
<path d="M291,295v 4" fill="none" stroke="#ff0000" stroke-width="2"/>
<path d="M292,296v 3" fill="none" stroke="#ff0000" stroke-width="2"/>
<path d="M293,298v 3" fill="none" stroke="#ff0000" stroke-width="2"/>
<path d="M293,299v 4" fill="none" stroke="#ff0000" stroke-width="2"/>
<path d="M294,300v 4" fill="none" stroke="#ff0000" stroke-width="2"/>
<path d="M295,301v 3" fill="none" stroke="#ff0000" stroke-width="2"/>
<path d="M296,302v 3" fill="none" stroke="#ff0000" stroke-width="2"/>
<path d="M297,304v 2" fill="none" stroke="#ff0000" stroke-width="2"/>
<path d="M298,304v 4" fill="none" stroke="#ff0000" stroke-width="2"/>
<path d="M298,305v 3" fill="none" stroke="#ff0000" stroke-width="2"/>
<path d="M299,306v 3" fill="none" stroke="#ff0000" stroke-width="2"/>
<path d="M300,307v 3" fill="none" stroke="#ff0000" stroke-width="2"/>
<path d="M301,308v 3" fill="none" stroke="#ff0000" stroke-width="2"/>
<path d="M302,308v 4" fill="none" stroke="#ff0000" stroke-width="2"/>
<path d="M302,309v 4" fill="none" stroke="#ff0000" stroke-width="2"/>
<path d="M303,310v 3" fill="none" stroke="#ff0000" stroke-width="2"/>
<path d="M304,311v 3" fill="none" stroke="#ff0000" stroke-width="2"/>
<path d="M305,312v 2" fill="none" stroke="#ff0000" stroke-width="2"/>
<path d="M306,313v 3" fill="none" stroke="#ff0000" stroke-width="2"/>
<path d="M307,313v 3" fill="none" stroke="#ff0000" stroke-width="2"/>
<path d="M307,313v 4" fill="none" stroke="#ff0000" stroke-width="2"/>
<path d="M308,314v 3" fill="none" stroke="#ff0000" stroke-width="2"/>
<path d="M309,315v 2" fill="none" stroke="#ff0000" stroke-width="2"/>
<path d="M310,315v 3" fill="none" stroke="#ff0000" stroke-width="2"/>
<path d="M311,316v 3" fill="none" stroke="#ff0000" stroke-width="2"/>
<path d="M311,317v 2" fill="none" stroke="#ff0000" stroke-width="2"/>
<path d="M312,317v 3" fill="none" stroke="#ff0000" stroke-width="2"/>
<path d="M313,317v 3" fill="none" stroke="#ff0000" stroke-width="2"/>
<path d="M314,318v 3" fill="none" stroke="#ff0000" stroke-width="2"/>
<path d="M315,318v 3" fill="none" stroke="#ff0000" stroke-width="2"/>
<path d="M315,319v 2" fill="none" stroke="#ff0000" stroke-width="2"/>
<path d="M316,319v 3" fill="none" stroke="#ff0000" stroke-width="2"/>
<path d="M317,320v 2" fill="none" stroke="#ff0000" stroke-width="2"/>
<path d="M318,320v 3" fill="none" stroke="#ff0000" stroke-width="2"/>
<path d="M319,321v 2" fill="none" stroke="#ff0000" stroke-width="2"/>
<path d="M320,321v 3" fill="none" stroke="#ff0000" stroke-width="2"/>
<path d="M320,321v 3" fill="none" stroke="#ff0000" stroke-width="2"/>
<path d="M321,321v 4" fill="none" stroke="#ff0000" stroke-width="2"/>
<path d="M322,322v 3" fill="none" stroke="#ff0000" stroke-width="2"/>
<path d="M323,322v 4" fill="none" stroke="#ff0000" stroke-width="2"/>
<path d="M324,322v 4" fill="none" stroke="#ff0000" stroke-width="2"/>
<path d="M324,323v 3" fill="none" stroke="#ff0000" stroke-width="2"/>
<path d="M325,323v 3" fill="none" stroke="#ff0000" stroke-width="2"/>
<path d="M326,324v 2" fill="none" stroke="#ff0000" stroke-width="2"/>
<path d="M327,324v 3" fill="none" stroke="#ff0000" stroke-width="2"/>
<path d="M328,324v 3" fill="none" stroke="#ff0000" stroke-width="2"/>
<path d="M329,325v 2" fill="none" stroke="#ff0000" stroke-width="2"/>
<path d="M329,325v 3" fill="none" stroke="#ff0000" stroke-width="2"/>
<path d="M330,325v 3" fill="none" stroke="#ff0000" stroke-width="2"/>
<path d="M331,326v 2" fill="none" stroke="#ff0000" stroke-width="2"/>
<path d="M332,326v 2" fill="none" stroke="#ff0000" stroke-width="2"/>
<path d="M333,326v 3" fill="none" stroke="#ff0000" stroke-width="2"/>
<path d="M333,326v 3" fill="none" stroke="#ff0000" stroke-width="2"/>
<path d="M334,326v 3" fill="none" stroke="#ff0000" stroke-width="2"/>
<path d="M335,326v 4" fill="none" stroke="#ff0000" stroke-width="2"/>
<path d="M336,326v 4" fill="none" stroke="#ff0000" stroke-width="2"/>
<path d="M337,327v 3" fill="none" stroke="#ff0000" stroke-width="2"/>
<path d="M337,327v 3" fill="none" stroke="#ff0000" stroke-width="2"/>
<path d="M338,327v 3" fill="none" stroke="#ff0000" stroke-width="2"/>
<path d="M339,327v 3" fill="none" stroke="#ff0000" stroke-width="2"/>
<path d="M340,327v 3" fill="none" stroke="#ff0000" stroke-width="2"/>
<path d="M341,328v 2" fill="none" stroke="#ff0000" stroke-width="2"/>
<path d="M342,328v 2" fill="none" stroke="#ff0000" stroke-width="2"/>
<path d="M342,328v 3" fill="none" stroke="#ff0000" stroke-width="2"/>
<path d="M343,328v 3" fill="none" stroke="#ff0000" stroke-width="2"/>
<path d="M344,328v 3" fill="none" stroke="#ff0000" stroke-width="2"/>
<path d="M345,329v 2" fill="none" stroke="#ff0000" stroke-width="2"/>
<path d="M346,329v 2" fill="none" stroke="#ff0000" stroke-width="2"/>
<path d="M346,329v 3" fill="none" stroke="#ff0000" stroke-width="2"/>
<path d="M347,329v 3" fill="none" stroke="#ff0000" stroke-width="2"/>
<path d="M348,329v 3" fill="none" stroke="#ff0000" stroke-width="2"/>
<path d="M349,329v 3" fill="none" stroke="#ff0000" stroke-width="2"/>
<path d="M350,330v 2" fill="none" stroke="#ff0000" stroke-width="2"/>
<path d="M351,330v 2" fill="none" stroke="#ff0000" stroke-width="2"/>
<path d="M351,330v 2" fill="none" stroke="#ff0000" stroke-width="2"/>
<path d="M352,330v 2" fill="none" stroke="#ff0000" stroke-width="2"/>
<path d="M353,330v 3" fill="none" stroke="#ff0000" stroke-width="2"/>
<path d="M354,330v 3" fill="none" stroke="#ff0000" stroke-width="2"/>
<path d="M355,330v 3" fill="none" stroke="#ff0000" stroke-width="2"/>
<path d="M355,330v 3" fill="none" stroke="#ff0000" stroke-width="2"/>
<path d="M356,330v 3" fill="none" stroke="#ff0000" stroke-width="2"/>
<path d="M357,330v 3" fill="none" stroke="#ff0000" stroke-width="2"/>
<path d="M358,330v 3" fill="none" stroke="#ff0000" stroke-width="2"/>
<path d="M359,330v 3" fill="none" stroke="#ff0000" stroke-width="2"/>
<path d="M359,330v 4" fill="none" stroke="#ff0000" stroke-width="2"/>
<path d="M360,330v 4" fill="none" stroke="#ff0000" stroke-width="2"/>
<path d="M361,330v 4" fill="none" stroke="#ff0000" stroke-width="2"/>
<path d="M362,330v 4" fill="none" stroke="#ff0000" stroke-width="2"/>
<path d="M363,330v 4" fill="none" stroke="#ff0000" stroke-width="2"/>
<path d="M364,330v 4" fill="none" stroke="#ff0000" stroke-width="2"/>
<path d="M364,331v 3" fill="none" stroke="#ff0000" stroke-width="2"/>
<path d="M365,331v 3" fill="none" stroke="#ff0000" stroke-width="2"/>
<path d="M366,331v 3" fill="none" stroke="#ff0000" stroke-width="2"/>
<path d="M367,331v 3" fill="none" stroke="#ff0000" stroke-width="2"/>
<path d="M368,331v 3" fill="none" stroke="#ff0000" stroke-width="2"/>
<path d="M368,331v 3" fill="none" stroke="#ff0000" stroke-width="2"/>
<path d="M369,331v 3" fill="none" stroke="#ff0000" stroke-width="2"/>
<path d="M370,331v 3" fill="none" stroke="#ff0000" stroke-width="2"/>
<path d="M371,331v 3" fill="none" stroke="#ff0000" stroke-width="2"/>
<path d="M372,331v 3" fill="none" stroke="#ff0000" stroke-width="2"/>
<path d="M372,331v 3" fill="none" stroke="#ff0000" stroke-width="2"/>
<path d="M373,331v 3" fill="none" stroke="#ff0000" stroke-width="2"/>
<path d="M374,331v 3" fill="none" stroke="#ff0000" stroke-width="2"/>
<path d="M375,331v 3" fill="none" stroke="#ff0000" stroke-width="2"/>
<path d="M376,332v 2" fill="none" stroke="#ff0000" stroke-width="2"/>
<path d="M377,332v 2" fill="none" stroke="#ff0000" stroke-width="2"/>
<path d="M377,332v 2" fill="none" stroke="#ff0000" stroke-width="2"/>
<path d="M378,332v 2" fill="none" stroke="#ff0000" stroke-width="2"/>
<path d="M379,332v 2" fill="none" stroke="#ff0000" stroke-width="2"/>
<path d="M380,332v 2" fill="none" stroke="#ff0000" stroke-width="2"/>
<path d="M381,332v 2" fill="none" stroke="#ff0000" stroke-width="2"/>
<path d="M381,332v 2" fill="none" stroke="#ff0000" stroke-width="2"/>
<path d="M382,332v 2" fill="none" stroke="#ff0000" stroke-width="2"/>
<path d="M383,332v 2" fill="none" stroke="#ff0000" stroke-width="2"/>
<path d="M384,332v 3" fill="none" stroke="#ff0000" stroke-width="2"/>
<path d="M385,332v 3" fill="none" stroke="#ff0000" stroke-width="2"/>
<path d="M386,332v 3" fill="none" stroke="#ff0000" stroke-width="2"/>
<path d="M386,332v 3" fill="none" stroke="#ff0000" stroke-width="2"/>
<path d="M387,332v 3" fill="none" stroke="#ff0000" stroke-width="2"/>
<path d="M388,332v 3" fill="none" stroke="#ff0000" stroke-width="2"/>
<path d="M389,332v 3" fill="none" stroke="#ff0000" stroke-width="2"/>
<path d="M390,332v 3" fill="none" stroke="#ff0000" stroke-width="2"/>
<path d="M390,332v 3" fill="none" stroke="#ff0000" stroke-width="2"/>
<path d="M391,332v 3" fill="none" stroke="#ff0000" stroke-width="2"/>
<path d="M392,332v 3" fill="none" stroke="#ff0000" stroke-width="2"/>
<path d="M393,332v 3" fill="none" stroke="#ff0000" stroke-width="2"/>
<path d="M394,332v 3" fill="none" stroke="#ff0000" stroke-width="2"/>
<path d="M394,332v 3" fill="none" stroke="#ff0000" stroke-width="2"/>
<path d="M395,332v 3" fill="none" stroke="#ff0000" stroke-width="2"/>
<path d="M396,332v 3" fill="none" stroke="#ff0000" stroke-width="2"/>
<path d="M397,332v 3" fill="none" stroke="#ff0000" stroke-width="2"/>
<path d="M398,333v 2" fill="none" stroke="#ff0000" stroke-width="2"/>
<path d="M399,333v 2" fill="none" stroke="#ff0000" stroke-width="2"/>
<path d="M399,333v 2" fill="none" stroke="#ff0000" stroke-width="2"/>
<path d="M400,333v 2" fill="none" stroke="#ff0000" stroke-width="2"/>
<path d="M401,333v 2" fill="none" stroke="#ff0000" stroke-width="2"/>
<path d="M402,333v 2" fill="none" stroke="#ff0000" stroke-width="2"/>
<path d="M403,333v 2" fill="none" stroke="#ff0000" stroke-width="2"/>
<path d="M403,333v 2" fill="none" stroke="#ff0000" stroke-width="2"/>
<path d="M404,333v 2" fill="none" stroke="#ff0000" stroke-width="2"/>
<path d="M405,333v 2" fill="none" stroke="#ff0000" stroke-width="2"/>
<path d="M406,333v 2" fill="none" stroke="#ff0000" stroke-width="2"/>
<path d="M407,333v 2" fill="none" stroke="#ff0000" stroke-width="2"/>
<path d="M408,333v 2" fill="none" stroke="#ff0000" stroke-width="2"/>
<path d="M408,333v 2" fill="none" stroke="#ff0000" stroke-width="2"/>
<path d="M409,333v 2" fill="none" stroke="#ff0000" stroke-width="2"/>
<path d="M410,333v 2" fill="none" stroke="#ff0000" stroke-width="2"/>
<path d="M411,333v 2" fill="none" stroke="#ff0000" stroke-width="2"/>
<path d="M412,333v 2" fill="none" stroke="#ff0000" stroke-width="2"/>
<path d="M412,333v 2" fill="none" stroke="#ff0000" stroke-width="2"/>
<path d="M413,333v 2" fill="none" stroke="#ff0000" stroke-width="2"/>
<path d="M414,333v 2" fill="none" stroke="#ff0000" stroke-width="2"/>
<path d="M415,333v 2" fill="none" stroke="#ff0000" stroke-width="2"/>
<path d="M416,333v 2" fill="none" stroke="#ff0000" stroke-width="2"/>
<path d="M416,333v 2" fill="none" stroke="#ff0000" stroke-width="2"/>
<path d="M417,333v 2" fill="none" stroke="#ff0000" stroke-width="2"/>
<path d="M418,333v 2" fill="none" stroke="#ff0000" stroke-width="2"/>
<path d="M419,333v 2" fill="none" stroke="#ff0000" stroke-width="2"/>
<path d="M420,333v 2" fill="none" stroke="#ff0000" stroke-width="2"/>
<path d="M421,333v 2" fill="none" stroke="#ff0000" stroke-width="2"/>
<path d="M421,333v 2" fill="none" stroke="#ff0000" stroke-width="2"/>
<path d="M422,333v 2" fill="none" stroke="#ff0000" stroke-width="2"/>
<path d="M423,333v 3" fill="none" stroke="#ff0000" stroke-width="2"/>
<path d="M424,333v 3" fill="none" stroke="#ff0000" stroke-width="2"/>
<path d="M425,333v 3" fill="none" stroke="#ff0000" stroke-width="2"/>
<path d="M425,333v 3" fill="none" stroke="#ff0000" stroke-width="2"/>
<path d="M426,333v 3" fill="none" stroke="#ff0000" stroke-width="2"/>
<path d="M427,333v 3" fill="none" stroke="#ff0000" stroke-width="2"/>
<path d="M428,333v 3" fill="none" stroke="#ff0000" stroke-width="2"/>
<path d="M429,333v 3" fill="none" stroke="#ff0000" stroke-width="2"/>
<path d="M430,333v 3" fill="none" stroke="#ff0000" stroke-width="2"/>
<path d="M430,333v 3" fill="none" stroke="#ff0000" stroke-width="2"/>
<path d="M431,333v 3" fill="none" stroke="#ff0000" stroke-width="2"/>
<path d="M432,333v 3" fill="none" stroke="#ff0000" stroke-width="2"/>
<path d="M433,333v 3" fill="none" stroke="#ff0000" stroke-width="2"/>
<path d="M434,333v 3" fill="none" stroke="#ff0000" stroke-width="2"/>
<path d="M434,333v 3" fill="none" stroke="#ff0000" stroke-width="2"/>
<path d="M435,333v 3" fill="none" stroke="#ff0000" stroke-width="2"/>
<path d="M436,333v 3" fill="none" stroke="#ff0000" stroke-width="2"/>
<path d="M437,333v 3" fill="none" stroke="#ff0000" stroke-width="2"/>
<path d="M438,333v 3" fill="none" stroke="#ff0000" stroke-width="2"/>
<path d="M438,333v 3" fill="none" stroke="#ff0000" stroke-width="2"/>
<path d="M439,333v 3" fill="none" stroke="#ff0000" stroke-width="2"/>
<path d="M440,333v 3" fill="none" stroke="#ff0000" stroke-width="2"/>
<path d="M441,333v 3" fill="none" stroke="#ff0000" stroke-width="2"/>
<path d="M442,333v 3" fill="none" stroke="#ff0000" stroke-width="2"/>
<path d="M443,333v 3" fill="none" stroke="#ff0000" stroke-width="2"/>
<path d="M443,333v 3" fill="none" stroke="#ff0000" stroke-width="2"/>
<path d="M444,333v 3" fill="none" stroke="#ff0000" stroke-width="2"/>
<path d="M445,333v 3" fill="none" stroke="#ff0000" stroke-width="2"/>
<path d="M446,333v 3" fill="none" stroke="#ff0000" stroke-width="2"/>
<path d="M447,333v 3" fill="none" stroke="#ff0000" stroke-width="2"/>
<path d="M447,333v 3" fill="none" stroke="#ff0000" stroke-width="2"/>
<path d="M448,333v 3" fill="none" stroke="#ff0000" stroke-width="2"/>
<path d="M449,333v 3" fill="none" stroke="#ff0000" stroke-width="2"/>
<path d="M450,333v 3" fill="none" stroke="#ff0000" stroke-width="2"/>
<path d="M451,333v 3" fill="none" stroke="#ff0000" stroke-width="2"/>
<path d="M452,333v 3" fill="none" stroke="#ff0000" stroke-width="2"/>
<path d="M452,333v 3" fill="none" stroke="#ff0000" stroke-width="2"/>
<path d="M453,333v 3" fill="none" stroke="#ff0000" stroke-width="2"/>
<path d="M454,333v 3" fill="none" stroke="#ff0000" stroke-width="2"/>
<path d="M455,333v 3" fill="none" stroke="#ff0000" stroke-width="2"/>
<path d="M456,333v 3" fill="none" stroke="#ff0000" stroke-width="2"/>
<path d="M456,333v 3" fill="none" stroke="#ff0000" stroke-width="2"/>
<path d="M457,333v 3" fill="none" stroke="#ff0000" stroke-width="2"/>
<path d="M458,333v 3" fill="none" stroke="#ff0000" stroke-width="2"/>
<path d="M459,333v 3" fill="none" stroke="#ff0000" stroke-width="2"/>
<path d="M460,333v 3" fill="none" stroke="#ff0000" stroke-width="2"/>
<path d="M460,333v 3" fill="none" stroke="#ff0000" stroke-width="2"/>
<path d="M461,333v 3" fill="none" stroke="#ff0000" stroke-width="2"/>
<path d="M462,333v 3" fill="none" stroke="#ff0000" stroke-width="2"/>
<path d="M463,333v 3" fill="none" stroke="#ff0000" stroke-width="2"/>
<path d="M464,333v 3" fill="none" stroke="#ff0000" stroke-width="2"/>
<path d="M465,333v 3" fill="none" stroke="#ff0000" stroke-width="2"/>
<path d="M465,333v 3" fill="none" stroke="#ff0000" stroke-width="2"/>
<path d="M466,333v 3" fill="none" stroke="#ff0000" stroke-width="2"/>
<path d="M467,333v 3" fill="none" stroke="#ff0000" stroke-width="2"/>
<path d="M468,333v 3" fill="none" stroke="#ff0000" stroke-width="2"/>
<path d="M469,333v 3" fill="none" stroke="#ff0000" stroke-width="2"/>
<path d="M469,333v 3" fill="none" stroke="#ff0000" stroke-width="2"/>
<path d="M470,333v 3" fill="none" stroke="#ff0000" stroke-width="2"/>
<path d="M471,333v 3" fill="none" stroke="#ff0000" stroke-width="2"/>
<path d="M472,333v 3" fill="none" stroke="#ff0000" stroke-width="2"/>
<path d="M473,333v 3" fill="none" stroke="#ff0000" stroke-width="2"/>
<path d="M473,333v 3" fill="none" stroke="#ff0000" stroke-width="2"/>
<path d="M474,333v 3" fill="none" stroke="#ff0000" stroke-width="2"/>
<path d="M475,333v 3" fill="none" stroke="#ff0000" stroke-width="2"/>
<path d="M476,333v 3" fill="none" stroke="#ff0000" stroke-width="2"/>
<path d="M477,333v 3" fill="none" stroke="#ff0000" stroke-width="2"/>
<path d="M478,333v 3" fill="none" stroke="#ff0000" stroke-width="2"/>
<path d="M478,333v 3" fill="none" stroke="#ff0000" stroke-width="2"/>
<path d="M479,333v 3" fill="none" stroke="#ff0000" stroke-width="2"/>
<path d="M480,333v 3" fill="none" stroke="#ff0000" stroke-width="2"/>
<path d="M481,333v 3" fill="none" stroke="#ff0000" stroke-width="2"/>
<path d="M482,333v 3" fill="none" stroke="#ff0000" stroke-width="2"/>
<path d="M482,333v 3" fill="none" stroke="#ff0000" stroke-width="2"/>
<path d="M483,333v 3" fill="none" stroke="#ff0000" stroke-width="2"/>
<path d="M484,333v 3" fill="none" stroke="#ff0000" stroke-width="2"/>
<path d="M485,333v 3" fill="none" stroke="#ff0000" stroke-width="2"/>
<path d="M486,333v 3" fill="none" stroke="#ff0000" stroke-width="2"/>
<path d="M487,333v 3" fill="none" stroke="#ff0000" stroke-width="2"/>
<path d="M487,333v 3" fill="none" stroke="#ff0000" stroke-width="2"/>
<path d="M488,333v 3" fill="none" stroke="#ff0000" stroke-width="2"/>
<path d="M489,333v 3" fill="none" stroke="#ff0000" stroke-width="2"/>
<path d="M490,333v 3" fill="none" stroke="#ff0000" stroke-width="2"/>
<path d="M491,333v 3" fill="none" stroke="#ff0000" stroke-width="2"/>
<path d="M491,333v 3" fill="none" stroke="#ff0000" stroke-width="2"/>
<path d="M492,333v 3" fill="none" stroke="#ff0000" stroke-width="2"/>
<path d="M493,333v 3" fill="none" stroke="#ff0000" stroke-width="2"/>
<path d="M494,333v 3" fill="none" stroke="#ff0000" stroke-width="2"/>
<path d="M495,333v 3" fill="none" stroke="#ff0000" stroke-width="2"/>
<path d="M495,333v 3" fill="none" stroke="#ff0000" stroke-width="2"/>
<path d="M496,333v 3" fill="none" stroke="#ff0000" stroke-width="2"/>
<path d="M497,333v 3" fill="none" stroke="#ff0000" stroke-width="2"/>
<path d="M498,333v 3" fill="none" stroke="#ff0000" stroke-width="2"/>
<path d="M499,333v 3" fill="none" stroke="#ff0000" stroke-width="2"/>
<path d="M500,333v 3" fill="none" stroke="#ff0000" stroke-width="2"/>
<path d="M500,333v 3" fill="none" stroke="#ff0000" stroke-width="2"/>
<path d="M501,333v 3" fill="none" stroke="#ff0000" stroke-width="2"/>
<path d="M502,333v 3" fill="none" stroke="#ff0000" stroke-width="2"/>
<path d="M503,333v 3" fill="none" stroke="#ff0000" stroke-width="2"/>
<path d="M504,333v 3" fill="none" stroke="#ff0000" stroke-width="2"/>
<path d="M504,333v 3" fill="none" stroke="#ff0000" stroke-width="2"/>
<path d="M505,333v 3" fill="none" stroke="#ff0000" stroke-width="2"/>
<path d="M506,333v 3" fill="none" stroke="#ff0000" stroke-width="2"/>
<path d="M507,333v 3" fill="none" stroke="#ff0000" stroke-width="2"/>
<path d="M508,333v 3" fill="none" stroke="#ff0000" stroke-width="2"/>
<path d="M509,333v 3" fill="none" stroke="#ff0000" stroke-width="2"/>
<path d="M509,333v 3" fill="none" stroke="#ff0000" stroke-width="2"/>
<path d="M510,333v 2" fill="none" stroke="#ff0000" stroke-width="2"/>
<path d="M284,262l 1, 5v 8l 1, 7l 1, 4l 1, 2l 1, 3v 3l 1, 1l 1, 2l 1, 1l 1, 1v 2l 1, 1l 1, 1l 1, 1h 1l 1, 2v 1l 1, 1h 1l 1, 1l 1, 1v 1l 1, 1l 1, 1h 1l 1, 1h 1v 1l 1, 1h 1l 1, 1h 1l 1, 1h 1l 1, 1l 1, 1l 1, 1h 3l 1, 1l 1, 1h 1l 1, 1h 1l 1, 1h 1l 1, 1h
 5l 1, 1h 1l 1, 1h 2l 1, 1h 4v 1h 10l 1, 1h 6v 1h 9l 1, 1h 14l 1, 1h 126" fill="none" stroke="#ff0000" stroke-width="2"/>
<rect x="351" y="25" width="205" height="154" fill="white"/>
<path d="M351,179h 205" fill="none" stroke="black"/>
<path d="M556,179v -154" fill="none" stroke="black"/>
<path d="M556,25h -205" fill="none" stroke="black"/>
<path d="M351,25v 154" fill="none" stroke="black"/>
<text x="362" y="38" fill="black" font-size="14" font-family="Helvetica">
Entries 
</text>
<text x="498" y="38" fill="black" font-size="14" font-family="Helvetica">
 26930
</text>
<text x="374" y="58" fill="black" font-size="14" font-family="Helvetica">
 / ndf 
</text>
<text x="369" y="45" fill="black" font-size="10" font-family="Helvetica">
2
</text>
<text x="362" y="58" fill="black" font-size="14" font-family="Times">
&#0967;
</text>
<text x="455" y="55" fill="black" font-size="14" font-family="Helvetica">
  2558 / 1240
</text>
<text x="382" y="68" fill="black" font-size="14" font-family="Helvetica">
   
</text>
<text x="372" y="77" fill="black" font-size="10" font-family="Helvetica">
cu
</text>
<text x="362" y="68" fill="black" font-size="14" font-family="Helvetica">
N
</text>
<text x="511" y="74" fill="black" font-size="14" font-family="Helvetica">
 6.72
</text>
<text x="499" y="74" fill="black" font-size="14" font-family="Times">
&#0177;
</text>
<text x="451" y="74" fill="black" font-size="14" font-family="Helvetica">
 22.65 
</text>
<text x="377" y="87" fill="black" font-size="14" font-family="Helvetica">
 
</text>
<text x="367" y="97" fill="black" font-size="10" font-family="Helvetica">
cu
</text>
<text x="362" y="87" fill="black" font-size="14" font-family="Times">
&#0964;
</text>
<text x="511" y="91" fill="black" font-size="14" font-family="Helvetica">
 82.6
</text>
<text x="499" y="91" fill="black" font-size="14" font-family="Times">
&#0177;
</text>
<text x="451" y="91" fill="black" font-size="14" font-family="Helvetica">
 199.1 
</text>
<text x="375" y="102" fill="black" font-size="14" font-family="Helvetica">
    
</text>
<text x="372" y="111" fill="black" font-size="10" font-family="Helvetica">
f
</text>
<text x="362" y="102" fill="black" font-size="14" font-family="Helvetica">
N
</text>
<text x="511" y="108" fill="black" font-size="14" font-family="Helvetica">
 1.75
</text>
<text x="499" y="108" fill="black" font-size="14" font-family="Times">
&#0177;
</text>
<text x="451" y="108" fill="black" font-size="14" font-family="Helvetica">
 34.28 
</text>
<text x="370" y="121" fill="black" font-size="14" font-family="Helvetica">
 
</text>
<text x="367" y="131" fill="black" font-size="10" font-family="Helvetica">
f
</text>
<text x="362" y="121" fill="black" font-size="14" font-family="Times">
&#0964;
</text>
<text x="503" y="125" fill="black" font-size="14" font-family="Helvetica">
 110.8
</text>
<text x="491" y="125" fill="black" font-size="14" font-family="Times">
&#0177;
</text>
<text x="444" y="125" fill="black" font-size="14" font-family="Helvetica">
  2289 
</text>
<text x="384" y="137" fill="black" font-size="14" font-family="Helvetica">
  
</text>
<text x="372" y="146" fill="black" font-size="10" font-family="Helvetica">
sin
</text>
<text x="362" y="137" fill="black" font-size="14" font-family="Helvetica">
N
</text>
<text x="520" y="142" fill="black" font-size="14" font-family="Helvetica">
 0.0
</text>
<text x="507" y="142" fill="black" font-size="14" font-family="Times">
&#0177;
</text>
<text x="473" y="142" fill="black" font-size="14" font-family="Helvetica">
     1 
</text>
<text x="362" y="158" fill="black" font-size="14" font-family="Helvetica">
T        
</text>
<text x="511" y="159" fill="black" font-size="14" font-family="Helvetica">
 0.01
</text>
<text x="499" y="159" fill="black" font-size="14" font-family="Times">
&#0177;
</text>
<text x="451" y="159" fill="black" font-size="14" font-family="Helvetica">
 59.58 
</text>
<text x="377" y="171" fill="black" font-size="14" font-family="Helvetica">
    
</text>
<text x="372" y="180" fill="black" font-size="10" font-family="Helvetica">
b
</text>
<text x="362" y="171" fill="black" font-size="14" font-family="Helvetica">
N
</text>
<text x="503" y="176" fill="black" font-size="14" font-family="Helvetica">
 0.119
</text>
<text x="491" y="176" fill="black" font-size="14" font-family="Times">
&#0177;
</text>
<text x="444" y="176" fill="black" font-size="14" font-family="Helvetica">
 8.027 
</text>
<path d="M57,346h 453" fill="none" stroke="black"/>
<text x="419" y="372" fill="black" font-size="12" font-family="Helvetica">
TDC-TDC0 (ns)
</text>
<path d="M57,337v 9" fill="none" stroke="black"/>
<path d="M68,342v 4" fill="none" stroke="black"/>
<path d="M79,342v 4" fill="none" stroke="black"/>
<path d="M91,342v 4" fill="none" stroke="black"/>
<path d="M102,342v 4" fill="none" stroke="black"/>
<path d="M113,337v 9" fill="none" stroke="black"/>
<path d="M125,342v 4" fill="none" stroke="black"/>
<path d="M136,342v 4" fill="none" stroke="black"/>
<path d="M147,342v 4" fill="none" stroke="black"/>
<path d="M159,342v 4" fill="none" stroke="black"/>
<path d="M170,337v 9" fill="none" stroke="black"/>
<path d="M181,342v 4" fill="none" stroke="black"/>
<path d="M193,342v 4" fill="none" stroke="black"/>
<path d="M204,342v 4" fill="none" stroke="black"/>
<path d="M215,342v 4" fill="none" stroke="black"/>
<path d="M227,337v 9" fill="none" stroke="black"/>
<path d="M238,342v 4" fill="none" stroke="black"/>
<path d="M249,342v 4" fill="none" stroke="black"/>
<path d="M261,342v 4" fill="none" stroke="black"/>
<path d="M272,342v 4" fill="none" stroke="black"/>
<path d="M283,337v 9" fill="none" stroke="black"/>
<path d="M295,342v 4" fill="none" stroke="black"/>
<path d="M306,342v 4" fill="none" stroke="black"/>
<path d="M317,342v 4" fill="none" stroke="black"/>
<path d="M329,342v 4" fill="none" stroke="black"/>
<path d="M340,337v 9" fill="none" stroke="black"/>
<path d="M351,342v 4" fill="none" stroke="black"/>
<path d="M363,342v 4" fill="none" stroke="black"/>
<path d="M374,342v 4" fill="none" stroke="black"/>
<path d="M386,342v 4" fill="none" stroke="black"/>
<path d="M397,337v 9" fill="none" stroke="black"/>
<path d="M408,342v 4" fill="none" stroke="black"/>
<path d="M420,342v 4" fill="none" stroke="black"/>
<path d="M431,342v 4" fill="none" stroke="black"/>
<path d="M442,342v 4" fill="none" stroke="black"/>
<path d="M454,337v 9" fill="none" stroke="black"/>
<path d="M465,342v 4" fill="none" stroke="black"/>
<path d="M476,342v 4" fill="none" stroke="black"/>
<path d="M488,342v 4" fill="none" stroke="black"/>
<path d="M499,342v 4" fill="none" stroke="black"/>
<path d="M510,337v 9" fill="none" stroke="black"/>
<text x="36" y="359" fill="black" font-size="12" font-family="Helvetica">
-20000
</text>
<text x="93" y="359" fill="black" font-size="12" font-family="Helvetica">
-15000
</text>
<text x="149" y="359" fill="black" font-size="12" font-family="Helvetica">
-10000
</text>
<text x="210" y="359" fill="black" font-size="12" font-family="Helvetica">
-5000
</text>
<text x="280" y="359" fill="black" font-size="12" font-family="Helvetica">
0
</text>
<text x="325" y="359" fill="black" font-size="12" font-family="Helvetica">
5000
</text>
<text x="379" y="359" fill="black" font-size="12" font-family="Helvetica">
10000
</text>
<text x="435" y="359" fill="black" font-size="12" font-family="Helvetica">
15000
</text>
<text x="492" y="359" fill="black" font-size="12" font-family="Helvetica">
20000
</text>
<path d="M57,346v -308" fill="none" stroke="black"/>
<g transform="rotate(-90,29,72)">
<text x="29" y="72" fill="black" font-size="12" font-family="Helvetica">
Count
</text>
</g>
<path d="M70,346h -13" fill="none" stroke="black"/>
<path d="M63,339h -6" fill="none" stroke="black"/>
<path d="M63,332h -6" fill="none" stroke="black"/>
<path d="M63,325h -6" fill="none" stroke="black"/>
<path d="M70,318h -13" fill="none" stroke="black"/>
<path d="M63,310h -6" fill="none" stroke="black"/>
<path d="M63,303h -6" fill="none" stroke="black"/>
<path d="M63,296h -6" fill="none" stroke="black"/>
<path d="M70,289h -13" fill="none" stroke="black"/>
<path d="M63,282h -6" fill="none" stroke="black"/>
<path d="M63,275h -6" fill="none" stroke="black"/>
<path d="M63,267h -6" fill="none" stroke="black"/>
<path d="M70,260h -13" fill="none" stroke="black"/>
<path d="M63,253h -6" fill="none" stroke="black"/>
<path d="M63,246h -6" fill="none" stroke="black"/>
<path d="M63,239h -6" fill="none" stroke="black"/>
<path d="M70,231h -13" fill="none" stroke="black"/>
<path d="M63,224h -6" fill="none" stroke="black"/>
<path d="M63,217h -6" fill="none" stroke="black"/>
<path d="M63,210h -6" fill="none" stroke="black"/>
<path d="M70,203h -13" fill="none" stroke="black"/>
<path d="M63,195h -6" fill="none" stroke="black"/>
<path d="M63,188h -6" fill="none" stroke="black"/>
<path d="M63,181h -6" fill="none" stroke="black"/>
<path d="M70,174h -13" fill="none" stroke="black"/>
<path d="M63,167h -6" fill="none" stroke="black"/>
<path d="M63,159h -6" fill="none" stroke="black"/>
<path d="M63,152h -6" fill="none" stroke="black"/>
<path d="M70,145h -13" fill="none" stroke="black"/>
<path d="M63,138h -6" fill="none" stroke="black"/>
<path d="M63,131h -6" fill="none" stroke="black"/>
<path d="M63,123h -6" fill="none" stroke="black"/>
<path d="M70,116h -13" fill="none" stroke="black"/>
<path d="M63,109h -6" fill="none" stroke="black"/>
<path d="M63,102h -6" fill="none" stroke="black"/>
<path d="M63,95h -6" fill="none" stroke="black"/>
<path d="M70,87h -13" fill="none" stroke="black"/>
<path d="M63,80h -6" fill="none" stroke="black"/>
<path d="M63,73h -6" fill="none" stroke="black"/>
<path d="M63,66h -6" fill="none" stroke="black"/>
<path d="M70,59h -13" fill="none" stroke="black"/>
<path d="M70,59h -13" fill="none" stroke="black"/>
<path d="M63,51h -6" fill="none" stroke="black"/>
<path d="M63,44h -6" fill="none" stroke="black"/>
<text x="47" y="350" fill="black" font-size="12" font-family="Helvetica">
0
</text>
<text x="40" y="321" fill="black" font-size="12" font-family="Helvetica">
20
</text>
<text x="40" y="293" fill="black" font-size="12" font-family="Helvetica">
40
</text>
<text x="40" y="264" fill="black" font-size="12" font-family="Helvetica">
60
</text>
<text x="40" y="235" fill="black" font-size="12" font-family="Helvetica">
80
</text>
<text x="33" y="207" fill="black" font-size="12" font-family="Helvetica">
100
</text>
<text x="33" y="177" fill="black" font-size="12" font-family="Helvetica">
120
</text>
<text x="33" y="149" fill="black" font-size="12" font-family="Helvetica">
140
</text>
<text x="33" y="120" fill="black" font-size="12" font-family="Helvetica">
160
</text>
<text x="33" y="91" fill="black" font-size="12" font-family="Helvetica">
180
</text>
<text x="33" y="62" fill="black" font-size="12" font-family="Helvetica">
200
</text>
<rect x="351" y="25" width="205" height="154" fill="white"/>
<path d="M351,179h 205" fill="none" stroke="black"/>
<path d="M556,179v -154" fill="none" stroke="black"/>
<path d="M556,25h -205" fill="none" stroke="black"/>
<path d="M351,25v 154" fill="none" stroke="black"/>
<text x="362" y="38" fill="black" font-size="14" font-family="Helvetica">
Entries 
</text>
<text x="498" y="38" fill="black" font-size="14" font-family="Helvetica">
 26930
</text>
<text x="374" y="58" fill="black" font-size="14" font-family="Helvetica">
 / ndf 
</text>
<text x="369" y="45" fill="black" font-size="10" font-family="Helvetica">
2
</text>
<text x="362" y="58" fill="black" font-size="14" font-family="Times">
&#0967;
</text>
<text x="455" y="55" fill="black" font-size="14" font-family="Helvetica">
  2558 / 1240
</text>
<text x="382" y="68" fill="black" font-size="14" font-family="Helvetica">
   
</text>
<text x="372" y="77" fill="black" font-size="10" font-family="Helvetica">
cu
</text>
<text x="362" y="68" fill="black" font-size="14" font-family="Helvetica">
N
</text>
<text x="511" y="74" fill="black" font-size="14" font-family="Helvetica">
 6.72
</text>
<text x="499" y="74" fill="black" font-size="14" font-family="Times">
&#0177;
</text>
<text x="451" y="74" fill="black" font-size="14" font-family="Helvetica">
 22.65 
</text>
<text x="377" y="87" fill="black" font-size="14" font-family="Helvetica">
 
</text>
<text x="367" y="97" fill="black" font-size="10" font-family="Helvetica">
cu
</text>
<text x="362" y="87" fill="black" font-size="14" font-family="Times">
&#0964;
</text>
<text x="511" y="91" fill="black" font-size="14" font-family="Helvetica">
 82.6
</text>
<text x="499" y="91" fill="black" font-size="14" font-family="Times">
&#0177;
</text>
<text x="451" y="91" fill="black" font-size="14" font-family="Helvetica">
 199.1 
</text>
<text x="375" y="102" fill="black" font-size="14" font-family="Helvetica">
    
</text>
<text x="372" y="111" fill="black" font-size="10" font-family="Helvetica">
f
</text>
<text x="362" y="102" fill="black" font-size="14" font-family="Helvetica">
N
</text>
<text x="511" y="108" fill="black" font-size="14" font-family="Helvetica">
 1.75
</text>
<text x="499" y="108" fill="black" font-size="14" font-family="Times">
&#0177;
</text>
<text x="451" y="108" fill="black" font-size="14" font-family="Helvetica">
 34.28 
</text>
<text x="370" y="121" fill="black" font-size="14" font-family="Helvetica">
 
</text>
<text x="367" y="131" fill="black" font-size="10" font-family="Helvetica">
f
</text>
<text x="362" y="121" fill="black" font-size="14" font-family="Times">
&#0964;
</text>
<text x="503" y="125" fill="black" font-size="14" font-family="Helvetica">
 110.8
</text>
<text x="491" y="125" fill="black" font-size="14" font-family="Times">
&#0177;
</text>
<text x="444" y="125" fill="black" font-size="14" font-family="Helvetica">
  2289 
</text>
<text x="384" y="137" fill="black" font-size="14" font-family="Helvetica">
  
</text>
<text x="372" y="146" fill="black" font-size="10" font-family="Helvetica">
sin
</text>
<text x="362" y="137" fill="black" font-size="14" font-family="Helvetica">
N
</text>
<text x="520" y="142" fill="black" font-size="14" font-family="Helvetica">
 0.0
</text>
<text x="507" y="142" fill="black" font-size="14" font-family="Times">
&#0177;
</text>
<text x="473" y="142" fill="black" font-size="14" font-family="Helvetica">
     1 
</text>
<text x="362" y="158" fill="black" font-size="14" font-family="Helvetica">
T        
</text>
<text x="511" y="159" fill="black" font-size="14" font-family="Helvetica">
 0.01
</text>
<text x="499" y="159" fill="black" font-size="14" font-family="Times">
&#0177;
</text>
<text x="451" y="159" fill="black" font-size="14" font-family="Helvetica">
 59.58 
</text>
<text x="377" y="171" fill="black" font-size="14" font-family="Helvetica">
    
</text>
<text x="372" y="180" fill="black" font-size="10" font-family="Helvetica">
b
</text>
<text x="362" y="171" fill="black" font-size="14" font-family="Helvetica">
N
</text>
<text x="503" y="176" fill="black" font-size="14" font-family="Helvetica">
 0.119
</text>
<text x="491" y="176" fill="black" font-size="14" font-family="Times">
&#0177;
</text>
<text x="444" y="176" fill="black" font-size="14" font-family="Helvetica">
 8.027 
</text>
<text x="270" y="21" fill="black" font-size="21" font-family="Helvetica">
D5
</text></svg>
