<?xml version="1.0" standalone="no"?>
<svg width="567" height="385" viewBox="0 0 567 385" xmlns="http://www.w3.org/2000/svg">
<title>
images/analysis_tight/458_D4.svg
</title>
<desc>
Creator: ROOT Version 5.34/05
CreationDate: Mon Jun 10 22:00:33 2013</desc>
<defs>
</defs>
<rect x="0" y="0" width="567" height="385" fill="white"/>
<rect x="57" y="38" width="453" height="308" fill="white"/>
<rect x="57" y="38" width="453" height="308" fill="none" stroke="black"/>
<rect x="57" y="38" width="453" height="308" fill="white"/>
<rect x="57" y="38" width="453" height="308" fill="none" stroke="black"/>
<path d="M57,346h 43v -1h 1v 1v -3v 3v -1v 1h 1v -1v 1v -5h 1v 5v -5v 2v -2v 5v -5h 1v 5v -13h 1v 12v -10v 8v -3h 1v -5v 8v -3h 1v -4v 7v -3v 5v -2h 1v -3v 5v -12h 1v 13v -13v 12h 1v -5v 5v -4v 4v -10h 1v 5v -5v 8v -3h 1v -2v 2v -2v 3h 1v -3v 7v -10v
 5v -2h 1v 7v -5h 1v 1v -3v 5h 1v -8v 10v -7h 1v 3v -1v 1v -3v 2h 1v 5v -14v 12v -2h 1v -6v 10v -10v 8h 1v -3v 3h 1v -5v 3v -1v 5h 1v 1v -10v 7v -3h 1v -5v 6v -5v 4h 1v -4v 7v -7v 7h 1v -10v 8v -3v 5h 1v 2v -7v 5v -10v 2h 1v 10v -7h 1v 7v -9h 1v -1v
 8v -5v 8v -10h 1v 10v -15v 14v -9h 1v 5v -3v 5h 1v -7v 5h 1v -5v 10v -8h 1v 8v -6v 5v -5h 1v 6v -8v 5v -7h 1v 7v -12v 12h 1v -3v 5v -5v 3h 1v -7v 9v -9v 5h 1v -5v 9v -5v 3h 1v -7v 7v -2v 5h 1v -15v 9v -12h 1v 13v -3v 5h 1v 2v -10v 10v -5v 1h 1v 4v
 -10v 6h 1v -5v 7v -3h 1v 5v -10v 8h 1v -12v 12v -10h 1v 10v -2v 4h 1v -7v 5h 1v 2v -7v 8v -6v 3h 1v -10v 10v -2h 1v -5v 10v -8v 3v -1h 1v 3v -3v 6v -5h 1v -8v 12v -5v 6h 1v -8h 1v 5v -3v 5v -7v 2h 1v -9v 15h 1v -15v 10v -10v 7h 1v 3v -5v 4h 1v -5v
 10v -7v 5h 1v -5v 5v -2h 1v -8v 8v -6v 5v -4h 1v 5v -3v 7h 1v -7v 5v -7v 5h 1v -1v 1v -3v 7h 1v -10v 6v -10h 1v 14v -15v 13h 1v -15v 13v -1v 1v -3v 3h 1v 5v -5v 5v -6h 1v -2v 7v -10v 6v -6h 1v 10v -9v 7h 1v -12v 15v -13h 1v 12v -5v 3v -7v 10h 1v
 -16v 16v -5v 2v -7h 1v 7v -12v 7v -3v 10h 1v -4v 5v -11h 1v 6v -6v 8h 1v -7v 9v -9h 1v 5v -5v 5h 1v -3v 7v -7h 1v 5v -12v 14h 1v -7v 7v -4v 4v -7h 1v 5v -7v 7h 1v -10v 7v -2h 1v -3v 5v -4v 5v -1h 1v 1v -1v 1v -10h 1v 12v -3v 5v -5h 1v 5v -5v 3v -7h
 1v 7v -5v 5v -12v 10h 1v -3v 7h 1v -7v 3v -6v 8h 1v -7v 7v -2h 1v -5v 7v -2h 1v 4v -14v 14v -9h 1v -3v 8v -5v 4h 1v 3v -5v 2h 1v -2v 7v -10v 6h 1v -5v 4h 1v -2v 3v -8v 10h 1v -8v 6h 1v -13v 17v -4v 2h 1v -10v 12v -7v 3v -1h 1v -4v 5v -13v 5h 1v 7v
 -5v 8h 1v -3v 1v -5v 5v -5v 5h 1v -3v 2v -4v 5h 1v -8v 12v -5h 1v 1v -6v 10h 1v -10v 8v -8h 1v 8v -3v 3v -3h 1v 3v -5v 8v -10h 1v -1v 5h 1v 1v -10v 10v -6v 3h 1v 8v -5h 1v -6v 10v -10v 8v -8h 1v 5v -9v 4v -4h 1v 5v -10v 17v -10h 1v -2v 9v -7h 1v 8v
 -6v 3h 1v 5v -5v 3h 1v -6v 8v -8v 5h 1v -9v 12v -12v 9h 1v 5v -14v 10v -5h 1v -3v 10v -3h 1v 1v -8v 10v -3v 3h 1v -12v 10v -6v 6v -1h 1v 1v -5v 4v -4v 2h 1v -7v 12v -8v 5h 1v 5v -20v 11v -1h 1v -4v 12v -15v 5h 1v 10v -10v 8v -5h 1v -1v 6v -5v 2h 1v
 -7v 7v -3h 1v 1v -1v 8v -5h 1v 7v -12v 8h 1v -6v 5v -4v 2h 1v 2v -14v 17h 1v -12v 4v -4v 7h 1v 3v -13v 13h 1v -11v 13v -12h 1v 4v -7v 13h 1v -10v 10v -16v 6h 1v 12v -10v 3h 1v -1v 3v -5v 2v -9h 1v 15v -15v 12h 1v 7v -17v 10v -7v 10h 1v -3v 2h 1v
 -10v 1v -13h 1v 22v -7v 2h 1v 1v -6v 11v -16h 1v 10v -2h 1v -8v 16v -10h 1v 4v -7v 13v -5v 2h 1v -2v 2v -7v 4h 1v -2v 5v -5h 1v -3v 3v -5v 10v -10v 10h 1v -8v 5v -7v 3v -5h 1v 9v -10v 10v -7h 1v 2v -11v 2h 1v 14v -9v 14h 1v -12v 12v -14v 4h 1v 1v
 -10v 12v -7h 1v -5v 14v -26v 21h 1v 3v -3v 8v -15h 1v 10v -3v 3v -5h 1v 5v -5v 2v -9v 9h 1v 3v -7v 9v -19v 10h 1v -15v 15h 1v -10v 10v -5h 1v 9v -7v 17h 1v -24v 19v -24v 14h 1v 3v -7v 4v -4h 1v -7v 16v -16h 1v 5v -5v 12h 1v -8v 5v -7v 10h 1v -10v
 12v -2h 1v -13v 17v -16v 4h 1v 8v -10v 7v -10h 1v 13v -17v 7h 1v -7v 14v -15v 11v -5h 1v -10v 26v -32v 10h 1v -4v 2v -3v 43h 1v -293v 121h 1v 59v -8v 30h 1v -13v 30v -28h 1v -6v 38v -16h 1v -6v 22v -21v 31v -7h 1v 2v -7v 8v -17h 1v 24v -8v 13v -17h
 1v -3v 15v -27v 32v -29h 1v 27v -21v 8v -2h 1v 9v -22h 1v 35v -15v 14v -19h 1v 22v -17v 15v -23h 1v 23v -18v 20v -12h 1v 17v -30v 25h 1v -3v 3v -17h 1v 17v -12v 14h 1v -12v 13v -15v 22v -5h 1v -8v 8v -8v 15v -12h 1v 2v -16v 19v -2h 1v -10v 9h 1v 8v
 -25v 13v -3v 3v -3h 1v -14v 24v -14v 16h 1v -2v 3v -3v 17h 1v -22v 2v -5v 21h 1v -16v 8v -7v 4h 1v 11v -10v 5v -15h 1v 20v -30v 30h 1v -18v 13v -5v 5h 1v -8v 12v -4v 9h 1v -15v 8v -7v 14v -7v 7h 1v -4v 7v -22v 9h 1v 6v -6v 17v -27h 1v 8v -3v 17v
 -14v 12h 1v 2v -4v 9v -12h 1v 5v -5v 8h 1v -18v 17v -12h 1v 20v -22v 20h 1v -20v 14v -6h 1v -11v 27h 1v -16v 12v -6v 1h 1v -23v 27v -7v 10h 1v -20v 10h 1v -2v 7v -5v 12h 1v -4v 2v -10v 13v -13v 5h 1v 3v -8h 1v -2v 4v -12v 23v -5h 1v -5v 7h 1v 3v
 -17v 16v -9h 1v -1v 8v -10v 8h 1v -6v 3h 1v -12v 12v -3v 6h 1v -8v 15v -7v 5v -22h 1v 19v -12v 17h 1v -10v 10v -10h 1v 12v -15v 16v -10h 1v 4v -10v 11v -8v 2h 1v 5v -19v 15h 1v 7v -5v 3v -8h 1v -5v 12v -4h 1v 2v -10v 10v -7v 15h 1v -13v 12v -10v 1h
 1v 4v -2v 8v -5h 1v -8v 7v -7v 7h 1v 8v -20v 12h 1v -4v 7v -15h 1v 13v -1v 5h 1v -14v 10v -5v 5h 1v -1v 6v -10v 7v -10v 10h 1v -17v 20v -8h 1v 5v -12v 12h 1v -12v 14v -10v 10h 1v -9v 7v -3h 1v 3v -7v 7v -7h 1v 7v -5v 7h 1v -7v 12v -9h 1v 4v -4v 2v
 -3h 1v 1v -8v 12v -5h 1v 6v -11v 6h 1v 2v -5v 8v -11v 5h 1v 10v -9v 9h 1v -7v 3v -8v 5h 1v -8v 6v -1v 6h 1v -8h 1v 8v -13v 13h 1v 2v -12v 14v -4h 1v -11v 8v -10v 15v -7h 1v 7v -24v 17h 1v -3v 5v -2h 1v 7v -7v 7v -10v 2h 1v 6v -1v 5h 1v -15v 10h 1v
 -4v 7v -8h 1v 5v -5v 10h 1v -17v 15v -3h 1v 1v -8v 8v -1h 1v -4v 7v -12v 7h 1v 3v -5v 7h 1v -8v 6v -8h 1v 10v -7v 10h 1v -13v 7v -2v 2v -4h 1v 7v -8v 6h 1v 4v -10v 6v -1h 1v 3v -8v 5h 1v -5v 10h 1v -7v 3v -5v 5h 1v -11v 10v -2h 1v 5v -5v 5h 1v -5v
 2v -9h 1v 10v -5v 5v -3v 3h 1v -6v 8v -7v 5v -6h 1v 5v -10v 10h 1v 3v -7v 9v -2h 1v -7v 7h 1v -10v 8v -1v 3h 1v -2v 4v -9v 9h 1v -10v 10v -12v 2h 1v 10v -7v 3v -10v 15h 1v -8v 5v -7v 7h 1v -12v 12v -8h 1v 6v -5v 5v -8v 7h 1v -4v 10v -11v 3h 1v 3v
 -6v 6v -3h 1v 7v -9h 1v 4v -4v 9v -12h 1v 5v -5v 7v -4h 1v 7v -8v 10v -9h 1v -3v 7v -7v 2h 1v 10v -5v 5v -2h 1v -12v 12v -8v 1h 1v 5v -10v 14v -7h 1v 3v -5v 5v -3h 1v 7v -12v 8v -1h 1v 1v -5v 5h 1v -3v 5v -8v 10v -5h 1v -2v 7v -9h 1v 5v -8v 7h 1v
 -2v 2v -2h 1v 7v -5v 1h 1v 2v -10v 8v -5h 1v 5v -1v 3h 1v -8v 11v -11h 1v 10v -7v 2v -2h 1v 2v -2v 7v -5h 1v 3v -2v 2v -8v 5h 1v 3v -7v 9v -7h 1v -7v 10v -8v 5h 1v 3v -6v 10h 1v -7v 3v -1v 3h 1v 3v -11v 10v -2h 1v -7v 7v -8h 1v 8v -7v 7v -5h 1v 2v
 -5v 10h 1v -10v 3v -3v 5h 1v 1v -3v 3h 1v -1v 1v -1v 5h 1v -9v 7v -3v 1v -1h 1v -2v 5v -8v 6h 1v 2v -10v 8h 1v -6v 5h 1v -2v 7v -10v 5h 1v 5v -2v 2v -7h 1v -3v 6v -1v 3v -10h 1v 12v -9v 9v -4h 1v -3v 7v -10v 6h 1v -8v 8v -1h 1v 6v -11h 1v 10v -10v
 5v -2v 2h 1v -2v 3v -5v 2h 1v 7v -5v 1h 1v -10v 12v -2h 1v 4v -10v 11h 1v -10v 7v -10h 1v 8v -6v 10v -5h 1v -2v 7h 1v -7v 5v -5v 5h 1v -7v 7v -3h 1v 6v -8v 7h 1v -7v 7v -9h 1v -1v 10v -7v 2h 1v -12v 13v -1h 1v 3v -15v 13h 1v -3v 5h 1v -12v 12v -5v
 3h 1v 5v -5v 2v -12h 1v 14v -7v 3h 1v 4v -5v 3v -3h 1v 3v -2v 2v -10v 7h 1v 5v -9v 5h 1v -5v 9v -17v 15h 1v -3v 3v -5h 1v -5v 10v -10v 8h 1v -3v 3v -3v 5v -2h 1v -6v 8v -7h 1v 9v -7v 2v -7h 1v 12v -9h 1v 10v -11v 10v -2h 1v -7v 9v -9h 1v 7v -7v 7v
 -5h 1v 7v -5h 1v 3v -5v 7v -4h 1v 2v -2v 4v -5v 3h 1v -7v 7h 1v -5v 5v -3h 1v 5v -5v 5v -4h 1v -5v 5v -3v 2v -9h 1v 12v -2v 4h 1v -7v 5v -2h 1v -6v 8v -5v 7h 1v -7v 7v -2h 1v -2v 2v -2h 1v 4v -4h 1v 2v -12v 10h 1v -6v 6v -6h 1v 11v -8v 3h 1v 2v -2v
 2v -10h 1v 10v -3v 1h 1v -8v 7v -2h 1v -8v 11v -3v 7h 1v -9v 4v -5v 5h 1v -4v 10v -15v 9h 1v 1v -6v 6v -3h 1v -2v 7v -7v 9h 1v -5v 5v -5h 1v -5v 1v -3h 1v 7v -5v 10v -7h 1v -8v 11v -3v 2h 1v 3v -3v 5v -9h 1v 4v -2v 5" fill="none" stroke="#000099"/>
<path d="M284,229v 4" fill="none" stroke="#ff0000" stroke-width="2"/>
<path d="M285,233v 18" fill="none" stroke="#ff0000" stroke-width="2"/>
<path d="M285,251v 12" fill="none" stroke="#ff0000" stroke-width="2"/>
<path d="M286,262v 7" fill="none" stroke="#ff0000" stroke-width="2"/>
<path d="M287,266v 6" fill="none" stroke="#ff0000" stroke-width="2"/>
<path d="M288,269v 6" fill="none" stroke="#ff0000" stroke-width="2"/>
<path d="M289,272v 5" fill="none" stroke="#ff0000" stroke-width="2"/>
<path d="M289,275v 5" fill="none" stroke="#ff0000" stroke-width="2"/>
<path d="M290,277v 5" fill="none" stroke="#ff0000" stroke-width="2"/>
<path d="M291,279v 5" fill="none" stroke="#ff0000" stroke-width="2"/>
<path d="M292,280v 6" fill="none" stroke="#ff0000" stroke-width="2"/>
<path d="M293,282v 5" fill="none" stroke="#ff0000" stroke-width="2"/>
<path d="M293,285v 5" fill="none" stroke="#ff0000" stroke-width="2"/>
<path d="M294,286v 5" fill="none" stroke="#ff0000" stroke-width="2"/>
<path d="M295,287v 5" fill="none" stroke="#ff0000" stroke-width="2"/>
<path d="M296,289v 5" fill="none" stroke="#ff0000" stroke-width="2"/>
<path d="M297,291v 4" fill="none" stroke="#ff0000" stroke-width="2"/>
<path d="M298,293v 5" fill="none" stroke="#ff0000" stroke-width="2"/>
<path d="M298,294v 5" fill="none" stroke="#ff0000" stroke-width="2"/>
<path d="M299,295v 4" fill="none" stroke="#ff0000" stroke-width="2"/>
<path d="M300,296v 5" fill="none" stroke="#ff0000" stroke-width="2"/>
<path d="M301,298v 4" fill="none" stroke="#ff0000" stroke-width="2"/>
<path d="M302,299v 5" fill="none" stroke="#ff0000" stroke-width="2"/>
<path d="M302,300v 5" fill="none" stroke="#ff0000" stroke-width="2"/>
<path d="M303,301v 5" fill="none" stroke="#ff0000" stroke-width="2"/>
<path d="M304,302v 5" fill="none" stroke="#ff0000" stroke-width="2"/>
<path d="M305,304v 4" fill="none" stroke="#ff0000" stroke-width="2"/>
<path d="M306,305v 4" fill="none" stroke="#ff0000" stroke-width="2"/>
<path d="M307,306v 5" fill="none" stroke="#ff0000" stroke-width="2"/>
<path d="M307,307v 5" fill="none" stroke="#ff0000" stroke-width="2"/>
<path d="M308,308v 5" fill="none" stroke="#ff0000" stroke-width="2"/>
<path d="M309,309v 4" fill="none" stroke="#ff0000" stroke-width="2"/>
<path d="M310,310v 4" fill="none" stroke="#ff0000" stroke-width="2"/>
<path d="M311,310v 5" fill="none" stroke="#ff0000" stroke-width="2"/>
<path d="M311,311v 5" fill="none" stroke="#ff0000" stroke-width="2"/>
<path d="M312,313v 4" fill="none" stroke="#ff0000" stroke-width="2"/>
<path d="M313,313v 5" fill="none" stroke="#ff0000" stroke-width="2"/>
<path d="M314,314v 4" fill="none" stroke="#ff0000" stroke-width="2"/>
<path d="M315,314v 5" fill="none" stroke="#ff0000" stroke-width="2"/>
<path d="M315,315v 5" fill="none" stroke="#ff0000" stroke-width="2"/>
<path d="M316,317v 4" fill="none" stroke="#ff0000" stroke-width="2"/>
<path d="M317,317v 4" fill="none" stroke="#ff0000" stroke-width="2"/>
<path d="M318,317v 5" fill="none" stroke="#ff0000" stroke-width="2"/>
<path d="M319,318v 4" fill="none" stroke="#ff0000" stroke-width="2"/>
<path d="M320,318v 5" fill="none" stroke="#ff0000" stroke-width="2"/>
<path d="M320,319v 5" fill="none" stroke="#ff0000" stroke-width="2"/>
<path d="M321,320v 5" fill="none" stroke="#ff0000" stroke-width="2"/>
<path d="M322,321v 4" fill="none" stroke="#ff0000" stroke-width="2"/>
<path d="M323,321v 5" fill="none" stroke="#ff0000" stroke-width="2"/>
<path d="M324,321v 5" fill="none" stroke="#ff0000" stroke-width="2"/>
<path d="M324,322v 4" fill="none" stroke="#ff0000" stroke-width="2"/>
<path d="M325,322v 5" fill="none" stroke="#ff0000" stroke-width="2"/>
<path d="M326,323v 4" fill="none" stroke="#ff0000" stroke-width="2"/>
<path d="M327,323v 5" fill="none" stroke="#ff0000" stroke-width="2"/>
<path d="M328,324v 4" fill="none" stroke="#ff0000" stroke-width="2"/>
<path d="M329,325v 4" fill="none" stroke="#ff0000" stroke-width="2"/>
<path d="M329,325v 4" fill="none" stroke="#ff0000" stroke-width="2"/>
<path d="M330,325v 5" fill="none" stroke="#ff0000" stroke-width="2"/>
<path d="M331,326v 4" fill="none" stroke="#ff0000" stroke-width="2"/>
<path d="M332,326v 4" fill="none" stroke="#ff0000" stroke-width="2"/>
<path d="M333,326v 4" fill="none" stroke="#ff0000" stroke-width="2"/>
<path d="M333,326v 5" fill="none" stroke="#ff0000" stroke-width="2"/>
<path d="M334,327v 4" fill="none" stroke="#ff0000" stroke-width="2"/>
<path d="M335,327v 4" fill="none" stroke="#ff0000" stroke-width="2"/>
<path d="M336,328v 4" fill="none" stroke="#ff0000" stroke-width="2"/>
<path d="M337,328v 4" fill="none" stroke="#ff0000" stroke-width="2"/>
<path d="M337,328v 5" fill="none" stroke="#ff0000" stroke-width="2"/>
<path d="M338,329v 4" fill="none" stroke="#ff0000" stroke-width="2"/>
<path d="M339,329v 4" fill="none" stroke="#ff0000" stroke-width="2"/>
<path d="M340,329v 5" fill="none" stroke="#ff0000" stroke-width="2"/>
<path d="M341,330v 4" fill="none" stroke="#ff0000" stroke-width="2"/>
<path d="M342,330v 4" fill="none" stroke="#ff0000" stroke-width="2"/>
<path d="M342,330v 4" fill="none" stroke="#ff0000" stroke-width="2"/>
<path d="M343,330v 4" fill="none" stroke="#ff0000" stroke-width="2"/>
<path d="M344,330v 4" fill="none" stroke="#ff0000" stroke-width="2"/>
<path d="M345,330v 5" fill="none" stroke="#ff0000" stroke-width="2"/>
<path d="M346,330v 5" fill="none" stroke="#ff0000" stroke-width="2"/>
<path d="M346,331v 4" fill="none" stroke="#ff0000" stroke-width="2"/>
<path d="M347,331v 4" fill="none" stroke="#ff0000" stroke-width="2"/>
<path d="M348,331v 5" fill="none" stroke="#ff0000" stroke-width="2"/>
<path d="M349,331v 5" fill="none" stroke="#ff0000" stroke-width="2"/>
<path d="M350,332v 4" fill="none" stroke="#ff0000" stroke-width="2"/>
<path d="M351,332v 4" fill="none" stroke="#ff0000" stroke-width="2"/>
<path d="M351,332v 5" fill="none" stroke="#ff0000" stroke-width="2"/>
<path d="M352,332v 5" fill="none" stroke="#ff0000" stroke-width="2"/>
<path d="M353,333v 4" fill="none" stroke="#ff0000" stroke-width="2"/>
<path d="M354,333v 4" fill="none" stroke="#ff0000" stroke-width="2"/>
<path d="M355,333v 4" fill="none" stroke="#ff0000" stroke-width="2"/>
<path d="M355,333v 5" fill="none" stroke="#ff0000" stroke-width="2"/>
<path d="M356,333v 5" fill="none" stroke="#ff0000" stroke-width="2"/>
<path d="M357,333v 5" fill="none" stroke="#ff0000" stroke-width="2"/>
<path d="M358,334v 4" fill="none" stroke="#ff0000" stroke-width="2"/>
<path d="M359,334v 4" fill="none" stroke="#ff0000" stroke-width="2"/>
<path d="M359,334v 4" fill="none" stroke="#ff0000" stroke-width="2"/>
<path d="M360,334v 4" fill="none" stroke="#ff0000" stroke-width="2"/>
<path d="M361,334v 5" fill="none" stroke="#ff0000" stroke-width="2"/>
<path d="M362,334v 5" fill="none" stroke="#ff0000" stroke-width="2"/>
<path d="M363,334v 5" fill="none" stroke="#ff0000" stroke-width="2"/>
<path d="M364,334v 5" fill="none" stroke="#ff0000" stroke-width="2"/>
<path d="M364,334v 5" fill="none" stroke="#ff0000" stroke-width="2"/>
<path d="M365,334v 5" fill="none" stroke="#ff0000" stroke-width="2"/>
<path d="M366,334v 5" fill="none" stroke="#ff0000" stroke-width="2"/>
<path d="M367,334v 5" fill="none" stroke="#ff0000" stroke-width="2"/>
<path d="M368,334v 5" fill="none" stroke="#ff0000" stroke-width="2"/>
<path d="M368,334v 5" fill="none" stroke="#ff0000" stroke-width="2"/>
<path d="M369,334v 5" fill="none" stroke="#ff0000" stroke-width="2"/>
<path d="M370,335v 4" fill="none" stroke="#ff0000" stroke-width="2"/>
<path d="M371,335v 4" fill="none" stroke="#ff0000" stroke-width="2"/>
<path d="M372,335v 4" fill="none" stroke="#ff0000" stroke-width="2"/>
<path d="M372,335v 4" fill="none" stroke="#ff0000" stroke-width="2"/>
<path d="M373,335v 4" fill="none" stroke="#ff0000" stroke-width="2"/>
<path d="M374,335v 4" fill="none" stroke="#ff0000" stroke-width="2"/>
<path d="M375,335v 5" fill="none" stroke="#ff0000" stroke-width="2"/>
<path d="M376,335v 5" fill="none" stroke="#ff0000" stroke-width="2"/>
<path d="M377,335v 5" fill="none" stroke="#ff0000" stroke-width="2"/>
<path d="M377,335v 5" fill="none" stroke="#ff0000" stroke-width="2"/>
<path d="M378,335v 5" fill="none" stroke="#ff0000" stroke-width="2"/>
<path d="M379,336v 4" fill="none" stroke="#ff0000" stroke-width="2"/>
<path d="M380,336v 4" fill="none" stroke="#ff0000" stroke-width="2"/>
<path d="M381,336v 4" fill="none" stroke="#ff0000" stroke-width="2"/>
<path d="M381,336v 4" fill="none" stroke="#ff0000" stroke-width="2"/>
<path d="M382,336v 4" fill="none" stroke="#ff0000" stroke-width="2"/>
<path d="M383,336v 4" fill="none" stroke="#ff0000" stroke-width="2"/>
<path d="M384,336v 4" fill="none" stroke="#ff0000" stroke-width="2"/>
<path d="M385,336v 4" fill="none" stroke="#ff0000" stroke-width="2"/>
<path d="M386,336v 4" fill="none" stroke="#ff0000" stroke-width="2"/>
<path d="M386,336v 4" fill="none" stroke="#ff0000" stroke-width="2"/>
<path d="M387,336v 4" fill="none" stroke="#ff0000" stroke-width="2"/>
<path d="M388,336v 5" fill="none" stroke="#ff0000" stroke-width="2"/>
<path d="M389,336v 5" fill="none" stroke="#ff0000" stroke-width="2"/>
<path d="M390,336v 5" fill="none" stroke="#ff0000" stroke-width="2"/>
<path d="M390,336v 5" fill="none" stroke="#ff0000" stroke-width="2"/>
<path d="M391,336v 5" fill="none" stroke="#ff0000" stroke-width="2"/>
<path d="M392,336v 5" fill="none" stroke="#ff0000" stroke-width="2"/>
<path d="M393,336v 5" fill="none" stroke="#ff0000" stroke-width="2"/>
<path d="M394,337v 4" fill="none" stroke="#ff0000" stroke-width="2"/>
<path d="M394,337v 4" fill="none" stroke="#ff0000" stroke-width="2"/>
<path d="M395,337v 4" fill="none" stroke="#ff0000" stroke-width="2"/>
<path d="M396,337v 4" fill="none" stroke="#ff0000" stroke-width="2"/>
<path d="M397,337v 4" fill="none" stroke="#ff0000" stroke-width="2"/>
<path d="M398,337v 4" fill="none" stroke="#ff0000" stroke-width="2"/>
<path d="M399,337v 4" fill="none" stroke="#ff0000" stroke-width="2"/>
<path d="M399,337v 4" fill="none" stroke="#ff0000" stroke-width="2"/>
<path d="M400,337v 4" fill="none" stroke="#ff0000" stroke-width="2"/>
<path d="M401,337v 4" fill="none" stroke="#ff0000" stroke-width="2"/>
<path d="M402,337v 4" fill="none" stroke="#ff0000" stroke-width="2"/>
<path d="M403,337v 4" fill="none" stroke="#ff0000" stroke-width="2"/>
<path d="M403,337v 4" fill="none" stroke="#ff0000" stroke-width="2"/>
<path d="M404,337v 4" fill="none" stroke="#ff0000" stroke-width="2"/>
<path d="M405,337v 4" fill="none" stroke="#ff0000" stroke-width="2"/>
<path d="M406,337v 4" fill="none" stroke="#ff0000" stroke-width="2"/>
<path d="M407,337v 4" fill="none" stroke="#ff0000" stroke-width="2"/>
<path d="M408,337v 4" fill="none" stroke="#ff0000" stroke-width="2"/>
<path d="M408,337v 4" fill="none" stroke="#ff0000" stroke-width="2"/>
<path d="M409,337v 4" fill="none" stroke="#ff0000" stroke-width="2"/>
<path d="M410,337v 4" fill="none" stroke="#ff0000" stroke-width="2"/>
<path d="M411,337v 4" fill="none" stroke="#ff0000" stroke-width="2"/>
<path d="M412,337v 4" fill="none" stroke="#ff0000" stroke-width="2"/>
<path d="M412,337v 4" fill="none" stroke="#ff0000" stroke-width="2"/>
<path d="M413,337v 4" fill="none" stroke="#ff0000" stroke-width="2"/>
<path d="M414,337v 5" fill="none" stroke="#ff0000" stroke-width="2"/>
<path d="M415,337v 5" fill="none" stroke="#ff0000" stroke-width="2"/>
<path d="M416,337v 5" fill="none" stroke="#ff0000" stroke-width="2"/>
<path d="M416,337v 5" fill="none" stroke="#ff0000" stroke-width="2"/>
<path d="M417,337v 5" fill="none" stroke="#ff0000" stroke-width="2"/>
<path d="M418,337v 5" fill="none" stroke="#ff0000" stroke-width="2"/>
<path d="M419,337v 5" fill="none" stroke="#ff0000" stroke-width="2"/>
<path d="M420,337v 5" fill="none" stroke="#ff0000" stroke-width="2"/>
<path d="M421,337v 5" fill="none" stroke="#ff0000" stroke-width="2"/>
<path d="M421,337v 5" fill="none" stroke="#ff0000" stroke-width="2"/>
<path d="M422,337v 5" fill="none" stroke="#ff0000" stroke-width="2"/>
<path d="M423,337v 5" fill="none" stroke="#ff0000" stroke-width="2"/>
<path d="M424,337v 5" fill="none" stroke="#ff0000" stroke-width="2"/>
<path d="M425,337v 5" fill="none" stroke="#ff0000" stroke-width="2"/>
<path d="M425,337v 5" fill="none" stroke="#ff0000" stroke-width="2"/>
<path d="M426,337v 5" fill="none" stroke="#ff0000" stroke-width="2"/>
<path d="M427,337v 5" fill="none" stroke="#ff0000" stroke-width="2"/>
<path d="M428,337v 5" fill="none" stroke="#ff0000" stroke-width="2"/>
<path d="M429,337v 5" fill="none" stroke="#ff0000" stroke-width="2"/>
<path d="M430,337v 5" fill="none" stroke="#ff0000" stroke-width="2"/>
<path d="M430,337v 5" fill="none" stroke="#ff0000" stroke-width="2"/>
<path d="M431,337v 5" fill="none" stroke="#ff0000" stroke-width="2"/>
<path d="M432,337v 5" fill="none" stroke="#ff0000" stroke-width="2"/>
<path d="M433,337v 5" fill="none" stroke="#ff0000" stroke-width="2"/>
<path d="M434,337v 5" fill="none" stroke="#ff0000" stroke-width="2"/>
<path d="M434,337v 5" fill="none" stroke="#ff0000" stroke-width="2"/>
<path d="M435,338v 4" fill="none" stroke="#ff0000" stroke-width="2"/>
<path d="M436,338v 4" fill="none" stroke="#ff0000" stroke-width="2"/>
<path d="M437,338v 4" fill="none" stroke="#ff0000" stroke-width="2"/>
<path d="M438,338v 4" fill="none" stroke="#ff0000" stroke-width="2"/>
<path d="M438,338v 4" fill="none" stroke="#ff0000" stroke-width="2"/>
<path d="M439,338v 4" fill="none" stroke="#ff0000" stroke-width="2"/>
<path d="M440,338v 4" fill="none" stroke="#ff0000" stroke-width="2"/>
<path d="M441,338v 4" fill="none" stroke="#ff0000" stroke-width="2"/>
<path d="M442,338v 4" fill="none" stroke="#ff0000" stroke-width="2"/>
<path d="M443,338v 4" fill="none" stroke="#ff0000" stroke-width="2"/>
<path d="M443,338v 4" fill="none" stroke="#ff0000" stroke-width="2"/>
<path d="M444,338v 4" fill="none" stroke="#ff0000" stroke-width="2"/>
<path d="M445,338v 4" fill="none" stroke="#ff0000" stroke-width="2"/>
<path d="M446,338v 4" fill="none" stroke="#ff0000" stroke-width="2"/>
<path d="M447,338v 4" fill="none" stroke="#ff0000" stroke-width="2"/>
<path d="M447,338v 4" fill="none" stroke="#ff0000" stroke-width="2"/>
<path d="M448,338v 4" fill="none" stroke="#ff0000" stroke-width="2"/>
<path d="M449,338v 4" fill="none" stroke="#ff0000" stroke-width="2"/>
<path d="M450,338v 4" fill="none" stroke="#ff0000" stroke-width="2"/>
<path d="M451,338v 4" fill="none" stroke="#ff0000" stroke-width="2"/>
<path d="M452,338v 4" fill="none" stroke="#ff0000" stroke-width="2"/>
<path d="M452,338v 4" fill="none" stroke="#ff0000" stroke-width="2"/>
<path d="M453,338v 4" fill="none" stroke="#ff0000" stroke-width="2"/>
<path d="M454,338v 4" fill="none" stroke="#ff0000" stroke-width="2"/>
<path d="M455,338v 4" fill="none" stroke="#ff0000" stroke-width="2"/>
<path d="M456,338v 4" fill="none" stroke="#ff0000" stroke-width="2"/>
<path d="M456,338v 4" fill="none" stroke="#ff0000" stroke-width="2"/>
<path d="M457,338v 4" fill="none" stroke="#ff0000" stroke-width="2"/>
<path d="M458,338v 4" fill="none" stroke="#ff0000" stroke-width="2"/>
<path d="M459,338v 4" fill="none" stroke="#ff0000" stroke-width="2"/>
<path d="M460,338v 4" fill="none" stroke="#ff0000" stroke-width="2"/>
<path d="M460,338v 4" fill="none" stroke="#ff0000" stroke-width="2"/>
<path d="M461,338v 4" fill="none" stroke="#ff0000" stroke-width="2"/>
<path d="M462,338v 4" fill="none" stroke="#ff0000" stroke-width="2"/>
<path d="M463,338v 4" fill="none" stroke="#ff0000" stroke-width="2"/>
<path d="M464,338v 4" fill="none" stroke="#ff0000" stroke-width="2"/>
<path d="M465,338v 4" fill="none" stroke="#ff0000" stroke-width="2"/>
<path d="M465,338v 4" fill="none" stroke="#ff0000" stroke-width="2"/>
<path d="M466,338v 4" fill="none" stroke="#ff0000" stroke-width="2"/>
<path d="M467,338v 4" fill="none" stroke="#ff0000" stroke-width="2"/>
<path d="M468,338v 4" fill="none" stroke="#ff0000" stroke-width="2"/>
<path d="M469,338v 4" fill="none" stroke="#ff0000" stroke-width="2"/>
<path d="M469,338v 4" fill="none" stroke="#ff0000" stroke-width="2"/>
<path d="M470,338v 4" fill="none" stroke="#ff0000" stroke-width="2"/>
<path d="M471,338v 4" fill="none" stroke="#ff0000" stroke-width="2"/>
<path d="M472,338v 4" fill="none" stroke="#ff0000" stroke-width="2"/>
<path d="M473,338v 4" fill="none" stroke="#ff0000" stroke-width="2"/>
<path d="M473,338v 4" fill="none" stroke="#ff0000" stroke-width="2"/>
<path d="M474,338v 4" fill="none" stroke="#ff0000" stroke-width="2"/>
<path d="M475,338v 4" fill="none" stroke="#ff0000" stroke-width="2"/>
<path d="M476,338v 4" fill="none" stroke="#ff0000" stroke-width="2"/>
<path d="M477,338v 4" fill="none" stroke="#ff0000" stroke-width="2"/>
<path d="M478,338v 4" fill="none" stroke="#ff0000" stroke-width="2"/>
<path d="M478,338v 4" fill="none" stroke="#ff0000" stroke-width="2"/>
<path d="M479,338v 4" fill="none" stroke="#ff0000" stroke-width="2"/>
<path d="M480,338v 4" fill="none" stroke="#ff0000" stroke-width="2"/>
<path d="M481,338v 4" fill="none" stroke="#ff0000" stroke-width="2"/>
<path d="M482,338v 4" fill="none" stroke="#ff0000" stroke-width="2"/>
<path d="M482,338v 4" fill="none" stroke="#ff0000" stroke-width="2"/>
<path d="M483,338v 4" fill="none" stroke="#ff0000" stroke-width="2"/>
<path d="M484,338v 4" fill="none" stroke="#ff0000" stroke-width="2"/>
<path d="M485,338v 4" fill="none" stroke="#ff0000" stroke-width="2"/>
<path d="M486,338v 4" fill="none" stroke="#ff0000" stroke-width="2"/>
<path d="M487,338v 4" fill="none" stroke="#ff0000" stroke-width="2"/>
<path d="M487,338v 4" fill="none" stroke="#ff0000" stroke-width="2"/>
<path d="M488,338v 4" fill="none" stroke="#ff0000" stroke-width="2"/>
<path d="M489,338v 4" fill="none" stroke="#ff0000" stroke-width="2"/>
<path d="M490,338v 4" fill="none" stroke="#ff0000" stroke-width="2"/>
<path d="M491,338v 4" fill="none" stroke="#ff0000" stroke-width="2"/>
<path d="M491,338v 4" fill="none" stroke="#ff0000" stroke-width="2"/>
<path d="M492,338v 4" fill="none" stroke="#ff0000" stroke-width="2"/>
<path d="M493,338v 4" fill="none" stroke="#ff0000" stroke-width="2"/>
<path d="M494,338v 4" fill="none" stroke="#ff0000" stroke-width="2"/>
<path d="M495,338v 4" fill="none" stroke="#ff0000" stroke-width="2"/>
<path d="M495,338v 4" fill="none" stroke="#ff0000" stroke-width="2"/>
<path d="M496,338v 4" fill="none" stroke="#ff0000" stroke-width="2"/>
<path d="M497,338v 4" fill="none" stroke="#ff0000" stroke-width="2"/>
<path d="M498,338v 4" fill="none" stroke="#ff0000" stroke-width="2"/>
<path d="M499,338v 4" fill="none" stroke="#ff0000" stroke-width="2"/>
<path d="M500,338v 4" fill="none" stroke="#ff0000" stroke-width="2"/>
<path d="M500,338v 4" fill="none" stroke="#ff0000" stroke-width="2"/>
<path d="M501,338v 4" fill="none" stroke="#ff0000" stroke-width="2"/>
<path d="M502,338v 4" fill="none" stroke="#ff0000" stroke-width="2"/>
<path d="M503,338v 4" fill="none" stroke="#ff0000" stroke-width="2"/>
<path d="M504,338v 4" fill="none" stroke="#ff0000" stroke-width="2"/>
<path d="M504,338v 4" fill="none" stroke="#ff0000" stroke-width="2"/>
<path d="M505,338v 4" fill="none" stroke="#ff0000" stroke-width="2"/>
<path d="M506,338v 4" fill="none" stroke="#ff0000" stroke-width="2"/>
<path d="M507,338v 4" fill="none" stroke="#ff0000" stroke-width="2"/>
<path d="M508,338v 4" fill="none" stroke="#ff0000" stroke-width="2"/>
<path d="M509,338v 4" fill="none" stroke="#ff0000" stroke-width="2"/>
<path d="M509,338v 4" fill="none" stroke="#ff0000" stroke-width="2"/>
<path d="M510,339v 3" fill="none" stroke="#ff0000" stroke-width="2"/>
<path d="M284,231l 1, 11v 15l 1, 8l 1, 4l 1, 3l 1, 2v 3l 1, 3l 1, 2h 1l 1, 3v 2l 1, 2l 1, 1l 1, 1l 1, 2l 1, 2v 1l 1, 1l 1, 2h 1l 1, 3v 1l 1, 1h 1l 1, 2l 1, 1l 1, 1v 1l 1, 1l 1, 1l 1, 1l 1, 1l 1, 1l 1, 2h 1l 1, 1l 1, 1l 1, 1l 1, 1h 1l 1, 1l 1, 1h 1l
 1, 1h 1v 1l 1, 1h 1l 1, 1h 2l 1, 1h 1l 1, 1h 1v 1h 2l 1, 1h 3l 1, 1h 2v 1h 2l 1, 1h 2l 1, 1h 7v 1h 5l 1, 1h 5l 1, 1h 7l 1, 1h 12l 1, 1h 121l 1, 1" fill="none" stroke="#ff0000" stroke-width="2"/>
<rect x="351" y="25" width="205" height="154" fill="white"/>
<path d="M351,179h 205" fill="none" stroke="black"/>
<path d="M556,179v -154" fill="none" stroke="black"/>
<path d="M556,25h -205" fill="none" stroke="black"/>
<path d="M351,25v 154" fill="none" stroke="black"/>
<text x="362" y="38" fill="black" font-size="14" font-family="Helvetica">
Entries 
</text>
<text x="498" y="38" fill="black" font-size="14" font-family="Helvetica">
 17953
</text>
<text x="374" y="58" fill="black" font-size="14" font-family="Helvetica">
 / ndf 
</text>
<text x="369" y="45" fill="black" font-size="10" font-family="Helvetica">
2
</text>
<text x="362" y="58" fill="black" font-size="14" font-family="Times">
&#0967;
</text>
<text x="455" y="55" fill="black" font-size="14" font-family="Helvetica">
  1736 / 1240
</text>
<text x="382" y="68" fill="black" font-size="14" font-family="Helvetica">
   
</text>
<text x="372" y="77" fill="black" font-size="10" font-family="Helvetica">
cu
</text>
<text x="362" y="68" fill="black" font-size="14" font-family="Helvetica">
N
</text>
<text x="503" y="74" fill="black" font-size="14" font-family="Helvetica">
 14.92
</text>
<text x="490" y="74" fill="black" font-size="14" font-family="Times">
&#0177;
</text>
<text x="443" y="74" fill="black" font-size="14" font-family="Helvetica">
 34.43 
</text>
<text x="377" y="87" fill="black" font-size="14" font-family="Helvetica">
 
</text>
<text x="367" y="97" fill="black" font-size="10" font-family="Helvetica">
cu
</text>
<text x="362" y="87" fill="black" font-size="14" font-family="Times">
&#0964;
</text>
<text x="503" y="91" fill="black" font-size="14" font-family="Helvetica">
 38.43
</text>
<text x="490" y="91" fill="black" font-size="14" font-family="Times">
&#0177;
</text>
<text x="443" y="91" fill="black" font-size="14" font-family="Helvetica">
 97.68 
</text>
<text x="375" y="102" fill="black" font-size="14" font-family="Helvetica">
    
</text>
<text x="372" y="111" fill="black" font-size="10" font-family="Helvetica">
f
</text>
<text x="362" y="102" fill="black" font-size="14" font-family="Helvetica">
N
</text>
<text x="511" y="108" fill="black" font-size="14" font-family="Helvetica">
 1.25
</text>
<text x="499" y="108" fill="black" font-size="14" font-family="Times">
&#0177;
</text>
<text x="451" y="108" fill="black" font-size="14" font-family="Helvetica">
 46.97 
</text>
<text x="370" y="121" fill="black" font-size="14" font-family="Helvetica">
 
</text>
<text x="367" y="131" fill="black" font-size="10" font-family="Helvetica">
f
</text>
<text x="362" y="121" fill="black" font-size="14" font-family="Times">
&#0964;
</text>
<text x="511" y="125" fill="black" font-size="14" font-family="Helvetica">
 56.3
</text>
<text x="499" y="125" fill="black" font-size="14" font-family="Times">
&#0177;
</text>
<text x="451" y="125" fill="black" font-size="14" font-family="Helvetica">
  2226 
</text>
<text x="384" y="137" fill="black" font-size="14" font-family="Helvetica">
  
</text>
<text x="372" y="146" fill="black" font-size="10" font-family="Helvetica">
sin
</text>
<text x="362" y="137" fill="black" font-size="14" font-family="Helvetica">
N
</text>
<text x="503" y="142" fill="black" font-size="14" font-family="Helvetica">
 0.104
</text>
<text x="490" y="142" fill="black" font-size="14" font-family="Times">
&#0177;
</text>
<text x="443" y="142" fill="black" font-size="14" font-family="Helvetica">
 1.283 
</text>
<text x="362" y="158" fill="black" font-size="14" font-family="Helvetica">
T        
</text>
<text x="511" y="159" fill="black" font-size="14" font-family="Helvetica">
 0.00
</text>
<text x="499" y="159" fill="black" font-size="14" font-family="Times">
&#0177;
</text>
<text x="451" y="159" fill="black" font-size="14" font-family="Helvetica">
 59.32 
</text>
<text x="377" y="171" fill="black" font-size="14" font-family="Helvetica">
    
</text>
<text x="372" y="180" fill="black" font-size="10" font-family="Helvetica">
b
</text>
<text x="362" y="171" fill="black" font-size="14" font-family="Helvetica">
N
</text>
<text x="503" y="176" fill="black" font-size="14" font-family="Helvetica">
 0.080
</text>
<text x="490" y="176" fill="black" font-size="14" font-family="Times">
&#0177;
</text>
<text x="443" y="176" fill="black" font-size="14" font-family="Helvetica">
 3.769 
</text>
<path d="M57,346h 453" fill="none" stroke="black"/>
<text x="419" y="372" fill="black" font-size="12" font-family="Helvetica">
TDC-TDC0 (ns)
</text>
<path d="M57,337v 9" fill="none" stroke="black"/>
<path d="M68,342v 4" fill="none" stroke="black"/>
<path d="M79,342v 4" fill="none" stroke="black"/>
<path d="M91,342v 4" fill="none" stroke="black"/>
<path d="M102,342v 4" fill="none" stroke="black"/>
<path d="M113,337v 9" fill="none" stroke="black"/>
<path d="M125,342v 4" fill="none" stroke="black"/>
<path d="M136,342v 4" fill="none" stroke="black"/>
<path d="M147,342v 4" fill="none" stroke="black"/>
<path d="M159,342v 4" fill="none" stroke="black"/>
<path d="M170,337v 9" fill="none" stroke="black"/>
<path d="M181,342v 4" fill="none" stroke="black"/>
<path d="M193,342v 4" fill="none" stroke="black"/>
<path d="M204,342v 4" fill="none" stroke="black"/>
<path d="M215,342v 4" fill="none" stroke="black"/>
<path d="M227,337v 9" fill="none" stroke="black"/>
<path d="M238,342v 4" fill="none" stroke="black"/>
<path d="M249,342v 4" fill="none" stroke="black"/>
<path d="M261,342v 4" fill="none" stroke="black"/>
<path d="M272,342v 4" fill="none" stroke="black"/>
<path d="M283,337v 9" fill="none" stroke="black"/>
<path d="M295,342v 4" fill="none" stroke="black"/>
<path d="M306,342v 4" fill="none" stroke="black"/>
<path d="M317,342v 4" fill="none" stroke="black"/>
<path d="M329,342v 4" fill="none" stroke="black"/>
<path d="M340,337v 9" fill="none" stroke="black"/>
<path d="M351,342v 4" fill="none" stroke="black"/>
<path d="M363,342v 4" fill="none" stroke="black"/>
<path d="M374,342v 4" fill="none" stroke="black"/>
<path d="M386,342v 4" fill="none" stroke="black"/>
<path d="M397,337v 9" fill="none" stroke="black"/>
<path d="M408,342v 4" fill="none" stroke="black"/>
<path d="M420,342v 4" fill="none" stroke="black"/>
<path d="M431,342v 4" fill="none" stroke="black"/>
<path d="M442,342v 4" fill="none" stroke="black"/>
<path d="M454,337v 9" fill="none" stroke="black"/>
<path d="M465,342v 4" fill="none" stroke="black"/>
<path d="M476,342v 4" fill="none" stroke="black"/>
<path d="M488,342v 4" fill="none" stroke="black"/>
<path d="M499,342v 4" fill="none" stroke="black"/>
<path d="M510,337v 9" fill="none" stroke="black"/>
<text x="36" y="359" fill="black" font-size="12" font-family="Helvetica">
-20000
</text>
<text x="93" y="359" fill="black" font-size="12" font-family="Helvetica">
-15000
</text>
<text x="149" y="359" fill="black" font-size="12" font-family="Helvetica">
-10000
</text>
<text x="210" y="359" fill="black" font-size="12" font-family="Helvetica">
-5000
</text>
<text x="280" y="359" fill="black" font-size="12" font-family="Helvetica">
0
</text>
<text x="325" y="359" fill="black" font-size="12" font-family="Helvetica">
5000
</text>
<text x="379" y="359" fill="black" font-size="12" font-family="Helvetica">
10000
</text>
<text x="435" y="359" fill="black" font-size="12" font-family="Helvetica">
15000
</text>
<text x="492" y="359" fill="black" font-size="12" font-family="Helvetica">
20000
</text>
<path d="M57,346v -308" fill="none" stroke="black"/>
<g transform="rotate(-90,29,72)">
<text x="29" y="72" fill="black" font-size="12" font-family="Helvetica">
Count
</text>
</g>
<path d="M70,346h -13" fill="none" stroke="black"/>
<path d="M63,338h -6" fill="none" stroke="black"/>
<path d="M63,330h -6" fill="none" stroke="black"/>
<path d="M63,321h -6" fill="none" stroke="black"/>
<path d="M70,313h -13" fill="none" stroke="black"/>
<path d="M63,304h -6" fill="none" stroke="black"/>
<path d="M63,296h -6" fill="none" stroke="black"/>
<path d="M63,287h -6" fill="none" stroke="black"/>
<path d="M70,279h -13" fill="none" stroke="black"/>
<path d="M63,271h -6" fill="none" stroke="black"/>
<path d="M63,262h -6" fill="none" stroke="black"/>
<path d="M63,254h -6" fill="none" stroke="black"/>
<path d="M70,245h -13" fill="none" stroke="black"/>
<path d="M63,237h -6" fill="none" stroke="black"/>
<path d="M63,228h -6" fill="none" stroke="black"/>
<path d="M63,220h -6" fill="none" stroke="black"/>
<path d="M70,212h -13" fill="none" stroke="black"/>
<path d="M63,203h -6" fill="none" stroke="black"/>
<path d="M63,195h -6" fill="none" stroke="black"/>
<path d="M63,186h -6" fill="none" stroke="black"/>
<path d="M70,178h -13" fill="none" stroke="black"/>
<path d="M63,169h -6" fill="none" stroke="black"/>
<path d="M63,161h -6" fill="none" stroke="black"/>
<path d="M63,152h -6" fill="none" stroke="black"/>
<path d="M70,144h -13" fill="none" stroke="black"/>
<path d="M63,136h -6" fill="none" stroke="black"/>
<path d="M63,127h -6" fill="none" stroke="black"/>
<path d="M63,119h -6" fill="none" stroke="black"/>
<path d="M70,110h -13" fill="none" stroke="black"/>
<path d="M63,102h -6" fill="none" stroke="black"/>
<path d="M63,93h -6" fill="none" stroke="black"/>
<path d="M63,85h -6" fill="none" stroke="black"/>
<path d="M70,77h -13" fill="none" stroke="black"/>
<path d="M63,68h -6" fill="none" stroke="black"/>
<path d="M63,60h -6" fill="none" stroke="black"/>
<path d="M63,51h -6" fill="none" stroke="black"/>
<path d="M70,43h -13" fill="none" stroke="black"/>
<path d="M70,43h -13" fill="none" stroke="black"/>
<text x="47" y="350" fill="black" font-size="12" font-family="Helvetica">
0
</text>
<text x="40" y="317" fill="black" font-size="12" font-family="Helvetica">
20
</text>
<text x="40" y="282" fill="black" font-size="12" font-family="Helvetica">
40
</text>
<text x="40" y="249" fill="black" font-size="12" font-family="Helvetica">
60
</text>
<text x="40" y="216" fill="black" font-size="12" font-family="Helvetica">
80
</text>
<text x="33" y="181" fill="black" font-size="12" font-family="Helvetica">
100
</text>
<text x="33" y="148" fill="black" font-size="12" font-family="Helvetica">
120
</text>
<text x="33" y="114" fill="black" font-size="12" font-family="Helvetica">
140
</text>
<text x="33" y="80" fill="black" font-size="12" font-family="Helvetica">
160
</text>
<text x="33" y="46" fill="black" font-size="12" font-family="Helvetica">
180
</text>
<rect x="351" y="25" width="205" height="154" fill="white"/>
<path d="M351,179h 205" fill="none" stroke="black"/>
<path d="M556,179v -154" fill="none" stroke="black"/>
<path d="M556,25h -205" fill="none" stroke="black"/>
<path d="M351,25v 154" fill="none" stroke="black"/>
<text x="362" y="38" fill="black" font-size="14" font-family="Helvetica">
Entries 
</text>
<text x="498" y="38" fill="black" font-size="14" font-family="Helvetica">
 17953
</text>
<text x="374" y="58" fill="black" font-size="14" font-family="Helvetica">
 / ndf 
</text>
<text x="369" y="45" fill="black" font-size="10" font-family="Helvetica">
2
</text>
<text x="362" y="58" fill="black" font-size="14" font-family="Times">
&#0967;
</text>
<text x="455" y="55" fill="black" font-size="14" font-family="Helvetica">
  1736 / 1240
</text>
<text x="382" y="68" fill="black" font-size="14" font-family="Helvetica">
   
</text>
<text x="372" y="77" fill="black" font-size="10" font-family="Helvetica">
cu
</text>
<text x="362" y="68" fill="black" font-size="14" font-family="Helvetica">
N
</text>
<text x="503" y="74" fill="black" font-size="14" font-family="Helvetica">
 14.92
</text>
<text x="490" y="74" fill="black" font-size="14" font-family="Times">
&#0177;
</text>
<text x="443" y="74" fill="black" font-size="14" font-family="Helvetica">
 34.43 
</text>
<text x="377" y="87" fill="black" font-size="14" font-family="Helvetica">
 
</text>
<text x="367" y="97" fill="black" font-size="10" font-family="Helvetica">
cu
</text>
<text x="362" y="87" fill="black" font-size="14" font-family="Times">
&#0964;
</text>
<text x="503" y="91" fill="black" font-size="14" font-family="Helvetica">
 38.43
</text>
<text x="490" y="91" fill="black" font-size="14" font-family="Times">
&#0177;
</text>
<text x="443" y="91" fill="black" font-size="14" font-family="Helvetica">
 97.68 
</text>
<text x="375" y="102" fill="black" font-size="14" font-family="Helvetica">
    
</text>
<text x="372" y="111" fill="black" font-size="10" font-family="Helvetica">
f
</text>
<text x="362" y="102" fill="black" font-size="14" font-family="Helvetica">
N
</text>
<text x="511" y="108" fill="black" font-size="14" font-family="Helvetica">
 1.25
</text>
<text x="499" y="108" fill="black" font-size="14" font-family="Times">
&#0177;
</text>
<text x="451" y="108" fill="black" font-size="14" font-family="Helvetica">
 46.97 
</text>
<text x="370" y="121" fill="black" font-size="14" font-family="Helvetica">
 
</text>
<text x="367" y="131" fill="black" font-size="10" font-family="Helvetica">
f
</text>
<text x="362" y="121" fill="black" font-size="14" font-family="Times">
&#0964;
</text>
<text x="511" y="125" fill="black" font-size="14" font-family="Helvetica">
 56.3
</text>
<text x="499" y="125" fill="black" font-size="14" font-family="Times">
&#0177;
</text>
<text x="451" y="125" fill="black" font-size="14" font-family="Helvetica">
  2226 
</text>
<text x="384" y="137" fill="black" font-size="14" font-family="Helvetica">
  
</text>
<text x="372" y="146" fill="black" font-size="10" font-family="Helvetica">
sin
</text>
<text x="362" y="137" fill="black" font-size="14" font-family="Helvetica">
N
</text>
<text x="503" y="142" fill="black" font-size="14" font-family="Helvetica">
 0.104
</text>
<text x="490" y="142" fill="black" font-size="14" font-family="Times">
&#0177;
</text>
<text x="443" y="142" fill="black" font-size="14" font-family="Helvetica">
 1.283 
</text>
<text x="362" y="158" fill="black" font-size="14" font-family="Helvetica">
T        
</text>
<text x="511" y="159" fill="black" font-size="14" font-family="Helvetica">
 0.00
</text>
<text x="499" y="159" fill="black" font-size="14" font-family="Times">
&#0177;
</text>
<text x="451" y="159" fill="black" font-size="14" font-family="Helvetica">
 59.32 
</text>
<text x="377" y="171" fill="black" font-size="14" font-family="Helvetica">
    
</text>
<text x="372" y="180" fill="black" font-size="10" font-family="Helvetica">
b
</text>
<text x="362" y="171" fill="black" font-size="14" font-family="Helvetica">
N
</text>
<text x="503" y="176" fill="black" font-size="14" font-family="Helvetica">
 0.080
</text>
<text x="490" y="176" fill="black" font-size="14" font-family="Times">
&#0177;
</text>
<text x="443" y="176" fill="black" font-size="14" font-family="Helvetica">
 3.769 
</text>
<text x="270" y="21" fill="black" font-size="21" font-family="Helvetica">
D4
</text></svg>
