<?xml version="1.0" standalone="no"?>
<svg width="567" height="384" viewBox="0 0 567 384" xmlns="http://www.w3.org/2000/svg">
<title>
images/analysis_phase_exec_d4_d5_tight/zoom/5mm_Air_combined_5mm_Air.svg
</title>
<desc>
Creator: ROOT Version 5.34/09
CreationDate: Wed Sep  4 18:04:07 2013</desc>
<defs>
</defs>
<rect x="0" y="0" width="567" height="384" fill="white"/>
<rect x="57" y="38" width="453" height="308" fill="white"/>
<rect x="57" y="38" width="453" height="308" fill="none" stroke="black"/>
<rect x="57" y="38" width="453" height="308" fill="white"/>
<rect x="57" y="38" width="453" height="308" fill="none" stroke="black"/>
<path d="M57,346h 279v -227h 17v -38h 18v -28h 17v 18h 18v 10h 17v -15h 17v 5h 18v 41h 17v -16h 18v -13h 17" fill="none" stroke="#000099"/>
<rect x="442" y="25" width="114" height="46" fill="white"/>
<path d="M442,71h 114" fill="none" stroke="black"/>
<path d="M556,71v -46" fill="none" stroke="black"/>
<path d="M556,25h -114" fill="none" stroke="black"/>
<path d="M442,25v 46" fill="none" stroke="black"/>
<text x="447" y="53" fill="black" font-size="15" font-family="Helvetica">
Entries 
</text>
<text x="505" y="53" fill="black" font-size="15" font-family="Helvetica">
 24709
</text>
<path d="M57,346h 453" fill="none" stroke="black"/>
<text x="425" y="371" fill="black" font-size="12" font-family="Helvetica">
TDC-TDC0 (ns)
</text>
<path d="M65,336v 10" fill="none" stroke="black"/>
<path d="M76,341v 5" fill="none" stroke="black"/>
<path d="M87,341v 5" fill="none" stroke="black"/>
<path d="M98,341v 5" fill="none" stroke="black"/>
<path d="M109,341v 5" fill="none" stroke="black"/>
<path d="M120,336v 10" fill="none" stroke="black"/>
<path d="M131,341v 5" fill="none" stroke="black"/>
<path d="M142,341v 5" fill="none" stroke="black"/>
<path d="M153,341v 5" fill="none" stroke="black"/>
<path d="M164,341v 5" fill="none" stroke="black"/>
<path d="M174,336v 10" fill="none" stroke="black"/>
<path d="M185,341v 5" fill="none" stroke="black"/>
<path d="M196,341v 5" fill="none" stroke="black"/>
<path d="M207,341v 5" fill="none" stroke="black"/>
<path d="M218,341v 5" fill="none" stroke="black"/>
<path d="M229,336v 10" fill="none" stroke="black"/>
<path d="M240,341v 5" fill="none" stroke="black"/>
<path d="M251,341v 5" fill="none" stroke="black"/>
<path d="M262,341v 5" fill="none" stroke="black"/>
<path d="M273,341v 5" fill="none" stroke="black"/>
<path d="M283,336v 10" fill="none" stroke="black"/>
<path d="M294,341v 5" fill="none" stroke="black"/>
<path d="M305,341v 5" fill="none" stroke="black"/>
<path d="M316,341v 5" fill="none" stroke="black"/>
<path d="M327,341v 5" fill="none" stroke="black"/>
<path d="M338,336v 10" fill="none" stroke="black"/>
<path d="M349,341v 5" fill="none" stroke="black"/>
<path d="M360,341v 5" fill="none" stroke="black"/>
<path d="M371,341v 5" fill="none" stroke="black"/>
<path d="M382,341v 5" fill="none" stroke="black"/>
<path d="M392,336v 10" fill="none" stroke="black"/>
<path d="M403,341v 5" fill="none" stroke="black"/>
<path d="M414,341v 5" fill="none" stroke="black"/>
<path d="M425,341v 5" fill="none" stroke="black"/>
<path d="M436,341v 5" fill="none" stroke="black"/>
<path d="M447,336v 10" fill="none" stroke="black"/>
<path d="M458,341v 5" fill="none" stroke="black"/>
<path d="M469,341v 5" fill="none" stroke="black"/>
<path d="M480,341v 5" fill="none" stroke="black"/>
<path d="M491,341v 5" fill="none" stroke="black"/>
<path d="M502,336v 10" fill="none" stroke="black"/>
<path d="M65,336v 10" fill="none" stroke="black"/>
<path d="M502,336v 10" fill="none" stroke="black"/>
<text x="53" y="358" fill="black" font-size="12" font-family="Helvetica">
-200
</text>
<text x="108" y="358" fill="black" font-size="12" font-family="Helvetica">
-150
</text>
<text x="162" y="358" fill="black" font-size="12" font-family="Helvetica">
-100
</text>
<text x="220" y="358" fill="black" font-size="12" font-family="Helvetica">
-50
</text>
<text x="280" y="358" fill="black" font-size="12" font-family="Helvetica">
0
</text>
<text x="331" y="358" fill="black" font-size="12" font-family="Helvetica">
50
</text>
<text x="381" y="358" fill="black" font-size="12" font-family="Helvetica">
100
</text>
<text x="436" y="358" fill="black" font-size="12" font-family="Helvetica">
150
</text>
<text x="490" y="358" fill="black" font-size="12" font-family="Helvetica">
200
</text>
<path d="M57,346v -308" fill="none" stroke="black"/>
<g transform="rotate(-90,29,70)">
<text x="29" y="70" fill="black" font-size="12" font-family="Helvetica">
Count
</text>
</g>
<path d="M70,346h -13" fill="none" stroke="black"/>
<path d="M63,338h -6" fill="none" stroke="black"/>
<path d="M63,330h -6" fill="none" stroke="black"/>
<path d="M63,322h -6" fill="none" stroke="black"/>
<path d="M70,315h -13" fill="none" stroke="black"/>
<path d="M63,307h -6" fill="none" stroke="black"/>
<path d="M63,299h -6" fill="none" stroke="black"/>
<path d="M63,291h -6" fill="none" stroke="black"/>
<path d="M70,284h -13" fill="none" stroke="black"/>
<path d="M63,276h -6" fill="none" stroke="black"/>
<path d="M63,268h -6" fill="none" stroke="black"/>
<path d="M63,261h -6" fill="none" stroke="black"/>
<path d="M70,253h -13" fill="none" stroke="black"/>
<path d="M63,245h -6" fill="none" stroke="black"/>
<path d="M63,237h -6" fill="none" stroke="black"/>
<path d="M63,230h -6" fill="none" stroke="black"/>
<path d="M70,222h -13" fill="none" stroke="black"/>
<path d="M63,214h -6" fill="none" stroke="black"/>
<path d="M63,206h -6" fill="none" stroke="black"/>
<path d="M63,199h -6" fill="none" stroke="black"/>
<path d="M70,191h -13" fill="none" stroke="black"/>
<path d="M63,183h -6" fill="none" stroke="black"/>
<path d="M63,176h -6" fill="none" stroke="black"/>
<path d="M63,168h -6" fill="none" stroke="black"/>
<path d="M70,160h -13" fill="none" stroke="black"/>
<path d="M63,152h -6" fill="none" stroke="black"/>
<path d="M63,145h -6" fill="none" stroke="black"/>
<path d="M63,137h -6" fill="none" stroke="black"/>
<path d="M70,129h -13" fill="none" stroke="black"/>
<path d="M63,121h -6" fill="none" stroke="black"/>
<path d="M63,114h -6" fill="none" stroke="black"/>
<path d="M63,106h -6" fill="none" stroke="black"/>
<path d="M70,98h -13" fill="none" stroke="black"/>
<path d="M63,91h -6" fill="none" stroke="black"/>
<path d="M63,83h -6" fill="none" stroke="black"/>
<path d="M63,75h -6" fill="none" stroke="black"/>
<path d="M70,67h -13" fill="none" stroke="black"/>
<path d="M70,67h -13" fill="none" stroke="black"/>
<path d="M63,60h -6" fill="none" stroke="black"/>
<path d="M63,52h -6" fill="none" stroke="black"/>
<path d="M63,44h -6" fill="none" stroke="black"/>
<text x="47" y="350" fill="black" font-size="12" font-family="Helvetica">
0
</text>
<text x="41" y="319" fill="black" font-size="12" font-family="Helvetica">
20
</text>
<text x="41" y="288" fill="black" font-size="12" font-family="Helvetica">
40
</text>
<text x="41" y="257" fill="black" font-size="12" font-family="Helvetica">
60
</text>
<text x="41" y="227" fill="black" font-size="12" font-family="Helvetica">
80
</text>
<text x="33" y="196" fill="black" font-size="12" font-family="Helvetica">
100
</text>
<text x="33" y="165" fill="black" font-size="12" font-family="Helvetica">
120
</text>
<text x="33" y="134" fill="black" font-size="12" font-family="Helvetica">
140
</text>
<text x="33" y="103" fill="black" font-size="12" font-family="Helvetica">
160
</text>
<text x="33" y="72" fill="black" font-size="12" font-family="Helvetica">
180
</text>
<rect x="442" y="25" width="114" height="46" fill="white"/>
<path d="M442,71h 114" fill="none" stroke="black"/>
<path d="M556,71v -46" fill="none" stroke="black"/>
<path d="M556,25h -114" fill="none" stroke="black"/>
<path d="M442,25v 46" fill="none" stroke="black"/>
<text x="447" y="53" fill="black" font-size="15" font-family="Helvetica">
Entries 
</text>
<text x="505" y="53" fill="black" font-size="15" font-family="Helvetica">
 24709
</text>
<text x="204" y="18" fill="black" font-size="18" font-family="Helvetica">
combined_5mm_Air
</text></svg>
