<?xml version="1.0" standalone="no"?>
<svg width="567" height="328" viewBox="0 0 567 328" xmlns="http://www.w3.org/2000/svg">
<title>
images/sim_vs_count/sim_mu-_1mm_Aluminium_loose_cu_f_16ns_bins_500k.svg
</title>
<desc>
Creator: ROOT Version 5.34/09
CreationDate: Sun Nov  3 22:29:48 2013</desc>
<defs>
</defs>
<rect x="0" y="0" width="567" height="328" fill="white"/>
<rect x="57" y="33" width="453" height="262" fill="white"/>
<rect x="57" y="33" width="453" height="262" fill="none" stroke="black"/>
<rect x="57" y="33" width="453" height="262" fill="white"/>
<rect x="57" y="33" width="453" height="262" fill="none" stroke="black"/>
<path d="M57,295h 227v -250h 1v 46v -23v 38v -15v 14h 1v 56v -56v 35v -11h 1v 43v -8v 9h 1v -22v 18v -28v 31v -5h 1v 20v -43v 57v -25h 1v 13v -3v 6h 1v 7v -18v 26v -20h 1v -17v 41v -25v 24h 1v 5v -10v 10v -25v 18h 1v -3v 10v -14v 9v -3h 1v -3v 6v -6v
 12v -6h 1v 3v -14v 19v -17h 1v 20v -16v 19h 1v 9v -32v 39h 1v 5v -37v 10v -20v 27h 1v 12v -18v 9h 1v 31v -29v 13h 1v -32v 39v -23h 1v 15v -20v 34v -26v 16h 1v -9v 8v -15v 26h 1v -28v 17v -9v 10v -6h 1v 14v -9v 9v -18h 1v 17v -23v 7v -3v 23h 1v 6v
 -27v 15v -14v 9h 1v 7v -13v 14v -8h 1v -6v 13v -10v 13v -3h 1v -14v 14v -19v 23h 1v -9v 6v -3v 18h 1v -19v 6v -11v 3h 1v 20v -25v 25v -9h 1v 9v -23v 12h 1v -3v 11v -9h 1v 10v -12v 14v -9h 1v 3v -2v 17v -14v 6h 1v 3v -13v 12v -12h 1v 6v -11v 8v -9v
 6h 1v -6v 25v -19v 10h 1v 6v -15v 11v -3h 1v -5v 3v -6v 5h 1v 9v -14v 3h 1v 12v -6v 8v -3v 9h 1v -18v 12v -11v 5v -2v 19h 1v -34h 1v 29v -23v 17h 1v -12v 12v -14v 19v -8h 1v 6v -9v 9v -15v 13h 1v -6v 16h 1v -16h 1v 11v -12v 3h 1v 8v -13v 11v -6v 6h
 1v -17v 17v -3h 1v -6v 14v -13v 13h 1v 1v -9v 6h 1v -5v 7v -8h 1v -5v 13v -5v 2h 1v -7v 8h 1v -3v 6h 1v -11v 14v -4h 1v -5v 8v -6h 1v 6v -10v 5h 1v -8v 10v -3v 4h 1v -8v 11v -9h 1v 11v -17v 15v -1v 1h 1v 2v -11v 8v -5h 1v 9v -6v 2v -2h 1v -6v 12v
 -12v 6h 1v -1v 6v -5h 1v -4v 9v -2h 1v -4v 9v -3h 1v -5v 5v -6h 1v 4v -6v 9h 1v -7v 3h 1v 4v -7v 6v -3h 1v 4v -7v 4h 1v 5v -6v 3h 1v -5v 6v -6v 6h 1v -6v 6v -4v 4v -6v 2h 1v 3v -5v 5v -2h 1v -1v 3v -5v 8h 1v -5v 2v -2v 3h 1v -7v 7h 1v -1v 3h 1v -6v
 4h 1v -10v 10v -1v 3h 1v -6v 3v -8v 3v -3h 1v 8v -2v 3v -4h 1v 6v -5v 5v -5v 5h 1v -9v 7h 1v -4v 6v -2v 2v -3v 1h 1v 2v -2v 2h 1v -5v 6v -4v 3h 1v -2v 2v -2h 1v -3v 5v -2h 1v -1v 4v -1v 1h 1v -6v 5v -3v 3h 1v -2v 3v -6h 1v 5v -2v 3v -6v 6h 1v -3v 2v
 -3h 1v 4v -3v 2h 1v -3v 4v -6v 5h 1v 1v -4v 4v -1v 1h 1v -3v 3v -3h 1v 3v -3v 2v -5v 5h 1v -2v 2v -2v 2h 1v -5v 5v -2v 3h 1v -3v 3v -3h 1v 3v -9h 1v 9v -1v 1h 1v -3v 3v -3v 3h 1v -1v 1h 1v -1v 1v -3v 2h 1v 1v -1v 1v -3h 1v 3v -3h 1v 3v -3v 3v -4h 1v
 4v -4v 3v -2h 1v -1v 4h 1v -3v 3v -1h 1v 1v -3v 3v -4v 4h 1v -1v 1v -1h 1v -2v 3v -1h 1v 1v -1v 1h 1v -4v 4h 1v -1v 1v -1h 1v 1v -1v 1h 1v -3v 3v -1v 1h 1v -3v 3v -1v 1v -3v 3h 1v -1v 1h 1v -1v 1v -3h 1v 3h 1v -3v 3v -3h 1v 3v -3h 1v 3v -1v 1v -1h
 1v 1v -1v 1h 1v -1v 1h 2v -1v 1h 1v -1v 1h 1v -1v 1v -1v 1h 1v -3v 3h 1v -3v 3v -1v 1h 3v -1v 1h 1v -1v 1h 1v -1v 1h 1v -1v 1v -1v 1h 1v -1v 1h 1v -3v 3v -1v 1h 3v -1v 1h 2v -3v 3h 2v -1h 1v 1v -1v 1h 3v -1v 1h 1v -1v 1h 1v -1v 1v -1v 1h 6v -4v 4h
 2v -1v 1h 2v -1v 1v -1v 1h 6v -1v 1h 1v -1v 1h 4v -1v 1h 3v -1v 1h 6v -1v 1h 1v -1v 1h 1v -1h 1v 1v -1v 1h 14v -1v 1h 6v -1h 1v 1h 5v -1v 1h 6" fill="none" stroke="#000099"/>
<path d="M285,102l 2, 54l 3, 27l 2, 15l 2, 11l 2, 8l 3, 7l 2, 6l 2, 6l 3, 5l 2, 5l 2, 4l 2, 4l 3, 3l 2, 4l 2, 3l 2, 2l 3, 3l 2, 2l 2, 2l 2, 2l 3, 2l 2, 1l 2, 2l 2, 1l 3, 1l 2, 1l 2, 1l 2, 1l 3, 1l 2, 1l 2, 1h 3l 2, 1h 2l 2, 1h 3l 2, 1h 2l 2, 1h 7l 2,
 1h 9l 3, 1h 2" fill="none" stroke="#ff0000" stroke-width="2"/>
<path d="M396,294h 18l 2, 1h 91" fill="none" stroke="#ff0000" stroke-width="2"/>
<path d="M507,295h 2" fill="none" stroke="#ff0000" stroke-width="2"/>
<rect x="351" y="22" width="205" height="91" fill="white"/>
<path d="M351,113h 205" fill="none" stroke="black"/>
<path d="M556,113v -91" fill="none" stroke="black"/>
<path d="M556,22h -205" fill="none" stroke="black"/>
<path d="M351,22v 91" fill="none" stroke="black"/>
<text x="361" y="34" fill="black" font-size="13" font-family="Helvetica">
Entries 
</text>
<text x="506" y="34" fill="black" font-size="13" font-family="Helvetica">
 12614
</text>
<text x="373" y="48" fill="black" font-size="13" font-family="Helvetica">
 / ndf 
</text>
<text x="369" y="44" fill="black" font-size="9" font-family="Helvetica">
2
</text>
<text x="361" y="48" fill="black" font-size="13" font-family="Times">
&#0967;
</text>
<text x="469" y="49" fill="black" font-size="13" font-family="Helvetica">
 801.1 / 1243
</text>
<text x="379" y="63" fill="black" font-size="13" font-family="Helvetica">
   
</text>
<text x="370" y="66" fill="black" font-size="9" font-family="Helvetica">
cu
</text>
<text x="361" y="63" fill="black" font-size="13" font-family="Helvetica">
N
</text>
<text x="509" y="64" fill="black" font-size="13" font-family="Helvetica">
 10.14
</text>
<text x="502" y="64" fill="black" font-size="13" font-family="Times">
&#0177;
</text>
<text x="462" y="64" fill="black" font-size="13" font-family="Helvetica">
 96.48 
</text>
<text x="376" y="77" fill="black" font-size="13" font-family="Helvetica">
 
</text>
<text x="367" y="80" fill="black" font-size="9" font-family="Helvetica">
cu
</text>
<text x="361" y="77" fill="black" font-size="13" font-family="Times">
&#0964;
</text>
<text x="517" y="80" fill="black" font-size="13" font-family="Helvetica">
 26.5
</text>
<text x="510" y="80" fill="black" font-size="13" font-family="Times">
&#0177;
</text>
<text x="469" y="80" fill="black" font-size="13" font-family="Helvetica">
 207.9 
</text>
<text x="373" y="93" fill="black" font-size="13" font-family="Helvetica">
    
</text>
<text x="370" y="97" fill="black" font-size="9" font-family="Helvetica">
f
</text>
<text x="361" y="93" fill="black" font-size="13" font-family="Helvetica">
N
</text>
<text x="516" y="95" fill="black" font-size="13" font-family="Helvetica">
 1.74
</text>
<text x="509" y="95" fill="black" font-size="13" font-family="Times">
&#0177;
</text>
<text x="469" y="95" fill="black" font-size="13" font-family="Helvetica">
 85.68 
</text>
<text x="369" y="107" fill="black" font-size="13" font-family="Helvetica">
 
</text>
<text x="367" y="111" fill="black" font-size="9" font-family="Helvetica">
f
</text>
<text x="361" y="107" fill="black" font-size="13" font-family="Times">
&#0964;
</text>
<text x="517" y="110" fill="black" font-size="13" font-family="Helvetica">
 25.6
</text>
<text x="510" y="110" fill="black" font-size="13" font-family="Times">
&#0177;
</text>
<text x="469" y="110" fill="black" font-size="13" font-family="Helvetica">
  2217 
</text>
<path d="M57,295h 453" fill="none" stroke="black"/>
<text x="466" y="317" fill="black" font-size="11" font-family="Helvetica">
Time (ns)
</text>
<path d="M57,287v 8" fill="none" stroke="black"/>
<path d="M68,291v 4" fill="none" stroke="black"/>
<path d="M79,291v 4" fill="none" stroke="black"/>
<path d="M91,291v 4" fill="none" stroke="black"/>
<path d="M102,291v 4" fill="none" stroke="black"/>
<path d="M113,287v 8" fill="none" stroke="black"/>
<path d="M125,291v 4" fill="none" stroke="black"/>
<path d="M136,291v 4" fill="none" stroke="black"/>
<path d="M147,291v 4" fill="none" stroke="black"/>
<path d="M159,291v 4" fill="none" stroke="black"/>
<path d="M170,287v 8" fill="none" stroke="black"/>
<path d="M181,291v 4" fill="none" stroke="black"/>
<path d="M193,291v 4" fill="none" stroke="black"/>
<path d="M204,291v 4" fill="none" stroke="black"/>
<path d="M215,291v 4" fill="none" stroke="black"/>
<path d="M227,287v 8" fill="none" stroke="black"/>
<path d="M238,291v 4" fill="none" stroke="black"/>
<path d="M249,291v 4" fill="none" stroke="black"/>
<path d="M261,291v 4" fill="none" stroke="black"/>
<path d="M272,291v 4" fill="none" stroke="black"/>
<path d="M283,287v 8" fill="none" stroke="black"/>
<path d="M295,291v 4" fill="none" stroke="black"/>
<path d="M306,291v 4" fill="none" stroke="black"/>
<path d="M317,291v 4" fill="none" stroke="black"/>
<path d="M329,291v 4" fill="none" stroke="black"/>
<path d="M340,287v 8" fill="none" stroke="black"/>
<path d="M351,291v 4" fill="none" stroke="black"/>
<path d="M363,291v 4" fill="none" stroke="black"/>
<path d="M374,291v 4" fill="none" stroke="black"/>
<path d="M386,291v 4" fill="none" stroke="black"/>
<path d="M397,287v 8" fill="none" stroke="black"/>
<path d="M408,291v 4" fill="none" stroke="black"/>
<path d="M420,291v 4" fill="none" stroke="black"/>
<path d="M431,291v 4" fill="none" stroke="black"/>
<path d="M442,291v 4" fill="none" stroke="black"/>
<path d="M454,287v 8" fill="none" stroke="black"/>
<path d="M465,291v 4" fill="none" stroke="black"/>
<path d="M476,291v 4" fill="none" stroke="black"/>
<path d="M488,291v 4" fill="none" stroke="black"/>
<path d="M499,291v 4" fill="none" stroke="black"/>
<path d="M510,287v 8" fill="none" stroke="black"/>
<text x="40" y="306" fill="black" font-size="11" font-family="Helvetica">
-20000
</text>
<text x="97" y="306" fill="black" font-size="11" font-family="Helvetica">
-15000
</text>
<text x="153" y="306" fill="black" font-size="11" font-family="Helvetica">
-10000
</text>
<text x="213" y="306" fill="black" font-size="11" font-family="Helvetica">
-5000
</text>
<text x="281" y="306" fill="black" font-size="11" font-family="Helvetica">
0
</text>
<text x="328" y="306" fill="black" font-size="11" font-family="Helvetica">
5000
</text>
<text x="382" y="306" fill="black" font-size="11" font-family="Helvetica">
10000
</text>
<text x="439" y="306" fill="black" font-size="11" font-family="Helvetica">
15000
</text>
<text x="495" y="306" fill="black" font-size="11" font-family="Helvetica">
20000
</text>
<path d="M57,295v -262" fill="none" stroke="black"/>
<g transform="rotate(-90,29,61)">
<text x="29" y="61" fill="black" font-size="11" font-family="Helvetica">
Count
</text>
</g>
<path d="M70,295h -13" fill="none" stroke="black"/>
<path d="M63,288h -6" fill="none" stroke="black"/>
<path d="M63,280h -6" fill="none" stroke="black"/>
<path d="M63,272h -6" fill="none" stroke="black"/>
<path d="M70,265h -13" fill="none" stroke="black"/>
<path d="M63,257h -6" fill="none" stroke="black"/>
<path d="M63,250h -6" fill="none" stroke="black"/>
<path d="M63,242h -6" fill="none" stroke="black"/>
<path d="M70,234h -13" fill="none" stroke="black"/>
<path d="M63,227h -6" fill="none" stroke="black"/>
<path d="M63,219h -6" fill="none" stroke="black"/>
<path d="M63,211h -6" fill="none" stroke="black"/>
<path d="M70,204h -13" fill="none" stroke="black"/>
<path d="M63,196h -6" fill="none" stroke="black"/>
<path d="M63,189h -6" fill="none" stroke="black"/>
<path d="M63,181h -6" fill="none" stroke="black"/>
<path d="M70,173h -13" fill="none" stroke="black"/>
<path d="M63,166h -6" fill="none" stroke="black"/>
<path d="M63,158h -6" fill="none" stroke="black"/>
<path d="M63,151h -6" fill="none" stroke="black"/>
<path d="M70,143h -13" fill="none" stroke="black"/>
<path d="M63,135h -6" fill="none" stroke="black"/>
<path d="M63,128h -6" fill="none" stroke="black"/>
<path d="M63,120h -6" fill="none" stroke="black"/>
<path d="M70,112h -13" fill="none" stroke="black"/>
<path d="M63,105h -6" fill="none" stroke="black"/>
<path d="M63,97h -6" fill="none" stroke="black"/>
<path d="M63,90h -6" fill="none" stroke="black"/>
<path d="M70,82h -13" fill="none" stroke="black"/>
<path d="M63,74h -6" fill="none" stroke="black"/>
<path d="M63,67h -6" fill="none" stroke="black"/>
<path d="M63,59h -6" fill="none" stroke="black"/>
<path d="M70,52h -13" fill="none" stroke="black"/>
<path d="M70,52h -13" fill="none" stroke="black"/>
<path d="M63,44h -6" fill="none" stroke="black"/>
<path d="M63,36h -6" fill="none" stroke="black"/>
<text x="48" y="299" fill="black" font-size="11" font-family="Helvetica">
0
</text>
<text x="42" y="269" fill="black" font-size="11" font-family="Helvetica">
20
</text>
<text x="42" y="238" fill="black" font-size="11" font-family="Helvetica">
40
</text>
<text x="42" y="208" fill="black" font-size="11" font-family="Helvetica">
60
</text>
<text x="42" y="177" fill="black" font-size="11" font-family="Helvetica">
80
</text>
<text x="36" y="147" fill="black" font-size="11" font-family="Helvetica">
100
</text>
<text x="36" y="116" fill="black" font-size="11" font-family="Helvetica">
120
</text>
<text x="36" y="86" fill="black" font-size="11" font-family="Helvetica">
140
</text>
<text x="36" y="55" fill="black" font-size="11" font-family="Helvetica">
160
</text>
<rect x="351" y="22" width="205" height="91" fill="white"/>
<path d="M351,113h 205" fill="none" stroke="black"/>
<path d="M556,113v -91" fill="none" stroke="black"/>
<path d="M556,22h -205" fill="none" stroke="black"/>
<path d="M351,22v 91" fill="none" stroke="black"/>
<text x="361" y="34" fill="black" font-size="13" font-family="Helvetica">
Entries 
</text>
<text x="506" y="34" fill="black" font-size="13" font-family="Helvetica">
 12614
</text>
<text x="373" y="48" fill="black" font-size="13" font-family="Helvetica">
 / ndf 
</text>
<text x="369" y="44" fill="black" font-size="9" font-family="Helvetica">
2
</text>
<text x="361" y="48" fill="black" font-size="13" font-family="Times">
&#0967;
</text>
<text x="469" y="49" fill="black" font-size="13" font-family="Helvetica">
 801.1 / 1243
</text>
<text x="379" y="63" fill="black" font-size="13" font-family="Helvetica">
   
</text>
<text x="370" y="66" fill="black" font-size="9" font-family="Helvetica">
cu
</text>
<text x="361" y="63" fill="black" font-size="13" font-family="Helvetica">
N
</text>
<text x="509" y="64" fill="black" font-size="13" font-family="Helvetica">
 10.14
</text>
<text x="502" y="64" fill="black" font-size="13" font-family="Times">
&#0177;
</text>
<text x="462" y="64" fill="black" font-size="13" font-family="Helvetica">
 96.48 
</text>
<text x="376" y="77" fill="black" font-size="13" font-family="Helvetica">
 
</text>
<text x="367" y="80" fill="black" font-size="9" font-family="Helvetica">
cu
</text>
<text x="361" y="77" fill="black" font-size="13" font-family="Times">
&#0964;
</text>
<text x="517" y="80" fill="black" font-size="13" font-family="Helvetica">
 26.5
</text>
<text x="510" y="80" fill="black" font-size="13" font-family="Times">
&#0177;
</text>
<text x="469" y="80" fill="black" font-size="13" font-family="Helvetica">
 207.9 
</text>
<text x="373" y="93" fill="black" font-size="13" font-family="Helvetica">
    
</text>
<text x="370" y="97" fill="black" font-size="9" font-family="Helvetica">
f
</text>
<text x="361" y="93" fill="black" font-size="13" font-family="Helvetica">
N
</text>
<text x="516" y="95" fill="black" font-size="13" font-family="Helvetica">
 1.74
</text>
<text x="509" y="95" fill="black" font-size="13" font-family="Times">
&#0177;
</text>
<text x="469" y="95" fill="black" font-size="13" font-family="Helvetica">
 85.68 
</text>
<text x="369" y="107" fill="black" font-size="13" font-family="Helvetica">
 
</text>
<text x="367" y="111" fill="black" font-size="9" font-family="Helvetica">
f
</text>
<text x="361" y="107" fill="black" font-size="13" font-family="Times">
&#0964;
</text>
<text x="517" y="110" fill="black" font-size="13" font-family="Helvetica">
 25.6
</text>
<text x="510" y="110" fill="black" font-size="13" font-family="Times">
&#0177;
</text>
<text x="469" y="110" fill="black" font-size="13" font-family="Helvetica">
  2217 
</text>
<text x="179" y="16" fill="black" font-size="15" font-family="Helvetica">
mu-_1mm_Aluminium_500000
</text></svg>
