<?xml version="1.0" standalone="no"?>
<svg width="567" height="328" viewBox="0 0 567 328" xmlns="http://www.w3.org/2000/svg">
<title>
images/sim_vs_count/sim_mu+_0.5mm_Aluminium_loose_cu_f_16ns_bins_500k.svg
</title>
<desc>
Creator: ROOT Version 5.34/09
CreationDate: Sun Nov  3 22:25:59 2013</desc>
<defs>
</defs>
<rect x="0" y="0" width="567" height="328" fill="white"/>
<rect x="57" y="33" width="453" height="262" fill="white"/>
<rect x="57" y="33" width="453" height="262" fill="none" stroke="black"/>
<rect x="57" y="33" width="453" height="262" fill="white"/>
<rect x="57" y="33" width="453" height="262" fill="none" stroke="black"/>
<path d="M57,295h 227v -244h 1v -1v 29v -20v 8h 1v -22v 27v -16v 19v -11h 1v 31v -25v 19v -18h 1v 25v -13v 5v -2h 1v 4v -12v 40v -50h 1v 20v -6v 42h 1v 11v -37v 24v -7v 20h 1v -39v 24v -11h 1v 15v -27v 39h 1v 25v -37v 22v -16h 1v 8v -10v 16v -26v 28v
 -19h 1v 21v -14v 19h 1v 6v -19v 22v -1v 7h 1v -19v 17v -10h 1v -21v 25v -7v 18h 1v -25v 28h 1v -25v 37v -25v 28h 1v -23v 20v -8v 7h 1v -27v 31v -20v 18v -13h 1v 1v -1v 11v -15h 1v 32v -13v 10v -11v 5h 1v -7v 18v -20v 6h 1v 18v -21v 30v -19v 2h 1v
 -19v 18h 1v -4v 6v -2v 11v -14v 18h 1v -19v 18v -19v 22v -3h 1v 5v -12v 20h 1v -15v 12v -12h 1v 21h 1v -32v 17v -6v 16v -4v 2h 1v 5v -20v 21v -12h 1v 10v -7v 18v -20h 1v 15v -7v 5v -1h 1v -1v 8v -7v 2v -6h 1v 24v -13v 3h 1v 6v -20v 23h 1v -10v 2v
 -6v 7h 1v -15v 14v -4v 12h 1v -15v 12v -7v 7h 1v 10v -18v 7v -2h 1v -10v 21v -12v 7v -6h 1v 9v -8v 14v -11v 5h 1v -11v 8v -7v 5h 1v -3v 11v -4v 2v -5h 1v 11v -13v 15v -6h 1v -2v 8v -18v 18v -7h 1v 4v -1v 6h 1v -4v 8v -13v 10v -17h 1v 11v -8v 16h 1v
 -5v 1v -2v 6v -2h 1v -4v 14v -16h 1v 7v -5v 4v -6v 6h 1v 2v -9v 5v -4v 18h 1v -20v 19v -12v 3h 1v -1v 7v -16v 13h 1v -5v 13v -11v 8v -4h 1v -13v 14v -3h 1v -9v 11v -6h 1v 8v -5v 3h 1v 5v -7v 2v -2v 8h 1v 2v -4v 1v -7v 5h 1v 2v -1v 3v -11h 1v 10v
 -10h 1v 15v -7h 1v -2v 9v -5h 1v -4v 2v -2v 7h 1v -1v 3v -8v 7h 1v 2v -13v 14h 1v 2v -16v 13v -3h 1v -3v 1v -1v 8v -8h 1v 3v -3v 7h 1v -8v 2v -5h 1v -1v 15v -4v 2h 1v -4v 1v -6h 1v 9v -9v 9v -5v 4h 1v 1v -6h 1v 7v -5v 3h 1v -2v 2v -4v 9h 1v -7v 2v
 -8v 10h 1v 1v -2v 1v -3h 1v 1v -4v 4v -1v 1v -5h 1v 9v -5h 1v 7v -6v 3v -1h 1v -3v 2v -1h 1v 8v -8v 2v -2v 2h 1v -2v 5h 1v -3v 4v -5v 1h 1v 8v -10h 1v 7v -7v 6v -2v 3h 1v -8v 7v -2h 1v 1v -1v 4v -4v 1h 1v -5v 7v -2v 2h 1v -5v 6v -5v 3v -4h 1v -1v 7v
 -6h 1v 5v -3v 5v -4h 1v 2v -1v 2h 1v -4v 6v -12v 8h 1v -5v 5v -4h 1v 8v -6v 2v -1h 1v -1v 4v -5h 1v 6v -4h 1v -4v 6h 1v -5v 6v -2v 2h 1v -2v 3v -2h 1v 2v -5v 4h 1v -2v 2v -5v 5h 1v -1v 1v -4v 5h 1v -2v 2v -4v 2h 1v 1v -3v 3h 1v -4v 4v -1v 2h 1v -2v
 1h 1v -4v 6v -2h 1v -2v 3v -4h 1v 3h 1v -2v 2h 1v 2v -1h 1v -3v 3v -1h 1v -1v 3v -2v 1h 1v -1v 2v -2h 1v -1v 1v -1v 1h 1v 1v -2v 2h 1v -1v 2v -2h 1v 1v -2v 3h 1v -2v 2v -1h 1v -1v 2v -2v 1v -1h 1v 2v -2v 1h 1v 1h 1v -2v 2v -2v 1h 1v -2v 2h 1v -1v 1h
 1v 1v -1v 1v -1h 1v -1v 1v -1v 2h 1v -3v 3v -1h 1v 1v -2h 1v 2v -5v 5v -2h 1v 2v -2v 2h 1v -3v 3h 1v -2v 2v -2h 1v 2v -2h 1v 2v -2v 1h 1v 1v -1v 1h 1v -2v 2h 1v -2v 2v -1v 1v -2h 1v 2v -1v 1v -2h 1v 2v -1h 1v 1v -2v 2h 1v -2v 2v -1v 1h 1v -1v 1v -2h
 1v 2v -1h 1v 1v -2v 2h 1v -2v 2v -1v 1h 1v -2v 2h 1v -1v 1h 1v -1v 1v -1v 1h 1v -1v 1v -1v 1h 1v -2v 2h 1v -1v 1v -2v 2v -1h 1v 1v -2v 2h 1v -1v 1v -2v 2h 1v -2v 2v -1h 1v 1h 1v -1v 1v -2h 1v 2h 1v -1h 1v 1v -1v 1h 1v -1v 1v -1v 1h 3v -2v 2h 1v -1v
 1h 1v -1v 1v -1v 1h 1v -1v 1h 1v -1v 1h 1v -1h 1v 1v -2v 2h 1v -2v 2h 1v -1v 1h 1v -1v 1v -1h 1v 1h 4v -1h 1v 1h 1v -1v 1h 2v -1v 1h 1v -1v 1h 1v -1v 1h 1v -1v 1h 2v -1v 1h 2v -1v 1h 2v -1v 1h 3v -1h 1v 1h 4v -1v 1h 18v -1h 1v 1h 2v -1v 1h 1"
 fill="none" stroke="#000099"/>
<path d="M285,58l 2, 21l 3, 19l 2, 17l 2, 16l 2, 14l 3, 13l 2, 12l 2, 11l 3, 10l 2, 9l 2, 9l 2, 7l 3, 7l 2, 6l 2, 6l 2, 5l 3, 5l 2, 5l 2, 4l 2, 3l 3, 4l 2, 3l 2, 2l 2, 3l 3, 2l 2, 2l 2, 2l 2, 2l 3, 2l 2, 1l 2, 1l 3, 2l 2, 1l 2, 1l 2, 1h 3l 2, 1l 2,
 1l 2, 1h 3l 2, 1h 2l 2, 1h 5l 2, 1h 5l 2, 1" fill="none" stroke="#ff0000" stroke-width="2"/>
<path d="M396,293h 9l 2, 1h 21l 2, 1h 77" fill="none" stroke="#ff0000" stroke-width="2"/>
<path d="M507,295h 2" fill="none" stroke="#ff0000" stroke-width="2"/>
<rect x="351" y="22" width="205" height="65" fill="white"/>
<path d="M351,87h 205" fill="none" stroke="black"/>
<path d="M556,87v -65" fill="none" stroke="black"/>
<path d="M556,22h -205" fill="none" stroke="black"/>
<path d="M351,22v 65" fill="none" stroke="black"/>
<text x="361" y="35" fill="black" font-size="14" font-family="Helvetica">
Entries 
</text>
<text x="504" y="35" fill="black" font-size="14" font-family="Helvetica">
 37931
</text>
<text x="374" y="50" fill="black" font-size="14" font-family="Helvetica">
 / ndf 
</text>
<text x="369" y="46" fill="black" font-size="9" font-family="Helvetica">
2
</text>
<text x="361" y="50" fill="black" font-size="14" font-family="Times">
&#0967;
</text>
<text x="462" y="51" fill="black" font-size="14" font-family="Helvetica">
  1034 / 1245
</text>
<text x="374" y="66" fill="black" font-size="14" font-family="Helvetica">
    
</text>
<text x="371" y="70" fill="black" font-size="9" font-family="Helvetica">
f
</text>
<text x="361" y="66" fill="black" font-size="14" font-family="Helvetica">
N
</text>
<text x="524" y="67" fill="black" font-size="14" font-family="Helvetica">
 2.1
</text>
<text x="516" y="67" fill="black" font-size="14" font-family="Times">
&#0177;
</text>
<text x="476" y="67" fill="black" font-size="14" font-family="Helvetica">
   285 
</text>
<text x="371" y="80" fill="black" font-size="14" font-family="Helvetica">
 
</text>
<text x="368" y="85" fill="black" font-size="9" font-family="Helvetica">
f
</text>
<text x="361" y="80" fill="black" font-size="14" font-family="Times">
&#0964;
</text>
<text x="514" y="84" fill="black" font-size="14" font-family="Helvetica">
 11.2
</text>
<text x="506" y="84" fill="black" font-size="14" font-family="Times">
&#0177;
</text>
<text x="462" y="84" fill="black" font-size="14" font-family="Helvetica">
  2177 
</text>
<path d="M57,295h 453" fill="none" stroke="black"/>
<text x="466" y="317" fill="black" font-size="11" font-family="Helvetica">
Time (ns)
</text>
<path d="M57,287v 8" fill="none" stroke="black"/>
<path d="M68,291v 4" fill="none" stroke="black"/>
<path d="M79,291v 4" fill="none" stroke="black"/>
<path d="M91,291v 4" fill="none" stroke="black"/>
<path d="M102,291v 4" fill="none" stroke="black"/>
<path d="M113,287v 8" fill="none" stroke="black"/>
<path d="M125,291v 4" fill="none" stroke="black"/>
<path d="M136,291v 4" fill="none" stroke="black"/>
<path d="M147,291v 4" fill="none" stroke="black"/>
<path d="M159,291v 4" fill="none" stroke="black"/>
<path d="M170,287v 8" fill="none" stroke="black"/>
<path d="M181,291v 4" fill="none" stroke="black"/>
<path d="M193,291v 4" fill="none" stroke="black"/>
<path d="M204,291v 4" fill="none" stroke="black"/>
<path d="M215,291v 4" fill="none" stroke="black"/>
<path d="M227,287v 8" fill="none" stroke="black"/>
<path d="M238,291v 4" fill="none" stroke="black"/>
<path d="M249,291v 4" fill="none" stroke="black"/>
<path d="M261,291v 4" fill="none" stroke="black"/>
<path d="M272,291v 4" fill="none" stroke="black"/>
<path d="M283,287v 8" fill="none" stroke="black"/>
<path d="M295,291v 4" fill="none" stroke="black"/>
<path d="M306,291v 4" fill="none" stroke="black"/>
<path d="M317,291v 4" fill="none" stroke="black"/>
<path d="M329,291v 4" fill="none" stroke="black"/>
<path d="M340,287v 8" fill="none" stroke="black"/>
<path d="M351,291v 4" fill="none" stroke="black"/>
<path d="M363,291v 4" fill="none" stroke="black"/>
<path d="M374,291v 4" fill="none" stroke="black"/>
<path d="M386,291v 4" fill="none" stroke="black"/>
<path d="M397,287v 8" fill="none" stroke="black"/>
<path d="M408,291v 4" fill="none" stroke="black"/>
<path d="M420,291v 4" fill="none" stroke="black"/>
<path d="M431,291v 4" fill="none" stroke="black"/>
<path d="M442,291v 4" fill="none" stroke="black"/>
<path d="M454,287v 8" fill="none" stroke="black"/>
<path d="M465,291v 4" fill="none" stroke="black"/>
<path d="M476,291v 4" fill="none" stroke="black"/>
<path d="M488,291v 4" fill="none" stroke="black"/>
<path d="M499,291v 4" fill="none" stroke="black"/>
<path d="M510,287v 8" fill="none" stroke="black"/>
<text x="40" y="306" fill="black" font-size="11" font-family="Helvetica">
-20000
</text>
<text x="97" y="306" fill="black" font-size="11" font-family="Helvetica">
-15000
</text>
<text x="153" y="306" fill="black" font-size="11" font-family="Helvetica">
-10000
</text>
<text x="213" y="306" fill="black" font-size="11" font-family="Helvetica">
-5000
</text>
<text x="281" y="306" fill="black" font-size="11" font-family="Helvetica">
0
</text>
<text x="328" y="306" fill="black" font-size="11" font-family="Helvetica">
5000
</text>
<text x="382" y="306" fill="black" font-size="11" font-family="Helvetica">
10000
</text>
<text x="439" y="306" fill="black" font-size="11" font-family="Helvetica">
15000
</text>
<text x="495" y="306" fill="black" font-size="11" font-family="Helvetica">
20000
</text>
<path d="M57,295v -262" fill="none" stroke="black"/>
<g transform="rotate(-90,29,61)">
<text x="29" y="61" fill="black" font-size="11" font-family="Helvetica">
Count
</text>
</g>
<path d="M70,295h -13" fill="none" stroke="black"/>
<path d="M63,286h -6" fill="none" stroke="black"/>
<path d="M63,277h -6" fill="none" stroke="black"/>
<path d="M63,268h -6" fill="none" stroke="black"/>
<path d="M63,260h -6" fill="none" stroke="black"/>
<path d="M70,251h -13" fill="none" stroke="black"/>
<path d="M63,242h -6" fill="none" stroke="black"/>
<path d="M63,233h -6" fill="none" stroke="black"/>
<path d="M63,224h -6" fill="none" stroke="black"/>
<path d="M63,215h -6" fill="none" stroke="black"/>
<path d="M70,206h -13" fill="none" stroke="black"/>
<path d="M63,197h -6" fill="none" stroke="black"/>
<path d="M63,188h -6" fill="none" stroke="black"/>
<path d="M63,179h -6" fill="none" stroke="black"/>
<path d="M63,170h -6" fill="none" stroke="black"/>
<path d="M70,161h -13" fill="none" stroke="black"/>
<path d="M63,153h -6" fill="none" stroke="black"/>
<path d="M63,144h -6" fill="none" stroke="black"/>
<path d="M63,135h -6" fill="none" stroke="black"/>
<path d="M63,126h -6" fill="none" stroke="black"/>
<path d="M70,117h -13" fill="none" stroke="black"/>
<path d="M63,108h -6" fill="none" stroke="black"/>
<path d="M63,99h -6" fill="none" stroke="black"/>
<path d="M63,90h -6" fill="none" stroke="black"/>
<path d="M63,81h -6" fill="none" stroke="black"/>
<path d="M70,72h -13" fill="none" stroke="black"/>
<path d="M70,72h -13" fill="none" stroke="black"/>
<path d="M63,63h -6" fill="none" stroke="black"/>
<path d="M63,54h -6" fill="none" stroke="black"/>
<path d="M63,45h -6" fill="none" stroke="black"/>
<path d="M63,37h -6" fill="none" stroke="black"/>
<text x="48" y="299" fill="black" font-size="11" font-family="Helvetica">
0
</text>
<text x="42" y="254" fill="black" font-size="11" font-family="Helvetica">
50
</text>
<text x="36" y="210" fill="black" font-size="11" font-family="Helvetica">
100
</text>
<text x="36" y="165" fill="black" font-size="11" font-family="Helvetica">
150
</text>
<text x="36" y="121" fill="black" font-size="11" font-family="Helvetica">
200
</text>
<text x="36" y="76" fill="black" font-size="11" font-family="Helvetica">
250
</text>
<rect x="351" y="22" width="205" height="65" fill="white"/>
<path d="M351,87h 205" fill="none" stroke="black"/>
<path d="M556,87v -65" fill="none" stroke="black"/>
<path d="M556,22h -205" fill="none" stroke="black"/>
<path d="M351,22v 65" fill="none" stroke="black"/>
<text x="361" y="35" fill="black" font-size="14" font-family="Helvetica">
Entries 
</text>
<text x="504" y="35" fill="black" font-size="14" font-family="Helvetica">
 37931
</text>
<text x="374" y="50" fill="black" font-size="14" font-family="Helvetica">
 / ndf 
</text>
<text x="369" y="46" fill="black" font-size="9" font-family="Helvetica">
2
</text>
<text x="361" y="50" fill="black" font-size="14" font-family="Times">
&#0967;
</text>
<text x="462" y="51" fill="black" font-size="14" font-family="Helvetica">
  1034 / 1245
</text>
<text x="374" y="66" fill="black" font-size="14" font-family="Helvetica">
    
</text>
<text x="371" y="70" fill="black" font-size="9" font-family="Helvetica">
f
</text>
<text x="361" y="66" fill="black" font-size="14" font-family="Helvetica">
N
</text>
<text x="524" y="67" fill="black" font-size="14" font-family="Helvetica">
 2.1
</text>
<text x="516" y="67" fill="black" font-size="14" font-family="Times">
&#0177;
</text>
<text x="476" y="67" fill="black" font-size="14" font-family="Helvetica">
   285 
</text>
<text x="371" y="80" fill="black" font-size="14" font-family="Helvetica">
 
</text>
<text x="368" y="85" fill="black" font-size="9" font-family="Helvetica">
f
</text>
<text x="361" y="80" fill="black" font-size="14" font-family="Times">
&#0964;
</text>
<text x="514" y="84" fill="black" font-size="14" font-family="Helvetica">
 11.2
</text>
<text x="506" y="84" fill="black" font-size="14" font-family="Times">
&#0177;
</text>
<text x="462" y="84" fill="black" font-size="14" font-family="Helvetica">
  2177 
</text>
<text x="170" y="16" fill="black" font-size="15" font-family="Helvetica">
mu+_0.5mm_Aluminium_500000
</text></svg>
