<?xml version="1.0" standalone="no"?>
<svg width="567" height="328" viewBox="0 0 567 328" xmlns="http://www.w3.org/2000/svg">
<title>
images/sim_vs_count/sim_mu-_5mm_Air_tight_16ns_bins_500k.svg
</title>
<desc>
Creator: ROOT Version 5.34/09
CreationDate: Sun Nov  3 20:41:21 2013</desc>
<defs>
</defs>
<rect x="0" y="0" width="567" height="328" fill="white"/>
<rect x="57" y="33" width="453" height="262" fill="white"/>
<rect x="57" y="33" width="453" height="262" fill="none" stroke="black"/>
<rect x="57" y="33" width="453" height="262" fill="white"/>
<rect x="57" y="33" width="453" height="262" fill="none" stroke="black"/>
<path d="M57,295h 227v -240v 23h 1v -14v 77v -40v 27h 1v -6v 35v -49h 1v 56v -12v 30v -30v 5h 1v 20v -7v 31v -31h 1v 12v -34v 32v -3v 18h 1v 16v -40v 23h 1v -16v 32v -8v 19h 1v -20v 30v -44v 25h 1v 5v -12v 19v -17h 1v -5v 23v -5v 1h 1v 1v -20v 32v
 -22v 20h 1v -20v 9v -7h 1v 16v -10v 4v -10v 14h 1v 7v -23v 12v -3h 1v 3v -7v 24v -11v 12h 1v 8v -13v 7h 1v -19v 13v -10h 1v 27v -10h 1v -14v 9v -9v 17h 1v -6v 15v -27v 18h 1v -4v 6v -12v 14h 1v -12v 15v -21h 1v 18v -7v 16v -16v 6v -11h 1v 11h 1v
 -19v 23v -14v 21v -4h 1v 7v -30v 37h 1v -35v 18v -13v 23h 1v -13v 15v -9h 1v -10v 9v -2h 1v 13v -16v 13h 1v -5v 8v -8v 1h 1v -20v 26v -10v 5h 1v 6v -13v 12h 1v -12v 20v -14v 10h 1v -14v 5v -8v 30v -16h 1v -16v 23v -15v 20h 1v -19v 9v -9v 11h 1v -7v
 5v -10v 11h 1v -11v 15v -3h 1v 2v -10v 14v -13h 1v 17v -15h 1v 11v -4v 3v -9v 7h 1v -5v 8v -11v 11v -13h 1v 7v -2v 7v -2v 3h 1v 6v -17v 14v -6h 1v 2v -6v 10h 1v -7v 10v -9h 1v 5v -12v 13v -1h 1v -3v 4v -1h 1v 7v -9v 3v -9v 2h 1v 8v -11v 13h 1v -7v
 7v -6v 9v -16h 1v 13v -7h 1v 3v -12v 19v -10v 5h 1v 2v -6v 7h 1v -7v 12v -8v 3v -7h 1v 10v -8h 1v 11v -13v 7v -1h 1v 4v -3v 2v -5h 1v 3v -3v 3v -4h 1v 6v -10h 1v 11v -1v 3v -6h 1v -9v 10v -4v 4h 1v 5v -2v 2v -3v 5h 1v -11h 1v 9v -6v 4v -4h 1v 8v -7v
 5v -5v 7h 1v -8v 7v -6h 1v 6v -3v 4v -2h 1v 1v -9v 8v -8v 6h 1v -3v 6h 1v -7v 7v -7v 6h 1v -3v 5v -7h 1v 3v -6v 10h 1v -4v 2h 1v -3v 5v -2v 2v -4h 1v 6v -6v 7v -4h 1v 1v -2v 1v -3h 1v 6v -9h 1v 7v -5v 3v -5h 1v 7v -4v 4v -4h 1v 6h 1v -12v 10h 1v -2v
 5v -7h 1v 6v -3v 1h 1v 2v -4v 2h 1v -1v 1v -2v 5h 1v -4v 3v -4h 1v 2v -4v 6v -3h 1v 4v -7h 1v 6v -6v 7v -3v 2h 1v -3v 4v -3h 1v 3v -5v 2v -1v 4h 1v -3v 2v -2v 2h 1v -4v 5h 1v -4v 4v -7h 1v 7v -5v 4h 1v -3v 4v -3h 1v 2v -2v 2v -2v 3h 1v -5v 4v -2h 1v
 3v -3v 3h 1v -5v 2h 1v 2v -3v 4v -1v 1h 1v -1v 1v -3h 1v -2v 4v -2v 3v -1h 1v -3v 4v -1h 1v 1v -3v 3h 1v -1v 1v -3v 3v -3h 1v 3v -3v 2v -2v 2h 1v 1h 1v -3v 3v -4v 1h 1v 3v -3v 2v -3v 3h 1v 1v -1v 1h 1v -3v 3v -1h 1v 1v -3v 2v -2h 1v 3v -1h 1v 1v -1v
 1h 1v -1v 1v -3v 3h 1v -1v 1v -1h 1v -2v 3v -1v 1h 1v -4v 4h 1v -1v 1v -1h 1v 1v -1h 1v 1v -3v 2h 1v 1v -1v 1v -3h 1v 2v -2v 3h 1v -1h 1v 1h 1v -1v 1h 1v -1v 1v -1h 1v 1v -1h 1v 1v -1h 1v 1h 2v -1v 1v -1h 1v -2v 3v -1v 1h 1v -1v 1h 1v -1v 1h 1v -1v
 1h 1v -1h 1v 1v -3v 3h 1v -1v 1h 2v -1v 1h 1v -3v 3v -1h 1v 1v -1v 1v -3v 3h 2v -1v 1v -1v 1h 1v -1v 1h 1v -1v 1h 1v -1v 1v -1h 1v 1v -1v 1h 1v -1v 1h 1v -1v 1h 1v -1v 1h 3v -1v 1v -1h 1v 1h 1v -1v 1h 1v -1v 1v -1h 1v 1h 1v -3v 3v -1v 1h 2v -3v 3h
 5v -1v 1h 5v -1v 1h 1v -1h 1v 1h 1v -1v 1h 1v -1h 1v 1h 3v -1v 1h 13v -1v 1h 5v -1v 1h 13v -1v 1h 7v -1v 1h 4v -1h 1v 1" fill="none" stroke="#000099"/>
<path d="M285,107l 2, 61l 3, 24l 2, 13l 2, 9l 2, 8l 3, 6l 2, 6l 2, 5l 3, 5l 2, 5l 2, 4l 2, 3l 3, 4l 2, 3l 2, 3l 2, 2l 3, 3l 2, 2l 2, 2l 2, 1l 3, 2l 2, 2l 2, 1l 2, 1l 3, 1l 2, 1l 2, 1l 2, 1l 3, 1l 2, 1h 2l 3, 1h 2l 2, 1h 2l 3, 1h 2l 2, 1h 7l 2, 1h 9l
 2, 1h 5" fill="none" stroke="#ff0000" stroke-width="2"/>
<path d="M396,294h 14l 2, 1h 95" fill="none" stroke="#ff0000" stroke-width="2"/>
<path d="M507,295h 2" fill="none" stroke="#ff0000" stroke-width="2"/>
<rect x="351" y="22" width="205" height="91" fill="white"/>
<path d="M351,113h 205" fill="none" stroke="black"/>
<path d="M556,113v -91" fill="none" stroke="black"/>
<path d="M556,22h -205" fill="none" stroke="black"/>
<path d="M351,22v 91" fill="none" stroke="black"/>
<text x="361" y="34" fill="black" font-size="13" font-family="Helvetica">
Entries 
</text>
<text x="506" y="34" fill="black" font-size="13" font-family="Helvetica">
 12603
</text>
<text x="373" y="48" fill="black" font-size="13" font-family="Helvetica">
 / ndf 
</text>
<text x="369" y="44" fill="black" font-size="9" font-family="Helvetica">
2
</text>
<text x="361" y="48" fill="black" font-size="13" font-family="Times">
&#0967;
</text>
<text x="469" y="49" fill="black" font-size="13" font-family="Helvetica">
 757.6 / 1243
</text>
<text x="379" y="63" fill="black" font-size="13" font-family="Helvetica">
   
</text>
<text x="370" y="66" fill="black" font-size="9" font-family="Helvetica">
cu
</text>
<text x="361" y="63" fill="black" font-size="13" font-family="Helvetica">
N
</text>
<text x="524" y="64" fill="black" font-size="13" font-family="Helvetica">
 7.5
</text>
<text x="517" y="64" fill="black" font-size="13" font-family="Times">
&#0177;
</text>
<text x="476" y="64" fill="black" font-size="13" font-family="Helvetica">
 127.2 
</text>
<text x="376" y="77" fill="black" font-size="13" font-family="Helvetica">
 
</text>
<text x="367" y="80" fill="black" font-size="9" font-family="Helvetica">
cu
</text>
<text x="361" y="77" fill="black" font-size="13" font-family="Times">
&#0964;
</text>
<text x="524" y="80" fill="black" font-size="13" font-family="Helvetica">
 2.0
</text>
<text x="517" y="80" fill="black" font-size="13" font-family="Times">
&#0177;
</text>
<text x="476" y="80" fill="black" font-size="13" font-family="Helvetica">
 164.5 
</text>
<text x="373" y="93" fill="black" font-size="13" font-family="Helvetica">
    
</text>
<text x="370" y="97" fill="black" font-size="9" font-family="Helvetica">
f
</text>
<text x="361" y="93" fill="black" font-size="13" font-family="Helvetica">
N
</text>
<text x="517" y="95" fill="black" font-size="13" font-family="Helvetica">
 0.89
</text>
<text x="510" y="95" fill="black" font-size="13" font-family="Times">
&#0177;
</text>
<text x="469" y="95" fill="black" font-size="13" font-family="Helvetica">
 86.53 
</text>
<text x="369" y="107" fill="black" font-size="13" font-family="Helvetica">
 
</text>
<text x="367" y="111" fill="black" font-size="9" font-family="Helvetica">
f
</text>
<text x="361" y="107" fill="black" font-size="13" font-family="Times">
&#0964;
</text>
<text x="524" y="110" fill="black" font-size="13" font-family="Helvetica">
 0.0
</text>
<text x="517" y="110" fill="black" font-size="13" font-family="Times">
&#0177;
</text>
<text x="476" y="110" fill="black" font-size="13" font-family="Helvetica">
  2197 
</text>
<path d="M57,295h 453" fill="none" stroke="black"/>
<text x="466" y="317" fill="black" font-size="11" font-family="Helvetica">
Time (ns)
</text>
<path d="M57,287v 8" fill="none" stroke="black"/>
<path d="M68,291v 4" fill="none" stroke="black"/>
<path d="M79,291v 4" fill="none" stroke="black"/>
<path d="M91,291v 4" fill="none" stroke="black"/>
<path d="M102,291v 4" fill="none" stroke="black"/>
<path d="M113,287v 8" fill="none" stroke="black"/>
<path d="M125,291v 4" fill="none" stroke="black"/>
<path d="M136,291v 4" fill="none" stroke="black"/>
<path d="M147,291v 4" fill="none" stroke="black"/>
<path d="M159,291v 4" fill="none" stroke="black"/>
<path d="M170,287v 8" fill="none" stroke="black"/>
<path d="M181,291v 4" fill="none" stroke="black"/>
<path d="M193,291v 4" fill="none" stroke="black"/>
<path d="M204,291v 4" fill="none" stroke="black"/>
<path d="M215,291v 4" fill="none" stroke="black"/>
<path d="M227,287v 8" fill="none" stroke="black"/>
<path d="M238,291v 4" fill="none" stroke="black"/>
<path d="M249,291v 4" fill="none" stroke="black"/>
<path d="M261,291v 4" fill="none" stroke="black"/>
<path d="M272,291v 4" fill="none" stroke="black"/>
<path d="M283,287v 8" fill="none" stroke="black"/>
<path d="M295,291v 4" fill="none" stroke="black"/>
<path d="M306,291v 4" fill="none" stroke="black"/>
<path d="M317,291v 4" fill="none" stroke="black"/>
<path d="M329,291v 4" fill="none" stroke="black"/>
<path d="M340,287v 8" fill="none" stroke="black"/>
<path d="M351,291v 4" fill="none" stroke="black"/>
<path d="M363,291v 4" fill="none" stroke="black"/>
<path d="M374,291v 4" fill="none" stroke="black"/>
<path d="M386,291v 4" fill="none" stroke="black"/>
<path d="M397,287v 8" fill="none" stroke="black"/>
<path d="M408,291v 4" fill="none" stroke="black"/>
<path d="M420,291v 4" fill="none" stroke="black"/>
<path d="M431,291v 4" fill="none" stroke="black"/>
<path d="M442,291v 4" fill="none" stroke="black"/>
<path d="M454,287v 8" fill="none" stroke="black"/>
<path d="M465,291v 4" fill="none" stroke="black"/>
<path d="M476,291v 4" fill="none" stroke="black"/>
<path d="M488,291v 4" fill="none" stroke="black"/>
<path d="M499,291v 4" fill="none" stroke="black"/>
<path d="M510,287v 8" fill="none" stroke="black"/>
<text x="40" y="306" fill="black" font-size="11" font-family="Helvetica">
-20000
</text>
<text x="97" y="306" fill="black" font-size="11" font-family="Helvetica">
-15000
</text>
<text x="153" y="306" fill="black" font-size="11" font-family="Helvetica">
-10000
</text>
<text x="213" y="306" fill="black" font-size="11" font-family="Helvetica">
-5000
</text>
<text x="281" y="306" fill="black" font-size="11" font-family="Helvetica">
0
</text>
<text x="328" y="306" fill="black" font-size="11" font-family="Helvetica">
5000
</text>
<text x="382" y="306" fill="black" font-size="11" font-family="Helvetica">
10000
</text>
<text x="439" y="306" fill="black" font-size="11" font-family="Helvetica">
15000
</text>
<text x="495" y="306" fill="black" font-size="11" font-family="Helvetica">
20000
</text>
<path d="M57,295v -262" fill="none" stroke="black"/>
<g transform="rotate(-90,29,61)">
<text x="29" y="61" fill="black" font-size="11" font-family="Helvetica">
Count
</text>
</g>
<path d="M70,295h -13" fill="none" stroke="black"/>
<path d="M63,288h -6" fill="none" stroke="black"/>
<path d="M63,281h -6" fill="none" stroke="black"/>
<path d="M63,274h -6" fill="none" stroke="black"/>
<path d="M70,267h -13" fill="none" stroke="black"/>
<path d="M63,260h -6" fill="none" stroke="black"/>
<path d="M63,252h -6" fill="none" stroke="black"/>
<path d="M63,245h -6" fill="none" stroke="black"/>
<path d="M70,238h -13" fill="none" stroke="black"/>
<path d="M63,231h -6" fill="none" stroke="black"/>
<path d="M63,224h -6" fill="none" stroke="black"/>
<path d="M63,217h -6" fill="none" stroke="black"/>
<path d="M70,210h -13" fill="none" stroke="black"/>
<path d="M63,202h -6" fill="none" stroke="black"/>
<path d="M63,195h -6" fill="none" stroke="black"/>
<path d="M63,188h -6" fill="none" stroke="black"/>
<path d="M70,181h -13" fill="none" stroke="black"/>
<path d="M63,174h -6" fill="none" stroke="black"/>
<path d="M63,167h -6" fill="none" stroke="black"/>
<path d="M63,160h -6" fill="none" stroke="black"/>
<path d="M70,152h -13" fill="none" stroke="black"/>
<path d="M63,145h -6" fill="none" stroke="black"/>
<path d="M63,138h -6" fill="none" stroke="black"/>
<path d="M63,131h -6" fill="none" stroke="black"/>
<path d="M70,124h -13" fill="none" stroke="black"/>
<path d="M63,117h -6" fill="none" stroke="black"/>
<path d="M63,110h -6" fill="none" stroke="black"/>
<path d="M63,102h -6" fill="none" stroke="black"/>
<path d="M70,95h -13" fill="none" stroke="black"/>
<path d="M63,88h -6" fill="none" stroke="black"/>
<path d="M63,81h -6" fill="none" stroke="black"/>
<path d="M63,74h -6" fill="none" stroke="black"/>
<path d="M70,67h -13" fill="none" stroke="black"/>
<path d="M63,60h -6" fill="none" stroke="black"/>
<path d="M63,52h -6" fill="none" stroke="black"/>
<path d="M63,45h -6" fill="none" stroke="black"/>
<path d="M70,38h -13" fill="none" stroke="black"/>
<path d="M70,38h -13" fill="none" stroke="black"/>
<text x="48" y="299" fill="black" font-size="11" font-family="Helvetica">
0
</text>
<text x="42" y="271" fill="black" font-size="11" font-family="Helvetica">
20
</text>
<text x="42" y="242" fill="black" font-size="11" font-family="Helvetica">
40
</text>
<text x="42" y="213" fill="black" font-size="11" font-family="Helvetica">
60
</text>
<text x="42" y="185" fill="black" font-size="11" font-family="Helvetica">
80
</text>
<text x="36" y="156" fill="black" font-size="11" font-family="Helvetica">
100
</text>
<text x="36" y="128" fill="black" font-size="11" font-family="Helvetica">
120
</text>
<text x="36" y="99" fill="black" font-size="11" font-family="Helvetica">
140
</text>
<text x="36" y="70" fill="black" font-size="11" font-family="Helvetica">
160
</text>
<text x="36" y="42" fill="black" font-size="11" font-family="Helvetica">
180
</text>
<rect x="351" y="22" width="205" height="91" fill="white"/>
<path d="M351,113h 205" fill="none" stroke="black"/>
<path d="M556,113v -91" fill="none" stroke="black"/>
<path d="M556,22h -205" fill="none" stroke="black"/>
<path d="M351,22v 91" fill="none" stroke="black"/>
<text x="361" y="34" fill="black" font-size="13" font-family="Helvetica">
Entries 
</text>
<text x="506" y="34" fill="black" font-size="13" font-family="Helvetica">
 12603
</text>
<text x="373" y="48" fill="black" font-size="13" font-family="Helvetica">
 / ndf 
</text>
<text x="369" y="44" fill="black" font-size="9" font-family="Helvetica">
2
</text>
<text x="361" y="48" fill="black" font-size="13" font-family="Times">
&#0967;
</text>
<text x="469" y="49" fill="black" font-size="13" font-family="Helvetica">
 757.6 / 1243
</text>
<text x="379" y="63" fill="black" font-size="13" font-family="Helvetica">
   
</text>
<text x="370" y="66" fill="black" font-size="9" font-family="Helvetica">
cu
</text>
<text x="361" y="63" fill="black" font-size="13" font-family="Helvetica">
N
</text>
<text x="524" y="64" fill="black" font-size="13" font-family="Helvetica">
 7.5
</text>
<text x="517" y="64" fill="black" font-size="13" font-family="Times">
&#0177;
</text>
<text x="476" y="64" fill="black" font-size="13" font-family="Helvetica">
 127.2 
</text>
<text x="376" y="77" fill="black" font-size="13" font-family="Helvetica">
 
</text>
<text x="367" y="80" fill="black" font-size="9" font-family="Helvetica">
cu
</text>
<text x="361" y="77" fill="black" font-size="13" font-family="Times">
&#0964;
</text>
<text x="524" y="80" fill="black" font-size="13" font-family="Helvetica">
 2.0
</text>
<text x="517" y="80" fill="black" font-size="13" font-family="Times">
&#0177;
</text>
<text x="476" y="80" fill="black" font-size="13" font-family="Helvetica">
 164.5 
</text>
<text x="373" y="93" fill="black" font-size="13" font-family="Helvetica">
    
</text>
<text x="370" y="97" fill="black" font-size="9" font-family="Helvetica">
f
</text>
<text x="361" y="93" fill="black" font-size="13" font-family="Helvetica">
N
</text>
<text x="517" y="95" fill="black" font-size="13" font-family="Helvetica">
 0.89
</text>
<text x="510" y="95" fill="black" font-size="13" font-family="Times">
&#0177;
</text>
<text x="469" y="95" fill="black" font-size="13" font-family="Helvetica">
 86.53 
</text>
<text x="369" y="107" fill="black" font-size="13" font-family="Helvetica">
 
</text>
<text x="367" y="111" fill="black" font-size="9" font-family="Helvetica">
f
</text>
<text x="361" y="107" fill="black" font-size="13" font-family="Times">
&#0964;
</text>
<text x="524" y="110" fill="black" font-size="13" font-family="Helvetica">
 0.0
</text>
<text x="517" y="110" fill="black" font-size="13" font-family="Times">
&#0177;
</text>
<text x="476" y="110" fill="black" font-size="13" font-family="Helvetica">
  2197 
</text>
<text x="205" y="16" fill="black" font-size="15" font-family="Helvetica">
mu-_5mm_Air_500000
</text></svg>
