<?xml version="1.0" standalone="no"?>
<svg width="567" height="385" viewBox="0 0 567 385" xmlns="http://www.w3.org/2000/svg">
<title>
images/analysis_loose_f/455_D3.svg
</title>
<desc>
Creator: ROOT Version 5.34/05
CreationDate: Wed Jun 12 18:00:40 2013</desc>
<defs>
</defs>
<rect x="0" y="0" width="567" height="385" fill="white"/>
<rect x="57" y="38" width="453" height="308" fill="white"/>
<rect x="57" y="38" width="453" height="308" fill="none" stroke="black"/>
<rect x="57" y="38" width="453" height="308" fill="white"/>
<rect x="57" y="38" width="453" height="308" fill="none" stroke="black"/>
<path d="M57,346h 45v -1v 1h 1v -1v 1v -12h 1v 2v -6v 7h 1v -10v 7v -6h 1v 6v -7v 12h 1v -15v 13v -7h 1v 6v -9v 9h 1v -8v 5v -6h 1v 10v -8v 6h 1v -7v 8v -11h 1v 11v -9v 8h 1v -8v 7v -8h 1v 8v -6v 4h 1v 1v -6v 9v -7h 1v 7v -6v 3h 1v 2v -7v 7v -7h 1v
 8v -8v 9h 1v -4v 1v -8v 11v -7h 1v -1v 6v -8v 5h 1v 2v -7v 6v -2h 1v -2v 10v -10v 5h 1v -9v 12v -5h 1v -5v 9v -9v 4h 1v 5v -7v 4v -4h 1v -1v 8v -7v 1h 1v 4v -4v 6v -4h 1v -4v 6v -5h 1v 9v -13v 10v -3h 1v -4v 10v -10h 1v 7v -4v 3h 1v -7v 10v -9h 1v
 7v -6v 8h 1v -11v 8v -10h 1v 13v -9v 9h 1v -13v 12v -12h 1v 10v -7v 8h 1v -7v 8v -9h 1v 10v -8v 7v -2h 1v -5v 7v -5h 1v 6v -8v 6h 1v -14v 17v -6h 1v -4v 8v -7v 8h 1v -10v 10v -9h 1v 7v -10v 13h 1v -10v 7v -7h 1v 9v -7v 1v -3v 7h 1v 1v -13v 14v -11h
 1v 8v -8v 8h 1v -5v 5v -7h 1v 9v -10v 8h 1v 1v -9v 12v -12h 1v 11v -11v 6h 1v 1v -4v 6v -9h 1v 11v -13v 7h 1v 5v -8v 8v -8h 1v 8v -12v 8h 1v 2v -6v 8v -7h 1v 6v -5v 1h 1v 6v -8v 5v -3h 1v -2v 7v -9v 4h 1v 2v -6v 9v -5h 1v -3v 8v -8v 2h 1v 4v -10v
 10v -3h 1v -5v 9v -6v 1h 1v 6v -9v 12v -5h 1v -10v 11v -9h 1v 10v -10v 11v -4h 1v -5v 6v -3h 1v 3v -5v 6h 1v -8v 6v -4h 1v 6v -10v 11h 1v -8v 7v -6h 1v 6v -9v 8h 1v -6v 7v -7h 1v 7v -11v 11h 1v -7v 7v -4h 1v -3v 7v -8v 7h 1v 1v -9v 10v -5h 1v -6v
 14v -14v 11h 1v -6v 7v -5h 1v -6v 5v -3v 7h 1v -9v 10v -5h 1v 1v -3v 7h 1v -7v 5v -5h 1v 6v -5v 8h 1v -10v 7v -6h 1v 5v -12v 13h 1v -7v 6v -9h 1v 9v -5v 3h 1v 2v -5v 8v -9h 1v -2v 9v -4v 2h 1v 1v -6v 6v -2h 1v -5v 12v -15v 8h 1v 2v -3v 3h 1v -4v 6v
 -7h 1v 5v -11v 11v -4v 2h 1v -5v 6v -9h 1v 11v -4v 2v -3v 1h 1v -9v 11v -5h 1v 8v -8v 7v -2h 1v -6v 9v -10h 1v 10v -7v 6h 1v -11v 8v -7h 1v 10v -8v 9h 1v -9v 7v -10h 1v 13v -10v 9v -3h 1v 1v -2v 3v -9h 1v 6v -6v 7h 1v -10v 13v -2h 1v -2v 2v -8v 6h
 1v -7v 11v -4h 1v -3v 5v -6v 7h 1v -8v 6v -4h 1v -3v 8v -6v 7h 1v -10v 13v -4h 1v -11v 14v -9v 5h 1v -12v 15v -6h 1v -3v 8v -9v 9h 1v -7v 5v -4h 1v -4v 11v -14v 13h 1v 2v -11v 7v -2h 1v -3v 6v -6v 9h 1v -11v 9v -4h 1v -3v 7v -11v 8h 1v 2v -8v 8v -2h
 1v -2v 3v -9v 8h 1v 3v -10v 12v -9h 1v -2v 10v -12v 10h 1v -8v 10v -7h 1v -1v 9v -8v 2h 1v 6v -10v 8v -3h 1v -9v 11v -8v 4h 1v -1v 5v -6v 6v -6h 1v -4v 11v -10h 1v 11v -11v 7v -4h 1v -8v 17v -14h 1v 11v -5v 5h 1v -9v 8v -8h 1v 9v -9v 9h 1v -7v 5v
 -8h 1v 9v -4v 5h 1v -8v 9v -8h 1v 7v -8v 7v -3h 1v -7v 10v -4h 1v 4v -8v 10h 1v -9v 7v -3h 1v -3v 7v -5v 3h 1v -10v 12v -7h 1v 10v -15v 12h 1v -9v 9v -6h 1v -7v 13v -11v 11h 1v -10v 6h 1v -5v 8v -7v 5h 1v -10v 11h 1v -10v 10v -6v 5h 1v 1v -6v 8v -5h
 1v -5v 8v -8v 7h 1v 2v -11v 10v -4h 1v -5v 11v -11v 3h 1v 6v -8v 13v -8h 1v -9v 13v -11v 10h 1v -13v 12h 1v -6v 7v -11v 10h 1v -15v 18v -5h 1v -4v 4v -4v 3h 1v 1v -6v 9v -12h 1v 12v -11v 3h 1v 6v -12v 14v -6h 1v -6v 10v -9h 1v 7v -4v 9v -7h 1v -3v
 9v -15h 1v 12v -11v 16v -9h 1v -6v 11v -10h 1v 10v -12v 11v -3h 1v 1v -3v 9v -12h 1v 6v -9v 10h 1v -6v 10v -14h 1v 11v -10v 10v -3h 1v 1v -7v 9v -7h 1v -5v 13v -15v 14h 1v -15v 9v -8h 1v -7v 9v -17v 46h 1v -293v 108h 1v 75v -12h 1v 16v -11v 17h 1v
 -12v 19v -16v 12h 1v 8v -18v 16v -6v 6h 1v -9v 14v -6v 21h 1v -27v 16v -6v 4h 1v -9v 16v -15v 14h 1v 4v -18v 8v -3h 1v 13v -8v 13h 1v -13v 6v -2v 11h 1v -20v 16v -9v 4v -2v 7h 1v 7v -13v 11v -3h 1v -6v 13v -2v 3v -12v 8h 1v 7v -14v 15h 1v -12v 12v
 -9v 9h 1v 5v -13v 8h 1v -9v 9v -12v 12h 1v 4v -11v 14v -7h 1v 5v -18v 16v -3v 1h 1v 8v -7v 5v -1h 1v -8v 8v -7v 8h 1v -5v 7v -12v 12h 1v -10v 14v -10v 6v -8h 1v 12v -13v 12v -2h 1v 1v -7v 11v -7h 1v 13v -13v 6h 1v -4v 6v -9h 1v 11v -12v 13h 1v -9v
 9v -12h 1v 16v -12v 12v -3h 1v -11v 13v -11h 1v 13v -10v 7h 1v -4v 9v -12h 1v 6v -8v 9v -2h 1v 1v -8v 17v -12h 1v 9v -10v 13v -3h 1v -9v 9v -3h 1v -1v 4v -5v 4h 1v 4v -8v 10v -11h 1v -2v 12v -10v 10h 1v 2v -15v 9v -3v 8h 1v -10v 13v -14v 8h 1v -8v
 10v -2h 1v -9v 13v -8v 8h 1v -6v 8v -2h 1v -11v 19v -11v 8h 1v -13v 7h 1v -11v 13v -1v 3v -11v 7h 1v 1v -4v 7v -1h 1v -7v 9v -10v 7h 1v 2v -7v 7v -1h 1v -5v 5v -7v 1h 1v 7v -8v 9h 1v -9v 11v -10v 6h 1v 3v -6v 7h 1v -8v 6v -4v 3h 1v -8v 10v -5h 1v 3v
 -12v 15v -7h 1v 8v -9v 7h 1v -13v 16v -7h 1v 5v -10v 13h 1v -15v 14v -6h 1v 7v -10v 9h 1v -9v 6v -3h 1v 4v -2v 2h 1v -4v 5v -12h 1v 14v -10v 8h 1v -4v 5v -6h 1v 8v -10v 8h 1v -6v 6v -2h 1v 2v -5v 7h 1v -8v 9v -9h 1v 8v -12v 9h 1v -4v 9v -7h 1v 8v
 -11v 7h 1v -9v 10v -6h 1v -1v 8v -7v 6h 1v -4v 5v -3v 2h 1v -8v 9v -9v 8h 1v 4v -9v 4v -6h 1v -2v 7v -6v 11h 1v -12v 9v -5h 1v -9v 16v -8v 4h 1v 6v -9v 6v -1h 1v -5v 11v -16v 11h 1v -5v 4h 1v -4v 4v -11v 8h 1v 5v -6v 8h 1v -14v 12v -10v 10h 1v -12v
 10v -2h 1v -7v 12v -9v 2h 1v 9v -10v 11v -6h 1v -7v 9v -4v 2h 1v 3v -14v 11h 1v 1v -7v 9v -8h 1v 9v -9v 8h 1v -6v 4v -7h 1v 12v -12v 9h 1v -6v 3v -3h 1v 6v -5v 4h 1v 1v -7v 4v -13h 1v 13v -4v 8h 1v -10v 12v -11h 1v 8v -6v 4h 1v 2v -8v 9v -14h 1v 17v
 -15v 10h 1v 2v -10v 9v -5h 1v 7v -16v 12h 1v -4v 5v -5h 1v -6v 12v -10v 12h 1v -12v 13v -10h 1v 9v -10v 8h 1v -7v 6v -5h 1v -1v 8v -6v 6h 1v -10v 12v -5h 1v -5v 10v -11v 10h 1v -12v 10v -3h 1v 2v -1v 2v -10v 9h 1v -8v 9h 1v -5v 6v -11v 11h 1v -8v 8v
 -3h 1v -6v 11v -13v 9h 1v 1v -6v 9v -5h 1v -6v 8v -11v 6h 1v 6v -8v 10v -8h 1v -2v 9v -7v 2h 1v 3v -8v 8h 1v -6v 8v -10v 1h 1v 10v -9v 8h 1v -8v 6v -8h 1v 9v -7v 9h 1v -9v 7v -6h 1v 8v -9v 6h 1v -9v 13v -14h 1v 12v -7v 6h 1v -9v 9v -3h 1v 5v -9v 6h
 1v -10v 11v -10h 1v 10v -4v 1v -3v 3h 1v 4v -9v 9v -6h 1v 4v -6v 10h 1v -7v 1v -6v 8v -11h 1v 11v -3v 2v -7v 8h 1v 2v -6v 4v -7h 1v 9v -17v 15h 1v 2v -8v 6v -4h 1v 6v -7v 3h 1v 3v -9v 9v -2h 1v -6v 9v -6v 5h 1v -10v 10v -5h 1v -3v 11v -13v 7h 1v 3v
 -8v 9v -5h 1v -3v 8v -6v 4h 1v -3v 3h 1v -10v 10v -7v 9h 1v -9v 9v -1h 1v -9v 10v -7v 3h 1v 4v -9v 10v -4h 1v -8v 9v -9v 7h 1v 2v -6v 7h 1v -12v 11v -10v 5h 1v 3v -3v 7v -4h 1v -4v 6v -6v 5h 1v 3v -12v 11v -2h 1v -6v 10v -9v 1h 1v 7v -12v 12v -2h 1v
 -8v 7v -8h 1v 12v -11v 10h 1v -13v 13v -8h 1v 7v -6v 9h 1v -12v 9v -9h 1v 10v -6v 6h 1v -13v 10v -9h 1v 9v -4v 5h 1v -8v 9v -9h 1v 8v -9v 9h 1v -6v 9v -14h 1v 13v -12v 8h 1v 2v -6v 4v -6h 1v 9v -13v 13h 1v -6v 8v -10h 1v 11v -9v 5h 1v -5v 6v -4v 1h
 1v -6v 10v -10v 4h 1v 6v -8v 7v -6h 1v 5v -5v 4v -3v 1h 1v 7v -16v 12v -5h 1v -1v 9v -12h 1v 12v -10v 8v -1h 1v -5v 5v -6v 9h 1v -10v 11v -6h 1v -8v 10v -4v 5h 1v -6v 6v -2h 1v -5v 6v -12v 15h 1v -7v 7h 1v -10v 12v -14v 8h 1v 1v -8v 11v -1h 1v -10v
 8v -6v 6h 1v 2v -11v 9h 1v -11v 11v -7v 4h 1v 5v -11v 10h 1v 1v -5v 5v -8v 3h 1v 4v -7v 4h 1v 3v -14v 14v -10h 1v 9v -7v 7h 1v -7v 11v -17h 1v 14v -6v 2h 1v 4v -11v 11v -6h 1v 10v -14v 12h 1v -7v 8v -11h 1v 11v -14v 11h 1v -9v 9v -6h 1v 4v -7v 11h
 1v -12v 12v -15h 1v 15v -11v 9h 1v -4v 2v -10v 14v -7h 1v -3v 8v -6v 1h 1v 5v -8v 8v -3h 1v -8v 10v -4v 2h 1v 3v -11v 12v -7h 1v -4v 12v -6h 1v 4v -6v 9v -10h 1v -6v 14v -6v 2h 1v 2v -2v 1v -1v 5v -3h 1v -10v 11v -5v 1h 1v 6v -10" fill="none"
 stroke="#000099"/>
<rect x="442" y="25" width="114" height="46" fill="white"/>
<path d="M442,71h 114" fill="none" stroke="black"/>
<path d="M556,71v -46" fill="none" stroke="black"/>
<path d="M556,25h -114" fill="none" stroke="black"/>
<path d="M442,25v 46" fill="none" stroke="black"/>
<text x="447" y="28" fill="black" font-size="4" font-family="Helvetica">
Entries 
</text>
<text x="535" y="28" fill="black" font-size="4" font-family="Helvetica">
 177058
</text>
<text x="450" y="35" fill="black" font-size="4" font-family="Helvetica">
 / ndf 
</text>
<text x="449" y="31" fill="black" font-size="3" font-family="Helvetica">
2
</text>
<text x="447" y="35" fill="black" font-size="4" font-family="Times">
&#0967;
</text>
<text x="526" y="34" fill="black" font-size="4" font-family="Helvetica">
  3975 / 1240
</text>
<text x="452" y="37" fill="black" font-size="4" font-family="Helvetica">
   
</text>
<text x="450" y="40" fill="black" font-size="3" font-family="Helvetica">
cu
</text>
<text x="447" y="37" fill="black" font-size="4" font-family="Helvetica">
N
</text>
<text x="541" y="40" fill="black" font-size="4" font-family="Helvetica">
 16.4
</text>
<text x="538" y="40" fill="black" font-size="4" font-family="Times">
&#0177;
</text>
<text x="526" y="40" fill="black" font-size="4" font-family="Helvetica">
 443.9 
</text>
<text x="450" y="43" fill="black" font-size="4" font-family="Helvetica">
 
</text>
<text x="448" y="46" fill="black" font-size="3" font-family="Helvetica">
cu
</text>
<text x="447" y="43" fill="black" font-size="4" font-family="Times">
&#0964;
</text>
<text x="543" y="45" fill="black" font-size="4" font-family="Helvetica">
 0.4
</text>
<text x="541" y="45" fill="black" font-size="4" font-family="Times">
&#0177;
</text>
<text x="529" y="45" fill="black" font-size="4" font-family="Helvetica">
 162.5 
</text>
<text x="450" y="48" fill="black" font-size="4" font-family="Helvetica">
    
</text>
<text x="450" y="51" fill="black" font-size="3" font-family="Helvetica">
f
</text>
<text x="447" y="48" fill="black" font-size="4" font-family="Helvetica">
N
</text>
<text x="543" y="50" fill="black" font-size="4" font-family="Helvetica">
 3.5
</text>
<text x="541" y="50" fill="black" font-size="4" font-family="Times">
&#0177;
</text>
<text x="529" y="50" fill="black" font-size="4" font-family="Helvetica">
 322.6 
</text>
<text x="448" y="53" fill="black" font-size="4" font-family="Helvetica">
 
</text>
<text x="448" y="57" fill="black" font-size="3" font-family="Helvetica">
f
</text>
<text x="447" y="53" fill="black" font-size="4" font-family="Times">
&#0964;
</text>
<text x="541" y="55" fill="black" font-size="4" font-family="Helvetica">
 25.8
</text>
<text x="538" y="55" fill="black" font-size="4" font-family="Times">
&#0177;
</text>
<text x="526" y="55" fill="black" font-size="4" font-family="Helvetica">
  2244 
</text>
<text x="452" y="58" fill="black" font-size="4" font-family="Helvetica">
  
</text>
<text x="450" y="61" fill="black" font-size="3" font-family="Helvetica">
sin
</text>
<text x="447" y="58" fill="black" font-size="4" font-family="Helvetica">
N
</text>
<text x="539" y="60" fill="black" font-size="4" font-family="Helvetica">
 0.376
</text>
<text x="537" y="60" fill="black" font-size="4" font-family="Times">
&#0177;
</text>
<text x="525" y="60" fill="black" font-size="4" font-family="Helvetica">
 4.237 
</text>
<text x="447" y="65" fill="black" font-size="4" font-family="Helvetica">
T        
</text>
<text x="543" y="66" fill="black" font-size="4" font-family="Helvetica">
 0.0
</text>
<text x="541" y="66" fill="black" font-size="4" font-family="Times">
&#0177;
</text>
<text x="530" y="66" fill="black" font-size="4" font-family="Helvetica">
  59.2 
</text>
<text x="450" y="68" fill="black" font-size="4" font-family="Helvetica">
    
</text>
<text x="450" y="71" fill="black" font-size="3" font-family="Helvetica">
b
</text>
<text x="447" y="68" fill="black" font-size="4" font-family="Helvetica">
N
</text>
<text x="541" y="71" fill="black" font-size="4" font-family="Helvetica">
 0.30
</text>
<text x="538" y="71" fill="black" font-size="4" font-family="Times">
&#0177;
</text>
<text x="526" y="71" fill="black" font-size="4" font-family="Helvetica">
 53.63 
</text>
<path d="M284,156v 9" fill="none" stroke="#ff0000" stroke-width="2"/>
<path d="M285,167v 30" fill="none" stroke="#ff0000" stroke-width="2"/>
<path d="M285,198v 21" fill="none" stroke="#ff0000" stroke-width="2"/>
<path d="M286,220v 13" fill="none" stroke="#ff0000" stroke-width="2"/>
<path d="M287,233v 9" fill="none" stroke="#ff0000" stroke-width="2"/>
<path d="M288,242v 6" fill="none" stroke="#ff0000" stroke-width="2"/>
<path d="M289,248v 7" fill="none" stroke="#ff0000" stroke-width="2"/>
<path d="M289,255v 5" fill="none" stroke="#ff0000" stroke-width="2"/>
<path d="M290,260v 4" fill="none" stroke="#ff0000" stroke-width="2"/>
<path d="M291,262v 4" fill="none" stroke="#ff0000" stroke-width="2"/>
<path d="M292,264v 4" fill="none" stroke="#ff0000" stroke-width="2"/>
<path d="M293,267v 4" fill="none" stroke="#ff0000" stroke-width="2"/>
<path d="M293,270v 3" fill="none" stroke="#ff0000" stroke-width="2"/>
<path d="M294,272v 3" fill="none" stroke="#ff0000" stroke-width="2"/>
<path d="M295,273v 4" fill="none" stroke="#ff0000" stroke-width="2"/>
<path d="M296,275v 3" fill="none" stroke="#ff0000" stroke-width="2"/>
<path d="M297,277v 4" fill="none" stroke="#ff0000" stroke-width="2"/>
<path d="M298,279v 3" fill="none" stroke="#ff0000" stroke-width="2"/>
<path d="M298,281v 3" fill="none" stroke="#ff0000" stroke-width="2"/>
<path d="M299,282v 3" fill="none" stroke="#ff0000" stroke-width="2"/>
<path d="M300,283v 3" fill="none" stroke="#ff0000" stroke-width="2"/>
<path d="M301,286v 3" fill="none" stroke="#ff0000" stroke-width="2"/>
<path d="M302,287v 3" fill="none" stroke="#ff0000" stroke-width="2"/>
<path d="M302,288v 3" fill="none" stroke="#ff0000" stroke-width="2"/>
<path d="M303,289v 3" fill="none" stroke="#ff0000" stroke-width="2"/>
<path d="M304,291v 2" fill="none" stroke="#ff0000" stroke-width="2"/>
<path d="M305,292v 3" fill="none" stroke="#ff0000" stroke-width="2"/>
<path d="M306,293v 3" fill="none" stroke="#ff0000" stroke-width="2"/>
<path d="M307,295v 2" fill="none" stroke="#ff0000" stroke-width="2"/>
<path d="M307,295v 3" fill="none" stroke="#ff0000" stroke-width="2"/>
<path d="M308,297v 2" fill="none" stroke="#ff0000" stroke-width="2"/>
<path d="M309,298v 2" fill="none" stroke="#ff0000" stroke-width="2"/>
<path d="M310,299v 2" fill="none" stroke="#ff0000" stroke-width="2"/>
<path d="M311,299v 3" fill="none" stroke="#ff0000" stroke-width="2"/>
<path d="M311,300v 3" fill="none" stroke="#ff0000" stroke-width="2"/>
<path d="M312,302v 2" fill="none" stroke="#ff0000" stroke-width="2"/>
<path d="M313,303v 2" fill="none" stroke="#ff0000" stroke-width="2"/>
<path d="M314,304v 2" fill="none" stroke="#ff0000" stroke-width="2"/>
<path d="M315,304v 3" fill="none" stroke="#ff0000" stroke-width="2"/>
<path d="M315,305v 3" fill="none" stroke="#ff0000" stroke-width="2"/>
<path d="M316,306v 2" fill="none" stroke="#ff0000" stroke-width="2"/>
<path d="M317,307v 2" fill="none" stroke="#ff0000" stroke-width="2"/>
<path d="M318,308v 2" fill="none" stroke="#ff0000" stroke-width="2"/>
<path d="M319,308v 2" fill="none" stroke="#ff0000" stroke-width="2"/>
<path d="M320,309v 2" fill="none" stroke="#ff0000" stroke-width="2"/>
<path d="M320,309v 4" fill="none" stroke="#ff0000" stroke-width="2"/>
<path d="M321,310v 3" fill="none" stroke="#ff0000" stroke-width="2"/>
<path d="M322,311v 2" fill="none" stroke="#ff0000" stroke-width="2"/>
<path d="M323,311v 2" fill="none" stroke="#ff0000" stroke-width="2"/>
<path d="M324,312v 2" fill="none" stroke="#ff0000" stroke-width="2"/>
<path d="M324,313v 2" fill="none" stroke="#ff0000" stroke-width="2"/>
<path d="M325,313v 3" fill="none" stroke="#ff0000" stroke-width="2"/>
<path d="M326,313v 3" fill="none" stroke="#ff0000" stroke-width="2"/>
<path d="M327,314v 3" fill="none" stroke="#ff0000" stroke-width="2"/>
<path d="M328,315v 2" fill="none" stroke="#ff0000" stroke-width="2"/>
<path d="M329,315v 2" fill="none" stroke="#ff0000" stroke-width="2"/>
<path d="M329,316v 2" fill="none" stroke="#ff0000" stroke-width="2"/>
<path d="M330,316v 2" fill="none" stroke="#ff0000" stroke-width="2"/>
<path d="M331,317v 2" fill="none" stroke="#ff0000" stroke-width="2"/>
<path d="M332,317v 3" fill="none" stroke="#ff0000" stroke-width="2"/>
<path d="M333,317v 3" fill="none" stroke="#ff0000" stroke-width="2"/>
<path d="M333,317v 3" fill="none" stroke="#ff0000" stroke-width="2"/>
<path d="M334,318v 3" fill="none" stroke="#ff0000" stroke-width="2"/>
<path d="M335,318v 3" fill="none" stroke="#ff0000" stroke-width="2"/>
<path d="M336,319v 2" fill="none" stroke="#ff0000" stroke-width="2"/>
<path d="M337,319v 2" fill="none" stroke="#ff0000" stroke-width="2"/>
<path d="M337,320v 2" fill="none" stroke="#ff0000" stroke-width="2"/>
<path d="M338,320v 2" fill="none" stroke="#ff0000" stroke-width="2"/>
<path d="M339,321v 2" fill="none" stroke="#ff0000" stroke-width="2"/>
<path d="M340,321v 2" fill="none" stroke="#ff0000" stroke-width="2"/>
<path d="M341,321v 2" fill="none" stroke="#ff0000" stroke-width="2"/>
<path d="M342,321v 2" fill="none" stroke="#ff0000" stroke-width="2"/>
<path d="M342,321v 3" fill="none" stroke="#ff0000" stroke-width="2"/>
<path d="M343,321v 3" fill="none" stroke="#ff0000" stroke-width="2"/>
<path d="M344,322v 3" fill="none" stroke="#ff0000" stroke-width="2"/>
<path d="M345,322v 3" fill="none" stroke="#ff0000" stroke-width="2"/>
<path d="M346,322v 3" fill="none" stroke="#ff0000" stroke-width="2"/>
<path d="M346,323v 2" fill="none" stroke="#ff0000" stroke-width="2"/>
<path d="M347,323v 3" fill="none" stroke="#ff0000" stroke-width="2"/>
<path d="M348,323v 3" fill="none" stroke="#ff0000" stroke-width="2"/>
<path d="M349,323v 3" fill="none" stroke="#ff0000" stroke-width="2"/>
<path d="M350,324v 2" fill="none" stroke="#ff0000" stroke-width="2"/>
<path d="M351,324v 2" fill="none" stroke="#ff0000" stroke-width="2"/>
<path d="M351,324v 2" fill="none" stroke="#ff0000" stroke-width="2"/>
<path d="M352,324v 2" fill="none" stroke="#ff0000" stroke-width="2"/>
<path d="M353,325v 1" fill="none" stroke="#ff0000" stroke-width="2"/>
<path d="M354,325v 2" fill="none" stroke="#ff0000" stroke-width="2"/>
<path d="M355,325v 2" fill="none" stroke="#ff0000" stroke-width="2"/>
<path d="M355,325v 2" fill="none" stroke="#ff0000" stroke-width="2"/>
<path d="M356,325v 2" fill="none" stroke="#ff0000" stroke-width="2"/>
<path d="M357,326v 2" fill="none" stroke="#ff0000" stroke-width="2"/>
<path d="M358,326v 2" fill="none" stroke="#ff0000" stroke-width="2"/>
<path d="M359,326v 2" fill="none" stroke="#ff0000" stroke-width="2"/>
<path d="M359,326v 2" fill="none" stroke="#ff0000" stroke-width="2"/>
<path d="M360,326v 2" fill="none" stroke="#ff0000" stroke-width="2"/>
<path d="M361,326v 2" fill="none" stroke="#ff0000" stroke-width="2"/>
<path d="M362,326v 3" fill="none" stroke="#ff0000" stroke-width="2"/>
<path d="M363,326v 3" fill="none" stroke="#ff0000" stroke-width="2"/>
<path d="M364,326v 3" fill="none" stroke="#ff0000" stroke-width="2"/>
<path d="M364,326v 3" fill="none" stroke="#ff0000" stroke-width="2"/>
<path d="M365,326v 3" fill="none" stroke="#ff0000" stroke-width="2"/>
<path d="M366,326v 3" fill="none" stroke="#ff0000" stroke-width="2"/>
<path d="M367,327v 2" fill="none" stroke="#ff0000" stroke-width="2"/>
<path d="M368,327v 3" fill="none" stroke="#ff0000" stroke-width="2"/>
<path d="M368,327v 3" fill="none" stroke="#ff0000" stroke-width="2"/>
<path d="M369,327v 3" fill="none" stroke="#ff0000" stroke-width="2"/>
<path d="M370,327v 3" fill="none" stroke="#ff0000" stroke-width="2"/>
<path d="M371,327v 3" fill="none" stroke="#ff0000" stroke-width="2"/>
<path d="M372,327v 3" fill="none" stroke="#ff0000" stroke-width="2"/>
<path d="M372,327v 3" fill="none" stroke="#ff0000" stroke-width="2"/>
<path d="M373,328v 2" fill="none" stroke="#ff0000" stroke-width="2"/>
<path d="M374,328v 2" fill="none" stroke="#ff0000" stroke-width="2"/>
<path d="M375,328v 2" fill="none" stroke="#ff0000" stroke-width="2"/>
<path d="M376,328v 2" fill="none" stroke="#ff0000" stroke-width="2"/>
<path d="M377,328v 2" fill="none" stroke="#ff0000" stroke-width="2"/>
<path d="M377,328v 2" fill="none" stroke="#ff0000" stroke-width="2"/>
<path d="M378,328v 2" fill="none" stroke="#ff0000" stroke-width="2"/>
<path d="M379,328v 2" fill="none" stroke="#ff0000" stroke-width="2"/>
<path d="M380,328v 2" fill="none" stroke="#ff0000" stroke-width="2"/>
<path d="M381,328v 2" fill="none" stroke="#ff0000" stroke-width="2"/>
<path d="M381,328v 2" fill="none" stroke="#ff0000" stroke-width="2"/>
<path d="M382,328v 2" fill="none" stroke="#ff0000" stroke-width="2"/>
<path d="M383,328v 2" fill="none" stroke="#ff0000" stroke-width="2"/>
<path d="M384,329v 1" fill="none" stroke="#ff0000" stroke-width="2"/>
<path d="M385,329v 1" fill="none" stroke="#ff0000" stroke-width="2"/>
<path d="M386,329v 2" fill="none" stroke="#ff0000" stroke-width="2"/>
<path d="M386,329v 2" fill="none" stroke="#ff0000" stroke-width="2"/>
<path d="M387,329v 2" fill="none" stroke="#ff0000" stroke-width="2"/>
<path d="M388,329v 2" fill="none" stroke="#ff0000" stroke-width="2"/>
<path d="M389,329v 2" fill="none" stroke="#ff0000" stroke-width="2"/>
<path d="M390,329v 2" fill="none" stroke="#ff0000" stroke-width="2"/>
<path d="M390,329v 2" fill="none" stroke="#ff0000" stroke-width="2"/>
<path d="M391,329v 2" fill="none" stroke="#ff0000" stroke-width="2"/>
<path d="M392,329v 2" fill="none" stroke="#ff0000" stroke-width="2"/>
<path d="M393,329v 2" fill="none" stroke="#ff0000" stroke-width="2"/>
<path d="M394,329v 2" fill="none" stroke="#ff0000" stroke-width="2"/>
<path d="M394,329v 2" fill="none" stroke="#ff0000" stroke-width="2"/>
<path d="M395,329v 2" fill="none" stroke="#ff0000" stroke-width="2"/>
<path d="M396,329v 2" fill="none" stroke="#ff0000" stroke-width="2"/>
<path d="M397,329v 2" fill="none" stroke="#ff0000" stroke-width="2"/>
<path d="M398,329v 2" fill="none" stroke="#ff0000" stroke-width="2"/>
<path d="M399,329v 2" fill="none" stroke="#ff0000" stroke-width="2"/>
<path d="M399,330v 1" fill="none" stroke="#ff0000" stroke-width="2"/>
<path d="M400,330v 1" fill="none" stroke="#ff0000" stroke-width="2"/>
<path d="M401,330v 1" fill="none" stroke="#ff0000" stroke-width="2"/>
<path d="M402,330v 2" fill="none" stroke="#ff0000" stroke-width="2"/>
<path d="M403,330v 2" fill="none" stroke="#ff0000" stroke-width="2"/>
<path d="M403,330v 2" fill="none" stroke="#ff0000" stroke-width="2"/>
<path d="M404,330v 2" fill="none" stroke="#ff0000" stroke-width="2"/>
<path d="M405,330v 2" fill="none" stroke="#ff0000" stroke-width="2"/>
<path d="M406,330v 2" fill="none" stroke="#ff0000" stroke-width="2"/>
<path d="M407,330v 2" fill="none" stroke="#ff0000" stroke-width="2"/>
<path d="M408,330v 2" fill="none" stroke="#ff0000" stroke-width="2"/>
<path d="M408,330v 2" fill="none" stroke="#ff0000" stroke-width="2"/>
<path d="M409,330v 2" fill="none" stroke="#ff0000" stroke-width="2"/>
<path d="M410,330v 2" fill="none" stroke="#ff0000" stroke-width="2"/>
<path d="M411,330v 2" fill="none" stroke="#ff0000" stroke-width="2"/>
<path d="M412,330v 2" fill="none" stroke="#ff0000" stroke-width="2"/>
<path d="M412,330v 2" fill="none" stroke="#ff0000" stroke-width="2"/>
<path d="M413,330v 2" fill="none" stroke="#ff0000" stroke-width="2"/>
<path d="M414,330v 2" fill="none" stroke="#ff0000" stroke-width="2"/>
<path d="M415,330v 2" fill="none" stroke="#ff0000" stroke-width="2"/>
<path d="M416,330v 2" fill="none" stroke="#ff0000" stroke-width="2"/>
<path d="M416,330v 2" fill="none" stroke="#ff0000" stroke-width="2"/>
<path d="M417,330v 2" fill="none" stroke="#ff0000" stroke-width="2"/>
<path d="M418,330v 2" fill="none" stroke="#ff0000" stroke-width="2"/>
<path d="M419,330v 2" fill="none" stroke="#ff0000" stroke-width="2"/>
<path d="M420,330v 2" fill="none" stroke="#ff0000" stroke-width="2"/>
<path d="M421,330v 2" fill="none" stroke="#ff0000" stroke-width="2"/>
<path d="M421,330v 2" fill="none" stroke="#ff0000" stroke-width="2"/>
<path d="M422,330v 2" fill="none" stroke="#ff0000" stroke-width="2"/>
<path d="M423,330v 2" fill="none" stroke="#ff0000" stroke-width="2"/>
<path d="M424,330v 2" fill="none" stroke="#ff0000" stroke-width="2"/>
<path d="M425,330v 2" fill="none" stroke="#ff0000" stroke-width="2"/>
<path d="M425,330v 2" fill="none" stroke="#ff0000" stroke-width="2"/>
<path d="M426,330v 2" fill="none" stroke="#ff0000" stroke-width="2"/>
<path d="M427,330v 2" fill="none" stroke="#ff0000" stroke-width="2"/>
<path d="M428,330v 2" fill="none" stroke="#ff0000" stroke-width="2"/>
<path d="M429,330v 2" fill="none" stroke="#ff0000" stroke-width="2"/>
<path d="M430,330v 2" fill="none" stroke="#ff0000" stroke-width="2"/>
<path d="M430,330v 2" fill="none" stroke="#ff0000" stroke-width="2"/>
<path d="M431,330v 2" fill="none" stroke="#ff0000" stroke-width="2"/>
<path d="M432,330v 2" fill="none" stroke="#ff0000" stroke-width="2"/>
<path d="M433,330v 2" fill="none" stroke="#ff0000" stroke-width="2"/>
<path d="M434,330v 2" fill="none" stroke="#ff0000" stroke-width="2"/>
<path d="M434,330v 2" fill="none" stroke="#ff0000" stroke-width="2"/>
<path d="M435,330v 2" fill="none" stroke="#ff0000" stroke-width="2"/>
<path d="M436,330v 2" fill="none" stroke="#ff0000" stroke-width="2"/>
<path d="M437,330v 2" fill="none" stroke="#ff0000" stroke-width="2"/>
<path d="M438,330v 2" fill="none" stroke="#ff0000" stroke-width="2"/>
<path d="M438,330v 2" fill="none" stroke="#ff0000" stroke-width="2"/>
<path d="M439,330v 2" fill="none" stroke="#ff0000" stroke-width="2"/>
<path d="M440,330v 2" fill="none" stroke="#ff0000" stroke-width="2"/>
<path d="M441,330v 2" fill="none" stroke="#ff0000" stroke-width="2"/>
<path d="M442,330v 2" fill="none" stroke="#ff0000" stroke-width="2"/>
<path d="M443,330v 2" fill="none" stroke="#ff0000" stroke-width="2"/>
<path d="M443,330v 2" fill="none" stroke="#ff0000" stroke-width="2"/>
<path d="M444,330v 2" fill="none" stroke="#ff0000" stroke-width="2"/>
<path d="M445,330v 2" fill="none" stroke="#ff0000" stroke-width="2"/>
<path d="M446,330v 2" fill="none" stroke="#ff0000" stroke-width="2"/>
<path d="M447,330v 2" fill="none" stroke="#ff0000" stroke-width="2"/>
<path d="M447,330v 2" fill="none" stroke="#ff0000" stroke-width="2"/>
<path d="M448,330v 2" fill="none" stroke="#ff0000" stroke-width="2"/>
<path d="M449,330v 2" fill="none" stroke="#ff0000" stroke-width="2"/>
<path d="M450,330v 2" fill="none" stroke="#ff0000" stroke-width="2"/>
<path d="M451,330v 2" fill="none" stroke="#ff0000" stroke-width="2"/>
<path d="M452,330v 2" fill="none" stroke="#ff0000" stroke-width="2"/>
<path d="M452,330v 2" fill="none" stroke="#ff0000" stroke-width="2"/>
<path d="M453,330v 2" fill="none" stroke="#ff0000" stroke-width="2"/>
<path d="M454,330v 2" fill="none" stroke="#ff0000" stroke-width="2"/>
<path d="M455,330v 2" fill="none" stroke="#ff0000" stroke-width="2"/>
<path d="M456,330v 2" fill="none" stroke="#ff0000" stroke-width="2"/>
<path d="M456,330v 2" fill="none" stroke="#ff0000" stroke-width="2"/>
<path d="M457,330v 2" fill="none" stroke="#ff0000" stroke-width="2"/>
<path d="M458,330v 2" fill="none" stroke="#ff0000" stroke-width="2"/>
<path d="M459,330v 2" fill="none" stroke="#ff0000" stroke-width="2"/>
<path d="M460,330v 2" fill="none" stroke="#ff0000" stroke-width="2"/>
<path d="M460,330v 2" fill="none" stroke="#ff0000" stroke-width="2"/>
<path d="M461,330v 2" fill="none" stroke="#ff0000" stroke-width="2"/>
<path d="M462,330v 2" fill="none" stroke="#ff0000" stroke-width="2"/>
<path d="M463,330v 2" fill="none" stroke="#ff0000" stroke-width="2"/>
<path d="M464,330v 2" fill="none" stroke="#ff0000" stroke-width="2"/>
<path d="M465,330v 2" fill="none" stroke="#ff0000" stroke-width="2"/>
<path d="M465,330v 2" fill="none" stroke="#ff0000" stroke-width="2"/>
<path d="M466,330v 2" fill="none" stroke="#ff0000" stroke-width="2"/>
<path d="M467,330v 2" fill="none" stroke="#ff0000" stroke-width="2"/>
<path d="M468,330v 2" fill="none" stroke="#ff0000" stroke-width="2"/>
<path d="M469,330v 2" fill="none" stroke="#ff0000" stroke-width="2"/>
<path d="M469,330v 2" fill="none" stroke="#ff0000" stroke-width="2"/>
<path d="M470,330v 2" fill="none" stroke="#ff0000" stroke-width="2"/>
<path d="M471,330v 2" fill="none" stroke="#ff0000" stroke-width="2"/>
<path d="M472,330v 2" fill="none" stroke="#ff0000" stroke-width="2"/>
<path d="M473,330v 2" fill="none" stroke="#ff0000" stroke-width="2"/>
<path d="M473,330v 2" fill="none" stroke="#ff0000" stroke-width="2"/>
<path d="M474,330v 2" fill="none" stroke="#ff0000" stroke-width="2"/>
<path d="M475,330v 2" fill="none" stroke="#ff0000" stroke-width="2"/>
<path d="M476,330v 2" fill="none" stroke="#ff0000" stroke-width="2"/>
<path d="M477,330v 2" fill="none" stroke="#ff0000" stroke-width="2"/>
<path d="M478,330v 2" fill="none" stroke="#ff0000" stroke-width="2"/>
<path d="M478,330v 2" fill="none" stroke="#ff0000" stroke-width="2"/>
<path d="M479,330v 2" fill="none" stroke="#ff0000" stroke-width="2"/>
<path d="M480,330v 2" fill="none" stroke="#ff0000" stroke-width="2"/>
<path d="M481,330v 2" fill="none" stroke="#ff0000" stroke-width="2"/>
<path d="M482,330v 2" fill="none" stroke="#ff0000" stroke-width="2"/>
<path d="M482,330v 2" fill="none" stroke="#ff0000" stroke-width="2"/>
<path d="M483,330v 2" fill="none" stroke="#ff0000" stroke-width="2"/>
<path d="M484,330v 2" fill="none" stroke="#ff0000" stroke-width="2"/>
<path d="M485,330v 2" fill="none" stroke="#ff0000" stroke-width="2"/>
<path d="M486,330v 2" fill="none" stroke="#ff0000" stroke-width="2"/>
<path d="M487,330v 2" fill="none" stroke="#ff0000" stroke-width="2"/>
<path d="M487,330v 2" fill="none" stroke="#ff0000" stroke-width="2"/>
<path d="M488,330v 2" fill="none" stroke="#ff0000" stroke-width="2"/>
<path d="M489,330v 2" fill="none" stroke="#ff0000" stroke-width="2"/>
<path d="M490,330v 2" fill="none" stroke="#ff0000" stroke-width="2"/>
<path d="M491,330v 3" fill="none" stroke="#ff0000" stroke-width="2"/>
<path d="M491,330v 2" fill="none" stroke="#ff0000" stroke-width="2"/>
<path d="M492,330v 3" fill="none" stroke="#ff0000" stroke-width="2"/>
<path d="M493,330v 3" fill="none" stroke="#ff0000" stroke-width="2"/>
<path d="M494,330v 2" fill="none" stroke="#ff0000" stroke-width="2"/>
<path d="M495,330v 3" fill="none" stroke="#ff0000" stroke-width="2"/>
<path d="M495,330v 3" fill="none" stroke="#ff0000" stroke-width="2"/>
<path d="M496,330v 3" fill="none" stroke="#ff0000" stroke-width="2"/>
<path d="M497,330v 3" fill="none" stroke="#ff0000" stroke-width="2"/>
<path d="M498,330v 3" fill="none" stroke="#ff0000" stroke-width="2"/>
<path d="M499,330v 3" fill="none" stroke="#ff0000" stroke-width="2"/>
<path d="M500,330v 3" fill="none" stroke="#ff0000" stroke-width="2"/>
<path d="M500,330v 3" fill="none" stroke="#ff0000" stroke-width="2"/>
<path d="M501,330v 3" fill="none" stroke="#ff0000" stroke-width="2"/>
<path d="M502,330v 3" fill="none" stroke="#ff0000" stroke-width="2"/>
<path d="M503,330v 3" fill="none" stroke="#ff0000" stroke-width="2"/>
<path d="M504,330v 3" fill="none" stroke="#ff0000" stroke-width="2"/>
<path d="M504,330v 3" fill="none" stroke="#ff0000" stroke-width="2"/>
<path d="M505,330v 3" fill="none" stroke="#ff0000" stroke-width="2"/>
<path d="M506,330v 3" fill="none" stroke="#ff0000" stroke-width="2"/>
<path d="M507,330v 3" fill="none" stroke="#ff0000" stroke-width="2"/>
<path d="M508,330v 3" fill="none" stroke="#ff0000" stroke-width="2"/>
<path d="M509,330v 3" fill="none" stroke="#ff0000" stroke-width="2"/>
<path d="M509,330v 3" fill="none" stroke="#ff0000" stroke-width="2"/>
<path d="M510,330v 3" fill="none" stroke="#ff0000" stroke-width="2"/>
<path d="M284,160l 1, 21v 27l 1, 18l 1, 12l 1, 7l 1, 6v 6l 1, 4l 1, 3l 1, 2l 1, 3v 3l 1, 1l 1, 2l 1, 2l 1, 2l 1, 2v 1l 1, 1l 1, 2l 1, 2l 1, 1v 2l 1, 1h 1l 1, 3l 1, 1h 1v 1l 1, 2l 1, 1h 1l 1, 1v 1l 1, 2l 1, 1h 1l 1, 1v 1l 1, 1l 1, 1h 2l 1, 2v 1h 1l 1,
 1h 1l 1, 1l 1, 1h 1l 1, 1l 1, 1h 1v 1h 2l 1, 1h 1l 1, 1h 1l 1, 1h 1v 1h 5v 1h 1l 1, 1h 2v 1h 3l 1, 1h 2l 1, 1h 7l 1, 1h 5l 1, 1h 5l 1, 1h 10l 1, 1h 63v 1h 63" fill="none" stroke="#ff0000" stroke-width="2"/>
<path d="M57,346h 453" fill="none" stroke="black"/>
<text x="419" y="372" fill="black" font-size="12" font-family="Helvetica">
TDC-TDC0 (ns)
</text>
<path d="M57,337v 9" fill="none" stroke="black"/>
<path d="M68,342v 4" fill="none" stroke="black"/>
<path d="M79,342v 4" fill="none" stroke="black"/>
<path d="M91,342v 4" fill="none" stroke="black"/>
<path d="M102,342v 4" fill="none" stroke="black"/>
<path d="M113,337v 9" fill="none" stroke="black"/>
<path d="M125,342v 4" fill="none" stroke="black"/>
<path d="M136,342v 4" fill="none" stroke="black"/>
<path d="M147,342v 4" fill="none" stroke="black"/>
<path d="M159,342v 4" fill="none" stroke="black"/>
<path d="M170,337v 9" fill="none" stroke="black"/>
<path d="M181,342v 4" fill="none" stroke="black"/>
<path d="M193,342v 4" fill="none" stroke="black"/>
<path d="M204,342v 4" fill="none" stroke="black"/>
<path d="M215,342v 4" fill="none" stroke="black"/>
<path d="M227,337v 9" fill="none" stroke="black"/>
<path d="M238,342v 4" fill="none" stroke="black"/>
<path d="M249,342v 4" fill="none" stroke="black"/>
<path d="M261,342v 4" fill="none" stroke="black"/>
<path d="M272,342v 4" fill="none" stroke="black"/>
<path d="M283,337v 9" fill="none" stroke="black"/>
<path d="M295,342v 4" fill="none" stroke="black"/>
<path d="M306,342v 4" fill="none" stroke="black"/>
<path d="M317,342v 4" fill="none" stroke="black"/>
<path d="M329,342v 4" fill="none" stroke="black"/>
<path d="M340,337v 9" fill="none" stroke="black"/>
<path d="M351,342v 4" fill="none" stroke="black"/>
<path d="M363,342v 4" fill="none" stroke="black"/>
<path d="M374,342v 4" fill="none" stroke="black"/>
<path d="M386,342v 4" fill="none" stroke="black"/>
<path d="M397,337v 9" fill="none" stroke="black"/>
<path d="M408,342v 4" fill="none" stroke="black"/>
<path d="M420,342v 4" fill="none" stroke="black"/>
<path d="M431,342v 4" fill="none" stroke="black"/>
<path d="M442,342v 4" fill="none" stroke="black"/>
<path d="M454,337v 9" fill="none" stroke="black"/>
<path d="M465,342v 4" fill="none" stroke="black"/>
<path d="M476,342v 4" fill="none" stroke="black"/>
<path d="M488,342v 4" fill="none" stroke="black"/>
<path d="M499,342v 4" fill="none" stroke="black"/>
<path d="M510,337v 9" fill="none" stroke="black"/>
<text x="36" y="359" fill="black" font-size="12" font-family="Helvetica">
-20000
</text>
<text x="93" y="359" fill="black" font-size="12" font-family="Helvetica">
-15000
</text>
<text x="149" y="359" fill="black" font-size="12" font-family="Helvetica">
-10000
</text>
<text x="210" y="359" fill="black" font-size="12" font-family="Helvetica">
-5000
</text>
<text x="280" y="359" fill="black" font-size="12" font-family="Helvetica">
0
</text>
<text x="325" y="359" fill="black" font-size="12" font-family="Helvetica">
5000
</text>
<text x="379" y="359" fill="black" font-size="12" font-family="Helvetica">
10000
</text>
<text x="435" y="359" fill="black" font-size="12" font-family="Helvetica">
15000
</text>
<text x="492" y="359" fill="black" font-size="12" font-family="Helvetica">
20000
</text>
<path d="M57,346v -308" fill="none" stroke="black"/>
<g transform="rotate(-90,29,72)">
<text x="29" y="72" fill="black" font-size="12" font-family="Helvetica">
Count
</text>
</g>
<path d="M70,346h -13" fill="none" stroke="black"/>
<path d="M63,333h -6" fill="none" stroke="black"/>
<path d="M63,319h -6" fill="none" stroke="black"/>
<path d="M63,305h -6" fill="none" stroke="black"/>
<path d="M70,291h -13" fill="none" stroke="black"/>
<path d="M63,278h -6" fill="none" stroke="black"/>
<path d="M63,264h -6" fill="none" stroke="black"/>
<path d="M63,250h -6" fill="none" stroke="black"/>
<path d="M70,237h -13" fill="none" stroke="black"/>
<path d="M63,223h -6" fill="none" stroke="black"/>
<path d="M63,209h -6" fill="none" stroke="black"/>
<path d="M63,195h -6" fill="none" stroke="black"/>
<path d="M70,182h -13" fill="none" stroke="black"/>
<path d="M63,168h -6" fill="none" stroke="black"/>
<path d="M63,154h -6" fill="none" stroke="black"/>
<path d="M63,140h -6" fill="none" stroke="black"/>
<path d="M70,127h -13" fill="none" stroke="black"/>
<path d="M63,113h -6" fill="none" stroke="black"/>
<path d="M63,99h -6" fill="none" stroke="black"/>
<path d="M63,85h -6" fill="none" stroke="black"/>
<path d="M70,72h -13" fill="none" stroke="black"/>
<path d="M70,72h -13" fill="none" stroke="black"/>
<path d="M63,58h -6" fill="none" stroke="black"/>
<path d="M63,44h -6" fill="none" stroke="black"/>
<text x="47" y="350" fill="black" font-size="12" font-family="Helvetica">
0
</text>
<text x="33" y="295" fill="black" font-size="12" font-family="Helvetica">
200
</text>
<text x="33" y="240" fill="black" font-size="12" font-family="Helvetica">
400
</text>
<text x="33" y="185" fill="black" font-size="12" font-family="Helvetica">
600
</text>
<text x="33" y="130" fill="black" font-size="12" font-family="Helvetica">
800
</text>
<text x="25" y="75" fill="black" font-size="12" font-family="Helvetica">
1000
</text>
<rect x="442" y="25" width="114" height="46" fill="white"/>
<path d="M442,71h 114" fill="none" stroke="black"/>
<path d="M556,71v -46" fill="none" stroke="black"/>
<path d="M556,25h -114" fill="none" stroke="black"/>
<path d="M442,25v 46" fill="none" stroke="black"/>
<text x="447" y="28" fill="black" font-size="4" font-family="Helvetica">
Entries 
</text>
<text x="535" y="28" fill="black" font-size="4" font-family="Helvetica">
 177058
</text>
<text x="450" y="35" fill="black" font-size="4" font-family="Helvetica">
 / ndf 
</text>
<text x="449" y="31" fill="black" font-size="3" font-family="Helvetica">
2
</text>
<text x="447" y="35" fill="black" font-size="4" font-family="Times">
&#0967;
</text>
<text x="526" y="34" fill="black" font-size="4" font-family="Helvetica">
  3975 / 1240
</text>
<text x="452" y="37" fill="black" font-size="4" font-family="Helvetica">
   
</text>
<text x="450" y="40" fill="black" font-size="3" font-family="Helvetica">
cu
</text>
<text x="447" y="37" fill="black" font-size="4" font-family="Helvetica">
N
</text>
<text x="541" y="40" fill="black" font-size="4" font-family="Helvetica">
 16.4
</text>
<text x="538" y="40" fill="black" font-size="4" font-family="Times">
&#0177;
</text>
<text x="526" y="40" fill="black" font-size="4" font-family="Helvetica">
 443.9 
</text>
<text x="450" y="43" fill="black" font-size="4" font-family="Helvetica">
 
</text>
<text x="448" y="46" fill="black" font-size="3" font-family="Helvetica">
cu
</text>
<text x="447" y="43" fill="black" font-size="4" font-family="Times">
&#0964;
</text>
<text x="543" y="45" fill="black" font-size="4" font-family="Helvetica">
 0.4
</text>
<text x="541" y="45" fill="black" font-size="4" font-family="Times">
&#0177;
</text>
<text x="529" y="45" fill="black" font-size="4" font-family="Helvetica">
 162.5 
</text>
<text x="450" y="48" fill="black" font-size="4" font-family="Helvetica">
    
</text>
<text x="450" y="51" fill="black" font-size="3" font-family="Helvetica">
f
</text>
<text x="447" y="48" fill="black" font-size="4" font-family="Helvetica">
N
</text>
<text x="543" y="50" fill="black" font-size="4" font-family="Helvetica">
 3.5
</text>
<text x="541" y="50" fill="black" font-size="4" font-family="Times">
&#0177;
</text>
<text x="529" y="50" fill="black" font-size="4" font-family="Helvetica">
 322.6 
</text>
<text x="448" y="53" fill="black" font-size="4" font-family="Helvetica">
 
</text>
<text x="448" y="57" fill="black" font-size="3" font-family="Helvetica">
f
</text>
<text x="447" y="53" fill="black" font-size="4" font-family="Times">
&#0964;
</text>
<text x="541" y="55" fill="black" font-size="4" font-family="Helvetica">
 25.8
</text>
<text x="538" y="55" fill="black" font-size="4" font-family="Times">
&#0177;
</text>
<text x="526" y="55" fill="black" font-size="4" font-family="Helvetica">
  2244 
</text>
<text x="452" y="58" fill="black" font-size="4" font-family="Helvetica">
  
</text>
<text x="450" y="61" fill="black" font-size="3" font-family="Helvetica">
sin
</text>
<text x="447" y="58" fill="black" font-size="4" font-family="Helvetica">
N
</text>
<text x="539" y="60" fill="black" font-size="4" font-family="Helvetica">
 0.376
</text>
<text x="537" y="60" fill="black" font-size="4" font-family="Times">
&#0177;
</text>
<text x="525" y="60" fill="black" font-size="4" font-family="Helvetica">
 4.237 
</text>
<text x="447" y="65" fill="black" font-size="4" font-family="Helvetica">
T        
</text>
<text x="543" y="66" fill="black" font-size="4" font-family="Helvetica">
 0.0
</text>
<text x="541" y="66" fill="black" font-size="4" font-family="Times">
&#0177;
</text>
<text x="530" y="66" fill="black" font-size="4" font-family="Helvetica">
  59.2 
</text>
<text x="450" y="68" fill="black" font-size="4" font-family="Helvetica">
    
</text>
<text x="450" y="71" fill="black" font-size="3" font-family="Helvetica">
b
</text>
<text x="447" y="68" fill="black" font-size="4" font-family="Helvetica">
N
</text>
<text x="541" y="71" fill="black" font-size="4" font-family="Helvetica">
 0.30
</text>
<text x="538" y="71" fill="black" font-size="4" font-family="Times">
&#0177;
</text>
<text x="526" y="71" fill="black" font-size="4" font-family="Helvetica">
 53.63 
</text>
<text x="270" y="21" fill="black" font-size="21" font-family="Helvetica">
D3
</text></svg>
