<?xml version="1.0" standalone="no"?>
<svg width="567" height="328" viewBox="0 0 567 328" xmlns="http://www.w3.org/2000/svg">
<title>
images/sim_mu+_5mm_Air_loose_cu_f_10ns_bins_500k.svg
</title>
<desc>
Creator: ROOT Version 5.34/05
CreationDate: Fri May 31 20:58:33 2013</desc>
<defs>
</defs>
<rect x="0" y="0" width="567" height="328" fill="white"/>
<rect x="57" y="33" width="453" height="262" fill="white"/>
<rect x="57" y="33" width="453" height="262" fill="none" stroke="black"/>
<rect x="57" y="33" width="453" height="262" fill="white"/>
<rect x="57" y="33" width="453" height="262" fill="none" stroke="black"/>
<path d="M57,295h 227v -215v 23v -27v 4h 1v 12v -5v 15v -57v 69v -17v 15h 1v -36v 44v -49v 25v -8v 18h 1v -27v 27v -34v 48v -28v 8h 1v 7v -24v 41v -35v 43h 1v -23v 16v -31v 41v -15h 1v -13v 30v -10v 14v -25v 35v -32v 22h 1v -30v 49v -37h 1v -5v 39v
 -21v 8v -17v 4h 1v 42v -14v 5v -20v 2v -15v 11h 1v 16v -9v 1v -4v 13v -22h 1v 33v -41v 24v -4v 24v -26h 1v -1v 30v -9v 4v -39v 38v -32h 1v 35v -15v 9v -21v 14v -15v 50v -36h 1v 3v -11v 17v -27v 43v -13v 9v -12h 1v -8v 32v -25v 14v -13v 22h 1v -39v
 43v -35h 1v 40v -10v 10v -4v 2v -3v 3h 1v 7v -31v 37v -22v 24h 1v -36v 25v -11v 9v -5h 1v -2v 18v -18v 5v -15v 30v -11h 1v 22v -41v 15v -20v 26h 1v -13v 16v -14v 16v -4v 16v -16v 7h 1v 26v -31v 5v -10v 7h 1v -19v 34v -8v 8v -4v 18v -40v 30h 1v -32v
 26v -22v 15v -11v 24h 1v -19v 15v -6v 7h 1v -14v 19v -13v 13v -15v 7v -6h 1v -3v 11v -9v 20v -15v 5h 1v -16v 22v -14v 20v -17v 13h 1v 7v -35v 34v -13v 17v -8h 1v 18v -36v 18v -10v 22v -23v 22h 1v -12v 10v -14v 13v -12v 12v -8h 1v 9v -10v 4v -5v 14v
 -21v 21h 1v 5v -14v 4v -11v 17v -10h 1v 5v -10v 19v -8v 20v -21h 1v 4v -5v 13v -25v 21v -4h 1v -17v 20v -4v 13v -7v 4v -17v 18h 1v 3v -20v 24v -25v 8h 1v 4v -5v 15v -10v 17v -16v 8h 1v -17v 8v -4v 6h 1v 9v -9v 3v -3v 9v -12v 14h 1v 1v -12v 17v -13v
 5v -18v 21h 1v -4v 7v -18v 12v -2v 4h 1v 2v -10v 12v -9v 1h 1v 4v -12v 16v -6v 4h 1v 4v -9v 8v -19v 28h 1v -28v 20v -13v 3h 1v 10v -9v 12v -9v 11h 1v -16v 9v -15v 12v -3h 1v -5v 8v -4v 9v -6v 5h 1v 4v -1v 3v -10v 8v -11h 1v 10v -7v 3v -17v 21v -8v
 15h 1v -14v 13v -8v 7v -7v 11h 1v -16v 16v -19v 10v -3h 1v -8v 11v -8v 15v -11h 1v 15v -10v 4v -3v 4v -3h 1v -7v 10v -5v 2v -2v 12v -11h 1v 9v -15v 13v -11v 11v -9h 1v 9v -11v 13v -13v 9h 1v -14v 9v -4v 15v -13h 1v -6v 16v -12v 12v -8v 3h 1v -13v
 18v -16v 13v -6h 1v 9v -10v 11v -8v 2h 1v -7v 12v -7v 3v -3v 7h 1v -12v 9v -4v 12v -4h 1v -6v 6v -6v 5v -3h 1v 2v -8v 10v -2v 5h 1v -8v 9v -6v 4v -4h 1v -6v 15v -13v 13v -16h 1v 14v -5v 8v -14v 11h 1v -7v 2v -6v 9v -11h 1v 13v -10v 7v -4v 10h 1v
 -13v 12v -8v 1v -5v 13h 1v -12v 3v -1v 10v -8v 11h 1v -15v 4v -1v 4v -12v 16v -4v 4h 1v -3v 3v -16v 16v -7h 1v 3v -3v 5v -5v 5h 1v -3v 6v -6v 5v -5v 5v -5h 1v 9v -6v 4v -10v 5v -4v 3h 1v -1v 2v -1v 5v -3v 3v -6v 3h 1v -2v 1v -4v 8v -9v 10h 1v -10v
 9v -8v 7v -4h 1v 4v -5v 6v -9v 9v -6h 1v 7v -6v 4v -4h 1v 5v -6v 5v -7v 7v -7h 1v 9v -11v 10v -6v 7v -2h 1v -2v 6v -9v 5v -2v 3v -4h 1v -4v 11v -4v 2v -4v 2h 1v -4v 4v -3v 1v -6v 8v -4h 1v 9v -4v 1v -6v 8v -3h 1v -4v 3v -2v 7v -5v 2v -1h 1v 1v -4v
 7h 1v -5v 1v -3v 6v -4v 2h 1v -4v 6v -7v 7v -2h 1v 3v -8v 7v -4h 1v 5v -4v 3v -7v 7v -9v 7v -4v 2h 1v -3v 4v -1v 5v -5v 2h 1v 4v -14h 1v 12v -2v 2v -3h 1v 4v -4v 1v -1v 3h 1v -6v 4v -5v 8v -4h 1v 1v -4v 6v -3v 4v -5h 1v -3v 9v -2v 1h 1v -3v 4v -8v
 4v -1h 1v 4v -4v 3h 1v -3v 5v -2v 1v -3v 2v -2h 1v 2v -3v 4v -7v 6v -3v 3v -2h 1v 4v -4v 4v -4v 4h 1v -4v 2v -3v 3v -2h 1v -1v 1v -2v 6v -4v 4v -2h 1v 2v -6v 5v -3v 4h 1v -4v 4v -5v 4v -3h 1v 3v -1v 2h 1v -2v 2v -5v 5v -6v 6v -2h 1v 1v -1v 2v -5v 5h
 1v -4v 2v -3v 5v -1h 1v 1v -4v 2v -2h 1v 3v -1v 2v -4v 4v -4v 3h 1v -1v 2v -2v 1h 1v -4v 5v -2v 2v -5v 3h 1v 2v -1v 1v -2v 1h 1v 1v -4v 4v -4h 1v 4v -2v 2h 1v -2v 2v -4h 1v 4v -2v 2h 1v -1v 1v -2v 2v -2h 1v 1v -1v 1v -1v 2v -1h 1v 1v -2v 1v -1v 2h
 1v -2v 2v -4v 4v -1h 1v 1v -1v 1v -1v 1v -2v 2h 1v -2v 2v -5v 5h 1v -2v 1v -1v 2v -1v 1v -1h 1v 1v -1v 1v -1v 1v -1h 1v 1v -2v 2h 1v -2v 2v -1v 1h 1v -5v 5v -1v 1v -1v 1v -1v 1h 1v -2v 2v -4v 4v -1h 1v 1v -4v 4v -1h 1v 1v -2v 2v -1v 1v -1h 1v 1v -2v
 2v -1v 1h 1v -2v 2v -4v 3h 1v 1v -1v 1v -1h 1v 1v -1h 1v 1v -4v 4v -1v 1v -1h 1v 1v -1v 1h 1v -4v 4v -1v 1h 1v -2v 2v -1v 1h 1v -1v 1v -1v 1v -1v 1v -2h 1v 2v -1v 1v -1v 1h 1v -1v 1v -2v 2v -1v 1h 1v -1v 1v -2v 2h 1v -1v 1v -1v 1h 1v -2v 2v -2h 1v
 2v -1v 1v -1v 1h 1v -1v 1v -1v 1v -1h 1v 1v -1v 1h 1v -1v 1h 1v -4v 4v -1v 1h 1v -1v 1v -2v 2h 2v -2v 2h 1v -1v 1v -2v 2v -1h 1v 1v -1v 1h 2v -1v 1v -1v 1v -2v 2h 1v -1v 1h 1v -1v 1h 1v -1v 1v -1v 1v -1v 1h 2v -1v 1v -1v 1h 1v -1v 1h 1v -1v 1v -1h
 1v 1v -1v 1h 1v -1h 1v 1v -1v 1v -1v 1h 2v -1v 1h 1v -1v 1h 4v -1v 1h 1v -1v 1h 1v -1v 1v -1v 1h 1v -2v 2v -1v 1h 2v -1v 1h 1v -1v 1h 1v -1v 1v -1v 1h 1v -1v 1h 1v -1v 1h 1v -1v 1h 2v -2v 2h 2v -1v 1h 3v -1v 1v -1h 1v 1h 2v -1v 1h 2v -1v 1h 7v -1h
 1v 1h 6v -1v 1h 4v -1v 1h 4" fill="none" stroke="#000099"/>
<path d="M285,89l 2, 18l 3, 16l 2, 15l 2, 13l 2, 13l 3, 11l 2, 10l 2, 10l 3, 8l 2, 8l 2, 7l 2, 7l 3, 6l 2, 6l 2, 5l 2, 4l 3, 4l 2, 4l 2, 4l 2, 3l 3, 3l 2, 3l 2, 2l 2, 2l 3, 2l 2, 2l 2, 2l 2, 1l 3, 2l 2, 1l 2, 1l 3, 2l 2, 1h 2l 2, 1l 3, 1l 2, 1h 2l 2,
 1h 3l 2, 1h 2l 2, 1h 3l 2, 1h 7l 2, 1" fill="none" stroke="#ff0000" stroke-width="2"/>
<path d="M396,293h 9l 2, 1h 21l 2, 1h 77" fill="none" stroke="#ff0000" stroke-width="2"/>
<path d="M507,295h 2" fill="none" stroke="#ff0000" stroke-width="2"/>
<rect x="351" y="21" width="205" height="66" fill="white"/>
<path d="M351,87h 205" fill="none" stroke="black"/>
<path d="M556,87v -66" fill="none" stroke="black"/>
<path d="M556,21h -205" fill="none" stroke="black"/>
<path d="M351,21v 66" fill="none" stroke="black"/>
<text x="361" y="33" fill="black" font-size="14" font-family="Helvetica">
Entries 
</text>
<text x="499" y="33" fill="black" font-size="14" font-family="Helvetica">
 36964
</text>
<text x="374" y="52" fill="black" font-size="14" font-family="Helvetica">
 / ndf 
</text>
<text x="369" y="41" fill="black" font-size="9" font-family="Helvetica">
2
</text>
<text x="361" y="52" fill="black" font-size="14" font-family="Times">
&#0967;
</text>
<text x="458" y="50" fill="black" font-size="14" font-family="Helvetica">
  1400 / 1993
</text>
<text x="375" y="63" fill="black" font-size="14" font-family="Helvetica">
    
</text>
<text x="372" y="71" fill="black" font-size="9" font-family="Helvetica">
f
</text>
<text x="361" y="63" fill="black" font-size="14" font-family="Helvetica">
N
</text>
<text x="520" y="67" fill="black" font-size="14" font-family="Helvetica">
 1.3
</text>
<text x="508" y="67" fill="black" font-size="14" font-family="Times">
&#0177;
</text>
<text x="467" y="67" fill="black" font-size="14" font-family="Helvetica">
   170 
</text>
<text x="369" y="80" fill="black" font-size="14" font-family="Helvetica">
 
</text>
<text x="367" y="90" fill="black" font-size="9" font-family="Helvetica">
f
</text>
<text x="361" y="80" fill="black" font-size="14" font-family="Times">
&#0964;
</text>
<text x="513" y="84" fill="black" font-size="14" font-family="Helvetica">
 11.6
</text>
<text x="501" y="84" fill="black" font-size="14" font-family="Times">
&#0177;
</text>
<text x="455" y="84" fill="black" font-size="14" font-family="Helvetica">
  2224 
</text>
<path d="M57,295h 453" fill="none" stroke="black"/>
<text x="462" y="317" fill="black" font-size="11" font-family="Helvetica">
Time (ns)
</text>
<path d="M57,287v 8" fill="none" stroke="black"/>
<path d="M68,291v 4" fill="none" stroke="black"/>
<path d="M79,291v 4" fill="none" stroke="black"/>
<path d="M91,291v 4" fill="none" stroke="black"/>
<path d="M102,291v 4" fill="none" stroke="black"/>
<path d="M113,287v 8" fill="none" stroke="black"/>
<path d="M125,291v 4" fill="none" stroke="black"/>
<path d="M136,291v 4" fill="none" stroke="black"/>
<path d="M147,291v 4" fill="none" stroke="black"/>
<path d="M159,291v 4" fill="none" stroke="black"/>
<path d="M170,287v 8" fill="none" stroke="black"/>
<path d="M181,291v 4" fill="none" stroke="black"/>
<path d="M193,291v 4" fill="none" stroke="black"/>
<path d="M204,291v 4" fill="none" stroke="black"/>
<path d="M215,291v 4" fill="none" stroke="black"/>
<path d="M227,287v 8" fill="none" stroke="black"/>
<path d="M238,291v 4" fill="none" stroke="black"/>
<path d="M249,291v 4" fill="none" stroke="black"/>
<path d="M261,291v 4" fill="none" stroke="black"/>
<path d="M272,291v 4" fill="none" stroke="black"/>
<path d="M283,287v 8" fill="none" stroke="black"/>
<path d="M295,291v 4" fill="none" stroke="black"/>
<path d="M306,291v 4" fill="none" stroke="black"/>
<path d="M317,291v 4" fill="none" stroke="black"/>
<path d="M329,291v 4" fill="none" stroke="black"/>
<path d="M340,287v 8" fill="none" stroke="black"/>
<path d="M351,291v 4" fill="none" stroke="black"/>
<path d="M363,291v 4" fill="none" stroke="black"/>
<path d="M374,291v 4" fill="none" stroke="black"/>
<path d="M386,291v 4" fill="none" stroke="black"/>
<path d="M397,287v 8" fill="none" stroke="black"/>
<path d="M408,291v 4" fill="none" stroke="black"/>
<path d="M420,291v 4" fill="none" stroke="black"/>
<path d="M431,291v 4" fill="none" stroke="black"/>
<path d="M442,291v 4" fill="none" stroke="black"/>
<path d="M454,287v 8" fill="none" stroke="black"/>
<path d="M465,291v 4" fill="none" stroke="black"/>
<path d="M476,291v 4" fill="none" stroke="black"/>
<path d="M488,291v 4" fill="none" stroke="black"/>
<path d="M499,291v 4" fill="none" stroke="black"/>
<path d="M510,287v 8" fill="none" stroke="black"/>
<text x="39" y="306" fill="black" font-size="11" font-family="Helvetica">
-20000
</text>
<text x="95" y="306" fill="black" font-size="11" font-family="Helvetica">
-15000
</text>
<text x="152" y="306" fill="black" font-size="11" font-family="Helvetica">
-10000
</text>
<text x="212" y="306" fill="black" font-size="11" font-family="Helvetica">
-5000
</text>
<text x="280" y="306" fill="black" font-size="11" font-family="Helvetica">
0
</text>
<text x="327" y="306" fill="black" font-size="11" font-family="Helvetica">
5000
</text>
<text x="381" y="306" fill="black" font-size="11" font-family="Helvetica">
10000
</text>
<text x="437" y="306" fill="black" font-size="11" font-family="Helvetica">
15000
</text>
<text x="494" y="306" fill="black" font-size="11" font-family="Helvetica">
20000
</text>
<path d="M57,295v -262" fill="none" stroke="black"/>
<g transform="rotate(-90,29,63)">
<text x="29" y="63" fill="black" font-size="11" font-family="Helvetica">
Count
</text>
</g>
<path d="M70,295h -13" fill="none" stroke="black"/>
<path d="M63,289h -6" fill="none" stroke="black"/>
<path d="M63,282h -6" fill="none" stroke="black"/>
<path d="M63,276h -6" fill="none" stroke="black"/>
<path d="M70,269h -13" fill="none" stroke="black"/>
<path d="M63,263h -6" fill="none" stroke="black"/>
<path d="M63,256h -6" fill="none" stroke="black"/>
<path d="M63,250h -6" fill="none" stroke="black"/>
<path d="M70,243h -13" fill="none" stroke="black"/>
<path d="M63,237h -6" fill="none" stroke="black"/>
<path d="M63,230h -6" fill="none" stroke="black"/>
<path d="M63,224h -6" fill="none" stroke="black"/>
<path d="M70,217h -13" fill="none" stroke="black"/>
<path d="M63,211h -6" fill="none" stroke="black"/>
<path d="M63,204h -6" fill="none" stroke="black"/>
<path d="M63,198h -6" fill="none" stroke="black"/>
<path d="M70,192h -13" fill="none" stroke="black"/>
<path d="M63,185h -6" fill="none" stroke="black"/>
<path d="M63,179h -6" fill="none" stroke="black"/>
<path d="M63,172h -6" fill="none" stroke="black"/>
<path d="M70,166h -13" fill="none" stroke="black"/>
<path d="M63,159h -6" fill="none" stroke="black"/>
<path d="M63,153h -6" fill="none" stroke="black"/>
<path d="M63,146h -6" fill="none" stroke="black"/>
<path d="M70,140h -13" fill="none" stroke="black"/>
<path d="M63,133h -6" fill="none" stroke="black"/>
<path d="M63,127h -6" fill="none" stroke="black"/>
<path d="M63,120h -6" fill="none" stroke="black"/>
<path d="M70,114h -13" fill="none" stroke="black"/>
<path d="M63,107h -6" fill="none" stroke="black"/>
<path d="M63,101h -6" fill="none" stroke="black"/>
<path d="M63,94h -6" fill="none" stroke="black"/>
<path d="M70,88h -13" fill="none" stroke="black"/>
<path d="M63,81h -6" fill="none" stroke="black"/>
<path d="M63,75h -6" fill="none" stroke="black"/>
<path d="M63,68h -6" fill="none" stroke="black"/>
<path d="M70,62h -13" fill="none" stroke="black"/>
<path d="M63,55h -6" fill="none" stroke="black"/>
<path d="M63,49h -6" fill="none" stroke="black"/>
<path d="M63,43h -6" fill="none" stroke="black"/>
<path d="M70,36h -13" fill="none" stroke="black"/>
<path d="M70,36h -13" fill="none" stroke="black"/>
<text x="48" y="299" fill="black" font-size="11" font-family="Helvetica">
0
</text>
<text x="41" y="273" fill="black" font-size="11" font-family="Helvetica">
20
</text>
<text x="41" y="247" fill="black" font-size="11" font-family="Helvetica">
40
</text>
<text x="41" y="221" fill="black" font-size="11" font-family="Helvetica">
60
</text>
<text x="41" y="195" fill="black" font-size="11" font-family="Helvetica">
80
</text>
<text x="35" y="169" fill="black" font-size="11" font-family="Helvetica">
100
</text>
<text x="35" y="143" fill="black" font-size="11" font-family="Helvetica">
120
</text>
<text x="35" y="117" fill="black" font-size="11" font-family="Helvetica">
140
</text>
<text x="35" y="91" fill="black" font-size="11" font-family="Helvetica">
160
</text>
<text x="35" y="66" fill="black" font-size="11" font-family="Helvetica">
180
</text>
<text x="35" y="39" fill="black" font-size="11" font-family="Helvetica">
200
</text>
<rect x="351" y="21" width="205" height="66" fill="white"/>
<path d="M351,87h 205" fill="none" stroke="black"/>
<path d="M556,87v -66" fill="none" stroke="black"/>
<path d="M556,21h -205" fill="none" stroke="black"/>
<path d="M351,21v 66" fill="none" stroke="black"/>
<text x="361" y="33" fill="black" font-size="14" font-family="Helvetica">
Entries 
</text>
<text x="499" y="33" fill="black" font-size="14" font-family="Helvetica">
 36964
</text>
<text x="374" y="52" fill="black" font-size="14" font-family="Helvetica">
 / ndf 
</text>
<text x="369" y="41" fill="black" font-size="9" font-family="Helvetica">
2
</text>
<text x="361" y="52" fill="black" font-size="14" font-family="Times">
&#0967;
</text>
<text x="458" y="50" fill="black" font-size="14" font-family="Helvetica">
  1400 / 1993
</text>
<text x="375" y="63" fill="black" font-size="14" font-family="Helvetica">
    
</text>
<text x="372" y="71" fill="black" font-size="9" font-family="Helvetica">
f
</text>
<text x="361" y="63" fill="black" font-size="14" font-family="Helvetica">
N
</text>
<text x="520" y="67" fill="black" font-size="14" font-family="Helvetica">
 1.3
</text>
<text x="508" y="67" fill="black" font-size="14" font-family="Times">
&#0177;
</text>
<text x="467" y="67" fill="black" font-size="14" font-family="Helvetica">
   170 
</text>
<text x="369" y="80" fill="black" font-size="14" font-family="Helvetica">
 
</text>
<text x="367" y="90" fill="black" font-size="9" font-family="Helvetica">
f
</text>
<text x="361" y="80" fill="black" font-size="14" font-family="Times">
&#0964;
</text>
<text x="513" y="84" fill="black" font-size="14" font-family="Helvetica">
 11.6
</text>
<text x="501" y="84" fill="black" font-size="14" font-family="Times">
&#0177;
</text>
<text x="455" y="84" fill="black" font-size="14" font-family="Helvetica">
  2224 
</text>
<text x="188" y="17" fill="black" font-size="17" font-family="Helvetica">
mu+_5mm_Air_500000
</text></svg>
