<?xml version="1.0" standalone="no"?>
<svg width="567" height="328" viewBox="0 0 567 328" xmlns="http://www.w3.org/2000/svg">
<title>
images/analysis_g4bl_sin_phase_exec_d4_d5_l_bound50bin_8tight/fits/1mm_Aluminium_1mm_Aluminium_combined_1mm_Aluminium.svg
</title>
<desc>
Creator: ROOT Version 5.34/09
CreationDate: Tue Jan  7 17:32:08 2014</desc>
<defs>
</defs>
<rect x="0" y="0" width="567" height="328" fill="white"/>
<rect x="57" y="33" width="453" height="262" fill="white"/>
<rect x="57" y="33" width="453" height="262" fill="none" stroke="black"/>
<rect x="57" y="33" width="453" height="262" fill="white"/>
<rect x="57" y="33" width="453" height="262" fill="none" stroke="black"/>
<path d="M57,295h 227v -153v 67v -144v 67h 1v 58v -39v 19v -28v 38v -87v 87h 1v 77v -115v 9v -86v 115v -135v 193v -106h 1v 67v -57v 67v -96v 67v -77h 1v 96v -48v 58v -106v 125v -163h 1v 134v -96v 77v -19v 9v -28v 57h 1v -29v 39v -87v 48v -38v 96v
 -58v 39h 1v -58v 29v -29v 19v -9v 86v -77v 20h 1v -77v 38v -9v 86v -58v 48v -76h 1v 67v -29v 10v -20v 48v -19v 39v -87h 1v 67v -57v 57v -48v 39v -48v 19h 1v 96v -96v 48v -29v 39v -48v 28v -38h 1v -19v 57v -57v 67v -58v 29v -9h 1v 38v -67v 67v -10h
 1v 10v -38v 48v -48v 48v -77v 38v -48h 1v 48v -38v 86v -86h 1v -19v 134v -106v 58v -10v 29v -67v 58h 1v -29v 19v -10v 29v -29v 20v -48v 57h 1v -67v 67v -38v 38v -38v 38v -48v 39h 1v 28v -28v 19v -39v 48v -86h 1v 48v -48v 58v -39v 77v -67h 1v 48v
 -48v 29v -77v 77v -20v 29v -19v 38h 1v -67v 67v -67v 77v -77h 1v 39v -29v 48v -87v 68v -39v 29h 1v 19v -9v 9v -48v 58h 1v -58v 67v -38v 38v -48v 29v -57h 1v 67v -29v 19v -29v 48v -76v 57h 1v -57v 67v -48v 29h 1v 19v -39v 29v -38v 48v -48v 19h 1v 10v
 -10v 48v -38v 19v -39v 58v -29h 1v -9v 19v -39v 58v -29v 10v -58h 1v 67v -19v 29v -48v 38v -57h 1v 77v -68v 48v -19v 10v -39v 48h 1v -9v 9v -28v 38v -77v 58h 1v -10v 19v -19v 19v -38v 58v -39v 19h 1v 20v -48v 19v -10v 48v -57h 1v 38v -29v 29v -10v
 20v -39v 19v -19h 1v 29v -10v 10v -19v 19v -10v 10v -29v 19v -19h 1v 19v -19v 29v -29v 48v -38v 19v -29h 1v 19v -19v 19v -9v 29v -20h 1v -19v 19v -28v 38v -19v 29v -29v 29v -10h 1v -29v 48v -57v 38v -10v 20v -48v 28h 1v -9v 29v -29v 29v -20v 10v
 -10h 1v -28v 57v -38v 9v -28v 28v -9v 38v -48h 1v 39v -29v 9h 1v 10v -10v 10v -10v 20v -29h 1v 19v -19v 19v -48v 58v -20v 20h 1v -20v 20v -29v 29v -48v 38h 1v -10v 20v -39v 39v -29v 29v -20h 1v 20v -20v 20v -39v 39v -39v 29h 1v -10v 20v -20v 10v
 -10v 20v -20v 20h 1v -20v 20v -29v 19v -19v 29v -20v 20h 1v -20v 10v -10v 10v -29v 48v -19v 19v -29h 1v 29v -29v 29v -38v 38v -48v 48v -19h 1v 10v -29v 19v -19v 38h 1v -29v 10v -19v 38v -38h 1v 29v -20v 10v -38v 57v -19v 19h 1v -38v 38v -29v 29v
 -19h 1v 10v -29v 38v -29v 29v -19h 1v 10v -20v 29v -19v 10v -39v 39h 1v -10v 10v -29v 38v -19v 19h 1v -19v 19v -38v 38v -19v 10h 1v 9v -29v 29v -29v 20h 1v -20v 29v -29v 29v -19v 19h 1v -19v 19v -19v 10v -20v 20h 1v -20v 29v -19v 10h 1v 9v -19v 19v
 -29v 29v -9v 9v -9v 9h 1v -9v 9v -9v 9v -19v 10v -10v 19h 1v -19v 19v -9v 9v -19h 1v -10v 29v -19v 10v -20v 29h 1v -19v 10v -20v 29v -9v 9h 1v -19v 19v -19v 19h 1v -19v 19v -19v 19v -29h 1v 29v -29v 29v -19v 19v -29v 29h 1v -29v 29h 1v -9v 9v -9v 9v
 -9v 9h 1v -9v 9v -19v 19v -19v 19h 1v -9v 9v -9v 9v -19h 1v 19v -9v 9v -9v 9v -9v 9h 1v -9v 9v -9v 9h 1v -19v 19v -19h 1v 19v -19v 19v -19v 10v -10v 19h 1v -9v 9v -9v 9v -9v 9h 1v -9v 9v -9v 9v -9h 1v 9v -29v 29v -9v 9v -9v 9v -9v 9v -9h 1v 9v -9v
 9v -9v 9h 1v -9v 9v -9v 9v -29h 1v 29v -9v 9v -9v 9v -9h 1v 9v -19v 19v -9v 9v -9v 9h 1v -9v 9v -9v 9v -9v 9v -9h 1v 9v -9v 9v -29v 20h 1v 9v -9v 9v -9v 9v -19h 1v 19v -9v 9v -19v 19h 1v -9v 9v -9v 9h 1v -9v 9v -9h 1v 9v -9v 9h 1v -9v 9v -9v 9v -9v
 9h 1v -19v 19v -19v 19h 1v -9v 9v -19v 19v -9v 9h 1v -19v 19h 1v -9v 9v -9v 9h 1v -9v 9v -9v 9h 1v -9v 9v -9v 9h 3v -9v 9v -9v 9h 1v -19v 19v -9h 1v 9h 1v -9v 9v -9v 9v -9v 9h 1v -9v 9v -9v 9h 1v -9v 9v -9v 9h 1v -9v 9v -9v 9h 1v -9v 9h 2v -9v 9v
 -9v 9h 2v -9h 1v 9h 1v -9v 9v -9v 9h 4v -9v 9h 1v -9v 9v -9v 9h 1v -19v 19h 1v -9v 9h 2v -9v 9v -9v 9h 1v -9v 9h 1v -9v 9h 2v -9v 9v -19v 19h 1v -9v 9h 1v -9v 9h 1v -19h 1v 19h 1v -9v 9h 1v -9v 9h 1v -9v 9v -9v 9h 3v -9v 9v -9v 9v -9v 9h 4v -9v 9v
 -9v 9h 1v -9v 9v -9h 1v 9h 1v -9v 9h 7v -9v 9h 3v -9v 9h 2v -9v 9v -9v 9v -9h 1v 9v -9v 9v -9v 9h 1v -9v 9h 3v -9h 1v 9v -9v 9h 4v -9v 9h 56" fill="none" stroke="#000099"/>
<rect x="442" y="22" width="114" height="39" fill="white"/>
<path d="M442,61h 114" fill="none" stroke="black"/>
<path d="M556,61v -39" fill="none" stroke="black"/>
<path d="M556,22h -114" fill="none" stroke="black"/>
<path d="M442,22v 39" fill="none" stroke="black"/>
<text x="448" y="27" fill="black" font-size="6" font-family="Helvetica">
Entries 
</text>
<text x="536" y="27" fill="black" font-size="6" font-family="Helvetica">
 4448
</text>
<text x="453" y="33" fill="black" font-size="6" font-family="Helvetica">
 / ndf 
</text>
<text x="451" y="31" fill="black" font-size="4" font-family="Helvetica">
2
</text>
<text x="448" y="33" fill="black" font-size="6" font-family="Times">
&#0967;
</text>
<text x="517" y="33" fill="black" font-size="6" font-family="Helvetica">
  1049 / 2490
</text>
<text x="456" y="39" fill="black" font-size="6" font-family="Helvetica">
   
</text>
<text x="452" y="41" fill="black" font-size="4" font-family="Helvetica">
cu
</text>
<text x="448" y="39" fill="black" font-size="6" font-family="Helvetica">
N
</text>
<text x="522" y="40" fill="black" font-size="6" font-family="Helvetica">
 2.215e+00
</text>
<text x="519" y="40" fill="black" font-size="6" font-family="Times">
&#0177;
</text>
<text x="491" y="40" fill="black" font-size="6" font-family="Helvetica">
 2.385e-08 
</text>
<text x="454" y="45" fill="black" font-size="6" font-family="Helvetica">
 
</text>
<text x="450" y="47" fill="black" font-size="4" font-family="Helvetica">
cu
</text>
<text x="448" y="45" fill="black" font-size="6" font-family="Times">
&#0964;
</text>
<text x="541" y="47" fill="black" font-size="6" font-family="Helvetica">
 0.5
</text>
<text x="538" y="47" fill="black" font-size="6" font-family="Times">
&#0177;
</text>
<text x="521" y="47" fill="black" font-size="6" font-family="Helvetica">
 164.5 
</text>
<text x="453" y="52" fill="black" font-size="6" font-family="Helvetica">
    
</text>
<text x="452" y="54" fill="black" font-size="4" font-family="Helvetica">
f
</text>
<text x="448" y="52" fill="black" font-size="6" font-family="Helvetica">
N
</text>
<text x="538" y="53" fill="black" font-size="6" font-family="Helvetica">
 0.25
</text>
<text x="534" y="53" fill="black" font-size="6" font-family="Times">
&#0177;
</text>
<text x="517" y="53" fill="black" font-size="6" font-family="Helvetica">
 16.55 
</text>
<text x="451" y="58" fill="black" font-size="6" font-family="Helvetica">
 
</text>
<text x="450" y="60" fill="black" font-size="4" font-family="Helvetica">
f
</text>
<text x="448" y="58" fill="black" font-size="6" font-family="Times">
&#0964;
</text>
<text x="541" y="60" fill="black" font-size="6" font-family="Helvetica">
 0.0
</text>
<text x="538" y="60" fill="black" font-size="6" font-family="Times">
&#0177;
</text>
<text x="521" y="60" fill="black" font-size="6" font-family="Helvetica">
  2197 
</text>
<path d="M284,140v 1" fill="none" stroke="#ff0000" stroke-width="2"/>
<path d="M284,141v 2" fill="none" stroke="#ff0000" stroke-width="2"/>
<path d="M285,144v 2" fill="none" stroke="#ff0000" stroke-width="2"/>
<path d="M285,146v 2" fill="none" stroke="#ff0000" stroke-width="2"/>
<path d="M286,148v 2" fill="none" stroke="#ff0000" stroke-width="2"/>
<path d="M286,151v 2" fill="none" stroke="#ff0000" stroke-width="2"/>
<path d="M286,153v 2" fill="none" stroke="#ff0000" stroke-width="2"/>
<path d="M287,155v 2" fill="none" stroke="#ff0000" stroke-width="2"/>
<path d="M287,157v 2" fill="none" stroke="#ff0000" stroke-width="2"/>
<path d="M288,159v 2" fill="none" stroke="#ff0000" stroke-width="2"/>
<path d="M288,162v 2" fill="none" stroke="#ff0000" stroke-width="2"/>
<path d="M288,164v 2" fill="none" stroke="#ff0000" stroke-width="2"/>
<path d="M289,166v 2" fill="none" stroke="#ff0000" stroke-width="2"/>
<path d="M289,168v 2" fill="none" stroke="#ff0000" stroke-width="2"/>
<path d="M290,170v 2" fill="none" stroke="#ff0000" stroke-width="2"/>
<path d="M290,172v 2" fill="none" stroke="#ff0000" stroke-width="2"/>
<path d="M290,174v 2" fill="none" stroke="#ff0000" stroke-width="2"/>
<path d="M291,176v 1" fill="none" stroke="#ff0000" stroke-width="2"/>
<path d="M291,178v 1" fill="none" stroke="#ff0000" stroke-width="2"/>
<path d="M292,180v 1" fill="none" stroke="#ff0000" stroke-width="2"/>
<path d="M292,181v 2" fill="none" stroke="#ff0000" stroke-width="2"/>
<path d="M292,183v 2" fill="none" stroke="#ff0000" stroke-width="2"/>
<path d="M293,185v 1" fill="none" stroke="#ff0000" stroke-width="2"/>
<path d="M293,187v 1" fill="none" stroke="#ff0000" stroke-width="2"/>
<path d="M293,188v 2" fill="none" stroke="#ff0000" stroke-width="2"/>
<path d="M294,190v 1" fill="none" stroke="#ff0000" stroke-width="2"/>
<path d="M294,191v 2" fill="none" stroke="#ff0000" stroke-width="2"/>
<path d="M295,193v 2" fill="none" stroke="#ff0000" stroke-width="2"/>
<path d="M295,195v 1" fill="none" stroke="#ff0000" stroke-width="2"/>
<path d="M295,196v 2" fill="none" stroke="#ff0000" stroke-width="2"/>
<path d="M296,198v 1" fill="none" stroke="#ff0000" stroke-width="2"/>
<path d="M296,199v 2" fill="none" stroke="#ff0000" stroke-width="2"/>
<path d="M297,201v 1" fill="none" stroke="#ff0000" stroke-width="2"/>
<path d="M297,202v 2" fill="none" stroke="#ff0000" stroke-width="2"/>
<path d="M297,204v 1" fill="none" stroke="#ff0000" stroke-width="2"/>
<path d="M298,205v 2" fill="none" stroke="#ff0000" stroke-width="2"/>
<path d="M298,207v 1" fill="none" stroke="#ff0000" stroke-width="2"/>
<path d="M299,208v 2" fill="none" stroke="#ff0000" stroke-width="2"/>
<path d="M299,210v 1" fill="none" stroke="#ff0000" stroke-width="2"/>
<path d="M299,211v 1" fill="none" stroke="#ff0000" stroke-width="2"/>
<path d="M300,212v 2" fill="none" stroke="#ff0000" stroke-width="2"/>
<path d="M300,214v 1" fill="none" stroke="#ff0000" stroke-width="2"/>
<path d="M301,215v 1" fill="none" stroke="#ff0000" stroke-width="2"/>
<path d="M301,216v 1" fill="none" stroke="#ff0000" stroke-width="2"/>
<path d="M301,217v 1" fill="none" stroke="#ff0000" stroke-width="2"/>
<path d="M302,218v 2" fill="none" stroke="#ff0000" stroke-width="2"/>
<path d="M302,220v 1" fill="none" stroke="#ff0000" stroke-width="2"/>
<path d="M303,221v 1" fill="none" stroke="#ff0000" stroke-width="2"/>
<path d="M303,222v 1" fill="none" stroke="#ff0000" stroke-width="2"/>
<path d="M303,223v 1" fill="none" stroke="#ff0000" stroke-width="2"/>
<path d="M304,224v 1" fill="none" stroke="#ff0000" stroke-width="2"/>
<path d="M304,225v 2" fill="none" stroke="#ff0000" stroke-width="2"/>
<path d="M305,227" fill="none" stroke="#ff0000" stroke-width="2"/>
<path d="M305,228v 1" fill="none" stroke="#ff0000" stroke-width="2"/>
<path d="M305,229v 1" fill="none" stroke="#ff0000" stroke-width="2"/>
<path d="M306,230v 1" fill="none" stroke="#ff0000" stroke-width="2"/>
<path d="M306,231v 1" fill="none" stroke="#ff0000" stroke-width="2"/>
<path d="M307,232v 1" fill="none" stroke="#ff0000" stroke-width="2"/>
<path d="M307,233v 1" fill="none" stroke="#ff0000" stroke-width="2"/>
<path d="M307,234v 1" fill="none" stroke="#ff0000" stroke-width="2"/>
<path d="M308,235v 1" fill="none" stroke="#ff0000" stroke-width="2"/>
<path d="M308,236v 1" fill="none" stroke="#ff0000" stroke-width="2"/>
<path d="M309,237" fill="none" stroke="#ff0000" stroke-width="2"/>
<path d="M309,238v 1" fill="none" stroke="#ff0000" stroke-width="2"/>
<path d="M309,239" fill="none" stroke="#ff0000" stroke-width="2"/>
<path d="M310,239v 1" fill="none" stroke="#ff0000" stroke-width="2"/>
<path d="M310,240v 1" fill="none" stroke="#ff0000" stroke-width="2"/>
<path d="M311,241v 1" fill="none" stroke="#ff0000" stroke-width="2"/>
<path d="M311,242v 1" fill="none" stroke="#ff0000" stroke-width="2"/>
<path d="M311,243v 1" fill="none" stroke="#ff0000" stroke-width="2"/>
<path d="M312,244" fill="none" stroke="#ff0000" stroke-width="2"/>
<path d="M312,244v 1" fill="none" stroke="#ff0000" stroke-width="2"/>
<path d="M312,245v 1" fill="none" stroke="#ff0000" stroke-width="2"/>
<path d="M313,246v 1" fill="none" stroke="#ff0000" stroke-width="2"/>
<path d="M313,247v 1" fill="none" stroke="#ff0000" stroke-width="2"/>
<path d="M314,248" fill="none" stroke="#ff0000" stroke-width="2"/>
<path d="M314,248v 1" fill="none" stroke="#ff0000" stroke-width="2"/>
<path d="M314,249v 1" fill="none" stroke="#ff0000" stroke-width="2"/>
<path d="M315,250" fill="none" stroke="#ff0000" stroke-width="2"/>
<path d="M315,250v 1" fill="none" stroke="#ff0000" stroke-width="2"/>
<path d="M316,251v 1" fill="none" stroke="#ff0000" stroke-width="2"/>
<path d="M316,252" fill="none" stroke="#ff0000" stroke-width="2"/>
<path d="M316,252v 1" fill="none" stroke="#ff0000" stroke-width="2"/>
<path d="M317,253v 1" fill="none" stroke="#ff0000" stroke-width="2"/>
<path d="M317,254" fill="none" stroke="#ff0000" stroke-width="2"/>
<path d="M318,254v 1" fill="none" stroke="#ff0000" stroke-width="2"/>
<path d="M318,255v 1" fill="none" stroke="#ff0000" stroke-width="2"/>
<path d="M318,256" fill="none" stroke="#ff0000" stroke-width="2"/>
<path d="M319,256v 1" fill="none" stroke="#ff0000" stroke-width="2"/>
<path d="M319,257v 1" fill="none" stroke="#ff0000" stroke-width="2"/>
<path d="M320,258" fill="none" stroke="#ff0000" stroke-width="2"/>
<path d="M320,258v 1" fill="none" stroke="#ff0000" stroke-width="2"/>
<path d="M320,259" fill="none" stroke="#ff0000" stroke-width="2"/>
<path d="M321,260" fill="none" stroke="#ff0000" stroke-width="2"/>
<path d="M321,260" fill="none" stroke="#ff0000" stroke-width="2"/>
<path d="M322,260v 1" fill="none" stroke="#ff0000" stroke-width="2"/>
<path d="M322,261" fill="none" stroke="#ff0000" stroke-width="2"/>
<path d="M322,261v 1" fill="none" stroke="#ff0000" stroke-width="2"/>
<path d="M323,262v 1" fill="none" stroke="#ff0000" stroke-width="2"/>
<path d="M323,263" fill="none" stroke="#ff0000" stroke-width="2"/>
<path d="M324,263" fill="none" stroke="#ff0000" stroke-width="2"/>
<path d="M324,263v 1" fill="none" stroke="#ff0000" stroke-width="2"/>
<path d="M324,264v 1" fill="none" stroke="#ff0000" stroke-width="2"/>
<path d="M325,265" fill="none" stroke="#ff0000" stroke-width="2"/>
<path d="M325,265" fill="none" stroke="#ff0000" stroke-width="2"/>
<path d="M326,265v 1" fill="none" stroke="#ff0000" stroke-width="2"/>
<path d="M326,266" fill="none" stroke="#ff0000" stroke-width="2"/>
<path d="M326,267" fill="none" stroke="#ff0000" stroke-width="2"/>
<path d="M327,267" fill="none" stroke="#ff0000" stroke-width="2"/>
<path d="M327,267v 1" fill="none" stroke="#ff0000" stroke-width="2"/>
<path d="M328,268" fill="none" stroke="#ff0000" stroke-width="2"/>
<path d="M328,268v 1" fill="none" stroke="#ff0000" stroke-width="2"/>
<path d="M328,269" fill="none" stroke="#ff0000" stroke-width="2"/>
<path d="M329,269" fill="none" stroke="#ff0000" stroke-width="2"/>
<path d="M329,269v 1" fill="none" stroke="#ff0000" stroke-width="2"/>
<path d="M330,270" fill="none" stroke="#ff0000" stroke-width="2"/>
<path d="M330,270v 1" fill="none" stroke="#ff0000" stroke-width="2"/>
<path d="M330,271" fill="none" stroke="#ff0000" stroke-width="2"/>
<path d="M331,271" fill="none" stroke="#ff0000" stroke-width="2"/>
<path d="M331,271v 1" fill="none" stroke="#ff0000" stroke-width="2"/>
<path d="M331,272" fill="none" stroke="#ff0000" stroke-width="2"/>
<path d="M332,272v 1" fill="none" stroke="#ff0000" stroke-width="2"/>
<path d="M332,273" fill="none" stroke="#ff0000" stroke-width="2"/>
<path d="M333,273" fill="none" stroke="#ff0000" stroke-width="2"/>
<path d="M333,273z" fill="none" stroke="#ff0000" stroke-width="2"/>
<path d="M333,273v 1" fill="none" stroke="#ff0000" stroke-width="2"/>
<path d="M334,274" fill="none" stroke="#ff0000" stroke-width="2"/>
<path d="M334,274v 1" fill="none" stroke="#ff0000" stroke-width="2"/>
<path d="M335,275" fill="none" stroke="#ff0000" stroke-width="2"/>
<path d="M335,275" fill="none" stroke="#ff0000" stroke-width="2"/>
<path d="M335,275z" fill="none" stroke="#ff0000" stroke-width="2"/>
<path d="M336,275v 1" fill="none" stroke="#ff0000" stroke-width="2"/>
<path d="M336,276" fill="none" stroke="#ff0000" stroke-width="2"/>
<path d="M337,276v 1" fill="none" stroke="#ff0000" stroke-width="2"/>
<path d="M337,277z" fill="none" stroke="#ff0000" stroke-width="2"/>
<path d="M337,277" fill="none" stroke="#ff0000" stroke-width="2"/>
<path d="M338,277" fill="none" stroke="#ff0000" stroke-width="2"/>
<path d="M338,277v 1" fill="none" stroke="#ff0000" stroke-width="2"/>
<path d="M339,278z" fill="none" stroke="#ff0000" stroke-width="2"/>
<path d="M339,278" fill="none" stroke="#ff0000" stroke-width="2"/>
<path d="M339,278v 1" fill="none" stroke="#ff0000" stroke-width="2"/>
<path d="M340,279z" fill="none" stroke="#ff0000" stroke-width="2"/>
<path d="M340,279" fill="none" stroke="#ff0000" stroke-width="2"/>
<path d="M341,279" fill="none" stroke="#ff0000" stroke-width="2"/>
<path d="M341,279z" fill="none" stroke="#ff0000" stroke-width="2"/>
<path d="M341,279v 1" fill="none" stroke="#ff0000" stroke-width="2"/>
<path d="M342,280z" fill="none" stroke="#ff0000" stroke-width="2"/>
<path d="M342,280" fill="none" stroke="#ff0000" stroke-width="2"/>
<path d="M343,280" fill="none" stroke="#ff0000" stroke-width="2"/>
<path d="M343,280z" fill="none" stroke="#ff0000" stroke-width="2"/>
<path d="M343,280v 1" fill="none" stroke="#ff0000" stroke-width="2"/>
<path d="M344,281z" fill="none" stroke="#ff0000" stroke-width="2"/>
<path d="M344,281" fill="none" stroke="#ff0000" stroke-width="2"/>
<path d="M345,281z" fill="none" stroke="#ff0000" stroke-width="2"/>
<path d="M345,282z" fill="none" stroke="#ff0000" stroke-width="2"/>
<path d="M345,282" fill="none" stroke="#ff0000" stroke-width="2"/>
<path d="M346,282z" fill="none" stroke="#ff0000" stroke-width="2"/>
<path d="M346,282" fill="none" stroke="#ff0000" stroke-width="2"/>
<path d="M347,282z" fill="none" stroke="#ff0000" stroke-width="2"/>
<path d="M347,282v 1" fill="none" stroke="#ff0000" stroke-width="2"/>
<path d="M347,283z" fill="none" stroke="#ff0000" stroke-width="2"/>
<path d="M348,283" fill="none" stroke="#ff0000" stroke-width="2"/>
<path d="M348,283z" fill="none" stroke="#ff0000" stroke-width="2"/>
<path d="M349,283v 1" fill="none" stroke="#ff0000" stroke-width="2"/>
<path d="M349,284z" fill="none" stroke="#ff0000" stroke-width="2"/>
<path d="M349,284z" fill="none" stroke="#ff0000" stroke-width="2"/>
<path d="M350,284" fill="none" stroke="#ff0000" stroke-width="2"/>
<path d="M350,284z" fill="none" stroke="#ff0000" stroke-width="2"/>
<path d="M350,284" fill="none" stroke="#ff0000" stroke-width="2"/>
<path d="M351,284z" fill="none" stroke="#ff0000" stroke-width="2"/>
<path d="M351,284v 1" fill="none" stroke="#ff0000" stroke-width="2"/>
<path d="M352,285z" fill="none" stroke="#ff0000" stroke-width="2"/>
<path d="M352,285z" fill="none" stroke="#ff0000" stroke-width="2"/>
<path d="M352,285" fill="none" stroke="#ff0000" stroke-width="2"/>
<path d="M353,285z" fill="none" stroke="#ff0000" stroke-width="2"/>
<path d="M353,285v 1" fill="none" stroke="#ff0000" stroke-width="2"/>
<path d="M354,286z" fill="none" stroke="#ff0000" stroke-width="2"/>
<path d="M354,286z" fill="none" stroke="#ff0000" stroke-width="2"/>
<path d="M354,286" fill="none" stroke="#ff0000" stroke-width="2"/>
<path d="M355,286z" fill="none" stroke="#ff0000" stroke-width="2"/>
<path d="M355,286z" fill="none" stroke="#ff0000" stroke-width="2"/>
<path d="M356,286" fill="none" stroke="#ff0000" stroke-width="2"/>
<path d="M356,286z" fill="none" stroke="#ff0000" stroke-width="2"/>
<path d="M356,286z" fill="none" stroke="#ff0000" stroke-width="2"/>
<path d="M357,286v 1" fill="none" stroke="#ff0000" stroke-width="2"/>
<path d="M357,287z" fill="none" stroke="#ff0000" stroke-width="2"/>
<path d="M358,287z" fill="none" stroke="#ff0000" stroke-width="2"/>
<path d="M358,287" fill="none" stroke="#ff0000" stroke-width="2"/>
<path d="M358,287z" fill="none" stroke="#ff0000" stroke-width="2"/>
<path d="M359,287z" fill="none" stroke="#ff0000" stroke-width="2"/>
<path d="M359,287v 1" fill="none" stroke="#ff0000" stroke-width="2"/>
<path d="M360,288z" fill="none" stroke="#ff0000" stroke-width="2"/>
<path d="M360,288z" fill="none" stroke="#ff0000" stroke-width="2"/>
<path d="M360,288" fill="none" stroke="#ff0000" stroke-width="2"/>
<path d="M361,288z" fill="none" stroke="#ff0000" stroke-width="2"/>
<path d="M361,288z" fill="none" stroke="#ff0000" stroke-width="2"/>
<path d="M362,288z" fill="none" stroke="#ff0000" stroke-width="2"/>
<path d="M362,288" fill="none" stroke="#ff0000" stroke-width="2"/>
<path d="M362,288z" fill="none" stroke="#ff0000" stroke-width="2"/>
<path d="M363,288z" fill="none" stroke="#ff0000" stroke-width="2"/>
<path d="M363,288z" fill="none" stroke="#ff0000" stroke-width="2"/>
<path d="M364,289z" fill="none" stroke="#ff0000" stroke-width="2"/>
<path d="M364,289z" fill="none" stroke="#ff0000" stroke-width="2"/>
<path d="M364,289z" fill="none" stroke="#ff0000" stroke-width="2"/>
<path d="M365,289z" fill="none" stroke="#ff0000" stroke-width="2"/>
<path d="M365,289" fill="none" stroke="#ff0000" stroke-width="2"/>
<path d="M366,289z" fill="none" stroke="#ff0000" stroke-width="2"/>
<path d="M366,289z" fill="none" stroke="#ff0000" stroke-width="2"/>
<path d="M366,289z" fill="none" stroke="#ff0000" stroke-width="2"/>
<path d="M367,289v 1" fill="none" stroke="#ff0000" stroke-width="2"/>
<path d="M367,290z" fill="none" stroke="#ff0000" stroke-width="2"/>
<path d="M368,290z" fill="none" stroke="#ff0000" stroke-width="2"/>
<path d="M368,290z" fill="none" stroke="#ff0000" stroke-width="2"/>
<path d="M368,290" fill="none" stroke="#ff0000" stroke-width="2"/>
<path d="M369,290z" fill="none" stroke="#ff0000" stroke-width="2"/>
<path d="M369,290z" fill="none" stroke="#ff0000" stroke-width="2"/>
<path d="M369,290z" fill="none" stroke="#ff0000" stroke-width="2"/>
<path d="M370,290z" fill="none" stroke="#ff0000" stroke-width="2"/>
<path d="M370,290" fill="none" stroke="#ff0000" stroke-width="2"/>
<path d="M371,290z" fill="none" stroke="#ff0000" stroke-width="2"/>
<path d="M371,290z" fill="none" stroke="#ff0000" stroke-width="2"/>
<path d="M371,290z" fill="none" stroke="#ff0000" stroke-width="2"/>
<path d="M372,290z" fill="none" stroke="#ff0000" stroke-width="2"/>
<path d="M372,290z" fill="none" stroke="#ff0000" stroke-width="2"/>
<path d="M373,290v 1" fill="none" stroke="#ff0000" stroke-width="2"/>
<path d="M373,291z" fill="none" stroke="#ff0000" stroke-width="2"/>
<path d="M373,291z" fill="none" stroke="#ff0000" stroke-width="2"/>
<path d="M374,291z" fill="none" stroke="#ff0000" stroke-width="2"/>
<path d="M374,291z" fill="none" stroke="#ff0000" stroke-width="2"/>
<path d="M375,291z" fill="none" stroke="#ff0000" stroke-width="2"/>
<path d="M375,291" fill="none" stroke="#ff0000" stroke-width="2"/>
<path d="M375,291z" fill="none" stroke="#ff0000" stroke-width="2"/>
<path d="M376,291z" fill="none" stroke="#ff0000" stroke-width="2"/>
<path d="M376,291z" fill="none" stroke="#ff0000" stroke-width="2"/>
<path d="M377,291z" fill="none" stroke="#ff0000" stroke-width="2"/>
<path d="M377,291z" fill="none" stroke="#ff0000" stroke-width="2"/>
<path d="M377,291v 1" fill="none" stroke="#ff0000" stroke-width="2"/>
<path d="M378,292z" fill="none" stroke="#ff0000" stroke-width="2"/>
<path d="M378,292z" fill="none" stroke="#ff0000" stroke-width="2"/>
<path d="M379,292z" fill="none" stroke="#ff0000" stroke-width="2"/>
<path d="M379,292z" fill="none" stroke="#ff0000" stroke-width="2"/>
<path d="M379,292z" fill="none" stroke="#ff0000" stroke-width="2"/>
<path d="M380,292z" fill="none" stroke="#ff0000" stroke-width="2"/>
<path d="M380,292" fill="none" stroke="#ff0000" stroke-width="2"/>
<path d="M381,292z" fill="none" stroke="#ff0000" stroke-width="2"/>
<path d="M381,292z" fill="none" stroke="#ff0000" stroke-width="2"/>
<path d="M381,292z" fill="none" stroke="#ff0000" stroke-width="2"/>
<path d="M382,292z" fill="none" stroke="#ff0000" stroke-width="2"/>
<path d="M382,292z" fill="none" stroke="#ff0000" stroke-width="2"/>
<path d="M383,292z" fill="none" stroke="#ff0000" stroke-width="2"/>
<path d="M383,292z" fill="none" stroke="#ff0000" stroke-width="2"/>
<path d="M383,292z" fill="none" stroke="#ff0000" stroke-width="2"/>
<path d="M384,292" fill="none" stroke="#ff0000" stroke-width="2"/>
<path d="M384,292z" fill="none" stroke="#ff0000" stroke-width="2"/>
<path d="M385,292z" fill="none" stroke="#ff0000" stroke-width="2"/>
<path d="M385,292z" fill="none" stroke="#ff0000" stroke-width="2"/>
<path d="M385,292z" fill="none" stroke="#ff0000" stroke-width="2"/>
<path d="M386,292z" fill="none" stroke="#ff0000" stroke-width="2"/>
<path d="M386,292z" fill="none" stroke="#ff0000" stroke-width="2"/>
<path d="M387,292z" fill="none" stroke="#ff0000" stroke-width="2"/>
<path d="M387,292z" fill="none" stroke="#ff0000" stroke-width="2"/>
<path d="M387,292v 1" fill="none" stroke="#ff0000" stroke-width="2"/>
<path d="M388,293z" fill="none" stroke="#ff0000" stroke-width="2"/>
<path d="M388,293z" fill="none" stroke="#ff0000" stroke-width="2"/>
<path d="M388,293z" fill="none" stroke="#ff0000" stroke-width="2"/>
<path d="M389,293z" fill="none" stroke="#ff0000" stroke-width="2"/>
<path d="M389,293z" fill="none" stroke="#ff0000" stroke-width="2"/>
<path d="M390,293z" fill="none" stroke="#ff0000" stroke-width="2"/>
<path d="M390,293z" fill="none" stroke="#ff0000" stroke-width="2"/>
<path d="M390,293z" fill="none" stroke="#ff0000" stroke-width="2"/>
<path d="M391,293z" fill="none" stroke="#ff0000" stroke-width="2"/>
<path d="M391,293z" fill="none" stroke="#ff0000" stroke-width="2"/>
<path d="M392,293" fill="none" stroke="#ff0000" stroke-width="2"/>
<path d="M392,293z" fill="none" stroke="#ff0000" stroke-width="2"/>
<path d="M392,293z" fill="none" stroke="#ff0000" stroke-width="2"/>
<path d="M393,293z" fill="none" stroke="#ff0000" stroke-width="2"/>
<path d="M393,293z" fill="none" stroke="#ff0000" stroke-width="2"/>
<path d="M394,293z" fill="none" stroke="#ff0000" stroke-width="2"/>
<path d="M394,293z" fill="none" stroke="#ff0000" stroke-width="2"/>
<path d="M394,293z" fill="none" stroke="#ff0000" stroke-width="2"/>
<path d="M395,293z" fill="none" stroke="#ff0000" stroke-width="2"/>
<path d="M395,293z" fill="none" stroke="#ff0000" stroke-width="2"/>
<path d="M396,293z" fill="none" stroke="#ff0000" stroke-width="2"/>
<path d="M396,293z" fill="none" stroke="#ff0000" stroke-width="2"/>
<path d="M396,293z" fill="none" stroke="#ff0000" stroke-width="2"/>
<path d="M397,293v 1" fill="none" stroke="#ff0000" stroke-width="2"/>
<path d="M397,294z" fill="none" stroke="#ff0000" stroke-width="2"/>
<path d="M398,294z" fill="none" stroke="#ff0000" stroke-width="2"/>
<path d="M398,294z" fill="none" stroke="#ff0000" stroke-width="2"/>
<path d="M398,294z" fill="none" stroke="#ff0000" stroke-width="2"/>
<path d="M399,294z" fill="none" stroke="#ff0000" stroke-width="2"/>
<path d="M399,294z" fill="none" stroke="#ff0000" stroke-width="2"/>
<path d="M400,294z" fill="none" stroke="#ff0000" stroke-width="2"/>
<path d="M400,294z" fill="none" stroke="#ff0000" stroke-width="2"/>
<path d="M400,294z" fill="none" stroke="#ff0000" stroke-width="2"/>
<path d="M401,294z" fill="none" stroke="#ff0000" stroke-width="2"/>
<path d="M401,294z" fill="none" stroke="#ff0000" stroke-width="2"/>
<path d="M402,294z" fill="none" stroke="#ff0000" stroke-width="2"/>
<path d="M402,294z" fill="none" stroke="#ff0000" stroke-width="2"/>
<path d="M402,294z" fill="none" stroke="#ff0000" stroke-width="2"/>
<path d="M403,294z" fill="none" stroke="#ff0000" stroke-width="2"/>
<path d="M403,294z" fill="none" stroke="#ff0000" stroke-width="2"/>
<path d="M404,294z" fill="none" stroke="#ff0000" stroke-width="2"/>
<path d="M404,294" fill="none" stroke="#ff0000" stroke-width="2"/>
<path d="M404,294z" fill="none" stroke="#ff0000" stroke-width="2"/>
<path d="M405,294z" fill="none" stroke="#ff0000" stroke-width="2"/>
<path d="M405,294z" fill="none" stroke="#ff0000" stroke-width="2"/>
<path d="M406,294z" fill="none" stroke="#ff0000" stroke-width="2"/>
<path d="M406,294z" fill="none" stroke="#ff0000" stroke-width="2"/>
<path d="M406,294z" fill="none" stroke="#ff0000" stroke-width="2"/>
<path d="M407,294z" fill="none" stroke="#ff0000" stroke-width="2"/>
<path d="M407,294z" fill="none" stroke="#ff0000" stroke-width="2"/>
<path d="M408,294z" fill="none" stroke="#ff0000" stroke-width="2"/>
<path d="M408,294z" fill="none" stroke="#ff0000" stroke-width="2"/>
<path d="M408,294z" fill="none" stroke="#ff0000" stroke-width="2"/>
<path d="M409,294z" fill="none" stroke="#ff0000" stroke-width="2"/>
<path d="M409,294z" fill="none" stroke="#ff0000" stroke-width="2"/>
<path d="M409,294z" fill="none" stroke="#ff0000" stroke-width="2"/>
<path d="M410,294z" fill="none" stroke="#ff0000" stroke-width="2"/>
<path d="M410,294z" fill="none" stroke="#ff0000" stroke-width="2"/>
<path d="M411,294z" fill="none" stroke="#ff0000" stroke-width="2"/>
<path d="M411,294z" fill="none" stroke="#ff0000" stroke-width="2"/>
<path d="M411,294z" fill="none" stroke="#ff0000" stroke-width="2"/>
<path d="M412,294z" fill="none" stroke="#ff0000" stroke-width="2"/>
<path d="M412,294z" fill="none" stroke="#ff0000" stroke-width="2"/>
<path d="M413,294z" fill="none" stroke="#ff0000" stroke-width="2"/>
<path d="M413,294" fill="none" stroke="#ff0000" stroke-width="2"/>
<path d="M413,294z" fill="none" stroke="#ff0000" stroke-width="2"/>
<path d="M414,294z" fill="none" stroke="#ff0000" stroke-width="2"/>
<path d="M414,294z" fill="none" stroke="#ff0000" stroke-width="2"/>
<path d="M415,294z" fill="none" stroke="#ff0000" stroke-width="2"/>
<path d="M415,294z" fill="none" stroke="#ff0000" stroke-width="2"/>
<path d="M415,294z" fill="none" stroke="#ff0000" stroke-width="2"/>
<path d="M416,294z" fill="none" stroke="#ff0000" stroke-width="2"/>
<path d="M416,294z" fill="none" stroke="#ff0000" stroke-width="2"/>
<path d="M417,294z" fill="none" stroke="#ff0000" stroke-width="2"/>
<path d="M417,294z" fill="none" stroke="#ff0000" stroke-width="2"/>
<path d="M417,294z" fill="none" stroke="#ff0000" stroke-width="2"/>
<path d="M418,294z" fill="none" stroke="#ff0000" stroke-width="2"/>
<path d="M418,294z" fill="none" stroke="#ff0000" stroke-width="2"/>
<path d="M419,294z" fill="none" stroke="#ff0000" stroke-width="2"/>
<path d="M419,294z" fill="none" stroke="#ff0000" stroke-width="2"/>
<path d="M419,294z" fill="none" stroke="#ff0000" stroke-width="2"/>
<path d="M420,294z" fill="none" stroke="#ff0000" stroke-width="2"/>
<path d="M420,294z" fill="none" stroke="#ff0000" stroke-width="2"/>
<path d="M421,294z" fill="none" stroke="#ff0000" stroke-width="2"/>
<path d="M421,294z" fill="none" stroke="#ff0000" stroke-width="2"/>
<path d="M421,294z" fill="none" stroke="#ff0000" stroke-width="2"/>
<path d="M422,294z" fill="none" stroke="#ff0000" stroke-width="2"/>
<path d="M422,294z" fill="none" stroke="#ff0000" stroke-width="2"/>
<path d="M423,294z" fill="none" stroke="#ff0000" stroke-width="2"/>
<path d="M423,294z" fill="none" stroke="#ff0000" stroke-width="2"/>
<path d="M423,294z" fill="none" stroke="#ff0000" stroke-width="2"/>
<path d="M424,294z" fill="none" stroke="#ff0000" stroke-width="2"/>
<path d="M424,294z" fill="none" stroke="#ff0000" stroke-width="2"/>
<path d="M425,294z" fill="none" stroke="#ff0000" stroke-width="2"/>
<path d="M425,294z" fill="none" stroke="#ff0000" stroke-width="2"/>
<path d="M425,294z" fill="none" stroke="#ff0000" stroke-width="2"/>
<path d="M426,294z" fill="none" stroke="#ff0000" stroke-width="2"/>
<path d="M426,294z" fill="none" stroke="#ff0000" stroke-width="2"/>
<path d="M427,294z" fill="none" stroke="#ff0000" stroke-width="2"/>
<path d="M427,294z" fill="none" stroke="#ff0000" stroke-width="2"/>
<path d="M427,294z" fill="none" stroke="#ff0000" stroke-width="2"/>
<path d="M428,294z" fill="none" stroke="#ff0000" stroke-width="2"/>
<path d="M428,294v 1" fill="none" stroke="#ff0000" stroke-width="2"/>
<path d="M428,295z" fill="none" stroke="#ff0000" stroke-width="2"/>
<path d="M429,295z" fill="none" stroke="#ff0000" stroke-width="2"/>
<path d="M429,295z" fill="none" stroke="#ff0000" stroke-width="2"/>
<path d="M430,295z" fill="none" stroke="#ff0000" stroke-width="2"/>
<path d="M430,295z" fill="none" stroke="#ff0000" stroke-width="2"/>
<path d="M430,295z" fill="none" stroke="#ff0000" stroke-width="2"/>
<path d="M431,295z" fill="none" stroke="#ff0000" stroke-width="2"/>
<path d="M431,295z" fill="none" stroke="#ff0000" stroke-width="2"/>
<path d="M432,295z" fill="none" stroke="#ff0000" stroke-width="2"/>
<path d="M432,295z" fill="none" stroke="#ff0000" stroke-width="2"/>
<path d="M432,295z" fill="none" stroke="#ff0000" stroke-width="2"/>
<path d="M433,295z" fill="none" stroke="#ff0000" stroke-width="2"/>
<path d="M433,295z" fill="none" stroke="#ff0000" stroke-width="2"/>
<path d="M434,295z" fill="none" stroke="#ff0000" stroke-width="2"/>
<path d="M434,295z" fill="none" stroke="#ff0000" stroke-width="2"/>
<path d="M434,295z" fill="none" stroke="#ff0000" stroke-width="2"/>
<path d="M435,295z" fill="none" stroke="#ff0000" stroke-width="2"/>
<path d="M435,295z" fill="none" stroke="#ff0000" stroke-width="2"/>
<path d="M436,295z" fill="none" stroke="#ff0000" stroke-width="2"/>
<path d="M436,295z" fill="none" stroke="#ff0000" stroke-width="2"/>
<path d="M436,295z" fill="none" stroke="#ff0000" stroke-width="2"/>
<path d="M437,295z" fill="none" stroke="#ff0000" stroke-width="2"/>
<path d="M437,295z" fill="none" stroke="#ff0000" stroke-width="2"/>
<path d="M438,295z" fill="none" stroke="#ff0000" stroke-width="2"/>
<path d="M438,295z" fill="none" stroke="#ff0000" stroke-width="2"/>
<path d="M438,295z" fill="none" stroke="#ff0000" stroke-width="2"/>
<path d="M439,295z" fill="none" stroke="#ff0000" stroke-width="2"/>
<path d="M439,295z" fill="none" stroke="#ff0000" stroke-width="2"/>
<path d="M440,295z" fill="none" stroke="#ff0000" stroke-width="2"/>
<path d="M440,295z" fill="none" stroke="#ff0000" stroke-width="2"/>
<path d="M440,295z" fill="none" stroke="#ff0000" stroke-width="2"/>
<path d="M441,295z" fill="none" stroke="#ff0000" stroke-width="2"/>
<path d="M441,295z" fill="none" stroke="#ff0000" stroke-width="2"/>
<path d="M442,295z" fill="none" stroke="#ff0000" stroke-width="2"/>
<path d="M442,295z" fill="none" stroke="#ff0000" stroke-width="2"/>
<path d="M442,295z" fill="none" stroke="#ff0000" stroke-width="2"/>
<path d="M443,295z" fill="none" stroke="#ff0000" stroke-width="2"/>
<path d="M443,295z" fill="none" stroke="#ff0000" stroke-width="2"/>
<path d="M444,295z" fill="none" stroke="#ff0000" stroke-width="2"/>
<path d="M444,295z" fill="none" stroke="#ff0000" stroke-width="2"/>
<path d="M444,295z" fill="none" stroke="#ff0000" stroke-width="2"/>
<path d="M445,295z" fill="none" stroke="#ff0000" stroke-width="2"/>
<path d="M445,295z" fill="none" stroke="#ff0000" stroke-width="2"/>
<path d="M446,295z" fill="none" stroke="#ff0000" stroke-width="2"/>
<path d="M446,295z" fill="none" stroke="#ff0000" stroke-width="2"/>
<path d="M446,295z" fill="none" stroke="#ff0000" stroke-width="2"/>
<path d="M447,295z" fill="none" stroke="#ff0000" stroke-width="2"/>
<path d="M447,295z" fill="none" stroke="#ff0000" stroke-width="2"/>
<path d="M447,295z" fill="none" stroke="#ff0000" stroke-width="2"/>
<path d="M448,295z" fill="none" stroke="#ff0000" stroke-width="2"/>
<path d="M448,295z" fill="none" stroke="#ff0000" stroke-width="2"/>
<path d="M449,295z" fill="none" stroke="#ff0000" stroke-width="2"/>
<path d="M449,295z" fill="none" stroke="#ff0000" stroke-width="2"/>
<path d="M449,295z" fill="none" stroke="#ff0000" stroke-width="2"/>
<path d="M450,295z" fill="none" stroke="#ff0000" stroke-width="2"/>
<path d="M450,295z" fill="none" stroke="#ff0000" stroke-width="2"/>
<path d="M451,295z" fill="none" stroke="#ff0000" stroke-width="2"/>
<path d="M451,295z" fill="none" stroke="#ff0000" stroke-width="2"/>
<path d="M451,295z" fill="none" stroke="#ff0000" stroke-width="2"/>
<path d="M452,295z" fill="none" stroke="#ff0000" stroke-width="2"/>
<path d="M452,295z" fill="none" stroke="#ff0000" stroke-width="2"/>
<path d="M453,295z" fill="none" stroke="#ff0000" stroke-width="2"/>
<path d="M453,295z" fill="none" stroke="#ff0000" stroke-width="2"/>
<path d="M453,295z" fill="none" stroke="#ff0000" stroke-width="2"/>
<path d="M454,295z" fill="none" stroke="#ff0000" stroke-width="2"/>
<path d="M454,295z" fill="none" stroke="#ff0000" stroke-width="2"/>
<path d="M455,295z" fill="none" stroke="#ff0000" stroke-width="2"/>
<path d="M455,295z" fill="none" stroke="#ff0000" stroke-width="2"/>
<path d="M455,295z" fill="none" stroke="#ff0000" stroke-width="2"/>
<path d="M456,295z" fill="none" stroke="#ff0000" stroke-width="2"/>
<path d="M456,295z" fill="none" stroke="#ff0000" stroke-width="2"/>
<path d="M457,295z" fill="none" stroke="#ff0000" stroke-width="2"/>
<path d="M457,295z" fill="none" stroke="#ff0000" stroke-width="2"/>
<path d="M457,295z" fill="none" stroke="#ff0000" stroke-width="2"/>
<path d="M458,295z" fill="none" stroke="#ff0000" stroke-width="2"/>
<path d="M458,295z" fill="none" stroke="#ff0000" stroke-width="2"/>
<path d="M459,295z" fill="none" stroke="#ff0000" stroke-width="2"/>
<path d="M459,295z" fill="none" stroke="#ff0000" stroke-width="2"/>
<path d="M459,295z" fill="none" stroke="#ff0000" stroke-width="2"/>
<path d="M460,295z" fill="none" stroke="#ff0000" stroke-width="2"/>
<path d="M460,295z" fill="none" stroke="#ff0000" stroke-width="2"/>
<path d="M461,295z" fill="none" stroke="#ff0000" stroke-width="2"/>
<path d="M461,295z" fill="none" stroke="#ff0000" stroke-width="2"/>
<path d="M461,295z" fill="none" stroke="#ff0000" stroke-width="2"/>
<path d="M462,295z" fill="none" stroke="#ff0000" stroke-width="2"/>
<path d="M462,295z" fill="none" stroke="#ff0000" stroke-width="2"/>
<path d="M463,295z" fill="none" stroke="#ff0000" stroke-width="2"/>
<path d="M463,295z" fill="none" stroke="#ff0000" stroke-width="2"/>
<path d="M463,295z" fill="none" stroke="#ff0000" stroke-width="2"/>
<path d="M464,295z" fill="none" stroke="#ff0000" stroke-width="2"/>
<path d="M464,295z" fill="none" stroke="#ff0000" stroke-width="2"/>
<path d="M465,295z" fill="none" stroke="#ff0000" stroke-width="2"/>
<path d="M465,295z" fill="none" stroke="#ff0000" stroke-width="2"/>
<path d="M465,295z" fill="none" stroke="#ff0000" stroke-width="2"/>
<path d="M466,295z" fill="none" stroke="#ff0000" stroke-width="2"/>
<path d="M466,295z" fill="none" stroke="#ff0000" stroke-width="2"/>
<path d="M466,295z" fill="none" stroke="#ff0000" stroke-width="2"/>
<path d="M467,295z" fill="none" stroke="#ff0000" stroke-width="2"/>
<path d="M467,295z" fill="none" stroke="#ff0000" stroke-width="2"/>
<path d="M468,295z" fill="none" stroke="#ff0000" stroke-width="2"/>
<path d="M468,295z" fill="none" stroke="#ff0000" stroke-width="2"/>
<path d="M468,295z" fill="none" stroke="#ff0000" stroke-width="2"/>
<path d="M469,295z" fill="none" stroke="#ff0000" stroke-width="2"/>
<path d="M469,295z" fill="none" stroke="#ff0000" stroke-width="2"/>
<path d="M470,295z" fill="none" stroke="#ff0000" stroke-width="2"/>
<path d="M470,295z" fill="none" stroke="#ff0000" stroke-width="2"/>
<path d="M470,295z" fill="none" stroke="#ff0000" stroke-width="2"/>
<path d="M471,295z" fill="none" stroke="#ff0000" stroke-width="2"/>
<path d="M471,295z" fill="none" stroke="#ff0000" stroke-width="2"/>
<path d="M472,295z" fill="none" stroke="#ff0000" stroke-width="2"/>
<path d="M472,295z" fill="none" stroke="#ff0000" stroke-width="2"/>
<path d="M472,295z" fill="none" stroke="#ff0000" stroke-width="2"/>
<path d="M473,295z" fill="none" stroke="#ff0000" stroke-width="2"/>
<path d="M284,140v 2l 1, 3v 2l 1, 2v 5l 1, 2v 2l 1, 2v 4l 1, 2v 2l 1, 2v 4l 1, 2v 2l 1, 2v 4l 1, 1v 4l 1, 2v 1l 1, 2v 3l 1, 2v 1l 1, 2v 2l 1, 2v 1l 1, 2v 2l 1, 2v 1l 1, 1v 3l 1, 1v 1l 1, 1v 2l 1, 2v 1l 1, 1v 2l 1, 1v 1l 1, 1v 2l 1, 1v 1l 1, 1v 2l 1,
 1v 1h 1v 2l 1, 1v 2h 1v 1l 1, 1v 1l 1, 1v 1l 1, 1v 1l 1, 1l 1, 1v 1l 1, 1l 1, 1v 1l 1, 1l 1, 1l 1, 1v 1h 1v 1l 1, 1h 1v 2h 1l 1, 1v 1h 1l 1, 1v 1h 1v 1h 1v 1h 1l 1, 1l 1, 1h 1v 1h 1v 1h 1l 1, 1l 1, 1h 1l 1, 1h 1l 1, 1h 1v 1h 2v 1h 2v 1h 2l 1, 1h 1l
 1, 1h 3v 1h 2l 1, 1h 3l 1, 1h 3v 1h 6v 1h 4l 1, 1h 9l 1, 1h 9v 1h 31v 1h 45" fill="none" stroke="#ff0000" stroke-width="2"/>
<path d="M57,295h 453" fill="none" stroke="black"/>
<text x="436" y="317" fill="black" font-size="11" font-family="Helvetica">
TDC-TDC0 (ns)
</text>
<path d="M57,287v 8" fill="none" stroke="black"/>
<path d="M68,291v 4" fill="none" stroke="black"/>
<path d="M79,291v 4" fill="none" stroke="black"/>
<path d="M91,291v 4" fill="none" stroke="black"/>
<path d="M102,291v 4" fill="none" stroke="black"/>
<path d="M113,287v 8" fill="none" stroke="black"/>
<path d="M125,291v 4" fill="none" stroke="black"/>
<path d="M136,291v 4" fill="none" stroke="black"/>
<path d="M147,291v 4" fill="none" stroke="black"/>
<path d="M159,291v 4" fill="none" stroke="black"/>
<path d="M170,287v 8" fill="none" stroke="black"/>
<path d="M181,291v 4" fill="none" stroke="black"/>
<path d="M193,291v 4" fill="none" stroke="black"/>
<path d="M204,291v 4" fill="none" stroke="black"/>
<path d="M215,291v 4" fill="none" stroke="black"/>
<path d="M227,287v 8" fill="none" stroke="black"/>
<path d="M238,291v 4" fill="none" stroke="black"/>
<path d="M249,291v 4" fill="none" stroke="black"/>
<path d="M261,291v 4" fill="none" stroke="black"/>
<path d="M272,291v 4" fill="none" stroke="black"/>
<path d="M283,287v 8" fill="none" stroke="black"/>
<path d="M295,291v 4" fill="none" stroke="black"/>
<path d="M306,291v 4" fill="none" stroke="black"/>
<path d="M317,291v 4" fill="none" stroke="black"/>
<path d="M329,291v 4" fill="none" stroke="black"/>
<path d="M340,287v 8" fill="none" stroke="black"/>
<path d="M351,291v 4" fill="none" stroke="black"/>
<path d="M363,291v 4" fill="none" stroke="black"/>
<path d="M374,291v 4" fill="none" stroke="black"/>
<path d="M386,291v 4" fill="none" stroke="black"/>
<path d="M397,287v 8" fill="none" stroke="black"/>
<path d="M408,291v 4" fill="none" stroke="black"/>
<path d="M420,291v 4" fill="none" stroke="black"/>
<path d="M431,291v 4" fill="none" stroke="black"/>
<path d="M442,291v 4" fill="none" stroke="black"/>
<path d="M454,287v 8" fill="none" stroke="black"/>
<path d="M465,291v 4" fill="none" stroke="black"/>
<path d="M476,291v 4" fill="none" stroke="black"/>
<path d="M488,291v 4" fill="none" stroke="black"/>
<path d="M499,291v 4" fill="none" stroke="black"/>
<path d="M510,287v 8" fill="none" stroke="black"/>
<text x="40" y="306" fill="black" font-size="11" font-family="Helvetica">
-20000
</text>
<text x="97" y="306" fill="black" font-size="11" font-family="Helvetica">
-15000
</text>
<text x="153" y="306" fill="black" font-size="11" font-family="Helvetica">
-10000
</text>
<text x="213" y="306" fill="black" font-size="11" font-family="Helvetica">
-5000
</text>
<text x="281" y="306" fill="black" font-size="11" font-family="Helvetica">
0
</text>
<text x="328" y="306" fill="black" font-size="11" font-family="Helvetica">
5000
</text>
<text x="382" y="306" fill="black" font-size="11" font-family="Helvetica">
10000
</text>
<text x="439" y="306" fill="black" font-size="11" font-family="Helvetica">
15000
</text>
<text x="495" y="306" fill="black" font-size="11" font-family="Helvetica">
20000
</text>
<path d="M57,295v -262" fill="none" stroke="black"/>
<g transform="rotate(-90,29,61)">
<text x="29" y="61" fill="black" font-size="11" font-family="Helvetica">
Count
</text>
</g>
<path d="M70,295h -13" fill="none" stroke="black"/>
<path d="M63,286h -6" fill="none" stroke="black"/>
<path d="M63,276h -6" fill="none" stroke="black"/>
<path d="M63,266h -6" fill="none" stroke="black"/>
<path d="M63,257h -6" fill="none" stroke="black"/>
<path d="M70,247h -13" fill="none" stroke="black"/>
<path d="M63,238h -6" fill="none" stroke="black"/>
<path d="M63,228h -6" fill="none" stroke="black"/>
<path d="M63,218h -6" fill="none" stroke="black"/>
<path d="M63,209h -6" fill="none" stroke="black"/>
<path d="M70,199h -13" fill="none" stroke="black"/>
<path d="M63,190h -6" fill="none" stroke="black"/>
<path d="M63,180h -6" fill="none" stroke="black"/>
<path d="M63,170h -6" fill="none" stroke="black"/>
<path d="M63,161h -6" fill="none" stroke="black"/>
<path d="M70,151h -13" fill="none" stroke="black"/>
<path d="M63,142h -6" fill="none" stroke="black"/>
<path d="M63,132h -6" fill="none" stroke="black"/>
<path d="M63,122h -6" fill="none" stroke="black"/>
<path d="M63,113h -6" fill="none" stroke="black"/>
<path d="M70,103h -13" fill="none" stroke="black"/>
<path d="M63,93h -6" fill="none" stroke="black"/>
<path d="M63,84h -6" fill="none" stroke="black"/>
<path d="M63,74h -6" fill="none" stroke="black"/>
<path d="M63,65h -6" fill="none" stroke="black"/>
<path d="M70,55h -13" fill="none" stroke="black"/>
<path d="M70,55h -13" fill="none" stroke="black"/>
<path d="M63,45h -6" fill="none" stroke="black"/>
<path d="M63,36h -6" fill="none" stroke="black"/>
<text x="48" y="299" fill="black" font-size="11" font-family="Helvetica">
0
</text>
<text x="48" y="251" fill="black" font-size="11" font-family="Helvetica">
5
</text>
<text x="42" y="203" fill="black" font-size="11" font-family="Helvetica">
10
</text>
<text x="42" y="155" fill="black" font-size="11" font-family="Helvetica">
15
</text>
<text x="42" y="107" fill="black" font-size="11" font-family="Helvetica">
20
</text>
<text x="42" y="59" fill="black" font-size="11" font-family="Helvetica">
25
</text>
<rect x="442" y="22" width="114" height="39" fill="white"/>
<path d="M442,61h 114" fill="none" stroke="black"/>
<path d="M556,61v -39" fill="none" stroke="black"/>
<path d="M556,22h -114" fill="none" stroke="black"/>
<path d="M442,22v 39" fill="none" stroke="black"/>
<text x="448" y="27" fill="black" font-size="6" font-family="Helvetica">
Entries 
</text>
<text x="536" y="27" fill="black" font-size="6" font-family="Helvetica">
 4448
</text>
<text x="453" y="33" fill="black" font-size="6" font-family="Helvetica">
 / ndf 
</text>
<text x="451" y="31" fill="black" font-size="4" font-family="Helvetica">
2
</text>
<text x="448" y="33" fill="black" font-size="6" font-family="Times">
&#0967;
</text>
<text x="517" y="33" fill="black" font-size="6" font-family="Helvetica">
  1049 / 2490
</text>
<text x="456" y="39" fill="black" font-size="6" font-family="Helvetica">
   
</text>
<text x="452" y="41" fill="black" font-size="4" font-family="Helvetica">
cu
</text>
<text x="448" y="39" fill="black" font-size="6" font-family="Helvetica">
N
</text>
<text x="522" y="40" fill="black" font-size="6" font-family="Helvetica">
 2.215e+00
</text>
<text x="519" y="40" fill="black" font-size="6" font-family="Times">
&#0177;
</text>
<text x="491" y="40" fill="black" font-size="6" font-family="Helvetica">
 2.385e-08 
</text>
<text x="454" y="45" fill="black" font-size="6" font-family="Helvetica">
 
</text>
<text x="450" y="47" fill="black" font-size="4" font-family="Helvetica">
cu
</text>
<text x="448" y="45" fill="black" font-size="6" font-family="Times">
&#0964;
</text>
<text x="541" y="47" fill="black" font-size="6" font-family="Helvetica">
 0.5
</text>
<text x="538" y="47" fill="black" font-size="6" font-family="Times">
&#0177;
</text>
<text x="521" y="47" fill="black" font-size="6" font-family="Helvetica">
 164.5 
</text>
<text x="453" y="52" fill="black" font-size="6" font-family="Helvetica">
    
</text>
<text x="452" y="54" fill="black" font-size="4" font-family="Helvetica">
f
</text>
<text x="448" y="52" fill="black" font-size="6" font-family="Helvetica">
N
</text>
<text x="538" y="53" fill="black" font-size="6" font-family="Helvetica">
 0.25
</text>
<text x="534" y="53" fill="black" font-size="6" font-family="Times">
&#0177;
</text>
<text x="517" y="53" fill="black" font-size="6" font-family="Helvetica">
 16.55 
</text>
<text x="451" y="58" fill="black" font-size="6" font-family="Helvetica">
 
</text>
<text x="450" y="60" fill="black" font-size="4" font-family="Helvetica">
f
</text>
<text x="448" y="58" fill="black" font-size="6" font-family="Times">
&#0964;
</text>
<text x="541" y="60" fill="black" font-size="6" font-family="Helvetica">
 0.0
</text>
<text x="538" y="60" fill="black" font-size="6" font-family="Times">
&#0177;
</text>
<text x="521" y="60" fill="black" font-size="6" font-family="Helvetica">
  2197 
</text>
<text x="127" y="16" fill="black" font-size="15" font-family="Helvetica">
1mm_Aluminium_combined_1mm_Aluminium
</text></svg>
