<?xml version="1.0" standalone="no"?>
<svg width="567" height="328" viewBox="0 0 567 328" xmlns="http://www.w3.org/2000/svg">
<title>
images/analysis_g4bl_sin_phase_exec_d4_d5_l_bound50bin_8tight/fits/5mm_Aluminium_5mm_Aluminium_combined_5mm_Aluminium.svg
</title>
<desc>
Creator: ROOT Version 5.34/09
CreationDate: Tue Jan  7 17:32:12 2014</desc>
<defs>
</defs>
<rect x="0" y="0" width="567" height="328" fill="white"/>
<rect x="57" y="33" width="453" height="262" fill="white"/>
<rect x="57" y="33" width="453" height="262" fill="none" stroke="black"/>
<rect x="57" y="33" width="453" height="262" fill="white"/>
<rect x="57" y="33" width="453" height="262" fill="none" stroke="black"/>
<path d="M57,295h 227v -234v 94v -47v 62v -46h 1v 31v -47v 47v -47v 109v -140v 109v -62h 1v -32v 47v -15v 93v -62v 62v -78h 1v -47v 47v -62v 140v -156v 141v -94v 47h 1v 15v -62v 109v -140v 109v -62v 93v -62v 31v -125h 1v 172v -172v 187v -124v 62v
 -125h 1v 125v -78v 125v -141v 125v -78v 109h 1v -124v 62v -109v 140v -125v 141v -141h 1v 94v -47v 94v -125v 94v -47h 1v -16v 63v -47v 47v -47v 62v -47v 47h 1v -15v 15v -172v 125v -15v 62v -15h 1v -47v 62v -156v 109h 1v 32v -63v 94v -47v 78v -31v 15v
 -62v 47h 1v 15v -78v 16v -78v 109v -15v 31v -16h 1v 16v -31v 15v -47v 78v -31h 1v -31v 31v -47v 63v -78v 62v -47v 32h 1v -16v 16v -47v 78v -31v 15v -93v 109v -31v 46v -62h 1v -16v 78v -93v 31v -47v 125v -62v 31h 1v 15v -46v 31v -109v 93v -47v 63h 1v
 15v -78v 78v -46v 31v -47h 1v 47v -16v 16v -16v 63v -110v 47h 1v 31v -78v 47v -15v 62v -78v 94h 1v -32v 16v -78v 94v -141v 125v -78v 78v -31h 1v -63v 94v -47v 63v -110v 94v -62v 78h 1v -63v 16v -16v 16v -16v 47v -47v 47v -47h 1v 47v -78v 47v -16v
 63v -63v 31v -15v 31v -78v 94h 1v -94v 47v -31v 62v -16v 16v -16v 16v -47h 1v 63v -32v 32v -78v 31h 1v -47v 78v -94v 94v -78v 109v -47h 1v -15v 31v -78v 78v -47v 63v -32h 1v -62v 94v -63v 63v -47v 47v -78h 1v 46v -31v 47v -16v 16v -94v 94v -31v 15h
 1v -15v 62v -125v 110v -47v 31v -47v 47v -47h 1v -31v 109v -109v 78h 1v -47v 47v -62v 62v -16v 16v -47h 1v 63v -32v 32v -32v 32v -47h 1v 15v -31v 31v -46v 78v -78v 62v -31h 1v 62v -47v 32v -32v 32v -32v 16h 1v -47v 78v -31v 31v -78h 1v 63v -47v 62v
 -47v 32v -63v 63h 1v -32v 32v -47v 31v -16v 16v -16v 32v -16h 1v 31v -15v 15v -47v 47v -47v 16h 1v -62v 93v -62v 47v -63v 78v -47v 47v -15h 1v 15v -31v 31v -31v 16v -32v 32v -16v 31h 1v -62v 31v -16v 32v -16v 16v -47v 62v -15v 15h 1v -47v 32v -32v
 32v -63v 78v -78v 47h 1v -16v 47v -47v 32v -78v 93v -15v 15v -47v 47h 1v -62v 62v -31v 16h 1v -16v 16v -16v 31v -15v 15v -47v 16v -16v 32h 1v 15v -78v 47v -31v 31v -47v 78v -47v 16h 1v 16v -32v 32v -47v 62v -15h 1v 15v -31v 31v -78v 63v -16h 1v -16v
 47v -31v 31h 1v -62v 47v -16h 1v 31v -31v 31v -47v 47v -47v 47h 1v -31v 16v -16v 31v -15v 15v -15h 1v -32v 47v -78v 63v -47h 1v 47v -16v 16v -47v 62v -31v 16h 1v 15v -15v 15v -31v 31v -31v 16v -16h 1v 31v -15v 15v -31v 31v -15v 15v -47h 1v 47v -15v
 15v -47v 47h 1v -15v 15v -47v 32v -16v 31v -31v 16h 1v -32v 47v -15v 15v -47v 32h 1v 15v -15v 15v -31v 31v -15h 1v -32v 47v -31v 31v -31v 16h 1v 15v -31v 31v -31v 31v -15v 15h 1v -15v 15v -62v 62v -31v 31v -15h 1v 15v -31v 31v -15v 15v -62v 47h 1v
 -16v 16v -16v 31v -15h 1v 15v -15v 15v -31v 16v -63v 78v -31h 1v 31v -15v 15v -15v 15v -15v 15v -15v 15v -15h 1v 15v -31v 31v -15v 15v -15v 15v -31h 1v 31v -15v 15h 1v -31v 31v -31v 31v -31v 16h 1v 15v -31v 31v -31v 31v -15v 15h 1v -15v 15v -31v 31v
 -15v 15h 1v -15v 15v -15v 15v -15v 15h 1v -15v 15v -15h 1v 15v -15v 15v -15v 15h 1v -15v 15v -15v 15v -15v 15h 1v -15v 15v -15v 15h 1v -15v 15v -31v 31v -31h 1v 31h 1v -15v 15v -15v 15v -31v 31h 1v -15v 15v -15v 15v -15h 1v 15v -15v 15v -31v 31h 1v
 -15v 15h 1v -15v 15v -15v 15h 1v -15v 15h 1v -31v 31v -15v 15v -15v 15h 1v -15v 15v -15v 15h 1v -15v 15h 1v -31v 31h 1v -15v 15v -15v 15v -15v 15v -15h 1v 15v -15v 15v -15v 15h 2v -47v 47h 1v -15v 15h 2v -31v 31v -15v 15h 1v -15v 15h 1v -15v 15v
 -15v 15v -15v 15h 1v -15v 15v -15v 15v -15v 15h 2v -31v 31h 1v -15v 15h 1v -15v 15v -15v 15v -15h 1v 15v -15v 15h 1v -15v 15v -15v 15v -15v 15h 1v -15v 15h 1v -15v 15h 3v -15v 15h 1v -15h 1v 15v -15v 15h 3v -15v 15h 1v -31v 31v -15v 15h 6v -15v 15v
 -15h 1v 15h 3v -15v 15v -15v 15h 3v -15v 15h 1v -15v 15h 3v -15v 15h 1v -15v 15h 1v -15v 15h 1v -15v 15h 1v -15v 15h 7v -31h 1v 31h 3v -15v 15h 2v -15v 15h 3v -15v 15h 24v -15v 15h 28v -15v 15h 16v -15h 1v 15h 1" fill="none" stroke="#000099"/>
<rect x="442" y="22" width="114" height="39" fill="white"/>
<path d="M442,61h 114" fill="none" stroke="black"/>
<path d="M556,61v -39" fill="none" stroke="black"/>
<path d="M556,22h -114" fill="none" stroke="black"/>
<path d="M442,22v 39" fill="none" stroke="black"/>
<text x="448" y="27" fill="black" font-size="6" font-family="Helvetica">
Entries 
</text>
<text x="536" y="27" fill="black" font-size="6" font-family="Helvetica">
 3039
</text>
<text x="453" y="33" fill="black" font-size="6" font-family="Helvetica">
 / ndf 
</text>
<text x="451" y="31" fill="black" font-size="4" font-family="Helvetica">
2
</text>
<text x="448" y="33" fill="black" font-size="6" font-family="Times">
&#0967;
</text>
<text x="517" y="33" fill="black" font-size="6" font-family="Helvetica">
 986.4 / 2490
</text>
<text x="456" y="39" fill="black" font-size="6" font-family="Helvetica">
   
</text>
<text x="452" y="41" fill="black" font-size="4" font-family="Helvetica">
cu
</text>
<text x="448" y="39" fill="black" font-size="6" font-family="Helvetica">
N
</text>
<text x="522" y="40" fill="black" font-size="6" font-family="Helvetica">
 1.486e+00
</text>
<text x="519" y="40" fill="black" font-size="6" font-family="Times">
&#0177;
</text>
<text x="491" y="40" fill="black" font-size="6" font-family="Helvetica">
 1.957e-07 
</text>
<text x="454" y="45" fill="black" font-size="6" font-family="Helvetica">
 
</text>
<text x="450" y="47" fill="black" font-size="4" font-family="Helvetica">
cu
</text>
<text x="448" y="45" fill="black" font-size="6" font-family="Times">
&#0964;
</text>
<text x="541" y="47" fill="black" font-size="6" font-family="Helvetica">
 0.5
</text>
<text x="538" y="47" fill="black" font-size="6" font-family="Times">
&#0177;
</text>
<text x="521" y="47" fill="black" font-size="6" font-family="Helvetica">
 164.5 
</text>
<text x="453" y="52" fill="black" font-size="6" font-family="Helvetica">
    
</text>
<text x="452" y="54" fill="black" font-size="4" font-family="Helvetica">
f
</text>
<text x="448" y="52" fill="black" font-size="6" font-family="Helvetica">
N
</text>
<text x="538" y="53" fill="black" font-size="6" font-family="Helvetica">
 0.21
</text>
<text x="535" y="53" fill="black" font-size="6" font-family="Times">
&#0177;
</text>
<text x="519" y="53" fill="black" font-size="6" font-family="Helvetica">
 11.31 
</text>
<text x="451" y="58" fill="black" font-size="6" font-family="Helvetica">
 
</text>
<text x="450" y="60" fill="black" font-size="4" font-family="Helvetica">
f
</text>
<text x="448" y="58" fill="black" font-size="6" font-family="Times">
&#0964;
</text>
<text x="541" y="60" fill="black" font-size="6" font-family="Helvetica">
 0.0
</text>
<text x="538" y="60" fill="black" font-size="6" font-family="Times">
&#0177;
</text>
<text x="521" y="60" fill="black" font-size="6" font-family="Helvetica">
  2197 
</text>
<path d="M284,123v 1" fill="none" stroke="#ff0000" stroke-width="2"/>
<path d="M284,124v 2" fill="none" stroke="#ff0000" stroke-width="2"/>
<path d="M285,126v 3" fill="none" stroke="#ff0000" stroke-width="2"/>
<path d="M285,129v 3" fill="none" stroke="#ff0000" stroke-width="2"/>
<path d="M286,132v 2" fill="none" stroke="#ff0000" stroke-width="2"/>
<path d="M286,134v 3" fill="none" stroke="#ff0000" stroke-width="2"/>
<path d="M286,137v 3" fill="none" stroke="#ff0000" stroke-width="2"/>
<path d="M287,140v 2" fill="none" stroke="#ff0000" stroke-width="2"/>
<path d="M287,142v 2" fill="none" stroke="#ff0000" stroke-width="2"/>
<path d="M288,144v 3" fill="none" stroke="#ff0000" stroke-width="2"/>
<path d="M288,147v 2" fill="none" stroke="#ff0000" stroke-width="2"/>
<path d="M288,149v 2" fill="none" stroke="#ff0000" stroke-width="2"/>
<path d="M289,151v 3" fill="none" stroke="#ff0000" stroke-width="2"/>
<path d="M289,154v 2" fill="none" stroke="#ff0000" stroke-width="2"/>
<path d="M290,156v 2" fill="none" stroke="#ff0000" stroke-width="2"/>
<path d="M290,158v 2" fill="none" stroke="#ff0000" stroke-width="2"/>
<path d="M290,160v 3" fill="none" stroke="#ff0000" stroke-width="2"/>
<path d="M291,163v 1" fill="none" stroke="#ff0000" stroke-width="2"/>
<path d="M291,164v 2" fill="none" stroke="#ff0000" stroke-width="2"/>
<path d="M292,166v 2" fill="none" stroke="#ff0000" stroke-width="2"/>
<path d="M292,168v 2" fill="none" stroke="#ff0000" stroke-width="2"/>
<path d="M292,170v 2" fill="none" stroke="#ff0000" stroke-width="2"/>
<path d="M293,172v 2" fill="none" stroke="#ff0000" stroke-width="2"/>
<path d="M293,174v 2" fill="none" stroke="#ff0000" stroke-width="2"/>
<path d="M293,176v 2" fill="none" stroke="#ff0000" stroke-width="2"/>
<path d="M294,178v 2" fill="none" stroke="#ff0000" stroke-width="2"/>
<path d="M294,180v 2" fill="none" stroke="#ff0000" stroke-width="2"/>
<path d="M295,182v 1" fill="none" stroke="#ff0000" stroke-width="2"/>
<path d="M295,183v 2" fill="none" stroke="#ff0000" stroke-width="2"/>
<path d="M295,185v 2" fill="none" stroke="#ff0000" stroke-width="2"/>
<path d="M296,187v 2" fill="none" stroke="#ff0000" stroke-width="2"/>
<path d="M296,189v 1" fill="none" stroke="#ff0000" stroke-width="2"/>
<path d="M297,191v 1" fill="none" stroke="#ff0000" stroke-width="2"/>
<path d="M297,192v 2" fill="none" stroke="#ff0000" stroke-width="2"/>
<path d="M297,194v 1" fill="none" stroke="#ff0000" stroke-width="2"/>
<path d="M298,195v 2" fill="none" stroke="#ff0000" stroke-width="2"/>
<path d="M298,197v 2" fill="none" stroke="#ff0000" stroke-width="2"/>
<path d="M299,199v 1" fill="none" stroke="#ff0000" stroke-width="2"/>
<path d="M299,200v 1" fill="none" stroke="#ff0000" stroke-width="2"/>
<path d="M299,202v 1" fill="none" stroke="#ff0000" stroke-width="2"/>
<path d="M300,203v 1" fill="none" stroke="#ff0000" stroke-width="2"/>
<path d="M300,204v 2" fill="none" stroke="#ff0000" stroke-width="2"/>
<path d="M301,206v 1" fill="none" stroke="#ff0000" stroke-width="2"/>
<path d="M301,207v 2" fill="none" stroke="#ff0000" stroke-width="2"/>
<path d="M301,209v 1" fill="none" stroke="#ff0000" stroke-width="2"/>
<path d="M302,210v 1" fill="none" stroke="#ff0000" stroke-width="2"/>
<path d="M302,212v 1" fill="none" stroke="#ff0000" stroke-width="2"/>
<path d="M303,213v 1" fill="none" stroke="#ff0000" stroke-width="2"/>
<path d="M303,214v 1" fill="none" stroke="#ff0000" stroke-width="2"/>
<path d="M303,215v 1" fill="none" stroke="#ff0000" stroke-width="2"/>
<path d="M304,217v 1" fill="none" stroke="#ff0000" stroke-width="2"/>
<path d="M304,218v 1" fill="none" stroke="#ff0000" stroke-width="2"/>
<path d="M305,219v 1" fill="none" stroke="#ff0000" stroke-width="2"/>
<path d="M305,220v 2" fill="none" stroke="#ff0000" stroke-width="2"/>
<path d="M305,222" fill="none" stroke="#ff0000" stroke-width="2"/>
<path d="M306,223" fill="none" stroke="#ff0000" stroke-width="2"/>
<path d="M306,224v 1" fill="none" stroke="#ff0000" stroke-width="2"/>
<path d="M307,225v 1" fill="none" stroke="#ff0000" stroke-width="2"/>
<path d="M307,226v 1" fill="none" stroke="#ff0000" stroke-width="2"/>
<path d="M307,227v 1" fill="none" stroke="#ff0000" stroke-width="2"/>
<path d="M308,228v 1" fill="none" stroke="#ff0000" stroke-width="2"/>
<path d="M308,229v 1" fill="none" stroke="#ff0000" stroke-width="2"/>
<path d="M309,230v 1" fill="none" stroke="#ff0000" stroke-width="2"/>
<path d="M309,231v 1" fill="none" stroke="#ff0000" stroke-width="2"/>
<path d="M309,232v 1" fill="none" stroke="#ff0000" stroke-width="2"/>
<path d="M310,233v 1" fill="none" stroke="#ff0000" stroke-width="2"/>
<path d="M310,234v 1" fill="none" stroke="#ff0000" stroke-width="2"/>
<path d="M311,235v 1" fill="none" stroke="#ff0000" stroke-width="2"/>
<path d="M311,236v 1" fill="none" stroke="#ff0000" stroke-width="2"/>
<path d="M311,237v 1" fill="none" stroke="#ff0000" stroke-width="2"/>
<path d="M312,238v 1" fill="none" stroke="#ff0000" stroke-width="2"/>
<path d="M312,239v 1" fill="none" stroke="#ff0000" stroke-width="2"/>
<path d="M312,240v 1" fill="none" stroke="#ff0000" stroke-width="2"/>
<path d="M313,241" fill="none" stroke="#ff0000" stroke-width="2"/>
<path d="M313,241v 1" fill="none" stroke="#ff0000" stroke-width="2"/>
<path d="M314,242v 1" fill="none" stroke="#ff0000" stroke-width="2"/>
<path d="M314,243v 1" fill="none" stroke="#ff0000" stroke-width="2"/>
<path d="M314,244v 1" fill="none" stroke="#ff0000" stroke-width="2"/>
<path d="M315,245v 1" fill="none" stroke="#ff0000" stroke-width="2"/>
<path d="M315,246" fill="none" stroke="#ff0000" stroke-width="2"/>
<path d="M316,246v 1" fill="none" stroke="#ff0000" stroke-width="2"/>
<path d="M316,247v 1" fill="none" stroke="#ff0000" stroke-width="2"/>
<path d="M316,248" fill="none" stroke="#ff0000" stroke-width="2"/>
<path d="M317,248v 1" fill="none" stroke="#ff0000" stroke-width="2"/>
<path d="M317,249v 1" fill="none" stroke="#ff0000" stroke-width="2"/>
<path d="M318,250v 1" fill="none" stroke="#ff0000" stroke-width="2"/>
<path d="M318,251" fill="none" stroke="#ff0000" stroke-width="2"/>
<path d="M318,252" fill="none" stroke="#ff0000" stroke-width="2"/>
<path d="M319,252v 1" fill="none" stroke="#ff0000" stroke-width="2"/>
<path d="M319,253v 1" fill="none" stroke="#ff0000" stroke-width="2"/>
<path d="M320,254" fill="none" stroke="#ff0000" stroke-width="2"/>
<path d="M320,254v 1" fill="none" stroke="#ff0000" stroke-width="2"/>
<path d="M320,255v 1" fill="none" stroke="#ff0000" stroke-width="2"/>
<path d="M321,256" fill="none" stroke="#ff0000" stroke-width="2"/>
<path d="M321,256v 1" fill="none" stroke="#ff0000" stroke-width="2"/>
<path d="M322,257" fill="none" stroke="#ff0000" stroke-width="2"/>
<path d="M322,257v 1" fill="none" stroke="#ff0000" stroke-width="2"/>
<path d="M322,258" fill="none" stroke="#ff0000" stroke-width="2"/>
<path d="M323,258v 1" fill="none" stroke="#ff0000" stroke-width="2"/>
<path d="M323,259v 1" fill="none" stroke="#ff0000" stroke-width="2"/>
<path d="M324,260" fill="none" stroke="#ff0000" stroke-width="2"/>
<path d="M324,260v 1" fill="none" stroke="#ff0000" stroke-width="2"/>
<path d="M324,261" fill="none" stroke="#ff0000" stroke-width="2"/>
<path d="M325,261v 1" fill="none" stroke="#ff0000" stroke-width="2"/>
<path d="M325,262" fill="none" stroke="#ff0000" stroke-width="2"/>
<path d="M326,262v 1" fill="none" stroke="#ff0000" stroke-width="2"/>
<path d="M326,263" fill="none" stroke="#ff0000" stroke-width="2"/>
<path d="M326,263v 1" fill="none" stroke="#ff0000" stroke-width="2"/>
<path d="M327,264" fill="none" stroke="#ff0000" stroke-width="2"/>
<path d="M327,264v 1" fill="none" stroke="#ff0000" stroke-width="2"/>
<path d="M328,265" fill="none" stroke="#ff0000" stroke-width="2"/>
<path d="M328,265v 1" fill="none" stroke="#ff0000" stroke-width="2"/>
<path d="M328,266" fill="none" stroke="#ff0000" stroke-width="2"/>
<path d="M329,266v 1" fill="none" stroke="#ff0000" stroke-width="2"/>
<path d="M329,267" fill="none" stroke="#ff0000" stroke-width="2"/>
<path d="M330,267" fill="none" stroke="#ff0000" stroke-width="2"/>
<path d="M330,267v 1" fill="none" stroke="#ff0000" stroke-width="2"/>
<path d="M330,268" fill="none" stroke="#ff0000" stroke-width="2"/>
<path d="M331,268v 1" fill="none" stroke="#ff0000" stroke-width="2"/>
<path d="M331,269" fill="none" stroke="#ff0000" stroke-width="2"/>
<path d="M331,269z" fill="none" stroke="#ff0000" stroke-width="2"/>
<path d="M332,270" fill="none" stroke="#ff0000" stroke-width="2"/>
<path d="M332,270v 1" fill="none" stroke="#ff0000" stroke-width="2"/>
<path d="M333,271" fill="none" stroke="#ff0000" stroke-width="2"/>
<path d="M333,271z" fill="none" stroke="#ff0000" stroke-width="2"/>
<path d="M333,271z" fill="none" stroke="#ff0000" stroke-width="2"/>
<path d="M334,271v 1" fill="none" stroke="#ff0000" stroke-width="2"/>
<path d="M334,272" fill="none" stroke="#ff0000" stroke-width="2"/>
<path d="M335,272v 1" fill="none" stroke="#ff0000" stroke-width="2"/>
<path d="M335,273" fill="none" stroke="#ff0000" stroke-width="2"/>
<path d="M335,273" fill="none" stroke="#ff0000" stroke-width="2"/>
<path d="M336,273v 1" fill="none" stroke="#ff0000" stroke-width="2"/>
<path d="M336,274" fill="none" stroke="#ff0000" stroke-width="2"/>
<path d="M337,274v 1" fill="none" stroke="#ff0000" stroke-width="2"/>
<path d="M337,275z" fill="none" stroke="#ff0000" stroke-width="2"/>
<path d="M337,275" fill="none" stroke="#ff0000" stroke-width="2"/>
<path d="M338,275" fill="none" stroke="#ff0000" stroke-width="2"/>
<path d="M338,275v 1" fill="none" stroke="#ff0000" stroke-width="2"/>
<path d="M339,276z" fill="none" stroke="#ff0000" stroke-width="2"/>
<path d="M339,276z" fill="none" stroke="#ff0000" stroke-width="2"/>
<path d="M339,276v 1" fill="none" stroke="#ff0000" stroke-width="2"/>
<path d="M340,277" fill="none" stroke="#ff0000" stroke-width="2"/>
<path d="M340,277z" fill="none" stroke="#ff0000" stroke-width="2"/>
<path d="M341,277" fill="none" stroke="#ff0000" stroke-width="2"/>
<path d="M341,277v 1" fill="none" stroke="#ff0000" stroke-width="2"/>
<path d="M341,278" fill="none" stroke="#ff0000" stroke-width="2"/>
<path d="M342,278z" fill="none" stroke="#ff0000" stroke-width="2"/>
<path d="M342,278v 1" fill="none" stroke="#ff0000" stroke-width="2"/>
<path d="M343,279" fill="none" stroke="#ff0000" stroke-width="2"/>
<path d="M343,279z" fill="none" stroke="#ff0000" stroke-width="2"/>
<path d="M343,279" fill="none" stroke="#ff0000" stroke-width="2"/>
<path d="M344,279z" fill="none" stroke="#ff0000" stroke-width="2"/>
<path d="M344,280z" fill="none" stroke="#ff0000" stroke-width="2"/>
<path d="M345,280" fill="none" stroke="#ff0000" stroke-width="2"/>
<path d="M345,280z" fill="none" stroke="#ff0000" stroke-width="2"/>
<path d="M345,280" fill="none" stroke="#ff0000" stroke-width="2"/>
<path d="M346,280z" fill="none" stroke="#ff0000" stroke-width="2"/>
<path d="M346,281z" fill="none" stroke="#ff0000" stroke-width="2"/>
<path d="M347,281" fill="none" stroke="#ff0000" stroke-width="2"/>
<path d="M347,281z" fill="none" stroke="#ff0000" stroke-width="2"/>
<path d="M347,281v 1" fill="none" stroke="#ff0000" stroke-width="2"/>
<path d="M348,282z" fill="none" stroke="#ff0000" stroke-width="2"/>
<path d="M348,282" fill="none" stroke="#ff0000" stroke-width="2"/>
<path d="M349,282z" fill="none" stroke="#ff0000" stroke-width="2"/>
<path d="M349,282" fill="none" stroke="#ff0000" stroke-width="2"/>
<path d="M349,282z" fill="none" stroke="#ff0000" stroke-width="2"/>
<path d="M350,282v 1" fill="none" stroke="#ff0000" stroke-width="2"/>
<path d="M350,283z" fill="none" stroke="#ff0000" stroke-width="2"/>
<path d="M350,283" fill="none" stroke="#ff0000" stroke-width="2"/>
<path d="M351,283z" fill="none" stroke="#ff0000" stroke-width="2"/>
<path d="M351,283v 1" fill="none" stroke="#ff0000" stroke-width="2"/>
<path d="M352,284z" fill="none" stroke="#ff0000" stroke-width="2"/>
<path d="M352,284" fill="none" stroke="#ff0000" stroke-width="2"/>
<path d="M352,284z" fill="none" stroke="#ff0000" stroke-width="2"/>
<path d="M353,284z" fill="none" stroke="#ff0000" stroke-width="2"/>
<path d="M353,284z" fill="none" stroke="#ff0000" stroke-width="2"/>
<path d="M354,284z" fill="none" stroke="#ff0000" stroke-width="2"/>
<path d="M354,284v 1" fill="none" stroke="#ff0000" stroke-width="2"/>
<path d="M354,285z" fill="none" stroke="#ff0000" stroke-width="2"/>
<path d="M355,285" fill="none" stroke="#ff0000" stroke-width="2"/>
<path d="M355,285z" fill="none" stroke="#ff0000" stroke-width="2"/>
<path d="M356,285z" fill="none" stroke="#ff0000" stroke-width="2"/>
<path d="M356,285v 1" fill="none" stroke="#ff0000" stroke-width="2"/>
<path d="M356,286z" fill="none" stroke="#ff0000" stroke-width="2"/>
<path d="M357,286z" fill="none" stroke="#ff0000" stroke-width="2"/>
<path d="M357,286z" fill="none" stroke="#ff0000" stroke-width="2"/>
<path d="M358,286z" fill="none" stroke="#ff0000" stroke-width="2"/>
<path d="M358,286" fill="none" stroke="#ff0000" stroke-width="2"/>
<path d="M358,286z" fill="none" stroke="#ff0000" stroke-width="2"/>
<path d="M359,286z" fill="none" stroke="#ff0000" stroke-width="2"/>
<path d="M359,286v 1" fill="none" stroke="#ff0000" stroke-width="2"/>
<path d="M360,287z" fill="none" stroke="#ff0000" stroke-width="2"/>
<path d="M360,287z" fill="none" stroke="#ff0000" stroke-width="2"/>
<path d="M360,287" fill="none" stroke="#ff0000" stroke-width="2"/>
<path d="M361,287z" fill="none" stroke="#ff0000" stroke-width="2"/>
<path d="M361,287z" fill="none" stroke="#ff0000" stroke-width="2"/>
<path d="M362,287v 1" fill="none" stroke="#ff0000" stroke-width="2"/>
<path d="M362,288z" fill="none" stroke="#ff0000" stroke-width="2"/>
<path d="M362,288z" fill="none" stroke="#ff0000" stroke-width="2"/>
<path d="M363,288z" fill="none" stroke="#ff0000" stroke-width="2"/>
<path d="M363,288" fill="none" stroke="#ff0000" stroke-width="2"/>
<path d="M364,288z" fill="none" stroke="#ff0000" stroke-width="2"/>
<path d="M364,288z" fill="none" stroke="#ff0000" stroke-width="2"/>
<path d="M364,288" fill="none" stroke="#ff0000" stroke-width="2"/>
<path d="M365,288z" fill="none" stroke="#ff0000" stroke-width="2"/>
<path d="M365,288z" fill="none" stroke="#ff0000" stroke-width="2"/>
<path d="M366,288z" fill="none" stroke="#ff0000" stroke-width="2"/>
<path d="M366,288v 1" fill="none" stroke="#ff0000" stroke-width="2"/>
<path d="M366,289z" fill="none" stroke="#ff0000" stroke-width="2"/>
<path d="M367,289z" fill="none" stroke="#ff0000" stroke-width="2"/>
<path d="M367,289z" fill="none" stroke="#ff0000" stroke-width="2"/>
<path d="M368,289" fill="none" stroke="#ff0000" stroke-width="2"/>
<path d="M368,289z" fill="none" stroke="#ff0000" stroke-width="2"/>
<path d="M368,289z" fill="none" stroke="#ff0000" stroke-width="2"/>
<path d="M369,289z" fill="none" stroke="#ff0000" stroke-width="2"/>
<path d="M369,289v 1" fill="none" stroke="#ff0000" stroke-width="2"/>
<path d="M369,290z" fill="none" stroke="#ff0000" stroke-width="2"/>
<path d="M370,290z" fill="none" stroke="#ff0000" stroke-width="2"/>
<path d="M370,290z" fill="none" stroke="#ff0000" stroke-width="2"/>
<path d="M371,290z" fill="none" stroke="#ff0000" stroke-width="2"/>
<path d="M371,290" fill="none" stroke="#ff0000" stroke-width="2"/>
<path d="M371,290z" fill="none" stroke="#ff0000" stroke-width="2"/>
<path d="M372,290z" fill="none" stroke="#ff0000" stroke-width="2"/>
<path d="M372,290z" fill="none" stroke="#ff0000" stroke-width="2"/>
<path d="M373,290z" fill="none" stroke="#ff0000" stroke-width="2"/>
<path d="M373,290" fill="none" stroke="#ff0000" stroke-width="2"/>
<path d="M373,290z" fill="none" stroke="#ff0000" stroke-width="2"/>
<path d="M374,290z" fill="none" stroke="#ff0000" stroke-width="2"/>
<path d="M374,290z" fill="none" stroke="#ff0000" stroke-width="2"/>
<path d="M375,290z" fill="none" stroke="#ff0000" stroke-width="2"/>
<path d="M375,290v 1" fill="none" stroke="#ff0000" stroke-width="2"/>
<path d="M375,291z" fill="none" stroke="#ff0000" stroke-width="2"/>
<path d="M376,291z" fill="none" stroke="#ff0000" stroke-width="2"/>
<path d="M376,291z" fill="none" stroke="#ff0000" stroke-width="2"/>
<path d="M377,291z" fill="none" stroke="#ff0000" stroke-width="2"/>
<path d="M377,291z" fill="none" stroke="#ff0000" stroke-width="2"/>
<path d="M377,291" fill="none" stroke="#ff0000" stroke-width="2"/>
<path d="M378,291z" fill="none" stroke="#ff0000" stroke-width="2"/>
<path d="M378,291z" fill="none" stroke="#ff0000" stroke-width="2"/>
<path d="M379,291z" fill="none" stroke="#ff0000" stroke-width="2"/>
<path d="M379,291z" fill="none" stroke="#ff0000" stroke-width="2"/>
<path d="M379,291z" fill="none" stroke="#ff0000" stroke-width="2"/>
<path d="M380,291z" fill="none" stroke="#ff0000" stroke-width="2"/>
<path d="M380,291v 1" fill="none" stroke="#ff0000" stroke-width="2"/>
<path d="M381,292z" fill="none" stroke="#ff0000" stroke-width="2"/>
<path d="M381,292z" fill="none" stroke="#ff0000" stroke-width="2"/>
<path d="M381,292z" fill="none" stroke="#ff0000" stroke-width="2"/>
<path d="M382,292z" fill="none" stroke="#ff0000" stroke-width="2"/>
<path d="M382,292z" fill="none" stroke="#ff0000" stroke-width="2"/>
<path d="M383,292z" fill="none" stroke="#ff0000" stroke-width="2"/>
<path d="M383,292" fill="none" stroke="#ff0000" stroke-width="2"/>
<path d="M383,292z" fill="none" stroke="#ff0000" stroke-width="2"/>
<path d="M384,292z" fill="none" stroke="#ff0000" stroke-width="2"/>
<path d="M384,292z" fill="none" stroke="#ff0000" stroke-width="2"/>
<path d="M385,292z" fill="none" stroke="#ff0000" stroke-width="2"/>
<path d="M385,292z" fill="none" stroke="#ff0000" stroke-width="2"/>
<path d="M385,292z" fill="none" stroke="#ff0000" stroke-width="2"/>
<path d="M386,292z" fill="none" stroke="#ff0000" stroke-width="2"/>
<path d="M386,292" fill="none" stroke="#ff0000" stroke-width="2"/>
<path d="M387,292z" fill="none" stroke="#ff0000" stroke-width="2"/>
<path d="M387,292z" fill="none" stroke="#ff0000" stroke-width="2"/>
<path d="M387,292z" fill="none" stroke="#ff0000" stroke-width="2"/>
<path d="M388,292z" fill="none" stroke="#ff0000" stroke-width="2"/>
<path d="M388,292z" fill="none" stroke="#ff0000" stroke-width="2"/>
<path d="M388,292z" fill="none" stroke="#ff0000" stroke-width="2"/>
<path d="M389,292z" fill="none" stroke="#ff0000" stroke-width="2"/>
<path d="M389,292z" fill="none" stroke="#ff0000" stroke-width="2"/>
<path d="M390,292z" fill="none" stroke="#ff0000" stroke-width="2"/>
<path d="M390,292v 1" fill="none" stroke="#ff0000" stroke-width="2"/>
<path d="M390,293z" fill="none" stroke="#ff0000" stroke-width="2"/>
<path d="M391,293z" fill="none" stroke="#ff0000" stroke-width="2"/>
<path d="M391,293z" fill="none" stroke="#ff0000" stroke-width="2"/>
<path d="M392,293z" fill="none" stroke="#ff0000" stroke-width="2"/>
<path d="M392,293z" fill="none" stroke="#ff0000" stroke-width="2"/>
<path d="M392,293z" fill="none" stroke="#ff0000" stroke-width="2"/>
<path d="M393,293z" fill="none" stroke="#ff0000" stroke-width="2"/>
<path d="M393,293z" fill="none" stroke="#ff0000" stroke-width="2"/>
<path d="M394,293z" fill="none" stroke="#ff0000" stroke-width="2"/>
<path d="M394,293z" fill="none" stroke="#ff0000" stroke-width="2"/>
<path d="M394,293" fill="none" stroke="#ff0000" stroke-width="2"/>
<path d="M395,293z" fill="none" stroke="#ff0000" stroke-width="2"/>
<path d="M395,293z" fill="none" stroke="#ff0000" stroke-width="2"/>
<path d="M396,293z" fill="none" stroke="#ff0000" stroke-width="2"/>
<path d="M396,293z" fill="none" stroke="#ff0000" stroke-width="2"/>
<path d="M396,293z" fill="none" stroke="#ff0000" stroke-width="2"/>
<path d="M397,293z" fill="none" stroke="#ff0000" stroke-width="2"/>
<path d="M397,293z" fill="none" stroke="#ff0000" stroke-width="2"/>
<path d="M398,293z" fill="none" stroke="#ff0000" stroke-width="2"/>
<path d="M398,293z" fill="none" stroke="#ff0000" stroke-width="2"/>
<path d="M398,293z" fill="none" stroke="#ff0000" stroke-width="2"/>
<path d="M399,293z" fill="none" stroke="#ff0000" stroke-width="2"/>
<path d="M399,293z" fill="none" stroke="#ff0000" stroke-width="2"/>
<path d="M400,293v 1" fill="none" stroke="#ff0000" stroke-width="2"/>
<path d="M400,294z" fill="none" stroke="#ff0000" stroke-width="2"/>
<path d="M400,294z" fill="none" stroke="#ff0000" stroke-width="2"/>
<path d="M401,294z" fill="none" stroke="#ff0000" stroke-width="2"/>
<path d="M401,294z" fill="none" stroke="#ff0000" stroke-width="2"/>
<path d="M402,294z" fill="none" stroke="#ff0000" stroke-width="2"/>
<path d="M402,294z" fill="none" stroke="#ff0000" stroke-width="2"/>
<path d="M402,294z" fill="none" stroke="#ff0000" stroke-width="2"/>
<path d="M403,294z" fill="none" stroke="#ff0000" stroke-width="2"/>
<path d="M403,294z" fill="none" stroke="#ff0000" stroke-width="2"/>
<path d="M404,294z" fill="none" stroke="#ff0000" stroke-width="2"/>
<path d="M404,294z" fill="none" stroke="#ff0000" stroke-width="2"/>
<path d="M404,294z" fill="none" stroke="#ff0000" stroke-width="2"/>
<path d="M405,294z" fill="none" stroke="#ff0000" stroke-width="2"/>
<path d="M405,294z" fill="none" stroke="#ff0000" stroke-width="2"/>
<path d="M406,294z" fill="none" stroke="#ff0000" stroke-width="2"/>
<path d="M406,294z" fill="none" stroke="#ff0000" stroke-width="2"/>
<path d="M406,294" fill="none" stroke="#ff0000" stroke-width="2"/>
<path d="M407,294z" fill="none" stroke="#ff0000" stroke-width="2"/>
<path d="M407,294z" fill="none" stroke="#ff0000" stroke-width="2"/>
<path d="M408,294z" fill="none" stroke="#ff0000" stroke-width="2"/>
<path d="M408,294z" fill="none" stroke="#ff0000" stroke-width="2"/>
<path d="M408,294z" fill="none" stroke="#ff0000" stroke-width="2"/>
<path d="M409,294z" fill="none" stroke="#ff0000" stroke-width="2"/>
<path d="M409,294z" fill="none" stroke="#ff0000" stroke-width="2"/>
<path d="M409,294z" fill="none" stroke="#ff0000" stroke-width="2"/>
<path d="M410,294z" fill="none" stroke="#ff0000" stroke-width="2"/>
<path d="M410,294z" fill="none" stroke="#ff0000" stroke-width="2"/>
<path d="M411,294z" fill="none" stroke="#ff0000" stroke-width="2"/>
<path d="M411,294z" fill="none" stroke="#ff0000" stroke-width="2"/>
<path d="M411,294z" fill="none" stroke="#ff0000" stroke-width="2"/>
<path d="M412,294z" fill="none" stroke="#ff0000" stroke-width="2"/>
<path d="M412,294z" fill="none" stroke="#ff0000" stroke-width="2"/>
<path d="M413,294z" fill="none" stroke="#ff0000" stroke-width="2"/>
<path d="M413,294z" fill="none" stroke="#ff0000" stroke-width="2"/>
<path d="M413,294z" fill="none" stroke="#ff0000" stroke-width="2"/>
<path d="M414,294z" fill="none" stroke="#ff0000" stroke-width="2"/>
<path d="M414,294z" fill="none" stroke="#ff0000" stroke-width="2"/>
<path d="M415,294z" fill="none" stroke="#ff0000" stroke-width="2"/>
<path d="M415,294z" fill="none" stroke="#ff0000" stroke-width="2"/>
<path d="M415,294z" fill="none" stroke="#ff0000" stroke-width="2"/>
<path d="M416,294" fill="none" stroke="#ff0000" stroke-width="2"/>
<path d="M416,294z" fill="none" stroke="#ff0000" stroke-width="2"/>
<path d="M417,294z" fill="none" stroke="#ff0000" stroke-width="2"/>
<path d="M417,294z" fill="none" stroke="#ff0000" stroke-width="2"/>
<path d="M417,294z" fill="none" stroke="#ff0000" stroke-width="2"/>
<path d="M418,294z" fill="none" stroke="#ff0000" stroke-width="2"/>
<path d="M418,294z" fill="none" stroke="#ff0000" stroke-width="2"/>
<path d="M419,294z" fill="none" stroke="#ff0000" stroke-width="2"/>
<path d="M419,294z" fill="none" stroke="#ff0000" stroke-width="2"/>
<path d="M419,294z" fill="none" stroke="#ff0000" stroke-width="2"/>
<path d="M420,294z" fill="none" stroke="#ff0000" stroke-width="2"/>
<path d="M420,294z" fill="none" stroke="#ff0000" stroke-width="2"/>
<path d="M421,294z" fill="none" stroke="#ff0000" stroke-width="2"/>
<path d="M421,294z" fill="none" stroke="#ff0000" stroke-width="2"/>
<path d="M421,294z" fill="none" stroke="#ff0000" stroke-width="2"/>
<path d="M422,294z" fill="none" stroke="#ff0000" stroke-width="2"/>
<path d="M422,294z" fill="none" stroke="#ff0000" stroke-width="2"/>
<path d="M423,294z" fill="none" stroke="#ff0000" stroke-width="2"/>
<path d="M423,294z" fill="none" stroke="#ff0000" stroke-width="2"/>
<path d="M423,294z" fill="none" stroke="#ff0000" stroke-width="2"/>
<path d="M424,294z" fill="none" stroke="#ff0000" stroke-width="2"/>
<path d="M424,294z" fill="none" stroke="#ff0000" stroke-width="2"/>
<path d="M425,294z" fill="none" stroke="#ff0000" stroke-width="2"/>
<path d="M425,294z" fill="none" stroke="#ff0000" stroke-width="2"/>
<path d="M425,294z" fill="none" stroke="#ff0000" stroke-width="2"/>
<path d="M426,294z" fill="none" stroke="#ff0000" stroke-width="2"/>
<path d="M426,294z" fill="none" stroke="#ff0000" stroke-width="2"/>
<path d="M427,294z" fill="none" stroke="#ff0000" stroke-width="2"/>
<path d="M427,294z" fill="none" stroke="#ff0000" stroke-width="2"/>
<path d="M427,294z" fill="none" stroke="#ff0000" stroke-width="2"/>
<path d="M428,294z" fill="none" stroke="#ff0000" stroke-width="2"/>
<path d="M428,294z" fill="none" stroke="#ff0000" stroke-width="2"/>
<path d="M428,294z" fill="none" stroke="#ff0000" stroke-width="2"/>
<path d="M429,294z" fill="none" stroke="#ff0000" stroke-width="2"/>
<path d="M429,294z" fill="none" stroke="#ff0000" stroke-width="2"/>
<path d="M430,294z" fill="none" stroke="#ff0000" stroke-width="2"/>
<path d="M430,294z" fill="none" stroke="#ff0000" stroke-width="2"/>
<path d="M430,294z" fill="none" stroke="#ff0000" stroke-width="2"/>
<path d="M431,294v 1" fill="none" stroke="#ff0000" stroke-width="2"/>
<path d="M431,295z" fill="none" stroke="#ff0000" stroke-width="2"/>
<path d="M432,295z" fill="none" stroke="#ff0000" stroke-width="2"/>
<path d="M432,295z" fill="none" stroke="#ff0000" stroke-width="2"/>
<path d="M432,295z" fill="none" stroke="#ff0000" stroke-width="2"/>
<path d="M433,295z" fill="none" stroke="#ff0000" stroke-width="2"/>
<path d="M433,295z" fill="none" stroke="#ff0000" stroke-width="2"/>
<path d="M434,295z" fill="none" stroke="#ff0000" stroke-width="2"/>
<path d="M434,295z" fill="none" stroke="#ff0000" stroke-width="2"/>
<path d="M434,295z" fill="none" stroke="#ff0000" stroke-width="2"/>
<path d="M435,295z" fill="none" stroke="#ff0000" stroke-width="2"/>
<path d="M435,295z" fill="none" stroke="#ff0000" stroke-width="2"/>
<path d="M436,295z" fill="none" stroke="#ff0000" stroke-width="2"/>
<path d="M436,295z" fill="none" stroke="#ff0000" stroke-width="2"/>
<path d="M436,295z" fill="none" stroke="#ff0000" stroke-width="2"/>
<path d="M437,295z" fill="none" stroke="#ff0000" stroke-width="2"/>
<path d="M437,295z" fill="none" stroke="#ff0000" stroke-width="2"/>
<path d="M438,295z" fill="none" stroke="#ff0000" stroke-width="2"/>
<path d="M438,295z" fill="none" stroke="#ff0000" stroke-width="2"/>
<path d="M438,295z" fill="none" stroke="#ff0000" stroke-width="2"/>
<path d="M439,295z" fill="none" stroke="#ff0000" stroke-width="2"/>
<path d="M439,295z" fill="none" stroke="#ff0000" stroke-width="2"/>
<path d="M440,295z" fill="none" stroke="#ff0000" stroke-width="2"/>
<path d="M440,295z" fill="none" stroke="#ff0000" stroke-width="2"/>
<path d="M440,295z" fill="none" stroke="#ff0000" stroke-width="2"/>
<path d="M441,295z" fill="none" stroke="#ff0000" stroke-width="2"/>
<path d="M441,295z" fill="none" stroke="#ff0000" stroke-width="2"/>
<path d="M442,295z" fill="none" stroke="#ff0000" stroke-width="2"/>
<path d="M442,295z" fill="none" stroke="#ff0000" stroke-width="2"/>
<path d="M442,295z" fill="none" stroke="#ff0000" stroke-width="2"/>
<path d="M443,295z" fill="none" stroke="#ff0000" stroke-width="2"/>
<path d="M443,295z" fill="none" stroke="#ff0000" stroke-width="2"/>
<path d="M444,295z" fill="none" stroke="#ff0000" stroke-width="2"/>
<path d="M444,295z" fill="none" stroke="#ff0000" stroke-width="2"/>
<path d="M444,295z" fill="none" stroke="#ff0000" stroke-width="2"/>
<path d="M445,295z" fill="none" stroke="#ff0000" stroke-width="2"/>
<path d="M445,295z" fill="none" stroke="#ff0000" stroke-width="2"/>
<path d="M446,295z" fill="none" stroke="#ff0000" stroke-width="2"/>
<path d="M446,295z" fill="none" stroke="#ff0000" stroke-width="2"/>
<path d="M446,295z" fill="none" stroke="#ff0000" stroke-width="2"/>
<path d="M447,295z" fill="none" stroke="#ff0000" stroke-width="2"/>
<path d="M447,295z" fill="none" stroke="#ff0000" stroke-width="2"/>
<path d="M447,295z" fill="none" stroke="#ff0000" stroke-width="2"/>
<path d="M448,295z" fill="none" stroke="#ff0000" stroke-width="2"/>
<path d="M448,295z" fill="none" stroke="#ff0000" stroke-width="2"/>
<path d="M449,295z" fill="none" stroke="#ff0000" stroke-width="2"/>
<path d="M449,295z" fill="none" stroke="#ff0000" stroke-width="2"/>
<path d="M449,295z" fill="none" stroke="#ff0000" stroke-width="2"/>
<path d="M450,295z" fill="none" stroke="#ff0000" stroke-width="2"/>
<path d="M450,295z" fill="none" stroke="#ff0000" stroke-width="2"/>
<path d="M451,295z" fill="none" stroke="#ff0000" stroke-width="2"/>
<path d="M451,295z" fill="none" stroke="#ff0000" stroke-width="2"/>
<path d="M451,295z" fill="none" stroke="#ff0000" stroke-width="2"/>
<path d="M452,295z" fill="none" stroke="#ff0000" stroke-width="2"/>
<path d="M452,295z" fill="none" stroke="#ff0000" stroke-width="2"/>
<path d="M453,295z" fill="none" stroke="#ff0000" stroke-width="2"/>
<path d="M453,295z" fill="none" stroke="#ff0000" stroke-width="2"/>
<path d="M453,295z" fill="none" stroke="#ff0000" stroke-width="2"/>
<path d="M454,295z" fill="none" stroke="#ff0000" stroke-width="2"/>
<path d="M454,295z" fill="none" stroke="#ff0000" stroke-width="2"/>
<path d="M455,295z" fill="none" stroke="#ff0000" stroke-width="2"/>
<path d="M455,295z" fill="none" stroke="#ff0000" stroke-width="2"/>
<path d="M455,295z" fill="none" stroke="#ff0000" stroke-width="2"/>
<path d="M456,295z" fill="none" stroke="#ff0000" stroke-width="2"/>
<path d="M456,295z" fill="none" stroke="#ff0000" stroke-width="2"/>
<path d="M457,295z" fill="none" stroke="#ff0000" stroke-width="2"/>
<path d="M457,295z" fill="none" stroke="#ff0000" stroke-width="2"/>
<path d="M457,295z" fill="none" stroke="#ff0000" stroke-width="2"/>
<path d="M458,295z" fill="none" stroke="#ff0000" stroke-width="2"/>
<path d="M458,295z" fill="none" stroke="#ff0000" stroke-width="2"/>
<path d="M459,295z" fill="none" stroke="#ff0000" stroke-width="2"/>
<path d="M459,295z" fill="none" stroke="#ff0000" stroke-width="2"/>
<path d="M459,295z" fill="none" stroke="#ff0000" stroke-width="2"/>
<path d="M460,295z" fill="none" stroke="#ff0000" stroke-width="2"/>
<path d="M460,295z" fill="none" stroke="#ff0000" stroke-width="2"/>
<path d="M461,295z" fill="none" stroke="#ff0000" stroke-width="2"/>
<path d="M461,295z" fill="none" stroke="#ff0000" stroke-width="2"/>
<path d="M461,295z" fill="none" stroke="#ff0000" stroke-width="2"/>
<path d="M462,295z" fill="none" stroke="#ff0000" stroke-width="2"/>
<path d="M462,295z" fill="none" stroke="#ff0000" stroke-width="2"/>
<path d="M463,295z" fill="none" stroke="#ff0000" stroke-width="2"/>
<path d="M463,295z" fill="none" stroke="#ff0000" stroke-width="2"/>
<path d="M463,295z" fill="none" stroke="#ff0000" stroke-width="2"/>
<path d="M464,295z" fill="none" stroke="#ff0000" stroke-width="2"/>
<path d="M464,295z" fill="none" stroke="#ff0000" stroke-width="2"/>
<path d="M465,295z" fill="none" stroke="#ff0000" stroke-width="2"/>
<path d="M465,295z" fill="none" stroke="#ff0000" stroke-width="2"/>
<path d="M465,295z" fill="none" stroke="#ff0000" stroke-width="2"/>
<path d="M466,295z" fill="none" stroke="#ff0000" stroke-width="2"/>
<path d="M466,295z" fill="none" stroke="#ff0000" stroke-width="2"/>
<path d="M466,295z" fill="none" stroke="#ff0000" stroke-width="2"/>
<path d="M467,295z" fill="none" stroke="#ff0000" stroke-width="2"/>
<path d="M467,295z" fill="none" stroke="#ff0000" stroke-width="2"/>
<path d="M468,295z" fill="none" stroke="#ff0000" stroke-width="2"/>
<path d="M468,295z" fill="none" stroke="#ff0000" stroke-width="2"/>
<path d="M468,295z" fill="none" stroke="#ff0000" stroke-width="2"/>
<path d="M469,295z" fill="none" stroke="#ff0000" stroke-width="2"/>
<path d="M469,295z" fill="none" stroke="#ff0000" stroke-width="2"/>
<path d="M470,295z" fill="none" stroke="#ff0000" stroke-width="2"/>
<path d="M470,295z" fill="none" stroke="#ff0000" stroke-width="2"/>
<path d="M470,295z" fill="none" stroke="#ff0000" stroke-width="2"/>
<path d="M471,295z" fill="none" stroke="#ff0000" stroke-width="2"/>
<path d="M471,295z" fill="none" stroke="#ff0000" stroke-width="2"/>
<path d="M472,295z" fill="none" stroke="#ff0000" stroke-width="2"/>
<path d="M472,295z" fill="none" stroke="#ff0000" stroke-width="2"/>
<path d="M472,295z" fill="none" stroke="#ff0000" stroke-width="2"/>
<path d="M473,295z" fill="none" stroke="#ff0000" stroke-width="2"/>
<path d="M473,295z" fill="none" stroke="#ff0000" stroke-width="2"/>
<path d="M474,295z" fill="none" stroke="#ff0000" stroke-width="2"/>
<path d="M474,295z" fill="none" stroke="#ff0000" stroke-width="2"/>
<path d="M474,295z" fill="none" stroke="#ff0000" stroke-width="2"/>
<path d="M475,295z" fill="none" stroke="#ff0000" stroke-width="2"/>
<path d="M475,295z" fill="none" stroke="#ff0000" stroke-width="2"/>
<path d="M476,295z" fill="none" stroke="#ff0000" stroke-width="2"/>
<path d="M284,123v 2l 1, 3v 2l 1, 3v 5l 1, 3v 2l 1, 2v 5l 1, 3v 2l 1, 2v 4l 1, 2v 2l 1, 2v 4l 1, 2v 4l 1, 2v 2l 1, 2v 3l 1, 2v 1l 1, 2v 4l 1, 1v 2l 1, 1v 3l 1, 2v 1l 1, 1v 3l 1, 1v 2l 1, 1v 3l 1, 1v 1l 1, 2v 2l 1, 1v 1l 1, 1v 2l 1, 2l 1, 2v 2l 1, 1v
 1h 1v 2l 1, 2v 1l 1, 1v 1h 1v 2l 1, 1v 1h 1v 2l 1, 1v 1h 1v 2h 1v 1l 1, 1v 1l 1, 1l 1, 1v 1l 1, 1l 1, 1v 1h 1v 1h 1v 1l 1, 1l 1, 1v 1h 1v 1h 1v 1h 1v 1l 1, 1l 1, 1h 1v 1h 1v 1h 1v 1h 1v 1h 1l 1, 1l 1, 1h 1v 1h 1l 1, 1h 1v 1h 2v 1h 1l 1, 1h 2v 1h 1l
 1, 1h 2v 1h 2v 1h 3l 1, 1h 2v 1h 4v 1h 3v 1h 6v 1h 5l 1, 1h 9v 1h 10v 1h 31v 1h 45" fill="none" stroke="#ff0000" stroke-width="2"/>
<path d="M57,295h 453" fill="none" stroke="black"/>
<text x="436" y="317" fill="black" font-size="11" font-family="Helvetica">
TDC-TDC0 (ns)
</text>
<path d="M57,287v 8" fill="none" stroke="black"/>
<path d="M68,291v 4" fill="none" stroke="black"/>
<path d="M79,291v 4" fill="none" stroke="black"/>
<path d="M91,291v 4" fill="none" stroke="black"/>
<path d="M102,291v 4" fill="none" stroke="black"/>
<path d="M113,287v 8" fill="none" stroke="black"/>
<path d="M125,291v 4" fill="none" stroke="black"/>
<path d="M136,291v 4" fill="none" stroke="black"/>
<path d="M147,291v 4" fill="none" stroke="black"/>
<path d="M159,291v 4" fill="none" stroke="black"/>
<path d="M170,287v 8" fill="none" stroke="black"/>
<path d="M181,291v 4" fill="none" stroke="black"/>
<path d="M193,291v 4" fill="none" stroke="black"/>
<path d="M204,291v 4" fill="none" stroke="black"/>
<path d="M215,291v 4" fill="none" stroke="black"/>
<path d="M227,287v 8" fill="none" stroke="black"/>
<path d="M238,291v 4" fill="none" stroke="black"/>
<path d="M249,291v 4" fill="none" stroke="black"/>
<path d="M261,291v 4" fill="none" stroke="black"/>
<path d="M272,291v 4" fill="none" stroke="black"/>
<path d="M283,287v 8" fill="none" stroke="black"/>
<path d="M295,291v 4" fill="none" stroke="black"/>
<path d="M306,291v 4" fill="none" stroke="black"/>
<path d="M317,291v 4" fill="none" stroke="black"/>
<path d="M329,291v 4" fill="none" stroke="black"/>
<path d="M340,287v 8" fill="none" stroke="black"/>
<path d="M351,291v 4" fill="none" stroke="black"/>
<path d="M363,291v 4" fill="none" stroke="black"/>
<path d="M374,291v 4" fill="none" stroke="black"/>
<path d="M386,291v 4" fill="none" stroke="black"/>
<path d="M397,287v 8" fill="none" stroke="black"/>
<path d="M408,291v 4" fill="none" stroke="black"/>
<path d="M420,291v 4" fill="none" stroke="black"/>
<path d="M431,291v 4" fill="none" stroke="black"/>
<path d="M442,291v 4" fill="none" stroke="black"/>
<path d="M454,287v 8" fill="none" stroke="black"/>
<path d="M465,291v 4" fill="none" stroke="black"/>
<path d="M476,291v 4" fill="none" stroke="black"/>
<path d="M488,291v 4" fill="none" stroke="black"/>
<path d="M499,291v 4" fill="none" stroke="black"/>
<path d="M510,287v 8" fill="none" stroke="black"/>
<text x="40" y="306" fill="black" font-size="11" font-family="Helvetica">
-20000
</text>
<text x="97" y="306" fill="black" font-size="11" font-family="Helvetica">
-15000
</text>
<text x="153" y="306" fill="black" font-size="11" font-family="Helvetica">
-10000
</text>
<text x="213" y="306" fill="black" font-size="11" font-family="Helvetica">
-5000
</text>
<text x="281" y="306" fill="black" font-size="11" font-family="Helvetica">
0
</text>
<text x="328" y="306" fill="black" font-size="11" font-family="Helvetica">
5000
</text>
<text x="382" y="306" fill="black" font-size="11" font-family="Helvetica">
10000
</text>
<text x="439" y="306" fill="black" font-size="11" font-family="Helvetica">
15000
</text>
<text x="495" y="306" fill="black" font-size="11" font-family="Helvetica">
20000
</text>
<path d="M57,295v -262" fill="none" stroke="black"/>
<g transform="rotate(-90,29,61)">
<text x="29" y="61" fill="black" font-size="11" font-family="Helvetica">
Count
</text>
</g>
<path d="M70,295h -13" fill="none" stroke="black"/>
<path d="M63,287h -6" fill="none" stroke="black"/>
<path d="M63,280h -6" fill="none" stroke="black"/>
<path d="M63,272h -6" fill="none" stroke="black"/>
<path d="M70,264h -13" fill="none" stroke="black"/>
<path d="M63,256h -6" fill="none" stroke="black"/>
<path d="M63,248h -6" fill="none" stroke="black"/>
<path d="M63,241h -6" fill="none" stroke="black"/>
<path d="M70,233h -13" fill="none" stroke="black"/>
<path d="M63,225h -6" fill="none" stroke="black"/>
<path d="M63,217h -6" fill="none" stroke="black"/>
<path d="M63,209h -6" fill="none" stroke="black"/>
<path d="M70,202h -13" fill="none" stroke="black"/>
<path d="M63,194h -6" fill="none" stroke="black"/>
<path d="M63,186h -6" fill="none" stroke="black"/>
<path d="M63,178h -6" fill="none" stroke="black"/>
<path d="M70,170h -13" fill="none" stroke="black"/>
<path d="M63,163h -6" fill="none" stroke="black"/>
<path d="M63,155h -6" fill="none" stroke="black"/>
<path d="M63,147h -6" fill="none" stroke="black"/>
<path d="M70,139h -13" fill="none" stroke="black"/>
<path d="M63,131h -6" fill="none" stroke="black"/>
<path d="M63,124h -6" fill="none" stroke="black"/>
<path d="M63,116h -6" fill="none" stroke="black"/>
<path d="M70,108h -13" fill="none" stroke="black"/>
<path d="M63,100h -6" fill="none" stroke="black"/>
<path d="M63,92h -6" fill="none" stroke="black"/>
<path d="M63,84h -6" fill="none" stroke="black"/>
<path d="M70,77h -13" fill="none" stroke="black"/>
<path d="M63,69h -6" fill="none" stroke="black"/>
<path d="M63,61h -6" fill="none" stroke="black"/>
<path d="M63,53h -6" fill="none" stroke="black"/>
<path d="M70,45h -13" fill="none" stroke="black"/>
<path d="M70,45h -13" fill="none" stroke="black"/>
<path d="M63,38h -6" fill="none" stroke="black"/>
<text x="48" y="299" fill="black" font-size="11" font-family="Helvetica">
0
</text>
<text x="48" y="268" fill="black" font-size="11" font-family="Helvetica">
2
</text>
<text x="48" y="237" fill="black" font-size="11" font-family="Helvetica">
4
</text>
<text x="48" y="205" fill="black" font-size="11" font-family="Helvetica">
6
</text>
<text x="48" y="174" fill="black" font-size="11" font-family="Helvetica">
8
</text>
<text x="42" y="143" fill="black" font-size="11" font-family="Helvetica">
10
</text>
<text x="42" y="112" fill="black" font-size="11" font-family="Helvetica">
12
</text>
<text x="42" y="81" fill="black" font-size="11" font-family="Helvetica">
14
</text>
<text x="42" y="49" fill="black" font-size="11" font-family="Helvetica">
16
</text>
<rect x="442" y="22" width="114" height="39" fill="white"/>
<path d="M442,61h 114" fill="none" stroke="black"/>
<path d="M556,61v -39" fill="none" stroke="black"/>
<path d="M556,22h -114" fill="none" stroke="black"/>
<path d="M442,22v 39" fill="none" stroke="black"/>
<text x="448" y="27" fill="black" font-size="6" font-family="Helvetica">
Entries 
</text>
<text x="536" y="27" fill="black" font-size="6" font-family="Helvetica">
 3039
</text>
<text x="453" y="33" fill="black" font-size="6" font-family="Helvetica">
 / ndf 
</text>
<text x="451" y="31" fill="black" font-size="4" font-family="Helvetica">
2
</text>
<text x="448" y="33" fill="black" font-size="6" font-family="Times">
&#0967;
</text>
<text x="517" y="33" fill="black" font-size="6" font-family="Helvetica">
 986.4 / 2490
</text>
<text x="456" y="39" fill="black" font-size="6" font-family="Helvetica">
   
</text>
<text x="452" y="41" fill="black" font-size="4" font-family="Helvetica">
cu
</text>
<text x="448" y="39" fill="black" font-size="6" font-family="Helvetica">
N
</text>
<text x="522" y="40" fill="black" font-size="6" font-family="Helvetica">
 1.486e+00
</text>
<text x="519" y="40" fill="black" font-size="6" font-family="Times">
&#0177;
</text>
<text x="491" y="40" fill="black" font-size="6" font-family="Helvetica">
 1.957e-07 
</text>
<text x="454" y="45" fill="black" font-size="6" font-family="Helvetica">
 
</text>
<text x="450" y="47" fill="black" font-size="4" font-family="Helvetica">
cu
</text>
<text x="448" y="45" fill="black" font-size="6" font-family="Times">
&#0964;
</text>
<text x="541" y="47" fill="black" font-size="6" font-family="Helvetica">
 0.5
</text>
<text x="538" y="47" fill="black" font-size="6" font-family="Times">
&#0177;
</text>
<text x="521" y="47" fill="black" font-size="6" font-family="Helvetica">
 164.5 
</text>
<text x="453" y="52" fill="black" font-size="6" font-family="Helvetica">
    
</text>
<text x="452" y="54" fill="black" font-size="4" font-family="Helvetica">
f
</text>
<text x="448" y="52" fill="black" font-size="6" font-family="Helvetica">
N
</text>
<text x="538" y="53" fill="black" font-size="6" font-family="Helvetica">
 0.21
</text>
<text x="535" y="53" fill="black" font-size="6" font-family="Times">
&#0177;
</text>
<text x="519" y="53" fill="black" font-size="6" font-family="Helvetica">
 11.31 
</text>
<text x="451" y="58" fill="black" font-size="6" font-family="Helvetica">
 
</text>
<text x="450" y="60" fill="black" font-size="4" font-family="Helvetica">
f
</text>
<text x="448" y="58" fill="black" font-size="6" font-family="Times">
&#0964;
</text>
<text x="541" y="60" fill="black" font-size="6" font-family="Helvetica">
 0.0
</text>
<text x="538" y="60" fill="black" font-size="6" font-family="Times">
&#0177;
</text>
<text x="521" y="60" fill="black" font-size="6" font-family="Helvetica">
  2197 
</text>
<text x="127" y="16" fill="black" font-size="15" font-family="Helvetica">
5mm_Aluminium_combined_5mm_Aluminium
</text></svg>
