<?xml version="1.0" standalone="no"?>
<svg width="567" height="385" viewBox="0 0 567 385" xmlns="http://www.w3.org/2000/svg">
<title>
images/analysis_phase_loose_f/448_D3.svg
</title>
<desc>
Creator: ROOT Version 5.34/05
CreationDate: Mon Jun 10 22:13:05 2013</desc>
<defs>
</defs>
<rect x="0" y="0" width="567" height="385" fill="white"/>
<rect x="57" y="38" width="453" height="308" fill="white"/>
<rect x="57" y="38" width="453" height="308" fill="none" stroke="black"/>
<rect x="57" y="38" width="453" height="308" fill="white"/>
<rect x="57" y="38" width="453" height="308" fill="none" stroke="black"/>
<path d="M57,346h 43v -1h 1v -2h 1v 1v -1v 1v -6h 1v -30v 10h 1v 1v -15v 16v -2h 1v -11v 14v -14v 12h 1v -14v 14h 1v -22v 21v -12v 10h 1v 1v -12v 15v -4h 1v -11v 15v -18v 19h 1v -17v 14v -1h 1v -12v 12v -17v 11h 1v 9v -13v 13h 1v -19v 19v -21v 15h 1v
 6v -14v 15h 1v -11v 9v -14v 6h 1v 8v -20v 21v -2h 1v -13v 13v -7h 1v 11v -18v 13v -1h 1v -12v 13v -12h 1v 13v -12v 14h 1v -18v 15v -13h 1v 18v -18v 15h 1v -11v 5v -12h 1v 18v -11v 11h 1v -16v 16v -19h 1v 20v -11v 12h 1v -13v 7v -12h 1v 14v -16v 14h
 1v 2v -17v 21v -18h 1v 16v -16v 18h 1v -20v 19v -16h 1v 13v -14v 10h 1v 6v -19v 20v -14h 1v 14v -22v 18h 1v 4v -13v 9v -9h 1v 11v -13v 7h 1v 10v -28v 29v -18h 1v 13v -16v 1h 1v 16v -14v 14v -6h 1v -9v 16v -18v 8h 1v 2v -8v 11v -3h 1v -9v 16v -18h 1v
 17v -13v 14v -4h 1v -15v 19v -15v 13h 1v -14v 15v -6h 1v -12v 20v -17v 15h 1v -10v 15v -9h 1v -9v 14v -15v 14h 1v -9v 10v -3h 1v -13v 14v -11v 5h 1v 9v -14v 15v -6h 1v -8v 10v -16v 17h 1v -14v 15v -2h 1v -9v 11v -15v 13h 1v -2v 1v -13v 18h 1v -12v
 10v -14v 2h 1v 13v -14v 10v -2h 1v -14v 18v -11v 5h 1v 5v -11v 12h 1v -10v 6v -9h 1v 15v -17v 15h 1v -8v 9v -17v 2h 1v 18v -15v 8h 1v 1v -17v 18v -14h 1v 16v -12v 11h 1v -12v 12v -15h 1v 15v -10v 10h 1v 1v -14v 11v -11h 1v 11v -11v 14h 1v -13v 13v
 -15h 1v 11v -7v 7h 1v -9v 14v -18h 1v 12v -13v 16h 1v 1v -13v 13v -9h 1v -1v 10v -15v 7h 1v 8v -14v 10v -9h 1v -5v 21v -14h 1v 16v -18v 12v -3h 1v -11v 17v -18v 11h 1v 6v -20v 22v -8h 1v -10v 16v -13h 1v 15v -20v 15v -4h 1v -8v 16v -14h 1v 13v -11v
 13v -6h 1v -19v 21v -14v 11h 1v 4v -14v 15h 1v -11v 12v -16v 10h 1v 4v -13v 14v -2h 1v -20v 24v -19v 11h 1v 5v -17v 19v -4h 1v -8v 12v -17v 13h 1v 3v -17v 17v -1h 1v -12v 11v -7v 3h 1v 3v -12v 14v -1h 1v -13v 14v -12h 1v 14v -13v 12h 1v -14v 15v
 -10h 1v 8v -13v 14h 1v -16v 17v -17h 1v 16v -16v 18h 1v -20v 19v -15h 1v 15v -13v 12h 1v -17v 16v -10h 1v 13v -14v 10h 1v -11v 13v -17h 1v 16v -18v 17h 1v -17v 14v -9h 1v 8v -2v 2v -16v 18h 1v -9v 13v -21h 1v 20v -14v 15h 1v -17v 14v -12h 1v 15v
 -17v 12h 1v 2v -11v 12v -8h 1v -4v 15v -16v 10h 1v 3v -17v 18v -17h 1v 13v -12v 5h 1v 12v -19v 16v -8h 1v -7v 13v -11v 1h 1v 12v -9v 10v -6h 1v -11v 18v -19h 1v 21v -21v 18v -6h 1v -3v 12v -15v 2h 1v 11v -19v 19v -3h 1v -13v 11v -1v 2v -11h 1v 14v
 -9v 7v -2h 1v -8v 9v -18v 24h 1v -18v 14h 1v -13v 16v -18v 14h 1v -1v 2v -12v 14v -4h 1v -6v 10v -19v 15h 1v 5v -19v 18h 1v -15v 18v -20v 14h 1v 1v -16v 14v -1h 1v -10v 12v -10v 2h 1v 10v -12v 10h 1v -12v 18v -21v 5h 1v 12v -16v 16h 1v -20v 19v -15h
 1v 12v -13v 17h 1v -16v 14v -12h 1v 10v -1v 1v -11v 20h 1v -21v 12v -18h 1v 20v -12v 15h 1v -15v 11v -18h 1v 20v -11v 15h 1v -17v 16v -16h 1v 11v -20v 22h 1v -12v 10v -19h 1v 21v -16v 13h 1v 2v -15v 22v -20h 1v 10v -12v 13h 1v 2v -16v 15v -8h 1v -3v
 14v -18v 9h 1v 7v -16v 17v -12h 1v -2v 17v -19h 1v 15v -18v 16v -2h 1v -11v 14v -13v 4h 1v 9v -17v 23v -20h 1v -1v 14v -10h 1v 15v -23v 19v -9h 1v -7v 15v -13h 1v 12v -12v 16v -5h 1v -20v 22v -15h 1v 16v -18v 18v -6h 1v -9v 10v -11h 1v 16v -14v 13v
 -2h 1v -18v 16v -13v 7h 1v 6v -13v 13h 1v -11v 14v -26v 25h 1v 3v -15v 11h 1v -14v 16v -12v 8h 1v -16v 18h 1v -11v 11v -16v 5h 1v 11v -11v 9h 1v -13v 16v -18v 9h 1v 9v -17v 11h 1v -7v 11v -16h 1v 17v -12v 12h 1v -22v 21v -13v 2h 1v 8v -12v 14h 1v
 -28v 19v -23h 1v 13v -21v 45h 1v 33v -293v 38v -17h 1v 77v -14v 32v -5h 1v 26v -34v 40v -17h 1v 17v -18v 18h 1v -11v 25v -25h 1v 21v -14v 11h 1v 15v -14v 14v -14h 1v 10v -18v 22h 1v -9v 13v -13h 1v 18v -13v 5h 1v 1v -20v 36v -13h 1v 17v -22v 16h 1v
 9v -20v 18v -8h 1v -13v 20v -17v 11h 1v 3v -6v 24v -33h 1v 23v -13h 1v 14v -21v 18v -6h 1v -7v 21v -15v 7h 1v 18v -15v 13h 1v -15v 8v -7v 3h 1v 15v -26v 25v -8h 1v -15v 24v -14h 1v 22v -18v 14h 1v -15v 21v -22h 1v 22v -15v 15h 1v -17v 14v -16h 1v
 19v -11v 7h 1v -11v 18v -16v 13h 1v 6v -25v 25h 1v -16v 17v -18v 14h 1v 4v -18v 16v -3h 1v -9v 17v -22v 10h 1v 12v -15v 14h 1v -10v 11v -7v 6h 1v 6v -24v 18h 1v 2v -16v 24v -16v 3h 1v 9v -12v 8h 1v 3v -15v 19v -13h 1v 13v -21v 17h 1v 2v -12v 17v
 -20h 1v 17v -4v 5h 1v -19v 21v -18h 1v 19v -6v 2h 1v -11v 14v -23h 1v 29v -22v 17h 1v 4v -14v 12v -17h 1v 14v -16v 23h 1v -16v 14v -12h 1v 17v -15v 12h 1v -14v 21v -22h 1v 13v -9v 8h 1v 3v -14v 11v -6v 3h 1v 6v -21v 14h 1v 7v -18v 20v -9h 1v -2v 11v
 -13h 1v 12v -16v 18v -2h 1v -15v 19v -13v 1h 1v 8v -9v 13v -4h 1v -15v 19v -14h 1v 16v -17v 17v -7h 1v -11v 15v -12h 1v 16v -9v 4v -1h 1v -14v 17v -11h 1v 13v -8v 13v -7h 1v -9v 9v -12h 1v 10v -11v 15h 1v -16v 19v -15h 1v 17v -22v 17h 1v -6v 7v -15v
 9h 1v 9v -19v 14v -3h 1v -8v 15v -17v 9h 1v 7v -18v 16h 1v -12v 15v -10h 1v 16v -18v 11v -4h 1v 3v -13v 14v -12h 1v 20v -21v 16h 1v -22v 16v -11h 1v 15v -17v 23h 1v -17v 15v -23h 1v 26v -22v 15h 1v 7v -27v 23v -15h 1v 11v -10v 14h 1v -8v 4v -2v 3v
 -14h 1v 18v -15v 10h 1v 8v -24v 21v -14h 1v 13v -12v 13h 1v -17v 13v -8h 1v -2v 14v -18v 6h 1v 15v -19v 19v -15h 1v 10v -12v 8h 1v 7v -14v 11v -8h 1v -4v 13v -10v 8h 1v -1v 1v -9v 8v -1h 1v -6v 15v -13h 1v 11v -17v 15v -2h 1v -16v 19v -17h 1v 15v
 -10v 10v -4h 1v -11v 17v -13h 1v 11v -20v 21v -6h 1v -8v 16v -23h 1v 24v -11v 13v -10h 1v -12v 18v -14h 1v 12v -14v 16v -1h 1v -10v 8v -13h 1v 18v -17v 15v -2h 1v -15v 21v -15h 1v 11v -13v 13h 1v -9v 6v -12h 1v 23v -23v 13h 1v -13v 19v -17v 2h 1v 8v
 -13v 16h 1v -16v 19v -17v 2h 1v 12v -21v 19h 1v -9v 12v -11h 1v 12v -15v 13h 1v 2v -15v 14v -16h 1v 14v -16v 21h 1v -21v 14v -17h 1v 19v -9v 11h 1v -14v 16v -16h 1v 14v -13v 14h 1v -14v 13v -22h 1v 19v -10v 8h 1v 9v -22v 18v -13h 1v 8v -15v 21h 1v
 1v -13v 13v -16h 1v 13v -10v 7h 1v -1v 1v -9v 18v -14h 1v 10v -21v 12h 1v 3v -8v 18v -17h 1v -1v 14v -16v 11h 1v 4v -15v 19v -17h 1v -2v 16v -11v 4h 1v 5v -13v 15v -9h 1v 8v -8v 4h 1v 4v -11v 8v -3h 1v -12v 18v -18h 1v 16v -11v 11v -4h 1v -4v 13v
 -23h 1v 17v -10v 15v -2h 1v -16v 14v -19h 1v 22v -14v 15v -5h 1v -9v 9v -18h 1v 16v -4v 10v -1h 1v -10v 10v -11h 1v 11v -21v 24v -3h 1v -12v 13v -10h 1v 8v -12v 14v -4h 1v -12v 18v -17h 1v 14v -13v 14h 1v -18v 20v -13h 1v 11v -19v 18h 1v -13v 13v
 -16h 1v 17v -9v 6h 1v -9v 12v -20h 1v 20v -12v 18h 1v -21v 15v -20h 1v 24v -14v 10h 1v -15v 14v -12h 1v 14v -18v 18h 1v -16v 13v -15h 1v 22v -22v 15h 1v 3v -15v 19v -23h 1v 15v -4v 6v -12v 12h 1v -13v 16v -17h 1v 12v -13v 13h 1v -17v 22v -14h 1v 9v
 -15v 15h 1v 3v -18v 15v -8h 1v -3v 18v -24v 20h 1v -18v 19v -12h 1v -5v 18v -16h 1v 16v -22v 15v -2h 1v -9v 15v -8v 3h 1v 7v -13v 8h 1v -17v 22v -17h 1v 15v -15v 12v -1h 1v -12v 15v -15h 1v 18v -14v 9v -2h 1v -12v 18v -22h 1v 21v -15v 16v -3h 1v
 -11v 12v -12h 1v 12v -12v 13h 1v -15v 16v -13h 1v 10v -9v 13h 1v -15v 14v -15h 1v 16v -19v 18h 1v -11v 13v -14h 1v 7v -5v 12h 1v -16v 17v -12h 1v -5v 12v -12v 14h 1v -16v 14v -10v 6h 1v 12v -17v 12h 1v -18v 19v -13h 1v 14v -12v 11h 1v -20v 19v -15h
 1v 17v -14v 10h 1v 6v -16v 16v -19h 1v 14v -15v 17h 1v -13v 11v -20h 1v 17v -11v 10h 1v 2v -17v 20v -16h 1v 15v -10v 6h 1v 2v -15v 20v -15h 1v 13v -19v 13h 1v -11v 21v -15h 1v 8v -18v 19h 1v 2v -14v 10v -10h 1v 16v -21v 9h 1v 11v -18v 18v -10h 1v
 -1v 8v -8h 1v 11v -16v 15v -9h 1v -4v 8v -5v 1h 1v 11v -14v 14v -6h 1v -14v 12v -9h 1v 9v -8v 14v -4h 1v -12v 16v -13h 1v 14v -17v 15h 1v -20v 21v -14h 1v 13v -11v 11h 1v -12v 10v -14h 1v 18v -14v 15h 1v -19v 16v -7h 1v 7v -17v 19v -1h 1v -16v 15v
 -14h 1v 14v -15v 14v -3h 1v -12v 17v -15h 1v 12v -20" fill="none" stroke="#000099"/>
<path d="M284,160v 5" fill="none" stroke="#ff0000" stroke-width="2"/>
<path d="M285,165v 17" fill="none" stroke="#ff0000" stroke-width="2"/>
<path d="M285,175v 19" fill="none" stroke="#ff0000" stroke-width="2"/>
<path d="M286,181v 19" fill="none" stroke="#ff0000" stroke-width="2"/>
<path d="M287,185v 19" fill="none" stroke="#ff0000" stroke-width="2"/>
<path d="M288,190v 18" fill="none" stroke="#ff0000" stroke-width="2"/>
<path d="M289,197v 16" fill="none" stroke="#ff0000" stroke-width="2"/>
<path d="M289,201v 18" fill="none" stroke="#ff0000" stroke-width="2"/>
<path d="M290,203v 19" fill="none" stroke="#ff0000" stroke-width="2"/>
<path d="M291,207v 18" fill="none" stroke="#ff0000" stroke-width="2"/>
<path d="M292,210v 18" fill="none" stroke="#ff0000" stroke-width="2"/>
<path d="M293,215v 17" fill="none" stroke="#ff0000" stroke-width="2"/>
<path d="M293,217v 18" fill="none" stroke="#ff0000" stroke-width="2"/>
<path d="M294,220v 18" fill="none" stroke="#ff0000" stroke-width="2"/>
<path d="M295,221v 18" fill="none" stroke="#ff0000" stroke-width="2"/>
<path d="M296,225v 17" fill="none" stroke="#ff0000" stroke-width="2"/>
<path d="M297,228v 18" fill="none" stroke="#ff0000" stroke-width="2"/>
<path d="M298,230v 18" fill="none" stroke="#ff0000" stroke-width="2"/>
<path d="M298,232v 18" fill="none" stroke="#ff0000" stroke-width="2"/>
<path d="M299,233v 18" fill="none" stroke="#ff0000" stroke-width="2"/>
<path d="M300,238v 15" fill="none" stroke="#ff0000" stroke-width="2"/>
<path d="M301,239v 18" fill="none" stroke="#ff0000" stroke-width="2"/>
<path d="M302,241v 18" fill="none" stroke="#ff0000" stroke-width="2"/>
<path d="M302,242v 18" fill="none" stroke="#ff0000" stroke-width="2"/>
<path d="M303,244v 18" fill="none" stroke="#ff0000" stroke-width="2"/>
<path d="M304,247v 17" fill="none" stroke="#ff0000" stroke-width="2"/>
<path d="M305,249v 17" fill="none" stroke="#ff0000" stroke-width="2"/>
<path d="M306,250v 18" fill="none" stroke="#ff0000" stroke-width="2"/>
<path d="M307,251v 18" fill="none" stroke="#ff0000" stroke-width="2"/>
<path d="M307,254v 16" fill="none" stroke="#ff0000" stroke-width="2"/>
<path d="M308,255v 18" fill="none" stroke="#ff0000" stroke-width="2"/>
<path d="M309,257v 17" fill="none" stroke="#ff0000" stroke-width="2"/>
<path d="M310,258v 18" fill="none" stroke="#ff0000" stroke-width="2"/>
<path d="M311,260v 17" fill="none" stroke="#ff0000" stroke-width="2"/>
<path d="M311,261v 16" fill="none" stroke="#ff0000" stroke-width="2"/>
<path d="M312,263v 17" fill="none" stroke="#ff0000" stroke-width="2"/>
<path d="M313,264v 17" fill="none" stroke="#ff0000" stroke-width="2"/>
<path d="M314,264v 18" fill="none" stroke="#ff0000" stroke-width="2"/>
<path d="M315,266v 17" fill="none" stroke="#ff0000" stroke-width="2"/>
<path d="M315,268v 16" fill="none" stroke="#ff0000" stroke-width="2"/>
<path d="M316,269v 17" fill="none" stroke="#ff0000" stroke-width="2"/>
<path d="M317,269v 18" fill="none" stroke="#ff0000" stroke-width="2"/>
<path d="M318,270v 18" fill="none" stroke="#ff0000" stroke-width="2"/>
<path d="M319,271v 18" fill="none" stroke="#ff0000" stroke-width="2"/>
<path d="M320,273v 17" fill="none" stroke="#ff0000" stroke-width="2"/>
<path d="M320,273v 18" fill="none" stroke="#ff0000" stroke-width="2"/>
<path d="M321,274v 18" fill="none" stroke="#ff0000" stroke-width="2"/>
<path d="M322,275v 17" fill="none" stroke="#ff0000" stroke-width="2"/>
<path d="M323,277v 16" fill="none" stroke="#ff0000" stroke-width="2"/>
<path d="M324,277v 18" fill="none" stroke="#ff0000" stroke-width="2"/>
<path d="M324,278v 17" fill="none" stroke="#ff0000" stroke-width="2"/>
<path d="M325,279v 17" fill="none" stroke="#ff0000" stroke-width="2"/>
<path d="M326,279v 17" fill="none" stroke="#ff0000" stroke-width="2"/>
<path d="M327,281v 16" fill="none" stroke="#ff0000" stroke-width="2"/>
<path d="M328,282v 17" fill="none" stroke="#ff0000" stroke-width="2"/>
<path d="M329,282v 17" fill="none" stroke="#ff0000" stroke-width="2"/>
<path d="M329,282v 17" fill="none" stroke="#ff0000" stroke-width="2"/>
<path d="M330,283v 17" fill="none" stroke="#ff0000" stroke-width="2"/>
<path d="M331,284v 16" fill="none" stroke="#ff0000" stroke-width="2"/>
<path d="M332,285v 17" fill="none" stroke="#ff0000" stroke-width="2"/>
<path d="M333,285v 17" fill="none" stroke="#ff0000" stroke-width="2"/>
<path d="M333,286v 17" fill="none" stroke="#ff0000" stroke-width="2"/>
<path d="M334,286v 17" fill="none" stroke="#ff0000" stroke-width="2"/>
<path d="M335,286v 18" fill="none" stroke="#ff0000" stroke-width="2"/>
<path d="M336,287v 17" fill="none" stroke="#ff0000" stroke-width="2"/>
<path d="M337,287v 17" fill="none" stroke="#ff0000" stroke-width="2"/>
<path d="M337,288v 17" fill="none" stroke="#ff0000" stroke-width="2"/>
<path d="M338,289v 16" fill="none" stroke="#ff0000" stroke-width="2"/>
<path d="M339,289v 17" fill="none" stroke="#ff0000" stroke-width="2"/>
<path d="M340,290v 17" fill="none" stroke="#ff0000" stroke-width="2"/>
<path d="M341,290v 17" fill="none" stroke="#ff0000" stroke-width="2"/>
<path d="M342,291v 17" fill="none" stroke="#ff0000" stroke-width="2"/>
<path d="M342,291v 17" fill="none" stroke="#ff0000" stroke-width="2"/>
<path d="M343,291v 17" fill="none" stroke="#ff0000" stroke-width="2"/>
<path d="M344,291v 17" fill="none" stroke="#ff0000" stroke-width="2"/>
<path d="M345,292v 17" fill="none" stroke="#ff0000" stroke-width="2"/>
<path d="M346,292v 17" fill="none" stroke="#ff0000" stroke-width="2"/>
<path d="M346,293v 16" fill="none" stroke="#ff0000" stroke-width="2"/>
<path d="M347,293v 17" fill="none" stroke="#ff0000" stroke-width="2"/>
<path d="M348,293v 17" fill="none" stroke="#ff0000" stroke-width="2"/>
<path d="M349,294v 16" fill="none" stroke="#ff0000" stroke-width="2"/>
<path d="M350,294v 17" fill="none" stroke="#ff0000" stroke-width="2"/>
<path d="M351,295v 16" fill="none" stroke="#ff0000" stroke-width="2"/>
<path d="M351,295v 17" fill="none" stroke="#ff0000" stroke-width="2"/>
<path d="M352,295v 17" fill="none" stroke="#ff0000" stroke-width="2"/>
<path d="M353,295v 17" fill="none" stroke="#ff0000" stroke-width="2"/>
<path d="M354,295v 17" fill="none" stroke="#ff0000" stroke-width="2"/>
<path d="M355,295v 18" fill="none" stroke="#ff0000" stroke-width="2"/>
<path d="M355,295v 18" fill="none" stroke="#ff0000" stroke-width="2"/>
<path d="M356,296v 17" fill="none" stroke="#ff0000" stroke-width="2"/>
<path d="M357,296v 17" fill="none" stroke="#ff0000" stroke-width="2"/>
<path d="M358,296v 17" fill="none" stroke="#ff0000" stroke-width="2"/>
<path d="M359,297v 16" fill="none" stroke="#ff0000" stroke-width="2"/>
<path d="M359,297v 16" fill="none" stroke="#ff0000" stroke-width="2"/>
<path d="M360,297v 17" fill="none" stroke="#ff0000" stroke-width="2"/>
<path d="M361,297v 17" fill="none" stroke="#ff0000" stroke-width="2"/>
<path d="M362,297v 17" fill="none" stroke="#ff0000" stroke-width="2"/>
<path d="M363,298v 16" fill="none" stroke="#ff0000" stroke-width="2"/>
<path d="M364,298v 17" fill="none" stroke="#ff0000" stroke-width="2"/>
<path d="M364,298v 17" fill="none" stroke="#ff0000" stroke-width="2"/>
<path d="M365,298v 17" fill="none" stroke="#ff0000" stroke-width="2"/>
<path d="M366,298v 17" fill="none" stroke="#ff0000" stroke-width="2"/>
<path d="M367,299v 16" fill="none" stroke="#ff0000" stroke-width="2"/>
<path d="M368,299v 17" fill="none" stroke="#ff0000" stroke-width="2"/>
<path d="M368,299v 17" fill="none" stroke="#ff0000" stroke-width="2"/>
<path d="M369,299v 17" fill="none" stroke="#ff0000" stroke-width="2"/>
<path d="M370,299v 17" fill="none" stroke="#ff0000" stroke-width="2"/>
<path d="M371,299v 17" fill="none" stroke="#ff0000" stroke-width="2"/>
<path d="M372,299v 17" fill="none" stroke="#ff0000" stroke-width="2"/>
<path d="M372,299v 17" fill="none" stroke="#ff0000" stroke-width="2"/>
<path d="M373,299v 18" fill="none" stroke="#ff0000" stroke-width="2"/>
<path d="M374,299v 18" fill="none" stroke="#ff0000" stroke-width="2"/>
<path d="M375,299v 18" fill="none" stroke="#ff0000" stroke-width="2"/>
<path d="M376,299v 18" fill="none" stroke="#ff0000" stroke-width="2"/>
<path d="M377,299v 18" fill="none" stroke="#ff0000" stroke-width="2"/>
<path d="M377,300v 17" fill="none" stroke="#ff0000" stroke-width="2"/>
<path d="M378,300v 17" fill="none" stroke="#ff0000" stroke-width="2"/>
<path d="M379,300v 17" fill="none" stroke="#ff0000" stroke-width="2"/>
<path d="M380,300v 17" fill="none" stroke="#ff0000" stroke-width="2"/>
<path d="M381,300v 17" fill="none" stroke="#ff0000" stroke-width="2"/>
<path d="M381,300v 17" fill="none" stroke="#ff0000" stroke-width="2"/>
<path d="M382,300v 17" fill="none" stroke="#ff0000" stroke-width="2"/>
<path d="M383,300v 17" fill="none" stroke="#ff0000" stroke-width="2"/>
<path d="M384,300v 17" fill="none" stroke="#ff0000" stroke-width="2"/>
<path d="M385,300v 17" fill="none" stroke="#ff0000" stroke-width="2"/>
<path d="M386,301v 16" fill="none" stroke="#ff0000" stroke-width="2"/>
<path d="M386,301v 16" fill="none" stroke="#ff0000" stroke-width="2"/>
<path d="M387,301v 16" fill="none" stroke="#ff0000" stroke-width="2"/>
<path d="M388,301v 16" fill="none" stroke="#ff0000" stroke-width="2"/>
<path d="M389,301v 16" fill="none" stroke="#ff0000" stroke-width="2"/>
<path d="M390,301v 17" fill="none" stroke="#ff0000" stroke-width="2"/>
<path d="M390,301v 17" fill="none" stroke="#ff0000" stroke-width="2"/>
<path d="M391,301v 17" fill="none" stroke="#ff0000" stroke-width="2"/>
<path d="M392,301v 17" fill="none" stroke="#ff0000" stroke-width="2"/>
<path d="M393,301v 17" fill="none" stroke="#ff0000" stroke-width="2"/>
<path d="M394,301v 17" fill="none" stroke="#ff0000" stroke-width="2"/>
<path d="M394,301v 17" fill="none" stroke="#ff0000" stroke-width="2"/>
<path d="M395,301v 17" fill="none" stroke="#ff0000" stroke-width="2"/>
<path d="M396,301v 17" fill="none" stroke="#ff0000" stroke-width="2"/>
<path d="M397,301v 17" fill="none" stroke="#ff0000" stroke-width="2"/>
<path d="M398,302v 16" fill="none" stroke="#ff0000" stroke-width="2"/>
<path d="M399,302v 16" fill="none" stroke="#ff0000" stroke-width="2"/>
<path d="M399,302v 16" fill="none" stroke="#ff0000" stroke-width="2"/>
<path d="M400,302v 16" fill="none" stroke="#ff0000" stroke-width="2"/>
<path d="M401,302v 16" fill="none" stroke="#ff0000" stroke-width="2"/>
<path d="M402,302v 17" fill="none" stroke="#ff0000" stroke-width="2"/>
<path d="M403,302v 17" fill="none" stroke="#ff0000" stroke-width="2"/>
<path d="M403,302v 17" fill="none" stroke="#ff0000" stroke-width="2"/>
<path d="M404,302v 17" fill="none" stroke="#ff0000" stroke-width="2"/>
<path d="M405,302v 17" fill="none" stroke="#ff0000" stroke-width="2"/>
<path d="M406,302v 17" fill="none" stroke="#ff0000" stroke-width="2"/>
<path d="M407,302v 17" fill="none" stroke="#ff0000" stroke-width="2"/>
<path d="M408,302v 17" fill="none" stroke="#ff0000" stroke-width="2"/>
<path d="M408,302v 17" fill="none" stroke="#ff0000" stroke-width="2"/>
<path d="M409,302v 17" fill="none" stroke="#ff0000" stroke-width="2"/>
<path d="M410,302v 17" fill="none" stroke="#ff0000" stroke-width="2"/>
<path d="M411,302v 17" fill="none" stroke="#ff0000" stroke-width="2"/>
<path d="M412,302v 17" fill="none" stroke="#ff0000" stroke-width="2"/>
<path d="M412,302v 17" fill="none" stroke="#ff0000" stroke-width="2"/>
<path d="M413,302v 17" fill="none" stroke="#ff0000" stroke-width="2"/>
<path d="M414,302v 17" fill="none" stroke="#ff0000" stroke-width="2"/>
<path d="M415,302v 17" fill="none" stroke="#ff0000" stroke-width="2"/>
<path d="M416,302v 17" fill="none" stroke="#ff0000" stroke-width="2"/>
<path d="M416,302v 17" fill="none" stroke="#ff0000" stroke-width="2"/>
<path d="M417,302v 17" fill="none" stroke="#ff0000" stroke-width="2"/>
<path d="M418,302v 17" fill="none" stroke="#ff0000" stroke-width="2"/>
<path d="M419,302v 17" fill="none" stroke="#ff0000" stroke-width="2"/>
<path d="M420,302v 17" fill="none" stroke="#ff0000" stroke-width="2"/>
<path d="M421,303v 16" fill="none" stroke="#ff0000" stroke-width="2"/>
<path d="M421,302v 17" fill="none" stroke="#ff0000" stroke-width="2"/>
<path d="M422,302v 17" fill="none" stroke="#ff0000" stroke-width="2"/>
<path d="M423,303v 16" fill="none" stroke="#ff0000" stroke-width="2"/>
<path d="M424,303v 16" fill="none" stroke="#ff0000" stroke-width="2"/>
<path d="M425,303v 16" fill="none" stroke="#ff0000" stroke-width="2"/>
<path d="M425,303v 16" fill="none" stroke="#ff0000" stroke-width="2"/>
<path d="M426,303v 16" fill="none" stroke="#ff0000" stroke-width="2"/>
<path d="M427,303v 16" fill="none" stroke="#ff0000" stroke-width="2"/>
<path d="M428,303v 16" fill="none" stroke="#ff0000" stroke-width="2"/>
<path d="M429,303v 16" fill="none" stroke="#ff0000" stroke-width="2"/>
<path d="M430,303v 16" fill="none" stroke="#ff0000" stroke-width="2"/>
<path d="M430,303v 16" fill="none" stroke="#ff0000" stroke-width="2"/>
<path d="M431,303v 16" fill="none" stroke="#ff0000" stroke-width="2"/>
<path d="M432,303v 16" fill="none" stroke="#ff0000" stroke-width="2"/>
<path d="M433,303v 16" fill="none" stroke="#ff0000" stroke-width="2"/>
<path d="M434,303v 16" fill="none" stroke="#ff0000" stroke-width="2"/>
<path d="M434,303v 16" fill="none" stroke="#ff0000" stroke-width="2"/>
<path d="M435,303v 16" fill="none" stroke="#ff0000" stroke-width="2"/>
<path d="M436,303v 16" fill="none" stroke="#ff0000" stroke-width="2"/>
<path d="M437,303v 17" fill="none" stroke="#ff0000" stroke-width="2"/>
<path d="M438,303v 16" fill="none" stroke="#ff0000" stroke-width="2"/>
<path d="M438,303v 17" fill="none" stroke="#ff0000" stroke-width="2"/>
<path d="M439,303v 17" fill="none" stroke="#ff0000" stroke-width="2"/>
<path d="M440,303v 17" fill="none" stroke="#ff0000" stroke-width="2"/>
<path d="M441,303v 17" fill="none" stroke="#ff0000" stroke-width="2"/>
<path d="M442,303v 17" fill="none" stroke="#ff0000" stroke-width="2"/>
<path d="M443,303v 17" fill="none" stroke="#ff0000" stroke-width="2"/>
<path d="M443,303v 17" fill="none" stroke="#ff0000" stroke-width="2"/>
<path d="M444,303v 17" fill="none" stroke="#ff0000" stroke-width="2"/>
<path d="M445,303v 17" fill="none" stroke="#ff0000" stroke-width="2"/>
<path d="M446,303v 17" fill="none" stroke="#ff0000" stroke-width="2"/>
<path d="M447,303v 17" fill="none" stroke="#ff0000" stroke-width="2"/>
<path d="M447,303v 17" fill="none" stroke="#ff0000" stroke-width="2"/>
<path d="M448,303v 17" fill="none" stroke="#ff0000" stroke-width="2"/>
<path d="M449,303v 17" fill="none" stroke="#ff0000" stroke-width="2"/>
<path d="M450,303v 17" fill="none" stroke="#ff0000" stroke-width="2"/>
<path d="M451,303v 17" fill="none" stroke="#ff0000" stroke-width="2"/>
<path d="M452,303v 17" fill="none" stroke="#ff0000" stroke-width="2"/>
<path d="M452,303v 17" fill="none" stroke="#ff0000" stroke-width="2"/>
<path d="M453,303v 17" fill="none" stroke="#ff0000" stroke-width="2"/>
<path d="M454,303v 17" fill="none" stroke="#ff0000" stroke-width="2"/>
<path d="M455,303v 17" fill="none" stroke="#ff0000" stroke-width="2"/>
<path d="M456,303v 17" fill="none" stroke="#ff0000" stroke-width="2"/>
<path d="M456,303v 17" fill="none" stroke="#ff0000" stroke-width="2"/>
<path d="M457,303v 17" fill="none" stroke="#ff0000" stroke-width="2"/>
<path d="M458,303v 17" fill="none" stroke="#ff0000" stroke-width="2"/>
<path d="M459,303v 17" fill="none" stroke="#ff0000" stroke-width="2"/>
<path d="M460,303v 17" fill="none" stroke="#ff0000" stroke-width="2"/>
<path d="M460,303v 17" fill="none" stroke="#ff0000" stroke-width="2"/>
<path d="M461,303v 17" fill="none" stroke="#ff0000" stroke-width="2"/>
<path d="M462,303v 17" fill="none" stroke="#ff0000" stroke-width="2"/>
<path d="M463,303v 17" fill="none" stroke="#ff0000" stroke-width="2"/>
<path d="M464,303v 17" fill="none" stroke="#ff0000" stroke-width="2"/>
<path d="M465,303v 17" fill="none" stroke="#ff0000" stroke-width="2"/>
<path d="M465,303v 17" fill="none" stroke="#ff0000" stroke-width="2"/>
<path d="M466,303v 17" fill="none" stroke="#ff0000" stroke-width="2"/>
<path d="M467,303v 17" fill="none" stroke="#ff0000" stroke-width="2"/>
<path d="M468,303v 17" fill="none" stroke="#ff0000" stroke-width="2"/>
<path d="M469,303v 17" fill="none" stroke="#ff0000" stroke-width="2"/>
<path d="M469,303v 17" fill="none" stroke="#ff0000" stroke-width="2"/>
<path d="M470,303v 17" fill="none" stroke="#ff0000" stroke-width="2"/>
<path d="M471,303v 17" fill="none" stroke="#ff0000" stroke-width="2"/>
<path d="M472,303v 17" fill="none" stroke="#ff0000" stroke-width="2"/>
<path d="M473,303v 17" fill="none" stroke="#ff0000" stroke-width="2"/>
<path d="M473,303v 17" fill="none" stroke="#ff0000" stroke-width="2"/>
<path d="M474,303v 17" fill="none" stroke="#ff0000" stroke-width="2"/>
<path d="M475,303v 17" fill="none" stroke="#ff0000" stroke-width="2"/>
<path d="M476,303v 17" fill="none" stroke="#ff0000" stroke-width="2"/>
<path d="M477,303v 17" fill="none" stroke="#ff0000" stroke-width="2"/>
<path d="M478,303v 17" fill="none" stroke="#ff0000" stroke-width="2"/>
<path d="M478,303v 17" fill="none" stroke="#ff0000" stroke-width="2"/>
<path d="M479,303v 17" fill="none" stroke="#ff0000" stroke-width="2"/>
<path d="M480,303v 17" fill="none" stroke="#ff0000" stroke-width="2"/>
<path d="M481,303v 17" fill="none" stroke="#ff0000" stroke-width="2"/>
<path d="M482,303v 17" fill="none" stroke="#ff0000" stroke-width="2"/>
<path d="M482,303v 17" fill="none" stroke="#ff0000" stroke-width="2"/>
<path d="M483,303v 17" fill="none" stroke="#ff0000" stroke-width="2"/>
<path d="M484,303v 17" fill="none" stroke="#ff0000" stroke-width="2"/>
<path d="M485,303v 17" fill="none" stroke="#ff0000" stroke-width="2"/>
<path d="M486,303v 17" fill="none" stroke="#ff0000" stroke-width="2"/>
<path d="M487,303v 17" fill="none" stroke="#ff0000" stroke-width="2"/>
<path d="M487,303v 17" fill="none" stroke="#ff0000" stroke-width="2"/>
<path d="M488,303v 17" fill="none" stroke="#ff0000" stroke-width="2"/>
<path d="M489,303v 17" fill="none" stroke="#ff0000" stroke-width="2"/>
<path d="M490,303v 17" fill="none" stroke="#ff0000" stroke-width="2"/>
<path d="M491,303v 17" fill="none" stroke="#ff0000" stroke-width="2"/>
<path d="M491,303v 17" fill="none" stroke="#ff0000" stroke-width="2"/>
<path d="M492,303v 17" fill="none" stroke="#ff0000" stroke-width="2"/>
<path d="M493,303v 17" fill="none" stroke="#ff0000" stroke-width="2"/>
<path d="M494,303v 17" fill="none" stroke="#ff0000" stroke-width="2"/>
<path d="M495,303v 17" fill="none" stroke="#ff0000" stroke-width="2"/>
<path d="M495,303v 17" fill="none" stroke="#ff0000" stroke-width="2"/>
<path d="M496,303v 17" fill="none" stroke="#ff0000" stroke-width="2"/>
<path d="M497,303v 17" fill="none" stroke="#ff0000" stroke-width="2"/>
<path d="M498,303v 17" fill="none" stroke="#ff0000" stroke-width="2"/>
<path d="M499,303v 17" fill="none" stroke="#ff0000" stroke-width="2"/>
<path d="M500,303v 17" fill="none" stroke="#ff0000" stroke-width="2"/>
<path d="M500,303v 17" fill="none" stroke="#ff0000" stroke-width="2"/>
<path d="M501,303v 17" fill="none" stroke="#ff0000" stroke-width="2"/>
<path d="M502,303v 17" fill="none" stroke="#ff0000" stroke-width="2"/>
<path d="M503,303v 17" fill="none" stroke="#ff0000" stroke-width="2"/>
<path d="M504,303v 17" fill="none" stroke="#ff0000" stroke-width="2"/>
<path d="M504,303v 17" fill="none" stroke="#ff0000" stroke-width="2"/>
<path d="M505,303v 17" fill="none" stroke="#ff0000" stroke-width="2"/>
<path d="M506,303v 17" fill="none" stroke="#ff0000" stroke-width="2"/>
<path d="M507,303v 17" fill="none" stroke="#ff0000" stroke-width="2"/>
<path d="M508,303v 17" fill="none" stroke="#ff0000" stroke-width="2"/>
<path d="M509,303v 17" fill="none" stroke="#ff0000" stroke-width="2"/>
<path d="M509,303v 17" fill="none" stroke="#ff0000" stroke-width="2"/>
<path d="M510,303v 12" fill="none" stroke="#ff0000" stroke-width="2"/>
<path d="M284,163l 1, 10v 12l 1, 5l 1, 4l 1, 4l 1, 7v 5l 1, 2l 1, 4l 1, 3l 1, 4v 3l 1, 3l 1, 1l 1, 3l 1, 4l 1, 2v 2l 1, 1l 1, 3l 1, 3l 1, 2v 1l 1, 2l 1, 2l 1, 2l 1, 2l 1, 1v 2l 1, 2l 1, 1l 1, 2l 1, 1v 1l 1, 2l 1, 1l 1, 1l 1, 1v 2l 1, 1l 1, 1l 1, 1l
 1, 1l 1, 1v 1l 1, 1h 1l 1, 2l 1, 1l 1, 1h 1l 1, 2l 1, 1h 1v 1h 1l 1, 1l 1, 1h 1v 1l 1, 1h 3v 1l 1, 1h 1l 1, 1h 1l 1, 1h 2l 1, 1h 1v 1h 2l 1, 1h 1l 1, 1h 2l 1, 1h 4l 1, 1h 3l 1, 1h 3l 1, 1h 4l 1, 1h 13l 1, 1h 11l 1, 1h 22l 1, 1v -1h 1l 1, 1h 86l 1,
 -3" fill="none" stroke="#ff0000" stroke-width="2"/>
<rect x="351" y="25" width="205" height="169" fill="white"/>
<path d="M351,194h 205" fill="none" stroke="black"/>
<path d="M556,194v -169" fill="none" stroke="black"/>
<path d="M556,25h -205" fill="none" stroke="black"/>
<path d="M351,25v 169" fill="none" stroke="black"/>
<text x="362" y="38" fill="black" font-size="14" font-family="Helvetica">
Entries 
</text>
<text x="490" y="38" fill="black" font-size="14" font-family="Helvetica">
 475773
</text>
<text x="374" y="57" fill="black" font-size="14" font-family="Helvetica">
 / ndf 
</text>
<text x="369" y="45" fill="black" font-size="10" font-family="Helvetica">
2
</text>
<text x="362" y="57" fill="black" font-size="14" font-family="Times">
&#0967;
</text>
<text x="455" y="54" fill="black" font-size="14" font-family="Helvetica">
  1770 / 1239
</text>
<text x="382" y="67" fill="black" font-size="14" font-family="Helvetica">
   
</text>
<text x="372" y="76" fill="black" font-size="10" font-family="Helvetica">
cu
</text>
<text x="362" y="67" fill="black" font-size="14" font-family="Helvetica">
N
</text>
<text x="511" y="73" fill="black" font-size="14" font-family="Helvetica">
 31.0
</text>
<text x="499" y="73" fill="black" font-size="14" font-family="Times">
&#0177;
</text>
<text x="453" y="73" fill="black" font-size="14" font-family="Helvetica">
 115.5 
</text>
<text x="377" y="86" fill="black" font-size="14" font-family="Helvetica">
 
</text>
<text x="367" y="96" fill="black" font-size="10" font-family="Helvetica">
cu
</text>
<text x="362" y="86" fill="black" font-size="14" font-family="Times">
&#0964;
</text>
<text x="511" y="90" fill="black" font-size="14" font-family="Helvetica">
 72.7
</text>
<text x="499" y="90" fill="black" font-size="14" font-family="Times">
&#0177;
</text>
<text x="451" y="90" fill="black" font-size="14" font-family="Helvetica">
 200.1 
</text>
<text x="375" y="102" fill="black" font-size="14" font-family="Helvetica">
    
</text>
<text x="372" y="110" fill="black" font-size="10" font-family="Helvetica">
f
</text>
<text x="362" y="102" fill="black" font-size="14" font-family="Helvetica">
N
</text>
<text x="520" y="107" fill="black" font-size="14" font-family="Helvetica">
 4.3
</text>
<text x="507" y="107" fill="black" font-size="14" font-family="Times">
&#0177;
</text>
<text x="460" y="107" fill="black" font-size="14" font-family="Helvetica">
 605.8 
</text>
<text x="370" y="120" fill="black" font-size="14" font-family="Helvetica">
 
</text>
<text x="367" y="130" fill="black" font-size="10" font-family="Helvetica">
f
</text>
<text x="362" y="120" fill="black" font-size="14" font-family="Times">
&#0964;
</text>
<text x="520" y="124" fill="black" font-size="14" font-family="Helvetica">
 0.0
</text>
<text x="507" y="124" fill="black" font-size="14" font-family="Times">
&#0177;
</text>
<text x="460" y="124" fill="black" font-size="14" font-family="Helvetica">
  2197 
</text>
<text x="384" y="136" fill="black" font-size="14" font-family="Helvetica">
  
</text>
<text x="372" y="145" fill="black" font-size="10" font-family="Helvetica">
sin
</text>
<text x="362" y="136" fill="black" font-size="14" font-family="Helvetica">
N
</text>
<text x="520" y="141" fill="black" font-size="14" font-family="Helvetica">
 0.6
</text>
<text x="507" y="141" fill="black" font-size="14" font-family="Times">
&#0177;
</text>
<text x="465" y="141" fill="black" font-size="14" font-family="Helvetica">
  39.8 
</text>
<text x="367" y="158" fill="black" font-size="14" font-family="Helvetica">
     
</text>
<text x="362" y="158" fill="black" font-size="14" font-family="Times">
&#0966;
</text>
<text x="511" y="158" fill="black" font-size="14" font-family="Helvetica">
 0.36
</text>
<text x="499" y="158" fill="black" font-size="14" font-family="Times">
&#0177;
</text>
<text x="451" y="158" fill="black" font-size="14" font-family="Helvetica">
 49.38 
</text>
<text x="362" y="173" fill="black" font-size="14" font-family="Helvetica">
T        
</text>
<text x="511" y="175" fill="black" font-size="14" font-family="Helvetica">
 0.00
</text>
<text x="499" y="175" fill="black" font-size="14" font-family="Times">
&#0177;
</text>
<text x="451" y="175" fill="black" font-size="14" font-family="Helvetica">
 59.31 
</text>
<text x="377" y="186" fill="black" font-size="14" font-family="Helvetica">
    
</text>
<text x="372" y="195" fill="black" font-size="10" font-family="Helvetica">
b
</text>
<text x="362" y="186" fill="black" font-size="14" font-family="Helvetica">
N
</text>
<text x="520" y="192" fill="black" font-size="14" font-family="Helvetica">
 0.4
</text>
<text x="507" y="192" fill="black" font-size="14" font-family="Times">
&#0177;
</text>
<text x="465" y="192" fill="black" font-size="14" font-family="Helvetica">
   164 
</text>
<path d="M57,346h 453" fill="none" stroke="black"/>
<text x="419" y="372" fill="black" font-size="12" font-family="Helvetica">
TDC-TDC0 (ns)
</text>
<path d="M57,337v 9" fill="none" stroke="black"/>
<path d="M68,342v 4" fill="none" stroke="black"/>
<path d="M79,342v 4" fill="none" stroke="black"/>
<path d="M91,342v 4" fill="none" stroke="black"/>
<path d="M102,342v 4" fill="none" stroke="black"/>
<path d="M113,337v 9" fill="none" stroke="black"/>
<path d="M125,342v 4" fill="none" stroke="black"/>
<path d="M136,342v 4" fill="none" stroke="black"/>
<path d="M147,342v 4" fill="none" stroke="black"/>
<path d="M159,342v 4" fill="none" stroke="black"/>
<path d="M170,337v 9" fill="none" stroke="black"/>
<path d="M181,342v 4" fill="none" stroke="black"/>
<path d="M193,342v 4" fill="none" stroke="black"/>
<path d="M204,342v 4" fill="none" stroke="black"/>
<path d="M215,342v 4" fill="none" stroke="black"/>
<path d="M227,337v 9" fill="none" stroke="black"/>
<path d="M238,342v 4" fill="none" stroke="black"/>
<path d="M249,342v 4" fill="none" stroke="black"/>
<path d="M261,342v 4" fill="none" stroke="black"/>
<path d="M272,342v 4" fill="none" stroke="black"/>
<path d="M283,337v 9" fill="none" stroke="black"/>
<path d="M295,342v 4" fill="none" stroke="black"/>
<path d="M306,342v 4" fill="none" stroke="black"/>
<path d="M317,342v 4" fill="none" stroke="black"/>
<path d="M329,342v 4" fill="none" stroke="black"/>
<path d="M340,337v 9" fill="none" stroke="black"/>
<path d="M351,342v 4" fill="none" stroke="black"/>
<path d="M363,342v 4" fill="none" stroke="black"/>
<path d="M374,342v 4" fill="none" stroke="black"/>
<path d="M386,342v 4" fill="none" stroke="black"/>
<path d="M397,337v 9" fill="none" stroke="black"/>
<path d="M408,342v 4" fill="none" stroke="black"/>
<path d="M420,342v 4" fill="none" stroke="black"/>
<path d="M431,342v 4" fill="none" stroke="black"/>
<path d="M442,342v 4" fill="none" stroke="black"/>
<path d="M454,337v 9" fill="none" stroke="black"/>
<path d="M465,342v 4" fill="none" stroke="black"/>
<path d="M476,342v 4" fill="none" stroke="black"/>
<path d="M488,342v 4" fill="none" stroke="black"/>
<path d="M499,342v 4" fill="none" stroke="black"/>
<path d="M510,337v 9" fill="none" stroke="black"/>
<text x="36" y="359" fill="black" font-size="12" font-family="Helvetica">
-20000
</text>
<text x="93" y="359" fill="black" font-size="12" font-family="Helvetica">
-15000
</text>
<text x="149" y="359" fill="black" font-size="12" font-family="Helvetica">
-10000
</text>
<text x="210" y="359" fill="black" font-size="12" font-family="Helvetica">
-5000
</text>
<text x="280" y="359" fill="black" font-size="12" font-family="Helvetica">
0
</text>
<text x="325" y="359" fill="black" font-size="12" font-family="Helvetica">
5000
</text>
<text x="379" y="359" fill="black" font-size="12" font-family="Helvetica">
10000
</text>
<text x="435" y="359" fill="black" font-size="12" font-family="Helvetica">
15000
</text>
<text x="492" y="359" fill="black" font-size="12" font-family="Helvetica">
20000
</text>
<path d="M57,346v -308" fill="none" stroke="black"/>
<g transform="rotate(-90,29,72)">
<text x="29" y="72" fill="black" font-size="12" font-family="Helvetica">
Count
</text>
</g>
<path d="M70,346h -13" fill="none" stroke="black"/>
<path d="M63,336h -6" fill="none" stroke="black"/>
<path d="M63,325h -6" fill="none" stroke="black"/>
<path d="M63,315h -6" fill="none" stroke="black"/>
<path d="M70,304h -13" fill="none" stroke="black"/>
<path d="M63,293h -6" fill="none" stroke="black"/>
<path d="M63,283h -6" fill="none" stroke="black"/>
<path d="M63,272h -6" fill="none" stroke="black"/>
<path d="M70,262h -13" fill="none" stroke="black"/>
<path d="M63,251h -6" fill="none" stroke="black"/>
<path d="M63,240h -6" fill="none" stroke="black"/>
<path d="M63,230h -6" fill="none" stroke="black"/>
<path d="M70,219h -13" fill="none" stroke="black"/>
<path d="M63,209h -6" fill="none" stroke="black"/>
<path d="M63,198h -6" fill="none" stroke="black"/>
<path d="M63,187h -6" fill="none" stroke="black"/>
<path d="M70,177h -13" fill="none" stroke="black"/>
<path d="M63,166h -6" fill="none" stroke="black"/>
<path d="M63,155h -6" fill="none" stroke="black"/>
<path d="M63,145h -6" fill="none" stroke="black"/>
<path d="M70,134h -13" fill="none" stroke="black"/>
<path d="M63,124h -6" fill="none" stroke="black"/>
<path d="M63,113h -6" fill="none" stroke="black"/>
<path d="M63,102h -6" fill="none" stroke="black"/>
<path d="M70,92h -13" fill="none" stroke="black"/>
<path d="M63,81h -6" fill="none" stroke="black"/>
<path d="M63,71h -6" fill="none" stroke="black"/>
<path d="M63,60h -6" fill="none" stroke="black"/>
<path d="M70,49h -13" fill="none" stroke="black"/>
<path d="M70,49h -13" fill="none" stroke="black"/>
<path d="M63,39h -6" fill="none" stroke="black"/>
<text x="47" y="350" fill="black" font-size="12" font-family="Helvetica">
0
</text>
<text x="33" y="308" fill="black" font-size="12" font-family="Helvetica">
200
</text>
<text x="33" y="265" fill="black" font-size="12" font-family="Helvetica">
400
</text>
<text x="33" y="223" fill="black" font-size="12" font-family="Helvetica">
600
</text>
<text x="33" y="181" fill="black" font-size="12" font-family="Helvetica">
800
</text>
<text x="25" y="138" fill="black" font-size="12" font-family="Helvetica">
1000
</text>
<text x="25" y="96" fill="black" font-size="12" font-family="Helvetica">
1200
</text>
<text x="25" y="53" fill="black" font-size="12" font-family="Helvetica">
1400
</text>
<rect x="351" y="25" width="205" height="169" fill="white"/>
<path d="M351,194h 205" fill="none" stroke="black"/>
<path d="M556,194v -169" fill="none" stroke="black"/>
<path d="M556,25h -205" fill="none" stroke="black"/>
<path d="M351,25v 169" fill="none" stroke="black"/>
<text x="362" y="38" fill="black" font-size="14" font-family="Helvetica">
Entries 
</text>
<text x="490" y="38" fill="black" font-size="14" font-family="Helvetica">
 475773
</text>
<text x="374" y="57" fill="black" font-size="14" font-family="Helvetica">
 / ndf 
</text>
<text x="369" y="45" fill="black" font-size="10" font-family="Helvetica">
2
</text>
<text x="362" y="57" fill="black" font-size="14" font-family="Times">
&#0967;
</text>
<text x="455" y="54" fill="black" font-size="14" font-family="Helvetica">
  1770 / 1239
</text>
<text x="382" y="67" fill="black" font-size="14" font-family="Helvetica">
   
</text>
<text x="372" y="76" fill="black" font-size="10" font-family="Helvetica">
cu
</text>
<text x="362" y="67" fill="black" font-size="14" font-family="Helvetica">
N
</text>
<text x="511" y="73" fill="black" font-size="14" font-family="Helvetica">
 31.0
</text>
<text x="499" y="73" fill="black" font-size="14" font-family="Times">
&#0177;
</text>
<text x="453" y="73" fill="black" font-size="14" font-family="Helvetica">
 115.5 
</text>
<text x="377" y="86" fill="black" font-size="14" font-family="Helvetica">
 
</text>
<text x="367" y="96" fill="black" font-size="10" font-family="Helvetica">
cu
</text>
<text x="362" y="86" fill="black" font-size="14" font-family="Times">
&#0964;
</text>
<text x="511" y="90" fill="black" font-size="14" font-family="Helvetica">
 72.7
</text>
<text x="499" y="90" fill="black" font-size="14" font-family="Times">
&#0177;
</text>
<text x="451" y="90" fill="black" font-size="14" font-family="Helvetica">
 200.1 
</text>
<text x="375" y="102" fill="black" font-size="14" font-family="Helvetica">
    
</text>
<text x="372" y="110" fill="black" font-size="10" font-family="Helvetica">
f
</text>
<text x="362" y="102" fill="black" font-size="14" font-family="Helvetica">
N
</text>
<text x="520" y="107" fill="black" font-size="14" font-family="Helvetica">
 4.3
</text>
<text x="507" y="107" fill="black" font-size="14" font-family="Times">
&#0177;
</text>
<text x="460" y="107" fill="black" font-size="14" font-family="Helvetica">
 605.8 
</text>
<text x="370" y="120" fill="black" font-size="14" font-family="Helvetica">
 
</text>
<text x="367" y="130" fill="black" font-size="10" font-family="Helvetica">
f
</text>
<text x="362" y="120" fill="black" font-size="14" font-family="Times">
&#0964;
</text>
<text x="520" y="124" fill="black" font-size="14" font-family="Helvetica">
 0.0
</text>
<text x="507" y="124" fill="black" font-size="14" font-family="Times">
&#0177;
</text>
<text x="460" y="124" fill="black" font-size="14" font-family="Helvetica">
  2197 
</text>
<text x="384" y="136" fill="black" font-size="14" font-family="Helvetica">
  
</text>
<text x="372" y="145" fill="black" font-size="10" font-family="Helvetica">
sin
</text>
<text x="362" y="136" fill="black" font-size="14" font-family="Helvetica">
N
</text>
<text x="520" y="141" fill="black" font-size="14" font-family="Helvetica">
 0.6
</text>
<text x="507" y="141" fill="black" font-size="14" font-family="Times">
&#0177;
</text>
<text x="465" y="141" fill="black" font-size="14" font-family="Helvetica">
  39.8 
</text>
<text x="367" y="158" fill="black" font-size="14" font-family="Helvetica">
     
</text>
<text x="362" y="158" fill="black" font-size="14" font-family="Times">
&#0966;
</text>
<text x="511" y="158" fill="black" font-size="14" font-family="Helvetica">
 0.36
</text>
<text x="499" y="158" fill="black" font-size="14" font-family="Times">
&#0177;
</text>
<text x="451" y="158" fill="black" font-size="14" font-family="Helvetica">
 49.38 
</text>
<text x="362" y="173" fill="black" font-size="14" font-family="Helvetica">
T        
</text>
<text x="511" y="175" fill="black" font-size="14" font-family="Helvetica">
 0.00
</text>
<text x="499" y="175" fill="black" font-size="14" font-family="Times">
&#0177;
</text>
<text x="451" y="175" fill="black" font-size="14" font-family="Helvetica">
 59.31 
</text>
<text x="377" y="186" fill="black" font-size="14" font-family="Helvetica">
    
</text>
<text x="372" y="195" fill="black" font-size="10" font-family="Helvetica">
b
</text>
<text x="362" y="186" fill="black" font-size="14" font-family="Helvetica">
N
</text>
<text x="520" y="192" fill="black" font-size="14" font-family="Helvetica">
 0.4
</text>
<text x="507" y="192" fill="black" font-size="14" font-family="Times">
&#0177;
</text>
<text x="465" y="192" fill="black" font-size="14" font-family="Helvetica">
   164 
</text>
<text x="270" y="21" fill="black" font-size="21" font-family="Helvetica">
D3
</text></svg>
