<?xml version="1.0" standalone="no"?>
<svg width="567" height="385" viewBox="0 0 567 385" xmlns="http://www.w3.org/2000/svg">
<title>
images/analysis_phase_loose_f/458_D4_zoom.svg
</title>
<desc>
Creator: ROOT Version 5.34/05
CreationDate: Wed Jun 12 17:53:19 2013</desc>
<defs>
</defs>
<rect x="0" y="0" width="567" height="385" fill="white"/>
<rect x="57" y="38" width="453" height="308" fill="white"/>
<rect x="57" y="38" width="453" height="308" fill="none" stroke="black"/>
<rect x="57" y="38" width="453" height="308" fill="white"/>
<rect x="57" y="38" width="453" height="308" fill="none" stroke="black"/>
<path d="M57,316h 17v -11h 18v 9h 17v -3h 17v -4h 18v -3h 17v 25h 18v -17h 17v -12h 18v -2h 17v 2h 18v 12h 17v -30h 17v 64h 70v -213h 18v -80h 17v 14h 18v 92h 17v 46h 17v 20h 18v 2h 17v -15h 18v 34h 17" fill="none" stroke="#000099"/>
<rect x="442" y="25" width="114" height="46" fill="white"/>
<path d="M442,71h 114" fill="none" stroke="black"/>
<path d="M556,71v -46" fill="none" stroke="black"/>
<path d="M556,25h -114" fill="none" stroke="black"/>
<path d="M442,25v 46" fill="none" stroke="black"/>
<text x="447" y="52" fill="black" font-size="14" font-family="Helvetica">
Entries 
</text>
<text x="505" y="52" fill="black" font-size="14" font-family="Helvetica">
 17953
</text>
<path d="M57,346h 453" fill="none" stroke="black"/>
<text x="419" y="372" fill="black" font-size="12" font-family="Helvetica">
TDC-TDC0 (ns)
</text>
<path d="M65,337v 9" fill="none" stroke="black"/>
<path d="M76,342v 4" fill="none" stroke="black"/>
<path d="M87,342v 4" fill="none" stroke="black"/>
<path d="M98,342v 4" fill="none" stroke="black"/>
<path d="M109,342v 4" fill="none" stroke="black"/>
<path d="M120,337v 9" fill="none" stroke="black"/>
<path d="M131,342v 4" fill="none" stroke="black"/>
<path d="M142,342v 4" fill="none" stroke="black"/>
<path d="M153,342v 4" fill="none" stroke="black"/>
<path d="M164,342v 4" fill="none" stroke="black"/>
<path d="M174,337v 9" fill="none" stroke="black"/>
<path d="M185,342v 4" fill="none" stroke="black"/>
<path d="M196,342v 4" fill="none" stroke="black"/>
<path d="M207,342v 4" fill="none" stroke="black"/>
<path d="M218,342v 4" fill="none" stroke="black"/>
<path d="M229,337v 9" fill="none" stroke="black"/>
<path d="M240,342v 4" fill="none" stroke="black"/>
<path d="M251,342v 4" fill="none" stroke="black"/>
<path d="M262,342v 4" fill="none" stroke="black"/>
<path d="M273,342v 4" fill="none" stroke="black"/>
<path d="M283,337v 9" fill="none" stroke="black"/>
<path d="M294,342v 4" fill="none" stroke="black"/>
<path d="M305,342v 4" fill="none" stroke="black"/>
<path d="M316,342v 4" fill="none" stroke="black"/>
<path d="M327,342v 4" fill="none" stroke="black"/>
<path d="M338,337v 9" fill="none" stroke="black"/>
<path d="M349,342v 4" fill="none" stroke="black"/>
<path d="M360,342v 4" fill="none" stroke="black"/>
<path d="M371,342v 4" fill="none" stroke="black"/>
<path d="M382,342v 4" fill="none" stroke="black"/>
<path d="M392,337v 9" fill="none" stroke="black"/>
<path d="M403,342v 4" fill="none" stroke="black"/>
<path d="M414,342v 4" fill="none" stroke="black"/>
<path d="M425,342v 4" fill="none" stroke="black"/>
<path d="M436,342v 4" fill="none" stroke="black"/>
<path d="M447,337v 9" fill="none" stroke="black"/>
<path d="M458,342v 4" fill="none" stroke="black"/>
<path d="M469,342v 4" fill="none" stroke="black"/>
<path d="M480,342v 4" fill="none" stroke="black"/>
<path d="M491,342v 4" fill="none" stroke="black"/>
<path d="M502,337v 9" fill="none" stroke="black"/>
<path d="M65,337v 9" fill="none" stroke="black"/>
<path d="M502,337v 9" fill="none" stroke="black"/>
<text x="52" y="359" fill="black" font-size="12" font-family="Helvetica">
-200
</text>
<text x="107" y="359" fill="black" font-size="12" font-family="Helvetica">
-150
</text>
<text x="161" y="359" fill="black" font-size="12" font-family="Helvetica">
-100
</text>
<text x="219" y="359" fill="black" font-size="12" font-family="Helvetica">
-50
</text>
<text x="280" y="359" fill="black" font-size="12" font-family="Helvetica">
0
</text>
<text x="330" y="359" fill="black" font-size="12" font-family="Helvetica">
50
</text>
<text x="381" y="359" fill="black" font-size="12" font-family="Helvetica">
100
</text>
<text x="436" y="359" fill="black" font-size="12" font-family="Helvetica">
150
</text>
<text x="490" y="359" fill="black" font-size="12" font-family="Helvetica">
200
</text>
<path d="M57,346v -308" fill="none" stroke="black"/>
<g transform="rotate(-90,29,72)">
<text x="29" y="72" fill="black" font-size="12" font-family="Helvetica">
Count
</text>
</g>
<path d="M70,346h -13" fill="none" stroke="black"/>
<path d="M63,338h -6" fill="none" stroke="black"/>
<path d="M63,329h -6" fill="none" stroke="black"/>
<path d="M63,320h -6" fill="none" stroke="black"/>
<path d="M70,311h -13" fill="none" stroke="black"/>
<path d="M63,302h -6" fill="none" stroke="black"/>
<path d="M63,293h -6" fill="none" stroke="black"/>
<path d="M63,284h -6" fill="none" stroke="black"/>
<path d="M70,275h -13" fill="none" stroke="black"/>
<path d="M63,266h -6" fill="none" stroke="black"/>
<path d="M63,257h -6" fill="none" stroke="black"/>
<path d="M63,248h -6" fill="none" stroke="black"/>
<path d="M70,239h -13" fill="none" stroke="black"/>
<path d="M63,230h -6" fill="none" stroke="black"/>
<path d="M63,221h -6" fill="none" stroke="black"/>
<path d="M63,212h -6" fill="none" stroke="black"/>
<path d="M70,203h -13" fill="none" stroke="black"/>
<path d="M63,194h -6" fill="none" stroke="black"/>
<path d="M63,185h -6" fill="none" stroke="black"/>
<path d="M63,176h -6" fill="none" stroke="black"/>
<path d="M70,167h -13" fill="none" stroke="black"/>
<path d="M63,159h -6" fill="none" stroke="black"/>
<path d="M63,150h -6" fill="none" stroke="black"/>
<path d="M63,141h -6" fill="none" stroke="black"/>
<path d="M70,132h -13" fill="none" stroke="black"/>
<path d="M63,123h -6" fill="none" stroke="black"/>
<path d="M63,114h -6" fill="none" stroke="black"/>
<path d="M63,105h -6" fill="none" stroke="black"/>
<path d="M70,96h -13" fill="none" stroke="black"/>
<path d="M63,87h -6" fill="none" stroke="black"/>
<path d="M63,78h -6" fill="none" stroke="black"/>
<path d="M63,69h -6" fill="none" stroke="black"/>
<path d="M70,60h -13" fill="none" stroke="black"/>
<path d="M70,60h -13" fill="none" stroke="black"/>
<path d="M63,51h -6" fill="none" stroke="black"/>
<path d="M63,42h -6" fill="none" stroke="black"/>
<text x="47" y="350" fill="black" font-size="12" font-family="Helvetica">
0
</text>
<text x="40" y="314" fill="black" font-size="12" font-family="Helvetica">
20
</text>
<text x="40" y="278" fill="black" font-size="12" font-family="Helvetica">
40
</text>
<text x="40" y="242" fill="black" font-size="12" font-family="Helvetica">
60
</text>
<text x="40" y="207" fill="black" font-size="12" font-family="Helvetica">
80
</text>
<text x="33" y="171" fill="black" font-size="12" font-family="Helvetica">
100
</text>
<text x="33" y="136" fill="black" font-size="12" font-family="Helvetica">
120
</text>
<text x="33" y="100" fill="black" font-size="12" font-family="Helvetica">
140
</text>
<text x="33" y="64" fill="black" font-size="12" font-family="Helvetica">
160
</text>
<rect x="442" y="25" width="114" height="46" fill="white"/>
<path d="M442,71h 114" fill="none" stroke="black"/>
<path d="M556,71v -46" fill="none" stroke="black"/>
<path d="M556,25h -114" fill="none" stroke="black"/>
<path d="M442,25v 46" fill="none" stroke="black"/>
<text x="447" y="52" fill="black" font-size="14" font-family="Helvetica">
Entries 
</text>
<text x="505" y="52" fill="black" font-size="14" font-family="Helvetica">
 17953
</text>
<text x="270" y="21" fill="black" font-size="21" font-family="Helvetica">
D4
</text></svg>
