<?xml version="1.0" standalone="no"?>
<svg width="567" height="328" viewBox="0 0 567 328" xmlns="http://www.w3.org/2000/svg">
<title>
images/analysis_g4bl_sin_phase_l_bound50bin_16tight/rates/run_muon_rate_in_cu.svg
</title>
<desc>
Creator: ROOT Version 5.34/09
CreationDate: Tue Jan  7 17:15:47 2014</desc>
<defs>
</defs>
<rect x="0" y="0" width="567" height="328" fill="white"/>
<rect x="57" y="33" width="453" height="262" fill="white"/>
<rect x="57" y="33" width="453" height="262" fill="none" stroke="black"/>
<path d="M94,72v -13" fill="none" stroke="#000099"/>
<path d="M94,59v -14" fill="none" stroke="#000099"/>
<path d="M57,59h 37" fill="none" stroke="#000099"/>
<path d="M94,59h 38" fill="none" stroke="#000099"/>
<g stroke="black" stroke-width="1" fill="none">
<line x1="93" y1="59" x2="94" y2="59"/>
</g>
<path d="M170,217v -31" fill="none" stroke="#000099"/>
<path d="M170,186v -30" fill="none" stroke="#000099"/>
<path d="M132,186h 38" fill="none" stroke="#000099"/>
<path d="M170,186h 38" fill="none" stroke="#000099"/>
<g stroke="black" stroke-width="1" fill="none">
<line x1="169" y1="186" x2="170" y2="186"/>
</g>
<path d="M246,158v -15" fill="none" stroke="#000099"/>
<path d="M246,143v -14" fill="none" stroke="#000099"/>
<path d="M208,143h 38" fill="none" stroke="#000099"/>
<path d="M246,143h 37" fill="none" stroke="#000099"/>
<g stroke="black" stroke-width="1" fill="none">
<line x1="245" y1="143" x2="246" y2="143"/>
</g>
<path d="M321,165v -12" fill="none" stroke="#000099"/>
<path d="M321,153v -13" fill="none" stroke="#000099"/>
<path d="M283,153h 38" fill="none" stroke="#000099"/>
<path d="M321,153h 38" fill="none" stroke="#000099"/>
<g stroke="black" stroke-width="1" fill="none">
<line x1="320" y1="153" x2="321" y2="153"/>
</g>
<path d="M397,283v -10" fill="none" stroke="#000099"/>
<path d="M397,273v -10" fill="none" stroke="#000099"/>
<path d="M359,273h 38" fill="none" stroke="#000099"/>
<path d="M397,273h 38" fill="none" stroke="#000099"/>
<g stroke="black" stroke-width="1" fill="none">
<line x1="396" y1="273" x2="397" y2="273"/>
</g>
<path d="M472,249v -15" fill="none" stroke="#000099"/>
<path d="M472,234v -16" fill="none" stroke="#000099"/>
<path d="M435,234h 37" fill="none" stroke="#000099"/>
<path d="M472,234h 38" fill="none" stroke="#000099"/>
<g stroke="black" stroke-width="1" fill="none">
<line x1="471" y1="234" x2="472" y2="234"/>
</g>
<path d="M57,295h 453" fill="none" stroke="black"/>
<text x="466" y="317" fill="black" font-size="11" font-family="Helvetica">
Degrader
</text>
<text x="92" y="304" fill="black" font-size="7" font-family="Helvetica">
0
</text>
<text x="165" y="304" fill="black" font-size="7" font-family="Helvetica">
0.5
</text>
<text x="240" y="304" fill="black" font-size="7" font-family="Helvetica">
0.5
</text>
<text x="319" y="304" fill="black" font-size="7" font-family="Helvetica">
1
</text>
<text x="395" y="304" fill="black" font-size="7" font-family="Helvetica">
5
</text>
<text x="470" y="304" fill="black" font-size="7" font-family="Helvetica">
5
</text>
<path d="M57,287v 8" fill="none" stroke="black"/>
<path d="M132,287v 8" fill="none" stroke="black"/>
<path d="M208,287v 8" fill="none" stroke="black"/>
<path d="M283,287v 8" fill="none" stroke="black"/>
<path d="M359,287v 8" fill="none" stroke="black"/>
<path d="M435,287v 8" fill="none" stroke="black"/>
<path d="M510,287v 8" fill="none" stroke="black"/>
<path d="M57,295v -262" fill="none" stroke="black"/>
<g transform="rotate(-90,29,35)">
<text x="29" y="35" fill="black" font-size="11" font-family="Helvetica">
)
</text>
</g>
<g transform="rotate(-90,24,41)">
<text x="24" y="41" fill="black" font-size="7" font-family="Helvetica">
-1
</text>
</g>
<g transform="rotate(-90,29,108)">
<text x="29" y="108" fill="black" font-size="11" font-family="Helvetica">
Muon rate (nA
</text>
</g>
<path d="M70,278h -13" fill="none" stroke="black"/>
<path d="M63,273h -6" fill="none" stroke="black"/>
<path d="M63,267h -6" fill="none" stroke="black"/>
<path d="M63,261h -6" fill="none" stroke="black"/>
<path d="M63,256h -6" fill="none" stroke="black"/>
<path d="M70,250h -13" fill="none" stroke="black"/>
<path d="M63,244h -6" fill="none" stroke="black"/>
<path d="M63,239h -6" fill="none" stroke="black"/>
<path d="M63,233h -6" fill="none" stroke="black"/>
<path d="M63,227h -6" fill="none" stroke="black"/>
<path d="M70,222h -13" fill="none" stroke="black"/>
<path d="M63,216h -6" fill="none" stroke="black"/>
<path d="M63,210h -6" fill="none" stroke="black"/>
<path d="M63,205h -6" fill="none" stroke="black"/>
<path d="M63,199h -6" fill="none" stroke="black"/>
<path d="M70,193h -13" fill="none" stroke="black"/>
<path d="M63,188h -6" fill="none" stroke="black"/>
<path d="M63,182h -6" fill="none" stroke="black"/>
<path d="M63,176h -6" fill="none" stroke="black"/>
<path d="M63,171h -6" fill="none" stroke="black"/>
<path d="M70,165h -13" fill="none" stroke="black"/>
<path d="M63,159h -6" fill="none" stroke="black"/>
<path d="M63,154h -6" fill="none" stroke="black"/>
<path d="M63,148h -6" fill="none" stroke="black"/>
<path d="M63,142h -6" fill="none" stroke="black"/>
<path d="M70,137h -13" fill="none" stroke="black"/>
<path d="M63,131h -6" fill="none" stroke="black"/>
<path d="M63,125h -6" fill="none" stroke="black"/>
<path d="M63,120h -6" fill="none" stroke="black"/>
<path d="M63,114h -6" fill="none" stroke="black"/>
<path d="M70,108h -13" fill="none" stroke="black"/>
<path d="M63,103h -6" fill="none" stroke="black"/>
<path d="M63,97h -6" fill="none" stroke="black"/>
<path d="M63,91h -6" fill="none" stroke="black"/>
<path d="M63,86h -6" fill="none" stroke="black"/>
<path d="M70,80h -13" fill="none" stroke="black"/>
<path d="M63,74h -6" fill="none" stroke="black"/>
<path d="M63,69h -6" fill="none" stroke="black"/>
<path d="M63,63h -6" fill="none" stroke="black"/>
<path d="M63,57h -6" fill="none" stroke="black"/>
<path d="M70,52h -13" fill="none" stroke="black"/>
<path d="M70,278h -13" fill="none" stroke="black"/>
<path d="M63,284h -6" fill="none" stroke="black"/>
<path d="M63,290h -6" fill="none" stroke="black"/>
<path d="M70,52h -13" fill="none" stroke="black"/>
<path d="M63,46h -6" fill="none" stroke="black"/>
<path d="M63,40h -6" fill="none" stroke="black"/>
<path d="M63,35h -6" fill="none" stroke="black"/>
<text x="36" y="282" fill="black" font-size="11" font-family="Helvetica">
170
</text>
<text x="36" y="254" fill="black" font-size="11" font-family="Helvetica">
180
</text>
<text x="36" y="225" fill="black" font-size="11" font-family="Helvetica">
190
</text>
<text x="36" y="197" fill="black" font-size="11" font-family="Helvetica">
200
</text>
<text x="36" y="169" fill="black" font-size="11" font-family="Helvetica">
210
</text>
<text x="36" y="140" fill="black" font-size="11" font-family="Helvetica">
220
</text>
<text x="36" y="112" fill="black" font-size="11" font-family="Helvetica">
230
</text>
<text x="36" y="84" fill="black" font-size="11" font-family="Helvetica">
240
</text>
<text x="36" y="55" fill="black" font-size="11" font-family="Helvetica">
250
</text>
<text x="179" y="16" fill="black" font-size="16" font-family="Helvetica">
Rate of muons decaying in cu
</text>
<rect x="442" y="22" width="114" height="39" fill="white"/>
<path d="M442,61h 114" fill="none" stroke="black"/>
<path d="M556,61v -39" fill="none" stroke="black"/>
<path d="M556,22h -114" fill="none" stroke="black"/>
<path d="M442,22v 39" fill="none" stroke="black"/>
<text x="448" y="47" fill="black" font-size="16" font-family="Helvetica">
Entries 
</text>
<text x="536" y="47" fill="black" font-size="16" font-family="Helvetica">
 6
</text>
<text x="179" y="16" fill="black" font-size="16" font-family="Helvetica">
Rate of muons decaying in cu
</text></svg>
