<?xml version="1.0" standalone="no"?>
<svg width="567" height="328" viewBox="0 0 567 328" xmlns="http://www.w3.org/2000/svg">
<title>
images/analysis_g4bl_sin_phase_loose_f/counts/sim_muon_rate_in_f.svg
</title>
<desc>
Creator: ROOT Version 5.34/09
CreationDate: Mon Sep  9 14:43:35 2013</desc>
<defs>
</defs>
<rect x="0" y="0" width="567" height="328" fill="white"/>
<rect x="57" y="33" width="453" height="262" fill="white"/>
<rect x="57" y="33" width="453" height="262" fill="none" stroke="black"/>
<path d="M113,53v -4" fill="none" stroke="#000099"/>
<path d="M113,49v -4" fill="none" stroke="#000099"/>
<path d="M57,49h 56" fill="none" stroke="#000099"/>
<path d="M113,49h 57" fill="none" stroke="#000099"/>
<g stroke="black" stroke-width="1" fill="none">
<line x1="112" y1="49" x2="113" y2="49"/>
</g>
<path d="M227,118v -8" fill="none" stroke="#000099"/>
<path d="M227,110v -8" fill="none" stroke="#000099"/>
<path d="M170,110h 57" fill="none" stroke="#000099"/>
<path d="M227,110h 56" fill="none" stroke="#000099"/>
<g stroke="black" stroke-width="1" fill="none">
<line x1="226" y1="110" x2="227" y2="110"/>
</g>
<path d="M340,146v -8" fill="none" stroke="#000099"/>
<path d="M340,138v -8" fill="none" stroke="#000099"/>
<path d="M283,138h 57" fill="none" stroke="#000099"/>
<path d="M340,138h 57" fill="none" stroke="#000099"/>
<g stroke="black" stroke-width="1" fill="none">
<line x1="339" y1="138" x2="340" y2="138"/>
</g>
<path d="M454,283v -9" fill="none" stroke="#000099"/>
<path d="M454,274v -9" fill="none" stroke="#000099"/>
<path d="M397,274h 57" fill="none" stroke="#000099"/>
<path d="M454,274h 56" fill="none" stroke="#000099"/>
<g stroke="black" stroke-width="1" fill="none">
<line x1="453" y1="274" x2="454" y2="274"/>
</g>
<path d="M57,295h 453" fill="none" stroke="black"/>
<text x="466" y="317" fill="black" font-size="11" font-family="Helvetica">
Degrader
</text>
<text x="111" y="304" fill="black" font-size="7" font-family="Helvetica">
0
</text>
<text x="221" y="304" fill="black" font-size="7" font-family="Helvetica">
0.5
</text>
<text x="338" y="304" fill="black" font-size="7" font-family="Helvetica">
1
</text>
<text x="451" y="304" fill="black" font-size="7" font-family="Helvetica">
5
</text>
<path d="M57,287v 8" fill="none" stroke="black"/>
<path d="M170,287v 8" fill="none" stroke="black"/>
<path d="M283,287v 8" fill="none" stroke="black"/>
<path d="M397,287v 8" fill="none" stroke="black"/>
<path d="M510,287v 8" fill="none" stroke="black"/>
<path d="M57,295v -262" fill="none" stroke="black"/>
<g transform="rotate(-90,29,88)">
<text x="29" y="88" fill="black" font-size="11" font-family="Helvetica">
Muon count
</text>
</g>
<path d="M70,284h -13" fill="none" stroke="black"/>
<path d="M63,275h -6" fill="none" stroke="black"/>
<path d="M63,265h -6" fill="none" stroke="black"/>
<path d="M63,256h -6" fill="none" stroke="black"/>
<path d="M63,246h -6" fill="none" stroke="black"/>
<path d="M70,237h -13" fill="none" stroke="black"/>
<path d="M63,227h -6" fill="none" stroke="black"/>
<path d="M63,218h -6" fill="none" stroke="black"/>
<path d="M63,208h -6" fill="none" stroke="black"/>
<path d="M63,199h -6" fill="none" stroke="black"/>
<path d="M70,190h -13" fill="none" stroke="black"/>
<path d="M63,180h -6" fill="none" stroke="black"/>
<path d="M63,171h -6" fill="none" stroke="black"/>
<path d="M63,161h -6" fill="none" stroke="black"/>
<path d="M63,152h -6" fill="none" stroke="black"/>
<path d="M70,142h -13" fill="none" stroke="black"/>
<path d="M63,133h -6" fill="none" stroke="black"/>
<path d="M63,123h -6" fill="none" stroke="black"/>
<path d="M63,114h -6" fill="none" stroke="black"/>
<path d="M63,104h -6" fill="none" stroke="black"/>
<path d="M70,95h -13" fill="none" stroke="black"/>
<path d="M63,86h -6" fill="none" stroke="black"/>
<path d="M63,76h -6" fill="none" stroke="black"/>
<path d="M63,67h -6" fill="none" stroke="black"/>
<path d="M63,57h -6" fill="none" stroke="black"/>
<path d="M70,48h -13" fill="none" stroke="black"/>
<path d="M70,284h -13" fill="none" stroke="black"/>
<path d="M63,294h -6" fill="none" stroke="black"/>
<path d="M70,48h -13" fill="none" stroke="black"/>
<path d="M63,38h -6" fill="none" stroke="black"/>
<text x="30" y="288" fill="black" font-size="11" font-family="Helvetica">
3000
</text>
<text x="30" y="241" fill="black" font-size="11" font-family="Helvetica">
3500
</text>
<text x="30" y="193" fill="black" font-size="11" font-family="Helvetica">
4000
</text>
<text x="30" y="146" fill="black" font-size="11" font-family="Helvetica">
4500
</text>
<text x="30" y="99" fill="black" font-size="11" font-family="Helvetica">
5000
</text>
<text x="30" y="52" fill="black" font-size="11" font-family="Helvetica">
5500
</text>
<text x="145" y="16" fill="black" font-size="16" font-family="Helvetica">
Simulated count of muons decaying in f
</text>
<rect x="442" y="22" width="114" height="39" fill="white"/>
<path d="M442,61h 114" fill="none" stroke="black"/>
<path d="M556,61v -39" fill="none" stroke="black"/>
<path d="M556,22h -114" fill="none" stroke="black"/>
<path d="M442,22v 39" fill="none" stroke="black"/>
<text x="448" y="47" fill="black" font-size="16" font-family="Helvetica">
Entries 
</text>
<text x="536" y="47" fill="black" font-size="16" font-family="Helvetica">
 4
</text>
<text x="145" y="16" fill="black" font-size="16" font-family="Helvetica">
Simulated count of muons decaying in f
</text></svg>
