<?xml version="1.0" standalone="no"?>
<svg width="567" height="328" viewBox="0 0 567 328" xmlns="http://www.w3.org/2000/svg">
<title>
images/analysis_g4bl_phase_loose_cu/run_muon_rate_in_f.svg
</title>
<desc>
Creator: ROOT Version 5.34/05
CreationDate: Wed Jun 12 17:30:52 2013</desc>
<defs>
</defs>
<rect x="0" y="0" width="567" height="328" fill="white"/>
<rect x="57" y="33" width="453" height="262" fill="white"/>
<rect x="57" y="33" width="453" height="262" fill="none" stroke="black"/>
<path d="M94,47v -1" fill="none" stroke="#000099"/>
<path d="M94,46v -1" fill="none" stroke="#000099"/>
<path d="M57,46h 37" fill="none" stroke="#000099"/>
<path d="M94,46h 38" fill="none" stroke="#000099"/>
<g stroke="black" stroke-width="1" fill="none">
<line x1="93" y1="46" x2="94" y2="46"/>
</g>
<path d="M170,280v -114" fill="none" stroke="#000099"/>
<path d="M170,166v -114" fill="none" stroke="#000099"/>
<path d="M132,166h 38" fill="none" stroke="#000099"/>
<path d="M170,166h 38" fill="none" stroke="#000099"/>
<g stroke="black" stroke-width="1" fill="none">
<line x1="169" y1="166" x2="170" y2="166"/>
</g>
<path d="M246,172v -1" fill="none" stroke="#000099"/>
<path d="M246,171v -1" fill="none" stroke="#000099"/>
<path d="M208,171h 38" fill="none" stroke="#000099"/>
<path d="M246,171h 37" fill="none" stroke="#000099"/>
<g stroke="black" stroke-width="1" fill="none">
<line x1="245" y1="171" x2="246" y2="171"/>
</g>
<path d="M321,193v -1" fill="none" stroke="#000099"/>
<path d="M321,192v -1" fill="none" stroke="#000099"/>
<path d="M283,192h 38" fill="none" stroke="#000099"/>
<path d="M321,192h 38" fill="none" stroke="#000099"/>
<g stroke="black" stroke-width="1" fill="none">
<line x1="320" y1="192" x2="321" y2="192"/>
</g>
<path d="M397,283" fill="none" stroke="#000099"/>
<path d="M397,283v -1" fill="none" stroke="#000099"/>
<path d="M359,283h 38" fill="none" stroke="#000099"/>
<path d="M397,283h 38" fill="none" stroke="#000099"/>
<g stroke="black" stroke-width="1" fill="none">
<line x1="396" y1="283" x2="397" y2="283"/>
</g>
<path d="M472,280v -1" fill="none" stroke="#000099"/>
<path d="M472,279v -1" fill="none" stroke="#000099"/>
<path d="M435,279h 37" fill="none" stroke="#000099"/>
<path d="M472,279h 38" fill="none" stroke="#000099"/>
<g stroke="black" stroke-width="1" fill="none">
<line x1="471" y1="279" x2="472" y2="279"/>
</g>
<path d="M57,295h 453" fill="none" stroke="black"/>
<text x="462" y="317" fill="black" font-size="11" font-family="Helvetica">
Degrader
</text>
<text x="92" y="305" fill="black" font-size="7" font-family="Helvetica">
0
</text>
<text x="165" y="305" fill="black" font-size="7" font-family="Helvetica">
0.5
</text>
<text x="240" y="305" fill="black" font-size="7" font-family="Helvetica">
0.5
</text>
<text x="319" y="305" fill="black" font-size="7" font-family="Helvetica">
1
</text>
<text x="395" y="305" fill="black" font-size="7" font-family="Helvetica">
5
</text>
<text x="470" y="305" fill="black" font-size="7" font-family="Helvetica">
5
</text>
<path d="M57,287v 8" fill="none" stroke="black"/>
<path d="M132,287v 8" fill="none" stroke="black"/>
<path d="M208,287v 8" fill="none" stroke="black"/>
<path d="M283,287v 8" fill="none" stroke="black"/>
<path d="M359,287v 8" fill="none" stroke="black"/>
<path d="M435,287v 8" fill="none" stroke="black"/>
<path d="M510,287v 8" fill="none" stroke="black"/>
<path d="M57,295v -262" fill="none" stroke="black"/>
<g transform="rotate(-90,28,122)">
<text x="28" y="122" fill="black" font-size="11" font-family="Helvetica">
Muons per proton
</text>
</g>
<path d="M70,265h -13" fill="none" stroke="black"/>
<path d="M63,258h -6" fill="none" stroke="black"/>
<path d="M63,250h -6" fill="none" stroke="black"/>
<path d="M63,243h -6" fill="none" stroke="black"/>
<path d="M63,235h -6" fill="none" stroke="black"/>
<path d="M70,228h -13" fill="none" stroke="black"/>
<path d="M63,221h -6" fill="none" stroke="black"/>
<path d="M63,213h -6" fill="none" stroke="black"/>
<path d="M63,206h -6" fill="none" stroke="black"/>
<path d="M63,198h -6" fill="none" stroke="black"/>
<path d="M70,191h -13" fill="none" stroke="black"/>
<path d="M63,183h -6" fill="none" stroke="black"/>
<path d="M63,176h -6" fill="none" stroke="black"/>
<path d="M63,169h -6" fill="none" stroke="black"/>
<path d="M63,161h -6" fill="none" stroke="black"/>
<path d="M70,154h -13" fill="none" stroke="black"/>
<path d="M63,146h -6" fill="none" stroke="black"/>
<path d="M63,139h -6" fill="none" stroke="black"/>
<path d="M63,132h -6" fill="none" stroke="black"/>
<path d="M63,124h -6" fill="none" stroke="black"/>
<path d="M70,117h -13" fill="none" stroke="black"/>
<path d="M63,109h -6" fill="none" stroke="black"/>
<path d="M63,102h -6" fill="none" stroke="black"/>
<path d="M63,94h -6" fill="none" stroke="black"/>
<path d="M63,87h -6" fill="none" stroke="black"/>
<path d="M70,80h -13" fill="none" stroke="black"/>
<path d="M63,72h -6" fill="none" stroke="black"/>
<path d="M63,65h -6" fill="none" stroke="black"/>
<path d="M63,57h -6" fill="none" stroke="black"/>
<path d="M63,50h -6" fill="none" stroke="black"/>
<path d="M70,43h -13" fill="none" stroke="black"/>
<path d="M70,265h -13" fill="none" stroke="black"/>
<path d="M63,272h -6" fill="none" stroke="black"/>
<path d="M63,280h -6" fill="none" stroke="black"/>
<path d="M63,287h -6" fill="none" stroke="black"/>
<path d="M63,295h -6" fill="none" stroke="black"/>
<path d="M70,43h -13" fill="none" stroke="black"/>
<path d="M63,35h -6" fill="none" stroke="black"/>
<text x="38" y="268" fill="black" font-size="11" font-family="Helvetica">
0.5
</text>
<text x="38" y="231" fill="black" font-size="11" font-family="Helvetica">
0.6
</text>
<text x="38" y="194" fill="black" font-size="11" font-family="Helvetica">
0.7
</text>
<text x="38" y="157" fill="black" font-size="11" font-family="Helvetica">
0.8
</text>
<text x="38" y="120" fill="black" font-size="11" font-family="Helvetica">
0.9
</text>
<text x="48" y="83" fill="black" font-size="11" font-family="Helvetica">
1
</text>
<text x="38" y="46" fill="black" font-size="11" font-family="Helvetica">
1.1
</text>
<text x="76" y="22" fill="black" font-size="7" font-family="Helvetica">
-6
</text>
<text x="64" y="31" fill="black" font-size="11" font-family="Helvetica">
10
</text>
<text x="57" y="31" fill="black" font-size="11" font-family="Times">
&#0215;
</text>
<text x="171" y="17" fill="black" font-size="17" font-family="Helvetica">
Rate of muons decaying in f
</text>
<rect x="442" y="21" width="114" height="40" fill="white"/>
<path d="M442,61h 114" fill="none" stroke="black"/>
<path d="M556,61v -40" fill="none" stroke="black"/>
<path d="M556,21h -114" fill="none" stroke="black"/>
<path d="M442,21v 40" fill="none" stroke="black"/>
<text x="448" y="46" fill="black" font-size="17" font-family="Helvetica">
Entries 
</text>
<text x="535" y="46" fill="black" font-size="17" font-family="Helvetica">
 6
</text>
<text x="171" y="17" fill="black" font-size="17" font-family="Helvetica">
Rate of muons decaying in f
</text></svg>
