<?xml version="1.0" standalone="no"?>
<svg width="567" height="328" viewBox="0 0 567 328" xmlns="http://www.w3.org/2000/svg">
<title>
images/analysis_g4bl_sin_phase_loose_f_cu/rates/sim_muon_rate_in_f.svg
</title>
<desc>
Creator: ROOT Version 5.34/09
CreationDate: Sun Sep  8 18:21:54 2013</desc>
<defs>
</defs>
<rect x="0" y="0" width="567" height="328" fill="white"/>
<rect x="57" y="33" width="453" height="262" fill="white"/>
<rect x="57" y="33" width="453" height="262" fill="none" stroke="black"/>
<path d="M113,201v -78" fill="none" stroke="#000099"/>
<path d="M113,123v -78" fill="none" stroke="#000099"/>
<path d="M57,123h 56" fill="none" stroke="#000099"/>
<path d="M113,123h 57" fill="none" stroke="#000099"/>
<g stroke="black" stroke-width="1" fill="none">
<line x1="112" y1="123" x2="113" y2="123"/>
</g>
<path d="M227,283v -22" fill="none" stroke="#000099"/>
<path d="M227,261v -23" fill="none" stroke="#000099"/>
<path d="M170,261h 57" fill="none" stroke="#000099"/>
<path d="M227,261h 56" fill="none" stroke="#000099"/>
<g stroke="black" stroke-width="1" fill="none">
<line x1="226" y1="261" x2="227" y2="261"/>
</g>
<path d="M340,142v -1" fill="none" stroke="#000099"/>
<path d="M340,141v -1" fill="none" stroke="#000099"/>
<path d="M283,141h 57" fill="none" stroke="#000099"/>
<path d="M340,141h 57" fill="none" stroke="#000099"/>
<g stroke="black" stroke-width="1" fill="none">
<line x1="339" y1="141" x2="340" y2="141"/>
</g>
<path d="M454,183v -2" fill="none" stroke="#000099"/>
<path d="M454,181v -3" fill="none" stroke="#000099"/>
<path d="M397,181h 57" fill="none" stroke="#000099"/>
<path d="M454,181h 56" fill="none" stroke="#000099"/>
<g stroke="black" stroke-width="1" fill="none">
<line x1="453" y1="181" x2="454" y2="181"/>
</g>
<path d="M57,295h 453" fill="none" stroke="black"/>
<text x="466" y="317" fill="black" font-size="11" font-family="Helvetica">
Degrader
</text>
<text x="111" y="304" fill="black" font-size="7" font-family="Helvetica">
0
</text>
<text x="221" y="304" fill="black" font-size="7" font-family="Helvetica">
0.5
</text>
<text x="338" y="304" fill="black" font-size="7" font-family="Helvetica">
1
</text>
<text x="451" y="304" fill="black" font-size="7" font-family="Helvetica">
5
</text>
<path d="M57,287v 8" fill="none" stroke="black"/>
<path d="M170,287v 8" fill="none" stroke="black"/>
<path d="M283,287v 8" fill="none" stroke="black"/>
<path d="M397,287v 8" fill="none" stroke="black"/>
<path d="M510,287v 8" fill="none" stroke="black"/>
<path d="M57,295v -262" fill="none" stroke="black"/>
<g transform="rotate(-90,28,116)">
<text x="28" y="116" fill="black" font-size="11" font-family="Helvetica">
Muons per proton
</text>
</g>
<path d="M70,265h -13" fill="none" stroke="black"/>
<path d="M63,253h -6" fill="none" stroke="black"/>
<path d="M63,241h -6" fill="none" stroke="black"/>
<path d="M63,229h -6" fill="none" stroke="black"/>
<path d="M70,216h -13" fill="none" stroke="black"/>
<path d="M63,204h -6" fill="none" stroke="black"/>
<path d="M63,192h -6" fill="none" stroke="black"/>
<path d="M63,179h -6" fill="none" stroke="black"/>
<path d="M70,167h -13" fill="none" stroke="black"/>
<path d="M63,155h -6" fill="none" stroke="black"/>
<path d="M63,142h -6" fill="none" stroke="black"/>
<path d="M63,130h -6" fill="none" stroke="black"/>
<path d="M70,118h -13" fill="none" stroke="black"/>
<path d="M63,105h -6" fill="none" stroke="black"/>
<path d="M63,93h -6" fill="none" stroke="black"/>
<path d="M63,81h -6" fill="none" stroke="black"/>
<path d="M70,68h -13" fill="none" stroke="black"/>
<path d="M70,265h -13" fill="none" stroke="black"/>
<path d="M63,278h -6" fill="none" stroke="black"/>
<path d="M63,290h -6" fill="none" stroke="black"/>
<path d="M70,68h -13" fill="none" stroke="black"/>
<path d="M63,56h -6" fill="none" stroke="black"/>
<path d="M63,44h -6" fill="none" stroke="black"/>
<text x="48" y="269" fill="black" font-size="11" font-family="Helvetica">
0
</text>
<text x="39" y="220" fill="black" font-size="11" font-family="Helvetica">
0.2
</text>
<text x="39" y="171" fill="black" font-size="11" font-family="Helvetica">
0.4
</text>
<text x="39" y="121" fill="black" font-size="11" font-family="Helvetica">
0.6
</text>
<text x="39" y="72" fill="black" font-size="11" font-family="Helvetica">
0.8
</text>
<text x="74" y="26" fill="black" font-size="7" font-family="Helvetica">
-3
</text>
<text x="63" y="31" fill="black" font-size="11" font-family="Helvetica">
10
</text>
<text x="57" y="31" fill="black" font-size="11" font-family="Times">
&#0215;
</text>
<text x="151" y="16" fill="black" font-size="16" font-family="Helvetica">
Simulated rate of muons decaying in f
</text>
<rect x="442" y="22" width="114" height="39" fill="white"/>
<path d="M442,61h 114" fill="none" stroke="black"/>
<path d="M556,61v -39" fill="none" stroke="black"/>
<path d="M556,22h -114" fill="none" stroke="black"/>
<path d="M442,22v 39" fill="none" stroke="black"/>
<text x="448" y="47" fill="black" font-size="16" font-family="Helvetica">
Entries 
</text>
<text x="536" y="47" fill="black" font-size="16" font-family="Helvetica">
 4
</text>
<text x="151" y="16" fill="black" font-size="16" font-family="Helvetica">
Simulated rate of muons decaying in f
</text></svg>
