<?xml version="1.0" standalone="no"?>
<svg width="567" height="328" viewBox="0 0 567 328" xmlns="http://www.w3.org/2000/svg">
<title>
images/analysis_g4bl_sin_phase_loose_cu/rates/run_muon_rate_in_cu.svg
</title>
<desc>
Creator: ROOT Version 5.34/09
CreationDate: Mon Sep  9 14:52:32 2013</desc>
<defs>
</defs>
<rect x="0" y="0" width="567" height="328" fill="white"/>
<rect x="57" y="33" width="453" height="262" fill="white"/>
<rect x="57" y="33" width="453" height="262" fill="none" stroke="black"/>
<path d="M94,283v -119" fill="none" stroke="#000099"/>
<path d="M94,164v -119" fill="none" stroke="#000099"/>
<path d="M57,164h 37" fill="none" stroke="#000099"/>
<path d="M94,164h 38" fill="none" stroke="#000099"/>
<g stroke="black" stroke-width="1" fill="none">
<line x1="93" y1="164" x2="94" y2="164"/>
</g>
<path d="M170,165v -1" fill="none" stroke="#000099"/>
<path d="M170,164v -1" fill="none" stroke="#000099"/>
<path d="M132,164h 38" fill="none" stroke="#000099"/>
<path d="M170,164h 38" fill="none" stroke="#000099"/>
<g stroke="black" stroke-width="1" fill="none">
<line x1="169" y1="164" x2="170" y2="164"/>
</g>
<path d="M246,184v -20" fill="none" stroke="#000099"/>
<path d="M246,164v -19" fill="none" stroke="#000099"/>
<path d="M208,164h 38" fill="none" stroke="#000099"/>
<path d="M246,164h 37" fill="none" stroke="#000099"/>
<g stroke="black" stroke-width="1" fill="none">
<line x1="245" y1="164" x2="246" y2="164"/>
</g>
<path d="M321,165v -1" fill="none" stroke="#000099"/>
<path d="M321,164" fill="none" stroke="#000099"/>
<path d="M283,164h 38" fill="none" stroke="#000099"/>
<path d="M321,164h 38" fill="none" stroke="#000099"/>
<g stroke="black" stroke-width="1" fill="none">
<line x1="320" y1="164" x2="321" y2="164"/>
</g>
<path d="M397,164" fill="none" stroke="#000099"/>
<path d="M397,164" fill="none" stroke="#000099"/>
<path d="M359,164h 38" fill="none" stroke="#000099"/>
<path d="M397,164h 38" fill="none" stroke="#000099"/>
<g stroke="black" stroke-width="1" fill="none">
<line x1="396" y1="164" x2="397" y2="164"/>
</g>
<path d="M472,165v -1" fill="none" stroke="#000099"/>
<path d="M472,164" fill="none" stroke="#000099"/>
<path d="M435,164h 37" fill="none" stroke="#000099"/>
<path d="M472,164h 38" fill="none" stroke="#000099"/>
<g stroke="black" stroke-width="1" fill="none">
<line x1="471" y1="164" x2="472" y2="164"/>
</g>
<path d="M57,295h 453" fill="none" stroke="black"/>
<text x="466" y="317" fill="black" font-size="11" font-family="Helvetica">
Degrader
</text>
<text x="92" y="304" fill="black" font-size="7" font-family="Helvetica">
0
</text>
<text x="165" y="304" fill="black" font-size="7" font-family="Helvetica">
0.5
</text>
<text x="240" y="304" fill="black" font-size="7" font-family="Helvetica">
0.5
</text>
<text x="319" y="304" fill="black" font-size="7" font-family="Helvetica">
1
</text>
<text x="395" y="304" fill="black" font-size="7" font-family="Helvetica">
5
</text>
<text x="470" y="304" fill="black" font-size="7" font-family="Helvetica">
5
</text>
<path d="M57,287v 8" fill="none" stroke="black"/>
<path d="M132,287v 8" fill="none" stroke="black"/>
<path d="M208,287v 8" fill="none" stroke="black"/>
<path d="M283,287v 8" fill="none" stroke="black"/>
<path d="M359,287v 8" fill="none" stroke="black"/>
<path d="M435,287v 8" fill="none" stroke="black"/>
<path d="M510,287v 8" fill="none" stroke="black"/>
<path d="M57,295v -262" fill="none" stroke="black"/>
<g transform="rotate(-90,28,116)">
<text x="28" y="116" fill="black" font-size="11" font-family="Helvetica">
Muons per proton
</text>
</g>
<path d="M70,293h -13" fill="none" stroke="black"/>
<path d="M63,287h -6" fill="none" stroke="black"/>
<path d="M63,280h -6" fill="none" stroke="black"/>
<path d="M63,274h -6" fill="none" stroke="black"/>
<path d="M63,268h -6" fill="none" stroke="black"/>
<path d="M70,261h -13" fill="none" stroke="black"/>
<path d="M63,255h -6" fill="none" stroke="black"/>
<path d="M63,249h -6" fill="none" stroke="black"/>
<path d="M63,242h -6" fill="none" stroke="black"/>
<path d="M63,236h -6" fill="none" stroke="black"/>
<path d="M70,230h -13" fill="none" stroke="black"/>
<path d="M63,223h -6" fill="none" stroke="black"/>
<path d="M63,217h -6" fill="none" stroke="black"/>
<path d="M63,211h -6" fill="none" stroke="black"/>
<path d="M63,204h -6" fill="none" stroke="black"/>
<path d="M70,198h -13" fill="none" stroke="black"/>
<path d="M63,192h -6" fill="none" stroke="black"/>
<path d="M63,185h -6" fill="none" stroke="black"/>
<path d="M63,179h -6" fill="none" stroke="black"/>
<path d="M63,172h -6" fill="none" stroke="black"/>
<path d="M70,166h -13" fill="none" stroke="black"/>
<path d="M63,160h -6" fill="none" stroke="black"/>
<path d="M63,153h -6" fill="none" stroke="black"/>
<path d="M63,147h -6" fill="none" stroke="black"/>
<path d="M63,141h -6" fill="none" stroke="black"/>
<path d="M70,134h -13" fill="none" stroke="black"/>
<path d="M63,128h -6" fill="none" stroke="black"/>
<path d="M63,122h -6" fill="none" stroke="black"/>
<path d="M63,115h -6" fill="none" stroke="black"/>
<path d="M63,109h -6" fill="none" stroke="black"/>
<path d="M70,103h -13" fill="none" stroke="black"/>
<path d="M63,96h -6" fill="none" stroke="black"/>
<path d="M63,90h -6" fill="none" stroke="black"/>
<path d="M63,84h -6" fill="none" stroke="black"/>
<path d="M63,77h -6" fill="none" stroke="black"/>
<path d="M70,71h -13" fill="none" stroke="black"/>
<path d="M63,64h -6" fill="none" stroke="black"/>
<path d="M63,58h -6" fill="none" stroke="black"/>
<path d="M63,52h -6" fill="none" stroke="black"/>
<path d="M63,45h -6" fill="none" stroke="black"/>
<path d="M70,39h -13" fill="none" stroke="black"/>
<path d="M70,293h -13" fill="none" stroke="black"/>
<path d="M70,39h -13" fill="none" stroke="black"/>
<text x="44" y="297" fill="black" font-size="11" font-family="Helvetica">
-4
</text>
<text x="45" y="265" fill="black" font-size="11" font-family="Helvetica">
-3
</text>
<text x="45" y="234" fill="black" font-size="11" font-family="Helvetica">
-2
</text>
<text x="46" y="202" fill="black" font-size="11" font-family="Helvetica">
-1
</text>
<text x="48" y="170" fill="black" font-size="11" font-family="Helvetica">
0
</text>
<text x="50" y="138" fill="black" font-size="11" font-family="Helvetica">
1
</text>
<text x="48" y="107" fill="black" font-size="11" font-family="Helvetica">
2
</text>
<text x="48" y="75" fill="black" font-size="11" font-family="Helvetica">
3
</text>
<text x="48" y="43" fill="black" font-size="11" font-family="Helvetica">
4
</text>
<text x="74" y="26" fill="black" font-size="7" font-family="Helvetica">
-6
</text>
<text x="63" y="31" fill="black" font-size="11" font-family="Helvetica">
10
</text>
<text x="57" y="31" fill="black" font-size="11" font-family="Times">
&#0215;
</text>
<text x="179" y="16" fill="black" font-size="16" font-family="Helvetica">
Rate of muons decaying in cu
</text>
<rect x="442" y="22" width="114" height="39" fill="white"/>
<path d="M442,61h 114" fill="none" stroke="black"/>
<path d="M556,61v -39" fill="none" stroke="black"/>
<path d="M556,22h -114" fill="none" stroke="black"/>
<path d="M442,22v 39" fill="none" stroke="black"/>
<text x="448" y="47" fill="black" font-size="16" font-family="Helvetica">
Entries 
</text>
<text x="536" y="47" fill="black" font-size="16" font-family="Helvetica">
 6
</text>
<text x="179" y="16" fill="black" font-size="16" font-family="Helvetica">
Rate of muons decaying in cu
</text></svg>
