<?xml version="1.0" standalone="no"?>
<svg width="567" height="385" viewBox="0 0 567 385" xmlns="http://www.w3.org/2000/svg">
<title>
images/analysis_g4bl_loose_f/448_D4.svg
</title>
<desc>
Creator: ROOT Version 5.34/05
CreationDate: Wed Jun 12 17:55:27 2013</desc>
<defs>
</defs>
<rect x="0" y="0" width="567" height="385" fill="white"/>
<rect x="57" y="38" width="453" height="308" fill="white"/>
<rect x="57" y="38" width="453" height="308" fill="none" stroke="black"/>
<rect x="57" y="38" width="453" height="308" fill="white"/>
<rect x="57" y="38" width="453" height="308" fill="none" stroke="black"/>
<path d="M57,346h 46v -2v 1h 1v -14v 3v -4h 1v 1v -5v 5v -4h 1v 7v -9v 11v -1h 1v -11v 8v -8v 3h 1v 5v -6v 11h 1v -16v 7v -2v 3h 1v -2v 3v -9v 13v -4h 1v -6v 10v -15h 1v 13v -4v 4h 1v -8v 9v -10h 1v 8v -7v 5h 1v -9v 13v -13h 1v 11v -7v 10h 1v 1v -6v
 6v -14h 1v 11v -7v 6v -1v 4h 1v -8v 8v -15h 1v 16v -14v 9h 1v -8v 12v -12h 1v 12v -6v 2v -6v 6h 1v -8v 13v -13h 1v 15v -16v 9h 1v 1v -5v 11v -18h 1v 16v -8v 3h 1v 5v -12v 11v -10h 1v 4v -8v 8h 1v 6v -10v 10v -11h 1v 11v -10v 8h 1v -10v 10v -4h 1v
 -3v 11v -11h 1v 11v -5v 2v -8h 1v -2v 8v -7h 1v 11v -7v 5v -4h 1v -3v 8v -5v 5h 1v -14v 7v -4h 1v 13v -18h 1v 14v -5v 3v -4v 12h 1v -12v 7v -14h 1v 13v -6v 9v -11h 1v -8v 19v -18h 1v 11v -2v 1v -5v 9h 1v -5v 9v -15h 1v 15v -14v 12v -4h 1v 1v -6v 3v
 -6v 5v -1h 1v 8v -8v 9h 1v -12v 11v -7v 1h 1v 6v -10v 3v -4v 6h 1v 1v -7v 14v -11h 1v 6v -12v 13v -4h 1v 2v -7v 13v -8h 1v 5v -11v 10h 1v -11v 10v -8h 1v 8v -8v 7h 1v 3v -8v 6v -5v 5v -3h 1v 3v -6v 9h 1v -8v 5v -15h 1v 15v -9v 11h 1v -5v 7v -8h 1v
 -1v 7v -11v 5h 1v 7v -14v 13v -9h 1v 10v -9v 9h 1v -7v 7v -10h 1v 9v -7v 9h 1v -13v 11v -5h 1v -1v 4v -7v 3h 1v 7v -12v 13v -6h 1v -2v 1v -7v 9h 1v 3v -11v 7v -1h 1v -4v 10v -6h 1v 6v -11v 8h 1v -1v 3v -7v 2h 1v 2v -4v 7v -3v 2v -2h 1v -7v 11v -6h
 1v 5v -6v 1v -5h 1v 10v -12v 1h 1v 9v -4v 4h 1v -13v 12v -2h 1v 4v -9v 7v -8h 1v 9v -12h 1v 14v -12v 1v -2h 1v 11v -5h 1v 4v -8v 10v -5h 1v -3v 11v -15h 1v 15v -12v 6h 1v -3v 8v -8v 3h 1v -3v 7h 1v -2v 4v -12v 2h 1v 9v -12v 9h 1v -6v 11v -13h 1v 10v
 -7v 5h 1v -4v 4v -7h 1v 11v -11v 9h 1v -5v 4v -9h 1v 8v -8v 10h 1v -12v 9v -4h 1v 4v -15v 16h 1v -9v 4v -4v 13v -16h 1v 16v -10v 8v -15v 15h 1v -5v 5v -10h 1v 9v -12v 7h 1v 3v -9v 9v -7h 1v 12v -9v 2h 1v 1v -5v 5v -3h 1v 4v -7v 9h 1v 1v -12v 8v -5h
 1v -9v 15v -13v 12h 1v 3v -4v 6v -7h 1v 3v -3v 1h 1v 2v -6v 3v -2v 2h 1v -8v 18v -17v 10h 1v -8v 11v -5h 1v -6v 14v -10h 1v 4v -6v 4h 1v -5v 1v -2v 6h 1v -1v 6v -12v 10v -1h 1v -7v 6v -10h 1v 9v -5v 11v -10h 1v 2v -2v 7v -8h 1v 7v -5v 8h 1v -6v 3v
 -13h 1v 16v -9v 10v -6h 1v -1v 2v -7v 2h 1v 6v -9v 12h 1v -10v 8v -5v 1h 1v -8v 9h 1v -7v 12v -4v 1h 1v -18v 14h 1v -7v 14v -13h 1v 8v -11v 10h 1v -4v 7v -6h 1v 4v -11v 13h 1v 1v -12v 9v -6h 1v 10v -10v 3v -8v 11h 1v -8v 6v -4h 1v 12v -16v 10h 1v 3v
 -10v 7v -9h 1v 9h 1v -14v 17v -14v 3h 1v -6v 17v -17v 8h 1v 5v -8v 7v -10h 1v 10v -5v 3h 1v 4v -2v 3v -3h 1v 9v -15v 4h 1v 2v -4v 6v -4h 1v -4v 5v -2h 1v 2v -12v 13v -6h 1v 2v -1v 4v -6h 1v 12v -13v 9v -10h 1v -5v 11v -8v 4h 1v 6v -5v 6v -3h 1v -4v
 4v -8h 1v 17v -24v 16v -1h 1v 4v -12v 1h 1v 6v -5v 14v -8h 1v -4v 5v -11h 1v 13v -10v 4h 1v -3v 11v -12h 1v 9v -6v 1v -6h 1v -1v 13v -14h 1v 15v -11v 6h 1v 1v -12v 15v -13h 1v 9v -7v 2h 1v -5v 15v -18h 1v 10v -9v 9v -2h 1v 3v -12v 18v -20h 1v 16v
 -9v 6v -9v 6h 1v 5v -12v 19v -23v 15h 1v -3v 3v -6v 6v -3h 1v 5v -12v 9v -14h 1v 11v -6v 1v -4v 10h 1v -8v 14v -18h 1v 13v -7v 1h 1v -10v 17v -20h 1v 21v -17v 11h 1v 9v -14v 6v -19h 1v 23v -11h 1v 4v -10v 17v -18h 1v 15v -17v 13h 1v 1v -12v 15v -17h
 1v 13v -14v 1h 1v 5v -14v 54h 1v 2v -293h 1v 166h 1v -23v 22v -6v 13h 1v 11v -19v 18v -25h 1v 33v -10v 5h 1v 11v -17v 14v -16v 25h 1v -7v 7v -5h 1v 16v -36v 34v -22h 1v 21v -19v 11h 1v 2v -11v 21h 1v -6v 10v -16h 1v 12v -12v 25v -22h 1v 15v -6v 2v
 -4h 1v 7v -16v 19h 1v -18v 18v -14h 1v 28v -24v 23v -18v 3h 1v -14v 24v -17h 1v 11v -10v 26v -17h 1v 5v -11v 18v -20h 1v 19v -4v 15h 1v -21v 14v -16v 2h 1v 18v -8v 6v -20v 26v -3h 1v -8v 7v -10v 5h 1v 6v -18v 13h 1v -8v 15v -5h 1v 7v -10v 1v -8h 1v
 8v -4v 12v -12h 1v 10v -6v 21h 1v -19v 5v -10h 1v 13v -18v 22h 1v 4v -15v 14v -10h 1v -3v 13v -17v 20h 1v -21v 14v -10h 1v 14v -16v 12v -2h 1v 3v -5v 12v -10h 1v 11v -11v 6h 1v -13v 15v -5v 4v -13h 1v 12v -8v 9h 1v 2v -23v 27v -11v 6h 1v -3v 2v -10v
 18h 1v -13v 18v -24h 1v 13v -7v 5h 1v 4v -8v 18v -12h 1v -9v 13v -10h 1v 12v -18v 21v -9h 1v -2v 6v -10v 7h 1v -2v 2v -7v 10v -7h 1v 10v -15v 5h 1v 9v -7v 12v -7h 1v -4v 4v -5v 5h 1v 5v -11v 9v -4h 1v -5v 15v -8v 2h 1v 4v -20v 22v -7h 1v 1v -4v 1v
 -7h 1v 15v -15v 13v -4h 1v -8v 8v -5h 1v 8v -7v 11v -9h 1v -2v 8v -6h 1v 11v -10v 4v -5v 11h 1v -9v 11v -13h 1v 8v -4v 1v -6v 8v -1h 1v -7v 12v -9v 3h 1v 7v -12v 6h 1v -7v 12v -7h 1v 8v -13v 10h 1v -7v 12v -4h 1v -10v 11v -18v 16h 1v -3v 5v -7v 3v
 -6h 1v 13v -14v 12h 1v -14v 13v -7v 2h 1v 5v -1v 1v -9v 13h 1v -11v 7v -9h 1v 10v -5v 4v -4v 2h 1v 6v -15v 10v -11h 1v 14v -13v 11h 1v -10v 10v -6v 2h 1v 5v -12h 1v 10v -9v 11v -3v 1h 1v -2v 8v -10h 1v 5v -7v 5v -4h 1v -5v 15v -7v 5h 1v -7v 10v -9v
 3v -2h 1v 11v -20v 14h 1v 5v -11v 8v -6h 1v -4v 10v -8v 2h 1v 2v -7v 10v -7v 4h 1v -2v 3v -4v 4h 1v -5v 11v -7h 1v -7v 9v -9v 7h 1v 5v -5v 1v -3v 4h 1v -8v 10v -10h 1v 14v -8v 6v -2h 1v -6v 4v -13h 1v 19v -11v 4h 1v 5v -8h 1v -5v 6v -10v 13h 1v -7h
 1v 13v -14v 6h 1v -6v 9v -7h 1v 12v -13v 13v -4h 1v -7v 5v -13h 1v 18v -10v 3h 1v -3v 9v -6h 1v 6v -10v 8h 1v -6v 6v -10h 1v 7v -9v 14v -1h 1v -11v 14v -10h 1v 7v -7v 7v -2h 1v -12v 14v -9h 1v 7h 1v -4v 3v -1v 4v -12h 1v 14v -12v 11h 1v -11v 7v -2h
 1v 5v -8v 7h 1v 4v -13v 12v -13h 1v 10v -1v 1v -10v 11h 1v -10v 8v -4v 2h 1v 6v -12h 1v 15v -15v 9v -4v 5h 1v -3v 2v -4v 1h 1v 3v -5v 4v -5v 5h 1v -3v 1v -2h 1v 6v -11v 10v -8h 1v 5v -3v 3v -1h 1v 5v -14v 15v -4h 1v -11v 14v -8v 1h 1v 7v -9v 13v -2h
 1v -6v 2v -2v 3v -4h 1v 2v -1v 4v -4v 3v -8h 1v -5v 13v -14v 7h 1v 4v -3v 3v -2v 7h 1v -8v 7v -10h 1v 12v -7v 4v -3h 1v -3v 7v -8h 1v -1v 7v -5v 7v -5h 1v -6v 15v -12h 1v 7v -5v 1v -2v 8v -7h 1v 3v -10v 15v -9v 2h 1v 7v -10v 11h 1v -10v 8v -7h 1v 8v
 -9v 6h 1v -5v 6v -11h 1v 9v -2v 1v -5h 1v 6v -6v 11v -11h 1v 10v -10v 8h 1v -11v 13v -5h 1v -6v 13v -11v 7h 1v 2v -8v 7v -4h 1v -3v 8v -11v 8h 1v -6v 6v -7h 1v 7v -2v 2v -9v 10h 1v -7v 7v -3h 1v 5v -17v 11h 1v 4v -11v 7v -7v 4h 1v 8v -10v 8h 1v 2v
 -10v 12v -8h 1v -3v 4v -4h 1v 8v -5v 10v -10h 1v 7v -7v 6h 1v -13v 13v -15h 1v 13v -8v 7h 1v 6v -18v 13v -3h 1v -10v 17v -8v 1h 1v 7v -11v 11v -4h 1v -7v 7v -7h 1v 9v -12v 11v -3v 8h 1v -8v 5v -10h 1v 4v -9v 16v -10h 1v 6v -4h 1v 9v -14v 7h 1v -4v
 9v -18h 1v 19v -12v 11h 1v -2v 2v -8h 1v 9v -11v 9v -4h 1v 8v -8v 4v -8h 1v 6v -7v 8h 1v -11v 12v -13h 1v 11v -17v 18v -3h 1v 1v -8v 13v -8h 1v 7v -4v 1h 1v -8v 11v -5h 1v 6v -12v 13h 1v -9v 6v -5h 1v -15v 21v -11v 12h 1v -11v 5v -9h 1v -1v 14v -7v
 3v -8h 1v 7v -4v 7h 1v -9v 12v -7v 10h 1v -10v 4v -2v 2h 1v -6v 10v -10v 8h 1v -12v 11v -5h 1v 11v -11v 8h 1v -11v 8v -11h 1v 14v -11v 7v -4h 1v 8v -12v 9v -9v 2h 1v 6v -8v 11h 1v -6v 7v -11h 1v 8v -5v 2h 1v -15v 17v -6h 1v 5v -2v 7v -18v 10h 1v 4v
 -5v 10v -9h 1v 7v -9v 4v -1h 1v 7v -10v 8v -10h 1v 8v -4v 4h 1v 3v -11v 15v -10h 1v 7v -8h 1v 7v -10v 10v -6h 1v 3v -7v 4h 1v -1v 2v -8v 10v -7h 1v 9v -13h 1v 15v -15v 11v -3h 1v -5v 9v -6h 1v 8v -11v 13v -9h 1v -1v 1v -5v 10v -10h 1v 7v -3v 5h 1v
 -5v 7v -5h 1v 4v -5v 11v -3h 1v -11v 10v -4h 1v 3v -18v 17h 1v -6v 12v -14h 1v 13v -13v 8v -1h 1v 4v -8v 4v -10h 1v 13v -10v 6h 1v 5v -12v 7v -6h 1v -1v 12v -10v 7h 1v -5v 7v -7h 1v -5v 10v -11" fill="none" stroke="#000099"/>
<rect x="442" y="25" width="114" height="46" fill="white"/>
<path d="M442,71h 114" fill="none" stroke="black"/>
<path d="M556,71v -46" fill="none" stroke="black"/>
<path d="M556,25h -114" fill="none" stroke="black"/>
<path d="M442,25v 46" fill="none" stroke="black"/>
<text x="447" y="28" fill="black" font-size="4" font-family="Helvetica">
Entries 
</text>
<text x="535" y="28" fill="black" font-size="4" font-family="Helvetica">
 103720
</text>
<text x="450" y="35" fill="black" font-size="4" font-family="Helvetica">
 / ndf 
</text>
<text x="449" y="31" fill="black" font-size="3" font-family="Helvetica">
2
</text>
<text x="447" y="35" fill="black" font-size="4" font-family="Times">
&#0967;
</text>
<text x="517" y="34" fill="black" font-size="4" font-family="Helvetica">
 1.128e+05 / 1240
</text>
<text x="452" y="37" fill="black" font-size="4" font-family="Helvetica">
   
</text>
<text x="450" y="40" fill="black" font-size="3" font-family="Helvetica">
cu
</text>
<text x="447" y="37" fill="black" font-size="4" font-family="Helvetica">
N
</text>
<text x="541" y="40" fill="black" font-size="4" font-family="Helvetica">
 12.4
</text>
<text x="538" y="40" fill="black" font-size="4" font-family="Times">
&#0177;
</text>
<text x="526" y="40" fill="black" font-size="4" font-family="Helvetica">
 186.7 
</text>
<text x="450" y="43" fill="black" font-size="4" font-family="Helvetica">
 
</text>
<text x="448" y="46" fill="black" font-size="3" font-family="Helvetica">
cu
</text>
<text x="447" y="43" fill="black" font-size="4" font-family="Times">
&#0964;
</text>
<text x="543" y="45" fill="black" font-size="4" font-family="Helvetica">
 2.0
</text>
<text x="541" y="45" fill="black" font-size="4" font-family="Times">
&#0177;
</text>
<text x="529" y="45" fill="black" font-size="4" font-family="Helvetica">
 164.5 
</text>
<text x="450" y="48" fill="black" font-size="4" font-family="Helvetica">
    
</text>
<text x="450" y="51" fill="black" font-size="3" font-family="Helvetica">
f
</text>
<text x="447" y="48" fill="black" font-size="4" font-family="Helvetica">
N
</text>
<text x="543" y="50" fill="black" font-size="4" font-family="Helvetica">
 2.8
</text>
<text x="541" y="50" fill="black" font-size="4" font-family="Times">
&#0177;
</text>
<text x="529" y="50" fill="black" font-size="4" font-family="Helvetica">
 175.1 
</text>
<text x="448" y="53" fill="black" font-size="4" font-family="Helvetica">
 
</text>
<text x="448" y="57" fill="black" font-size="3" font-family="Helvetica">
f
</text>
<text x="447" y="53" fill="black" font-size="4" font-family="Times">
&#0964;
</text>
<text x="541" y="55" fill="black" font-size="4" font-family="Helvetica">
 35.6
</text>
<text x="538" y="55" fill="black" font-size="4" font-family="Times">
&#0177;
</text>
<text x="526" y="55" fill="black" font-size="4" font-family="Helvetica">
  2160 
</text>
<text x="452" y="58" fill="black" font-size="4" font-family="Helvetica">
  
</text>
<text x="450" y="61" fill="black" font-size="3" font-family="Helvetica">
sin
</text>
<text x="447" y="58" fill="black" font-size="4" font-family="Helvetica">
N
</text>
<text x="539" y="60" fill="black" font-size="4" font-family="Helvetica">
 0.284
</text>
<text x="537" y="60" fill="black" font-size="4" font-family="Times">
&#0177;
</text>
<text x="525" y="60" fill="black" font-size="4" font-family="Helvetica">
 6.863 
</text>
<text x="447" y="65" fill="black" font-size="4" font-family="Helvetica">
T        
</text>
<text x="543" y="66" fill="black" font-size="4" font-family="Helvetica">
 0.0
</text>
<text x="541" y="66" fill="black" font-size="4" font-family="Times">
&#0177;
</text>
<text x="530" y="66" fill="black" font-size="4" font-family="Helvetica">
  59.3 
</text>
<text x="450" y="68" fill="black" font-size="4" font-family="Helvetica">
    
</text>
<text x="450" y="71" fill="black" font-size="3" font-family="Helvetica">
b
</text>
<text x="447" y="68" fill="black" font-size="4" font-family="Helvetica">
N
</text>
<text x="541" y="71" fill="black" font-size="4" font-family="Helvetica">
 0.23
</text>
<text x="538" y="71" fill="black" font-size="4" font-family="Times">
&#0177;
</text>
<text x="526" y="71" fill="black" font-size="4" font-family="Helvetica">
 32.19 
</text>
<path d="M284,152v 3" fill="none" stroke="#ff0000" stroke-width="2"/>
<path d="M285,156v 29" fill="none" stroke="#ff0000" stroke-width="2"/>
<path d="M285,186v 23" fill="none" stroke="#ff0000" stroke-width="2"/>
<path d="M286,209v 14" fill="none" stroke="#ff0000" stroke-width="2"/>
<path d="M287,219v 12" fill="none" stroke="#ff0000" stroke-width="2"/>
<path d="M288,226v 12" fill="none" stroke="#ff0000" stroke-width="2"/>
<path d="M289,233v 9" fill="none" stroke="#ff0000" stroke-width="2"/>
<path d="M289,241v 9" fill="none" stroke="#ff0000" stroke-width="2"/>
<path d="M290,244v 10" fill="none" stroke="#ff0000" stroke-width="2"/>
<path d="M291,247v 9" fill="none" stroke="#ff0000" stroke-width="2"/>
<path d="M292,250v 9" fill="none" stroke="#ff0000" stroke-width="2"/>
<path d="M293,253v 8" fill="none" stroke="#ff0000" stroke-width="2"/>
<path d="M293,256v 9" fill="none" stroke="#ff0000" stroke-width="2"/>
<path d="M294,258v 9" fill="none" stroke="#ff0000" stroke-width="2"/>
<path d="M295,260v 9" fill="none" stroke="#ff0000" stroke-width="2"/>
<path d="M296,262v 9" fill="none" stroke="#ff0000" stroke-width="2"/>
<path d="M297,265v 8" fill="none" stroke="#ff0000" stroke-width="2"/>
<path d="M298,267v 8" fill="none" stroke="#ff0000" stroke-width="2"/>
<path d="M298,269v 8" fill="none" stroke="#ff0000" stroke-width="2"/>
<path d="M299,269v 9" fill="none" stroke="#ff0000" stroke-width="2"/>
<path d="M300,271v 9" fill="none" stroke="#ff0000" stroke-width="2"/>
<path d="M301,274v 8" fill="none" stroke="#ff0000" stroke-width="2"/>
<path d="M302,275v 9" fill="none" stroke="#ff0000" stroke-width="2"/>
<path d="M302,277v 9" fill="none" stroke="#ff0000" stroke-width="2"/>
<path d="M303,278v 8" fill="none" stroke="#ff0000" stroke-width="2"/>
<path d="M304,279v 9" fill="none" stroke="#ff0000" stroke-width="2"/>
<path d="M305,282v 8" fill="none" stroke="#ff0000" stroke-width="2"/>
<path d="M306,282v 9" fill="none" stroke="#ff0000" stroke-width="2"/>
<path d="M307,284v 8" fill="none" stroke="#ff0000" stroke-width="2"/>
<path d="M307,285v 8" fill="none" stroke="#ff0000" stroke-width="2"/>
<path d="M308,286v 9" fill="none" stroke="#ff0000" stroke-width="2"/>
<path d="M309,288v 8" fill="none" stroke="#ff0000" stroke-width="2"/>
<path d="M310,289v 8" fill="none" stroke="#ff0000" stroke-width="2"/>
<path d="M311,290v 8" fill="none" stroke="#ff0000" stroke-width="2"/>
<path d="M311,291v 8" fill="none" stroke="#ff0000" stroke-width="2"/>
<path d="M312,292v 8" fill="none" stroke="#ff0000" stroke-width="2"/>
<path d="M313,293v 9" fill="none" stroke="#ff0000" stroke-width="2"/>
<path d="M314,294v 9" fill="none" stroke="#ff0000" stroke-width="2"/>
<path d="M315,295v 9" fill="none" stroke="#ff0000" stroke-width="2"/>
<path d="M315,295v 9" fill="none" stroke="#ff0000" stroke-width="2"/>
<path d="M316,297v 7" fill="none" stroke="#ff0000" stroke-width="2"/>
<path d="M317,298v 8" fill="none" stroke="#ff0000" stroke-width="2"/>
<path d="M318,299v 8" fill="none" stroke="#ff0000" stroke-width="2"/>
<path d="M319,299v 9" fill="none" stroke="#ff0000" stroke-width="2"/>
<path d="M320,300v 8" fill="none" stroke="#ff0000" stroke-width="2"/>
<path d="M320,301v 8" fill="none" stroke="#ff0000" stroke-width="2"/>
<path d="M321,302v 8" fill="none" stroke="#ff0000" stroke-width="2"/>
<path d="M322,302v 9" fill="none" stroke="#ff0000" stroke-width="2"/>
<path d="M323,303v 8" fill="none" stroke="#ff0000" stroke-width="2"/>
<path d="M324,304v 8" fill="none" stroke="#ff0000" stroke-width="2"/>
<path d="M324,304v 9" fill="none" stroke="#ff0000" stroke-width="2"/>
<path d="M325,305v 8" fill="none" stroke="#ff0000" stroke-width="2"/>
<path d="M326,305v 8" fill="none" stroke="#ff0000" stroke-width="2"/>
<path d="M327,306v 8" fill="none" stroke="#ff0000" stroke-width="2"/>
<path d="M328,307v 8" fill="none" stroke="#ff0000" stroke-width="2"/>
<path d="M329,308v 8" fill="none" stroke="#ff0000" stroke-width="2"/>
<path d="M329,308v 8" fill="none" stroke="#ff0000" stroke-width="2"/>
<path d="M330,308v 9" fill="none" stroke="#ff0000" stroke-width="2"/>
<path d="M331,308v 9" fill="none" stroke="#ff0000" stroke-width="2"/>
<path d="M332,309v 8" fill="none" stroke="#ff0000" stroke-width="2"/>
<path d="M333,310v 8" fill="none" stroke="#ff0000" stroke-width="2"/>
<path d="M333,310v 8" fill="none" stroke="#ff0000" stroke-width="2"/>
<path d="M334,311v 8" fill="none" stroke="#ff0000" stroke-width="2"/>
<path d="M335,311v 8" fill="none" stroke="#ff0000" stroke-width="2"/>
<path d="M336,312v 8" fill="none" stroke="#ff0000" stroke-width="2"/>
<path d="M337,312v 8" fill="none" stroke="#ff0000" stroke-width="2"/>
<path d="M337,313v 8" fill="none" stroke="#ff0000" stroke-width="2"/>
<path d="M338,313v 8" fill="none" stroke="#ff0000" stroke-width="2"/>
<path d="M339,313v 8" fill="none" stroke="#ff0000" stroke-width="2"/>
<path d="M340,313v 8" fill="none" stroke="#ff0000" stroke-width="2"/>
<path d="M341,313v 8" fill="none" stroke="#ff0000" stroke-width="2"/>
<path d="M342,314v 8" fill="none" stroke="#ff0000" stroke-width="2"/>
<path d="M342,314v 8" fill="none" stroke="#ff0000" stroke-width="2"/>
<path d="M343,315v 7" fill="none" stroke="#ff0000" stroke-width="2"/>
<path d="M344,315v 8" fill="none" stroke="#ff0000" stroke-width="2"/>
<path d="M345,315v 8" fill="none" stroke="#ff0000" stroke-width="2"/>
<path d="M346,315v 8" fill="none" stroke="#ff0000" stroke-width="2"/>
<path d="M346,316v 8" fill="none" stroke="#ff0000" stroke-width="2"/>
<path d="M347,316v 8" fill="none" stroke="#ff0000" stroke-width="2"/>
<path d="M348,317v 7" fill="none" stroke="#ff0000" stroke-width="2"/>
<path d="M349,317v 8" fill="none" stroke="#ff0000" stroke-width="2"/>
<path d="M350,317v 8" fill="none" stroke="#ff0000" stroke-width="2"/>
<path d="M351,317v 8" fill="none" stroke="#ff0000" stroke-width="2"/>
<path d="M351,317v 9" fill="none" stroke="#ff0000" stroke-width="2"/>
<path d="M352,317v 9" fill="none" stroke="#ff0000" stroke-width="2"/>
<path d="M353,317v 9" fill="none" stroke="#ff0000" stroke-width="2"/>
<path d="M354,317v 9" fill="none" stroke="#ff0000" stroke-width="2"/>
<path d="M355,318v 8" fill="none" stroke="#ff0000" stroke-width="2"/>
<path d="M355,318v 8" fill="none" stroke="#ff0000" stroke-width="2"/>
<path d="M356,318v 8" fill="none" stroke="#ff0000" stroke-width="2"/>
<path d="M357,318v 8" fill="none" stroke="#ff0000" stroke-width="2"/>
<path d="M358,318v 8" fill="none" stroke="#ff0000" stroke-width="2"/>
<path d="M359,319v 7" fill="none" stroke="#ff0000" stroke-width="2"/>
<path d="M359,319v 8" fill="none" stroke="#ff0000" stroke-width="2"/>
<path d="M360,319v 8" fill="none" stroke="#ff0000" stroke-width="2"/>
<path d="M361,319v 8" fill="none" stroke="#ff0000" stroke-width="2"/>
<path d="M362,319v 8" fill="none" stroke="#ff0000" stroke-width="2"/>
<path d="M363,320v 7" fill="none" stroke="#ff0000" stroke-width="2"/>
<path d="M364,320v 7" fill="none" stroke="#ff0000" stroke-width="2"/>
<path d="M364,320v 8" fill="none" stroke="#ff0000" stroke-width="2"/>
<path d="M365,320v 8" fill="none" stroke="#ff0000" stroke-width="2"/>
<path d="M366,320v 8" fill="none" stroke="#ff0000" stroke-width="2"/>
<path d="M367,320v 8" fill="none" stroke="#ff0000" stroke-width="2"/>
<path d="M368,320v 8" fill="none" stroke="#ff0000" stroke-width="2"/>
<path d="M368,320v 8" fill="none" stroke="#ff0000" stroke-width="2"/>
<path d="M369,321v 7" fill="none" stroke="#ff0000" stroke-width="2"/>
<path d="M370,321v 8" fill="none" stroke="#ff0000" stroke-width="2"/>
<path d="M371,321v 8" fill="none" stroke="#ff0000" stroke-width="2"/>
<path d="M372,321v 8" fill="none" stroke="#ff0000" stroke-width="2"/>
<path d="M372,321v 8" fill="none" stroke="#ff0000" stroke-width="2"/>
<path d="M373,321v 8" fill="none" stroke="#ff0000" stroke-width="2"/>
<path d="M374,321v 8" fill="none" stroke="#ff0000" stroke-width="2"/>
<path d="M375,321v 8" fill="none" stroke="#ff0000" stroke-width="2"/>
<path d="M376,321v 8" fill="none" stroke="#ff0000" stroke-width="2"/>
<path d="M377,321v 8" fill="none" stroke="#ff0000" stroke-width="2"/>
<path d="M377,321v 8" fill="none" stroke="#ff0000" stroke-width="2"/>
<path d="M378,321v 9" fill="none" stroke="#ff0000" stroke-width="2"/>
<path d="M379,321v 9" fill="none" stroke="#ff0000" stroke-width="2"/>
<path d="M380,321v 9" fill="none" stroke="#ff0000" stroke-width="2"/>
<path d="M381,321v 9" fill="none" stroke="#ff0000" stroke-width="2"/>
<path d="M381,321v 9" fill="none" stroke="#ff0000" stroke-width="2"/>
<path d="M382,321v 9" fill="none" stroke="#ff0000" stroke-width="2"/>
<path d="M383,321v 9" fill="none" stroke="#ff0000" stroke-width="2"/>
<path d="M384,321v 9" fill="none" stroke="#ff0000" stroke-width="2"/>
<path d="M385,321v 9" fill="none" stroke="#ff0000" stroke-width="2"/>
<path d="M386,321v 9" fill="none" stroke="#ff0000" stroke-width="2"/>
<path d="M386,322v 8" fill="none" stroke="#ff0000" stroke-width="2"/>
<path d="M387,322v 8" fill="none" stroke="#ff0000" stroke-width="2"/>
<path d="M388,322v 8" fill="none" stroke="#ff0000" stroke-width="2"/>
<path d="M389,322v 8" fill="none" stroke="#ff0000" stroke-width="2"/>
<path d="M390,322v 8" fill="none" stroke="#ff0000" stroke-width="2"/>
<path d="M390,322v 8" fill="none" stroke="#ff0000" stroke-width="2"/>
<path d="M391,322v 8" fill="none" stroke="#ff0000" stroke-width="2"/>
<path d="M392,322v 8" fill="none" stroke="#ff0000" stroke-width="2"/>
<path d="M393,322v 8" fill="none" stroke="#ff0000" stroke-width="2"/>
<path d="M394,322v 8" fill="none" stroke="#ff0000" stroke-width="2"/>
<path d="M394,322v 8" fill="none" stroke="#ff0000" stroke-width="2"/>
<path d="M395,322v 8" fill="none" stroke="#ff0000" stroke-width="2"/>
<path d="M396,322v 8" fill="none" stroke="#ff0000" stroke-width="2"/>
<path d="M397,322v 8" fill="none" stroke="#ff0000" stroke-width="2"/>
<path d="M398,322v 8" fill="none" stroke="#ff0000" stroke-width="2"/>
<path d="M399,322v 8" fill="none" stroke="#ff0000" stroke-width="2"/>
<path d="M399,322v 8" fill="none" stroke="#ff0000" stroke-width="2"/>
<path d="M400,322v 8" fill="none" stroke="#ff0000" stroke-width="2"/>
<path d="M401,322v 8" fill="none" stroke="#ff0000" stroke-width="2"/>
<path d="M402,322v 8" fill="none" stroke="#ff0000" stroke-width="2"/>
<path d="M403,322v 8" fill="none" stroke="#ff0000" stroke-width="2"/>
<path d="M403,322v 8" fill="none" stroke="#ff0000" stroke-width="2"/>
<path d="M404,323v 7" fill="none" stroke="#ff0000" stroke-width="2"/>
<path d="M405,323v 7" fill="none" stroke="#ff0000" stroke-width="2"/>
<path d="M406,323v 7" fill="none" stroke="#ff0000" stroke-width="2"/>
<path d="M407,323v 7" fill="none" stroke="#ff0000" stroke-width="2"/>
<path d="M408,323v 7" fill="none" stroke="#ff0000" stroke-width="2"/>
<path d="M408,323v 7" fill="none" stroke="#ff0000" stroke-width="2"/>
<path d="M409,323v 7" fill="none" stroke="#ff0000" stroke-width="2"/>
<path d="M410,323v 7" fill="none" stroke="#ff0000" stroke-width="2"/>
<path d="M411,323v 7" fill="none" stroke="#ff0000" stroke-width="2"/>
<path d="M412,323v 7" fill="none" stroke="#ff0000" stroke-width="2"/>
<path d="M412,323v 8" fill="none" stroke="#ff0000" stroke-width="2"/>
<path d="M413,323v 8" fill="none" stroke="#ff0000" stroke-width="2"/>
<path d="M414,323v 8" fill="none" stroke="#ff0000" stroke-width="2"/>
<path d="M415,323v 8" fill="none" stroke="#ff0000" stroke-width="2"/>
<path d="M416,323v 8" fill="none" stroke="#ff0000" stroke-width="2"/>
<path d="M416,323v 8" fill="none" stroke="#ff0000" stroke-width="2"/>
<path d="M417,323v 8" fill="none" stroke="#ff0000" stroke-width="2"/>
<path d="M418,323v 8" fill="none" stroke="#ff0000" stroke-width="2"/>
<path d="M419,323v 8" fill="none" stroke="#ff0000" stroke-width="2"/>
<path d="M420,323v 8" fill="none" stroke="#ff0000" stroke-width="2"/>
<path d="M421,323v 8" fill="none" stroke="#ff0000" stroke-width="2"/>
<path d="M421,323v 8" fill="none" stroke="#ff0000" stroke-width="2"/>
<path d="M422,323v 8" fill="none" stroke="#ff0000" stroke-width="2"/>
<path d="M423,323v 8" fill="none" stroke="#ff0000" stroke-width="2"/>
<path d="M424,323v 8" fill="none" stroke="#ff0000" stroke-width="2"/>
<path d="M425,323v 8" fill="none" stroke="#ff0000" stroke-width="2"/>
<path d="M425,323v 8" fill="none" stroke="#ff0000" stroke-width="2"/>
<path d="M426,323v 8" fill="none" stroke="#ff0000" stroke-width="2"/>
<path d="M427,323v 8" fill="none" stroke="#ff0000" stroke-width="2"/>
<path d="M428,323v 8" fill="none" stroke="#ff0000" stroke-width="2"/>
<path d="M429,323v 8" fill="none" stroke="#ff0000" stroke-width="2"/>
<path d="M430,323v 8" fill="none" stroke="#ff0000" stroke-width="2"/>
<path d="M430,323v 8" fill="none" stroke="#ff0000" stroke-width="2"/>
<path d="M431,323v 8" fill="none" stroke="#ff0000" stroke-width="2"/>
<path d="M432,323v 8" fill="none" stroke="#ff0000" stroke-width="2"/>
<path d="M433,323v 8" fill="none" stroke="#ff0000" stroke-width="2"/>
<path d="M434,323v 8" fill="none" stroke="#ff0000" stroke-width="2"/>
<path d="M434,323v 8" fill="none" stroke="#ff0000" stroke-width="2"/>
<path d="M435,323v 8" fill="none" stroke="#ff0000" stroke-width="2"/>
<path d="M436,323v 8" fill="none" stroke="#ff0000" stroke-width="2"/>
<path d="M437,323v 8" fill="none" stroke="#ff0000" stroke-width="2"/>
<path d="M438,323v 8" fill="none" stroke="#ff0000" stroke-width="2"/>
<path d="M438,323v 8" fill="none" stroke="#ff0000" stroke-width="2"/>
<path d="M439,323v 8" fill="none" stroke="#ff0000" stroke-width="2"/>
<path d="M440,323v 8" fill="none" stroke="#ff0000" stroke-width="2"/>
<path d="M441,323v 8" fill="none" stroke="#ff0000" stroke-width="2"/>
<path d="M442,323v 8" fill="none" stroke="#ff0000" stroke-width="2"/>
<path d="M443,323v 8" fill="none" stroke="#ff0000" stroke-width="2"/>
<path d="M443,323v 8" fill="none" stroke="#ff0000" stroke-width="2"/>
<path d="M444,323v 8" fill="none" stroke="#ff0000" stroke-width="2"/>
<path d="M445,323v 8" fill="none" stroke="#ff0000" stroke-width="2"/>
<path d="M446,323v 8" fill="none" stroke="#ff0000" stroke-width="2"/>
<path d="M447,323v 8" fill="none" stroke="#ff0000" stroke-width="2"/>
<path d="M447,323v 8" fill="none" stroke="#ff0000" stroke-width="2"/>
<path d="M448,323v 8" fill="none" stroke="#ff0000" stroke-width="2"/>
<path d="M449,323v 8" fill="none" stroke="#ff0000" stroke-width="2"/>
<path d="M450,323v 8" fill="none" stroke="#ff0000" stroke-width="2"/>
<path d="M451,323v 8" fill="none" stroke="#ff0000" stroke-width="2"/>
<path d="M452,323v 8" fill="none" stroke="#ff0000" stroke-width="2"/>
<path d="M452,323v 8" fill="none" stroke="#ff0000" stroke-width="2"/>
<path d="M453,323v 8" fill="none" stroke="#ff0000" stroke-width="2"/>
<path d="M454,323v 8" fill="none" stroke="#ff0000" stroke-width="2"/>
<path d="M455,323v 8" fill="none" stroke="#ff0000" stroke-width="2"/>
<path d="M456,323v 8" fill="none" stroke="#ff0000" stroke-width="2"/>
<path d="M456,323v 8" fill="none" stroke="#ff0000" stroke-width="2"/>
<path d="M457,323v 8" fill="none" stroke="#ff0000" stroke-width="2"/>
<path d="M458,323v 8" fill="none" stroke="#ff0000" stroke-width="2"/>
<path d="M459,323v 8" fill="none" stroke="#ff0000" stroke-width="2"/>
<path d="M460,323v 8" fill="none" stroke="#ff0000" stroke-width="2"/>
<path d="M460,323v 8" fill="none" stroke="#ff0000" stroke-width="2"/>
<path d="M461,323v 8" fill="none" stroke="#ff0000" stroke-width="2"/>
<path d="M462,323v 8" fill="none" stroke="#ff0000" stroke-width="2"/>
<path d="M463,323v 8" fill="none" stroke="#ff0000" stroke-width="2"/>
<path d="M464,323v 8" fill="none" stroke="#ff0000" stroke-width="2"/>
<path d="M465,323v 8" fill="none" stroke="#ff0000" stroke-width="2"/>
<path d="M465,323v 8" fill="none" stroke="#ff0000" stroke-width="2"/>
<path d="M466,323v 8" fill="none" stroke="#ff0000" stroke-width="2"/>
<path d="M467,323v 8" fill="none" stroke="#ff0000" stroke-width="2"/>
<path d="M468,323v 8" fill="none" stroke="#ff0000" stroke-width="2"/>
<path d="M469,323v 8" fill="none" stroke="#ff0000" stroke-width="2"/>
<path d="M469,323v 8" fill="none" stroke="#ff0000" stroke-width="2"/>
<path d="M470,323v 8" fill="none" stroke="#ff0000" stroke-width="2"/>
<path d="M471,323v 8" fill="none" stroke="#ff0000" stroke-width="2"/>
<path d="M472,323v 8" fill="none" stroke="#ff0000" stroke-width="2"/>
<path d="M473,323v 8" fill="none" stroke="#ff0000" stroke-width="2"/>
<path d="M473,323v 8" fill="none" stroke="#ff0000" stroke-width="2"/>
<path d="M474,323v 8" fill="none" stroke="#ff0000" stroke-width="2"/>
<path d="M475,323v 8" fill="none" stroke="#ff0000" stroke-width="2"/>
<path d="M476,323v 8" fill="none" stroke="#ff0000" stroke-width="2"/>
<path d="M477,323v 8" fill="none" stroke="#ff0000" stroke-width="2"/>
<path d="M478,323v 8" fill="none" stroke="#ff0000" stroke-width="2"/>
<path d="M478,323v 8" fill="none" stroke="#ff0000" stroke-width="2"/>
<path d="M479,323v 8" fill="none" stroke="#ff0000" stroke-width="2"/>
<path d="M480,323v 8" fill="none" stroke="#ff0000" stroke-width="2"/>
<path d="M481,323v 8" fill="none" stroke="#ff0000" stroke-width="2"/>
<path d="M482,323v 8" fill="none" stroke="#ff0000" stroke-width="2"/>
<path d="M482,323v 8" fill="none" stroke="#ff0000" stroke-width="2"/>
<path d="M483,323v 8" fill="none" stroke="#ff0000" stroke-width="2"/>
<path d="M484,323v 8" fill="none" stroke="#ff0000" stroke-width="2"/>
<path d="M485,323v 8" fill="none" stroke="#ff0000" stroke-width="2"/>
<path d="M486,323v 8" fill="none" stroke="#ff0000" stroke-width="2"/>
<path d="M487,323v 8" fill="none" stroke="#ff0000" stroke-width="2"/>
<path d="M487,323v 8" fill="none" stroke="#ff0000" stroke-width="2"/>
<path d="M488,323v 8" fill="none" stroke="#ff0000" stroke-width="2"/>
<path d="M489,323v 8" fill="none" stroke="#ff0000" stroke-width="2"/>
<path d="M490,323v 8" fill="none" stroke="#ff0000" stroke-width="2"/>
<path d="M491,323v 8" fill="none" stroke="#ff0000" stroke-width="2"/>
<path d="M491,323v 8" fill="none" stroke="#ff0000" stroke-width="2"/>
<path d="M492,323v 8" fill="none" stroke="#ff0000" stroke-width="2"/>
<path d="M493,323v 8" fill="none" stroke="#ff0000" stroke-width="2"/>
<path d="M494,323v 8" fill="none" stroke="#ff0000" stroke-width="2"/>
<path d="M495,323v 8" fill="none" stroke="#ff0000" stroke-width="2"/>
<path d="M495,323v 8" fill="none" stroke="#ff0000" stroke-width="2"/>
<path d="M496,323v 8" fill="none" stroke="#ff0000" stroke-width="2"/>
<path d="M497,323v 8" fill="none" stroke="#ff0000" stroke-width="2"/>
<path d="M498,323v 8" fill="none" stroke="#ff0000" stroke-width="2"/>
<path d="M499,323v 8" fill="none" stroke="#ff0000" stroke-width="2"/>
<path d="M500,323v 8" fill="none" stroke="#ff0000" stroke-width="2"/>
<path d="M500,323v 8" fill="none" stroke="#ff0000" stroke-width="2"/>
<path d="M501,323v 8" fill="none" stroke="#ff0000" stroke-width="2"/>
<path d="M502,323v 8" fill="none" stroke="#ff0000" stroke-width="2"/>
<path d="M503,323v 8" fill="none" stroke="#ff0000" stroke-width="2"/>
<path d="M504,323v 8" fill="none" stroke="#ff0000" stroke-width="2"/>
<path d="M504,323v 8" fill="none" stroke="#ff0000" stroke-width="2"/>
<path d="M505,323v 8" fill="none" stroke="#ff0000" stroke-width="2"/>
<path d="M506,323v 8" fill="none" stroke="#ff0000" stroke-width="2"/>
<path d="M507,323v 8" fill="none" stroke="#ff0000" stroke-width="2"/>
<path d="M508,323v 8" fill="none" stroke="#ff0000" stroke-width="2"/>
<path d="M509,323v 8" fill="none" stroke="#ff0000" stroke-width="2"/>
<path d="M509,323v 8" fill="none" stroke="#ff0000" stroke-width="2"/>
<path d="M510,323v 7" fill="none" stroke="#ff0000" stroke-width="2"/>
<path d="M284,154l 1, 16v 28l 1, 18l 1, 9l 1, 7l 1, 6v 7l 1, 4l 1, 2l 1, 3l 1, 3v 3l 1, 2l 1, 2l 1, 2l 1, 3l 1, 2v 2h 1l 1, 2l 1, 2l 1, 2v 2l 1, 1l 1, 1l 1, 3h 1l 1, 2v 1l 1, 2l 1, 1l 1, 1l 1, 1v 1l 1, 1l 1, 1l 1, 1l 1, 1l 1, 1l 1, 2l 1, 1l 1, 1h 1v
 1l 1, 1h 1l 1, 1l 1, 1l 1, 1h 1l 1, 1l 1, 1l 1, 1l 1, 1h 2l 1, 1l 1, 1h 1l 1, 1h 1v 1h 4l 1, 1h 1l 1, 1h 2v 1h 2l 1, 1h 6v 1h 4v 1h 5v 1h 5l 1, 1h 7l 1, 1h 34v 1h 97l 1, -1" fill="none" stroke="#ff0000" stroke-width="2"/>
<path d="M57,346h 453" fill="none" stroke="black"/>
<text x="419" y="372" fill="black" font-size="12" font-family="Helvetica">
TDC-TDC0 (ns)
</text>
<path d="M57,337v 9" fill="none" stroke="black"/>
<path d="M68,342v 4" fill="none" stroke="black"/>
<path d="M79,342v 4" fill="none" stroke="black"/>
<path d="M91,342v 4" fill="none" stroke="black"/>
<path d="M102,342v 4" fill="none" stroke="black"/>
<path d="M113,337v 9" fill="none" stroke="black"/>
<path d="M125,342v 4" fill="none" stroke="black"/>
<path d="M136,342v 4" fill="none" stroke="black"/>
<path d="M147,342v 4" fill="none" stroke="black"/>
<path d="M159,342v 4" fill="none" stroke="black"/>
<path d="M170,337v 9" fill="none" stroke="black"/>
<path d="M181,342v 4" fill="none" stroke="black"/>
<path d="M193,342v 4" fill="none" stroke="black"/>
<path d="M204,342v 4" fill="none" stroke="black"/>
<path d="M215,342v 4" fill="none" stroke="black"/>
<path d="M227,337v 9" fill="none" stroke="black"/>
<path d="M238,342v 4" fill="none" stroke="black"/>
<path d="M249,342v 4" fill="none" stroke="black"/>
<path d="M261,342v 4" fill="none" stroke="black"/>
<path d="M272,342v 4" fill="none" stroke="black"/>
<path d="M283,337v 9" fill="none" stroke="black"/>
<path d="M295,342v 4" fill="none" stroke="black"/>
<path d="M306,342v 4" fill="none" stroke="black"/>
<path d="M317,342v 4" fill="none" stroke="black"/>
<path d="M329,342v 4" fill="none" stroke="black"/>
<path d="M340,337v 9" fill="none" stroke="black"/>
<path d="M351,342v 4" fill="none" stroke="black"/>
<path d="M363,342v 4" fill="none" stroke="black"/>
<path d="M374,342v 4" fill="none" stroke="black"/>
<path d="M386,342v 4" fill="none" stroke="black"/>
<path d="M397,337v 9" fill="none" stroke="black"/>
<path d="M408,342v 4" fill="none" stroke="black"/>
<path d="M420,342v 4" fill="none" stroke="black"/>
<path d="M431,342v 4" fill="none" stroke="black"/>
<path d="M442,342v 4" fill="none" stroke="black"/>
<path d="M454,337v 9" fill="none" stroke="black"/>
<path d="M465,342v 4" fill="none" stroke="black"/>
<path d="M476,342v 4" fill="none" stroke="black"/>
<path d="M488,342v 4" fill="none" stroke="black"/>
<path d="M499,342v 4" fill="none" stroke="black"/>
<path d="M510,337v 9" fill="none" stroke="black"/>
<text x="36" y="359" fill="black" font-size="12" font-family="Helvetica">
-20000
</text>
<text x="93" y="359" fill="black" font-size="12" font-family="Helvetica">
-15000
</text>
<text x="149" y="359" fill="black" font-size="12" font-family="Helvetica">
-10000
</text>
<text x="210" y="359" fill="black" font-size="12" font-family="Helvetica">
-5000
</text>
<text x="280" y="359" fill="black" font-size="12" font-family="Helvetica">
0
</text>
<text x="325" y="359" fill="black" font-size="12" font-family="Helvetica">
5000
</text>
<text x="379" y="359" fill="black" font-size="12" font-family="Helvetica">
10000
</text>
<text x="435" y="359" fill="black" font-size="12" font-family="Helvetica">
15000
</text>
<text x="492" y="359" fill="black" font-size="12" font-family="Helvetica">
20000
</text>
<path d="M57,346v -308" fill="none" stroke="black"/>
<g transform="rotate(-90,29,72)">
<text x="29" y="72" fill="black" font-size="12" font-family="Helvetica">
Count
</text>
</g>
<path d="M70,346h -13" fill="none" stroke="black"/>
<path d="M63,335h -6" fill="none" stroke="black"/>
<path d="M63,323h -6" fill="none" stroke="black"/>
<path d="M63,312h -6" fill="none" stroke="black"/>
<path d="M63,300h -6" fill="none" stroke="black"/>
<path d="M70,288h -13" fill="none" stroke="black"/>
<path d="M63,277h -6" fill="none" stroke="black"/>
<path d="M63,265h -6" fill="none" stroke="black"/>
<path d="M63,254h -6" fill="none" stroke="black"/>
<path d="M63,242h -6" fill="none" stroke="black"/>
<path d="M70,230h -13" fill="none" stroke="black"/>
<path d="M63,219h -6" fill="none" stroke="black"/>
<path d="M63,207h -6" fill="none" stroke="black"/>
<path d="M63,196h -6" fill="none" stroke="black"/>
<path d="M63,184h -6" fill="none" stroke="black"/>
<path d="M70,172h -13" fill="none" stroke="black"/>
<path d="M63,161h -6" fill="none" stroke="black"/>
<path d="M63,149h -6" fill="none" stroke="black"/>
<path d="M63,138h -6" fill="none" stroke="black"/>
<path d="M63,126h -6" fill="none" stroke="black"/>
<path d="M70,114h -13" fill="none" stroke="black"/>
<path d="M63,103h -6" fill="none" stroke="black"/>
<path d="M63,91h -6" fill="none" stroke="black"/>
<path d="M63,80h -6" fill="none" stroke="black"/>
<path d="M63,68h -6" fill="none" stroke="black"/>
<path d="M70,56h -13" fill="none" stroke="black"/>
<path d="M70,56h -13" fill="none" stroke="black"/>
<path d="M63,45h -6" fill="none" stroke="black"/>
<text x="47" y="350" fill="black" font-size="12" font-family="Helvetica">
0
</text>
<text x="33" y="292" fill="black" font-size="12" font-family="Helvetica">
100
</text>
<text x="33" y="234" fill="black" font-size="12" font-family="Helvetica">
200
</text>
<text x="33" y="176" fill="black" font-size="12" font-family="Helvetica">
300
</text>
<text x="33" y="118" fill="black" font-size="12" font-family="Helvetica">
400
</text>
<text x="33" y="60" fill="black" font-size="12" font-family="Helvetica">
500
</text>
<rect x="442" y="25" width="114" height="46" fill="white"/>
<path d="M442,71h 114" fill="none" stroke="black"/>
<path d="M556,71v -46" fill="none" stroke="black"/>
<path d="M556,25h -114" fill="none" stroke="black"/>
<path d="M442,25v 46" fill="none" stroke="black"/>
<text x="447" y="28" fill="black" font-size="4" font-family="Helvetica">
Entries 
</text>
<text x="535" y="28" fill="black" font-size="4" font-family="Helvetica">
 103720
</text>
<text x="450" y="35" fill="black" font-size="4" font-family="Helvetica">
 / ndf 
</text>
<text x="449" y="31" fill="black" font-size="3" font-family="Helvetica">
2
</text>
<text x="447" y="35" fill="black" font-size="4" font-family="Times">
&#0967;
</text>
<text x="517" y="34" fill="black" font-size="4" font-family="Helvetica">
 1.128e+05 / 1240
</text>
<text x="452" y="37" fill="black" font-size="4" font-family="Helvetica">
   
</text>
<text x="450" y="40" fill="black" font-size="3" font-family="Helvetica">
cu
</text>
<text x="447" y="37" fill="black" font-size="4" font-family="Helvetica">
N
</text>
<text x="541" y="40" fill="black" font-size="4" font-family="Helvetica">
 12.4
</text>
<text x="538" y="40" fill="black" font-size="4" font-family="Times">
&#0177;
</text>
<text x="526" y="40" fill="black" font-size="4" font-family="Helvetica">
 186.7 
</text>
<text x="450" y="43" fill="black" font-size="4" font-family="Helvetica">
 
</text>
<text x="448" y="46" fill="black" font-size="3" font-family="Helvetica">
cu
</text>
<text x="447" y="43" fill="black" font-size="4" font-family="Times">
&#0964;
</text>
<text x="543" y="45" fill="black" font-size="4" font-family="Helvetica">
 2.0
</text>
<text x="541" y="45" fill="black" font-size="4" font-family="Times">
&#0177;
</text>
<text x="529" y="45" fill="black" font-size="4" font-family="Helvetica">
 164.5 
</text>
<text x="450" y="48" fill="black" font-size="4" font-family="Helvetica">
    
</text>
<text x="450" y="51" fill="black" font-size="3" font-family="Helvetica">
f
</text>
<text x="447" y="48" fill="black" font-size="4" font-family="Helvetica">
N
</text>
<text x="543" y="50" fill="black" font-size="4" font-family="Helvetica">
 2.8
</text>
<text x="541" y="50" fill="black" font-size="4" font-family="Times">
&#0177;
</text>
<text x="529" y="50" fill="black" font-size="4" font-family="Helvetica">
 175.1 
</text>
<text x="448" y="53" fill="black" font-size="4" font-family="Helvetica">
 
</text>
<text x="448" y="57" fill="black" font-size="3" font-family="Helvetica">
f
</text>
<text x="447" y="53" fill="black" font-size="4" font-family="Times">
&#0964;
</text>
<text x="541" y="55" fill="black" font-size="4" font-family="Helvetica">
 35.6
</text>
<text x="538" y="55" fill="black" font-size="4" font-family="Times">
&#0177;
</text>
<text x="526" y="55" fill="black" font-size="4" font-family="Helvetica">
  2160 
</text>
<text x="452" y="58" fill="black" font-size="4" font-family="Helvetica">
  
</text>
<text x="450" y="61" fill="black" font-size="3" font-family="Helvetica">
sin
</text>
<text x="447" y="58" fill="black" font-size="4" font-family="Helvetica">
N
</text>
<text x="539" y="60" fill="black" font-size="4" font-family="Helvetica">
 0.284
</text>
<text x="537" y="60" fill="black" font-size="4" font-family="Times">
&#0177;
</text>
<text x="525" y="60" fill="black" font-size="4" font-family="Helvetica">
 6.863 
</text>
<text x="447" y="65" fill="black" font-size="4" font-family="Helvetica">
T        
</text>
<text x="543" y="66" fill="black" font-size="4" font-family="Helvetica">
 0.0
</text>
<text x="541" y="66" fill="black" font-size="4" font-family="Times">
&#0177;
</text>
<text x="530" y="66" fill="black" font-size="4" font-family="Helvetica">
  59.3 
</text>
<text x="450" y="68" fill="black" font-size="4" font-family="Helvetica">
    
</text>
<text x="450" y="71" fill="black" font-size="3" font-family="Helvetica">
b
</text>
<text x="447" y="68" fill="black" font-size="4" font-family="Helvetica">
N
</text>
<text x="541" y="71" fill="black" font-size="4" font-family="Helvetica">
 0.23
</text>
<text x="538" y="71" fill="black" font-size="4" font-family="Times">
&#0177;
</text>
<text x="526" y="71" fill="black" font-size="4" font-family="Helvetica">
 32.19 
</text>
<text x="270" y="21" fill="black" font-size="21" font-family="Helvetica">
D4
</text></svg>
