<?xml version="1.0" standalone="no"?>
<svg width="567" height="385" viewBox="0 0 567 385" xmlns="http://www.w3.org/2000/svg">
<title>
images/analysis_g4bl_loose_f/458_D2.svg
</title>
<desc>
Creator: ROOT Version 5.34/05
CreationDate: Wed Jun 12 17:57:40 2013</desc>
<defs>
</defs>
<rect x="0" y="0" width="567" height="385" fill="white"/>
<rect x="57" y="38" width="453" height="308" fill="white"/>
<rect x="57" y="38" width="453" height="308" fill="none" stroke="black"/>
<rect x="57" y="38" width="453" height="308" fill="white"/>
<rect x="57" y="38" width="453" height="308" fill="none" stroke="black"/>
<path d="M57,346h 44v -2h 1v 1v -3v 3v -2h 1v -1v 1v -7v 1h 1v -6v 8v -7h 1v -2v 6v -6v 7h 1v -10v 7v -5h 1v -1v 8v -11v 6h 1v 2v -5v 5v -2h 1v -5v 10v -8v 6h 1v 2v -7v 6h 1v -6v 6v -8v 3h 1v 5v -9v 11h 1v -10v 9v -10v 6h 1v 4v -9v 9h 1v -7v 6v -6h
 1v 5v -7v 10h 1v -14v 11v -6v 2h 1v 7v -9v 9h 1v -10v 7v -7h 1v 6v -6v 8h 1v -6v 6v -10v 2h 1v 7v -9v 10h 1v -11v 12v -13h 1v 10v -6v 9h 1v -7v 5v -7h 1v 9v -10v 7h 1v -5v 7v -8h 1v 11v -12v 9h 1v -7v 8v -10h 1v 10v -8v 5h 1v 2v -7v 7v -6h 1v -1v 7v
 -6v 3h 1v 3v -6v 7v -9h 1v 9v -9v 3h 1v 6v -9v 8v -10h 1v 9v -5h 1v 8v -11v 10v -7h 1v -3v 10v -6h 1v 5v -8v 7v -4h 1v -3v 9v -7v 1h 1v 5v -9v 9v -4h 1v -4v 7v -5v 1h 1v 4v -6v 6v -1h 1v -4v 4v -7v 8h 1v -6v 6v -2h 1v -6v 9v -9v 6h 1v 3v -7v 6v -1h
 1v -6v 8v -7v 5h 1v 1v -7v 9h 1v -7v 5v -5h 1v 5v -9v 11h 1v -10v 7v -8v 3h 1v 6v -8v 9h 1v -7v 8v -8v 1h 1v 5v -6v 9h 1v -10v 7v -5h 1v 5v -9v 11h 1v -8v 6v -9h 1v 10v -10v 12h 1v -12v 9v -8h 1v 9v -8v 6h 1v 1v -9v 10v -7h 1v 6v -6v 8h 1v -10v 9v
 -8h 1v 6v -6v 2h 1v 5v -6v 5v -3h 1v -1v 7v -10v 8h 1v 2v -10v 8v -7h 1v 8v -6v 3h 1v 4v -9v 8v -5h 1v -1v 6v -7v 1h 1v 5v -8v 9v -5h 1v -4v 7v -6h 1v 8v -6v 7v -3h 1v -7v 10v -11v 2h 1v 9v -9v 5v -4h 1v -1v 9v -10v 4h 1v 3v -5v 6v -2h 1v -4v 6v -8h
 1v 8v -6v 5v -1h 1v -9v 14v -9h 1v 7v -8v 8h 1v -10v 9v -7h 1v 8v -10v 9h 1v -6v 6v -7v 1h 1v 7v -7v 5h 1v -5v 7v -8v 1h 1v 5v -7v 7h 1v -5v 8v -8h 1v 8v -10v 11h 1v -10v 8v -8v 3h 1v 4v -9v 10h 1v -9v 8v -9h 1v 10v -10v 13h 1v -10v 8v -8h 1v 6v -6v
 7h 1v 1v -9v 7v -6h 1v 8v -10v 7h 1v -5v 5v -5h 1v 9v -10v 3h 1v 4v -5v 6v -9h 1v 9v -6v 3h 1v 2v -5v 6v -9h 1v 10v -8v 3h 1v 4v -6v 5v -6h 1v 8v -9v 4h 1v 4v -9v 7v -4h 1v 6v -10v 5h 1v 6v -10v 9v -4h 1v -5v 9v -8v 1h 1v 5v -7v 10v -5h 1v -7v 10v
 -6h 1v 7v -8v 7v -1h 1v -6v 7v -5v 1h 1v 3v -6v 6v -1h 1v -7v 9v -7h 1v 9v -10v 9v -1h 1v -6v 7v -7h 1v 6v -10v 9v -1h 1v -6v 11v -10h 1v 8v -9v 8h 1v -8v 8v -5h 1v 4v -4v 6h 1v -9v 7v -6h 1v 9v -7v 6h 1v -10v 9v -7v 4h 1v 5v -12v 12h 1v -9v 5v -8h
 1v 12v -10v 7h 1v -9v 8v -7h 1v 9v -7v 9h 1v -7v 8v -10h 1v 6v -4v 6h 1v -6v 3v -4h 1v 7v -9v 5h 1v 2v -6v 8v -8h 1v 8v -6v 3v -2h 1v 4v -5v 7v -8h 1v 7v -8v 4h 1v 1v -5v 8v -6h 1v -2v 9v -12v 7h 1v 5v -9v 8v -7h 1v -3v 12v -11v 2h 1v 6v -8v 7v -3h
 1v -3v 5v -5v 2h 1v 7v -9v 5v -4h 1v -2v 6v -5v 1h 1v 7v -9v 9v -4h 1v -4v 7v -8v 3h 1v 5v -9v 9v -3h 1v -8v 13v -9h 1v 6v -6v 5v -1h 1v -8v 11v -8h 1v 8v -7v 7v -3h 1v -4v 6v -7h 1v 9v -8v 7h 1v -10v 10v -11h 1v 12v -11v 11h 1v -8v 7v -9h 1v 9v -8v
 6h 1v -7v 10v -9h 1v -1v 8v -9v 10h 1v -10v 9v -8h 1v 10v -8v 7h 1v -9v 7v -4h 1v -5v 12v -10v 7h 1v 1v -8v 9v -11h 1v 11v -10v 9h 1v -8v 9v -9h 1v 8v -8v 8h 1v -5v 4v -3h 1v 4v -8v 6h 1v 2v -9v 11v -9h 1v 6v -7v 6h 1v 4v -10v 7v -7h 1v 8v -8v 4h 1v
 5v -12v 14v -8h 1v -3v 8v -7v 1h 1v 7v -8v 4v -5h 1v 6v -8v 3h 1v 5v -6v 7v -7h 1v -1v 5v -12h 1v 10v -10v 29h 1v -293v 127h 1v 71v -1h 1v -6v 14v -8v 5h 1v 8v -5v 9h 1v -6v 7v -8h 1v 8v -2h 1v -2v 6v -6h 1v 13v -12v 11h 1v -9v 13v -8h 1v 13v -12v
 6v -4h 1v 5v -2v 3v -3h 1v -5v 11v -9v 12h 1v -6v 6v -4h 1v 7v -7v 11h 1v -12v 13v -10h 1v 5v -2v 5v -4v 5h 1v -7v 7h 1v -5v 11v -8v 1h 1v -2v 6v -6h 1v 6v -7v 6h 1v 2v -6v 12v -13h 1v 17v -12v 6h 1v 3v -13v 10v -3h 1v -11v 16v -9v 9h 1v -7v 8v -1h
 1v -10v 13v -6v 4v -1h 1v -6v 9v -7h 1v 11v -10v 4h 1v 1v -6v 7v -6h 1v 10v -5h 1v 7v -10v 12v -11h 1v 9v -7h 1v 6v -6v 8v -10h 1v 11v -8h 1v 9v -8v 5h 1v -4v 9v -10h 1v 8v -9v 10v -3h 1v 1v -1v 7v -10v 3h 1v 3v -5v 7v -5h 1v -1v 4v -7v 4h 1v 5v -8v
 7v -1h 1v -2v 7v -11h 1v 7v -7v 9v -1h 1v -6v 5v -3h 1v 9v -11v 9v -2h 1v -7v 10v -13h 1v 16v -15v 12h 1v -8v 6v -8h 1v 11v -10v 10h 1v -7v 8v -8h 1v 6v -8v 5h 1v -2v 8v -10h 1v 8v -4v 7h 1v -10v 11v -7h 1v -1v 5v -8v 10h 1v -11v 9v -8h 1v 12v -9v
 9h 1v -7v 5v -5h 1v -5v 13v -9v 5h 1v 1v -7v 7v -5h 1v -1v 9v -9v 5h 1v 3v -7v 6v -2h 1v -6v 8v -6v 2h 1v 4v -7v 10v -3h 1v -6v 7v -6v 2h 1v 4v -6v 4v -2h 1v -2v 3v -4v 1h 1v 6v -9v 11v -6h 1v -2v 6v -9v 5h 1v 6v -8v 7v -5h 1v -1v 7v -7v 1h 1v 6v
 -7v 6v -5h 1v -4v 10v -7v 2h 1v 5v -8v 7v -5h 1v -2v 5v -5v 5h 1v 3v -8v 9v -4h 1v -5v 11v -10h 1v 6v -8v 10v -4h 1v -4v 9v -8h 1v 6v -8v 9v -2h 1v -7v 9v -10h 1v 10v -10v 10v -1h 1v -5v 9v -9h 1v 4v -8v 10v -2h 1v -6v 8v -7h 1v 9v -10v 10h 1v -10v
 9v -9h 1v 9v -12v 13h 1v -10v 9v -5h 1v -3v 7v -6v 6h 1v -6v 8v -5h 1v -4v 8v -8v 7h 1v -7v 5h 1v -5v 9v -8v 7h 1v -8v 8v -4h 1v -2v 6v -5v 4h 1v -7v 7v -2h 1v -4v 8v -8v 4h 1v 3v -6v 6v -3h 1v -2v 8v -10v 5h 1v 1v -5v 7v -1h 1v -8v 7v -7v 6h 1v 2v
 -7v 9v -5h 1v -4v 8v -8v 2h 1v 2v -4v 8h 1v -8v 8v -7v 1h 1v 4v -6v 7h 1v -9v 10v -8v 2h 1v 6v -9v 7v -4h 1v -2v 6v -6h 1v 7v -9v 8v -1h 1v -7v 10v -5h 1v 4v -8v 9v -5h 1v -4v 8v -7h 1v 7v -8v 6h 1v -4v 5v -6h 1v 10v -10v 10h 1v -12v 10v -9h 1v 8v
 -6v 6h 1v -6v 6v -6h 1v 8v -8v 9h 1v -8v 7v -7h 1v 7v -10v 8h 1v -5v 6v -3h 1v -3v 6v -6v 6h 1v -7v 7v -8h 1v 8v -7v 9h 1v -9v 6v -4h 1v -1v 7v -8v 8h 1v -5v 4v -5h 1v -1v 7v -6v 3h 1v 1v -7v 9v -5h 1v -7v 13v -9v 7h 1v 1v -7v 7v -4h 1v -5v 8v -8v
 4h 1v 5v -9v 8v -1h 1v -8v 9v -7v 3h 1v 4v -6v 7h 1v -9v 8v -7v 4h 1v 2v -5v 6h 1v -9v 11v -6h 1v 4v -9v 11h 1v -9v 8v -7v 2h 1v 4v -6v 7h 1v -9v 8v -8v 4h 1v 5v -7v 8h 1v -11v 11v -11h 1v 10v -9v 8h 1v -8v 10v -10h 1v 9v -8v 8h 1v -8v 11v -10h 1v
 8v -10v 7h 1v -7v 7v -5v 2h 1v 6v -8v 9h 1v -8v 7v -7h 1v 5v -9v 11h 1v -8v 4v -6h 1v 10v -10v 9h 1v -6v 6v -6h 1v 6v -9v 8h 1v -7v 9v -5h 1v -2v 8v -10v 9h 1v -9v 6v -3h 1v 3v -6v 7h 1v -10v 11v -4h 1v -4v 10v -10v 7h 1v 1v -9v 7v -2h 1v -3v 5v -7v
 8h 1v -7v 9v -4h 1v -4v 6v -7v 7h 1v -8v 9h 1v -4v 3v -7v 3h 1v 6v -10v 9v -4h 1v -4v 8v -9v 5h 1v 4v -8v 6h 1v -7v 7v -5v 2h 1v 7v -10v 7h 1v -6v 7v -6v 1h 1v 4v -6v 10h 1v -13v 9v -9v 1h 1v 10v -10v 10h 1v -8v 6v -7h 1v 8v -7v 7h 1v -8v 9v -10h 1v
 8v -6v 8h 1v -11v 12v -11h 1v 9v -6v 5h 1v 1v -6v 4v -7h 1v 8v -5v 5h 1v 1v -9v 9v -9h 1v 7v -7v 6v -1h 1v -4v 6v -10h 1v 14v -11v 6h 1v -7v 8v -7h 1v 10v -8v 7h 1v -9v 9v -5h 1v 6v -8v 6h 1v -10v 13v -7h 1v 3v -8v 11h 1v -7v 6v -6h 1v -1v 6v -10v
 9h 1v 1v -5v 6v -7h 1v 7v -8v 9h 1v -7v 5v -1h 1v -9v 11v -7v 7h 1v -8v 6v -1h 1v -2v 3v -8v 7h 1v 2v -9v 10h 1v -7v 6v -7v 5h 1v 1v -5v 8h 1v -8v 6v -7v 3h 1v 5v -7v 6h 1v -7v 10v -9v 6h 1v 1v -8v 7h 1v -6v 8v -8h 1v 6v -8v 8h 1v -5v 2v -5v 1h 1v
 7v -7v 10h 1v -12v 10v -6h 1v 6v -4v 3h 1v -8v 10v -8h 1v 7v -8v 10h 1v -11v 11v -12h 1v 10v -7v 6h 1v -8v 9v -9h 1v 9v -5v 4h 1v -8v 6" fill="none" stroke="#000099"/>
<rect x="442" y="25" width="114" height="46" fill="white"/>
<path d="M442,71h 114" fill="none" stroke="black"/>
<path d="M556,71v -46" fill="none" stroke="black"/>
<path d="M556,25h -114" fill="none" stroke="black"/>
<path d="M442,25v 46" fill="none" stroke="black"/>
<text x="447" y="28" fill="black" font-size="4" font-family="Helvetica">
Entries 
</text>
<text x="535" y="28" fill="black" font-size="4" font-family="Helvetica">
 351500
</text>
<text x="450" y="35" fill="black" font-size="4" font-family="Helvetica">
 / ndf 
</text>
<text x="449" y="31" fill="black" font-size="3" font-family="Helvetica">
2
</text>
<text x="447" y="35" fill="black" font-size="4" font-family="Times">
&#0967;
</text>
<text x="526" y="34" fill="black" font-size="4" font-family="Helvetica">
  2433 / 1240
</text>
<text x="452" y="37" fill="black" font-size="4" font-family="Helvetica">
   
</text>
<text x="450" y="40" fill="black" font-size="3" font-family="Helvetica">
cu
</text>
<text x="447" y="37" fill="black" font-size="4" font-family="Helvetica">
N
</text>
<text x="541" y="40" fill="black" font-size="4" font-family="Helvetica">
 21.8
</text>
<text x="538" y="40" fill="black" font-size="4" font-family="Times">
&#0177;
</text>
<text x="526" y="40" fill="black" font-size="4" font-family="Helvetica">
 852.8 
</text>
<text x="450" y="43" fill="black" font-size="4" font-family="Helvetica">
 
</text>
<text x="448" y="46" fill="black" font-size="3" font-family="Helvetica">
cu
</text>
<text x="447" y="43" fill="black" font-size="4" font-family="Times">
&#0964;
</text>
<text x="543" y="45" fill="black" font-size="4" font-family="Helvetica">
 0.2
</text>
<text x="541" y="45" fill="black" font-size="4" font-family="Times">
&#0177;
</text>
<text x="529" y="45" fill="black" font-size="4" font-family="Helvetica">
 162.5 
</text>
<text x="450" y="48" fill="black" font-size="4" font-family="Helvetica">
    
</text>
<text x="450" y="51" fill="black" font-size="3" font-family="Helvetica">
f
</text>
<text x="447" y="48" fill="black" font-size="4" font-family="Helvetica">
N
</text>
<text x="543" y="50" fill="black" font-size="4" font-family="Helvetica">
 4.6
</text>
<text x="541" y="50" fill="black" font-size="4" font-family="Times">
&#0177;
</text>
<text x="529" y="50" fill="black" font-size="4" font-family="Helvetica">
 538.6 
</text>
<text x="448" y="53" fill="black" font-size="4" font-family="Helvetica">
 
</text>
<text x="448" y="57" fill="black" font-size="3" font-family="Helvetica">
f
</text>
<text x="447" y="53" fill="black" font-size="4" font-family="Times">
&#0964;
</text>
<text x="541" y="55" fill="black" font-size="4" font-family="Helvetica">
 21.6
</text>
<text x="538" y="55" fill="black" font-size="4" font-family="Times">
&#0177;
</text>
<text x="526" y="55" fill="black" font-size="4" font-family="Helvetica">
  2339 
</text>
<text x="452" y="58" fill="black" font-size="4" font-family="Helvetica">
  
</text>
<text x="450" y="61" fill="black" font-size="3" font-family="Helvetica">
sin
</text>
<text x="447" y="58" fill="black" font-size="4" font-family="Helvetica">
N
</text>
<text x="543" y="60" fill="black" font-size="4" font-family="Helvetica">
 0.5
</text>
<text x="541" y="60" fill="black" font-size="4" font-family="Times">
&#0177;
</text>
<text x="530" y="60" fill="black" font-size="4" font-family="Helvetica">
  33.2 
</text>
<text x="447" y="65" fill="black" font-size="4" font-family="Helvetica">
T        
</text>
<text x="541" y="66" fill="black" font-size="4" font-family="Helvetica">
 0.00
</text>
<text x="538" y="66" fill="black" font-size="4" font-family="Times">
&#0177;
</text>
<text x="526" y="66" fill="black" font-size="4" font-family="Helvetica">
 59.39 
</text>
<text x="450" y="68" fill="black" font-size="4" font-family="Helvetica">
    
</text>
<text x="450" y="71" fill="black" font-size="3" font-family="Helvetica">
b
</text>
<text x="447" y="68" fill="black" font-size="4" font-family="Helvetica">
N
</text>
<text x="543" y="71" fill="black" font-size="4" font-family="Helvetica">
 0.4
</text>
<text x="541" y="71" fill="black" font-size="4" font-family="Times">
&#0177;
</text>
<text x="529" y="71" fill="black" font-size="4" font-family="Helvetica">
 112.8 
</text>
<path d="M284,178v 3" fill="none" stroke="#ff0000" stroke-width="2"/>
<path d="M285,181v 30" fill="none" stroke="#ff0000" stroke-width="2"/>
<path d="M285,212v 24" fill="none" stroke="#ff0000" stroke-width="2"/>
<path d="M286,235v 15" fill="none" stroke="#ff0000" stroke-width="2"/>
<path d="M287,245v 13" fill="none" stroke="#ff0000" stroke-width="2"/>
<path d="M288,251v 13" fill="none" stroke="#ff0000" stroke-width="2"/>
<path d="M289,257v 12" fill="none" stroke="#ff0000" stroke-width="2"/>
<path d="M289,264v 9" fill="none" stroke="#ff0000" stroke-width="2"/>
<path d="M290,267v 10" fill="none" stroke="#ff0000" stroke-width="2"/>
<path d="M291,269v 10" fill="none" stroke="#ff0000" stroke-width="2"/>
<path d="M292,271v 10" fill="none" stroke="#ff0000" stroke-width="2"/>
<path d="M293,273v 10" fill="none" stroke="#ff0000" stroke-width="2"/>
<path d="M293,276v 10" fill="none" stroke="#ff0000" stroke-width="2"/>
<path d="M294,277v 10" fill="none" stroke="#ff0000" stroke-width="2"/>
<path d="M295,278v 10" fill="none" stroke="#ff0000" stroke-width="2"/>
<path d="M296,280v 10" fill="none" stroke="#ff0000" stroke-width="2"/>
<path d="M297,282v 9" fill="none" stroke="#ff0000" stroke-width="2"/>
<path d="M298,283v 10" fill="none" stroke="#ff0000" stroke-width="2"/>
<path d="M298,285v 9" fill="none" stroke="#ff0000" stroke-width="2"/>
<path d="M299,286v 9" fill="none" stroke="#ff0000" stroke-width="2"/>
<path d="M300,286v 10" fill="none" stroke="#ff0000" stroke-width="2"/>
<path d="M301,289v 8" fill="none" stroke="#ff0000" stroke-width="2"/>
<path d="M302,290v 9" fill="none" stroke="#ff0000" stroke-width="2"/>
<path d="M302,291v 9" fill="none" stroke="#ff0000" stroke-width="2"/>
<path d="M303,291v 10" fill="none" stroke="#ff0000" stroke-width="2"/>
<path d="M304,292v 10" fill="none" stroke="#ff0000" stroke-width="2"/>
<path d="M305,294v 9" fill="none" stroke="#ff0000" stroke-width="2"/>
<path d="M306,295v 9" fill="none" stroke="#ff0000" stroke-width="2"/>
<path d="M307,295v 10" fill="none" stroke="#ff0000" stroke-width="2"/>
<path d="M307,296v 10" fill="none" stroke="#ff0000" stroke-width="2"/>
<path d="M308,297v 9" fill="none" stroke="#ff0000" stroke-width="2"/>
<path d="M309,299v 9" fill="none" stroke="#ff0000" stroke-width="2"/>
<path d="M310,299v 9" fill="none" stroke="#ff0000" stroke-width="2"/>
<path d="M311,299v 10" fill="none" stroke="#ff0000" stroke-width="2"/>
<path d="M311,300v 10" fill="none" stroke="#ff0000" stroke-width="2"/>
<path d="M312,302v 9" fill="none" stroke="#ff0000" stroke-width="2"/>
<path d="M313,303v 9" fill="none" stroke="#ff0000" stroke-width="2"/>
<path d="M314,303v 10" fill="none" stroke="#ff0000" stroke-width="2"/>
<path d="M315,304v 9" fill="none" stroke="#ff0000" stroke-width="2"/>
<path d="M315,304v 9" fill="none" stroke="#ff0000" stroke-width="2"/>
<path d="M316,305v 9" fill="none" stroke="#ff0000" stroke-width="2"/>
<path d="M317,306v 9" fill="none" stroke="#ff0000" stroke-width="2"/>
<path d="M318,306v 10" fill="none" stroke="#ff0000" stroke-width="2"/>
<path d="M319,307v 9" fill="none" stroke="#ff0000" stroke-width="2"/>
<path d="M320,308v 9" fill="none" stroke="#ff0000" stroke-width="2"/>
<path d="M320,308v 9" fill="none" stroke="#ff0000" stroke-width="2"/>
<path d="M321,308v 10" fill="none" stroke="#ff0000" stroke-width="2"/>
<path d="M322,309v 9" fill="none" stroke="#ff0000" stroke-width="2"/>
<path d="M323,309v 10" fill="none" stroke="#ff0000" stroke-width="2"/>
<path d="M324,310v 9" fill="none" stroke="#ff0000" stroke-width="2"/>
<path d="M324,311v 9" fill="none" stroke="#ff0000" stroke-width="2"/>
<path d="M325,311v 10" fill="none" stroke="#ff0000" stroke-width="2"/>
<path d="M326,312v 9" fill="none" stroke="#ff0000" stroke-width="2"/>
<path d="M327,312v 9" fill="none" stroke="#ff0000" stroke-width="2"/>
<path d="M328,313v 8" fill="none" stroke="#ff0000" stroke-width="2"/>
<path d="M329,313v 9" fill="none" stroke="#ff0000" stroke-width="2"/>
<path d="M329,313v 9" fill="none" stroke="#ff0000" stroke-width="2"/>
<path d="M330,313v 10" fill="none" stroke="#ff0000" stroke-width="2"/>
<path d="M331,314v 9" fill="none" stroke="#ff0000" stroke-width="2"/>
<path d="M332,314v 9" fill="none" stroke="#ff0000" stroke-width="2"/>
<path d="M333,315v 9" fill="none" stroke="#ff0000" stroke-width="2"/>
<path d="M333,315v 9" fill="none" stroke="#ff0000" stroke-width="2"/>
<path d="M334,316v 9" fill="none" stroke="#ff0000" stroke-width="2"/>
<path d="M335,316v 9" fill="none" stroke="#ff0000" stroke-width="2"/>
<path d="M336,316v 9" fill="none" stroke="#ff0000" stroke-width="2"/>
<path d="M337,317v 9" fill="none" stroke="#ff0000" stroke-width="2"/>
<path d="M337,317v 9" fill="none" stroke="#ff0000" stroke-width="2"/>
<path d="M338,317v 9" fill="none" stroke="#ff0000" stroke-width="2"/>
<path d="M339,317v 9" fill="none" stroke="#ff0000" stroke-width="2"/>
<path d="M340,317v 9" fill="none" stroke="#ff0000" stroke-width="2"/>
<path d="M341,317v 10" fill="none" stroke="#ff0000" stroke-width="2"/>
<path d="M342,318v 9" fill="none" stroke="#ff0000" stroke-width="2"/>
<path d="M342,318v 9" fill="none" stroke="#ff0000" stroke-width="2"/>
<path d="M343,318v 9" fill="none" stroke="#ff0000" stroke-width="2"/>
<path d="M344,319v 9" fill="none" stroke="#ff0000" stroke-width="2"/>
<path d="M345,319v 9" fill="none" stroke="#ff0000" stroke-width="2"/>
<path d="M346,319v 9" fill="none" stroke="#ff0000" stroke-width="2"/>
<path d="M346,319v 10" fill="none" stroke="#ff0000" stroke-width="2"/>
<path d="M347,320v 9" fill="none" stroke="#ff0000" stroke-width="2"/>
<path d="M348,320v 9" fill="none" stroke="#ff0000" stroke-width="2"/>
<path d="M349,320v 9" fill="none" stroke="#ff0000" stroke-width="2"/>
<path d="M350,320v 10" fill="none" stroke="#ff0000" stroke-width="2"/>
<path d="M351,321v 9" fill="none" stroke="#ff0000" stroke-width="2"/>
<path d="M351,321v 9" fill="none" stroke="#ff0000" stroke-width="2"/>
<path d="M352,321v 9" fill="none" stroke="#ff0000" stroke-width="2"/>
<path d="M353,321v 9" fill="none" stroke="#ff0000" stroke-width="2"/>
<path d="M354,321v 9" fill="none" stroke="#ff0000" stroke-width="2"/>
<path d="M355,321v 9" fill="none" stroke="#ff0000" stroke-width="2"/>
<path d="M355,321v 9" fill="none" stroke="#ff0000" stroke-width="2"/>
<path d="M356,321v 9" fill="none" stroke="#ff0000" stroke-width="2"/>
<path d="M357,321v 9" fill="none" stroke="#ff0000" stroke-width="2"/>
<path d="M358,321v 9" fill="none" stroke="#ff0000" stroke-width="2"/>
<path d="M359,322v 9" fill="none" stroke="#ff0000" stroke-width="2"/>
<path d="M359,322v 9" fill="none" stroke="#ff0000" stroke-width="2"/>
<path d="M360,322v 9" fill="none" stroke="#ff0000" stroke-width="2"/>
<path d="M361,322v 9" fill="none" stroke="#ff0000" stroke-width="2"/>
<path d="M362,322v 9" fill="none" stroke="#ff0000" stroke-width="2"/>
<path d="M363,322v 9" fill="none" stroke="#ff0000" stroke-width="2"/>
<path d="M364,322v 10" fill="none" stroke="#ff0000" stroke-width="2"/>
<path d="M364,323v 9" fill="none" stroke="#ff0000" stroke-width="2"/>
<path d="M365,323v 9" fill="none" stroke="#ff0000" stroke-width="2"/>
<path d="M366,323v 9" fill="none" stroke="#ff0000" stroke-width="2"/>
<path d="M367,323v 9" fill="none" stroke="#ff0000" stroke-width="2"/>
<path d="M368,323v 9" fill="none" stroke="#ff0000" stroke-width="2"/>
<path d="M368,323v 9" fill="none" stroke="#ff0000" stroke-width="2"/>
<path d="M369,323v 9" fill="none" stroke="#ff0000" stroke-width="2"/>
<path d="M370,323v 9" fill="none" stroke="#ff0000" stroke-width="2"/>
<path d="M371,324v 9" fill="none" stroke="#ff0000" stroke-width="2"/>
<path d="M372,324v 9" fill="none" stroke="#ff0000" stroke-width="2"/>
<path d="M372,324v 9" fill="none" stroke="#ff0000" stroke-width="2"/>
<path d="M373,324v 9" fill="none" stroke="#ff0000" stroke-width="2"/>
<path d="M374,324v 9" fill="none" stroke="#ff0000" stroke-width="2"/>
<path d="M375,324v 9" fill="none" stroke="#ff0000" stroke-width="2"/>
<path d="M376,324v 9" fill="none" stroke="#ff0000" stroke-width="2"/>
<path d="M377,324v 9" fill="none" stroke="#ff0000" stroke-width="2"/>
<path d="M377,324v 9" fill="none" stroke="#ff0000" stroke-width="2"/>
<path d="M378,324v 9" fill="none" stroke="#ff0000" stroke-width="2"/>
<path d="M379,324v 9" fill="none" stroke="#ff0000" stroke-width="2"/>
<path d="M380,324v 10" fill="none" stroke="#ff0000" stroke-width="2"/>
<path d="M381,325v 9" fill="none" stroke="#ff0000" stroke-width="2"/>
<path d="M381,325v 9" fill="none" stroke="#ff0000" stroke-width="2"/>
<path d="M382,325v 9" fill="none" stroke="#ff0000" stroke-width="2"/>
<path d="M383,325v 9" fill="none" stroke="#ff0000" stroke-width="2"/>
<path d="M384,325v 9" fill="none" stroke="#ff0000" stroke-width="2"/>
<path d="M385,325v 9" fill="none" stroke="#ff0000" stroke-width="2"/>
<path d="M386,325v 9" fill="none" stroke="#ff0000" stroke-width="2"/>
<path d="M386,325v 9" fill="none" stroke="#ff0000" stroke-width="2"/>
<path d="M387,325v 9" fill="none" stroke="#ff0000" stroke-width="2"/>
<path d="M388,325v 9" fill="none" stroke="#ff0000" stroke-width="2"/>
<path d="M389,325v 9" fill="none" stroke="#ff0000" stroke-width="2"/>
<path d="M390,325v 9" fill="none" stroke="#ff0000" stroke-width="2"/>
<path d="M390,325v 9" fill="none" stroke="#ff0000" stroke-width="2"/>
<path d="M391,325v 9" fill="none" stroke="#ff0000" stroke-width="2"/>
<path d="M392,325v 9" fill="none" stroke="#ff0000" stroke-width="2"/>
<path d="M393,325v 9" fill="none" stroke="#ff0000" stroke-width="2"/>
<path d="M394,325v 9" fill="none" stroke="#ff0000" stroke-width="2"/>
<path d="M394,325v 9" fill="none" stroke="#ff0000" stroke-width="2"/>
<path d="M395,326v 8" fill="none" stroke="#ff0000" stroke-width="2"/>
<path d="M396,326v 8" fill="none" stroke="#ff0000" stroke-width="2"/>
<path d="M397,326v 8" fill="none" stroke="#ff0000" stroke-width="2"/>
<path d="M398,326v 8" fill="none" stroke="#ff0000" stroke-width="2"/>
<path d="M399,326v 8" fill="none" stroke="#ff0000" stroke-width="2"/>
<path d="M399,326v 8" fill="none" stroke="#ff0000" stroke-width="2"/>
<path d="M400,326v 8" fill="none" stroke="#ff0000" stroke-width="2"/>
<path d="M401,326v 8" fill="none" stroke="#ff0000" stroke-width="2"/>
<path d="M402,326v 8" fill="none" stroke="#ff0000" stroke-width="2"/>
<path d="M403,326v 8" fill="none" stroke="#ff0000" stroke-width="2"/>
<path d="M403,326v 8" fill="none" stroke="#ff0000" stroke-width="2"/>
<path d="M404,326v 8" fill="none" stroke="#ff0000" stroke-width="2"/>
<path d="M405,326v 8" fill="none" stroke="#ff0000" stroke-width="2"/>
<path d="M406,326v 8" fill="none" stroke="#ff0000" stroke-width="2"/>
<path d="M407,326v 8" fill="none" stroke="#ff0000" stroke-width="2"/>
<path d="M408,326v 8" fill="none" stroke="#ff0000" stroke-width="2"/>
<path d="M408,326v 8" fill="none" stroke="#ff0000" stroke-width="2"/>
<path d="M409,326v 8" fill="none" stroke="#ff0000" stroke-width="2"/>
<path d="M410,326v 8" fill="none" stroke="#ff0000" stroke-width="2"/>
<path d="M411,326v 8" fill="none" stroke="#ff0000" stroke-width="2"/>
<path d="M412,326v 8" fill="none" stroke="#ff0000" stroke-width="2"/>
<path d="M412,326v 8" fill="none" stroke="#ff0000" stroke-width="2"/>
<path d="M413,326v 8" fill="none" stroke="#ff0000" stroke-width="2"/>
<path d="M414,326v 8" fill="none" stroke="#ff0000" stroke-width="2"/>
<path d="M415,326v 8" fill="none" stroke="#ff0000" stroke-width="2"/>
<path d="M416,326v 8" fill="none" stroke="#ff0000" stroke-width="2"/>
<path d="M416,326v 8" fill="none" stroke="#ff0000" stroke-width="2"/>
<path d="M417,326v 8" fill="none" stroke="#ff0000" stroke-width="2"/>
<path d="M418,326v 8" fill="none" stroke="#ff0000" stroke-width="2"/>
<path d="M419,326v 8" fill="none" stroke="#ff0000" stroke-width="2"/>
<path d="M420,326v 8" fill="none" stroke="#ff0000" stroke-width="2"/>
<path d="M421,326v 8" fill="none" stroke="#ff0000" stroke-width="2"/>
<path d="M421,326v 8" fill="none" stroke="#ff0000" stroke-width="2"/>
<path d="M422,326v 8" fill="none" stroke="#ff0000" stroke-width="2"/>
<path d="M423,326v 8" fill="none" stroke="#ff0000" stroke-width="2"/>
<path d="M424,326v 8" fill="none" stroke="#ff0000" stroke-width="2"/>
<path d="M425,326v 8" fill="none" stroke="#ff0000" stroke-width="2"/>
<path d="M425,326v 8" fill="none" stroke="#ff0000" stroke-width="2"/>
<path d="M426,326v 8" fill="none" stroke="#ff0000" stroke-width="2"/>
<path d="M427,326v 8" fill="none" stroke="#ff0000" stroke-width="2"/>
<path d="M428,326v 9" fill="none" stroke="#ff0000" stroke-width="2"/>
<path d="M429,326v 9" fill="none" stroke="#ff0000" stroke-width="2"/>
<path d="M430,326v 9" fill="none" stroke="#ff0000" stroke-width="2"/>
<path d="M430,326v 9" fill="none" stroke="#ff0000" stroke-width="2"/>
<path d="M431,326v 9" fill="none" stroke="#ff0000" stroke-width="2"/>
<path d="M432,326v 9" fill="none" stroke="#ff0000" stroke-width="2"/>
<path d="M433,326v 9" fill="none" stroke="#ff0000" stroke-width="2"/>
<path d="M434,326v 9" fill="none" stroke="#ff0000" stroke-width="2"/>
<path d="M434,326v 9" fill="none" stroke="#ff0000" stroke-width="2"/>
<path d="M435,326v 9" fill="none" stroke="#ff0000" stroke-width="2"/>
<path d="M436,326v 9" fill="none" stroke="#ff0000" stroke-width="2"/>
<path d="M437,326v 9" fill="none" stroke="#ff0000" stroke-width="2"/>
<path d="M438,326v 9" fill="none" stroke="#ff0000" stroke-width="2"/>
<path d="M438,326v 9" fill="none" stroke="#ff0000" stroke-width="2"/>
<path d="M439,326v 9" fill="none" stroke="#ff0000" stroke-width="2"/>
<path d="M440,326v 9" fill="none" stroke="#ff0000" stroke-width="2"/>
<path d="M441,326v 9" fill="none" stroke="#ff0000" stroke-width="2"/>
<path d="M442,326v 9" fill="none" stroke="#ff0000" stroke-width="2"/>
<path d="M443,326v 9" fill="none" stroke="#ff0000" stroke-width="2"/>
<path d="M443,326v 9" fill="none" stroke="#ff0000" stroke-width="2"/>
<path d="M444,326v 9" fill="none" stroke="#ff0000" stroke-width="2"/>
<path d="M445,326v 9" fill="none" stroke="#ff0000" stroke-width="2"/>
<path d="M446,326v 9" fill="none" stroke="#ff0000" stroke-width="2"/>
<path d="M447,326v 9" fill="none" stroke="#ff0000" stroke-width="2"/>
<path d="M447,326v 9" fill="none" stroke="#ff0000" stroke-width="2"/>
<path d="M448,326v 9" fill="none" stroke="#ff0000" stroke-width="2"/>
<path d="M449,326v 9" fill="none" stroke="#ff0000" stroke-width="2"/>
<path d="M450,326v 9" fill="none" stroke="#ff0000" stroke-width="2"/>
<path d="M451,326v 9" fill="none" stroke="#ff0000" stroke-width="2"/>
<path d="M452,326v 9" fill="none" stroke="#ff0000" stroke-width="2"/>
<path d="M452,326v 9" fill="none" stroke="#ff0000" stroke-width="2"/>
<path d="M453,326v 9" fill="none" stroke="#ff0000" stroke-width="2"/>
<path d="M454,326v 9" fill="none" stroke="#ff0000" stroke-width="2"/>
<path d="M455,326v 9" fill="none" stroke="#ff0000" stroke-width="2"/>
<path d="M456,326v 9" fill="none" stroke="#ff0000" stroke-width="2"/>
<path d="M456,326v 9" fill="none" stroke="#ff0000" stroke-width="2"/>
<path d="M457,326v 9" fill="none" stroke="#ff0000" stroke-width="2"/>
<path d="M458,326v 9" fill="none" stroke="#ff0000" stroke-width="2"/>
<path d="M459,326v 9" fill="none" stroke="#ff0000" stroke-width="2"/>
<path d="M460,326v 9" fill="none" stroke="#ff0000" stroke-width="2"/>
<path d="M460,326v 9" fill="none" stroke="#ff0000" stroke-width="2"/>
<path d="M461,326v 9" fill="none" stroke="#ff0000" stroke-width="2"/>
<path d="M462,326v 9" fill="none" stroke="#ff0000" stroke-width="2"/>
<path d="M463,326v 9" fill="none" stroke="#ff0000" stroke-width="2"/>
<path d="M464,326v 9" fill="none" stroke="#ff0000" stroke-width="2"/>
<path d="M465,326v 9" fill="none" stroke="#ff0000" stroke-width="2"/>
<path d="M465,326v 9" fill="none" stroke="#ff0000" stroke-width="2"/>
<path d="M466,326v 9" fill="none" stroke="#ff0000" stroke-width="2"/>
<path d="M467,326v 9" fill="none" stroke="#ff0000" stroke-width="2"/>
<path d="M468,326v 9" fill="none" stroke="#ff0000" stroke-width="2"/>
<path d="M469,326v 9" fill="none" stroke="#ff0000" stroke-width="2"/>
<path d="M469,326v 9" fill="none" stroke="#ff0000" stroke-width="2"/>
<path d="M470,326v 9" fill="none" stroke="#ff0000" stroke-width="2"/>
<path d="M471,326v 9" fill="none" stroke="#ff0000" stroke-width="2"/>
<path d="M472,326v 9" fill="none" stroke="#ff0000" stroke-width="2"/>
<path d="M473,326v 9" fill="none" stroke="#ff0000" stroke-width="2"/>
<path d="M473,326v 9" fill="none" stroke="#ff0000" stroke-width="2"/>
<path d="M474,326v 9" fill="none" stroke="#ff0000" stroke-width="2"/>
<path d="M475,326v 9" fill="none" stroke="#ff0000" stroke-width="2"/>
<path d="M476,326v 9" fill="none" stroke="#ff0000" stroke-width="2"/>
<path d="M477,326v 9" fill="none" stroke="#ff0000" stroke-width="2"/>
<path d="M478,326v 9" fill="none" stroke="#ff0000" stroke-width="2"/>
<path d="M478,326v 9" fill="none" stroke="#ff0000" stroke-width="2"/>
<path d="M479,326v 9" fill="none" stroke="#ff0000" stroke-width="2"/>
<path d="M480,326v 9" fill="none" stroke="#ff0000" stroke-width="2"/>
<path d="M481,326v 9" fill="none" stroke="#ff0000" stroke-width="2"/>
<path d="M482,326v 9" fill="none" stroke="#ff0000" stroke-width="2"/>
<path d="M482,326v 9" fill="none" stroke="#ff0000" stroke-width="2"/>
<path d="M483,326v 9" fill="none" stroke="#ff0000" stroke-width="2"/>
<path d="M484,326v 9" fill="none" stroke="#ff0000" stroke-width="2"/>
<path d="M485,326v 9" fill="none" stroke="#ff0000" stroke-width="2"/>
<path d="M486,326v 9" fill="none" stroke="#ff0000" stroke-width="2"/>
<path d="M487,326v 9" fill="none" stroke="#ff0000" stroke-width="2"/>
<path d="M487,326v 9" fill="none" stroke="#ff0000" stroke-width="2"/>
<path d="M488,326v 9" fill="none" stroke="#ff0000" stroke-width="2"/>
<path d="M489,326v 9" fill="none" stroke="#ff0000" stroke-width="2"/>
<path d="M490,326v 9" fill="none" stroke="#ff0000" stroke-width="2"/>
<path d="M491,326v 9" fill="none" stroke="#ff0000" stroke-width="2"/>
<path d="M491,326v 9" fill="none" stroke="#ff0000" stroke-width="2"/>
<path d="M492,326v 9" fill="none" stroke="#ff0000" stroke-width="2"/>
<path d="M493,326v 9" fill="none" stroke="#ff0000" stroke-width="2"/>
<path d="M494,326v 9" fill="none" stroke="#ff0000" stroke-width="2"/>
<path d="M495,326v 9" fill="none" stroke="#ff0000" stroke-width="2"/>
<path d="M495,326v 9" fill="none" stroke="#ff0000" stroke-width="2"/>
<path d="M496,326v 9" fill="none" stroke="#ff0000" stroke-width="2"/>
<path d="M497,326v 9" fill="none" stroke="#ff0000" stroke-width="2"/>
<path d="M498,326v 9" fill="none" stroke="#ff0000" stroke-width="2"/>
<path d="M499,326v 9" fill="none" stroke="#ff0000" stroke-width="2"/>
<path d="M500,326v 9" fill="none" stroke="#ff0000" stroke-width="2"/>
<path d="M500,326v 9" fill="none" stroke="#ff0000" stroke-width="2"/>
<path d="M501,326v 9" fill="none" stroke="#ff0000" stroke-width="2"/>
<path d="M502,326v 9" fill="none" stroke="#ff0000" stroke-width="2"/>
<path d="M503,326v 9" fill="none" stroke="#ff0000" stroke-width="2"/>
<path d="M504,326v 9" fill="none" stroke="#ff0000" stroke-width="2"/>
<path d="M504,326v 9" fill="none" stroke="#ff0000" stroke-width="2"/>
<path d="M505,326v 9" fill="none" stroke="#ff0000" stroke-width="2"/>
<path d="M506,326v 9" fill="none" stroke="#ff0000" stroke-width="2"/>
<path d="M507,326v 9" fill="none" stroke="#ff0000" stroke-width="2"/>
<path d="M508,326v 9" fill="none" stroke="#ff0000" stroke-width="2"/>
<path d="M509,326v 9" fill="none" stroke="#ff0000" stroke-width="2"/>
<path d="M509,326v 9" fill="none" stroke="#ff0000" stroke-width="2"/>
<path d="M510,326v 9" fill="none" stroke="#ff0000" stroke-width="2"/>
<path d="M284,179l 1, 17v 28l 1, 18l 1, 9l 1, 6l 1, 6v 6l 1, 3l 1, 2l 1, 2l 1, 2v 3l 1, 1l 1, 1l 1, 2l 1, 1l 1, 2v 1l 1, 2h 1l 1, 2l 1, 1v 1l 1, 1l 1, 1l 1, 1l 1, 1l 1, 1v 1h 1l 1, 2l 1, 1h 1v 1l 1, 1l 1, 1l 1, 1h 1l 1, 1l 1, 1l 1, 1h 1l 1, 1v 1h 2l
 1, 1h 1v 1l 1, 1h 1l 1, 1h 2l 1, 1h 2l 1, 1l 1, 1h 2l 1, 1h 3l 1, 1h 2l 1, 1h 2v 1h 3l 1, 1h 3l 1, 1h 9l 1, 1h 6l 1, 1h 8l 1, 1h 14v 1h 116" fill="none" stroke="#ff0000" stroke-width="2"/>
<path d="M57,346h 453" fill="none" stroke="black"/>
<text x="419" y="372" fill="black" font-size="12" font-family="Helvetica">
TDC-TDC0 (ns)
</text>
<path d="M57,337v 9" fill="none" stroke="black"/>
<path d="M68,342v 4" fill="none" stroke="black"/>
<path d="M79,342v 4" fill="none" stroke="black"/>
<path d="M91,342v 4" fill="none" stroke="black"/>
<path d="M102,342v 4" fill="none" stroke="black"/>
<path d="M113,337v 9" fill="none" stroke="black"/>
<path d="M125,342v 4" fill="none" stroke="black"/>
<path d="M136,342v 4" fill="none" stroke="black"/>
<path d="M147,342v 4" fill="none" stroke="black"/>
<path d="M159,342v 4" fill="none" stroke="black"/>
<path d="M170,337v 9" fill="none" stroke="black"/>
<path d="M181,342v 4" fill="none" stroke="black"/>
<path d="M193,342v 4" fill="none" stroke="black"/>
<path d="M204,342v 4" fill="none" stroke="black"/>
<path d="M215,342v 4" fill="none" stroke="black"/>
<path d="M227,337v 9" fill="none" stroke="black"/>
<path d="M238,342v 4" fill="none" stroke="black"/>
<path d="M249,342v 4" fill="none" stroke="black"/>
<path d="M261,342v 4" fill="none" stroke="black"/>
<path d="M272,342v 4" fill="none" stroke="black"/>
<path d="M283,337v 9" fill="none" stroke="black"/>
<path d="M295,342v 4" fill="none" stroke="black"/>
<path d="M306,342v 4" fill="none" stroke="black"/>
<path d="M317,342v 4" fill="none" stroke="black"/>
<path d="M329,342v 4" fill="none" stroke="black"/>
<path d="M340,337v 9" fill="none" stroke="black"/>
<path d="M351,342v 4" fill="none" stroke="black"/>
<path d="M363,342v 4" fill="none" stroke="black"/>
<path d="M374,342v 4" fill="none" stroke="black"/>
<path d="M386,342v 4" fill="none" stroke="black"/>
<path d="M397,337v 9" fill="none" stroke="black"/>
<path d="M408,342v 4" fill="none" stroke="black"/>
<path d="M420,342v 4" fill="none" stroke="black"/>
<path d="M431,342v 4" fill="none" stroke="black"/>
<path d="M442,342v 4" fill="none" stroke="black"/>
<path d="M454,337v 9" fill="none" stroke="black"/>
<path d="M465,342v 4" fill="none" stroke="black"/>
<path d="M476,342v 4" fill="none" stroke="black"/>
<path d="M488,342v 4" fill="none" stroke="black"/>
<path d="M499,342v 4" fill="none" stroke="black"/>
<path d="M510,337v 9" fill="none" stroke="black"/>
<text x="36" y="359" fill="black" font-size="12" font-family="Helvetica">
-20000
</text>
<text x="93" y="359" fill="black" font-size="12" font-family="Helvetica">
-15000
</text>
<text x="149" y="359" fill="black" font-size="12" font-family="Helvetica">
-10000
</text>
<text x="210" y="359" fill="black" font-size="12" font-family="Helvetica">
-5000
</text>
<text x="280" y="359" fill="black" font-size="12" font-family="Helvetica">
0
</text>
<text x="325" y="359" fill="black" font-size="12" font-family="Helvetica">
5000
</text>
<text x="379" y="359" fill="black" font-size="12" font-family="Helvetica">
10000
</text>
<text x="435" y="359" fill="black" font-size="12" font-family="Helvetica">
15000
</text>
<text x="492" y="359" fill="black" font-size="12" font-family="Helvetica">
20000
</text>
<path d="M57,346v -308" fill="none" stroke="black"/>
<g transform="rotate(-90,29,72)">
<text x="29" y="72" fill="black" font-size="12" font-family="Helvetica">
Count
</text>
</g>
<path d="M70,346h -13" fill="none" stroke="black"/>
<path d="M63,340h -6" fill="none" stroke="black"/>
<path d="M63,333h -6" fill="none" stroke="black"/>
<path d="M63,326h -6" fill="none" stroke="black"/>
<path d="M70,319h -13" fill="none" stroke="black"/>
<path d="M63,312h -6" fill="none" stroke="black"/>
<path d="M63,306h -6" fill="none" stroke="black"/>
<path d="M63,299h -6" fill="none" stroke="black"/>
<path d="M70,292h -13" fill="none" stroke="black"/>
<path d="M63,285h -6" fill="none" stroke="black"/>
<path d="M63,278h -6" fill="none" stroke="black"/>
<path d="M63,272h -6" fill="none" stroke="black"/>
<path d="M70,265h -13" fill="none" stroke="black"/>
<path d="M63,258h -6" fill="none" stroke="black"/>
<path d="M63,251h -6" fill="none" stroke="black"/>
<path d="M63,244h -6" fill="none" stroke="black"/>
<path d="M70,238h -13" fill="none" stroke="black"/>
<path d="M63,231h -6" fill="none" stroke="black"/>
<path d="M63,224h -6" fill="none" stroke="black"/>
<path d="M63,217h -6" fill="none" stroke="black"/>
<path d="M70,210h -13" fill="none" stroke="black"/>
<path d="M63,204h -6" fill="none" stroke="black"/>
<path d="M63,197h -6" fill="none" stroke="black"/>
<path d="M63,190h -6" fill="none" stroke="black"/>
<path d="M70,183h -13" fill="none" stroke="black"/>
<path d="M63,176h -6" fill="none" stroke="black"/>
<path d="M63,170h -6" fill="none" stroke="black"/>
<path d="M63,163h -6" fill="none" stroke="black"/>
<path d="M70,156h -13" fill="none" stroke="black"/>
<path d="M63,149h -6" fill="none" stroke="black"/>
<path d="M63,142h -6" fill="none" stroke="black"/>
<path d="M63,136h -6" fill="none" stroke="black"/>
<path d="M70,129h -13" fill="none" stroke="black"/>
<path d="M63,122h -6" fill="none" stroke="black"/>
<path d="M63,115h -6" fill="none" stroke="black"/>
<path d="M63,108h -6" fill="none" stroke="black"/>
<path d="M70,102h -13" fill="none" stroke="black"/>
<path d="M63,95h -6" fill="none" stroke="black"/>
<path d="M63,88h -6" fill="none" stroke="black"/>
<path d="M63,81h -6" fill="none" stroke="black"/>
<path d="M70,74h -13" fill="none" stroke="black"/>
<path d="M63,67h -6" fill="none" stroke="black"/>
<path d="M63,61h -6" fill="none" stroke="black"/>
<path d="M63,54h -6" fill="none" stroke="black"/>
<path d="M70,47h -13" fill="none" stroke="black"/>
<path d="M70,47h -13" fill="none" stroke="black"/>
<path d="M63,40h -6" fill="none" stroke="black"/>
<text x="47" y="350" fill="black" font-size="12" font-family="Helvetica">
0
</text>
<text x="33" y="323" fill="black" font-size="12" font-family="Helvetica">
200
</text>
<text x="33" y="295" fill="black" font-size="12" font-family="Helvetica">
400
</text>
<text x="33" y="269" fill="black" font-size="12" font-family="Helvetica">
600
</text>
<text x="33" y="242" fill="black" font-size="12" font-family="Helvetica">
800
</text>
<text x="25" y="214" fill="black" font-size="12" font-family="Helvetica">
1000
</text>
<text x="25" y="187" fill="black" font-size="12" font-family="Helvetica">
1200
</text>
<text x="25" y="159" fill="black" font-size="12" font-family="Helvetica">
1400
</text>
<text x="25" y="132" fill="black" font-size="12" font-family="Helvetica">
1600
</text>
<text x="25" y="105" fill="black" font-size="12" font-family="Helvetica">
1800
</text>
<text x="25" y="78" fill="black" font-size="12" font-family="Helvetica">
2000
</text>
<text x="25" y="51" fill="black" font-size="12" font-family="Helvetica">
2200
</text>
<rect x="442" y="25" width="114" height="46" fill="white"/>
<path d="M442,71h 114" fill="none" stroke="black"/>
<path d="M556,71v -46" fill="none" stroke="black"/>
<path d="M556,25h -114" fill="none" stroke="black"/>
<path d="M442,25v 46" fill="none" stroke="black"/>
<text x="447" y="28" fill="black" font-size="4" font-family="Helvetica">
Entries 
</text>
<text x="535" y="28" fill="black" font-size="4" font-family="Helvetica">
 351500
</text>
<text x="450" y="35" fill="black" font-size="4" font-family="Helvetica">
 / ndf 
</text>
<text x="449" y="31" fill="black" font-size="3" font-family="Helvetica">
2
</text>
<text x="447" y="35" fill="black" font-size="4" font-family="Times">
&#0967;
</text>
<text x="526" y="34" fill="black" font-size="4" font-family="Helvetica">
  2433 / 1240
</text>
<text x="452" y="37" fill="black" font-size="4" font-family="Helvetica">
   
</text>
<text x="450" y="40" fill="black" font-size="3" font-family="Helvetica">
cu
</text>
<text x="447" y="37" fill="black" font-size="4" font-family="Helvetica">
N
</text>
<text x="541" y="40" fill="black" font-size="4" font-family="Helvetica">
 21.8
</text>
<text x="538" y="40" fill="black" font-size="4" font-family="Times">
&#0177;
</text>
<text x="526" y="40" fill="black" font-size="4" font-family="Helvetica">
 852.8 
</text>
<text x="450" y="43" fill="black" font-size="4" font-family="Helvetica">
 
</text>
<text x="448" y="46" fill="black" font-size="3" font-family="Helvetica">
cu
</text>
<text x="447" y="43" fill="black" font-size="4" font-family="Times">
&#0964;
</text>
<text x="543" y="45" fill="black" font-size="4" font-family="Helvetica">
 0.2
</text>
<text x="541" y="45" fill="black" font-size="4" font-family="Times">
&#0177;
</text>
<text x="529" y="45" fill="black" font-size="4" font-family="Helvetica">
 162.5 
</text>
<text x="450" y="48" fill="black" font-size="4" font-family="Helvetica">
    
</text>
<text x="450" y="51" fill="black" font-size="3" font-family="Helvetica">
f
</text>
<text x="447" y="48" fill="black" font-size="4" font-family="Helvetica">
N
</text>
<text x="543" y="50" fill="black" font-size="4" font-family="Helvetica">
 4.6
</text>
<text x="541" y="50" fill="black" font-size="4" font-family="Times">
&#0177;
</text>
<text x="529" y="50" fill="black" font-size="4" font-family="Helvetica">
 538.6 
</text>
<text x="448" y="53" fill="black" font-size="4" font-family="Helvetica">
 
</text>
<text x="448" y="57" fill="black" font-size="3" font-family="Helvetica">
f
</text>
<text x="447" y="53" fill="black" font-size="4" font-family="Times">
&#0964;
</text>
<text x="541" y="55" fill="black" font-size="4" font-family="Helvetica">
 21.6
</text>
<text x="538" y="55" fill="black" font-size="4" font-family="Times">
&#0177;
</text>
<text x="526" y="55" fill="black" font-size="4" font-family="Helvetica">
  2339 
</text>
<text x="452" y="58" fill="black" font-size="4" font-family="Helvetica">
  
</text>
<text x="450" y="61" fill="black" font-size="3" font-family="Helvetica">
sin
</text>
<text x="447" y="58" fill="black" font-size="4" font-family="Helvetica">
N
</text>
<text x="543" y="60" fill="black" font-size="4" font-family="Helvetica">
 0.5
</text>
<text x="541" y="60" fill="black" font-size="4" font-family="Times">
&#0177;
</text>
<text x="530" y="60" fill="black" font-size="4" font-family="Helvetica">
  33.2 
</text>
<text x="447" y="65" fill="black" font-size="4" font-family="Helvetica">
T        
</text>
<text x="541" y="66" fill="black" font-size="4" font-family="Helvetica">
 0.00
</text>
<text x="538" y="66" fill="black" font-size="4" font-family="Times">
&#0177;
</text>
<text x="526" y="66" fill="black" font-size="4" font-family="Helvetica">
 59.39 
</text>
<text x="450" y="68" fill="black" font-size="4" font-family="Helvetica">
    
</text>
<text x="450" y="71" fill="black" font-size="3" font-family="Helvetica">
b
</text>
<text x="447" y="68" fill="black" font-size="4" font-family="Helvetica">
N
</text>
<text x="543" y="71" fill="black" font-size="4" font-family="Helvetica">
 0.4
</text>
<text x="541" y="71" fill="black" font-size="4" font-family="Times">
&#0177;
</text>
<text x="529" y="71" fill="black" font-size="4" font-family="Helvetica">
 112.8 
</text>
<text x="270" y="21" fill="black" font-size="21" font-family="Helvetica">
D2
</text></svg>
