<?xml version="1.0" standalone="no"?>
<svg width="567" height="385" viewBox="0 0 567 385" xmlns="http://www.w3.org/2000/svg">
<title>
images/analysis_g4bl_loose_f/459_D4.svg
</title>
<desc>
Creator: ROOT Version 5.34/05
CreationDate: Wed Jun 12 17:58:00 2013</desc>
<defs>
</defs>
<rect x="0" y="0" width="567" height="385" fill="white"/>
<rect x="57" y="38" width="453" height="308" fill="white"/>
<rect x="57" y="38" width="453" height="308" fill="none" stroke="black"/>
<rect x="57" y="38" width="453" height="308" fill="white"/>
<rect x="57" y="38" width="453" height="308" fill="none" stroke="black"/>
<path d="M57,346h 44v -3v 3h 1v -3v 3h 1v -3h 1v -3v 6v -6h 1v 6v -12v 12h 1v -6v 6v -15h 1v 15v -12v 12h 1v -6v 6v -9h 1v 9v -12v 9h 1v 3v -6h 1v 6h 1v -6v 6v -6h 1v 6v -3v 3h 1v -9v 6v -9h 1v 9v -9v 6h 1v 3v -6v 9v -3h 1v -3v 6h 1v -6v 3v -3v 6h 1v
 -6v 6v -9v 9h 1v -9v 6v -3v 3h 1v -9v 6v -9v 15h 1v -6v 3v -6v 6h 1v -9v 9v -9v 9h 1v -3v 3h 1v -12v 12v -9h 1v 12v -3h 1v -12v 12v -6v 3v -6h 1v 12v -9v 6h 1v -6v 6v -3v 6h 1v -3h 1v -6v 9h 1v -9v 6v -6h 1v 9v -12h 1v 12v -9v 9h 1v -9v 6v -3v 6h 1v
 -6v 3v -6v 3h 1v 3v -9v 12v -6h 1v 6v -9v 9h 1v -9h 1v 3v -3v 3v -3h 1v 3v -3v 9v -6h 1v 6v -6v 3v -3h 1v -6v 12v -9h 1v 9v -9v 9v -9h 1v -3v 12v -6h 1v 3v -9v 12h 1v -9v 9v -6v 3h 1v 3v -18v 18h 1v -6v 6v -3h 1v 3v -9v 9h 1v -3v 3h 1v -6v 6v -3h 1v
 3v -9v 6v -9h 1v 9v -6v 9h 1v -3v 3v -12v 9v -12h 1v 15v -3v 3v -3h 1v 3v -9v 9v -12h 1v 12v -9v 3v -6v 9h 1v -6v 9v -15h 1v 15v -6v 6v -3h 1v -6v 9h 1v -9v 9v -9h 1v 9v -3h 1v -3v 3v -3v 3h 1v -3v 6v -3h 1v -6v 9v -3v 3h 1v -6v 3v -3v 3h 1v -6v 9v
 -6v 6v -9h 1v 3v -3v 3h 1v -6v 12v -6h 1v 6v -6v 6h 1v -6v 3v -3v 6v -12h 1v 9v -6v 6h 1v -6v 6v -3v 6v -9h 1v -3v 9h 1v -9v 12v -15h 1v 12v -6v 6h 1v -6v 6v -3v 3v -6h 1v -3v 12v -3h 1v -6v 6v -3v 6v -6h 1v -3v 9h 1v -12v 12v -3v 3h 1v -3v 3v -12v
 6h 1v 3v -6v 9v -12h 1v 12v -6v 6h 1v -15v 15h 1v -15h 1v 9v -3v 9v -6h 1v 6v -9v 9h 1v -9v 6v -6v 3h 1v 6v -9v 6v -3h 1v 3v -12v 15h 1v -6v 6v -6v 6v -9v 6h 1v 3v -6v 6v -9h 1v 6v -3v 6v -12v 3h 1v 3v -3v 6v -9h 1v 9v -3h 1v -9v 15v -6v 3h 1v 3v
 -6v 6v -6h 1v 3v -6v 6h 1v -6v 6h 1v 3v -15v 15h 1v -9v 9v -6v 6h 1v -15v 12h 1v -3v 6v -9v 6h 1v -6v 6v -6h 1v 6v -3h 1v -3v 9v -6v 3v -3h 1v -3v 6v -9v 6h 1v -6v 12v -3h 1v -9v 9v -6v 3h 1v 3v -6h 1v 6v -6v 6v -6v 9v -12h 1v -9v 21v -12v 9h 1v -6v
 9v -6h 1v 6v -12h 1v -3v 15v -9h 1v 3v -3v 6h 1v -3v 3v -3v 6v -15h 1v 12v -9v 3h 1v 3v -3v 9v -9h 1v -3v 9v -3v 3h 1v 3v -12v 6v -9h 1v 15v -15h 1v 12v -9v 9v -6v 6v -3h 1v -6v 12v -6v 3h 1v -3v 3v -6v 9v -15h 1v 12v -6v 3v -6v 6v -6h 1v 3v -9v 18v
 -9h 1v -3v 12v -9v 6h 1v 3v -12v 6h 1v 3v -3v 3v -15v 12h 1v 3v -12v 6v -3h 1v 12v -15v 9h 1v 6v -6v 3v -3h 1v -9v 6v -3v 6h 1v -18v 18v -3v 9h 1v -12v 9v -12v 15h 1v -9v 6h 1v -9v 6v -6v 6h 1v -3v 3v -6h 1v 9v -21v 12v -3v 3h 1v 6v -12v 15v -9h 1v
 9v -12v 12h 1v -9v 3h 1v 3v -6h 1v 9v -15v 18h 1v -33v 18v -3h 1v 18v -9v 3h 1v 3v -15v 6v -3v 9h 1v 6v -21v 12h 1v 3v -6v 9v -12h 1v 9v -15h 1v 9v -3v 9v -15h 1v 12v -3v 9v -3h 1v -3v 6v -3v 3v -12h 1v 9v -12v 9h 1v -6v 9v -3v 3v -12h 1v 12v -6h 1v
 3v -6v 6v -3h 1v -9v 15v -12v 3h 1v 3v -3v 6v -3h 1v -15v 21v -6v 3v -3h 1v -3v 3v -9v 12v -12h 1v -6v 15v -6v 9v -18h 1v 18v -6v 3v -6v 9h 1v -6v 6v -15v 18v -12h 1v 6v -6v 9h 1v -3v 3v -18h 1v 12v -9v 18h 1v -9v 3v -6v 6v -18v 18h 1v -12v 18v -9v
 3h 1v 3v -12v 9v -12v 15h 1v -18v 27v -36h 1v 30v -24v 18v -24v 9h 1v -6v 12v -3v 6v -3h 1v 9v -24v 15v -9v 12h 1v -12v 15v -3h 1v -3v 3v -18v 15h 1v -9v 15v -12v 15h 1v -6v 6v -21v 18v -15v 15h 1v -18v 18v -18v 18h 1v -27v 18v -12v 12v -21v 45h 1v
 -293h 1v 178v -18v 31v -19h 1v 61h 1v -42v 30v -6v 15h 1v -24v 36v -36h 1v 42v -27v 9v -12h 1v -3v 33v -21v 12h 1v -27v 39v -27h 1v -6v 27v -6v 6h 1v 6v -12v 18v -18v 3h 1v 6v -15v 21v -18h 1v -3v 12v -3v 18v -15v 15h 1v -21v 39v -39v 12v -3h 1v 6v
 -30v 45v -15h 1v 12v -15v 12h 1v -15v 6v -3v 6h 1v -3v 12v -15v 12h 1v -15v 21v -24h 1v 6v -15v 15h 1v 18v -21v 12v -3v 3h 1v -18v 21v -12h 1v 15v -30v 21h 1v 18v -24v 9h 1v -12v 24h 1v -18v 18v -6h 1v -15v 21v -24v 33h 1v -15v 15v -24v 12h 1v -6v
 21v -24v 21v -6h 1v -12v 21v -24v 18h 1v -21v 27v -24h 1v -9v 24v -24v 12h 1v 6v -9v 9h 1v 18v -15v 3v -12v 18h 1v -18v 15v -21v 18v -3h 1v -9v 15v -18h 1v 24v -21v 21v -6h 1v -18v 27h 1v -30v 27h 1v -12v 6v -9v 6v -9h 1v 12v -9v 18v -15h 1v 3v -9v
 21v -30h 1v 27v -6v 9h 1v -18v 9v -3h 1v 9v -15h 1v 18v -9v 9v -18v 18v -3h 1v -6v 9v -21v 15h 1v -15v 18v -24v 9h 1v 18v -9v 6v -18h 1v 15v -3v 9v -18h 1v 15v -9v 12h 1v -6v 6v -15v 15v -12v 15h 1v -18v 15v -21h 1v 12v -9h 1v 15v -6v 9v -12h 1v 12v
 -15v 18v -15h 1v 3v -6v 6v -9v 15h 1v -9v 15h 1v -15v 12v -9h 1v 9v -3h 1v -12v 12v -6h 1v 9v -15h 1v -9v 21v -6v 9v -12h 1v 12v -6v 6h 1v -15v 15v -12h 1v 12v -3v 3v -6h 1v -6v 9v -3h 1v -6v 12v -6v 9v -9h 1v 3v -9v 15v -9v 3h 1v 3v -9v 12h 1v -12v
 6v -3v 9h 1v -18v 21h 1v -18v 12v -6h 1v 9v -6v 3h 1v -15v 12h 1v -3v 6v -3v 6h 1v -9v 9v -9h 1v 9v -6v 3h 1v 3v -9v 6v -9h 1v 12v -12v 3h 1v 9v -6h 1v 6v -6h 1v 3v -3v 9v -15h 1v 15v -12v 3h 1v 6v -12v 6v -15h 1v 24v -12h 1v 12v -6v 3v -3h 1v -3v
 6v -6v 9h 1v -9v 9v -6h 1v -6v 9v -3h 1v 6v -12v 6h 1v -6v 12v -12h 1v 12v -9v 9v -9h 1v 6v -15v 15v -12h 1v -3v 6v -3v 12v -3v 3h 1v -18v 21v -15h 1v 12v -3v 6v -6h 1v 6v -12h 1v 9v -15v 15v -9h 1v -3v 12v -6h 1v 6v -6v 6v -3h 1v 3v -15v 9h 1v 6v
 -6v 3v -3v 6h 1v -3v 6v -9h 1v 9v -12v 9v -3h 1v 6v -9h 1v 6v -3v 3v -9v 9h 1v -6v 9v -18h 1v 18v -3v 3h 1v -9v 6h 1v 3v -15v 9v -3h 1v 9v -9v 3v -3v 9v -9h 1v -3v 12v -9v 9v -3h 1v -3v 3v -6v 9v -6h 1v -3v 3h 1v 6v -6v 3h 1v 3v -6h 1v -3v 9v -9h 1v
 6v -6v 6h 1v -12v 12h 1v -3v 6v -6v 6h 1v -9v 3v -3v 6v -3h 1v 3v -3v 3v -6v 6h 1v -3v 3v -9h 1v 9v -6v 9h 1v -9v 6v -3h 1v 6v -6h 1v 3v -3v 6v -9h 1v 6v -3h 1v -9v 12v -3h 1v -3v 9h 1v -6v 6v -3h 1v -6v 9v -9h 1v 9v -6h 1v -3v 9v -3h 1v -3v 3v -6v
 3v -6v 12h 1v -9v 9v -9h 1v 9v -15v 12h 1v -9v 9h 1v -6v 6h 1v -12v 12v -3h 1v 6v -9v 9h 1v -12v 9h 1v 3v -6v 3v -3v 6v -3h 1v -3v 3v -6v 3h 1v -12v 18v -6v 6h 1v -6v 6v -6h 1v 6v -6v 3h 1v 3v -12v 12v -3h 1v -6v 3v -3v 3v -15v 12h 1v 9v -6v 3h 1v
 -6v 9v -9h 1v 6v -6h 1v 9v -9v 6v -3h 1v 6v -6v 6v -6h 1v 6v -12h 1v 12v -3h 1v -3v 3v -3v 6h 1v -9v 3v -6v 12h 1v -9v 9v -6v 6v -9h 1v 6v -9v 12v -18h 1v 15v -6h 1v 6v -9v 9h 1v 3v -9v 6v -6v 9h 1v -9v 9v -6v 3v -3h 1v 6v -12v 3h 1v 9v -9v 6v -3h
 1v -3v 9v -6h 1v -3v 9v -12v 12h 1v -3v 3v -9h 1v 6v -6v 9h 1v -6v 3v -3h 1v 6v -12v 9v -6h 1v -3v 12v -9h 1v 6v -6v 6h 1v -9v 6v -9h 1v 12v -6v 6h 1v -3v 3v -3v 3h 1v -9v 9v -3v 3h 1v -6v 9v -6h 1v -3v 6v -9h 1v 6v -3v 9h 1v -12v 12v -6v 6v -9v 9h
 1v -6v 3h 1v -3v 6v -6v 3v -6v 9h 1v -6v 6v -6v 6h 1v -9v 9v -9v 6h 1v -6v 9v -6h 1v -3v 6v -3v 3h 1v 3v -9v 9h 1v -6v 6v -6v 6h 1v -6v 6v -6h 1v 6v -6v 3h 1v -6v 9v -3h 1v 3v -9v 9v -6h 1v 6v -6v 3v -15h 1v 18v -6v 3v -3h 1v -12v 18v -6h 1v 6v -6h
 1v 3v -6v 9v -3h 1v -12v 12h 1v -3v 3v -6v 6h 1v -12v 15h 1v -6v 6v -3v 3v -3h 1v -3v 6v -9v 6h 1v -3v 6v -3v 3v -3h 1v -3v 6v -6v 3v -15h 1v 12v -3v 6v -3h 1v 6h 1v -15v 9v -12v 15v -6h 1v 6v -6v 9h 1v -6v 3v -3v 6v -3h 1v -6v 6h 1v 3v -3v 3v -6h
 1v 6v -3h 1v -9v 9h 1v -3v 6h 1v -6v 6v -3v 3h 1v -9v 6h 1v -12v 15h 1v -18v 18v -3h 1v 3v -9v 9v -3h 1v -6v 9v -12h 1v 12v -12v 12v -15v 9h 1v 6v -15v 12v -15h 1v 15v -9v 9h 1v -6v 6v -9h 1v 9v -6" fill="none" stroke="#000099"/>
<rect x="442" y="25" width="114" height="46" fill="white"/>
<path d="M442,71h 114" fill="none" stroke="black"/>
<path d="M556,71v -46" fill="none" stroke="black"/>
<path d="M556,25h -114" fill="none" stroke="black"/>
<path d="M442,25v 46" fill="none" stroke="black"/>
<text x="447" y="28" fill="black" font-size="4" font-family="Helvetica">
Entries 
</text>
<text x="540" y="28" fill="black" font-size="4" font-family="Helvetica">
 7897
</text>
<text x="450" y="35" fill="black" font-size="4" font-family="Helvetica">
 / ndf 
</text>
<text x="449" y="31" fill="black" font-size="3" font-family="Helvetica">
2
</text>
<text x="447" y="35" fill="black" font-size="4" font-family="Times">
&#0967;
</text>
<text x="526" y="34" fill="black" font-size="4" font-family="Helvetica">
  4095 / 1240
</text>
<text x="452" y="37" fill="black" font-size="4" font-family="Helvetica">
   
</text>
<text x="450" y="40" fill="black" font-size="3" font-family="Helvetica">
cu
</text>
<text x="447" y="37" fill="black" font-size="4" font-family="Helvetica">
N
</text>
<text x="543" y="40" fill="black" font-size="4" font-family="Helvetica">
 4.4
</text>
<text x="541" y="40" fill="black" font-size="4" font-family="Times">
&#0177;
</text>
<text x="530" y="40" fill="black" font-size="4" font-family="Helvetica">
  39.7 
</text>
<text x="450" y="43" fill="black" font-size="4" font-family="Helvetica">
 
</text>
<text x="448" y="46" fill="black" font-size="3" font-family="Helvetica">
cu
</text>
<text x="447" y="43" fill="black" font-size="4" font-family="Times">
&#0964;
</text>
<text x="543" y="45" fill="black" font-size="4" font-family="Helvetica">
 1.1
</text>
<text x="541" y="45" fill="black" font-size="4" font-family="Times">
&#0177;
</text>
<text x="529" y="45" fill="black" font-size="4" font-family="Helvetica">
 164.5 
</text>
<text x="450" y="48" fill="black" font-size="4" font-family="Helvetica">
    
</text>
<text x="450" y="51" fill="black" font-size="3" font-family="Helvetica">
f
</text>
<text x="447" y="48" fill="black" font-size="4" font-family="Helvetica">
N
</text>
<text x="541" y="50" fill="black" font-size="4" font-family="Helvetica">
 0.85
</text>
<text x="538" y="50" fill="black" font-size="4" font-family="Times">
&#0177;
</text>
<text x="526" y="50" fill="black" font-size="4" font-family="Helvetica">
 21.49 
</text>
<text x="448" y="53" fill="black" font-size="4" font-family="Helvetica">
 
</text>
<text x="448" y="57" fill="black" font-size="3" font-family="Helvetica">
f
</text>
<text x="447" y="53" fill="black" font-size="4" font-family="Times">
&#0964;
</text>
<text x="541" y="55" fill="black" font-size="4" font-family="Helvetica">
 82.5
</text>
<text x="538" y="55" fill="black" font-size="4" font-family="Times">
&#0177;
</text>
<text x="526" y="55" fill="black" font-size="4" font-family="Helvetica">
  2234 
</text>
<text x="452" y="58" fill="black" font-size="4" font-family="Helvetica">
  
</text>
<text x="450" y="61" fill="black" font-size="3" font-family="Helvetica">
sin
</text>
<text x="447" y="58" fill="black" font-size="4" font-family="Helvetica">
N
</text>
<text x="543" y="60" fill="black" font-size="4" font-family="Helvetica">
 0.0
</text>
<text x="541" y="60" fill="black" font-size="4" font-family="Times">
&#0177;
</text>
<text x="532" y="60" fill="black" font-size="4" font-family="Helvetica">
     1 
</text>
<text x="447" y="65" fill="black" font-size="4" font-family="Helvetica">
T        
</text>
<text x="541" y="66" fill="black" font-size="4" font-family="Helvetica">
 0.00
</text>
<text x="538" y="66" fill="black" font-size="4" font-family="Times">
&#0177;
</text>
<text x="526" y="66" fill="black" font-size="4" font-family="Helvetica">
 59.31 
</text>
<text x="450" y="68" fill="black" font-size="4" font-family="Helvetica">
    
</text>
<text x="450" y="71" fill="black" font-size="3" font-family="Helvetica">
b
</text>
<text x="447" y="68" fill="black" font-size="4" font-family="Helvetica">
N
</text>
<text x="541" y="71" fill="black" font-size="4" font-family="Helvetica">
 0.05
</text>
<text x="538" y="71" fill="black" font-size="4" font-family="Times">
&#0177;
</text>
<text x="528" y="71" fill="black" font-size="4" font-family="Helvetica">
  1.72 
</text>
<path d="M284,191v 6" fill="none" stroke="#ff0000" stroke-width="2"/>
<path d="M285,198v 30" fill="none" stroke="#ff0000" stroke-width="2"/>
<path d="M285,229v 22" fill="none" stroke="#ff0000" stroke-width="2"/>
<path d="M286,252v 13" fill="none" stroke="#ff0000" stroke-width="2"/>
<path d="M287,263v 10" fill="none" stroke="#ff0000" stroke-width="2"/>
<path d="M288,270v 9" fill="none" stroke="#ff0000" stroke-width="2"/>
<path d="M289,276v 8" fill="none" stroke="#ff0000" stroke-width="2"/>
<path d="M289,282v 8" fill="none" stroke="#ff0000" stroke-width="2"/>
<path d="M290,286v 6" fill="none" stroke="#ff0000" stroke-width="2"/>
<path d="M291,287v 8" fill="none" stroke="#ff0000" stroke-width="2"/>
<path d="M292,290v 6" fill="none" stroke="#ff0000" stroke-width="2"/>
<path d="M293,291v 7" fill="none" stroke="#ff0000" stroke-width="2"/>
<path d="M293,294v 6" fill="none" stroke="#ff0000" stroke-width="2"/>
<path d="M294,295v 7" fill="none" stroke="#ff0000" stroke-width="2"/>
<path d="M295,296v 7" fill="none" stroke="#ff0000" stroke-width="2"/>
<path d="M296,298v 6" fill="none" stroke="#ff0000" stroke-width="2"/>
<path d="M297,299v 6" fill="none" stroke="#ff0000" stroke-width="2"/>
<path d="M298,301v 7" fill="none" stroke="#ff0000" stroke-width="2"/>
<path d="M298,302v 6" fill="none" stroke="#ff0000" stroke-width="2"/>
<path d="M299,303v 6" fill="none" stroke="#ff0000" stroke-width="2"/>
<path d="M300,304v 6" fill="none" stroke="#ff0000" stroke-width="2"/>
<path d="M301,305v 6" fill="none" stroke="#ff0000" stroke-width="2"/>
<path d="M302,306v 7" fill="none" stroke="#ff0000" stroke-width="2"/>
<path d="M302,307v 6" fill="none" stroke="#ff0000" stroke-width="2"/>
<path d="M303,308v 6" fill="none" stroke="#ff0000" stroke-width="2"/>
<path d="M304,309v 6" fill="none" stroke="#ff0000" stroke-width="2"/>
<path d="M305,310v 7" fill="none" stroke="#ff0000" stroke-width="2"/>
<path d="M306,311v 6" fill="none" stroke="#ff0000" stroke-width="2"/>
<path d="M307,312v 6" fill="none" stroke="#ff0000" stroke-width="2"/>
<path d="M307,313v 6" fill="none" stroke="#ff0000" stroke-width="2"/>
<path d="M308,313v 6" fill="none" stroke="#ff0000" stroke-width="2"/>
<path d="M309,314v 7" fill="none" stroke="#ff0000" stroke-width="2"/>
<path d="M310,315v 6" fill="none" stroke="#ff0000" stroke-width="2"/>
<path d="M311,316v 5" fill="none" stroke="#ff0000" stroke-width="2"/>
<path d="M311,316v 6" fill="none" stroke="#ff0000" stroke-width="2"/>
<path d="M312,317v 6" fill="none" stroke="#ff0000" stroke-width="2"/>
<path d="M313,317v 7" fill="none" stroke="#ff0000" stroke-width="2"/>
<path d="M314,318v 7" fill="none" stroke="#ff0000" stroke-width="2"/>
<path d="M315,319v 6" fill="none" stroke="#ff0000" stroke-width="2"/>
<path d="M315,319v 7" fill="none" stroke="#ff0000" stroke-width="2"/>
<path d="M316,321v 5" fill="none" stroke="#ff0000" stroke-width="2"/>
<path d="M317,321v 6" fill="none" stroke="#ff0000" stroke-width="2"/>
<path d="M318,321v 6" fill="none" stroke="#ff0000" stroke-width="2"/>
<path d="M319,321v 7" fill="none" stroke="#ff0000" stroke-width="2"/>
<path d="M320,322v 6" fill="none" stroke="#ff0000" stroke-width="2"/>
<path d="M320,323v 6" fill="none" stroke="#ff0000" stroke-width="2"/>
<path d="M321,323v 7" fill="none" stroke="#ff0000" stroke-width="2"/>
<path d="M322,324v 6" fill="none" stroke="#ff0000" stroke-width="2"/>
<path d="M323,324v 6" fill="none" stroke="#ff0000" stroke-width="2"/>
<path d="M324,325v 5" fill="none" stroke="#ff0000" stroke-width="2"/>
<path d="M324,325v 6" fill="none" stroke="#ff0000" stroke-width="2"/>
<path d="M325,326v 5" fill="none" stroke="#ff0000" stroke-width="2"/>
<path d="M326,326v 6" fill="none" stroke="#ff0000" stroke-width="2"/>
<path d="M327,326v 6" fill="none" stroke="#ff0000" stroke-width="2"/>
<path d="M328,326v 7" fill="none" stroke="#ff0000" stroke-width="2"/>
<path d="M329,327v 6" fill="none" stroke="#ff0000" stroke-width="2"/>
<path d="M329,327v 7" fill="none" stroke="#ff0000" stroke-width="2"/>
<path d="M330,327v 7" fill="none" stroke="#ff0000" stroke-width="2"/>
<path d="M331,328v 6" fill="none" stroke="#ff0000" stroke-width="2"/>
<path d="M332,328v 6" fill="none" stroke="#ff0000" stroke-width="2"/>
<path d="M333,329v 5" fill="none" stroke="#ff0000" stroke-width="2"/>
<path d="M333,329v 6" fill="none" stroke="#ff0000" stroke-width="2"/>
<path d="M334,329v 6" fill="none" stroke="#ff0000" stroke-width="2"/>
<path d="M335,330v 5" fill="none" stroke="#ff0000" stroke-width="2"/>
<path d="M336,330v 6" fill="none" stroke="#ff0000" stroke-width="2"/>
<path d="M337,330v 6" fill="none" stroke="#ff0000" stroke-width="2"/>
<path d="M337,330v 6" fill="none" stroke="#ff0000" stroke-width="2"/>
<path d="M338,330v 6" fill="none" stroke="#ff0000" stroke-width="2"/>
<path d="M339,330v 7" fill="none" stroke="#ff0000" stroke-width="2"/>
<path d="M340,331v 6" fill="none" stroke="#ff0000" stroke-width="2"/>
<path d="M341,331v 6" fill="none" stroke="#ff0000" stroke-width="2"/>
<path d="M342,331v 7" fill="none" stroke="#ff0000" stroke-width="2"/>
<path d="M342,331v 7" fill="none" stroke="#ff0000" stroke-width="2"/>
<path d="M343,332v 6" fill="none" stroke="#ff0000" stroke-width="2"/>
<path d="M344,332v 6" fill="none" stroke="#ff0000" stroke-width="2"/>
<path d="M345,332v 7" fill="none" stroke="#ff0000" stroke-width="2"/>
<path d="M346,332v 7" fill="none" stroke="#ff0000" stroke-width="2"/>
<path d="M346,333v 6" fill="none" stroke="#ff0000" stroke-width="2"/>
<path d="M347,333v 6" fill="none" stroke="#ff0000" stroke-width="2"/>
<path d="M348,333v 6" fill="none" stroke="#ff0000" stroke-width="2"/>
<path d="M349,333v 6" fill="none" stroke="#ff0000" stroke-width="2"/>
<path d="M350,333v 6" fill="none" stroke="#ff0000" stroke-width="2"/>
<path d="M351,334v 5" fill="none" stroke="#ff0000" stroke-width="2"/>
<path d="M351,334v 5" fill="none" stroke="#ff0000" stroke-width="2"/>
<path d="M352,334v 5" fill="none" stroke="#ff0000" stroke-width="2"/>
<path d="M353,334v 5" fill="none" stroke="#ff0000" stroke-width="2"/>
<path d="M354,334v 6" fill="none" stroke="#ff0000" stroke-width="2"/>
<path d="M355,334v 6" fill="none" stroke="#ff0000" stroke-width="2"/>
<path d="M355,334v 6" fill="none" stroke="#ff0000" stroke-width="2"/>
<path d="M356,334v 6" fill="none" stroke="#ff0000" stroke-width="2"/>
<path d="M357,334v 6" fill="none" stroke="#ff0000" stroke-width="2"/>
<path d="M358,334v 6" fill="none" stroke="#ff0000" stroke-width="2"/>
<path d="M359,334v 6" fill="none" stroke="#ff0000" stroke-width="2"/>
<path d="M359,334v 7" fill="none" stroke="#ff0000" stroke-width="2"/>
<path d="M360,334v 7" fill="none" stroke="#ff0000" stroke-width="2"/>
<path d="M361,334v 7" fill="none" stroke="#ff0000" stroke-width="2"/>
<path d="M362,335v 6" fill="none" stroke="#ff0000" stroke-width="2"/>
<path d="M363,335v 6" fill="none" stroke="#ff0000" stroke-width="2"/>
<path d="M364,335v 6" fill="none" stroke="#ff0000" stroke-width="2"/>
<path d="M364,335v 6" fill="none" stroke="#ff0000" stroke-width="2"/>
<path d="M365,335v 6" fill="none" stroke="#ff0000" stroke-width="2"/>
<path d="M366,335v 6" fill="none" stroke="#ff0000" stroke-width="2"/>
<path d="M367,335v 7" fill="none" stroke="#ff0000" stroke-width="2"/>
<path d="M368,335v 7" fill="none" stroke="#ff0000" stroke-width="2"/>
<path d="M368,335v 7" fill="none" stroke="#ff0000" stroke-width="2"/>
<path d="M369,335v 7" fill="none" stroke="#ff0000" stroke-width="2"/>
<path d="M370,336v 6" fill="none" stroke="#ff0000" stroke-width="2"/>
<path d="M371,336v 6" fill="none" stroke="#ff0000" stroke-width="2"/>
<path d="M372,336v 6" fill="none" stroke="#ff0000" stroke-width="2"/>
<path d="M372,336v 6" fill="none" stroke="#ff0000" stroke-width="2"/>
<path d="M373,336v 6" fill="none" stroke="#ff0000" stroke-width="2"/>
<path d="M374,336v 6" fill="none" stroke="#ff0000" stroke-width="2"/>
<path d="M375,336v 6" fill="none" stroke="#ff0000" stroke-width="2"/>
<path d="M376,336v 6" fill="none" stroke="#ff0000" stroke-width="2"/>
<path d="M377,336v 7" fill="none" stroke="#ff0000" stroke-width="2"/>
<path d="M377,336v 7" fill="none" stroke="#ff0000" stroke-width="2"/>
<path d="M378,336v 7" fill="none" stroke="#ff0000" stroke-width="2"/>
<path d="M379,336v 7" fill="none" stroke="#ff0000" stroke-width="2"/>
<path d="M380,336v 7" fill="none" stroke="#ff0000" stroke-width="2"/>
<path d="M381,336v 7" fill="none" stroke="#ff0000" stroke-width="2"/>
<path d="M381,336v 7" fill="none" stroke="#ff0000" stroke-width="2"/>
<path d="M382,336v 7" fill="none" stroke="#ff0000" stroke-width="2"/>
<path d="M383,337v 6" fill="none" stroke="#ff0000" stroke-width="2"/>
<path d="M384,337v 6" fill="none" stroke="#ff0000" stroke-width="2"/>
<path d="M385,337v 6" fill="none" stroke="#ff0000" stroke-width="2"/>
<path d="M386,337v 6" fill="none" stroke="#ff0000" stroke-width="2"/>
<path d="M386,337v 6" fill="none" stroke="#ff0000" stroke-width="2"/>
<path d="M387,337v 6" fill="none" stroke="#ff0000" stroke-width="2"/>
<path d="M388,337v 6" fill="none" stroke="#ff0000" stroke-width="2"/>
<path d="M389,337v 6" fill="none" stroke="#ff0000" stroke-width="2"/>
<path d="M390,337v 6" fill="none" stroke="#ff0000" stroke-width="2"/>
<path d="M390,337v 6" fill="none" stroke="#ff0000" stroke-width="2"/>
<path d="M391,337v 6" fill="none" stroke="#ff0000" stroke-width="2"/>
<path d="M392,337v 6" fill="none" stroke="#ff0000" stroke-width="2"/>
<path d="M393,337v 6" fill="none" stroke="#ff0000" stroke-width="2"/>
<path d="M394,337v 6" fill="none" stroke="#ff0000" stroke-width="2"/>
<path d="M394,337v 6" fill="none" stroke="#ff0000" stroke-width="2"/>
<path d="M395,337v 6" fill="none" stroke="#ff0000" stroke-width="2"/>
<path d="M396,337v 6" fill="none" stroke="#ff0000" stroke-width="2"/>
<path d="M397,337v 6" fill="none" stroke="#ff0000" stroke-width="2"/>
<path d="M398,337v 6" fill="none" stroke="#ff0000" stroke-width="2"/>
<path d="M399,337v 6" fill="none" stroke="#ff0000" stroke-width="2"/>
<path d="M399,337v 6" fill="none" stroke="#ff0000" stroke-width="2"/>
<path d="M400,337v 6" fill="none" stroke="#ff0000" stroke-width="2"/>
<path d="M401,337v 6" fill="none" stroke="#ff0000" stroke-width="2"/>
<path d="M402,337v 6" fill="none" stroke="#ff0000" stroke-width="2"/>
<path d="M403,337v 6" fill="none" stroke="#ff0000" stroke-width="2"/>
<path d="M403,337v 6" fill="none" stroke="#ff0000" stroke-width="2"/>
<path d="M404,337v 6" fill="none" stroke="#ff0000" stroke-width="2"/>
<path d="M405,337v 6" fill="none" stroke="#ff0000" stroke-width="2"/>
<path d="M406,337v 6" fill="none" stroke="#ff0000" stroke-width="2"/>
<path d="M407,337v 6" fill="none" stroke="#ff0000" stroke-width="2"/>
<path d="M408,337v 6" fill="none" stroke="#ff0000" stroke-width="2"/>
<path d="M408,338v 5" fill="none" stroke="#ff0000" stroke-width="2"/>
<path d="M409,338v 5" fill="none" stroke="#ff0000" stroke-width="2"/>
<path d="M410,338v 5" fill="none" stroke="#ff0000" stroke-width="2"/>
<path d="M411,338v 5" fill="none" stroke="#ff0000" stroke-width="2"/>
<path d="M412,338v 5" fill="none" stroke="#ff0000" stroke-width="2"/>
<path d="M412,338v 5" fill="none" stroke="#ff0000" stroke-width="2"/>
<path d="M413,338v 5" fill="none" stroke="#ff0000" stroke-width="2"/>
<path d="M414,338v 5" fill="none" stroke="#ff0000" stroke-width="2"/>
<path d="M415,338v 5" fill="none" stroke="#ff0000" stroke-width="2"/>
<path d="M416,338v 5" fill="none" stroke="#ff0000" stroke-width="2"/>
<path d="M416,338v 5" fill="none" stroke="#ff0000" stroke-width="2"/>
<path d="M417,338v 5" fill="none" stroke="#ff0000" stroke-width="2"/>
<path d="M418,338v 5" fill="none" stroke="#ff0000" stroke-width="2"/>
<path d="M419,338v 5" fill="none" stroke="#ff0000" stroke-width="2"/>
<path d="M420,338v 5" fill="none" stroke="#ff0000" stroke-width="2"/>
<path d="M421,338v 5" fill="none" stroke="#ff0000" stroke-width="2"/>
<path d="M421,338v 5" fill="none" stroke="#ff0000" stroke-width="2"/>
<path d="M422,338v 5" fill="none" stroke="#ff0000" stroke-width="2"/>
<path d="M423,338v 5" fill="none" stroke="#ff0000" stroke-width="2"/>
<path d="M424,338v 5" fill="none" stroke="#ff0000" stroke-width="2"/>
<path d="M425,338v 5" fill="none" stroke="#ff0000" stroke-width="2"/>
<path d="M425,338v 5" fill="none" stroke="#ff0000" stroke-width="2"/>
<path d="M426,338v 5" fill="none" stroke="#ff0000" stroke-width="2"/>
<path d="M427,338v 5" fill="none" stroke="#ff0000" stroke-width="2"/>
<path d="M428,338v 5" fill="none" stroke="#ff0000" stroke-width="2"/>
<path d="M429,338v 5" fill="none" stroke="#ff0000" stroke-width="2"/>
<path d="M430,338v 5" fill="none" stroke="#ff0000" stroke-width="2"/>
<path d="M430,338v 5" fill="none" stroke="#ff0000" stroke-width="2"/>
<path d="M431,338v 5" fill="none" stroke="#ff0000" stroke-width="2"/>
<path d="M432,338v 5" fill="none" stroke="#ff0000" stroke-width="2"/>
<path d="M433,338v 5" fill="none" stroke="#ff0000" stroke-width="2"/>
<path d="M434,338v 5" fill="none" stroke="#ff0000" stroke-width="2"/>
<path d="M434,338v 5" fill="none" stroke="#ff0000" stroke-width="2"/>
<path d="M435,338v 5" fill="none" stroke="#ff0000" stroke-width="2"/>
<path d="M436,338v 5" fill="none" stroke="#ff0000" stroke-width="2"/>
<path d="M437,338v 5" fill="none" stroke="#ff0000" stroke-width="2"/>
<path d="M438,338v 5" fill="none" stroke="#ff0000" stroke-width="2"/>
<path d="M438,338v 5" fill="none" stroke="#ff0000" stroke-width="2"/>
<path d="M439,338v 5" fill="none" stroke="#ff0000" stroke-width="2"/>
<path d="M440,338v 5" fill="none" stroke="#ff0000" stroke-width="2"/>
<path d="M441,338v 5" fill="none" stroke="#ff0000" stroke-width="2"/>
<path d="M442,338v 5" fill="none" stroke="#ff0000" stroke-width="2"/>
<path d="M443,338v 5" fill="none" stroke="#ff0000" stroke-width="2"/>
<path d="M443,338v 5" fill="none" stroke="#ff0000" stroke-width="2"/>
<path d="M444,338v 5" fill="none" stroke="#ff0000" stroke-width="2"/>
<path d="M445,338v 5" fill="none" stroke="#ff0000" stroke-width="2"/>
<path d="M446,338v 5" fill="none" stroke="#ff0000" stroke-width="2"/>
<path d="M447,338v 5" fill="none" stroke="#ff0000" stroke-width="2"/>
<path d="M447,338v 5" fill="none" stroke="#ff0000" stroke-width="2"/>
<path d="M448,338v 5" fill="none" stroke="#ff0000" stroke-width="2"/>
<path d="M449,338v 5" fill="none" stroke="#ff0000" stroke-width="2"/>
<path d="M450,338v 5" fill="none" stroke="#ff0000" stroke-width="2"/>
<path d="M451,338v 5" fill="none" stroke="#ff0000" stroke-width="2"/>
<path d="M452,338v 5" fill="none" stroke="#ff0000" stroke-width="2"/>
<path d="M452,338v 5" fill="none" stroke="#ff0000" stroke-width="2"/>
<path d="M453,338v 5" fill="none" stroke="#ff0000" stroke-width="2"/>
<path d="M454,338v 5" fill="none" stroke="#ff0000" stroke-width="2"/>
<path d="M455,338v 5" fill="none" stroke="#ff0000" stroke-width="2"/>
<path d="M456,338v 5" fill="none" stroke="#ff0000" stroke-width="2"/>
<path d="M456,338v 5" fill="none" stroke="#ff0000" stroke-width="2"/>
<path d="M457,338v 5" fill="none" stroke="#ff0000" stroke-width="2"/>
<path d="M458,338v 5" fill="none" stroke="#ff0000" stroke-width="2"/>
<path d="M459,338v 5" fill="none" stroke="#ff0000" stroke-width="2"/>
<path d="M460,338v 5" fill="none" stroke="#ff0000" stroke-width="2"/>
<path d="M460,338v 5" fill="none" stroke="#ff0000" stroke-width="2"/>
<path d="M461,338v 5" fill="none" stroke="#ff0000" stroke-width="2"/>
<path d="M462,338v 5" fill="none" stroke="#ff0000" stroke-width="2"/>
<path d="M463,338v 5" fill="none" stroke="#ff0000" stroke-width="2"/>
<path d="M464,338v 5" fill="none" stroke="#ff0000" stroke-width="2"/>
<path d="M465,338v 5" fill="none" stroke="#ff0000" stroke-width="2"/>
<path d="M465,338v 5" fill="none" stroke="#ff0000" stroke-width="2"/>
<path d="M466,338v 5" fill="none" stroke="#ff0000" stroke-width="2"/>
<path d="M467,338v 5" fill="none" stroke="#ff0000" stroke-width="2"/>
<path d="M468,338v 5" fill="none" stroke="#ff0000" stroke-width="2"/>
<path d="M469,338v 5" fill="none" stroke="#ff0000" stroke-width="2"/>
<path d="M469,338v 5" fill="none" stroke="#ff0000" stroke-width="2"/>
<path d="M470,338v 5" fill="none" stroke="#ff0000" stroke-width="2"/>
<path d="M471,338v 5" fill="none" stroke="#ff0000" stroke-width="2"/>
<path d="M472,338v 5" fill="none" stroke="#ff0000" stroke-width="2"/>
<path d="M473,338v 5" fill="none" stroke="#ff0000" stroke-width="2"/>
<path d="M473,338v 5" fill="none" stroke="#ff0000" stroke-width="2"/>
<path d="M474,338v 5" fill="none" stroke="#ff0000" stroke-width="2"/>
<path d="M475,338v 5" fill="none" stroke="#ff0000" stroke-width="2"/>
<path d="M476,338v 5" fill="none" stroke="#ff0000" stroke-width="2"/>
<path d="M477,338v 5" fill="none" stroke="#ff0000" stroke-width="2"/>
<path d="M478,338v 5" fill="none" stroke="#ff0000" stroke-width="2"/>
<path d="M478,338v 5" fill="none" stroke="#ff0000" stroke-width="2"/>
<path d="M479,338v 5" fill="none" stroke="#ff0000" stroke-width="2"/>
<path d="M480,338v 5" fill="none" stroke="#ff0000" stroke-width="2"/>
<path d="M481,338v 5" fill="none" stroke="#ff0000" stroke-width="2"/>
<path d="M482,338v 5" fill="none" stroke="#ff0000" stroke-width="2"/>
<path d="M482,338v 5" fill="none" stroke="#ff0000" stroke-width="2"/>
<path d="M483,338v 5" fill="none" stroke="#ff0000" stroke-width="2"/>
<path d="M484,338v 5" fill="none" stroke="#ff0000" stroke-width="2"/>
<path d="M485,338v 5" fill="none" stroke="#ff0000" stroke-width="2"/>
<path d="M486,338v 5" fill="none" stroke="#ff0000" stroke-width="2"/>
<path d="M487,338v 5" fill="none" stroke="#ff0000" stroke-width="2"/>
<path d="M487,338v 5" fill="none" stroke="#ff0000" stroke-width="2"/>
<path d="M488,338v 5" fill="none" stroke="#ff0000" stroke-width="2"/>
<path d="M489,338v 6" fill="none" stroke="#ff0000" stroke-width="2"/>
<path d="M490,338v 5" fill="none" stroke="#ff0000" stroke-width="2"/>
<path d="M491,338v 6" fill="none" stroke="#ff0000" stroke-width="2"/>
<path d="M491,338v 6" fill="none" stroke="#ff0000" stroke-width="2"/>
<path d="M492,338v 5" fill="none" stroke="#ff0000" stroke-width="2"/>
<path d="M493,338v 6" fill="none" stroke="#ff0000" stroke-width="2"/>
<path d="M494,338v 6" fill="none" stroke="#ff0000" stroke-width="2"/>
<path d="M495,338v 5" fill="none" stroke="#ff0000" stroke-width="2"/>
<path d="M495,338v 6" fill="none" stroke="#ff0000" stroke-width="2"/>
<path d="M496,338v 6" fill="none" stroke="#ff0000" stroke-width="2"/>
<path d="M497,338v 5" fill="none" stroke="#ff0000" stroke-width="2"/>
<path d="M498,338v 6" fill="none" stroke="#ff0000" stroke-width="2"/>
<path d="M499,338v 6" fill="none" stroke="#ff0000" stroke-width="2"/>
<path d="M500,338v 5" fill="none" stroke="#ff0000" stroke-width="2"/>
<path d="M500,338v 6" fill="none" stroke="#ff0000" stroke-width="2"/>
<path d="M501,338v 6" fill="none" stroke="#ff0000" stroke-width="2"/>
<path d="M502,338v 6" fill="none" stroke="#ff0000" stroke-width="2"/>
<path d="M503,338v 6" fill="none" stroke="#ff0000" stroke-width="2"/>
<path d="M504,338v 6" fill="none" stroke="#ff0000" stroke-width="2"/>
<path d="M504,338v 6" fill="none" stroke="#ff0000" stroke-width="2"/>
<path d="M505,338v 6" fill="none" stroke="#ff0000" stroke-width="2"/>
<path d="M506,338v 6" fill="none" stroke="#ff0000" stroke-width="2"/>
<path d="M507,338v 5" fill="none" stroke="#ff0000" stroke-width="2"/>
<path d="M508,338v 6" fill="none" stroke="#ff0000" stroke-width="2"/>
<path d="M509,338v 6" fill="none" stroke="#ff0000" stroke-width="2"/>
<path d="M509,338v 6" fill="none" stroke="#ff0000" stroke-width="2"/>
<path d="M510,339v 4" fill="none" stroke="#ff0000" stroke-width="2"/>
<path d="M284,194l 1, 18v 28l 1, 19l 1, 9l 1, 6l 1, 6v 6l 1, 3l 1, 2l 1, 2l 1, 2v 2l 1, 2h 1l 1, 2l 1, 1l 1, 2v 1l 1, 1l 1, 1l 1, 1l 1, 1v 1l 1, 1l 1, 1l 1, 1l 1, 1l 1, 1v 1h 1l 1, 1l 1, 1h 1v 1l 1, 1l 1, 1h 2v 1l 1, 1l 1, 1h 1l 1, 1h 1v 1h 2l 1, 1h
 1v 1h 1l 1, 1h 1l 1, 1h 3l 1, 1h 1v 1h 2l 1, 1h 2l 1, 1h 5l 1, 1h 3l 1, 1h 4l 1, 1h 5v 1h 7l 1, 1h 27v 1h 94l 1, 1l 1, -1l 1, 1l 1, -1l 1, 1h 1l 1, -1v 1h 1l 1, -1l 1, 1h 1l 1, -1v 1h 6l 1, -1l 1, 1h 2" fill="none" stroke="#ff0000"
 stroke-width="2"/>
<path d="M57,346h 453" fill="none" stroke="black"/>
<text x="419" y="372" fill="black" font-size="12" font-family="Helvetica">
TDC-TDC0 (ns)
</text>
<path d="M57,337v 9" fill="none" stroke="black"/>
<path d="M68,342v 4" fill="none" stroke="black"/>
<path d="M79,342v 4" fill="none" stroke="black"/>
<path d="M91,342v 4" fill="none" stroke="black"/>
<path d="M102,342v 4" fill="none" stroke="black"/>
<path d="M113,337v 9" fill="none" stroke="black"/>
<path d="M125,342v 4" fill="none" stroke="black"/>
<path d="M136,342v 4" fill="none" stroke="black"/>
<path d="M147,342v 4" fill="none" stroke="black"/>
<path d="M159,342v 4" fill="none" stroke="black"/>
<path d="M170,337v 9" fill="none" stroke="black"/>
<path d="M181,342v 4" fill="none" stroke="black"/>
<path d="M193,342v 4" fill="none" stroke="black"/>
<path d="M204,342v 4" fill="none" stroke="black"/>
<path d="M215,342v 4" fill="none" stroke="black"/>
<path d="M227,337v 9" fill="none" stroke="black"/>
<path d="M238,342v 4" fill="none" stroke="black"/>
<path d="M249,342v 4" fill="none" stroke="black"/>
<path d="M261,342v 4" fill="none" stroke="black"/>
<path d="M272,342v 4" fill="none" stroke="black"/>
<path d="M283,337v 9" fill="none" stroke="black"/>
<path d="M295,342v 4" fill="none" stroke="black"/>
<path d="M306,342v 4" fill="none" stroke="black"/>
<path d="M317,342v 4" fill="none" stroke="black"/>
<path d="M329,342v 4" fill="none" stroke="black"/>
<path d="M340,337v 9" fill="none" stroke="black"/>
<path d="M351,342v 4" fill="none" stroke="black"/>
<path d="M363,342v 4" fill="none" stroke="black"/>
<path d="M374,342v 4" fill="none" stroke="black"/>
<path d="M386,342v 4" fill="none" stroke="black"/>
<path d="M397,337v 9" fill="none" stroke="black"/>
<path d="M408,342v 4" fill="none" stroke="black"/>
<path d="M420,342v 4" fill="none" stroke="black"/>
<path d="M431,342v 4" fill="none" stroke="black"/>
<path d="M442,342v 4" fill="none" stroke="black"/>
<path d="M454,337v 9" fill="none" stroke="black"/>
<path d="M465,342v 4" fill="none" stroke="black"/>
<path d="M476,342v 4" fill="none" stroke="black"/>
<path d="M488,342v 4" fill="none" stroke="black"/>
<path d="M499,342v 4" fill="none" stroke="black"/>
<path d="M510,337v 9" fill="none" stroke="black"/>
<text x="36" y="359" fill="black" font-size="12" font-family="Helvetica">
-20000
</text>
<text x="93" y="359" fill="black" font-size="12" font-family="Helvetica">
-15000
</text>
<text x="149" y="359" fill="black" font-size="12" font-family="Helvetica">
-10000
</text>
<text x="210" y="359" fill="black" font-size="12" font-family="Helvetica">
-5000
</text>
<text x="280" y="359" fill="black" font-size="12" font-family="Helvetica">
0
</text>
<text x="325" y="359" fill="black" font-size="12" font-family="Helvetica">
5000
</text>
<text x="379" y="359" fill="black" font-size="12" font-family="Helvetica">
10000
</text>
<text x="435" y="359" fill="black" font-size="12" font-family="Helvetica">
15000
</text>
<text x="492" y="359" fill="black" font-size="12" font-family="Helvetica">
20000
</text>
<path d="M57,346v -308" fill="none" stroke="black"/>
<g transform="rotate(-90,29,72)">
<text x="29" y="72" fill="black" font-size="12" font-family="Helvetica">
Count
</text>
</g>
<path d="M70,346h -13" fill="none" stroke="black"/>
<path d="M63,331h -6" fill="none" stroke="black"/>
<path d="M63,316h -6" fill="none" stroke="black"/>
<path d="M63,301h -6" fill="none" stroke="black"/>
<path d="M70,286h -13" fill="none" stroke="black"/>
<path d="M63,271h -6" fill="none" stroke="black"/>
<path d="M63,256h -6" fill="none" stroke="black"/>
<path d="M63,241h -6" fill="none" stroke="black"/>
<path d="M70,225h -13" fill="none" stroke="black"/>
<path d="M63,210h -6" fill="none" stroke="black"/>
<path d="M63,195h -6" fill="none" stroke="black"/>
<path d="M63,180h -6" fill="none" stroke="black"/>
<path d="M70,165h -13" fill="none" stroke="black"/>
<path d="M63,150h -6" fill="none" stroke="black"/>
<path d="M63,135h -6" fill="none" stroke="black"/>
<path d="M63,120h -6" fill="none" stroke="black"/>
<path d="M70,104h -13" fill="none" stroke="black"/>
<path d="M63,89h -6" fill="none" stroke="black"/>
<path d="M63,74h -6" fill="none" stroke="black"/>
<path d="M63,59h -6" fill="none" stroke="black"/>
<path d="M70,44h -13" fill="none" stroke="black"/>
<path d="M70,44h -13" fill="none" stroke="black"/>
<text x="47" y="350" fill="black" font-size="12" font-family="Helvetica">
0
</text>
<text x="40" y="290" fill="black" font-size="12" font-family="Helvetica">
20
</text>
<text x="40" y="229" fill="black" font-size="12" font-family="Helvetica">
40
</text>
<text x="40" y="168" fill="black" font-size="12" font-family="Helvetica">
60
</text>
<text x="40" y="108" fill="black" font-size="12" font-family="Helvetica">
80
</text>
<text x="33" y="48" fill="black" font-size="12" font-family="Helvetica">
100
</text>
<rect x="442" y="25" width="114" height="46" fill="white"/>
<path d="M442,71h 114" fill="none" stroke="black"/>
<path d="M556,71v -46" fill="none" stroke="black"/>
<path d="M556,25h -114" fill="none" stroke="black"/>
<path d="M442,25v 46" fill="none" stroke="black"/>
<text x="447" y="28" fill="black" font-size="4" font-family="Helvetica">
Entries 
</text>
<text x="540" y="28" fill="black" font-size="4" font-family="Helvetica">
 7897
</text>
<text x="450" y="35" fill="black" font-size="4" font-family="Helvetica">
 / ndf 
</text>
<text x="449" y="31" fill="black" font-size="3" font-family="Helvetica">
2
</text>
<text x="447" y="35" fill="black" font-size="4" font-family="Times">
&#0967;
</text>
<text x="526" y="34" fill="black" font-size="4" font-family="Helvetica">
  4095 / 1240
</text>
<text x="452" y="37" fill="black" font-size="4" font-family="Helvetica">
   
</text>
<text x="450" y="40" fill="black" font-size="3" font-family="Helvetica">
cu
</text>
<text x="447" y="37" fill="black" font-size="4" font-family="Helvetica">
N
</text>
<text x="543" y="40" fill="black" font-size="4" font-family="Helvetica">
 4.4
</text>
<text x="541" y="40" fill="black" font-size="4" font-family="Times">
&#0177;
</text>
<text x="530" y="40" fill="black" font-size="4" font-family="Helvetica">
  39.7 
</text>
<text x="450" y="43" fill="black" font-size="4" font-family="Helvetica">
 
</text>
<text x="448" y="46" fill="black" font-size="3" font-family="Helvetica">
cu
</text>
<text x="447" y="43" fill="black" font-size="4" font-family="Times">
&#0964;
</text>
<text x="543" y="45" fill="black" font-size="4" font-family="Helvetica">
 1.1
</text>
<text x="541" y="45" fill="black" font-size="4" font-family="Times">
&#0177;
</text>
<text x="529" y="45" fill="black" font-size="4" font-family="Helvetica">
 164.5 
</text>
<text x="450" y="48" fill="black" font-size="4" font-family="Helvetica">
    
</text>
<text x="450" y="51" fill="black" font-size="3" font-family="Helvetica">
f
</text>
<text x="447" y="48" fill="black" font-size="4" font-family="Helvetica">
N
</text>
<text x="541" y="50" fill="black" font-size="4" font-family="Helvetica">
 0.85
</text>
<text x="538" y="50" fill="black" font-size="4" font-family="Times">
&#0177;
</text>
<text x="526" y="50" fill="black" font-size="4" font-family="Helvetica">
 21.49 
</text>
<text x="448" y="53" fill="black" font-size="4" font-family="Helvetica">
 
</text>
<text x="448" y="57" fill="black" font-size="3" font-family="Helvetica">
f
</text>
<text x="447" y="53" fill="black" font-size="4" font-family="Times">
&#0964;
</text>
<text x="541" y="55" fill="black" font-size="4" font-family="Helvetica">
 82.5
</text>
<text x="538" y="55" fill="black" font-size="4" font-family="Times">
&#0177;
</text>
<text x="526" y="55" fill="black" font-size="4" font-family="Helvetica">
  2234 
</text>
<text x="452" y="58" fill="black" font-size="4" font-family="Helvetica">
  
</text>
<text x="450" y="61" fill="black" font-size="3" font-family="Helvetica">
sin
</text>
<text x="447" y="58" fill="black" font-size="4" font-family="Helvetica">
N
</text>
<text x="543" y="60" fill="black" font-size="4" font-family="Helvetica">
 0.0
</text>
<text x="541" y="60" fill="black" font-size="4" font-family="Times">
&#0177;
</text>
<text x="532" y="60" fill="black" font-size="4" font-family="Helvetica">
     1 
</text>
<text x="447" y="65" fill="black" font-size="4" font-family="Helvetica">
T        
</text>
<text x="541" y="66" fill="black" font-size="4" font-family="Helvetica">
 0.00
</text>
<text x="538" y="66" fill="black" font-size="4" font-family="Times">
&#0177;
</text>
<text x="526" y="66" fill="black" font-size="4" font-family="Helvetica">
 59.31 
</text>
<text x="450" y="68" fill="black" font-size="4" font-family="Helvetica">
    
</text>
<text x="450" y="71" fill="black" font-size="3" font-family="Helvetica">
b
</text>
<text x="447" y="68" fill="black" font-size="4" font-family="Helvetica">
N
</text>
<text x="541" y="71" fill="black" font-size="4" font-family="Helvetica">
 0.05
</text>
<text x="538" y="71" fill="black" font-size="4" font-family="Times">
&#0177;
</text>
<text x="528" y="71" fill="black" font-size="4" font-family="Helvetica">
  1.72 
</text>
<text x="270" y="21" fill="black" font-size="21" font-family="Helvetica">
D4
</text></svg>
