<?xml version="1.0" standalone="no"?>
<svg width="567" height="328" viewBox="0 0 567 328" xmlns="http://www.w3.org/2000/svg">
<title>
images/analysis_g4bl_sin_phase_exec_d4_d5_l_bound50bin_8tight/rates/run_muon_rate_in_cu.svg
</title>
<desc>
Creator: ROOT Version 5.34/09
CreationDate: Tue Sep 17 01:52:02 2013</desc>
<defs>
</defs>
<rect x="0" y="0" width="567" height="328" fill="white"/>
<rect x="57" y="33" width="453" height="262" fill="white"/>
<rect x="57" y="33" width="453" height="262" fill="none" stroke="black"/>
<path d="M94,74v -14" fill="none" stroke="#000099"/>
<path d="M94,60v -15" fill="none" stroke="#000099"/>
<path d="M57,60h 37" fill="none" stroke="#000099"/>
<path d="M94,60h 38" fill="none" stroke="#000099"/>
<g stroke="black" stroke-width="1" fill="none">
<line x1="93" y1="60" x2="94" y2="60"/>
</g>
<path d="M170,245v -32" fill="none" stroke="#000099"/>
<path d="M170,213v -32" fill="none" stroke="#000099"/>
<path d="M132,213h 38" fill="none" stroke="#000099"/>
<path d="M170,213h 38" fill="none" stroke="#000099"/>
<g stroke="black" stroke-width="1" fill="none">
<line x1="169" y1="213" x2="170" y2="213"/>
</g>
<path d="M246,184v -16" fill="none" stroke="#000099"/>
<path d="M246,168v -15" fill="none" stroke="#000099"/>
<path d="M208,168h 38" fill="none" stroke="#000099"/>
<path d="M246,168h 37" fill="none" stroke="#000099"/>
<g stroke="black" stroke-width="1" fill="none">
<line x1="245" y1="168" x2="246" y2="168"/>
</g>
<path d="M321,203v -13" fill="none" stroke="#000099"/>
<path d="M321,190v -13" fill="none" stroke="#000099"/>
<path d="M283,190h 38" fill="none" stroke="#000099"/>
<path d="M321,190h 38" fill="none" stroke="#000099"/>
<g stroke="black" stroke-width="1" fill="none">
<line x1="320" y1="190" x2="321" y2="190"/>
</g>
<path d="M397,283v -10" fill="none" stroke="#000099"/>
<path d="M397,273v -11" fill="none" stroke="#000099"/>
<path d="M359,273h 38" fill="none" stroke="#000099"/>
<path d="M397,273h 38" fill="none" stroke="#000099"/>
<g stroke="black" stroke-width="1" fill="none">
<line x1="396" y1="273" x2="397" y2="273"/>
</g>
<path d="M472,251v -17" fill="none" stroke="#000099"/>
<path d="M472,234v -16" fill="none" stroke="#000099"/>
<path d="M435,234h 37" fill="none" stroke="#000099"/>
<path d="M472,234h 38" fill="none" stroke="#000099"/>
<g stroke="black" stroke-width="1" fill="none">
<line x1="471" y1="234" x2="472" y2="234"/>
</g>
<path d="M57,295h 453" fill="none" stroke="black"/>
<text x="466" y="317" fill="black" font-size="11" font-family="Helvetica">
Degrader
</text>
<text x="92" y="304" fill="black" font-size="7" font-family="Helvetica">
0
</text>
<text x="165" y="304" fill="black" font-size="7" font-family="Helvetica">
0.5
</text>
<text x="240" y="304" fill="black" font-size="7" font-family="Helvetica">
0.5
</text>
<text x="319" y="304" fill="black" font-size="7" font-family="Helvetica">
1
</text>
<text x="395" y="304" fill="black" font-size="7" font-family="Helvetica">
5
</text>
<text x="470" y="304" fill="black" font-size="7" font-family="Helvetica">
5
</text>
<path d="M57,287v 8" fill="none" stroke="black"/>
<path d="M132,287v 8" fill="none" stroke="black"/>
<path d="M208,287v 8" fill="none" stroke="black"/>
<path d="M283,287v 8" fill="none" stroke="black"/>
<path d="M359,287v 8" fill="none" stroke="black"/>
<path d="M435,287v 8" fill="none" stroke="black"/>
<path d="M510,287v 8" fill="none" stroke="black"/>
<path d="M57,295v -262" fill="none" stroke="black"/>
<g transform="rotate(-90,29,35)">
<text x="29" y="35" fill="black" font-size="11" font-family="Helvetica">
)
</text>
</g>
<g transform="rotate(-90,24,41)">
<text x="24" y="41" fill="black" font-size="7" font-family="Helvetica">
-1
</text>
</g>
<g transform="rotate(-90,29,108)">
<text x="29" y="108" fill="black" font-size="11" font-family="Helvetica">
Muon rate (nA
</text>
</g>
<path d="M70,274h -13" fill="none" stroke="black"/>
<path d="M63,268h -6" fill="none" stroke="black"/>
<path d="M63,261h -6" fill="none" stroke="black"/>
<path d="M63,255h -6" fill="none" stroke="black"/>
<path d="M63,249h -6" fill="none" stroke="black"/>
<path d="M70,243h -13" fill="none" stroke="black"/>
<path d="M63,237h -6" fill="none" stroke="black"/>
<path d="M63,230h -6" fill="none" stroke="black"/>
<path d="M63,224h -6" fill="none" stroke="black"/>
<path d="M63,218h -6" fill="none" stroke="black"/>
<path d="M70,212h -13" fill="none" stroke="black"/>
<path d="M63,205h -6" fill="none" stroke="black"/>
<path d="M63,199h -6" fill="none" stroke="black"/>
<path d="M63,193h -6" fill="none" stroke="black"/>
<path d="M63,187h -6" fill="none" stroke="black"/>
<path d="M70,180h -13" fill="none" stroke="black"/>
<path d="M63,174h -6" fill="none" stroke="black"/>
<path d="M63,168h -6" fill="none" stroke="black"/>
<path d="M63,162h -6" fill="none" stroke="black"/>
<path d="M63,155h -6" fill="none" stroke="black"/>
<path d="M70,149h -13" fill="none" stroke="black"/>
<path d="M63,143h -6" fill="none" stroke="black"/>
<path d="M63,137h -6" fill="none" stroke="black"/>
<path d="M63,130h -6" fill="none" stroke="black"/>
<path d="M63,124h -6" fill="none" stroke="black"/>
<path d="M70,118h -13" fill="none" stroke="black"/>
<path d="M63,112h -6" fill="none" stroke="black"/>
<path d="M63,105h -6" fill="none" stroke="black"/>
<path d="M63,99h -6" fill="none" stroke="black"/>
<path d="M63,93h -6" fill="none" stroke="black"/>
<path d="M70,87h -13" fill="none" stroke="black"/>
<path d="M63,81h -6" fill="none" stroke="black"/>
<path d="M63,74h -6" fill="none" stroke="black"/>
<path d="M63,68h -6" fill="none" stroke="black"/>
<path d="M63,62h -6" fill="none" stroke="black"/>
<path d="M70,56h -13" fill="none" stroke="black"/>
<path d="M70,274h -13" fill="none" stroke="black"/>
<path d="M63,280h -6" fill="none" stroke="black"/>
<path d="M63,286h -6" fill="none" stroke="black"/>
<path d="M63,293h -6" fill="none" stroke="black"/>
<path d="M70,56h -13" fill="none" stroke="black"/>
<path d="M63,49h -6" fill="none" stroke="black"/>
<path d="M63,43h -6" fill="none" stroke="black"/>
<path d="M63,37h -6" fill="none" stroke="black"/>
<text x="36" y="278" fill="black" font-size="11" font-family="Helvetica">
160
</text>
<text x="36" y="246" fill="black" font-size="11" font-family="Helvetica">
170
</text>
<text x="36" y="215" fill="black" font-size="11" font-family="Helvetica">
180
</text>
<text x="36" y="184" fill="black" font-size="11" font-family="Helvetica">
190
</text>
<text x="36" y="153" fill="black" font-size="11" font-family="Helvetica">
200
</text>
<text x="36" y="122" fill="black" font-size="11" font-family="Helvetica">
210
</text>
<text x="36" y="90" fill="black" font-size="11" font-family="Helvetica">
220
</text>
<text x="36" y="59" fill="black" font-size="11" font-family="Helvetica">
230
</text>
<text x="179" y="16" fill="black" font-size="16" font-family="Helvetica">
Rate of muons decaying in cu
</text>
<rect x="442" y="22" width="114" height="39" fill="white"/>
<path d="M442,61h 114" fill="none" stroke="black"/>
<path d="M556,61v -39" fill="none" stroke="black"/>
<path d="M556,22h -114" fill="none" stroke="black"/>
<path d="M442,22v 39" fill="none" stroke="black"/>
<text x="448" y="47" fill="black" font-size="16" font-family="Helvetica">
Entries 
</text>
<text x="536" y="47" fill="black" font-size="16" font-family="Helvetica">
 6
</text>
<text x="179" y="16" fill="black" font-size="16" font-family="Helvetica">
Rate of muons decaying in cu
</text></svg>
