<?xml version="1.0" standalone="no"?>
<svg width="567" height="385" viewBox="0 0 567 385" xmlns="http://www.w3.org/2000/svg">
<title>
images/analysis/451_D1.svg
</title>
<desc>
Creator: ROOT Version 5.34/05
CreationDate: Sat Jun  8 18:40:20 2013</desc>
<defs>
</defs>
<rect x="0" y="0" width="567" height="385" fill="white"/>
<rect x="57" y="38" width="453" height="308" fill="white"/>
<rect x="57" y="38" width="453" height="308" fill="none" stroke="black"/>
<rect x="57" y="38" width="453" height="308" fill="white"/>
<rect x="57" y="38" width="453" height="308" fill="none" stroke="black"/>
<path d="M57,346h 42v -1v 1h 1v -1v 1v -1v 1v -1h 1v 1v -2v 2v -2h 1v 1v -5v 4v -38h 1v 7v -13v 14v -4h 1v -21v 22v -32h 1v 29v -19v 14v -5h 1v -18v 28v -5h 1v 1v -25v 36h 1v -46v 48v -37h 1v 29v -20v 27v -11h 1v -19v 30v -40h 1v 33v -28v 30v -12h 1v
 -20v 30v -30h 1v 30v -26v 23h 1v -13v 12v -29h 1v 41v -40v 40h 1v -15v 3v -13v 17v -13h 1v -9v 33v -38v 35h 1v -36v 18v -3v 13h 1v -16v 21v -35v 31h 1v -35v 31h 1v -23v 20h 1v 2v -20v 25v -6h 1v -16v 22v -38v 37h 1v -18v 22h 1v -37v 29v -13v 17h 1v
 -26v 31h 1v -23v 19v -22v 11h 1v 5v -29v 40h 1v -45v 36v -32v 14h 1v 22v -18v 14h 1v -19v 22v -15v 6h 1v 13v -45v 43h 1v -20v 24v -30h 1v 21v -13v 24h 1v -19v 5v -1v 13v -21h 1v 14v -10v 2h 1v -19v 25v -7v 5v -11h 1v 11v -28v 35h 1v 2v -36v 33v -28h
 1v 31v -24v 19h 1v 5v -33v 29v -27h 1v -2v 37v -24v 10h 1v -24v 24v -17h 1v 16v -23v 31v -7h 1v -11v 16v -22h 1v 29v -23v 7v -3h 1v -8v 17v -18h 1v 23v -29v 25h 1v -18v 18v -13h 1v -10v 25v -19v 16h 1v 4v -24v 18h 1v -5v 15v -28v 31v -1h 1v -26v 26v
 -18h 1v -17v 25v -16v 28h 1v -43v 37v -13h 1v -12v 24v -22v 25h 1v -34v 38v -3h 1v -37v 36v -24v 21h 1v -14v 12v -6h 1v -19v 26v -47v 35h 1v -11v 30h 1v -19v 17v -34v 12h 1v -1v 12v -15v 15v -4h 1v -14v 32v -21v 6h 1v 14v -40v 35v -7h 1v -28v 35v
 -23v 3h 1v 23v -21v 12h 1v -5v 2v -4v 23v -36v 9h 1v 16v -21v 16h 1v 3v -11v 13v -17v 3h 1v 19v -26v 10h 1v 3v -19v 23v -24h 1v 22v -30v 40h 1v -28v 17v -14h 1v 25v -18v 24h 1v -33v 26v -26h 1v 16v -10v 10h 1v 13v -34v 26v -21h 1v 28v -46v 40h 1v 2v
 -28v 37v -38h 1v 22v -22v 23h 1v -25v 30v -21h 1v 13v -27v 18h 1v 13v -24v 18v -32h 1v 49v -32v 32h 1v -37v 26v -6h 1v -6v 23v -26v 28h 1v -32v 29v -23h 1v -2v 12v -21v 28h 1v -18v 6v -7v 14v -9h 1v -17v 36v -28v 19h 1v 2v -8v 22v -14h 1v -26v 32v
 -15v 10h 1v 14v -37v 23v -3v 8h 1v -29v 41v -39v 22h 1v -20v 24h 1v -16v 19v -27v 16h 1v 9v -21v 20h 1v -28v 29v -23v 17h 1v -16v 21h 1v -27v 23v -23v 19h 1v 6v -19v 22h 1v -28v 16v -5v 6v -28h 1v 27v -9v 12v -2h 1v -10v 23v -25v 7h 1v 16v -16v 13h
 1v -26v 32v -46h 1v 44v -33v 28h 1v -14v 20v -40h 1v 32v -22v 28v -14h 1v 5v -19v 22v -27h 1v 21v -27v 44h 1v -45v 42v -47h 1v 45v -34v 23h 1v 2v -33v 25v -11h 1v 27v -9v 4v -36v 45h 1v -28v 10v -1v 13v -25h 1v 24v -28v 27h 1v 4v -36v 31v -21h 1v
 21v -29v 32h 1v -34v 31h 1v -25v 37v -33v 15h 1v 3v -20v 20v -9h 1v -11v 30v -29v 2h 1v 21v -27v 32v -8v 13h 1v -36v 37v -39v 45h 1v -35v 11v -6h 1v -16v 36v -35v 25h 1v -19v 26v -11h 1v -23v 35v -31v 38h 1v -38v 25h 1v -11v 1v -21v 22h 1v 3v -21v
 34h 1v -19v 9v -24v 42h 1v -31v 27h 1v -50v 50v -26v 1h 1v 22v -37v 31h 1v -42v 38v -21v 11h 1v 14v -22v 12v -4h 1v 8v -34v 47v -32h 1v 24v -24v 26h 1v -19v 21v -33h 1v 28v -15v 12h 1v -16v 22v -36h 1v 34v -28v 34h 1v -32v 21v -8h 1v 9v -24v 19h 1v
 9v -22v 24v -32h 1v 36v -22v 23h 1v -37v 25v -15h 1v 15v -4v 8v -28v 20h 1v 8v -25v 14v -16h 1v 27v -22h 1v 20v -30v 33v -22h 1v 21v -34v 28h 1v 7v -22v 19v -34h 1v 37v -35v 22h 1v 7v -18v 31v -25h 1v -5v 14v -15v 6h 1v 14v -17v 22v -14h 1v -25v 29v
 -28h 1v 31v -16v 33v -22h 1v -40v 34v -7v 7h 1v 8v -24v 29h 1v -34v 35v -31h 1v 29v -22v 27v -16h 1v -27v 50v -34v 11h 1v 15v -23v 23h 1v -21v 18v -18v 22h 1v -23v 25v -5h 1v -25v 41v -50v 14h 1v 20v -31v 30h 1v -28v 33v -27h 1v 21v -27v 23h 1v -25v
 38v -28h 1v 25v -38v 26v -1h 1v 1v -23v 24v -20v 13h 1v 11v -31v 30v -5h 1v -20v 33v -41h 1v 45v -31v 13v -2h 1v -14v 19v -19h 1v 19v -34h 1v -212v 293v -248v 39h 1v 65v -35h 1v 29v -29v 18v -16h 1v 36v -33v 29h 1v 4v -27v 27v -27h 1v 31v -29v 27h
 1v -7v 20v -18h 1v 23v -39v 26h 1v 6v -21v 21v -22h 1v 24v -24v 24h 1v 5v -18v 23v -41h 1v 50v -34v 20h 1v 5v -23v 24v -41h 1v 32v -5v 17v -9h 1v -3v 24v -15h 1v -34v 46v -6v 14h 1v -19v 7v -37v 46v -30h 1v 34v -12h 1v 7v -21v 29v -15h 1v -20v 31v
 -28h 1v 37v -34v 33v -24h 1v -10v 16v -15h 1v 44v -46v 40v -15h 1v -13v 34v -34h 1v 32v -25v 22h 1v -20v 25v -22h 1v 22v -30v 20h 1v 9v -26v 31v -25h 1v 33v -53v 37h 1v -17v 23v -35v 33h 1v -21v 38v -15h 1v -38v 42v -24h 1v 44v -41v 10v -2h 1v 14v
 -28v 27v -7v 1v -7h 1v 16v -26v 24v -3h 1v 9v -48v 44v -26h 1v 28v -36v 34h 1v 3v -8v 3v -22v 5h 1v 21v -23v 27h 1v 15v -37v 16v -5v 9v -25h 1v 30v -35v 28h 1v -15v 36v -57h 1v 52v -27v 39h 1v 4v -72v 51v -24h 1v 43v -43v 19h 1v -38v 50v -27h 1v 15v
 -29v 19h 1v 26v -41v 34v -26h 1v -11v 34v -24v 27h 1v -8v 3v -22v 19v -22h 1v -6v 34v -30v 11h 1v 17v -17v 19v -9h 1v -14v 28v -33v 20h 1v 19v -30v 16v -9h 1v -7v 21v -25v 1h 1v 21v -34v 41v -3h 1v -34v 34v -28h 1v 34v -27v 22v -12h 1v -5v 19v -24h
 1v 26v -32v 36v -14h 1v -7v 9v -19h 1v 19v -9v 20v -12h 1v -21v 27v -23h 1v 22v -23v 31h 1v -32v 28v -39h 1v 41v -27v 32h 1v -40v 33v -15v 1h 1v -8v 31v -29v 24v -17h 1v 10v -22v 27v -27v 8h 1v 20v -23v 33h 1v -33v 16v -15v 4h 1v 11v -28v 33h 1v 5v
 -21v 12v -7h 1v 13v -20v 15h 1v -30v 33v -32h 1v 38v -29v 37h 1v -28v 15v -25h 1v 29v -28v 31h 1v -28v 25v -25h 1v 16v -25v 14h 1v 10v -16v 31v -38h 1v 25v -15v 26h 1v -30v 30v -37h 1v 32v -35v 38h 1v -32v 28v -9h 1v -28v 37v -26v 18h 1v -11v 19v
 -36v 48v -26h 1v -8v 31v -29v 3h 1v 17v -34v 40v -19h 1v -7v 35v -41v 9h 1v 27v -27v 15v -1h 1v -28v 34v -16v 14v -24h 1v 18v -31v 48v -9h 1v -33v 36v -28v 5h 1v 14v -33v 40h 1v -35v 43v -45h 1v 31v -16v 22v -9h 1v -20v 31v -59h 1v 61v -36v 29h 1v
 -19v 23v -17h 1v 20v -33v 17h 1v -15v 29v -28h 1v 17v -21v 34h 1v -41v 37v -18h 1v -10v 23v -23v 23h 1v -21v 26v -21h 1v 18v -19v 18h 1v -25v 22v -16h 1v 24v -25v 20h 1v -22v 33v -35h 1v 27v -22v 24h 1v -29v 24v -1v 1v -29h 1v 26v -6v 1v -15v 18h 1v
 3v -14v 33v -35h 1v 19v -30v 24h 1v -24v 29v -22h 1v 17v -15v 21h 1v 2v -19v 27v -27v 5h 1v -5v 24v -27v 8h 1v 8v -21v 32v -27h 1v 35v -33v 12h 1v 8v -39v 40v -9h 1v -8v 13v -17v 4h 1v 14v -17v 11v -6h 1v -1v 16v -24h 1v 30v -30v 29v -15h 1v -22v
 26v -16v 2h 1v 28v -36v 30v -26h 1v 17v -11v 12v -28h 1v 35v -34v 27v -3h 1v -19v 35v -27h 1v 19v -23v 29h 1v -31v 32v -34h 1v 32v -27v 29v -17h 1v -6v 16v -23h 1v 23v -22v 19v -19v 25v -3h 1v -25v 25v -19h 1v -1v 20v -9v 12h 1v -15v 18v -14h 1v
 -25v 33v -33v 35v -21h 1v 9v -11v 30v -25h 1v 21v -31v 18h 1v 3v -17v 34v -22h 1v 11v -39v 41h 1v -29v 27h 1v -27v 32v -25v 27h 1v -39v 34v -5h 1v -17v 19v -17v 13h 1v 12v -28v 27h 1v -44v 42v -27v 22h 1v -33v 28v -11h 1v 10v -22h 1v 24v -6v 12v
 -30h 1v 37v -24v 15h 1v 13v -33v 20v -20h 1v 32v -44v 15h 1v 19v -27v 17h 1v 2v -9v 11v -19v 18h 1v 2v -16v 17v -4h 1v -26v 39v -22h 1v 20v -31v 23v -5h 1v -24v 30v -24v 28h 1v -27v 23v -10h 1v -4v 16v -29h 1v 35v -28v 17h 1v -39v 44v -21h 1v 29v
 -40v 30h 1v -36v 52v -37h 1v 25v -17v 20v -9h 1v -7v 6v -5v 12v -18h 1v 14v -13v 13h 1v -18v 25v -30h 1v 37v -44v 28h 1v -5v 17v -40h 1v -1v 31v -17v 25h 1v -21v 24v -32h 1v 23v -27v 22h 1v -20v 30v -14h 1v -1v 16v -31v 21h 1v -22v 31v -31h 1v 32v
 -43v 27h 1v 6v -23v 25v -10h 1v -13v 27v -23v 18h 1v -26v 25h 1v -27v 37v -21v 23h 1v -37v 43v -11h 1v -13v 17v -33v 26h 1v -14v 12v -2h 1v -13v 23v -37v 25h 1v 11v -44v 39v -2h 1v -15v 19v -29v 24h 1v -22v 27v -27h 1v 33v -45v 27h 1v 13v -36v 29v
 -18h 1v -4v 32v -28h 1v 36v -37v 21v -1h 1v -9v 18v -23v 11h 1v 7v -23v 33v -10h 1v -30v 30v -22h 1v 19v -31v 36h 1v -13v 4v -13h 1v 21v -23v 28h 1v -29v 24v -24v 2h 1v 18v -23v 30v -7h 1v -36v 44v -44h 1v 38v -14v 22h 1v -33v 27v -48h 1v 54v -41v
 38h 1v -28v 25v -21h 1v 21v -30v 30h 1v -11v 1v -12h 1v 22v -29v 17v -1h 1v 6v -15v 25v -21h 1v 1v -6v 21v -27v 33h 1v -20v 23v -29h 1v -3v 3v -12v 38h 1v -39v 27v -5v 9h 1v -26v 30v -23v 27h 1v -23v 13v -10h 1v -11v 22v -19v 33h 1v -32v 16v -12h 1v
 18v -21v 12h 1v -4v 10v -17v 24v -9h 1v -25v 26v -16v 20h 1v -13v 8v -19v 23h 1v -22v 19v -26v 32h 1v -20v 12v -3h 1v -8v 21v -13" fill="none" stroke="#000099"/>
<path d="M284,165v 19" fill="none" stroke="#ff0000" stroke-width="2"/>
<path d="M285,164v 27" fill="none" stroke="#ff0000" stroke-width="2"/>
<path d="M285,173v 22" fill="none" stroke="#ff0000" stroke-width="2"/>
<path d="M286,177v 26" fill="none" stroke="#ff0000" stroke-width="2"/>
<path d="M287,181v 25" fill="none" stroke="#ff0000" stroke-width="2"/>
<path d="M288,184v 25" fill="none" stroke="#ff0000" stroke-width="2"/>
<path d="M289,187v 25" fill="none" stroke="#ff0000" stroke-width="2"/>
<path d="M289,192v 24" fill="none" stroke="#ff0000" stroke-width="2"/>
<path d="M290,194v 26" fill="none" stroke="#ff0000" stroke-width="2"/>
<path d="M291,197v 25" fill="none" stroke="#ff0000" stroke-width="2"/>
<path d="M292,199v 26" fill="none" stroke="#ff0000" stroke-width="2"/>
<path d="M293,204v 23" fill="none" stroke="#ff0000" stroke-width="2"/>
<path d="M293,207v 24" fill="none" stroke="#ff0000" stroke-width="2"/>
<path d="M294,208v 25" fill="none" stroke="#ff0000" stroke-width="2"/>
<path d="M295,211v 24" fill="none" stroke="#ff0000" stroke-width="2"/>
<path d="M296,212v 26" fill="none" stroke="#ff0000" stroke-width="2"/>
<path d="M297,216v 23" fill="none" stroke="#ff0000" stroke-width="2"/>
<path d="M298,218v 25" fill="none" stroke="#ff0000" stroke-width="2"/>
<path d="M298,220v 25" fill="none" stroke="#ff0000" stroke-width="2"/>
<path d="M299,222v 25" fill="none" stroke="#ff0000" stroke-width="2"/>
<path d="M300,224v 24" fill="none" stroke="#ff0000" stroke-width="2"/>
<path d="M301,227v 23" fill="none" stroke="#ff0000" stroke-width="2"/>
<path d="M302,229v 24" fill="none" stroke="#ff0000" stroke-width="2"/>
<path d="M302,230v 25" fill="none" stroke="#ff0000" stroke-width="2"/>
<path d="M303,232v 24" fill="none" stroke="#ff0000" stroke-width="2"/>
<path d="M304,233v 25" fill="none" stroke="#ff0000" stroke-width="2"/>
<path d="M305,236v 23" fill="none" stroke="#ff0000" stroke-width="2"/>
<path d="M306,237v 25" fill="none" stroke="#ff0000" stroke-width="2"/>
<path d="M307,238v 25" fill="none" stroke="#ff0000" stroke-width="2"/>
<path d="M307,240v 24" fill="none" stroke="#ff0000" stroke-width="2"/>
<path d="M308,242v 23" fill="none" stroke="#ff0000" stroke-width="2"/>
<path d="M309,243v 25" fill="none" stroke="#ff0000" stroke-width="2"/>
<path d="M310,245v 24" fill="none" stroke="#ff0000" stroke-width="2"/>
<path d="M311,246v 24" fill="none" stroke="#ff0000" stroke-width="2"/>
<path d="M311,247v 24" fill="none" stroke="#ff0000" stroke-width="2"/>
<path d="M312,249v 23" fill="none" stroke="#ff0000" stroke-width="2"/>
<path d="M313,250v 24" fill="none" stroke="#ff0000" stroke-width="2"/>
<path d="M314,251v 24" fill="none" stroke="#ff0000" stroke-width="2"/>
<path d="M315,251v 25" fill="none" stroke="#ff0000" stroke-width="2"/>
<path d="M315,252v 25" fill="none" stroke="#ff0000" stroke-width="2"/>
<path d="M316,255v 22" fill="none" stroke="#ff0000" stroke-width="2"/>
<path d="M317,255v 24" fill="none" stroke="#ff0000" stroke-width="2"/>
<path d="M318,256v 25" fill="none" stroke="#ff0000" stroke-width="2"/>
<path d="M319,257v 24" fill="none" stroke="#ff0000" stroke-width="2"/>
<path d="M320,258v 24" fill="none" stroke="#ff0000" stroke-width="2"/>
<path d="M320,259v 23" fill="none" stroke="#ff0000" stroke-width="2"/>
<path d="M321,260v 24" fill="none" stroke="#ff0000" stroke-width="2"/>
<path d="M322,260v 25" fill="none" stroke="#ff0000" stroke-width="2"/>
<path d="M323,261v 25" fill="none" stroke="#ff0000" stroke-width="2"/>
<path d="M324,263v 23" fill="none" stroke="#ff0000" stroke-width="2"/>
<path d="M324,264v 23" fill="none" stroke="#ff0000" stroke-width="2"/>
<path d="M325,264v 24" fill="none" stroke="#ff0000" stroke-width="2"/>
<path d="M326,264v 25" fill="none" stroke="#ff0000" stroke-width="2"/>
<path d="M327,265v 24" fill="none" stroke="#ff0000" stroke-width="2"/>
<path d="M328,266v 24" fill="none" stroke="#ff0000" stroke-width="2"/>
<path d="M329,267v 24" fill="none" stroke="#ff0000" stroke-width="2"/>
<path d="M329,267v 24" fill="none" stroke="#ff0000" stroke-width="2"/>
<path d="M330,268v 24" fill="none" stroke="#ff0000" stroke-width="2"/>
<path d="M331,269v 23" fill="none" stroke="#ff0000" stroke-width="2"/>
<path d="M332,269v 24" fill="none" stroke="#ff0000" stroke-width="2"/>
<path d="M333,269v 25" fill="none" stroke="#ff0000" stroke-width="2"/>
<path d="M333,270v 24" fill="none" stroke="#ff0000" stroke-width="2"/>
<path d="M334,270v 25" fill="none" stroke="#ff0000" stroke-width="2"/>
<path d="M335,271v 24" fill="none" stroke="#ff0000" stroke-width="2"/>
<path d="M336,272v 23" fill="none" stroke="#ff0000" stroke-width="2"/>
<path d="M337,272v 24" fill="none" stroke="#ff0000" stroke-width="2"/>
<path d="M337,273v 23" fill="none" stroke="#ff0000" stroke-width="2"/>
<path d="M338,273v 24" fill="none" stroke="#ff0000" stroke-width="2"/>
<path d="M339,273v 24" fill="none" stroke="#ff0000" stroke-width="2"/>
<path d="M340,274v 24" fill="none" stroke="#ff0000" stroke-width="2"/>
<path d="M341,274v 25" fill="none" stroke="#ff0000" stroke-width="2"/>
<path d="M342,274v 25" fill="none" stroke="#ff0000" stroke-width="2"/>
<path d="M342,275v 24" fill="none" stroke="#ff0000" stroke-width="2"/>
<path d="M343,275v 24" fill="none" stroke="#ff0000" stroke-width="2"/>
<path d="M344,276v 23" fill="none" stroke="#ff0000" stroke-width="2"/>
<path d="M345,276v 24" fill="none" stroke="#ff0000" stroke-width="2"/>
<path d="M346,277v 23" fill="none" stroke="#ff0000" stroke-width="2"/>
<path d="M346,277v 23" fill="none" stroke="#ff0000" stroke-width="2"/>
<path d="M347,277v 24" fill="none" stroke="#ff0000" stroke-width="2"/>
<path d="M348,277v 24" fill="none" stroke="#ff0000" stroke-width="2"/>
<path d="M349,277v 25" fill="none" stroke="#ff0000" stroke-width="2"/>
<path d="M350,277v 25" fill="none" stroke="#ff0000" stroke-width="2"/>
<path d="M351,278v 24" fill="none" stroke="#ff0000" stroke-width="2"/>
<path d="M351,278v 24" fill="none" stroke="#ff0000" stroke-width="2"/>
<path d="M352,278v 25" fill="none" stroke="#ff0000" stroke-width="2"/>
<path d="M353,279v 24" fill="none" stroke="#ff0000" stroke-width="2"/>
<path d="M354,279v 24" fill="none" stroke="#ff0000" stroke-width="2"/>
<path d="M355,279v 25" fill="none" stroke="#ff0000" stroke-width="2"/>
<path d="M355,280v 24" fill="none" stroke="#ff0000" stroke-width="2"/>
<path d="M356,280v 24" fill="none" stroke="#ff0000" stroke-width="2"/>
<path d="M357,280v 24" fill="none" stroke="#ff0000" stroke-width="2"/>
<path d="M358,280v 24" fill="none" stroke="#ff0000" stroke-width="2"/>
<path d="M359,281v 23" fill="none" stroke="#ff0000" stroke-width="2"/>
<path d="M359,281v 23" fill="none" stroke="#ff0000" stroke-width="2"/>
<path d="M360,281v 23" fill="none" stroke="#ff0000" stroke-width="2"/>
<path d="M361,281v 24" fill="none" stroke="#ff0000" stroke-width="2"/>
<path d="M362,282v 23" fill="none" stroke="#ff0000" stroke-width="2"/>
<path d="M363,282v 23" fill="none" stroke="#ff0000" stroke-width="2"/>
<path d="M364,282v 23" fill="none" stroke="#ff0000" stroke-width="2"/>
<path d="M364,282v 23" fill="none" stroke="#ff0000" stroke-width="2"/>
<path d="M365,282v 24" fill="none" stroke="#ff0000" stroke-width="2"/>
<path d="M366,282v 24" fill="none" stroke="#ff0000" stroke-width="2"/>
<path d="M367,282v 24" fill="none" stroke="#ff0000" stroke-width="2"/>
<path d="M368,282v 24" fill="none" stroke="#ff0000" stroke-width="2"/>
<path d="M368,282v 24" fill="none" stroke="#ff0000" stroke-width="2"/>
<path d="M369,282v 24" fill="none" stroke="#ff0000" stroke-width="2"/>
<path d="M370,282v 24" fill="none" stroke="#ff0000" stroke-width="2"/>
<path d="M371,282v 25" fill="none" stroke="#ff0000" stroke-width="2"/>
<path d="M372,282v 25" fill="none" stroke="#ff0000" stroke-width="2"/>
<path d="M372,283v 24" fill="none" stroke="#ff0000" stroke-width="2"/>
<path d="M373,283v 24" fill="none" stroke="#ff0000" stroke-width="2"/>
<path d="M374,283v 24" fill="none" stroke="#ff0000" stroke-width="2"/>
<path d="M375,283v 24" fill="none" stroke="#ff0000" stroke-width="2"/>
<path d="M376,283v 25" fill="none" stroke="#ff0000" stroke-width="2"/>
<path d="M377,283v 25" fill="none" stroke="#ff0000" stroke-width="2"/>
<path d="M377,283v 25" fill="none" stroke="#ff0000" stroke-width="2"/>
<path d="M378,284v 24" fill="none" stroke="#ff0000" stroke-width="2"/>
<path d="M379,284v 24" fill="none" stroke="#ff0000" stroke-width="2"/>
<path d="M380,284v 24" fill="none" stroke="#ff0000" stroke-width="2"/>
<path d="M381,284v 24" fill="none" stroke="#ff0000" stroke-width="2"/>
<path d="M381,284v 24" fill="none" stroke="#ff0000" stroke-width="2"/>
<path d="M382,284v 24" fill="none" stroke="#ff0000" stroke-width="2"/>
<path d="M383,284v 24" fill="none" stroke="#ff0000" stroke-width="2"/>
<path d="M384,284v 24" fill="none" stroke="#ff0000" stroke-width="2"/>
<path d="M385,284v 24" fill="none" stroke="#ff0000" stroke-width="2"/>
<path d="M386,284v 24" fill="none" stroke="#ff0000" stroke-width="2"/>
<path d="M386,284v 24" fill="none" stroke="#ff0000" stroke-width="2"/>
<path d="M387,284v 24" fill="none" stroke="#ff0000" stroke-width="2"/>
<path d="M388,285v 23" fill="none" stroke="#ff0000" stroke-width="2"/>
<path d="M389,285v 23" fill="none" stroke="#ff0000" stroke-width="2"/>
<path d="M390,285v 23" fill="none" stroke="#ff0000" stroke-width="2"/>
<path d="M390,285v 23" fill="none" stroke="#ff0000" stroke-width="2"/>
<path d="M391,285v 23" fill="none" stroke="#ff0000" stroke-width="2"/>
<path d="M392,285v 23" fill="none" stroke="#ff0000" stroke-width="2"/>
<path d="M393,285v 23" fill="none" stroke="#ff0000" stroke-width="2"/>
<path d="M394,285v 23" fill="none" stroke="#ff0000" stroke-width="2"/>
<path d="M394,285v 23" fill="none" stroke="#ff0000" stroke-width="2"/>
<path d="M395,285v 23" fill="none" stroke="#ff0000" stroke-width="2"/>
<path d="M396,285v 24" fill="none" stroke="#ff0000" stroke-width="2"/>
<path d="M397,285v 24" fill="none" stroke="#ff0000" stroke-width="2"/>
<path d="M398,285v 24" fill="none" stroke="#ff0000" stroke-width="2"/>
<path d="M399,285v 24" fill="none" stroke="#ff0000" stroke-width="2"/>
<path d="M399,285v 24" fill="none" stroke="#ff0000" stroke-width="2"/>
<path d="M400,285v 24" fill="none" stroke="#ff0000" stroke-width="2"/>
<path d="M401,285v 24" fill="none" stroke="#ff0000" stroke-width="2"/>
<path d="M402,286v 23" fill="none" stroke="#ff0000" stroke-width="2"/>
<path d="M403,286v 23" fill="none" stroke="#ff0000" stroke-width="2"/>
<path d="M403,286v 23" fill="none" stroke="#ff0000" stroke-width="2"/>
<path d="M404,286v 23" fill="none" stroke="#ff0000" stroke-width="2"/>
<path d="M405,286v 23" fill="none" stroke="#ff0000" stroke-width="2"/>
<path d="M406,286v 23" fill="none" stroke="#ff0000" stroke-width="2"/>
<path d="M407,286v 23" fill="none" stroke="#ff0000" stroke-width="2"/>
<path d="M408,286v 23" fill="none" stroke="#ff0000" stroke-width="2"/>
<path d="M408,286v 23" fill="none" stroke="#ff0000" stroke-width="2"/>
<path d="M409,286v 23" fill="none" stroke="#ff0000" stroke-width="2"/>
<path d="M410,286v 23" fill="none" stroke="#ff0000" stroke-width="2"/>
<path d="M411,286v 23" fill="none" stroke="#ff0000" stroke-width="2"/>
<path d="M412,286v 23" fill="none" stroke="#ff0000" stroke-width="2"/>
<path d="M412,286v 23" fill="none" stroke="#ff0000" stroke-width="2"/>
<path d="M413,286v 23" fill="none" stroke="#ff0000" stroke-width="2"/>
<path d="M414,286v 23" fill="none" stroke="#ff0000" stroke-width="2"/>
<path d="M415,286v 23" fill="none" stroke="#ff0000" stroke-width="2"/>
<path d="M416,286v 23" fill="none" stroke="#ff0000" stroke-width="2"/>
<path d="M416,286v 23" fill="none" stroke="#ff0000" stroke-width="2"/>
<path d="M417,286v 23" fill="none" stroke="#ff0000" stroke-width="2"/>
<path d="M418,286v 23" fill="none" stroke="#ff0000" stroke-width="2"/>
<path d="M419,286v 23" fill="none" stroke="#ff0000" stroke-width="2"/>
<path d="M420,286v 23" fill="none" stroke="#ff0000" stroke-width="2"/>
<path d="M421,286v 23" fill="none" stroke="#ff0000" stroke-width="2"/>
<path d="M421,286v 24" fill="none" stroke="#ff0000" stroke-width="2"/>
<path d="M422,286v 24" fill="none" stroke="#ff0000" stroke-width="2"/>
<path d="M423,286v 24" fill="none" stroke="#ff0000" stroke-width="2"/>
<path d="M424,286v 24" fill="none" stroke="#ff0000" stroke-width="2"/>
<path d="M425,286v 24" fill="none" stroke="#ff0000" stroke-width="2"/>
<path d="M425,286v 24" fill="none" stroke="#ff0000" stroke-width="2"/>
<path d="M426,286v 24" fill="none" stroke="#ff0000" stroke-width="2"/>
<path d="M427,286v 24" fill="none" stroke="#ff0000" stroke-width="2"/>
<path d="M428,286v 24" fill="none" stroke="#ff0000" stroke-width="2"/>
<path d="M429,286v 24" fill="none" stroke="#ff0000" stroke-width="2"/>
<path d="M430,286v 24" fill="none" stroke="#ff0000" stroke-width="2"/>
<path d="M430,286v 24" fill="none" stroke="#ff0000" stroke-width="2"/>
<path d="M431,286v 24" fill="none" stroke="#ff0000" stroke-width="2"/>
<path d="M432,286v 24" fill="none" stroke="#ff0000" stroke-width="2"/>
<path d="M433,286v 24" fill="none" stroke="#ff0000" stroke-width="2"/>
<path d="M434,286v 24" fill="none" stroke="#ff0000" stroke-width="2"/>
<path d="M434,286v 24" fill="none" stroke="#ff0000" stroke-width="2"/>
<path d="M435,286v 24" fill="none" stroke="#ff0000" stroke-width="2"/>
<path d="M436,286v 24" fill="none" stroke="#ff0000" stroke-width="2"/>
<path d="M437,286v 24" fill="none" stroke="#ff0000" stroke-width="2"/>
<path d="M438,286v 24" fill="none" stroke="#ff0000" stroke-width="2"/>
<path d="M438,286v 24" fill="none" stroke="#ff0000" stroke-width="2"/>
<path d="M439,286v 24" fill="none" stroke="#ff0000" stroke-width="2"/>
<path d="M440,286v 24" fill="none" stroke="#ff0000" stroke-width="2"/>
<path d="M441,286v 24" fill="none" stroke="#ff0000" stroke-width="2"/>
<path d="M442,286v 24" fill="none" stroke="#ff0000" stroke-width="2"/>
<path d="M443,286v 24" fill="none" stroke="#ff0000" stroke-width="2"/>
<path d="M443,286v 24" fill="none" stroke="#ff0000" stroke-width="2"/>
<path d="M444,286v 24" fill="none" stroke="#ff0000" stroke-width="2"/>
<path d="M445,286v 24" fill="none" stroke="#ff0000" stroke-width="2"/>
<path d="M446,286v 24" fill="none" stroke="#ff0000" stroke-width="2"/>
<path d="M447,286v 24" fill="none" stroke="#ff0000" stroke-width="2"/>
<path d="M447,286v 24" fill="none" stroke="#ff0000" stroke-width="2"/>
<path d="M448,286v 24" fill="none" stroke="#ff0000" stroke-width="2"/>
<path d="M449,286v 24" fill="none" stroke="#ff0000" stroke-width="2"/>
<path d="M450,286v 24" fill="none" stroke="#ff0000" stroke-width="2"/>
<path d="M451,286v 24" fill="none" stroke="#ff0000" stroke-width="2"/>
<path d="M452,286v 24" fill="none" stroke="#ff0000" stroke-width="2"/>
<path d="M452,286v 24" fill="none" stroke="#ff0000" stroke-width="2"/>
<path d="M453,286v 24" fill="none" stroke="#ff0000" stroke-width="2"/>
<path d="M454,286v 24" fill="none" stroke="#ff0000" stroke-width="2"/>
<path d="M455,286v 24" fill="none" stroke="#ff0000" stroke-width="2"/>
<path d="M456,286v 24" fill="none" stroke="#ff0000" stroke-width="2"/>
<path d="M456,286v 24" fill="none" stroke="#ff0000" stroke-width="2"/>
<path d="M457,286v 24" fill="none" stroke="#ff0000" stroke-width="2"/>
<path d="M458,286v 24" fill="none" stroke="#ff0000" stroke-width="2"/>
<path d="M459,286v 24" fill="none" stroke="#ff0000" stroke-width="2"/>
<path d="M460,286v 24" fill="none" stroke="#ff0000" stroke-width="2"/>
<path d="M460,286v 24" fill="none" stroke="#ff0000" stroke-width="2"/>
<path d="M461,286v 24" fill="none" stroke="#ff0000" stroke-width="2"/>
<path d="M462,286v 24" fill="none" stroke="#ff0000" stroke-width="2"/>
<path d="M463,286v 24" fill="none" stroke="#ff0000" stroke-width="2"/>
<path d="M464,286v 24" fill="none" stroke="#ff0000" stroke-width="2"/>
<path d="M465,286v 24" fill="none" stroke="#ff0000" stroke-width="2"/>
<path d="M465,286v 24" fill="none" stroke="#ff0000" stroke-width="2"/>
<path d="M466,286v 24" fill="none" stroke="#ff0000" stroke-width="2"/>
<path d="M467,286v 24" fill="none" stroke="#ff0000" stroke-width="2"/>
<path d="M468,286v 24" fill="none" stroke="#ff0000" stroke-width="2"/>
<path d="M469,286v 24" fill="none" stroke="#ff0000" stroke-width="2"/>
<path d="M469,286v 24" fill="none" stroke="#ff0000" stroke-width="2"/>
<path d="M470,286v 24" fill="none" stroke="#ff0000" stroke-width="2"/>
<path d="M471,286v 24" fill="none" stroke="#ff0000" stroke-width="2"/>
<path d="M472,286v 24" fill="none" stroke="#ff0000" stroke-width="2"/>
<path d="M473,286v 24" fill="none" stroke="#ff0000" stroke-width="2"/>
<path d="M473,286v 24" fill="none" stroke="#ff0000" stroke-width="2"/>
<path d="M474,286v 24" fill="none" stroke="#ff0000" stroke-width="2"/>
<path d="M475,286v 24" fill="none" stroke="#ff0000" stroke-width="2"/>
<path d="M476,286v 24" fill="none" stroke="#ff0000" stroke-width="2"/>
<path d="M477,286v 24" fill="none" stroke="#ff0000" stroke-width="2"/>
<path d="M478,286v 24" fill="none" stroke="#ff0000" stroke-width="2"/>
<path d="M478,286v 24" fill="none" stroke="#ff0000" stroke-width="2"/>
<path d="M479,286v 24" fill="none" stroke="#ff0000" stroke-width="2"/>
<path d="M480,286v 24" fill="none" stroke="#ff0000" stroke-width="2"/>
<path d="M481,286v 24" fill="none" stroke="#ff0000" stroke-width="2"/>
<path d="M482,286v 24" fill="none" stroke="#ff0000" stroke-width="2"/>
<path d="M482,286v 24" fill="none" stroke="#ff0000" stroke-width="2"/>
<path d="M483,286v 24" fill="none" stroke="#ff0000" stroke-width="2"/>
<path d="M484,286v 24" fill="none" stroke="#ff0000" stroke-width="2"/>
<path d="M485,286v 24" fill="none" stroke="#ff0000" stroke-width="2"/>
<path d="M486,286v 24" fill="none" stroke="#ff0000" stroke-width="2"/>
<path d="M487,286v 24" fill="none" stroke="#ff0000" stroke-width="2"/>
<path d="M487,286v 24" fill="none" stroke="#ff0000" stroke-width="2"/>
<path d="M488,286v 24" fill="none" stroke="#ff0000" stroke-width="2"/>
<path d="M489,286v 24" fill="none" stroke="#ff0000" stroke-width="2"/>
<path d="M490,286v 24" fill="none" stroke="#ff0000" stroke-width="2"/>
<path d="M491,286v 24" fill="none" stroke="#ff0000" stroke-width="2"/>
<path d="M491,286v 24" fill="none" stroke="#ff0000" stroke-width="2"/>
<path d="M492,286v 24" fill="none" stroke="#ff0000" stroke-width="2"/>
<path d="M493,286v 24" fill="none" stroke="#ff0000" stroke-width="2"/>
<path d="M494,286v 24" fill="none" stroke="#ff0000" stroke-width="2"/>
<path d="M495,286v 24" fill="none" stroke="#ff0000" stroke-width="2"/>
<path d="M495,286v 24" fill="none" stroke="#ff0000" stroke-width="2"/>
<path d="M496,286v 24" fill="none" stroke="#ff0000" stroke-width="2"/>
<path d="M497,286v 24" fill="none" stroke="#ff0000" stroke-width="2"/>
<path d="M498,286v 24" fill="none" stroke="#ff0000" stroke-width="2"/>
<path d="M499,286v 24" fill="none" stroke="#ff0000" stroke-width="2"/>
<path d="M500,286v 24" fill="none" stroke="#ff0000" stroke-width="2"/>
<path d="M500,286v 24" fill="none" stroke="#ff0000" stroke-width="2"/>
<path d="M501,286v 24" fill="none" stroke="#ff0000" stroke-width="2"/>
<path d="M502,286v 24" fill="none" stroke="#ff0000" stroke-width="2"/>
<path d="M503,286v 24" fill="none" stroke="#ff0000" stroke-width="2"/>
<path d="M504,286v 24" fill="none" stroke="#ff0000" stroke-width="2"/>
<path d="M504,286v 24" fill="none" stroke="#ff0000" stroke-width="2"/>
<path d="M505,286v 24" fill="none" stroke="#ff0000" stroke-width="2"/>
<path d="M506,286v 24" fill="none" stroke="#ff0000" stroke-width="2"/>
<path d="M507,286v 24" fill="none" stroke="#ff0000" stroke-width="2"/>
<path d="M508,286v 24" fill="none" stroke="#ff0000" stroke-width="2"/>
<path d="M509,286v 24" fill="none" stroke="#ff0000" stroke-width="2"/>
<path d="M509,286v 24" fill="none" stroke="#ff0000" stroke-width="2"/>
<path d="M510,291v 19" fill="none" stroke="#ff0000" stroke-width="2"/>
<path d="M284,174l 1, 3v 7l 1, 6l 1, 3l 1, 3l 1, 3v 4l 1, 4l 1, 2l 1, 3l 1, 4v 3l 1, 1l 1, 3l 1, 2l 1, 3l 1, 2v 3l 1, 1l 1, 2l 1, 2l 1, 3v 1l 1, 2l 1, 2l 1, 1l 1, 2l 1, 2v 1l 1, 2l 1, 1l 1, 1l 1, 2v 1l 1, 1l 1, 2l 1, 1l 1, 1l 1, 2l 1, 1l 1, 2h 2v 1l
 1, 2l 1, 1h 1l 1, 1v 1l 1, 1l 1, 1h 2l 1, 1v 1l 1, 1h 1l 1, 1l 1, 1h 2l 1, 1l 1, 1l 1, 1h 1l 1, 1h 2l 1, 1h 1l 1, 1h 1l 1, 1h 1l 1, 1h 2l 1, 1h 5l 1, 1h 2l 1, 1h 3l 1, 1h 5l 1, 1h 12l 1, 1h 11l 1, 1h 25v 1h 88l 1, 2" fill="none" stroke="#ff0000"
 stroke-width="2"/>
<rect x="351" y="25" width="205" height="154" fill="white"/>
<path d="M351,179h 205" fill="none" stroke="black"/>
<path d="M556,179v -154" fill="none" stroke="black"/>
<path d="M556,25h -205" fill="none" stroke="black"/>
<path d="M351,25v 154" fill="none" stroke="black"/>
<text x="362" y="38" fill="black" font-size="14" font-family="Helvetica">
Entries 
</text>
<text x="490" y="38" fill="black" font-size="14" font-family="Helvetica">
 106977
</text>
<text x="374" y="58" fill="black" font-size="14" font-family="Helvetica">
 / ndf 
</text>
<text x="369" y="45" fill="black" font-size="10" font-family="Helvetica">
2
</text>
<text x="362" y="58" fill="black" font-size="14" font-family="Times">
&#0967;
</text>
<text x="455" y="55" fill="black" font-size="14" font-family="Helvetica">
  1692 / 1240
</text>
<text x="382" y="68" fill="black" font-size="14" font-family="Helvetica">
   
</text>
<text x="372" y="77" fill="black" font-size="10" font-family="Helvetica">
cu
</text>
<text x="362" y="68" fill="black" font-size="14" font-family="Helvetica">
N
</text>
<text x="503" y="74" fill="black" font-size="14" font-family="Helvetica">
 7.685
</text>
<text x="490" y="74" fill="black" font-size="14" font-family="Times">
&#0177;
</text>
<text x="443" y="74" fill="black" font-size="14" font-family="Helvetica">
 6.632 
</text>
<text x="377" y="87" fill="black" font-size="14" font-family="Helvetica">
 
</text>
<text x="367" y="97" fill="black" font-size="10" font-family="Helvetica">
cu
</text>
<text x="362" y="87" fill="black" font-size="14" font-family="Times">
&#0964;
</text>
<text x="520" y="91" fill="black" font-size="14" font-family="Helvetica">
 0.8
</text>
<text x="507" y="91" fill="black" font-size="14" font-family="Times">
&#0177;
</text>
<text x="460" y="91" fill="black" font-size="14" font-family="Helvetica">
 163.3 
</text>
<text x="375" y="102" fill="black" font-size="14" font-family="Helvetica">
    
</text>
<text x="372" y="111" fill="black" font-size="10" font-family="Helvetica">
f
</text>
<text x="362" y="102" fill="black" font-size="14" font-family="Helvetica">
N
</text>
<text x="520" y="108" fill="black" font-size="14" font-family="Helvetica">
 1.5
</text>
<text x="507" y="108" fill="black" font-size="14" font-family="Times">
&#0177;
</text>
<text x="465" y="108" fill="black" font-size="14" font-family="Helvetica">
  99.4 
</text>
<text x="370" y="121" fill="black" font-size="14" font-family="Helvetica">
 
</text>
<text x="367" y="131" fill="black" font-size="10" font-family="Helvetica">
f
</text>
<text x="362" y="121" fill="black" font-size="14" font-family="Times">
&#0964;
</text>
<text x="520" y="125" fill="black" font-size="14" font-family="Helvetica">
 0.0
</text>
<text x="507" y="125" fill="black" font-size="14" font-family="Times">
&#0177;
</text>
<text x="460" y="125" fill="black" font-size="14" font-family="Helvetica">
  2197 
</text>
<text x="384" y="137" fill="black" font-size="14" font-family="Helvetica">
  
</text>
<text x="372" y="146" fill="black" font-size="10" font-family="Helvetica">
sin
</text>
<text x="362" y="137" fill="black" font-size="14" font-family="Helvetica">
N
</text>
<text x="503" y="142" fill="black" font-size="14" font-family="Helvetica">
 0.301
</text>
<text x="490" y="142" fill="black" font-size="14" font-family="Times">
&#0177;
</text>
<text x="443" y="142" fill="black" font-size="14" font-family="Helvetica">
 9.855 
</text>
<text x="362" y="158" fill="black" font-size="14" font-family="Helvetica">
T        
</text>
<text x="511" y="159" fill="black" font-size="14" font-family="Helvetica">
 0.00
</text>
<text x="499" y="159" fill="black" font-size="14" font-family="Times">
&#0177;
</text>
<text x="451" y="159" fill="black" font-size="14" font-family="Helvetica">
 59.32 
</text>
<text x="377" y="171" fill="black" font-size="14" font-family="Helvetica">
    
</text>
<text x="372" y="180" fill="black" font-size="10" font-family="Helvetica">
b
</text>
<text x="362" y="171" fill="black" font-size="14" font-family="Helvetica">
N
</text>
<text x="511" y="176" fill="black" font-size="14" font-family="Helvetica">
 0.21
</text>
<text x="499" y="176" fill="black" font-size="14" font-family="Times">
&#0177;
</text>
<text x="451" y="176" fill="black" font-size="14" font-family="Helvetica">
 39.45 
</text>
<path d="M57,346h 453" fill="none" stroke="black"/>
<text x="419" y="372" fill="black" font-size="12" font-family="Helvetica">
TDC-TDC0 (ns)
</text>
<path d="M57,337v 9" fill="none" stroke="black"/>
<path d="M68,342v 4" fill="none" stroke="black"/>
<path d="M79,342v 4" fill="none" stroke="black"/>
<path d="M91,342v 4" fill="none" stroke="black"/>
<path d="M102,342v 4" fill="none" stroke="black"/>
<path d="M113,337v 9" fill="none" stroke="black"/>
<path d="M125,342v 4" fill="none" stroke="black"/>
<path d="M136,342v 4" fill="none" stroke="black"/>
<path d="M147,342v 4" fill="none" stroke="black"/>
<path d="M159,342v 4" fill="none" stroke="black"/>
<path d="M170,337v 9" fill="none" stroke="black"/>
<path d="M181,342v 4" fill="none" stroke="black"/>
<path d="M193,342v 4" fill="none" stroke="black"/>
<path d="M204,342v 4" fill="none" stroke="black"/>
<path d="M215,342v 4" fill="none" stroke="black"/>
<path d="M227,337v 9" fill="none" stroke="black"/>
<path d="M238,342v 4" fill="none" stroke="black"/>
<path d="M249,342v 4" fill="none" stroke="black"/>
<path d="M261,342v 4" fill="none" stroke="black"/>
<path d="M272,342v 4" fill="none" stroke="black"/>
<path d="M283,337v 9" fill="none" stroke="black"/>
<path d="M295,342v 4" fill="none" stroke="black"/>
<path d="M306,342v 4" fill="none" stroke="black"/>
<path d="M317,342v 4" fill="none" stroke="black"/>
<path d="M329,342v 4" fill="none" stroke="black"/>
<path d="M340,337v 9" fill="none" stroke="black"/>
<path d="M351,342v 4" fill="none" stroke="black"/>
<path d="M363,342v 4" fill="none" stroke="black"/>
<path d="M374,342v 4" fill="none" stroke="black"/>
<path d="M386,342v 4" fill="none" stroke="black"/>
<path d="M397,337v 9" fill="none" stroke="black"/>
<path d="M408,342v 4" fill="none" stroke="black"/>
<path d="M420,342v 4" fill="none" stroke="black"/>
<path d="M431,342v 4" fill="none" stroke="black"/>
<path d="M442,342v 4" fill="none" stroke="black"/>
<path d="M454,337v 9" fill="none" stroke="black"/>
<path d="M465,342v 4" fill="none" stroke="black"/>
<path d="M476,342v 4" fill="none" stroke="black"/>
<path d="M488,342v 4" fill="none" stroke="black"/>
<path d="M499,342v 4" fill="none" stroke="black"/>
<path d="M510,337v 9" fill="none" stroke="black"/>
<text x="36" y="359" fill="black" font-size="12" font-family="Helvetica">
-20000
</text>
<text x="93" y="359" fill="black" font-size="12" font-family="Helvetica">
-15000
</text>
<text x="149" y="359" fill="black" font-size="12" font-family="Helvetica">
-10000
</text>
<text x="210" y="359" fill="black" font-size="12" font-family="Helvetica">
-5000
</text>
<text x="280" y="359" fill="black" font-size="12" font-family="Helvetica">
0
</text>
<text x="325" y="359" fill="black" font-size="12" font-family="Helvetica">
5000
</text>
<text x="379" y="359" fill="black" font-size="12" font-family="Helvetica">
10000
</text>
<text x="435" y="359" fill="black" font-size="12" font-family="Helvetica">
15000
</text>
<text x="492" y="359" fill="black" font-size="12" font-family="Helvetica">
20000
</text>
<path d="M57,346v -308" fill="none" stroke="black"/>
<g transform="rotate(-90,29,72)">
<text x="29" y="72" fill="black" font-size="12" font-family="Helvetica">
Count
</text>
</g>
<path d="M70,346h -13" fill="none" stroke="black"/>
<path d="M63,334h -6" fill="none" stroke="black"/>
<path d="M63,322h -6" fill="none" stroke="black"/>
<path d="M63,310h -6" fill="none" stroke="black"/>
<path d="M63,298h -6" fill="none" stroke="black"/>
<path d="M70,286h -13" fill="none" stroke="black"/>
<path d="M63,274h -6" fill="none" stroke="black"/>
<path d="M63,262h -6" fill="none" stroke="black"/>
<path d="M63,249h -6" fill="none" stroke="black"/>
<path d="M63,237h -6" fill="none" stroke="black"/>
<path d="M70,225h -13" fill="none" stroke="black"/>
<path d="M63,213h -6" fill="none" stroke="black"/>
<path d="M63,201h -6" fill="none" stroke="black"/>
<path d="M63,189h -6" fill="none" stroke="black"/>
<path d="M63,177h -6" fill="none" stroke="black"/>
<path d="M70,165h -13" fill="none" stroke="black"/>
<path d="M63,152h -6" fill="none" stroke="black"/>
<path d="M63,140h -6" fill="none" stroke="black"/>
<path d="M63,128h -6" fill="none" stroke="black"/>
<path d="M63,116h -6" fill="none" stroke="black"/>
<path d="M70,104h -13" fill="none" stroke="black"/>
<path d="M63,92h -6" fill="none" stroke="black"/>
<path d="M63,80h -6" fill="none" stroke="black"/>
<path d="M63,67h -6" fill="none" stroke="black"/>
<path d="M63,55h -6" fill="none" stroke="black"/>
<path d="M70,43h -13" fill="none" stroke="black"/>
<path d="M70,43h -13" fill="none" stroke="black"/>
<text x="47" y="350" fill="black" font-size="12" font-family="Helvetica">
0
</text>
<text x="40" y="290" fill="black" font-size="12" font-family="Helvetica">
50
</text>
<text x="33" y="229" fill="black" font-size="12" font-family="Helvetica">
100
</text>
<text x="33" y="168" fill="black" font-size="12" font-family="Helvetica">
150
</text>
<text x="33" y="107" fill="black" font-size="12" font-family="Helvetica">
200
</text>
<text x="33" y="47" fill="black" font-size="12" font-family="Helvetica">
250
</text>
<rect x="351" y="25" width="205" height="154" fill="white"/>
<path d="M351,179h 205" fill="none" stroke="black"/>
<path d="M556,179v -154" fill="none" stroke="black"/>
<path d="M556,25h -205" fill="none" stroke="black"/>
<path d="M351,25v 154" fill="none" stroke="black"/>
<text x="362" y="38" fill="black" font-size="14" font-family="Helvetica">
Entries 
</text>
<text x="490" y="38" fill="black" font-size="14" font-family="Helvetica">
 106977
</text>
<text x="374" y="58" fill="black" font-size="14" font-family="Helvetica">
 / ndf 
</text>
<text x="369" y="45" fill="black" font-size="10" font-family="Helvetica">
2
</text>
<text x="362" y="58" fill="black" font-size="14" font-family="Times">
&#0967;
</text>
<text x="455" y="55" fill="black" font-size="14" font-family="Helvetica">
  1692 / 1240
</text>
<text x="382" y="68" fill="black" font-size="14" font-family="Helvetica">
   
</text>
<text x="372" y="77" fill="black" font-size="10" font-family="Helvetica">
cu
</text>
<text x="362" y="68" fill="black" font-size="14" font-family="Helvetica">
N
</text>
<text x="503" y="74" fill="black" font-size="14" font-family="Helvetica">
 7.685
</text>
<text x="490" y="74" fill="black" font-size="14" font-family="Times">
&#0177;
</text>
<text x="443" y="74" fill="black" font-size="14" font-family="Helvetica">
 6.632 
</text>
<text x="377" y="87" fill="black" font-size="14" font-family="Helvetica">
 
</text>
<text x="367" y="97" fill="black" font-size="10" font-family="Helvetica">
cu
</text>
<text x="362" y="87" fill="black" font-size="14" font-family="Times">
&#0964;
</text>
<text x="520" y="91" fill="black" font-size="14" font-family="Helvetica">
 0.8
</text>
<text x="507" y="91" fill="black" font-size="14" font-family="Times">
&#0177;
</text>
<text x="460" y="91" fill="black" font-size="14" font-family="Helvetica">
 163.3 
</text>
<text x="375" y="102" fill="black" font-size="14" font-family="Helvetica">
    
</text>
<text x="372" y="111" fill="black" font-size="10" font-family="Helvetica">
f
</text>
<text x="362" y="102" fill="black" font-size="14" font-family="Helvetica">
N
</text>
<text x="520" y="108" fill="black" font-size="14" font-family="Helvetica">
 1.5
</text>
<text x="507" y="108" fill="black" font-size="14" font-family="Times">
&#0177;
</text>
<text x="465" y="108" fill="black" font-size="14" font-family="Helvetica">
  99.4 
</text>
<text x="370" y="121" fill="black" font-size="14" font-family="Helvetica">
 
</text>
<text x="367" y="131" fill="black" font-size="10" font-family="Helvetica">
f
</text>
<text x="362" y="121" fill="black" font-size="14" font-family="Times">
&#0964;
</text>
<text x="520" y="125" fill="black" font-size="14" font-family="Helvetica">
 0.0
</text>
<text x="507" y="125" fill="black" font-size="14" font-family="Times">
&#0177;
</text>
<text x="460" y="125" fill="black" font-size="14" font-family="Helvetica">
  2197 
</text>
<text x="384" y="137" fill="black" font-size="14" font-family="Helvetica">
  
</text>
<text x="372" y="146" fill="black" font-size="10" font-family="Helvetica">
sin
</text>
<text x="362" y="137" fill="black" font-size="14" font-family="Helvetica">
N
</text>
<text x="503" y="142" fill="black" font-size="14" font-family="Helvetica">
 0.301
</text>
<text x="490" y="142" fill="black" font-size="14" font-family="Times">
&#0177;
</text>
<text x="443" y="142" fill="black" font-size="14" font-family="Helvetica">
 9.855 
</text>
<text x="362" y="158" fill="black" font-size="14" font-family="Helvetica">
T        
</text>
<text x="511" y="159" fill="black" font-size="14" font-family="Helvetica">
 0.00
</text>
<text x="499" y="159" fill="black" font-size="14" font-family="Times">
&#0177;
</text>
<text x="451" y="159" fill="black" font-size="14" font-family="Helvetica">
 59.32 
</text>
<text x="377" y="171" fill="black" font-size="14" font-family="Helvetica">
    
</text>
<text x="372" y="180" fill="black" font-size="10" font-family="Helvetica">
b
</text>
<text x="362" y="171" fill="black" font-size="14" font-family="Helvetica">
N
</text>
<text x="511" y="176" fill="black" font-size="14" font-family="Helvetica">
 0.21
</text>
<text x="499" y="176" fill="black" font-size="14" font-family="Times">
&#0177;
</text>
<text x="451" y="176" fill="black" font-size="14" font-family="Helvetica">
 39.45 
</text>
<text x="270" y="21" fill="black" font-size="21" font-family="Helvetica">
D1
</text></svg>
