<?xml version="1.0" standalone="no"?>
<svg width="567" height="385" viewBox="0 0 567 385" xmlns="http://www.w3.org/2000/svg">
<title>
images/analysis/455_D2.svg
</title>
<desc>
Creator: ROOT Version 5.34/05
CreationDate: Sat Jun  8 18:41:32 2013</desc>
<defs>
</defs>
<rect x="0" y="0" width="567" height="385" fill="white"/>
<rect x="57" y="38" width="453" height="308" fill="white"/>
<rect x="57" y="38" width="453" height="308" fill="none" stroke="black"/>
<rect x="57" y="38" width="453" height="308" fill="white"/>
<rect x="57" y="38" width="453" height="308" fill="none" stroke="black"/>
<path d="M57,346h 44v -1v 1v -1h 1v -25h 1v -18v 14h 1v -14v 15v -20h 1v 20v -13v 12v -2h 1v -14v 17v -21h 1v 23v -15v 12v -1h 1v -15v 17v -18h 1v 16v -13v 17v -8h 1v -8v 13v -16h 1v 16v -18v 18v -2h 1v -10v 12v -15h 1v 15v -18v 18h 1v -16v 18v -15h
 1v 13v -18v 17h 1v -17v 20v -12h 1v 11v -13v 12h 1v -17v 16v -4h 1v -5v 12v -17v 16h 1v -26v 26v -6h 1v -11v 20v -16v 14h 1v -18v 15v -2h 1v -14v 19v -12v 12h 1v 1v -20v 17v -2h 1v -17v 19v -11v 13h 1v -15v 17v -6h 1v -14v 19v -18v 17h 1v -15v 15v
 -1h 1v -14v 11v -18v 22h 1v -19v 18h 1v -9v 8v -15v 17h 1v -15v 15v -2h 1v -13v 13v -12v 7h 1v 4v -14v 16v -1h 1v -15v 16v -15v 7h 1v 6v -15v 14h 1v -15v 18v -10h 1v 10v -15v 12h 1v -18v 21v -17h 1v 18v -19v 19h 1v -20v 17v -13h 1v 16v -16v 16h 1v
 -16v 12v -19h 1v 21v -13v 15h 1v -15v 12v -18h 1v 19v -19v 20v -1h 1v -12v 13v -16h 1v 18v -19v 18v -3h 1v -13v 16v -17h 1v 16v -20v 19v -1h 1v -15v 17v -13h 1v 9v -19v 23h 1v -19v 20v -9h 1v -5v 12v -16v 15h 1v -19v 19v -4h 1v -8v 15v -16v 18h 1v
 -24v 17h 1v -9v 9v -8v 9h 1v -11v 14v -7h 1v -14v 21v -15v 14h 1v -12v 15v -4h 1v -16v 17v -14v 11h 1v 1v -16v 17v -1h 1v -10v 12v -16v 15h 1v -10v 15v -3h 1v -14v 14v -20v 20h 1v -17v 15v -1h 1v -7v 6v -11v 11h 1v 3v -19v 18v -1h 1v -11v 13v -16v
 9h 1v 5v -16v 19h 1v -17v 14v -9h 1v 14v -23v 19h 1v -13v 17v -16h 1v 12v -11v 11h 1v -18v 19v -13h 1v 13v -15v 17h 1v -21v 20v -20h 1v 22v -14v 12h 1v -15v 15v -20h 1v 20v -15v 14h 1v -15v 15v -17h 1v 13v -13v 18h 1v 2v -15v 13v -14h 1v 15v -20v
 19h 1v -15v 13v -14h 1v 15v -17v 16h 1v -17v 19v -10h 1v -2v 13v -20v 19h 1v -16v 13v -4h 1v -9v 15v -7v 9h 1v -20v 16h 1v -10v 13v -15v 15h 1v -18v 17v -7h 1v -12v 20v -12v 14h 1v -22v 20v -2h 1v -17v 20v -18v 18h 1v -17v 16v -2h 1v -13v 14v -12v
 12h 1v -17v 17h 1v -12v 7v -7v 10h 1v 1v -19v 21v -1h 1v -13v 13v -17v 17h 1v -2v 1v -15v 17h 1v -15v 15v -18v 9h 1v 5v -17v 20h 1v -16v 16v -10v 3h 1v 6v -15v 14h 1v -10v 14v -17h 1v 13v -13v 14h 1v -16v 16v -14h 1v 15v -18v 18h 1v -13v 14v -17h 1v
 18v -16v 12h 1v 2v -19v 21v -21h 1v 21v -20v 19h 1v -16v 13v -19h 1v 23v -16v 16h 1v -12v 8v -13h 1v 17v -19v 14h 1v -11v 14v -12h 1v 12v -17v 14h 1v 2v -14v 15v -15h 1v 13v -14v 13h 1v 2v -17v 19v -13h 1v -2v 18v -21v 14h 1v 3v -18v 18v -12h 1v -5v
 18v -13v 15h 1v -23v 19v -4h 1v -15v 24v -15v 10h 1v 1v -17v 17v -5h 1v -16v 21v -19v 19h 1v -16v 18v -3h 1v -16v 18v -18v 16h 1v 1v -14v 13v -2h 1v -14v 16v -15v 13h 1v 1v -16v 19h 1v -14v 11v -14v 10h 1v 5v -13v 13h 1v -11v 11v -14v 7h 1v 8v -23v
 23h 1v -15v 16v -12v 3h 1v 6v -15v 14h 1v -14v 15v -20v 10h 1v 13v -14v 11h 1v -18v 19v -15h 1v 14v -16v 17h 1v -17v 17v -13h 1v 13v -13v 15h 1v -21v 19v -18h 1v 19v -15v 13h 1v -14v 16v -21h 1v 20v -16v 17h 1v -15v 15v -18h 1v 18v -20v 16h 1v -9v
 15v -20h 1v 16v -18v 15h 1v 5v -19v 17v -10h 1v 11v -20v 16h 1v 5v -17v 18v -12h 1v -7v 17v -20v 16h 1v 2v -16v 16v -8h 1v -3v 19v -23v 5h 1v 11v -17v 17v -7h 1v -8v 16v -13h 1v 13v -20v 21v -10h 1v -7v 16v -14v 17h 1v -20v 16v -4h 1v -15v 18v -12v
 13h 1v -12v 12v -6h 1v -12v 22v -20v 16h 1v -12v 13v -2h 1v -16v 19v -19v 14h 1v -11v 13h 1v -11v 13v -21v 20h 1v -14v 14v -2h 1v -11v 14v -16v 7h 1v 8v -19v 20h 1v -14v 13v -11h 1v 11v -19v 16h 1v -10v 7v -18h 1v 15v -22v 27h 1v 36v -293v 68h 1v
 51v -13v 27h 1v 1v -17v 33v -23h 1v 20v -16v 20h 1v 3v -11v 13v -2v 4v -17h 1v 22v -12v 5v -5v 17h 1v 1v -22v 18v -6v 3h 1v 13v -17v 10h 1v 2v -8v 17v -20h 1v 16v -10v 17h 1v -19v 27v -19h 1v 16v -23v 20h 1v 5v -17v 21v -17h 1v 16v -21v 13h 1v 2v
 -11v 21v -13h 1v -5v 21v -17v 6h 1v 14v -18v 13v -5v 2h 1v -6v 17v -20v 9h 1v 13v -25v 26v -13h 1v -3v 16v -12v 1h 1v 16v -23v 14v -4h 1v 5v -5v 2h 1v 10v -9v 9v -2h 1v -15v 20v -13h 1v 14v -15v 20v -5h 1v -12v 17v -22h 1v 23v -18v 17h 1v -12v 14v
 -14v 14h 1v 1v -14v 15v -3h 1v -13v 19v -16v 7h 1v 5v -16v 23h 1v -16v 13v -21v 15h 1v 8v -18v 19h 1v -14v 19v -20h 1v 20v -19v 17h 1v -25v 25v -9h 1v 9v -19v 21h 1v -15v 15v -15h 1v 15v -14v 18h 1v -16v 13v -14h 1v 16v -9v 14h 1v -22v 15v -14h 1v
 17v -11v 16h 1v -14v 9v -12h 1v 10v -11v 17h 1v 2v -14v 11v -15h 1v 15v -17v 12h 1v 5v -16v 17v -15h 1v 21v -22v 13h 1v 5v -21v 24v -12h 1v -1v 9v -12v 8h 1v 10v -24v 20v -8h 1v -3v 11v -9v 3h 1v 8v -25v 26v -12h 1v -3v 18v -13v 2h 1v 10v -21v 18v
 -7h 1v -15v 27v -13h 1v 14v -24v 21v -5h 1v -14v 20v -14h 1v 13v -12v 13h 1v -18v 19v -15h 1v 13v -13v 16v -3h 1v -20v 20v -16h 1v 17v -15v 16h 1v -18v 19v -16h 1v 13v -18v 22v -5h 1v -7v 11v -19h 1v 22v -18v 14v -2h 1v -11v 13v -14v 10h 1v 6v -18v
 21h 1v -21v 15v -12v 6h 1v 10v -19v 15h 1v -15v 16v -12h 1v 19v -25v 22h 1v -16v 20v -24h 1v 23v -18v 12h 1v 1v -18v 21v -21h 1v 18v -13v 16h 1v -16v 14v -18h 1v 19v -15v 16h 1v -8v 6v -19h 1v 19v -18v 20h 1v -14v 16v -13h 1v 12v -19v 18h 1v -15v
 18v -18h 1v 17v -21v 17h 1v 6v -19v 17v -12h 1v -2v 13v -17v 12h 1v 5v -15v 11v -7h 1v -2v 15v -19v 11h 1v 10v -21v 18v -7h 1v -14v 23v -20v 3h 1v 15v -21v 22v -6h 1v -15v 17v -13h 1v 17v -20v 18v -3h 1v -10v 13v -14h 1v 14v -12v 16v -4h 1v -14v 15v
 -15h 1v 12v -11v 12v -1h 1v -21v 23v -15h 1v 15v -11v 13h 1v -16v 15v -18h 1v 18v -20v 19v -6h 1v -5v 11v -15h 1v 18v -21v 18h 1v -13v 15v -15h 1v 16v -15v 10h 1v -16v 19v -12h 1v -1v 12v -16v 16h 1v -17v 20v -17h 1v 14v -12v 12h 1v 5v -21v 16v -14h
 1v 14v -8v 9h 1v -16v 16v -14h 1v 13v -14v 17h 1v -14v 15v -16h 1v 13v -11v 11h 1v 3v -18v 16v -22h 1v 24v -20v 20h 1v -18v 16v -17h 1v 17v -14v 11h 1v 1v -14v 17v -13h 1v 9v -13v 10h 1v 5v -19v 23v -11h 1v -6v 15v -17v 8h 1v 10v -21v 20v -8h 1v -5v
 10v -11v 3h 1v 12v -22v 19v -3h 1v -12v 18v -16v 4h 1v 10v -17v 16h 1v -15v 14v -11h 1v 13v -13v 13h 1v -20v 22v -20h 1v 18v -10v 8h 1v -12v 12v -16h 1v 22v -19v 17v -5h 1v -14v 15v -16h 1v 18v -21v 21h 1v -8v 8v -16h 1v 15v -14v 18v -2h 1v -16v 17v
 -16h 1v 15v -18v 17h 1v -17v 16v -9h 1v -2v 16v -20v 15h 1v -13v 16v -12h 1v -5v 19v -20v 14h 1v 3v -16v 14v -3h 1v -11v 16v -14v 15h 1v -18v 15v -5h 1v -11v 17v -9v 9h 1v -21v 24v -20h 1v 17v -13v 14h 1v 3v -20v 15v -10h 1v 10v -14v 15h 1v 2v -15v
 15v -15h 1v 12v -18v 21h 1v -15v 15v -11h 1v 11v -22v 17h 1v 2v -16v 22v -16h 1v 13v -17v 13h 1v -2v 1v -12v 13v -10h 1v -1v 14v -14v 8h 1v 6v -20v 22v -11h 1v -7v 17v -12v 1h 1v 10v -17v 14v -2h 1v -13v 17v -11h 1v 13v -17v 15v -1h 1v -17v 18v -16h
 1v 17v -13v 12h 1v -11v 10v -15h 1v 19v -15v 13v -2h 1v -15v 17v -13h 1v 15v -17v 16h 1v -16v 14v -20h 1v 22v -18v 20h 1v -15v 12v -17h 1v 16v -16v 17h 1v -13v 12v -13h 1v 14v -16v 16h 1v -16v 16v -7h 1v -8v 17v -16v 16h 1v -18v 15v -9h 1v -5v 16v
 -14v 10h 1v 1v -20v 20v -8h 1v -7v 19v -12v 8h 1v -19v 20v -3h 1v -13v 16v -10v 11h 1v -18v 16v -3h 1v -18v 23v -15v 16h 1v -14v 13v -2h 1v -15v 17v -14v 11h 1v 1v -15v 16v -14h 1v 14v -13v 10h 1v 2v -13v 14v -12h 1v 15v -24v 17h 1v 5v -9v 9v -9h 1v
 -4v 14v -20v 17h 1v 2v -19v 20v -9h 1v -3v 12v -17v 7h 1v 9v -19v 19v -3h 1v -14v 18v -13h 1v 10v -18v 21v -6h 1v -11v 13v -13h 1v 19v -18v 15v -4h 1v -15v 21v -20h 1v 18v -18v 18v -2h 1v -11v 13v -17h 1v 20v -13v 11h 1v -16v 14v -18h 1v 21v -18v
 18v -2h 1v -10v 12v -19h 1v 16v -13v 15h 1v -16v 19v -19h 1v 15v -16v 14h 1v -16v 22v -13h 1v -2v 14v -19v 15h 1v 1v -17v 16v -8h 1v -5v 16v -19v 16h 1v -18v 19v -10h 1v -5v 15v -14v 16h 1v -23v 20v -2h 1v -15v 20v -17v 18h 1v -23v 20h 1v -18v 19v
 -20v 20h 1v -15v 11h 1v -16v 19v -18v 18h 1v -10v 8h 1v -16v 17v -4" fill="none" stroke="#000099"/>
<path d="M284,168v 9" fill="none" stroke="#ff0000" stroke-width="2"/>
<path d="M285,168v 20" fill="none" stroke="#ff0000" stroke-width="2"/>
<path d="M285,183v 15" fill="none" stroke="#ff0000" stroke-width="2"/>
<path d="M286,189v 18" fill="none" stroke="#ff0000" stroke-width="2"/>
<path d="M287,194v 18" fill="none" stroke="#ff0000" stroke-width="2"/>
<path d="M288,198v 18" fill="none" stroke="#ff0000" stroke-width="2"/>
<path d="M289,202v 17" fill="none" stroke="#ff0000" stroke-width="2"/>
<path d="M289,207v 17" fill="none" stroke="#ff0000" stroke-width="2"/>
<path d="M290,211v 16" fill="none" stroke="#ff0000" stroke-width="2"/>
<path d="M291,213v 17" fill="none" stroke="#ff0000" stroke-width="2"/>
<path d="M292,216v 17" fill="none" stroke="#ff0000" stroke-width="2"/>
<path d="M293,220v 14" fill="none" stroke="#ff0000" stroke-width="2"/>
<path d="M293,223v 16" fill="none" stroke="#ff0000" stroke-width="2"/>
<path d="M294,225v 16" fill="none" stroke="#ff0000" stroke-width="2"/>
<path d="M295,227v 16" fill="none" stroke="#ff0000" stroke-width="2"/>
<path d="M296,229v 16" fill="none" stroke="#ff0000" stroke-width="2"/>
<path d="M297,233v 14" fill="none" stroke="#ff0000" stroke-width="2"/>
<path d="M298,234v 17" fill="none" stroke="#ff0000" stroke-width="2"/>
<path d="M298,236v 16" fill="none" stroke="#ff0000" stroke-width="2"/>
<path d="M299,238v 16" fill="none" stroke="#ff0000" stroke-width="2"/>
<path d="M300,240v 16" fill="none" stroke="#ff0000" stroke-width="2"/>
<path d="M301,243v 15" fill="none" stroke="#ff0000" stroke-width="2"/>
<path d="M302,245v 15" fill="none" stroke="#ff0000" stroke-width="2"/>
<path d="M302,246v 16" fill="none" stroke="#ff0000" stroke-width="2"/>
<path d="M303,247v 17" fill="none" stroke="#ff0000" stroke-width="2"/>
<path d="M304,249v 16" fill="none" stroke="#ff0000" stroke-width="2"/>
<path d="M305,251v 16" fill="none" stroke="#ff0000" stroke-width="2"/>
<path d="M306,253v 16" fill="none" stroke="#ff0000" stroke-width="2"/>
<path d="M307,255v 15" fill="none" stroke="#ff0000" stroke-width="2"/>
<path d="M307,255v 17" fill="none" stroke="#ff0000" stroke-width="2"/>
<path d="M308,258v 15" fill="none" stroke="#ff0000" stroke-width="2"/>
<path d="M309,260v 15" fill="none" stroke="#ff0000" stroke-width="2"/>
<path d="M310,260v 17" fill="none" stroke="#ff0000" stroke-width="2"/>
<path d="M311,261v 16" fill="none" stroke="#ff0000" stroke-width="2"/>
<path d="M311,263v 15" fill="none" stroke="#ff0000" stroke-width="2"/>
<path d="M312,264v 15" fill="none" stroke="#ff0000" stroke-width="2"/>
<path d="M313,265v 17" fill="none" stroke="#ff0000" stroke-width="2"/>
<path d="M314,267v 15" fill="none" stroke="#ff0000" stroke-width="2"/>
<path d="M315,268v 15" fill="none" stroke="#ff0000" stroke-width="2"/>
<path d="M315,269v 15" fill="none" stroke="#ff0000" stroke-width="2"/>
<path d="M316,270v 15" fill="none" stroke="#ff0000" stroke-width="2"/>
<path d="M317,271v 15" fill="none" stroke="#ff0000" stroke-width="2"/>
<path d="M318,272v 15" fill="none" stroke="#ff0000" stroke-width="2"/>
<path d="M319,273v 15" fill="none" stroke="#ff0000" stroke-width="2"/>
<path d="M320,273v 16" fill="none" stroke="#ff0000" stroke-width="2"/>
<path d="M320,275v 15" fill="none" stroke="#ff0000" stroke-width="2"/>
<path d="M321,276v 15" fill="none" stroke="#ff0000" stroke-width="2"/>
<path d="M322,276v 16" fill="none" stroke="#ff0000" stroke-width="2"/>
<path d="M323,277v 16" fill="none" stroke="#ff0000" stroke-width="2"/>
<path d="M324,278v 15" fill="none" stroke="#ff0000" stroke-width="2"/>
<path d="M324,279v 16" fill="none" stroke="#ff0000" stroke-width="2"/>
<path d="M325,279v 16" fill="none" stroke="#ff0000" stroke-width="2"/>
<path d="M326,280v 15" fill="none" stroke="#ff0000" stroke-width="2"/>
<path d="M327,281v 15" fill="none" stroke="#ff0000" stroke-width="2"/>
<path d="M328,282v 15" fill="none" stroke="#ff0000" stroke-width="2"/>
<path d="M329,282v 16" fill="none" stroke="#ff0000" stroke-width="2"/>
<path d="M329,282v 17" fill="none" stroke="#ff0000" stroke-width="2"/>
<path d="M330,283v 16" fill="none" stroke="#ff0000" stroke-width="2"/>
<path d="M331,284v 15" fill="none" stroke="#ff0000" stroke-width="2"/>
<path d="M332,285v 14" fill="none" stroke="#ff0000" stroke-width="2"/>
<path d="M333,285v 16" fill="none" stroke="#ff0000" stroke-width="2"/>
<path d="M333,286v 15" fill="none" stroke="#ff0000" stroke-width="2"/>
<path d="M334,286v 16" fill="none" stroke="#ff0000" stroke-width="2"/>
<path d="M335,286v 16" fill="none" stroke="#ff0000" stroke-width="2"/>
<path d="M336,287v 16" fill="none" stroke="#ff0000" stroke-width="2"/>
<path d="M337,287v 17" fill="none" stroke="#ff0000" stroke-width="2"/>
<path d="M337,288v 16" fill="none" stroke="#ff0000" stroke-width="2"/>
<path d="M338,288v 16" fill="none" stroke="#ff0000" stroke-width="2"/>
<path d="M339,289v 15" fill="none" stroke="#ff0000" stroke-width="2"/>
<path d="M340,290v 15" fill="none" stroke="#ff0000" stroke-width="2"/>
<path d="M341,290v 15" fill="none" stroke="#ff0000" stroke-width="2"/>
<path d="M342,290v 16" fill="none" stroke="#ff0000" stroke-width="2"/>
<path d="M342,291v 15" fill="none" stroke="#ff0000" stroke-width="2"/>
<path d="M343,291v 15" fill="none" stroke="#ff0000" stroke-width="2"/>
<path d="M344,291v 16" fill="none" stroke="#ff0000" stroke-width="2"/>
<path d="M345,291v 16" fill="none" stroke="#ff0000" stroke-width="2"/>
<path d="M346,292v 16" fill="none" stroke="#ff0000" stroke-width="2"/>
<path d="M346,292v 16" fill="none" stroke="#ff0000" stroke-width="2"/>
<path d="M347,292v 16" fill="none" stroke="#ff0000" stroke-width="2"/>
<path d="M348,293v 15" fill="none" stroke="#ff0000" stroke-width="2"/>
<path d="M349,293v 15" fill="none" stroke="#ff0000" stroke-width="2"/>
<path d="M350,293v 15" fill="none" stroke="#ff0000" stroke-width="2"/>
<path d="M351,294v 15" fill="none" stroke="#ff0000" stroke-width="2"/>
<path d="M351,294v 15" fill="none" stroke="#ff0000" stroke-width="2"/>
<path d="M352,294v 15" fill="none" stroke="#ff0000" stroke-width="2"/>
<path d="M353,295v 15" fill="none" stroke="#ff0000" stroke-width="2"/>
<path d="M354,295v 15" fill="none" stroke="#ff0000" stroke-width="2"/>
<path d="M355,295v 15" fill="none" stroke="#ff0000" stroke-width="2"/>
<path d="M355,295v 16" fill="none" stroke="#ff0000" stroke-width="2"/>
<path d="M356,295v 16" fill="none" stroke="#ff0000" stroke-width="2"/>
<path d="M357,295v 16" fill="none" stroke="#ff0000" stroke-width="2"/>
<path d="M358,295v 16" fill="none" stroke="#ff0000" stroke-width="2"/>
<path d="M359,296v 15" fill="none" stroke="#ff0000" stroke-width="2"/>
<path d="M359,296v 16" fill="none" stroke="#ff0000" stroke-width="2"/>
<path d="M360,296v 16" fill="none" stroke="#ff0000" stroke-width="2"/>
<path d="M361,296v 16" fill="none" stroke="#ff0000" stroke-width="2"/>
<path d="M362,296v 16" fill="none" stroke="#ff0000" stroke-width="2"/>
<path d="M363,297v 16" fill="none" stroke="#ff0000" stroke-width="2"/>
<path d="M364,297v 16" fill="none" stroke="#ff0000" stroke-width="2"/>
<path d="M364,297v 16" fill="none" stroke="#ff0000" stroke-width="2"/>
<path d="M365,297v 16" fill="none" stroke="#ff0000" stroke-width="2"/>
<path d="M366,297v 16" fill="none" stroke="#ff0000" stroke-width="2"/>
<path d="M367,298v 15" fill="none" stroke="#ff0000" stroke-width="2"/>
<path d="M368,298v 15" fill="none" stroke="#ff0000" stroke-width="2"/>
<path d="M368,298v 15" fill="none" stroke="#ff0000" stroke-width="2"/>
<path d="M369,298v 15" fill="none" stroke="#ff0000" stroke-width="2"/>
<path d="M370,298v 15" fill="none" stroke="#ff0000" stroke-width="2"/>
<path d="M371,298v 15" fill="none" stroke="#ff0000" stroke-width="2"/>
<path d="M372,298v 15" fill="none" stroke="#ff0000" stroke-width="2"/>
<path d="M372,299v 15" fill="none" stroke="#ff0000" stroke-width="2"/>
<path d="M373,299v 15" fill="none" stroke="#ff0000" stroke-width="2"/>
<path d="M374,299v 15" fill="none" stroke="#ff0000" stroke-width="2"/>
<path d="M375,299v 15" fill="none" stroke="#ff0000" stroke-width="2"/>
<path d="M376,299v 15" fill="none" stroke="#ff0000" stroke-width="2"/>
<path d="M377,299v 15" fill="none" stroke="#ff0000" stroke-width="2"/>
<path d="M377,299v 15" fill="none" stroke="#ff0000" stroke-width="2"/>
<path d="M378,299v 15" fill="none" stroke="#ff0000" stroke-width="2"/>
<path d="M379,299v 16" fill="none" stroke="#ff0000" stroke-width="2"/>
<path d="M380,299v 16" fill="none" stroke="#ff0000" stroke-width="2"/>
<path d="M381,299v 16" fill="none" stroke="#ff0000" stroke-width="2"/>
<path d="M381,299v 16" fill="none" stroke="#ff0000" stroke-width="2"/>
<path d="M382,299v 16" fill="none" stroke="#ff0000" stroke-width="2"/>
<path d="M383,299v 16" fill="none" stroke="#ff0000" stroke-width="2"/>
<path d="M384,299v 16" fill="none" stroke="#ff0000" stroke-width="2"/>
<path d="M385,299v 16" fill="none" stroke="#ff0000" stroke-width="2"/>
<path d="M386,299v 16" fill="none" stroke="#ff0000" stroke-width="2"/>
<path d="M386,299v 16" fill="none" stroke="#ff0000" stroke-width="2"/>
<path d="M387,299v 16" fill="none" stroke="#ff0000" stroke-width="2"/>
<path d="M388,299v 16" fill="none" stroke="#ff0000" stroke-width="2"/>
<path d="M389,300v 15" fill="none" stroke="#ff0000" stroke-width="2"/>
<path d="M390,300v 16" fill="none" stroke="#ff0000" stroke-width="2"/>
<path d="M390,300v 16" fill="none" stroke="#ff0000" stroke-width="2"/>
<path d="M391,300v 16" fill="none" stroke="#ff0000" stroke-width="2"/>
<path d="M392,300v 16" fill="none" stroke="#ff0000" stroke-width="2"/>
<path d="M393,300v 16" fill="none" stroke="#ff0000" stroke-width="2"/>
<path d="M394,300v 16" fill="none" stroke="#ff0000" stroke-width="2"/>
<path d="M394,300v 16" fill="none" stroke="#ff0000" stroke-width="2"/>
<path d="M395,300v 16" fill="none" stroke="#ff0000" stroke-width="2"/>
<path d="M396,300v 16" fill="none" stroke="#ff0000" stroke-width="2"/>
<path d="M397,300v 16" fill="none" stroke="#ff0000" stroke-width="2"/>
<path d="M398,300v 16" fill="none" stroke="#ff0000" stroke-width="2"/>
<path d="M399,300v 16" fill="none" stroke="#ff0000" stroke-width="2"/>
<path d="M399,300v 16" fill="none" stroke="#ff0000" stroke-width="2"/>
<path d="M400,300v 16" fill="none" stroke="#ff0000" stroke-width="2"/>
<path d="M401,300v 16" fill="none" stroke="#ff0000" stroke-width="2"/>
<path d="M402,300v 16" fill="none" stroke="#ff0000" stroke-width="2"/>
<path d="M403,300v 16" fill="none" stroke="#ff0000" stroke-width="2"/>
<path d="M403,300v 16" fill="none" stroke="#ff0000" stroke-width="2"/>
<path d="M404,301v 15" fill="none" stroke="#ff0000" stroke-width="2"/>
<path d="M405,301v 15" fill="none" stroke="#ff0000" stroke-width="2"/>
<path d="M406,301v 16" fill="none" stroke="#ff0000" stroke-width="2"/>
<path d="M407,301v 16" fill="none" stroke="#ff0000" stroke-width="2"/>
<path d="M408,301v 16" fill="none" stroke="#ff0000" stroke-width="2"/>
<path d="M408,301v 16" fill="none" stroke="#ff0000" stroke-width="2"/>
<path d="M409,301v 16" fill="none" stroke="#ff0000" stroke-width="2"/>
<path d="M410,301v 16" fill="none" stroke="#ff0000" stroke-width="2"/>
<path d="M411,301v 16" fill="none" stroke="#ff0000" stroke-width="2"/>
<path d="M412,301v 16" fill="none" stroke="#ff0000" stroke-width="2"/>
<path d="M412,301v 16" fill="none" stroke="#ff0000" stroke-width="2"/>
<path d="M413,301v 16" fill="none" stroke="#ff0000" stroke-width="2"/>
<path d="M414,301v 16" fill="none" stroke="#ff0000" stroke-width="2"/>
<path d="M415,301v 16" fill="none" stroke="#ff0000" stroke-width="2"/>
<path d="M416,301v 16" fill="none" stroke="#ff0000" stroke-width="2"/>
<path d="M416,301v 16" fill="none" stroke="#ff0000" stroke-width="2"/>
<path d="M417,301v 16" fill="none" stroke="#ff0000" stroke-width="2"/>
<path d="M418,301v 16" fill="none" stroke="#ff0000" stroke-width="2"/>
<path d="M419,301v 16" fill="none" stroke="#ff0000" stroke-width="2"/>
<path d="M420,301v 16" fill="none" stroke="#ff0000" stroke-width="2"/>
<path d="M421,301v 16" fill="none" stroke="#ff0000" stroke-width="2"/>
<path d="M421,301v 16" fill="none" stroke="#ff0000" stroke-width="2"/>
<path d="M422,301v 16" fill="none" stroke="#ff0000" stroke-width="2"/>
<path d="M423,301v 16" fill="none" stroke="#ff0000" stroke-width="2"/>
<path d="M424,301v 16" fill="none" stroke="#ff0000" stroke-width="2"/>
<path d="M425,301v 16" fill="none" stroke="#ff0000" stroke-width="2"/>
<path d="M425,301v 16" fill="none" stroke="#ff0000" stroke-width="2"/>
<path d="M426,301v 16" fill="none" stroke="#ff0000" stroke-width="2"/>
<path d="M427,301v 16" fill="none" stroke="#ff0000" stroke-width="2"/>
<path d="M428,301v 16" fill="none" stroke="#ff0000" stroke-width="2"/>
<path d="M429,301v 16" fill="none" stroke="#ff0000" stroke-width="2"/>
<path d="M430,301v 16" fill="none" stroke="#ff0000" stroke-width="2"/>
<path d="M430,301v 16" fill="none" stroke="#ff0000" stroke-width="2"/>
<path d="M431,301v 16" fill="none" stroke="#ff0000" stroke-width="2"/>
<path d="M432,301v 16" fill="none" stroke="#ff0000" stroke-width="2"/>
<path d="M433,301v 16" fill="none" stroke="#ff0000" stroke-width="2"/>
<path d="M434,301v 16" fill="none" stroke="#ff0000" stroke-width="2"/>
<path d="M434,301v 16" fill="none" stroke="#ff0000" stroke-width="2"/>
<path d="M435,301v 16" fill="none" stroke="#ff0000" stroke-width="2"/>
<path d="M436,301v 16" fill="none" stroke="#ff0000" stroke-width="2"/>
<path d="M437,301v 16" fill="none" stroke="#ff0000" stroke-width="2"/>
<path d="M438,301v 16" fill="none" stroke="#ff0000" stroke-width="2"/>
<path d="M438,301v 16" fill="none" stroke="#ff0000" stroke-width="2"/>
<path d="M439,301v 16" fill="none" stroke="#ff0000" stroke-width="2"/>
<path d="M440,301v 16" fill="none" stroke="#ff0000" stroke-width="2"/>
<path d="M441,301v 16" fill="none" stroke="#ff0000" stroke-width="2"/>
<path d="M442,301v 16" fill="none" stroke="#ff0000" stroke-width="2"/>
<path d="M443,301v 16" fill="none" stroke="#ff0000" stroke-width="2"/>
<path d="M443,301v 16" fill="none" stroke="#ff0000" stroke-width="2"/>
<path d="M444,301v 16" fill="none" stroke="#ff0000" stroke-width="2"/>
<path d="M445,301v 16" fill="none" stroke="#ff0000" stroke-width="2"/>
<path d="M446,301v 16" fill="none" stroke="#ff0000" stroke-width="2"/>
<path d="M447,301v 16" fill="none" stroke="#ff0000" stroke-width="2"/>
<path d="M447,301v 16" fill="none" stroke="#ff0000" stroke-width="2"/>
<path d="M448,301v 16" fill="none" stroke="#ff0000" stroke-width="2"/>
<path d="M449,302v 15" fill="none" stroke="#ff0000" stroke-width="2"/>
<path d="M450,301v 16" fill="none" stroke="#ff0000" stroke-width="2"/>
<path d="M451,301v 16" fill="none" stroke="#ff0000" stroke-width="2"/>
<path d="M452,302v 15" fill="none" stroke="#ff0000" stroke-width="2"/>
<path d="M452,301v 16" fill="none" stroke="#ff0000" stroke-width="2"/>
<path d="M453,301v 16" fill="none" stroke="#ff0000" stroke-width="2"/>
<path d="M454,302v 15" fill="none" stroke="#ff0000" stroke-width="2"/>
<path d="M455,302v 15" fill="none" stroke="#ff0000" stroke-width="2"/>
<path d="M456,302v 15" fill="none" stroke="#ff0000" stroke-width="2"/>
<path d="M456,302v 15" fill="none" stroke="#ff0000" stroke-width="2"/>
<path d="M457,302v 15" fill="none" stroke="#ff0000" stroke-width="2"/>
<path d="M458,302v 15" fill="none" stroke="#ff0000" stroke-width="2"/>
<path d="M459,302v 15" fill="none" stroke="#ff0000" stroke-width="2"/>
<path d="M460,302v 15" fill="none" stroke="#ff0000" stroke-width="2"/>
<path d="M460,302v 15" fill="none" stroke="#ff0000" stroke-width="2"/>
<path d="M461,302v 15" fill="none" stroke="#ff0000" stroke-width="2"/>
<path d="M462,302v 15" fill="none" stroke="#ff0000" stroke-width="2"/>
<path d="M463,302v 15" fill="none" stroke="#ff0000" stroke-width="2"/>
<path d="M464,302v 15" fill="none" stroke="#ff0000" stroke-width="2"/>
<path d="M465,302v 15" fill="none" stroke="#ff0000" stroke-width="2"/>
<path d="M465,302v 15" fill="none" stroke="#ff0000" stroke-width="2"/>
<path d="M466,302v 15" fill="none" stroke="#ff0000" stroke-width="2"/>
<path d="M467,302v 15" fill="none" stroke="#ff0000" stroke-width="2"/>
<path d="M468,302v 15" fill="none" stroke="#ff0000" stroke-width="2"/>
<path d="M469,302v 15" fill="none" stroke="#ff0000" stroke-width="2"/>
<path d="M469,302v 15" fill="none" stroke="#ff0000" stroke-width="2"/>
<path d="M470,302v 15" fill="none" stroke="#ff0000" stroke-width="2"/>
<path d="M471,302v 15" fill="none" stroke="#ff0000" stroke-width="2"/>
<path d="M472,302v 15" fill="none" stroke="#ff0000" stroke-width="2"/>
<path d="M473,302v 15" fill="none" stroke="#ff0000" stroke-width="2"/>
<path d="M473,302v 15" fill="none" stroke="#ff0000" stroke-width="2"/>
<path d="M474,302v 15" fill="none" stroke="#ff0000" stroke-width="2"/>
<path d="M475,302v 15" fill="none" stroke="#ff0000" stroke-width="2"/>
<path d="M476,302v 15" fill="none" stroke="#ff0000" stroke-width="2"/>
<path d="M477,302v 15" fill="none" stroke="#ff0000" stroke-width="2"/>
<path d="M478,302v 15" fill="none" stroke="#ff0000" stroke-width="2"/>
<path d="M478,302v 15" fill="none" stroke="#ff0000" stroke-width="2"/>
<path d="M479,302v 15" fill="none" stroke="#ff0000" stroke-width="2"/>
<path d="M480,302v 15" fill="none" stroke="#ff0000" stroke-width="2"/>
<path d="M481,302v 15" fill="none" stroke="#ff0000" stroke-width="2"/>
<path d="M482,302v 15" fill="none" stroke="#ff0000" stroke-width="2"/>
<path d="M482,302v 15" fill="none" stroke="#ff0000" stroke-width="2"/>
<path d="M483,302v 15" fill="none" stroke="#ff0000" stroke-width="2"/>
<path d="M484,302v 15" fill="none" stroke="#ff0000" stroke-width="2"/>
<path d="M485,302v 15" fill="none" stroke="#ff0000" stroke-width="2"/>
<path d="M486,302v 15" fill="none" stroke="#ff0000" stroke-width="2"/>
<path d="M487,302v 15" fill="none" stroke="#ff0000" stroke-width="2"/>
<path d="M487,302v 15" fill="none" stroke="#ff0000" stroke-width="2"/>
<path d="M488,302v 15" fill="none" stroke="#ff0000" stroke-width="2"/>
<path d="M489,302v 15" fill="none" stroke="#ff0000" stroke-width="2"/>
<path d="M490,302v 15" fill="none" stroke="#ff0000" stroke-width="2"/>
<path d="M491,302v 15" fill="none" stroke="#ff0000" stroke-width="2"/>
<path d="M491,302v 15" fill="none" stroke="#ff0000" stroke-width="2"/>
<path d="M492,302v 15" fill="none" stroke="#ff0000" stroke-width="2"/>
<path d="M493,302v 15" fill="none" stroke="#ff0000" stroke-width="2"/>
<path d="M494,302v 15" fill="none" stroke="#ff0000" stroke-width="2"/>
<path d="M495,302v 15" fill="none" stroke="#ff0000" stroke-width="2"/>
<path d="M495,302v 15" fill="none" stroke="#ff0000" stroke-width="2"/>
<path d="M496,302v 15" fill="none" stroke="#ff0000" stroke-width="2"/>
<path d="M497,302v 15" fill="none" stroke="#ff0000" stroke-width="2"/>
<path d="M498,302v 15" fill="none" stroke="#ff0000" stroke-width="2"/>
<path d="M499,302v 15" fill="none" stroke="#ff0000" stroke-width="2"/>
<path d="M500,302v 15" fill="none" stroke="#ff0000" stroke-width="2"/>
<path d="M500,302v 15" fill="none" stroke="#ff0000" stroke-width="2"/>
<path d="M501,302v 15" fill="none" stroke="#ff0000" stroke-width="2"/>
<path d="M502,302v 15" fill="none" stroke="#ff0000" stroke-width="2"/>
<path d="M503,302v 15" fill="none" stroke="#ff0000" stroke-width="2"/>
<path d="M504,302v 15" fill="none" stroke="#ff0000" stroke-width="2"/>
<path d="M504,302v 15" fill="none" stroke="#ff0000" stroke-width="2"/>
<path d="M505,302v 15" fill="none" stroke="#ff0000" stroke-width="2"/>
<path d="M506,302v 15" fill="none" stroke="#ff0000" stroke-width="2"/>
<path d="M507,302v 15" fill="none" stroke="#ff0000" stroke-width="2"/>
<path d="M508,302v 15" fill="none" stroke="#ff0000" stroke-width="2"/>
<path d="M509,302v 15" fill="none" stroke="#ff0000" stroke-width="2"/>
<path d="M509,302v 15" fill="none" stroke="#ff0000" stroke-width="2"/>
<path d="M510,302v 15" fill="none" stroke="#ff0000" stroke-width="2"/>
<path d="M284,172l 1, 5v 13l 1, 8l 1, 5l 1, 4l 1, 3v 6l 1, 3l 1, 2l 1, 3l 1, 3v 4l 1, 2l 1, 2l 1, 2l 1, 3l 1, 2v 2l 1, 2l 1, 2l 1, 3l 1, 1v 2l 1, 1l 1, 2l 1, 2l 1, 2l 1, 1v 2l 1, 1l 1, 2l 1, 2h 1v 1l 1, 2l 1, 1l 1, 1l 1, 1v 1l 1, 1l 1, 1l 1, 1l 1, 1l
 1, 1v 1l 1, 1l 1, 1l 1, 1l 1, 1l 1, 1h 1l 1, 1l 1, 1l 1, 1v 1h 2l 1, 1l 1, 1l 1, 1h 1l 1, 1h 2l 1, 1l 1, 1h 1l 1, 1l 1, 1h 4l 1, 1h 2l 1, 1h 1l 1, 1h 2v 1h 3l 1, 1h 7l 1, 1h 5v 1h 6l 1, 1h 9l 1, 1h 59l 1, 1l 1, -1h 1l 1, 1v -1h 1l 1, 1h 56"
 fill="none" stroke="#ff0000" stroke-width="2"/>
<rect x="351" y="25" width="205" height="154" fill="white"/>
<path d="M351,179h 205" fill="none" stroke="black"/>
<path d="M556,179v -154" fill="none" stroke="black"/>
<path d="M556,25h -205" fill="none" stroke="black"/>
<path d="M351,25v 154" fill="none" stroke="black"/>
<text x="362" y="38" fill="black" font-size="14" font-family="Helvetica">
Entries 
</text>
<text x="490" y="38" fill="black" font-size="14" font-family="Helvetica">
 822492
</text>
<text x="374" y="58" fill="black" font-size="14" font-family="Helvetica">
 / ndf 
</text>
<text x="369" y="45" fill="black" font-size="10" font-family="Helvetica">
2
</text>
<text x="362" y="58" fill="black" font-size="14" font-family="Times">
&#0967;
</text>
<text x="455" y="55" fill="black" font-size="14" font-family="Helvetica">
  4948 / 1240
</text>
<text x="382" y="68" fill="black" font-size="14" font-family="Helvetica">
   
</text>
<text x="372" y="77" fill="black" font-size="10" font-family="Helvetica">
cu
</text>
<text x="362" y="68" fill="black" font-size="14" font-family="Helvetica">
N
</text>
<text x="511" y="74" fill="black" font-size="14" font-family="Helvetica">
 23.9
</text>
<text x="499" y="74" fill="black" font-size="14" font-family="Times">
&#0177;
</text>
<text x="451" y="74" fill="black" font-size="14" font-family="Helvetica">
 238.2 
</text>
<text x="377" y="87" fill="black" font-size="14" font-family="Helvetica">
 
</text>
<text x="367" y="97" fill="black" font-size="10" font-family="Helvetica">
cu
</text>
<text x="362" y="87" fill="black" font-size="14" font-family="Times">
&#0964;
</text>
<text x="520" y="91" fill="black" font-size="14" font-family="Helvetica">
 0.4
</text>
<text x="507" y="91" fill="black" font-size="14" font-family="Times">
&#0177;
</text>
<text x="460" y="91" fill="black" font-size="14" font-family="Helvetica">
 162.5 
</text>
<text x="375" y="102" fill="black" font-size="14" font-family="Helvetica">
    
</text>
<text x="372" y="111" fill="black" font-size="10" font-family="Helvetica">
f
</text>
<text x="362" y="102" fill="black" font-size="14" font-family="Helvetica">
N
</text>
<text x="520" y="108" fill="black" font-size="14" font-family="Helvetica">
 4.4
</text>
<text x="507" y="108" fill="black" font-size="14" font-family="Times">
&#0177;
</text>
<text x="460" y="108" fill="black" font-size="14" font-family="Helvetica">
 951.5 
</text>
<text x="370" y="121" fill="black" font-size="14" font-family="Helvetica">
 
</text>
<text x="367" y="131" fill="black" font-size="10" font-family="Helvetica">
f
</text>
<text x="362" y="121" fill="black" font-size="14" font-family="Times">
&#0964;
</text>
<text x="520" y="125" fill="black" font-size="14" font-family="Helvetica">
 0.0
</text>
<text x="507" y="125" fill="black" font-size="14" font-family="Times">
&#0177;
</text>
<text x="460" y="125" fill="black" font-size="14" font-family="Helvetica">
  2197 
</text>
<text x="384" y="137" fill="black" font-size="14" font-family="Helvetica">
  
</text>
<text x="372" y="146" fill="black" font-size="10" font-family="Helvetica">
sin
</text>
<text x="362" y="137" fill="black" font-size="14" font-family="Helvetica">
N
</text>
<text x="511" y="142" fill="black" font-size="14" font-family="Helvetica">
 0.83
</text>
<text x="499" y="142" fill="black" font-size="14" font-family="Times">
&#0177;
</text>
<text x="451" y="142" fill="black" font-size="14" font-family="Helvetica">
 61.64 
</text>
<text x="362" y="158" fill="black" font-size="14" font-family="Helvetica">
T        
</text>
<text x="520" y="159" fill="black" font-size="14" font-family="Helvetica">
 0.0
</text>
<text x="507" y="159" fill="black" font-size="14" font-family="Times">
&#0177;
</text>
<text x="465" y="159" fill="black" font-size="14" font-family="Helvetica">
  59.3 
</text>
<text x="377" y="171" fill="black" font-size="14" font-family="Helvetica">
    
</text>
<text x="372" y="180" fill="black" font-size="10" font-family="Helvetica">
b
</text>
<text x="362" y="171" fill="black" font-size="14" font-family="Helvetica">
N
</text>
<text x="520" y="176" fill="black" font-size="14" font-family="Helvetica">
 0.6
</text>
<text x="507" y="176" fill="black" font-size="14" font-family="Times">
&#0177;
</text>
<text x="465" y="176" fill="black" font-size="14" font-family="Helvetica">
   293 
</text>
<path d="M57,346h 453" fill="none" stroke="black"/>
<text x="419" y="372" fill="black" font-size="12" font-family="Helvetica">
TDC-TDC0 (ns)
</text>
<path d="M57,337v 9" fill="none" stroke="black"/>
<path d="M68,342v 4" fill="none" stroke="black"/>
<path d="M79,342v 4" fill="none" stroke="black"/>
<path d="M91,342v 4" fill="none" stroke="black"/>
<path d="M102,342v 4" fill="none" stroke="black"/>
<path d="M113,337v 9" fill="none" stroke="black"/>
<path d="M125,342v 4" fill="none" stroke="black"/>
<path d="M136,342v 4" fill="none" stroke="black"/>
<path d="M147,342v 4" fill="none" stroke="black"/>
<path d="M159,342v 4" fill="none" stroke="black"/>
<path d="M170,337v 9" fill="none" stroke="black"/>
<path d="M181,342v 4" fill="none" stroke="black"/>
<path d="M193,342v 4" fill="none" stroke="black"/>
<path d="M204,342v 4" fill="none" stroke="black"/>
<path d="M215,342v 4" fill="none" stroke="black"/>
<path d="M227,337v 9" fill="none" stroke="black"/>
<path d="M238,342v 4" fill="none" stroke="black"/>
<path d="M249,342v 4" fill="none" stroke="black"/>
<path d="M261,342v 4" fill="none" stroke="black"/>
<path d="M272,342v 4" fill="none" stroke="black"/>
<path d="M283,337v 9" fill="none" stroke="black"/>
<path d="M295,342v 4" fill="none" stroke="black"/>
<path d="M306,342v 4" fill="none" stroke="black"/>
<path d="M317,342v 4" fill="none" stroke="black"/>
<path d="M329,342v 4" fill="none" stroke="black"/>
<path d="M340,337v 9" fill="none" stroke="black"/>
<path d="M351,342v 4" fill="none" stroke="black"/>
<path d="M363,342v 4" fill="none" stroke="black"/>
<path d="M374,342v 4" fill="none" stroke="black"/>
<path d="M386,342v 4" fill="none" stroke="black"/>
<path d="M397,337v 9" fill="none" stroke="black"/>
<path d="M408,342v 4" fill="none" stroke="black"/>
<path d="M420,342v 4" fill="none" stroke="black"/>
<path d="M431,342v 4" fill="none" stroke="black"/>
<path d="M442,342v 4" fill="none" stroke="black"/>
<path d="M454,337v 9" fill="none" stroke="black"/>
<path d="M465,342v 4" fill="none" stroke="black"/>
<path d="M476,342v 4" fill="none" stroke="black"/>
<path d="M488,342v 4" fill="none" stroke="black"/>
<path d="M499,342v 4" fill="none" stroke="black"/>
<path d="M510,337v 9" fill="none" stroke="black"/>
<text x="36" y="359" fill="black" font-size="12" font-family="Helvetica">
-20000
</text>
<text x="93" y="359" fill="black" font-size="12" font-family="Helvetica">
-15000
</text>
<text x="149" y="359" fill="black" font-size="12" font-family="Helvetica">
-10000
</text>
<text x="210" y="359" fill="black" font-size="12" font-family="Helvetica">
-5000
</text>
<text x="280" y="359" fill="black" font-size="12" font-family="Helvetica">
0
</text>
<text x="325" y="359" fill="black" font-size="12" font-family="Helvetica">
5000
</text>
<text x="379" y="359" fill="black" font-size="12" font-family="Helvetica">
10000
</text>
<text x="435" y="359" fill="black" font-size="12" font-family="Helvetica">
15000
</text>
<text x="492" y="359" fill="black" font-size="12" font-family="Helvetica">
20000
</text>
<path d="M57,346v -308" fill="none" stroke="black"/>
<g transform="rotate(-90,29,72)">
<text x="29" y="72" fill="black" font-size="12" font-family="Helvetica">
Count
</text>
</g>
<path d="M70,346h -13" fill="none" stroke="black"/>
<path d="M63,340h -6" fill="none" stroke="black"/>
<path d="M63,334h -6" fill="none" stroke="black"/>
<path d="M63,328h -6" fill="none" stroke="black"/>
<path d="M70,321h -13" fill="none" stroke="black"/>
<path d="M63,315h -6" fill="none" stroke="black"/>
<path d="M63,309h -6" fill="none" stroke="black"/>
<path d="M63,303h -6" fill="none" stroke="black"/>
<path d="M70,296h -13" fill="none" stroke="black"/>
<path d="M63,290h -6" fill="none" stroke="black"/>
<path d="M63,284h -6" fill="none" stroke="black"/>
<path d="M63,278h -6" fill="none" stroke="black"/>
<path d="M70,271h -13" fill="none" stroke="black"/>
<path d="M63,265h -6" fill="none" stroke="black"/>
<path d="M63,259h -6" fill="none" stroke="black"/>
<path d="M63,253h -6" fill="none" stroke="black"/>
<path d="M70,246h -13" fill="none" stroke="black"/>
<path d="M63,240h -6" fill="none" stroke="black"/>
<path d="M63,234h -6" fill="none" stroke="black"/>
<path d="M63,227h -6" fill="none" stroke="black"/>
<path d="M70,221h -13" fill="none" stroke="black"/>
<path d="M63,215h -6" fill="none" stroke="black"/>
<path d="M63,209h -6" fill="none" stroke="black"/>
<path d="M63,202h -6" fill="none" stroke="black"/>
<path d="M70,196h -13" fill="none" stroke="black"/>
<path d="M63,190h -6" fill="none" stroke="black"/>
<path d="M63,184h -6" fill="none" stroke="black"/>
<path d="M63,177h -6" fill="none" stroke="black"/>
<path d="M70,171h -13" fill="none" stroke="black"/>
<path d="M63,165h -6" fill="none" stroke="black"/>
<path d="M63,159h -6" fill="none" stroke="black"/>
<path d="M63,152h -6" fill="none" stroke="black"/>
<path d="M70,146h -13" fill="none" stroke="black"/>
<path d="M63,140h -6" fill="none" stroke="black"/>
<path d="M63,133h -6" fill="none" stroke="black"/>
<path d="M63,127h -6" fill="none" stroke="black"/>
<path d="M70,121h -13" fill="none" stroke="black"/>
<path d="M63,115h -6" fill="none" stroke="black"/>
<path d="M63,108h -6" fill="none" stroke="black"/>
<path d="M63,102h -6" fill="none" stroke="black"/>
<path d="M70,96h -13" fill="none" stroke="black"/>
<path d="M63,90h -6" fill="none" stroke="black"/>
<path d="M63,83h -6" fill="none" stroke="black"/>
<path d="M63,77h -6" fill="none" stroke="black"/>
<path d="M70,71h -13" fill="none" stroke="black"/>
<path d="M63,65h -6" fill="none" stroke="black"/>
<path d="M63,58h -6" fill="none" stroke="black"/>
<path d="M63,52h -6" fill="none" stroke="black"/>
<path d="M70,46h -13" fill="none" stroke="black"/>
<path d="M70,46h -13" fill="none" stroke="black"/>
<path d="M63,40h -6" fill="none" stroke="black"/>
<text x="47" y="350" fill="black" font-size="12" font-family="Helvetica">
0
</text>
<text x="33" y="325" fill="black" font-size="12" font-family="Helvetica">
200
</text>
<text x="33" y="300" fill="black" font-size="12" font-family="Helvetica">
400
</text>
<text x="33" y="275" fill="black" font-size="12" font-family="Helvetica">
600
</text>
<text x="33" y="250" fill="black" font-size="12" font-family="Helvetica">
800
</text>
<text x="25" y="225" fill="black" font-size="12" font-family="Helvetica">
1000
</text>
<text x="25" y="200" fill="black" font-size="12" font-family="Helvetica">
1200
</text>
<text x="25" y="175" fill="black" font-size="12" font-family="Helvetica">
1400
</text>
<text x="25" y="150" fill="black" font-size="12" font-family="Helvetica">
1600
</text>
<text x="25" y="124" fill="black" font-size="12" font-family="Helvetica">
1800
</text>
<text x="25" y="100" fill="black" font-size="12" font-family="Helvetica">
2000
</text>
<text x="25" y="75" fill="black" font-size="12" font-family="Helvetica">
2200
</text>
<text x="25" y="49" fill="black" font-size="12" font-family="Helvetica">
2400
</text>
<rect x="351" y="25" width="205" height="154" fill="white"/>
<path d="M351,179h 205" fill="none" stroke="black"/>
<path d="M556,179v -154" fill="none" stroke="black"/>
<path d="M556,25h -205" fill="none" stroke="black"/>
<path d="M351,25v 154" fill="none" stroke="black"/>
<text x="362" y="38" fill="black" font-size="14" font-family="Helvetica">
Entries 
</text>
<text x="490" y="38" fill="black" font-size="14" font-family="Helvetica">
 822492
</text>
<text x="374" y="58" fill="black" font-size="14" font-family="Helvetica">
 / ndf 
</text>
<text x="369" y="45" fill="black" font-size="10" font-family="Helvetica">
2
</text>
<text x="362" y="58" fill="black" font-size="14" font-family="Times">
&#0967;
</text>
<text x="455" y="55" fill="black" font-size="14" font-family="Helvetica">
  4948 / 1240
</text>
<text x="382" y="68" fill="black" font-size="14" font-family="Helvetica">
   
</text>
<text x="372" y="77" fill="black" font-size="10" font-family="Helvetica">
cu
</text>
<text x="362" y="68" fill="black" font-size="14" font-family="Helvetica">
N
</text>
<text x="511" y="74" fill="black" font-size="14" font-family="Helvetica">
 23.9
</text>
<text x="499" y="74" fill="black" font-size="14" font-family="Times">
&#0177;
</text>
<text x="451" y="74" fill="black" font-size="14" font-family="Helvetica">
 238.2 
</text>
<text x="377" y="87" fill="black" font-size="14" font-family="Helvetica">
 
</text>
<text x="367" y="97" fill="black" font-size="10" font-family="Helvetica">
cu
</text>
<text x="362" y="87" fill="black" font-size="14" font-family="Times">
&#0964;
</text>
<text x="520" y="91" fill="black" font-size="14" font-family="Helvetica">
 0.4
</text>
<text x="507" y="91" fill="black" font-size="14" font-family="Times">
&#0177;
</text>
<text x="460" y="91" fill="black" font-size="14" font-family="Helvetica">
 162.5 
</text>
<text x="375" y="102" fill="black" font-size="14" font-family="Helvetica">
    
</text>
<text x="372" y="111" fill="black" font-size="10" font-family="Helvetica">
f
</text>
<text x="362" y="102" fill="black" font-size="14" font-family="Helvetica">
N
</text>
<text x="520" y="108" fill="black" font-size="14" font-family="Helvetica">
 4.4
</text>
<text x="507" y="108" fill="black" font-size="14" font-family="Times">
&#0177;
</text>
<text x="460" y="108" fill="black" font-size="14" font-family="Helvetica">
 951.5 
</text>
<text x="370" y="121" fill="black" font-size="14" font-family="Helvetica">
 
</text>
<text x="367" y="131" fill="black" font-size="10" font-family="Helvetica">
f
</text>
<text x="362" y="121" fill="black" font-size="14" font-family="Times">
&#0964;
</text>
<text x="520" y="125" fill="black" font-size="14" font-family="Helvetica">
 0.0
</text>
<text x="507" y="125" fill="black" font-size="14" font-family="Times">
&#0177;
</text>
<text x="460" y="125" fill="black" font-size="14" font-family="Helvetica">
  2197 
</text>
<text x="384" y="137" fill="black" font-size="14" font-family="Helvetica">
  
</text>
<text x="372" y="146" fill="black" font-size="10" font-family="Helvetica">
sin
</text>
<text x="362" y="137" fill="black" font-size="14" font-family="Helvetica">
N
</text>
<text x="511" y="142" fill="black" font-size="14" font-family="Helvetica">
 0.83
</text>
<text x="499" y="142" fill="black" font-size="14" font-family="Times">
&#0177;
</text>
<text x="451" y="142" fill="black" font-size="14" font-family="Helvetica">
 61.64 
</text>
<text x="362" y="158" fill="black" font-size="14" font-family="Helvetica">
T        
</text>
<text x="520" y="159" fill="black" font-size="14" font-family="Helvetica">
 0.0
</text>
<text x="507" y="159" fill="black" font-size="14" font-family="Times">
&#0177;
</text>
<text x="465" y="159" fill="black" font-size="14" font-family="Helvetica">
  59.3 
</text>
<text x="377" y="171" fill="black" font-size="14" font-family="Helvetica">
    
</text>
<text x="372" y="180" fill="black" font-size="10" font-family="Helvetica">
b
</text>
<text x="362" y="171" fill="black" font-size="14" font-family="Helvetica">
N
</text>
<text x="520" y="176" fill="black" font-size="14" font-family="Helvetica">
 0.6
</text>
<text x="507" y="176" fill="black" font-size="14" font-family="Times">
&#0177;
</text>
<text x="465" y="176" fill="black" font-size="14" font-family="Helvetica">
   293 
</text>
<text x="270" y="21" fill="black" font-size="21" font-family="Helvetica">
D2
</text></svg>
