<?xml version="1.0" standalone="no"?>
<svg width="567" height="385" viewBox="0 0 567 385" xmlns="http://www.w3.org/2000/svg">
<title>
images/analysis/Air_5mm_combined_Air_5mm.svg
</title>
<desc>
Creator: ROOT Version 5.34/05
CreationDate: Thu Jun  6 22:44:50 2013</desc>
<defs>
</defs>
<rect x="0" y="0" width="567" height="385" fill="white"/>
<rect x="57" y="38" width="453" height="308" fill="white"/>
<rect x="57" y="38" width="453" height="308" fill="none" stroke="black"/>
<rect x="57" y="38" width="453" height="308" fill="white"/>
<rect x="57" y="38" width="453" height="308" fill="none" stroke="black"/>
<path d="M57,346h 227v -202v 25v -73h 1v 108v -110v 81h 1v -92v 69v -32v 19v -26h 1v -60v 122v -36v 24v -12v 30h 1v -49v 62v -55v 47h 1v -98v 93v -7v 1h 1v 31v -121v 139v -49h 1v -29v 24v -32v 18h 1v 62v -62v 38v -56v 50h 1v -31v 55v -61v 37v -13v
 44h 1v -49v 36v -6v 5h 1v 7v -49v 49v -37v 43h 1v -49v 48v -29v 6h 1v 42v -13v 32v -49h 1v 30v -42h 1v -31v 92v -43v 43h 1v 6v -43v 7v -20v 56h 1v -36v 36v -12v 5v -32h 1v 39v -38v 7v -1h 1v 38v -25v 44v -56h 1v 1v -1v 49h 1v -61v 55v -91v 24h 1v
 79v -97v 49h 1v -7v 61v -36v 18h 1v -18v 37v -55v 6h 1v 36v -18v 48v -42v 6h 1v -61v 55v -18v 18h 1v 12v -12v 12v -18h 1v 43v -62v 31h 1v 19v -62v 60h 1v -53v 73v -18v 6v -6h 1v -25v 43v -43v 6v -12h 1v -37v 85v -30v 25h 1v -37v 25v -25v 6h 1v 31v
 -12v 18v -37v 18h 1v -5v 24v -43v 43h 1v -12v 12v -6v 24v -36h 1v 24v -1v 7h 1v -30v 6v -19v 19h 1v -37v 43v -12v 18v -24h 1v -13v 37v -1v 1v -18v 5h 1v -11v 24v -7v 13v -18h 1v -6v 17v -12v 19h 1v -12v 12v -12h 1v -6v 24v -30v 18v -37h 1v 55v -49v
 49h 1v -36v 24v -37h 1v 36v -11v 18v -18h 1v 30v -36v 30v -19h 1v 31v -61v 55h 1v -38v 26v -6h 1v 24v -36h 1v 36v -24v 30v -12h 1v -36v 24v -18v 18h 1v -7v 7v -6v 12h 1v -12v 24h 1v -12v 6v -6v 12v -24h 1v 6v -19v 19h 1v -13v 19v -18v 18h 1v 6v -13h
 1v 6v -23v 42v -12h 1v -36v 24v -7v 25v -18h 1v -18v 30v -12h 1v 18v -12v 12h 1v -18v 12v -13v 1h 1v -12v 30v -6h 1v 12v -30v 24v -18h 1v 18v -18v 18v -18h 1v 12v -18v 12h 1v 6v -6v 12v -36h 1v 42v -18h 1v 12v -18v 24v -12h 1v -6v 6v -6h 1v 6v -6v
 12h 1v -12v 18h 1v -12v 12v -31v 19h 1v 12v -12v 6v -12h 1v 18v -30v 18h 1v 12v -12v 6h 1v -6v 12v -6v 6v -6h 1v -6v 6v -6v 6h 1v -18v 24v -18h 1v 18v -18v 18v -12h 1v -12v 24v -18v 12v -12h 1v 18v -12v 12v -6h 1v 6v -18v 12v -6v 12h 1v -6v 6h 1v
 -12v 12v -18v 12h 1v -12v 12v -6v 6h 1v 6v -6v 6v -18h 1v 18v -18h 1v 18v -6v 6h 1v -6v 6h 1v -6v 6v -6v 6v -6h 1v 6v -6h 1v -6v 12v -6v 6h 1v -12v 12h 1v -18v 18v -6v 6h 1v -6h 1v -6v 12v -6v 6h 1v -6v 6v -6h 1v 6v -6v 6v -12v 6h 1v 6v -12v 12h 1v
 -6v 6v -6h 1v 6v -12v 12h 1v -6v 6h 1v -6h 1v 6v -6v 6h 1v -24h 1v 24v -6v 6h 1v -6v 6v -6v 6v -6h 1v 6v -6v 6h 1v -6v 6h 1v -12v 12h 1v -6v 6v -6v 6h 2v -12h 1v 12h 1v -6v 6h 2v -6h 1v 6v -6v 6h 1v -6v 6h 1v -6v 6h 1v -6v 6v -6v 6v -6v 6h 1v -6v 6h
 1v -6h 1v 6h 2v -6h 1v 6h 1v -6h 1v 6h 2v -6v 6h 1v -6v 6h 1v -6v 6v -6v 6h 1v -6v 6h 1v -6v 6h 2v -12v 12h 2v -6v 6v -6h 1v 6h 2v -6v 6h 3v -6v 6h 3v -6h 1v 6h 1v -6v 6v -6v 6h 1v -6h 1v 6h 1v -6v 6v -6v 6h 2v -6v 6h 3v -6v 6h 2v -6v 6h 3v -6v 6h
 3v -6v 6h 4v -6v 6h 4v -6v 6h 19v -6v 6h 30" fill="none" stroke="#000099"/>
<path d="M284,112v 3" fill="none" stroke="#ff0000" stroke-width="2"/>
<path d="M285,115v 9" fill="none" stroke="#ff0000" stroke-width="2"/>
<path d="M285,124v 8" fill="none" stroke="#ff0000" stroke-width="2"/>
<path d="M286,132v 7" fill="none" stroke="#ff0000" stroke-width="2"/>
<path d="M287,139v 7" fill="none" stroke="#ff0000" stroke-width="2"/>
<path d="M288,146v 7" fill="none" stroke="#ff0000" stroke-width="2"/>
<path d="M289,153v 6" fill="none" stroke="#ff0000" stroke-width="2"/>
<path d="M289,159v 6" fill="none" stroke="#ff0000" stroke-width="2"/>
<path d="M290,165v 6" fill="none" stroke="#ff0000" stroke-width="2"/>
<path d="M291,172v 4" fill="none" stroke="#ff0000" stroke-width="2"/>
<path d="M292,176v 6" fill="none" stroke="#ff0000" stroke-width="2"/>
<path d="M293,182v 5" fill="none" stroke="#ff0000" stroke-width="2"/>
<path d="M293,188v 5" fill="none" stroke="#ff0000" stroke-width="2"/>
<path d="M294,193v 5" fill="none" stroke="#ff0000" stroke-width="2"/>
<path d="M295,198v 5" fill="none" stroke="#ff0000" stroke-width="2"/>
<path d="M296,203v 4" fill="none" stroke="#ff0000" stroke-width="2"/>
<path d="M297,207v 5" fill="none" stroke="#ff0000" stroke-width="2"/>
<path d="M298,212v 4" fill="none" stroke="#ff0000" stroke-width="2"/>
<path d="M298,216v 4" fill="none" stroke="#ff0000" stroke-width="2"/>
<path d="M299,220v 4" fill="none" stroke="#ff0000" stroke-width="2"/>
<path d="M300,224v 4" fill="none" stroke="#ff0000" stroke-width="2"/>
<path d="M301,228v 4" fill="none" stroke="#ff0000" stroke-width="2"/>
<path d="M302,232v 3" fill="none" stroke="#ff0000" stroke-width="2"/>
<path d="M302,235v 4" fill="none" stroke="#ff0000" stroke-width="2"/>
<path d="M303,239v 3" fill="none" stroke="#ff0000" stroke-width="2"/>
<path d="M304,242v 4" fill="none" stroke="#ff0000" stroke-width="2"/>
<path d="M305,246v 3" fill="none" stroke="#ff0000" stroke-width="2"/>
<path d="M306,249v 3" fill="none" stroke="#ff0000" stroke-width="2"/>
<path d="M307,252v 3" fill="none" stroke="#ff0000" stroke-width="2"/>
<path d="M307,255v 3" fill="none" stroke="#ff0000" stroke-width="2"/>
<path d="M308,258v 3" fill="none" stroke="#ff0000" stroke-width="2"/>
<path d="M309,261v 3" fill="none" stroke="#ff0000" stroke-width="2"/>
<path d="M310,264v 2" fill="none" stroke="#ff0000" stroke-width="2"/>
<path d="M311,266v 3" fill="none" stroke="#ff0000" stroke-width="2"/>
<path d="M311,269v 2" fill="none" stroke="#ff0000" stroke-width="2"/>
<path d="M312,271v 2" fill="none" stroke="#ff0000" stroke-width="2"/>
<path d="M313,273v 3" fill="none" stroke="#ff0000" stroke-width="2"/>
<path d="M314,276v 2" fill="none" stroke="#ff0000" stroke-width="2"/>
<path d="M315,278v 3" fill="none" stroke="#ff0000" stroke-width="2"/>
<path d="M315,281v 1" fill="none" stroke="#ff0000" stroke-width="2"/>
<path d="M316,282v 3" fill="none" stroke="#ff0000" stroke-width="2"/>
<path d="M317,285v 1" fill="none" stroke="#ff0000" stroke-width="2"/>
<path d="M318,286v 3" fill="none" stroke="#ff0000" stroke-width="2"/>
<path d="M319,289v 2" fill="none" stroke="#ff0000" stroke-width="2"/>
<path d="M320,291v 1" fill="none" stroke="#ff0000" stroke-width="2"/>
<path d="M320,292v 2" fill="none" stroke="#ff0000" stroke-width="2"/>
<path d="M321,294v 1" fill="none" stroke="#ff0000" stroke-width="2"/>
<path d="M322,295v 2" fill="none" stroke="#ff0000" stroke-width="2"/>
<path d="M323,297v 2" fill="none" stroke="#ff0000" stroke-width="2"/>
<path d="M324,299v 1" fill="none" stroke="#ff0000" stroke-width="2"/>
<path d="M324,300v 2" fill="none" stroke="#ff0000" stroke-width="2"/>
<path d="M325,302v 2" fill="none" stroke="#ff0000" stroke-width="2"/>
<path d="M326,304" fill="none" stroke="#ff0000" stroke-width="2"/>
<path d="M327,304v 2" fill="none" stroke="#ff0000" stroke-width="2"/>
<path d="M328,306v 1" fill="none" stroke="#ff0000" stroke-width="2"/>
<path d="M329,308" fill="none" stroke="#ff0000" stroke-width="2"/>
<path d="M329,308v 1" fill="none" stroke="#ff0000" stroke-width="2"/>
<path d="M330,310v 1" fill="none" stroke="#ff0000" stroke-width="2"/>
<path d="M331,311v 1" fill="none" stroke="#ff0000" stroke-width="2"/>
<path d="M332,312v 1" fill="none" stroke="#ff0000" stroke-width="2"/>
<path d="M333,313v 1" fill="none" stroke="#ff0000" stroke-width="2"/>
<path d="M333,314v 1" fill="none" stroke="#ff0000" stroke-width="2"/>
<path d="M334,315v 1" fill="none" stroke="#ff0000" stroke-width="2"/>
<path d="M335,317" fill="none" stroke="#ff0000" stroke-width="2"/>
<path d="M336,317v 1" fill="none" stroke="#ff0000" stroke-width="2"/>
<path d="M337,318v 1" fill="none" stroke="#ff0000" stroke-width="2"/>
<path d="M337,319v 1" fill="none" stroke="#ff0000" stroke-width="2"/>
<path d="M338,320v 1" fill="none" stroke="#ff0000" stroke-width="2"/>
<path d="M339,321" fill="none" stroke="#ff0000" stroke-width="2"/>
<path d="M340,321v 1" fill="none" stroke="#ff0000" stroke-width="2"/>
<path d="M341,322v 1" fill="none" stroke="#ff0000" stroke-width="2"/>
<path d="M342,323v 1" fill="none" stroke="#ff0000" stroke-width="2"/>
<path d="M342,324v 1" fill="none" stroke="#ff0000" stroke-width="2"/>
<path d="M343,325v 1" fill="none" stroke="#ff0000" stroke-width="2"/>
<path d="M344,326z" fill="none" stroke="#ff0000" stroke-width="2"/>
<path d="M345,326" fill="none" stroke="#ff0000" stroke-width="2"/>
<path d="M346,326v 1" fill="none" stroke="#ff0000" stroke-width="2"/>
<path d="M346,327v 1" fill="none" stroke="#ff0000" stroke-width="2"/>
<path d="M347,328z" fill="none" stroke="#ff0000" stroke-width="2"/>
<path d="M348,328v 1" fill="none" stroke="#ff0000" stroke-width="2"/>
<path d="M349,329v 1" fill="none" stroke="#ff0000" stroke-width="2"/>
<path d="M350,330z" fill="none" stroke="#ff0000" stroke-width="2"/>
<path d="M351,330" fill="none" stroke="#ff0000" stroke-width="2"/>
<path d="M351,330v 1" fill="none" stroke="#ff0000" stroke-width="2"/>
<path d="M352,331z" fill="none" stroke="#ff0000" stroke-width="2"/>
<path d="M353,331v 1" fill="none" stroke="#ff0000" stroke-width="2"/>
<path d="M354,332z" fill="none" stroke="#ff0000" stroke-width="2"/>
<path d="M355,332v 1" fill="none" stroke="#ff0000" stroke-width="2"/>
<path d="M355,333v 1" fill="none" stroke="#ff0000" stroke-width="2"/>
<path d="M356,334z" fill="none" stroke="#ff0000" stroke-width="2"/>
<path d="M357,334z" fill="none" stroke="#ff0000" stroke-width="2"/>
<path d="M358,334z" fill="none" stroke="#ff0000" stroke-width="2"/>
<path d="M359,334z" fill="none" stroke="#ff0000" stroke-width="2"/>
<path d="M359,334v 1" fill="none" stroke="#ff0000" stroke-width="2"/>
<path d="M360,335z" fill="none" stroke="#ff0000" stroke-width="2"/>
<path d="M361,335v 1" fill="none" stroke="#ff0000" stroke-width="2"/>
<path d="M362,336z" fill="none" stroke="#ff0000" stroke-width="2"/>
<path d="M363,336v 1" fill="none" stroke="#ff0000" stroke-width="2"/>
<path d="M364,337z" fill="none" stroke="#ff0000" stroke-width="2"/>
<path d="M364,337z" fill="none" stroke="#ff0000" stroke-width="2"/>
<path d="M365,337v 1" fill="none" stroke="#ff0000" stroke-width="2"/>
<path d="M366,338z" fill="none" stroke="#ff0000" stroke-width="2"/>
<path d="M367,338z" fill="none" stroke="#ff0000" stroke-width="2"/>
<path d="M368,338v 1" fill="none" stroke="#ff0000" stroke-width="2"/>
<path d="M368,339z" fill="none" stroke="#ff0000" stroke-width="2"/>
<path d="M369,339z" fill="none" stroke="#ff0000" stroke-width="2"/>
<path d="M370,339z" fill="none" stroke="#ff0000" stroke-width="2"/>
<path d="M371,339" fill="none" stroke="#ff0000" stroke-width="2"/>
<path d="M372,339z" fill="none" stroke="#ff0000" stroke-width="2"/>
<path d="M372,339z" fill="none" stroke="#ff0000" stroke-width="2"/>
<path d="M373,339v 1" fill="none" stroke="#ff0000" stroke-width="2"/>
<path d="M374,340z" fill="none" stroke="#ff0000" stroke-width="2"/>
<path d="M375,340z" fill="none" stroke="#ff0000" stroke-width="2"/>
<path d="M376,340z" fill="none" stroke="#ff0000" stroke-width="2"/>
<path d="M377,340z" fill="none" stroke="#ff0000" stroke-width="2"/>
<path d="M377,340v 1" fill="none" stroke="#ff0000" stroke-width="2"/>
<path d="M378,341z" fill="none" stroke="#ff0000" stroke-width="2"/>
<path d="M379,341z" fill="none" stroke="#ff0000" stroke-width="2"/>
<path d="M380,341z" fill="none" stroke="#ff0000" stroke-width="2"/>
<path d="M381,341v 1" fill="none" stroke="#ff0000" stroke-width="2"/>
<path d="M381,342z" fill="none" stroke="#ff0000" stroke-width="2"/>
<path d="M382,342z" fill="none" stroke="#ff0000" stroke-width="2"/>
<path d="M383,342z" fill="none" stroke="#ff0000" stroke-width="2"/>
<path d="M384,342z" fill="none" stroke="#ff0000" stroke-width="2"/>
<path d="M385,342z" fill="none" stroke="#ff0000" stroke-width="2"/>
<path d="M386,342v 1" fill="none" stroke="#ff0000" stroke-width="2"/>
<path d="M386,343z" fill="none" stroke="#ff0000" stroke-width="2"/>
<path d="M387,343z" fill="none" stroke="#ff0000" stroke-width="2"/>
<path d="M388,343z" fill="none" stroke="#ff0000" stroke-width="2"/>
<path d="M389,343z" fill="none" stroke="#ff0000" stroke-width="2"/>
<path d="M390,343z" fill="none" stroke="#ff0000" stroke-width="2"/>
<path d="M390,343z" fill="none" stroke="#ff0000" stroke-width="2"/>
<path d="M391,343z" fill="none" stroke="#ff0000" stroke-width="2"/>
<path d="M392,343" fill="none" stroke="#ff0000" stroke-width="2"/>
<path d="M393,343z" fill="none" stroke="#ff0000" stroke-width="2"/>
<path d="M394,343z" fill="none" stroke="#ff0000" stroke-width="2"/>
<path d="M394,343z" fill="none" stroke="#ff0000" stroke-width="2"/>
<path d="M395,343z" fill="none" stroke="#ff0000" stroke-width="2"/>
<path d="M396,343z" fill="none" stroke="#ff0000" stroke-width="2"/>
<path d="M397,343z" fill="none" stroke="#ff0000" stroke-width="2"/>
<path d="M398,343z" fill="none" stroke="#ff0000" stroke-width="2"/>
<path d="M399,343z" fill="none" stroke="#ff0000" stroke-width="2"/>
<path d="M399,343v 1" fill="none" stroke="#ff0000" stroke-width="2"/>
<path d="M400,344z" fill="none" stroke="#ff0000" stroke-width="2"/>
<path d="M401,344z" fill="none" stroke="#ff0000" stroke-width="2"/>
<path d="M402,344z" fill="none" stroke="#ff0000" stroke-width="2"/>
<path d="M403,344z" fill="none" stroke="#ff0000" stroke-width="2"/>
<path d="M403,344z" fill="none" stroke="#ff0000" stroke-width="2"/>
<path d="M404,344z" fill="none" stroke="#ff0000" stroke-width="2"/>
<path d="M405,344z" fill="none" stroke="#ff0000" stroke-width="2"/>
<path d="M406,344z" fill="none" stroke="#ff0000" stroke-width="2"/>
<path d="M407,344z" fill="none" stroke="#ff0000" stroke-width="2"/>
<path d="M408,344z" fill="none" stroke="#ff0000" stroke-width="2"/>
<path d="M408,344z" fill="none" stroke="#ff0000" stroke-width="2"/>
<path d="M409,344z" fill="none" stroke="#ff0000" stroke-width="2"/>
<path d="M410,344z" fill="none" stroke="#ff0000" stroke-width="2"/>
<path d="M411,344v 1" fill="none" stroke="#ff0000" stroke-width="2"/>
<path d="M412,345z" fill="none" stroke="#ff0000" stroke-width="2"/>
<path d="M412,345z" fill="none" stroke="#ff0000" stroke-width="2"/>
<path d="M413,345z" fill="none" stroke="#ff0000" stroke-width="2"/>
<path d="M414,345z" fill="none" stroke="#ff0000" stroke-width="2"/>
<path d="M415,345z" fill="none" stroke="#ff0000" stroke-width="2"/>
<path d="M416,345z" fill="none" stroke="#ff0000" stroke-width="2"/>
<path d="M416,345z" fill="none" stroke="#ff0000" stroke-width="2"/>
<path d="M417,345z" fill="none" stroke="#ff0000" stroke-width="2"/>
<path d="M418,345z" fill="none" stroke="#ff0000" stroke-width="2"/>
<path d="M419,345z" fill="none" stroke="#ff0000" stroke-width="2"/>
<path d="M420,345z" fill="none" stroke="#ff0000" stroke-width="2"/>
<path d="M421,345z" fill="none" stroke="#ff0000" stroke-width="2"/>
<path d="M421,345z" fill="none" stroke="#ff0000" stroke-width="2"/>
<path d="M422,345z" fill="none" stroke="#ff0000" stroke-width="2"/>
<path d="M423,345z" fill="none" stroke="#ff0000" stroke-width="2"/>
<path d="M424,345z" fill="none" stroke="#ff0000" stroke-width="2"/>
<path d="M425,345z" fill="none" stroke="#ff0000" stroke-width="2"/>
<path d="M425,345z" fill="none" stroke="#ff0000" stroke-width="2"/>
<path d="M426,345z" fill="none" stroke="#ff0000" stroke-width="2"/>
<path d="M427,345z" fill="none" stroke="#ff0000" stroke-width="2"/>
<path d="M428,345z" fill="none" stroke="#ff0000" stroke-width="2"/>
<path d="M429,345z" fill="none" stroke="#ff0000" stroke-width="2"/>
<path d="M430,345z" fill="none" stroke="#ff0000" stroke-width="2"/>
<path d="M430,345z" fill="none" stroke="#ff0000" stroke-width="2"/>
<path d="M431,345z" fill="none" stroke="#ff0000" stroke-width="2"/>
<path d="M432,345z" fill="none" stroke="#ff0000" stroke-width="2"/>
<path d="M433,345z" fill="none" stroke="#ff0000" stroke-width="2"/>
<path d="M434,345z" fill="none" stroke="#ff0000" stroke-width="2"/>
<path d="M284,113l 1, 6v 9l 1, 7l 1, 7l 1, 8l 1, 6v 6l 1, 6l 1, 6l 1, 5l 1, 6v 5l 1, 5l 1, 5l 1, 4l 1, 5l 1, 4v 4l 1, 4l 1, 4l 1, 4l 1, 4v 4l 1, 4l 1, 3l 1, 3l 1, 4l 1, 3v 2l 1, 4l 1, 2l 1, 2l 1, 3v 2l 1, 3l 1, 2l 1, 3l 1, 2v 3l 1, 1l 1, 3l 1, 1l 1,
 3l 1, 1v 2l 1, 2l 1, 1l 1, 2l 1, 1v 2l 1, 2l 1, 1l 1, 1l 1, 1l 1, 2l 1, 2l 1, 1l 1, 2h 1v 1l 1, 1l 1, 2h 1l 1, 1v 1l 1, 1l 1, 1h 1l 1, 1l 1, 1v 1l 1, 1l 1, 1h 2v 1l 1, 1h 1l 1, 1l 1, 1h 1l 1, 1h 1l 1, 1h 1v 1l 1, 1h 3l 1, 1h 1l 1, 1h 1l 1, 1h 1l 1,
 1h 2v 1h 5l 1, 1h 3l 1, 1h 3v 1h 5v 1h 13l 1, 1h 11l 1, 1h 22" fill="none" stroke="#ff0000" stroke-width="2"/>
<rect x="351" y="25" width="205" height="108" fill="white"/>
<path d="M351,133h 205" fill="none" stroke="black"/>
<path d="M556,133v -108" fill="none" stroke="black"/>
<path d="M556,25h -205" fill="none" stroke="black"/>
<path d="M351,25v 108" fill="none" stroke="black"/>
<text x="362" y="38" fill="black" font-size="15" font-family="Helvetica">
Entries 
</text>
<text x="504" y="38" fill="black" font-size="15" font-family="Helvetica">
 5186
</text>
<text x="376" y="58" fill="black" font-size="15" font-family="Helvetica">
 / ndf 
</text>
<text x="370" y="46" fill="black" font-size="10" font-family="Helvetica">
2
</text>
<text x="362" y="58" fill="black" font-size="15" font-family="Times">
&#0967;
</text>
<text x="450" y="56" fill="black" font-size="15" font-family="Helvetica">
 768.3 / 1243
</text>
<text x="384" y="70" fill="black" font-size="15" font-family="Helvetica">
   
</text>
<text x="373" y="80" fill="black" font-size="10" font-family="Helvetica">
cu
</text>
<text x="362" y="70" fill="black" font-size="15" font-family="Helvetica">
N
</text>
<text x="518" y="75" fill="black" font-size="15" font-family="Helvetica">
 1.5
</text>
<text x="506" y="75" fill="black" font-size="15" font-family="Times">
&#0177;
</text>
<text x="470" y="75" fill="black" font-size="15" font-family="Helvetica">
     1 
</text>
<text x="378" y="90" fill="black" font-size="15" font-family="Helvetica">
 
</text>
<text x="367" y="101" fill="black" font-size="10" font-family="Helvetica">
cu
</text>
<text x="362" y="90" fill="black" font-size="15" font-family="Times">
&#0964;
</text>
<text x="518" y="94" fill="black" font-size="15" font-family="Helvetica">
 2.0
</text>
<text x="506" y="94" fill="black" font-size="15" font-family="Times">
&#0177;
</text>
<text x="456" y="94" fill="black" font-size="15" font-family="Helvetica">
 162.5 
</text>
<text x="376" y="106" fill="black" font-size="15" font-family="Helvetica">
    
</text>
<text x="373" y="116" fill="black" font-size="10" font-family="Helvetica">
f
</text>
<text x="362" y="106" fill="black" font-size="15" font-family="Helvetica">
N
</text>
<text x="509" y="112" fill="black" font-size="15" font-family="Helvetica">
 0.54
</text>
<text x="497" y="112" fill="black" font-size="15" font-family="Times">
&#0177;
</text>
<text x="447" y="112" fill="black" font-size="15" font-family="Helvetica">
 38.54 
</text>
<text x="370" y="126" fill="black" font-size="15" font-family="Helvetica">
 
</text>
<text x="367" y="137" fill="black" font-size="10" font-family="Helvetica">
f
</text>
<text x="362" y="126" fill="black" font-size="15" font-family="Times">
&#0964;
</text>
<text x="518" y="130" fill="black" font-size="15" font-family="Helvetica">
 0.0
</text>
<text x="506" y="130" fill="black" font-size="15" font-family="Times">
&#0177;
</text>
<text x="456" y="130" fill="black" font-size="15" font-family="Helvetica">
  2197 
</text>
<path d="M57,346h 453" fill="none" stroke="black"/>
<text x="419" y="372" fill="black" font-size="12" font-family="Helvetica">
TDC-TDC0 (ns)
</text>
<path d="M57,337v 9" fill="none" stroke="black"/>
<path d="M68,342v 4" fill="none" stroke="black"/>
<path d="M79,342v 4" fill="none" stroke="black"/>
<path d="M91,342v 4" fill="none" stroke="black"/>
<path d="M102,342v 4" fill="none" stroke="black"/>
<path d="M113,337v 9" fill="none" stroke="black"/>
<path d="M125,342v 4" fill="none" stroke="black"/>
<path d="M136,342v 4" fill="none" stroke="black"/>
<path d="M147,342v 4" fill="none" stroke="black"/>
<path d="M159,342v 4" fill="none" stroke="black"/>
<path d="M170,337v 9" fill="none" stroke="black"/>
<path d="M181,342v 4" fill="none" stroke="black"/>
<path d="M193,342v 4" fill="none" stroke="black"/>
<path d="M204,342v 4" fill="none" stroke="black"/>
<path d="M215,342v 4" fill="none" stroke="black"/>
<path d="M227,337v 9" fill="none" stroke="black"/>
<path d="M238,342v 4" fill="none" stroke="black"/>
<path d="M249,342v 4" fill="none" stroke="black"/>
<path d="M261,342v 4" fill="none" stroke="black"/>
<path d="M272,342v 4" fill="none" stroke="black"/>
<path d="M283,337v 9" fill="none" stroke="black"/>
<path d="M295,342v 4" fill="none" stroke="black"/>
<path d="M306,342v 4" fill="none" stroke="black"/>
<path d="M317,342v 4" fill="none" stroke="black"/>
<path d="M329,342v 4" fill="none" stroke="black"/>
<path d="M340,337v 9" fill="none" stroke="black"/>
<path d="M351,342v 4" fill="none" stroke="black"/>
<path d="M363,342v 4" fill="none" stroke="black"/>
<path d="M374,342v 4" fill="none" stroke="black"/>
<path d="M386,342v 4" fill="none" stroke="black"/>
<path d="M397,337v 9" fill="none" stroke="black"/>
<path d="M408,342v 4" fill="none" stroke="black"/>
<path d="M420,342v 4" fill="none" stroke="black"/>
<path d="M431,342v 4" fill="none" stroke="black"/>
<path d="M442,342v 4" fill="none" stroke="black"/>
<path d="M454,337v 9" fill="none" stroke="black"/>
<path d="M465,342v 4" fill="none" stroke="black"/>
<path d="M476,342v 4" fill="none" stroke="black"/>
<path d="M488,342v 4" fill="none" stroke="black"/>
<path d="M499,342v 4" fill="none" stroke="black"/>
<path d="M510,337v 9" fill="none" stroke="black"/>
<text x="36" y="359" fill="black" font-size="12" font-family="Helvetica">
-20000
</text>
<text x="93" y="359" fill="black" font-size="12" font-family="Helvetica">
-15000
</text>
<text x="149" y="359" fill="black" font-size="12" font-family="Helvetica">
-10000
</text>
<text x="210" y="359" fill="black" font-size="12" font-family="Helvetica">
-5000
</text>
<text x="280" y="359" fill="black" font-size="12" font-family="Helvetica">
0
</text>
<text x="325" y="359" fill="black" font-size="12" font-family="Helvetica">
5000
</text>
<text x="379" y="359" fill="black" font-size="12" font-family="Helvetica">
10000
</text>
<text x="435" y="359" fill="black" font-size="12" font-family="Helvetica">
15000
</text>
<text x="492" y="359" fill="black" font-size="12" font-family="Helvetica">
20000
</text>
<path d="M57,346v -308" fill="none" stroke="black"/>
<g transform="rotate(-90,29,72)">
<text x="29" y="72" fill="black" font-size="12" font-family="Helvetica">
Count
</text>
</g>
<path d="M70,346h -13" fill="none" stroke="black"/>
<path d="M63,334h -6" fill="none" stroke="black"/>
<path d="M63,322h -6" fill="none" stroke="black"/>
<path d="M63,310h -6" fill="none" stroke="black"/>
<path d="M63,298h -6" fill="none" stroke="black"/>
<path d="M70,286h -13" fill="none" stroke="black"/>
<path d="M63,273h -6" fill="none" stroke="black"/>
<path d="M63,261h -6" fill="none" stroke="black"/>
<path d="M63,249h -6" fill="none" stroke="black"/>
<path d="M63,237h -6" fill="none" stroke="black"/>
<path d="M70,225h -13" fill="none" stroke="black"/>
<path d="M63,213h -6" fill="none" stroke="black"/>
<path d="M63,200h -6" fill="none" stroke="black"/>
<path d="M63,188h -6" fill="none" stroke="black"/>
<path d="M63,176h -6" fill="none" stroke="black"/>
<path d="M70,164h -13" fill="none" stroke="black"/>
<path d="M63,152h -6" fill="none" stroke="black"/>
<path d="M63,139h -6" fill="none" stroke="black"/>
<path d="M63,127h -6" fill="none" stroke="black"/>
<path d="M63,115h -6" fill="none" stroke="black"/>
<path d="M70,103h -13" fill="none" stroke="black"/>
<path d="M63,91h -6" fill="none" stroke="black"/>
<path d="M63,79h -6" fill="none" stroke="black"/>
<path d="M63,66h -6" fill="none" stroke="black"/>
<path d="M63,54h -6" fill="none" stroke="black"/>
<path d="M70,42h -13" fill="none" stroke="black"/>
<path d="M70,42h -13" fill="none" stroke="black"/>
<text x="47" y="350" fill="black" font-size="12" font-family="Helvetica">
0
</text>
<text x="40" y="289" fill="black" font-size="12" font-family="Helvetica">
10
</text>
<text x="40" y="229" fill="black" font-size="12" font-family="Helvetica">
20
</text>
<text x="40" y="168" fill="black" font-size="12" font-family="Helvetica">
30
</text>
<text x="40" y="106" fill="black" font-size="12" font-family="Helvetica">
40
</text>
<text x="40" y="45" fill="black" font-size="12" font-family="Helvetica">
50
</text>
<rect x="351" y="25" width="205" height="108" fill="white"/>
<path d="M351,133h 205" fill="none" stroke="black"/>
<path d="M556,133v -108" fill="none" stroke="black"/>
<path d="M556,25h -205" fill="none" stroke="black"/>
<path d="M351,25v 108" fill="none" stroke="black"/>
<text x="362" y="38" fill="black" font-size="15" font-family="Helvetica">
Entries 
</text>
<text x="504" y="38" fill="black" font-size="15" font-family="Helvetica">
 5186
</text>
<text x="376" y="58" fill="black" font-size="15" font-family="Helvetica">
 / ndf 
</text>
<text x="370" y="46" fill="black" font-size="10" font-family="Helvetica">
2
</text>
<text x="362" y="58" fill="black" font-size="15" font-family="Times">
&#0967;
</text>
<text x="450" y="56" fill="black" font-size="15" font-family="Helvetica">
 768.3 / 1243
</text>
<text x="384" y="70" fill="black" font-size="15" font-family="Helvetica">
   
</text>
<text x="373" y="80" fill="black" font-size="10" font-family="Helvetica">
cu
</text>
<text x="362" y="70" fill="black" font-size="15" font-family="Helvetica">
N
</text>
<text x="518" y="75" fill="black" font-size="15" font-family="Helvetica">
 1.5
</text>
<text x="506" y="75" fill="black" font-size="15" font-family="Times">
&#0177;
</text>
<text x="470" y="75" fill="black" font-size="15" font-family="Helvetica">
     1 
</text>
<text x="378" y="90" fill="black" font-size="15" font-family="Helvetica">
 
</text>
<text x="367" y="101" fill="black" font-size="10" font-family="Helvetica">
cu
</text>
<text x="362" y="90" fill="black" font-size="15" font-family="Times">
&#0964;
</text>
<text x="518" y="94" fill="black" font-size="15" font-family="Helvetica">
 2.0
</text>
<text x="506" y="94" fill="black" font-size="15" font-family="Times">
&#0177;
</text>
<text x="456" y="94" fill="black" font-size="15" font-family="Helvetica">
 162.5 
</text>
<text x="376" y="106" fill="black" font-size="15" font-family="Helvetica">
    
</text>
<text x="373" y="116" fill="black" font-size="10" font-family="Helvetica">
f
</text>
<text x="362" y="106" fill="black" font-size="15" font-family="Helvetica">
N
</text>
<text x="509" y="112" fill="black" font-size="15" font-family="Helvetica">
 0.54
</text>
<text x="497" y="112" fill="black" font-size="15" font-family="Times">
&#0177;
</text>
<text x="447" y="112" fill="black" font-size="15" font-family="Helvetica">
 38.54 
</text>
<text x="370" y="126" fill="black" font-size="15" font-family="Helvetica">
 
</text>
<text x="367" y="137" fill="black" font-size="10" font-family="Helvetica">
f
</text>
<text x="362" y="126" fill="black" font-size="15" font-family="Times">
&#0964;
</text>
<text x="518" y="130" fill="black" font-size="15" font-family="Helvetica">
 0.0
</text>
<text x="506" y="130" fill="black" font-size="15" font-family="Times">
&#0177;
</text>
<text x="456" y="130" fill="black" font-size="15" font-family="Helvetica">
  2197 
</text>
<text x="186" y="21" fill="black" font-size="21" font-family="Helvetica">
combined_Air_5mm
</text></svg>
