<?xml version="1.0" standalone="no"?>
<svg width="567" height="385" viewBox="0 0 567 385" xmlns="http://www.w3.org/2000/svg">
<title>
images/analysis/Aluminium_1mm_combined_Aluminium_1mm.svg
</title>
<desc>
Creator: ROOT Version 5.34/05
CreationDate: Thu Jun  6 22:44:54 2013</desc>
<defs>
</defs>
<rect x="0" y="0" width="567" height="385" fill="white"/>
<rect x="57" y="38" width="453" height="308" fill="white"/>
<rect x="57" y="38" width="453" height="308" fill="none" stroke="black"/>
<rect x="57" y="38" width="453" height="308" fill="white"/>
<rect x="57" y="38" width="453" height="308" fill="none" stroke="black"/>
<path d="M57,346h 227v -257v 40h 1v 69v -62v 108h 1v -191v 198v -96h 1v 57v -31v 6v -45v 32v -2h 1v 33v -83v 70v -38h 1v 26v -13v 45h 1v -64v 71v -7h 1v -44v 69v -44v 5h 1v -63v 84v -20h 1v 12v -5v 44v -83h 1v 58v -45v 44v -38h 1v 71v -38v 25v -51h
 1v 13v -14v 38v -12h 1v 39v -71v 65h 1v -39v 45v -71v 1h 1v 32v -26v 90v -117h 1v 142v -83v 44v -37h 1v 38v -26h 1v 20v -7v 19v -32h 1v 45v -7v 13v -51v 51v -70h 1v 19v -7v 39v -32h 1v 32v -51v 64h 1v -27v 27v -57h 1v 57v -70v 43v -24v 19h 1v 31v
 -31h 1v -13v 51v -31v 18v -38h 1v 32v -12v 31v -51v 6h 1v 44v -50v 32h 1v 7v -19v 19v -32v 13h 1v 36v -30v 32h 1v -32v 19v -33h 1v 51v -50h 1v 76v -57v 13v -19v 32h 1v -7v 13v -45v 32h 1v 13v -13v 26h 1v -38v 25h 1v 7v -20v 25v -19v 7h 1v 7v -1v 6v
 -25h 1v 13v -6v 13v -14v 26v -32h 1v 7v -7v 26h 1v -38v 38v -6v 5v -18h 1v 25v -38h 1v 38v -19v 19v -38h 1v 32v -26v 20h 1v -7v 19v -25v 13h 1v -7v 19v -25h 1v 13v -32v 44v -6h 1v -7v 1v -20h 1v 32v -19v 19v -12h 1v 6v -13v 19v -25h 1v 19v -7v 20h
 1v -26v 19h 1v -12v 25v -13h 1v -19v 32v -19h 1v -26v 51v -6h 1v -32v 13h 1v 6v -32v 45h 1v -45v 39v -13h 1v 13v -20v 26v -13h 1v -6v 13v -32v 25h 1v -14v 33v -19v 7h 1v -13v 25v -19h 1v 7v -19v 19v -8v 8h 1v -13v 13h 1v -1v 6v -18v 6h 1v -19v 26v
 -7h 1v 19v -19v 19v -6h 1v -6v 6v -13v 13h 1v -19v 25v -19h 1v -7v 20v -19v 25h 1v -19v 7v -13v 25h 1v -25v 13h 1v -1v 13v -19h 1v 7v -7v 19v -26v 7h 1v -6v 25h 1v -12v 12v -12v 12h 1v -19v 19v -12h 1v 12v -6v 6v -12h 1v 12h 1v -6v 6v -6v 6h 1v -19v
 13v -13h 1v 13v -13v 19h 1v -6v 6v -12v 12h 1v -6v 6v -12v 12v -6h 1v -13v 13h 1v 6v -6v 6v -6v 6v -6h 1v 6v -6v 6v -19h 1v 19v -6v 6v -6v 6v -6h 1v 6v -19v 19h 1v -12v 12v -6h 1v -6v 12v -25h 1v 25v -12v 12v -12h 1v 12v -6v 6v -12v 6h 1v 6v -6v 6h
 1v -6v 6v -7h 1v 7v -6v 6h 1v -6v 6v -6h 1v 6v -12v 12v -19v 13h 1v 6v -12v 12v -6h 1v 6v -13v 13h 1v -6v 6h 1v -6v 6v -6v 6h 1v -6v 6v -6v 6h 3v -6v 6v -12v 12h 1v -7v 7v -6h 1v 6h 1v -6v 6v -6v 6h 1v -6v 6v -12v 12h 1v -6v 6h 1v -6v 6h 1v -6v 6h
 2v -6v 6v -6v 6h 2v -6h 1v 6h 1v -6v 6h 4v -6v 6h 1v -6v 6v -6v 6h 1v -12v 12h 1v -6v 6h 2v -6v 6h 1v -6v 6h 1v -6v 6h 2v -12v 12h 1v -6v 6h 1v -6v 6h 1v -12h 1v 12h 1v -6v 6h 1v -6v 6h 1v -6v 6h 3v -6v 6h 4v -6v 6v -6v 6h 1v -6v 6v -6h 1v 6h 1v -6v
 6h 7v -6v 6h 3v -6v 6h 1v -6h 1v 6v -6v 6v -6h 1v 6v -6v 6h 1v -6v 6h 3v -6h 1v 6v -6v 6h 4v -6v 6h 56" fill="none" stroke="#000099"/>
<path d="M284,142v 3" fill="none" stroke="#ff0000" stroke-width="2"/>
<path d="M285,145v 7" fill="none" stroke="#ff0000" stroke-width="2"/>
<path d="M285,153v 6" fill="none" stroke="#ff0000" stroke-width="2"/>
<path d="M286,159v 7" fill="none" stroke="#ff0000" stroke-width="2"/>
<path d="M287,166v 6" fill="none" stroke="#ff0000" stroke-width="2"/>
<path d="M288,172v 6" fill="none" stroke="#ff0000" stroke-width="2"/>
<path d="M289,178v 6" fill="none" stroke="#ff0000" stroke-width="2"/>
<path d="M289,184v 5" fill="none" stroke="#ff0000" stroke-width="2"/>
<path d="M290,189v 5" fill="none" stroke="#ff0000" stroke-width="2"/>
<path d="M291,194v 5" fill="none" stroke="#ff0000" stroke-width="2"/>
<path d="M292,199v 4" fill="none" stroke="#ff0000" stroke-width="2"/>
<path d="M293,204v 4" fill="none" stroke="#ff0000" stroke-width="2"/>
<path d="M293,208v 4" fill="none" stroke="#ff0000" stroke-width="2"/>
<path d="M294,213v 4" fill="none" stroke="#ff0000" stroke-width="2"/>
<path d="M295,217v 4" fill="none" stroke="#ff0000" stroke-width="2"/>
<path d="M296,221v 4" fill="none" stroke="#ff0000" stroke-width="2"/>
<path d="M297,225v 4" fill="none" stroke="#ff0000" stroke-width="2"/>
<path d="M298,229v 4" fill="none" stroke="#ff0000" stroke-width="2"/>
<path d="M298,233v 4" fill="none" stroke="#ff0000" stroke-width="2"/>
<path d="M299,237v 3" fill="none" stroke="#ff0000" stroke-width="2"/>
<path d="M300,240v 3" fill="none" stroke="#ff0000" stroke-width="2"/>
<path d="M301,243v 4" fill="none" stroke="#ff0000" stroke-width="2"/>
<path d="M302,247v 3" fill="none" stroke="#ff0000" stroke-width="2"/>
<path d="M302,250v 3" fill="none" stroke="#ff0000" stroke-width="2"/>
<path d="M303,253v 3" fill="none" stroke="#ff0000" stroke-width="2"/>
<path d="M304,256v 3" fill="none" stroke="#ff0000" stroke-width="2"/>
<path d="M305,259v 3" fill="none" stroke="#ff0000" stroke-width="2"/>
<path d="M306,262v 2" fill="none" stroke="#ff0000" stroke-width="2"/>
<path d="M307,264v 3" fill="none" stroke="#ff0000" stroke-width="2"/>
<path d="M307,267v 2" fill="none" stroke="#ff0000" stroke-width="2"/>
<path d="M308,269v 3" fill="none" stroke="#ff0000" stroke-width="2"/>
<path d="M309,272v 2" fill="none" stroke="#ff0000" stroke-width="2"/>
<path d="M310,274v 3" fill="none" stroke="#ff0000" stroke-width="2"/>
<path d="M311,277v 2" fill="none" stroke="#ff0000" stroke-width="2"/>
<path d="M311,279v 2" fill="none" stroke="#ff0000" stroke-width="2"/>
<path d="M312,282v 1" fill="none" stroke="#ff0000" stroke-width="2"/>
<path d="M313,283v 2" fill="none" stroke="#ff0000" stroke-width="2"/>
<path d="M314,286v 1" fill="none" stroke="#ff0000" stroke-width="2"/>
<path d="M315,287v 2" fill="none" stroke="#ff0000" stroke-width="2"/>
<path d="M315,289v 2" fill="none" stroke="#ff0000" stroke-width="2"/>
<path d="M316,291v 2" fill="none" stroke="#ff0000" stroke-width="2"/>
<path d="M317,293v 2" fill="none" stroke="#ff0000" stroke-width="2"/>
<path d="M318,295v 1" fill="none" stroke="#ff0000" stroke-width="2"/>
<path d="M319,296v 2" fill="none" stroke="#ff0000" stroke-width="2"/>
<path d="M320,298v 1" fill="none" stroke="#ff0000" stroke-width="2"/>
<path d="M320,299v 2" fill="none" stroke="#ff0000" stroke-width="2"/>
<path d="M321,301v 1" fill="none" stroke="#ff0000" stroke-width="2"/>
<path d="M322,302v 2" fill="none" stroke="#ff0000" stroke-width="2"/>
<path d="M323,304v 1" fill="none" stroke="#ff0000" stroke-width="2"/>
<path d="M324,305v 1" fill="none" stroke="#ff0000" stroke-width="2"/>
<path d="M324,306v 2" fill="none" stroke="#ff0000" stroke-width="2"/>
<path d="M325,308" fill="none" stroke="#ff0000" stroke-width="2"/>
<path d="M326,308v 2" fill="none" stroke="#ff0000" stroke-width="2"/>
<path d="M327,310v 1" fill="none" stroke="#ff0000" stroke-width="2"/>
<path d="M328,311v 2" fill="none" stroke="#ff0000" stroke-width="2"/>
<path d="M329,313" fill="none" stroke="#ff0000" stroke-width="2"/>
<path d="M329,313v 1" fill="none" stroke="#ff0000" stroke-width="2"/>
<path d="M330,314v 2" fill="none" stroke="#ff0000" stroke-width="2"/>
<path d="M331,316v 1" fill="none" stroke="#ff0000" stroke-width="2"/>
<path d="M332,317" fill="none" stroke="#ff0000" stroke-width="2"/>
<path d="M333,317v 1" fill="none" stroke="#ff0000" stroke-width="2"/>
<path d="M333,318v 1" fill="none" stroke="#ff0000" stroke-width="2"/>
<path d="M334,319v 1" fill="none" stroke="#ff0000" stroke-width="2"/>
<path d="M335,320v 1" fill="none" stroke="#ff0000" stroke-width="2"/>
<path d="M336,321" fill="none" stroke="#ff0000" stroke-width="2"/>
<path d="M337,321v 1" fill="none" stroke="#ff0000" stroke-width="2"/>
<path d="M337,322v 1" fill="none" stroke="#ff0000" stroke-width="2"/>
<path d="M338,323v 1" fill="none" stroke="#ff0000" stroke-width="2"/>
<path d="M339,324v 1" fill="none" stroke="#ff0000" stroke-width="2"/>
<path d="M340,325v 1" fill="none" stroke="#ff0000" stroke-width="2"/>
<path d="M341,326" fill="none" stroke="#ff0000" stroke-width="2"/>
<path d="M342,326z" fill="none" stroke="#ff0000" stroke-width="2"/>
<path d="M342,326v 1" fill="none" stroke="#ff0000" stroke-width="2"/>
<path d="M343,327v 1" fill="none" stroke="#ff0000" stroke-width="2"/>
<path d="M344,328v 1" fill="none" stroke="#ff0000" stroke-width="2"/>
<path d="M345,329z" fill="none" stroke="#ff0000" stroke-width="2"/>
<path d="M346,329v 1" fill="none" stroke="#ff0000" stroke-width="2"/>
<path d="M346,330" fill="none" stroke="#ff0000" stroke-width="2"/>
<path d="M347,330z" fill="none" stroke="#ff0000" stroke-width="2"/>
<path d="M348,330v 1" fill="none" stroke="#ff0000" stroke-width="2"/>
<path d="M349,331z" fill="none" stroke="#ff0000" stroke-width="2"/>
<path d="M350,332z" fill="none" stroke="#ff0000" stroke-width="2"/>
<path d="M351,332v 1" fill="none" stroke="#ff0000" stroke-width="2"/>
<path d="M351,333z" fill="none" stroke="#ff0000" stroke-width="2"/>
<path d="M352,333v 1" fill="none" stroke="#ff0000" stroke-width="2"/>
<path d="M353,334z" fill="none" stroke="#ff0000" stroke-width="2"/>
<path d="M354,334" fill="none" stroke="#ff0000" stroke-width="2"/>
<path d="M355,334z" fill="none" stroke="#ff0000" stroke-width="2"/>
<path d="M355,334v 1" fill="none" stroke="#ff0000" stroke-width="2"/>
<path d="M356,335z" fill="none" stroke="#ff0000" stroke-width="2"/>
<path d="M357,335z" fill="none" stroke="#ff0000" stroke-width="2"/>
<path d="M358,335v 1" fill="none" stroke="#ff0000" stroke-width="2"/>
<path d="M359,336z" fill="none" stroke="#ff0000" stroke-width="2"/>
<path d="M359,336v 1" fill="none" stroke="#ff0000" stroke-width="2"/>
<path d="M360,337z" fill="none" stroke="#ff0000" stroke-width="2"/>
<path d="M361,337z" fill="none" stroke="#ff0000" stroke-width="2"/>
<path d="M362,337v 1" fill="none" stroke="#ff0000" stroke-width="2"/>
<path d="M363,338z" fill="none" stroke="#ff0000" stroke-width="2"/>
<path d="M364,338z" fill="none" stroke="#ff0000" stroke-width="2"/>
<path d="M364,338v 1" fill="none" stroke="#ff0000" stroke-width="2"/>
<path d="M365,339z" fill="none" stroke="#ff0000" stroke-width="2"/>
<path d="M366,339z" fill="none" stroke="#ff0000" stroke-width="2"/>
<path d="M367,339" fill="none" stroke="#ff0000" stroke-width="2"/>
<path d="M368,339z" fill="none" stroke="#ff0000" stroke-width="2"/>
<path d="M368,339z" fill="none" stroke="#ff0000" stroke-width="2"/>
<path d="M369,339z" fill="none" stroke="#ff0000" stroke-width="2"/>
<path d="M370,339v 1" fill="none" stroke="#ff0000" stroke-width="2"/>
<path d="M371,340z" fill="none" stroke="#ff0000" stroke-width="2"/>
<path d="M372,340z" fill="none" stroke="#ff0000" stroke-width="2"/>
<path d="M372,340z" fill="none" stroke="#ff0000" stroke-width="2"/>
<path d="M373,340v 1" fill="none" stroke="#ff0000" stroke-width="2"/>
<path d="M374,341z" fill="none" stroke="#ff0000" stroke-width="2"/>
<path d="M375,341z" fill="none" stroke="#ff0000" stroke-width="2"/>
<path d="M376,341z" fill="none" stroke="#ff0000" stroke-width="2"/>
<path d="M377,341z" fill="none" stroke="#ff0000" stroke-width="2"/>
<path d="M377,341v 1" fill="none" stroke="#ff0000" stroke-width="2"/>
<path d="M378,342z" fill="none" stroke="#ff0000" stroke-width="2"/>
<path d="M379,342z" fill="none" stroke="#ff0000" stroke-width="2"/>
<path d="M380,342z" fill="none" stroke="#ff0000" stroke-width="2"/>
<path d="M381,342z" fill="none" stroke="#ff0000" stroke-width="2"/>
<path d="M381,342z" fill="none" stroke="#ff0000" stroke-width="2"/>
<path d="M382,342v 1" fill="none" stroke="#ff0000" stroke-width="2"/>
<path d="M383,343z" fill="none" stroke="#ff0000" stroke-width="2"/>
<path d="M384,343z" fill="none" stroke="#ff0000" stroke-width="2"/>
<path d="M385,343z" fill="none" stroke="#ff0000" stroke-width="2"/>
<path d="M386,343z" fill="none" stroke="#ff0000" stroke-width="2"/>
<path d="M386,343z" fill="none" stroke="#ff0000" stroke-width="2"/>
<path d="M387,343z" fill="none" stroke="#ff0000" stroke-width="2"/>
<path d="M388,343" fill="none" stroke="#ff0000" stroke-width="2"/>
<path d="M389,343z" fill="none" stroke="#ff0000" stroke-width="2"/>
<path d="M390,343z" fill="none" stroke="#ff0000" stroke-width="2"/>
<path d="M390,343z" fill="none" stroke="#ff0000" stroke-width="2"/>
<path d="M391,343z" fill="none" stroke="#ff0000" stroke-width="2"/>
<path d="M392,343z" fill="none" stroke="#ff0000" stroke-width="2"/>
<path d="M393,343z" fill="none" stroke="#ff0000" stroke-width="2"/>
<path d="M394,343z" fill="none" stroke="#ff0000" stroke-width="2"/>
<path d="M394,343z" fill="none" stroke="#ff0000" stroke-width="2"/>
<path d="M395,343z" fill="none" stroke="#ff0000" stroke-width="2"/>
<path d="M396,343v 1" fill="none" stroke="#ff0000" stroke-width="2"/>
<path d="M397,344z" fill="none" stroke="#ff0000" stroke-width="2"/>
<path d="M398,344z" fill="none" stroke="#ff0000" stroke-width="2"/>
<path d="M399,344z" fill="none" stroke="#ff0000" stroke-width="2"/>
<path d="M399,344z" fill="none" stroke="#ff0000" stroke-width="2"/>
<path d="M400,344z" fill="none" stroke="#ff0000" stroke-width="2"/>
<path d="M401,344z" fill="none" stroke="#ff0000" stroke-width="2"/>
<path d="M402,344z" fill="none" stroke="#ff0000" stroke-width="2"/>
<path d="M403,344z" fill="none" stroke="#ff0000" stroke-width="2"/>
<path d="M403,344z" fill="none" stroke="#ff0000" stroke-width="2"/>
<path d="M404,344z" fill="none" stroke="#ff0000" stroke-width="2"/>
<path d="M405,344z" fill="none" stroke="#ff0000" stroke-width="2"/>
<path d="M406,344z" fill="none" stroke="#ff0000" stroke-width="2"/>
<path d="M407,344z" fill="none" stroke="#ff0000" stroke-width="2"/>
<path d="M408,344v 1" fill="none" stroke="#ff0000" stroke-width="2"/>
<path d="M408,345z" fill="none" stroke="#ff0000" stroke-width="2"/>
<path d="M409,345z" fill="none" stroke="#ff0000" stroke-width="2"/>
<path d="M410,345z" fill="none" stroke="#ff0000" stroke-width="2"/>
<path d="M411,345z" fill="none" stroke="#ff0000" stroke-width="2"/>
<path d="M412,345z" fill="none" stroke="#ff0000" stroke-width="2"/>
<path d="M412,345z" fill="none" stroke="#ff0000" stroke-width="2"/>
<path d="M413,345z" fill="none" stroke="#ff0000" stroke-width="2"/>
<path d="M414,345z" fill="none" stroke="#ff0000" stroke-width="2"/>
<path d="M415,345z" fill="none" stroke="#ff0000" stroke-width="2"/>
<path d="M416,345z" fill="none" stroke="#ff0000" stroke-width="2"/>
<path d="M416,345z" fill="none" stroke="#ff0000" stroke-width="2"/>
<path d="M417,345z" fill="none" stroke="#ff0000" stroke-width="2"/>
<path d="M418,345z" fill="none" stroke="#ff0000" stroke-width="2"/>
<path d="M419,345z" fill="none" stroke="#ff0000" stroke-width="2"/>
<path d="M420,345z" fill="none" stroke="#ff0000" stroke-width="2"/>
<path d="M421,345z" fill="none" stroke="#ff0000" stroke-width="2"/>
<path d="M421,345z" fill="none" stroke="#ff0000" stroke-width="2"/>
<path d="M422,345z" fill="none" stroke="#ff0000" stroke-width="2"/>
<path d="M423,345z" fill="none" stroke="#ff0000" stroke-width="2"/>
<path d="M424,345z" fill="none" stroke="#ff0000" stroke-width="2"/>
<path d="M425,345z" fill="none" stroke="#ff0000" stroke-width="2"/>
<path d="M425,345z" fill="none" stroke="#ff0000" stroke-width="2"/>
<path d="M426,345z" fill="none" stroke="#ff0000" stroke-width="2"/>
<path d="M427,345z" fill="none" stroke="#ff0000" stroke-width="2"/>
<path d="M428,345z" fill="none" stroke="#ff0000" stroke-width="2"/>
<path d="M429,345z" fill="none" stroke="#ff0000" stroke-width="2"/>
<path d="M430,345z" fill="none" stroke="#ff0000" stroke-width="2"/>
<path d="M284,143l 1, 5v 8l 1, 7l 1, 6l 1, 6l 1, 6v 5l 1, 5l 1, 6l 1, 4l 1, 5v 4l 1, 5l 1, 4l 1, 4l 1, 4l 1, 4v 3l 1, 4l 1, 4l 1, 3l 1, 3v 3l 1, 4l 1, 2l 1, 3l 1, 3l 1, 2v 3l 1, 2l 1, 3l 1, 2l 1, 2v 3l 1, 2l 1, 2l 1, 2l 1, 2v 2l 1, 2l 1, 2l 1, 1l 1,
 2l 1, 2v 1l 1, 1l 1, 2l 1, 1l 1, 1v 2l 1, 1l 1, 1l 1, 1l 1, 2l 1, 1l 1, 2l 1, 1l 1, 1h 1v 1l 1, 1l 1, 1l 1, 1h 1v 1l 1, 1l 1, 1l 1, 1l 1, 1h 1l 1, 1l 1, 1l 1, 1h 1v 1h 2l 1, 1l 1, 1h 1v 1h 1l 1, 1h 2l 1, 1h 2l 1, 1l 1, 1h 2l 1, 1h 1l 1, 1h 5l 1, 1h
 2l 1, 1h 3l 1, 1h 4l 1, 1h 13l 1, 1h 11v 1h 22" fill="none" stroke="#ff0000" stroke-width="2"/>
<rect x="351" y="25" width="205" height="108" fill="white"/>
<path d="M351,133h 205" fill="none" stroke="black"/>
<path d="M556,133v -108" fill="none" stroke="black"/>
<path d="M556,25h -205" fill="none" stroke="black"/>
<path d="M351,25v 108" fill="none" stroke="black"/>
<text x="362" y="38" fill="black" font-size="15" font-family="Helvetica">
Entries 
</text>
<text x="504" y="38" fill="black" font-size="15" font-family="Helvetica">
 4300
</text>
<text x="376" y="58" fill="black" font-size="15" font-family="Helvetica">
 / ndf 
</text>
<text x="370" y="46" fill="black" font-size="10" font-family="Helvetica">
2
</text>
<text x="362" y="58" fill="black" font-size="15" font-family="Times">
&#0967;
</text>
<text x="450" y="56" fill="black" font-size="15" font-family="Helvetica">
 649.5 / 1243
</text>
<text x="384" y="70" fill="black" font-size="15" font-family="Helvetica">
   
</text>
<text x="373" y="80" fill="black" font-size="10" font-family="Helvetica">
cu
</text>
<text x="362" y="70" fill="black" font-size="15" font-family="Helvetica">
N
</text>
<text x="518" y="75" fill="black" font-size="15" font-family="Helvetica">
 2.5
</text>
<text x="506" y="75" fill="black" font-size="15" font-family="Times">
&#0177;
</text>
<text x="470" y="75" fill="black" font-size="15" font-family="Helvetica">
     1 
</text>
<text x="378" y="90" fill="black" font-size="15" font-family="Helvetica">
 
</text>
<text x="367" y="101" fill="black" font-size="10" font-family="Helvetica">
cu
</text>
<text x="362" y="90" fill="black" font-size="15" font-family="Times">
&#0964;
</text>
<text x="518" y="94" fill="black" font-size="15" font-family="Helvetica">
 0.6
</text>
<text x="506" y="94" fill="black" font-size="15" font-family="Times">
&#0177;
</text>
<text x="456" y="94" fill="black" font-size="15" font-family="Helvetica">
 162.8 
</text>
<text x="376" y="106" fill="black" font-size="15" font-family="Helvetica">
    
</text>
<text x="373" y="116" fill="black" font-size="10" font-family="Helvetica">
f
</text>
<text x="362" y="106" fill="black" font-size="15" font-family="Helvetica">
N
</text>
<text x="509" y="112" fill="black" font-size="15" font-family="Helvetica">
 0.49
</text>
<text x="497" y="112" fill="black" font-size="15" font-family="Times">
&#0177;
</text>
<text x="447" y="112" fill="black" font-size="15" font-family="Helvetica">
 31.95 
</text>
<text x="370" y="126" fill="black" font-size="15" font-family="Helvetica">
 
</text>
<text x="367" y="137" fill="black" font-size="10" font-family="Helvetica">
f
</text>
<text x="362" y="126" fill="black" font-size="15" font-family="Times">
&#0964;
</text>
<text x="518" y="130" fill="black" font-size="15" font-family="Helvetica">
 0.0
</text>
<text x="506" y="130" fill="black" font-size="15" font-family="Times">
&#0177;
</text>
<text x="456" y="130" fill="black" font-size="15" font-family="Helvetica">
  2197 
</text>
<path d="M57,346h 453" fill="none" stroke="black"/>
<text x="419" y="372" fill="black" font-size="12" font-family="Helvetica">
TDC-TDC0 (ns)
</text>
<path d="M57,337v 9" fill="none" stroke="black"/>
<path d="M68,342v 4" fill="none" stroke="black"/>
<path d="M79,342v 4" fill="none" stroke="black"/>
<path d="M91,342v 4" fill="none" stroke="black"/>
<path d="M102,342v 4" fill="none" stroke="black"/>
<path d="M113,337v 9" fill="none" stroke="black"/>
<path d="M125,342v 4" fill="none" stroke="black"/>
<path d="M136,342v 4" fill="none" stroke="black"/>
<path d="M147,342v 4" fill="none" stroke="black"/>
<path d="M159,342v 4" fill="none" stroke="black"/>
<path d="M170,337v 9" fill="none" stroke="black"/>
<path d="M181,342v 4" fill="none" stroke="black"/>
<path d="M193,342v 4" fill="none" stroke="black"/>
<path d="M204,342v 4" fill="none" stroke="black"/>
<path d="M215,342v 4" fill="none" stroke="black"/>
<path d="M227,337v 9" fill="none" stroke="black"/>
<path d="M238,342v 4" fill="none" stroke="black"/>
<path d="M249,342v 4" fill="none" stroke="black"/>
<path d="M261,342v 4" fill="none" stroke="black"/>
<path d="M272,342v 4" fill="none" stroke="black"/>
<path d="M283,337v 9" fill="none" stroke="black"/>
<path d="M295,342v 4" fill="none" stroke="black"/>
<path d="M306,342v 4" fill="none" stroke="black"/>
<path d="M317,342v 4" fill="none" stroke="black"/>
<path d="M329,342v 4" fill="none" stroke="black"/>
<path d="M340,337v 9" fill="none" stroke="black"/>
<path d="M351,342v 4" fill="none" stroke="black"/>
<path d="M363,342v 4" fill="none" stroke="black"/>
<path d="M374,342v 4" fill="none" stroke="black"/>
<path d="M386,342v 4" fill="none" stroke="black"/>
<path d="M397,337v 9" fill="none" stroke="black"/>
<path d="M408,342v 4" fill="none" stroke="black"/>
<path d="M420,342v 4" fill="none" stroke="black"/>
<path d="M431,342v 4" fill="none" stroke="black"/>
<path d="M442,342v 4" fill="none" stroke="black"/>
<path d="M454,337v 9" fill="none" stroke="black"/>
<path d="M465,342v 4" fill="none" stroke="black"/>
<path d="M476,342v 4" fill="none" stroke="black"/>
<path d="M488,342v 4" fill="none" stroke="black"/>
<path d="M499,342v 4" fill="none" stroke="black"/>
<path d="M510,337v 9" fill="none" stroke="black"/>
<text x="36" y="359" fill="black" font-size="12" font-family="Helvetica">
-20000
</text>
<text x="93" y="359" fill="black" font-size="12" font-family="Helvetica">
-15000
</text>
<text x="149" y="359" fill="black" font-size="12" font-family="Helvetica">
-10000
</text>
<text x="210" y="359" fill="black" font-size="12" font-family="Helvetica">
-5000
</text>
<text x="280" y="359" fill="black" font-size="12" font-family="Helvetica">
0
</text>
<text x="325" y="359" fill="black" font-size="12" font-family="Helvetica">
5000
</text>
<text x="379" y="359" fill="black" font-size="12" font-family="Helvetica">
10000
</text>
<text x="435" y="359" fill="black" font-size="12" font-family="Helvetica">
15000
</text>
<text x="492" y="359" fill="black" font-size="12" font-family="Helvetica">
20000
</text>
<path d="M57,346v -308" fill="none" stroke="black"/>
<g transform="rotate(-90,29,72)">
<text x="29" y="72" fill="black" font-size="12" font-family="Helvetica">
Count
</text>
</g>
<path d="M70,346h -13" fill="none" stroke="black"/>
<path d="M63,340h -6" fill="none" stroke="black"/>
<path d="M63,334h -6" fill="none" stroke="black"/>
<path d="M63,327h -6" fill="none" stroke="black"/>
<path d="M63,321h -6" fill="none" stroke="black"/>
<path d="M70,315h -13" fill="none" stroke="black"/>
<path d="M63,308h -6" fill="none" stroke="black"/>
<path d="M63,302h -6" fill="none" stroke="black"/>
<path d="M63,295h -6" fill="none" stroke="black"/>
<path d="M63,289h -6" fill="none" stroke="black"/>
<path d="M70,283h -13" fill="none" stroke="black"/>
<path d="M63,276h -6" fill="none" stroke="black"/>
<path d="M63,270h -6" fill="none" stroke="black"/>
<path d="M63,264h -6" fill="none" stroke="black"/>
<path d="M63,257h -6" fill="none" stroke="black"/>
<path d="M70,251h -13" fill="none" stroke="black"/>
<path d="M63,244h -6" fill="none" stroke="black"/>
<path d="M63,238h -6" fill="none" stroke="black"/>
<path d="M63,232h -6" fill="none" stroke="black"/>
<path d="M63,225h -6" fill="none" stroke="black"/>
<path d="M70,219h -13" fill="none" stroke="black"/>
<path d="M63,212h -6" fill="none" stroke="black"/>
<path d="M63,206h -6" fill="none" stroke="black"/>
<path d="M63,200h -6" fill="none" stroke="black"/>
<path d="M63,193h -6" fill="none" stroke="black"/>
<path d="M70,187h -13" fill="none" stroke="black"/>
<path d="M63,181h -6" fill="none" stroke="black"/>
<path d="M63,174h -6" fill="none" stroke="black"/>
<path d="M63,168h -6" fill="none" stroke="black"/>
<path d="M63,161h -6" fill="none" stroke="black"/>
<path d="M70,155h -13" fill="none" stroke="black"/>
<path d="M63,149h -6" fill="none" stroke="black"/>
<path d="M63,142h -6" fill="none" stroke="black"/>
<path d="M63,136h -6" fill="none" stroke="black"/>
<path d="M63,130h -6" fill="none" stroke="black"/>
<path d="M70,123h -13" fill="none" stroke="black"/>
<path d="M63,117h -6" fill="none" stroke="black"/>
<path d="M63,110h -6" fill="none" stroke="black"/>
<path d="M63,104h -6" fill="none" stroke="black"/>
<path d="M63,98h -6" fill="none" stroke="black"/>
<path d="M70,91h -13" fill="none" stroke="black"/>
<path d="M63,85h -6" fill="none" stroke="black"/>
<path d="M63,78h -6" fill="none" stroke="black"/>
<path d="M63,72h -6" fill="none" stroke="black"/>
<path d="M63,66h -6" fill="none" stroke="black"/>
<path d="M70,59h -13" fill="none" stroke="black"/>
<path d="M70,59h -13" fill="none" stroke="black"/>
<path d="M63,53h -6" fill="none" stroke="black"/>
<path d="M63,47h -6" fill="none" stroke="black"/>
<path d="M63,40h -6" fill="none" stroke="black"/>
<text x="47" y="350" fill="black" font-size="12" font-family="Helvetica">
0
</text>
<text x="47" y="318" fill="black" font-size="12" font-family="Helvetica">
5
</text>
<text x="40" y="286" fill="black" font-size="12" font-family="Helvetica">
10
</text>
<text x="40" y="255" fill="black" font-size="12" font-family="Helvetica">
15
</text>
<text x="40" y="223" fill="black" font-size="12" font-family="Helvetica">
20
</text>
<text x="40" y="190" fill="black" font-size="12" font-family="Helvetica">
25
</text>
<text x="40" y="159" fill="black" font-size="12" font-family="Helvetica">
30
</text>
<text x="40" y="127" fill="black" font-size="12" font-family="Helvetica">
35
</text>
<text x="40" y="95" fill="black" font-size="12" font-family="Helvetica">
40
</text>
<text x="40" y="63" fill="black" font-size="12" font-family="Helvetica">
45
</text>
<rect x="351" y="25" width="205" height="108" fill="white"/>
<path d="M351,133h 205" fill="none" stroke="black"/>
<path d="M556,133v -108" fill="none" stroke="black"/>
<path d="M556,25h -205" fill="none" stroke="black"/>
<path d="M351,25v 108" fill="none" stroke="black"/>
<text x="362" y="38" fill="black" font-size="15" font-family="Helvetica">
Entries 
</text>
<text x="504" y="38" fill="black" font-size="15" font-family="Helvetica">
 4300
</text>
<text x="376" y="58" fill="black" font-size="15" font-family="Helvetica">
 / ndf 
</text>
<text x="370" y="46" fill="black" font-size="10" font-family="Helvetica">
2
</text>
<text x="362" y="58" fill="black" font-size="15" font-family="Times">
&#0967;
</text>
<text x="450" y="56" fill="black" font-size="15" font-family="Helvetica">
 649.5 / 1243
</text>
<text x="384" y="70" fill="black" font-size="15" font-family="Helvetica">
   
</text>
<text x="373" y="80" fill="black" font-size="10" font-family="Helvetica">
cu
</text>
<text x="362" y="70" fill="black" font-size="15" font-family="Helvetica">
N
</text>
<text x="518" y="75" fill="black" font-size="15" font-family="Helvetica">
 2.5
</text>
<text x="506" y="75" fill="black" font-size="15" font-family="Times">
&#0177;
</text>
<text x="470" y="75" fill="black" font-size="15" font-family="Helvetica">
     1 
</text>
<text x="378" y="90" fill="black" font-size="15" font-family="Helvetica">
 
</text>
<text x="367" y="101" fill="black" font-size="10" font-family="Helvetica">
cu
</text>
<text x="362" y="90" fill="black" font-size="15" font-family="Times">
&#0964;
</text>
<text x="518" y="94" fill="black" font-size="15" font-family="Helvetica">
 0.6
</text>
<text x="506" y="94" fill="black" font-size="15" font-family="Times">
&#0177;
</text>
<text x="456" y="94" fill="black" font-size="15" font-family="Helvetica">
 162.8 
</text>
<text x="376" y="106" fill="black" font-size="15" font-family="Helvetica">
    
</text>
<text x="373" y="116" fill="black" font-size="10" font-family="Helvetica">
f
</text>
<text x="362" y="106" fill="black" font-size="15" font-family="Helvetica">
N
</text>
<text x="509" y="112" fill="black" font-size="15" font-family="Helvetica">
 0.49
</text>
<text x="497" y="112" fill="black" font-size="15" font-family="Times">
&#0177;
</text>
<text x="447" y="112" fill="black" font-size="15" font-family="Helvetica">
 31.95 
</text>
<text x="370" y="126" fill="black" font-size="15" font-family="Helvetica">
 
</text>
<text x="367" y="137" fill="black" font-size="10" font-family="Helvetica">
f
</text>
<text x="362" y="126" fill="black" font-size="15" font-family="Times">
&#0964;
</text>
<text x="518" y="130" fill="black" font-size="15" font-family="Helvetica">
 0.0
</text>
<text x="506" y="130" fill="black" font-size="15" font-family="Times">
&#0177;
</text>
<text x="456" y="130" fill="black" font-size="15" font-family="Helvetica">
  2197 
</text>
<text x="147" y="21" fill="black" font-size="20" font-family="Helvetica">
combined_Aluminium_1mm
</text></svg>
