<?xml version="1.0" standalone="no"?>
<svg width="567" height="385" viewBox="0 0 567 385" xmlns="http://www.w3.org/2000/svg">
<title>
images/analysis_g4bl_phase_loose_cu/448_D2_zoom.svg
</title>
<desc>
Creator: ROOT Version 5.34/05
CreationDate: Wed Jun 12 17:24:20 2013</desc>
<defs>
</defs>
<rect x="0" y="0" width="567" height="385" fill="white"/>
<rect x="57" y="38" width="453" height="308" fill="white"/>
<rect x="57" y="38" width="453" height="308" fill="none" stroke="black"/>
<rect x="57" y="38" width="453" height="308" fill="white"/>
<rect x="57" y="38" width="453" height="308" fill="none" stroke="black"/>
<path d="M57,283h 17v 15h 18v -4h 17v -28h 17v 28h 18v -4h 17v -7h 18v -12h 17v 19h 18v -5h 17v -30h 18v -1h 17v 26h 17v 66h 35v -109h 18v -184h 17v 44h 18v -16h 17v 72h 18v -4h 17v 7h 17v 3h 18v 11h 17v 15h 18v -36h 17" fill="none"
 stroke="#000099"/>
<rect x="442" y="25" width="114" height="46" fill="white"/>
<path d="M442,71h 114" fill="none" stroke="black"/>
<path d="M556,71v -46" fill="none" stroke="black"/>
<path d="M556,25h -114" fill="none" stroke="black"/>
<path d="M442,25v 46" fill="none" stroke="black"/>
<text x="447" y="53" fill="black" font-size="13" font-family="Helvetica">
Entries 
</text>
<text x="493" y="53" fill="black" font-size="13" font-family="Helvetica">
 2397175
</text>
<path d="M57,346h 453" fill="none" stroke="black"/>
<text x="419" y="372" fill="black" font-size="12" font-family="Helvetica">
TDC-TDC0 (ns)
</text>
<path d="M65,337v 9" fill="none" stroke="black"/>
<path d="M76,342v 4" fill="none" stroke="black"/>
<path d="M87,342v 4" fill="none" stroke="black"/>
<path d="M98,342v 4" fill="none" stroke="black"/>
<path d="M109,342v 4" fill="none" stroke="black"/>
<path d="M120,337v 9" fill="none" stroke="black"/>
<path d="M131,342v 4" fill="none" stroke="black"/>
<path d="M142,342v 4" fill="none" stroke="black"/>
<path d="M153,342v 4" fill="none" stroke="black"/>
<path d="M164,342v 4" fill="none" stroke="black"/>
<path d="M174,337v 9" fill="none" stroke="black"/>
<path d="M185,342v 4" fill="none" stroke="black"/>
<path d="M196,342v 4" fill="none" stroke="black"/>
<path d="M207,342v 4" fill="none" stroke="black"/>
<path d="M218,342v 4" fill="none" stroke="black"/>
<path d="M229,337v 9" fill="none" stroke="black"/>
<path d="M240,342v 4" fill="none" stroke="black"/>
<path d="M251,342v 4" fill="none" stroke="black"/>
<path d="M262,342v 4" fill="none" stroke="black"/>
<path d="M273,342v 4" fill="none" stroke="black"/>
<path d="M283,337v 9" fill="none" stroke="black"/>
<path d="M294,342v 4" fill="none" stroke="black"/>
<path d="M305,342v 4" fill="none" stroke="black"/>
<path d="M316,342v 4" fill="none" stroke="black"/>
<path d="M327,342v 4" fill="none" stroke="black"/>
<path d="M338,337v 9" fill="none" stroke="black"/>
<path d="M349,342v 4" fill="none" stroke="black"/>
<path d="M360,342v 4" fill="none" stroke="black"/>
<path d="M371,342v 4" fill="none" stroke="black"/>
<path d="M382,342v 4" fill="none" stroke="black"/>
<path d="M392,337v 9" fill="none" stroke="black"/>
<path d="M403,342v 4" fill="none" stroke="black"/>
<path d="M414,342v 4" fill="none" stroke="black"/>
<path d="M425,342v 4" fill="none" stroke="black"/>
<path d="M436,342v 4" fill="none" stroke="black"/>
<path d="M447,337v 9" fill="none" stroke="black"/>
<path d="M458,342v 4" fill="none" stroke="black"/>
<path d="M469,342v 4" fill="none" stroke="black"/>
<path d="M480,342v 4" fill="none" stroke="black"/>
<path d="M491,342v 4" fill="none" stroke="black"/>
<path d="M502,337v 9" fill="none" stroke="black"/>
<path d="M65,337v 9" fill="none" stroke="black"/>
<path d="M502,337v 9" fill="none" stroke="black"/>
<text x="52" y="359" fill="black" font-size="12" font-family="Helvetica">
-200
</text>
<text x="107" y="359" fill="black" font-size="12" font-family="Helvetica">
-150
</text>
<text x="161" y="359" fill="black" font-size="12" font-family="Helvetica">
-100
</text>
<text x="219" y="359" fill="black" font-size="12" font-family="Helvetica">
-50
</text>
<text x="280" y="359" fill="black" font-size="12" font-family="Helvetica">
0
</text>
<text x="330" y="359" fill="black" font-size="12" font-family="Helvetica">
50
</text>
<text x="381" y="359" fill="black" font-size="12" font-family="Helvetica">
100
</text>
<text x="436" y="359" fill="black" font-size="12" font-family="Helvetica">
150
</text>
<text x="490" y="359" fill="black" font-size="12" font-family="Helvetica">
200
</text>
<path d="M57,346v -308" fill="none" stroke="black"/>
<g transform="rotate(-90,29,72)">
<text x="29" y="72" fill="black" font-size="12" font-family="Helvetica">
Count
</text>
</g>
<path d="M70,346h -13" fill="none" stroke="black"/>
<path d="M63,334h -6" fill="none" stroke="black"/>
<path d="M63,322h -6" fill="none" stroke="black"/>
<path d="M63,310h -6" fill="none" stroke="black"/>
<path d="M63,298h -6" fill="none" stroke="black"/>
<path d="M70,285h -13" fill="none" stroke="black"/>
<path d="M63,273h -6" fill="none" stroke="black"/>
<path d="M63,261h -6" fill="none" stroke="black"/>
<path d="M63,249h -6" fill="none" stroke="black"/>
<path d="M63,237h -6" fill="none" stroke="black"/>
<path d="M70,224h -13" fill="none" stroke="black"/>
<path d="M63,212h -6" fill="none" stroke="black"/>
<path d="M63,200h -6" fill="none" stroke="black"/>
<path d="M63,188h -6" fill="none" stroke="black"/>
<path d="M63,175h -6" fill="none" stroke="black"/>
<path d="M70,163h -13" fill="none" stroke="black"/>
<path d="M63,151h -6" fill="none" stroke="black"/>
<path d="M63,139h -6" fill="none" stroke="black"/>
<path d="M63,127h -6" fill="none" stroke="black"/>
<path d="M63,114h -6" fill="none" stroke="black"/>
<path d="M70,102h -13" fill="none" stroke="black"/>
<path d="M63,90h -6" fill="none" stroke="black"/>
<path d="M63,78h -6" fill="none" stroke="black"/>
<path d="M63,65h -6" fill="none" stroke="black"/>
<path d="M63,53h -6" fill="none" stroke="black"/>
<path d="M70,41h -13" fill="none" stroke="black"/>
<path d="M70,41h -13" fill="none" stroke="black"/>
<text x="47" y="350" fill="black" font-size="12" font-family="Helvetica">
0
</text>
<text x="25" y="289" fill="black" font-size="12" font-family="Helvetica">
1000
</text>
<text x="25" y="228" fill="black" font-size="12" font-family="Helvetica">
2000
</text>
<text x="25" y="167" fill="black" font-size="12" font-family="Helvetica">
3000
</text>
<text x="25" y="106" fill="black" font-size="12" font-family="Helvetica">
4000
</text>
<text x="25" y="45" fill="black" font-size="12" font-family="Helvetica">
5000
</text>
<rect x="442" y="25" width="114" height="46" fill="white"/>
<path d="M442,71h 114" fill="none" stroke="black"/>
<path d="M556,71v -46" fill="none" stroke="black"/>
<path d="M556,25h -114" fill="none" stroke="black"/>
<path d="M442,25v 46" fill="none" stroke="black"/>
<text x="447" y="53" fill="black" font-size="13" font-family="Helvetica">
Entries 
</text>
<text x="493" y="53" fill="black" font-size="13" font-family="Helvetica">
 2397175
</text>
<text x="270" y="21" fill="black" font-size="21" font-family="Helvetica">
D2
</text></svg>
