<?xml version="1.0" standalone="no"?>
<svg width="567" height="385" viewBox="0 0 567 385" xmlns="http://www.w3.org/2000/svg">
<title>
images/analysis_g4bl_phase_loose_cu/451_D1.svg
</title>
<desc>
Creator: ROOT Version 5.34/05
CreationDate: Wed Jun 12 17:26:36 2013</desc>
<defs>
</defs>
<rect x="0" y="0" width="567" height="385" fill="white"/>
<rect x="57" y="38" width="453" height="308" fill="white"/>
<rect x="57" y="38" width="453" height="308" fill="none" stroke="black"/>
<rect x="57" y="38" width="453" height="308" fill="white"/>
<rect x="57" y="38" width="453" height="308" fill="none" stroke="black"/>
<path d="M57,346h 43v -1v 1v -1h 1v 1v -1v 1v -1h 1v -1v 2v -4h 1v 2v -31h 1v 2v -8v 12v -13h 1v -10v 19v -23v 30h 1v -28v 18v -12h 1v -10v 25v -7v 6h 1v -32v 34v -1h 1v -33v 34v -17v 13h 1v 8v -18v 14v -9h 1v -6v 16v -32v 22h 1v 7v -13v 18v -12h 1v
 -18v 27v -27v 9h 1v 17v -26v 24h 1v -8v 4v -17v 13h 1v 15v -38v 34v -1h 1v -8v 4v -11v 8h 1v 11v -38v 36h 1v -24v 16v -6h 1v 15v -32v 28h 1v -26v 24v -18h 1v 19v -22v 25h 1v -31v 31v -19h 1v 26v -33v 31h 1v -26v 17v -27h 1v 33v -19v 17h 1v 3v -27v
 23v -11h 1v 9v -3v 1v -15v 12h 1v 1v -31v 38v -33h 1v 28v -31v 18h 1v 17v -14v 9v -17h 1v 28v -15v 3v -3v 2h 1v 15v -35v 25h 1v -7v 12v -22v 10h 1v 13v -21v 26v -21h 1v 17v -25v 16h 1v -1v 1v -14v 17v -12h 1v 10v -15v 11h 1v 7v -27v 34v -16h 1v -18v
 24v -16h 1v 24v -28v 24v -5h 1v -11v 8v -16h 1v 25v -14v 5v -4h 1v -8v 19v -19v 9h 1v 5v -30v 33v -6h 1v -13v 22v -17v 14h 1v 6v -22v 15v -6h 1v -17v 24v -21v 18h 1v 5v -18v 9v -4h 1v -5v 18v -27v 23h 1v -1v 1v -19v 23h 1v -17v 22v -14v 4v -3h 1v 8v
 -19v 28v -7h 1v -12v 12v -23h 1v 20v -21v 24v -4h 1v -20v 28v -25v 5h 1v 9v -15v 19h 1v -16v 23v -27h 1v 18v -16v 20h 1v -17v 13v -13h 1v 13v -37v 32h 1v 4v -13v 18v -8h 1v 7v -14v 6h 1v -8v 12v -19h 1v 29v -21v 21h 1v -38v 29v -19h 1v 21v -15v 11h
 1v 3v -13v 11v -5h 1v -4v 17v -22v 12h 1v -3v 5v -9v 9h 1v -11v 20v -19v 14h 1v 1v -12v 1v -4v 2h 1v -3v 17v -34v 23h 1v 2v -23v 27v -11h 1v -2v 12v -18v 12h 1v 13v -26v 30v -15h 1v -5v 11v -18h 1v 20v -15v 21h 1v -35v 22v -6v 15v -22h 1v 34v -40v
 35v -15h 1v -21v 33v -30h 1v 24v -15v 14v -9h 1v -6v 17v -20h 1v 11v -18v 23v -2h 1v -14v 14v -21v 21h 1v 14v -38v 41v -7h 1v -28v 27v -16v 8h 1v 10v -27v 23h 1v -14v 18v -26v 11h 1v 7v -28v 34v -7h 1v -16v 18v -27v 19h 1v 16v -19v 12v -3h 1v 5v
 -13v 21v -24v 2h 1v 25v -22v 7h 1v 7v -22v 19v -1v 1v -27h 1v 34v -24v 13h 1v -17v 18v -10h 1v 17v -28v 27h 1v -20v 18v -12h 1v 7v -10v 14h 1v -21v 23v -21h 1v 15v -17v 16h 1v 3v -10v 14v -19h 1v 9v -18v 6h 1v 18v -13v 16v -21h 1v 25v -22v 12h 1v 2v
 -6v 9v -9h 1v -16v 28v -27v 2h 1v 22v -28v 26v -11h 1v -2v 19v -34v 22h 1v 6v -18v 16v -2v 4h 1v -28v 33v -31h 1v 23v -29v 39v -18h 1v -17v 34v -29v 4h 1v 26v -39v 27v -11h 1v -7v 15v -7v 1h 1v 19v -21v 22v -14h 1v -4v 11v -19h 1v 23v -15v 14v -3h
 1v -27v 26v -18h 1v 20v -19v 21v -4h 1v -20v 25v -17h 1v 20v -23v 18v -9h 1v -15v 20v -19h 1v 21v -21v 25h 1v -27v 33v -18h 1v 16v -30v 31h 1v -17v 3v -11v 11v -15h 1v 26v -47v 42v -6h 1v -14v 18v -13h 1v 14v -17v 22h 1v -26v 24v -12h 1v -4v 11v
 -21v 17h 1v 4v -24v 30v -15h 1v 11v -13v 22h 1v -21v 3v -1v 10v -33h 1v 34v -15v 12h 1v 10v -24v 19v -34h 1v 33v -19v 16h 1v -15v 7v -5h 1v 25v -27v 4h 1v 12v -20v 18v -12h 1v 15v -34v 28h 1v 5v -12v 11h 1v -6v 9v -21h 1v 17v -22v 23v -13h 1v -7v
 23v -14v 5h 1v 5v -19v 18h 1v -19v 27v -23v 5h 1v 20v -22v 26v -28h 1v -6v 21v -15v 9h 1v 6v -17v 16h 1v -28v 23v -12v 10v -11h 1v 22v -17v 15h 1v -17v 14v -22h 1v 26v -20v 25v -5h 1v -28v 25v -28h 1v 33v -28v 26h 1v -14v 20v -28h 1v 15v -15v 14h 1v
 7v -19v 26v -34h 1v 21v -19v 26h 1v -15v 22v -31h 1v -10v 24v -11v 17h 1v -27v 27v -4v 6h 1v -23v 26v -23v 9h 1v 9v -13v 16v -21h 1v 25v -16v 4h 1v 4v -14v 16v -7h 1v 1v -2v 5v -12v 22h 1v -29v 23v -23h 1v 33v -29v 5h 1v 19v -27v 22v -22h 1v 27v
 -35v 22h 1v 8v -25v 21v -13h 1v -1v 25v -20v 4h 1v 1v -7v 14v -24h 1v 22v -22v 20h 1v 5v -21v 19v -18h 1v -3v 25v -23v 2h 1v 24v -30v 18v -4h 1v -13v 17v -23v 19h 1v 9v -33v 10v -234v 293h 1v -261v 80v -5v 22h 1v 41v -35v 26v -7h 1v -14v 19v -7v 6h
 1v 7v -17v 31v -1h 1v -27v 21v -8h 1v 17v -31v 37h 1v -20v 30v -22v 7h 1v 8v -25v 29h 1v -32v 28v -22v 6h 1v 13v -26v 35v -19h 1v 14v -17v 36v -59h 1v 48v -25v 29v -13h 1v -11v 16v -32h 1v 38v -19v 17v -12h 1v -1v 16v -9v 19v -28h 1v -4v 33v -22v
 32v -29h 1v -9v 22v -26h 1v 39v -24v 17v -5h 1v -19v 37v -33h 1v -7v 29v -19v 9h 1v 12v -14v 19v -27v 10h 1v -10v 16v -29v 55h 1v -48v 32v -9h 1v -5v 14v -22v 40h 1v -36v 23v -1h 1v -14v 14v -17v 15h 1v 6v -27v 28h 1v -25v 30v -37v 40h 1v 4v -38v
 17v -24h 1v 39v -22v 18h 1v -24v 34v -43h 1v 29v -22v 35h 1v 3v -32v 16v -8h 1v 21v -34v 32h 1v 2v -28v 31v -20h 1v -24v 53v -38h 1v 25v -28v 28h 1v -15v 11v -18v 10h 1v 8v -22v 34h 1v -28v 23v -26v 15h 1v 17v -45v 35v -3h 1v -20v 36v -38h 1v 42v
 -24v 38v -17h 1v -26v 21v -25v 7h 1v 34v -36v 19v -4h 1v -16v 21v -19h 1v 14v -17v 26h 1v -18v 11v -21h 1v 18v -4v 13v -1h 1v -16v 10v -27h 1v 36v -29v 20h 1v -8v 9v -5v 13v -12h 1v -6v 16v -17v 22h 1v -24v 11v -7h 1v 12v -28v 19h 1v 4v -25v 39v
 -11h 1v -20v 27v -23v 16h 1v 7v -24v 29v -26h 1v 19v -10v 13h 1v -26v 27v -11h 1v -4v 13v -15v 9h 1v 10v -20v 29v -25h 1v -9v 25v -27v 26h 1v -24v 25v -2h 1v -29v 20v -23v 37h 1v -26v 32h 1v -37v 21v -15v 16h 1v 11v -23v 12v -9h 1v -5v 21v -34v 32h
 1v 4v -23v 27v -8h 1v -19v 17v -16v 13h 1v -31v 44v -11h 1v -11v 14v -16v 20h 1v -13v 12v -21h 1v -2v 19v -13h 1v 25v -41v 42v -13h 1v -8v 11v -22h 1v 28v -31v 37v -12h 1v -19v 13v -4v 3h 1v -1v 2v -10v 20h 1v -35v 44v -42h 1v 29v -11v 17v -6h 1v
 -19v 32v -48h 1v 38v -23v 24v -6h 1v -11v 18v -33h 1v 27v -25v 26v -13h 1v 6v -15v 25v -17h 1v 21v -23v 13h 1v 2v -22v 25v -19h 1v 29v -36v 25h 1v 5v -28v 26v -21h 1v 16v -6v 7v -23v 23h 1v -25v 36v -16h 1v -18v 23v -19v 19h 1v -30v 37v -17h 1v -10v
 25v -22v 9h 1v -10v 22v -15h 1v -11v 31v -44v 33h 1v 3v -18v 13v -8v 20h 1v -21v 14v -3v 1v -13v 17h 1v 10v -27v 14h 1v -18v 16v -10v 11h 1v -13v 21h 1v -36v 40v -32v 7h 1v 26v -31v 18v -9h 1v -7v 15v -11v 16h 1v -17v 16h 1v -23v 22v -22v 20h 1v 4v
 -21v 26v -23h 1v 22v -22h 1v 19v -30v 30v -13h 1v -5v 19v -19v 1h 1v 12v -7v 3v -12v 15h 1v -11v 27v -30h 1v 25v -44v 32v -6h 1v -29v 47v -32h 1v 32v -21v 16h 1v -16v 10v -11h 1v 14v -15v 10v -8h 1v 8v -10v 19v -23h 1v 27v -17v 15h 1v -30v 25h 1v
 -12v 9v -16v 18h 1v -17v 21v -15h 1v 20v -18v 18h 1v -24v 25v -25h 1v 10v -11v 13h 1v 4v -14v 17v -30v 23h 1v -12v 14v -26v 20h 1v 7v -22v 24v -13h 1v -15v 33v -13v 6h 1v 3v -27v 28v -9h 1v -13v 29v -26v 17h 1v -20v 24v -16h 1v 14v -26v 22h 1v -10v
 2v -1v 17v -15h 1v 1v -12v 21v -26v 22h 1v -4v 9v -1v 5h 1v -12v 5v -20v 14h 1v 6v -22v 24v -19h 1v 18v -18v 15h 1v 3v -21v 18h 1v -14v 25v -21v 13h 1v -6v 3v -32v 45h 1v -29v 19v -12v 7h 1v 7v -24v 26h 1v -33v 34v -20h 1v 17v -20v 23h 1v -17v 15v
 -30h 1v 30v -21v 26v -14h 1v -26v 29v -16h 1v 17v -8v 2v -15v 23h 1v -17v 18v -22h 1v 28v -16v 16h 1v -27v 19v -18h 1v 30v -44v 35v -3h 1v -15v 11v -5h 1v 12v -18v 8v -2v 13h 1v -20v 17v -13h 1v -7v 23v -22v 28h 1v -29v 18v -5h 1v -19v 26v -19v 27v
 -21h 1v 3v -17v 34v -22h 1v 13v -15v 25h 1v -25v 11v -8h 1v -13v 29v -23v 33h 1v -35v 21v -10h 1v -16v 34v -25v 5h 1v 15v -25v 30v -9h 1v -12v 16v -11v 8v -10v 1h 1v 11v -20v 28v -12h 1v -9v 19v -28v 31h 1v -34v 30h 1v -21v 22v -46v 32h 1v 6v -3v 1v
 -12v 25h 1v -24v 18v -22v 21h 1v -23v 21v -9h 1v -8v 18v -17v 13h 1v 4v -25v 27v -9h 1v -15v 20v -19v 13h 1v 13v -34v 30h 1v -21v 20v -27h 1v 33v -33v 30h 1v -35v 29v -16v 4h 1v 19v -15v 18h 1v -37v 40v -17v 2h 1v 8v -21v 14h 1v -12v 14v -6v 7v -18h
 1v 24v -29v 27h 1v -25v 20v -16h 1v 20v -16v 15v -9h 1v -10v 21v -27h 1v 33v -30v 22h 1v -22v 14v -15h 1v 16v -14v 30h 1v -21v 15v -15h 1v 19v -21v 9v -1h 1v -17v 29v -23h 1v 19v -16v 7v -7h 1v -12v 18v -1h 1v 10v -10v 6v -25v 23v -1h 1v -12v 17v
 -8h 1v -11v 15v -12v 10h 1v -13v 18h 1v -31v 39v -27v 18h 1v -9v 13h 1v -22v 16v -29v 40h 1v -21v 17v -2h 1v -20v 28v -23v 8v -2h 1v 12v -31v 27h 1v -13v 8v -9v 15h 1v -20v 18v -5h 1v -9v 21v -33v 23h 1v -12v 10v -14v 27v -10h 1v -8v 14v -28v 8h 1v
 2v -10v 34v -16h 1v -17v 24v -18h 1v 12v -10v 24h 1v -30v 25v -19h 1v 11v -16v 21h 1v 1v -18v 15v -16h 1v 20v -26v 15v -1h 1v 6v -11v 21v -27h 1v 13v -13v 18h 1v -9v 9v -8h 1v -5v 14v -28v 33h 1v -21v 14" fill="none" stroke="#000099"/>
<rect x="442" y="25" width="114" height="46" fill="white"/>
<path d="M442,71h 114" fill="none" stroke="black"/>
<path d="M556,71v -46" fill="none" stroke="black"/>
<path d="M556,25h -114" fill="none" stroke="black"/>
<path d="M442,25v 46" fill="none" stroke="black"/>
<text x="447" y="28" fill="black" font-size="4" font-family="Helvetica">
Entries 
</text>
<text x="535" y="28" fill="black" font-size="4" font-family="Helvetica">
 106977
</text>
<text x="450" y="34" fill="black" font-size="4" font-family="Helvetica">
 / ndf 
</text>
<text x="449" y="30" fill="black" font-size="3" font-family="Helvetica">
2
</text>
<text x="447" y="34" fill="black" font-size="4" font-family="Times">
&#0967;
</text>
<text x="526" y="33" fill="black" font-size="4" font-family="Helvetica">
  1694 / 1239
</text>
<text x="452" y="36" fill="black" font-size="4" font-family="Helvetica">
   
</text>
<text x="450" y="39" fill="black" font-size="3" font-family="Helvetica">
cu
</text>
<text x="447" y="36" fill="black" font-size="4" font-family="Helvetica">
N
</text>
<text x="539" y="38" fill="black" font-size="4" font-family="Helvetica">
 187.2
</text>
<text x="537" y="38" fill="black" font-size="4" font-family="Times">
&#0177;
</text>
<text x="525" y="38" fill="black" font-size="4" font-family="Helvetica">
 219.5 
</text>
<text x="450" y="41" fill="black" font-size="4" font-family="Helvetica">
 
</text>
<text x="448" y="45" fill="black" font-size="3" font-family="Helvetica">
cu
</text>
<text x="447" y="41" fill="black" font-size="4" font-family="Times">
&#0964;
</text>
<text x="534" y="43" fill="black" font-size="4" font-family="Helvetica">
 2560.92
</text>
<text x="532" y="43" fill="black" font-size="4" font-family="Times">
&#0177;
</text>
<text x="520" y="43" fill="black" font-size="4" font-family="Helvetica">
 21.66 
</text>
<text x="450" y="45" fill="black" font-size="4" font-family="Helvetica">
    
</text>
<text x="450" y="49" fill="black" font-size="3" font-family="Helvetica">
f
</text>
<text x="447" y="45" fill="black" font-size="4" font-family="Helvetica">
N
</text>
<text x="539" y="48" fill="black" font-size="4" font-family="Helvetica">
 155.2
</text>
<text x="537" y="48" fill="black" font-size="4" font-family="Times">
&#0177;
</text>
<text x="526" y="48" fill="black" font-size="4" font-family="Helvetica">
   118 
</text>
<text x="448" y="50" fill="black" font-size="4" font-family="Helvetica">
 
</text>
<text x="448" y="53" fill="black" font-size="3" font-family="Helvetica">
f
</text>
<text x="447" y="50" fill="black" font-size="4" font-family="Times">
&#0964;
</text>
<text x="543" y="52" fill="black" font-size="4" font-family="Helvetica">
 0.0
</text>
<text x="541" y="52" fill="black" font-size="4" font-family="Times">
&#0177;
</text>
<text x="529" y="52" fill="black" font-size="4" font-family="Helvetica">
  2197 
</text>
<text x="452" y="54" fill="black" font-size="4" font-family="Helvetica">
  
</text>
<text x="450" y="58" fill="black" font-size="3" font-family="Helvetica">
sin
</text>
<text x="447" y="54" fill="black" font-size="4" font-family="Helvetica">
N
</text>
<text x="539" y="57" fill="black" font-size="4" font-family="Helvetica">
 21.10
</text>
<text x="537" y="57" fill="black" font-size="4" font-family="Times">
&#0177;
</text>
<text x="525" y="57" fill="black" font-size="4" font-family="Helvetica">
 12.93 
</text>
<text x="448" y="62" fill="black" font-size="4" font-family="Helvetica">
     
</text>
<text x="447" y="62" fill="black" font-size="4" font-family="Times">
&#0966;
</text>
<text x="539" y="62" fill="black" font-size="4" font-family="Helvetica">
 8.791
</text>
<text x="537" y="62" fill="black" font-size="4" font-family="Times">
&#0177;
</text>
<text x="525" y="62" fill="black" font-size="4" font-family="Helvetica">
 2.951 
</text>
<text x="447" y="65" fill="black" font-size="4" font-family="Helvetica">
T        
</text>
<text x="541" y="66" fill="black" font-size="4" font-family="Helvetica">
 3.32
</text>
<text x="538" y="66" fill="black" font-size="4" font-family="Times">
&#0177;
</text>
<text x="526" y="66" fill="black" font-size="4" font-family="Helvetica">
 59.36 
</text>
<text x="450" y="68" fill="black" font-size="4" font-family="Helvetica">
    
</text>
<text x="450" y="71" fill="black" font-size="3" font-family="Helvetica">
b
</text>
<text x="447" y="68" fill="black" font-size="4" font-family="Helvetica">
N
</text>
<text x="539" y="71" fill="black" font-size="4" font-family="Helvetica">
 65.25
</text>
<text x="537" y="71" fill="black" font-size="4" font-family="Times">
&#0177;
</text>
<text x="525" y="71" fill="black" font-size="4" font-family="Helvetica">
 39.08 
</text>
<path d="M284,172v 9" fill="none" stroke="#ff0000" stroke-width="2"/>
<path d="M285,171v 32" fill="none" stroke="#ff0000" stroke-width="2"/>
<path d="M285,184v 24" fill="none" stroke="#ff0000" stroke-width="2"/>
<path d="M286,186v 28" fill="none" stroke="#ff0000" stroke-width="2"/>
<path d="M287,190v 27" fill="none" stroke="#ff0000" stroke-width="2"/>
<path d="M288,192v 28" fill="none" stroke="#ff0000" stroke-width="2"/>
<path d="M289,195v 27" fill="none" stroke="#ff0000" stroke-width="2"/>
<path d="M289,200v 25" fill="none" stroke="#ff0000" stroke-width="2"/>
<path d="M290,203v 27" fill="none" stroke="#ff0000" stroke-width="2"/>
<path d="M291,205v 28" fill="none" stroke="#ff0000" stroke-width="2"/>
<path d="M292,207v 27" fill="none" stroke="#ff0000" stroke-width="2"/>
<path d="M293,210v 27" fill="none" stroke="#ff0000" stroke-width="2"/>
<path d="M293,214v 25" fill="none" stroke="#ff0000" stroke-width="2"/>
<path d="M294,216v 27" fill="none" stroke="#ff0000" stroke-width="2"/>
<path d="M295,218v 28" fill="none" stroke="#ff0000" stroke-width="2"/>
<path d="M296,220v 27" fill="none" stroke="#ff0000" stroke-width="2"/>
<path d="M297,224v 25" fill="none" stroke="#ff0000" stroke-width="2"/>
<path d="M298,226v 26" fill="none" stroke="#ff0000" stroke-width="2"/>
<path d="M298,228v 27" fill="none" stroke="#ff0000" stroke-width="2"/>
<path d="M299,229v 27" fill="none" stroke="#ff0000" stroke-width="2"/>
<path d="M300,231v 27" fill="none" stroke="#ff0000" stroke-width="2"/>
<path d="M301,234v 26" fill="none" stroke="#ff0000" stroke-width="2"/>
<path d="M302,236v 27" fill="none" stroke="#ff0000" stroke-width="2"/>
<path d="M302,238v 26" fill="none" stroke="#ff0000" stroke-width="2"/>
<path d="M303,239v 27" fill="none" stroke="#ff0000" stroke-width="2"/>
<path d="M304,240v 28" fill="none" stroke="#ff0000" stroke-width="2"/>
<path d="M305,243v 26" fill="none" stroke="#ff0000" stroke-width="2"/>
<path d="M306,245v 27" fill="none" stroke="#ff0000" stroke-width="2"/>
<path d="M307,246v 27" fill="none" stroke="#ff0000" stroke-width="2"/>
<path d="M307,247v 27" fill="none" stroke="#ff0000" stroke-width="2"/>
<path d="M308,248v 27" fill="none" stroke="#ff0000" stroke-width="2"/>
<path d="M309,251v 26" fill="none" stroke="#ff0000" stroke-width="2"/>
<path d="M310,251v 27" fill="none" stroke="#ff0000" stroke-width="2"/>
<path d="M311,253v 27" fill="none" stroke="#ff0000" stroke-width="2"/>
<path d="M311,254v 27" fill="none" stroke="#ff0000" stroke-width="2"/>
<path d="M312,256v 26" fill="none" stroke="#ff0000" stroke-width="2"/>
<path d="M313,257v 26" fill="none" stroke="#ff0000" stroke-width="2"/>
<path d="M314,258v 27" fill="none" stroke="#ff0000" stroke-width="2"/>
<path d="M315,259v 27" fill="none" stroke="#ff0000" stroke-width="2"/>
<path d="M315,260v 26" fill="none" stroke="#ff0000" stroke-width="2"/>
<path d="M316,262v 25" fill="none" stroke="#ff0000" stroke-width="2"/>
<path d="M317,263v 26" fill="none" stroke="#ff0000" stroke-width="2"/>
<path d="M318,264v 26" fill="none" stroke="#ff0000" stroke-width="2"/>
<path d="M319,264v 27" fill="none" stroke="#ff0000" stroke-width="2"/>
<path d="M320,265v 26" fill="none" stroke="#ff0000" stroke-width="2"/>
<path d="M320,266v 26" fill="none" stroke="#ff0000" stroke-width="2"/>
<path d="M321,267v 27" fill="none" stroke="#ff0000" stroke-width="2"/>
<path d="M322,268v 27" fill="none" stroke="#ff0000" stroke-width="2"/>
<path d="M323,269v 26" fill="none" stroke="#ff0000" stroke-width="2"/>
<path d="M324,269v 26" fill="none" stroke="#ff0000" stroke-width="2"/>
<path d="M324,270v 26" fill="none" stroke="#ff0000" stroke-width="2"/>
<path d="M325,271v 27" fill="none" stroke="#ff0000" stroke-width="2"/>
<path d="M326,272v 26" fill="none" stroke="#ff0000" stroke-width="2"/>
<path d="M327,273v 26" fill="none" stroke="#ff0000" stroke-width="2"/>
<path d="M328,273v 26" fill="none" stroke="#ff0000" stroke-width="2"/>
<path d="M329,273v 26" fill="none" stroke="#ff0000" stroke-width="2"/>
<path d="M329,274v 27" fill="none" stroke="#ff0000" stroke-width="2"/>
<path d="M330,275v 26" fill="none" stroke="#ff0000" stroke-width="2"/>
<path d="M331,275v 27" fill="none" stroke="#ff0000" stroke-width="2"/>
<path d="M332,277v 25" fill="none" stroke="#ff0000" stroke-width="2"/>
<path d="M333,277v 27" fill="none" stroke="#ff0000" stroke-width="2"/>
<path d="M333,277v 27" fill="none" stroke="#ff0000" stroke-width="2"/>
<path d="M334,277v 27" fill="none" stroke="#ff0000" stroke-width="2"/>
<path d="M335,278v 26" fill="none" stroke="#ff0000" stroke-width="2"/>
<path d="M336,279v 26" fill="none" stroke="#ff0000" stroke-width="2"/>
<path d="M337,279v 27" fill="none" stroke="#ff0000" stroke-width="2"/>
<path d="M337,280v 26" fill="none" stroke="#ff0000" stroke-width="2"/>
<path d="M338,280v 26" fill="none" stroke="#ff0000" stroke-width="2"/>
<path d="M339,281v 26" fill="none" stroke="#ff0000" stroke-width="2"/>
<path d="M340,281v 26" fill="none" stroke="#ff0000" stroke-width="2"/>
<path d="M341,282v 26" fill="none" stroke="#ff0000" stroke-width="2"/>
<path d="M342,282v 26" fill="none" stroke="#ff0000" stroke-width="2"/>
<path d="M342,282v 26" fill="none" stroke="#ff0000" stroke-width="2"/>
<path d="M343,282v 26" fill="none" stroke="#ff0000" stroke-width="2"/>
<path d="M344,283v 26" fill="none" stroke="#ff0000" stroke-width="2"/>
<path d="M345,283v 26" fill="none" stroke="#ff0000" stroke-width="2"/>
<path d="M346,283v 27" fill="none" stroke="#ff0000" stroke-width="2"/>
<path d="M346,284v 26" fill="none" stroke="#ff0000" stroke-width="2"/>
<path d="M347,284v 26" fill="none" stroke="#ff0000" stroke-width="2"/>
<path d="M348,284v 27" fill="none" stroke="#ff0000" stroke-width="2"/>
<path d="M349,285v 26" fill="none" stroke="#ff0000" stroke-width="2"/>
<path d="M350,285v 26" fill="none" stroke="#ff0000" stroke-width="2"/>
<path d="M351,285v 27" fill="none" stroke="#ff0000" stroke-width="2"/>
<path d="M351,286v 26" fill="none" stroke="#ff0000" stroke-width="2"/>
<path d="M352,286v 26" fill="none" stroke="#ff0000" stroke-width="2"/>
<path d="M353,286v 27" fill="none" stroke="#ff0000" stroke-width="2"/>
<path d="M354,286v 27" fill="none" stroke="#ff0000" stroke-width="2"/>
<path d="M355,286v 27" fill="none" stroke="#ff0000" stroke-width="2"/>
<path d="M355,286v 27" fill="none" stroke="#ff0000" stroke-width="2"/>
<path d="M356,286v 27" fill="none" stroke="#ff0000" stroke-width="2"/>
<path d="M357,287v 26" fill="none" stroke="#ff0000" stroke-width="2"/>
<path d="M358,287v 26" fill="none" stroke="#ff0000" stroke-width="2"/>
<path d="M359,287v 26" fill="none" stroke="#ff0000" stroke-width="2"/>
<path d="M359,288v 26" fill="none" stroke="#ff0000" stroke-width="2"/>
<path d="M360,288v 26" fill="none" stroke="#ff0000" stroke-width="2"/>
<path d="M361,288v 26" fill="none" stroke="#ff0000" stroke-width="2"/>
<path d="M362,288v 26" fill="none" stroke="#ff0000" stroke-width="2"/>
<path d="M363,288v 26" fill="none" stroke="#ff0000" stroke-width="2"/>
<path d="M364,288v 27" fill="none" stroke="#ff0000" stroke-width="2"/>
<path d="M364,289v 26" fill="none" stroke="#ff0000" stroke-width="2"/>
<path d="M365,289v 26" fill="none" stroke="#ff0000" stroke-width="2"/>
<path d="M366,289v 26" fill="none" stroke="#ff0000" stroke-width="2"/>
<path d="M367,289v 26" fill="none" stroke="#ff0000" stroke-width="2"/>
<path d="M368,289v 27" fill="none" stroke="#ff0000" stroke-width="2"/>
<path d="M368,290v 26" fill="none" stroke="#ff0000" stroke-width="2"/>
<path d="M369,290v 26" fill="none" stroke="#ff0000" stroke-width="2"/>
<path d="M370,290v 26" fill="none" stroke="#ff0000" stroke-width="2"/>
<path d="M371,290v 26" fill="none" stroke="#ff0000" stroke-width="2"/>
<path d="M372,290v 26" fill="none" stroke="#ff0000" stroke-width="2"/>
<path d="M372,290v 27" fill="none" stroke="#ff0000" stroke-width="2"/>
<path d="M373,290v 27" fill="none" stroke="#ff0000" stroke-width="2"/>
<path d="M374,291v 26" fill="none" stroke="#ff0000" stroke-width="2"/>
<path d="M375,291v 26" fill="none" stroke="#ff0000" stroke-width="2"/>
<path d="M376,291v 26" fill="none" stroke="#ff0000" stroke-width="2"/>
<path d="M377,291v 26" fill="none" stroke="#ff0000" stroke-width="2"/>
<path d="M377,291v 26" fill="none" stroke="#ff0000" stroke-width="2"/>
<path d="M378,291v 26" fill="none" stroke="#ff0000" stroke-width="2"/>
<path d="M379,291v 26" fill="none" stroke="#ff0000" stroke-width="2"/>
<path d="M380,291v 26" fill="none" stroke="#ff0000" stroke-width="2"/>
<path d="M381,291v 26" fill="none" stroke="#ff0000" stroke-width="2"/>
<path d="M381,291v 26" fill="none" stroke="#ff0000" stroke-width="2"/>
<path d="M382,291v 26" fill="none" stroke="#ff0000" stroke-width="2"/>
<path d="M383,291v 26" fill="none" stroke="#ff0000" stroke-width="2"/>
<path d="M384,291v 26" fill="none" stroke="#ff0000" stroke-width="2"/>
<path d="M385,291v 26" fill="none" stroke="#ff0000" stroke-width="2"/>
<path d="M386,291v 26" fill="none" stroke="#ff0000" stroke-width="2"/>
<path d="M386,291v 26" fill="none" stroke="#ff0000" stroke-width="2"/>
<path d="M387,291v 26" fill="none" stroke="#ff0000" stroke-width="2"/>
<path d="M388,291v 26" fill="none" stroke="#ff0000" stroke-width="2"/>
<path d="M389,291v 26" fill="none" stroke="#ff0000" stroke-width="2"/>
<path d="M390,291v 26" fill="none" stroke="#ff0000" stroke-width="2"/>
<path d="M390,291v 27" fill="none" stroke="#ff0000" stroke-width="2"/>
<path d="M391,291v 27" fill="none" stroke="#ff0000" stroke-width="2"/>
<path d="M392,291v 27" fill="none" stroke="#ff0000" stroke-width="2"/>
<path d="M393,292v 26" fill="none" stroke="#ff0000" stroke-width="2"/>
<path d="M394,292v 26" fill="none" stroke="#ff0000" stroke-width="2"/>
<path d="M394,292v 26" fill="none" stroke="#ff0000" stroke-width="2"/>
<path d="M395,292v 26" fill="none" stroke="#ff0000" stroke-width="2"/>
<path d="M396,292v 26" fill="none" stroke="#ff0000" stroke-width="2"/>
<path d="M397,292v 26" fill="none" stroke="#ff0000" stroke-width="2"/>
<path d="M398,292v 26" fill="none" stroke="#ff0000" stroke-width="2"/>
<path d="M399,292v 26" fill="none" stroke="#ff0000" stroke-width="2"/>
<path d="M399,292v 26" fill="none" stroke="#ff0000" stroke-width="2"/>
<path d="M400,292v 26" fill="none" stroke="#ff0000" stroke-width="2"/>
<path d="M401,292v 26" fill="none" stroke="#ff0000" stroke-width="2"/>
<path d="M402,292v 26" fill="none" stroke="#ff0000" stroke-width="2"/>
<path d="M403,292v 26" fill="none" stroke="#ff0000" stroke-width="2"/>
<path d="M403,292v 26" fill="none" stroke="#ff0000" stroke-width="2"/>
<path d="M404,292v 26" fill="none" stroke="#ff0000" stroke-width="2"/>
<path d="M405,292v 26" fill="none" stroke="#ff0000" stroke-width="2"/>
<path d="M406,292v 26" fill="none" stroke="#ff0000" stroke-width="2"/>
<path d="M407,292v 27" fill="none" stroke="#ff0000" stroke-width="2"/>
<path d="M408,292v 27" fill="none" stroke="#ff0000" stroke-width="2"/>
<path d="M408,292v 27" fill="none" stroke="#ff0000" stroke-width="2"/>
<path d="M409,292v 27" fill="none" stroke="#ff0000" stroke-width="2"/>
<path d="M410,292v 27" fill="none" stroke="#ff0000" stroke-width="2"/>
<path d="M411,292v 27" fill="none" stroke="#ff0000" stroke-width="2"/>
<path d="M412,293v 26" fill="none" stroke="#ff0000" stroke-width="2"/>
<path d="M412,293v 26" fill="none" stroke="#ff0000" stroke-width="2"/>
<path d="M413,293v 26" fill="none" stroke="#ff0000" stroke-width="2"/>
<path d="M414,293v 26" fill="none" stroke="#ff0000" stroke-width="2"/>
<path d="M415,293v 26" fill="none" stroke="#ff0000" stroke-width="2"/>
<path d="M416,293v 26" fill="none" stroke="#ff0000" stroke-width="2"/>
<path d="M416,293v 26" fill="none" stroke="#ff0000" stroke-width="2"/>
<path d="M417,293v 26" fill="none" stroke="#ff0000" stroke-width="2"/>
<path d="M418,293v 26" fill="none" stroke="#ff0000" stroke-width="2"/>
<path d="M419,293v 26" fill="none" stroke="#ff0000" stroke-width="2"/>
<path d="M420,293v 26" fill="none" stroke="#ff0000" stroke-width="2"/>
<path d="M421,293v 26" fill="none" stroke="#ff0000" stroke-width="2"/>
<path d="M421,293v 26" fill="none" stroke="#ff0000" stroke-width="2"/>
<path d="M422,293v 26" fill="none" stroke="#ff0000" stroke-width="2"/>
<path d="M423,293v 26" fill="none" stroke="#ff0000" stroke-width="2"/>
<path d="M424,293v 26" fill="none" stroke="#ff0000" stroke-width="2"/>
<path d="M425,293v 26" fill="none" stroke="#ff0000" stroke-width="2"/>
<path d="M425,293v 26" fill="none" stroke="#ff0000" stroke-width="2"/>
<path d="M426,293v 26" fill="none" stroke="#ff0000" stroke-width="2"/>
<path d="M427,293v 26" fill="none" stroke="#ff0000" stroke-width="2"/>
<path d="M428,293v 26" fill="none" stroke="#ff0000" stroke-width="2"/>
<path d="M429,293v 26" fill="none" stroke="#ff0000" stroke-width="2"/>
<path d="M430,293v 26" fill="none" stroke="#ff0000" stroke-width="2"/>
<path d="M430,293v 26" fill="none" stroke="#ff0000" stroke-width="2"/>
<path d="M431,293v 26" fill="none" stroke="#ff0000" stroke-width="2"/>
<path d="M432,293v 26" fill="none" stroke="#ff0000" stroke-width="2"/>
<path d="M433,293v 26" fill="none" stroke="#ff0000" stroke-width="2"/>
<path d="M434,293v 26" fill="none" stroke="#ff0000" stroke-width="2"/>
<path d="M434,293v 26" fill="none" stroke="#ff0000" stroke-width="2"/>
<path d="M435,293v 26" fill="none" stroke="#ff0000" stroke-width="2"/>
<path d="M436,293v 26" fill="none" stroke="#ff0000" stroke-width="2"/>
<path d="M437,293v 26" fill="none" stroke="#ff0000" stroke-width="2"/>
<path d="M438,293v 26" fill="none" stroke="#ff0000" stroke-width="2"/>
<path d="M438,293v 26" fill="none" stroke="#ff0000" stroke-width="2"/>
<path d="M439,293v 26" fill="none" stroke="#ff0000" stroke-width="2"/>
<path d="M440,293v 26" fill="none" stroke="#ff0000" stroke-width="2"/>
<path d="M441,293v 26" fill="none" stroke="#ff0000" stroke-width="2"/>
<path d="M442,293v 26" fill="none" stroke="#ff0000" stroke-width="2"/>
<path d="M443,293v 26" fill="none" stroke="#ff0000" stroke-width="2"/>
<path d="M443,293v 26" fill="none" stroke="#ff0000" stroke-width="2"/>
<path d="M444,293v 26" fill="none" stroke="#ff0000" stroke-width="2"/>
<path d="M445,293v 26" fill="none" stroke="#ff0000" stroke-width="2"/>
<path d="M446,293v 26" fill="none" stroke="#ff0000" stroke-width="2"/>
<path d="M447,293v 26" fill="none" stroke="#ff0000" stroke-width="2"/>
<path d="M447,293v 26" fill="none" stroke="#ff0000" stroke-width="2"/>
<path d="M448,293v 26" fill="none" stroke="#ff0000" stroke-width="2"/>
<path d="M449,293v 26" fill="none" stroke="#ff0000" stroke-width="2"/>
<path d="M450,293v 26" fill="none" stroke="#ff0000" stroke-width="2"/>
<path d="M451,293v 26" fill="none" stroke="#ff0000" stroke-width="2"/>
<path d="M452,293v 26" fill="none" stroke="#ff0000" stroke-width="2"/>
<path d="M452,293v 26" fill="none" stroke="#ff0000" stroke-width="2"/>
<path d="M453,293v 26" fill="none" stroke="#ff0000" stroke-width="2"/>
<path d="M454,293v 26" fill="none" stroke="#ff0000" stroke-width="2"/>
<path d="M455,293v 26" fill="none" stroke="#ff0000" stroke-width="2"/>
<path d="M456,293v 26" fill="none" stroke="#ff0000" stroke-width="2"/>
<path d="M456,293v 26" fill="none" stroke="#ff0000" stroke-width="2"/>
<path d="M457,293v 26" fill="none" stroke="#ff0000" stroke-width="2"/>
<path d="M458,293v 26" fill="none" stroke="#ff0000" stroke-width="2"/>
<path d="M459,293v 26" fill="none" stroke="#ff0000" stroke-width="2"/>
<path d="M460,293v 26" fill="none" stroke="#ff0000" stroke-width="2"/>
<path d="M460,293v 26" fill="none" stroke="#ff0000" stroke-width="2"/>
<path d="M461,293v 26" fill="none" stroke="#ff0000" stroke-width="2"/>
<path d="M462,293v 26" fill="none" stroke="#ff0000" stroke-width="2"/>
<path d="M463,293v 26" fill="none" stroke="#ff0000" stroke-width="2"/>
<path d="M464,293v 26" fill="none" stroke="#ff0000" stroke-width="2"/>
<path d="M465,293v 27" fill="none" stroke="#ff0000" stroke-width="2"/>
<path d="M465,293v 26" fill="none" stroke="#ff0000" stroke-width="2"/>
<path d="M466,293v 26" fill="none" stroke="#ff0000" stroke-width="2"/>
<path d="M467,293v 26" fill="none" stroke="#ff0000" stroke-width="2"/>
<path d="M468,293v 27" fill="none" stroke="#ff0000" stroke-width="2"/>
<path d="M469,293v 26" fill="none" stroke="#ff0000" stroke-width="2"/>
<path d="M469,293v 26" fill="none" stroke="#ff0000" stroke-width="2"/>
<path d="M470,293v 27" fill="none" stroke="#ff0000" stroke-width="2"/>
<path d="M471,293v 27" fill="none" stroke="#ff0000" stroke-width="2"/>
<path d="M472,293v 26" fill="none" stroke="#ff0000" stroke-width="2"/>
<path d="M473,293v 27" fill="none" stroke="#ff0000" stroke-width="2"/>
<path d="M473,293v 27" fill="none" stroke="#ff0000" stroke-width="2"/>
<path d="M474,293v 26" fill="none" stroke="#ff0000" stroke-width="2"/>
<path d="M475,293v 26" fill="none" stroke="#ff0000" stroke-width="2"/>
<path d="M476,293v 27" fill="none" stroke="#ff0000" stroke-width="2"/>
<path d="M477,293v 26" fill="none" stroke="#ff0000" stroke-width="2"/>
<path d="M478,293v 27" fill="none" stroke="#ff0000" stroke-width="2"/>
<path d="M478,293v 27" fill="none" stroke="#ff0000" stroke-width="2"/>
<path d="M479,293v 27" fill="none" stroke="#ff0000" stroke-width="2"/>
<path d="M480,293v 27" fill="none" stroke="#ff0000" stroke-width="2"/>
<path d="M481,293v 27" fill="none" stroke="#ff0000" stroke-width="2"/>
<path d="M482,293v 27" fill="none" stroke="#ff0000" stroke-width="2"/>
<path d="M482,293v 26" fill="none" stroke="#ff0000" stroke-width="2"/>
<path d="M483,293v 27" fill="none" stroke="#ff0000" stroke-width="2"/>
<path d="M484,293v 27" fill="none" stroke="#ff0000" stroke-width="2"/>
<path d="M485,293v 27" fill="none" stroke="#ff0000" stroke-width="2"/>
<path d="M486,293v 27" fill="none" stroke="#ff0000" stroke-width="2"/>
<path d="M487,293v 27" fill="none" stroke="#ff0000" stroke-width="2"/>
<path d="M487,293v 27" fill="none" stroke="#ff0000" stroke-width="2"/>
<path d="M488,293v 27" fill="none" stroke="#ff0000" stroke-width="2"/>
<path d="M489,293v 27" fill="none" stroke="#ff0000" stroke-width="2"/>
<path d="M490,293v 27" fill="none" stroke="#ff0000" stroke-width="2"/>
<path d="M491,293v 27" fill="none" stroke="#ff0000" stroke-width="2"/>
<path d="M491,293v 27" fill="none" stroke="#ff0000" stroke-width="2"/>
<path d="M492,293v 27" fill="none" stroke="#ff0000" stroke-width="2"/>
<path d="M493,293v 27" fill="none" stroke="#ff0000" stroke-width="2"/>
<path d="M494,293v 27" fill="none" stroke="#ff0000" stroke-width="2"/>
<path d="M495,293v 27" fill="none" stroke="#ff0000" stroke-width="2"/>
<path d="M495,293v 27" fill="none" stroke="#ff0000" stroke-width="2"/>
<path d="M496,293v 27" fill="none" stroke="#ff0000" stroke-width="2"/>
<path d="M497,293v 27" fill="none" stroke="#ff0000" stroke-width="2"/>
<path d="M498,293v 27" fill="none" stroke="#ff0000" stroke-width="2"/>
<path d="M499,293v 27" fill="none" stroke="#ff0000" stroke-width="2"/>
<path d="M500,293v 27" fill="none" stroke="#ff0000" stroke-width="2"/>
<path d="M500,293v 27" fill="none" stroke="#ff0000" stroke-width="2"/>
<path d="M501,293v 27" fill="none" stroke="#ff0000" stroke-width="2"/>
<path d="M502,293v 26" fill="none" stroke="#ff0000" stroke-width="2"/>
<path d="M503,293v 27" fill="none" stroke="#ff0000" stroke-width="2"/>
<path d="M504,293v 27" fill="none" stroke="#ff0000" stroke-width="2"/>
<path d="M504,293v 26" fill="none" stroke="#ff0000" stroke-width="2"/>
<path d="M505,293v 27" fill="none" stroke="#ff0000" stroke-width="2"/>
<path d="M506,293v 27" fill="none" stroke="#ff0000" stroke-width="2"/>
<path d="M507,293v 27" fill="none" stroke="#ff0000" stroke-width="2"/>
<path d="M508,293v 27" fill="none" stroke="#ff0000" stroke-width="2"/>
<path d="M509,293v 27" fill="none" stroke="#ff0000" stroke-width="2"/>
<path d="M509,293v 27" fill="none" stroke="#ff0000" stroke-width="2"/>
<path d="M510,301v 19" fill="none" stroke="#ff0000" stroke-width="2"/>
<path d="M284,176l 1, 11v 9l 1, 4l 1, 3l 1, 3l 1, 2v 4l 1, 4l 1, 3l 1, 1l 1, 3v 3l 1, 3l 1, 3l 1, 1l 1, 3l 1, 3v 2l 1, 1l 1, 2l 1, 3l 1, 2v 2l 1, 1l 1, 2l 1, 1l 1, 3l 1, 1v 1l 1, 1l 1, 3h 1l 1, 2v 1l 1, 2l 1, 1l 1, 1l 1, 1v 1l 1, 1l 1, 2l 1, 1h 1l 1,
 1v 1l 1, 1l 1, 1l 1, 1h 1v 1l 1, 1l 1, 1l 1, 1h 2v 1l 1, 1h 1l 1, 1l 1, 1v 1h 2l 1, 1h 1v 1h 1l 1, 1h 1l 1, 1h 2l 1, 1h 2v 1h 2l 1, 1h 2v 1h 5l 1, 1h 2v 1h 5v 1h 4v 1h 5l 1, 1h 18l 1, 1h 18l 1, 1h 97l 1, 4" fill="none" stroke="#ff0000"
 stroke-width="2"/>
<path d="M57,346h 453" fill="none" stroke="black"/>
<text x="419" y="372" fill="black" font-size="12" font-family="Helvetica">
TDC-TDC0 (ns)
</text>
<path d="M57,337v 9" fill="none" stroke="black"/>
<path d="M68,342v 4" fill="none" stroke="black"/>
<path d="M79,342v 4" fill="none" stroke="black"/>
<path d="M91,342v 4" fill="none" stroke="black"/>
<path d="M102,342v 4" fill="none" stroke="black"/>
<path d="M113,337v 9" fill="none" stroke="black"/>
<path d="M125,342v 4" fill="none" stroke="black"/>
<path d="M136,342v 4" fill="none" stroke="black"/>
<path d="M147,342v 4" fill="none" stroke="black"/>
<path d="M159,342v 4" fill="none" stroke="black"/>
<path d="M170,337v 9" fill="none" stroke="black"/>
<path d="M181,342v 4" fill="none" stroke="black"/>
<path d="M193,342v 4" fill="none" stroke="black"/>
<path d="M204,342v 4" fill="none" stroke="black"/>
<path d="M215,342v 4" fill="none" stroke="black"/>
<path d="M227,337v 9" fill="none" stroke="black"/>
<path d="M238,342v 4" fill="none" stroke="black"/>
<path d="M249,342v 4" fill="none" stroke="black"/>
<path d="M261,342v 4" fill="none" stroke="black"/>
<path d="M272,342v 4" fill="none" stroke="black"/>
<path d="M283,337v 9" fill="none" stroke="black"/>
<path d="M295,342v 4" fill="none" stroke="black"/>
<path d="M306,342v 4" fill="none" stroke="black"/>
<path d="M317,342v 4" fill="none" stroke="black"/>
<path d="M329,342v 4" fill="none" stroke="black"/>
<path d="M340,337v 9" fill="none" stroke="black"/>
<path d="M351,342v 4" fill="none" stroke="black"/>
<path d="M363,342v 4" fill="none" stroke="black"/>
<path d="M374,342v 4" fill="none" stroke="black"/>
<path d="M386,342v 4" fill="none" stroke="black"/>
<path d="M397,337v 9" fill="none" stroke="black"/>
<path d="M408,342v 4" fill="none" stroke="black"/>
<path d="M420,342v 4" fill="none" stroke="black"/>
<path d="M431,342v 4" fill="none" stroke="black"/>
<path d="M442,342v 4" fill="none" stroke="black"/>
<path d="M454,337v 9" fill="none" stroke="black"/>
<path d="M465,342v 4" fill="none" stroke="black"/>
<path d="M476,342v 4" fill="none" stroke="black"/>
<path d="M488,342v 4" fill="none" stroke="black"/>
<path d="M499,342v 4" fill="none" stroke="black"/>
<path d="M510,337v 9" fill="none" stroke="black"/>
<text x="36" y="359" fill="black" font-size="12" font-family="Helvetica">
-20000
</text>
<text x="93" y="359" fill="black" font-size="12" font-family="Helvetica">
-15000
</text>
<text x="149" y="359" fill="black" font-size="12" font-family="Helvetica">
-10000
</text>
<text x="210" y="359" fill="black" font-size="12" font-family="Helvetica">
-5000
</text>
<text x="280" y="359" fill="black" font-size="12" font-family="Helvetica">
0
</text>
<text x="325" y="359" fill="black" font-size="12" font-family="Helvetica">
5000
</text>
<text x="379" y="359" fill="black" font-size="12" font-family="Helvetica">
10000
</text>
<text x="435" y="359" fill="black" font-size="12" font-family="Helvetica">
15000
</text>
<text x="492" y="359" fill="black" font-size="12" font-family="Helvetica">
20000
</text>
<path d="M57,346v -308" fill="none" stroke="black"/>
<g transform="rotate(-90,29,72)">
<text x="29" y="72" fill="black" font-size="12" font-family="Helvetica">
Count
</text>
</g>
<path d="M70,346h -13" fill="none" stroke="black"/>
<path d="M63,336h -6" fill="none" stroke="black"/>
<path d="M63,326h -6" fill="none" stroke="black"/>
<path d="M63,316h -6" fill="none" stroke="black"/>
<path d="M63,306h -6" fill="none" stroke="black"/>
<path d="M70,296h -13" fill="none" stroke="black"/>
<path d="M63,286h -6" fill="none" stroke="black"/>
<path d="M63,275h -6" fill="none" stroke="black"/>
<path d="M63,265h -6" fill="none" stroke="black"/>
<path d="M63,255h -6" fill="none" stroke="black"/>
<path d="M70,245h -13" fill="none" stroke="black"/>
<path d="M63,235h -6" fill="none" stroke="black"/>
<path d="M63,225h -6" fill="none" stroke="black"/>
<path d="M63,214h -6" fill="none" stroke="black"/>
<path d="M63,204h -6" fill="none" stroke="black"/>
<path d="M70,194h -13" fill="none" stroke="black"/>
<path d="M63,184h -6" fill="none" stroke="black"/>
<path d="M63,174h -6" fill="none" stroke="black"/>
<path d="M63,164h -6" fill="none" stroke="black"/>
<path d="M63,153h -6" fill="none" stroke="black"/>
<path d="M70,143h -13" fill="none" stroke="black"/>
<path d="M63,133h -6" fill="none" stroke="black"/>
<path d="M63,123h -6" fill="none" stroke="black"/>
<path d="M63,113h -6" fill="none" stroke="black"/>
<path d="M63,103h -6" fill="none" stroke="black"/>
<path d="M70,93h -13" fill="none" stroke="black"/>
<path d="M63,82h -6" fill="none" stroke="black"/>
<path d="M63,72h -6" fill="none" stroke="black"/>
<path d="M63,62h -6" fill="none" stroke="black"/>
<path d="M63,52h -6" fill="none" stroke="black"/>
<path d="M70,42h -13" fill="none" stroke="black"/>
<path d="M70,42h -13" fill="none" stroke="black"/>
<text x="47" y="350" fill="black" font-size="12" font-family="Helvetica">
0
</text>
<text x="40" y="299" fill="black" font-size="12" font-family="Helvetica">
50
</text>
<text x="33" y="249" fill="black" font-size="12" font-family="Helvetica">
100
</text>
<text x="33" y="198" fill="black" font-size="12" font-family="Helvetica">
150
</text>
<text x="33" y="147" fill="black" font-size="12" font-family="Helvetica">
200
</text>
<text x="33" y="96" fill="black" font-size="12" font-family="Helvetica">
250
</text>
<text x="33" y="45" fill="black" font-size="12" font-family="Helvetica">
300
</text>
<rect x="442" y="25" width="114" height="46" fill="white"/>
<path d="M442,71h 114" fill="none" stroke="black"/>
<path d="M556,71v -46" fill="none" stroke="black"/>
<path d="M556,25h -114" fill="none" stroke="black"/>
<path d="M442,25v 46" fill="none" stroke="black"/>
<text x="447" y="28" fill="black" font-size="4" font-family="Helvetica">
Entries 
</text>
<text x="535" y="28" fill="black" font-size="4" font-family="Helvetica">
 106977
</text>
<text x="450" y="34" fill="black" font-size="4" font-family="Helvetica">
 / ndf 
</text>
<text x="449" y="30" fill="black" font-size="3" font-family="Helvetica">
2
</text>
<text x="447" y="34" fill="black" font-size="4" font-family="Times">
&#0967;
</text>
<text x="526" y="33" fill="black" font-size="4" font-family="Helvetica">
  1694 / 1239
</text>
<text x="452" y="36" fill="black" font-size="4" font-family="Helvetica">
   
</text>
<text x="450" y="39" fill="black" font-size="3" font-family="Helvetica">
cu
</text>
<text x="447" y="36" fill="black" font-size="4" font-family="Helvetica">
N
</text>
<text x="539" y="38" fill="black" font-size="4" font-family="Helvetica">
 187.2
</text>
<text x="537" y="38" fill="black" font-size="4" font-family="Times">
&#0177;
</text>
<text x="525" y="38" fill="black" font-size="4" font-family="Helvetica">
 219.5 
</text>
<text x="450" y="41" fill="black" font-size="4" font-family="Helvetica">
 
</text>
<text x="448" y="45" fill="black" font-size="3" font-family="Helvetica">
cu
</text>
<text x="447" y="41" fill="black" font-size="4" font-family="Times">
&#0964;
</text>
<text x="534" y="43" fill="black" font-size="4" font-family="Helvetica">
 2560.92
</text>
<text x="532" y="43" fill="black" font-size="4" font-family="Times">
&#0177;
</text>
<text x="520" y="43" fill="black" font-size="4" font-family="Helvetica">
 21.66 
</text>
<text x="450" y="45" fill="black" font-size="4" font-family="Helvetica">
    
</text>
<text x="450" y="49" fill="black" font-size="3" font-family="Helvetica">
f
</text>
<text x="447" y="45" fill="black" font-size="4" font-family="Helvetica">
N
</text>
<text x="539" y="48" fill="black" font-size="4" font-family="Helvetica">
 155.2
</text>
<text x="537" y="48" fill="black" font-size="4" font-family="Times">
&#0177;
</text>
<text x="526" y="48" fill="black" font-size="4" font-family="Helvetica">
   118 
</text>
<text x="448" y="50" fill="black" font-size="4" font-family="Helvetica">
 
</text>
<text x="448" y="53" fill="black" font-size="3" font-family="Helvetica">
f
</text>
<text x="447" y="50" fill="black" font-size="4" font-family="Times">
&#0964;
</text>
<text x="543" y="52" fill="black" font-size="4" font-family="Helvetica">
 0.0
</text>
<text x="541" y="52" fill="black" font-size="4" font-family="Times">
&#0177;
</text>
<text x="529" y="52" fill="black" font-size="4" font-family="Helvetica">
  2197 
</text>
<text x="452" y="54" fill="black" font-size="4" font-family="Helvetica">
  
</text>
<text x="450" y="58" fill="black" font-size="3" font-family="Helvetica">
sin
</text>
<text x="447" y="54" fill="black" font-size="4" font-family="Helvetica">
N
</text>
<text x="539" y="57" fill="black" font-size="4" font-family="Helvetica">
 21.10
</text>
<text x="537" y="57" fill="black" font-size="4" font-family="Times">
&#0177;
</text>
<text x="525" y="57" fill="black" font-size="4" font-family="Helvetica">
 12.93 
</text>
<text x="448" y="62" fill="black" font-size="4" font-family="Helvetica">
     
</text>
<text x="447" y="62" fill="black" font-size="4" font-family="Times">
&#0966;
</text>
<text x="539" y="62" fill="black" font-size="4" font-family="Helvetica">
 8.791
</text>
<text x="537" y="62" fill="black" font-size="4" font-family="Times">
&#0177;
</text>
<text x="525" y="62" fill="black" font-size="4" font-family="Helvetica">
 2.951 
</text>
<text x="447" y="65" fill="black" font-size="4" font-family="Helvetica">
T        
</text>
<text x="541" y="66" fill="black" font-size="4" font-family="Helvetica">
 3.32
</text>
<text x="538" y="66" fill="black" font-size="4" font-family="Times">
&#0177;
</text>
<text x="526" y="66" fill="black" font-size="4" font-family="Helvetica">
 59.36 
</text>
<text x="450" y="68" fill="black" font-size="4" font-family="Helvetica">
    
</text>
<text x="450" y="71" fill="black" font-size="3" font-family="Helvetica">
b
</text>
<text x="447" y="68" fill="black" font-size="4" font-family="Helvetica">
N
</text>
<text x="539" y="71" fill="black" font-size="4" font-family="Helvetica">
 65.25
</text>
<text x="537" y="71" fill="black" font-size="4" font-family="Times">
&#0177;
</text>
<text x="525" y="71" fill="black" font-size="4" font-family="Helvetica">
 39.08 
</text>
<text x="270" y="21" fill="black" font-size="21" font-family="Helvetica">
D1
</text></svg>
