<?xml version="1.0" standalone="no"?>
<svg width="567" height="385" viewBox="0 0 567 385" xmlns="http://www.w3.org/2000/svg">
<title>
images/analysis_g4bl_phase_loose_cu/455_D5.svg
</title>
<desc>
Creator: ROOT Version 5.34/05
CreationDate: Wed Jun 12 17:27:58 2013</desc>
<defs>
</defs>
<rect x="0" y="0" width="567" height="385" fill="white"/>
<rect x="57" y="38" width="453" height="308" fill="white"/>
<rect x="57" y="38" width="453" height="308" fill="none" stroke="black"/>
<rect x="57" y="38" width="453" height="308" fill="white"/>
<rect x="57" y="38" width="453" height="308" fill="none" stroke="black"/>
<path d="M57,346h 44v -1v 1h 2v -1v 1h 1v -10v 2v -2h 1v -6v 11v -11v 7h 1v 2v -7v 9v -3h 1v -6v 6v -10v 13h 1v 2v -12v 6h 1v -7v 6v -12v 10h 1v 5v -5h 1v -4v 8v -7v 13h 1v -14v 6v -4h 1v -1v 11v -7v 2h 1v 2v -5v 4v -6h 1v 5v -2v 4v -5v 7h 1v -3v 1v
 -3v 1h 1v -7v 12v -10h 1v 6v -10v 11v -1h 1v -10v 11v -9v 5v -1h 1v -4v 11v -10v 8v -3h 1v 2v -11v 11v -1v 5v -12h 1v 11v -5v 3v -3h 1v 2v -9v 10v -14h 1v 14v -9v 5h 1v 4v -9v 8v -7h 1v 8v -7v 9h 1v -9v 6v -8h 1v 9v -1v 1v -9h 1v 12v -10v 9v -11h 1v
 12v -10v 11h 1v -13v 8v -1v 1h 1v -3v 7v -12v 5h 1v -5v 8v -6h 1v 10v -6h 1v -6v 6v -7h 1v 9v -10v 7h 1v 2v -6v 8v -3h 1v -8v 16v -15h 1v 10v -10v 10v -2h 1v -5v 9v -4v 2h 1v 5v -14v 6v -4h 1v 6v -11h 1v 9v -9v 12h 1v -9v 5v -5v 2h 1v 5v -7v 9h 1v
 -12v 12v -7v 5h 1v 7v -7h 1v -5v 11v -8v 4v -5h 1v -3v 13v -14v 8v -8h 1v 8v -16v 21v -8v 3h 1v -7v 8v -1h 1v 3v -9v 7v -12h 1v 14v -14v 5v -5h 1v 11v -1v 4v -9v 5h 1v -2v 2v -9v 7h 1v 3v -6v 7v -15h 1v 13v -13v 11h 1v 4v -14v 14v -11v 6h 1v 5v -7v
 3v -1v 8h 1v -17v 12v -3h 1v 1v -1v 5h 1v -3v 1v -2v 3v -2h 1v 2v -10v 8v -6h 1v 5v -7v 11v -7h 1v -2v 9v -9v 7h 1v -8v 10v -5v 4h 1v -7v 11h 1v 1v -9v 9v -9h 1v -4v 11v -7v 9h 1v -14v 13v -7h 1v 3v -3v 2h 1v 1v -8v 8h 1v -14v 12v -2v 2v -4h 1v 9v
 -14v 9v -6h 1v 6v -6v 2h 1v 6v -10v 13v -9h 1v -2v 9v -10h 1v 9v -8v 9v -3h 1v -6v 8v -4h 1v 5v -5v 5h 1v -11v 8v -4v 5v -2h 1v -1v 4v -3v 6h 1v -12v 15v -9v 3h 1v -8v 8v -2v 3v -3h 1v -5v 7v -11v 9h 1v 3v -12v 11h 1v -4v 4v -13v 14h 1v -4v 3h 1v
 -11v 11v -8h 1v 11v -11v 6v -1h 1v -7v 10v -6v 7h 1v -5v 2v -1v 7v -11h 1v -8v 12v -7h 1v 11v -10v 10v -1h 1v -10v 14v -18h 1v 13v -3v 4v -1h 1v -6v 8v -7h 1v 3v -10v 17h 1v -12v 6v -8h 1v 8v -8v 8h 1v 2v -8v 6v -14h 1v 16v -4v 3h 1v 4v -7v 5v -4h
 1v 6v -10h 1v 6v -7v 8v -9h 1v 9v -6v 7h 1v -3v 3v -4v 2h 1v -2v 4v -8h 1v 7v -3v 2v -1h 1v -4v 6v -7v 4h 1v 7v -13v 10h 1v -11v 11v -11h 1v 11v -9v 12v -6h 1v -9v 12v -8h 1v 7v -9v 8v -3h 1v -2v 5v -7h 1v 2v -1v 6v -7v 9v -3h 1v -6v 6v -12h 1v 15v
 -5v 2v -2v 3v -2h 1v -11v 13v -7h 1v 8v -9v 14h 1v -12v 10v -18h 1v 14v -9v 10v -2h 1v 2v -10v 4v -2v 2h 1v -4v 8v -5v 5v -1h 1v 6v -10v 8v -4v 1h 1v 3v -5v 4h 1v -13v 13v -10h 1v 13v -4v 1h 1v -16v 19v -10h 1v 3v -4v 9h 1v -12v 11v -8v 5v -7h 1v
 11v -4v 2v -2h 1v -5v 12v -25h 1v 22v -10v 8h 1v -7v 5v -1h 1v -7v 9v -6v 2h 1v 7v -12v 5v -2v 4v -4h 1v 6v -4v 2v -13v 15h 1v -5v 11v -10h 1v -9v 11v -14v 15h 1v -6v 9v -3v 3h 1v -6v 2v -9v 4h 1v -1v 6v -6v 4v -2h 1v -10v 16v -11v 4h 1v -4v 4v -6v
 11v -2v 4h 1v -5v 3v -3h 1v 3v -6v 7v -11h 1v 14v -10h 1v 6v -9v 13v -4h 1v -10v 13v -12h 1v 9v -9v 10v -3v 4h 1v -7v 1v -3v 7v -13h 1v 15v -7v 3h 1v -7v 5h 1v -1v 3v -11v 8h 1v -9v 17v -15h 1v 3v -2v 7h 1v -3v 3v -6v 11h 1v -13v 8v -12v 18h 1v -13v
 7v -8h 1v -5v 8v -2v 8h 1v -13v 16v -12v 7h 1v -7v 13v -13v 7h 1v -5v 7v -10h 1v 13v -10v 10h 1v -13v 8v -8v 7h 1v -6v 6v -17v 21h 1v 2v -16v 10v -1v 4v -11h 1v 9v -12v 7v -8v 5h 1v 9v -21v 19v -10h 1v 6v -4v 10h 1v -5v 2v -18v 16v -9h 1v 7v -6v 8h
 1v 3v -21v 17v -11h 1v 16v -9v 2v -8h 1v 1v -2v 8v -19v 21h 1v -7v 9v -28v 17h 1v -18v 11h 1v -14v 11v -8h 1v 1v -13v 2v -30h 1v -11v 20v -85h 1v -127v 293h 1v -163h 1v 52v -5v 33h 1v -3v 17v -5v 4v -8h 1v 9v -10v 20v -13v 7h 1v -9v 20v -8h 1v 11v
 -8v 20v -10h 1v -21v 26v -10v 10v -12h 1v -3v 12v -23v 38h 1v -27v 24h 1v -22v 7v -3v 17h 1v -16v 10v -23h 1v 21v -2v 7v -1h 1v 1v -13v 13v -12v 5h 1v 9v -6v 13v -37v 35h 1v -11v 12h 1v -9v 5v -17v 13h 1v -6v 14v -1v 2h 1v -8v 2v -3v 2v -9v 4h 1v
 -15v 31v -9h 1v -2v 15v -18v 17v -10h 1v 10v -22v 15h 1v -16v 18v -11h 1v 7v -10v 2h 1v 17v -10v 3v -2h 1v -6v 9v -3v 1h 1v -12v 18v -7v 7v -4h 1v 5v -12v 15v -9h 1v 11v -16h 1v 16v -12v 3v -4v 8h 1v 2v -3v 3v -11v 3h 1v 6v -6v 4v -2v 5h 1v -6v 4h
 1v 9v -10v 7v -5h 1v -13v 14v -8v 8h 1v 4v -11v 7v -1v 8h 1v -19v 14v -2h 1v 8v -13v 18v -12h 1v -1v 8v -9v 1v -2h 1v 10v -9v 8v -2h 1v -10v 18v -23h 1v 15v -17v 14v -3h 1v 7v -7h 1v 12v -13v 15h 1v -20v 20v -8v 4h 1v -8v 7v -1h 1v -10v 9v -14h 1v
 13v -3v 10v -11h 1v 1v -3v 9v -2h 1v -5v 6v -15v 14v -2h 1v -11v 19v -4h 1v 3v -6v 10v -15v 14h 1v -9v 8v -9v 2h 1v 5v -19v 22h 1v -9v 3v -6v 4v -14h 1v 19v -7v 5h 1v -8v 6v -6h 1v 12v -9v 9h 1v -12v 7v -4h 1v -5v 10v -3v 5v -13v 14h 1v -10v 6v -6h
 1v 13v -9v 3h 1v 5v -6h 1v -8v 8v -6v 10h 1v -5v 13v -18h 1v 10v -3v 4v -6v 4h 1v -6v 6v -7v 4h 1v -7v 10v -12v 12h 1v -4v 2v -4v 2v -1h 1v -12v 18v -5v 2h 1v -1v 5v -6v 8v -4h 1v 3v -10v 5h 1v 4v -4h 1v 4v -8v 10h 1v 4v -17v 11h 1v -6v 9v -7h 1v 7v
 -11v 14v -18h 1v 12v -2v 4v -7h 1v 4v -8v 12v -3h 1v -12v 12v -19h 1v 25v -15v 3h 1v 4v -3v 8v -8h 1v 8v -7v 5v -2h 1v -5v 9v -10h 1v 8v -7v 6v -2h 1v 4v -4h 1v 3v -2v 1h 1v -6v 6v -11h 1v 13v -9v 2h 1v 5v -7v 7v -12h 1v 15v -7v 4h 1v -6v 7v -3h 1v
 -5v 6v -3v 9h 1v -14v 12v -7h 1v 11v -16v 10h 1v -8v 5v -2v 5h 1v -5v 3v -1v 4v -1h 1v -3v 4v -3h 1v 3v -3v 3v -1v 4h 1v -11v 8v -2h 1v -8v 9v -3h 1v -5v 12h 1v -12v 7v -5v 6v -6h 1v 6v -7v 5v -5h 1v 12v -14v 7h 1v 3v -3v 6v -7h 1v 7v -7v 1v -14v 8h
 1v 9v -14v 18h 1v -12v 11v -12h 1v 7v -11v 13h 1v -15v 14v -2v 6h 1v -7v 4v -1h 1v -9v 11v -8v 4h 1v 6v -7v 5v -5h 1v -5v 13v -8h 1v 4v -9v 13v -7h 1v -1v 4v -7h 1v 10v -7v 1v -3v 3h 1v -1v 5v -15h 1v 15v -11v 10h 1v -6v 5v -3h 1v 5v -5v 8h 1v -14v
 13v -4h 1v -3v 3v -6v 6v -1h 1v -11v 13v -8h 1v 6v -1v 7h 1v -11v 10v -5h 1v -8v 9v -7v 12h 1v -1v 2v -6v 2v -2h 1v -8v 7v -2v 4v -2h 1v 2v -4v 7v -4h 1v -7v 8v -7h 1v 8v -12v 15v -10h 1v -4v 15v -11v 4h 1v 5v -10v 8h 1v -10v 9v -3v 6v -4v 7h 1v
 -10v 5h 1v -9v 8v -3v 4v -4v 1h 1v 3v -11v 7v -1h 1v 5v -10v 7v -14v 17h 1v -5v 2v -5v 6h 1v -2v 8v -13h 1v 7v -3v 5v -4h 1v 1v -1v 4v -1h 1v -2v 1v -2h 1v -7v 8v -4v 11h 1v -9v 4h 1v 3v -11v 8v -8v 5h 1v 4v -9v 12v -8v 5h 1v -11v 10v -4v 1h 1v 2v
 -10v 14h 1v -13v 9v -3h 1v 4v -9v 9v -2h 1v 6v -10h 1v 5v -8v 10h 1v -7v 11v -8h 1v -3v 10v -6v 8h 1v -12v 12v -10v 3h 1v -7v 6v -11v 17h 1v -15v 11v -2h 1v -8v 8v -7v 12v -4h 1v 1v -13v 10v -6v 5h 1v -2v 5v -3v 7h 1v -11v 8v -4h 1v -4v 9v -4h 1v
 -10v 17v -6h 1v 2v -3v 3v -3v 1h 1v -4v 6h 1v -13v 16v -6v 7h 1v -11v 5v -7v 12h 1v -12v 12v -9h 1v -1v 8v -4h 1v -5v 12v -5v 1v -7v 4h 1v 1v -5v 10v -3h 1v -7v 11v -15v 7h 1v -3v 10v -11h 1v 9v -7v 10v -12v 11h 1v -7v 5h 1v -8v 12v -16v 11h 1v -8v
 9v -4h 1v 2v -15v 16v -3h 1v 3v -9v 8v -3h 1v -6v 14v -11h 1v 4v -5v 9h 1v -10v 8v -14h 1v 16v -4v 4v -4h 1v 6v -9v 6v -3h 1v 6v -7v 7h 1v -12v 9v -2v 3v -8h 1v 10v -7v 3h 1v 4v -13v 10v -6h 1v 7v -14v 16v -2h 1v -4v 3v -8h 1v 11v -6v 3v -6h 1v 7v
 -14v 12v -2h 1v 4v -7v 5v -6v 7h 1v -7v 1v -5v 14v -7h 1v 8v -12v 8h 1v -8v 9v -1h 1v -2v 6h 1v -12v 8v -10h 1v 13v -13v 10h 1v -6v 3v -5h 1v 11v -5h 1v 3v -11v 13h 1v -16v 17v -11h 1v 4v -5v 12h 1v -12v 11v -13v 11h 1v -1v 1v -10v 8h 1v -8v 10v
 -16v 14h 1v 5v -11v 8h 1v -10v 7v -4v 7v -12v 7h 1v 3v -6v 11h 1v -14v 10v -13v 11h 1v 2v -10v 14h 1v -12v 8v -7h 1v 11v -15v 9h 1v 2v -3v 6v -9h 1v 7v -8v 7v -2h 1v 6v -12v 12v -7v 2h 1v -1v 5v -9v 9h 1v -5v 1v -7h 1v 9v -11v 9h 1v 1v -4v 4v -7h 1v
 6v -6v 6h 1v -14v 19v -12h 1v 8v -9v 13h 1v 1v -11v 7" fill="none" stroke="#000099"/>
<rect x="442" y="25" width="114" height="46" fill="white"/>
<path d="M442,71h 114" fill="none" stroke="black"/>
<path d="M556,71v -46" fill="none" stroke="black"/>
<path d="M556,25h -114" fill="none" stroke="black"/>
<path d="M442,25v 46" fill="none" stroke="black"/>
<text x="447" y="28" fill="black" font-size="4" font-family="Helvetica">
Entries 
</text>
<text x="538" y="28" fill="black" font-size="4" font-family="Helvetica">
 32555
</text>
<text x="450" y="34" fill="black" font-size="4" font-family="Helvetica">
 / ndf 
</text>
<text x="449" y="30" fill="black" font-size="3" font-family="Helvetica">
2
</text>
<text x="447" y="34" fill="black" font-size="4" font-family="Times">
&#0967;
</text>
<text x="526" y="33" fill="black" font-size="4" font-family="Helvetica">
  8407 / 1239
</text>
<text x="452" y="36" fill="black" font-size="4" font-family="Helvetica">
   
</text>
<text x="450" y="39" fill="black" font-size="3" font-family="Helvetica">
cu
</text>
<text x="447" y="36" fill="black" font-size="4" font-family="Helvetica">
N
</text>
<text x="539" y="38" fill="black" font-size="4" font-family="Helvetica">
 478.4
</text>
<text x="537" y="38" fill="black" font-size="4" font-family="Times">
&#0177;
</text>
<text x="526" y="38" fill="black" font-size="4" font-family="Helvetica">
  35.5 
</text>
<text x="450" y="41" fill="black" font-size="4" font-family="Helvetica">
 
</text>
<text x="448" y="45" fill="black" font-size="3" font-family="Helvetica">
cu
</text>
<text x="447" y="41" fill="black" font-size="4" font-family="Times">
&#0964;
</text>
<text x="529" y="43" fill="black" font-size="4" font-family="Helvetica">
 4596.8789
</text>
<text x="527" y="43" fill="black" font-size="4" font-family="Times">
&#0177;
</text>
<text x="512" y="43" fill="black" font-size="4" font-family="Helvetica">
 0.2133 
</text>
<text x="450" y="45" fill="black" font-size="4" font-family="Helvetica">
    
</text>
<text x="450" y="49" fill="black" font-size="3" font-family="Helvetica">
f
</text>
<text x="447" y="45" fill="black" font-size="4" font-family="Helvetica">
N
</text>
<text x="541" y="48" fill="black" font-size="4" font-family="Helvetica">
 0.75
</text>
<text x="538" y="48" fill="black" font-size="4" font-family="Times">
&#0177;
</text>
<text x="526" y="48" fill="black" font-size="4" font-family="Helvetica">
 50.31 
</text>
<text x="448" y="50" fill="black" font-size="4" font-family="Helvetica">
 
</text>
<text x="448" y="53" fill="black" font-size="3" font-family="Helvetica">
f
</text>
<text x="447" y="50" fill="black" font-size="4" font-family="Times">
&#0964;
</text>
<text x="543" y="52" fill="black" font-size="4" font-family="Helvetica">
 0.0
</text>
<text x="541" y="52" fill="black" font-size="4" font-family="Times">
&#0177;
</text>
<text x="529" y="52" fill="black" font-size="4" font-family="Helvetica">
  2197 
</text>
<text x="452" y="54" fill="black" font-size="4" font-family="Helvetica">
  
</text>
<text x="450" y="58" fill="black" font-size="3" font-family="Helvetica">
sin
</text>
<text x="447" y="54" fill="black" font-size="4" font-family="Helvetica">
N
</text>
<text x="539" y="57" fill="black" font-size="4" font-family="Helvetica">
 0.148
</text>
<text x="537" y="57" fill="black" font-size="4" font-family="Times">
&#0177;
</text>
<text x="525" y="57" fill="black" font-size="4" font-family="Helvetica">
 2.626 
</text>
<text x="448" y="62" fill="black" font-size="4" font-family="Helvetica">
     
</text>
<text x="447" y="62" fill="black" font-size="4" font-family="Times">
&#0966;
</text>
<text x="539" y="62" fill="black" font-size="4" font-family="Helvetica">
 0.557
</text>
<text x="537" y="62" fill="black" font-size="4" font-family="Times">
&#0177;
</text>
<text x="525" y="62" fill="black" font-size="4" font-family="Helvetica">
 5.028 
</text>
<text x="447" y="65" fill="black" font-size="4" font-family="Helvetica">
T        
</text>
<text x="541" y="66" fill="black" font-size="4" font-family="Helvetica">
 0.00
</text>
<text x="538" y="66" fill="black" font-size="4" font-family="Times">
&#0177;
</text>
<text x="526" y="66" fill="black" font-size="4" font-family="Helvetica">
 59.37 
</text>
<text x="450" y="68" fill="black" font-size="4" font-family="Helvetica">
    
</text>
<text x="450" y="71" fill="black" font-size="3" font-family="Helvetica">
b
</text>
<text x="447" y="68" fill="black" font-size="4" font-family="Helvetica">
N
</text>
<text x="539" y="71" fill="black" font-size="4" font-family="Helvetica">
 0.095
</text>
<text x="537" y="71" fill="black" font-size="4" font-family="Times">
&#0177;
</text>
<text x="525" y="71" fill="black" font-size="4" font-family="Helvetica">
 9.198 
</text>
<path d="M284,277v 4" fill="none" stroke="#ff0000" stroke-width="2"/>
<path d="M285,276v 6" fill="none" stroke="#ff0000" stroke-width="2"/>
<path d="M285,277v 7" fill="none" stroke="#ff0000" stroke-width="2"/>
<path d="M286,280v 6" fill="none" stroke="#ff0000" stroke-width="2"/>
<path d="M287,282v 6" fill="none" stroke="#ff0000" stroke-width="2"/>
<path d="M288,282v 8" fill="none" stroke="#ff0000" stroke-width="2"/>
<path d="M289,284v 7" fill="none" stroke="#ff0000" stroke-width="2"/>
<path d="M289,286v 6" fill="none" stroke="#ff0000" stroke-width="2"/>
<path d="M290,288v 7" fill="none" stroke="#ff0000" stroke-width="2"/>
<path d="M291,289v 6" fill="none" stroke="#ff0000" stroke-width="2"/>
<path d="M292,290v 7" fill="none" stroke="#ff0000" stroke-width="2"/>
<path d="M293,291v 7" fill="none" stroke="#ff0000" stroke-width="2"/>
<path d="M293,294v 5" fill="none" stroke="#ff0000" stroke-width="2"/>
<path d="M294,295v 6" fill="none" stroke="#ff0000" stroke-width="2"/>
<path d="M295,295v 7" fill="none" stroke="#ff0000" stroke-width="2"/>
<path d="M296,296v 7" fill="none" stroke="#ff0000" stroke-width="2"/>
<path d="M297,298v 6" fill="none" stroke="#ff0000" stroke-width="2"/>
<path d="M298,299v 6" fill="none" stroke="#ff0000" stroke-width="2"/>
<path d="M298,300v 7" fill="none" stroke="#ff0000" stroke-width="2"/>
<path d="M299,301v 7" fill="none" stroke="#ff0000" stroke-width="2"/>
<path d="M300,302v 6" fill="none" stroke="#ff0000" stroke-width="2"/>
<path d="M301,303v 6" fill="none" stroke="#ff0000" stroke-width="2"/>
<path d="M302,304v 7" fill="none" stroke="#ff0000" stroke-width="2"/>
<path d="M302,305v 7" fill="none" stroke="#ff0000" stroke-width="2"/>
<path d="M303,306v 6" fill="none" stroke="#ff0000" stroke-width="2"/>
<path d="M304,306v 7" fill="none" stroke="#ff0000" stroke-width="2"/>
<path d="M305,308v 5" fill="none" stroke="#ff0000" stroke-width="2"/>
<path d="M306,308v 7" fill="none" stroke="#ff0000" stroke-width="2"/>
<path d="M307,309v 7" fill="none" stroke="#ff0000" stroke-width="2"/>
<path d="M307,309v 7" fill="none" stroke="#ff0000" stroke-width="2"/>
<path d="M308,310v 7" fill="none" stroke="#ff0000" stroke-width="2"/>
<path d="M309,312v 5" fill="none" stroke="#ff0000" stroke-width="2"/>
<path d="M310,312v 6" fill="none" stroke="#ff0000" stroke-width="2"/>
<path d="M311,313v 6" fill="none" stroke="#ff0000" stroke-width="2"/>
<path d="M311,313v 6" fill="none" stroke="#ff0000" stroke-width="2"/>
<path d="M312,313v 7" fill="none" stroke="#ff0000" stroke-width="2"/>
<path d="M313,314v 7" fill="none" stroke="#ff0000" stroke-width="2"/>
<path d="M314,315v 6" fill="none" stroke="#ff0000" stroke-width="2"/>
<path d="M315,316v 5" fill="none" stroke="#ff0000" stroke-width="2"/>
<path d="M315,316v 6" fill="none" stroke="#ff0000" stroke-width="2"/>
<path d="M316,317v 5" fill="none" stroke="#ff0000" stroke-width="2"/>
<path d="M317,317v 6" fill="none" stroke="#ff0000" stroke-width="2"/>
<path d="M318,317v 7" fill="none" stroke="#ff0000" stroke-width="2"/>
<path d="M319,318v 6" fill="none" stroke="#ff0000" stroke-width="2"/>
<path d="M320,318v 7" fill="none" stroke="#ff0000" stroke-width="2"/>
<path d="M320,319v 6" fill="none" stroke="#ff0000" stroke-width="2"/>
<path d="M321,319v 7" fill="none" stroke="#ff0000" stroke-width="2"/>
<path d="M322,320v 6" fill="none" stroke="#ff0000" stroke-width="2"/>
<path d="M323,320v 6" fill="none" stroke="#ff0000" stroke-width="2"/>
<path d="M324,321v 5" fill="none" stroke="#ff0000" stroke-width="2"/>
<path d="M324,321v 6" fill="none" stroke="#ff0000" stroke-width="2"/>
<path d="M325,321v 7" fill="none" stroke="#ff0000" stroke-width="2"/>
<path d="M326,321v 7" fill="none" stroke="#ff0000" stroke-width="2"/>
<path d="M327,322v 6" fill="none" stroke="#ff0000" stroke-width="2"/>
<path d="M328,322v 7" fill="none" stroke="#ff0000" stroke-width="2"/>
<path d="M329,323v 6" fill="none" stroke="#ff0000" stroke-width="2"/>
<path d="M329,323v 7" fill="none" stroke="#ff0000" stroke-width="2"/>
<path d="M330,323v 7" fill="none" stroke="#ff0000" stroke-width="2"/>
<path d="M331,323v 7" fill="none" stroke="#ff0000" stroke-width="2"/>
<path d="M332,324v 6" fill="none" stroke="#ff0000" stroke-width="2"/>
<path d="M333,324v 6" fill="none" stroke="#ff0000" stroke-width="2"/>
<path d="M333,325v 5" fill="none" stroke="#ff0000" stroke-width="2"/>
<path d="M334,325v 5" fill="none" stroke="#ff0000" stroke-width="2"/>
<path d="M335,325v 6" fill="none" stroke="#ff0000" stroke-width="2"/>
<path d="M336,326v 5" fill="none" stroke="#ff0000" stroke-width="2"/>
<path d="M337,326v 5" fill="none" stroke="#ff0000" stroke-width="2"/>
<path d="M337,326v 6" fill="none" stroke="#ff0000" stroke-width="2"/>
<path d="M338,326v 6" fill="none" stroke="#ff0000" stroke-width="2"/>
<path d="M339,326v 6" fill="none" stroke="#ff0000" stroke-width="2"/>
<path d="M340,326v 6" fill="none" stroke="#ff0000" stroke-width="2"/>
<path d="M341,326v 7" fill="none" stroke="#ff0000" stroke-width="2"/>
<path d="M342,326v 7" fill="none" stroke="#ff0000" stroke-width="2"/>
<path d="M342,326v 7" fill="none" stroke="#ff0000" stroke-width="2"/>
<path d="M343,327v 6" fill="none" stroke="#ff0000" stroke-width="2"/>
<path d="M344,327v 6" fill="none" stroke="#ff0000" stroke-width="2"/>
<path d="M345,327v 7" fill="none" stroke="#ff0000" stroke-width="2"/>
<path d="M346,327v 7" fill="none" stroke="#ff0000" stroke-width="2"/>
<path d="M346,327v 7" fill="none" stroke="#ff0000" stroke-width="2"/>
<path d="M347,328v 6" fill="none" stroke="#ff0000" stroke-width="2"/>
<path d="M348,328v 6" fill="none" stroke="#ff0000" stroke-width="2"/>
<path d="M349,328v 6" fill="none" stroke="#ff0000" stroke-width="2"/>
<path d="M350,328v 6" fill="none" stroke="#ff0000" stroke-width="2"/>
<path d="M351,328v 6" fill="none" stroke="#ff0000" stroke-width="2"/>
<path d="M351,329v 5" fill="none" stroke="#ff0000" stroke-width="2"/>
<path d="M352,329v 5" fill="none" stroke="#ff0000" stroke-width="2"/>
<path d="M353,329v 5" fill="none" stroke="#ff0000" stroke-width="2"/>
<path d="M354,329v 6" fill="none" stroke="#ff0000" stroke-width="2"/>
<path d="M355,329v 6" fill="none" stroke="#ff0000" stroke-width="2"/>
<path d="M355,329v 6" fill="none" stroke="#ff0000" stroke-width="2"/>
<path d="M356,329v 6" fill="none" stroke="#ff0000" stroke-width="2"/>
<path d="M357,329v 6" fill="none" stroke="#ff0000" stroke-width="2"/>
<path d="M358,330v 5" fill="none" stroke="#ff0000" stroke-width="2"/>
<path d="M359,330v 5" fill="none" stroke="#ff0000" stroke-width="2"/>
<path d="M359,330v 5" fill="none" stroke="#ff0000" stroke-width="2"/>
<path d="M360,330v 6" fill="none" stroke="#ff0000" stroke-width="2"/>
<path d="M361,330v 6" fill="none" stroke="#ff0000" stroke-width="2"/>
<path d="M362,330v 6" fill="none" stroke="#ff0000" stroke-width="2"/>
<path d="M363,330v 6" fill="none" stroke="#ff0000" stroke-width="2"/>
<path d="M364,330v 6" fill="none" stroke="#ff0000" stroke-width="2"/>
<path d="M364,330v 6" fill="none" stroke="#ff0000" stroke-width="2"/>
<path d="M365,330v 6" fill="none" stroke="#ff0000" stroke-width="2"/>
<path d="M366,330v 6" fill="none" stroke="#ff0000" stroke-width="2"/>
<path d="M367,330v 6" fill="none" stroke="#ff0000" stroke-width="2"/>
<path d="M368,330v 6" fill="none" stroke="#ff0000" stroke-width="2"/>
<path d="M368,330v 6" fill="none" stroke="#ff0000" stroke-width="2"/>
<path d="M369,330v 6" fill="none" stroke="#ff0000" stroke-width="2"/>
<path d="M370,330v 7" fill="none" stroke="#ff0000" stroke-width="2"/>
<path d="M371,330v 7" fill="none" stroke="#ff0000" stroke-width="2"/>
<path d="M372,330v 7" fill="none" stroke="#ff0000" stroke-width="2"/>
<path d="M372,330v 7" fill="none" stroke="#ff0000" stroke-width="2"/>
<path d="M373,330v 7" fill="none" stroke="#ff0000" stroke-width="2"/>
<path d="M374,330v 7" fill="none" stroke="#ff0000" stroke-width="2"/>
<path d="M375,330v 7" fill="none" stroke="#ff0000" stroke-width="2"/>
<path d="M376,330v 7" fill="none" stroke="#ff0000" stroke-width="2"/>
<path d="M377,331v 6" fill="none" stroke="#ff0000" stroke-width="2"/>
<path d="M377,331v 6" fill="none" stroke="#ff0000" stroke-width="2"/>
<path d="M378,331v 6" fill="none" stroke="#ff0000" stroke-width="2"/>
<path d="M379,331v 6" fill="none" stroke="#ff0000" stroke-width="2"/>
<path d="M380,331v 6" fill="none" stroke="#ff0000" stroke-width="2"/>
<path d="M381,331v 6" fill="none" stroke="#ff0000" stroke-width="2"/>
<path d="M381,331v 6" fill="none" stroke="#ff0000" stroke-width="2"/>
<path d="M382,331v 6" fill="none" stroke="#ff0000" stroke-width="2"/>
<path d="M383,331v 6" fill="none" stroke="#ff0000" stroke-width="2"/>
<path d="M384,331v 6" fill="none" stroke="#ff0000" stroke-width="2"/>
<path d="M385,331v 7" fill="none" stroke="#ff0000" stroke-width="2"/>
<path d="M386,331v 7" fill="none" stroke="#ff0000" stroke-width="2"/>
<path d="M386,331v 7" fill="none" stroke="#ff0000" stroke-width="2"/>
<path d="M387,331v 7" fill="none" stroke="#ff0000" stroke-width="2"/>
<path d="M388,331v 7" fill="none" stroke="#ff0000" stroke-width="2"/>
<path d="M389,331v 7" fill="none" stroke="#ff0000" stroke-width="2"/>
<path d="M390,331v 7" fill="none" stroke="#ff0000" stroke-width="2"/>
<path d="M390,331v 7" fill="none" stroke="#ff0000" stroke-width="2"/>
<path d="M391,331v 7" fill="none" stroke="#ff0000" stroke-width="2"/>
<path d="M392,331v 7" fill="none" stroke="#ff0000" stroke-width="2"/>
<path d="M393,331v 7" fill="none" stroke="#ff0000" stroke-width="2"/>
<path d="M394,331v 7" fill="none" stroke="#ff0000" stroke-width="2"/>
<path d="M394,331v 7" fill="none" stroke="#ff0000" stroke-width="2"/>
<path d="M395,331v 7" fill="none" stroke="#ff0000" stroke-width="2"/>
<path d="M396,331v 7" fill="none" stroke="#ff0000" stroke-width="2"/>
<path d="M397,331v 7" fill="none" stroke="#ff0000" stroke-width="2"/>
<path d="M398,332v 6" fill="none" stroke="#ff0000" stroke-width="2"/>
<path d="M399,332v 6" fill="none" stroke="#ff0000" stroke-width="2"/>
<path d="M399,332v 6" fill="none" stroke="#ff0000" stroke-width="2"/>
<path d="M400,332v 6" fill="none" stroke="#ff0000" stroke-width="2"/>
<path d="M401,332v 6" fill="none" stroke="#ff0000" stroke-width="2"/>
<path d="M402,332v 6" fill="none" stroke="#ff0000" stroke-width="2"/>
<path d="M403,332v 6" fill="none" stroke="#ff0000" stroke-width="2"/>
<path d="M403,332v 6" fill="none" stroke="#ff0000" stroke-width="2"/>
<path d="M404,332v 6" fill="none" stroke="#ff0000" stroke-width="2"/>
<path d="M405,332v 6" fill="none" stroke="#ff0000" stroke-width="2"/>
<path d="M406,332v 6" fill="none" stroke="#ff0000" stroke-width="2"/>
<path d="M407,332v 6" fill="none" stroke="#ff0000" stroke-width="2"/>
<path d="M408,332v 6" fill="none" stroke="#ff0000" stroke-width="2"/>
<path d="M408,332v 6" fill="none" stroke="#ff0000" stroke-width="2"/>
<path d="M409,332v 6" fill="none" stroke="#ff0000" stroke-width="2"/>
<path d="M410,332v 6" fill="none" stroke="#ff0000" stroke-width="2"/>
<path d="M411,332v 6" fill="none" stroke="#ff0000" stroke-width="2"/>
<path d="M412,332v 6" fill="none" stroke="#ff0000" stroke-width="2"/>
<path d="M412,332v 6" fill="none" stroke="#ff0000" stroke-width="2"/>
<path d="M413,332v 6" fill="none" stroke="#ff0000" stroke-width="2"/>
<path d="M414,332v 6" fill="none" stroke="#ff0000" stroke-width="2"/>
<path d="M415,332v 6" fill="none" stroke="#ff0000" stroke-width="2"/>
<path d="M416,332v 6" fill="none" stroke="#ff0000" stroke-width="2"/>
<path d="M416,332v 6" fill="none" stroke="#ff0000" stroke-width="2"/>
<path d="M417,332v 6" fill="none" stroke="#ff0000" stroke-width="2"/>
<path d="M418,332v 6" fill="none" stroke="#ff0000" stroke-width="2"/>
<path d="M419,332v 6" fill="none" stroke="#ff0000" stroke-width="2"/>
<path d="M420,332v 6" fill="none" stroke="#ff0000" stroke-width="2"/>
<path d="M421,332v 6" fill="none" stroke="#ff0000" stroke-width="2"/>
<path d="M421,332v 6" fill="none" stroke="#ff0000" stroke-width="2"/>
<path d="M422,332v 6" fill="none" stroke="#ff0000" stroke-width="2"/>
<path d="M423,332v 6" fill="none" stroke="#ff0000" stroke-width="2"/>
<path d="M424,332v 7" fill="none" stroke="#ff0000" stroke-width="2"/>
<path d="M425,332v 7" fill="none" stroke="#ff0000" stroke-width="2"/>
<path d="M425,332v 7" fill="none" stroke="#ff0000" stroke-width="2"/>
<path d="M426,332v 7" fill="none" stroke="#ff0000" stroke-width="2"/>
<path d="M427,332v 7" fill="none" stroke="#ff0000" stroke-width="2"/>
<path d="M428,332v 7" fill="none" stroke="#ff0000" stroke-width="2"/>
<path d="M429,332v 7" fill="none" stroke="#ff0000" stroke-width="2"/>
<path d="M430,332v 7" fill="none" stroke="#ff0000" stroke-width="2"/>
<path d="M430,332v 7" fill="none" stroke="#ff0000" stroke-width="2"/>
<path d="M431,332v 7" fill="none" stroke="#ff0000" stroke-width="2"/>
<path d="M432,332v 7" fill="none" stroke="#ff0000" stroke-width="2"/>
<path d="M433,332v 7" fill="none" stroke="#ff0000" stroke-width="2"/>
<path d="M434,332v 7" fill="none" stroke="#ff0000" stroke-width="2"/>
<path d="M434,332v 7" fill="none" stroke="#ff0000" stroke-width="2"/>
<path d="M435,332v 7" fill="none" stroke="#ff0000" stroke-width="2"/>
<path d="M436,332v 7" fill="none" stroke="#ff0000" stroke-width="2"/>
<path d="M437,332v 7" fill="none" stroke="#ff0000" stroke-width="2"/>
<path d="M438,332v 7" fill="none" stroke="#ff0000" stroke-width="2"/>
<path d="M438,332v 7" fill="none" stroke="#ff0000" stroke-width="2"/>
<path d="M439,332v 7" fill="none" stroke="#ff0000" stroke-width="2"/>
<path d="M440,332v 7" fill="none" stroke="#ff0000" stroke-width="2"/>
<path d="M441,332v 7" fill="none" stroke="#ff0000" stroke-width="2"/>
<path d="M442,332v 7" fill="none" stroke="#ff0000" stroke-width="2"/>
<path d="M443,332v 7" fill="none" stroke="#ff0000" stroke-width="2"/>
<path d="M443,332v 7" fill="none" stroke="#ff0000" stroke-width="2"/>
<path d="M444,332v 7" fill="none" stroke="#ff0000" stroke-width="2"/>
<path d="M445,332v 7" fill="none" stroke="#ff0000" stroke-width="2"/>
<path d="M446,332v 7" fill="none" stroke="#ff0000" stroke-width="2"/>
<path d="M447,332v 7" fill="none" stroke="#ff0000" stroke-width="2"/>
<path d="M447,332v 7" fill="none" stroke="#ff0000" stroke-width="2"/>
<path d="M448,332v 7" fill="none" stroke="#ff0000" stroke-width="2"/>
<path d="M449,332v 7" fill="none" stroke="#ff0000" stroke-width="2"/>
<path d="M450,332v 7" fill="none" stroke="#ff0000" stroke-width="2"/>
<path d="M451,332v 7" fill="none" stroke="#ff0000" stroke-width="2"/>
<path d="M452,332v 7" fill="none" stroke="#ff0000" stroke-width="2"/>
<path d="M452,332v 7" fill="none" stroke="#ff0000" stroke-width="2"/>
<path d="M453,332v 7" fill="none" stroke="#ff0000" stroke-width="2"/>
<path d="M454,332v 7" fill="none" stroke="#ff0000" stroke-width="2"/>
<path d="M455,332v 7" fill="none" stroke="#ff0000" stroke-width="2"/>
<path d="M456,332v 7" fill="none" stroke="#ff0000" stroke-width="2"/>
<path d="M456,332v 7" fill="none" stroke="#ff0000" stroke-width="2"/>
<path d="M457,332v 7" fill="none" stroke="#ff0000" stroke-width="2"/>
<path d="M458,332v 7" fill="none" stroke="#ff0000" stroke-width="2"/>
<path d="M459,332v 7" fill="none" stroke="#ff0000" stroke-width="2"/>
<path d="M460,332v 7" fill="none" stroke="#ff0000" stroke-width="2"/>
<path d="M460,332v 7" fill="none" stroke="#ff0000" stroke-width="2"/>
<path d="M461,332v 7" fill="none" stroke="#ff0000" stroke-width="2"/>
<path d="M462,332v 7" fill="none" stroke="#ff0000" stroke-width="2"/>
<path d="M463,332v 7" fill="none" stroke="#ff0000" stroke-width="2"/>
<path d="M464,332v 7" fill="none" stroke="#ff0000" stroke-width="2"/>
<path d="M465,332v 7" fill="none" stroke="#ff0000" stroke-width="2"/>
<path d="M465,332v 7" fill="none" stroke="#ff0000" stroke-width="2"/>
<path d="M466,332v 7" fill="none" stroke="#ff0000" stroke-width="2"/>
<path d="M467,332v 7" fill="none" stroke="#ff0000" stroke-width="2"/>
<path d="M468,332v 7" fill="none" stroke="#ff0000" stroke-width="2"/>
<path d="M469,332v 7" fill="none" stroke="#ff0000" stroke-width="2"/>
<path d="M469,332v 7" fill="none" stroke="#ff0000" stroke-width="2"/>
<path d="M470,332v 7" fill="none" stroke="#ff0000" stroke-width="2"/>
<path d="M471,332v 7" fill="none" stroke="#ff0000" stroke-width="2"/>
<path d="M472,332v 7" fill="none" stroke="#ff0000" stroke-width="2"/>
<path d="M473,332v 7" fill="none" stroke="#ff0000" stroke-width="2"/>
<path d="M473,332v 7" fill="none" stroke="#ff0000" stroke-width="2"/>
<path d="M474,332v 7" fill="none" stroke="#ff0000" stroke-width="2"/>
<path d="M475,332v 7" fill="none" stroke="#ff0000" stroke-width="2"/>
<path d="M476,332v 7" fill="none" stroke="#ff0000" stroke-width="2"/>
<path d="M477,332v 7" fill="none" stroke="#ff0000" stroke-width="2"/>
<path d="M478,332v 7" fill="none" stroke="#ff0000" stroke-width="2"/>
<path d="M478,332v 7" fill="none" stroke="#ff0000" stroke-width="2"/>
<path d="M479,332v 7" fill="none" stroke="#ff0000" stroke-width="2"/>
<path d="M480,332v 7" fill="none" stroke="#ff0000" stroke-width="2"/>
<path d="M481,332v 7" fill="none" stroke="#ff0000" stroke-width="2"/>
<path d="M482,332v 7" fill="none" stroke="#ff0000" stroke-width="2"/>
<path d="M482,332v 7" fill="none" stroke="#ff0000" stroke-width="2"/>
<path d="M483,332v 7" fill="none" stroke="#ff0000" stroke-width="2"/>
<path d="M484,332v 7" fill="none" stroke="#ff0000" stroke-width="2"/>
<path d="M485,332v 7" fill="none" stroke="#ff0000" stroke-width="2"/>
<path d="M486,332v 7" fill="none" stroke="#ff0000" stroke-width="2"/>
<path d="M487,332v 7" fill="none" stroke="#ff0000" stroke-width="2"/>
<path d="M487,332v 7" fill="none" stroke="#ff0000" stroke-width="2"/>
<path d="M488,332v 7" fill="none" stroke="#ff0000" stroke-width="2"/>
<path d="M489,332v 7" fill="none" stroke="#ff0000" stroke-width="2"/>
<path d="M490,332v 7" fill="none" stroke="#ff0000" stroke-width="2"/>
<path d="M491,332v 7" fill="none" stroke="#ff0000" stroke-width="2"/>
<path d="M491,332v 7" fill="none" stroke="#ff0000" stroke-width="2"/>
<path d="M492,332v 7" fill="none" stroke="#ff0000" stroke-width="2"/>
<path d="M493,332v 7" fill="none" stroke="#ff0000" stroke-width="2"/>
<path d="M494,332v 7" fill="none" stroke="#ff0000" stroke-width="2"/>
<path d="M495,332v 7" fill="none" stroke="#ff0000" stroke-width="2"/>
<path d="M495,332v 7" fill="none" stroke="#ff0000" stroke-width="2"/>
<path d="M496,332v 7" fill="none" stroke="#ff0000" stroke-width="2"/>
<path d="M497,332v 7" fill="none" stroke="#ff0000" stroke-width="2"/>
<path d="M498,332v 7" fill="none" stroke="#ff0000" stroke-width="2"/>
<path d="M499,332v 7" fill="none" stroke="#ff0000" stroke-width="2"/>
<path d="M500,332v 7" fill="none" stroke="#ff0000" stroke-width="2"/>
<path d="M500,332v 7" fill="none" stroke="#ff0000" stroke-width="2"/>
<path d="M501,332v 7" fill="none" stroke="#ff0000" stroke-width="2"/>
<path d="M502,332v 7" fill="none" stroke="#ff0000" stroke-width="2"/>
<path d="M503,332v 7" fill="none" stroke="#ff0000" stroke-width="2"/>
<path d="M504,332v 7" fill="none" stroke="#ff0000" stroke-width="2"/>
<path d="M504,332v 7" fill="none" stroke="#ff0000" stroke-width="2"/>
<path d="M505,332v 7" fill="none" stroke="#ff0000" stroke-width="2"/>
<path d="M506,332v 7" fill="none" stroke="#ff0000" stroke-width="2"/>
<path d="M507,332v 7" fill="none" stroke="#ff0000" stroke-width="2"/>
<path d="M508,332v 7" fill="none" stroke="#ff0000" stroke-width="2"/>
<path d="M509,332v 7" fill="none" stroke="#ff0000" stroke-width="2"/>
<path d="M509,332v 7" fill="none" stroke="#ff0000" stroke-width="2"/>
<path d="M510,333v 6" fill="none" stroke="#ff0000" stroke-width="2"/>
<path d="M284,278l 1, 1v 2l 1, 2l 1, 2l 1, 1l 1, 1v 2l 1, 2l 1, 1l 1, 1l 1, 2v 1l 1, 2l 1, 1h 1l 1, 2l 1, 1v 2h 1l 1, 1l 1, 1l 1, 2h 1l 1, 1l 1, 1l 1, 2l 1, 1h 1l 1, 1l 1, 1l 1, 1l 1, 1h 1l 1, 1h 1v 1h 1l 1, 1l 1, 1h 2l 1, 1l 1, 1h 2v 1l 1, 1h 2l 1,
 1h 4l 1, 1h 1l 1, 1h 2v 1h 3l 1, 1h 7l 1, 1h 4l 1, 1h 5l 1, 1h 9l 1, 1h 53l 1, 1h 86" fill="none" stroke="#ff0000" stroke-width="2"/>
<path d="M57,346h 453" fill="none" stroke="black"/>
<text x="419" y="372" fill="black" font-size="12" font-family="Helvetica">
TDC-TDC0 (ns)
</text>
<path d="M57,337v 9" fill="none" stroke="black"/>
<path d="M68,342v 4" fill="none" stroke="black"/>
<path d="M79,342v 4" fill="none" stroke="black"/>
<path d="M91,342v 4" fill="none" stroke="black"/>
<path d="M102,342v 4" fill="none" stroke="black"/>
<path d="M113,337v 9" fill="none" stroke="black"/>
<path d="M125,342v 4" fill="none" stroke="black"/>
<path d="M136,342v 4" fill="none" stroke="black"/>
<path d="M147,342v 4" fill="none" stroke="black"/>
<path d="M159,342v 4" fill="none" stroke="black"/>
<path d="M170,337v 9" fill="none" stroke="black"/>
<path d="M181,342v 4" fill="none" stroke="black"/>
<path d="M193,342v 4" fill="none" stroke="black"/>
<path d="M204,342v 4" fill="none" stroke="black"/>
<path d="M215,342v 4" fill="none" stroke="black"/>
<path d="M227,337v 9" fill="none" stroke="black"/>
<path d="M238,342v 4" fill="none" stroke="black"/>
<path d="M249,342v 4" fill="none" stroke="black"/>
<path d="M261,342v 4" fill="none" stroke="black"/>
<path d="M272,342v 4" fill="none" stroke="black"/>
<path d="M283,337v 9" fill="none" stroke="black"/>
<path d="M295,342v 4" fill="none" stroke="black"/>
<path d="M306,342v 4" fill="none" stroke="black"/>
<path d="M317,342v 4" fill="none" stroke="black"/>
<path d="M329,342v 4" fill="none" stroke="black"/>
<path d="M340,337v 9" fill="none" stroke="black"/>
<path d="M351,342v 4" fill="none" stroke="black"/>
<path d="M363,342v 4" fill="none" stroke="black"/>
<path d="M374,342v 4" fill="none" stroke="black"/>
<path d="M386,342v 4" fill="none" stroke="black"/>
<path d="M397,337v 9" fill="none" stroke="black"/>
<path d="M408,342v 4" fill="none" stroke="black"/>
<path d="M420,342v 4" fill="none" stroke="black"/>
<path d="M431,342v 4" fill="none" stroke="black"/>
<path d="M442,342v 4" fill="none" stroke="black"/>
<path d="M454,337v 9" fill="none" stroke="black"/>
<path d="M465,342v 4" fill="none" stroke="black"/>
<path d="M476,342v 4" fill="none" stroke="black"/>
<path d="M488,342v 4" fill="none" stroke="black"/>
<path d="M499,342v 4" fill="none" stroke="black"/>
<path d="M510,337v 9" fill="none" stroke="black"/>
<text x="36" y="359" fill="black" font-size="12" font-family="Helvetica">
-20000
</text>
<text x="93" y="359" fill="black" font-size="12" font-family="Helvetica">
-15000
</text>
<text x="149" y="359" fill="black" font-size="12" font-family="Helvetica">
-10000
</text>
<text x="210" y="359" fill="black" font-size="12" font-family="Helvetica">
-5000
</text>
<text x="280" y="359" fill="black" font-size="12" font-family="Helvetica">
0
</text>
<text x="325" y="359" fill="black" font-size="12" font-family="Helvetica">
5000
</text>
<text x="379" y="359" fill="black" font-size="12" font-family="Helvetica">
10000
</text>
<text x="435" y="359" fill="black" font-size="12" font-family="Helvetica">
15000
</text>
<text x="492" y="359" fill="black" font-size="12" font-family="Helvetica">
20000
</text>
<path d="M57,346v -308" fill="none" stroke="black"/>
<g transform="rotate(-90,29,72)">
<text x="29" y="72" fill="black" font-size="12" font-family="Helvetica">
Count
</text>
</g>
<path d="M70,346h -13" fill="none" stroke="black"/>
<path d="M63,335h -6" fill="none" stroke="black"/>
<path d="M63,323h -6" fill="none" stroke="black"/>
<path d="M63,311h -6" fill="none" stroke="black"/>
<path d="M63,300h -6" fill="none" stroke="black"/>
<path d="M70,288h -13" fill="none" stroke="black"/>
<path d="M63,276h -6" fill="none" stroke="black"/>
<path d="M63,265h -6" fill="none" stroke="black"/>
<path d="M63,253h -6" fill="none" stroke="black"/>
<path d="M63,241h -6" fill="none" stroke="black"/>
<path d="M70,230h -13" fill="none" stroke="black"/>
<path d="M63,218h -6" fill="none" stroke="black"/>
<path d="M63,206h -6" fill="none" stroke="black"/>
<path d="M63,194h -6" fill="none" stroke="black"/>
<path d="M63,183h -6" fill="none" stroke="black"/>
<path d="M70,171h -13" fill="none" stroke="black"/>
<path d="M63,159h -6" fill="none" stroke="black"/>
<path d="M63,148h -6" fill="none" stroke="black"/>
<path d="M63,136h -6" fill="none" stroke="black"/>
<path d="M63,124h -6" fill="none" stroke="black"/>
<path d="M70,113h -13" fill="none" stroke="black"/>
<path d="M63,101h -6" fill="none" stroke="black"/>
<path d="M63,89h -6" fill="none" stroke="black"/>
<path d="M63,77h -6" fill="none" stroke="black"/>
<path d="M63,66h -6" fill="none" stroke="black"/>
<path d="M70,54h -13" fill="none" stroke="black"/>
<path d="M70,54h -13" fill="none" stroke="black"/>
<path d="M63,42h -6" fill="none" stroke="black"/>
<text x="47" y="350" fill="black" font-size="12" font-family="Helvetica">
0
</text>
<text x="40" y="291" fill="black" font-size="12" font-family="Helvetica">
50
</text>
<text x="33" y="233" fill="black" font-size="12" font-family="Helvetica">
100
</text>
<text x="33" y="175" fill="black" font-size="12" font-family="Helvetica">
150
</text>
<text x="33" y="116" fill="black" font-size="12" font-family="Helvetica">
200
</text>
<text x="33" y="58" fill="black" font-size="12" font-family="Helvetica">
250
</text>
<rect x="442" y="25" width="114" height="46" fill="white"/>
<path d="M442,71h 114" fill="none" stroke="black"/>
<path d="M556,71v -46" fill="none" stroke="black"/>
<path d="M556,25h -114" fill="none" stroke="black"/>
<path d="M442,25v 46" fill="none" stroke="black"/>
<text x="447" y="28" fill="black" font-size="4" font-family="Helvetica">
Entries 
</text>
<text x="538" y="28" fill="black" font-size="4" font-family="Helvetica">
 32555
</text>
<text x="450" y="34" fill="black" font-size="4" font-family="Helvetica">
 / ndf 
</text>
<text x="449" y="30" fill="black" font-size="3" font-family="Helvetica">
2
</text>
<text x="447" y="34" fill="black" font-size="4" font-family="Times">
&#0967;
</text>
<text x="526" y="33" fill="black" font-size="4" font-family="Helvetica">
  8407 / 1239
</text>
<text x="452" y="36" fill="black" font-size="4" font-family="Helvetica">
   
</text>
<text x="450" y="39" fill="black" font-size="3" font-family="Helvetica">
cu
</text>
<text x="447" y="36" fill="black" font-size="4" font-family="Helvetica">
N
</text>
<text x="539" y="38" fill="black" font-size="4" font-family="Helvetica">
 478.4
</text>
<text x="537" y="38" fill="black" font-size="4" font-family="Times">
&#0177;
</text>
<text x="526" y="38" fill="black" font-size="4" font-family="Helvetica">
  35.5 
</text>
<text x="450" y="41" fill="black" font-size="4" font-family="Helvetica">
 
</text>
<text x="448" y="45" fill="black" font-size="3" font-family="Helvetica">
cu
</text>
<text x="447" y="41" fill="black" font-size="4" font-family="Times">
&#0964;
</text>
<text x="529" y="43" fill="black" font-size="4" font-family="Helvetica">
 4596.8789
</text>
<text x="527" y="43" fill="black" font-size="4" font-family="Times">
&#0177;
</text>
<text x="512" y="43" fill="black" font-size="4" font-family="Helvetica">
 0.2133 
</text>
<text x="450" y="45" fill="black" font-size="4" font-family="Helvetica">
    
</text>
<text x="450" y="49" fill="black" font-size="3" font-family="Helvetica">
f
</text>
<text x="447" y="45" fill="black" font-size="4" font-family="Helvetica">
N
</text>
<text x="541" y="48" fill="black" font-size="4" font-family="Helvetica">
 0.75
</text>
<text x="538" y="48" fill="black" font-size="4" font-family="Times">
&#0177;
</text>
<text x="526" y="48" fill="black" font-size="4" font-family="Helvetica">
 50.31 
</text>
<text x="448" y="50" fill="black" font-size="4" font-family="Helvetica">
 
</text>
<text x="448" y="53" fill="black" font-size="3" font-family="Helvetica">
f
</text>
<text x="447" y="50" fill="black" font-size="4" font-family="Times">
&#0964;
</text>
<text x="543" y="52" fill="black" font-size="4" font-family="Helvetica">
 0.0
</text>
<text x="541" y="52" fill="black" font-size="4" font-family="Times">
&#0177;
</text>
<text x="529" y="52" fill="black" font-size="4" font-family="Helvetica">
  2197 
</text>
<text x="452" y="54" fill="black" font-size="4" font-family="Helvetica">
  
</text>
<text x="450" y="58" fill="black" font-size="3" font-family="Helvetica">
sin
</text>
<text x="447" y="54" fill="black" font-size="4" font-family="Helvetica">
N
</text>
<text x="539" y="57" fill="black" font-size="4" font-family="Helvetica">
 0.148
</text>
<text x="537" y="57" fill="black" font-size="4" font-family="Times">
&#0177;
</text>
<text x="525" y="57" fill="black" font-size="4" font-family="Helvetica">
 2.626 
</text>
<text x="448" y="62" fill="black" font-size="4" font-family="Helvetica">
     
</text>
<text x="447" y="62" fill="black" font-size="4" font-family="Times">
&#0966;
</text>
<text x="539" y="62" fill="black" font-size="4" font-family="Helvetica">
 0.557
</text>
<text x="537" y="62" fill="black" font-size="4" font-family="Times">
&#0177;
</text>
<text x="525" y="62" fill="black" font-size="4" font-family="Helvetica">
 5.028 
</text>
<text x="447" y="65" fill="black" font-size="4" font-family="Helvetica">
T        
</text>
<text x="541" y="66" fill="black" font-size="4" font-family="Helvetica">
 0.00
</text>
<text x="538" y="66" fill="black" font-size="4" font-family="Times">
&#0177;
</text>
<text x="526" y="66" fill="black" font-size="4" font-family="Helvetica">
 59.37 
</text>
<text x="450" y="68" fill="black" font-size="4" font-family="Helvetica">
    
</text>
<text x="450" y="71" fill="black" font-size="3" font-family="Helvetica">
b
</text>
<text x="447" y="68" fill="black" font-size="4" font-family="Helvetica">
N
</text>
<text x="539" y="71" fill="black" font-size="4" font-family="Helvetica">
 0.095
</text>
<text x="537" y="71" fill="black" font-size="4" font-family="Times">
&#0177;
</text>
<text x="525" y="71" fill="black" font-size="4" font-family="Helvetica">
 9.198 
</text>
<text x="270" y="21" fill="black" font-size="21" font-family="Helvetica">
D5
</text></svg>
