<?xml version="1.0" standalone="no"?>
<svg width="567" height="385" viewBox="0 0 567 385" xmlns="http://www.w3.org/2000/svg">
<title>
images/analysis_g4bl_loose_f/451_D5.svg
</title>
<desc>
Creator: ROOT Version 5.34/05
CreationDate: Wed Jun 12 17:56:03 2013</desc>
<defs>
</defs>
<rect x="0" y="0" width="567" height="385" fill="white"/>
<rect x="57" y="38" width="453" height="308" fill="white"/>
<rect x="57" y="38" width="453" height="308" fill="none" stroke="black"/>
<rect x="57" y="38" width="453" height="308" fill="white"/>
<rect x="57" y="38" width="453" height="308" fill="none" stroke="black"/>
<path d="M57,346h 46v -7h 1v 7v -27v 20v -7h 1v 14v -34v 20v -20v 20h 1v 7v -7v 14h 1v -20v 20v -27h 1v 27v -27v 27v -14h 1v 7h 1v -27v 20v -6v 13v -7h 1v 7v -20v 27v -27h 1v 27v -27v 27h 1v -20v 13v -13h 1v 20v -27v 27v -7h 1v -7v 7v -7h 1v 7v -13v
 13h 1v -7v 14v -20h 1v 20v -20h 1v -7v 27v -14h 1v -6v 20h 1v -20v 6h 1v 14v -20v 13h 1v -27v 27v -7h 1v 7v -7v 7h 1v 7v -34v 27v -27h 1v 34v -20v 6v -6h 1v 6v -6v 13v -13h 1v 20v -7v 7v -34h 1v 20v -13v 13v -13v 20h 1v -34v 21h 1v 13v -27v 34v -20h
 1v 13v -13h 1v 13v -34h 1v 34v -27v 20h 1v 7v -20v 27v -20h 1v 20v -7v 7h 1v -20v 13v -7v 7v -13h 1v -7v 27v -27h 1v 20v -20v 27v -7h 1v -13v 6v -6h 1v 13v -13v 13h 1v -27v 34v -20v 6h 1v 7v -7v 14h 1v -27v 27v -20v 13h 1v -13v 20v -20v 20h 1v -34v
 20h 1v -6v 13v -13v 13h 1v -13v 20v -27v 20v -13v 6h 1v 7v -27v 34v -7h 1v -13v 20h 1v -20v 20h 1v -20v 20h 1v -41v 34h 1v -27v 27v -13v 13h 1v -13v 20v -27v 13h 1v 7v -13h 1v 20v -20v 6h 1v 14v -27v 13v -13v 7h 1v 20h 1v -34v 27v -13v 20v -20h 1v
 -21v 34v -7h 1v 14v -20v 20v -14v 14v -20h 1v 20v -14v 7h 1v 7v -27v 13v -6h 1v -7v 7v -7v 27h 1v -34v 27v -27h 1v 34v -27v 20h 1v -13v 13v -13h 1v 13v -20v 13v -6h 1v 13v -13v 13v -7h 1v 14v -27h 1v 27v -14v 14v -20h 1v 13v -20v 7h 1v 13v -34v 41v
 -14h 1v 7v -7v 14v -41h 1v 41v -20v 13h 1v -13v 13v -20v 7h 1v 13v -20v 27v -14h 1v -6v 6h 1v 14v -20v 13h 1v -7v 14v -7v 7v -7h 1v -20v 20h 1v -13v 13v -7h 1v 14v -20v 20h 1v -14v 7v -7h 1v -6v 6v -6v 20v -20h 1v 13v -34v 41v -20v 20v -27h 1v 20v
 -27v 34h 1v -20v 20v -20h 1v 6v -20v 14v -7v 20h 1v -20v 27v -27h 1v 27v -7h 1v -7v 7v -20h 1v 20v -7h 1v 7v -13v 13v -7h 1v 14v -14v 14v -7v 7h 1v -20v 20v -20h 1v -7v 20v -34v 34h 1v -20v 20v -13v 13v -13h 1v 13v -13v 20h 1v -27v 20v -20v 7h 1v
 -7v 20v -13v 6h 1v -6v 20v -20h 1v -7v 27v -34v 7h 1v 27v -20v 20h 1v -14v 7h 1v -13v 20v -14v 14v -7h 1v -7v 7v -13v 20h 1v -27v 20v -13v 20v -27v 27h 1v -7v 7v -20h 1v 13v -27v 14h 1v 20v -41h 1v 41v -14v 7v -7h 1v 7v -20v 20v -13h 1v 13v -27v 34v
 -20h 1v 13v -20h 1v 20v -7v 7h 1v -13v 20v -14h 1v 7v -7v 14v -7h 1v -20v 13v -20v 27h 1v -20v 7v -7v 13v -6h 1v 13v -20v 27v -14h 1v -13v 7v -14h 1v 7v -28v 48h 1v -20v 20v -20v 20v -7v 14h 1v -48v 41v -20h 1v 20v -7v 7h 1v 7v -48v 41v -20v 7h 1v
 6v -13v 13h 1v -20v 34v -20h 1v 13v -34h 1v 34v -20v 7h 1v 13v -13v 6h 1v -6v 13v -34h 1v 34v -7v 14v -34v 7h 1v 27v -14v 14v -34h 1v 34v -27h 1v 20v -27v 27v -7h 1v -6v 20v -48v 41h 1v -20v 27v -7h 1v -7h 1v 7v -34v 27h 1v -27v 34v -13v 13h 1v -20v
 27v -34h 1v 20v -13v 7v -7v 20h 1v -13v 6v -41v 28v -21h 1v 41v -48h 1v 41v -27v 27v -6v 13h 1v -34v 34v -20h 1v 13v -6v 13v -13h 1v -7v 20v -20v 20v -13h 1v 6v -6v 6v -20v 20v -6h 1v 13v -41v 41v -27h 1v 34v -20v 6v -6h 1v 13v -7v 14v -20h 1v 13v
 -20v 27v -7v 7h 1v -41v 34v -34h 1v 27v -20v 14h 1v -21v 41v -34v 27h 1v -27v 27v -27h 1v 20v -13v 13v -20h 1v 20v -34v 28h 1v -21v 27v -20h 1v 20v -20v 27v -27h 1v 27v -41v 14v -7h 1v -21v 55v -13h 1v 6v -20v 7h 1v -14v 14h 1v 13v -13v 7v -7v 13h
 1v -27v 27h 1v -55v 55v -13v 13h 1v -27v 27h 1v -20v 20h 1v -20v 14v -21h 1v 27v -13v 20v -27h 1v 7v -28v 21v -7h 1v 27v -41v 35v -21v 21h 1v -35v 21v -49v 56v -14h 1v -7v 28v -21v 7h 1v 7v -21h 1v 14v -63v 42v -14h 1v -49v 14v -14h 1v -175v 42v
 -21v 272h 1v -167h 1v 63v -7v 14v -49v 42h 1v -77v 140v -84v 49h 1v 28v -70v 49h 1v -49v 84v -56h 1v 14v -14v 49h 1v -28v 35v -21v 14h 1v -21v 28v -42v 28v -14h 1v -21v 28v -7v 21h 1v 7v -56v 70v -63v 56h 1v -56v 42v -28h 1v 28v -56v 70v -56v 21h 1v
 28v -21v 41v -20h 1v -21v 28h 1v -21v 21v -14h 1v 7v -63v 63h 1v -14v 21v -42v 28h 1v -14v 41h 1v -20v 14v -28v 21h 1v 20v -62v 49h 1v -42v 28v -21v 28v -28h 1v 35v -14v 20v -13h 1v -28v 21v -7h 1v 7v -7v 27v -55h 1v 49v -21v 21v -28h 1v -7v 28v -7v
 20v -20h 1v 14v -35v 7h 1v 21v -28v 28v -28v 21h 1v -14v 21v -21v 41v -27h 1v 27v -55v 28v -7h 1v 27v -48v 42v -35v 14h 1v 21v -28v 21h 1v 7v -7v 7v -28v 21h 1v -28v 41v -41h 1v 41v -27v 21v -7v 7v -21h 1v 34v -41v 14h 1v 14v -21v 27v -20h 1v -56v
 83v -20h 1v 20v -27v 14v -7h 1v -21v 34v -34v 28v -21h 1v 27v -34v 34h 1v -13v 13v -13v 20v -34h 1v 27v -6v 6v -20v 20h 1v -13v 13v -6v 13v -34h 1v 21v -21v 34v -20h 1v 27v -34h 1v 14v -28v 28h 1v 20v -48h 1v 28v -21v 41h 1v -48v 28v -21v 21h 1v
 -14v 27h 1v -20v 20v -20v 13h 1v 7v -41v 14h 1v 14v -14v 27h 1v -20v 13v -13v 13h 1v 7v -7v 14h 1v -14v 14v -34v 7h 1v 13v -6v 13v -7h 1v -13v 20v -20v 13h 1v -13v 13v -6v 6h 1v -20v 14v -7v 20v -7h 1v -13v 27v -14h 1v 14v -20v 13v -20h 1v 20h 1v
 -27v 27v -34v 14h 1v 13v -6v 20v -20v 6h 1v -6v 6v -20v 20h 1v 14v -20v 13v -13h 1v -28v 34v -6h 1v 20v -14v 14v -20v 6h 1v -20v 27v -20h 1v 27v -14v 7h 1v -20v 27v -14h 1v -20v 27v -20h 1v 27v -34h 1v 14v -7v 27v -7h 1v -13v 6h 1v 7v -20v 13v -6v
 13h 1v -20v 13v -13h 1v 20v -7v 7h 1v -7v 7h 1v -20v 27v -14h 1v -27v 34v -7h 1v 7v -20v 27h 1v -34v 27h 1v -13v 20h 1v -20v 20v -27v 20h 1v -27v 27h 1v -34v 34v -7h 1v 7v -13v 20h 1v -14v 7v -13h 1v 13v -20v 20h 1v 7v -14v 14v -27h 1v -7v 27v -20v
 20h 1v -13v 20h 1v -14v 7v -13v 6h 1v 7v -20v 7h 1v 6v -6v 6v -27v 34h 1v -27v 34h 1v -34v 20h 1v 7v -7v 7h 1v 7v -14v 14v -14v 7h 1v 7v -27v 13h 1v -20v 20v -20v 27h 1v -13v 20v -20h 1v 20v -20v 13v -27h 1v 34v -20v 13h 1v -13v 20v -14v 14h 1v -20v
 6v -6v 20v -27h 1v 27v -20v 13v -7h 1v 7v -20v 20v -7h 1v -20v 27v -13v 6h 1v 14v -34v 20v -6v 20h 1v -20v 13v -20v 20h 1v 7v -20v 20v -7h 1v -7v 14v -14h 1v 14v -14v 7h 1v -13v 13h 1v -13v 13v -20v 27v -14h 1v -13v 27v -14h 1v 7v -13v 13h 1v -27v
 27v -7h 1v 14v -14v 7v -20v 13h 1v -13v 13v -6v 6v -13h 1v -7v 20v -13v 27h 1v -27v 20v -7v 14h 1v -20v 13v -13h 1v 20v -14v 7h 1v -13v 20v -20h 1v -7v 13v -13v 20v -13h 1v -7v 20v -20v 27h 1v -20v 6v -6v 13h 1v -34v 34v -13v 13h 1v -7v 14v -14h 1v
 14v -27h 1v 27v -27v 13v -6h 1v -21v 41v -27v 20h 1v 7v -27v 27h 1v -34v 20v -6v 20v -27h 1v 20v -20v 27v -20h 1v 20v -34h 1v 34v -27v 20h 1v -20v 20v -13h 1v 13v -34v 41h 1v -20v 20v -27h 1v 20v -13v 13h 1v -20v 20v -7v 14v -14h 1v 14v -34v 27h 1v
 -13v 13v -13h 1v 6v -6v 13v -13h 1v -7v 27h 1v -7v 7v -20v 13h 1v -7v 14h 1v -41v 41v -14h 1v -34v 41v -27h 1v 27v -34v 34v -13h 1v 13v -13h 1v 13v -7v 14v -20v 13h 1v 7v -20v 20h 1v -14v 7h 1v -20v 27v -14v 7h 1v -20v 7v -14v 27h 1v -20v 20v -13h
 1v 13v -13v 13v -20v 27h 1v -14v 7v -20v 13h 1v 14v -14v 7v -13v 6v -13h 1v 20v -13v 13h 1v -13v 13v -13v 6v -6h 1v 13h 1v -27v 27v -20v 20v -13h 1v 20v -27v 27h 1v -20v 13v -48v 48h 1v -13v 6v -13v 20h 1v -13v 6v -13v 27h 1v -34v 27v -7h 1v 14v
 -20v 13v -7h 1v -13v 27v -7h 1v -27v 34v -34v 27h 1v -20v 20v -13h 1v -7v 27v -20h 1v 20v -27v 13v -6h 1v 20v -14v 14v -27v 27h 1v -27v 27v -7h 1v 7v -27h 1v 20v -7v 14h 1v -41v 41v -7v 7v -7h 1v -7v 14v -27v 20h 1v -7v 14v -20v 13h 1v -7v 14v -34v
 14h 1v 13v -13v 13v -7h 1v -6v 13v -27v 34h 1v -34v 27v -7h 1v 7v -20v 27h 1v -14v 7v -7h 1v -13v 20v -7v 14h 1v -27v 13v -20v 14h 1v 13v -27v 34h 1v -14v 7v -20v 13h 1v -6v 20v -20v 20v -7h 1v -27v 20v -34v 14h 1v 27v -20v 27h 1v -14v 7v -20v 20h
 1v -20v 27v -41v 41v -34h 1v 20v -13v 20h 1v -7v 14v -27v 13h 1v -6v 20v -27v 27h 1v -20v 13v -13v 6h 1v 14v -34v 27h 1v 7v -34v 34v -34v 34h 1v -27v 13h 1v 7v -13v 13v -27h 1v 20v -20v 20h 1v 7v -13v 6v -6h 1v 20v -20v 20h 1v -20v 13v -13v 20v -27h
 1v 27v -20v 20h 1v -41v 41v -27v 13h 1v 7v -13v 6h 1v 7v -55v 62v -27v 20h 1v -20v 13v -13v 27h 1v -20v 20v -14v 7v -34h 1v 41v -27v 27v -41v 34h 1v -20v 27v -27h 1v 20v -7v 7v -20h 1v 27v -34v 27v -27v 7h 1v 27v -7v 7v -14h 1v -20v 34v -14"
 fill="none" stroke="#000099"/>
<rect x="442" y="25" width="114" height="46" fill="white"/>
<path d="M442,71h 114" fill="none" stroke="black"/>
<path d="M556,71v -46" fill="none" stroke="black"/>
<path d="M556,25h -114" fill="none" stroke="black"/>
<path d="M442,25v 46" fill="none" stroke="black"/>
<text x="447" y="28" fill="black" font-size="4" font-family="Helvetica">
Entries 
</text>
<text x="540" y="28" fill="black" font-size="4" font-family="Helvetica">
 6476
</text>
<text x="450" y="35" fill="black" font-size="4" font-family="Helvetica">
 / ndf 
</text>
<text x="449" y="31" fill="black" font-size="3" font-family="Helvetica">
2
</text>
<text x="447" y="35" fill="black" font-size="4" font-family="Times">
&#0967;
</text>
<text x="526" y="34" fill="black" font-size="4" font-family="Helvetica">
  2150 / 1240
</text>
<text x="452" y="37" fill="black" font-size="4" font-family="Helvetica">
   
</text>
<text x="450" y="40" fill="black" font-size="3" font-family="Helvetica">
cu
</text>
<text x="447" y="37" fill="black" font-size="4" font-family="Helvetica">
N
</text>
<text x="539" y="40" fill="black" font-size="4" font-family="Helvetica">
 2.956
</text>
<text x="537" y="40" fill="black" font-size="4" font-family="Times">
&#0177;
</text>
<text x="525" y="40" fill="black" font-size="4" font-family="Helvetica">
 5.136 
</text>
<text x="450" y="43" fill="black" font-size="4" font-family="Helvetica">
 
</text>
<text x="448" y="46" fill="black" font-size="3" font-family="Helvetica">
cu
</text>
<text x="447" y="43" fill="black" font-size="4" font-family="Times">
&#0964;
</text>
<text x="543" y="45" fill="black" font-size="4" font-family="Helvetica">
 1.1
</text>
<text x="541" y="45" fill="black" font-size="4" font-family="Times">
&#0177;
</text>
<text x="529" y="45" fill="black" font-size="4" font-family="Helvetica">
 164.5 
</text>
<text x="450" y="48" fill="black" font-size="4" font-family="Helvetica">
    
</text>
<text x="450" y="51" fill="black" font-size="3" font-family="Helvetica">
f
</text>
<text x="447" y="48" fill="black" font-size="4" font-family="Helvetica">
N
</text>
<text x="539" y="50" fill="black" font-size="4" font-family="Helvetica">
 0.715
</text>
<text x="537" y="50" fill="black" font-size="4" font-family="Times">
&#0177;
</text>
<text x="525" y="50" fill="black" font-size="4" font-family="Helvetica">
 9.597 
</text>
<text x="448" y="53" fill="black" font-size="4" font-family="Helvetica">
 
</text>
<text x="448" y="57" fill="black" font-size="3" font-family="Helvetica">
f
</text>
<text x="447" y="53" fill="black" font-size="4" font-family="Times">
&#0964;
</text>
<text x="539" y="55" fill="black" font-size="4" font-family="Helvetica">
 140.6
</text>
<text x="537" y="55" fill="black" font-size="4" font-family="Times">
&#0177;
</text>
<text x="525" y="55" fill="black" font-size="4" font-family="Helvetica">
  1938 
</text>
<text x="452" y="58" fill="black" font-size="4" font-family="Helvetica">
  
</text>
<text x="450" y="61" fill="black" font-size="3" font-family="Helvetica">
sin
</text>
<text x="447" y="58" fill="black" font-size="4" font-family="Helvetica">
N
</text>
<text x="543" y="60" fill="black" font-size="4" font-family="Helvetica">
 0.0
</text>
<text x="541" y="60" fill="black" font-size="4" font-family="Times">
&#0177;
</text>
<text x="532" y="60" fill="black" font-size="4" font-family="Helvetica">
     1 
</text>
<text x="447" y="65" fill="black" font-size="4" font-family="Helvetica">
T        
</text>
<text x="541" y="66" fill="black" font-size="4" font-family="Helvetica">
 0.00
</text>
<text x="538" y="66" fill="black" font-size="4" font-family="Times">
&#0177;
</text>
<text x="526" y="66" fill="black" font-size="4" font-family="Helvetica">
 59.39 
</text>
<text x="450" y="68" fill="black" font-size="4" font-family="Helvetica">
    
</text>
<text x="450" y="71" fill="black" font-size="3" font-family="Helvetica">
b
</text>
<text x="447" y="68" fill="black" font-size="4" font-family="Helvetica">
N
</text>
<text x="539" y="71" fill="black" font-size="4" font-family="Helvetica">
 0.051
</text>
<text x="537" y="71" fill="black" font-size="4" font-family="Times">
&#0177;
</text>
<text x="525" y="71" fill="black" font-size="4" font-family="Helvetica">
 2.087 
</text>
<path d="M284,237v 8" fill="none" stroke="#ff0000" stroke-width="2"/>
<path d="M285,237v 19" fill="none" stroke="#ff0000" stroke-width="2"/>
<path d="M285,251v 15" fill="none" stroke="#ff0000" stroke-width="2"/>
<path d="M286,258v 16" fill="none" stroke="#ff0000" stroke-width="2"/>
<path d="M287,262v 15" fill="none" stroke="#ff0000" stroke-width="2"/>
<path d="M288,265v 16" fill="none" stroke="#ff0000" stroke-width="2"/>
<path d="M289,269v 14" fill="none" stroke="#ff0000" stroke-width="2"/>
<path d="M289,273v 13" fill="none" stroke="#ff0000" stroke-width="2"/>
<path d="M290,275v 15" fill="none" stroke="#ff0000" stroke-width="2"/>
<path d="M291,277v 14" fill="none" stroke="#ff0000" stroke-width="2"/>
<path d="M292,278v 15" fill="none" stroke="#ff0000" stroke-width="2"/>
<path d="M293,280v 15" fill="none" stroke="#ff0000" stroke-width="2"/>
<path d="M293,282v 15" fill="none" stroke="#ff0000" stroke-width="2"/>
<path d="M294,284v 14" fill="none" stroke="#ff0000" stroke-width="2"/>
<path d="M295,285v 14" fill="none" stroke="#ff0000" stroke-width="2"/>
<path d="M296,286v 14" fill="none" stroke="#ff0000" stroke-width="2"/>
<path d="M297,288v 14" fill="none" stroke="#ff0000" stroke-width="2"/>
<path d="M298,290v 14" fill="none" stroke="#ff0000" stroke-width="2"/>
<path d="M298,291v 14" fill="none" stroke="#ff0000" stroke-width="2"/>
<path d="M299,291v 15" fill="none" stroke="#ff0000" stroke-width="2"/>
<path d="M300,293v 14" fill="none" stroke="#ff0000" stroke-width="2"/>
<path d="M301,295v 13" fill="none" stroke="#ff0000" stroke-width="2"/>
<path d="M302,295v 15" fill="none" stroke="#ff0000" stroke-width="2"/>
<path d="M302,296v 15" fill="none" stroke="#ff0000" stroke-width="2"/>
<path d="M303,297v 15" fill="none" stroke="#ff0000" stroke-width="2"/>
<path d="M304,298v 15" fill="none" stroke="#ff0000" stroke-width="2"/>
<path d="M305,299v 14" fill="none" stroke="#ff0000" stroke-width="2"/>
<path d="M306,300v 15" fill="none" stroke="#ff0000" stroke-width="2"/>
<path d="M307,301v 14" fill="none" stroke="#ff0000" stroke-width="2"/>
<path d="M307,302v 14" fill="none" stroke="#ff0000" stroke-width="2"/>
<path d="M308,303v 14" fill="none" stroke="#ff0000" stroke-width="2"/>
<path d="M309,304v 13" fill="none" stroke="#ff0000" stroke-width="2"/>
<path d="M310,304v 15" fill="none" stroke="#ff0000" stroke-width="2"/>
<path d="M311,305v 14" fill="none" stroke="#ff0000" stroke-width="2"/>
<path d="M311,305v 15" fill="none" stroke="#ff0000" stroke-width="2"/>
<path d="M312,307v 14" fill="none" stroke="#ff0000" stroke-width="2"/>
<path d="M313,308v 13" fill="none" stroke="#ff0000" stroke-width="2"/>
<path d="M314,308v 14" fill="none" stroke="#ff0000" stroke-width="2"/>
<path d="M315,308v 14" fill="none" stroke="#ff0000" stroke-width="2"/>
<path d="M315,308v 15" fill="none" stroke="#ff0000" stroke-width="2"/>
<path d="M316,310v 13" fill="none" stroke="#ff0000" stroke-width="2"/>
<path d="M317,310v 14" fill="none" stroke="#ff0000" stroke-width="2"/>
<path d="M318,311v 14" fill="none" stroke="#ff0000" stroke-width="2"/>
<path d="M319,311v 15" fill="none" stroke="#ff0000" stroke-width="2"/>
<path d="M320,312v 14" fill="none" stroke="#ff0000" stroke-width="2"/>
<path d="M320,313v 13" fill="none" stroke="#ff0000" stroke-width="2"/>
<path d="M321,313v 13" fill="none" stroke="#ff0000" stroke-width="2"/>
<path d="M322,313v 14" fill="none" stroke="#ff0000" stroke-width="2"/>
<path d="M323,313v 14" fill="none" stroke="#ff0000" stroke-width="2"/>
<path d="M324,313v 15" fill="none" stroke="#ff0000" stroke-width="2"/>
<path d="M324,314v 14" fill="none" stroke="#ff0000" stroke-width="2"/>
<path d="M325,315v 14" fill="none" stroke="#ff0000" stroke-width="2"/>
<path d="M326,315v 14" fill="none" stroke="#ff0000" stroke-width="2"/>
<path d="M327,315v 15" fill="none" stroke="#ff0000" stroke-width="2"/>
<path d="M328,316v 14" fill="none" stroke="#ff0000" stroke-width="2"/>
<path d="M329,316v 14" fill="none" stroke="#ff0000" stroke-width="2"/>
<path d="M329,317v 13" fill="none" stroke="#ff0000" stroke-width="2"/>
<path d="M330,317v 13" fill="none" stroke="#ff0000" stroke-width="2"/>
<path d="M331,317v 13" fill="none" stroke="#ff0000" stroke-width="2"/>
<path d="M332,317v 14" fill="none" stroke="#ff0000" stroke-width="2"/>
<path d="M333,317v 14" fill="none" stroke="#ff0000" stroke-width="2"/>
<path d="M333,317v 15" fill="none" stroke="#ff0000" stroke-width="2"/>
<path d="M334,318v 14" fill="none" stroke="#ff0000" stroke-width="2"/>
<path d="M335,318v 14" fill="none" stroke="#ff0000" stroke-width="2"/>
<path d="M336,318v 14" fill="none" stroke="#ff0000" stroke-width="2"/>
<path d="M337,318v 15" fill="none" stroke="#ff0000" stroke-width="2"/>
<path d="M337,319v 14" fill="none" stroke="#ff0000" stroke-width="2"/>
<path d="M338,319v 14" fill="none" stroke="#ff0000" stroke-width="2"/>
<path d="M339,319v 14" fill="none" stroke="#ff0000" stroke-width="2"/>
<path d="M340,320v 14" fill="none" stroke="#ff0000" stroke-width="2"/>
<path d="M341,320v 14" fill="none" stroke="#ff0000" stroke-width="2"/>
<path d="M342,320v 14" fill="none" stroke="#ff0000" stroke-width="2"/>
<path d="M342,320v 14" fill="none" stroke="#ff0000" stroke-width="2"/>
<path d="M343,320v 14" fill="none" stroke="#ff0000" stroke-width="2"/>
<path d="M344,321v 13" fill="none" stroke="#ff0000" stroke-width="2"/>
<path d="M345,321v 13" fill="none" stroke="#ff0000" stroke-width="2"/>
<path d="M346,321v 13" fill="none" stroke="#ff0000" stroke-width="2"/>
<path d="M346,321v 13" fill="none" stroke="#ff0000" stroke-width="2"/>
<path d="M347,321v 13" fill="none" stroke="#ff0000" stroke-width="2"/>
<path d="M348,321v 14" fill="none" stroke="#ff0000" stroke-width="2"/>
<path d="M349,321v 14" fill="none" stroke="#ff0000" stroke-width="2"/>
<path d="M350,321v 14" fill="none" stroke="#ff0000" stroke-width="2"/>
<path d="M351,321v 14" fill="none" stroke="#ff0000" stroke-width="2"/>
<path d="M351,321v 14" fill="none" stroke="#ff0000" stroke-width="2"/>
<path d="M352,321v 14" fill="none" stroke="#ff0000" stroke-width="2"/>
<path d="M353,321v 14" fill="none" stroke="#ff0000" stroke-width="2"/>
<path d="M354,321v 15" fill="none" stroke="#ff0000" stroke-width="2"/>
<path d="M355,321v 15" fill="none" stroke="#ff0000" stroke-width="2"/>
<path d="M355,322v 14" fill="none" stroke="#ff0000" stroke-width="2"/>
<path d="M356,322v 14" fill="none" stroke="#ff0000" stroke-width="2"/>
<path d="M357,322v 14" fill="none" stroke="#ff0000" stroke-width="2"/>
<path d="M358,322v 14" fill="none" stroke="#ff0000" stroke-width="2"/>
<path d="M359,322v 14" fill="none" stroke="#ff0000" stroke-width="2"/>
<path d="M359,322v 14" fill="none" stroke="#ff0000" stroke-width="2"/>
<path d="M360,322v 14" fill="none" stroke="#ff0000" stroke-width="2"/>
<path d="M361,322v 14" fill="none" stroke="#ff0000" stroke-width="2"/>
<path d="M362,322v 15" fill="none" stroke="#ff0000" stroke-width="2"/>
<path d="M363,323v 14" fill="none" stroke="#ff0000" stroke-width="2"/>
<path d="M364,323v 14" fill="none" stroke="#ff0000" stroke-width="2"/>
<path d="M364,323v 14" fill="none" stroke="#ff0000" stroke-width="2"/>
<path d="M365,323v 14" fill="none" stroke="#ff0000" stroke-width="2"/>
<path d="M366,323v 14" fill="none" stroke="#ff0000" stroke-width="2"/>
<path d="M367,323v 14" fill="none" stroke="#ff0000" stroke-width="2"/>
<path d="M368,323v 14" fill="none" stroke="#ff0000" stroke-width="2"/>
<path d="M368,323v 14" fill="none" stroke="#ff0000" stroke-width="2"/>
<path d="M369,323v 14" fill="none" stroke="#ff0000" stroke-width="2"/>
<path d="M370,323v 14" fill="none" stroke="#ff0000" stroke-width="2"/>
<path d="M371,323v 14" fill="none" stroke="#ff0000" stroke-width="2"/>
<path d="M372,323v 14" fill="none" stroke="#ff0000" stroke-width="2"/>
<path d="M372,323v 14" fill="none" stroke="#ff0000" stroke-width="2"/>
<path d="M373,323v 15" fill="none" stroke="#ff0000" stroke-width="2"/>
<path d="M374,323v 15" fill="none" stroke="#ff0000" stroke-width="2"/>
<path d="M375,323v 15" fill="none" stroke="#ff0000" stroke-width="2"/>
<path d="M376,324v 14" fill="none" stroke="#ff0000" stroke-width="2"/>
<path d="M377,324v 14" fill="none" stroke="#ff0000" stroke-width="2"/>
<path d="M377,324v 14" fill="none" stroke="#ff0000" stroke-width="2"/>
<path d="M378,324v 14" fill="none" stroke="#ff0000" stroke-width="2"/>
<path d="M379,324v 14" fill="none" stroke="#ff0000" stroke-width="2"/>
<path d="M380,324v 14" fill="none" stroke="#ff0000" stroke-width="2"/>
<path d="M381,324v 14" fill="none" stroke="#ff0000" stroke-width="2"/>
<path d="M381,324v 14" fill="none" stroke="#ff0000" stroke-width="2"/>
<path d="M382,324v 14" fill="none" stroke="#ff0000" stroke-width="2"/>
<path d="M383,324v 14" fill="none" stroke="#ff0000" stroke-width="2"/>
<path d="M384,324v 14" fill="none" stroke="#ff0000" stroke-width="2"/>
<path d="M385,324v 14" fill="none" stroke="#ff0000" stroke-width="2"/>
<path d="M386,324v 14" fill="none" stroke="#ff0000" stroke-width="2"/>
<path d="M386,324v 14" fill="none" stroke="#ff0000" stroke-width="2"/>
<path d="M387,324v 14" fill="none" stroke="#ff0000" stroke-width="2"/>
<path d="M388,324v 14" fill="none" stroke="#ff0000" stroke-width="2"/>
<path d="M389,324v 14" fill="none" stroke="#ff0000" stroke-width="2"/>
<path d="M390,324v 14" fill="none" stroke="#ff0000" stroke-width="2"/>
<path d="M390,324v 14" fill="none" stroke="#ff0000" stroke-width="2"/>
<path d="M391,324v 14" fill="none" stroke="#ff0000" stroke-width="2"/>
<path d="M392,324v 14" fill="none" stroke="#ff0000" stroke-width="2"/>
<path d="M393,324v 14" fill="none" stroke="#ff0000" stroke-width="2"/>
<path d="M394,324v 14" fill="none" stroke="#ff0000" stroke-width="2"/>
<path d="M394,324v 14" fill="none" stroke="#ff0000" stroke-width="2"/>
<path d="M395,324v 14" fill="none" stroke="#ff0000" stroke-width="2"/>
<path d="M396,324v 14" fill="none" stroke="#ff0000" stroke-width="2"/>
<path d="M397,324v 14" fill="none" stroke="#ff0000" stroke-width="2"/>
<path d="M398,324v 14" fill="none" stroke="#ff0000" stroke-width="2"/>
<path d="M399,324v 14" fill="none" stroke="#ff0000" stroke-width="2"/>
<path d="M399,324v 14" fill="none" stroke="#ff0000" stroke-width="2"/>
<path d="M400,324v 14" fill="none" stroke="#ff0000" stroke-width="2"/>
<path d="M401,324v 14" fill="none" stroke="#ff0000" stroke-width="2"/>
<path d="M402,324v 14" fill="none" stroke="#ff0000" stroke-width="2"/>
<path d="M403,324v 15" fill="none" stroke="#ff0000" stroke-width="2"/>
<path d="M403,324v 15" fill="none" stroke="#ff0000" stroke-width="2"/>
<path d="M404,324v 15" fill="none" stroke="#ff0000" stroke-width="2"/>
<path d="M405,324v 15" fill="none" stroke="#ff0000" stroke-width="2"/>
<path d="M406,324v 15" fill="none" stroke="#ff0000" stroke-width="2"/>
<path d="M407,324v 15" fill="none" stroke="#ff0000" stroke-width="2"/>
<path d="M408,324v 15" fill="none" stroke="#ff0000" stroke-width="2"/>
<path d="M408,324v 15" fill="none" stroke="#ff0000" stroke-width="2"/>
<path d="M409,324v 15" fill="none" stroke="#ff0000" stroke-width="2"/>
<path d="M410,324v 15" fill="none" stroke="#ff0000" stroke-width="2"/>
<path d="M411,325v 14" fill="none" stroke="#ff0000" stroke-width="2"/>
<path d="M412,324v 15" fill="none" stroke="#ff0000" stroke-width="2"/>
<path d="M412,324v 15" fill="none" stroke="#ff0000" stroke-width="2"/>
<path d="M413,325v 14" fill="none" stroke="#ff0000" stroke-width="2"/>
<path d="M414,325v 14" fill="none" stroke="#ff0000" stroke-width="2"/>
<path d="M415,325v 14" fill="none" stroke="#ff0000" stroke-width="2"/>
<path d="M416,325v 14" fill="none" stroke="#ff0000" stroke-width="2"/>
<path d="M416,325v 14" fill="none" stroke="#ff0000" stroke-width="2"/>
<path d="M417,325v 14" fill="none" stroke="#ff0000" stroke-width="2"/>
<path d="M418,325v 14" fill="none" stroke="#ff0000" stroke-width="2"/>
<path d="M419,325v 14" fill="none" stroke="#ff0000" stroke-width="2"/>
<path d="M420,325v 14" fill="none" stroke="#ff0000" stroke-width="2"/>
<path d="M421,325v 14" fill="none" stroke="#ff0000" stroke-width="2"/>
<path d="M421,325v 14" fill="none" stroke="#ff0000" stroke-width="2"/>
<path d="M422,325v 14" fill="none" stroke="#ff0000" stroke-width="2"/>
<path d="M423,325v 14" fill="none" stroke="#ff0000" stroke-width="2"/>
<path d="M424,325v 14" fill="none" stroke="#ff0000" stroke-width="2"/>
<path d="M425,325v 14" fill="none" stroke="#ff0000" stroke-width="2"/>
<path d="M425,325v 14" fill="none" stroke="#ff0000" stroke-width="2"/>
<path d="M426,325v 14" fill="none" stroke="#ff0000" stroke-width="2"/>
<path d="M427,325v 14" fill="none" stroke="#ff0000" stroke-width="2"/>
<path d="M428,325v 14" fill="none" stroke="#ff0000" stroke-width="2"/>
<path d="M429,325v 14" fill="none" stroke="#ff0000" stroke-width="2"/>
<path d="M430,325v 14" fill="none" stroke="#ff0000" stroke-width="2"/>
<path d="M430,325v 14" fill="none" stroke="#ff0000" stroke-width="2"/>
<path d="M431,325v 14" fill="none" stroke="#ff0000" stroke-width="2"/>
<path d="M432,325v 14" fill="none" stroke="#ff0000" stroke-width="2"/>
<path d="M433,325v 14" fill="none" stroke="#ff0000" stroke-width="2"/>
<path d="M434,325v 14" fill="none" stroke="#ff0000" stroke-width="2"/>
<path d="M434,325v 14" fill="none" stroke="#ff0000" stroke-width="2"/>
<path d="M435,325v 14" fill="none" stroke="#ff0000" stroke-width="2"/>
<path d="M436,325v 14" fill="none" stroke="#ff0000" stroke-width="2"/>
<path d="M437,325v 14" fill="none" stroke="#ff0000" stroke-width="2"/>
<path d="M438,325v 14" fill="none" stroke="#ff0000" stroke-width="2"/>
<path d="M438,325v 14" fill="none" stroke="#ff0000" stroke-width="2"/>
<path d="M439,325v 14" fill="none" stroke="#ff0000" stroke-width="2"/>
<path d="M440,325v 14" fill="none" stroke="#ff0000" stroke-width="2"/>
<path d="M441,325v 14" fill="none" stroke="#ff0000" stroke-width="2"/>
<path d="M442,325v 14" fill="none" stroke="#ff0000" stroke-width="2"/>
<path d="M443,325v 14" fill="none" stroke="#ff0000" stroke-width="2"/>
<path d="M443,325v 14" fill="none" stroke="#ff0000" stroke-width="2"/>
<path d="M444,325v 14" fill="none" stroke="#ff0000" stroke-width="2"/>
<path d="M445,325v 14" fill="none" stroke="#ff0000" stroke-width="2"/>
<path d="M446,325v 14" fill="none" stroke="#ff0000" stroke-width="2"/>
<path d="M447,325v 14" fill="none" stroke="#ff0000" stroke-width="2"/>
<path d="M447,325v 14" fill="none" stroke="#ff0000" stroke-width="2"/>
<path d="M448,325v 14" fill="none" stroke="#ff0000" stroke-width="2"/>
<path d="M449,325v 14" fill="none" stroke="#ff0000" stroke-width="2"/>
<path d="M450,325v 14" fill="none" stroke="#ff0000" stroke-width="2"/>
<path d="M451,325v 14" fill="none" stroke="#ff0000" stroke-width="2"/>
<path d="M452,325v 14" fill="none" stroke="#ff0000" stroke-width="2"/>
<path d="M452,325v 14" fill="none" stroke="#ff0000" stroke-width="2"/>
<path d="M453,325v 14" fill="none" stroke="#ff0000" stroke-width="2"/>
<path d="M454,325v 14" fill="none" stroke="#ff0000" stroke-width="2"/>
<path d="M455,325v 14" fill="none" stroke="#ff0000" stroke-width="2"/>
<path d="M456,325v 14" fill="none" stroke="#ff0000" stroke-width="2"/>
<path d="M456,325v 14" fill="none" stroke="#ff0000" stroke-width="2"/>
<path d="M457,325v 14" fill="none" stroke="#ff0000" stroke-width="2"/>
<path d="M458,325v 14" fill="none" stroke="#ff0000" stroke-width="2"/>
<path d="M459,325v 14" fill="none" stroke="#ff0000" stroke-width="2"/>
<path d="M460,325v 14" fill="none" stroke="#ff0000" stroke-width="2"/>
<path d="M460,325v 14" fill="none" stroke="#ff0000" stroke-width="2"/>
<path d="M461,325v 14" fill="none" stroke="#ff0000" stroke-width="2"/>
<path d="M462,325v 14" fill="none" stroke="#ff0000" stroke-width="2"/>
<path d="M463,325v 14" fill="none" stroke="#ff0000" stroke-width="2"/>
<path d="M464,325v 14" fill="none" stroke="#ff0000" stroke-width="2"/>
<path d="M465,325v 14" fill="none" stroke="#ff0000" stroke-width="2"/>
<path d="M465,325v 14" fill="none" stroke="#ff0000" stroke-width="2"/>
<path d="M466,325v 14" fill="none" stroke="#ff0000" stroke-width="2"/>
<path d="M467,325v 14" fill="none" stroke="#ff0000" stroke-width="2"/>
<path d="M468,325v 14" fill="none" stroke="#ff0000" stroke-width="2"/>
<path d="M469,325v 14" fill="none" stroke="#ff0000" stroke-width="2"/>
<path d="M469,325v 14" fill="none" stroke="#ff0000" stroke-width="2"/>
<path d="M470,325v 14" fill="none" stroke="#ff0000" stroke-width="2"/>
<path d="M471,325v 14" fill="none" stroke="#ff0000" stroke-width="2"/>
<path d="M472,325v 14" fill="none" stroke="#ff0000" stroke-width="2"/>
<path d="M473,325v 14" fill="none" stroke="#ff0000" stroke-width="2"/>
<path d="M473,325v 14" fill="none" stroke="#ff0000" stroke-width="2"/>
<path d="M474,325v 14" fill="none" stroke="#ff0000" stroke-width="2"/>
<path d="M475,325v 14" fill="none" stroke="#ff0000" stroke-width="2"/>
<path d="M476,325v 14" fill="none" stroke="#ff0000" stroke-width="2"/>
<path d="M477,325v 14" fill="none" stroke="#ff0000" stroke-width="2"/>
<path d="M478,325v 14" fill="none" stroke="#ff0000" stroke-width="2"/>
<path d="M478,325v 14" fill="none" stroke="#ff0000" stroke-width="2"/>
<path d="M479,325v 14" fill="none" stroke="#ff0000" stroke-width="2"/>
<path d="M480,325v 14" fill="none" stroke="#ff0000" stroke-width="2"/>
<path d="M481,325v 14" fill="none" stroke="#ff0000" stroke-width="2"/>
<path d="M482,325v 14" fill="none" stroke="#ff0000" stroke-width="2"/>
<path d="M482,325v 14" fill="none" stroke="#ff0000" stroke-width="2"/>
<path d="M483,325v 14" fill="none" stroke="#ff0000" stroke-width="2"/>
<path d="M484,325v 14" fill="none" stroke="#ff0000" stroke-width="2"/>
<path d="M485,325v 14" fill="none" stroke="#ff0000" stroke-width="2"/>
<path d="M486,325v 14" fill="none" stroke="#ff0000" stroke-width="2"/>
<path d="M487,325v 14" fill="none" stroke="#ff0000" stroke-width="2"/>
<path d="M487,325v 14" fill="none" stroke="#ff0000" stroke-width="2"/>
<path d="M488,325v 14" fill="none" stroke="#ff0000" stroke-width="2"/>
<path d="M489,325v 14" fill="none" stroke="#ff0000" stroke-width="2"/>
<path d="M490,325v 14" fill="none" stroke="#ff0000" stroke-width="2"/>
<path d="M491,325v 14" fill="none" stroke="#ff0000" stroke-width="2"/>
<path d="M491,325v 14" fill="none" stroke="#ff0000" stroke-width="2"/>
<path d="M492,325v 14" fill="none" stroke="#ff0000" stroke-width="2"/>
<path d="M493,325v 14" fill="none" stroke="#ff0000" stroke-width="2"/>
<path d="M494,325v 14" fill="none" stroke="#ff0000" stroke-width="2"/>
<path d="M495,325v 14" fill="none" stroke="#ff0000" stroke-width="2"/>
<path d="M495,325v 14" fill="none" stroke="#ff0000" stroke-width="2"/>
<path d="M496,325v 14" fill="none" stroke="#ff0000" stroke-width="2"/>
<path d="M497,325v 14" fill="none" stroke="#ff0000" stroke-width="2"/>
<path d="M498,325v 14" fill="none" stroke="#ff0000" stroke-width="2"/>
<path d="M499,325v 14" fill="none" stroke="#ff0000" stroke-width="2"/>
<path d="M500,325v 14" fill="none" stroke="#ff0000" stroke-width="2"/>
<path d="M500,325v 14" fill="none" stroke="#ff0000" stroke-width="2"/>
<path d="M501,325v 14" fill="none" stroke="#ff0000" stroke-width="2"/>
<path d="M502,325v 14" fill="none" stroke="#ff0000" stroke-width="2"/>
<path d="M503,325v 14" fill="none" stroke="#ff0000" stroke-width="2"/>
<path d="M504,325v 14" fill="none" stroke="#ff0000" stroke-width="2"/>
<path d="M504,325v 14" fill="none" stroke="#ff0000" stroke-width="2"/>
<path d="M505,325v 14" fill="none" stroke="#ff0000" stroke-width="2"/>
<path d="M506,325v 14" fill="none" stroke="#ff0000" stroke-width="2"/>
<path d="M507,325v 14" fill="none" stroke="#ff0000" stroke-width="2"/>
<path d="M508,325v 14" fill="none" stroke="#ff0000" stroke-width="2"/>
<path d="M509,325v 14" fill="none" stroke="#ff0000" stroke-width="2"/>
<path d="M509,325v 14" fill="none" stroke="#ff0000" stroke-width="2"/>
<path d="M510,325v 13" fill="none" stroke="#ff0000" stroke-width="2"/>
<path d="M284,241l 1, 6v 12l 1, 7l 1, 3l 1, 4l 1, 3v 3l 1, 3l 1, 2l 1, 2l 1, 1v 3l 1, 1l 1, 1l 1, 1l 1, 2l 1, 2v 1l 1, 1h 1l 1, 2l 1, 2v 1h 1l 1, 1l 1, 1l 1, 2h 1l 1, 1l 1, 1l 1, 2h 1v 1h 1l 1, 1l 1, 1h 1v 1l 1, 1h 2l 1, 1h 1v 1h 1l 1, 1h 1l 1, 1h 2l
 1, 1h 2v 1h 2l 1, 1h 1v 1h 3l 1, 1h 6l 1, 1h 3l 1, 1h 5l 1, 1h 7l 1, 1h 40l 1, 1h 107" fill="none" stroke="#ff0000" stroke-width="2"/>
<path d="M57,346h 453" fill="none" stroke="black"/>
<text x="419" y="372" fill="black" font-size="12" font-family="Helvetica">
TDC-TDC0 (ns)
</text>
<path d="M57,337v 9" fill="none" stroke="black"/>
<path d="M68,342v 4" fill="none" stroke="black"/>
<path d="M79,342v 4" fill="none" stroke="black"/>
<path d="M91,342v 4" fill="none" stroke="black"/>
<path d="M102,342v 4" fill="none" stroke="black"/>
<path d="M113,337v 9" fill="none" stroke="black"/>
<path d="M125,342v 4" fill="none" stroke="black"/>
<path d="M136,342v 4" fill="none" stroke="black"/>
<path d="M147,342v 4" fill="none" stroke="black"/>
<path d="M159,342v 4" fill="none" stroke="black"/>
<path d="M170,337v 9" fill="none" stroke="black"/>
<path d="M181,342v 4" fill="none" stroke="black"/>
<path d="M193,342v 4" fill="none" stroke="black"/>
<path d="M204,342v 4" fill="none" stroke="black"/>
<path d="M215,342v 4" fill="none" stroke="black"/>
<path d="M227,337v 9" fill="none" stroke="black"/>
<path d="M238,342v 4" fill="none" stroke="black"/>
<path d="M249,342v 4" fill="none" stroke="black"/>
<path d="M261,342v 4" fill="none" stroke="black"/>
<path d="M272,342v 4" fill="none" stroke="black"/>
<path d="M283,337v 9" fill="none" stroke="black"/>
<path d="M295,342v 4" fill="none" stroke="black"/>
<path d="M306,342v 4" fill="none" stroke="black"/>
<path d="M317,342v 4" fill="none" stroke="black"/>
<path d="M329,342v 4" fill="none" stroke="black"/>
<path d="M340,337v 9" fill="none" stroke="black"/>
<path d="M351,342v 4" fill="none" stroke="black"/>
<path d="M363,342v 4" fill="none" stroke="black"/>
<path d="M374,342v 4" fill="none" stroke="black"/>
<path d="M386,342v 4" fill="none" stroke="black"/>
<path d="M397,337v 9" fill="none" stroke="black"/>
<path d="M408,342v 4" fill="none" stroke="black"/>
<path d="M420,342v 4" fill="none" stroke="black"/>
<path d="M431,342v 4" fill="none" stroke="black"/>
<path d="M442,342v 4" fill="none" stroke="black"/>
<path d="M454,337v 9" fill="none" stroke="black"/>
<path d="M465,342v 4" fill="none" stroke="black"/>
<path d="M476,342v 4" fill="none" stroke="black"/>
<path d="M488,342v 4" fill="none" stroke="black"/>
<path d="M499,342v 4" fill="none" stroke="black"/>
<path d="M510,337v 9" fill="none" stroke="black"/>
<text x="36" y="359" fill="black" font-size="12" font-family="Helvetica">
-20000
</text>
<text x="93" y="359" fill="black" font-size="12" font-family="Helvetica">
-15000
</text>
<text x="149" y="359" fill="black" font-size="12" font-family="Helvetica">
-10000
</text>
<text x="210" y="359" fill="black" font-size="12" font-family="Helvetica">
-5000
</text>
<text x="280" y="359" fill="black" font-size="12" font-family="Helvetica">
0
</text>
<text x="325" y="359" fill="black" font-size="12" font-family="Helvetica">
5000
</text>
<text x="379" y="359" fill="black" font-size="12" font-family="Helvetica">
10000
</text>
<text x="435" y="359" fill="black" font-size="12" font-family="Helvetica">
15000
</text>
<text x="492" y="359" fill="black" font-size="12" font-family="Helvetica">
20000
</text>
<path d="M57,346v -308" fill="none" stroke="black"/>
<g transform="rotate(-90,29,72)">
<text x="29" y="72" fill="black" font-size="12" font-family="Helvetica">
Count
</text>
</g>
<path d="M70,346h -13" fill="none" stroke="black"/>
<path d="M63,339h -6" fill="none" stroke="black"/>
<path d="M63,332h -6" fill="none" stroke="black"/>
<path d="M63,326h -6" fill="none" stroke="black"/>
<path d="M63,319h -6" fill="none" stroke="black"/>
<path d="M70,312h -13" fill="none" stroke="black"/>
<path d="M63,305h -6" fill="none" stroke="black"/>
<path d="M63,298h -6" fill="none" stroke="black"/>
<path d="M63,291h -6" fill="none" stroke="black"/>
<path d="M63,284h -6" fill="none" stroke="black"/>
<path d="M70,277h -13" fill="none" stroke="black"/>
<path d="M63,270h -6" fill="none" stroke="black"/>
<path d="M63,263h -6" fill="none" stroke="black"/>
<path d="M63,256h -6" fill="none" stroke="black"/>
<path d="M63,249h -6" fill="none" stroke="black"/>
<path d="M70,242h -13" fill="none" stroke="black"/>
<path d="M63,235h -6" fill="none" stroke="black"/>
<path d="M63,228h -6" fill="none" stroke="black"/>
<path d="M63,221h -6" fill="none" stroke="black"/>
<path d="M63,214h -6" fill="none" stroke="black"/>
<path d="M70,207h -13" fill="none" stroke="black"/>
<path d="M63,200h -6" fill="none" stroke="black"/>
<path d="M63,193h -6" fill="none" stroke="black"/>
<path d="M63,186h -6" fill="none" stroke="black"/>
<path d="M63,179h -6" fill="none" stroke="black"/>
<path d="M70,172h -13" fill="none" stroke="black"/>
<path d="M63,165h -6" fill="none" stroke="black"/>
<path d="M63,158h -6" fill="none" stroke="black"/>
<path d="M63,151h -6" fill="none" stroke="black"/>
<path d="M63,144h -6" fill="none" stroke="black"/>
<path d="M70,137h -13" fill="none" stroke="black"/>
<path d="M63,130h -6" fill="none" stroke="black"/>
<path d="M63,123h -6" fill="none" stroke="black"/>
<path d="M63,116h -6" fill="none" stroke="black"/>
<path d="M63,109h -6" fill="none" stroke="black"/>
<path d="M70,102h -13" fill="none" stroke="black"/>
<path d="M63,95h -6" fill="none" stroke="black"/>
<path d="M63,88h -6" fill="none" stroke="black"/>
<path d="M63,81h -6" fill="none" stroke="black"/>
<path d="M63,74h -6" fill="none" stroke="black"/>
<path d="M70,67h -13" fill="none" stroke="black"/>
<path d="M70,67h -13" fill="none" stroke="black"/>
<path d="M63,60h -6" fill="none" stroke="black"/>
<path d="M63,53h -6" fill="none" stroke="black"/>
<path d="M63,46h -6" fill="none" stroke="black"/>
<path d="M63,39h -6" fill="none" stroke="black"/>
<text x="47" y="350" fill="black" font-size="12" font-family="Helvetica">
0
</text>
<text x="47" y="315" fill="black" font-size="12" font-family="Helvetica">
5
</text>
<text x="40" y="280" fill="black" font-size="12" font-family="Helvetica">
10
</text>
<text x="40" y="245" fill="black" font-size="12" font-family="Helvetica">
15
</text>
<text x="40" y="211" fill="black" font-size="12" font-family="Helvetica">
20
</text>
<text x="40" y="176" fill="black" font-size="12" font-family="Helvetica">
25
</text>
<text x="40" y="141" fill="black" font-size="12" font-family="Helvetica">
30
</text>
<text x="40" y="106" fill="black" font-size="12" font-family="Helvetica">
35
</text>
<text x="40" y="71" fill="black" font-size="12" font-family="Helvetica">
40
</text>
<rect x="442" y="25" width="114" height="46" fill="white"/>
<path d="M442,71h 114" fill="none" stroke="black"/>
<path d="M556,71v -46" fill="none" stroke="black"/>
<path d="M556,25h -114" fill="none" stroke="black"/>
<path d="M442,25v 46" fill="none" stroke="black"/>
<text x="447" y="28" fill="black" font-size="4" font-family="Helvetica">
Entries 
</text>
<text x="540" y="28" fill="black" font-size="4" font-family="Helvetica">
 6476
</text>
<text x="450" y="35" fill="black" font-size="4" font-family="Helvetica">
 / ndf 
</text>
<text x="449" y="31" fill="black" font-size="3" font-family="Helvetica">
2
</text>
<text x="447" y="35" fill="black" font-size="4" font-family="Times">
&#0967;
</text>
<text x="526" y="34" fill="black" font-size="4" font-family="Helvetica">
  2150 / 1240
</text>
<text x="452" y="37" fill="black" font-size="4" font-family="Helvetica">
   
</text>
<text x="450" y="40" fill="black" font-size="3" font-family="Helvetica">
cu
</text>
<text x="447" y="37" fill="black" font-size="4" font-family="Helvetica">
N
</text>
<text x="539" y="40" fill="black" font-size="4" font-family="Helvetica">
 2.956
</text>
<text x="537" y="40" fill="black" font-size="4" font-family="Times">
&#0177;
</text>
<text x="525" y="40" fill="black" font-size="4" font-family="Helvetica">
 5.136 
</text>
<text x="450" y="43" fill="black" font-size="4" font-family="Helvetica">
 
</text>
<text x="448" y="46" fill="black" font-size="3" font-family="Helvetica">
cu
</text>
<text x="447" y="43" fill="black" font-size="4" font-family="Times">
&#0964;
</text>
<text x="543" y="45" fill="black" font-size="4" font-family="Helvetica">
 1.1
</text>
<text x="541" y="45" fill="black" font-size="4" font-family="Times">
&#0177;
</text>
<text x="529" y="45" fill="black" font-size="4" font-family="Helvetica">
 164.5 
</text>
<text x="450" y="48" fill="black" font-size="4" font-family="Helvetica">
    
</text>
<text x="450" y="51" fill="black" font-size="3" font-family="Helvetica">
f
</text>
<text x="447" y="48" fill="black" font-size="4" font-family="Helvetica">
N
</text>
<text x="539" y="50" fill="black" font-size="4" font-family="Helvetica">
 0.715
</text>
<text x="537" y="50" fill="black" font-size="4" font-family="Times">
&#0177;
</text>
<text x="525" y="50" fill="black" font-size="4" font-family="Helvetica">
 9.597 
</text>
<text x="448" y="53" fill="black" font-size="4" font-family="Helvetica">
 
</text>
<text x="448" y="57" fill="black" font-size="3" font-family="Helvetica">
f
</text>
<text x="447" y="53" fill="black" font-size="4" font-family="Times">
&#0964;
</text>
<text x="539" y="55" fill="black" font-size="4" font-family="Helvetica">
 140.6
</text>
<text x="537" y="55" fill="black" font-size="4" font-family="Times">
&#0177;
</text>
<text x="525" y="55" fill="black" font-size="4" font-family="Helvetica">
  1938 
</text>
<text x="452" y="58" fill="black" font-size="4" font-family="Helvetica">
  
</text>
<text x="450" y="61" fill="black" font-size="3" font-family="Helvetica">
sin
</text>
<text x="447" y="58" fill="black" font-size="4" font-family="Helvetica">
N
</text>
<text x="543" y="60" fill="black" font-size="4" font-family="Helvetica">
 0.0
</text>
<text x="541" y="60" fill="black" font-size="4" font-family="Times">
&#0177;
</text>
<text x="532" y="60" fill="black" font-size="4" font-family="Helvetica">
     1 
</text>
<text x="447" y="65" fill="black" font-size="4" font-family="Helvetica">
T        
</text>
<text x="541" y="66" fill="black" font-size="4" font-family="Helvetica">
 0.00
</text>
<text x="538" y="66" fill="black" font-size="4" font-family="Times">
&#0177;
</text>
<text x="526" y="66" fill="black" font-size="4" font-family="Helvetica">
 59.39 
</text>
<text x="450" y="68" fill="black" font-size="4" font-family="Helvetica">
    
</text>
<text x="450" y="71" fill="black" font-size="3" font-family="Helvetica">
b
</text>
<text x="447" y="68" fill="black" font-size="4" font-family="Helvetica">
N
</text>
<text x="539" y="71" fill="black" font-size="4" font-family="Helvetica">
 0.051
</text>
<text x="537" y="71" fill="black" font-size="4" font-family="Times">
&#0177;
</text>
<text x="525" y="71" fill="black" font-size="4" font-family="Helvetica">
 2.087 
</text>
<text x="270" y="21" fill="black" font-size="21" font-family="Helvetica">
D5
</text></svg>
