<?xml version="1.0" standalone="no"?>
<svg width="567" height="385" viewBox="0 0 567 385" xmlns="http://www.w3.org/2000/svg">
<title>
images/analysis_g4bl_loose_f/452_D1.svg
</title>
<desc>
Creator: ROOT Version 5.34/05
CreationDate: Wed Jun 12 17:56:51 2013</desc>
<defs>
</defs>
<rect x="0" y="0" width="567" height="385" fill="white"/>
<rect x="57" y="38" width="453" height="308" fill="white"/>
<rect x="57" y="38" width="453" height="308" fill="none" stroke="black"/>
<rect x="57" y="38" width="453" height="308" fill="white"/>
<rect x="57" y="38" width="453" height="308" fill="none" stroke="black"/>
<path d="M57,346h 46v -29v 4h 1v -16v 14v -4h 1v -14v 14v -10v 18h 1v -21v 13v -5h 1v -6v 17v -14v 10h 1v -10v 12h 1v -21v 17v -15v 18h 1v -18v 23v -5h 1v -17v 18v -18v 17h 1v -12v 14h 1v -16v 12v -20v 17h 1v 6v -21v 21h 1v -14v 10v -15v 5h 1v 10v
 -12v 15h 1v -12v 16v -18v 7h 1v 7v -14v 14h 1v -16v 18v -18h 1v 20v -29v 25h 1v -17v 18v -14v 1h 1v 13v -15v 17h 1v -15v 15v -14h 1v 16v -19v 16h 1v -18v 17v -8h 1v 11v -17v 16h 1v -20v 20v -26h 1v 24v -16v 11h 1v 3v -19v 21v -16h 1v 17v -18v 18h 1v
 -18v 21v -23h 1v 18v -16v 13h 1v 4v -19v 16v -10h 1v 12v -19v 12h 1v 9v -15v 9v -7h 1v 13v -19v 13h 1v 2v -16v 20v -14h 1v -1v 12v -11v 7h 1v 7v -21v 20v -9h 1v -12v 24v -20h 1v 19v -19v 16v -5h 1v -14v 19v -12h 1v 12v -20v 20v -3h 1v -14v 15v -17v
 20h 1v 1v -14v 12v -1h 1v -16v 16v -14v 15h 1v 2v -16v 13h 1v -16v 14v -15v 16h 1v 3v -16v 18h 1v -18v 16v -21v 13h 1v 6v -20v 25h 1v -17v 15v -14v 9h 1v 5v -22v 24h 1v -16v 14v -17v 5h 1v 12v -18v 16h 1v -18v 18v -13h 1v 16v -20v 17h 1v -16v 16v
 -21h 1v 22v -12v 11h 1v -16v 13v -15h 1v 17v -12v 9h 1v 4v -16v 20v -15h 1v 8v -13v 17h 1v 2v -19v 18v -22h 1v 21v -19v 18h 1v 3v -14v 15v -24h 1v 22v -13v 11h 1v 4v -16v 14v -17h 1v 15v -15v 8h 1v 6v -14v 16v -19h 1v 14v -9v 5h 1v 13v -24v 19v -11h
 1v -1v 13v -16v 7h 1v 11v -13v 11v -10h 1v -9v 19v -9v 2h 1v 6v -9v 12v -8h 1v -13v 23v -17v 1h 1v 15v -23v 19v -2h 1v -11v 14v -15h 1v 15v -14v 16v -2h 1v -22v 26v -19h 1v 17v -19v 19h 1v -28v 22v -15h 1v 18v -10v 12h 1v -17v 17v -12v 4h 1v 6v -15v
 13h 1v -14v 20v -21v 12h 1v 2v -13v 15v -1h 1v -17v 22v -14v 8h 1v 5v -27v 27h 1v -19v 19v -21v 12h 1v 10v -19v 14h 1v -16v 18v -17h 1v 18v -13v 8h 1v -7v 10v -15h 1v 19v -17v 13h 1v -17v 18v -17h 1v 19v -20v 15h 1v 3v -13v 14v -16h 1v 20v -18v 15h
 1v -14v 13v -18h 1v 17v -18v 16h 1v 2v -13v 12v -9h 1v 9v -19v 18h 1v 3v -14v 17v -17h 1v 14v -18v 10h 1v 10v -22v 21v -11h 1v -6v 15v -14v 5h 1v 13v -19v 17v -14h 1v -7v 22v -17h 1v 10v -9v 16v -14h 1v -7v 20v -18h 1v 11v -10v 14v -2h 1v -21v 24v
 -19h 1v 18v -20v 21v -2h 1v -12v 12v -8h 1v 11v -14v 16h 1v -24v 21v -15h 1v 16v -16v 15v -5h 1v -4v 8v -18h 1v 19v -16v 15v -2h 1v -11v 20v -20h 1v 17v -21v 17v -3h 1v -9v 13v -15h 1v 13v -10v 12h 1v -12v 12v -15v 1h 1v 15v -19v 18v -1h 1v -17v 20v
 -13h 1v 17v -16v 14h 1v -23v 19v -13h 1v 13v -15v 16h 1v -18v 21v -21h 1v 15v -9v 10h 1v -7v 6v -18h 1v 22v -14v 11h 1v 3v -14v 12v -24h 1v 22v -16v 11h 1v 8v -15v 11v -13h 1v 14v -13v 8h 1v 9v -17v 20v -18h 1v -4v 14v -18v 18h 1v 4v -18v 22v -14h
 1v -4v 16v -26v 16h 1v 2v -15v 17v -8h 1v -1v 11v -14v 11h 1v 1v -16v 19v -11h 1v 8v -15v 6h 1v 10v -15v 13h 1v -9v 12v -15h 1v 14v -15v 14h 1v -12v 15v -16h 1v 18v -17v 15v -8h 1v -2v 11v -15h 1v 12v -13v 16h 1v -28v 24v -19h 1v 18v -14v 15h 1v -9v
 9v -17h 1v 17v -14v 14h 1v -10v 13v -18h 1v 11v -14v 19h 1v -11v 12v -17h 1v 19v -21v 17v -1h 1v -10v 13v -16h 1v -1v 19v -18v 14h 1v -20v 20v -10h 1v 10v -13v 9h 1v 2v -13v 16v -20h 1v 21v -14v 12h 1v -19v 19v -18h 1v 17v -12v 12h 1v -20v 27v -21h
 1v 14v -11v 13h 1v -15v 15v -18h 1v 20v -22v 20h 1v -17v 14v -17h 1v 18v -15v 8h 1v 10v -16v 15v -11h 1v -1v 12v -20v 11h 1v 6v -13v 13v -12h 1v 10v -13v 6h 1v 7v -15v 21v -14h 1v -3v 13v -10v 1h 1v -21v 7v -237v 293h 1v -242v 65v -2v 28h 1v 24v
 -25v 34v -6h 1v -22v 24v -2h 1v 6v -7v 5v -1v 15h 1v -34v 30v -12h 1v 19v -15v 13v -2h 1v -9v 24v -31h 1v 32v -31v 25v -4h 1v -15v 20v -13h 1v 13v -7v 3v -6v 22v -6h 1v -7v 10v -20h 1v 17v -15v 24v -7h 1v -10v 14v -18h 1v 14v -13v 18v -2h 1v -9v 15v
 -14h 1v 14v -17v 20v -6h 1v -9v 17v -17h 1v -8v 24v -22v 15h 1v 4v -10v 20v -14h 1v -12v 22v -20v 25h 1v -21v 18h 1v -12v 20v -21v 20h 1v -18v 16v -3h 1v -14v 17v -12v 15h 1v -17v 16h 1v -26v 25v -15v 12h 1v 4v -11v 21v -31h 1v 26v -23v 22h 1v -10v
 12v -20h 1v 24v -21v 18h 1v -17v 23v -16h 1v 6v -2v 4v -18v 12h 1v 12v -20v 18v -14h 1v 15v -12v 3h 1v 9v -22v 28v -11h 1v -3v 14v -18v 13h 1v 2v -21v 20v -5h 1v -10v 22v -19v 10h 1v 5v -19v 20v -5h 1v -10v 19v -19h 1v 17v -15v 19v -9h 1v -18v 18v
 -9h 1v 12v -10v 10v -4h 1v -11v 19v -16h 1v 14v -13v 15v -3h 1v -13v 16v -14h 1v 15v -19v 18h 1v -15v 16v -24h 1v 20v -10v 12h 1v -19v 26v -20h 1v 22v -27v 19h 1v -13v 19v -23h 1v 21v -24v 24h 1v -17v 18v -12h 1v -6v 18v -16v 16h 1v -17v 18v -15h 1v
 18v -25v 22h 1v 2v -22v 23v -8h 1v -11v 19v -19v 20h 1v -20v 19v -6h 1v -21v 23v -13v 12h 1v -14v 16h 1v -18v 16v -11v 10h 1v 1v -13v 20v -2h 1v -15v 13v -19v 17h 1v 2v -15v 22v -9h 1v -6v 11v -12v 8h 1v 4v -15v 15v -12h 1v -3v 16v -16v 12h 1v 3v
 -17v 15v -12h 1v 19v -20v 5h 1v 10v -12v 12v -6h 1v -13v 21v -18v 9h 1v 9v -20v 23v -14h 1v -10v 22v -18h 1v 16v -24v 26h 1v -16v 12v -12h 1v 15v -17v 17v -5h 1v -15v 21v -16h 1v 15v -12v 10h 1v -15v 14v -12h 1v 11v -4v 2v -11v 20v -3h 1v -10v 9v
 -18h 1v 18v -16v 17h 1v -16v 16v -20h 1v 19v -13v 12v -2h 1v -7v 14v -17h 1v 18v -19v 16h 1v -17v 18v -9h 1v -5v 15v -16v 10h 1v 3v -17v 21v -13h 1v -10v 19v -14v 20h 1v -22v 15v -9h 1v -4v 17v -16v 9h 1v 1v -15v 17v -6h 1v -8v 16v -13v 16h 1v -16v
 13v -3h 1v -16v 24v -21v 15h 1v -13v 19v -3h 1v -17v 13v -12v 14h 1v 4v -19v 18v -6h 1v -14v 20v -22v 17h 1v 2v -13v 17v -3h 1v -17v 16v -9v 7h 1v 6v -24v 22v -3h 1v -9v 12v -10v 3h 1v 3v -14v 17h 1v -11v 9v -13v 9h 1v 8v -15v 13v -11h 1v -5v 13v
 -7v 1h 1v 8v -16v 16h 1v -19v 24v -22h 1v 16v -11v 8h 1v -12v 19v -12h 1v 11v -11v 11v -4h 1v -9v 15v -24h 1v 19v -14v 17v -6h 1v -5v 11v -23h 1v 22v -12v 13v -2h 1v -13v 15v -13h 1v 13v -18v 16h 1v -10v 13v -15h 1v 12v -20v 19h 1v -13v 15v -8h 1v
 -1v 9v -18v 19h 1v -15v 16v -13h 1v -1v 12v -17v 16h 1v -21v 21v -5h 1v -10v 17v -23v 26h 1v -14v 9v -7h 1v -12v 19v -13v 8h 1v 6v -14v 15v -10h 1v -10v 20v -9v 10h 1v -19v 18v -8h 1v -10v 17v -25v 25h 1v 3v -14v 15v -7h 1v -8v 10v -13v 12h 1v -10v
 14h 1v -17v 16v -16v 6h 1v 12v -19v 14v -5h 1v -8v 16v -15v 7h 1v 5v -13v 18v -1h 1v -21v 17v -12v 7h 1v 7v -16v 18h 1v -22v 23v -12h 1v 10v -18v 20h 1v -13v 12v -14v 6h 1v 7v -23v 25h 1v -22v 18v -18h 1v 18v -11v 11v -1h 1v -19v 21v -15h 1v 17v
 -18v 16h 1v -15v 14v -2v 1v -16h 1v 21v -20v 18v -4h 1v -12v 16v -15h 1v 16v -17v 16v -4h 1v -7v 5v -12h 1v 16v -18v 21h 1v -13v 11v -13h 1v 13v -17v 16h 1v -18v 21v -14h 1v 13v -18v 16h 1v -13v 17v -11h 1v -8v 19v -17v 18h 1v -20v 16v -8h 1v -8v
 17v -13v 13h 1v 3v -18v 17v -6h 1v -10v 14v -19v 17h 1v 3v -20v 17v -2h 1v -16v 18v -15v 20h 1v -17v 13h 1v -18v 18v -15v 13h 1v -13v 12h 1v -14v 17v -17v 19h 1v 2v -18v 16v -6h 1v -6v 9v -11v 5h 1v 9v -18v 19v -5h 1v -8v 8v -11v 8h 1v 10v -25v 18h
 1v -9v 12v -17v 11h 1v 5v -21v 22h 1v -19v 17v -14v 3h 1v 15v -17v 18h 1v -20v 22v -14v 1h 1v 10v -19v 13h 1v -14v 19v -17h 1v 18v -16v 11h 1v 2v -16v 20v -18h 1v 19v -14v 12h 1v -18v 14v -10h 1v 16v -16v 14v -3h 1v -12v 14v -18h 1v 18v -18v 16h 1v
 -6v 5v -13h 1v 17v -18v 17h 1v -16v 16v -9h 1v -2v 9v -19v 22h 1v -13v 10v -7h 1v -4v 15v -16v 7h 1v 1v -8v 13v -4h 1v -7v 11v -17v 19h 1v -20v 14v -6h 1v -8v 17v -15v 12h 1v 2v -16v 20v -3h 1v -11v 15v -17v 16h 1v -8v 1v -1v 3h 1v -14v 17v -19v 17h
 1v 2v -11v 14v -7h 1v -10v 17v -20v 16h 1v -9v 9h 1v -14v 13v -20v 14h 1v 6v -14v 18v -3h 1v -11v 13v -21v 12h 1v 12v -12v 14v -9h 1v -12v 14v -14v 6h 1v 9v -15v 20h 1v -21v 18v -14v 3h 1v 10v -22v 18h 1v -16v 21v -17v 3h 1v 9v -12v 22h 1v -25v 21v
 -17h 1v 16v -17v 16h 1v -23v 20v -17h 1v 18v -13v 14h 1v -17v 19v -25h 1v 24v -19v 14h 1v 4v -15v 13" fill="none" stroke="#000099"/>
<rect x="442" y="25" width="114" height="46" fill="white"/>
<path d="M442,71h 114" fill="none" stroke="black"/>
<path d="M556,71v -46" fill="none" stroke="black"/>
<path d="M556,25h -114" fill="none" stroke="black"/>
<path d="M442,25v 46" fill="none" stroke="black"/>
<text x="447" y="28" fill="black" font-size="4" font-family="Helvetica">
Entries 
</text>
<text x="535" y="28" fill="black" font-size="4" font-family="Helvetica">
 438950
</text>
<text x="450" y="35" fill="black" font-size="4" font-family="Helvetica">
 / ndf 
</text>
<text x="449" y="31" fill="black" font-size="3" font-family="Helvetica">
2
</text>
<text x="447" y="35" fill="black" font-size="4" font-family="Times">
&#0967;
</text>
<text x="526" y="34" fill="black" font-size="4" font-family="Helvetica">
  1853 / 1240
</text>
<text x="452" y="37" fill="black" font-size="4" font-family="Helvetica">
   
</text>
<text x="450" y="40" fill="black" font-size="3" font-family="Helvetica">
cu
</text>
<text x="447" y="37" fill="black" font-size="4" font-family="Helvetica">
N
</text>
<text x="541" y="40" fill="black" font-size="4" font-family="Helvetica">
 19.2
</text>
<text x="538" y="40" fill="black" font-size="4" font-family="Times">
&#0177;
</text>
<text x="526" y="40" fill="black" font-size="4" font-family="Helvetica">
 213.4 
</text>
<text x="450" y="43" fill="black" font-size="4" font-family="Helvetica">
 
</text>
<text x="448" y="46" fill="black" font-size="3" font-family="Helvetica">
cu
</text>
<text x="447" y="43" fill="black" font-size="4" font-family="Times">
&#0964;
</text>
<text x="543" y="45" fill="black" font-size="4" font-family="Helvetica">
 1.9
</text>
<text x="541" y="45" fill="black" font-size="4" font-family="Times">
&#0177;
</text>
<text x="529" y="45" fill="black" font-size="4" font-family="Helvetica">
 162.5 
</text>
<text x="450" y="48" fill="black" font-size="4" font-family="Helvetica">
    
</text>
<text x="450" y="51" fill="black" font-size="3" font-family="Helvetica">
f
</text>
<text x="447" y="48" fill="black" font-size="4" font-family="Helvetica">
N
</text>
<text x="543" y="50" fill="black" font-size="4" font-family="Helvetica">
 4.7
</text>
<text x="541" y="50" fill="black" font-size="4" font-family="Times">
&#0177;
</text>
<text x="529" y="50" fill="black" font-size="4" font-family="Helvetica">
 431.9 
</text>
<text x="448" y="53" fill="black" font-size="4" font-family="Helvetica">
 
</text>
<text x="448" y="57" fill="black" font-size="3" font-family="Helvetica">
f
</text>
<text x="447" y="53" fill="black" font-size="4" font-family="Times">
&#0964;
</text>
<text x="541" y="55" fill="black" font-size="4" font-family="Helvetica">
 28.0
</text>
<text x="538" y="55" fill="black" font-size="4" font-family="Times">
&#0177;
</text>
<text x="526" y="55" fill="black" font-size="4" font-family="Helvetica">
  2228 
</text>
<text x="452" y="58" fill="black" font-size="4" font-family="Helvetica">
  
</text>
<text x="450" y="61" fill="black" font-size="3" font-family="Helvetica">
sin
</text>
<text x="447" y="58" fill="black" font-size="4" font-family="Helvetica">
N
</text>
<text x="541" y="60" fill="black" font-size="4" font-family="Helvetica">
 0.61
</text>
<text x="538" y="60" fill="black" font-size="4" font-family="Times">
&#0177;
</text>
<text x="526" y="60" fill="black" font-size="4" font-family="Helvetica">
 42.87 
</text>
<text x="447" y="65" fill="black" font-size="4" font-family="Helvetica">
T        
</text>
<text x="541" y="66" fill="black" font-size="4" font-family="Helvetica">
 0.00
</text>
<text x="538" y="66" fill="black" font-size="4" font-family="Times">
&#0177;
</text>
<text x="526" y="66" fill="black" font-size="4" font-family="Helvetica">
 59.38 
</text>
<text x="450" y="68" fill="black" font-size="4" font-family="Helvetica">
    
</text>
<text x="450" y="71" fill="black" font-size="3" font-family="Helvetica">
b
</text>
<text x="447" y="68" fill="black" font-size="4" font-family="Helvetica">
N
</text>
<text x="543" y="71" fill="black" font-size="4" font-family="Helvetica">
 0.5
</text>
<text x="541" y="71" fill="black" font-size="4" font-family="Times">
&#0177;
</text>
<text x="529" y="71" fill="black" font-size="4" font-family="Helvetica">
 160.9 
</text>
<path d="M284,181v 12" fill="none" stroke="#ff0000" stroke-width="2"/>
<path d="M285,181v 26" fill="none" stroke="#ff0000" stroke-width="2"/>
<path d="M285,201v 19" fill="none" stroke="#ff0000" stroke-width="2"/>
<path d="M286,208v 21" fill="none" stroke="#ff0000" stroke-width="2"/>
<path d="M287,213v 21" fill="none" stroke="#ff0000" stroke-width="2"/>
<path d="M288,217v 21" fill="none" stroke="#ff0000" stroke-width="2"/>
<path d="M289,221v 21" fill="none" stroke="#ff0000" stroke-width="2"/>
<path d="M289,227v 18" fill="none" stroke="#ff0000" stroke-width="2"/>
<path d="M290,229v 20" fill="none" stroke="#ff0000" stroke-width="2"/>
<path d="M291,232v 19" fill="none" stroke="#ff0000" stroke-width="2"/>
<path d="M292,233v 20" fill="none" stroke="#ff0000" stroke-width="2"/>
<path d="M293,237v 18" fill="none" stroke="#ff0000" stroke-width="2"/>
<path d="M293,239v 19" fill="none" stroke="#ff0000" stroke-width="2"/>
<path d="M294,241v 19" fill="none" stroke="#ff0000" stroke-width="2"/>
<path d="M295,242v 20" fill="none" stroke="#ff0000" stroke-width="2"/>
<path d="M296,244v 20" fill="none" stroke="#ff0000" stroke-width="2"/>
<path d="M297,247v 18" fill="none" stroke="#ff0000" stroke-width="2"/>
<path d="M298,248v 20" fill="none" stroke="#ff0000" stroke-width="2"/>
<path d="M298,250v 19" fill="none" stroke="#ff0000" stroke-width="2"/>
<path d="M299,251v 19" fill="none" stroke="#ff0000" stroke-width="2"/>
<path d="M300,252v 20" fill="none" stroke="#ff0000" stroke-width="2"/>
<path d="M301,255v 18" fill="none" stroke="#ff0000" stroke-width="2"/>
<path d="M302,256v 20" fill="none" stroke="#ff0000" stroke-width="2"/>
<path d="M302,258v 19" fill="none" stroke="#ff0000" stroke-width="2"/>
<path d="M303,259v 19" fill="none" stroke="#ff0000" stroke-width="2"/>
<path d="M304,260v 19" fill="none" stroke="#ff0000" stroke-width="2"/>
<path d="M305,262v 18" fill="none" stroke="#ff0000" stroke-width="2"/>
<path d="M306,263v 19" fill="none" stroke="#ff0000" stroke-width="2"/>
<path d="M307,264v 19" fill="none" stroke="#ff0000" stroke-width="2"/>
<path d="M307,265v 19" fill="none" stroke="#ff0000" stroke-width="2"/>
<path d="M308,267v 18" fill="none" stroke="#ff0000" stroke-width="2"/>
<path d="M309,268v 18" fill="none" stroke="#ff0000" stroke-width="2"/>
<path d="M310,269v 19" fill="none" stroke="#ff0000" stroke-width="2"/>
<path d="M311,269v 20" fill="none" stroke="#ff0000" stroke-width="2"/>
<path d="M311,270v 20" fill="none" stroke="#ff0000" stroke-width="2"/>
<path d="M312,272v 19" fill="none" stroke="#ff0000" stroke-width="2"/>
<path d="M313,273v 19" fill="none" stroke="#ff0000" stroke-width="2"/>
<path d="M314,273v 20" fill="none" stroke="#ff0000" stroke-width="2"/>
<path d="M315,274v 20" fill="none" stroke="#ff0000" stroke-width="2"/>
<path d="M315,275v 19" fill="none" stroke="#ff0000" stroke-width="2"/>
<path d="M316,277v 18" fill="none" stroke="#ff0000" stroke-width="2"/>
<path d="M317,277v 19" fill="none" stroke="#ff0000" stroke-width="2"/>
<path d="M318,277v 20" fill="none" stroke="#ff0000" stroke-width="2"/>
<path d="M319,278v 19" fill="none" stroke="#ff0000" stroke-width="2"/>
<path d="M320,279v 19" fill="none" stroke="#ff0000" stroke-width="2"/>
<path d="M320,280v 19" fill="none" stroke="#ff0000" stroke-width="2"/>
<path d="M321,281v 18" fill="none" stroke="#ff0000" stroke-width="2"/>
<path d="M322,282v 18" fill="none" stroke="#ff0000" stroke-width="2"/>
<path d="M323,282v 19" fill="none" stroke="#ff0000" stroke-width="2"/>
<path d="M324,282v 19" fill="none" stroke="#ff0000" stroke-width="2"/>
<path d="M324,283v 19" fill="none" stroke="#ff0000" stroke-width="2"/>
<path d="M325,284v 19" fill="none" stroke="#ff0000" stroke-width="2"/>
<path d="M326,284v 20" fill="none" stroke="#ff0000" stroke-width="2"/>
<path d="M327,285v 19" fill="none" stroke="#ff0000" stroke-width="2"/>
<path d="M328,286v 18" fill="none" stroke="#ff0000" stroke-width="2"/>
<path d="M329,286v 18" fill="none" stroke="#ff0000" stroke-width="2"/>
<path d="M329,286v 19" fill="none" stroke="#ff0000" stroke-width="2"/>
<path d="M330,287v 19" fill="none" stroke="#ff0000" stroke-width="2"/>
<path d="M331,287v 19" fill="none" stroke="#ff0000" stroke-width="2"/>
<path d="M332,288v 19" fill="none" stroke="#ff0000" stroke-width="2"/>
<path d="M333,289v 19" fill="none" stroke="#ff0000" stroke-width="2"/>
<path d="M333,289v 19" fill="none" stroke="#ff0000" stroke-width="2"/>
<path d="M334,289v 19" fill="none" stroke="#ff0000" stroke-width="2"/>
<path d="M335,290v 18" fill="none" stroke="#ff0000" stroke-width="2"/>
<path d="M336,291v 17" fill="none" stroke="#ff0000" stroke-width="2"/>
<path d="M337,291v 18" fill="none" stroke="#ff0000" stroke-width="2"/>
<path d="M337,291v 18" fill="none" stroke="#ff0000" stroke-width="2"/>
<path d="M338,291v 19" fill="none" stroke="#ff0000" stroke-width="2"/>
<path d="M339,291v 19" fill="none" stroke="#ff0000" stroke-width="2"/>
<path d="M340,292v 18" fill="none" stroke="#ff0000" stroke-width="2"/>
<path d="M341,292v 19" fill="none" stroke="#ff0000" stroke-width="2"/>
<path d="M342,292v 19" fill="none" stroke="#ff0000" stroke-width="2"/>
<path d="M342,293v 19" fill="none" stroke="#ff0000" stroke-width="2"/>
<path d="M343,293v 19" fill="none" stroke="#ff0000" stroke-width="2"/>
<path d="M344,293v 19" fill="none" stroke="#ff0000" stroke-width="2"/>
<path d="M345,294v 19" fill="none" stroke="#ff0000" stroke-width="2"/>
<path d="M346,294v 19" fill="none" stroke="#ff0000" stroke-width="2"/>
<path d="M346,294v 19" fill="none" stroke="#ff0000" stroke-width="2"/>
<path d="M347,295v 18" fill="none" stroke="#ff0000" stroke-width="2"/>
<path d="M348,295v 18" fill="none" stroke="#ff0000" stroke-width="2"/>
<path d="M349,295v 18" fill="none" stroke="#ff0000" stroke-width="2"/>
<path d="M350,295v 18" fill="none" stroke="#ff0000" stroke-width="2"/>
<path d="M351,295v 19" fill="none" stroke="#ff0000" stroke-width="2"/>
<path d="M351,295v 19" fill="none" stroke="#ff0000" stroke-width="2"/>
<path d="M352,295v 19" fill="none" stroke="#ff0000" stroke-width="2"/>
<path d="M353,296v 18" fill="none" stroke="#ff0000" stroke-width="2"/>
<path d="M354,296v 19" fill="none" stroke="#ff0000" stroke-width="2"/>
<path d="M355,296v 19" fill="none" stroke="#ff0000" stroke-width="2"/>
<path d="M355,296v 19" fill="none" stroke="#ff0000" stroke-width="2"/>
<path d="M356,296v 19" fill="none" stroke="#ff0000" stroke-width="2"/>
<path d="M357,297v 19" fill="none" stroke="#ff0000" stroke-width="2"/>
<path d="M358,297v 19" fill="none" stroke="#ff0000" stroke-width="2"/>
<path d="M359,297v 19" fill="none" stroke="#ff0000" stroke-width="2"/>
<path d="M359,297v 19" fill="none" stroke="#ff0000" stroke-width="2"/>
<path d="M360,297v 19" fill="none" stroke="#ff0000" stroke-width="2"/>
<path d="M361,298v 18" fill="none" stroke="#ff0000" stroke-width="2"/>
<path d="M362,298v 19" fill="none" stroke="#ff0000" stroke-width="2"/>
<path d="M363,298v 19" fill="none" stroke="#ff0000" stroke-width="2"/>
<path d="M364,298v 19" fill="none" stroke="#ff0000" stroke-width="2"/>
<path d="M364,298v 19" fill="none" stroke="#ff0000" stroke-width="2"/>
<path d="M365,298v 19" fill="none" stroke="#ff0000" stroke-width="2"/>
<path d="M366,298v 19" fill="none" stroke="#ff0000" stroke-width="2"/>
<path d="M367,299v 18" fill="none" stroke="#ff0000" stroke-width="2"/>
<path d="M368,299v 18" fill="none" stroke="#ff0000" stroke-width="2"/>
<path d="M368,299v 18" fill="none" stroke="#ff0000" stroke-width="2"/>
<path d="M369,299v 18" fill="none" stroke="#ff0000" stroke-width="2"/>
<path d="M370,299v 18" fill="none" stroke="#ff0000" stroke-width="2"/>
<path d="M371,299v 18" fill="none" stroke="#ff0000" stroke-width="2"/>
<path d="M372,299v 18" fill="none" stroke="#ff0000" stroke-width="2"/>
<path d="M372,299v 18" fill="none" stroke="#ff0000" stroke-width="2"/>
<path d="M373,299v 18" fill="none" stroke="#ff0000" stroke-width="2"/>
<path d="M374,299v 19" fill="none" stroke="#ff0000" stroke-width="2"/>
<path d="M375,299v 19" fill="none" stroke="#ff0000" stroke-width="2"/>
<path d="M376,299v 19" fill="none" stroke="#ff0000" stroke-width="2"/>
<path d="M377,299v 19" fill="none" stroke="#ff0000" stroke-width="2"/>
<path d="M377,299v 19" fill="none" stroke="#ff0000" stroke-width="2"/>
<path d="M378,299v 19" fill="none" stroke="#ff0000" stroke-width="2"/>
<path d="M379,299v 19" fill="none" stroke="#ff0000" stroke-width="2"/>
<path d="M380,299v 19" fill="none" stroke="#ff0000" stroke-width="2"/>
<path d="M381,299v 19" fill="none" stroke="#ff0000" stroke-width="2"/>
<path d="M381,299v 19" fill="none" stroke="#ff0000" stroke-width="2"/>
<path d="M382,300v 18" fill="none" stroke="#ff0000" stroke-width="2"/>
<path d="M383,300v 19" fill="none" stroke="#ff0000" stroke-width="2"/>
<path d="M384,300v 19" fill="none" stroke="#ff0000" stroke-width="2"/>
<path d="M385,300v 19" fill="none" stroke="#ff0000" stroke-width="2"/>
<path d="M386,300v 19" fill="none" stroke="#ff0000" stroke-width="2"/>
<path d="M386,300v 19" fill="none" stroke="#ff0000" stroke-width="2"/>
<path d="M387,300v 19" fill="none" stroke="#ff0000" stroke-width="2"/>
<path d="M388,300v 19" fill="none" stroke="#ff0000" stroke-width="2"/>
<path d="M389,300v 19" fill="none" stroke="#ff0000" stroke-width="2"/>
<path d="M390,300v 19" fill="none" stroke="#ff0000" stroke-width="2"/>
<path d="M390,300v 19" fill="none" stroke="#ff0000" stroke-width="2"/>
<path d="M391,300v 19" fill="none" stroke="#ff0000" stroke-width="2"/>
<path d="M392,300v 19" fill="none" stroke="#ff0000" stroke-width="2"/>
<path d="M393,300v 19" fill="none" stroke="#ff0000" stroke-width="2"/>
<path d="M394,300v 19" fill="none" stroke="#ff0000" stroke-width="2"/>
<path d="M394,300v 19" fill="none" stroke="#ff0000" stroke-width="2"/>
<path d="M395,300v 19" fill="none" stroke="#ff0000" stroke-width="2"/>
<path d="M396,301v 18" fill="none" stroke="#ff0000" stroke-width="2"/>
<path d="M397,301v 18" fill="none" stroke="#ff0000" stroke-width="2"/>
<path d="M398,301v 18" fill="none" stroke="#ff0000" stroke-width="2"/>
<path d="M399,301v 19" fill="none" stroke="#ff0000" stroke-width="2"/>
<path d="M399,301v 19" fill="none" stroke="#ff0000" stroke-width="2"/>
<path d="M400,301v 19" fill="none" stroke="#ff0000" stroke-width="2"/>
<path d="M401,301v 19" fill="none" stroke="#ff0000" stroke-width="2"/>
<path d="M402,301v 19" fill="none" stroke="#ff0000" stroke-width="2"/>
<path d="M403,301v 19" fill="none" stroke="#ff0000" stroke-width="2"/>
<path d="M403,301v 19" fill="none" stroke="#ff0000" stroke-width="2"/>
<path d="M404,301v 19" fill="none" stroke="#ff0000" stroke-width="2"/>
<path d="M405,301v 19" fill="none" stroke="#ff0000" stroke-width="2"/>
<path d="M406,301v 19" fill="none" stroke="#ff0000" stroke-width="2"/>
<path d="M407,301v 19" fill="none" stroke="#ff0000" stroke-width="2"/>
<path d="M408,301v 19" fill="none" stroke="#ff0000" stroke-width="2"/>
<path d="M408,301v 19" fill="none" stroke="#ff0000" stroke-width="2"/>
<path d="M409,301v 19" fill="none" stroke="#ff0000" stroke-width="2"/>
<path d="M410,301v 19" fill="none" stroke="#ff0000" stroke-width="2"/>
<path d="M411,301v 19" fill="none" stroke="#ff0000" stroke-width="2"/>
<path d="M412,301v 19" fill="none" stroke="#ff0000" stroke-width="2"/>
<path d="M412,301v 19" fill="none" stroke="#ff0000" stroke-width="2"/>
<path d="M413,301v 19" fill="none" stroke="#ff0000" stroke-width="2"/>
<path d="M414,301v 19" fill="none" stroke="#ff0000" stroke-width="2"/>
<path d="M415,301v 19" fill="none" stroke="#ff0000" stroke-width="2"/>
<path d="M416,301v 19" fill="none" stroke="#ff0000" stroke-width="2"/>
<path d="M416,301v 19" fill="none" stroke="#ff0000" stroke-width="2"/>
<path d="M417,301v 19" fill="none" stroke="#ff0000" stroke-width="2"/>
<path d="M418,301v 19" fill="none" stroke="#ff0000" stroke-width="2"/>
<path d="M419,301v 19" fill="none" stroke="#ff0000" stroke-width="2"/>
<path d="M420,301v 19" fill="none" stroke="#ff0000" stroke-width="2"/>
<path d="M421,301v 19" fill="none" stroke="#ff0000" stroke-width="2"/>
<path d="M421,301v 19" fill="none" stroke="#ff0000" stroke-width="2"/>
<path d="M422,301v 19" fill="none" stroke="#ff0000" stroke-width="2"/>
<path d="M423,301v 19" fill="none" stroke="#ff0000" stroke-width="2"/>
<path d="M424,301v 19" fill="none" stroke="#ff0000" stroke-width="2"/>
<path d="M425,301v 19" fill="none" stroke="#ff0000" stroke-width="2"/>
<path d="M425,301v 19" fill="none" stroke="#ff0000" stroke-width="2"/>
<path d="M426,301v 19" fill="none" stroke="#ff0000" stroke-width="2"/>
<path d="M427,301v 19" fill="none" stroke="#ff0000" stroke-width="2"/>
<path d="M428,301v 19" fill="none" stroke="#ff0000" stroke-width="2"/>
<path d="M429,301v 19" fill="none" stroke="#ff0000" stroke-width="2"/>
<path d="M430,301v 19" fill="none" stroke="#ff0000" stroke-width="2"/>
<path d="M430,302v 18" fill="none" stroke="#ff0000" stroke-width="2"/>
<path d="M431,302v 18" fill="none" stroke="#ff0000" stroke-width="2"/>
<path d="M432,302v 18" fill="none" stroke="#ff0000" stroke-width="2"/>
<path d="M433,302v 18" fill="none" stroke="#ff0000" stroke-width="2"/>
<path d="M434,302v 18" fill="none" stroke="#ff0000" stroke-width="2"/>
<path d="M434,302v 18" fill="none" stroke="#ff0000" stroke-width="2"/>
<path d="M435,302v 18" fill="none" stroke="#ff0000" stroke-width="2"/>
<path d="M436,302v 18" fill="none" stroke="#ff0000" stroke-width="2"/>
<path d="M437,302v 18" fill="none" stroke="#ff0000" stroke-width="2"/>
<path d="M438,302v 18" fill="none" stroke="#ff0000" stroke-width="2"/>
<path d="M438,302v 18" fill="none" stroke="#ff0000" stroke-width="2"/>
<path d="M439,302v 18" fill="none" stroke="#ff0000" stroke-width="2"/>
<path d="M440,302v 18" fill="none" stroke="#ff0000" stroke-width="2"/>
<path d="M441,302v 18" fill="none" stroke="#ff0000" stroke-width="2"/>
<path d="M442,302v 18" fill="none" stroke="#ff0000" stroke-width="2"/>
<path d="M443,302v 18" fill="none" stroke="#ff0000" stroke-width="2"/>
<path d="M443,302v 18" fill="none" stroke="#ff0000" stroke-width="2"/>
<path d="M444,302v 19" fill="none" stroke="#ff0000" stroke-width="2"/>
<path d="M445,302v 19" fill="none" stroke="#ff0000" stroke-width="2"/>
<path d="M446,302v 19" fill="none" stroke="#ff0000" stroke-width="2"/>
<path d="M447,302v 19" fill="none" stroke="#ff0000" stroke-width="2"/>
<path d="M447,302v 19" fill="none" stroke="#ff0000" stroke-width="2"/>
<path d="M448,302v 18" fill="none" stroke="#ff0000" stroke-width="2"/>
<path d="M449,302v 19" fill="none" stroke="#ff0000" stroke-width="2"/>
<path d="M450,302v 19" fill="none" stroke="#ff0000" stroke-width="2"/>
<path d="M451,302v 19" fill="none" stroke="#ff0000" stroke-width="2"/>
<path d="M452,302v 19" fill="none" stroke="#ff0000" stroke-width="2"/>
<path d="M452,302v 19" fill="none" stroke="#ff0000" stroke-width="2"/>
<path d="M453,302v 19" fill="none" stroke="#ff0000" stroke-width="2"/>
<path d="M454,302v 19" fill="none" stroke="#ff0000" stroke-width="2"/>
<path d="M455,302v 19" fill="none" stroke="#ff0000" stroke-width="2"/>
<path d="M456,302v 19" fill="none" stroke="#ff0000" stroke-width="2"/>
<path d="M456,302v 19" fill="none" stroke="#ff0000" stroke-width="2"/>
<path d="M457,302v 19" fill="none" stroke="#ff0000" stroke-width="2"/>
<path d="M458,302v 19" fill="none" stroke="#ff0000" stroke-width="2"/>
<path d="M459,302v 19" fill="none" stroke="#ff0000" stroke-width="2"/>
<path d="M460,302v 19" fill="none" stroke="#ff0000" stroke-width="2"/>
<path d="M460,302v 19" fill="none" stroke="#ff0000" stroke-width="2"/>
<path d="M461,302v 19" fill="none" stroke="#ff0000" stroke-width="2"/>
<path d="M462,302v 19" fill="none" stroke="#ff0000" stroke-width="2"/>
<path d="M463,302v 19" fill="none" stroke="#ff0000" stroke-width="2"/>
<path d="M464,302v 19" fill="none" stroke="#ff0000" stroke-width="2"/>
<path d="M465,302v 19" fill="none" stroke="#ff0000" stroke-width="2"/>
<path d="M465,302v 19" fill="none" stroke="#ff0000" stroke-width="2"/>
<path d="M466,302v 19" fill="none" stroke="#ff0000" stroke-width="2"/>
<path d="M467,302v 19" fill="none" stroke="#ff0000" stroke-width="2"/>
<path d="M468,302v 19" fill="none" stroke="#ff0000" stroke-width="2"/>
<path d="M469,302v 19" fill="none" stroke="#ff0000" stroke-width="2"/>
<path d="M469,302v 19" fill="none" stroke="#ff0000" stroke-width="2"/>
<path d="M470,302v 19" fill="none" stroke="#ff0000" stroke-width="2"/>
<path d="M471,302v 19" fill="none" stroke="#ff0000" stroke-width="2"/>
<path d="M472,302v 19" fill="none" stroke="#ff0000" stroke-width="2"/>
<path d="M473,302v 19" fill="none" stroke="#ff0000" stroke-width="2"/>
<path d="M473,302v 19" fill="none" stroke="#ff0000" stroke-width="2"/>
<path d="M474,302v 19" fill="none" stroke="#ff0000" stroke-width="2"/>
<path d="M475,302v 19" fill="none" stroke="#ff0000" stroke-width="2"/>
<path d="M476,302v 19" fill="none" stroke="#ff0000" stroke-width="2"/>
<path d="M477,302v 19" fill="none" stroke="#ff0000" stroke-width="2"/>
<path d="M478,302v 19" fill="none" stroke="#ff0000" stroke-width="2"/>
<path d="M478,302v 19" fill="none" stroke="#ff0000" stroke-width="2"/>
<path d="M479,302v 19" fill="none" stroke="#ff0000" stroke-width="2"/>
<path d="M480,302v 19" fill="none" stroke="#ff0000" stroke-width="2"/>
<path d="M481,302v 19" fill="none" stroke="#ff0000" stroke-width="2"/>
<path d="M482,302v 19" fill="none" stroke="#ff0000" stroke-width="2"/>
<path d="M482,302v 19" fill="none" stroke="#ff0000" stroke-width="2"/>
<path d="M483,302v 19" fill="none" stroke="#ff0000" stroke-width="2"/>
<path d="M484,302v 19" fill="none" stroke="#ff0000" stroke-width="2"/>
<path d="M485,302v 19" fill="none" stroke="#ff0000" stroke-width="2"/>
<path d="M486,302v 19" fill="none" stroke="#ff0000" stroke-width="2"/>
<path d="M487,302v 19" fill="none" stroke="#ff0000" stroke-width="2"/>
<path d="M487,302v 19" fill="none" stroke="#ff0000" stroke-width="2"/>
<path d="M488,302v 19" fill="none" stroke="#ff0000" stroke-width="2"/>
<path d="M489,302v 19" fill="none" stroke="#ff0000" stroke-width="2"/>
<path d="M490,302v 19" fill="none" stroke="#ff0000" stroke-width="2"/>
<path d="M491,302v 19" fill="none" stroke="#ff0000" stroke-width="2"/>
<path d="M491,302v 19" fill="none" stroke="#ff0000" stroke-width="2"/>
<path d="M492,302v 19" fill="none" stroke="#ff0000" stroke-width="2"/>
<path d="M493,302v 19" fill="none" stroke="#ff0000" stroke-width="2"/>
<path d="M494,302v 19" fill="none" stroke="#ff0000" stroke-width="2"/>
<path d="M495,302v 19" fill="none" stroke="#ff0000" stroke-width="2"/>
<path d="M495,302v 19" fill="none" stroke="#ff0000" stroke-width="2"/>
<path d="M496,302v 19" fill="none" stroke="#ff0000" stroke-width="2"/>
<path d="M497,302v 19" fill="none" stroke="#ff0000" stroke-width="2"/>
<path d="M498,302v 19" fill="none" stroke="#ff0000" stroke-width="2"/>
<path d="M499,302v 19" fill="none" stroke="#ff0000" stroke-width="2"/>
<path d="M500,302v 19" fill="none" stroke="#ff0000" stroke-width="2"/>
<path d="M500,302v 19" fill="none" stroke="#ff0000" stroke-width="2"/>
<path d="M501,302v 19" fill="none" stroke="#ff0000" stroke-width="2"/>
<path d="M502,302v 19" fill="none" stroke="#ff0000" stroke-width="2"/>
<path d="M503,302v 19" fill="none" stroke="#ff0000" stroke-width="2"/>
<path d="M504,302v 19" fill="none" stroke="#ff0000" stroke-width="2"/>
<path d="M504,302v 19" fill="none" stroke="#ff0000" stroke-width="2"/>
<path d="M505,302v 19" fill="none" stroke="#ff0000" stroke-width="2"/>
<path d="M506,302v 19" fill="none" stroke="#ff0000" stroke-width="2"/>
<path d="M507,302v 19" fill="none" stroke="#ff0000" stroke-width="2"/>
<path d="M508,302v 19" fill="none" stroke="#ff0000" stroke-width="2"/>
<path d="M509,302v 19" fill="none" stroke="#ff0000" stroke-width="2"/>
<path d="M509,302v 19" fill="none" stroke="#ff0000" stroke-width="2"/>
<path d="M510,304v 17" fill="none" stroke="#ff0000" stroke-width="2"/>
<path d="M284,187l 1, 7v 16l 1, 9l 1, 5l 1, 4l 1, 3v 5l 1, 3l 1, 3l 1, 1l 1, 3v 2l 1, 3l 1, 1l 1, 2l 1, 2l 1, 2v 2h 1l 1, 2l 1, 2l 1, 2v 1l 1, 2h 1l 1, 2l 1, 2h 1v 1l 1, 2l 1, 1l 1, 1l 1, 1v 1l 1, 1l 1, 1l 1, 1l 1, 1l 1, 2h 1l 1, 1h 1l 1, 1v 1l 1, 1l
 1, 1h 2v 1l 1, 1l 1, 1h 1l 1, 1h 1l 1, 1h 1l 1, 1l 1, 1h 1l 1, 1h 2l 1, 1h 1l 1, 1h 2v 1h 2l 1, 1h 1l 1, 1h 5l 1, 1h 3l 1, 1h 3l 1, 1h 5l 1, 1h 14l 1, 1h 13l 1, 1h 34v 1h 79l 1, 1" fill="none" stroke="#ff0000" stroke-width="2"/>
<path d="M57,346h 453" fill="none" stroke="black"/>
<text x="419" y="372" fill="black" font-size="12" font-family="Helvetica">
TDC-TDC0 (ns)
</text>
<path d="M57,337v 9" fill="none" stroke="black"/>
<path d="M68,342v 4" fill="none" stroke="black"/>
<path d="M79,342v 4" fill="none" stroke="black"/>
<path d="M91,342v 4" fill="none" stroke="black"/>
<path d="M102,342v 4" fill="none" stroke="black"/>
<path d="M113,337v 9" fill="none" stroke="black"/>
<path d="M125,342v 4" fill="none" stroke="black"/>
<path d="M136,342v 4" fill="none" stroke="black"/>
<path d="M147,342v 4" fill="none" stroke="black"/>
<path d="M159,342v 4" fill="none" stroke="black"/>
<path d="M170,337v 9" fill="none" stroke="black"/>
<path d="M181,342v 4" fill="none" stroke="black"/>
<path d="M193,342v 4" fill="none" stroke="black"/>
<path d="M204,342v 4" fill="none" stroke="black"/>
<path d="M215,342v 4" fill="none" stroke="black"/>
<path d="M227,337v 9" fill="none" stroke="black"/>
<path d="M238,342v 4" fill="none" stroke="black"/>
<path d="M249,342v 4" fill="none" stroke="black"/>
<path d="M261,342v 4" fill="none" stroke="black"/>
<path d="M272,342v 4" fill="none" stroke="black"/>
<path d="M283,337v 9" fill="none" stroke="black"/>
<path d="M295,342v 4" fill="none" stroke="black"/>
<path d="M306,342v 4" fill="none" stroke="black"/>
<path d="M317,342v 4" fill="none" stroke="black"/>
<path d="M329,342v 4" fill="none" stroke="black"/>
<path d="M340,337v 9" fill="none" stroke="black"/>
<path d="M351,342v 4" fill="none" stroke="black"/>
<path d="M363,342v 4" fill="none" stroke="black"/>
<path d="M374,342v 4" fill="none" stroke="black"/>
<path d="M386,342v 4" fill="none" stroke="black"/>
<path d="M397,337v 9" fill="none" stroke="black"/>
<path d="M408,342v 4" fill="none" stroke="black"/>
<path d="M420,342v 4" fill="none" stroke="black"/>
<path d="M431,342v 4" fill="none" stroke="black"/>
<path d="M442,342v 4" fill="none" stroke="black"/>
<path d="M454,337v 9" fill="none" stroke="black"/>
<path d="M465,342v 4" fill="none" stroke="black"/>
<path d="M476,342v 4" fill="none" stroke="black"/>
<path d="M488,342v 4" fill="none" stroke="black"/>
<path d="M499,342v 4" fill="none" stroke="black"/>
<path d="M510,337v 9" fill="none" stroke="black"/>
<text x="36" y="359" fill="black" font-size="12" font-family="Helvetica">
-20000
</text>
<text x="93" y="359" fill="black" font-size="12" font-family="Helvetica">
-15000
</text>
<text x="149" y="359" fill="black" font-size="12" font-family="Helvetica">
-10000
</text>
<text x="210" y="359" fill="black" font-size="12" font-family="Helvetica">
-5000
</text>
<text x="280" y="359" fill="black" font-size="12" font-family="Helvetica">
0
</text>
<text x="325" y="359" fill="black" font-size="12" font-family="Helvetica">
5000
</text>
<text x="379" y="359" fill="black" font-size="12" font-family="Helvetica">
10000
</text>
<text x="435" y="359" fill="black" font-size="12" font-family="Helvetica">
15000
</text>
<text x="492" y="359" fill="black" font-size="12" font-family="Helvetica">
20000
</text>
<path d="M57,346v -308" fill="none" stroke="black"/>
<g transform="rotate(-90,29,72)">
<text x="29" y="72" fill="black" font-size="12" font-family="Helvetica">
Count
</text>
</g>
<path d="M70,346h -13" fill="none" stroke="black"/>
<path d="M63,336h -6" fill="none" stroke="black"/>
<path d="M63,325h -6" fill="none" stroke="black"/>
<path d="M63,314h -6" fill="none" stroke="black"/>
<path d="M70,303h -13" fill="none" stroke="black"/>
<path d="M63,292h -6" fill="none" stroke="black"/>
<path d="M63,281h -6" fill="none" stroke="black"/>
<path d="M63,270h -6" fill="none" stroke="black"/>
<path d="M70,260h -13" fill="none" stroke="black"/>
<path d="M63,249h -6" fill="none" stroke="black"/>
<path d="M63,238h -6" fill="none" stroke="black"/>
<path d="M63,227h -6" fill="none" stroke="black"/>
<path d="M70,216h -13" fill="none" stroke="black"/>
<path d="M63,205h -6" fill="none" stroke="black"/>
<path d="M63,194h -6" fill="none" stroke="black"/>
<path d="M63,184h -6" fill="none" stroke="black"/>
<path d="M70,173h -13" fill="none" stroke="black"/>
<path d="M63,162h -6" fill="none" stroke="black"/>
<path d="M63,151h -6" fill="none" stroke="black"/>
<path d="M63,140h -6" fill="none" stroke="black"/>
<path d="M70,129h -13" fill="none" stroke="black"/>
<path d="M63,118h -6" fill="none" stroke="black"/>
<path d="M63,107h -6" fill="none" stroke="black"/>
<path d="M63,97h -6" fill="none" stroke="black"/>
<path d="M70,86h -13" fill="none" stroke="black"/>
<path d="M63,75h -6" fill="none" stroke="black"/>
<path d="M63,64h -6" fill="none" stroke="black"/>
<path d="M63,53h -6" fill="none" stroke="black"/>
<path d="M70,42h -13" fill="none" stroke="black"/>
<path d="M70,42h -13" fill="none" stroke="black"/>
<text x="47" y="350" fill="black" font-size="12" font-family="Helvetica">
0
</text>
<text x="33" y="307" fill="black" font-size="12" font-family="Helvetica">
200
</text>
<text x="33" y="263" fill="black" font-size="12" font-family="Helvetica">
400
</text>
<text x="33" y="220" fill="black" font-size="12" font-family="Helvetica">
600
</text>
<text x="33" y="176" fill="black" font-size="12" font-family="Helvetica">
800
</text>
<text x="25" y="132" fill="black" font-size="12" font-family="Helvetica">
1000
</text>
<text x="25" y="89" fill="black" font-size="12" font-family="Helvetica">
1200
</text>
<text x="25" y="46" fill="black" font-size="12" font-family="Helvetica">
1400
</text>
<rect x="442" y="25" width="114" height="46" fill="white"/>
<path d="M442,71h 114" fill="none" stroke="black"/>
<path d="M556,71v -46" fill="none" stroke="black"/>
<path d="M556,25h -114" fill="none" stroke="black"/>
<path d="M442,25v 46" fill="none" stroke="black"/>
<text x="447" y="28" fill="black" font-size="4" font-family="Helvetica">
Entries 
</text>
<text x="535" y="28" fill="black" font-size="4" font-family="Helvetica">
 438950
</text>
<text x="450" y="35" fill="black" font-size="4" font-family="Helvetica">
 / ndf 
</text>
<text x="449" y="31" fill="black" font-size="3" font-family="Helvetica">
2
</text>
<text x="447" y="35" fill="black" font-size="4" font-family="Times">
&#0967;
</text>
<text x="526" y="34" fill="black" font-size="4" font-family="Helvetica">
  1853 / 1240
</text>
<text x="452" y="37" fill="black" font-size="4" font-family="Helvetica">
   
</text>
<text x="450" y="40" fill="black" font-size="3" font-family="Helvetica">
cu
</text>
<text x="447" y="37" fill="black" font-size="4" font-family="Helvetica">
N
</text>
<text x="541" y="40" fill="black" font-size="4" font-family="Helvetica">
 19.2
</text>
<text x="538" y="40" fill="black" font-size="4" font-family="Times">
&#0177;
</text>
<text x="526" y="40" fill="black" font-size="4" font-family="Helvetica">
 213.4 
</text>
<text x="450" y="43" fill="black" font-size="4" font-family="Helvetica">
 
</text>
<text x="448" y="46" fill="black" font-size="3" font-family="Helvetica">
cu
</text>
<text x="447" y="43" fill="black" font-size="4" font-family="Times">
&#0964;
</text>
<text x="543" y="45" fill="black" font-size="4" font-family="Helvetica">
 1.9
</text>
<text x="541" y="45" fill="black" font-size="4" font-family="Times">
&#0177;
</text>
<text x="529" y="45" fill="black" font-size="4" font-family="Helvetica">
 162.5 
</text>
<text x="450" y="48" fill="black" font-size="4" font-family="Helvetica">
    
</text>
<text x="450" y="51" fill="black" font-size="3" font-family="Helvetica">
f
</text>
<text x="447" y="48" fill="black" font-size="4" font-family="Helvetica">
N
</text>
<text x="543" y="50" fill="black" font-size="4" font-family="Helvetica">
 4.7
</text>
<text x="541" y="50" fill="black" font-size="4" font-family="Times">
&#0177;
</text>
<text x="529" y="50" fill="black" font-size="4" font-family="Helvetica">
 431.9 
</text>
<text x="448" y="53" fill="black" font-size="4" font-family="Helvetica">
 
</text>
<text x="448" y="57" fill="black" font-size="3" font-family="Helvetica">
f
</text>
<text x="447" y="53" fill="black" font-size="4" font-family="Times">
&#0964;
</text>
<text x="541" y="55" fill="black" font-size="4" font-family="Helvetica">
 28.0
</text>
<text x="538" y="55" fill="black" font-size="4" font-family="Times">
&#0177;
</text>
<text x="526" y="55" fill="black" font-size="4" font-family="Helvetica">
  2228 
</text>
<text x="452" y="58" fill="black" font-size="4" font-family="Helvetica">
  
</text>
<text x="450" y="61" fill="black" font-size="3" font-family="Helvetica">
sin
</text>
<text x="447" y="58" fill="black" font-size="4" font-family="Helvetica">
N
</text>
<text x="541" y="60" fill="black" font-size="4" font-family="Helvetica">
 0.61
</text>
<text x="538" y="60" fill="black" font-size="4" font-family="Times">
&#0177;
</text>
<text x="526" y="60" fill="black" font-size="4" font-family="Helvetica">
 42.87 
</text>
<text x="447" y="65" fill="black" font-size="4" font-family="Helvetica">
T        
</text>
<text x="541" y="66" fill="black" font-size="4" font-family="Helvetica">
 0.00
</text>
<text x="538" y="66" fill="black" font-size="4" font-family="Times">
&#0177;
</text>
<text x="526" y="66" fill="black" font-size="4" font-family="Helvetica">
 59.38 
</text>
<text x="450" y="68" fill="black" font-size="4" font-family="Helvetica">
    
</text>
<text x="450" y="71" fill="black" font-size="3" font-family="Helvetica">
b
</text>
<text x="447" y="68" fill="black" font-size="4" font-family="Helvetica">
N
</text>
<text x="543" y="71" fill="black" font-size="4" font-family="Helvetica">
 0.5
</text>
<text x="541" y="71" fill="black" font-size="4" font-family="Times">
&#0177;
</text>
<text x="529" y="71" fill="black" font-size="4" font-family="Helvetica">
 160.9 
</text>
<text x="270" y="21" fill="black" font-size="21" font-family="Helvetica">
D1
</text></svg>
