<?xml version="1.0" standalone="no"?>
<svg width="567" height="384" viewBox="0 0 567 384" xmlns="http://www.w3.org/2000/svg">
<title>
images/analysis_g4bl_sin_phase_exec_d4_d5_l_bound50bin_32tight/zoom/451_451_D2.svg
</title>
<desc>
Creator: ROOT Version 5.34/09
CreationDate: Tue Sep 17 01:52:20 2013</desc>
<defs>
</defs>
<rect x="0" y="0" width="567" height="384" fill="white"/>
<rect x="57" y="38" width="453" height="308" fill="white"/>
<rect x="57" y="38" width="453" height="308" fill="none" stroke="black"/>
<rect x="57" y="38" width="453" height="308" fill="white"/>
<rect x="57" y="38" width="453" height="308" fill="none" stroke="black"/>
<path d="M57,278h 32v 19h 32v -7h 33v 10h 32v -23h 33v 2h 32v -23h 32v 90h 33v -241h 32v -52h 33v 80h 32v 20h 32v 1h 33v -11h 32" fill="none" stroke="#000099"/>
<rect x="442" y="25" width="114" height="46" fill="white"/>
<path d="M442,71h 114" fill="none" stroke="black"/>
<path d="M556,71v -46" fill="none" stroke="black"/>
<path d="M556,25h -114" fill="none" stroke="black"/>
<path d="M442,25v 46" fill="none" stroke="black"/>
<text x="447" y="53" fill="black" font-size="14" font-family="Helvetica">
Entries 
</text>
<text x="497" y="53" fill="black" font-size="14" font-family="Helvetica">
 170579
</text>
<path d="M57,346h 453" fill="none" stroke="black"/>
<text x="425" y="371" fill="black" font-size="12" font-family="Helvetica">
TDC-TDC0 (ns)
</text>
<path d="M81,336v 10" fill="none" stroke="black"/>
<path d="M91,341v 5" fill="none" stroke="black"/>
<path d="M101,341v 5" fill="none" stroke="black"/>
<path d="M111,341v 5" fill="none" stroke="black"/>
<path d="M121,341v 5" fill="none" stroke="black"/>
<path d="M132,336v 10" fill="none" stroke="black"/>
<path d="M142,341v 5" fill="none" stroke="black"/>
<path d="M152,341v 5" fill="none" stroke="black"/>
<path d="M162,341v 5" fill="none" stroke="black"/>
<path d="M172,341v 5" fill="none" stroke="black"/>
<path d="M182,336v 10" fill="none" stroke="black"/>
<path d="M192,341v 5" fill="none" stroke="black"/>
<path d="M202,341v 5" fill="none" stroke="black"/>
<path d="M213,341v 5" fill="none" stroke="black"/>
<path d="M223,341v 5" fill="none" stroke="black"/>
<path d="M233,336v 10" fill="none" stroke="black"/>
<path d="M243,341v 5" fill="none" stroke="black"/>
<path d="M253,341v 5" fill="none" stroke="black"/>
<path d="M263,341v 5" fill="none" stroke="black"/>
<path d="M273,341v 5" fill="none" stroke="black"/>
<path d="M283,336v 10" fill="none" stroke="black"/>
<path d="M294,341v 5" fill="none" stroke="black"/>
<path d="M304,341v 5" fill="none" stroke="black"/>
<path d="M314,341v 5" fill="none" stroke="black"/>
<path d="M324,341v 5" fill="none" stroke="black"/>
<path d="M334,336v 10" fill="none" stroke="black"/>
<path d="M344,341v 5" fill="none" stroke="black"/>
<path d="M354,341v 5" fill="none" stroke="black"/>
<path d="M364,341v 5" fill="none" stroke="black"/>
<path d="M375,341v 5" fill="none" stroke="black"/>
<path d="M385,336v 10" fill="none" stroke="black"/>
<path d="M395,341v 5" fill="none" stroke="black"/>
<path d="M405,341v 5" fill="none" stroke="black"/>
<path d="M415,341v 5" fill="none" stroke="black"/>
<path d="M425,341v 5" fill="none" stroke="black"/>
<path d="M435,336v 10" fill="none" stroke="black"/>
<path d="M445,341v 5" fill="none" stroke="black"/>
<path d="M456,341v 5" fill="none" stroke="black"/>
<path d="M466,341v 5" fill="none" stroke="black"/>
<path d="M476,341v 5" fill="none" stroke="black"/>
<path d="M486,336v 10" fill="none" stroke="black"/>
<path d="M81,336v 10" fill="none" stroke="black"/>
<path d="M71,341v 5" fill="none" stroke="black"/>
<path d="M61,341v 5" fill="none" stroke="black"/>
<path d="M486,336v 10" fill="none" stroke="black"/>
<path d="M496,341v 5" fill="none" stroke="black"/>
<path d="M506,341v 5" fill="none" stroke="black"/>
<text x="68" y="358" fill="black" font-size="12" font-family="Helvetica">
-200
</text>
<text x="119" y="358" fill="black" font-size="12" font-family="Helvetica">
-150
</text>
<text x="169" y="358" fill="black" font-size="12" font-family="Helvetica">
-100
</text>
<text x="223" y="358" fill="black" font-size="12" font-family="Helvetica">
-50
</text>
<text x="280" y="358" fill="black" font-size="12" font-family="Helvetica">
0
</text>
<text x="327" y="358" fill="black" font-size="12" font-family="Helvetica">
50
</text>
<text x="374" y="358" fill="black" font-size="12" font-family="Helvetica">
100
</text>
<text x="424" y="358" fill="black" font-size="12" font-family="Helvetica">
150
</text>
<text x="475" y="358" fill="black" font-size="12" font-family="Helvetica">
200
</text>
<path d="M57,346v -308" fill="none" stroke="black"/>
<g transform="rotate(-90,29,70)">
<text x="29" y="70" fill="black" font-size="12" font-family="Helvetica">
Count
</text>
</g>
<path d="M70,346h -13" fill="none" stroke="black"/>
<path d="M63,338h -6" fill="none" stroke="black"/>
<path d="M63,330h -6" fill="none" stroke="black"/>
<path d="M63,323h -6" fill="none" stroke="black"/>
<path d="M63,315h -6" fill="none" stroke="black"/>
<path d="M70,307h -13" fill="none" stroke="black"/>
<path d="M63,300h -6" fill="none" stroke="black"/>
<path d="M63,292h -6" fill="none" stroke="black"/>
<path d="M63,284h -6" fill="none" stroke="black"/>
<path d="M63,277h -6" fill="none" stroke="black"/>
<path d="M70,269h -13" fill="none" stroke="black"/>
<path d="M63,261h -6" fill="none" stroke="black"/>
<path d="M63,254h -6" fill="none" stroke="black"/>
<path d="M63,246h -6" fill="none" stroke="black"/>
<path d="M63,238h -6" fill="none" stroke="black"/>
<path d="M70,231h -13" fill="none" stroke="black"/>
<path d="M63,223h -6" fill="none" stroke="black"/>
<path d="M63,215h -6" fill="none" stroke="black"/>
<path d="M63,208h -6" fill="none" stroke="black"/>
<path d="M63,200h -6" fill="none" stroke="black"/>
<path d="M70,192h -13" fill="none" stroke="black"/>
<path d="M63,185h -6" fill="none" stroke="black"/>
<path d="M63,177h -6" fill="none" stroke="black"/>
<path d="M63,169h -6" fill="none" stroke="black"/>
<path d="M63,162h -6" fill="none" stroke="black"/>
<path d="M70,154h -13" fill="none" stroke="black"/>
<path d="M63,146h -6" fill="none" stroke="black"/>
<path d="M63,139h -6" fill="none" stroke="black"/>
<path d="M63,131h -6" fill="none" stroke="black"/>
<path d="M63,123h -6" fill="none" stroke="black"/>
<path d="M70,116h -13" fill="none" stroke="black"/>
<path d="M63,108h -6" fill="none" stroke="black"/>
<path d="M63,100h -6" fill="none" stroke="black"/>
<path d="M63,93h -6" fill="none" stroke="black"/>
<path d="M63,85h -6" fill="none" stroke="black"/>
<path d="M70,78h -13" fill="none" stroke="black"/>
<path d="M63,70h -6" fill="none" stroke="black"/>
<path d="M63,62h -6" fill="none" stroke="black"/>
<path d="M63,55h -6" fill="none" stroke="black"/>
<path d="M63,47h -6" fill="none" stroke="black"/>
<path d="M70,39h -13" fill="none" stroke="black"/>
<path d="M70,39h -13" fill="none" stroke="black"/>
<text x="47" y="350" fill="black" font-size="12" font-family="Helvetica">
0
</text>
<text x="33" y="312" fill="black" font-size="12" font-family="Helvetica">
100
</text>
<text x="33" y="273" fill="black" font-size="12" font-family="Helvetica">
200
</text>
<text x="33" y="235" fill="black" font-size="12" font-family="Helvetica">
300
</text>
<text x="33" y="197" fill="black" font-size="12" font-family="Helvetica">
400
</text>
<text x="33" y="158" fill="black" font-size="12" font-family="Helvetica">
500
</text>
<text x="33" y="120" fill="black" font-size="12" font-family="Helvetica">
600
</text>
<text x="33" y="82" fill="black" font-size="12" font-family="Helvetica">
700
</text>
<text x="33" y="44" fill="black" font-size="12" font-family="Helvetica">
800
</text>
<rect x="442" y="25" width="114" height="46" fill="white"/>
<path d="M442,71h 114" fill="none" stroke="black"/>
<path d="M556,71v -46" fill="none" stroke="black"/>
<path d="M556,25h -114" fill="none" stroke="black"/>
<path d="M442,25v 46" fill="none" stroke="black"/>
<text x="447" y="53" fill="black" font-size="14" font-family="Helvetica">
Entries 
</text>
<text x="497" y="53" fill="black" font-size="14" font-family="Helvetica">
 170579
</text>
<text x="252" y="18" fill="black" font-size="18" font-family="Helvetica">
451_D2
</text></svg>
