<?xml version="1.0" standalone="no"?>
<svg width="567" height="384" viewBox="0 0 567 384" xmlns="http://www.w3.org/2000/svg">
<title>
images/analysis_g4bl_sin_phase_exec_d4_d5_l_bound50bin_32tight/zoom/455_455_D1.svg
</title>
<desc>
Creator: ROOT Version 5.34/09
CreationDate: Tue Sep 17 01:52:56 2013</desc>
<defs>
</defs>
<rect x="0" y="0" width="567" height="384" fill="white"/>
<rect x="57" y="38" width="453" height="308" fill="white"/>
<rect x="57" y="38" width="453" height="308" fill="none" stroke="black"/>
<rect x="57" y="38" width="453" height="308" fill="white"/>
<rect x="57" y="38" width="453" height="308" fill="none" stroke="black"/>
<path d="M57,282h 32v 12h 32v -5h 33v 4h 32v 1h 33v -13h 32v -176h 32v 239h 33v -291h 32v 66h 33v 37h 32v 2h 32v 18h 33v -4h 32" fill="none" stroke="#000099"/>
<rect x="442" y="25" width="114" height="46" fill="white"/>
<path d="M442,71h 114" fill="none" stroke="black"/>
<path d="M556,71v -46" fill="none" stroke="black"/>
<path d="M556,25h -114" fill="none" stroke="black"/>
<path d="M442,25v 46" fill="none" stroke="black"/>
<text x="447" y="53" fill="black" font-size="14" font-family="Helvetica">
Entries 
</text>
<text x="497" y="53" fill="black" font-size="14" font-family="Helvetica">
 516737
</text>
<path d="M57,346h 453" fill="none" stroke="black"/>
<text x="425" y="371" fill="black" font-size="12" font-family="Helvetica">
TDC-TDC0 (ns)
</text>
<path d="M81,336v 10" fill="none" stroke="black"/>
<path d="M91,341v 5" fill="none" stroke="black"/>
<path d="M101,341v 5" fill="none" stroke="black"/>
<path d="M111,341v 5" fill="none" stroke="black"/>
<path d="M121,341v 5" fill="none" stroke="black"/>
<path d="M132,336v 10" fill="none" stroke="black"/>
<path d="M142,341v 5" fill="none" stroke="black"/>
<path d="M152,341v 5" fill="none" stroke="black"/>
<path d="M162,341v 5" fill="none" stroke="black"/>
<path d="M172,341v 5" fill="none" stroke="black"/>
<path d="M182,336v 10" fill="none" stroke="black"/>
<path d="M192,341v 5" fill="none" stroke="black"/>
<path d="M202,341v 5" fill="none" stroke="black"/>
<path d="M213,341v 5" fill="none" stroke="black"/>
<path d="M223,341v 5" fill="none" stroke="black"/>
<path d="M233,336v 10" fill="none" stroke="black"/>
<path d="M243,341v 5" fill="none" stroke="black"/>
<path d="M253,341v 5" fill="none" stroke="black"/>
<path d="M263,341v 5" fill="none" stroke="black"/>
<path d="M273,341v 5" fill="none" stroke="black"/>
<path d="M283,336v 10" fill="none" stroke="black"/>
<path d="M294,341v 5" fill="none" stroke="black"/>
<path d="M304,341v 5" fill="none" stroke="black"/>
<path d="M314,341v 5" fill="none" stroke="black"/>
<path d="M324,341v 5" fill="none" stroke="black"/>
<path d="M334,336v 10" fill="none" stroke="black"/>
<path d="M344,341v 5" fill="none" stroke="black"/>
<path d="M354,341v 5" fill="none" stroke="black"/>
<path d="M364,341v 5" fill="none" stroke="black"/>
<path d="M375,341v 5" fill="none" stroke="black"/>
<path d="M385,336v 10" fill="none" stroke="black"/>
<path d="M395,341v 5" fill="none" stroke="black"/>
<path d="M405,341v 5" fill="none" stroke="black"/>
<path d="M415,341v 5" fill="none" stroke="black"/>
<path d="M425,341v 5" fill="none" stroke="black"/>
<path d="M435,336v 10" fill="none" stroke="black"/>
<path d="M445,341v 5" fill="none" stroke="black"/>
<path d="M456,341v 5" fill="none" stroke="black"/>
<path d="M466,341v 5" fill="none" stroke="black"/>
<path d="M476,341v 5" fill="none" stroke="black"/>
<path d="M486,336v 10" fill="none" stroke="black"/>
<path d="M81,336v 10" fill="none" stroke="black"/>
<path d="M71,341v 5" fill="none" stroke="black"/>
<path d="M61,341v 5" fill="none" stroke="black"/>
<path d="M486,336v 10" fill="none" stroke="black"/>
<path d="M496,341v 5" fill="none" stroke="black"/>
<path d="M506,341v 5" fill="none" stroke="black"/>
<text x="68" y="358" fill="black" font-size="12" font-family="Helvetica">
-200
</text>
<text x="119" y="358" fill="black" font-size="12" font-family="Helvetica">
-150
</text>
<text x="169" y="358" fill="black" font-size="12" font-family="Helvetica">
-100
</text>
<text x="223" y="358" fill="black" font-size="12" font-family="Helvetica">
-50
</text>
<text x="280" y="358" fill="black" font-size="12" font-family="Helvetica">
0
</text>
<text x="327" y="358" fill="black" font-size="12" font-family="Helvetica">
50
</text>
<text x="374" y="358" fill="black" font-size="12" font-family="Helvetica">
100
</text>
<text x="424" y="358" fill="black" font-size="12" font-family="Helvetica">
150
</text>
<text x="475" y="358" fill="black" font-size="12" font-family="Helvetica">
200
</text>
<path d="M57,346v -308" fill="none" stroke="black"/>
<g transform="rotate(-90,29,70)">
<text x="29" y="70" fill="black" font-size="12" font-family="Helvetica">
Count
</text>
</g>
<path d="M70,346h -13" fill="none" stroke="black"/>
<path d="M63,333h -6" fill="none" stroke="black"/>
<path d="M63,321h -6" fill="none" stroke="black"/>
<path d="M63,309h -6" fill="none" stroke="black"/>
<path d="M63,297h -6" fill="none" stroke="black"/>
<path d="M70,285h -13" fill="none" stroke="black"/>
<path d="M63,273h -6" fill="none" stroke="black"/>
<path d="M63,261h -6" fill="none" stroke="black"/>
<path d="M63,249h -6" fill="none" stroke="black"/>
<path d="M63,237h -6" fill="none" stroke="black"/>
<path d="M70,225h -13" fill="none" stroke="black"/>
<path d="M63,213h -6" fill="none" stroke="black"/>
<path d="M63,201h -6" fill="none" stroke="black"/>
<path d="M63,189h -6" fill="none" stroke="black"/>
<path d="M63,177h -6" fill="none" stroke="black"/>
<path d="M70,165h -13" fill="none" stroke="black"/>
<path d="M63,153h -6" fill="none" stroke="black"/>
<path d="M63,141h -6" fill="none" stroke="black"/>
<path d="M63,128h -6" fill="none" stroke="black"/>
<path d="M63,116h -6" fill="none" stroke="black"/>
<path d="M70,104h -13" fill="none" stroke="black"/>
<path d="M63,92h -6" fill="none" stroke="black"/>
<path d="M63,80h -6" fill="none" stroke="black"/>
<path d="M63,68h -6" fill="none" stroke="black"/>
<path d="M63,56h -6" fill="none" stroke="black"/>
<path d="M70,44h -13" fill="none" stroke="black"/>
<path d="M70,44h -13" fill="none" stroke="black"/>
<text x="47" y="350" fill="black" font-size="12" font-family="Helvetica">
0
</text>
<text x="33" y="290" fill="black" font-size="12" font-family="Helvetica">
500
</text>
<text x="27" y="229" fill="black" font-size="12" font-family="Helvetica">
1000
</text>
<text x="27" y="169" fill="black" font-size="12" font-family="Helvetica">
1500
</text>
<text x="27" y="109" fill="black" font-size="12" font-family="Helvetica">
2000
</text>
<text x="27" y="48" fill="black" font-size="12" font-family="Helvetica">
2500
</text>
<rect x="442" y="25" width="114" height="46" fill="white"/>
<path d="M442,71h 114" fill="none" stroke="black"/>
<path d="M556,71v -46" fill="none" stroke="black"/>
<path d="M556,25h -114" fill="none" stroke="black"/>
<path d="M442,25v 46" fill="none" stroke="black"/>
<text x="447" y="53" fill="black" font-size="14" font-family="Helvetica">
Entries 
</text>
<text x="497" y="53" fill="black" font-size="14" font-family="Helvetica">
 516737
</text>
<text x="253" y="18" fill="black" font-size="18" font-family="Helvetica">
455_D1
</text></svg>
