<?xml version="1.0" standalone="no"?>
<svg width="567" height="328" viewBox="0 0 567 328" xmlns="http://www.w3.org/2000/svg">
<title>
/Users/samcook/code/MuSIC/offline_analysis_music5/MuSIC5_offline_analysis/MuSIC5_offline_analysis/scripts/images/459_fit_start_50-75-100-125-150.svg
</title>
<desc>
Creator: ROOT Version 5.32/00
CreationDate: Mon Sep 10 16:25:04 2012</desc>
<defs>
</defs>
<rect x="0" y="0" width="567" height="328" fill="white"/>
<rect x="57" y="33" width="453" height="262" fill="white"/>
<rect x="57" y="33" width="453" height="262" fill="none" stroke="black"/>
<rect x="57" y="33" width="453" height="262" fill="white"/>
<rect x="57" y="33" width="453" height="262" fill="none" stroke="black"/>
<path d="M62,141v -21" fill="none" stroke="#000099"/>
<path d="M62,120v -20" fill="none" stroke="#000099"/>
<path d="M57,120h 5" fill="none" stroke="#000099"/>
<path d="M62,120h 6" fill="none" stroke="#000099"/>
<g stroke="black" stroke-width="1" fill="none">
<line x1="61" y1="120" x2="62" y2="120"/>
</g>
<path d="M74,111v -22" fill="none" stroke="#000099"/>
<path d="M74,89v -21" fill="none" stroke="#000099"/>
<path d="M68,89h 6" fill="none" stroke="#000099"/>
<path d="M74,89h 5" fill="none" stroke="#000099"/>
<g stroke="black" stroke-width="1" fill="none">
<line x1="73" y1="89" x2="74" y2="89"/>
</g>
<path d="M85,88v -21" fill="none" stroke="#000099"/>
<path d="M85,67v -21" fill="none" stroke="#000099"/>
<path d="M79,67h 6" fill="none" stroke="#000099"/>
<path d="M85,67h 6" fill="none" stroke="#000099"/>
<g stroke="black" stroke-width="1" fill="none">
<line x1="84" y1="67" x2="85" y2="67"/>
</g>
<path d="M96,89v -21" fill="none" stroke="#000099"/>
<path d="M96,68v -22" fill="none" stroke="#000099"/>
<path d="M91,68h 5" fill="none" stroke="#000099"/>
<path d="M96,68h 6" fill="none" stroke="#000099"/>
<g stroke="black" stroke-width="1" fill="none">
<line x1="95" y1="68" x2="96" y2="68"/>
</g>
<path d="M108,139v -19" fill="none" stroke="#000099"/>
<path d="M108,120v -19" fill="none" stroke="#000099"/>
<path d="M102,120h 6" fill="none" stroke="#000099"/>
<path d="M108,120h 5" fill="none" stroke="#000099"/>
<g stroke="black" stroke-width="1" fill="none">
<line x1="107" y1="120" x2="108" y2="120"/>
</g>
<path d="M119,101v -19" fill="none" stroke="#000099"/>
<path d="M119,82v -19" fill="none" stroke="#000099"/>
<path d="M113,82h 6" fill="none" stroke="#000099"/>
<path d="M119,82h 6" fill="none" stroke="#000099"/>
<g stroke="black" stroke-width="1" fill="none">
<line x1="118" y1="82" x2="119" y2="82"/>
</g>
<path d="M130,86v -21" fill="none" stroke="#000099"/>
<path d="M130,65v -20" fill="none" stroke="#000099"/>
<path d="M125,65h 5" fill="none" stroke="#000099"/>
<path d="M130,65h 6" fill="none" stroke="#000099"/>
<g stroke="black" stroke-width="1" fill="none">
<line x1="129" y1="65" x2="130" y2="65"/>
</g>
<path d="M142,84v -19" fill="none" stroke="#000099"/>
<path d="M142,65v -19" fill="none" stroke="#000099"/>
<path d="M136,65h 6" fill="none" stroke="#000099"/>
<path d="M142,65h 5" fill="none" stroke="#000099"/>
<g stroke="black" stroke-width="1" fill="none">
<line x1="141" y1="65" x2="142" y2="65"/>
</g>
<path d="M153,184v -20" fill="none" stroke="#000099"/>
<path d="M153,164v -21" fill="none" stroke="#000099"/>
<path d="M147,164h 6" fill="none" stroke="#000099"/>
<path d="M153,164h 6" fill="none" stroke="#000099"/>
<g stroke="black" stroke-width="1" fill="none">
<line x1="152" y1="164" x2="153" y2="164"/>
</g>
<path d="M164,149v -21" fill="none" stroke="#000099"/>
<path d="M164,128v -21" fill="none" stroke="#000099"/>
<path d="M159,128h 5" fill="none" stroke="#000099"/>
<path d="M164,128h 6" fill="none" stroke="#000099"/>
<g stroke="black" stroke-width="1" fill="none">
<line x1="163" y1="128" x2="164" y2="128"/>
</g>
<path d="M176,142v -22" fill="none" stroke="#000099"/>
<path d="M176,120v -21" fill="none" stroke="#000099"/>
<path d="M170,120h 6" fill="none" stroke="#000099"/>
<path d="M176,120h 5" fill="none" stroke="#000099"/>
<g stroke="black" stroke-width="1" fill="none">
<line x1="175" y1="120" x2="176" y2="120"/>
</g>
<path d="M187,130v -21" fill="none" stroke="#000099"/>
<path d="M187,109v -21" fill="none" stroke="#000099"/>
<path d="M181,109h 6" fill="none" stroke="#000099"/>
<path d="M187,109h 6" fill="none" stroke="#000099"/>
<g stroke="black" stroke-width="1" fill="none">
<line x1="186" y1="109" x2="187" y2="109"/>
</g>
<path d="M198,181v -19" fill="none" stroke="#000099"/>
<path d="M198,162v -19" fill="none" stroke="#000099"/>
<path d="M193,162h 5" fill="none" stroke="#000099"/>
<path d="M198,162h 6" fill="none" stroke="#000099"/>
<g stroke="black" stroke-width="1" fill="none">
<line x1="197" y1="162" x2="198" y2="162"/>
</g>
<path d="M210,139v -18" fill="none" stroke="#000099"/>
<path d="M210,121v -19" fill="none" stroke="#000099"/>
<path d="M204,121h 6" fill="none" stroke="#000099"/>
<path d="M210,121h 5" fill="none" stroke="#000099"/>
<g stroke="black" stroke-width="1" fill="none">
<line x1="209" y1="121" x2="210" y2="121"/>
</g>
<path d="M221,136v -19" fill="none" stroke="#000099"/>
<path d="M221,117v -20" fill="none" stroke="#000099"/>
<path d="M215,117h 6" fill="none" stroke="#000099"/>
<path d="M221,117h 6" fill="none" stroke="#000099"/>
<g stroke="black" stroke-width="1" fill="none">
<line x1="220" y1="117" x2="221" y2="117"/>
</g>
<path d="M232,125v -19" fill="none" stroke="#000099"/>
<path d="M232,106v -19" fill="none" stroke="#000099"/>
<path d="M227,106h 5" fill="none" stroke="#000099"/>
<path d="M232,106h 6" fill="none" stroke="#000099"/>
<g stroke="black" stroke-width="1" fill="none">
<line x1="231" y1="106" x2="232" y2="106"/>
</g>
<path d="M244,216v -21" fill="none" stroke="#000099"/>
<path d="M244,195v -20" fill="none" stroke="#000099"/>
<path d="M238,195h 6" fill="none" stroke="#000099"/>
<path d="M244,195h 5" fill="none" stroke="#000099"/>
<g stroke="black" stroke-width="1" fill="none">
<line x1="243" y1="195" x2="244" y2="195"/>
</g>
<path d="M255,186v -21" fill="none" stroke="#000099"/>
<path d="M255,165v -21" fill="none" stroke="#000099"/>
<path d="M249,165h 6" fill="none" stroke="#000099"/>
<path d="M255,165h 6" fill="none" stroke="#000099"/>
<g stroke="black" stroke-width="1" fill="none">
<line x1="254" y1="165" x2="255" y2="165"/>
</g>
<path d="M266,179v -21" fill="none" stroke="#000099"/>
<path d="M266,158v -22" fill="none" stroke="#000099"/>
<path d="M261,158h 5" fill="none" stroke="#000099"/>
<path d="M266,158h 6" fill="none" stroke="#000099"/>
<g stroke="black" stroke-width="1" fill="none">
<line x1="265" y1="158" x2="266" y2="158"/>
</g>
<path d="M278,169v -21" fill="none" stroke="#000099"/>
<path d="M278,148v -21" fill="none" stroke="#000099"/>
<path d="M272,148h 6" fill="none" stroke="#000099"/>
<path d="M278,148h 5" fill="none" stroke="#000099"/>
<g stroke="black" stroke-width="1" fill="none">
<line x1="277" y1="148" x2="278" y2="148"/>
</g>
<path d="M289,213v -18" fill="none" stroke="#000099"/>
<path d="M289,195v -19" fill="none" stroke="#000099"/>
<path d="M283,195h 6" fill="none" stroke="#000099"/>
<path d="M289,195h 6" fill="none" stroke="#000099"/>
<g stroke="black" stroke-width="1" fill="none">
<line x1="288" y1="195" x2="289" y2="195"/>
</g>
<path d="M300,177v -19" fill="none" stroke="#000099"/>
<path d="M300,158v -19" fill="none" stroke="#000099"/>
<path d="M295,158h 5" fill="none" stroke="#000099"/>
<path d="M300,158h 6" fill="none" stroke="#000099"/>
<g stroke="black" stroke-width="1" fill="none">
<line x1="299" y1="158" x2="300" y2="158"/>
</g>
<path d="M312,173v -19" fill="none" stroke="#000099"/>
<path d="M312,154v -19" fill="none" stroke="#000099"/>
<path d="M306,154h 6" fill="none" stroke="#000099"/>
<path d="M312,154h 5" fill="none" stroke="#000099"/>
<g stroke="black" stroke-width="1" fill="none">
<line x1="311" y1="154" x2="312" y2="154"/>
</g>
<path d="M323,164v -19" fill="none" stroke="#000099"/>
<path d="M323,145v -18" fill="none" stroke="#000099"/>
<path d="M317,145h 6" fill="none" stroke="#000099"/>
<path d="M323,145h 6" fill="none" stroke="#000099"/>
<g stroke="black" stroke-width="1" fill="none">
<line x1="322" y1="145" x2="323" y2="145"/>
</g>
<path d="M334,254v -20" fill="none" stroke="#000099"/>
<path d="M334,234v -21" fill="none" stroke="#000099"/>
<path d="M329,234h 5" fill="none" stroke="#000099"/>
<path d="M334,234h 6" fill="none" stroke="#000099"/>
<g stroke="black" stroke-width="1" fill="none">
<line x1="333" y1="234" x2="334" y2="234"/>
</g>
<path d="M346,222v -21" fill="none" stroke="#000099"/>
<path d="M346,201v -21" fill="none" stroke="#000099"/>
<path d="M340,201h 6" fill="none" stroke="#000099"/>
<path d="M346,201h 5" fill="none" stroke="#000099"/>
<g stroke="black" stroke-width="1" fill="none">
<line x1="345" y1="201" x2="346" y2="201"/>
</g>
<path d="M357,215v -21" fill="none" stroke="#000099"/>
<path d="M357,194v -22" fill="none" stroke="#000099"/>
<path d="M351,194h 6" fill="none" stroke="#000099"/>
<path d="M357,194h 6" fill="none" stroke="#000099"/>
<g stroke="black" stroke-width="1" fill="none">
<line x1="356" y1="194" x2="357" y2="194"/>
</g>
<path d="M369,217v -23" fill="none" stroke="#000099"/>
<path d="M369,194v -23" fill="none" stroke="#000099"/>
<path d="M363,194h 6" fill="none" stroke="#000099"/>
<path d="M369,194h 5" fill="none" stroke="#000099"/>
<g stroke="black" stroke-width="1" fill="none">
<line x1="368" y1="194" x2="369" y2="194"/>
</g>
<path d="M380,251v -18" fill="none" stroke="#000099"/>
<path d="M380,233v -19" fill="none" stroke="#000099"/>
<path d="M374,233h 6" fill="none" stroke="#000099"/>
<path d="M380,233h 6" fill="none" stroke="#000099"/>
<g stroke="black" stroke-width="1" fill="none">
<line x1="379" y1="233" x2="380" y2="233"/>
</g>
<path d="M391,213v -19" fill="none" stroke="#000099"/>
<path d="M391,194v -19" fill="none" stroke="#000099"/>
<path d="M386,194h 5" fill="none" stroke="#000099"/>
<path d="M391,194h 6" fill="none" stroke="#000099"/>
<g stroke="black" stroke-width="1" fill="none">
<line x1="390" y1="194" x2="391" y2="194"/>
</g>
<path d="M403,209v -19" fill="none" stroke="#000099"/>
<path d="M403,190v -19" fill="none" stroke="#000099"/>
<path d="M397,190h 6" fill="none" stroke="#000099"/>
<path d="M403,190h 5" fill="none" stroke="#000099"/>
<g stroke="black" stroke-width="1" fill="none">
<line x1="402" y1="190" x2="403" y2="190"/>
</g>
<path d="M414,212v -21" fill="none" stroke="#000099"/>
<path d="M414,191v -22" fill="none" stroke="#000099"/>
<path d="M408,191h 6" fill="none" stroke="#000099"/>
<path d="M414,191h 6" fill="none" stroke="#000099"/>
<g stroke="black" stroke-width="1" fill="none">
<line x1="413" y1="191" x2="414" y2="191"/>
</g>
<path d="M425,283v -20" fill="none" stroke="#000099"/>
<path d="M425,263v -21" fill="none" stroke="#000099"/>
<path d="M420,263h 5" fill="none" stroke="#000099"/>
<path d="M425,263h 6" fill="none" stroke="#000099"/>
<g stroke="black" stroke-width="1" fill="none">
<line x1="424" y1="263" x2="425" y2="263"/>
</g>
<path d="M437,254v -21" fill="none" stroke="#000099"/>
<path d="M437,233v -21" fill="none" stroke="#000099"/>
<path d="M431,233h 6" fill="none" stroke="#000099"/>
<path d="M437,233h 5" fill="none" stroke="#000099"/>
<g stroke="black" stroke-width="1" fill="none">
<line x1="436" y1="233" x2="437" y2="233"/>
</g>
<path d="M448,250v -21" fill="none" stroke="#000099"/>
<path d="M448,229v -21" fill="none" stroke="#000099"/>
<path d="M442,229h 6" fill="none" stroke="#000099"/>
<path d="M448,229h 6" fill="none" stroke="#000099"/>
<g stroke="black" stroke-width="1" fill="none">
<line x1="447" y1="229" x2="448" y2="229"/>
</g>
<path d="M459,252v -23" fill="none" stroke="#000099"/>
<path d="M459,229v -22" fill="none" stroke="#000099"/>
<path d="M454,229h 5" fill="none" stroke="#000099"/>
<path d="M459,229h 6" fill="none" stroke="#000099"/>
<g stroke="black" stroke-width="1" fill="none">
<line x1="458" y1="229" x2="459" y2="229"/>
</g>
<path d="M471,281v -19" fill="none" stroke="#000099"/>
<path d="M471,262v -18" fill="none" stroke="#000099"/>
<path d="M465,262h 6" fill="none" stroke="#000099"/>
<path d="M471,262h 5" fill="none" stroke="#000099"/>
<g stroke="black" stroke-width="1" fill="none">
<line x1="470" y1="262" x2="471" y2="262"/>
</g>
<path d="M482,245v -19" fill="none" stroke="#000099"/>
<path d="M482,226v -19" fill="none" stroke="#000099"/>
<path d="M476,226h 6" fill="none" stroke="#000099"/>
<path d="M482,226h 6" fill="none" stroke="#000099"/>
<g stroke="black" stroke-width="1" fill="none">
<line x1="481" y1="226" x2="482" y2="226"/>
</g>
<path d="M493,244v -19" fill="none" stroke="#000099"/>
<path d="M493,225v -19" fill="none" stroke="#000099"/>
<path d="M488,225h 5" fill="none" stroke="#000099"/>
<path d="M493,225h 6" fill="none" stroke="#000099"/>
<g stroke="black" stroke-width="1" fill="none">
<line x1="492" y1="225" x2="493" y2="225"/>
</g>
<path d="M505,246v -20" fill="none" stroke="#000099"/>
<path d="M505,226v -21" fill="none" stroke="#000099"/>
<path d="M499,226h 6" fill="none" stroke="#000099"/>
<path d="M505,226h 5" fill="none" stroke="#000099"/>
<g stroke="black" stroke-width="1" fill="none">
<line x1="504" y1="226" x2="505" y2="226"/>
</g>
<path d="M57,295h 453" fill="none" stroke="black"/>
<text x="472" y="334" fill="black" font-size="11" font-family="Helvetica">
Settings
</text>
<g transform="rotate(20,61,301)">
<text x="61" y="301" fill="black" font-size="6" font-family="Helvetica">
lo_50_hi_15000_bins_10
</text>
</g>
<g transform="rotate(20,73,301)">
<text x="73" y="301" fill="black" font-size="6" font-family="Helvetica">
lo_50_hi_15000_bins_50
</text>
</g>
<g transform="rotate(20,84,301)">
<text x="84" y="301" fill="black" font-size="6" font-family="Helvetica">
lo_50_hi_15000_bins_100
</text>
</g>
<g transform="rotate(20,95,301)">
<text x="95" y="301" fill="black" font-size="6" font-family="Helvetica">
lo_50_hi_15000_bins_200
</text>
</g>
<g transform="rotate(20,107,301)">
<text x="107" y="301" fill="black" font-size="6" font-family="Helvetica">
lo_50_hi_20000_bins_10
</text>
</g>
<g transform="rotate(20,118,301)">
<text x="118" y="301" fill="black" font-size="6" font-family="Helvetica">
lo_50_hi_20000_bins_50
</text>
</g>
<g transform="rotate(20,129,301)">
<text x="129" y="301" fill="black" font-size="6" font-family="Helvetica">
lo_50_hi_20000_bins_100
</text>
</g>
<g transform="rotate(20,141,301)">
<text x="141" y="301" fill="black" font-size="6" font-family="Helvetica">
lo_50_hi_20000_bins_200
</text>
</g>
<g transform="rotate(20,152,301)">
<text x="152" y="301" fill="black" font-size="6" font-family="Helvetica">
lo_75_hi_15000_bins_10
</text>
</g>
<g transform="rotate(20,164,301)">
<text x="164" y="301" fill="black" font-size="6" font-family="Helvetica">
lo_75_hi_15000_bins_50
</text>
</g>
<g transform="rotate(20,175,301)">
<text x="175" y="301" fill="black" font-size="6" font-family="Helvetica">
lo_75_hi_15000_bins_100
</text>
</g>
<g transform="rotate(20,186,301)">
<text x="186" y="301" fill="black" font-size="6" font-family="Helvetica">
lo_75_hi_15000_bins_200
</text>
</g>
<g transform="rotate(20,198,301)">
<text x="198" y="301" fill="black" font-size="6" font-family="Helvetica">
lo_75_hi_20000_bins_10
</text>
</g>
<g transform="rotate(20,209,301)">
<text x="209" y="301" fill="black" font-size="6" font-family="Helvetica">
lo_75_hi_20000_bins_50
</text>
</g>
<g transform="rotate(20,220,301)">
<text x="220" y="301" fill="black" font-size="6" font-family="Helvetica">
lo_75_hi_20000_bins_100
</text>
</g>
<g transform="rotate(20,232,301)">
<text x="232" y="301" fill="black" font-size="6" font-family="Helvetica">
lo_75_hi_20000_bins_200
</text>
</g>
<g transform="rotate(20,243,301)">
<text x="243" y="301" fill="black" font-size="6" font-family="Helvetica">
lo_100_hi_15000_bins_10
</text>
</g>
<g transform="rotate(20,254,301)">
<text x="254" y="301" fill="black" font-size="6" font-family="Helvetica">
lo_100_hi_15000_bins_50
</text>
</g>
<g transform="rotate(20,266,301)">
<text x="266" y="301" fill="black" font-size="6" font-family="Helvetica">
lo_100_hi_15000_bins_100
</text>
</g>
<g transform="rotate(20,277,301)">
<text x="277" y="301" fill="black" font-size="6" font-family="Helvetica">
lo_100_hi_15000_bins_200
</text>
</g>
<g transform="rotate(20,288,301)">
<text x="288" y="301" fill="black" font-size="6" font-family="Helvetica">
lo_100_hi_20000_bins_10
</text>
</g>
<g transform="rotate(20,299,301)">
<text x="299" y="301" fill="black" font-size="6" font-family="Helvetica">
lo_100_hi_20000_bins_50
</text>
</g>
<g transform="rotate(20,311,301)">
<text x="311" y="301" fill="black" font-size="6" font-family="Helvetica">
lo_100_hi_20000_bins_100
</text>
</g>
<g transform="rotate(20,322,301)">
<text x="322" y="301" fill="black" font-size="6" font-family="Helvetica">
lo_100_hi_20000_bins_200
</text>
</g>
<g transform="rotate(20,333,301)">
<text x="333" y="301" fill="black" font-size="6" font-family="Helvetica">
lo_125_hi_15000_bins_10
</text>
</g>
<g transform="rotate(20,345,301)">
<text x="345" y="301" fill="black" font-size="6" font-family="Helvetica">
lo_125_hi_15000_bins_50
</text>
</g>
<g transform="rotate(20,356,301)">
<text x="356" y="301" fill="black" font-size="6" font-family="Helvetica">
lo_125_hi_15000_bins_100
</text>
</g>
<g transform="rotate(20,367,301)">
<text x="367" y="301" fill="black" font-size="6" font-family="Helvetica">
lo_125_hi_15000_bins_200
</text>
</g>
<g transform="rotate(20,379,301)">
<text x="379" y="301" fill="black" font-size="6" font-family="Helvetica">
lo_125_hi_20000_bins_10
</text>
</g>
<g transform="rotate(20,390,301)">
<text x="390" y="301" fill="black" font-size="6" font-family="Helvetica">
lo_125_hi_20000_bins_50
</text>
</g>
<g transform="rotate(20,401,301)">
<text x="401" y="301" fill="black" font-size="6" font-family="Helvetica">
lo_125_hi_20000_bins_100
</text>
</g>
<g transform="rotate(20,413,301)">
<text x="413" y="301" fill="black" font-size="6" font-family="Helvetica">
lo_125_hi_20000_bins_200
</text>
</g>
<g transform="rotate(20,424,301)">
<text x="424" y="301" fill="black" font-size="6" font-family="Helvetica">
lo_150_hi_15000_bins_10
</text>
</g>
<g transform="rotate(20,435,301)">
<text x="435" y="301" fill="black" font-size="6" font-family="Helvetica">
lo_150_hi_15000_bins_50
</text>
</g>
<g transform="rotate(20,447,301)">
<text x="447" y="301" fill="black" font-size="6" font-family="Helvetica">
lo_150_hi_15000_bins_100
</text>
</g>
<g transform="rotate(20,458,301)">
<text x="458" y="301" fill="black" font-size="6" font-family="Helvetica">
lo_150_hi_15000_bins_200
</text>
</g>
<g transform="rotate(20,470,301)">
<text x="470" y="301" fill="black" font-size="6" font-family="Helvetica">
lo_150_hi_20000_bins_10
</text>
</g>
<g transform="rotate(20,481,301)">
<text x="481" y="301" fill="black" font-size="6" font-family="Helvetica">
lo_150_hi_20000_bins_50
</text>
</g>
<g transform="rotate(20,492,301)">
<text x="492" y="301" fill="black" font-size="6" font-family="Helvetica">
lo_150_hi_20000_bins_100
</text>
</g>
<g transform="rotate(20,504,301)">
<text x="504" y="301" fill="black" font-size="6" font-family="Helvetica">
lo_150_hi_20000_bins_200
</text>
</g>
<path d="M57,287v 8" fill="none" stroke="black"/>
<path d="M68,287v 8" fill="none" stroke="black"/>
<path d="M79,287v 8" fill="none" stroke="black"/>
<path d="M91,287v 8" fill="none" stroke="black"/>
<path d="M102,287v 8" fill="none" stroke="black"/>
<path d="M113,287v 8" fill="none" stroke="black"/>
<path d="M125,287v 8" fill="none" stroke="black"/>
<path d="M136,287v 8" fill="none" stroke="black"/>
<path d="M147,287v 8" fill="none" stroke="black"/>
<path d="M159,287v 8" fill="none" stroke="black"/>
<path d="M170,287v 8" fill="none" stroke="black"/>
<path d="M181,287v 8" fill="none" stroke="black"/>
<path d="M193,287v 8" fill="none" stroke="black"/>
<path d="M204,287v 8" fill="none" stroke="black"/>
<path d="M215,287v 8" fill="none" stroke="black"/>
<path d="M227,287v 8" fill="none" stroke="black"/>
<path d="M238,287v 8" fill="none" stroke="black"/>
<path d="M249,287v 8" fill="none" stroke="black"/>
<path d="M261,287v 8" fill="none" stroke="black"/>
<path d="M272,287v 8" fill="none" stroke="black"/>
<path d="M283,287v 8" fill="none" stroke="black"/>
<path d="M295,287v 8" fill="none" stroke="black"/>
<path d="M306,287v 8" fill="none" stroke="black"/>
<path d="M317,287v 8" fill="none" stroke="black"/>
<path d="M329,287v 8" fill="none" stroke="black"/>
<path d="M340,287v 8" fill="none" stroke="black"/>
<path d="M351,287v 8" fill="none" stroke="black"/>
<path d="M363,287v 8" fill="none" stroke="black"/>
<path d="M374,287v 8" fill="none" stroke="black"/>
<path d="M386,287v 8" fill="none" stroke="black"/>
<path d="M397,287v 8" fill="none" stroke="black"/>
<path d="M408,287v 8" fill="none" stroke="black"/>
<path d="M420,287v 8" fill="none" stroke="black"/>
<path d="M431,287v 8" fill="none" stroke="black"/>
<path d="M442,287v 8" fill="none" stroke="black"/>
<path d="M454,287v 8" fill="none" stroke="black"/>
<path d="M465,287v 8" fill="none" stroke="black"/>
<path d="M476,287v 8" fill="none" stroke="black"/>
<path d="M488,287v 8" fill="none" stroke="black"/>
<path d="M499,287v 8" fill="none" stroke="black"/>
<path d="M510,287v 8" fill="none" stroke="black"/>
<path d="M57,295v -262" fill="none" stroke="black"/>
<g transform="rotate(-90,13,61)">
<text x="13" y="61" fill="black" font-size="11" font-family="Helvetica">
Count
</text>
</g>
<path d="M70,291h -13" fill="none" stroke="black"/>
<path d="M63,283h -6" fill="none" stroke="black"/>
<path d="M63,274h -6" fill="none" stroke="black"/>
<path d="M63,266h -6" fill="none" stroke="black"/>
<path d="M63,258h -6" fill="none" stroke="black"/>
<path d="M70,249h -13" fill="none" stroke="black"/>
<path d="M63,241h -6" fill="none" stroke="black"/>
<path d="M63,232h -6" fill="none" stroke="black"/>
<path d="M63,224h -6" fill="none" stroke="black"/>
<path d="M63,215h -6" fill="none" stroke="black"/>
<path d="M70,207h -13" fill="none" stroke="black"/>
<path d="M63,199h -6" fill="none" stroke="black"/>
<path d="M63,190h -6" fill="none" stroke="black"/>
<path d="M63,182h -6" fill="none" stroke="black"/>
<path d="M63,173h -6" fill="none" stroke="black"/>
<path d="M70,165h -13" fill="none" stroke="black"/>
<path d="M63,156h -6" fill="none" stroke="black"/>
<path d="M63,148h -6" fill="none" stroke="black"/>
<path d="M63,140h -6" fill="none" stroke="black"/>
<path d="M63,131h -6" fill="none" stroke="black"/>
<path d="M70,123h -13" fill="none" stroke="black"/>
<path d="M63,114h -6" fill="none" stroke="black"/>
<path d="M63,106h -6" fill="none" stroke="black"/>
<path d="M63,98h -6" fill="none" stroke="black"/>
<path d="M63,89h -6" fill="none" stroke="black"/>
<path d="M70,81h -13" fill="none" stroke="black"/>
<path d="M63,72h -6" fill="none" stroke="black"/>
<path d="M63,64h -6" fill="none" stroke="black"/>
<path d="M63,55h -6" fill="none" stroke="black"/>
<path d="M63,47h -6" fill="none" stroke="black"/>
<path d="M70,39h -13" fill="none" stroke="black"/>
<path d="M70,291h -13" fill="none" stroke="black"/>
<path d="M70,39h -13" fill="none" stroke="black"/>
<text x="25" y="295" fill="black" font-size="11" font-family="Helvetica">
66000
</text>
<text x="25" y="253" fill="black" font-size="11" font-family="Helvetica">
67000
</text>
<text x="25" y="211" fill="black" font-size="11" font-family="Helvetica">
68000
</text>
<text x="25" y="169" fill="black" font-size="11" font-family="Helvetica">
69000
</text>
<text x="25" y="126" fill="black" font-size="11" font-family="Helvetica">
70000
</text>
<text x="25" y="85" fill="black" font-size="11" font-family="Helvetica">
71000
</text>
<text x="25" y="42" fill="black" font-size="11" font-family="Helvetica">
72000
</text>
<text x="130" y="16" fill="black" font-size="16" font-family="Helvetica">
Muon count for different fit settings, file: 459
</text></svg>
