<?xml version="1.0" standalone="no"?>
<svg width="567" height="328" viewBox="0 0 567 328" xmlns="http://www.w3.org/2000/svg">
<title>
/Users/samcook/code/MuSIC/offline_analysis_music5/MuSIC5_offline_analysis/MuSIC5_offline_analysis/scripts/images/fit_settings_452.svg
</title>
<desc>
Creator: ROOT Version 5.32/00
CreationDate: Wed Aug 22 01:16:03 2012</desc>
<defs>
</defs>
<rect x="0" y="0" width="567" height="328" fill="white"/>
<rect x="44" y="33" width="466" height="248" fill="white"/>
<rect x="44" y="33" width="466" height="248" fill="none" stroke="black"/>
<rect x="44" y="33" width="466" height="248" fill="white"/>
<rect x="44" y="33" width="466" height="248" fill="none" stroke="black"/>
<path d="M54,86v -14" fill="none" stroke="#000099"/>
<path d="M54,72v -13" fill="none" stroke="#000099"/>
<path d="M44,72h 10" fill="none" stroke="#000099"/>
<path d="M54,72h 9" fill="none" stroke="#000099"/>
<g stroke="black" stroke-width="1" fill="none">
<line x1="53" y1="72" x2="54" y2="72"/>
</g>
<path d="M73,123v -13" fill="none" stroke="#000099"/>
<path d="M73,110v -14" fill="none" stroke="#000099"/>
<path d="M63,110h 10" fill="none" stroke="#000099"/>
<path d="M73,110h 10" fill="none" stroke="#000099"/>
<g stroke="black" stroke-width="1" fill="none">
<line x1="72" y1="110" x2="73" y2="110"/>
</g>
<path d="M92,114v -14" fill="none" stroke="#000099"/>
<path d="M92,100v -13" fill="none" stroke="#000099"/>
<path d="M83,100h 9" fill="none" stroke="#000099"/>
<path d="M92,100h 10" fill="none" stroke="#000099"/>
<g stroke="black" stroke-width="1" fill="none">
<line x1="91" y1="100" x2="92" y2="100"/>
</g>
<path d="M112,113v -14" fill="none" stroke="#000099"/>
<path d="M112,99v -13" fill="none" stroke="#000099"/>
<path d="M102,99h 10" fill="none" stroke="#000099"/>
<path d="M112,99h 10" fill="none" stroke="#000099"/>
<g stroke="black" stroke-width="1" fill="none">
<line x1="111" y1="99" x2="112" y2="99"/>
</g>
<path d="M131,69v -12" fill="none" stroke="#000099"/>
<path d="M131,57v -13" fill="none" stroke="#000099"/>
<path d="M122,57h 9" fill="none" stroke="#000099"/>
<path d="M131,57h 10" fill="none" stroke="#000099"/>
<g stroke="black" stroke-width="1" fill="none">
<line x1="130" y1="57" x2="131" y2="57"/>
</g>
<path d="M151,106v -12" fill="none" stroke="#000099"/>
<path d="M151,94v -12" fill="none" stroke="#000099"/>
<path d="M141,94h 10" fill="none" stroke="#000099"/>
<path d="M151,94h 9" fill="none" stroke="#000099"/>
<g stroke="black" stroke-width="1" fill="none">
<line x1="150" y1="94" x2="151" y2="94"/>
</g>
<path d="M170,98v -12" fill="none" stroke="#000099"/>
<path d="M170,86v -12" fill="none" stroke="#000099"/>
<path d="M160,86h 10" fill="none" stroke="#000099"/>
<path d="M170,86h 10" fill="none" stroke="#000099"/>
<g stroke="black" stroke-width="1" fill="none">
<line x1="169" y1="86" x2="170" y2="86"/>
</g>
<path d="M190,98v -12" fill="none" stroke="#000099"/>
<path d="M190,86v -13" fill="none" stroke="#000099"/>
<path d="M180,86h 10" fill="none" stroke="#000099"/>
<path d="M190,86h 9" fill="none" stroke="#000099"/>
<g stroke="black" stroke-width="1" fill="none">
<line x1="189" y1="86" x2="190" y2="86"/>
</g>
<path d="M209,159v -13" fill="none" stroke="#000099"/>
<path d="M209,146v -14" fill="none" stroke="#000099"/>
<path d="M199,146h 10" fill="none" stroke="#000099"/>
<path d="M209,146h 10" fill="none" stroke="#000099"/>
<g stroke="black" stroke-width="1" fill="none">
<line x1="208" y1="146" x2="209" y2="146"/>
</g>
<path d="M228,195v -13" fill="none" stroke="#000099"/>
<path d="M228,182v -14" fill="none" stroke="#000099"/>
<path d="M219,182h 9" fill="none" stroke="#000099"/>
<path d="M228,182h 10" fill="none" stroke="#000099"/>
<g stroke="black" stroke-width="1" fill="none">
<line x1="227" y1="182" x2="228" y2="182"/>
</g>
<path d="M248,197v -13" fill="none" stroke="#000099"/>
<path d="M248,184v -14" fill="none" stroke="#000099"/>
<path d="M238,184h 10" fill="none" stroke="#000099"/>
<path d="M248,184h 10" fill="none" stroke="#000099"/>
<g stroke="black" stroke-width="1" fill="none">
<line x1="247" y1="184" x2="248" y2="184"/>
</g>
<path d="M267,186v -13" fill="none" stroke="#000099"/>
<path d="M267,173v -13" fill="none" stroke="#000099"/>
<path d="M258,173h 9" fill="none" stroke="#000099"/>
<path d="M267,173h 10" fill="none" stroke="#000099"/>
<g stroke="black" stroke-width="1" fill="none">
<line x1="266" y1="173" x2="267" y2="173"/>
</g>
<path d="M287,141v -12" fill="none" stroke="#000099"/>
<path d="M287,129v -12" fill="none" stroke="#000099"/>
<path d="M277,129h 10" fill="none" stroke="#000099"/>
<path d="M287,129h 9" fill="none" stroke="#000099"/>
<g stroke="black" stroke-width="1" fill="none">
<line x1="286" y1="129" x2="287" y2="129"/>
</g>
<path d="M306,178v -12" fill="none" stroke="#000099"/>
<path d="M306,166v -12" fill="none" stroke="#000099"/>
<path d="M296,166h 10" fill="none" stroke="#000099"/>
<path d="M306,166h 10" fill="none" stroke="#000099"/>
<g stroke="black" stroke-width="1" fill="none">
<line x1="305" y1="166" x2="306" y2="166"/>
</g>
<path d="M325,179v -12" fill="none" stroke="#000099"/>
<path d="M325,167v -12" fill="none" stroke="#000099"/>
<path d="M316,167h 9" fill="none" stroke="#000099"/>
<path d="M325,167h 10" fill="none" stroke="#000099"/>
<g stroke="black" stroke-width="1" fill="none">
<line x1="324" y1="167" x2="325" y2="167"/>
</g>
<path d="M345,171v -12" fill="none" stroke="#000099"/>
<path d="M345,159v -12" fill="none" stroke="#000099"/>
<path d="M335,159h 10" fill="none" stroke="#000099"/>
<path d="M345,159h 10" fill="none" stroke="#000099"/>
<g stroke="black" stroke-width="1" fill="none">
<line x1="344" y1="159" x2="345" y2="159"/>
</g>
<path d="M364,227v -13" fill="none" stroke="#000099"/>
<path d="M364,214v -13" fill="none" stroke="#000099"/>
<path d="M355,214h 9" fill="none" stroke="#000099"/>
<path d="M364,214h 10" fill="none" stroke="#000099"/>
<g stroke="black" stroke-width="1" fill="none">
<line x1="363" y1="214" x2="364" y2="214"/>
</g>
<path d="M384,263v -13" fill="none" stroke="#000099"/>
<path d="M384,250v -14" fill="none" stroke="#000099"/>
<path d="M374,250h 10" fill="none" stroke="#000099"/>
<path d="M384,250h 9" fill="none" stroke="#000099"/>
<g stroke="black" stroke-width="1" fill="none">
<line x1="383" y1="250" x2="384" y2="250"/>
</g>
<path d="M403,262v -13" fill="none" stroke="#000099"/>
<path d="M403,249v -13" fill="none" stroke="#000099"/>
<path d="M393,249h 10" fill="none" stroke="#000099"/>
<path d="M403,249h 10" fill="none" stroke="#000099"/>
<g stroke="black" stroke-width="1" fill="none">
<line x1="402" y1="249" x2="403" y2="249"/>
</g>
<path d="M423,270v -14" fill="none" stroke="#000099"/>
<path d="M423,256v -14" fill="none" stroke="#000099"/>
<path d="M413,256h 10" fill="none" stroke="#000099"/>
<path d="M423,256h 9" fill="none" stroke="#000099"/>
<g stroke="black" stroke-width="1" fill="none">
<line x1="422" y1="256" x2="423" y2="256"/>
</g>
<path d="M442,209v -12" fill="none" stroke="#000099"/>
<path d="M442,197v -11" fill="none" stroke="#000099"/>
<path d="M432,197h 10" fill="none" stroke="#000099"/>
<path d="M442,197h 10" fill="none" stroke="#000099"/>
<g stroke="black" stroke-width="1" fill="none">
<line x1="441" y1="197" x2="442" y2="197"/>
</g>
<path d="M461,246v -12" fill="none" stroke="#000099"/>
<path d="M461,234v -12" fill="none" stroke="#000099"/>
<path d="M452,234h 9" fill="none" stroke="#000099"/>
<path d="M461,234h 10" fill="none" stroke="#000099"/>
<g stroke="black" stroke-width="1" fill="none">
<line x1="460" y1="234" x2="461" y2="234"/>
</g>
<path d="M481,245v -12" fill="none" stroke="#000099"/>
<path d="M481,233v -12" fill="none" stroke="#000099"/>
<path d="M471,233h 10" fill="none" stroke="#000099"/>
<path d="M481,233h 10" fill="none" stroke="#000099"/>
<g stroke="black" stroke-width="1" fill="none">
<line x1="480" y1="233" x2="481" y2="233"/>
</g>
<path d="M500,252v -13" fill="none" stroke="#000099"/>
<path d="M500,239v -12" fill="none" stroke="#000099"/>
<path d="M491,239h 9" fill="none" stroke="#000099"/>
<path d="M500,239h 10" fill="none" stroke="#000099"/>
<g stroke="black" stroke-width="1" fill="none">
<line x1="499" y1="239" x2="500" y2="239"/>
</g>
<path d="M44,281h 466" fill="none" stroke="black"/>
<text x="472" y="321" fill="black" font-size="11" font-family="Helvetica">
Settings
</text>
<g transform="rotate(20,53,286)">
<text x="53" y="286" fill="black" font-size="6" font-family="Helvetica">
lo_50_hi_15000_bins_10
</text>
</g>
<g transform="rotate(20,72,286)">
<text x="72" y="286" fill="black" font-size="6" font-family="Helvetica">
lo_50_hi_15000_bins_50
</text>
</g>
<g transform="rotate(20,91,286)">
<text x="91" y="286" fill="black" font-size="6" font-family="Helvetica">
lo_50_hi_15000_bins_100
</text>
</g>
<g transform="rotate(20,111,286)">
<text x="111" y="286" fill="black" font-size="6" font-family="Helvetica">
lo_50_hi_15000_bins_200
</text>
</g>
<g transform="rotate(20,130,286)">
<text x="130" y="286" fill="black" font-size="6" font-family="Helvetica">
lo_50_hi_20000_bins_10
</text>
</g>
<g transform="rotate(20,150,286)">
<text x="150" y="286" fill="black" font-size="6" font-family="Helvetica">
lo_50_hi_20000_bins_50
</text>
</g>
<g transform="rotate(20,169,286)">
<text x="169" y="286" fill="black" font-size="6" font-family="Helvetica">
lo_50_hi_20000_bins_100
</text>
</g>
<g transform="rotate(20,188,286)">
<text x="188" y="286" fill="black" font-size="6" font-family="Helvetica">
lo_50_hi_20000_bins_200
</text>
</g>
<g transform="rotate(20,208,286)">
<text x="208" y="286" fill="black" font-size="6" font-family="Helvetica">
lo_100_hi_15000_bins_10
</text>
</g>
<g transform="rotate(20,227,286)">
<text x="227" y="286" fill="black" font-size="6" font-family="Helvetica">
lo_100_hi_15000_bins_50
</text>
</g>
<g transform="rotate(20,247,286)">
<text x="247" y="286" fill="black" font-size="6" font-family="Helvetica">
lo_100_hi_15000_bins_100
</text>
</g>
<g transform="rotate(20,266,286)">
<text x="266" y="286" fill="black" font-size="6" font-family="Helvetica">
lo_100_hi_15000_bins_200
</text>
</g>
<g transform="rotate(20,286,286)">
<text x="286" y="286" fill="black" font-size="6" font-family="Helvetica">
lo_100_hi_20000_bins_10
</text>
</g>
<g transform="rotate(20,305,286)">
<text x="305" y="286" fill="black" font-size="6" font-family="Helvetica">
lo_100_hi_20000_bins_50
</text>
</g>
<g transform="rotate(20,325,286)">
<text x="325" y="286" fill="black" font-size="6" font-family="Helvetica">
lo_100_hi_20000_bins_100
</text>
</g>
<g transform="rotate(20,344,286)">
<text x="344" y="286" fill="black" font-size="6" font-family="Helvetica">
lo_100_hi_20000_bins_200
</text>
</g>
<g transform="rotate(20,363,286)">
<text x="363" y="286" fill="black" font-size="6" font-family="Helvetica">
lo_150_hi_15000_bins_10
</text>
</g>
<g transform="rotate(20,383,286)">
<text x="383" y="286" fill="black" font-size="6" font-family="Helvetica">
lo_150_hi_15000_bins_50
</text>
</g>
<g transform="rotate(20,402,286)">
<text x="402" y="286" fill="black" font-size="6" font-family="Helvetica">
lo_150_hi_15000_bins_100
</text>
</g>
<g transform="rotate(20,422,286)">
<text x="422" y="286" fill="black" font-size="6" font-family="Helvetica">
lo_150_hi_15000_bins_200
</text>
</g>
<g transform="rotate(20,441,286)">
<text x="441" y="286" fill="black" font-size="6" font-family="Helvetica">
lo_150_hi_20000_bins_10
</text>
</g>
<g transform="rotate(20,460,286)">
<text x="460" y="286" fill="black" font-size="6" font-family="Helvetica">
lo_150_hi_20000_bins_50
</text>
</g>
<g transform="rotate(20,480,286)">
<text x="480" y="286" fill="black" font-size="6" font-family="Helvetica">
lo_150_hi_20000_bins_100
</text>
</g>
<g transform="rotate(20,499,286)">
<text x="499" y="286" fill="black" font-size="6" font-family="Helvetica">
lo_150_hi_20000_bins_200
</text>
</g>
<path d="M44,273v 8" fill="none" stroke="black"/>
<path d="M63,273v 8" fill="none" stroke="black"/>
<path d="M83,273v 8" fill="none" stroke="black"/>
<path d="M102,273v 8" fill="none" stroke="black"/>
<path d="M122,273v 8" fill="none" stroke="black"/>
<path d="M141,273v 8" fill="none" stroke="black"/>
<path d="M160,273v 8" fill="none" stroke="black"/>
<path d="M180,273v 8" fill="none" stroke="black"/>
<path d="M199,273v 8" fill="none" stroke="black"/>
<path d="M219,273v 8" fill="none" stroke="black"/>
<path d="M238,273v 8" fill="none" stroke="black"/>
<path d="M258,273v 8" fill="none" stroke="black"/>
<path d="M277,273v 8" fill="none" stroke="black"/>
<path d="M296,273v 8" fill="none" stroke="black"/>
<path d="M316,273v 8" fill="none" stroke="black"/>
<path d="M335,273v 8" fill="none" stroke="black"/>
<path d="M355,273v 8" fill="none" stroke="black"/>
<path d="M374,273v 8" fill="none" stroke="black"/>
<path d="M393,273v 8" fill="none" stroke="black"/>
<path d="M413,273v 8" fill="none" stroke="black"/>
<path d="M432,273v 8" fill="none" stroke="black"/>
<path d="M452,273v 8" fill="none" stroke="black"/>
<path d="M471,273v 8" fill="none" stroke="black"/>
<path d="M491,273v 8" fill="none" stroke="black"/>
<path d="M510,273v 8" fill="none" stroke="black"/>
<path d="M44,281v -248" fill="none" stroke="black"/>
<g transform="rotate(-90,10,61)">
<text x="10" y="61" fill="black" font-size="11" font-family="Helvetica">
Count
</text>
</g>
<path d="M57,269h -13" fill="none" stroke="black"/>
<path d="M50,262h -6" fill="none" stroke="black"/>
<path d="M50,256h -6" fill="none" stroke="black"/>
<path d="M50,249h -6" fill="none" stroke="black"/>
<path d="M57,242h -13" fill="none" stroke="black"/>
<path d="M50,236h -6" fill="none" stroke="black"/>
<path d="M50,229h -6" fill="none" stroke="black"/>
<path d="M50,223h -6" fill="none" stroke="black"/>
<path d="M57,216h -13" fill="none" stroke="black"/>
<path d="M50,210h -6" fill="none" stroke="black"/>
<path d="M50,203h -6" fill="none" stroke="black"/>
<path d="M50,196h -6" fill="none" stroke="black"/>
<path d="M57,190h -13" fill="none" stroke="black"/>
<path d="M50,183h -6" fill="none" stroke="black"/>
<path d="M50,177h -6" fill="none" stroke="black"/>
<path d="M50,170h -6" fill="none" stroke="black"/>
<path d="M57,164h -13" fill="none" stroke="black"/>
<path d="M50,157h -6" fill="none" stroke="black"/>
<path d="M50,150h -6" fill="none" stroke="black"/>
<path d="M50,144h -6" fill="none" stroke="black"/>
<path d="M57,137h -13" fill="none" stroke="black"/>
<path d="M50,131h -6" fill="none" stroke="black"/>
<path d="M50,124h -6" fill="none" stroke="black"/>
<path d="M50,117h -6" fill="none" stroke="black"/>
<path d="M57,111h -13" fill="none" stroke="black"/>
<path d="M50,104h -6" fill="none" stroke="black"/>
<path d="M50,98h -6" fill="none" stroke="black"/>
<path d="M50,91h -6" fill="none" stroke="black"/>
<path d="M57,85h -13" fill="none" stroke="black"/>
<path d="M50,78h -6" fill="none" stroke="black"/>
<path d="M50,71h -6" fill="none" stroke="black"/>
<path d="M50,65h -6" fill="none" stroke="black"/>
<path d="M57,58h -13" fill="none" stroke="black"/>
<path d="M57,269h -13" fill="none" stroke="black"/>
<path d="M50,275h -6" fill="none" stroke="black"/>
<path d="M57,58h -13" fill="none" stroke="black"/>
<path d="M50,52h -6" fill="none" stroke="black"/>
<path d="M50,45h -6" fill="none" stroke="black"/>
<path d="M50,38h -6" fill="none" stroke="black"/>
<text x="23" y="273" fill="black" font-size="11" font-family="Helvetica">
202
</text>
<text x="23" y="246" fill="black" font-size="11" font-family="Helvetica">
204
</text>
<text x="23" y="220" fill="black" font-size="11" font-family="Helvetica">
206
</text>
<text x="23" y="194" fill="black" font-size="11" font-family="Helvetica">
208
</text>
<text x="23" y="167" fill="black" font-size="11" font-family="Helvetica">
210
</text>
<text x="23" y="142" fill="black" font-size="11" font-family="Helvetica">
212
</text>
<text x="23" y="115" fill="black" font-size="11" font-family="Helvetica">
214
</text>
<text x="23" y="88" fill="black" font-size="11" font-family="Helvetica">
216
</text>
<text x="23" y="62" fill="black" font-size="11" font-family="Helvetica">
218
</text>
<text x="61" y="26" fill="black" font-size="7" font-family="Helvetica">
3
</text>
<text x="50" y="31" fill="black" font-size="11" font-family="Helvetica">
10
</text>
<text x="44" y="31" fill="black" font-size="11" font-family="Times">
&#0215;
</text>
<text x="130" y="16" fill="black" font-size="16" font-family="Helvetica">
Muon count for different fit settings, file: 452
</text></svg>
