<?xml version="1.0" standalone="no"?>
<svg width="567" height="328" viewBox="0 0 567 328" xmlns="http://www.w3.org/2000/svg">
<title>
/Users/samcook/code/MuSIC/offline_analysis_music5/MuSIC5_offline_analysis/MuSIC5_offline_analysis/scripts/images/fit_settings_458.svg
</title>
<desc>
Creator: ROOT Version 5.32/00
CreationDate: Wed Aug 22 01:14:25 2012</desc>
<defs>
</defs>
<rect x="0" y="0" width="567" height="328" fill="white"/>
<rect x="46" y="33" width="454" height="250" fill="white"/>
<rect x="46" y="33" width="454" height="250" fill="none" stroke="black"/>
<rect x="46" y="33" width="454" height="250" fill="white"/>
<rect x="46" y="33" width="454" height="250" fill="none" stroke="black"/>
<path d="M56,76v -15" fill="none" stroke="#000099"/>
<path d="M56,61v -16" fill="none" stroke="#000099"/>
<path d="M46,61h 10" fill="none" stroke="#000099"/>
<path d="M56,61h 9" fill="none" stroke="#000099"/>
<g stroke="black" stroke-width="1" fill="none">
<line x1="55" y1="61" x2="56" y2="61"/>
</g>
<path d="M75,111v -15" fill="none" stroke="#000099"/>
<path d="M75,96v -16" fill="none" stroke="#000099"/>
<path d="M65,96h 10" fill="none" stroke="#000099"/>
<path d="M75,96h 9" fill="none" stroke="#000099"/>
<g stroke="black" stroke-width="1" fill="none">
<line x1="74" y1="96" x2="75" y2="96"/>
</g>
<path d="M94,94v -15" fill="none" stroke="#000099"/>
<path d="M94,79v -16" fill="none" stroke="#000099"/>
<path d="M84,79h 10" fill="none" stroke="#000099"/>
<path d="M94,79h 9" fill="none" stroke="#000099"/>
<g stroke="black" stroke-width="1" fill="none">
<line x1="93" y1="79" x2="94" y2="79"/>
</g>
<path d="M112,96v -18" fill="none" stroke="#000099"/>
<path d="M112,78v -18" fill="none" stroke="#000099"/>
<path d="M103,78h 9" fill="none" stroke="#000099"/>
<path d="M112,78h 10" fill="none" stroke="#000099"/>
<g stroke="black" stroke-width="1" fill="none">
<line x1="111" y1="78" x2="112" y2="78"/>
</g>
<path d="M131,74v -14" fill="none" stroke="#000099"/>
<path d="M131,60v -14" fill="none" stroke="#000099"/>
<path d="M122,60h 9" fill="none" stroke="#000099"/>
<path d="M131,60h 10" fill="none" stroke="#000099"/>
<g stroke="black" stroke-width="1" fill="none">
<line x1="130" y1="60" x2="131" y2="60"/>
</g>
<path d="M150,104v -15" fill="none" stroke="#000099"/>
<path d="M150,89v -14" fill="none" stroke="#000099"/>
<path d="M141,89h 9" fill="none" stroke="#000099"/>
<path d="M150,89h 10" fill="none" stroke="#000099"/>
<g stroke="black" stroke-width="1" fill="none">
<line x1="149" y1="89" x2="150" y2="89"/>
</g>
<path d="M169,88v -14" fill="none" stroke="#000099"/>
<path d="M169,74v -14" fill="none" stroke="#000099"/>
<path d="M160,74h 9" fill="none" stroke="#000099"/>
<path d="M169,74h 10" fill="none" stroke="#000099"/>
<g stroke="black" stroke-width="1" fill="none">
<line x1="168" y1="74" x2="169" y2="74"/>
</g>
<path d="M188,87v -15" fill="none" stroke="#000099"/>
<path d="M188,72v -14" fill="none" stroke="#000099"/>
<path d="M179,72h 9" fill="none" stroke="#000099"/>
<path d="M188,72h 9" fill="none" stroke="#000099"/>
<g stroke="black" stroke-width="1" fill="none">
<line x1="187" y1="72" x2="188" y2="72"/>
</g>
<path d="M207,162v -15" fill="none" stroke="#000099"/>
<path d="M207,147v -16" fill="none" stroke="#000099"/>
<path d="M197,147h 10" fill="none" stroke="#000099"/>
<path d="M207,147h 9" fill="none" stroke="#000099"/>
<g stroke="black" stroke-width="1" fill="none">
<line x1="206" y1="147" x2="207" y2="147"/>
</g>
<path d="M226,196v -16" fill="none" stroke="#000099"/>
<path d="M226,180v -15" fill="none" stroke="#000099"/>
<path d="M216,180h 10" fill="none" stroke="#000099"/>
<path d="M226,180h 9" fill="none" stroke="#000099"/>
<g stroke="black" stroke-width="1" fill="none">
<line x1="225" y1="180" x2="226" y2="180"/>
</g>
<path d="M245,194v -16" fill="none" stroke="#000099"/>
<path d="M245,178v -16" fill="none" stroke="#000099"/>
<path d="M235,178h 10" fill="none" stroke="#000099"/>
<path d="M245,178h 9" fill="none" stroke="#000099"/>
<g stroke="black" stroke-width="1" fill="none">
<line x1="244" y1="178" x2="245" y2="178"/>
</g>
<path d="M264,181v -18" fill="none" stroke="#000099"/>
<path d="M264,163v -17" fill="none" stroke="#000099"/>
<path d="M254,163h 10" fill="none" stroke="#000099"/>
<path d="M264,163h 9" fill="none" stroke="#000099"/>
<g stroke="black" stroke-width="1" fill="none">
<line x1="263" y1="163" x2="264" y2="163"/>
</g>
<path d="M282,159v -14" fill="none" stroke="#000099"/>
<path d="M282,145v -14" fill="none" stroke="#000099"/>
<path d="M273,145h 9" fill="none" stroke="#000099"/>
<path d="M282,145h 10" fill="none" stroke="#000099"/>
<g stroke="black" stroke-width="1" fill="none">
<line x1="281" y1="145" x2="282" y2="145"/>
</g>
<path d="M301,188v -14" fill="none" stroke="#000099"/>
<path d="M301,174v -15" fill="none" stroke="#000099"/>
<path d="M292,174h 9" fill="none" stroke="#000099"/>
<path d="M301,174h 10" fill="none" stroke="#000099"/>
<g stroke="black" stroke-width="1" fill="none">
<line x1="300" y1="174" x2="301" y2="174"/>
</g>
<path d="M320,185v -14" fill="none" stroke="#000099"/>
<path d="M320,171v -15" fill="none" stroke="#000099"/>
<path d="M311,171h 9" fill="none" stroke="#000099"/>
<path d="M320,171h 10" fill="none" stroke="#000099"/>
<g stroke="black" stroke-width="1" fill="none">
<line x1="319" y1="171" x2="320" y2="171"/>
</g>
<path d="M339,171v -14" fill="none" stroke="#000099"/>
<path d="M339,157v -14" fill="none" stroke="#000099"/>
<path d="M330,157h 9" fill="none" stroke="#000099"/>
<path d="M339,157h 10" fill="none" stroke="#000099"/>
<g stroke="black" stroke-width="1" fill="none">
<line x1="338" y1="157" x2="339" y2="157"/>
</g>
<path d="M358,239v -16" fill="none" stroke="#000099"/>
<path d="M358,223v -15" fill="none" stroke="#000099"/>
<path d="M349,223h 9" fill="none" stroke="#000099"/>
<path d="M358,223h 9" fill="none" stroke="#000099"/>
<g stroke="black" stroke-width="1" fill="none">
<line x1="357" y1="223" x2="358" y2="223"/>
</g>
<path d="M377,272v -16" fill="none" stroke="#000099"/>
<path d="M377,256v -16" fill="none" stroke="#000099"/>
<path d="M367,256h 10" fill="none" stroke="#000099"/>
<path d="M377,256h 9" fill="none" stroke="#000099"/>
<g stroke="black" stroke-width="1" fill="none">
<line x1="376" y1="256" x2="377" y2="256"/>
</g>
<path d="M396,269v -16" fill="none" stroke="#000099"/>
<path d="M396,253v -15" fill="none" stroke="#000099"/>
<path d="M386,253h 10" fill="none" stroke="#000099"/>
<path d="M396,253h 9" fill="none" stroke="#000099"/>
<g stroke="black" stroke-width="1" fill="none">
<line x1="395" y1="253" x2="396" y2="253"/>
</g>
<path d="M415,268v -17" fill="none" stroke="#000099"/>
<path d="M415,251v -16" fill="none" stroke="#000099"/>
<path d="M405,251h 10" fill="none" stroke="#000099"/>
<path d="M415,251h 9" fill="none" stroke="#000099"/>
<g stroke="black" stroke-width="1" fill="none">
<line x1="414" y1="251" x2="415" y2="251"/>
</g>
<path d="M434,235v -14" fill="none" stroke="#000099"/>
<path d="M434,221v -14" fill="none" stroke="#000099"/>
<path d="M424,221h 10" fill="none" stroke="#000099"/>
<path d="M434,221h 9" fill="none" stroke="#000099"/>
<g stroke="black" stroke-width="1" fill="none">
<line x1="433" y1="221" x2="434" y2="221"/>
</g>
<path d="M452,263v -14" fill="none" stroke="#000099"/>
<path d="M452,249v -14" fill="none" stroke="#000099"/>
<path d="M443,249h 9" fill="none" stroke="#000099"/>
<path d="M452,249h 10" fill="none" stroke="#000099"/>
<g stroke="black" stroke-width="1" fill="none">
<line x1="451" y1="249" x2="452" y2="249"/>
</g>
<path d="M471,260v -14" fill="none" stroke="#000099"/>
<path d="M471,246v -14" fill="none" stroke="#000099"/>
<path d="M462,246h 9" fill="none" stroke="#000099"/>
<path d="M471,246h 10" fill="none" stroke="#000099"/>
<g stroke="black" stroke-width="1" fill="none">
<line x1="470" y1="246" x2="471" y2="246"/>
</g>
<path d="M490,260v -16" fill="none" stroke="#000099"/>
<path d="M490,244v -15" fill="none" stroke="#000099"/>
<path d="M481,244h 9" fill="none" stroke="#000099"/>
<path d="M490,244h 10" fill="none" stroke="#000099"/>
<g stroke="black" stroke-width="1" fill="none">
<line x1="489" y1="244" x2="490" y2="244"/>
</g>
<path d="M46,283h 454" fill="none" stroke="black"/>
<text x="461" y="323" fill="black" font-size="11" font-family="Helvetica">
Settings
</text>
<g transform="rotate(20,55,288)">
<text x="55" y="288" fill="black" font-size="6" font-family="Helvetica">
lo_50_hi_15000_bins_10
</text>
</g>
<g transform="rotate(20,74,288)">
<text x="74" y="288" fill="black" font-size="6" font-family="Helvetica">
lo_50_hi_15000_bins_50
</text>
</g>
<g transform="rotate(20,93,288)">
<text x="93" y="288" fill="black" font-size="6" font-family="Helvetica">
lo_50_hi_15000_bins_100
</text>
</g>
<g transform="rotate(20,111,288)">
<text x="111" y="288" fill="black" font-size="6" font-family="Helvetica">
lo_50_hi_15000_bins_200
</text>
</g>
<g transform="rotate(20,130,288)">
<text x="130" y="288" fill="black" font-size="6" font-family="Helvetica">
lo_50_hi_20000_bins_10
</text>
</g>
<g transform="rotate(20,149,288)">
<text x="149" y="288" fill="black" font-size="6" font-family="Helvetica">
lo_50_hi_20000_bins_50
</text>
</g>
<g transform="rotate(20,168,288)">
<text x="168" y="288" fill="black" font-size="6" font-family="Helvetica">
lo_50_hi_20000_bins_100
</text>
</g>
<g transform="rotate(20,187,288)">
<text x="187" y="288" fill="black" font-size="6" font-family="Helvetica">
lo_50_hi_20000_bins_200
</text>
</g>
<g transform="rotate(20,206,288)">
<text x="206" y="288" fill="black" font-size="6" font-family="Helvetica">
lo_100_hi_15000_bins_10
</text>
</g>
<g transform="rotate(20,225,288)">
<text x="225" y="288" fill="black" font-size="6" font-family="Helvetica">
lo_100_hi_15000_bins_50
</text>
</g>
<g transform="rotate(20,243,288)">
<text x="243" y="288" fill="black" font-size="6" font-family="Helvetica">
lo_100_hi_15000_bins_100
</text>
</g>
<g transform="rotate(20,262,288)">
<text x="262" y="288" fill="black" font-size="6" font-family="Helvetica">
lo_100_hi_15000_bins_200
</text>
</g>
<g transform="rotate(20,281,288)">
<text x="281" y="288" fill="black" font-size="6" font-family="Helvetica">
lo_100_hi_20000_bins_10
</text>
</g>
<g transform="rotate(20,300,288)">
<text x="300" y="288" fill="black" font-size="6" font-family="Helvetica">
lo_100_hi_20000_bins_50
</text>
</g>
<g transform="rotate(20,319,288)">
<text x="319" y="288" fill="black" font-size="6" font-family="Helvetica">
lo_100_hi_20000_bins_100
</text>
</g>
<g transform="rotate(20,338,288)">
<text x="338" y="288" fill="black" font-size="6" font-family="Helvetica">
lo_100_hi_20000_bins_200
</text>
</g>
<g transform="rotate(20,357,288)">
<text x="357" y="288" fill="black" font-size="6" font-family="Helvetica">
lo_150_hi_15000_bins_10
</text>
</g>
<g transform="rotate(20,376,288)">
<text x="376" y="288" fill="black" font-size="6" font-family="Helvetica">
lo_150_hi_15000_bins_50
</text>
</g>
<g transform="rotate(20,395,288)">
<text x="395" y="288" fill="black" font-size="6" font-family="Helvetica">
lo_150_hi_15000_bins_100
</text>
</g>
<g transform="rotate(20,414,288)">
<text x="414" y="288" fill="black" font-size="6" font-family="Helvetica">
lo_150_hi_15000_bins_200
</text>
</g>
<g transform="rotate(20,433,288)">
<text x="433" y="288" fill="black" font-size="6" font-family="Helvetica">
lo_150_hi_20000_bins_10
</text>
</g>
<g transform="rotate(20,451,288)">
<text x="451" y="288" fill="black" font-size="6" font-family="Helvetica">
lo_150_hi_20000_bins_50
</text>
</g>
<g transform="rotate(20,470,288)">
<text x="470" y="288" fill="black" font-size="6" font-family="Helvetica">
lo_150_hi_20000_bins_100
</text>
</g>
<g transform="rotate(20,489,288)">
<text x="489" y="288" fill="black" font-size="6" font-family="Helvetica">
lo_150_hi_20000_bins_200
</text>
</g>
<path d="M46,275v 8" fill="none" stroke="black"/>
<path d="M65,275v 8" fill="none" stroke="black"/>
<path d="M84,275v 8" fill="none" stroke="black"/>
<path d="M103,275v 8" fill="none" stroke="black"/>
<path d="M122,275v 8" fill="none" stroke="black"/>
<path d="M141,275v 8" fill="none" stroke="black"/>
<path d="M160,275v 8" fill="none" stroke="black"/>
<path d="M179,275v 8" fill="none" stroke="black"/>
<path d="M197,275v 8" fill="none" stroke="black"/>
<path d="M216,275v 8" fill="none" stroke="black"/>
<path d="M235,275v 8" fill="none" stroke="black"/>
<path d="M254,275v 8" fill="none" stroke="black"/>
<path d="M273,275v 8" fill="none" stroke="black"/>
<path d="M292,275v 8" fill="none" stroke="black"/>
<path d="M311,275v 8" fill="none" stroke="black"/>
<path d="M330,275v 8" fill="none" stroke="black"/>
<path d="M349,275v 8" fill="none" stroke="black"/>
<path d="M367,275v 8" fill="none" stroke="black"/>
<path d="M386,275v 8" fill="none" stroke="black"/>
<path d="M405,275v 8" fill="none" stroke="black"/>
<path d="M424,275v 8" fill="none" stroke="black"/>
<path d="M443,275v 8" fill="none" stroke="black"/>
<path d="M462,275v 8" fill="none" stroke="black"/>
<path d="M481,275v 8" fill="none" stroke="black"/>
<path d="M500,275v 8" fill="none" stroke="black"/>
<path d="M46,283v -250" fill="none" stroke="black"/>
<g transform="rotate(-90,12,62)">
<text x="12" y="62" fill="black" font-size="11" font-family="Helvetica">
Count
</text>
</g>
<path d="M59,273h -13" fill="none" stroke="black"/>
<path d="M53,262h -7" fill="none" stroke="black"/>
<path d="M53,252h -7" fill="none" stroke="black"/>
<path d="M53,241h -7" fill="none" stroke="black"/>
<path d="M59,231h -13" fill="none" stroke="black"/>
<path d="M53,221h -7" fill="none" stroke="black"/>
<path d="M53,210h -7" fill="none" stroke="black"/>
<path d="M53,200h -7" fill="none" stroke="black"/>
<path d="M59,189h -13" fill="none" stroke="black"/>
<path d="M53,179h -7" fill="none" stroke="black"/>
<path d="M53,169h -7" fill="none" stroke="black"/>
<path d="M53,158h -7" fill="none" stroke="black"/>
<path d="M59,148h -13" fill="none" stroke="black"/>
<path d="M53,137h -7" fill="none" stroke="black"/>
<path d="M53,127h -7" fill="none" stroke="black"/>
<path d="M53,117h -7" fill="none" stroke="black"/>
<path d="M59,106h -13" fill="none" stroke="black"/>
<path d="M53,96h -7" fill="none" stroke="black"/>
<path d="M53,85h -7" fill="none" stroke="black"/>
<path d="M53,75h -7" fill="none" stroke="black"/>
<path d="M59,65h -13" fill="none" stroke="black"/>
<path d="M59,273h -13" fill="none" stroke="black"/>
<path d="M53,283h -7" fill="none" stroke="black"/>
<path d="M59,65h -13" fill="none" stroke="black"/>
<path d="M53,54h -7" fill="none" stroke="black"/>
<path d="M53,44h -7" fill="none" stroke="black"/>
<path d="M53,33h -7" fill="none" stroke="black"/>
<text x="26" y="276" fill="black" font-size="11" font-family="Helvetica">
148
</text>
<text x="26" y="235" fill="black" font-size="11" font-family="Helvetica">
150
</text>
<text x="26" y="193" fill="black" font-size="11" font-family="Helvetica">
152
</text>
<text x="26" y="151" fill="black" font-size="11" font-family="Helvetica">
154
</text>
<text x="26" y="110" fill="black" font-size="11" font-family="Helvetica">
156
</text>
<text x="26" y="68" fill="black" font-size="11" font-family="Helvetica">
158
</text>
<text x="64" y="27" fill="black" font-size="7" font-family="Helvetica">
3
</text>
<text x="52" y="32" fill="black" font-size="11" font-family="Helvetica">
10
</text>
<text x="46" y="32" fill="black" font-size="11" font-family="Times">
&#0215;
</text>
<text x="130" y="16" fill="black" font-size="16" font-family="Helvetica">
Muon count for different fit settings, file: 458
</text></svg>
