<?xml version="1.0" standalone="no"?>
<svg width="567" height="328" viewBox="0 0 567 328" xmlns="http://www.w3.org/2000/svg">
<title>
/Users/samcook/code/MuSIC/offline_analysis_music5/MuSIC5_offline_analysis/MuSIC5_offline_analysis/scripts/images/fit_settings_448.svg
</title>
<desc>
Creator: ROOT Version 5.32/00
CreationDate: Wed Aug 22 01:17:31 2012</desc>
<defs>
</defs>
<rect x="0" y="0" width="567" height="328" fill="white"/>
<rect x="49" y="32" width="461" height="250" fill="white"/>
<rect x="49" y="32" width="461" height="250" fill="none" stroke="black"/>
<rect x="49" y="32" width="461" height="250" fill="white"/>
<rect x="49" y="32" width="461" height="250" fill="none" stroke="black"/>
<path d="M58,97v -26" fill="none" stroke="#000099"/>
<path d="M58,71v -27" fill="none" stroke="#000099"/>
<path d="M49,71h 9" fill="none" stroke="#000099"/>
<path d="M58,71h 10" fill="none" stroke="#000099"/>
<g stroke="black" stroke-width="1" fill="none">
<line x1="57" y1="71" x2="58" y2="71"/>
</g>
<path d="M77,119v -10" fill="none" stroke="#000099"/>
<path d="M77,109v -10" fill="none" stroke="#000099"/>
<path d="M68,109h 9" fill="none" stroke="#000099"/>
<path d="M77,109h 10" fill="none" stroke="#000099"/>
<g stroke="black" stroke-width="1" fill="none">
<line x1="76" y1="109" x2="77" y2="109"/>
</g>
<path d="M97,105v -10" fill="none" stroke="#000099"/>
<path d="M97,95v -10" fill="none" stroke="#000099"/>
<path d="M87,95h 10" fill="none" stroke="#000099"/>
<path d="M97,95h 9" fill="none" stroke="#000099"/>
<g stroke="black" stroke-width="1" fill="none">
<line x1="96" y1="95" x2="97" y2="95"/>
</g>
<path d="M116,106v -10" fill="none" stroke="#000099"/>
<path d="M116,96v -10" fill="none" stroke="#000099"/>
<path d="M106,96h 10" fill="none" stroke="#000099"/>
<path d="M116,96h 10" fill="none" stroke="#000099"/>
<g stroke="black" stroke-width="1" fill="none">
<line x1="115" y1="96" x2="116" y2="96"/>
</g>
<path d="M135,80v -9" fill="none" stroke="#000099"/>
<path d="M135,71v -9" fill="none" stroke="#000099"/>
<path d="M126,71h 9" fill="none" stroke="#000099"/>
<path d="M135,71h 10" fill="none" stroke="#000099"/>
<g stroke="black" stroke-width="1" fill="none">
<line x1="134" y1="71" x2="135" y2="71"/>
</g>
<path d="M154,117v -9" fill="none" stroke="#000099"/>
<path d="M154,108v -9" fill="none" stroke="#000099"/>
<path d="M145,108h 9" fill="none" stroke="#000099"/>
<path d="M154,108h 10" fill="none" stroke="#000099"/>
<g stroke="black" stroke-width="1" fill="none">
<line x1="153" y1="108" x2="154" y2="108"/>
</g>
<path d="M174,105v -9" fill="none" stroke="#000099"/>
<path d="M174,96v -9" fill="none" stroke="#000099"/>
<path d="M164,96h 10" fill="none" stroke="#000099"/>
<path d="M174,96h 9" fill="none" stroke="#000099"/>
<g stroke="black" stroke-width="1" fill="none">
<line x1="173" y1="96" x2="174" y2="96"/>
</g>
<path d="M193,104v -9" fill="none" stroke="#000099"/>
<path d="M193,95v -9" fill="none" stroke="#000099"/>
<path d="M183,95h 10" fill="none" stroke="#000099"/>
<path d="M193,95h 9" fill="none" stroke="#000099"/>
<g stroke="black" stroke-width="1" fill="none">
<line x1="192" y1="95" x2="193" y2="95"/>
</g>
<path d="M212,159v -10" fill="none" stroke="#000099"/>
<path d="M212,149v -10" fill="none" stroke="#000099"/>
<path d="M202,149h 10" fill="none" stroke="#000099"/>
<path d="M212,149h 10" fill="none" stroke="#000099"/>
<g stroke="black" stroke-width="1" fill="none">
<line x1="211" y1="149" x2="212" y2="149"/>
</g>
<path d="M231,196v -10" fill="none" stroke="#000099"/>
<path d="M231,186v -10" fill="none" stroke="#000099"/>
<path d="M222,186h 9" fill="none" stroke="#000099"/>
<path d="M231,186h 10" fill="none" stroke="#000099"/>
<g stroke="black" stroke-width="1" fill="none">
<line x1="230" y1="186" x2="231" y2="186"/>
</g>
<path d="M250,197v -10" fill="none" stroke="#000099"/>
<path d="M250,187v -10" fill="none" stroke="#000099"/>
<path d="M241,187h 9" fill="none" stroke="#000099"/>
<path d="M250,187h 10" fill="none" stroke="#000099"/>
<g stroke="black" stroke-width="1" fill="none">
<line x1="249" y1="187" x2="250" y2="187"/>
</g>
<path d="M270,187v -10" fill="none" stroke="#000099"/>
<path d="M270,177v -10" fill="none" stroke="#000099"/>
<path d="M260,177h 10" fill="none" stroke="#000099"/>
<path d="M270,177h 9" fill="none" stroke="#000099"/>
<g stroke="black" stroke-width="1" fill="none">
<line x1="269" y1="177" x2="270" y2="177"/>
</g>
<path d="M289,158v -8" fill="none" stroke="#000099"/>
<path d="M289,150v -9" fill="none" stroke="#000099"/>
<path d="M279,150h 10" fill="none" stroke="#000099"/>
<path d="M289,150h 9" fill="none" stroke="#000099"/>
<g stroke="black" stroke-width="1" fill="none">
<line x1="288" y1="150" x2="289" y2="150"/>
</g>
<path d="M308,194v -9" fill="none" stroke="#000099"/>
<path d="M308,185v -9" fill="none" stroke="#000099"/>
<path d="M298,185h 10" fill="none" stroke="#000099"/>
<path d="M308,185h 10" fill="none" stroke="#000099"/>
<g stroke="black" stroke-width="1" fill="none">
<line x1="307" y1="185" x2="308" y2="185"/>
</g>
<path d="M327,195v -9" fill="none" stroke="#000099"/>
<path d="M327,186v -9" fill="none" stroke="#000099"/>
<path d="M318,186h 9" fill="none" stroke="#000099"/>
<path d="M327,186h 10" fill="none" stroke="#000099"/>
<g stroke="black" stroke-width="1" fill="none">
<line x1="326" y1="186" x2="327" y2="186"/>
</g>
<path d="M346,185v -9" fill="none" stroke="#000099"/>
<path d="M346,176v -9" fill="none" stroke="#000099"/>
<path d="M337,176h 9" fill="none" stroke="#000099"/>
<path d="M346,176h 10" fill="none" stroke="#000099"/>
<g stroke="black" stroke-width="1" fill="none">
<line x1="345" y1="176" x2="346" y2="176"/>
</g>
<path d="M366,234v -10" fill="none" stroke="#000099"/>
<path d="M366,224v -10" fill="none" stroke="#000099"/>
<path d="M356,224h 10" fill="none" stroke="#000099"/>
<path d="M366,224h 9" fill="none" stroke="#000099"/>
<g stroke="black" stroke-width="1" fill="none">
<line x1="365" y1="224" x2="366" y2="224"/>
</g>
<path d="M385,270v -10" fill="none" stroke="#000099"/>
<path d="M385,260v -10" fill="none" stroke="#000099"/>
<path d="M375,260h 10" fill="none" stroke="#000099"/>
<path d="M385,260h 9" fill="none" stroke="#000099"/>
<g stroke="black" stroke-width="1" fill="none">
<line x1="384" y1="260" x2="385" y2="260"/>
</g>
<path d="M404,270v -10" fill="none" stroke="#000099"/>
<path d="M404,260v -9" fill="none" stroke="#000099"/>
<path d="M394,260h 10" fill="none" stroke="#000099"/>
<path d="M404,260h 10" fill="none" stroke="#000099"/>
<g stroke="black" stroke-width="1" fill="none">
<line x1="403" y1="260" x2="404" y2="260"/>
</g>
<path d="M423,269v -10" fill="none" stroke="#000099"/>
<path d="M423,259v -11" fill="none" stroke="#000099"/>
<path d="M414,259h 9" fill="none" stroke="#000099"/>
<path d="M423,259h 10" fill="none" stroke="#000099"/>
<g stroke="black" stroke-width="1" fill="none">
<line x1="422" y1="259" x2="423" y2="259"/>
</g>
<path d="M442,232v -8" fill="none" stroke="#000099"/>
<path d="M442,224v -8" fill="none" stroke="#000099"/>
<path d="M433,224h 9" fill="none" stroke="#000099"/>
<path d="M442,224h 10" fill="none" stroke="#000099"/>
<g stroke="black" stroke-width="1" fill="none">
<line x1="441" y1="224" x2="442" y2="224"/>
</g>
<path d="M462,268v -9" fill="none" stroke="#000099"/>
<path d="M462,259v -9" fill="none" stroke="#000099"/>
<path d="M452,259h 10" fill="none" stroke="#000099"/>
<path d="M462,259h 9" fill="none" stroke="#000099"/>
<g stroke="black" stroke-width="1" fill="none">
<line x1="461" y1="259" x2="462" y2="259"/>
</g>
<path d="M481,268v -9" fill="none" stroke="#000099"/>
<path d="M481,259v -9" fill="none" stroke="#000099"/>
<path d="M471,259h 10" fill="none" stroke="#000099"/>
<path d="M481,259h 9" fill="none" stroke="#000099"/>
<g stroke="black" stroke-width="1" fill="none">
<line x1="480" y1="259" x2="481" y2="259"/>
</g>
<path d="M500,267v -10" fill="none" stroke="#000099"/>
<path d="M500,257v -9" fill="none" stroke="#000099"/>
<path d="M490,257h 10" fill="none" stroke="#000099"/>
<path d="M500,257h 10" fill="none" stroke="#000099"/>
<g stroke="black" stroke-width="1" fill="none">
<line x1="499" y1="257" x2="500" y2="257"/>
</g>
<path d="M49,282h 461" fill="none" stroke="black"/>
<text x="471" y="321" fill="black" font-size="11" font-family="Helvetica">
Settings
</text>
<g transform="rotate(20,57,287)">
<text x="57" y="287" fill="black" font-size="6" font-family="Helvetica">
lo_50_hi_15000_bins_10
</text>
</g>
<g transform="rotate(20,76,287)">
<text x="76" y="287" fill="black" font-size="6" font-family="Helvetica">
lo_50_hi_15000_bins_50
</text>
</g>
<g transform="rotate(20,96,287)">
<text x="96" y="287" fill="black" font-size="6" font-family="Helvetica">
lo_50_hi_15000_bins_100
</text>
</g>
<g transform="rotate(20,115,287)">
<text x="115" y="287" fill="black" font-size="6" font-family="Helvetica">
lo_50_hi_15000_bins_200
</text>
</g>
<g transform="rotate(20,134,287)">
<text x="134" y="287" fill="black" font-size="6" font-family="Helvetica">
lo_50_hi_20000_bins_10
</text>
</g>
<g transform="rotate(20,153,287)">
<text x="153" y="287" fill="black" font-size="6" font-family="Helvetica">
lo_50_hi_20000_bins_50
</text>
</g>
<g transform="rotate(20,173,287)">
<text x="173" y="287" fill="black" font-size="6" font-family="Helvetica">
lo_50_hi_20000_bins_100
</text>
</g>
<g transform="rotate(20,192,287)">
<text x="192" y="287" fill="black" font-size="6" font-family="Helvetica">
lo_50_hi_20000_bins_200
</text>
</g>
<g transform="rotate(20,211,287)">
<text x="211" y="287" fill="black" font-size="6" font-family="Helvetica">
lo_100_hi_15000_bins_10
</text>
</g>
<g transform="rotate(20,230,287)">
<text x="230" y="287" fill="black" font-size="6" font-family="Helvetica">
lo_100_hi_15000_bins_50
</text>
</g>
<g transform="rotate(20,249,287)">
<text x="249" y="287" fill="black" font-size="6" font-family="Helvetica">
lo_100_hi_15000_bins_100
</text>
</g>
<g transform="rotate(20,268,287)">
<text x="268" y="287" fill="black" font-size="6" font-family="Helvetica">
lo_100_hi_15000_bins_200
</text>
</g>
<g transform="rotate(20,288,287)">
<text x="288" y="287" fill="black" font-size="6" font-family="Helvetica">
lo_100_hi_20000_bins_10
</text>
</g>
<g transform="rotate(20,307,287)">
<text x="307" y="287" fill="black" font-size="6" font-family="Helvetica">
lo_100_hi_20000_bins_50
</text>
</g>
<g transform="rotate(20,326,287)">
<text x="326" y="287" fill="black" font-size="6" font-family="Helvetica">
lo_100_hi_20000_bins_100
</text>
</g>
<g transform="rotate(20,345,287)">
<text x="345" y="287" fill="black" font-size="6" font-family="Helvetica">
lo_100_hi_20000_bins_200
</text>
</g>
<g transform="rotate(20,365,287)">
<text x="365" y="287" fill="black" font-size="6" font-family="Helvetica">
lo_150_hi_15000_bins_10
</text>
</g>
<g transform="rotate(20,384,287)">
<text x="384" y="287" fill="black" font-size="6" font-family="Helvetica">
lo_150_hi_15000_bins_50
</text>
</g>
<g transform="rotate(20,403,287)">
<text x="403" y="287" fill="black" font-size="6" font-family="Helvetica">
lo_150_hi_15000_bins_100
</text>
</g>
<g transform="rotate(20,422,287)">
<text x="422" y="287" fill="black" font-size="6" font-family="Helvetica">
lo_150_hi_15000_bins_200
</text>
</g>
<g transform="rotate(20,441,287)">
<text x="441" y="287" fill="black" font-size="6" font-family="Helvetica">
lo_150_hi_20000_bins_10
</text>
</g>
<g transform="rotate(20,460,287)">
<text x="460" y="287" fill="black" font-size="6" font-family="Helvetica">
lo_150_hi_20000_bins_50
</text>
</g>
<g transform="rotate(20,480,287)">
<text x="480" y="287" fill="black" font-size="6" font-family="Helvetica">
lo_150_hi_20000_bins_100
</text>
</g>
<g transform="rotate(20,499,287)">
<text x="499" y="287" fill="black" font-size="6" font-family="Helvetica">
lo_150_hi_20000_bins_200
</text>
</g>
<path d="M49,274v 8" fill="none" stroke="black"/>
<path d="M68,274v 8" fill="none" stroke="black"/>
<path d="M87,274v 8" fill="none" stroke="black"/>
<path d="M106,274v 8" fill="none" stroke="black"/>
<path d="M126,274v 8" fill="none" stroke="black"/>
<path d="M145,274v 8" fill="none" stroke="black"/>
<path d="M164,274v 8" fill="none" stroke="black"/>
<path d="M183,274v 8" fill="none" stroke="black"/>
<path d="M202,274v 8" fill="none" stroke="black"/>
<path d="M222,274v 8" fill="none" stroke="black"/>
<path d="M241,274v 8" fill="none" stroke="black"/>
<path d="M260,274v 8" fill="none" stroke="black"/>
<path d="M279,274v 8" fill="none" stroke="black"/>
<path d="M298,274v 8" fill="none" stroke="black"/>
<path d="M318,274v 8" fill="none" stroke="black"/>
<path d="M337,274v 8" fill="none" stroke="black"/>
<path d="M356,274v 8" fill="none" stroke="black"/>
<path d="M375,274v 8" fill="none" stroke="black"/>
<path d="M394,274v 8" fill="none" stroke="black"/>
<path d="M414,274v 8" fill="none" stroke="black"/>
<path d="M433,274v 8" fill="none" stroke="black"/>
<path d="M452,274v 8" fill="none" stroke="black"/>
<path d="M471,274v 8" fill="none" stroke="black"/>
<path d="M490,274v 8" fill="none" stroke="black"/>
<path d="M510,274v 8" fill="none" stroke="black"/>
<path d="M49,282v -250" fill="none" stroke="black"/>
<g transform="rotate(-90,14,61)">
<text x="14" y="61" fill="black" font-size="11" font-family="Helvetica">
Count
</text>
</g>
<path d="M62,269h -13" fill="none" stroke="black"/>
<path d="M55,264h -6" fill="none" stroke="black"/>
<path d="M55,258h -6" fill="none" stroke="black"/>
<path d="M55,253h -6" fill="none" stroke="black"/>
<path d="M55,247h -6" fill="none" stroke="black"/>
<path d="M62,242h -13" fill="none" stroke="black"/>
<path d="M55,236h -6" fill="none" stroke="black"/>
<path d="M55,230h -6" fill="none" stroke="black"/>
<path d="M55,225h -6" fill="none" stroke="black"/>
<path d="M55,219h -6" fill="none" stroke="black"/>
<path d="M62,214h -13" fill="none" stroke="black"/>
<path d="M55,208h -6" fill="none" stroke="black"/>
<path d="M55,203h -6" fill="none" stroke="black"/>
<path d="M55,197h -6" fill="none" stroke="black"/>
<path d="M55,192h -6" fill="none" stroke="black"/>
<path d="M62,186h -13" fill="none" stroke="black"/>
<path d="M55,181h -6" fill="none" stroke="black"/>
<path d="M55,175h -6" fill="none" stroke="black"/>
<path d="M55,170h -6" fill="none" stroke="black"/>
<path d="M55,164h -6" fill="none" stroke="black"/>
<path d="M62,159h -13" fill="none" stroke="black"/>
<path d="M55,153h -6" fill="none" stroke="black"/>
<path d="M55,148h -6" fill="none" stroke="black"/>
<path d="M55,142h -6" fill="none" stroke="black"/>
<path d="M55,137h -6" fill="none" stroke="black"/>
<path d="M62,131h -13" fill="none" stroke="black"/>
<path d="M55,126h -6" fill="none" stroke="black"/>
<path d="M55,120h -6" fill="none" stroke="black"/>
<path d="M55,115h -6" fill="none" stroke="black"/>
<path d="M55,109h -6" fill="none" stroke="black"/>
<path d="M62,104h -13" fill="none" stroke="black"/>
<path d="M55,98h -6" fill="none" stroke="black"/>
<path d="M55,93h -6" fill="none" stroke="black"/>
<path d="M55,87h -6" fill="none" stroke="black"/>
<path d="M55,81h -6" fill="none" stroke="black"/>
<path d="M62,76h -13" fill="none" stroke="black"/>
<path d="M55,70h -6" fill="none" stroke="black"/>
<path d="M55,65h -6" fill="none" stroke="black"/>
<path d="M55,59h -6" fill="none" stroke="black"/>
<path d="M55,54h -6" fill="none" stroke="black"/>
<path d="M62,48h -13" fill="none" stroke="black"/>
<path d="M62,269h -13" fill="none" stroke="black"/>
<path d="M55,275h -6" fill="none" stroke="black"/>
<path d="M55,280h -6" fill="none" stroke="black"/>
<path d="M62,48h -13" fill="none" stroke="black"/>
<path d="M55,43h -6" fill="none" stroke="black"/>
<path d="M55,37h -6" fill="none" stroke="black"/>
<text x="28" y="273" fill="black" font-size="11" font-family="Helvetica">
525
</text>
<text x="28" y="245" fill="black" font-size="11" font-family="Helvetica">
530
</text>
<text x="28" y="218" fill="black" font-size="11" font-family="Helvetica">
535
</text>
<text x="28" y="190" fill="black" font-size="11" font-family="Helvetica">
540
</text>
<text x="28" y="163" fill="black" font-size="11" font-family="Helvetica">
545
</text>
<text x="28" y="135" fill="black" font-size="11" font-family="Helvetica">
550
</text>
<text x="28" y="107" fill="black" font-size="11" font-family="Helvetica">
555
</text>
<text x="28" y="80" fill="black" font-size="11" font-family="Helvetica">
560
</text>
<text x="28" y="52" fill="black" font-size="11" font-family="Helvetica">
565
</text>
<text x="66" y="26" fill="black" font-size="7" font-family="Helvetica">
3
</text>
<text x="55" y="31" fill="black" font-size="11" font-family="Helvetica">
10
</text>
<text x="49" y="31" fill="black" font-size="11" font-family="Times">
&#0215;
</text>
<text x="130" y="16" fill="black" font-size="16" font-family="Helvetica">
Muon count for different fit settings, file: 448
</text></svg>
