<?xml version="1.0" standalone="no"?>
<svg width="567" height="328" viewBox="0 0 567 328" xmlns="http://www.w3.org/2000/svg">
<title>
/Users/samcook/code/MuSIC/offline_analysis_music5/MuSIC5_offline_analysis/MuSIC5_offline_analysis/scripts/images/low_freq_noise.svg
</title>
<desc>
Creator: ROOT Version 5.32/00
CreationDate: Wed Dec  5 22:49:32 2012</desc>
<defs>
</defs>
<rect x="0" y="0" width="567" height="328" fill="white"/>
<rect x="57" y="33" width="453" height="262" fill="white"/>
<rect x="57" y="33" width="453" height="262" fill="none" stroke="black"/>
<rect x="57" y="33" width="453" height="262" fill="white"/>
<rect x="57" y="33" width="453" height="262" fill="none" stroke="black"/>
<path d="M68,146v -28" fill="none" stroke="#000099"/>
<path d="M68,118v -29" fill="none" stroke="#000099"/>
<path d="M57,118h 11" fill="none" stroke="#000099"/>
<path d="M68,118h 11" fill="none" stroke="#000099"/>
<g stroke="black" stroke-width="1" fill="none">
<line x1="67" y1="118" x2="68" y2="118"/>
</g>
<path d="M91,203v -28" fill="none" stroke="#000099"/>
<path d="M91,175v -28" fill="none" stroke="#000099"/>
<path d="M79,175h 12" fill="none" stroke="#000099"/>
<path d="M91,175h 11" fill="none" stroke="#000099"/>
<g stroke="black" stroke-width="1" fill="none">
<line x1="90" y1="175" x2="91" y2="175"/>
</g>
<path d="M113,255v -28" fill="none" stroke="#000099"/>
<path d="M113,227v -27" fill="none" stroke="#000099"/>
<path d="M102,227h 11" fill="none" stroke="#000099"/>
<path d="M113,227h 12" fill="none" stroke="#000099"/>
<g stroke="black" stroke-width="1" fill="none">
<line x1="112" y1="227" x2="113" y2="227"/>
</g>
<path d="M136,261v -28" fill="none" stroke="#000099"/>
<path d="M136,233v -28" fill="none" stroke="#000099"/>
<path d="M125,233h 11" fill="none" stroke="#000099"/>
<path d="M136,233h 11" fill="none" stroke="#000099"/>
<g stroke="black" stroke-width="1" fill="none">
<line x1="135" y1="233" x2="136" y2="233"/>
</g>
<path d="M159,168v -28" fill="none" stroke="#000099"/>
<path d="M159,140v -28" fill="none" stroke="#000099"/>
<path d="M147,140h 12" fill="none" stroke="#000099"/>
<path d="M159,140h 11" fill="none" stroke="#000099"/>
<g stroke="black" stroke-width="1" fill="none">
<line x1="158" y1="140" x2="159" y2="140"/>
</g>
<path d="M181,199v -28" fill="none" stroke="#000099"/>
<path d="M181,171v -27" fill="none" stroke="#000099"/>
<path d="M170,171h 11" fill="none" stroke="#000099"/>
<path d="M181,171h 12" fill="none" stroke="#000099"/>
<g stroke="black" stroke-width="1" fill="none">
<line x1="180" y1="171" x2="181" y2="171"/>
</g>
<path d="M204,213v -28" fill="none" stroke="#000099"/>
<path d="M204,185v -28" fill="none" stroke="#000099"/>
<path d="M193,185h 11" fill="none" stroke="#000099"/>
<path d="M204,185h 11" fill="none" stroke="#000099"/>
<g stroke="black" stroke-width="1" fill="none">
<line x1="203" y1="185" x2="204" y2="185"/>
</g>
<path d="M227,283v -27" fill="none" stroke="#000099"/>
<path d="M227,256v -28" fill="none" stroke="#000099"/>
<path d="M215,256h 12" fill="none" stroke="#000099"/>
<path d="M227,256h 11" fill="none" stroke="#000099"/>
<g stroke="black" stroke-width="1" fill="none">
<line x1="226" y1="256" x2="227" y2="256"/>
</g>
<path d="M249,236v -27" fill="none" stroke="#000099"/>
<path d="M249,209v -28" fill="none" stroke="#000099"/>
<path d="M238,209h 11" fill="none" stroke="#000099"/>
<path d="M249,209h 12" fill="none" stroke="#000099"/>
<g stroke="black" stroke-width="1" fill="none">
<line x1="248" y1="209" x2="249" y2="209"/>
</g>
<path d="M272,209v -28" fill="none" stroke="#000099"/>
<path d="M272,181v -28" fill="none" stroke="#000099"/>
<path d="M261,181h 11" fill="none" stroke="#000099"/>
<path d="M272,181h 11" fill="none" stroke="#000099"/>
<g stroke="black" stroke-width="1" fill="none">
<line x1="271" y1="181" x2="272" y2="181"/>
</g>
<path d="M295,191v -28" fill="none" stroke="#000099"/>
<path d="M295,163v -28" fill="none" stroke="#000099"/>
<path d="M283,163h 12" fill="none" stroke="#000099"/>
<path d="M295,163h 11" fill="none" stroke="#000099"/>
<g stroke="black" stroke-width="1" fill="none">
<line x1="294" y1="163" x2="295" y2="163"/>
</g>
<path d="M317,220v -28" fill="none" stroke="#000099"/>
<path d="M317,192v -27" fill="none" stroke="#000099"/>
<path d="M306,192h 11" fill="none" stroke="#000099"/>
<path d="M317,192h 12" fill="none" stroke="#000099"/>
<g stroke="black" stroke-width="1" fill="none">
<line x1="316" y1="192" x2="317" y2="192"/>
</g>
<path d="M340,174v -28" fill="none" stroke="#000099"/>
<path d="M340,146v -28" fill="none" stroke="#000099"/>
<path d="M329,146h 11" fill="none" stroke="#000099"/>
<path d="M340,146h 11" fill="none" stroke="#000099"/>
<g stroke="black" stroke-width="1" fill="none">
<line x1="339" y1="146" x2="340" y2="146"/>
</g>
<path d="M363,166v -28" fill="none" stroke="#000099"/>
<path d="M363,138v -28" fill="none" stroke="#000099"/>
<path d="M351,138h 12" fill="none" stroke="#000099"/>
<path d="M363,138h 11" fill="none" stroke="#000099"/>
<g stroke="black" stroke-width="1" fill="none">
<line x1="362" y1="138" x2="363" y2="138"/>
</g>
<path d="M386,102v -28" fill="none" stroke="#000099"/>
<path d="M386,74v -29" fill="none" stroke="#000099"/>
<path d="M374,74h 12" fill="none" stroke="#000099"/>
<path d="M386,74h 11" fill="none" stroke="#000099"/>
<g stroke="black" stroke-width="1" fill="none">
<line x1="385" y1="74" x2="386" y2="74"/>
</g>
<path d="M408,208v -28" fill="none" stroke="#000099"/>
<path d="M408,180v -28" fill="none" stroke="#000099"/>
<path d="M397,180h 11" fill="none" stroke="#000099"/>
<path d="M408,180h 12" fill="none" stroke="#000099"/>
<g stroke="black" stroke-width="1" fill="none">
<line x1="407" y1="180" x2="408" y2="180"/>
</g>
<path d="M431,224v -28" fill="none" stroke="#000099"/>
<path d="M431,196v -28" fill="none" stroke="#000099"/>
<path d="M420,196h 11" fill="none" stroke="#000099"/>
<path d="M431,196h 11" fill="none" stroke="#000099"/>
<g stroke="black" stroke-width="1" fill="none">
<line x1="430" y1="196" x2="431" y2="196"/>
</g>
<path d="M454,248v -28" fill="none" stroke="#000099"/>
<path d="M454,220v -28" fill="none" stroke="#000099"/>
<path d="M442,220h 12" fill="none" stroke="#000099"/>
<path d="M454,220h 11" fill="none" stroke="#000099"/>
<g stroke="black" stroke-width="1" fill="none">
<line x1="453" y1="220" x2="454" y2="220"/>
</g>
<path d="M476,202v -28" fill="none" stroke="#000099"/>
<path d="M476,174v -28" fill="none" stroke="#000099"/>
<path d="M465,174h 11" fill="none" stroke="#000099"/>
<path d="M476,174h 12" fill="none" stroke="#000099"/>
<g stroke="black" stroke-width="1" fill="none">
<line x1="475" y1="174" x2="476" y2="174"/>
</g>
<path d="M499,195v -28" fill="none" stroke="#000099"/>
<path d="M499,167v -28" fill="none" stroke="#000099"/>
<path d="M488,167h 11" fill="none" stroke="#000099"/>
<path d="M499,167h 11" fill="none" stroke="#000099"/>
<g stroke="black" stroke-width="1" fill="none">
<line x1="498" y1="167" x2="499" y2="167"/>
</g>
<rect x="442" y="22" width="114" height="78" fill="white"/>
<path d="M442,100h 114" fill="none" stroke="black"/>
<path d="M556,100v -78" fill="none" stroke="black"/>
<path d="M556,22h -114" fill="none" stroke="black"/>
<path d="M442,22v 78" fill="none" stroke="black"/>
<text x="449" y="35" fill="black" font-size="15" font-family="Helvetica">
file_448_ch_D1
</text>
<path d="M442,41h 114" fill="none" stroke="black"/>
<text x="448" y="56" fill="black" font-size="13" font-family="Helvetica">
Entries 
</text>
<text x="496" y="56" fill="black" font-size="13" font-family="Helvetica">
 1535863
</text>
<text x="448" y="75" fill="black" font-size="13" font-family="Helvetica">
Mean  
</text>
<text x="492" y="75" fill="black" font-size="13" font-family="Helvetica">
 1.75e+04
</text>
<text x="448" y="95" fill="black" font-size="13" font-family="Helvetica">
RMS   
</text>
<text x="510" y="95" fill="black" font-size="13" font-family="Helvetica">
   1442
</text>
<path d="M57,295h 453" fill="none" stroke="black"/>
<text x="465" y="317" fill="black" font-size="11" font-family="Helvetica">
Time (ns)
</text>
<path d="M57,287v 8" fill="none" stroke="black"/>
<path d="M66,291v 4" fill="none" stroke="black"/>
<path d="M75,291v 4" fill="none" stroke="black"/>
<path d="M84,291v 4" fill="none" stroke="black"/>
<path d="M93,291v 4" fill="none" stroke="black"/>
<path d="M102,287v 8" fill="none" stroke="black"/>
<path d="M111,291v 4" fill="none" stroke="black"/>
<path d="M120,291v 4" fill="none" stroke="black"/>
<path d="M129,291v 4" fill="none" stroke="black"/>
<path d="M138,291v 4" fill="none" stroke="black"/>
<path d="M147,287v 8" fill="none" stroke="black"/>
<path d="M156,291v 4" fill="none" stroke="black"/>
<path d="M166,291v 4" fill="none" stroke="black"/>
<path d="M175,291v 4" fill="none" stroke="black"/>
<path d="M184,291v 4" fill="none" stroke="black"/>
<path d="M193,287v 8" fill="none" stroke="black"/>
<path d="M202,291v 4" fill="none" stroke="black"/>
<path d="M211,291v 4" fill="none" stroke="black"/>
<path d="M220,291v 4" fill="none" stroke="black"/>
<path d="M229,291v 4" fill="none" stroke="black"/>
<path d="M238,287v 8" fill="none" stroke="black"/>
<path d="M247,291v 4" fill="none" stroke="black"/>
<path d="M256,291v 4" fill="none" stroke="black"/>
<path d="M265,291v 4" fill="none" stroke="black"/>
<path d="M274,291v 4" fill="none" stroke="black"/>
<path d="M283,287v 8" fill="none" stroke="black"/>
<path d="M293,291v 4" fill="none" stroke="black"/>
<path d="M302,291v 4" fill="none" stroke="black"/>
<path d="M311,291v 4" fill="none" stroke="black"/>
<path d="M320,291v 4" fill="none" stroke="black"/>
<path d="M329,287v 8" fill="none" stroke="black"/>
<path d="M338,291v 4" fill="none" stroke="black"/>
<path d="M347,291v 4" fill="none" stroke="black"/>
<path d="M356,291v 4" fill="none" stroke="black"/>
<path d="M365,291v 4" fill="none" stroke="black"/>
<path d="M374,287v 8" fill="none" stroke="black"/>
<path d="M383,291v 4" fill="none" stroke="black"/>
<path d="M392,291v 4" fill="none" stroke="black"/>
<path d="M401,291v 4" fill="none" stroke="black"/>
<path d="M410,291v 4" fill="none" stroke="black"/>
<path d="M420,287v 8" fill="none" stroke="black"/>
<path d="M429,291v 4" fill="none" stroke="black"/>
<path d="M438,291v 4" fill="none" stroke="black"/>
<path d="M447,291v 4" fill="none" stroke="black"/>
<path d="M456,291v 4" fill="none" stroke="black"/>
<path d="M465,287v 8" fill="none" stroke="black"/>
<path d="M474,291v 4" fill="none" stroke="black"/>
<path d="M483,291v 4" fill="none" stroke="black"/>
<path d="M492,291v 4" fill="none" stroke="black"/>
<path d="M501,291v 4" fill="none" stroke="black"/>
<path d="M510,287v 8" fill="none" stroke="black"/>
<text x="42" y="306" fill="black" font-size="11" font-family="Helvetica">
15000
</text>
<text x="87" y="306" fill="black" font-size="11" font-family="Helvetica">
15500
</text>
<text x="133" y="306" fill="black" font-size="11" font-family="Helvetica">
16000
</text>
<text x="178" y="306" fill="black" font-size="11" font-family="Helvetica">
16500
</text>
<text x="223" y="306" fill="black" font-size="11" font-family="Helvetica">
17000
</text>
<text x="269" y="306" fill="black" font-size="11" font-family="Helvetica">
17500
</text>
<text x="314" y="306" fill="black" font-size="11" font-family="Helvetica">
18000
</text>
<text x="359" y="306" fill="black" font-size="11" font-family="Helvetica">
18500
</text>
<text x="405" y="306" fill="black" font-size="11" font-family="Helvetica">
19000
</text>
<text x="450" y="306" fill="black" font-size="11" font-family="Helvetica">
19500
</text>
<text x="495" y="306" fill="black" font-size="11" font-family="Helvetica">
20000
</text>
<path d="M57,295v -262" fill="none" stroke="black"/>
<g transform="rotate(-90,29,61)">
<text x="29" y="61" fill="black" font-size="11" font-family="Helvetica">
Count
</text>
</g>
<path d="M70,273h -13" fill="none" stroke="black"/>
<path d="M63,268h -6" fill="none" stroke="black"/>
<path d="M63,262h -6" fill="none" stroke="black"/>
<path d="M63,256h -6" fill="none" stroke="black"/>
<path d="M63,250h -6" fill="none" stroke="black"/>
<path d="M70,244h -13" fill="none" stroke="black"/>
<path d="M63,238h -6" fill="none" stroke="black"/>
<path d="M63,232h -6" fill="none" stroke="black"/>
<path d="M63,226h -6" fill="none" stroke="black"/>
<path d="M63,221h -6" fill="none" stroke="black"/>
<path d="M70,215h -13" fill="none" stroke="black"/>
<path d="M63,209h -6" fill="none" stroke="black"/>
<path d="M63,203h -6" fill="none" stroke="black"/>
<path d="M63,197h -6" fill="none" stroke="black"/>
<path d="M63,191h -6" fill="none" stroke="black"/>
<path d="M70,185h -13" fill="none" stroke="black"/>
<path d="M63,179h -6" fill="none" stroke="black"/>
<path d="M63,174h -6" fill="none" stroke="black"/>
<path d="M63,168h -6" fill="none" stroke="black"/>
<path d="M63,162h -6" fill="none" stroke="black"/>
<path d="M70,156h -13" fill="none" stroke="black"/>
<path d="M63,150h -6" fill="none" stroke="black"/>
<path d="M63,144h -6" fill="none" stroke="black"/>
<path d="M63,138h -6" fill="none" stroke="black"/>
<path d="M63,132h -6" fill="none" stroke="black"/>
<path d="M70,127h -13" fill="none" stroke="black"/>
<path d="M63,121h -6" fill="none" stroke="black"/>
<path d="M63,115h -6" fill="none" stroke="black"/>
<path d="M63,109h -6" fill="none" stroke="black"/>
<path d="M63,103h -6" fill="none" stroke="black"/>
<path d="M70,97h -13" fill="none" stroke="black"/>
<path d="M63,91h -6" fill="none" stroke="black"/>
<path d="M63,85h -6" fill="none" stroke="black"/>
<path d="M63,80h -6" fill="none" stroke="black"/>
<path d="M63,74h -6" fill="none" stroke="black"/>
<path d="M70,68h -13" fill="none" stroke="black"/>
<path d="M63,62h -6" fill="none" stroke="black"/>
<path d="M63,56h -6" fill="none" stroke="black"/>
<path d="M63,50h -6" fill="none" stroke="black"/>
<path d="M63,44h -6" fill="none" stroke="black"/>
<path d="M70,38h -13" fill="none" stroke="black"/>
<path d="M70,273h -13" fill="none" stroke="black"/>
<path d="M63,279h -6" fill="none" stroke="black"/>
<path d="M63,285h -6" fill="none" stroke="black"/>
<path d="M63,291h -6" fill="none" stroke="black"/>
<path d="M70,38h -13" fill="none" stroke="black"/>
<text x="30" y="277" fill="black" font-size="11" font-family="Helvetica">
8700
</text>
<text x="30" y="248" fill="black" font-size="11" font-family="Helvetica">
8800
</text>
<text x="30" y="218" fill="black" font-size="11" font-family="Helvetica">
8900
</text>
<text x="30" y="189" fill="black" font-size="11" font-family="Helvetica">
9000
</text>
<text x="30" y="160" fill="black" font-size="11" font-family="Helvetica">
9100
</text>
<text x="30" y="130" fill="black" font-size="11" font-family="Helvetica">
9200
</text>
<text x="30" y="101" fill="black" font-size="11" font-family="Helvetica">
9300
</text>
<text x="30" y="71" fill="black" font-size="11" font-family="Helvetica">
9400
</text>
<text x="30" y="42" fill="black" font-size="11" font-family="Helvetica">
9500
</text>
<rect x="442" y="22" width="114" height="78" fill="white"/>
<path d="M442,100h 114" fill="none" stroke="black"/>
<path d="M556,100v -78" fill="none" stroke="black"/>
<path d="M556,22h -114" fill="none" stroke="black"/>
<path d="M442,22v 78" fill="none" stroke="black"/>
<text x="449" y="35" fill="black" font-size="15" font-family="Helvetica">
file_448_ch_D1
</text>
<path d="M442,41h 114" fill="none" stroke="black"/>
<text x="448" y="56" fill="black" font-size="13" font-family="Helvetica">
Entries 
</text>
<text x="496" y="56" fill="black" font-size="13" font-family="Helvetica">
 1535863
</text>
<text x="448" y="75" fill="black" font-size="13" font-family="Helvetica">
Mean  
</text>
<text x="492" y="75" fill="black" font-size="13" font-family="Helvetica">
 1.75e+04
</text>
<text x="448" y="95" fill="black" font-size="13" font-family="Helvetica">
RMS   
</text>
<text x="510" y="95" fill="black" font-size="13" font-family="Helvetica">
   1442
</text>
<text x="231" y="16" fill="black" font-size="15" font-family="Helvetica">
file_448_ch_D1
</text></svg>
