<?xml version="1.0" standalone="no"?>
<svg width="567" height="328" viewBox="0 0 567 328" xmlns="http://www.w3.org/2000/svg">
<title>
images/muon_yields.svg
</title>
<desc>
Creator: ROOT Version 5.32/00
CreationDate: Sun Dec  9 17:27:12 2012</desc>
<defs>
</defs>
<rect x="0" y="0" width="567" height="328" fill="white"/>
<rect x="57" y="33" width="453" height="262" fill="white"/>
<rect x="57" y="33" width="453" height="262" fill="none" stroke="black"/>
<path d="M79,56v -5" fill="none" stroke="#000099"/>
<path d="M79,51v -6" fill="none" stroke="#000099"/>
<path d="M57,51h 22" fill="none" stroke="#000099"/>
<path d="M79,51h 23" fill="none" stroke="#000099"/>
<g stroke="black" stroke-width="1" fill="none">
<line x1="78" y1="51" x2="79" y2="51"/>
</g>
<path d="M125,281" fill="none" stroke="#000099"/>
<path d="M125,281" fill="none" stroke="#000099"/>
<path d="M102,281h 23" fill="none" stroke="#000099"/>
<path d="M125,281h 22" fill="none" stroke="#000099"/>
<g stroke="black" stroke-width="1" fill="none">
<line x1="124" y1="281" x2="125" y2="281"/>
</g>
<path d="M170,283" fill="none" stroke="#000099"/>
<path d="M170,283" fill="none" stroke="#000099"/>
<path d="M147,283h 23" fill="none" stroke="#000099"/>
<path d="M170,283h 23" fill="none" stroke="#000099"/>
<g stroke="black" stroke-width="1" fill="none">
<line x1="169" y1="283" x2="170" y2="283"/>
</g>
<path d="M215,282" fill="none" stroke="#000099"/>
<path d="M215,282" fill="none" stroke="#000099"/>
<path d="M193,282h 22" fill="none" stroke="#000099"/>
<path d="M215,282h 23" fill="none" stroke="#000099"/>
<g stroke="black" stroke-width="1" fill="none">
<line x1="214" y1="282" x2="215" y2="282"/>
</g>
<path d="M261,68v -6" fill="none" stroke="#000099"/>
<path d="M261,62v -5" fill="none" stroke="#000099"/>
<path d="M238,62h 23" fill="none" stroke="#000099"/>
<path d="M261,62h 22" fill="none" stroke="#000099"/>
<g stroke="black" stroke-width="1" fill="none">
<line x1="260" y1="62" x2="261" y2="62"/>
</g>
<path d="M306,72v -5" fill="none" stroke="#000099"/>
<path d="M306,67v -6" fill="none" stroke="#000099"/>
<path d="M283,67h 23" fill="none" stroke="#000099"/>
<path d="M306,67h 23" fill="none" stroke="#000099"/>
<g stroke="black" stroke-width="1" fill="none">
<line x1="305" y1="67" x2="306" y2="67"/>
</g>
<path d="M351,281" fill="none" stroke="#000099"/>
<path d="M351,281" fill="none" stroke="#000099"/>
<path d="M329,281h 22" fill="none" stroke="#000099"/>
<path d="M351,281h 23" fill="none" stroke="#000099"/>
<g stroke="black" stroke-width="1" fill="none">
<line x1="350" y1="281" x2="351" y2="281"/>
</g>
<path d="M397,94v -6" fill="none" stroke="#000099"/>
<path d="M397,88v -7" fill="none" stroke="#000099"/>
<path d="M374,88h 23" fill="none" stroke="#000099"/>
<path d="M397,88h 23" fill="none" stroke="#000099"/>
<g stroke="black" stroke-width="1" fill="none">
<line x1="396" y1="88" x2="397" y2="88"/>
</g>
<path d="M442,279" fill="none" stroke="#000099"/>
<path d="M442,279" fill="none" stroke="#000099"/>
<path d="M420,279h 22" fill="none" stroke="#000099"/>
<path d="M442,279h 23" fill="none" stroke="#000099"/>
<g stroke="black" stroke-width="1" fill="none">
<line x1="441" y1="279" x2="442" y2="279"/>
</g>
<path d="M488,278" fill="none" stroke="#000099"/>
<path d="M488,278" fill="none" stroke="#000099"/>
<path d="M465,278h 23" fill="none" stroke="#000099"/>
<path d="M488,278h 22" fill="none" stroke="#000099"/>
<g stroke="black" stroke-width="1" fill="none">
<line x1="487" y1="278" x2="488" y2="278"/>
</g>
<path d="M57,295h 453" fill="none" stroke="black"/>
<text x="390" y="317" fill="black" font-size="11" font-family="Helvetica">
Degrader thickness (mm)
</text>
<text x="74" y="304" fill="black" font-size="7" font-family="Helvetica">
0.0
</text>
<text x="123" y="304" fill="black" font-size="7" font-family="Helvetica">
0
</text>
<text x="165" y="304" fill="black" font-size="7" font-family="Helvetica">
0.5
</text>
<text x="210" y="304" fill="black" font-size="7" font-family="Helvetica">
0.5
</text>
<text x="255" y="304" fill="black" font-size="7" font-family="Helvetica">
0.5
</text>
<text x="301" y="304" fill="black" font-size="7" font-family="Helvetica">
1.0
</text>
<text x="350" y="304" fill="black" font-size="7" font-family="Helvetica">
1
</text>
<text x="392" y="304" fill="black" font-size="7" font-family="Helvetica">
5.0
</text>
<text x="440" y="304" fill="black" font-size="7" font-family="Helvetica">
5
</text>
<text x="485" y="304" fill="black" font-size="7" font-family="Helvetica">
5
</text>
<path d="M57,287v 8" fill="none" stroke="black"/>
<path d="M102,287v 8" fill="none" stroke="black"/>
<path d="M147,287v 8" fill="none" stroke="black"/>
<path d="M193,287v 8" fill="none" stroke="black"/>
<path d="M238,287v 8" fill="none" stroke="black"/>
<path d="M283,287v 8" fill="none" stroke="black"/>
<path d="M329,287v 8" fill="none" stroke="black"/>
<path d="M374,287v 8" fill="none" stroke="black"/>
<path d="M420,287v 8" fill="none" stroke="black"/>
<path d="M465,287v 8" fill="none" stroke="black"/>
<path d="M510,287v 8" fill="none" stroke="black"/>
<path d="M57,295v -262" fill="none" stroke="black"/>
<g transform="rotate(-90,28,136)">
<text x="28" y="136" fill="black" font-size="11" font-family="Helvetica">
Muon Yield (muons/s)
</text>
</g>
<path d="M70,255h -13" fill="none" stroke="black"/>
<path d="M63,244h -6" fill="none" stroke="black"/>
<path d="M63,232h -6" fill="none" stroke="black"/>
<path d="M63,221h -6" fill="none" stroke="black"/>
<path d="M70,209h -13" fill="none" stroke="black"/>
<path d="M63,198h -6" fill="none" stroke="black"/>
<path d="M63,186h -6" fill="none" stroke="black"/>
<path d="M63,174h -6" fill="none" stroke="black"/>
<path d="M70,163h -13" fill="none" stroke="black"/>
<path d="M63,151h -6" fill="none" stroke="black"/>
<path d="M63,140h -6" fill="none" stroke="black"/>
<path d="M63,128h -6" fill="none" stroke="black"/>
<path d="M70,117h -13" fill="none" stroke="black"/>
<path d="M63,105h -6" fill="none" stroke="black"/>
<path d="M63,94h -6" fill="none" stroke="black"/>
<path d="M63,82h -6" fill="none" stroke="black"/>
<path d="M70,71h -13" fill="none" stroke="black"/>
<path d="M70,255h -13" fill="none" stroke="black"/>
<path d="M63,267h -6" fill="none" stroke="black"/>
<path d="M63,278h -6" fill="none" stroke="black"/>
<path d="M63,290h -6" fill="none" stroke="black"/>
<path d="M70,71h -13" fill="none" stroke="black"/>
<path d="M63,59h -6" fill="none" stroke="black"/>
<path d="M63,48h -6" fill="none" stroke="black"/>
<path d="M63,36h -6" fill="none" stroke="black"/>
<text x="36" y="259" fill="black" font-size="11" font-family="Helvetica">
200
</text>
<text x="36" y="213" fill="black" font-size="11" font-family="Helvetica">
400
</text>
<text x="36" y="167" fill="black" font-size="11" font-family="Helvetica">
600
</text>
<text x="36" y="121" fill="black" font-size="11" font-family="Helvetica">
800
</text>
<text x="30" y="75" fill="black" font-size="11" font-family="Helvetica">
1000
</text>
<text x="74" y="26" fill="black" font-size="7" font-family="Helvetica">
6
</text>
<text x="63" y="31" fill="black" font-size="11" font-family="Helvetica">
10
</text>
<text x="57" y="31" fill="black" font-size="11" font-family="Times">
&#0215;
</text>
<text x="303" y="16" fill="black" font-size="14" font-family="Helvetica">
 A proton beam at MuSIC
</text>
<text x="295" y="16" fill="black" font-size="14" font-family="Times">
&#0956;
</text>
<text x="101" y="16" fill="black" font-size="14" font-family="Helvetica">
Calculated muon yields for a 1
</text>
<rect x="442" y="22" width="114" height="52" fill="white"/>
<path d="M442,74h 114" fill="none" stroke="black"/>
<path d="M556,74v -52" fill="none" stroke="black"/>
<path d="M556,22h -114" fill="none" stroke="black"/>
<path d="M442,22v 52" fill="none" stroke="black"/>
<text x="447" y="29" fill="black" font-size="5" font-family="Helvetica">
muon_yields+settings_lo_100_hi_20000_bins_50
</text>
<path d="M442,35h 114" fill="none" stroke="black"/>
<text x="448" y="45" fill="black" font-size="11" font-family="Helvetica">
Entries 
</text>
<text x="535" y="45" fill="black" font-size="11" font-family="Helvetica">
 10
</text>
<text x="448" y="58" fill="black" font-size="11" font-family="Helvetica">
Mean  
</text>
<text x="516" y="58" fill="black" font-size="11" font-family="Helvetica">
  4.502
</text>
<text x="448" y="71" fill="black" font-size="11" font-family="Helvetica">
RMS   
</text>
<text x="516" y="71" fill="black" font-size="11" font-family="Helvetica">
  2.652
</text>
<text x="303" y="16" fill="black" font-size="14" font-family="Helvetica">
 A proton beam at MuSIC
</text>
<text x="295" y="16" fill="black" font-size="14" font-family="Times">
&#0956;
</text>
<text x="101" y="16" fill="black" font-size="14" font-family="Helvetica">
Calculated muon yields for a 1
</text></svg>
