<?xml version="1.0" standalone="no"?>
<svg width="567" height="385" viewBox="0 0 567 385" xmlns="http://www.w3.org/2000/svg">
<title>
images/analysis_g4bl_phase_tight/zoom/452_D1.svg
</title>
<desc>
Creator: ROOT Version 5.34/05
CreationDate: Mon Jun 17 13:31:55 2013</desc>
<defs>
</defs>
<rect x="0" y="0" width="567" height="385" fill="white"/>
<rect x="57" y="38" width="453" height="308" fill="white"/>
<rect x="57" y="38" width="453" height="308" fill="none" stroke="black"/>
<rect x="57" y="38" width="453" height="308" fill="white"/>
<rect x="57" y="38" width="453" height="308" fill="none" stroke="black"/>
<path d="M57,311h 17v 6h 18v -14h 17v -3h 17v 7h 18v 6h 17v -10h 18v 1h 17v -1h 35v -20h 18v 7h 17v -237h 17v 293h 18v -1h 17v -241h 18v 65h 17v -2h 18v 28h 17v 24h 18v -15h 17v -10h 17v 11h 18v 23h 17v -6h 18v -22h 17" fill="none" stroke="#000099"/>
<rect x="442" y="25" width="114" height="46" fill="white"/>
<path d="M442,71h 114" fill="none" stroke="black"/>
<path d="M556,71v -46" fill="none" stroke="black"/>
<path d="M556,25h -114" fill="none" stroke="black"/>
<path d="M442,25v 46" fill="none" stroke="black"/>
<text x="447" y="52" fill="black" font-size="14" font-family="Helvetica">
Entries 
</text>
<text x="497" y="52" fill="black" font-size="14" font-family="Helvetica">
 438950
</text>
<path d="M57,346h 453" fill="none" stroke="black"/>
<text x="419" y="372" fill="black" font-size="12" font-family="Helvetica">
TDC-TDC0 (ns)
</text>
<path d="M65,337v 9" fill="none" stroke="black"/>
<path d="M76,342v 4" fill="none" stroke="black"/>
<path d="M87,342v 4" fill="none" stroke="black"/>
<path d="M98,342v 4" fill="none" stroke="black"/>
<path d="M109,342v 4" fill="none" stroke="black"/>
<path d="M120,337v 9" fill="none" stroke="black"/>
<path d="M131,342v 4" fill="none" stroke="black"/>
<path d="M142,342v 4" fill="none" stroke="black"/>
<path d="M153,342v 4" fill="none" stroke="black"/>
<path d="M164,342v 4" fill="none" stroke="black"/>
<path d="M174,337v 9" fill="none" stroke="black"/>
<path d="M185,342v 4" fill="none" stroke="black"/>
<path d="M196,342v 4" fill="none" stroke="black"/>
<path d="M207,342v 4" fill="none" stroke="black"/>
<path d="M218,342v 4" fill="none" stroke="black"/>
<path d="M229,337v 9" fill="none" stroke="black"/>
<path d="M240,342v 4" fill="none" stroke="black"/>
<path d="M251,342v 4" fill="none" stroke="black"/>
<path d="M262,342v 4" fill="none" stroke="black"/>
<path d="M273,342v 4" fill="none" stroke="black"/>
<path d="M283,337v 9" fill="none" stroke="black"/>
<path d="M294,342v 4" fill="none" stroke="black"/>
<path d="M305,342v 4" fill="none" stroke="black"/>
<path d="M316,342v 4" fill="none" stroke="black"/>
<path d="M327,342v 4" fill="none" stroke="black"/>
<path d="M338,337v 9" fill="none" stroke="black"/>
<path d="M349,342v 4" fill="none" stroke="black"/>
<path d="M360,342v 4" fill="none" stroke="black"/>
<path d="M371,342v 4" fill="none" stroke="black"/>
<path d="M382,342v 4" fill="none" stroke="black"/>
<path d="M392,337v 9" fill="none" stroke="black"/>
<path d="M403,342v 4" fill="none" stroke="black"/>
<path d="M414,342v 4" fill="none" stroke="black"/>
<path d="M425,342v 4" fill="none" stroke="black"/>
<path d="M436,342v 4" fill="none" stroke="black"/>
<path d="M447,337v 9" fill="none" stroke="black"/>
<path d="M458,342v 4" fill="none" stroke="black"/>
<path d="M469,342v 4" fill="none" stroke="black"/>
<path d="M480,342v 4" fill="none" stroke="black"/>
<path d="M491,342v 4" fill="none" stroke="black"/>
<path d="M502,337v 9" fill="none" stroke="black"/>
<path d="M65,337v 9" fill="none" stroke="black"/>
<path d="M502,337v 9" fill="none" stroke="black"/>
<text x="52" y="359" fill="black" font-size="12" font-family="Helvetica">
-200
</text>
<text x="107" y="359" fill="black" font-size="12" font-family="Helvetica">
-150
</text>
<text x="161" y="359" fill="black" font-size="12" font-family="Helvetica">
-100
</text>
<text x="219" y="359" fill="black" font-size="12" font-family="Helvetica">
-50
</text>
<text x="280" y="359" fill="black" font-size="12" font-family="Helvetica">
0
</text>
<text x="330" y="359" fill="black" font-size="12" font-family="Helvetica">
50
</text>
<text x="381" y="359" fill="black" font-size="12" font-family="Helvetica">
100
</text>
<text x="436" y="359" fill="black" font-size="12" font-family="Helvetica">
150
</text>
<text x="490" y="359" fill="black" font-size="12" font-family="Helvetica">
200
</text>
<path d="M57,346v -308" fill="none" stroke="black"/>
<g transform="rotate(-90,29,72)">
<text x="29" y="72" fill="black" font-size="12" font-family="Helvetica">
Count
</text>
</g>
<path d="M70,346h -13" fill="none" stroke="black"/>
<path d="M63,336h -6" fill="none" stroke="black"/>
<path d="M63,325h -6" fill="none" stroke="black"/>
<path d="M63,314h -6" fill="none" stroke="black"/>
<path d="M70,303h -13" fill="none" stroke="black"/>
<path d="M63,292h -6" fill="none" stroke="black"/>
<path d="M63,281h -6" fill="none" stroke="black"/>
<path d="M63,270h -6" fill="none" stroke="black"/>
<path d="M70,260h -13" fill="none" stroke="black"/>
<path d="M63,249h -6" fill="none" stroke="black"/>
<path d="M63,238h -6" fill="none" stroke="black"/>
<path d="M63,227h -6" fill="none" stroke="black"/>
<path d="M70,216h -13" fill="none" stroke="black"/>
<path d="M63,205h -6" fill="none" stroke="black"/>
<path d="M63,194h -6" fill="none" stroke="black"/>
<path d="M63,184h -6" fill="none" stroke="black"/>
<path d="M70,173h -13" fill="none" stroke="black"/>
<path d="M63,162h -6" fill="none" stroke="black"/>
<path d="M63,151h -6" fill="none" stroke="black"/>
<path d="M63,140h -6" fill="none" stroke="black"/>
<path d="M70,129h -13" fill="none" stroke="black"/>
<path d="M63,118h -6" fill="none" stroke="black"/>
<path d="M63,107h -6" fill="none" stroke="black"/>
<path d="M63,97h -6" fill="none" stroke="black"/>
<path d="M70,86h -13" fill="none" stroke="black"/>
<path d="M63,75h -6" fill="none" stroke="black"/>
<path d="M63,64h -6" fill="none" stroke="black"/>
<path d="M63,53h -6" fill="none" stroke="black"/>
<path d="M70,42h -13" fill="none" stroke="black"/>
<path d="M70,42h -13" fill="none" stroke="black"/>
<text x="47" y="350" fill="black" font-size="12" font-family="Helvetica">
0
</text>
<text x="33" y="307" fill="black" font-size="12" font-family="Helvetica">
200
</text>
<text x="33" y="263" fill="black" font-size="12" font-family="Helvetica">
400
</text>
<text x="33" y="220" fill="black" font-size="12" font-family="Helvetica">
600
</text>
<text x="33" y="176" fill="black" font-size="12" font-family="Helvetica">
800
</text>
<text x="25" y="132" fill="black" font-size="12" font-family="Helvetica">
1000
</text>
<text x="25" y="89" fill="black" font-size="12" font-family="Helvetica">
1200
</text>
<text x="25" y="46" fill="black" font-size="12" font-family="Helvetica">
1400
</text>
<rect x="442" y="25" width="114" height="46" fill="white"/>
<path d="M442,71h 114" fill="none" stroke="black"/>
<path d="M556,71v -46" fill="none" stroke="black"/>
<path d="M556,25h -114" fill="none" stroke="black"/>
<path d="M442,25v 46" fill="none" stroke="black"/>
<text x="447" y="52" fill="black" font-size="14" font-family="Helvetica">
Entries 
</text>
<text x="497" y="52" fill="black" font-size="14" font-family="Helvetica">
 438950
</text>
<text x="270" y="21" fill="black" font-size="21" font-family="Helvetica">
D1
</text></svg>
