<?xml version="1.0" standalone="no"?>
<svg width="567" height="328" viewBox="0 0 567 328" xmlns="http://www.w3.org/2000/svg">
<title>
images/analysis_phase_exec_d4_d5_tight/counts/sim_muon_rate_in_f.svg
</title>
<desc>
Creator: ROOT Version 5.34/09
CreationDate: Wed Sep  4 18:04:11 2013</desc>
<defs>
</defs>
<rect x="0" y="0" width="567" height="328" fill="white"/>
<rect x="57" y="33" width="453" height="262" fill="white"/>
<rect x="57" y="33" width="453" height="262" fill="none" stroke="black"/>
<path d="M113,70v -4" fill="none" stroke="#000099"/>
<path d="M113,66v -4" fill="none" stroke="#000099"/>
<path d="M57,66h 56" fill="none" stroke="#000099"/>
<path d="M113,66h 57" fill="none" stroke="#000099"/>
<g stroke="black" stroke-width="1" fill="none">
<line x1="112" y1="66" x2="113" y2="66"/>
</g>
<path d="M227,53v -4" fill="none" stroke="#000099"/>
<path d="M227,49v -4" fill="none" stroke="#000099"/>
<path d="M170,49h 57" fill="none" stroke="#000099"/>
<path d="M227,49h 56" fill="none" stroke="#000099"/>
<g stroke="black" stroke-width="1" fill="none">
<line x1="226" y1="49" x2="227" y2="49"/>
</g>
<path d="M340,63v -4" fill="none" stroke="#000099"/>
<path d="M340,59v -4" fill="none" stroke="#000099"/>
<path d="M283,59h 57" fill="none" stroke="#000099"/>
<path d="M340,59h 57" fill="none" stroke="#000099"/>
<g stroke="black" stroke-width="1" fill="none">
<line x1="339" y1="59" x2="340" y2="59"/>
</g>
<path d="M454,283v -3" fill="none" stroke="#000099"/>
<path d="M454,280v -2" fill="none" stroke="#000099"/>
<path d="M397,280h 57" fill="none" stroke="#000099"/>
<path d="M454,280h 56" fill="none" stroke="#000099"/>
<g stroke="black" stroke-width="1" fill="none">
<line x1="453" y1="280" x2="454" y2="280"/>
</g>
<path d="M57,295h 453" fill="none" stroke="black"/>
<text x="466" y="317" fill="black" font-size="11" font-family="Helvetica">
Degrader
</text>
<text x="111" y="304" fill="black" font-size="7" font-family="Helvetica">
0
</text>
<text x="221" y="304" fill="black" font-size="7" font-family="Helvetica">
0.5
</text>
<text x="338" y="304" fill="black" font-size="7" font-family="Helvetica">
1
</text>
<text x="451" y="304" fill="black" font-size="7" font-family="Helvetica">
5
</text>
<path d="M57,287v 8" fill="none" stroke="black"/>
<path d="M170,287v 8" fill="none" stroke="black"/>
<path d="M283,287v 8" fill="none" stroke="black"/>
<path d="M397,287v 8" fill="none" stroke="black"/>
<path d="M510,287v 8" fill="none" stroke="black"/>
<path d="M57,295v -262" fill="none" stroke="black"/>
<g transform="rotate(-90,29,88)">
<text x="29" y="88" fill="black" font-size="11" font-family="Helvetica">
Muon count
</text>
</g>
<path d="M70,276h -13" fill="none" stroke="black"/>
<path d="M63,265h -6" fill="none" stroke="black"/>
<path d="M63,253h -6" fill="none" stroke="black"/>
<path d="M63,242h -6" fill="none" stroke="black"/>
<path d="M70,231h -13" fill="none" stroke="black"/>
<path d="M63,219h -6" fill="none" stroke="black"/>
<path d="M63,208h -6" fill="none" stroke="black"/>
<path d="M63,197h -6" fill="none" stroke="black"/>
<path d="M70,185h -13" fill="none" stroke="black"/>
<path d="M63,174h -6" fill="none" stroke="black"/>
<path d="M63,163h -6" fill="none" stroke="black"/>
<path d="M63,151h -6" fill="none" stroke="black"/>
<path d="M70,140h -13" fill="none" stroke="black"/>
<path d="M63,128h -6" fill="none" stroke="black"/>
<path d="M63,117h -6" fill="none" stroke="black"/>
<path d="M63,106h -6" fill="none" stroke="black"/>
<path d="M70,94h -13" fill="none" stroke="black"/>
<path d="M63,83h -6" fill="none" stroke="black"/>
<path d="M63,72h -6" fill="none" stroke="black"/>
<path d="M63,60h -6" fill="none" stroke="black"/>
<path d="M70,49h -13" fill="none" stroke="black"/>
<path d="M70,276h -13" fill="none" stroke="black"/>
<path d="M63,288h -6" fill="none" stroke="black"/>
<path d="M70,49h -13" fill="none" stroke="black"/>
<path d="M63,38h -6" fill="none" stroke="black"/>
<text x="25" y="280" fill="black" font-size="11" font-family="Helvetica">
16000
</text>
<text x="25" y="235" fill="black" font-size="11" font-family="Helvetica">
18000
</text>
<text x="25" y="189" fill="black" font-size="11" font-family="Helvetica">
20000
</text>
<text x="25" y="144" fill="black" font-size="11" font-family="Helvetica">
22000
</text>
<text x="25" y="98" fill="black" font-size="11" font-family="Helvetica">
24000
</text>
<text x="25" y="53" fill="black" font-size="11" font-family="Helvetica">
26000
</text>
<text x="145" y="16" fill="black" font-size="16" font-family="Helvetica">
Simulated count of muons decaying in f
</text>
<rect x="442" y="22" width="114" height="39" fill="white"/>
<path d="M442,61h 114" fill="none" stroke="black"/>
<path d="M556,61v -39" fill="none" stroke="black"/>
<path d="M556,22h -114" fill="none" stroke="black"/>
<path d="M442,22v 39" fill="none" stroke="black"/>
<text x="448" y="47" fill="black" font-size="16" font-family="Helvetica">
Entries 
</text>
<text x="536" y="47" fill="black" font-size="16" font-family="Helvetica">
 4
</text>
<text x="145" y="16" fill="black" font-size="16" font-family="Helvetica">
Simulated count of muons decaying in f
</text></svg>
