<?xml version="1.0" standalone="no"?>
<svg width="567" height="328" viewBox="0 0 567 328" xmlns="http://www.w3.org/2000/svg">
<title>
/Users/samcook/code/MuSIC/offline_analysis_music5/MuSIC5_offline_analysis/MuSIC5_offline_analysis/scripts/images/fit_settings_451.svg
</title>
<desc>
Creator: ROOT Version 5.32/00
CreationDate: Wed Aug 22 01:16:33 2012</desc>
<defs>
</defs>
<rect x="0" y="0" width="567" height="328" fill="white"/>
<rect x="57" y="33" width="453" height="249" fill="white"/>
<rect x="57" y="33" width="453" height="249" fill="none" stroke="black"/>
<rect x="57" y="33" width="453" height="249" fill="white"/>
<rect x="57" y="33" width="453" height="249" fill="none" stroke="black"/>
<path d="M66,142v -25" fill="none" stroke="#000099"/>
<path d="M66,117v -25" fill="none" stroke="#000099"/>
<path d="M57,117h 9" fill="none" stroke="#000099"/>
<path d="M66,117h 10" fill="none" stroke="#000099"/>
<g stroke="black" stroke-width="1" fill="none">
<line x1="65" y1="117" x2="66" y2="117"/>
</g>
<path d="M85,106v -26" fill="none" stroke="#000099"/>
<path d="M85,80v -26" fill="none" stroke="#000099"/>
<path d="M76,80h 9" fill="none" stroke="#000099"/>
<path d="M85,80h 9" fill="none" stroke="#000099"/>
<g stroke="black" stroke-width="1" fill="none">
<line x1="84" y1="80" x2="85" y2="80"/>
</g>
<path d="M104,99v -26" fill="none" stroke="#000099"/>
<path d="M104,73v -26" fill="none" stroke="#000099"/>
<path d="M94,73h 10" fill="none" stroke="#000099"/>
<path d="M104,73h 9" fill="none" stroke="#000099"/>
<g stroke="black" stroke-width="1" fill="none">
<line x1="103" y1="73" x2="104" y2="73"/>
</g>
<path d="M123,96v -26" fill="none" stroke="#000099"/>
<path d="M123,70v -25" fill="none" stroke="#000099"/>
<path d="M113,70h 10" fill="none" stroke="#000099"/>
<path d="M123,70h 9" fill="none" stroke="#000099"/>
<g stroke="black" stroke-width="1" fill="none">
<line x1="122" y1="70" x2="123" y2="70"/>
</g>
<path d="M142,141v -22" fill="none" stroke="#000099"/>
<path d="M142,119v -23" fill="none" stroke="#000099"/>
<path d="M132,119h 10" fill="none" stroke="#000099"/>
<path d="M142,119h 9" fill="none" stroke="#000099"/>
<g stroke="black" stroke-width="1" fill="none">
<line x1="141" y1="119" x2="142" y2="119"/>
</g>
<path d="M160,101v -23" fill="none" stroke="#000099"/>
<path d="M160,78v -23" fill="none" stroke="#000099"/>
<path d="M151,78h 9" fill="none" stroke="#000099"/>
<path d="M160,78h 10" fill="none" stroke="#000099"/>
<g stroke="black" stroke-width="1" fill="none">
<line x1="159" y1="78" x2="160" y2="78"/>
</g>
<path d="M179,96v -24" fill="none" stroke="#000099"/>
<path d="M179,72v -23" fill="none" stroke="#000099"/>
<path d="M170,72h 9" fill="none" stroke="#000099"/>
<path d="M179,72h 10" fill="none" stroke="#000099"/>
<g stroke="black" stroke-width="1" fill="none">
<line x1="178" y1="72" x2="179" y2="72"/>
</g>
<path d="M198,93v -23" fill="none" stroke="#000099"/>
<path d="M198,70v -23" fill="none" stroke="#000099"/>
<path d="M189,70h 9" fill="none" stroke="#000099"/>
<path d="M198,70h 10" fill="none" stroke="#000099"/>
<g stroke="black" stroke-width="1" fill="none">
<line x1="197" y1="70" x2="198" y2="70"/>
</g>
<path d="M217,207v -25" fill="none" stroke="#000099"/>
<path d="M217,182v -25" fill="none" stroke="#000099"/>
<path d="M208,182h 9" fill="none" stroke="#000099"/>
<path d="M217,182h 10" fill="none" stroke="#000099"/>
<g stroke="black" stroke-width="1" fill="none">
<line x1="216" y1="182" x2="217" y2="182"/>
</g>
<path d="M236,171v -26" fill="none" stroke="#000099"/>
<path d="M236,145v -26" fill="none" stroke="#000099"/>
<path d="M227,145h 9" fill="none" stroke="#000099"/>
<path d="M236,145h 9" fill="none" stroke="#000099"/>
<g stroke="black" stroke-width="1" fill="none">
<line x1="235" y1="145" x2="236" y2="145"/>
</g>
<path d="M255,174v -27" fill="none" stroke="#000099"/>
<path d="M255,147v -26" fill="none" stroke="#000099"/>
<path d="M245,147h 10" fill="none" stroke="#000099"/>
<path d="M255,147h 9" fill="none" stroke="#000099"/>
<g stroke="black" stroke-width="1" fill="none">
<line x1="254" y1="147" x2="255" y2="147"/>
</g>
<path d="M274,160v -25" fill="none" stroke="#000099"/>
<path d="M274,135v -26" fill="none" stroke="#000099"/>
<path d="M264,135h 10" fill="none" stroke="#000099"/>
<path d="M274,135h 9" fill="none" stroke="#000099"/>
<g stroke="black" stroke-width="1" fill="none">
<line x1="273" y1="135" x2="274" y2="135"/>
</g>
<path d="M293,205v -22" fill="none" stroke="#000099"/>
<path d="M293,183v -22" fill="none" stroke="#000099"/>
<path d="M283,183h 10" fill="none" stroke="#000099"/>
<path d="M293,183h 9" fill="none" stroke="#000099"/>
<g stroke="black" stroke-width="1" fill="none">
<line x1="292" y1="183" x2="293" y2="183"/>
</g>
<path d="M312,162v -20" fill="none" stroke="#000099"/>
<path d="M312,142v -19" fill="none" stroke="#000099"/>
<path d="M302,142h 10" fill="none" stroke="#000099"/>
<path d="M312,142h 9" fill="none" stroke="#000099"/>
<g stroke="black" stroke-width="1" fill="none">
<line x1="311" y1="142" x2="312" y2="142"/>
</g>
<path d="M330,168v -24" fill="none" stroke="#000099"/>
<path d="M330,144v -23" fill="none" stroke="#000099"/>
<path d="M321,144h 9" fill="none" stroke="#000099"/>
<path d="M330,144h 10" fill="none" stroke="#000099"/>
<g stroke="black" stroke-width="1" fill="none">
<line x1="329" y1="144" x2="330" y2="144"/>
</g>
<path d="M349,157v -23" fill="none" stroke="#000099"/>
<path d="M349,134v -23" fill="none" stroke="#000099"/>
<path d="M340,134h 9" fill="none" stroke="#000099"/>
<path d="M349,134h 10" fill="none" stroke="#000099"/>
<g stroke="black" stroke-width="1" fill="none">
<line x1="348" y1="134" x2="349" y2="134"/>
</g>
<path d="M368,271v -25" fill="none" stroke="#000099"/>
<path d="M368,246v -25" fill="none" stroke="#000099"/>
<path d="M359,246h 9" fill="none" stroke="#000099"/>
<path d="M368,246h 10" fill="none" stroke="#000099"/>
<g stroke="black" stroke-width="1" fill="none">
<line x1="367" y1="246" x2="368" y2="246"/>
</g>
<path d="M387,236v -26" fill="none" stroke="#000099"/>
<path d="M387,210v -26" fill="none" stroke="#000099"/>
<path d="M378,210h 9" fill="none" stroke="#000099"/>
<path d="M387,210h 10" fill="none" stroke="#000099"/>
<g stroke="black" stroke-width="1" fill="none">
<line x1="386" y1="210" x2="387" y2="210"/>
</g>
<path d="M406,230v -26" fill="none" stroke="#000099"/>
<path d="M406,204v -26" fill="none" stroke="#000099"/>
<path d="M397,204h 9" fill="none" stroke="#000099"/>
<path d="M406,204h 9" fill="none" stroke="#000099"/>
<g stroke="black" stroke-width="1" fill="none">
<line x1="405" y1="204" x2="406" y2="204"/>
</g>
<path d="M425,239v -27" fill="none" stroke="#000099"/>
<path d="M425,212v -27" fill="none" stroke="#000099"/>
<path d="M415,212h 10" fill="none" stroke="#000099"/>
<path d="M425,212h 9" fill="none" stroke="#000099"/>
<g stroke="black" stroke-width="1" fill="none">
<line x1="424" y1="212" x2="425" y2="212"/>
</g>
<path d="M444,268v -22" fill="none" stroke="#000099"/>
<path d="M444,246v -22" fill="none" stroke="#000099"/>
<path d="M434,246h 10" fill="none" stroke="#000099"/>
<path d="M444,246h 9" fill="none" stroke="#000099"/>
<g stroke="black" stroke-width="1" fill="none">
<line x1="443" y1="246" x2="444" y2="246"/>
</g>
<path d="M463,229v -23" fill="none" stroke="#000099"/>
<path d="M463,206v -23" fill="none" stroke="#000099"/>
<path d="M453,206h 10" fill="none" stroke="#000099"/>
<path d="M463,206h 9" fill="none" stroke="#000099"/>
<g stroke="black" stroke-width="1" fill="none">
<line x1="462" y1="206" x2="463" y2="206"/>
</g>
<path d="M482,224v -23" fill="none" stroke="#000099"/>
<path d="M482,201v -23" fill="none" stroke="#000099"/>
<path d="M472,201h 10" fill="none" stroke="#000099"/>
<path d="M482,201h 9" fill="none" stroke="#000099"/>
<g stroke="black" stroke-width="1" fill="none">
<line x1="481" y1="201" x2="482" y2="201"/>
</g>
<path d="M500,233v -24" fill="none" stroke="#000099"/>
<path d="M500,209v -24" fill="none" stroke="#000099"/>
<path d="M491,209h 9" fill="none" stroke="#000099"/>
<path d="M500,209h 10" fill="none" stroke="#000099"/>
<g stroke="black" stroke-width="1" fill="none">
<line x1="499" y1="209" x2="500" y2="209"/>
</g>
<path d="M57,282h 453" fill="none" stroke="black"/>
<text x="472" y="322" fill="black" font-size="11" font-family="Helvetica">
Settings
</text>
<g transform="rotate(20,65,288)">
<text x="65" y="288" fill="black" font-size="6" font-family="Helvetica">
lo_50_hi_15000_bins_10
</text>
</g>
<g transform="rotate(20,84,288)">
<text x="84" y="288" fill="black" font-size="6" font-family="Helvetica">
lo_50_hi_15000_bins_50
</text>
</g>
<g transform="rotate(20,103,288)">
<text x="103" y="288" fill="black" font-size="6" font-family="Helvetica">
lo_50_hi_15000_bins_100
</text>
</g>
<g transform="rotate(20,122,288)">
<text x="122" y="288" fill="black" font-size="6" font-family="Helvetica">
lo_50_hi_15000_bins_200
</text>
</g>
<g transform="rotate(20,141,288)">
<text x="141" y="288" fill="black" font-size="6" font-family="Helvetica">
lo_50_hi_20000_bins_10
</text>
</g>
<g transform="rotate(20,160,288)">
<text x="160" y="288" fill="black" font-size="6" font-family="Helvetica">
lo_50_hi_20000_bins_50
</text>
</g>
<g transform="rotate(20,179,288)">
<text x="179" y="288" fill="black" font-size="6" font-family="Helvetica">
lo_50_hi_20000_bins_100
</text>
</g>
<g transform="rotate(20,197,288)">
<text x="197" y="288" fill="black" font-size="6" font-family="Helvetica">
lo_50_hi_20000_bins_200
</text>
</g>
<g transform="rotate(20,216,288)">
<text x="216" y="288" fill="black" font-size="6" font-family="Helvetica">
lo_100_hi_15000_bins_10
</text>
</g>
<g transform="rotate(20,235,288)">
<text x="235" y="288" fill="black" font-size="6" font-family="Helvetica">
lo_100_hi_15000_bins_50
</text>
</g>
<g transform="rotate(20,254,288)">
<text x="254" y="288" fill="black" font-size="6" font-family="Helvetica">
lo_100_hi_15000_bins_100
</text>
</g>
<g transform="rotate(20,273,288)">
<text x="273" y="288" fill="black" font-size="6" font-family="Helvetica">
lo_100_hi_15000_bins_200
</text>
</g>
<g transform="rotate(20,292,288)">
<text x="292" y="288" fill="black" font-size="6" font-family="Helvetica">
lo_100_hi_20000_bins_10
</text>
</g>
<g transform="rotate(20,311,288)">
<text x="311" y="288" fill="black" font-size="6" font-family="Helvetica">
lo_100_hi_20000_bins_50
</text>
</g>
<g transform="rotate(20,329,288)">
<text x="329" y="288" fill="black" font-size="6" font-family="Helvetica">
lo_100_hi_20000_bins_100
</text>
</g>
<g transform="rotate(20,348,288)">
<text x="348" y="288" fill="black" font-size="6" font-family="Helvetica">
lo_100_hi_20000_bins_200
</text>
</g>
<g transform="rotate(20,367,288)">
<text x="367" y="288" fill="black" font-size="6" font-family="Helvetica">
lo_150_hi_15000_bins_10
</text>
</g>
<g transform="rotate(20,386,288)">
<text x="386" y="288" fill="black" font-size="6" font-family="Helvetica">
lo_150_hi_15000_bins_50
</text>
</g>
<g transform="rotate(20,405,288)">
<text x="405" y="288" fill="black" font-size="6" font-family="Helvetica">
lo_150_hi_15000_bins_100
</text>
</g>
<g transform="rotate(20,424,288)">
<text x="424" y="288" fill="black" font-size="6" font-family="Helvetica">
lo_150_hi_15000_bins_200
</text>
</g>
<g transform="rotate(20,443,288)">
<text x="443" y="288" fill="black" font-size="6" font-family="Helvetica">
lo_150_hi_20000_bins_10
</text>
</g>
<g transform="rotate(20,462,288)">
<text x="462" y="288" fill="black" font-size="6" font-family="Helvetica">
lo_150_hi_20000_bins_50
</text>
</g>
<g transform="rotate(20,481,288)">
<text x="481" y="288" fill="black" font-size="6" font-family="Helvetica">
lo_150_hi_20000_bins_100
</text>
</g>
<g transform="rotate(20,500,288)">
<text x="500" y="288" fill="black" font-size="6" font-family="Helvetica">
lo_150_hi_20000_bins_200
</text>
</g>
<path d="M57,275v 7" fill="none" stroke="black"/>
<path d="M76,275v 7" fill="none" stroke="black"/>
<path d="M94,275v 7" fill="none" stroke="black"/>
<path d="M113,275v 7" fill="none" stroke="black"/>
<path d="M132,275v 7" fill="none" stroke="black"/>
<path d="M151,275v 7" fill="none" stroke="black"/>
<path d="M170,275v 7" fill="none" stroke="black"/>
<path d="M189,275v 7" fill="none" stroke="black"/>
<path d="M208,275v 7" fill="none" stroke="black"/>
<path d="M227,275v 7" fill="none" stroke="black"/>
<path d="M245,275v 7" fill="none" stroke="black"/>
<path d="M264,275v 7" fill="none" stroke="black"/>
<path d="M283,275v 7" fill="none" stroke="black"/>
<path d="M302,275v 7" fill="none" stroke="black"/>
<path d="M321,275v 7" fill="none" stroke="black"/>
<path d="M340,275v 7" fill="none" stroke="black"/>
<path d="M359,275v 7" fill="none" stroke="black"/>
<path d="M378,275v 7" fill="none" stroke="black"/>
<path d="M397,275v 7" fill="none" stroke="black"/>
<path d="M415,275v 7" fill="none" stroke="black"/>
<path d="M434,275v 7" fill="none" stroke="black"/>
<path d="M453,275v 7" fill="none" stroke="black"/>
<path d="M472,275v 7" fill="none" stroke="black"/>
<path d="M491,275v 7" fill="none" stroke="black"/>
<path d="M510,275v 7" fill="none" stroke="black"/>
<path d="M57,282v -249" fill="none" stroke="black"/>
<g transform="rotate(-90,13,61)">
<text x="13" y="61" fill="black" font-size="11" font-family="Helvetica">
Count
</text>
</g>
<path d="M70,275h -13" fill="none" stroke="black"/>
<path d="M63,270h -6" fill="none" stroke="black"/>
<path d="M63,264h -6" fill="none" stroke="black"/>
<path d="M63,259h -6" fill="none" stroke="black"/>
<path d="M63,254h -6" fill="none" stroke="black"/>
<path d="M70,249h -13" fill="none" stroke="black"/>
<path d="M63,244h -6" fill="none" stroke="black"/>
<path d="M63,238h -6" fill="none" stroke="black"/>
<path d="M63,233h -6" fill="none" stroke="black"/>
<path d="M63,228h -6" fill="none" stroke="black"/>
<path d="M70,223h -13" fill="none" stroke="black"/>
<path d="M63,218h -6" fill="none" stroke="black"/>
<path d="M63,213h -6" fill="none" stroke="black"/>
<path d="M63,207h -6" fill="none" stroke="black"/>
<path d="M63,202h -6" fill="none" stroke="black"/>
<path d="M70,197h -13" fill="none" stroke="black"/>
<path d="M63,192h -6" fill="none" stroke="black"/>
<path d="M63,187h -6" fill="none" stroke="black"/>
<path d="M63,182h -6" fill="none" stroke="black"/>
<path d="M63,176h -6" fill="none" stroke="black"/>
<path d="M70,171h -13" fill="none" stroke="black"/>
<path d="M63,166h -6" fill="none" stroke="black"/>
<path d="M63,161h -6" fill="none" stroke="black"/>
<path d="M63,156h -6" fill="none" stroke="black"/>
<path d="M63,150h -6" fill="none" stroke="black"/>
<path d="M70,145h -13" fill="none" stroke="black"/>
<path d="M63,140h -6" fill="none" stroke="black"/>
<path d="M63,135h -6" fill="none" stroke="black"/>
<path d="M63,130h -6" fill="none" stroke="black"/>
<path d="M63,125h -6" fill="none" stroke="black"/>
<path d="M70,119h -13" fill="none" stroke="black"/>
<path d="M63,114h -6" fill="none" stroke="black"/>
<path d="M63,109h -6" fill="none" stroke="black"/>
<path d="M63,104h -6" fill="none" stroke="black"/>
<path d="M63,99h -6" fill="none" stroke="black"/>
<path d="M70,93h -13" fill="none" stroke="black"/>
<path d="M63,88h -6" fill="none" stroke="black"/>
<path d="M63,83h -6" fill="none" stroke="black"/>
<path d="M63,78h -6" fill="none" stroke="black"/>
<path d="M63,73h -6" fill="none" stroke="black"/>
<path d="M70,68h -13" fill="none" stroke="black"/>
<path d="M63,62h -6" fill="none" stroke="black"/>
<path d="M63,57h -6" fill="none" stroke="black"/>
<path d="M63,52h -6" fill="none" stroke="black"/>
<path d="M63,47h -6" fill="none" stroke="black"/>
<path d="M70,42h -13" fill="none" stroke="black"/>
<path d="M70,275h -13" fill="none" stroke="black"/>
<path d="M63,280h -6" fill="none" stroke="black"/>
<path d="M70,42h -13" fill="none" stroke="black"/>
<path d="M63,36h -6" fill="none" stroke="black"/>
<text x="24" y="279" fill="black" font-size="11" font-family="Helvetica">
44500
</text>
<text x="24" y="253" fill="black" font-size="11" font-family="Helvetica">
45000
</text>
<text x="24" y="227" fill="black" font-size="11" font-family="Helvetica">
45500
</text>
<text x="24" y="201" fill="black" font-size="11" font-family="Helvetica">
46000
</text>
<text x="24" y="175" fill="black" font-size="11" font-family="Helvetica">
46500
</text>
<text x="24" y="149" fill="black" font-size="11" font-family="Helvetica">
47000
</text>
<text x="24" y="123" fill="black" font-size="11" font-family="Helvetica">
47500
</text>
<text x="24" y="97" fill="black" font-size="11" font-family="Helvetica">
48000
</text>
<text x="24" y="71" fill="black" font-size="11" font-family="Helvetica">
48500
</text>
<text x="24" y="45" fill="black" font-size="11" font-family="Helvetica">
49000
</text>
<text x="131" y="16" fill="black" font-size="16" font-family="Helvetica">
Muon count for different fit settings, file: 451
</text></svg>
