<?xml version="1.0" standalone="no"?>
<svg width="567" height="328" viewBox="0 0 567 328" xmlns="http://www.w3.org/2000/svg">
<title>
images/fitted_simulation_data_Aluminium_8mm.svg
</title>
<desc>
Creator: ROOT Version 5.32/00
CreationDate: Wed Oct  3 00:18:07 2012</desc>
<defs>
</defs>
<rect x="0" y="0" width="567" height="328" fill="white"/>
<rect x="57" y="33" width="453" height="262" fill="white"/>
<rect x="57" y="33" width="453" height="262" fill="none" stroke="black"/>
<path d="M57,45h 4v 71h 5v 8h 4v 19h 5v 4h 4v 35h 5v 12h 4v -8h 5v 31h 5v -15h 4v 50h 5v -27h 4v -12h 5v 35h 4v -27h 5v 35h 4v -4h 5v 4h 4v 8h 5v 4h 9v -8h 14v 4h 4v 23h 5v -11h 4v 19h 5v -4h 4v -15h 5v 11h 4v -7h 5v 15h 9v -11h 4v 7h 5v -4h 9v 8h 5v
 -4h 4v 4h 5v -4h 9v 4h 4v -4h 5v 4h 4v -4h 5v -4h 4v 4h 5v 4h 9v -8h 5v 4h 4v 4h 14v -4h 4v 4h 14v -4h 4v 4h 23v -4h 9v 4h 5v -4h 4v 4h 73v -4h 4v 4h 59" fill="none" stroke="#000099"/>
<path d="M60,67l 5, 40l 4, 24l 5, 18l 4, 16l 5, 13l 4, 12l 5, 11l 4, 9l 5, 9l 4, 7l 5, 7l 4, 6l 5, 6l 4, 5l 5, 4l 4, 4l 5, 4l 4, 3l 5, 3l 5, 2l 4, 3l 5, 2l 4, 1l 5, 2l 4, 2l 5, 1l 4, 1l 5, 1l 4, 1l 5, 1l 4, 1h 5l 4, 1l 5, 1h 9l 4, 1h 10l 4, 1h 14l 4,
 1h 23" fill="none" stroke="#ff0000" stroke-width="2"/>
<path d="M282,291h 9l 4, 1h 208" fill="none" stroke="#ff0000" stroke-width="2"/>
<path d="M503,292h 5" fill="none" stroke="#ff0000" stroke-width="2"/>
<rect x="351" y="22" width="205" height="91" fill="white"/>
<path d="M351,113h 205" fill="none" stroke="black"/>
<path d="M556,113v -91" fill="none" stroke="black"/>
<path d="M556,22h -205" fill="none" stroke="black"/>
<path d="M351,22v 91" fill="none" stroke="black"/>
<text x="373" y="33" fill="black" font-size="13" font-family="Helvetica">
 / ndf 
</text>
<text x="369" y="29" fill="black" font-size="9" font-family="Helvetica">
2
</text>
<text x="361" y="33" fill="black" font-size="13" font-family="Times">
&#0967;
</text>
<text x="484" y="34" fill="black" font-size="13" font-family="Helvetica">
 29.65 / 45
</text>
<text x="376" y="47" fill="black" font-size="13" font-family="Helvetica">
    
</text>
<text x="370" y="51" fill="black" font-size="9" font-family="Helvetica">
B
</text>
<text x="361" y="47" fill="black" font-size="13" font-family="Helvetica">
N
</text>
<text x="502" y="49" fill="black" font-size="13" font-family="Helvetica">
 0.2932
</text>
<text x="495" y="49" fill="black" font-size="13" font-family="Times">
&#0177;
</text>
<text x="448" y="49" fill="black" font-size="13" font-family="Helvetica">
 0.7764 
</text>
<text x="383" y="61" fill="black" font-size="13" font-family="Helvetica">
 
</text>
<text x="375" y="68" fill="black" font-size="6" font-family="Helvetica">
Cu
</text>
<text x="370" y="64" fill="black" font-size="9" font-family="Times">
&#0956;
</text>
<text x="361" y="61" fill="black" font-size="13" font-family="Helvetica">
N
</text>
<text x="509" y="64" fill="black" font-size="13" font-family="Helvetica">
 17.80
</text>
<text x="502" y="64" fill="black" font-size="13" font-family="Times">
&#0177;
</text>
<text x="462" y="64" fill="black" font-size="13" font-family="Helvetica">
 17.77 
</text>
<text x="380" y="75" fill="black" font-size="13" font-family="Helvetica">
 
</text>
<text x="372" y="82" fill="black" font-size="6" font-family="Helvetica">
Cu
</text>
<text x="367" y="78" fill="black" font-size="9" font-family="Times">
&#0956;
</text>
<text x="361" y="75" fill="black" font-size="13" font-family="Times">
&#0964;
</text>
<text x="524" y="80" fill="black" font-size="13" font-family="Helvetica">
 1.0
</text>
<text x="517" y="80" fill="black" font-size="13" font-family="Times">
&#0177;
</text>
<text x="477" y="80" fill="black" font-size="13" font-family="Helvetica">
 162.5 
</text>
<text x="382" y="91" fill="black" font-size="13" font-family="Helvetica">
 
</text>
<text x="375" y="99" fill="black" font-size="6" font-family="Helvetica">
All
</text>
<text x="370" y="94" fill="black" font-size="9" font-family="Times">
&#0956;
</text>
<text x="361" y="91" fill="black" font-size="13" font-family="Helvetica">
N
</text>
<text x="517" y="95" fill="black" font-size="13" font-family="Helvetica">
 4.96
</text>
<text x="510" y="95" fill="black" font-size="13" font-family="Times">
&#0177;
</text>
<text x="470" y="95" fill="black" font-size="13" font-family="Helvetica">
 55.09 
</text>
<text x="379" y="105" fill="black" font-size="13" font-family="Helvetica">
 
</text>
<text x="372" y="113" fill="black" font-size="6" font-family="Helvetica">
All
</text>
<text x="367" y="108" fill="black" font-size="9" font-family="Times">
&#0956;
</text>
<text x="361" y="105" fill="black" font-size="13" font-family="Times">
&#0964;
</text>
<text x="509" y="110" fill="black" font-size="13" font-family="Helvetica">
 144.4
</text>
<text x="502" y="110" fill="black" font-size="13" font-family="Times">
&#0177;
</text>
<text x="465" y="110" fill="black" font-size="13" font-family="Helvetica">
  1811 
</text>
<path d="M57,295h 453" fill="none" stroke="black"/>
<text x="441" y="317" fill="black" font-size="11" font-family="Helvetica">
Delta time (ns)
</text>
<path d="M102,287v 8" fill="none" stroke="black"/>
<path d="M113,291v 4" fill="none" stroke="black"/>
<path d="M125,291v 4" fill="none" stroke="black"/>
<path d="M136,291v 4" fill="none" stroke="black"/>
<path d="M147,287v 8" fill="none" stroke="black"/>
<path d="M159,291v 4" fill="none" stroke="black"/>
<path d="M170,291v 4" fill="none" stroke="black"/>
<path d="M181,291v 4" fill="none" stroke="black"/>
<path d="M193,287v 8" fill="none" stroke="black"/>
<path d="M204,291v 4" fill="none" stroke="black"/>
<path d="M215,291v 4" fill="none" stroke="black"/>
<path d="M227,291v 4" fill="none" stroke="black"/>
<path d="M238,287v 8" fill="none" stroke="black"/>
<path d="M249,291v 4" fill="none" stroke="black"/>
<path d="M261,291v 4" fill="none" stroke="black"/>
<path d="M272,291v 4" fill="none" stroke="black"/>
<path d="M283,287v 8" fill="none" stroke="black"/>
<path d="M295,291v 4" fill="none" stroke="black"/>
<path d="M306,291v 4" fill="none" stroke="black"/>
<path d="M317,291v 4" fill="none" stroke="black"/>
<path d="M329,287v 8" fill="none" stroke="black"/>
<path d="M340,291v 4" fill="none" stroke="black"/>
<path d="M351,291v 4" fill="none" stroke="black"/>
<path d="M363,291v 4" fill="none" stroke="black"/>
<path d="M374,287v 8" fill="none" stroke="black"/>
<path d="M385,291v 4" fill="none" stroke="black"/>
<path d="M397,291v 4" fill="none" stroke="black"/>
<path d="M408,291v 4" fill="none" stroke="black"/>
<path d="M420,287v 8" fill="none" stroke="black"/>
<path d="M431,291v 4" fill="none" stroke="black"/>
<path d="M442,291v 4" fill="none" stroke="black"/>
<path d="M454,291v 4" fill="none" stroke="black"/>
<path d="M465,287v 8" fill="none" stroke="black"/>
<path d="M476,291v 4" fill="none" stroke="black"/>
<path d="M488,291v 4" fill="none" stroke="black"/>
<path d="M499,291v 4" fill="none" stroke="black"/>
<path d="M510,287v 8" fill="none" stroke="black"/>
<path d="M102,287v 8" fill="none" stroke="black"/>
<path d="M91,291v 4" fill="none" stroke="black"/>
<path d="M79,291v 4" fill="none" stroke="black"/>
<path d="M68,291v 4" fill="none" stroke="black"/>
<path d="M510,287v 8" fill="none" stroke="black"/>
<text x="90" y="306" fill="black" font-size="11" font-family="Helvetica">
2000
</text>
<text x="135" y="306" fill="black" font-size="11" font-family="Helvetica">
4000
</text>
<text x="181" y="306" fill="black" font-size="11" font-family="Helvetica">
6000
</text>
<text x="226" y="306" fill="black" font-size="11" font-family="Helvetica">
8000
</text>
<text x="268" y="306" fill="black" font-size="11" font-family="Helvetica">
10000
</text>
<text x="314" y="306" fill="black" font-size="11" font-family="Helvetica">
12000
</text>
<text x="359" y="306" fill="black" font-size="11" font-family="Helvetica">
14000
</text>
<text x="405" y="306" fill="black" font-size="11" font-family="Helvetica">
16000
</text>
<text x="450" y="306" fill="black" font-size="11" font-family="Helvetica">
18000
</text>
<text x="495" y="306" fill="black" font-size="11" font-family="Helvetica">
20000
</text>
<path d="M57,295v -262" fill="none" stroke="black"/>
<g transform="rotate(-90,29,61)">
<text x="29" y="61" fill="black" font-size="11" font-family="Helvetica">
Count
</text>
</g>
<path d="M70,295h -13" fill="none" stroke="black"/>
<path d="M63,287h -6" fill="none" stroke="black"/>
<path d="M63,280h -6" fill="none" stroke="black"/>
<path d="M63,272h -6" fill="none" stroke="black"/>
<path d="M63,264h -6" fill="none" stroke="black"/>
<path d="M70,256h -13" fill="none" stroke="black"/>
<path d="M63,248h -6" fill="none" stroke="black"/>
<path d="M63,241h -6" fill="none" stroke="black"/>
<path d="M63,233h -6" fill="none" stroke="black"/>
<path d="M63,225h -6" fill="none" stroke="black"/>
<path d="M70,217h -13" fill="none" stroke="black"/>
<path d="M63,209h -6" fill="none" stroke="black"/>
<path d="M63,202h -6" fill="none" stroke="black"/>
<path d="M63,194h -6" fill="none" stroke="black"/>
<path d="M63,186h -6" fill="none" stroke="black"/>
<path d="M70,178h -13" fill="none" stroke="black"/>
<path d="M63,170h -6" fill="none" stroke="black"/>
<path d="M63,163h -6" fill="none" stroke="black"/>
<path d="M63,155h -6" fill="none" stroke="black"/>
<path d="M63,147h -6" fill="none" stroke="black"/>
<path d="M70,139h -13" fill="none" stroke="black"/>
<path d="M63,131h -6" fill="none" stroke="black"/>
<path d="M63,124h -6" fill="none" stroke="black"/>
<path d="M63,116h -6" fill="none" stroke="black"/>
<path d="M63,108h -6" fill="none" stroke="black"/>
<path d="M70,100h -13" fill="none" stroke="black"/>
<path d="M63,92h -6" fill="none" stroke="black"/>
<path d="M63,84h -6" fill="none" stroke="black"/>
<path d="M63,77h -6" fill="none" stroke="black"/>
<path d="M63,69h -6" fill="none" stroke="black"/>
<path d="M70,61h -13" fill="none" stroke="black"/>
<path d="M70,61h -13" fill="none" stroke="black"/>
<path d="M63,53h -6" fill="none" stroke="black"/>
<path d="M63,45h -6" fill="none" stroke="black"/>
<path d="M63,38h -6" fill="none" stroke="black"/>
<text x="48" y="299" fill="black" font-size="11" font-family="Helvetica">
0
</text>
<text x="42" y="260" fill="black" font-size="11" font-family="Helvetica">
10
</text>
<text x="42" y="221" fill="black" font-size="11" font-family="Helvetica">
20
</text>
<text x="42" y="182" fill="black" font-size="11" font-family="Helvetica">
30
</text>
<text x="42" y="143" fill="black" font-size="11" font-family="Helvetica">
40
</text>
<text x="42" y="104" fill="black" font-size="11" font-family="Helvetica">
50
</text>
<text x="42" y="65" fill="black" font-size="11" font-family="Helvetica">
60
</text>
<text x="145" y="16" fill="black" font-size="15" font-family="Helvetica">
Muon_momentum_with_Aluminium_8mm
</text>
<rect x="351" y="22" width="205" height="91" fill="white"/>
<path d="M351,113h 205" fill="none" stroke="black"/>
<path d="M556,113v -91" fill="none" stroke="black"/>
<path d="M556,22h -205" fill="none" stroke="black"/>
<path d="M351,22v 91" fill="none" stroke="black"/>
<text x="373" y="33" fill="black" font-size="13" font-family="Helvetica">
 / ndf 
</text>
<text x="369" y="29" fill="black" font-size="9" font-family="Helvetica">
2
</text>
<text x="361" y="33" fill="black" font-size="13" font-family="Times">
&#0967;
</text>
<text x="484" y="34" fill="black" font-size="13" font-family="Helvetica">
 29.65 / 45
</text>
<text x="376" y="47" fill="black" font-size="13" font-family="Helvetica">
    
</text>
<text x="370" y="51" fill="black" font-size="9" font-family="Helvetica">
B
</text>
<text x="361" y="47" fill="black" font-size="13" font-family="Helvetica">
N
</text>
<text x="502" y="49" fill="black" font-size="13" font-family="Helvetica">
 0.2932
</text>
<text x="495" y="49" fill="black" font-size="13" font-family="Times">
&#0177;
</text>
<text x="448" y="49" fill="black" font-size="13" font-family="Helvetica">
 0.7764 
</text>
<text x="383" y="61" fill="black" font-size="13" font-family="Helvetica">
 
</text>
<text x="375" y="68" fill="black" font-size="6" font-family="Helvetica">
Cu
</text>
<text x="370" y="64" fill="black" font-size="9" font-family="Times">
&#0956;
</text>
<text x="361" y="61" fill="black" font-size="13" font-family="Helvetica">
N
</text>
<text x="509" y="64" fill="black" font-size="13" font-family="Helvetica">
 17.80
</text>
<text x="502" y="64" fill="black" font-size="13" font-family="Times">
&#0177;
</text>
<text x="462" y="64" fill="black" font-size="13" font-family="Helvetica">
 17.77 
</text>
<text x="380" y="75" fill="black" font-size="13" font-family="Helvetica">
 
</text>
<text x="372" y="82" fill="black" font-size="6" font-family="Helvetica">
Cu
</text>
<text x="367" y="78" fill="black" font-size="9" font-family="Times">
&#0956;
</text>
<text x="361" y="75" fill="black" font-size="13" font-family="Times">
&#0964;
</text>
<text x="524" y="80" fill="black" font-size="13" font-family="Helvetica">
 1.0
</text>
<text x="517" y="80" fill="black" font-size="13" font-family="Times">
&#0177;
</text>
<text x="477" y="80" fill="black" font-size="13" font-family="Helvetica">
 162.5 
</text>
<text x="382" y="91" fill="black" font-size="13" font-family="Helvetica">
 
</text>
<text x="375" y="99" fill="black" font-size="6" font-family="Helvetica">
All
</text>
<text x="370" y="94" fill="black" font-size="9" font-family="Times">
&#0956;
</text>
<text x="361" y="91" fill="black" font-size="13" font-family="Helvetica">
N
</text>
<text x="517" y="95" fill="black" font-size="13" font-family="Helvetica">
 4.96
</text>
<text x="510" y="95" fill="black" font-size="13" font-family="Times">
&#0177;
</text>
<text x="470" y="95" fill="black" font-size="13" font-family="Helvetica">
 55.09 
</text>
<text x="379" y="105" fill="black" font-size="13" font-family="Helvetica">
 
</text>
<text x="372" y="113" fill="black" font-size="6" font-family="Helvetica">
All
</text>
<text x="367" y="108" fill="black" font-size="9" font-family="Times">
&#0956;
</text>
<text x="361" y="105" fill="black" font-size="13" font-family="Times">
&#0964;
</text>
<text x="509" y="110" fill="black" font-size="13" font-family="Helvetica">
 144.4
</text>
<text x="502" y="110" fill="black" font-size="13" font-family="Times">
&#0177;
</text>
<text x="465" y="110" fill="black" font-size="13" font-family="Helvetica">
  1811 
</text>
<text x="145" y="16" fill="black" font-size="15" font-family="Helvetica">
Muon_momentum_with_Aluminium_8mm
</text></svg>
