<?xml version="1.0" standalone="no"?>
<svg width="567" height="328" viewBox="0 0 567 328" xmlns="http://www.w3.org/2000/svg">
<title>
images/g4bl_sim_mu+_5mm_Aluminium_loose_f_16ns_bins.svg
</title>
<desc>
Creator: ROOT Version 5.34/05
CreationDate: Mon Jun 17 19:39:39 2013</desc>
<defs>
</defs>
<rect x="0" y="0" width="567" height="328" fill="white"/>
<rect x="57" y="33" width="453" height="262" fill="white"/>
<rect x="57" y="33" width="453" height="262" fill="none" stroke="black"/>
<rect x="57" y="33" width="453" height="262" fill="white"/>
<rect x="57" y="33" width="453" height="262" fill="none" stroke="black"/>
<path d="M57,295h 227v -215v 60h 1v -17v 17v -26h 1v -17v 86v -43h 1v -78v 61v -78v 112h 1v 9v -61v 78v -78h 1v 78v -112v 103v -51h 1v -18v 61v -26v 60h 1v -103v 86v -60h 1v 112v -138v 69h 1v -9v 43h 1v 18v -130v 121h 1v -52v 35v -87v 69h 1v 69v -34v
 26h 1v -112v 95v -9h 1v 17v -60v 60v -8h 1v -35v 26v -35v 9h 1v -17v 52v -61v 52h 1v -60v 86h 1v -69v 60h 1v 17v -43v 9h 1v 34v -60v 26h 1v 26v -52v 69v -69v 78h 1v -69v 51h 1v -25v 25v -51v 51v -17v 17h 1v -25v 43v -26h 1v -17v 43v -35v 26v -26h 1v
 -34v 60v -43h 1v 43v -9v 18v -43h 1v -26v 86v -43h 1v -9v 9v -9v 35v -18h 1v -25v 34v -26v 52v -60h 1v 34v -34v 34v -17h 1v 26v -35v 35v -52h 1v 60v -77v 34h 1v 17v -17v 26v -43v 26h 1v 43v -17v 17v -26h 1v -34v 43v -35h 1v 52v -17v 8v -17h 1v -9v
 44v -52h 1v 34v -34v 34v -26v 18h 1v -18v 35h 1v 9v -35v 26v -26v 9h 1v -26v 52h 1v -18v 9v -17v 26h 1v -35v 17v -17v 35v -18h 1v 9v -26v 9v -26h 1v 34v -34v 52v -9h 1v -43v 52v -18v 9h 1v -9v 18v -35v 26h 1v -43v 52v -35h 1v 26v -17v 8v -17v 35v
 -9h 1v -26v 17h 1v -17v 43v -34v 26h 1v -35v 9h 1v 17v -35v 44h 1v -26v 34v -17v 9h 1v -26v 34v -60v 34v -17h 1v 17v -8v 26v -18h 1v 18v -9v 9v -18v 9h 1v 17v -26h 1v 26v -52v 52h 1v -43v 35v -18h 1v -17v 43v -34v 34h 1v -34v 26v -9h 1v -9v 26v -26v
 26v -34v 26h 1v -9v 17v -17v 9h 1v 8v -34v 17v -9v 18h 1v 8v -17v 9v -44v 26h 1v 26v -8h 1v -44v 44v -9h 1v 9h 1v -18v 18v -9h 1v 17v -17v 17h 1v -34v 26v -18v 18h 1v -9v 9v -9v 17h 1v -8v 8v -17v 9h 1v 8v -17v 9h 1v 8v -8v 8v -8h 1v 8v -8v 8h 1v
 -8v 8v -17v 17h 1v -8v 8v -8v 8h 1v -17v 17v -26v 26v -26h 1v 26h 1v -8v 8v -17v 17h 1v -8v 8v -8h 1v 8v -8v 8v -26v 26h 1v -8v 8h 1v -8v 8h 1v -8h 1v -9v 17v -8h 1v 8v -8v 8h 1v -8v 8h 1v -17v 17h 1v -8v 8v -8v 8v -8h 1v 8v -8v 8v -8v 8h 2v -26v
 26h 1v -8v 8h 2v -26v 26v -8v 8h 1v -17v 17h 1v -8v 8h 1v -8v 8v -8v 8v -8h 1v 8v -17h 1v 17h 1v -8v 8h 1v -8v 8v -8h 1v 8v -8v 8h 1v -8h 1v 8h 1v -8v 8h 3v -8v 8h 1v -8h 1v 8v -8v 8h 3v -8v 8h 1v -17v 17h 6v -8v 8v -8h 1v 8h 2v -8h 1v 8v -8v 8h 3v
 -8v 8h 1v -8v 8h 3v -8v 8h 1v -8h 1v 8h 1v -8v 8h 1v -8v 8h 7v -17h 1v 17h 3v -8v 8h 2v -8v 8h 3v -8v 8h 24v -8v 8h 28v -8v 8h 16v -8h 1v 8h 1" fill="none" stroke="#000099"/>
<path d="M285,115l 2, 16l 3, 15l 2, 13l 2, 12l 2, 11l 3, 10l 2, 9l 2, 8l 3, 8l 2, 7l 2, 6l 2, 6l 3, 5l 2, 5l 2, 4l 2, 4l 3, 4l 2, 3l 2, 3l 2, 3l 3, 2l 2, 2l 2, 3l 2, 1l 3, 2l 2, 2l 2, 1l 2, 2l 3, 1l 2, 1l 2, 1l 3, 1l 2, 1h 2l 2, 1l 3, 1h 2l 2, 1h 2l
 3, 1h 4l 2, 1h 5l 2, 1h 7" fill="none" stroke="#ff0000" stroke-width="2"/>
<path d="M396,293h 2l 3, 1h 20l 2, 1h 84" fill="none" stroke="#ff0000" stroke-width="2"/>
<path d="M507,295h 2" fill="none" stroke="#ff0000" stroke-width="2"/>
<rect x="351" y="21" width="205" height="66" fill="white"/>
<path d="M351,87h 205" fill="none" stroke="black"/>
<path d="M556,87v -66" fill="none" stroke="black"/>
<path d="M556,21h -205" fill="none" stroke="black"/>
<path d="M351,21v 66" fill="none" stroke="black"/>
<text x="361" y="33" fill="black" font-size="14" font-family="Helvetica">
Entries 
</text>
<text x="508" y="33" fill="black" font-size="14" font-family="Helvetica">
 2959
</text>
<text x="374" y="52" fill="black" font-size="14" font-family="Helvetica">
 / ndf 
</text>
<text x="369" y="41" fill="black" font-size="9" font-family="Helvetica">
2
</text>
<text x="361" y="52" fill="black" font-size="14" font-family="Times">
&#0967;
</text>
<text x="458" y="50" fill="black" font-size="14" font-family="Helvetica">
 573.8 / 1245
</text>
<text x="375" y="63" fill="black" font-size="14" font-family="Helvetica">
    
</text>
<text x="372" y="71" fill="black" font-size="9" font-family="Helvetica">
f
</text>
<text x="361" y="63" fill="black" font-size="14" font-family="Helvetica">
N
</text>
<text x="512" y="67" fill="black" font-size="14" font-family="Helvetica">
 0.59
</text>
<text x="500" y="67" fill="black" font-size="14" font-family="Times">
&#0177;
</text>
<text x="454" y="67" fill="black" font-size="14" font-family="Helvetica">
 22.36 
</text>
<text x="369" y="80" fill="black" font-size="14" font-family="Helvetica">
 
</text>
<text x="367" y="90" fill="black" font-size="9" font-family="Helvetica">
f
</text>
<text x="361" y="80" fill="black" font-size="14" font-family="Times">
&#0964;
</text>
<text x="512" y="84" fill="black" font-size="14" font-family="Helvetica">
 40.0
</text>
<text x="500" y="84" fill="black" font-size="14" font-family="Times">
&#0177;
</text>
<text x="454" y="84" fill="black" font-size="14" font-family="Helvetica">
  2165 
</text>
<path d="M57,295h 453" fill="none" stroke="black"/>
<text x="462" y="317" fill="black" font-size="11" font-family="Helvetica">
Time (ns)
</text>
<path d="M57,287v 8" fill="none" stroke="black"/>
<path d="M68,291v 4" fill="none" stroke="black"/>
<path d="M79,291v 4" fill="none" stroke="black"/>
<path d="M91,291v 4" fill="none" stroke="black"/>
<path d="M102,291v 4" fill="none" stroke="black"/>
<path d="M113,287v 8" fill="none" stroke="black"/>
<path d="M125,291v 4" fill="none" stroke="black"/>
<path d="M136,291v 4" fill="none" stroke="black"/>
<path d="M147,291v 4" fill="none" stroke="black"/>
<path d="M159,291v 4" fill="none" stroke="black"/>
<path d="M170,287v 8" fill="none" stroke="black"/>
<path d="M181,291v 4" fill="none" stroke="black"/>
<path d="M193,291v 4" fill="none" stroke="black"/>
<path d="M204,291v 4" fill="none" stroke="black"/>
<path d="M215,291v 4" fill="none" stroke="black"/>
<path d="M227,287v 8" fill="none" stroke="black"/>
<path d="M238,291v 4" fill="none" stroke="black"/>
<path d="M249,291v 4" fill="none" stroke="black"/>
<path d="M261,291v 4" fill="none" stroke="black"/>
<path d="M272,291v 4" fill="none" stroke="black"/>
<path d="M283,287v 8" fill="none" stroke="black"/>
<path d="M295,291v 4" fill="none" stroke="black"/>
<path d="M306,291v 4" fill="none" stroke="black"/>
<path d="M317,291v 4" fill="none" stroke="black"/>
<path d="M329,291v 4" fill="none" stroke="black"/>
<path d="M340,287v 8" fill="none" stroke="black"/>
<path d="M351,291v 4" fill="none" stroke="black"/>
<path d="M363,291v 4" fill="none" stroke="black"/>
<path d="M374,291v 4" fill="none" stroke="black"/>
<path d="M386,291v 4" fill="none" stroke="black"/>
<path d="M397,287v 8" fill="none" stroke="black"/>
<path d="M408,291v 4" fill="none" stroke="black"/>
<path d="M420,291v 4" fill="none" stroke="black"/>
<path d="M431,291v 4" fill="none" stroke="black"/>
<path d="M442,291v 4" fill="none" stroke="black"/>
<path d="M454,287v 8" fill="none" stroke="black"/>
<path d="M465,291v 4" fill="none" stroke="black"/>
<path d="M476,291v 4" fill="none" stroke="black"/>
<path d="M488,291v 4" fill="none" stroke="black"/>
<path d="M499,291v 4" fill="none" stroke="black"/>
<path d="M510,287v 8" fill="none" stroke="black"/>
<text x="39" y="306" fill="black" font-size="11" font-family="Helvetica">
-20000
</text>
<text x="95" y="306" fill="black" font-size="11" font-family="Helvetica">
-15000
</text>
<text x="152" y="306" fill="black" font-size="11" font-family="Helvetica">
-10000
</text>
<text x="212" y="306" fill="black" font-size="11" font-family="Helvetica">
-5000
</text>
<text x="280" y="306" fill="black" font-size="11" font-family="Helvetica">
0
</text>
<text x="327" y="306" fill="black" font-size="11" font-family="Helvetica">
5000
</text>
<text x="381" y="306" fill="black" font-size="11" font-family="Helvetica">
10000
</text>
<text x="437" y="306" fill="black" font-size="11" font-family="Helvetica">
15000
</text>
<text x="494" y="306" fill="black" font-size="11" font-family="Helvetica">
20000
</text>
<path d="M57,295v -262" fill="none" stroke="black"/>
<g transform="rotate(-90,29,63)">
<text x="29" y="63" fill="black" font-size="11" font-family="Helvetica">
Count
</text>
</g>
<path d="M70,295h -13" fill="none" stroke="black"/>
<path d="M63,287h -6" fill="none" stroke="black"/>
<path d="M63,278h -6" fill="none" stroke="black"/>
<path d="M63,269h -6" fill="none" stroke="black"/>
<path d="M63,261h -6" fill="none" stroke="black"/>
<path d="M70,252h -13" fill="none" stroke="black"/>
<path d="M63,243h -6" fill="none" stroke="black"/>
<path d="M63,235h -6" fill="none" stroke="black"/>
<path d="M63,226h -6" fill="none" stroke="black"/>
<path d="M63,218h -6" fill="none" stroke="black"/>
<path d="M70,209h -13" fill="none" stroke="black"/>
<path d="M63,200h -6" fill="none" stroke="black"/>
<path d="M63,192h -6" fill="none" stroke="black"/>
<path d="M63,183h -6" fill="none" stroke="black"/>
<path d="M63,174h -6" fill="none" stroke="black"/>
<path d="M70,166h -13" fill="none" stroke="black"/>
<path d="M63,157h -6" fill="none" stroke="black"/>
<path d="M63,149h -6" fill="none" stroke="black"/>
<path d="M63,140h -6" fill="none" stroke="black"/>
<path d="M63,131h -6" fill="none" stroke="black"/>
<path d="M70,123h -13" fill="none" stroke="black"/>
<path d="M63,114h -6" fill="none" stroke="black"/>
<path d="M63,105h -6" fill="none" stroke="black"/>
<path d="M63,97h -6" fill="none" stroke="black"/>
<path d="M63,88h -6" fill="none" stroke="black"/>
<path d="M70,80h -13" fill="none" stroke="black"/>
<path d="M63,71h -6" fill="none" stroke="black"/>
<path d="M63,62h -6" fill="none" stroke="black"/>
<path d="M63,54h -6" fill="none" stroke="black"/>
<path d="M63,45h -6" fill="none" stroke="black"/>
<path d="M70,36h -13" fill="none" stroke="black"/>
<path d="M70,36h -13" fill="none" stroke="black"/>
<text x="48" y="299" fill="black" font-size="11" font-family="Helvetica">
0
</text>
<text x="48" y="256" fill="black" font-size="11" font-family="Helvetica">
5
</text>
<text x="41" y="212" fill="black" font-size="11" font-family="Helvetica">
10
</text>
<text x="41" y="169" fill="black" font-size="11" font-family="Helvetica">
15
</text>
<text x="41" y="126" fill="black" font-size="11" font-family="Helvetica">
20
</text>
<text x="41" y="83" fill="black" font-size="11" font-family="Helvetica">
25
</text>
<text x="41" y="40" fill="black" font-size="11" font-family="Helvetica">
30
</text>
<rect x="351" y="21" width="205" height="66" fill="white"/>
<path d="M351,87h 205" fill="none" stroke="black"/>
<path d="M556,87v -66" fill="none" stroke="black"/>
<path d="M556,21h -205" fill="none" stroke="black"/>
<path d="M351,21v 66" fill="none" stroke="black"/>
<text x="361" y="33" fill="black" font-size="14" font-family="Helvetica">
Entries 
</text>
<text x="508" y="33" fill="black" font-size="14" font-family="Helvetica">
 2959
</text>
<text x="374" y="52" fill="black" font-size="14" font-family="Helvetica">
 / ndf 
</text>
<text x="369" y="41" fill="black" font-size="9" font-family="Helvetica">
2
</text>
<text x="361" y="52" fill="black" font-size="14" font-family="Times">
&#0967;
</text>
<text x="458" y="50" fill="black" font-size="14" font-family="Helvetica">
 573.8 / 1245
</text>
<text x="375" y="63" fill="black" font-size="14" font-family="Helvetica">
    
</text>
<text x="372" y="71" fill="black" font-size="9" font-family="Helvetica">
f
</text>
<text x="361" y="63" fill="black" font-size="14" font-family="Helvetica">
N
</text>
<text x="512" y="67" fill="black" font-size="14" font-family="Helvetica">
 0.59
</text>
<text x="500" y="67" fill="black" font-size="14" font-family="Times">
&#0177;
</text>
<text x="454" y="67" fill="black" font-size="14" font-family="Helvetica">
 22.36 
</text>
<text x="369" y="80" fill="black" font-size="14" font-family="Helvetica">
 
</text>
<text x="367" y="90" fill="black" font-size="9" font-family="Helvetica">
f
</text>
<text x="361" y="80" fill="black" font-size="14" font-family="Times">
&#0964;
</text>
<text x="512" y="84" fill="black" font-size="14" font-family="Helvetica">
 40.0
</text>
<text x="500" y="84" fill="black" font-size="14" font-family="Times">
&#0177;
</text>
<text x="454" y="84" fill="black" font-size="14" font-family="Helvetica">
  2165 
</text>
<text x="98" y="17" fill="black" font-size="16" font-family="Helvetica">
final_st_Copper_0.5mm_deg_5mm_Aluminium
</text></svg>
