<?xml version="1.0" standalone="no"?>
<svg width="567" height="328" viewBox="0 0 567 328" xmlns="http://www.w3.org/2000/svg">
<title>
images/g4bl_sim_mu-_5mm_Air_loose_f_16ns_bins.svg
</title>
<desc>
Creator: ROOT Version 5.34/05
CreationDate: Mon Jun 17 14:47:55 2013</desc>
<defs>
</defs>
<rect x="0" y="0" width="567" height="328" fill="white"/>
<rect x="57" y="33" width="453" height="262" fill="white"/>
<rect x="57" y="33" width="453" height="262" fill="none" stroke="black"/>
<rect x="57" y="33" width="453" height="262" fill="white"/>
<rect x="57" y="33" width="453" height="262" fill="none" stroke="black"/>
<path d="M57,295h 227v -125v 63h 1v -63v 125v -250v 125h 1v 125v -125v 63v -125h 1v 187v -125v 63h 1v -63v 125v -187h 1v 187v -250v 188v -125v 62h 1v 125v -187v 125v -63h 1v 125v -187h 1v 125v -63v 63v -63v 63h 1v 62v -62v 62h 1v -62v 62v -125h 1v
 63v -63v 63h 1v -63v 125v -125v 125v -62h 1v 62v -125v 63v -63v 63h 2v 62h 1v -62v 62v -125v 63h 1v 62v -250h 1v 188v -125v 187v -187h 1v 187v -62h 1v 62v -125v 125h 1v -62v 62v -62v 62h 1v -62v 62h 1v -62v 62v -62h 1v 62v -62v 62h 1v -62v 62v -62v
 62h 1v -125v 125h 1v -62v 62h 1v -125v 125h 1v -125h 1v 125v -62v 62h 1v -62h 1v 62v -62v 62h 1v -62v 62h 1v -62h 1v 62v -62v 62v -62v 62h 1v -62v 62h 1v -62v 62h 1v -62v 62h 1v -62v 62h 1v -62v 62v -62h 1v 62v -62v 62h 1v -62v 62v -62v 62h 5v -62v
 62h 1v -62h 1v 62h 1v -125v 125h 3v -125v 125h 1v -62v 62h 3v -62v 62h 1v -62v 62h 1v -62h 1v -63v 125v -125v 125h 1v -62v 62h 3v -62v 62h 6v -62v 62h 1v -62v 62h 4v -62v 62h 4v -62v 62h 4v -62v 62h 2v -62v 62v -62h 1v 62h 2v -62v 62h 1v -62v 62h
 11v -62v 62h 20v -62h 1v 62h 8v -62v 62h 9v -62v 62h 88" fill="none" stroke="#000099"/>
<path d="M285,182l 2, 25l 3, 13l 2, 8l 2, 6l 2, 6l 3, 5l 2, 5l 2, 4l 3, 4l 2, 3l 2, 3l 2, 3l 3, 2l 2, 3l 2, 2l 2, 2l 3, 2l 2, 1l 2, 2l 2, 1l 3, 1l 2, 1l 2, 1l 2, 1l 3, 1l 2, 1h 2l 2, 1l 3, 1h 2l 2, 1h 5l 2, 1h 5l 2, 1h 9l 2, 1h 16" fill="none"
 stroke="#ff0000" stroke-width="2"/>
<path d="M396,294h 5l 2, 1h 104" fill="none" stroke="#ff0000" stroke-width="2"/>
<path d="M507,295h 2" fill="none" stroke="#ff0000" stroke-width="2"/>
<rect x="351" y="21" width="205" height="92" fill="white"/>
<path d="M351,113h 205" fill="none" stroke="black"/>
<path d="M556,113v -92" fill="none" stroke="black"/>
<path d="M556,21h -205" fill="none" stroke="black"/>
<path d="M351,21v 92" fill="none" stroke="black"/>
<text x="361" y="33" fill="black" font-size="13" font-family="Helvetica">
Entries 
</text>
<text x="518" y="33" fill="black" font-size="13" font-family="Helvetica">
 202
</text>
<text x="373" y="50" fill="black" font-size="13" font-family="Helvetica">
 / ndf 
</text>
<text x="368" y="39" fill="black" font-size="9" font-family="Helvetica">
2
</text>
<text x="361" y="50" fill="black" font-size="13" font-family="Times">
&#0967;
</text>
<text x="464" y="48" fill="black" font-size="13" font-family="Helvetica">
 122.5 / 1243
</text>
<text x="381" y="60" fill="black" font-size="13" font-family="Helvetica">
   
</text>
<text x="371" y="67" fill="black" font-size="9" font-family="Helvetica">
cu
</text>
<text x="361" y="60" fill="black" font-size="13" font-family="Helvetica">
N
</text>
<text x="522" y="64" fill="black" font-size="13" font-family="Helvetica">
 1.0
</text>
<text x="512" y="64" fill="black" font-size="13" font-family="Times">
&#0177;
</text>
<text x="481" y="64" fill="black" font-size="13" font-family="Helvetica">
     1 
</text>
<text x="376" y="77" fill="black" font-size="13" font-family="Helvetica">
 
</text>
<text x="367" y="85" fill="black" font-size="9" font-family="Helvetica">
cu
</text>
<text x="361" y="77" fill="black" font-size="13" font-family="Times">
&#0964;
</text>
<text x="522" y="80" fill="black" font-size="13" font-family="Helvetica">
 1.4
</text>
<text x="512" y="80" fill="black" font-size="13" font-family="Times">
&#0177;
</text>
<text x="469" y="80" fill="black" font-size="13" font-family="Helvetica">
 164.5 
</text>
<text x="374" y="90" fill="black" font-size="13" font-family="Helvetica">
    
</text>
<text x="371" y="98" fill="black" font-size="9" font-family="Helvetica">
f
</text>
<text x="361" y="90" fill="black" font-size="13" font-family="Helvetica">
N
</text>
<text x="515" y="95" fill="black" font-size="13" font-family="Helvetica">
 0.16
</text>
<text x="504" y="95" fill="black" font-size="13" font-family="Times">
&#0177;
</text>
<text x="466" y="95" fill="black" font-size="13" font-family="Helvetica">
  1.52 
</text>
<text x="369" y="107" fill="black" font-size="13" font-family="Helvetica">
 
</text>
<text x="367" y="115" fill="black" font-size="9" font-family="Helvetica">
f
</text>
<text x="361" y="107" fill="black" font-size="13" font-family="Times">
&#0964;
</text>
<text x="507" y="110" fill="black" font-size="13" font-family="Helvetica">
 152.8
</text>
<text x="496" y="110" fill="black" font-size="13" font-family="Times">
&#0177;
</text>
<text x="454" y="110" fill="black" font-size="13" font-family="Helvetica">
  2098 
</text>
<path d="M57,295h 453" fill="none" stroke="black"/>
<text x="462" y="317" fill="black" font-size="11" font-family="Helvetica">
Time (ns)
</text>
<path d="M57,287v 8" fill="none" stroke="black"/>
<path d="M68,291v 4" fill="none" stroke="black"/>
<path d="M79,291v 4" fill="none" stroke="black"/>
<path d="M91,291v 4" fill="none" stroke="black"/>
<path d="M102,291v 4" fill="none" stroke="black"/>
<path d="M113,287v 8" fill="none" stroke="black"/>
<path d="M125,291v 4" fill="none" stroke="black"/>
<path d="M136,291v 4" fill="none" stroke="black"/>
<path d="M147,291v 4" fill="none" stroke="black"/>
<path d="M159,291v 4" fill="none" stroke="black"/>
<path d="M170,287v 8" fill="none" stroke="black"/>
<path d="M181,291v 4" fill="none" stroke="black"/>
<path d="M193,291v 4" fill="none" stroke="black"/>
<path d="M204,291v 4" fill="none" stroke="black"/>
<path d="M215,291v 4" fill="none" stroke="black"/>
<path d="M227,287v 8" fill="none" stroke="black"/>
<path d="M238,291v 4" fill="none" stroke="black"/>
<path d="M249,291v 4" fill="none" stroke="black"/>
<path d="M261,291v 4" fill="none" stroke="black"/>
<path d="M272,291v 4" fill="none" stroke="black"/>
<path d="M283,287v 8" fill="none" stroke="black"/>
<path d="M295,291v 4" fill="none" stroke="black"/>
<path d="M306,291v 4" fill="none" stroke="black"/>
<path d="M317,291v 4" fill="none" stroke="black"/>
<path d="M329,291v 4" fill="none" stroke="black"/>
<path d="M340,287v 8" fill="none" stroke="black"/>
<path d="M351,291v 4" fill="none" stroke="black"/>
<path d="M363,291v 4" fill="none" stroke="black"/>
<path d="M374,291v 4" fill="none" stroke="black"/>
<path d="M386,291v 4" fill="none" stroke="black"/>
<path d="M397,287v 8" fill="none" stroke="black"/>
<path d="M408,291v 4" fill="none" stroke="black"/>
<path d="M420,291v 4" fill="none" stroke="black"/>
<path d="M431,291v 4" fill="none" stroke="black"/>
<path d="M442,291v 4" fill="none" stroke="black"/>
<path d="M454,287v 8" fill="none" stroke="black"/>
<path d="M465,291v 4" fill="none" stroke="black"/>
<path d="M476,291v 4" fill="none" stroke="black"/>
<path d="M488,291v 4" fill="none" stroke="black"/>
<path d="M499,291v 4" fill="none" stroke="black"/>
<path d="M510,287v 8" fill="none" stroke="black"/>
<text x="39" y="306" fill="black" font-size="11" font-family="Helvetica">
-20000
</text>
<text x="95" y="306" fill="black" font-size="11" font-family="Helvetica">
-15000
</text>
<text x="152" y="306" fill="black" font-size="11" font-family="Helvetica">
-10000
</text>
<text x="212" y="306" fill="black" font-size="11" font-family="Helvetica">
-5000
</text>
<text x="280" y="306" fill="black" font-size="11" font-family="Helvetica">
0
</text>
<text x="327" y="306" fill="black" font-size="11" font-family="Helvetica">
5000
</text>
<text x="381" y="306" fill="black" font-size="11" font-family="Helvetica">
10000
</text>
<text x="437" y="306" fill="black" font-size="11" font-family="Helvetica">
15000
</text>
<text x="494" y="306" fill="black" font-size="11" font-family="Helvetica">
20000
</text>
<path d="M57,295v -262" fill="none" stroke="black"/>
<g transform="rotate(-90,29,63)">
<text x="29" y="63" fill="black" font-size="11" font-family="Helvetica">
Count
</text>
</g>
<path d="M70,295h -13" fill="none" stroke="black"/>
<path d="M63,289h -6" fill="none" stroke="black"/>
<path d="M63,283h -6" fill="none" stroke="black"/>
<path d="M63,276h -6" fill="none" stroke="black"/>
<path d="M63,270h -6" fill="none" stroke="black"/>
<path d="M70,264h -13" fill="none" stroke="black"/>
<path d="M63,258h -6" fill="none" stroke="black"/>
<path d="M63,251h -6" fill="none" stroke="black"/>
<path d="M63,245h -6" fill="none" stroke="black"/>
<path d="M63,239h -6" fill="none" stroke="black"/>
<path d="M70,233h -13" fill="none" stroke="black"/>
<path d="M63,226h -6" fill="none" stroke="black"/>
<path d="M63,220h -6" fill="none" stroke="black"/>
<path d="M63,214h -6" fill="none" stroke="black"/>
<path d="M63,208h -6" fill="none" stroke="black"/>
<path d="M70,201h -13" fill="none" stroke="black"/>
<path d="M63,195h -6" fill="none" stroke="black"/>
<path d="M63,189h -6" fill="none" stroke="black"/>
<path d="M63,183h -6" fill="none" stroke="black"/>
<path d="M63,176h -6" fill="none" stroke="black"/>
<path d="M70,170h -13" fill="none" stroke="black"/>
<path d="M63,164h -6" fill="none" stroke="black"/>
<path d="M63,158h -6" fill="none" stroke="black"/>
<path d="M63,151h -6" fill="none" stroke="black"/>
<path d="M63,145h -6" fill="none" stroke="black"/>
<path d="M70,139h -13" fill="none" stroke="black"/>
<path d="M63,133h -6" fill="none" stroke="black"/>
<path d="M63,126h -6" fill="none" stroke="black"/>
<path d="M63,120h -6" fill="none" stroke="black"/>
<path d="M63,114h -6" fill="none" stroke="black"/>
<path d="M70,108h -13" fill="none" stroke="black"/>
<path d="M63,101h -6" fill="none" stroke="black"/>
<path d="M63,95h -6" fill="none" stroke="black"/>
<path d="M63,89h -6" fill="none" stroke="black"/>
<path d="M63,83h -6" fill="none" stroke="black"/>
<path d="M70,76h -13" fill="none" stroke="black"/>
<path d="M63,70h -6" fill="none" stroke="black"/>
<path d="M63,64h -6" fill="none" stroke="black"/>
<path d="M63,58h -6" fill="none" stroke="black"/>
<path d="M63,51h -6" fill="none" stroke="black"/>
<path d="M70,45h -13" fill="none" stroke="black"/>
<path d="M70,45h -13" fill="none" stroke="black"/>
<path d="M63,39h -6" fill="none" stroke="black"/>
<path d="M63,33h -6" fill="none" stroke="black"/>
<text x="48" y="299" fill="black" font-size="11" font-family="Helvetica">
0
</text>
<text x="38" y="267" fill="black" font-size="11" font-family="Helvetica">
0.5
</text>
<text x="48" y="236" fill="black" font-size="11" font-family="Helvetica">
1
</text>
<text x="38" y="205" fill="black" font-size="11" font-family="Helvetica">
1.5
</text>
<text x="48" y="174" fill="black" font-size="11" font-family="Helvetica">
2
</text>
<text x="38" y="142" fill="black" font-size="11" font-family="Helvetica">
2.5
</text>
<text x="48" y="111" fill="black" font-size="11" font-family="Helvetica">
3
</text>
<text x="38" y="80" fill="black" font-size="11" font-family="Helvetica">
3.5
</text>
<text x="48" y="48" fill="black" font-size="11" font-family="Helvetica">
4
</text>
<rect x="351" y="21" width="205" height="92" fill="white"/>
<path d="M351,113h 205" fill="none" stroke="black"/>
<path d="M556,113v -92" fill="none" stroke="black"/>
<path d="M556,21h -205" fill="none" stroke="black"/>
<path d="M351,21v 92" fill="none" stroke="black"/>
<text x="361" y="33" fill="black" font-size="13" font-family="Helvetica">
Entries 
</text>
<text x="518" y="33" fill="black" font-size="13" font-family="Helvetica">
 202
</text>
<text x="373" y="50" fill="black" font-size="13" font-family="Helvetica">
 / ndf 
</text>
<text x="368" y="39" fill="black" font-size="9" font-family="Helvetica">
2
</text>
<text x="361" y="50" fill="black" font-size="13" font-family="Times">
&#0967;
</text>
<text x="464" y="48" fill="black" font-size="13" font-family="Helvetica">
 122.5 / 1243
</text>
<text x="381" y="60" fill="black" font-size="13" font-family="Helvetica">
   
</text>
<text x="371" y="67" fill="black" font-size="9" font-family="Helvetica">
cu
</text>
<text x="361" y="60" fill="black" font-size="13" font-family="Helvetica">
N
</text>
<text x="522" y="64" fill="black" font-size="13" font-family="Helvetica">
 1.0
</text>
<text x="512" y="64" fill="black" font-size="13" font-family="Times">
&#0177;
</text>
<text x="481" y="64" fill="black" font-size="13" font-family="Helvetica">
     1 
</text>
<text x="376" y="77" fill="black" font-size="13" font-family="Helvetica">
 
</text>
<text x="367" y="85" fill="black" font-size="9" font-family="Helvetica">
cu
</text>
<text x="361" y="77" fill="black" font-size="13" font-family="Times">
&#0964;
</text>
<text x="522" y="80" fill="black" font-size="13" font-family="Helvetica">
 1.4
</text>
<text x="512" y="80" fill="black" font-size="13" font-family="Times">
&#0177;
</text>
<text x="469" y="80" fill="black" font-size="13" font-family="Helvetica">
 164.5 
</text>
<text x="374" y="90" fill="black" font-size="13" font-family="Helvetica">
    
</text>
<text x="371" y="98" fill="black" font-size="9" font-family="Helvetica">
f
</text>
<text x="361" y="90" fill="black" font-size="13" font-family="Helvetica">
N
</text>
<text x="515" y="95" fill="black" font-size="13" font-family="Helvetica">
 0.16
</text>
<text x="504" y="95" fill="black" font-size="13" font-family="Times">
&#0177;
</text>
<text x="466" y="95" fill="black" font-size="13" font-family="Helvetica">
  1.52 
</text>
<text x="369" y="107" fill="black" font-size="13" font-family="Helvetica">
 
</text>
<text x="367" y="115" fill="black" font-size="9" font-family="Helvetica">
f
</text>
<text x="361" y="107" fill="black" font-size="13" font-family="Times">
&#0964;
</text>
<text x="507" y="110" fill="black" font-size="13" font-family="Helvetica">
 152.8
</text>
<text x="496" y="110" fill="black" font-size="13" font-family="Times">
&#0177;
</text>
<text x="454" y="110" fill="black" font-size="13" font-family="Helvetica">
  2098 
</text>
<text x="125" y="17" fill="black" font-size="17" font-family="Helvetica">
final_st_Copper_0.5mm_deg_5mm_Air
</text></svg>
