<?xml version="1.0" standalone="no"?>
<svg width="567" height="328" viewBox="0 0 567 328" xmlns="http://www.w3.org/2000/svg">
<title>
images/g4bl_sim_mu+_0.5mm_Aluminium_loose_f_16ns_bins.svg
</title>
<desc>
Creator: ROOT Version 5.34/05
CreationDate: Mon Jun 17 16:31:03 2013</desc>
<defs>
</defs>
<rect x="0" y="0" width="567" height="328" fill="white"/>
<rect x="57" y="33" width="453" height="262" fill="white"/>
<rect x="57" y="33" width="453" height="262" fill="none" stroke="black"/>
<rect x="57" y="33" width="453" height="262" fill="white"/>
<rect x="57" y="33" width="453" height="262" fill="none" stroke="black"/>
<path d="M57,295h 227v -183v 31v -19h 1v 55v -61v 19v -67v 18h 1v 36v -42v 12v -49v 12h 1v 55v -24v 61v -79v 42h 1v -24v 61v -43v 73h 1v -24v 30v -103v 79h 1v -37v 13v -13v 19h 1v 30v -85v 110v -104v 61h 1v 43v -98v 67v -30h 1v -37v 67v -30v 48h 1v
 -61v 49v -30h 1v 61v -43v 61h 1v -67v 6v -37h 1v 31v -6v 24v -12v 12h 1v 37v -49v 37v -61h 1v 79v -43v 37h 1v -49v 12h 1v 12v -18v 43v -49h 1v 73v -55v 43v -24h 1v -31v 37v -31v 67h 1v -55v 43v -79v 24h 1v 55v -49v 67h 1v -91v 79v -30h 1v 48v -54v
 36h 1v -61v 73v -48v 30h 1v -24v 30v -18v 18h 1v -61v 79v -42v 36v -18h 1v -43v 55v -12v 31h 1v -49v 55v -61h 1v 24v -37v 37h 1v 31v -7v 7v -61v 36h 1v -24v 42v -36v 36v -42h 1v 18v -18v 30v -18h 1v 24v -30v 49h 1v -6v 12v -31v 12h 1v -6v 19v -25h
 1v 12v -24v 37v -37h 1v 49v -55v 12h 1v 37v -25v 31v -31h 1v 6v -12v 19v -19h 1v 37v -31v 25h 1v 18v -43v 43v -37h 1v -12v 37v -18v 12h 1v -25v 37v -31h 1v 7v -13v 13v -31v 31h 1v -19v 12v -18v 25h 1v 18v -25v 31v -31h 1v -24v 49v -12v 18h 1v 6v
 -30v 6h 1v 12v -18h 1v 18v -12v 12v -12h 1v 18v -18v 18v -49v 55h 1v -12v 6v -24h 1v -7v 37v -12v 6h 1v -24v 24v -18v 12h 1v 18v -18h 1v 6v -18v 18h 1v -12v 6h 1v -12v 18v -18h 1v 6v -6v 24v -18h 1v 12v -12v 24v -49h 1v 37v -6v 6v -6v 18h 1v -24v 6v
 -12v 6v -6v 6h 1v 18v -24v 24h 1v 6v -12v 12v -24v 12h 1v 6v -12h 1v -6v 24v -12v 6h 1v -12v 12v -6v 12h 1v -18v 6h 1v -12v 18v -6v 6v -12v 6h 1v 12v -24v 24v -6h 1v -12v 12v -6v 6v -6h 1v -6v 12v -12v 18h 1v -18v 12v -24h 1v 30v -6v 6h 1v -6v 6v
 -6h 1v -24v 24v -18h 1v 18v -12v 6v -6h 1v 18v -24v 24v -12h 1v 12v -12h 1v 12v -6v 6v -18h 1v 12v -6v 12v -24v 6h 1v 12v -6v 6h 1v -6v 12v -12h 1v -6v 12h 1v 6v -6v 6v -18v 12h 1v 6v -6v 6h 1v -6v 6v -6h 1v -12v 12v -12h 1v 18v -12v 12v -6v 6h 1v
 -6v 6v -6h 1v 6v -12v 12v -12h 1v 12v -12v 12v -6v 6h 1v -6v 6v -12v 12h 1v -12v 12v -12v 12h 1v -6v 6h 1v -18v 12v -12v 12h 1v -6v 12v -6h 1v 6h 1v -12v 12v -6h 1v 6v -12v 12h 1v -12v 6v -6h 1v 12v -12v 12v -6h 1v 6v -12v 12h 1v -6v 6h 1v -6v 6v
 -6h 1v 6v -6v 6h 1v -18v 18h 1v -6v 6h 1v -6h 1v 6v -6v 6h 1v -6v 6h 2v -12v 12h 1v -6v 6v -6h 1v 6v -12v 12h 1v -6v 6v -6h 1v 6v -6v 6h 1v -6v 6h 1v -12v 12v -6v 6h 1v -6v 6h 2v -6v 6h 1v -6h 1v 6v -6v 6h 1v -6h 1v 6v -6v 6h 1v -6h 1v 6v -12h 1v
 12h 1v -6v 6h 1v -6v 6v -6h 1v 6v -6v 6h 5v -6v 6h 2v -6v 6h 1v -6v 6v -6v 6h 2v -6v 6h 1v -6v 6h 1v -6v 6h 4v -6v 6v -6v 6h 1v -6v 6h 1v -6h 1v 6v -6v 6h 2v -6v 6h 6v -6v 6h 3v -6v 6h 2v -6v 6h 1v -6v 6h 4v -6v 6h 4v -6v 6h 4v -6v 6h 8v -6v 6h 3v
 -6v 6h 15v -6v 6h 5v -6v 6h 18" fill="none" stroke="#000099"/>
<path d="M285,102l 2, 16l 3, 16l 2, 14l 2, 13l 2, 11l 3, 11l 2, 10l 2, 8l 3, 9l 2, 7l 2, 7l 2, 6l 3, 6l 2, 5l 2, 5l 2, 4l 3, 4l 2, 3l 2, 4l 2, 3l 3, 2l 2, 3l 2, 2l 2, 2l 3, 2l 2, 2l 2, 1l 2, 2l 3, 1l 2, 1l 2, 2l 3, 1h 2l 2, 1l 2, 1l 3, 1h 2l 2, 1l 2,
 1h 5l 2, 1h 2l 3, 1h 6l 3, 1h 2" fill="none" stroke="#ff0000" stroke-width="2"/>
<path d="M396,293h 7l 2, 1h 20l 3, 1h 79" fill="none" stroke="#ff0000" stroke-width="2"/>
<path d="M507,295h 2" fill="none" stroke="#ff0000" stroke-width="2"/>
<rect x="351" y="21" width="205" height="66" fill="white"/>
<path d="M351,87h 205" fill="none" stroke="black"/>
<path d="M556,87v -66" fill="none" stroke="black"/>
<path d="M556,21h -205" fill="none" stroke="black"/>
<path d="M351,21v 66" fill="none" stroke="black"/>
<text x="361" y="33" fill="black" font-size="14" font-family="Helvetica">
Entries 
</text>
<text x="508" y="33" fill="black" font-size="14" font-family="Helvetica">
 4570
</text>
<text x="374" y="52" fill="black" font-size="14" font-family="Helvetica">
 / ndf 
</text>
<text x="369" y="41" fill="black" font-size="9" font-family="Helvetica">
2
</text>
<text x="361" y="52" fill="black" font-size="14" font-family="Times">
&#0967;
</text>
<text x="462" y="50" fill="black" font-size="14" font-family="Helvetica">
   736 / 1245
</text>
<text x="375" y="63" fill="black" font-size="14" font-family="Helvetica">
    
</text>
<text x="372" y="71" fill="black" font-size="9" font-family="Helvetica">
f
</text>
<text x="361" y="63" fill="black" font-size="14" font-family="Helvetica">
N
</text>
<text x="512" y="67" fill="black" font-size="14" font-family="Helvetica">
 0.72
</text>
<text x="500" y="67" fill="black" font-size="14" font-family="Times">
&#0177;
</text>
<text x="454" y="67" fill="black" font-size="14" font-family="Helvetica">
 33.98 
</text>
<text x="369" y="80" fill="black" font-size="14" font-family="Helvetica">
 
</text>
<text x="367" y="90" fill="black" font-size="9" font-family="Helvetica">
f
</text>
<text x="361" y="80" fill="black" font-size="14" font-family="Times">
&#0964;
</text>
<text x="512" y="84" fill="black" font-size="14" font-family="Helvetica">
 32.7
</text>
<text x="500" y="84" fill="black" font-size="14" font-family="Times">
&#0177;
</text>
<text x="454" y="84" fill="black" font-size="14" font-family="Helvetica">
  2199 
</text>
<path d="M57,295h 453" fill="none" stroke="black"/>
<text x="462" y="317" fill="black" font-size="11" font-family="Helvetica">
Time (ns)
</text>
<path d="M57,287v 8" fill="none" stroke="black"/>
<path d="M68,291v 4" fill="none" stroke="black"/>
<path d="M79,291v 4" fill="none" stroke="black"/>
<path d="M91,291v 4" fill="none" stroke="black"/>
<path d="M102,291v 4" fill="none" stroke="black"/>
<path d="M113,287v 8" fill="none" stroke="black"/>
<path d="M125,291v 4" fill="none" stroke="black"/>
<path d="M136,291v 4" fill="none" stroke="black"/>
<path d="M147,291v 4" fill="none" stroke="black"/>
<path d="M159,291v 4" fill="none" stroke="black"/>
<path d="M170,287v 8" fill="none" stroke="black"/>
<path d="M181,291v 4" fill="none" stroke="black"/>
<path d="M193,291v 4" fill="none" stroke="black"/>
<path d="M204,291v 4" fill="none" stroke="black"/>
<path d="M215,291v 4" fill="none" stroke="black"/>
<path d="M227,287v 8" fill="none" stroke="black"/>
<path d="M238,291v 4" fill="none" stroke="black"/>
<path d="M249,291v 4" fill="none" stroke="black"/>
<path d="M261,291v 4" fill="none" stroke="black"/>
<path d="M272,291v 4" fill="none" stroke="black"/>
<path d="M283,287v 8" fill="none" stroke="black"/>
<path d="M295,291v 4" fill="none" stroke="black"/>
<path d="M306,291v 4" fill="none" stroke="black"/>
<path d="M317,291v 4" fill="none" stroke="black"/>
<path d="M329,291v 4" fill="none" stroke="black"/>
<path d="M340,287v 8" fill="none" stroke="black"/>
<path d="M351,291v 4" fill="none" stroke="black"/>
<path d="M363,291v 4" fill="none" stroke="black"/>
<path d="M374,291v 4" fill="none" stroke="black"/>
<path d="M386,291v 4" fill="none" stroke="black"/>
<path d="M397,287v 8" fill="none" stroke="black"/>
<path d="M408,291v 4" fill="none" stroke="black"/>
<path d="M420,291v 4" fill="none" stroke="black"/>
<path d="M431,291v 4" fill="none" stroke="black"/>
<path d="M442,291v 4" fill="none" stroke="black"/>
<path d="M454,287v 8" fill="none" stroke="black"/>
<path d="M465,291v 4" fill="none" stroke="black"/>
<path d="M476,291v 4" fill="none" stroke="black"/>
<path d="M488,291v 4" fill="none" stroke="black"/>
<path d="M499,291v 4" fill="none" stroke="black"/>
<path d="M510,287v 8" fill="none" stroke="black"/>
<text x="39" y="306" fill="black" font-size="11" font-family="Helvetica">
-20000
</text>
<text x="95" y="306" fill="black" font-size="11" font-family="Helvetica">
-15000
</text>
<text x="152" y="306" fill="black" font-size="11" font-family="Helvetica">
-10000
</text>
<text x="212" y="306" fill="black" font-size="11" font-family="Helvetica">
-5000
</text>
<text x="280" y="306" fill="black" font-size="11" font-family="Helvetica">
0
</text>
<text x="327" y="306" fill="black" font-size="11" font-family="Helvetica">
5000
</text>
<text x="381" y="306" fill="black" font-size="11" font-family="Helvetica">
10000
</text>
<text x="437" y="306" fill="black" font-size="11" font-family="Helvetica">
15000
</text>
<text x="494" y="306" fill="black" font-size="11" font-family="Helvetica">
20000
</text>
<path d="M57,295v -262" fill="none" stroke="black"/>
<g transform="rotate(-90,29,63)">
<text x="29" y="63" fill="black" font-size="11" font-family="Helvetica">
Count
</text>
</g>
<path d="M70,295h -13" fill="none" stroke="black"/>
<path d="M63,289h -6" fill="none" stroke="black"/>
<path d="M63,283h -6" fill="none" stroke="black"/>
<path d="M63,277h -6" fill="none" stroke="black"/>
<path d="M63,271h -6" fill="none" stroke="black"/>
<path d="M70,265h -13" fill="none" stroke="black"/>
<path d="M63,259h -6" fill="none" stroke="black"/>
<path d="M63,252h -6" fill="none" stroke="black"/>
<path d="M63,246h -6" fill="none" stroke="black"/>
<path d="M63,240h -6" fill="none" stroke="black"/>
<path d="M70,234h -13" fill="none" stroke="black"/>
<path d="M63,228h -6" fill="none" stroke="black"/>
<path d="M63,222h -6" fill="none" stroke="black"/>
<path d="M63,216h -6" fill="none" stroke="black"/>
<path d="M63,210h -6" fill="none" stroke="black"/>
<path d="M70,204h -13" fill="none" stroke="black"/>
<path d="M63,198h -6" fill="none" stroke="black"/>
<path d="M63,191h -6" fill="none" stroke="black"/>
<path d="M63,185h -6" fill="none" stroke="black"/>
<path d="M63,179h -6" fill="none" stroke="black"/>
<path d="M70,173h -13" fill="none" stroke="black"/>
<path d="M63,167h -6" fill="none" stroke="black"/>
<path d="M63,161h -6" fill="none" stroke="black"/>
<path d="M63,155h -6" fill="none" stroke="black"/>
<path d="M63,149h -6" fill="none" stroke="black"/>
<path d="M70,143h -13" fill="none" stroke="black"/>
<path d="M63,137h -6" fill="none" stroke="black"/>
<path d="M63,131h -6" fill="none" stroke="black"/>
<path d="M63,124h -6" fill="none" stroke="black"/>
<path d="M63,118h -6" fill="none" stroke="black"/>
<path d="M70,112h -13" fill="none" stroke="black"/>
<path d="M63,106h -6" fill="none" stroke="black"/>
<path d="M63,100h -6" fill="none" stroke="black"/>
<path d="M63,94h -6" fill="none" stroke="black"/>
<path d="M63,88h -6" fill="none" stroke="black"/>
<path d="M70,82h -13" fill="none" stroke="black"/>
<path d="M63,76h -6" fill="none" stroke="black"/>
<path d="M63,70h -6" fill="none" stroke="black"/>
<path d="M63,63h -6" fill="none" stroke="black"/>
<path d="M63,57h -6" fill="none" stroke="black"/>
<path d="M70,51h -13" fill="none" stroke="black"/>
<path d="M70,51h -13" fill="none" stroke="black"/>
<path d="M63,45h -6" fill="none" stroke="black"/>
<path d="M63,39h -6" fill="none" stroke="black"/>
<path d="M63,33h -6" fill="none" stroke="black"/>
<text x="48" y="299" fill="black" font-size="11" font-family="Helvetica">
0
</text>
<text x="48" y="268" fill="black" font-size="11" font-family="Helvetica">
5
</text>
<text x="41" y="238" fill="black" font-size="11" font-family="Helvetica">
10
</text>
<text x="41" y="207" fill="black" font-size="11" font-family="Helvetica">
15
</text>
<text x="41" y="176" fill="black" font-size="11" font-family="Helvetica">
20
</text>
<text x="41" y="146" fill="black" font-size="11" font-family="Helvetica">
25
</text>
<text x="41" y="115" fill="black" font-size="11" font-family="Helvetica">
30
</text>
<text x="41" y="85" fill="black" font-size="11" font-family="Helvetica">
35
</text>
<text x="41" y="54" fill="black" font-size="11" font-family="Helvetica">
40
</text>
<rect x="351" y="21" width="205" height="66" fill="white"/>
<path d="M351,87h 205" fill="none" stroke="black"/>
<path d="M556,87v -66" fill="none" stroke="black"/>
<path d="M556,21h -205" fill="none" stroke="black"/>
<path d="M351,21v 66" fill="none" stroke="black"/>
<text x="361" y="33" fill="black" font-size="14" font-family="Helvetica">
Entries 
</text>
<text x="508" y="33" fill="black" font-size="14" font-family="Helvetica">
 4570
</text>
<text x="374" y="52" fill="black" font-size="14" font-family="Helvetica">
 / ndf 
</text>
<text x="369" y="41" fill="black" font-size="9" font-family="Helvetica">
2
</text>
<text x="361" y="52" fill="black" font-size="14" font-family="Times">
&#0967;
</text>
<text x="462" y="50" fill="black" font-size="14" font-family="Helvetica">
   736 / 1245
</text>
<text x="375" y="63" fill="black" font-size="14" font-family="Helvetica">
    
</text>
<text x="372" y="71" fill="black" font-size="9" font-family="Helvetica">
f
</text>
<text x="361" y="63" fill="black" font-size="14" font-family="Helvetica">
N
</text>
<text x="512" y="67" fill="black" font-size="14" font-family="Helvetica">
 0.72
</text>
<text x="500" y="67" fill="black" font-size="14" font-family="Times">
&#0177;
</text>
<text x="454" y="67" fill="black" font-size="14" font-family="Helvetica">
 33.98 
</text>
<text x="369" y="80" fill="black" font-size="14" font-family="Helvetica">
 
</text>
<text x="367" y="90" fill="black" font-size="9" font-family="Helvetica">
f
</text>
<text x="361" y="80" fill="black" font-size="14" font-family="Times">
&#0964;
</text>
<text x="512" y="84" fill="black" font-size="14" font-family="Helvetica">
 32.7
</text>
<text x="500" y="84" fill="black" font-size="14" font-family="Times">
&#0177;
</text>
<text x="454" y="84" fill="black" font-size="14" font-family="Helvetica">
  2199 
</text>
<text x="99" y="17" fill="black" font-size="16" font-family="Helvetica">
final_st_Copper_0.5mm_deg_0.5mm_Aluminium
</text></svg>
