<?xml version="1.0" standalone="no"?>
<svg width="567" height="328" viewBox="0 0 567 328" xmlns="http://www.w3.org/2000/svg">
<title>
images/g4bl_sim_mu-_5mm_Aluminium_loose_f_16ns_bins.svg
</title>
<desc>
Creator: ROOT Version 5.34/05
CreationDate: Mon Jun 17 19:05:45 2013</desc>
<defs>
</defs>
<rect x="0" y="0" width="567" height="328" fill="white"/>
<rect x="57" y="33" width="453" height="262" fill="white"/>
<rect x="57" y="33" width="453" height="262" fill="none" stroke="black"/>
<rect x="57" y="33" width="453" height="262" fill="white"/>
<rect x="57" y="33" width="453" height="262" fill="none" stroke="black"/>
<path d="M57,295h 227v -83h 1v 83v -83h 1v 83v -83h 1v 83v -83v 83v -83h 1v -84v 167h 1v -83v 83v -167h 1v 167v -83v 83h 1v -83v 83v -83v 83h 1v -83v 83h 1v -83v 83v -167v 167h 1v -83v 83v -83h 1v 83v -83v 83h 1v -83h 1v 83v -83v 83h 3v -83v 83h 1v
 -250v 250v -83v 83h 1v -83v 83h 1v -83h 1v 83h 1v -83v 83v -83v 83h 1v -83v 83h 1v -83v 83h 2v -83v 83v -83v 83h 1v -83v 83h 1v -83h 1v 83h 1v -83v 83h 1v -83v 83h 1v -83v 83h 1v -83v 83h 1v -167v 167h 1v -83v 83v -167h 1v 167v -83v 83h 1v -83v 83h
 2v -83v 83h 1v -83h 1v 83h 1v -83h 1v 83h 1v -83h 1v 83h 1v -83v 83v -83v 83h 1v -83v 83v -83v 83h 1v -83v 83h 2v -83v 83h 1v -83v 83h 7v -83v 83h 2v -83v 83h 3v -83h 1v 83h 1v -83v 83h 9v -83h 1v 83h 2v -83v 83h 150" fill="none" stroke="#000099"/>
<path d="M285,186l 2, 32l 3, 15l 2, 9l 2, 6l 2, 6l 3, 5l 2, 4l 2, 4l 3, 3l 2, 3l 2, 2l 2, 3l 3, 2l 2, 1l 2, 2l 2, 1l 3, 2l 2, 1l 2, 1l 2, 1h 3l 2, 1l 2, 1h 2l 3, 1h 4l 2, 1h 7l 3, 1h 13l 2, 1h 23" fill="none" stroke="#ff0000" stroke-width="2"/>
<path d="M396,295h 111" fill="none" stroke="#ff0000" stroke-width="2"/>
<path d="M507,295h 2" fill="none" stroke="#ff0000" stroke-width="2"/>
<rect x="351" y="21" width="205" height="92" fill="white"/>
<path d="M351,113h 205" fill="none" stroke="black"/>
<path d="M556,113v -92" fill="none" stroke="black"/>
<path d="M556,21h -205" fill="none" stroke="black"/>
<path d="M351,21v 92" fill="none" stroke="black"/>
<text x="361" y="33" fill="black" font-size="13" font-family="Helvetica">
Entries 
</text>
<text x="526" y="33" fill="black" font-size="13" font-family="Helvetica">
 80
</text>
<text x="373" y="50" fill="black" font-size="13" font-family="Helvetica">
 / ndf 
</text>
<text x="368" y="39" fill="black" font-size="9" font-family="Helvetica">
2
</text>
<text x="361" y="50" fill="black" font-size="13" font-family="Times">
&#0967;
</text>
<text x="464" y="48" fill="black" font-size="13" font-family="Helvetica">
 77.08 / 1243
</text>
<text x="381" y="60" fill="black" font-size="13" font-family="Helvetica">
   
</text>
<text x="371" y="67" fill="black" font-size="9" font-family="Helvetica">
cu
</text>
<text x="361" y="60" fill="black" font-size="13" font-family="Helvetica">
N
</text>
<text x="522" y="64" fill="black" font-size="13" font-family="Helvetica">
 0.1
</text>
<text x="512" y="64" fill="black" font-size="13" font-family="Times">
&#0177;
</text>
<text x="481" y="64" fill="black" font-size="13" font-family="Helvetica">
     1 
</text>
<text x="376" y="77" fill="black" font-size="13" font-family="Helvetica">
 
</text>
<text x="367" y="85" fill="black" font-size="9" font-family="Helvetica">
cu
</text>
<text x="361" y="77" fill="black" font-size="13" font-family="Times">
&#0964;
</text>
<text x="522" y="80" fill="black" font-size="13" font-family="Helvetica">
 1.0
</text>
<text x="512" y="80" fill="black" font-size="13" font-family="Times">
&#0177;
</text>
<text x="469" y="80" fill="black" font-size="13" font-family="Helvetica">
 162.5 
</text>
<text x="374" y="90" fill="black" font-size="13" font-family="Helvetica">
    
</text>
<text x="371" y="98" fill="black" font-size="9" font-family="Helvetica">
f
</text>
<text x="361" y="90" fill="black" font-size="13" font-family="Helvetica">
N
</text>
<text x="522" y="95" fill="black" font-size="13" font-family="Helvetica">
 0.0
</text>
<text x="512" y="95" fill="black" font-size="13" font-family="Times">
&#0177;
</text>
<text x="481" y="95" fill="black" font-size="13" font-family="Helvetica">
     1 
</text>
<text x="369" y="107" fill="black" font-size="13" font-family="Helvetica">
 
</text>
<text x="367" y="115" fill="black" font-size="9" font-family="Helvetica">
f
</text>
<text x="361" y="107" fill="black" font-size="13" font-family="Times">
&#0964;
</text>
<text x="508" y="110" fill="black" font-size="13" font-family="Helvetica">
 114.2
</text>
<text x="497" y="110" fill="black" font-size="13" font-family="Times">
&#0177;
</text>
<text x="455" y="110" fill="black" font-size="13" font-family="Helvetica">
  1630 
</text>
<path d="M57,295h 453" fill="none" stroke="black"/>
<text x="462" y="317" fill="black" font-size="11" font-family="Helvetica">
Time (ns)
</text>
<path d="M57,287v 8" fill="none" stroke="black"/>
<path d="M68,291v 4" fill="none" stroke="black"/>
<path d="M79,291v 4" fill="none" stroke="black"/>
<path d="M91,291v 4" fill="none" stroke="black"/>
<path d="M102,291v 4" fill="none" stroke="black"/>
<path d="M113,287v 8" fill="none" stroke="black"/>
<path d="M125,291v 4" fill="none" stroke="black"/>
<path d="M136,291v 4" fill="none" stroke="black"/>
<path d="M147,291v 4" fill="none" stroke="black"/>
<path d="M159,291v 4" fill="none" stroke="black"/>
<path d="M170,287v 8" fill="none" stroke="black"/>
<path d="M181,291v 4" fill="none" stroke="black"/>
<path d="M193,291v 4" fill="none" stroke="black"/>
<path d="M204,291v 4" fill="none" stroke="black"/>
<path d="M215,291v 4" fill="none" stroke="black"/>
<path d="M227,287v 8" fill="none" stroke="black"/>
<path d="M238,291v 4" fill="none" stroke="black"/>
<path d="M249,291v 4" fill="none" stroke="black"/>
<path d="M261,291v 4" fill="none" stroke="black"/>
<path d="M272,291v 4" fill="none" stroke="black"/>
<path d="M283,287v 8" fill="none" stroke="black"/>
<path d="M295,291v 4" fill="none" stroke="black"/>
<path d="M306,291v 4" fill="none" stroke="black"/>
<path d="M317,291v 4" fill="none" stroke="black"/>
<path d="M329,291v 4" fill="none" stroke="black"/>
<path d="M340,287v 8" fill="none" stroke="black"/>
<path d="M351,291v 4" fill="none" stroke="black"/>
<path d="M363,291v 4" fill="none" stroke="black"/>
<path d="M374,291v 4" fill="none" stroke="black"/>
<path d="M386,291v 4" fill="none" stroke="black"/>
<path d="M397,287v 8" fill="none" stroke="black"/>
<path d="M408,291v 4" fill="none" stroke="black"/>
<path d="M420,291v 4" fill="none" stroke="black"/>
<path d="M431,291v 4" fill="none" stroke="black"/>
<path d="M442,291v 4" fill="none" stroke="black"/>
<path d="M454,287v 8" fill="none" stroke="black"/>
<path d="M465,291v 4" fill="none" stroke="black"/>
<path d="M476,291v 4" fill="none" stroke="black"/>
<path d="M488,291v 4" fill="none" stroke="black"/>
<path d="M499,291v 4" fill="none" stroke="black"/>
<path d="M510,287v 8" fill="none" stroke="black"/>
<text x="39" y="306" fill="black" font-size="11" font-family="Helvetica">
-20000
</text>
<text x="95" y="306" fill="black" font-size="11" font-family="Helvetica">
-15000
</text>
<text x="152" y="306" fill="black" font-size="11" font-family="Helvetica">
-10000
</text>
<text x="212" y="306" fill="black" font-size="11" font-family="Helvetica">
-5000
</text>
<text x="280" y="306" fill="black" font-size="11" font-family="Helvetica">
0
</text>
<text x="327" y="306" fill="black" font-size="11" font-family="Helvetica">
5000
</text>
<text x="381" y="306" fill="black" font-size="11" font-family="Helvetica">
10000
</text>
<text x="437" y="306" fill="black" font-size="11" font-family="Helvetica">
15000
</text>
<text x="494" y="306" fill="black" font-size="11" font-family="Helvetica">
20000
</text>
<path d="M57,295v -262" fill="none" stroke="black"/>
<g transform="rotate(-90,29,63)">
<text x="29" y="63" fill="black" font-size="11" font-family="Helvetica">
Count
</text>
</g>
<path d="M70,295h -13" fill="none" stroke="black"/>
<path d="M63,287h -6" fill="none" stroke="black"/>
<path d="M63,279h -6" fill="none" stroke="black"/>
<path d="M63,270h -6" fill="none" stroke="black"/>
<path d="M63,262h -6" fill="none" stroke="black"/>
<path d="M70,254h -13" fill="none" stroke="black"/>
<path d="M63,245h -6" fill="none" stroke="black"/>
<path d="M63,237h -6" fill="none" stroke="black"/>
<path d="M63,228h -6" fill="none" stroke="black"/>
<path d="M63,220h -6" fill="none" stroke="black"/>
<path d="M70,212h -13" fill="none" stroke="black"/>
<path d="M63,203h -6" fill="none" stroke="black"/>
<path d="M63,195h -6" fill="none" stroke="black"/>
<path d="M63,187h -6" fill="none" stroke="black"/>
<path d="M63,178h -6" fill="none" stroke="black"/>
<path d="M70,170h -13" fill="none" stroke="black"/>
<path d="M63,162h -6" fill="none" stroke="black"/>
<path d="M63,153h -6" fill="none" stroke="black"/>
<path d="M63,145h -6" fill="none" stroke="black"/>
<path d="M63,137h -6" fill="none" stroke="black"/>
<path d="M70,128h -13" fill="none" stroke="black"/>
<path d="M63,120h -6" fill="none" stroke="black"/>
<path d="M63,112h -6" fill="none" stroke="black"/>
<path d="M63,103h -6" fill="none" stroke="black"/>
<path d="M63,95h -6" fill="none" stroke="black"/>
<path d="M70,87h -13" fill="none" stroke="black"/>
<path d="M63,78h -6" fill="none" stroke="black"/>
<path d="M63,70h -6" fill="none" stroke="black"/>
<path d="M63,62h -6" fill="none" stroke="black"/>
<path d="M63,53h -6" fill="none" stroke="black"/>
<path d="M70,45h -13" fill="none" stroke="black"/>
<path d="M70,45h -13" fill="none" stroke="black"/>
<path d="M63,37h -6" fill="none" stroke="black"/>
<text x="48" y="299" fill="black" font-size="11" font-family="Helvetica">
0
</text>
<text x="38" y="257" fill="black" font-size="11" font-family="Helvetica">
0.5
</text>
<text x="48" y="215" fill="black" font-size="11" font-family="Helvetica">
1
</text>
<text x="38" y="174" fill="black" font-size="11" font-family="Helvetica">
1.5
</text>
<text x="48" y="132" fill="black" font-size="11" font-family="Helvetica">
2
</text>
<text x="38" y="90" fill="black" font-size="11" font-family="Helvetica">
2.5
</text>
<text x="48" y="48" fill="black" font-size="11" font-family="Helvetica">
3
</text>
<rect x="351" y="21" width="205" height="92" fill="white"/>
<path d="M351,113h 205" fill="none" stroke="black"/>
<path d="M556,113v -92" fill="none" stroke="black"/>
<path d="M556,21h -205" fill="none" stroke="black"/>
<path d="M351,21v 92" fill="none" stroke="black"/>
<text x="361" y="33" fill="black" font-size="13" font-family="Helvetica">
Entries 
</text>
<text x="526" y="33" fill="black" font-size="13" font-family="Helvetica">
 80
</text>
<text x="373" y="50" fill="black" font-size="13" font-family="Helvetica">
 / ndf 
</text>
<text x="368" y="39" fill="black" font-size="9" font-family="Helvetica">
2
</text>
<text x="361" y="50" fill="black" font-size="13" font-family="Times">
&#0967;
</text>
<text x="464" y="48" fill="black" font-size="13" font-family="Helvetica">
 77.08 / 1243
</text>
<text x="381" y="60" fill="black" font-size="13" font-family="Helvetica">
   
</text>
<text x="371" y="67" fill="black" font-size="9" font-family="Helvetica">
cu
</text>
<text x="361" y="60" fill="black" font-size="13" font-family="Helvetica">
N
</text>
<text x="522" y="64" fill="black" font-size="13" font-family="Helvetica">
 0.1
</text>
<text x="512" y="64" fill="black" font-size="13" font-family="Times">
&#0177;
</text>
<text x="481" y="64" fill="black" font-size="13" font-family="Helvetica">
     1 
</text>
<text x="376" y="77" fill="black" font-size="13" font-family="Helvetica">
 
</text>
<text x="367" y="85" fill="black" font-size="9" font-family="Helvetica">
cu
</text>
<text x="361" y="77" fill="black" font-size="13" font-family="Times">
&#0964;
</text>
<text x="522" y="80" fill="black" font-size="13" font-family="Helvetica">
 1.0
</text>
<text x="512" y="80" fill="black" font-size="13" font-family="Times">
&#0177;
</text>
<text x="469" y="80" fill="black" font-size="13" font-family="Helvetica">
 162.5 
</text>
<text x="374" y="90" fill="black" font-size="13" font-family="Helvetica">
    
</text>
<text x="371" y="98" fill="black" font-size="9" font-family="Helvetica">
f
</text>
<text x="361" y="90" fill="black" font-size="13" font-family="Helvetica">
N
</text>
<text x="522" y="95" fill="black" font-size="13" font-family="Helvetica">
 0.0
</text>
<text x="512" y="95" fill="black" font-size="13" font-family="Times">
&#0177;
</text>
<text x="481" y="95" fill="black" font-size="13" font-family="Helvetica">
     1 
</text>
<text x="369" y="107" fill="black" font-size="13" font-family="Helvetica">
 
</text>
<text x="367" y="115" fill="black" font-size="9" font-family="Helvetica">
f
</text>
<text x="361" y="107" fill="black" font-size="13" font-family="Times">
&#0964;
</text>
<text x="508" y="110" fill="black" font-size="13" font-family="Helvetica">
 114.2
</text>
<text x="497" y="110" fill="black" font-size="13" font-family="Times">
&#0177;
</text>
<text x="455" y="110" fill="black" font-size="13" font-family="Helvetica">
  1630 
</text>
<text x="98" y="17" fill="black" font-size="16" font-family="Helvetica">
final_st_Copper_0.5mm_deg_5mm_Aluminium
</text></svg>
