<?xml version="1.0" standalone="no"?>
<svg width="567" height="385" viewBox="0 0 567 385" xmlns="http://www.w3.org/2000/svg">
<title>
mu-_Al_loose_cu_cu.svg
</title>
<desc>
Creator: ROOT Version 5.34/05
CreationDate: Mon May 20 21:35:03 2013</desc>
<defs>
</defs>
<rect x="0" y="0" width="567" height="385" fill="white"/>
<rect x="57" y="38" width="453" height="308" fill="white"/>
<rect x="57" y="38" width="453" height="308" fill="none" stroke="black"/>
<rect x="57" y="38" width="453" height="308" fill="white"/>
<rect x="57" y="38" width="453" height="308" fill="none" stroke="black"/>
<path d="M57,346h 227v -293h 1v 44h 1v 41v -9h 1v 28h 1v -9v 39h 1v -26v 33h 1v -21h 1v 57h 1v -21v 30h 1v -20v 14h 1v -1v 21h 1v 5v -14h 1v 25v -11h 1v -28v 44h 1v -5v 28h 1v -12v 12h 1v -19v 28h 1v -30v 12h 1v 23v -33h 1v 38v -1h 1v -13v 13h 1v -6v
 4h 1v 3v -10h 1v 21v -2h 1v 4v -7h 1v -4v 13h 1v -4v 2h 1v -6v 6h 1v 7v -5v 5h 1v 7v -5h 1v -9h 1v 10v -5h 1v 2h 1v -7v 10h 1v -1v 3h 2v -7h 1v 9v -2h 1v -5v 7h 1v 2h 1v -4v 2h 1v -2h 1v -5v 7h 1v 2v -2h 1v 3v -5h 1v 4v -2h 1v -5v 7h 1v 1h 1v -1v 1v
 -7h 1v 7v -3h 1v 2v -2h 1v 3v -3h 1v 2v -6h 1v 7v -8v 5h 1v 3v -1h 1v 1h 1v -5v 5h 1v -1h 1v -2v 3h 1v -3v 3h 1v -3v 3h 1v -3h 1v 3h 5v -1v 1h 21v -1h 1v 1h 137" fill="none" stroke="#000099"/>
<rect x="351" y="25" width="205" height="77" fill="white"/>
<path d="M351,102h 205" fill="none" stroke="black"/>
<path d="M556,102v -77" fill="none" stroke="black"/>
<path d="M556,25h -205" fill="none" stroke="black"/>
<path d="M351,25v 77" fill="none" stroke="black"/>
<text x="362" y="40" fill="black" font-size="16" font-family="Helvetica">
Entries 
</text>
<text x="503" y="40" fill="black" font-size="16" font-family="Helvetica">
 3531
</text>
<text x="376" y="61" fill="black" font-size="16" font-family="Helvetica">
 / ndf 
</text>
<text x="370" y="47" fill="black" font-size="11" font-family="Helvetica">
2
</text>
<text x="362" y="61" fill="black" font-size="16" font-family="Times">
&#0967;
</text>
<text x="455" y="59" fill="black" font-size="16" font-family="Helvetica">
 135.5 / 120
</text>
<text x="385" y="73" fill="black" font-size="16" font-family="Helvetica">
   
</text>
<text x="374" y="83" fill="black" font-size="11" font-family="Helvetica">
cu
</text>
<text x="362" y="73" fill="black" font-size="16" font-family="Helvetica">
N
</text>
<text x="516" y="79" fill="black" font-size="16" font-family="Helvetica">
 4.2
</text>
<text x="503" y="79" fill="black" font-size="16" font-family="Times">
&#0177;
</text>
<text x="451" y="79" fill="black" font-size="16" font-family="Helvetica">
 168.7 
</text>
<text x="379" y="94" fill="black" font-size="16" font-family="Helvetica">
 
</text>
<text x="367" y="105" fill="black" font-size="11" font-family="Helvetica">
cu
</text>
<text x="362" y="94" fill="black" font-size="16" font-family="Times">
&#0964;
</text>
<text x="507" y="98" fill="black" font-size="16" font-family="Helvetica">
 15.2
</text>
<text x="494" y="98" fill="black" font-size="16" font-family="Times">
&#0177;
</text>
<text x="442" y="98" fill="black" font-size="16" font-family="Helvetica">
 848.2 
</text>
<path d="M57,346h 453" fill="none" stroke="black"/>
<text x="456" y="372" fill="black" font-size="12" font-family="Helvetica">
Time (ns)
</text>
<path d="M57,337v 9" fill="none" stroke="black"/>
<path d="M68,342v 4" fill="none" stroke="black"/>
<path d="M79,342v 4" fill="none" stroke="black"/>
<path d="M91,342v 4" fill="none" stroke="black"/>
<path d="M102,342v 4" fill="none" stroke="black"/>
<path d="M113,337v 9" fill="none" stroke="black"/>
<path d="M125,342v 4" fill="none" stroke="black"/>
<path d="M136,342v 4" fill="none" stroke="black"/>
<path d="M147,342v 4" fill="none" stroke="black"/>
<path d="M159,342v 4" fill="none" stroke="black"/>
<path d="M170,337v 9" fill="none" stroke="black"/>
<path d="M181,342v 4" fill="none" stroke="black"/>
<path d="M193,342v 4" fill="none" stroke="black"/>
<path d="M204,342v 4" fill="none" stroke="black"/>
<path d="M215,342v 4" fill="none" stroke="black"/>
<path d="M227,337v 9" fill="none" stroke="black"/>
<path d="M238,342v 4" fill="none" stroke="black"/>
<path d="M249,342v 4" fill="none" stroke="black"/>
<path d="M261,342v 4" fill="none" stroke="black"/>
<path d="M272,342v 4" fill="none" stroke="black"/>
<path d="M283,337v 9" fill="none" stroke="black"/>
<path d="M295,342v 4" fill="none" stroke="black"/>
<path d="M306,342v 4" fill="none" stroke="black"/>
<path d="M317,342v 4" fill="none" stroke="black"/>
<path d="M329,342v 4" fill="none" stroke="black"/>
<path d="M340,337v 9" fill="none" stroke="black"/>
<path d="M351,342v 4" fill="none" stroke="black"/>
<path d="M363,342v 4" fill="none" stroke="black"/>
<path d="M374,342v 4" fill="none" stroke="black"/>
<path d="M386,342v 4" fill="none" stroke="black"/>
<path d="M397,337v 9" fill="none" stroke="black"/>
<path d="M408,342v 4" fill="none" stroke="black"/>
<path d="M420,342v 4" fill="none" stroke="black"/>
<path d="M431,342v 4" fill="none" stroke="black"/>
<path d="M442,342v 4" fill="none" stroke="black"/>
<path d="M454,337v 9" fill="none" stroke="black"/>
<path d="M465,342v 4" fill="none" stroke="black"/>
<path d="M476,342v 4" fill="none" stroke="black"/>
<path d="M488,342v 4" fill="none" stroke="black"/>
<path d="M499,342v 4" fill="none" stroke="black"/>
<path d="M510,337v 9" fill="none" stroke="black"/>
<text x="36" y="359" fill="black" font-size="12" font-family="Helvetica">
-20000
</text>
<text x="93" y="359" fill="black" font-size="12" font-family="Helvetica">
-15000
</text>
<text x="149" y="359" fill="black" font-size="12" font-family="Helvetica">
-10000
</text>
<text x="210" y="359" fill="black" font-size="12" font-family="Helvetica">
-5000
</text>
<text x="280" y="359" fill="black" font-size="12" font-family="Helvetica">
0
</text>
<text x="325" y="359" fill="black" font-size="12" font-family="Helvetica">
5000
</text>
<text x="379" y="359" fill="black" font-size="12" font-family="Helvetica">
10000
</text>
<text x="435" y="359" fill="black" font-size="12" font-family="Helvetica">
15000
</text>
<text x="492" y="359" fill="black" font-size="12" font-family="Helvetica">
20000
</text>
<path d="M57,346v -308" fill="none" stroke="black"/>
<g transform="rotate(-90,29,72)">
<text x="29" y="72" fill="black" font-size="12" font-family="Helvetica">
Count
</text>
</g>
<path d="M70,346h -13" fill="none" stroke="black"/>
<path d="M63,338h -6" fill="none" stroke="black"/>
<path d="M63,329h -6" fill="none" stroke="black"/>
<path d="M63,320h -6" fill="none" stroke="black"/>
<path d="M70,311h -13" fill="none" stroke="black"/>
<path d="M63,302h -6" fill="none" stroke="black"/>
<path d="M63,293h -6" fill="none" stroke="black"/>
<path d="M63,285h -6" fill="none" stroke="black"/>
<path d="M70,276h -13" fill="none" stroke="black"/>
<path d="M63,267h -6" fill="none" stroke="black"/>
<path d="M63,258h -6" fill="none" stroke="black"/>
<path d="M63,249h -6" fill="none" stroke="black"/>
<path d="M70,240h -13" fill="none" stroke="black"/>
<path d="M63,232h -6" fill="none" stroke="black"/>
<path d="M63,223h -6" fill="none" stroke="black"/>
<path d="M63,214h -6" fill="none" stroke="black"/>
<path d="M70,205h -13" fill="none" stroke="black"/>
<path d="M63,196h -6" fill="none" stroke="black"/>
<path d="M63,187h -6" fill="none" stroke="black"/>
<path d="M63,178h -6" fill="none" stroke="black"/>
<path d="M70,170h -13" fill="none" stroke="black"/>
<path d="M63,161h -6" fill="none" stroke="black"/>
<path d="M63,152h -6" fill="none" stroke="black"/>
<path d="M63,143h -6" fill="none" stroke="black"/>
<path d="M70,134h -13" fill="none" stroke="black"/>
<path d="M63,125h -6" fill="none" stroke="black"/>
<path d="M63,117h -6" fill="none" stroke="black"/>
<path d="M63,108h -6" fill="none" stroke="black"/>
<path d="M70,99h -13" fill="none" stroke="black"/>
<path d="M63,90h -6" fill="none" stroke="black"/>
<path d="M63,81h -6" fill="none" stroke="black"/>
<path d="M63,72h -6" fill="none" stroke="black"/>
<path d="M70,64h -13" fill="none" stroke="black"/>
<path d="M70,64h -13" fill="none" stroke="black"/>
<path d="M63,55h -6" fill="none" stroke="black"/>
<path d="M63,46h -6" fill="none" stroke="black"/>
<text x="47" y="350" fill="black" font-size="12" font-family="Helvetica">
0
</text>
<text x="40" y="315" fill="black" font-size="12" font-family="Helvetica">
20
</text>
<text x="40" y="279" fill="black" font-size="12" font-family="Helvetica">
40
</text>
<text x="40" y="244" fill="black" font-size="12" font-family="Helvetica">
60
</text>
<text x="40" y="209" fill="black" font-size="12" font-family="Helvetica">
80
</text>
<text x="33" y="173" fill="black" font-size="12" font-family="Helvetica">
100
</text>
<text x="33" y="138" fill="black" font-size="12" font-family="Helvetica">
120
</text>
<text x="33" y="102" fill="black" font-size="12" font-family="Helvetica">
140
</text>
<text x="33" y="67" fill="black" font-size="12" font-family="Helvetica">
160
</text>
<rect x="351" y="25" width="205" height="77" fill="white"/>
<path d="M351,102h 205" fill="none" stroke="black"/>
<path d="M556,102v -77" fill="none" stroke="black"/>
<path d="M556,25h -205" fill="none" stroke="black"/>
<path d="M351,25v 77" fill="none" stroke="black"/>
<text x="362" y="40" fill="black" font-size="16" font-family="Helvetica">
Entries 
</text>
<text x="503" y="40" fill="black" font-size="16" font-family="Helvetica">
 3531
</text>
<text x="376" y="61" fill="black" font-size="16" font-family="Helvetica">
 / ndf 
</text>
<text x="370" y="47" fill="black" font-size="11" font-family="Helvetica">
2
</text>
<text x="362" y="61" fill="black" font-size="16" font-family="Times">
&#0967;
</text>
<text x="455" y="59" fill="black" font-size="16" font-family="Helvetica">
 135.5 / 120
</text>
<text x="385" y="73" fill="black" font-size="16" font-family="Helvetica">
   
</text>
<text x="374" y="83" fill="black" font-size="11" font-family="Helvetica">
cu
</text>
<text x="362" y="73" fill="black" font-size="16" font-family="Helvetica">
N
</text>
<text x="516" y="79" fill="black" font-size="16" font-family="Helvetica">
 4.2
</text>
<text x="503" y="79" fill="black" font-size="16" font-family="Times">
&#0177;
</text>
<text x="451" y="79" fill="black" font-size="16" font-family="Helvetica">
 168.7 
</text>
<text x="379" y="94" fill="black" font-size="16" font-family="Helvetica">
 
</text>
<text x="367" y="105" fill="black" font-size="11" font-family="Helvetica">
cu
</text>
<text x="362" y="94" fill="black" font-size="16" font-family="Times">
&#0964;
</text>
<text x="507" y="98" fill="black" font-size="16" font-family="Helvetica">
 15.2
</text>
<text x="494" y="98" fill="black" font-size="16" font-family="Times">
&#0177;
</text>
<text x="442" y="98" fill="black" font-size="16" font-family="Helvetica">
 848.2 
</text>
<path d="M285,96l 2, 53l 3, 41l 2, 33l 2, 26l 2, 20l 3, 16l 2, 13l 2, 10l 3, 8l 2, 7l 2, 5l 2, 4l 3, 3l 2, 2l 2, 2l 2, 2l 3, 1l 2, 1l 2, 1h 2l 3, 1h 4l 2, 1h 57" fill="none" stroke="#ff0000" stroke-width="2"/>
<path d="M396,346h 111" fill="none" stroke="#ff0000" stroke-width="2"/>
<path d="M507,346h 2" fill="none" stroke="#ff0000" stroke-width="2"/>
<text x="178" y="21" fill="black" font-size="20" font-family="Helvetica">
al_target_100000k_cu
</text></svg>
