<?xml version="1.0" standalone="no"?>
<svg width="567" height="385" viewBox="0 0 567 385" xmlns="http://www.w3.org/2000/svg">
<title>
mu-_5mm_cu_loose_cu_cu.svg
</title>
<desc>
Creator: ROOT Version 5.34/05
CreationDate: Mon May 20 22:18:19 2013</desc>
<defs>
</defs>
<rect x="0" y="0" width="567" height="385" fill="white"/>
<rect x="57" y="38" width="453" height="308" fill="white"/>
<rect x="57" y="38" width="453" height="308" fill="none" stroke="black"/>
<rect x="57" y="38" width="453" height="308" fill="white"/>
<rect x="57" y="38" width="453" height="308" fill="none" stroke="black"/>
<path d="M57,346h 227v -293h 1v 70h 1v -21h 1v 53v -4h 1v -22v 29v -10h 1v -6v 25h 1v 21h 1v -8v 30h 1v -19v 12h 1v -9v 20h 1v 13v -6h 1v 16h 1v -20v 20h 1v -6v 15h 1v 20h 1v -10v 8h 1v -14v 26h 1v 3v -9h 1v 23v -17h 1v -1v 12h 1v -5v 17h 1v -7h 1v
 6h 1v -2v 13h 1v -7v 17h 1v -13v 7h 1v -26v 38h 1v -16h 1v 6h 1v -2v 3h 1v 6h 1v -4v 5h 1v -4v 9h 1v -10v 8h 1v -4v 10h 1v -9h 1v -8v 8h 1v 6h 1v 6v -9v 8h 1v 5v -11h 1v 4v -1h 1v 3h 1v 4h 1v -3v 1v -2h 1v 4v -2h 1v -4v 10h 1v -6h 1v -4v 3h 1v 9v
 -5h 1v 5v -5h 1v 3v -7h 1v 9h 1v -8h 1v 9v -1h 1v -2h 1v 3v -3h 1v -10v 7h 1v 3v -3h 1v 7v -7v 2h 1v 1h 1v 2v -2h 1v -1v 4h 1v -3h 1v 4h 1v -4h 1v 4v -2h 1v 1h 2v -1v 2h 2v -2h 1v 2v -1h 1v 1v -1h 1v -1v 1h 1v 1h 1v -1h 1v 1h 1v -2v 2v -1h 1v 1v -1h
 1v 1h 1v -1v 1h 1v -1v 1h 1v -1v 1h 2v -2h 1v 2h 4v -1v 1h 2v -2h 1v 2h 6v -2h 1v 2h 5v -1v 1h 1v -1v 1h 7v -1h 1v 1h 3v -1v 1h 31v -1h 1v 1h 78" fill="none" stroke="#000099"/>
<rect x="351" y="25" width="205" height="77" fill="white"/>
<path d="M351,102h 205" fill="none" stroke="black"/>
<path d="M556,102v -77" fill="none" stroke="black"/>
<path d="M556,25h -205" fill="none" stroke="black"/>
<path d="M351,25v 77" fill="none" stroke="black"/>
<text x="362" y="40" fill="black" font-size="16" font-family="Helvetica">
Entries 
</text>
<text x="503" y="40" fill="black" font-size="16" font-family="Helvetica">
 5517
</text>
<text x="376" y="61" fill="black" font-size="16" font-family="Helvetica">
 / ndf 
</text>
<text x="370" y="47" fill="black" font-size="11" font-family="Helvetica">
2
</text>
<text x="362" y="61" fill="black" font-size="16" font-family="Times">
&#0967;
</text>
<text x="459" y="59" fill="black" font-size="16" font-family="Helvetica">
   160 / 172
</text>
<text x="385" y="73" fill="black" font-size="16" font-family="Helvetica">
   
</text>
<text x="374" y="83" fill="black" font-size="11" font-family="Helvetica">
cu
</text>
<text x="362" y="73" fill="black" font-size="16" font-family="Helvetica">
N
</text>
<text x="516" y="79" fill="black" font-size="16" font-family="Helvetica">
 3.8
</text>
<text x="503" y="79" fill="black" font-size="16" font-family="Times">
&#0177;
</text>
<text x="451" y="79" fill="black" font-size="16" font-family="Helvetica">
 190.5 
</text>
<text x="379" y="94" fill="black" font-size="16" font-family="Helvetica">
 
</text>
<text x="367" y="105" fill="black" font-size="11" font-family="Helvetica">
cu
</text>
<text x="362" y="94" fill="black" font-size="16" font-family="Times">
&#0964;
</text>
<text x="507" y="98" fill="black" font-size="16" font-family="Helvetica">
 17.1
</text>
<text x="494" y="98" fill="black" font-size="16" font-family="Times">
&#0177;
</text>
<text x="444" y="98" fill="black" font-size="16" font-family="Helvetica">
  1170 
</text>
<path d="M57,346h 453" fill="none" stroke="black"/>
<text x="456" y="372" fill="black" font-size="12" font-family="Helvetica">
Time (ns)
</text>
<path d="M57,337v 9" fill="none" stroke="black"/>
<path d="M68,342v 4" fill="none" stroke="black"/>
<path d="M79,342v 4" fill="none" stroke="black"/>
<path d="M91,342v 4" fill="none" stroke="black"/>
<path d="M102,342v 4" fill="none" stroke="black"/>
<path d="M113,337v 9" fill="none" stroke="black"/>
<path d="M125,342v 4" fill="none" stroke="black"/>
<path d="M136,342v 4" fill="none" stroke="black"/>
<path d="M147,342v 4" fill="none" stroke="black"/>
<path d="M159,342v 4" fill="none" stroke="black"/>
<path d="M170,337v 9" fill="none" stroke="black"/>
<path d="M181,342v 4" fill="none" stroke="black"/>
<path d="M193,342v 4" fill="none" stroke="black"/>
<path d="M204,342v 4" fill="none" stroke="black"/>
<path d="M215,342v 4" fill="none" stroke="black"/>
<path d="M227,337v 9" fill="none" stroke="black"/>
<path d="M238,342v 4" fill="none" stroke="black"/>
<path d="M249,342v 4" fill="none" stroke="black"/>
<path d="M261,342v 4" fill="none" stroke="black"/>
<path d="M272,342v 4" fill="none" stroke="black"/>
<path d="M283,337v 9" fill="none" stroke="black"/>
<path d="M295,342v 4" fill="none" stroke="black"/>
<path d="M306,342v 4" fill="none" stroke="black"/>
<path d="M317,342v 4" fill="none" stroke="black"/>
<path d="M329,342v 4" fill="none" stroke="black"/>
<path d="M340,337v 9" fill="none" stroke="black"/>
<path d="M351,342v 4" fill="none" stroke="black"/>
<path d="M363,342v 4" fill="none" stroke="black"/>
<path d="M374,342v 4" fill="none" stroke="black"/>
<path d="M386,342v 4" fill="none" stroke="black"/>
<path d="M397,337v 9" fill="none" stroke="black"/>
<path d="M408,342v 4" fill="none" stroke="black"/>
<path d="M420,342v 4" fill="none" stroke="black"/>
<path d="M431,342v 4" fill="none" stroke="black"/>
<path d="M442,342v 4" fill="none" stroke="black"/>
<path d="M454,337v 9" fill="none" stroke="black"/>
<path d="M465,342v 4" fill="none" stroke="black"/>
<path d="M476,342v 4" fill="none" stroke="black"/>
<path d="M488,342v 4" fill="none" stroke="black"/>
<path d="M499,342v 4" fill="none" stroke="black"/>
<path d="M510,337v 9" fill="none" stroke="black"/>
<text x="36" y="359" fill="black" font-size="12" font-family="Helvetica">
-20000
</text>
<text x="93" y="359" fill="black" font-size="12" font-family="Helvetica">
-15000
</text>
<text x="149" y="359" fill="black" font-size="12" font-family="Helvetica">
-10000
</text>
<text x="210" y="359" fill="black" font-size="12" font-family="Helvetica">
-5000
</text>
<text x="280" y="359" fill="black" font-size="12" font-family="Helvetica">
0
</text>
<text x="325" y="359" fill="black" font-size="12" font-family="Helvetica">
5000
</text>
<text x="379" y="359" fill="black" font-size="12" font-family="Helvetica">
10000
</text>
<text x="435" y="359" fill="black" font-size="12" font-family="Helvetica">
15000
</text>
<text x="492" y="359" fill="black" font-size="12" font-family="Helvetica">
20000
</text>
<path d="M57,346v -308" fill="none" stroke="black"/>
<g transform="rotate(-90,29,72)">
<text x="29" y="72" fill="black" font-size="12" font-family="Helvetica">
Count
</text>
</g>
<path d="M70,346h -13" fill="none" stroke="black"/>
<path d="M63,339h -6" fill="none" stroke="black"/>
<path d="M63,332h -6" fill="none" stroke="black"/>
<path d="M63,325h -6" fill="none" stroke="black"/>
<path d="M70,318h -13" fill="none" stroke="black"/>
<path d="M63,310h -6" fill="none" stroke="black"/>
<path d="M63,303h -6" fill="none" stroke="black"/>
<path d="M63,296h -6" fill="none" stroke="black"/>
<path d="M70,289h -13" fill="none" stroke="black"/>
<path d="M63,282h -6" fill="none" stroke="black"/>
<path d="M63,275h -6" fill="none" stroke="black"/>
<path d="M63,267h -6" fill="none" stroke="black"/>
<path d="M70,260h -13" fill="none" stroke="black"/>
<path d="M63,253h -6" fill="none" stroke="black"/>
<path d="M63,246h -6" fill="none" stroke="black"/>
<path d="M63,239h -6" fill="none" stroke="black"/>
<path d="M70,231h -13" fill="none" stroke="black"/>
<path d="M63,224h -6" fill="none" stroke="black"/>
<path d="M63,217h -6" fill="none" stroke="black"/>
<path d="M63,210h -6" fill="none" stroke="black"/>
<path d="M70,203h -13" fill="none" stroke="black"/>
<path d="M63,195h -6" fill="none" stroke="black"/>
<path d="M63,188h -6" fill="none" stroke="black"/>
<path d="M63,181h -6" fill="none" stroke="black"/>
<path d="M70,174h -13" fill="none" stroke="black"/>
<path d="M63,167h -6" fill="none" stroke="black"/>
<path d="M63,159h -6" fill="none" stroke="black"/>
<path d="M63,152h -6" fill="none" stroke="black"/>
<path d="M70,145h -13" fill="none" stroke="black"/>
<path d="M63,138h -6" fill="none" stroke="black"/>
<path d="M63,131h -6" fill="none" stroke="black"/>
<path d="M63,123h -6" fill="none" stroke="black"/>
<path d="M70,116h -13" fill="none" stroke="black"/>
<path d="M63,109h -6" fill="none" stroke="black"/>
<path d="M63,102h -6" fill="none" stroke="black"/>
<path d="M63,95h -6" fill="none" stroke="black"/>
<path d="M70,87h -13" fill="none" stroke="black"/>
<path d="M63,80h -6" fill="none" stroke="black"/>
<path d="M63,73h -6" fill="none" stroke="black"/>
<path d="M63,66h -6" fill="none" stroke="black"/>
<path d="M70,59h -13" fill="none" stroke="black"/>
<path d="M70,59h -13" fill="none" stroke="black"/>
<path d="M63,51h -6" fill="none" stroke="black"/>
<path d="M63,44h -6" fill="none" stroke="black"/>
<text x="47" y="350" fill="black" font-size="12" font-family="Helvetica">
0
</text>
<text x="40" y="321" fill="black" font-size="12" font-family="Helvetica">
20
</text>
<text x="40" y="293" fill="black" font-size="12" font-family="Helvetica">
40
</text>
<text x="40" y="264" fill="black" font-size="12" font-family="Helvetica">
60
</text>
<text x="40" y="235" fill="black" font-size="12" font-family="Helvetica">
80
</text>
<text x="33" y="207" fill="black" font-size="12" font-family="Helvetica">
100
</text>
<text x="33" y="177" fill="black" font-size="12" font-family="Helvetica">
120
</text>
<text x="33" y="149" fill="black" font-size="12" font-family="Helvetica">
140
</text>
<text x="33" y="120" fill="black" font-size="12" font-family="Helvetica">
160
</text>
<text x="33" y="91" fill="black" font-size="12" font-family="Helvetica">
180
</text>
<text x="33" y="62" fill="black" font-size="12" font-family="Helvetica">
200
</text>
<rect x="351" y="25" width="205" height="77" fill="white"/>
<path d="M351,102h 205" fill="none" stroke="black"/>
<path d="M556,102v -77" fill="none" stroke="black"/>
<path d="M556,25h -205" fill="none" stroke="black"/>
<path d="M351,25v 77" fill="none" stroke="black"/>
<text x="362" y="40" fill="black" font-size="16" font-family="Helvetica">
Entries 
</text>
<text x="503" y="40" fill="black" font-size="16" font-family="Helvetica">
 5517
</text>
<text x="376" y="61" fill="black" font-size="16" font-family="Helvetica">
 / ndf 
</text>
<text x="370" y="47" fill="black" font-size="11" font-family="Helvetica">
2
</text>
<text x="362" y="61" fill="black" font-size="16" font-family="Times">
&#0967;
</text>
<text x="459" y="59" fill="black" font-size="16" font-family="Helvetica">
   160 / 172
</text>
<text x="385" y="73" fill="black" font-size="16" font-family="Helvetica">
   
</text>
<text x="374" y="83" fill="black" font-size="11" font-family="Helvetica">
cu
</text>
<text x="362" y="73" fill="black" font-size="16" font-family="Helvetica">
N
</text>
<text x="516" y="79" fill="black" font-size="16" font-family="Helvetica">
 3.8
</text>
<text x="503" y="79" fill="black" font-size="16" font-family="Times">
&#0177;
</text>
<text x="451" y="79" fill="black" font-size="16" font-family="Helvetica">
 190.5 
</text>
<text x="379" y="94" fill="black" font-size="16" font-family="Helvetica">
 
</text>
<text x="367" y="105" fill="black" font-size="11" font-family="Helvetica">
cu
</text>
<text x="362" y="94" fill="black" font-size="16" font-family="Times">
&#0964;
</text>
<text x="507" y="98" fill="black" font-size="16" font-family="Helvetica">
 17.1
</text>
<text x="494" y="98" fill="black" font-size="16" font-family="Times">
&#0177;
</text>
<text x="444" y="98" fill="black" font-size="16" font-family="Helvetica">
  1170 
</text>
<path d="M285,105l 2, 38l 3, 32l 2, 27l 2, 23l 2, 19l 3, 16l 2, 13l 2, 12l 3, 10l 2, 8l 2, 7l 2, 5l 3, 5l 2, 4l 2, 4l 2, 3l 3, 2l 2, 2l 2, 2l 2, 2l 3, 1l 2, 1l 2, 1h 2l 3, 1l 2, 1h 4l 3, 1h 7l 2, 1h 36" fill="none" stroke="#ff0000" stroke-width="2"/>
<path d="M396,346h 111" fill="none" stroke="#ff0000" stroke-width="2"/>
<path d="M507,346h 2" fill="none" stroke="#ff0000" stroke-width="2"/>
<text x="138" y="21" fill="black" font-size="20" font-family="Helvetica">
5mm_Cu_target_100k_mu-_cu
</text></svg>
