<?xml version="1.0" standalone="no"?>
<svg width="567" height="385" viewBox="0 0 567 385" xmlns="http://www.w3.org/2000/svg">
<title>
mu-_tight.svg
</title>
<desc>
Creator: ROOT Version 5.34/05
CreationDate: Fri May 10 17:42:27 2013</desc>
<defs>
</defs>
<rect x="0" y="0" width="567" height="385" fill="white"/>
<rect x="57" y="38" width="453" height="308" fill="white"/>
<rect x="57" y="38" width="453" height="308" fill="none" stroke="black"/>
<rect x="57" y="38" width="453" height="308" fill="white"/>
<rect x="57" y="38" width="453" height="308" fill="none" stroke="black"/>
<path d="M57,346h 227v -266v 73h 1v -63v 47v -13v 16v -33v 42h 1v -38v 46v -27v 3v -15v 41h 1v -24v 30v -18v 7v -7h 1v 11v -7v 23v -36v 42v -5h 1v 5v -35v 55v -30v 21h 1v -2v 10v -30v 33v -9h 1v -2v 25v -36v 6v -7v 37v -17h 1v 4v -22v 25v -32v 21v
 -14v 27h 1v 19v -37v 45v -42v 27v -7h 1v 7v -29v 40v -23v 18h 1v -6v 26v -23v 10v -15v 17h 1v 1v -18v 18v -18v 16v -18h 1v 28v -9v 5v -11v 21v -13h 1v -4v 15v -13v 5v -5v 7v -11v 22h 1v -18v 27v -15v 12v -5v 8h 1v -15v 12v -15v 15v -3v 6h 1v -8v 5v
 -7v 20v -10v 4h 1v -11v 17v -21v 20v -11v 6v -3h 1v 13v -21v 9v -2v 18v -11v 12v -24h 1v -10v 22v -8v 25v -25v 15v -5h 1v 18v -9v 1v -22v 29v -15h 1v 10v -11v 17v -20v 20v -11h 1v 22v -31v 16v -4v 9v -6h 1v -1v 10v -23v 11v -11v 20v -11h 1v 17v -9v
 11v -18v 18v -9h 1v 1v -12v 14v -1v 1v -8v 5v -3v 6h 1v -7v 8v -7v 13v -3v 2v -9v 12h 1v -4v 2v -9v 1v -1v 19v -9h 1v -4v 9v -8v 11h 1v -15v 16v -12v 10v -11v 19v -7h 1v 1v -8v 4v -6v 4v -3v 12v -8h 1v -7v 19v -6v 2v -12v 14h 1v -10v 19v -21v 13v
 -9v 3h 1v -5v 8v -4v 17v -22h 1v 24v -18v 8v -1h 1v -14v 16v -6v 3v -13v 6h 1v 7v -1v 9v -10v 12v -7v 6v -17h 1v 18v -18v 15v -10v 3v -3h 1v 7v -7v 10v -9v 10v -8h 1v -5v 6v -1v 5v -3v 6h 1v 3v -4v 2v -6v 3h 1v -1v 5v -10v 14v -15v 13h 1v 6v -12v 7v
 -5v 6v -5h 1v 5v -5v 4v -4v 3v -4v 5h 1v 5v -18v 11v -3v 6v -4h 1v -7v 10v -2v 1h 1v -3v 10v -8v 6v -3v 3v -4v 4h 1v -4v 4v -8v 8v -8v 3v -5h 1v 16v -11v 4v -6v 9h 1v -6v 7v -18v 20v -5h 1v 2v -5v 3v -3v 6v -6h 1v 7v -5v 4v -4v 4h 1v -6v 7v -3v 2v
 -6v 9v -9v 2h 1v 3v -10v 11v -8v 13v -10h 1v -3v 3v -1v 4v -5v 9v -3h 1v -1v 3v -6v 6v -2v 2v -5v 2h 1v 5v -8v 10v -9v 8v -4h 1v -6v 7v -3v 3v -3v 5v -3h 1v 4v -4v 4v -1v 2v -9h 1v 3v -2v 9v -9v 8v -2h 1v -3v 6v -7v 6v -6v 3h 1v 4v -5v 5v -6v 6v -9h
 1v 8v -7v 10v -9v 7v -9v 6h 1v -8v 10v -7v 5v -1h 1v 3v -7v 5v -2v 7h 1v -4v 4v -8v 9v -1h 1v -10v 8v -7v 8v -4h 1v 2v -4v 5v -5v 6v -2v 3h 1v -12v 12v -5v 3v -3v 5v -3h 1v 2v -7v 8v -5v 2v -3h 1v 2v -3v 7v -5v 4h 1v -5v 5v -6v 7h 1v -1v 1v -5v 5v
 -5h 1v 3v -4v 5v -4v 5v -1h 1v -2v 3v -3v 3v -1v 1v -5h 1v 3v -1v 2v -1v 2v -8v 8h 1v -3v 5v -3v 3v -2v 1h 1v -4v 3v -2v 2v -1h 1v 2v -2v 1v -1v 2v -1h 1v -2v 1v -4v 8v -8v 5v -3h 1v 3v -4v 5v -2v 1h 1v 3v -5v 5v -8v 6v -3h 1v 5v -5v 2v -2v 3v -4v
 5v -2h 1v 2v -4v 4h 1v 1v -4v 4v -5v 4h 1v -1v 1v -1v 1v -3h 1v 2v -2v 4v -3v 3h 1v -2v 1v -4v 5v -2h 1v -3v 5v -4v 4v -2v 1h 1v -3v 3v -2v 3v -3h 1v 3v -2v 1v -3v 2v -1v 2h 1v -1v 2v -8v 8v -2h 1v 2v -4v 4v -3v 3v -4h 1v 3v -3v 4v -2v 2h 1v -4v 4v
 -6v 6v -4h 1v 4v -3v 3v -1v 1v -4h 1v 3v -3v 4v -2v 1h 1v 1v -4v 3v -2v 3v -1v 1v -1h 1v -1v 2v -4v 4v -4v 4v -2h 1v 2v -1v 1v -4v 4v -2h 1v -2v 3v -3v 4h 1v -2v 2v -1h 1v 1v -3v 3h 1v -3v 3v -1v 1v -2h 1v 2v -3v 2v -1v 2v -1v 1h 1v -4v 4v -2v 2v
 -2h 1v -1v 3v -4v 4v -2v 2h 1v -1v 1v -1v 1v -1v 1v -1h 1v 1v -2h 1v 2h 2v -2v 2v -2v 2h 1v -3v 3v -1v 1h 1v -2v 2v -1v 1h 1v -1v 1v -1h 1v -1v 2h 1v -1v 1h 1v -1v 1v -1v 1h 1v -2v 2v -1v 1h 1v -1v 1v -1v 1h 1v -1v 1h 1v -1v 1h 1v -1v 1h 1v -2v 2h
 3v -1v 1v -2v 2h 2v -1v 1h 1v -1v 1h 2v -2v 2h 1v -1v 1v -3v 3h 1v -3v 3h 3v -1v 1h 6v -1v 1h 5v -1v 1h 2v -2h 1v 2h 3v -2v 2h 11v -1v 1h 61" fill="none" stroke="#000099"/>
<rect x="351" y="25" width="205" height="108" fill="white"/>
<path d="M351,133h 205" fill="none" stroke="black"/>
<path d="M556,133v -108" fill="none" stroke="black"/>
<path d="M556,25h -205" fill="none" stroke="black"/>
<path d="M351,25v 108" fill="none" stroke="black"/>
<text x="362" y="38" fill="black" font-size="15" font-family="Helvetica">
Entries 
</text>
<text x="495" y="38" fill="black" font-size="15" font-family="Helvetica">
 39648
</text>
<text x="376" y="58" fill="black" font-size="15" font-family="Helvetica">
 / ndf 
</text>
<text x="370" y="46" fill="black" font-size="10" font-family="Helvetica">
2
</text>
<text x="362" y="58" fill="black" font-size="15" font-family="Times">
&#0967;
</text>
<text x="451" y="56" fill="black" font-size="15" font-family="Helvetica">
  2751 / 1135
</text>
<text x="384" y="70" fill="black" font-size="15" font-family="Helvetica">
   
</text>
<text x="373" y="80" fill="black" font-size="10" font-family="Helvetica">
cu
</text>
<text x="362" y="70" fill="black" font-size="15" font-family="Helvetica">
N
</text>
<text x="518" y="75" fill="black" font-size="15" font-family="Helvetica">
 7.6
</text>
<text x="506" y="75" fill="black" font-size="15" font-family="Times">
&#0177;
</text>
<text x="456" y="75" fill="black" font-size="15" font-family="Helvetica">
 212.6 
</text>
<text x="378" y="90" fill="black" font-size="15" font-family="Helvetica">
 
</text>
<text x="367" y="101" fill="black" font-size="10" font-family="Helvetica">
cu
</text>
<text x="362" y="90" fill="black" font-size="15" font-family="Times">
&#0964;
</text>
<text x="518" y="94" fill="black" font-size="15" font-family="Helvetica">
 0.2
</text>
<text x="506" y="94" fill="black" font-size="15" font-family="Times">
&#0177;
</text>
<text x="456" y="94" fill="black" font-size="15" font-family="Helvetica">
 164.5 
</text>
<text x="376" y="106" fill="black" font-size="15" font-family="Helvetica">
    
</text>
<text x="373" y="116" fill="black" font-size="10" font-family="Helvetica">
f
</text>
<text x="362" y="106" fill="black" font-size="15" font-family="Helvetica">
N
</text>
<text x="518" y="112" fill="black" font-size="15" font-family="Helvetica">
 0.9
</text>
<text x="506" y="112" fill="black" font-size="15" font-family="Times">
&#0177;
</text>
<text x="456" y="112" fill="black" font-size="15" font-family="Helvetica">
 161.3 
</text>
<text x="370" y="126" fill="black" font-size="15" font-family="Helvetica">
 
</text>
<text x="367" y="137" fill="black" font-size="10" font-family="Helvetica">
f
</text>
<text x="362" y="126" fill="black" font-size="15" font-family="Times">
&#0964;
</text>
<text x="518" y="130" fill="black" font-size="15" font-family="Helvetica">
 0.0
</text>
<text x="506" y="130" fill="black" font-size="15" font-family="Times">
&#0177;
</text>
<text x="456" y="130" fill="black" font-size="15" font-family="Helvetica">
  2197 
</text>
<path d="M57,346h 453" fill="none" stroke="black"/>
<text x="456" y="372" fill="black" font-size="12" font-family="Helvetica">
Time (ns)
</text>
<path d="M57,337v 9" fill="none" stroke="black"/>
<path d="M68,342v 4" fill="none" stroke="black"/>
<path d="M79,342v 4" fill="none" stroke="black"/>
<path d="M91,342v 4" fill="none" stroke="black"/>
<path d="M102,342v 4" fill="none" stroke="black"/>
<path d="M113,337v 9" fill="none" stroke="black"/>
<path d="M125,342v 4" fill="none" stroke="black"/>
<path d="M136,342v 4" fill="none" stroke="black"/>
<path d="M147,342v 4" fill="none" stroke="black"/>
<path d="M159,342v 4" fill="none" stroke="black"/>
<path d="M170,337v 9" fill="none" stroke="black"/>
<path d="M181,342v 4" fill="none" stroke="black"/>
<path d="M193,342v 4" fill="none" stroke="black"/>
<path d="M204,342v 4" fill="none" stroke="black"/>
<path d="M215,342v 4" fill="none" stroke="black"/>
<path d="M227,337v 9" fill="none" stroke="black"/>
<path d="M238,342v 4" fill="none" stroke="black"/>
<path d="M249,342v 4" fill="none" stroke="black"/>
<path d="M261,342v 4" fill="none" stroke="black"/>
<path d="M272,342v 4" fill="none" stroke="black"/>
<path d="M283,337v 9" fill="none" stroke="black"/>
<path d="M295,342v 4" fill="none" stroke="black"/>
<path d="M306,342v 4" fill="none" stroke="black"/>
<path d="M317,342v 4" fill="none" stroke="black"/>
<path d="M329,342v 4" fill="none" stroke="black"/>
<path d="M340,337v 9" fill="none" stroke="black"/>
<path d="M351,342v 4" fill="none" stroke="black"/>
<path d="M363,342v 4" fill="none" stroke="black"/>
<path d="M374,342v 4" fill="none" stroke="black"/>
<path d="M386,342v 4" fill="none" stroke="black"/>
<path d="M397,337v 9" fill="none" stroke="black"/>
<path d="M408,342v 4" fill="none" stroke="black"/>
<path d="M420,342v 4" fill="none" stroke="black"/>
<path d="M431,342v 4" fill="none" stroke="black"/>
<path d="M442,342v 4" fill="none" stroke="black"/>
<path d="M454,337v 9" fill="none" stroke="black"/>
<path d="M465,342v 4" fill="none" stroke="black"/>
<path d="M476,342v 4" fill="none" stroke="black"/>
<path d="M488,342v 4" fill="none" stroke="black"/>
<path d="M499,342v 4" fill="none" stroke="black"/>
<path d="M510,337v 9" fill="none" stroke="black"/>
<text x="36" y="359" fill="black" font-size="12" font-family="Helvetica">
-20000
</text>
<text x="93" y="359" fill="black" font-size="12" font-family="Helvetica">
-15000
</text>
<text x="149" y="359" fill="black" font-size="12" font-family="Helvetica">
-10000
</text>
<text x="210" y="359" fill="black" font-size="12" font-family="Helvetica">
-5000
</text>
<text x="280" y="359" fill="black" font-size="12" font-family="Helvetica">
0
</text>
<text x="325" y="359" fill="black" font-size="12" font-family="Helvetica">
5000
</text>
<text x="379" y="359" fill="black" font-size="12" font-family="Helvetica">
10000
</text>
<text x="435" y="359" fill="black" font-size="12" font-family="Helvetica">
15000
</text>
<text x="492" y="359" fill="black" font-size="12" font-family="Helvetica">
20000
</text>
<path d="M57,346v -308" fill="none" stroke="black"/>
<g transform="rotate(-90,29,72)">
<text x="29" y="72" fill="black" font-size="12" font-family="Helvetica">
Count
</text>
</g>
<path d="M70,346h -13" fill="none" stroke="black"/>
<path d="M63,337h -6" fill="none" stroke="black"/>
<path d="M63,328h -6" fill="none" stroke="black"/>
<path d="M63,318h -6" fill="none" stroke="black"/>
<path d="M63,309h -6" fill="none" stroke="black"/>
<path d="M70,299h -13" fill="none" stroke="black"/>
<path d="M63,290h -6" fill="none" stroke="black"/>
<path d="M63,280h -6" fill="none" stroke="black"/>
<path d="M63,271h -6" fill="none" stroke="black"/>
<path d="M63,261h -6" fill="none" stroke="black"/>
<path d="M70,252h -13" fill="none" stroke="black"/>
<path d="M63,242h -6" fill="none" stroke="black"/>
<path d="M63,233h -6" fill="none" stroke="black"/>
<path d="M63,223h -6" fill="none" stroke="black"/>
<path d="M63,214h -6" fill="none" stroke="black"/>
<path d="M70,204h -13" fill="none" stroke="black"/>
<path d="M63,195h -6" fill="none" stroke="black"/>
<path d="M63,185h -6" fill="none" stroke="black"/>
<path d="M63,176h -6" fill="none" stroke="black"/>
<path d="M63,166h -6" fill="none" stroke="black"/>
<path d="M70,157h -13" fill="none" stroke="black"/>
<path d="M63,147h -6" fill="none" stroke="black"/>
<path d="M63,138h -6" fill="none" stroke="black"/>
<path d="M63,128h -6" fill="none" stroke="black"/>
<path d="M63,119h -6" fill="none" stroke="black"/>
<path d="M70,109h -13" fill="none" stroke="black"/>
<path d="M63,100h -6" fill="none" stroke="black"/>
<path d="M63,90h -6" fill="none" stroke="black"/>
<path d="M63,81h -6" fill="none" stroke="black"/>
<path d="M63,71h -6" fill="none" stroke="black"/>
<path d="M70,62h -13" fill="none" stroke="black"/>
<path d="M70,62h -13" fill="none" stroke="black"/>
<path d="M63,52h -6" fill="none" stroke="black"/>
<path d="M63,43h -6" fill="none" stroke="black"/>
<text x="47" y="350" fill="black" font-size="12" font-family="Helvetica">
0
</text>
<text x="40" y="303" fill="black" font-size="12" font-family="Helvetica">
50
</text>
<text x="33" y="255" fill="black" font-size="12" font-family="Helvetica">
100
</text>
<text x="33" y="208" fill="black" font-size="12" font-family="Helvetica">
150
</text>
<text x="33" y="160" fill="black" font-size="12" font-family="Helvetica">
200
</text>
<text x="33" y="113" fill="black" font-size="12" font-family="Helvetica">
250
</text>
<text x="33" y="66" fill="black" font-size="12" font-family="Helvetica">
300
</text>
<rect x="351" y="25" width="205" height="108" fill="white"/>
<path d="M351,133h 205" fill="none" stroke="black"/>
<path d="M556,133v -108" fill="none" stroke="black"/>
<path d="M556,25h -205" fill="none" stroke="black"/>
<path d="M351,25v 108" fill="none" stroke="black"/>
<text x="362" y="38" fill="black" font-size="15" font-family="Helvetica">
Entries 
</text>
<text x="495" y="38" fill="black" font-size="15" font-family="Helvetica">
 39648
</text>
<text x="376" y="58" fill="black" font-size="15" font-family="Helvetica">
 / ndf 
</text>
<text x="370" y="46" fill="black" font-size="10" font-family="Helvetica">
2
</text>
<text x="362" y="58" fill="black" font-size="15" font-family="Times">
&#0967;
</text>
<text x="451" y="56" fill="black" font-size="15" font-family="Helvetica">
  2751 / 1135
</text>
<text x="384" y="70" fill="black" font-size="15" font-family="Helvetica">
   
</text>
<text x="373" y="80" fill="black" font-size="10" font-family="Helvetica">
cu
</text>
<text x="362" y="70" fill="black" font-size="15" font-family="Helvetica">
N
</text>
<text x="518" y="75" fill="black" font-size="15" font-family="Helvetica">
 7.6
</text>
<text x="506" y="75" fill="black" font-size="15" font-family="Times">
&#0177;
</text>
<text x="456" y="75" fill="black" font-size="15" font-family="Helvetica">
 212.6 
</text>
<text x="378" y="90" fill="black" font-size="15" font-family="Helvetica">
 
</text>
<text x="367" y="101" fill="black" font-size="10" font-family="Helvetica">
cu
</text>
<text x="362" y="90" fill="black" font-size="15" font-family="Times">
&#0964;
</text>
<text x="518" y="94" fill="black" font-size="15" font-family="Helvetica">
 0.2
</text>
<text x="506" y="94" fill="black" font-size="15" font-family="Times">
&#0177;
</text>
<text x="456" y="94" fill="black" font-size="15" font-family="Helvetica">
 164.5 
</text>
<text x="376" y="106" fill="black" font-size="15" font-family="Helvetica">
    
</text>
<text x="373" y="116" fill="black" font-size="10" font-family="Helvetica">
f
</text>
<text x="362" y="106" fill="black" font-size="15" font-family="Helvetica">
N
</text>
<text x="518" y="112" fill="black" font-size="15" font-family="Helvetica">
 0.9
</text>
<text x="506" y="112" fill="black" font-size="15" font-family="Times">
&#0177;
</text>
<text x="456" y="112" fill="black" font-size="15" font-family="Helvetica">
 161.3 
</text>
<text x="370" y="126" fill="black" font-size="15" font-family="Helvetica">
 
</text>
<text x="367" y="137" fill="black" font-size="10" font-family="Helvetica">
f
</text>
<text x="362" y="126" fill="black" font-size="15" font-family="Times">
&#0964;
</text>
<text x="518" y="130" fill="black" font-size="15" font-family="Helvetica">
 0.0
</text>
<text x="506" y="130" fill="black" font-size="15" font-family="Times">
&#0177;
</text>
<text x="456" y="130" fill="black" font-size="15" font-family="Helvetica">
  2197 
</text>
<path d="M285,122l 2, 70l 3, 28l 2, 16l 2, 10l 2, 10l 3, 8l 2, 7l 2, 6l 3, 6l 2, 6l 2, 5l 2, 4l 3, 5l 2, 3l 2, 4l 2, 3l 3, 3l 2, 3l 2, 2l 2, 2l 3, 2l 2, 2l 2, 2l 2, 1l 3, 2l 2, 1l 2, 1l 2, 1l 3, 1l 2, 1l 2, 1l 3, 1h 2l 2, 1l 2, 1h 3l 2, 1h 4l 3, 1h
 4l 2, 1h 9l 3, 1h 2" fill="none" stroke="#ff0000" stroke-width="2"/>
<path d="M396,345h 11l 3, 1h 97" fill="none" stroke="#ff0000" stroke-width="2"/>
<path d="M507,346h 2" fill="none" stroke="#ff0000" stroke-width="2"/>
<text x="170" y="21" fill="black" font-size="20" font-family="Helvetica">
mu-_5mm_Air_1000000
</text></svg>
