<?xml version="1.0" standalone="no"?>
<svg width="567" height="385" viewBox="0 0 567 385" xmlns="http://www.w3.org/2000/svg">
<title>
mu-_Al_loose_cu_f.svg
</title>
<desc>
Creator: ROOT Version 5.34/05
CreationDate: Mon May 20 21:35:05 2013</desc>
<defs>
</defs>
<rect x="0" y="0" width="567" height="385" fill="white"/>
<rect x="57" y="38" width="453" height="308" fill="white"/>
<rect x="57" y="38" width="453" height="308" fill="none" stroke="black"/>
<rect x="57" y="38" width="453" height="308" fill="white"/>
<rect x="57" y="38" width="453" height="308" fill="none" stroke="black"/>
<path d="M57,346h 227v -293h 1v 65h 1v 74v -74h 1v 41v -90h 1v 123v -58h 1v 33h 1v 33h 1v -98h 1v 106v -106h 1v 90v -74h 1v 90v -16h 1v 24h 1v -33h 1v -24v 8h 1v 25v -41v 24h 1v 33h 1v -8v 16h 1v -8v 41h 1v -33h 1v -65v 98h 1v 24v -24h 1v -9v 17h 1v
 -8v 8h 1v 16v -41h 1v 41v -49h 1v 49v -16h 1v 16v -24h 1v 49h 1v -66v 25h 1v 8v -41h 1v 57h 1v -16h 1v 8v -24h 1v 73v -98v 49h 1v -24v 24h 1v 49v -16h 1v -33h 1v 8v -8h 1v -33v 66v -25h 1v 17h 1v -9v 9h 1v -9v 25h 1v 8v -33h 1v 49v -49v 17h 1v -25h
 1v 25h 1v 24h 1v -41h 1v 33v -16v 32h 1v -24v 16h 1v -16v 8h 1v -8h 1v 8h 1v -16v 16h 1v -16v 24h 1v -41v 25h 1v 24h 1v -16h 1v 16v -24v 24h 1v -24v 16h 1v -16h 1v 24h 1v -16v 16h 1v -16v 8v -16h 1v 16v -8h 2v 24v -16h 1v 8h 1v 8h 1v -24v 8h 1v -16v
 24h 1v -8v 8h 1v -24v 32h 1v -24v 16h 1v -8v 8h 1v -16v 16h 1v 8h 1v -24h 1v 16v -16h 1v -8v 16h 1v 8h 1v 8v -16h 1v 8h 1v 8v -24h 1v 24v -8h 1v 8v -24h 1v 8h 1v 8v -8h 1v 16h 1v -8v 8h 1v -16h 1v 16v -16h 1v 16v -24v 24h 1v -8h 1v 8h 2v -16h 1v 16v
 -8v 8h 2v -8h 1v 8h 1v -8h 1v 8h 1v -8v 8h 2v -24h 1v 24h 1v -8h 1v 8v -8h 1v 8h 2v -16v 16h 1v -8h 1v 8h 1v -8v 8h 1v -8h 1v 8h 1v -8h 1v -8h 1v 16v -8h 1v -8v 16h 1v -8v 8v -8h 1v -8v 16h 1v -8v 8h 3v -8v 8h 1v -8h 1v 8h 2v -8v 8h 1v -8v 8h 5v -8h
 1v 8h 1v -8v 8h 5v -8v 8h 17v -8v 8h 15v -8v 8h 29v -8v 8h 22" fill="none" stroke="#000099"/>
<rect x="351" y="25" width="205" height="77" fill="white"/>
<path d="M351,102h 205" fill="none" stroke="black"/>
<path d="M556,102v -77" fill="none" stroke="black"/>
<path d="M556,25h -205" fill="none" stroke="black"/>
<path d="M351,25v 77" fill="none" stroke="black"/>
<text x="362" y="40" fill="black" font-size="16" font-family="Helvetica">
Entries 
</text>
<text x="503" y="40" fill="black" font-size="16" font-family="Helvetica">
 1756
</text>
<text x="376" y="61" fill="black" font-size="16" font-family="Helvetica">
 / ndf 
</text>
<text x="370" y="47" fill="black" font-size="11" font-family="Helvetica">
2
</text>
<text x="362" y="61" fill="black" font-size="16" font-family="Times">
&#0967;
</text>
<text x="455" y="59" fill="black" font-size="16" font-family="Helvetica">
 249.8 / 497
</text>
<text x="376" y="73" fill="black" font-size="16" font-family="Helvetica">
    
</text>
<text x="374" y="83" fill="black" font-size="11" font-family="Helvetica">
f
</text>
<text x="362" y="73" fill="black" font-size="16" font-family="Helvetica">
N
</text>
<text x="507" y="79" fill="black" font-size="16" font-family="Helvetica">
 0.78
</text>
<text x="494" y="79" fill="black" font-size="16" font-family="Times">
&#0177;
</text>
<text x="442" y="79" fill="black" font-size="16" font-family="Helvetica">
 32.54 
</text>
<text x="370" y="94" fill="black" font-size="16" font-family="Helvetica">
 
</text>
<text x="367" y="105" fill="black" font-size="11" font-family="Helvetica">
f
</text>
<text x="362" y="94" fill="black" font-size="16" font-family="Times">
&#0964;
</text>
<text x="516" y="98" fill="black" font-size="16" font-family="Helvetica">
 0.0
</text>
<text x="503" y="98" fill="black" font-size="16" font-family="Times">
&#0177;
</text>
<text x="451" y="98" fill="black" font-size="16" font-family="Helvetica">
  2197 
</text>
<path d="M57,346h 453" fill="none" stroke="black"/>
<text x="456" y="372" fill="black" font-size="12" font-family="Helvetica">
Time (ns)
</text>
<path d="M57,337v 9" fill="none" stroke="black"/>
<path d="M68,342v 4" fill="none" stroke="black"/>
<path d="M79,342v 4" fill="none" stroke="black"/>
<path d="M91,342v 4" fill="none" stroke="black"/>
<path d="M102,342v 4" fill="none" stroke="black"/>
<path d="M113,337v 9" fill="none" stroke="black"/>
<path d="M125,342v 4" fill="none" stroke="black"/>
<path d="M136,342v 4" fill="none" stroke="black"/>
<path d="M147,342v 4" fill="none" stroke="black"/>
<path d="M159,342v 4" fill="none" stroke="black"/>
<path d="M170,337v 9" fill="none" stroke="black"/>
<path d="M181,342v 4" fill="none" stroke="black"/>
<path d="M193,342v 4" fill="none" stroke="black"/>
<path d="M204,342v 4" fill="none" stroke="black"/>
<path d="M215,342v 4" fill="none" stroke="black"/>
<path d="M227,337v 9" fill="none" stroke="black"/>
<path d="M238,342v 4" fill="none" stroke="black"/>
<path d="M249,342v 4" fill="none" stroke="black"/>
<path d="M261,342v 4" fill="none" stroke="black"/>
<path d="M272,342v 4" fill="none" stroke="black"/>
<path d="M283,337v 9" fill="none" stroke="black"/>
<path d="M295,342v 4" fill="none" stroke="black"/>
<path d="M306,342v 4" fill="none" stroke="black"/>
<path d="M317,342v 4" fill="none" stroke="black"/>
<path d="M329,342v 4" fill="none" stroke="black"/>
<path d="M340,337v 9" fill="none" stroke="black"/>
<path d="M351,342v 4" fill="none" stroke="black"/>
<path d="M363,342v 4" fill="none" stroke="black"/>
<path d="M374,342v 4" fill="none" stroke="black"/>
<path d="M386,342v 4" fill="none" stroke="black"/>
<path d="M397,337v 9" fill="none" stroke="black"/>
<path d="M408,342v 4" fill="none" stroke="black"/>
<path d="M420,342v 4" fill="none" stroke="black"/>
<path d="M431,342v 4" fill="none" stroke="black"/>
<path d="M442,342v 4" fill="none" stroke="black"/>
<path d="M454,337v 9" fill="none" stroke="black"/>
<path d="M465,342v 4" fill="none" stroke="black"/>
<path d="M476,342v 4" fill="none" stroke="black"/>
<path d="M488,342v 4" fill="none" stroke="black"/>
<path d="M499,342v 4" fill="none" stroke="black"/>
<path d="M510,337v 9" fill="none" stroke="black"/>
<text x="36" y="359" fill="black" font-size="12" font-family="Helvetica">
-20000
</text>
<text x="93" y="359" fill="black" font-size="12" font-family="Helvetica">
-15000
</text>
<text x="149" y="359" fill="black" font-size="12" font-family="Helvetica">
-10000
</text>
<text x="210" y="359" fill="black" font-size="12" font-family="Helvetica">
-5000
</text>
<text x="280" y="359" fill="black" font-size="12" font-family="Helvetica">
0
</text>
<text x="325" y="359" fill="black" font-size="12" font-family="Helvetica">
5000
</text>
<text x="379" y="359" fill="black" font-size="12" font-family="Helvetica">
10000
</text>
<text x="435" y="359" fill="black" font-size="12" font-family="Helvetica">
15000
</text>
<text x="492" y="359" fill="black" font-size="12" font-family="Helvetica">
20000
</text>
<path d="M57,346v -308" fill="none" stroke="black"/>
<g transform="rotate(-90,29,72)">
<text x="29" y="72" fill="black" font-size="12" font-family="Helvetica">
Count
</text>
</g>
<path d="M70,346h -13" fill="none" stroke="black"/>
<path d="M63,338h -6" fill="none" stroke="black"/>
<path d="M63,330h -6" fill="none" stroke="black"/>
<path d="M63,322h -6" fill="none" stroke="black"/>
<path d="M63,314h -6" fill="none" stroke="black"/>
<path d="M70,306h -13" fill="none" stroke="black"/>
<path d="M63,298h -6" fill="none" stroke="black"/>
<path d="M63,289h -6" fill="none" stroke="black"/>
<path d="M63,281h -6" fill="none" stroke="black"/>
<path d="M63,273h -6" fill="none" stroke="black"/>
<path d="M70,265h -13" fill="none" stroke="black"/>
<path d="M63,257h -6" fill="none" stroke="black"/>
<path d="M63,249h -6" fill="none" stroke="black"/>
<path d="M63,240h -6" fill="none" stroke="black"/>
<path d="M63,232h -6" fill="none" stroke="black"/>
<path d="M70,224h -13" fill="none" stroke="black"/>
<path d="M63,216h -6" fill="none" stroke="black"/>
<path d="M63,208h -6" fill="none" stroke="black"/>
<path d="M63,200h -6" fill="none" stroke="black"/>
<path d="M63,192h -6" fill="none" stroke="black"/>
<path d="M70,183h -13" fill="none" stroke="black"/>
<path d="M63,175h -6" fill="none" stroke="black"/>
<path d="M63,167h -6" fill="none" stroke="black"/>
<path d="M63,159h -6" fill="none" stroke="black"/>
<path d="M63,151h -6" fill="none" stroke="black"/>
<path d="M70,143h -13" fill="none" stroke="black"/>
<path d="M63,134h -6" fill="none" stroke="black"/>
<path d="M63,126h -6" fill="none" stroke="black"/>
<path d="M63,118h -6" fill="none" stroke="black"/>
<path d="M63,110h -6" fill="none" stroke="black"/>
<path d="M70,102h -13" fill="none" stroke="black"/>
<path d="M63,94h -6" fill="none" stroke="black"/>
<path d="M63,86h -6" fill="none" stroke="black"/>
<path d="M63,77h -6" fill="none" stroke="black"/>
<path d="M63,69h -6" fill="none" stroke="black"/>
<path d="M70,61h -13" fill="none" stroke="black"/>
<path d="M70,61h -13" fill="none" stroke="black"/>
<path d="M63,53h -6" fill="none" stroke="black"/>
<path d="M63,45h -6" fill="none" stroke="black"/>
<text x="47" y="350" fill="black" font-size="12" font-family="Helvetica">
0
</text>
<text x="47" y="309" fill="black" font-size="12" font-family="Helvetica">
5
</text>
<text x="40" y="269" fill="black" font-size="12" font-family="Helvetica">
10
</text>
<text x="40" y="228" fill="black" font-size="12" font-family="Helvetica">
15
</text>
<text x="40" y="187" fill="black" font-size="12" font-family="Helvetica">
20
</text>
<text x="40" y="146" fill="black" font-size="12" font-family="Helvetica">
25
</text>
<text x="40" y="106" fill="black" font-size="12" font-family="Helvetica">
30
</text>
<text x="40" y="65" fill="black" font-size="12" font-family="Helvetica">
35
</text>
<rect x="351" y="25" width="205" height="77" fill="white"/>
<path d="M351,102h 205" fill="none" stroke="black"/>
<path d="M556,102v -77" fill="none" stroke="black"/>
<path d="M556,25h -205" fill="none" stroke="black"/>
<path d="M351,25v 77" fill="none" stroke="black"/>
<text x="362" y="40" fill="black" font-size="16" font-family="Helvetica">
Entries 
</text>
<text x="503" y="40" fill="black" font-size="16" font-family="Helvetica">
 1756
</text>
<text x="376" y="61" fill="black" font-size="16" font-family="Helvetica">
 / ndf 
</text>
<text x="370" y="47" fill="black" font-size="11" font-family="Helvetica">
2
</text>
<text x="362" y="61" fill="black" font-size="16" font-family="Times">
&#0967;
</text>
<text x="455" y="59" fill="black" font-size="16" font-family="Helvetica">
 249.8 / 497
</text>
<text x="376" y="73" fill="black" font-size="16" font-family="Helvetica">
    
</text>
<text x="374" y="83" fill="black" font-size="11" font-family="Helvetica">
f
</text>
<text x="362" y="73" fill="black" font-size="16" font-family="Helvetica">
N
</text>
<text x="507" y="79" fill="black" font-size="16" font-family="Helvetica">
 0.78
</text>
<text x="494" y="79" fill="black" font-size="16" font-family="Times">
&#0177;
</text>
<text x="442" y="79" fill="black" font-size="16" font-family="Helvetica">
 32.54 
</text>
<text x="370" y="94" fill="black" font-size="16" font-family="Helvetica">
 
</text>
<text x="367" y="105" fill="black" font-size="11" font-family="Helvetica">
f
</text>
<text x="362" y="94" fill="black" font-size="16" font-family="Times">
&#0964;
</text>
<text x="516" y="98" fill="black" font-size="16" font-family="Helvetica">
 0.0
</text>
<text x="503" y="98" fill="black" font-size="16" font-family="Times">
&#0177;
</text>
<text x="451" y="98" fill="black" font-size="16" font-family="Helvetica">
  2197 
</text>
<path d="M285,99l 2, 21l 3, 20l 2, 18l 2, 16l 2, 15l 3, 14l 2, 12l 2, 12l 3, 10l 2, 9l 2, 9l 2, 8l 3, 7l 2, 7l 2, 6l 2, 5l 3, 6l 2, 4l 2, 4l 2, 4l 3, 4l 2, 3l 2, 3l 2, 2l 3, 3l 2, 2l 2, 2l 2, 2l 3, 2l 2, 1l 2, 2l 3, 1l 2, 1l 2, 1l 2, 1l 3, 1l 2, 1l
 2, 1h 2l 3, 1h 2l 2, 1h 2l 3, 1h 2l 2, 1h 5l 2, 1" fill="none" stroke="#ff0000" stroke-width="2"/>
<path d="M396,344h 9l 2, 1h 16l 2, 1h 82" fill="none" stroke="#ff0000" stroke-width="2"/>
<path d="M507,346h 2" fill="none" stroke="#ff0000" stroke-width="2"/>
<text x="187" y="21" fill="black" font-size="20" font-family="Helvetica">
al_target_100000k_f
</text></svg>
