<?xml version="1.0" standalone="no"?>
<svg width="567" height="385" viewBox="0 0 567 385" xmlns="http://www.w3.org/2000/svg">
<title>
mu-_loose_cu_f.svg
</title>
<desc>
Creator: ROOT Version 5.34/05
CreationDate: Mon May 20 14:51:36 2013</desc>
<defs>
</defs>
<rect x="0" y="0" width="567" height="385" fill="white"/>
<rect x="57" y="38" width="453" height="308" fill="white"/>
<rect x="57" y="38" width="453" height="308" fill="none" stroke="black"/>
<rect x="57" y="38" width="453" height="308" fill="white"/>
<rect x="57" y="38" width="453" height="308" fill="none" stroke="black"/>
<path d="M57,346h 227v -207v 6h 1v -35v 47h 1v -81h 1v 63v -17h 1v -40v 109h 1v -138v 69h 1v 58h 1v -29v 40h 1v -69h 1v 75v -6h 1v -40h 1v 40h 1v -46v 52h 1v 46v -75h 1v 69v -52h 1v 58v -58h 1v 75h 1v -46v 23h 1v -52h 1v 87v -41h 1v -40v 58h 1v -18h
 1v -34h 1v 52v -29h 1v 34v -11v 6h 1v 17h 1v 23v -35h 1v 6v -11h 1v 23v -52v 34h 1v 35v -17h 2v -6h 1v 23v -52h 1v 63h 1v -28h 1v -18v 41h 1v -35v 6h 1v -40h 1v 80v -6v 6h 1v 6v -29h 1v 23v -6h 1v 12h 1v -6h 1v 6v -17h 1v 28h 1v -17h 1v 17v -5h 1v
 -6h 1v 6v -12h 1v -6v 29h 1v -34h 1v 28h 1v 12v -29h 1v -6v 23v -11h 1v 11v -23h 1v 23h 1v -40h 1v 40h 1v -28v 46v -18h 1v 12v -17h 1v 17h 1v -23h 1v 29h 1v -18h 1v 12v -40h 1v 28h 1v 12h 1v -12h 1v 12h 1v 6v -12h 1v 6v -12h 1v 12v -6h 1v 12v -18v
 12h 1v -6v 6h 1v 11v -17h 1v 17v -11h 1v -6v 6h 2v 11h 1v -5h 1v 5v -5h 1v -18v 18h 1v -6v 11v -17h 1v 17v -5h 1v -12h 1v 12h 1v -6v 6h 1v -12v 17h 1v -11v 11h 1v -11h 1v 6h 1v 5h 1v -11h 1v 11h 1v -11v 6h 1v 5v -5h 1v 5h 1v -11v 11h 1v -5v 5h 1v
 -5v 5h 1v -5h 1v 5h 1v -5h 1v 5h 1v -5v 5h 1v -11h 1v 11h 1v -11v 11h 1v -5h 1v 5h 1v -5v 5h 1v -5v 5h 1v -5v 5h 1v -5h 1v 5h 1v -5h 1v 5h 6v -11v 11h 1v -5v 5h 2v -5h 1v -6v 11h 2v -5h 1v 5v -5h 1v 5h 3v -5h 1v 5v -5h 1v 5h 1v -5h 1v 5h 2v -5v 5h
 11v -5h 1v 5h 17v -5v 5h 7v -5v 5h 51" fill="none" stroke="#000099"/>
<rect x="351" y="25" width="205" height="77" fill="white"/>
<path d="M351,102h 205" fill="none" stroke="black"/>
<path d="M556,102v -77" fill="none" stroke="black"/>
<path d="M556,25h -205" fill="none" stroke="black"/>
<path d="M351,25v 77" fill="none" stroke="black"/>
<text x="362" y="40" fill="black" font-size="16" font-family="Helvetica">
Entries 
</text>
<text x="503" y="40" fill="black" font-size="16" font-family="Helvetica">
 2420
</text>
<text x="376" y="61" fill="black" font-size="16" font-family="Helvetica">
 / ndf 
</text>
<text x="370" y="47" fill="black" font-size="11" font-family="Helvetica">
2
</text>
<text x="362" y="61" fill="black" font-size="16" font-family="Times">
&#0967;
</text>
<text x="455" y="59" fill="black" font-size="16" font-family="Helvetica">
 184.5 / 236
</text>
<text x="376" y="73" fill="black" font-size="16" font-family="Helvetica">
    
</text>
<text x="374" y="83" fill="black" font-size="11" font-family="Helvetica">
f
</text>
<text x="362" y="73" fill="black" font-size="16" font-family="Helvetica">
N
</text>
<text x="507" y="79" fill="black" font-size="16" font-family="Helvetica">
 0.90
</text>
<text x="494" y="79" fill="black" font-size="16" font-family="Times">
&#0177;
</text>
<text x="442" y="79" fill="black" font-size="16" font-family="Helvetica">
 42.37 
</text>
<text x="370" y="94" fill="black" font-size="16" font-family="Helvetica">
 
</text>
<text x="367" y="105" fill="black" font-size="11" font-family="Helvetica">
f
</text>
<text x="362" y="94" fill="black" font-size="16" font-family="Times">
&#0964;
</text>
<text x="516" y="98" fill="black" font-size="16" font-family="Helvetica">
 0.0
</text>
<text x="503" y="98" fill="black" font-size="16" font-family="Times">
&#0177;
</text>
<text x="451" y="98" fill="black" font-size="16" font-family="Helvetica">
  2197 
</text>
<path d="M57,346h 453" fill="none" stroke="black"/>
<text x="456" y="372" fill="black" font-size="12" font-family="Helvetica">
Time (ns)
</text>
<path d="M57,337v 9" fill="none" stroke="black"/>
<path d="M68,342v 4" fill="none" stroke="black"/>
<path d="M79,342v 4" fill="none" stroke="black"/>
<path d="M91,342v 4" fill="none" stroke="black"/>
<path d="M102,342v 4" fill="none" stroke="black"/>
<path d="M113,337v 9" fill="none" stroke="black"/>
<path d="M125,342v 4" fill="none" stroke="black"/>
<path d="M136,342v 4" fill="none" stroke="black"/>
<path d="M147,342v 4" fill="none" stroke="black"/>
<path d="M159,342v 4" fill="none" stroke="black"/>
<path d="M170,337v 9" fill="none" stroke="black"/>
<path d="M181,342v 4" fill="none" stroke="black"/>
<path d="M193,342v 4" fill="none" stroke="black"/>
<path d="M204,342v 4" fill="none" stroke="black"/>
<path d="M215,342v 4" fill="none" stroke="black"/>
<path d="M227,337v 9" fill="none" stroke="black"/>
<path d="M238,342v 4" fill="none" stroke="black"/>
<path d="M249,342v 4" fill="none" stroke="black"/>
<path d="M261,342v 4" fill="none" stroke="black"/>
<path d="M272,342v 4" fill="none" stroke="black"/>
<path d="M283,337v 9" fill="none" stroke="black"/>
<path d="M295,342v 4" fill="none" stroke="black"/>
<path d="M306,342v 4" fill="none" stroke="black"/>
<path d="M317,342v 4" fill="none" stroke="black"/>
<path d="M329,342v 4" fill="none" stroke="black"/>
<path d="M340,337v 9" fill="none" stroke="black"/>
<path d="M351,342v 4" fill="none" stroke="black"/>
<path d="M363,342v 4" fill="none" stroke="black"/>
<path d="M374,342v 4" fill="none" stroke="black"/>
<path d="M386,342v 4" fill="none" stroke="black"/>
<path d="M397,337v 9" fill="none" stroke="black"/>
<path d="M408,342v 4" fill="none" stroke="black"/>
<path d="M420,342v 4" fill="none" stroke="black"/>
<path d="M431,342v 4" fill="none" stroke="black"/>
<path d="M442,342v 4" fill="none" stroke="black"/>
<path d="M454,337v 9" fill="none" stroke="black"/>
<path d="M465,342v 4" fill="none" stroke="black"/>
<path d="M476,342v 4" fill="none" stroke="black"/>
<path d="M488,342v 4" fill="none" stroke="black"/>
<path d="M499,342v 4" fill="none" stroke="black"/>
<path d="M510,337v 9" fill="none" stroke="black"/>
<text x="36" y="359" fill="black" font-size="12" font-family="Helvetica">
-20000
</text>
<text x="93" y="359" fill="black" font-size="12" font-family="Helvetica">
-15000
</text>
<text x="149" y="359" fill="black" font-size="12" font-family="Helvetica">
-10000
</text>
<text x="210" y="359" fill="black" font-size="12" font-family="Helvetica">
-5000
</text>
<text x="280" y="359" fill="black" font-size="12" font-family="Helvetica">
0
</text>
<text x="325" y="359" fill="black" font-size="12" font-family="Helvetica">
5000
</text>
<text x="379" y="359" fill="black" font-size="12" font-family="Helvetica">
10000
</text>
<text x="435" y="359" fill="black" font-size="12" font-family="Helvetica">
15000
</text>
<text x="492" y="359" fill="black" font-size="12" font-family="Helvetica">
20000
</text>
<path d="M57,346v -308" fill="none" stroke="black"/>
<g transform="rotate(-90,29,72)">
<text x="29" y="72" fill="black" font-size="12" font-family="Helvetica">
Count
</text>
</g>
<path d="M70,346h -13" fill="none" stroke="black"/>
<path d="M63,335h -6" fill="none" stroke="black"/>
<path d="M63,323h -6" fill="none" stroke="black"/>
<path d="M63,312h -6" fill="none" stroke="black"/>
<path d="M63,300h -6" fill="none" stroke="black"/>
<path d="M70,289h -13" fill="none" stroke="black"/>
<path d="M63,277h -6" fill="none" stroke="black"/>
<path d="M63,266h -6" fill="none" stroke="black"/>
<path d="M63,254h -6" fill="none" stroke="black"/>
<path d="M63,243h -6" fill="none" stroke="black"/>
<path d="M70,231h -13" fill="none" stroke="black"/>
<path d="M63,220h -6" fill="none" stroke="black"/>
<path d="M63,208h -6" fill="none" stroke="black"/>
<path d="M63,197h -6" fill="none" stroke="black"/>
<path d="M63,185h -6" fill="none" stroke="black"/>
<path d="M70,174h -13" fill="none" stroke="black"/>
<path d="M63,162h -6" fill="none" stroke="black"/>
<path d="M63,151h -6" fill="none" stroke="black"/>
<path d="M63,139h -6" fill="none" stroke="black"/>
<path d="M63,128h -6" fill="none" stroke="black"/>
<path d="M70,116h -13" fill="none" stroke="black"/>
<path d="M63,105h -6" fill="none" stroke="black"/>
<path d="M63,93h -6" fill="none" stroke="black"/>
<path d="M63,82h -6" fill="none" stroke="black"/>
<path d="M63,70h -6" fill="none" stroke="black"/>
<path d="M70,59h -13" fill="none" stroke="black"/>
<path d="M70,59h -13" fill="none" stroke="black"/>
<path d="M63,47h -6" fill="none" stroke="black"/>
<text x="47" y="350" fill="black" font-size="12" font-family="Helvetica">
0
</text>
<text x="40" y="293" fill="black" font-size="12" font-family="Helvetica">
10
</text>
<text x="40" y="235" fill="black" font-size="12" font-family="Helvetica">
20
</text>
<text x="40" y="177" fill="black" font-size="12" font-family="Helvetica">
30
</text>
<text x="40" y="120" fill="black" font-size="12" font-family="Helvetica">
40
</text>
<text x="40" y="62" fill="black" font-size="12" font-family="Helvetica">
50
</text>
<rect x="351" y="25" width="205" height="77" fill="white"/>
<path d="M351,102h 205" fill="none" stroke="black"/>
<path d="M556,102v -77" fill="none" stroke="black"/>
<path d="M556,25h -205" fill="none" stroke="black"/>
<path d="M351,25v 77" fill="none" stroke="black"/>
<text x="362" y="40" fill="black" font-size="16" font-family="Helvetica">
Entries 
</text>
<text x="503" y="40" fill="black" font-size="16" font-family="Helvetica">
 2420
</text>
<text x="376" y="61" fill="black" font-size="16" font-family="Helvetica">
 / ndf 
</text>
<text x="370" y="47" fill="black" font-size="11" font-family="Helvetica">
2
</text>
<text x="362" y="61" fill="black" font-size="16" font-family="Times">
&#0967;
</text>
<text x="455" y="59" fill="black" font-size="16" font-family="Helvetica">
 184.5 / 236
</text>
<text x="376" y="73" fill="black" font-size="16" font-family="Helvetica">
    
</text>
<text x="374" y="83" fill="black" font-size="11" font-family="Helvetica">
f
</text>
<text x="362" y="73" fill="black" font-size="16" font-family="Helvetica">
N
</text>
<text x="507" y="79" fill="black" font-size="16" font-family="Helvetica">
 0.90
</text>
<text x="494" y="79" fill="black" font-size="16" font-family="Times">
&#0177;
</text>
<text x="442" y="79" fill="black" font-size="16" font-family="Helvetica">
 42.37 
</text>
<text x="370" y="94" fill="black" font-size="16" font-family="Helvetica">
 
</text>
<text x="367" y="105" fill="black" font-size="11" font-family="Helvetica">
f
</text>
<text x="362" y="94" fill="black" font-size="16" font-family="Times">
&#0964;
</text>
<text x="516" y="98" fill="black" font-size="16" font-family="Helvetica">
 0.0
</text>
<text x="503" y="98" fill="black" font-size="16" font-family="Times">
&#0177;
</text>
<text x="451" y="98" fill="black" font-size="16" font-family="Helvetica">
  2197 
</text>
<path d="M285,119l 2, 19l 3, 18l 2, 17l 2, 15l 2, 14l 3, 12l 2, 12l 2, 10l 3, 10l 2, 9l 2, 8l 2, 7l 3, 7l 2, 6l 2, 5l 2, 5l 3, 5l 2, 4l 2, 4l 2, 3l 3, 4l 2, 3l 2, 2l 2, 3l 3, 2l 2, 2l 2, 2l 2, 2l 3, 1l 2, 2l 2, 1l 3, 1l 2, 1l 2, 1l 2, 1l 3, 1l 2, 1h
 2l 2, 1h 3l 2, 1h 2l 2, 1h 3l 2, 1h 4l 3, 1h 2" fill="none" stroke="#ff0000" stroke-width="2"/>
<path d="M396,344h 7l 2, 1h 16l 2, 1h 84" fill="none" stroke="#ff0000" stroke-width="2"/>
<path d="M507,346h 2" fill="none" stroke="#ff0000" stroke-width="2"/>
<text x="167" y="21" fill="black" font-size="20" font-family="Helvetica">
mu-_5mm_Air_100000_f
</text></svg>
