<?xml version="1.0" standalone="no"?>
<svg width="567" height="328" viewBox="0 0 567 328" xmlns="http://www.w3.org/2000/svg">
<title>
/Users/samcook/code/MuSIC/offline_analysis_music5/MuSIC5_offline_analysis/MuSIC5_offline_analysis/scripts/images/muon_yields.svg
</title>
<desc>
Creator: ROOT Version 5.32/00
CreationDate: Tue Oct  2 23:39:24 2012</desc>
<defs>
</defs>
<rect x="0" y="0" width="567" height="328" fill="white"/>
<rect x="57" y="33" width="453" height="262" fill="white"/>
<rect x="57" y="33" width="453" height="262" fill="none" stroke="black"/>
<rect x="57" y="33" width="453" height="262" fill="white"/>
<rect x="57" y="33" width="453" height="262" fill="none" stroke="black"/>
<path d="M57,295h 453" fill="none" stroke="black"/>
<text x="338" y="317" fill="black" font-size="11" font-family="Helvetica">
Aluminium degrader thickness (mm)
</text>
<path d="M57,287v 8" fill="none" stroke="black"/>
<path d="M70,291v 4" fill="none" stroke="black"/>
<path d="M83,291v 4" fill="none" stroke="black"/>
<path d="M96,291v 4" fill="none" stroke="black"/>
<path d="M109,291v 4" fill="none" stroke="black"/>
<path d="M121,287v 8" fill="none" stroke="black"/>
<path d="M134,291v 4" fill="none" stroke="black"/>
<path d="M147,291v 4" fill="none" stroke="black"/>
<path d="M160,291v 4" fill="none" stroke="black"/>
<path d="M173,291v 4" fill="none" stroke="black"/>
<path d="M186,287v 8" fill="none" stroke="black"/>
<path d="M199,291v 4" fill="none" stroke="black"/>
<path d="M212,291v 4" fill="none" stroke="black"/>
<path d="M225,291v 4" fill="none" stroke="black"/>
<path d="M238,291v 4" fill="none" stroke="black"/>
<path d="M251,287v 8" fill="none" stroke="black"/>
<path d="M264,291v 4" fill="none" stroke="black"/>
<path d="M277,291v 4" fill="none" stroke="black"/>
<path d="M290,291v 4" fill="none" stroke="black"/>
<path d="M303,291v 4" fill="none" stroke="black"/>
<path d="M316,287v 8" fill="none" stroke="black"/>
<path d="M329,291v 4" fill="none" stroke="black"/>
<path d="M342,291v 4" fill="none" stroke="black"/>
<path d="M355,291v 4" fill="none" stroke="black"/>
<path d="M368,291v 4" fill="none" stroke="black"/>
<path d="M381,287v 8" fill="none" stroke="black"/>
<path d="M394,291v 4" fill="none" stroke="black"/>
<path d="M407,291v 4" fill="none" stroke="black"/>
<path d="M420,291v 4" fill="none" stroke="black"/>
<path d="M432,291v 4" fill="none" stroke="black"/>
<path d="M445,287v 8" fill="none" stroke="black"/>
<path d="M458,291v 4" fill="none" stroke="black"/>
<path d="M471,291v 4" fill="none" stroke="black"/>
<path d="M484,291v 4" fill="none" stroke="black"/>
<path d="M497,291v 4" fill="none" stroke="black"/>
<path d="M510,287v 8" fill="none" stroke="black"/>
<path d="M510,287v 8" fill="none" stroke="black"/>
<text x="53" y="306" fill="black" font-size="11" font-family="Helvetica">
-1
</text>
<text x="118" y="306" fill="black" font-size="11" font-family="Helvetica">
0
</text>
<text x="184" y="306" fill="black" font-size="11" font-family="Helvetica">
1
</text>
<text x="248" y="306" fill="black" font-size="11" font-family="Helvetica">
2
</text>
<text x="313" y="306" fill="black" font-size="11" font-family="Helvetica">
3
</text>
<text x="378" y="306" fill="black" font-size="11" font-family="Helvetica">
4
</text>
<text x="443" y="306" fill="black" font-size="11" font-family="Helvetica">
5
</text>
<text x="507" y="306" fill="black" font-size="11" font-family="Helvetica">
6
</text>
<path d="M57,295v -262" fill="none" stroke="black"/>
<g transform="rotate(-90,29,77)">
<text x="29" y="77" fill="black" font-size="11" font-family="Helvetica">
muons/s)
</text>
</g>
<g transform="rotate(-90,24,81)">
<text x="24" y="81" fill="black" font-size="7" font-family="Helvetica">
7
</text>
</g>
<g transform="rotate(-90,29,127)">
<text x="29" y="127" fill="black" font-size="11" font-family="Helvetica">
Yield (x10
</text>
</g>
<path d="M70,279h -13" fill="none" stroke="black"/>
<path d="M63,269h -6" fill="none" stroke="black"/>
<path d="M63,260h -6" fill="none" stroke="black"/>
<path d="M63,250h -6" fill="none" stroke="black"/>
<path d="M70,240h -13" fill="none" stroke="black"/>
<path d="M63,231h -6" fill="none" stroke="black"/>
<path d="M63,221h -6" fill="none" stroke="black"/>
<path d="M63,211h -6" fill="none" stroke="black"/>
<path d="M70,201h -13" fill="none" stroke="black"/>
<path d="M63,192h -6" fill="none" stroke="black"/>
<path d="M63,182h -6" fill="none" stroke="black"/>
<path d="M63,172h -6" fill="none" stroke="black"/>
<path d="M70,163h -13" fill="none" stroke="black"/>
<path d="M63,153h -6" fill="none" stroke="black"/>
<path d="M63,143h -6" fill="none" stroke="black"/>
<path d="M63,134h -6" fill="none" stroke="black"/>
<path d="M70,124h -13" fill="none" stroke="black"/>
<path d="M63,114h -6" fill="none" stroke="black"/>
<path d="M63,104h -6" fill="none" stroke="black"/>
<path d="M63,95h -6" fill="none" stroke="black"/>
<path d="M70,85h -13" fill="none" stroke="black"/>
<path d="M63,75h -6" fill="none" stroke="black"/>
<path d="M63,66h -6" fill="none" stroke="black"/>
<path d="M63,56h -6" fill="none" stroke="black"/>
<path d="M70,46h -13" fill="none" stroke="black"/>
<path d="M70,279h -13" fill="none" stroke="black"/>
<path d="M63,289h -6" fill="none" stroke="black"/>
<path d="M70,46h -13" fill="none" stroke="black"/>
<path d="M63,37h -6" fill="none" stroke="black"/>
<text x="48" y="283" fill="black" font-size="11" font-family="Helvetica">
6
</text>
<text x="48" y="244" fill="black" font-size="11" font-family="Helvetica">
8
</text>
<text x="42" y="205" fill="black" font-size="11" font-family="Helvetica">
10
</text>
<text x="42" y="167" fill="black" font-size="11" font-family="Helvetica">
12
</text>
<text x="42" y="128" fill="black" font-size="11" font-family="Helvetica">
14
</text>
<text x="42" y="89" fill="black" font-size="11" font-family="Helvetica">
16
</text>
<text x="42" y="50" fill="black" font-size="11" font-family="Helvetica">
18
</text>
<g stroke="black" stroke-width="1" fill="none">
<line x1="120" y1="273" x2="121" y2="273"/>
<line x1="153" y1="250" x2="154" y2="250"/>
<line x1="153" y1="226" x2="154" y2="226"/>
<line x1="185" y1="160" x2="186" y2="160"/>
<line x1="444" y1="184" x2="445" y2="184"/>
<line x1="444" y1="55" x2="445" y2="55"/>
</g>
<path d="M121,273" fill="none" stroke="black"/>
<path d="M121,273h 1" fill="none" stroke="black"/>
<path d="M121,273" fill="none" stroke="black"/>
<path d="M121,273h 1" fill="none" stroke="black"/>
<path d="M154,250v -1" fill="none" stroke="black"/>
<path d="M153,249h 2" fill="none" stroke="black"/>
<path d="M154,250v 1" fill="none" stroke="black"/>
<path d="M153,251h 2" fill="none" stroke="black"/>
<path d="M154,226v -1" fill="none" stroke="black"/>
<path d="M153,225h 2" fill="none" stroke="black"/>
<path d="M154,226v 1" fill="none" stroke="black"/>
<path d="M153,227h 2" fill="none" stroke="black"/>
<path d="M186,160v -1" fill="none" stroke="black"/>
<path d="M185,159h 2" fill="none" stroke="black"/>
<path d="M186,160v 1" fill="none" stroke="black"/>
<path d="M185,161h 2" fill="none" stroke="black"/>
<path d="M445,184v -1" fill="none" stroke="black"/>
<path d="M445,183h 1" fill="none" stroke="black"/>
<path d="M445,184v 1" fill="none" stroke="black"/>
<path d="M445,185h 1" fill="none" stroke="black"/>
<path d="M445,55" fill="none" stroke="black"/>
<path d="M445,55h 1" fill="none" stroke="black"/>
<path d="M445,55" fill="none" stroke="black"/>
<path d="M445,55h 1" fill="none" stroke="black"/>
<text x="290" y="16" fill="black" font-size="16" font-family="Helvetica">
A proton current
</text>
<text x="281" y="16" fill="black" font-size="16" font-family="Times">
&#0956;
</text>
<text x="163" y="16" fill="black" font-size="16" font-family="Helvetica">
Muon yields for 1
</text></svg>
