<?xml version="1.0" standalone="no"?>
<svg width="567" height="328" viewBox="0 0 567 328" xmlns="http://www.w3.org/2000/svg">
<title>
/Users/samcook/code/MuSIC/offline_analysis_music5/MuSIC5_offline_analysis/MuSIC5_offline_analysis/scripts/images/FUCK.svg
</title>
<desc>
Creator: ROOT Version 5.32/00
CreationDate: Wed Oct 24 18:28:52 2012</desc>
<defs>
</defs>
<rect x="0" y="0" width="567" height="328" fill="white"/>
<rect x="6" y="3" width="555" height="322" fill="white"/>
<rect x="61" y="35" width="445" height="257" fill="white"/>
<rect x="61" y="35" width="445" height="257" fill="none" stroke="black"/>
<rect x="61" y="35" width="445" height="257" fill="white"/>
<rect x="61" y="35" width="445" height="257" fill="none" stroke="black"/>
<path d="M83,55v -4" fill="none" stroke="#000099"/>
<path d="M83,51v -3" fill="none" stroke="#000099"/>
<path d="M61,51h 22" fill="none" stroke="#000099"/>
<path d="M83,51h 22" fill="none" stroke="#000099"/>
<g stroke="black" stroke-width="1" fill="none">
<line x1="82" y1="51" x2="83" y2="51"/>
</g>
<path d="M128,275" fill="none" stroke="#000099"/>
<path d="M128,275" fill="none" stroke="#000099"/>
<path d="M105,275h 23" fill="none" stroke="#000099"/>
<path d="M128,275h 22" fill="none" stroke="#000099"/>
<g stroke="black" stroke-width="1" fill="none">
<line x1="127" y1="275" x2="128" y2="275"/>
</g>
<path d="M172,279v -1" fill="none" stroke="#000099"/>
<path d="M172,278" fill="none" stroke="#000099"/>
<path d="M150,278h 22" fill="none" stroke="#000099"/>
<path d="M172,278h 22" fill="none" stroke="#000099"/>
<g stroke="black" stroke-width="1" fill="none">
<line x1="171" y1="278" x2="172" y2="278"/>
</g>
<path d="M217,278" fill="none" stroke="#000099"/>
<path d="M217,278" fill="none" stroke="#000099"/>
<path d="M194,278h 23" fill="none" stroke="#000099"/>
<path d="M217,278h 22" fill="none" stroke="#000099"/>
<g stroke="black" stroke-width="1" fill="none">
<line x1="216" y1="278" x2="217" y2="278"/>
</g>
<path d="M261,84v -3" fill="none" stroke="#000099"/>
<path d="M261,81v -4" fill="none" stroke="#000099"/>
<path d="M239,81h 22" fill="none" stroke="#000099"/>
<path d="M261,81h 22" fill="none" stroke="#000099"/>
<g stroke="black" stroke-width="1" fill="none">
<line x1="260" y1="81" x2="261" y2="81"/>
</g>
<path d="M305,105v -3" fill="none" stroke="#000099"/>
<path d="M305,102v -3" fill="none" stroke="#000099"/>
<path d="M283,102h 22" fill="none" stroke="#000099"/>
<path d="M305,102h 23" fill="none" stroke="#000099"/>
<g stroke="black" stroke-width="1" fill="none">
<line x1="304" y1="102" x2="305" y2="102"/>
</g>
<path d="M350,279v -1" fill="none" stroke="#000099"/>
<path d="M350,278" fill="none" stroke="#000099"/>
<path d="M328,278h 22" fill="none" stroke="#000099"/>
<path d="M350,278h 22" fill="none" stroke="#000099"/>
<g stroke="black" stroke-width="1" fill="none">
<line x1="349" y1="278" x2="350" y2="278"/>
</g>
<path d="M394,173v -2" fill="none" stroke="#000099"/>
<path d="M394,171v -3" fill="none" stroke="#000099"/>
<path d="M372,171h 22" fill="none" stroke="#000099"/>
<path d="M394,171h 23" fill="none" stroke="#000099"/>
<g stroke="black" stroke-width="1" fill="none">
<line x1="393" y1="171" x2="394" y2="171"/>
</g>
<path d="M439,282" fill="none" stroke="#000099"/>
<path d="M439,282" fill="none" stroke="#000099"/>
<path d="M417,282h 22" fill="none" stroke="#000099"/>
<path d="M439,282h 22" fill="none" stroke="#000099"/>
<g stroke="black" stroke-width="1" fill="none">
<line x1="438" y1="282" x2="439" y2="282"/>
</g>
<path d="M483,282" fill="none" stroke="#000099"/>
<path d="M483,282" fill="none" stroke="#000099"/>
<path d="M461,282h 22" fill="none" stroke="#000099"/>
<path d="M483,282h 23" fill="none" stroke="#000099"/>
<g stroke="black" stroke-width="1" fill="none">
<line x1="482" y1="282" x2="483" y2="282"/>
</g>
<rect x="439" y="24" width="111" height="52" fill="white"/>
<path d="M439,76h 111" fill="none" stroke="black"/>
<path d="M550,76v -52" fill="none" stroke="black"/>
<path d="M550,24h -111" fill="none" stroke="black"/>
<path d="M439,24v 52" fill="none" stroke="black"/>
<text x="443" y="32" fill="black" font-size="5" font-family="Helvetica">
muons_per_p+settings_lo_50_hi_20000_bins_50
</text>
<path d="M439,37h 111" fill="none" stroke="black"/>
<text x="444" y="48" fill="black" font-size="11" font-family="Helvetica">
Entries 
</text>
<text x="529" y="48" fill="black" font-size="11" font-family="Helvetica">
 10
</text>
<text x="444" y="61" fill="black" font-size="11" font-family="Helvetica">
Mean  
</text>
<text x="511" y="61" fill="black" font-size="11" font-family="Helvetica">
  4.046
</text>
<text x="444" y="73" fill="black" font-size="11" font-family="Helvetica">
RMS   
</text>
<text x="512" y="73" fill="black" font-size="11" font-family="Helvetica">
  2.591
</text>
<path d="M61,292h 445" fill="none" stroke="black"/>
<text x="386" y="313" fill="black" font-size="10" font-family="Helvetica">
Degrader thickness (mm)
</text>
<text x="78" y="301" fill="black" font-size="7" font-family="Helvetica">
0.0
</text>
<text x="126" y="301" fill="black" font-size="7" font-family="Helvetica">
0
</text>
<text x="167" y="301" fill="black" font-size="7" font-family="Helvetica">
0.5
</text>
<text x="211" y="301" fill="black" font-size="7" font-family="Helvetica">
0.5
</text>
<text x="256" y="301" fill="black" font-size="7" font-family="Helvetica">
0.5
</text>
<text x="300" y="301" fill="black" font-size="7" font-family="Helvetica">
1.0
</text>
<text x="348" y="301" fill="black" font-size="7" font-family="Helvetica">
1
</text>
<text x="389" y="301" fill="black" font-size="7" font-family="Helvetica">
5.0
</text>
<text x="437" y="301" fill="black" font-size="7" font-family="Helvetica">
5
</text>
<text x="481" y="301" fill="black" font-size="7" font-family="Helvetica">
5
</text>
<path d="M61,285v 7" fill="none" stroke="black"/>
<path d="M105,285v 7" fill="none" stroke="black"/>
<path d="M150,285v 7" fill="none" stroke="black"/>
<path d="M194,285v 7" fill="none" stroke="black"/>
<path d="M239,285v 7" fill="none" stroke="black"/>
<path d="M283,285v 7" fill="none" stroke="black"/>
<path d="M328,285v 7" fill="none" stroke="black"/>
<path d="M372,285v 7" fill="none" stroke="black"/>
<path d="M417,285v 7" fill="none" stroke="black"/>
<path d="M461,285v 7" fill="none" stroke="black"/>
<path d="M506,285v 7" fill="none" stroke="black"/>
<path d="M61,292v -257" fill="none" stroke="black"/>
<g transform="rotate(-90,32,101)">
<text x="32" y="101" fill="black" font-size="10" font-family="Helvetica">
muons_per_p
</text>
</g>
<path d="M74,292h -13" fill="none" stroke="black"/>
<path d="M68,287h -7" fill="none" stroke="black"/>
<path d="M68,281h -7" fill="none" stroke="black"/>
<path d="M68,276h -7" fill="none" stroke="black"/>
<path d="M68,270h -7" fill="none" stroke="black"/>
<path d="M74,265h -13" fill="none" stroke="black"/>
<path d="M68,259h -7" fill="none" stroke="black"/>
<path d="M68,253h -7" fill="none" stroke="black"/>
<path d="M68,248h -7" fill="none" stroke="black"/>
<path d="M68,242h -7" fill="none" stroke="black"/>
<path d="M74,237h -13" fill="none" stroke="black"/>
<path d="M68,231h -7" fill="none" stroke="black"/>
<path d="M68,226h -7" fill="none" stroke="black"/>
<path d="M68,220h -7" fill="none" stroke="black"/>
<path d="M68,214h -7" fill="none" stroke="black"/>
<path d="M74,209h -13" fill="none" stroke="black"/>
<path d="M68,203h -7" fill="none" stroke="black"/>
<path d="M68,198h -7" fill="none" stroke="black"/>
<path d="M68,192h -7" fill="none" stroke="black"/>
<path d="M68,187h -7" fill="none" stroke="black"/>
<path d="M74,181h -13" fill="none" stroke="black"/>
<path d="M68,175h -7" fill="none" stroke="black"/>
<path d="M68,170h -7" fill="none" stroke="black"/>
<path d="M68,164h -7" fill="none" stroke="black"/>
<path d="M68,159h -7" fill="none" stroke="black"/>
<path d="M74,153h -13" fill="none" stroke="black"/>
<path d="M68,148h -7" fill="none" stroke="black"/>
<path d="M68,142h -7" fill="none" stroke="black"/>
<path d="M68,136h -7" fill="none" stroke="black"/>
<path d="M68,131h -7" fill="none" stroke="black"/>
<path d="M74,125h -13" fill="none" stroke="black"/>
<path d="M68,120h -7" fill="none" stroke="black"/>
<path d="M68,114h -7" fill="none" stroke="black"/>
<path d="M68,109h -7" fill="none" stroke="black"/>
<path d="M68,103h -7" fill="none" stroke="black"/>
<path d="M74,97h -13" fill="none" stroke="black"/>
<path d="M68,92h -7" fill="none" stroke="black"/>
<path d="M68,86h -7" fill="none" stroke="black"/>
<path d="M68,81h -7" fill="none" stroke="black"/>
<path d="M68,75h -7" fill="none" stroke="black"/>
<path d="M74,70h -13" fill="none" stroke="black"/>
<path d="M68,64h -7" fill="none" stroke="black"/>
<path d="M68,58h -7" fill="none" stroke="black"/>
<path d="M68,53h -7" fill="none" stroke="black"/>
<path d="M68,47h -7" fill="none" stroke="black"/>
<path d="M74,42h -13" fill="none" stroke="black"/>
<path d="M74,42h -13" fill="none" stroke="black"/>
<path d="M68,36h -7" fill="none" stroke="black"/>
<text x="52" y="296" fill="black" font-size="10" font-family="Helvetica">
0
</text>
<text x="53" y="269" fill="black" font-size="10" font-family="Helvetica">
1
</text>
<text x="52" y="241" fill="black" font-size="10" font-family="Helvetica">
2
</text>
<text x="52" y="212" fill="black" font-size="10" font-family="Helvetica">
3
</text>
<text x="52" y="185" fill="black" font-size="10" font-family="Helvetica">
4
</text>
<text x="52" y="157" fill="black" font-size="10" font-family="Helvetica">
5
</text>
<text x="52" y="129" fill="black" font-size="10" font-family="Helvetica">
6
</text>
<text x="52" y="102" fill="black" font-size="10" font-family="Helvetica">
7
</text>
<text x="52" y="73" fill="black" font-size="10" font-family="Helvetica">
8
</text>
<text x="52" y="45" fill="black" font-size="10" font-family="Helvetica">
9
</text>
<text x="78" y="29" fill="black" font-size="7" font-family="Helvetica">
-6
</text>
<text x="67" y="34" fill="black" font-size="10" font-family="Helvetica">
10
</text>
<text x="61" y="34" fill="black" font-size="10" font-family="Times">
&#0215;
</text>
<rect x="439" y="24" width="111" height="52" fill="white"/>
<path d="M439,76h 111" fill="none" stroke="black"/>
<path d="M550,76v -52" fill="none" stroke="black"/>
<path d="M550,24h -111" fill="none" stroke="black"/>
<path d="M439,24v 52" fill="none" stroke="black"/>
<text x="443" y="32" fill="black" font-size="5" font-family="Helvetica">
muons_per_p+settings_lo_50_hi_20000_bins_50
</text>
<path d="M439,37h 111" fill="none" stroke="black"/>
<text x="444" y="48" fill="black" font-size="11" font-family="Helvetica">
Entries 
</text>
<text x="529" y="48" fill="black" font-size="11" font-family="Helvetica">
 10
</text>
<text x="444" y="61" fill="black" font-size="11" font-family="Helvetica">
Mean  
</text>
<text x="511" y="61" fill="black" font-size="11" font-family="Helvetica">
  4.046
</text>
<text x="444" y="73" fill="black" font-size="11" font-family="Helvetica">
RMS   
</text>
<text x="512" y="73" fill="black" font-size="11" font-family="Helvetica">
  2.591
</text>
<text x="119" y="19" fill="black" font-size="15" font-family="Helvetica">
muons_per_p+settings_lo_50_hi_20000_bins_50
</text></svg>
