<?xml version="1.0" standalone="no"?>
<svg width="567" height="328" viewBox="0 0 567 328" xmlns="http://www.w3.org/2000/svg">
<title>
images/sim_data_mu-_5mm_Aluminium.svg
</title>
<desc>
Creator: ROOT Version 5.34/05
CreationDate: Tue May  7 15:25:27 2013</desc>
<defs>
</defs>
<rect x="0" y="0" width="567" height="328" fill="white"/>
<rect x="57" y="33" width="453" height="262" fill="white"/>
<rect x="57" y="33" width="453" height="262" fill="none" stroke="black"/>
<rect x="57" y="33" width="453" height="262" fill="white"/>
<rect x="57" y="33" width="453" height="262" fill="none" stroke="black"/>
<path d="M57,295h 226v -250h 2v 228h 1v 17h 1v -22h 1v 11h 1v -11h 1v 14h 1v 2h 3v -5h 1v 5h 1v -5h 2v 5h 2v 3h 2v -16h 1v 19h 1v 2h 1v -5h 1v 5h 1v -5h 1v 3h 2v 2h 1v -2h 1v 2h 1v -2h 3v -3h 1v 5h 4v 3h 2v -3h 1v -2h 1v 5h 2v -3h 1v 3h 1v -3h 1v -2h
 1v 2h 3v -2h 2v 5h 8v -3h 1v 3h 8v -3h 1v 3h 13v -3h 2v 3h 12v -3h 1v 3h 5v -3h 1v 3h 22v -3h 2v 3h 30v -3h 1v 3h 67" fill="none" stroke="#000099"/>
<path d="M285,267l 2, 13l 3, 4l 2, 2l 2, 1l 2, 1h 3l 2, 1h 5l 2, 1h 4l 3, 1h 9l 2, 1h 18l 2, 1h 50" fill="none" stroke="#ff0000" stroke-width="2"/>
<path d="M396,293h 111" fill="none" stroke="#ff0000" stroke-width="2"/>
<path d="M507,293h 2" fill="none" stroke="#ff0000" stroke-width="2"/>
<rect x="351" y="21" width="205" height="105" fill="white"/>
<path d="M351,126h 205" fill="none" stroke="black"/>
<path d="M556,126v -105" fill="none" stroke="black"/>
<path d="M556,21h -205" fill="none" stroke="black"/>
<path d="M351,21v 105" fill="none" stroke="black"/>
<text x="361" y="32" fill="black" font-size="13" font-family="Helvetica">
Entries 
</text>
<text x="519" y="32" fill="black" font-size="13" font-family="Helvetica">
 230
</text>
<text x="373" y="49" fill="black" font-size="13" font-family="Helvetica">
 / ndf 
</text>
<text x="368" y="39" fill="black" font-size="8" font-family="Helvetica">
2
</text>
<text x="361" y="49" fill="black" font-size="13" font-family="Times">
&#0967;
</text>
<text x="482" y="47" fill="black" font-size="13" font-family="Helvetica">
 103.4 / 44
</text>
<text x="376" y="59" fill="black" font-size="13" font-family="Helvetica">
    
</text>
<text x="371" y="66" fill="black" font-size="8" font-family="Helvetica">
b
</text>
<text x="361" y="59" fill="black" font-size="13" font-family="Helvetica">
N
</text>
<text x="502" y="64" fill="black" font-size="13" font-family="Helvetica">
 0.3111
</text>
<text x="492" y="64" fill="black" font-size="13" font-family="Times">
&#0177;
</text>
<text x="443" y="64" fill="black" font-size="13" font-family="Helvetica">
 0.6882 
</text>
<text x="361" y="77" fill="black" font-size="13" font-family="Helvetica">
N_Cu     
</text>
<text x="515" y="79" fill="black" font-size="13" font-family="Helvetica">
 5.26
</text>
<text x="505" y="79" fill="black" font-size="13" font-family="Times">
&#0177;
</text>
<text x="464" y="79" fill="black" font-size="13" font-family="Helvetica">
 16.33 
</text>
<text x="366" y="94" fill="black" font-size="13" font-family="Helvetica">
_Cu  
</text>
<text x="361" y="94" fill="black" font-size="13" font-family="Times">
&#0964;
</text>
<text x="523" y="94" fill="black" font-size="13" font-family="Helvetica">
 1.3
</text>
<text x="512" y="94" fill="black" font-size="13" font-family="Times">
&#0177;
</text>
<text x="472" y="94" fill="black" font-size="13" font-family="Helvetica">
 162.5 
</text>
<text x="373" y="104" fill="black" font-size="13" font-family="Helvetica">
    
</text>
<text x="371" y="111" fill="black" font-size="8" font-family="Helvetica">
f
</text>
<text x="361" y="104" fill="black" font-size="13" font-family="Helvetica">
N
</text>
<text x="508" y="109" fill="black" font-size="13" font-family="Helvetica">
 1.060
</text>
<text x="497" y="109" fill="black" font-size="13" font-family="Times">
&#0177;
</text>
<text x="456" y="109" fill="black" font-size="13" font-family="Helvetica">
 3.565 
</text>
<text x="369" y="121" fill="black" font-size="13" font-family="Helvetica">
 
</text>
<text x="366" y="128" fill="black" font-size="8" font-family="Helvetica">
f
</text>
<text x="361" y="121" fill="black" font-size="13" font-family="Times">
&#0964;
</text>
<text x="523" y="124" fill="black" font-size="13" font-family="Helvetica">
 0.0
</text>
<text x="512" y="124" fill="black" font-size="13" font-family="Times">
&#0177;
</text>
<text x="472" y="124" fill="black" font-size="13" font-family="Helvetica">
  2197 
</text>
<path d="M57,295h 453" fill="none" stroke="black"/>
<text x="424" y="317" fill="black" font-size="11" font-family="Helvetica">
TDC - TDC0 (ns)
</text>
<path d="M57,287v 8" fill="none" stroke="black"/>
<path d="M68,291v 4" fill="none" stroke="black"/>
<path d="M79,291v 4" fill="none" stroke="black"/>
<path d="M91,291v 4" fill="none" stroke="black"/>
<path d="M102,291v 4" fill="none" stroke="black"/>
<path d="M113,287v 8" fill="none" stroke="black"/>
<path d="M125,291v 4" fill="none" stroke="black"/>
<path d="M136,291v 4" fill="none" stroke="black"/>
<path d="M147,291v 4" fill="none" stroke="black"/>
<path d="M159,291v 4" fill="none" stroke="black"/>
<path d="M170,287v 8" fill="none" stroke="black"/>
<path d="M181,291v 4" fill="none" stroke="black"/>
<path d="M193,291v 4" fill="none" stroke="black"/>
<path d="M204,291v 4" fill="none" stroke="black"/>
<path d="M215,291v 4" fill="none" stroke="black"/>
<path d="M227,287v 8" fill="none" stroke="black"/>
<path d="M238,291v 4" fill="none" stroke="black"/>
<path d="M249,291v 4" fill="none" stroke="black"/>
<path d="M261,291v 4" fill="none" stroke="black"/>
<path d="M272,291v 4" fill="none" stroke="black"/>
<path d="M283,287v 8" fill="none" stroke="black"/>
<path d="M295,291v 4" fill="none" stroke="black"/>
<path d="M306,291v 4" fill="none" stroke="black"/>
<path d="M317,291v 4" fill="none" stroke="black"/>
<path d="M329,291v 4" fill="none" stroke="black"/>
<path d="M340,287v 8" fill="none" stroke="black"/>
<path d="M351,291v 4" fill="none" stroke="black"/>
<path d="M363,291v 4" fill="none" stroke="black"/>
<path d="M374,291v 4" fill="none" stroke="black"/>
<path d="M386,291v 4" fill="none" stroke="black"/>
<path d="M397,287v 8" fill="none" stroke="black"/>
<path d="M408,291v 4" fill="none" stroke="black"/>
<path d="M420,291v 4" fill="none" stroke="black"/>
<path d="M431,291v 4" fill="none" stroke="black"/>
<path d="M442,291v 4" fill="none" stroke="black"/>
<path d="M454,287v 8" fill="none" stroke="black"/>
<path d="M465,291v 4" fill="none" stroke="black"/>
<path d="M476,291v 4" fill="none" stroke="black"/>
<path d="M488,291v 4" fill="none" stroke="black"/>
<path d="M499,291v 4" fill="none" stroke="black"/>
<path d="M510,287v 8" fill="none" stroke="black"/>
<text x="39" y="306" fill="black" font-size="11" font-family="Helvetica">
-20000
</text>
<text x="95" y="306" fill="black" font-size="11" font-family="Helvetica">
-15000
</text>
<text x="152" y="306" fill="black" font-size="11" font-family="Helvetica">
-10000
</text>
<text x="212" y="306" fill="black" font-size="11" font-family="Helvetica">
-5000
</text>
<text x="280" y="306" fill="black" font-size="11" font-family="Helvetica">
0
</text>
<text x="327" y="306" fill="black" font-size="11" font-family="Helvetica">
5000
</text>
<text x="381" y="306" fill="black" font-size="11" font-family="Helvetica">
10000
</text>
<text x="437" y="306" fill="black" font-size="11" font-family="Helvetica">
15000
</text>
<text x="494" y="306" fill="black" font-size="11" font-family="Helvetica">
20000
</text>
<path d="M57,295v -262" fill="none" stroke="black"/>
<g transform="rotate(-90,29,63)">
<text x="29" y="63" fill="black" font-size="11" font-family="Helvetica">
Count
</text>
</g>
<path d="M70,295h -13" fill="none" stroke="black"/>
<path d="M63,290h -6" fill="none" stroke="black"/>
<path d="M63,284h -6" fill="none" stroke="black"/>
<path d="M63,279h -6" fill="none" stroke="black"/>
<path d="M63,273h -6" fill="none" stroke="black"/>
<path d="M70,268h -13" fill="none" stroke="black"/>
<path d="M63,263h -6" fill="none" stroke="black"/>
<path d="M63,257h -6" fill="none" stroke="black"/>
<path d="M63,252h -6" fill="none" stroke="black"/>
<path d="M63,246h -6" fill="none" stroke="black"/>
<path d="M70,241h -13" fill="none" stroke="black"/>
<path d="M63,235h -6" fill="none" stroke="black"/>
<path d="M63,230h -6" fill="none" stroke="black"/>
<path d="M63,225h -6" fill="none" stroke="black"/>
<path d="M63,219h -6" fill="none" stroke="black"/>
<path d="M70,214h -13" fill="none" stroke="black"/>
<path d="M63,208h -6" fill="none" stroke="black"/>
<path d="M63,203h -6" fill="none" stroke="black"/>
<path d="M63,197h -6" fill="none" stroke="black"/>
<path d="M63,192h -6" fill="none" stroke="black"/>
<path d="M70,186h -13" fill="none" stroke="black"/>
<path d="M63,181h -6" fill="none" stroke="black"/>
<path d="M63,176h -6" fill="none" stroke="black"/>
<path d="M63,170h -6" fill="none" stroke="black"/>
<path d="M63,165h -6" fill="none" stroke="black"/>
<path d="M70,159h -13" fill="none" stroke="black"/>
<path d="M63,154h -6" fill="none" stroke="black"/>
<path d="M63,148h -6" fill="none" stroke="black"/>
<path d="M63,143h -6" fill="none" stroke="black"/>
<path d="M63,138h -6" fill="none" stroke="black"/>
<path d="M70,132h -13" fill="none" stroke="black"/>
<path d="M63,127h -6" fill="none" stroke="black"/>
<path d="M63,121h -6" fill="none" stroke="black"/>
<path d="M63,116h -6" fill="none" stroke="black"/>
<path d="M63,110h -6" fill="none" stroke="black"/>
<path d="M70,105h -13" fill="none" stroke="black"/>
<path d="M63,99h -6" fill="none" stroke="black"/>
<path d="M63,94h -6" fill="none" stroke="black"/>
<path d="M63,89h -6" fill="none" stroke="black"/>
<path d="M63,83h -6" fill="none" stroke="black"/>
<path d="M70,78h -13" fill="none" stroke="black"/>
<path d="M63,72h -6" fill="none" stroke="black"/>
<path d="M63,67h -6" fill="none" stroke="black"/>
<path d="M63,61h -6" fill="none" stroke="black"/>
<path d="M63,56h -6" fill="none" stroke="black"/>
<path d="M70,51h -13" fill="none" stroke="black"/>
<path d="M70,51h -13" fill="none" stroke="black"/>
<path d="M63,45h -6" fill="none" stroke="black"/>
<path d="M63,40h -6" fill="none" stroke="black"/>
<path d="M63,34h -6" fill="none" stroke="black"/>
<text x="48" y="299" fill="black" font-size="11" font-family="Helvetica">
0
</text>
<text x="41" y="271" fill="black" font-size="11" font-family="Helvetica">
10
</text>
<text x="41" y="244" fill="black" font-size="11" font-family="Helvetica">
20
</text>
<text x="41" y="217" fill="black" font-size="11" font-family="Helvetica">
30
</text>
<text x="41" y="190" fill="black" font-size="11" font-family="Helvetica">
40
</text>
<text x="41" y="163" fill="black" font-size="11" font-family="Helvetica">
50
</text>
<text x="41" y="136" fill="black" font-size="11" font-family="Helvetica">
60
</text>
<text x="41" y="108" fill="black" font-size="11" font-family="Helvetica">
70
</text>
<text x="41" y="81" fill="black" font-size="11" font-family="Helvetica">
80
</text>
<text x="41" y="54" fill="black" font-size="11" font-family="Helvetica">
90
</text>
<rect x="351" y="21" width="205" height="105" fill="white"/>
<path d="M351,126h 205" fill="none" stroke="black"/>
<path d="M556,126v -105" fill="none" stroke="black"/>
<path d="M556,21h -205" fill="none" stroke="black"/>
<path d="M351,21v 105" fill="none" stroke="black"/>
<text x="361" y="32" fill="black" font-size="13" font-family="Helvetica">
Entries 
</text>
<text x="519" y="32" fill="black" font-size="13" font-family="Helvetica">
 230
</text>
<text x="373" y="49" fill="black" font-size="13" font-family="Helvetica">
 / ndf 
</text>
<text x="368" y="39" fill="black" font-size="8" font-family="Helvetica">
2
</text>
<text x="361" y="49" fill="black" font-size="13" font-family="Times">
&#0967;
</text>
<text x="482" y="47" fill="black" font-size="13" font-family="Helvetica">
 103.4 / 44
</text>
<text x="376" y="59" fill="black" font-size="13" font-family="Helvetica">
    
</text>
<text x="371" y="66" fill="black" font-size="8" font-family="Helvetica">
b
</text>
<text x="361" y="59" fill="black" font-size="13" font-family="Helvetica">
N
</text>
<text x="502" y="64" fill="black" font-size="13" font-family="Helvetica">
 0.3111
</text>
<text x="492" y="64" fill="black" font-size="13" font-family="Times">
&#0177;
</text>
<text x="443" y="64" fill="black" font-size="13" font-family="Helvetica">
 0.6882 
</text>
<text x="361" y="77" fill="black" font-size="13" font-family="Helvetica">
N_Cu     
</text>
<text x="515" y="79" fill="black" font-size="13" font-family="Helvetica">
 5.26
</text>
<text x="505" y="79" fill="black" font-size="13" font-family="Times">
&#0177;
</text>
<text x="464" y="79" fill="black" font-size="13" font-family="Helvetica">
 16.33 
</text>
<text x="366" y="94" fill="black" font-size="13" font-family="Helvetica">
_Cu  
</text>
<text x="361" y="94" fill="black" font-size="13" font-family="Times">
&#0964;
</text>
<text x="523" y="94" fill="black" font-size="13" font-family="Helvetica">
 1.3
</text>
<text x="512" y="94" fill="black" font-size="13" font-family="Times">
&#0177;
</text>
<text x="472" y="94" fill="black" font-size="13" font-family="Helvetica">
 162.5 
</text>
<text x="373" y="104" fill="black" font-size="13" font-family="Helvetica">
    
</text>
<text x="371" y="111" fill="black" font-size="8" font-family="Helvetica">
f
</text>
<text x="361" y="104" fill="black" font-size="13" font-family="Helvetica">
N
</text>
<text x="508" y="109" fill="black" font-size="13" font-family="Helvetica">
 1.060
</text>
<text x="497" y="109" fill="black" font-size="13" font-family="Times">
&#0177;
</text>
<text x="456" y="109" fill="black" font-size="13" font-family="Helvetica">
 3.565 
</text>
<text x="369" y="121" fill="black" font-size="13" font-family="Helvetica">
 
</text>
<text x="366" y="128" fill="black" font-size="8" font-family="Helvetica">
f
</text>
<text x="361" y="121" fill="black" font-size="13" font-family="Times">
&#0964;
</text>
<text x="523" y="124" fill="black" font-size="13" font-family="Helvetica">
 0.0
</text>
<text x="512" y="124" fill="black" font-size="13" font-family="Times">
&#0177;
</text>
<text x="472" y="124" fill="black" font-size="13" font-family="Helvetica">
  2197 
</text>
<text x="152" y="17" fill="black" font-size="17" font-family="Helvetica">
9009 mu-s at a 5mm_Aluminium
</text></svg>
