<?xml version="1.0" standalone="no"?>
<svg width="567" height="385" viewBox="0 0 567 385" xmlns="http://www.w3.org/2000/svg">
<title>
images/sim_mu-_5mm_Air_tight_500k.svg
</title>
<desc>
Creator: ROOT Version 5.34/05
CreationDate: Sun May 26 12:04:56 2013</desc>
<defs>
</defs>
<rect x="0" y="0" width="567" height="385" fill="white"/>
<rect x="57" y="38" width="453" height="308" fill="white"/>
<rect x="57" y="38" width="453" height="308" fill="none" stroke="black"/>
<rect x="57" y="38" width="453" height="308" fill="white"/>
<rect x="57" y="38" width="453" height="308" fill="none" stroke="black"/>
<path d="M57,346h 227v -293v 62v -28h 1v 35v -17v 56v -2v 30v -50v 10h 1v 25v -17v 14v -2v 32v -64h 1v 69v -37v 64v -47v 37v -20h 1v -34v 47v -8v 23v -25v 47v -64h 1v 46v -34v 7v -27v 32v -10v 42v -42v 40h 1v -3v 18v -10v 15v -50v 22h 1v 18v -35v 37v
 -17v 15h 1v 15v -28v 52v -64v 37v -20h 1v 18v -15v 17v -15v 8v -8h 1v 22v -41v 37v -5v 17v -25v 10h 1v 5v -17v 32v -25v 17v -24v 32h 1v -40v 18v -3v 5v -7v 14v -19h 1v 27v -15v 22v -37v 50v -45h 1v 30v -42v 15v -13v 42v -19h 1v -8v 22v -5v 15v -20h
 1v 28v -20v 10v -3v 10h 1v -29v 22v -18v 20v -22v 7h 1v 23v -20v 39v -34v 15h 1v -30v 15v -10v 10v -8v 13h 1v 7v -5v 8v -25v 27v -17v 20h 1v -13v 3v -15v 12v -10v 18v -8h 1v 10v -22v 27v -22v 15v -35v 22h 1v 25v -17v 12v -15v 5v -20h 1v 20v -12v 17v
 -12v 17v -20v 18v -13h 1v -12v 34v -27v 20v -5v 12h 1v -5v 5v -9v 7v -30v 23h 1v 17v -42v 29v -29v 34v -7h 1v -10v 25v -25v 20v -15v 7h 1v -17v 17v -14v 19v -19v 5h 1v 17v -3v 8v -17v 12v -22v 5h 1v 27v -20v 10v -20h 1v 17v -37v 42v -24h 1v 27v -13v
 13v -20v 15v -5h 1v -7v 22v -18v 15v -15h 1v 18v -30v 22v -29v 42v -15h 1v 10v -27v 9v -2v 17v -17v 10h 1v 20v -32v 12v -15v 27v -17v 10v -8h 1v 10v -15v 13v -20v 22h 1v -17v 20v -18v 15v -2v 5v -3h 1v -10v 8v -20v 35v -18v 8v -3h 1v -7v 5v -13v 25v
 -25v 3h 1v 17v -2v 7v -15v 5v -5v 8v -10h 1v 10v -13v 18v -23v 20v -15v 5h 1v 8v -15v 15v -8v 8v -5v 10h 1v 2v -20v 15v -12v 20v -10h 1v 2v -7v 12v -22v 20h 1v 7v -32v 25v -8v 8v -10h 1v 7v -15v 25v -12v 5h 1v -15v 22v -10v 5v -5h 1v 10v -7v 2v -15v
 15v -20v 15h 1v -12v 20v -23v 18v -3v 5v -5h 1v -5v 13v -15v 17v -15h 1v -2v 12v -2v 2v -5v 5v -12h 1v 5v -8v 23v -20v 17h 1v -12v 7v -2v 7v -7v 5h 1v -13v 18v -8v 3v -18v 15h 1v 3v -8v 13v -13v 10v -10v 3h 1v -3v 15v -20v 13v -8h 1v 10v -5v 8v -10v
 10v -10v 2h 1v -2v 2v -2v 7v -7v 7v -15h 1v 15v -10v 10v -20v 23h 1v -8v 8v -8v 8v -8h 1v -7v 5v -3v 10v -12v 15h 1v -3v 5v -10v 12v -7v 3h 1v -5v 5v -10v 2v -5v 8h 1v -3v 8v -10v 10v -15v 12v -5h 1v 10v -10v 5v -5v 10v -2h 1v 2v -7v 5v -10v 12v -7h
 1v 2v -5v 12v -9v 9v -9v 9h 1v -12v 8v -10v 10h 1v -8v 10v -10v 10v -5v 5h 1v -15v 15v -10v 8v -10v 7h 1v 3v -5v 7h 1v -12v 10v -8v 8v -13v 15h 1v 2v -12v 8v -3v 3v -3v 3h 1v -5v 7v -5v 7v -7h 1v 5v -2v 4v -7v 7v -4h 1v 4v -7v 3v -8v 10v -7v 5h 1v
 -5v 5v -3v 5v -2v 2h 1v -12v 12v -7v 2v -2h 1v 7v -5v 3v -3v 7v -9h 1v 5v -3v 5v -5v 7v -2v 2v -4h 1v 2v -15v 10v -2v 9v -2h 1v -5v 7v -7v 3h 1v -5v 9v -4v 2v -2v 2v -5v 5h 1v -5v 5v -2h 1v -3v 7v -4v 2v -5v 7v -9v 9h 1v -4v 2v -2v 4v -7v 3h 1v 2v
 -5v 5v -5v 5v -2h 1v 4v -4v 4v -12v 8h 1v 4v -7v 7v -4v 4h 1v -4v 2v -2v 2v -2v 4v -2h 1v 2v -9v 7v -2v 4h 1v -4v 4v -2v 2v -4v 4v -2h 1v 2v -12v 12v -2v 2v -2h 1v 2v -4v 4v -4v 4v -12h 1v 12v -7v 5h 1v -2v 4v -2v 2v -4v 2h 1v 2v -2v 2v -4v 4h 1v
 -2v 2v -7v 7v -4v 4h 1v -2v 2v -4v 4v -4v 4h 1v -9v 9v -4v 2h 1v -2v 4v -2v 2h 1v -2v 2v -2v 2v -7h 1v 3v -5v 9v -2v 2v -4v 4v -2h 1v 2v -7v 7v -2h 1v 2v -2v 2v -4v 4v -2v 2h 1v -2v 2v -2v 2v -2v 2v -2h 1v 2v -4v 4v -2h 1v 2v -2v 2v -2v 2h 1v -2v 2v
 -4v 2h 1v 2v -4v 4v -4v 2h 1v 2v -2v 2h 1v -4v 4h 1v -2v 2v -4v 4v -7v 7h 1v -2v 2v -2h 1v 2v -2v 2h 1v -2v 2v -2h 1v 2v -2v 2v -2h 1v 2v -2v 2v -2v 2h 1v -2v 2v -4v 4h 1v -2v 2v -2v 2v -2h 1v 2v -2v 2v -2h 1v 2v -2v 2v -2h 1v 2v -2v 2v -2h 1v 2v
 -4v 4v -2v 2h 1v -2v 2h 2v -2v 2h 1v -2v 2v -2h 1v 2v -2v 2v -2h 1v 2v -2v 2v -2v 2h 3v -2v 2v -2h 1v -2v 4v -2v 2h 1v -2v 2h 1v -2v 2h 1v -2v 2h 2v -4v 4v -2v 2h 1v -2v 2v -2v 2h 2v -2v 2h 1v -4v 4v -2v 2h 1v -2v 2v -2v 2h 2v -2v 2v -2v 2h 1v -2v
 2h 1v -2v 2h 1v -2v 2h 1v -2v 2v -4v 4h 1v -2v 2h 1v -2v 2h 1v -2v 2h 3v -2v 2v -2h 1v 2h 1v -2v 2h 1v -2v 2v -2h 1v 2h 1v -2v 2v -2h 1v 2h 1v -2v 2h 5v -2v 2h 5v -2v 2h 1v -2h 1v 2h 1v -2v 2h 1v -2h 1v 2h 3v -2v 2h 13v -2v 2h 5v -2v 2h 13v -2v 2h
 7v -2v 2h 4v -2h 1v 2" fill="none" stroke="#000099"/>
<rect x="351" y="25" width="205" height="108" fill="white"/>
<path d="M351,133h 205" fill="none" stroke="black"/>
<path d="M556,133v -108" fill="none" stroke="black"/>
<path d="M556,25h -205" fill="none" stroke="black"/>
<path d="M351,25v 108" fill="none" stroke="black"/>
<text x="362" y="38" fill="black" font-size="15" font-family="Helvetica">
Entries 
</text>
<text x="495" y="38" fill="black" font-size="15" font-family="Helvetica">
 12603
</text>
<text x="376" y="58" fill="black" font-size="15" font-family="Helvetica">
 / ndf 
</text>
<text x="370" y="46" fill="black" font-size="10" font-family="Helvetica">
2
</text>
<text x="362" y="58" fill="black" font-size="15" font-family="Times">
&#0967;
</text>
<text x="459" y="56" fill="black" font-size="15" font-family="Helvetica">
 888.9 / 995
</text>
<text x="384" y="70" fill="black" font-size="15" font-family="Helvetica">
   
</text>
<text x="373" y="80" fill="black" font-size="10" font-family="Helvetica">
cu
</text>
<text x="362" y="70" fill="black" font-size="15" font-family="Helvetica">
N
</text>
<text x="509" y="75" fill="black" font-size="15" font-family="Helvetica">
 4.66
</text>
<text x="497" y="75" fill="black" font-size="15" font-family="Times">
&#0177;
</text>
<text x="447" y="75" fill="black" font-size="15" font-family="Helvetica">
 89.76 
</text>
<text x="378" y="90" fill="black" font-size="15" font-family="Helvetica">
 
</text>
<text x="367" y="101" fill="black" font-size="10" font-family="Helvetica">
cu
</text>
<text x="362" y="90" fill="black" font-size="15" font-family="Times">
&#0964;
</text>
<text x="518" y="94" fill="black" font-size="15" font-family="Helvetica">
 1.9
</text>
<text x="506" y="94" fill="black" font-size="15" font-family="Times">
&#0177;
</text>
<text x="456" y="94" fill="black" font-size="15" font-family="Helvetica">
 164.5 
</text>
<text x="376" y="106" fill="black" font-size="15" font-family="Helvetica">
    
</text>
<text x="373" y="116" fill="black" font-size="10" font-family="Helvetica">
f
</text>
<text x="362" y="106" fill="black" font-size="15" font-family="Helvetica">
N
</text>
<text x="518" y="112" fill="black" font-size="15" font-family="Helvetica">
 0.5
</text>
<text x="506" y="112" fill="black" font-size="15" font-family="Times">
&#0177;
</text>
<text x="461" y="112" fill="black" font-size="15" font-family="Helvetica">
  50.4 
</text>
<text x="370" y="126" fill="black" font-size="15" font-family="Helvetica">
 
</text>
<text x="367" y="137" fill="black" font-size="10" font-family="Helvetica">
f
</text>
<text x="362" y="126" fill="black" font-size="15" font-family="Times">
&#0964;
</text>
<text x="518" y="130" fill="black" font-size="15" font-family="Helvetica">
 0.0
</text>
<text x="506" y="130" fill="black" font-size="15" font-family="Times">
&#0177;
</text>
<text x="456" y="130" fill="black" font-size="15" font-family="Helvetica">
  2197 
</text>
<path d="M57,346h 453" fill="none" stroke="black"/>
<text x="456" y="372" fill="black" font-size="12" font-family="Helvetica">
Time (ns)
</text>
<path d="M57,337v 9" fill="none" stroke="black"/>
<path d="M68,342v 4" fill="none" stroke="black"/>
<path d="M79,342v 4" fill="none" stroke="black"/>
<path d="M91,342v 4" fill="none" stroke="black"/>
<path d="M102,342v 4" fill="none" stroke="black"/>
<path d="M113,337v 9" fill="none" stroke="black"/>
<path d="M125,342v 4" fill="none" stroke="black"/>
<path d="M136,342v 4" fill="none" stroke="black"/>
<path d="M147,342v 4" fill="none" stroke="black"/>
<path d="M159,342v 4" fill="none" stroke="black"/>
<path d="M170,337v 9" fill="none" stroke="black"/>
<path d="M181,342v 4" fill="none" stroke="black"/>
<path d="M193,342v 4" fill="none" stroke="black"/>
<path d="M204,342v 4" fill="none" stroke="black"/>
<path d="M215,342v 4" fill="none" stroke="black"/>
<path d="M227,337v 9" fill="none" stroke="black"/>
<path d="M238,342v 4" fill="none" stroke="black"/>
<path d="M249,342v 4" fill="none" stroke="black"/>
<path d="M261,342v 4" fill="none" stroke="black"/>
<path d="M272,342v 4" fill="none" stroke="black"/>
<path d="M283,337v 9" fill="none" stroke="black"/>
<path d="M295,342v 4" fill="none" stroke="black"/>
<path d="M306,342v 4" fill="none" stroke="black"/>
<path d="M317,342v 4" fill="none" stroke="black"/>
<path d="M329,342v 4" fill="none" stroke="black"/>
<path d="M340,337v 9" fill="none" stroke="black"/>
<path d="M351,342v 4" fill="none" stroke="black"/>
<path d="M363,342v 4" fill="none" stroke="black"/>
<path d="M374,342v 4" fill="none" stroke="black"/>
<path d="M386,342v 4" fill="none" stroke="black"/>
<path d="M397,337v 9" fill="none" stroke="black"/>
<path d="M408,342v 4" fill="none" stroke="black"/>
<path d="M420,342v 4" fill="none" stroke="black"/>
<path d="M431,342v 4" fill="none" stroke="black"/>
<path d="M442,342v 4" fill="none" stroke="black"/>
<path d="M454,337v 9" fill="none" stroke="black"/>
<path d="M465,342v 4" fill="none" stroke="black"/>
<path d="M476,342v 4" fill="none" stroke="black"/>
<path d="M488,342v 4" fill="none" stroke="black"/>
<path d="M499,342v 4" fill="none" stroke="black"/>
<path d="M510,337v 9" fill="none" stroke="black"/>
<text x="36" y="359" fill="black" font-size="12" font-family="Helvetica">
-20000
</text>
<text x="93" y="359" fill="black" font-size="12" font-family="Helvetica">
-15000
</text>
<text x="149" y="359" fill="black" font-size="12" font-family="Helvetica">
-10000
</text>
<text x="210" y="359" fill="black" font-size="12" font-family="Helvetica">
-5000
</text>
<text x="280" y="359" fill="black" font-size="12" font-family="Helvetica">
0
</text>
<text x="325" y="359" fill="black" font-size="12" font-family="Helvetica">
5000
</text>
<text x="379" y="359" fill="black" font-size="12" font-family="Helvetica">
10000
</text>
<text x="435" y="359" fill="black" font-size="12" font-family="Helvetica">
15000
</text>
<text x="492" y="359" fill="black" font-size="12" font-family="Helvetica">
20000
</text>
<path d="M57,346v -308" fill="none" stroke="black"/>
<g transform="rotate(-90,29,72)">
<text x="29" y="72" fill="black" font-size="12" font-family="Helvetica">
Count
</text>
</g>
<path d="M70,346h -13" fill="none" stroke="black"/>
<path d="M63,334h -6" fill="none" stroke="black"/>
<path d="M63,322h -6" fill="none" stroke="black"/>
<path d="M63,309h -6" fill="none" stroke="black"/>
<path d="M70,297h -13" fill="none" stroke="black"/>
<path d="M63,285h -6" fill="none" stroke="black"/>
<path d="M63,272h -6" fill="none" stroke="black"/>
<path d="M63,260h -6" fill="none" stroke="black"/>
<path d="M70,248h -13" fill="none" stroke="black"/>
<path d="M63,235h -6" fill="none" stroke="black"/>
<path d="M63,223h -6" fill="none" stroke="black"/>
<path d="M63,211h -6" fill="none" stroke="black"/>
<path d="M70,198h -13" fill="none" stroke="black"/>
<path d="M63,186h -6" fill="none" stroke="black"/>
<path d="M63,174h -6" fill="none" stroke="black"/>
<path d="M63,161h -6" fill="none" stroke="black"/>
<path d="M70,149h -13" fill="none" stroke="black"/>
<path d="M63,137h -6" fill="none" stroke="black"/>
<path d="M63,124h -6" fill="none" stroke="black"/>
<path d="M63,112h -6" fill="none" stroke="black"/>
<path d="M70,100h -13" fill="none" stroke="black"/>
<path d="M63,87h -6" fill="none" stroke="black"/>
<path d="M63,75h -6" fill="none" stroke="black"/>
<path d="M63,63h -6" fill="none" stroke="black"/>
<path d="M70,50h -13" fill="none" stroke="black"/>
<path d="M70,50h -13" fill="none" stroke="black"/>
<text x="47" y="350" fill="black" font-size="12" font-family="Helvetica">
0
</text>
<text x="40" y="301" fill="black" font-size="12" font-family="Helvetica">
20
</text>
<text x="40" y="251" fill="black" font-size="12" font-family="Helvetica">
40
</text>
<text x="40" y="202" fill="black" font-size="12" font-family="Helvetica">
60
</text>
<text x="40" y="153" fill="black" font-size="12" font-family="Helvetica">
80
</text>
<text x="33" y="103" fill="black" font-size="12" font-family="Helvetica">
100
</text>
<text x="33" y="54" fill="black" font-size="12" font-family="Helvetica">
120
</text>
<rect x="351" y="25" width="205" height="108" fill="white"/>
<path d="M351,133h 205" fill="none" stroke="black"/>
<path d="M556,133v -108" fill="none" stroke="black"/>
<path d="M556,25h -205" fill="none" stroke="black"/>
<path d="M351,25v 108" fill="none" stroke="black"/>
<text x="362" y="38" fill="black" font-size="15" font-family="Helvetica">
Entries 
</text>
<text x="495" y="38" fill="black" font-size="15" font-family="Helvetica">
 12603
</text>
<text x="376" y="58" fill="black" font-size="15" font-family="Helvetica">
 / ndf 
</text>
<text x="370" y="46" fill="black" font-size="10" font-family="Helvetica">
2
</text>
<text x="362" y="58" fill="black" font-size="15" font-family="Times">
&#0967;
</text>
<text x="459" y="56" fill="black" font-size="15" font-family="Helvetica">
 888.9 / 995
</text>
<text x="384" y="70" fill="black" font-size="15" font-family="Helvetica">
   
</text>
<text x="373" y="80" fill="black" font-size="10" font-family="Helvetica">
cu
</text>
<text x="362" y="70" fill="black" font-size="15" font-family="Helvetica">
N
</text>
<text x="509" y="75" fill="black" font-size="15" font-family="Helvetica">
 4.66
</text>
<text x="497" y="75" fill="black" font-size="15" font-family="Times">
&#0177;
</text>
<text x="447" y="75" fill="black" font-size="15" font-family="Helvetica">
 89.76 
</text>
<text x="378" y="90" fill="black" font-size="15" font-family="Helvetica">
 
</text>
<text x="367" y="101" fill="black" font-size="10" font-family="Helvetica">
cu
</text>
<text x="362" y="90" fill="black" font-size="15" font-family="Times">
&#0964;
</text>
<text x="518" y="94" fill="black" font-size="15" font-family="Helvetica">
 1.9
</text>
<text x="506" y="94" fill="black" font-size="15" font-family="Times">
&#0177;
</text>
<text x="456" y="94" fill="black" font-size="15" font-family="Helvetica">
 164.5 
</text>
<text x="376" y="106" fill="black" font-size="15" font-family="Helvetica">
    
</text>
<text x="373" y="116" fill="black" font-size="10" font-family="Helvetica">
f
</text>
<text x="362" y="106" fill="black" font-size="15" font-family="Helvetica">
N
</text>
<text x="518" y="112" fill="black" font-size="15" font-family="Helvetica">
 0.5
</text>
<text x="506" y="112" fill="black" font-size="15" font-family="Times">
&#0177;
</text>
<text x="461" y="112" fill="black" font-size="15" font-family="Helvetica">
  50.4 
</text>
<text x="370" y="126" fill="black" font-size="15" font-family="Helvetica">
 
</text>
<text x="367" y="137" fill="black" font-size="10" font-family="Helvetica">
f
</text>
<text x="362" y="126" fill="black" font-size="15" font-family="Times">
&#0964;
</text>
<text x="518" y="130" fill="black" font-size="15" font-family="Helvetica">
 0.0
</text>
<text x="506" y="130" fill="black" font-size="15" font-family="Times">
&#0177;
</text>
<text x="456" y="130" fill="black" font-size="15" font-family="Helvetica">
  2197 
</text>
<path d="M285,141l 2, 73l 3, 28l 2, 14l 2, 9l 2, 8l 3, 6l 2, 6l 2, 5l 3, 5l 2, 5l 2, 4l 2, 3l 3, 4l 2, 3l 2, 3l 2, 2l 3, 3l 2, 2l 2, 2l 2, 2l 3, 1l 2, 2l 2, 1l 2, 1l 3, 1l 2, 2h 2l 2, 1l 3, 1l 2, 1l 2, 1h 3l 2, 1h 2l 2, 1h 5l 2, 1h 5l 2, 1h 7l 2, 1h
 9" fill="none" stroke="#ff0000" stroke-width="2"/>
<path d="M396,345h 7l 2, 1h 102" fill="none" stroke="#ff0000" stroke-width="2"/>
<path d="M507,346h 2" fill="none" stroke="#ff0000" stroke-width="2"/>
<text x="176" y="21" fill="black" font-size="20" font-family="Helvetica">
mu-_5mm_Air_500000
</text></svg>
