<?xml version="1.0" standalone="no"?>
<svg width="567" height="385" viewBox="0 0 567 385" xmlns="http://www.w3.org/2000/svg">
<title>
images/sim_mu-_1mm_Aluminium_loose_f_500k.svg
</title>
<desc>
Creator: ROOT Version 5.34/05
CreationDate: Sun May 26 19:07:54 2013</desc>
<defs>
</defs>
<rect x="0" y="0" width="567" height="385" fill="white"/>
<rect x="57" y="38" width="453" height="308" fill="white"/>
<rect x="57" y="38" width="453" height="308" fill="none" stroke="black"/>
<rect x="57" y="38" width="453" height="308" fill="white"/>
<rect x="57" y="38" width="453" height="308" fill="none" stroke="black"/>
<path d="M57,346h 227v -263v 6v -36v 33h 1v 33v -36v 44v -8v 33v -28v 6h 1v -14v 82v -82v 58v -17h 1v 41v -2v 2v -24v 35v -13v 5h 1v 30v -77v 66v -44v 47v -52v 55h 1v -22v 3v -36v 77v -28v 9v -3h 1v -44v 66v -36v 22v -36v 63v -35v 11h 1v -25v 30v -8v
 8v -16v 35v -43h 1v 8v -19v 32v -10v 10v -24v 52h 1v -25v 28v -20v 3v -16v 24v -41v 39h 1v -25v 22v -36v 52v -41v 22h 1v -5v 13v -35v 27v -5v 11v -11v 11h 1v -25v 27v -19h 1v -3v 28v -22v 16v -22v 42v -39v 28h 1v -6v 22v -57v 74v -33h 1v 24v -55v
 28v -33v 41v -16v 13h 1v -2v 27v -44v 14v -19v 77h 1v -50v 22v -30v 14v -14v 25v -14h 1v -22v 41v -14v 6v -28h 1v 39v -58v 63v -41v 30v -19v 11h 1v 6v -9v 11v -24v 30v -22h 1v 5v -11v 28v -25v 19v -11h 1v 20v -25v 44v -55v 22h 1v 8v -27v 11v -3v 22h
 1v 5v -22v 14v -11v 6v -6h 1v 17v -20v 11v -11v 20v -9v 11h 1v -38v 33v -11v 19v -27v 24v -19h 1v 19v -22v 28v -36v 19v -8v 22h 1v -19v 14v -11v 16v -19v 27v -5h 1v 19v -47v 22v -22v 14v -11h 1v 30v -16v 22v -41v 38h 1v -14v 6v -3v 8v -30v 22v -5h
 1v -11v 16v -11v 19v -16v 5h 1v -2v 11v -14v 19v -11v 3v -3h 1v 17v -28v 6v -3v 25v -14v 5h 1v 9v -17v 3v -3v 11v -8h 1v 5v -30v 44v -41v 27h 1v -19v 28v -22v 16h 1v 6v -20v 9v -3v 11h 1v -22v 22v -17v 17h 1v -8v 16v -22v 17v -11v 2v -11v 9h 1v -6v
 14v -6v 11v -8v 16h 1v -30v 22v -11v 6v -8v 19h 1v 8v -11v 3v -22v 8v -14h 1v 33v -38v 30v -11v 6h 1v -14v 24v -30v 28v -17h 1v 14v -16v 19v -25h 1v 22v -14v 22h 1v -5v 2v -16v 19v -16v 3v -9h 1v 14v -5v 10v -13v 19v -25v 11v -2h 1v 2v -11v 11v -8v
 19h 1v -13v 5v -25v 25v -5h 1v -9v 19v -8v 17h 1v -19v 8v -3v 5v -5v 3h 1v -8v 13v -11v 8v -10h 1v -3v 16v -13v 8v -6h 1v 8v -16v 16h 1v -8v 11v -13v 8v -3v 8v -3h 1v -13v 13v -8v 17v -9v 6h 1v -19v 13v -2v 2v -2v 5v -13v 13h 1v -3v 6v -19v 13v -5v
 3v -3h 1v 5v -16v 16v -5v 5v -5v 8v -11h 1v 3v -5v 10v -5v 14v -22h 1v 19v -16v 13v -3v 6v -3h 1v 3v -16v 16v -11v 8h 1v -5v 11v -9v 6v -16h 1v 10v -8v 14v -14v 17h 1v -14v 11v -6v 3v -5h 1v 5v -5v 8v -3v 6v -6h 1v 8v -8h 1v 8v -11v 3v -3v 9v -6v 6h
 1v -14v 8v -3v 3v -8v 14h 1v -6v 6v -11v 5v -8v 11v -6h 1v 9v -3v 3v -6v 3v -11v 14v -11h 1v 13v -8v 6v -14v 14v -9h 1v 9v -3v 3v -6v 3v -3v 6v -6h 1v 3v -11v 14v -11v 11h 1v -9v 6v -3v 6v -9h 1v 9v -9v 9v -6v 3v -3h 1v 3v -6v 6v -8v 13v -8h 1v 6v
 -3v 3v -9v 6v -3v 6h 1v -6v 6v -14v 16v -5h 1v -3v 6v -6v 6h 1v -9v 9v -3h 1v -8v 11v -3v 3h 1v -9v 9v -14v 8v -5h 1v -3v 14v -6v 6v -6h 1v 8v -5v 3v -3v 5v -8v 8h 1v -13v 11v -3h 1v -3v 8v -5v 5v -5v 3v -3h 1v 5v -5v 5v -5v 5h 1v -8v 8v -5v 3v -3v
 5h 1v -2v 2v -5h 1v -3v 8v -5h 1v 5v -5v 3v -3v 5v -2v 2h 1v -8v 8v -5h 1v 5v -2v 2v -2v 2v -8v 6h 1v 2v -8v 8h 1v -5v 5v -5v 3h 1v 2v -2v 2v -5v 5h 1v -5v 5v -11v 11h 1v -5v 5v -2v 2h 1v -5v 5v -2v 2v -2v 2v -5h 1v 5v -2v 2v -5v 5v -8v 8h 1v -5v 5v
 -5v 5v -5h 1v 5h 1v -5v 5v -2v 2v -5h 1v 5v -2v 2v -5v 3v -9h 1v 11v -2v 2v -2v 2h 1v -2v 2v -5v 5h 1v -2v 2v -2v 2h 1v -2v 2v -5v 5v -2v 2h 1v -2v 2v -2v 2h 1v -5v 5v -2v 2v -5v 3h 1v 2v -5v 5v -2v 2h 1v -8v 8v -5v 5v -2h 1v -3v 3v -3v 5h 1v -2v 2v
 -2v 2v -2v 2h 1v -2v 2v -5v 5v -8v 8h 1v -2v 2v -2v 2v -2h 1v 2v -5v 5v -2h 1v 2v -2v 2h 1v -5v 3v -3v 5h 1v -2v 2v -2h 1v 2v -2v 2v -2v 2h 1v -2v 2v -2v 2h 1v -2v 2v -2v 2v -2v 2h 1v -2v 2v -2v 2h 1v -2v 2v -2v 2v -5h 1v 5v -5v 5v -2v 2h 1v -5v 5h
 1v -5v 5v -2v 2v -5v 5h 1v -2v 2v -2v 2v -2h 1v 2v -2v 2v -2v 2h 1v -2v 2h 2v -2v 2h 1v -2v 2h 1v -2v 2v -2v 2h 1v -2v 2v -5v 5v -2h 1v 2v -2v 2h 3v -2v 2h 1v -5v 5h 1v -2v 2h 1v -2v 2v -2v 2v -2v 2h 1v -2v 2v -5v 5h 1v -2v 2v -2v 2h 3v -2v 2h 2v
 -2h 1v 2h 2v -2v 2v -2v 2h 3v -2v 2h 1v -2v 2h 1v -2v 2v -2v 2h 6v -8v 8h 2v -2v 2h 2v -2v 2v -2v 2h 6v -2v 2h 1v -2v 2h 4v -2v 2h 3v -2v 2h 6v -2v 2h 1v -2v 2h 1v -2v 2h 1v -2v 2h 14v -2v 2h 7v -2v 2h 5v -2v 2h 6" fill="none" stroke="#000099"/>
<rect x="442" y="25" width="114" height="46" fill="white"/>
<path d="M442,71h 114" fill="none" stroke="black"/>
<path d="M556,71v -46" fill="none" stroke="black"/>
<path d="M556,25h -114" fill="none" stroke="black"/>
<path d="M442,25v 46" fill="none" stroke="black"/>
<text x="447" y="52" fill="black" font-size="14" font-family="Helvetica">
Entries 
</text>
<text x="505" y="52" fill="black" font-size="14" font-family="Helvetica">
 12614
</text>
<path d="M57,346h 453" fill="none" stroke="black"/>
<text x="456" y="372" fill="black" font-size="12" font-family="Helvetica">
Time (ns)
</text>
<path d="M57,337v 9" fill="none" stroke="black"/>
<path d="M68,342v 4" fill="none" stroke="black"/>
<path d="M79,342v 4" fill="none" stroke="black"/>
<path d="M91,342v 4" fill="none" stroke="black"/>
<path d="M102,342v 4" fill="none" stroke="black"/>
<path d="M113,337v 9" fill="none" stroke="black"/>
<path d="M125,342v 4" fill="none" stroke="black"/>
<path d="M136,342v 4" fill="none" stroke="black"/>
<path d="M147,342v 4" fill="none" stroke="black"/>
<path d="M159,342v 4" fill="none" stroke="black"/>
<path d="M170,337v 9" fill="none" stroke="black"/>
<path d="M181,342v 4" fill="none" stroke="black"/>
<path d="M193,342v 4" fill="none" stroke="black"/>
<path d="M204,342v 4" fill="none" stroke="black"/>
<path d="M215,342v 4" fill="none" stroke="black"/>
<path d="M227,337v 9" fill="none" stroke="black"/>
<path d="M238,342v 4" fill="none" stroke="black"/>
<path d="M249,342v 4" fill="none" stroke="black"/>
<path d="M261,342v 4" fill="none" stroke="black"/>
<path d="M272,342v 4" fill="none" stroke="black"/>
<path d="M283,337v 9" fill="none" stroke="black"/>
<path d="M295,342v 4" fill="none" stroke="black"/>
<path d="M306,342v 4" fill="none" stroke="black"/>
<path d="M317,342v 4" fill="none" stroke="black"/>
<path d="M329,342v 4" fill="none" stroke="black"/>
<path d="M340,337v 9" fill="none" stroke="black"/>
<path d="M351,342v 4" fill="none" stroke="black"/>
<path d="M363,342v 4" fill="none" stroke="black"/>
<path d="M374,342v 4" fill="none" stroke="black"/>
<path d="M386,342v 4" fill="none" stroke="black"/>
<path d="M397,337v 9" fill="none" stroke="black"/>
<path d="M408,342v 4" fill="none" stroke="black"/>
<path d="M420,342v 4" fill="none" stroke="black"/>
<path d="M431,342v 4" fill="none" stroke="black"/>
<path d="M442,342v 4" fill="none" stroke="black"/>
<path d="M454,337v 9" fill="none" stroke="black"/>
<path d="M465,342v 4" fill="none" stroke="black"/>
<path d="M476,342v 4" fill="none" stroke="black"/>
<path d="M488,342v 4" fill="none" stroke="black"/>
<path d="M499,342v 4" fill="none" stroke="black"/>
<path d="M510,337v 9" fill="none" stroke="black"/>
<text x="36" y="359" fill="black" font-size="12" font-family="Helvetica">
-20000
</text>
<text x="93" y="359" fill="black" font-size="12" font-family="Helvetica">
-15000
</text>
<text x="149" y="359" fill="black" font-size="12" font-family="Helvetica">
-10000
</text>
<text x="210" y="359" fill="black" font-size="12" font-family="Helvetica">
-5000
</text>
<text x="280" y="359" fill="black" font-size="12" font-family="Helvetica">
0
</text>
<text x="325" y="359" fill="black" font-size="12" font-family="Helvetica">
5000
</text>
<text x="379" y="359" fill="black" font-size="12" font-family="Helvetica">
10000
</text>
<text x="435" y="359" fill="black" font-size="12" font-family="Helvetica">
15000
</text>
<text x="492" y="359" fill="black" font-size="12" font-family="Helvetica">
20000
</text>
<path d="M57,346v -308" fill="none" stroke="black"/>
<g transform="rotate(-90,29,72)">
<text x="29" y="72" fill="black" font-size="12" font-family="Helvetica">
Count
</text>
</g>
<path d="M70,346h -13" fill="none" stroke="black"/>
<path d="M63,333h -6" fill="none" stroke="black"/>
<path d="M63,319h -6" fill="none" stroke="black"/>
<path d="M63,305h -6" fill="none" stroke="black"/>
<path d="M70,292h -13" fill="none" stroke="black"/>
<path d="M63,278h -6" fill="none" stroke="black"/>
<path d="M63,264h -6" fill="none" stroke="black"/>
<path d="M63,250h -6" fill="none" stroke="black"/>
<path d="M70,237h -13" fill="none" stroke="black"/>
<path d="M63,223h -6" fill="none" stroke="black"/>
<path d="M63,209h -6" fill="none" stroke="black"/>
<path d="M63,196h -6" fill="none" stroke="black"/>
<path d="M70,182h -13" fill="none" stroke="black"/>
<path d="M63,168h -6" fill="none" stroke="black"/>
<path d="M63,154h -6" fill="none" stroke="black"/>
<path d="M63,141h -6" fill="none" stroke="black"/>
<path d="M70,127h -13" fill="none" stroke="black"/>
<path d="M63,113h -6" fill="none" stroke="black"/>
<path d="M63,100h -6" fill="none" stroke="black"/>
<path d="M63,86h -6" fill="none" stroke="black"/>
<path d="M70,72h -13" fill="none" stroke="black"/>
<path d="M70,72h -13" fill="none" stroke="black"/>
<path d="M63,58h -6" fill="none" stroke="black"/>
<path d="M63,45h -6" fill="none" stroke="black"/>
<text x="47" y="350" fill="black" font-size="12" font-family="Helvetica">
0
</text>
<text x="40" y="295" fill="black" font-size="12" font-family="Helvetica">
20
</text>
<text x="40" y="240" fill="black" font-size="12" font-family="Helvetica">
40
</text>
<text x="40" y="185" fill="black" font-size="12" font-family="Helvetica">
60
</text>
<text x="40" y="131" fill="black" font-size="12" font-family="Helvetica">
80
</text>
<text x="33" y="75" fill="black" font-size="12" font-family="Helvetica">
100
</text>
<rect x="442" y="25" width="114" height="46" fill="white"/>
<path d="M442,71h 114" fill="none" stroke="black"/>
<path d="M556,71v -46" fill="none" stroke="black"/>
<path d="M556,25h -114" fill="none" stroke="black"/>
<path d="M442,25v 46" fill="none" stroke="black"/>
<text x="447" y="52" fill="black" font-size="14" font-family="Helvetica">
Entries 
</text>
<text x="505" y="52" fill="black" font-size="14" font-family="Helvetica">
 12614
</text>
<text x="139" y="21" fill="black" font-size="20" font-family="Helvetica">
mu-_1mm_Aluminium_500000
</text></svg>
