<?xml version="1.0" standalone="no"?>
<svg width="567" height="385" viewBox="0 0 567 385" xmlns="http://www.w3.org/2000/svg">
<title>
images/sim_mu+_0.5mm_Aluminium_loose_f_500k.svg
</title>
<desc>
Creator: ROOT Version 5.34/05
CreationDate: Mon May 27 21:13:48 2013</desc>
<defs>
</defs>
<rect x="0" y="0" width="567" height="385" fill="white"/>
<rect x="57" y="38" width="453" height="308" fill="white"/>
<rect x="57" y="38" width="453" height="308" fill="none" stroke="black"/>
<rect x="57" y="38" width="453" height="308" fill="white"/>
<rect x="57" y="38" width="453" height="308" fill="none" stroke="black"/>
<path d="M57,346h 227v -293v 60v -36v 26h 1v -16v 40v -14v 8v -34v 47v -34h 1v 10v -26v 44v -40v 39v -31h 1v -8v 45v -21v 41v -45v 36v -44h 1v 61v -49v 37v -25v 13h 1v -16v 20v -22v 53v -56h 1v 28v -31v 27v -28v 66v -14v 19h 1v -50v 45v -40v 42v -25v
 25h 1v -46v 35v -11h 1v 16v -18v 9v -29v 22v -5v 25h 1v 24v -35v 28v -18v 16v -18h 1v 11v -30v 39v -11v 2v -36v 53v -23h 1v -5v 15v -15v 28v -31v 46h 1v -25v 15v -27v 22v -26v 51v -35v 30h 1v -37v 42v -38v 28v -19v 1h 1v -16v 31v -10v 4h 1v 5v -24v
 43v -22h 1v -19v 39v -17v 32v -16h 1v -7v 11v -26v 35v -26v 16h 1v -37v 37v -18v 34v -49v 31h 1v -23v 31v -42v 40h 1v 9v -16v 31v -31v 16h 1v -28v 37v -34v 22h 1v 27v -44v 36v -10v 7v -14v 6h 1v -18v 16v -18v 18h 1v -10v 12v -5v 15v -18v 30h 1v -28v
 13v -12v 34v -43v 25h 1v -3v 11v -12v 6v -12v 19h 1v -22v 22v -3v 11v -8v 2v -14h 1v -4v 19v -7v 7v -3v 18h 1v -44v 32v -15v 23v -27h 1v 18v -3v 10v -25v 21v -11v 12v -21h 1v 18v -10v 12v -12v 29v -37h 1v 24v -7v 14v -20v 15v -8v 18h 1v -16v 13v
 -15h 1v 12v -24v 37v -16v 10h 1v 2v -15v 4v -10v 21v -22h 1v 38v -25v 4v -8v 14h 1v -23v 6v -6v 20v -14v 23v -7v 1h 1v -12v 18v -22v 19v -20v 29v -18h 1v 11v -22v 26v -22v 25h 1v -24v 2v -9v 27v -15v 16v -18v 3h 1v 15v -10v 4v -15v 23v -14v 5h 1v 3v
 -11v 12v -15v 12h 1v -9v 17v -11v 11v -14v 9h 1v -1v 10v -15v 16v -22h 1v 20v -21v 22v -12h 1v 9v -9v 12v -10v 10v -4v 8h 1v -13v 19v -20v 13v -6v 6v -19h 1v 9v -3v 9v -12v 17h 1v -5v 2v -8v 17v -9v 8v -15v 16h 1v -14v 17v -25v 13h 1v 2v -7v 10v
 -10v 7v -2h 1v 5v -18v 19v -17v 25h 1v -21v 21v -21v 19v -16h 1v 13v -13v 15v -13v 10v -8h 1v 12v -10v 7v -3v 3v -6v 9h 1v -20v 16v -5v 5v -6v 9h 1v -13v 10v -16v 16v -2v 5v -12h 1v 12v -8v 8v -9v 10v -7v 7v -7h 1v 13v -20v 16v -11v 9v -3h 1v 9v
 -10v 9v -14v 8v -3h 1v 13v -13v 9v -8v 2v -3h 1v -6v 18v -12v 6v -16v 16h 1v -19v 22v -5v 5h 1v -6v 7v -10v 16v -18v 15h 1v -16v 9v -9v 13v -7v 7h 1v -4v 6v -5v 3v -9v 8h 1v 4v -10v 12v -24v 21h 1v 3v -18v 13v -1v 6h 1v -12v 10v -3h 1v -7v 9v -8v 5v
 -2v 5h 1v 3v -5v 3v -12v 8v -9v 4h 1v -3v 15v -9v 9v -6v 5h 1v -2v 2v -6v 4v -9v 8v -11h 1v 14v -8v 6v -6v 9h 1v -6v 9v -6v 3v -7v 3v -5h 1v 11v -15v 12h 1v -3v 3v -6v 4v -6v 11v -5h 1v 9v -18v 11v -12v 10h 1v 6v -7v 6v -5v 8v -15h 1v 9v -11v 11v
 -9v 10v -10h 1v 4v -4v 12v -3v 3v -8v 3h 1v 8v -5v 3v -4v 1v -7v 7h 1v 3v -10v 9v -9v 6v -6h 1v 9v -8v 11v -9v 4v -4h 1v 4v -4v 6v -8v 8v -2v 2h 1v -2v 3v -4v 3v -5v 3h 1v -1v 1v -1v 8v -13v 6h 1v 6v -3v 2v -6v 4v -3v 5v -2h 1v 2v -12v 13v -7v 4h 1v
 -3v 5v -8v 8v -3v 1v -1h 1v -5v 8v -5v 5h 1v -3v 1v -6v 8v -8v 6v -3h 1v -3v 9v -4v 4v -9h 1v 6v -1v 1v -1v 4v -4h 1v 4v -6v 6v -4v 4h 1v -4v 5v -11v 10h 1v -9v 6v -4h 1v 8v -8v 4v -1v 1h 1v -4v 7v -4v 5v -10v 5h 1v -2v 7v -8h 1v 6v -9v 7v -3v 5h 1v
 -6v 7v -4v 4h 1v -1v 2v -7v 7v -2v 1h 1v -1v 2v -5v 4h 1v -4v 4v -6v 7v -2h 1v -2v 3v -3v 2v -5v 7h 1v -4v 4v -7v 5h 1v -2v 3v -4v 1v -1v 3h 1v -3v 5v -5v 4v -3h 1v 4v -4v 3v -4v 4v -3h 1v -3v 7v -4v 4v -2v 2h 1v -5v 5v -5h 1v 4v -4v 4v -3v 3v -3h
 1v 3v -1v 2v -2v 1v -3v 3h 1v -1v 2v -1v 1v -2v 2v -1h 1v -4v 5v -2h 1v 1v -1v 2v -2v 2h 1v -2v 2v -2h 1v 1v -4v 4v -3v 3v -4v 4v -1h 1v 2v -2v 1v -3v 4h 1v -1v 1v -2v 1v -1v 1h 1v -3v 4v -4v 3v -3v 4h 1v -2v 2v -1v 1h 1v -2v 2v -2v 2h 1v -1v 1v -2v
 2v -4v 4h 1v -1v 1v -1v 1v -1h 1v 1v -2v 2v -2v 1h 1v -3v 4v -1v 1v -1h 1v -1v 2v -2v 2v -1h 1v 1v -1v 1v -1v 1v -1v 1h 1v -1v 1v -2v 2v -1v 1h 1v -2v 2v -1v 1h 1v -1v 1v -4h 1v 4v -5v 5v -1h 1v 1v -2v 2h 1v -4v 4h 1v -2v 2v -1v 1v -4h 1v 4v -4v 4v
 -1v 1v -1h 1v 1v -1v 1v -1h 1v 1v -1v 1h 1v -1v 1v -1v 1v -1v 1v -2v 2h 1v -1v 1v -1v 1v -2h 1v 2v -1v 1v -1h 1v 1v -1v 1h 1v -1v 1h 1v -2v 2v -1v 1h 1v -1v 1v -1v 1v -2h 1v 2v -1v 1v -1v 1h 1v -1v 1v -4v 4h 1v -2v 2v -1v 1h 1v -1v 1v -1v 1h 1v -1v
 1h 1v -1v 1v -1v 1h 1v -2v 2v -1v 1h 1v -1v 1v -2v 2h 1v -1v 1v -1v 1v -1v 1h 1v -1v 1v -2v 2h 1v -1v 1v -1v 1h 1v -1v 1v -1h 1v 1v -2v 2h 1v -1v 1v -1h 1v -1v 2h 1v -1v 1h 1v -1v 1h 1v -1v 1v -1v 1h 3v -1v 1h 1v -1v 1h 1v -1v 1v -1v 1h 1v -1v 1h 1v
 -1v 1h 1v -1h 1v 1v -2v 2h 1v -1v 1v -1v 1h 1v -1v 1h 1v -1v 1v -1h 1v 1h 4v -1h 1v 1h 1v -1v 1h 2v -1v 1h 1v -1v 1v -1h 1v 1h 1v -1v 1h 2v -1v 1h 2v -1v 1h 2v -1v 1h 3v -1h 1v 1h 4v -1v 1h 18v -1h 1v 1h 2v -1v 1h 1" fill="none" stroke="#000099"/>
<rect x="442" y="25" width="114" height="46" fill="white"/>
<path d="M442,71h 114" fill="none" stroke="black"/>
<path d="M556,71v -46" fill="none" stroke="black"/>
<path d="M556,25h -114" fill="none" stroke="black"/>
<path d="M442,25v 46" fill="none" stroke="black"/>
<text x="447" y="52" fill="black" font-size="14" font-family="Helvetica">
Entries 
</text>
<text x="505" y="52" fill="black" font-size="14" font-family="Helvetica">
 37931
</text>
<path d="M57,346h 453" fill="none" stroke="black"/>
<text x="456" y="372" fill="black" font-size="12" font-family="Helvetica">
Time (ns)
</text>
<path d="M57,337v 9" fill="none" stroke="black"/>
<path d="M68,342v 4" fill="none" stroke="black"/>
<path d="M79,342v 4" fill="none" stroke="black"/>
<path d="M91,342v 4" fill="none" stroke="black"/>
<path d="M102,342v 4" fill="none" stroke="black"/>
<path d="M113,337v 9" fill="none" stroke="black"/>
<path d="M125,342v 4" fill="none" stroke="black"/>
<path d="M136,342v 4" fill="none" stroke="black"/>
<path d="M147,342v 4" fill="none" stroke="black"/>
<path d="M159,342v 4" fill="none" stroke="black"/>
<path d="M170,337v 9" fill="none" stroke="black"/>
<path d="M181,342v 4" fill="none" stroke="black"/>
<path d="M193,342v 4" fill="none" stroke="black"/>
<path d="M204,342v 4" fill="none" stroke="black"/>
<path d="M215,342v 4" fill="none" stroke="black"/>
<path d="M227,337v 9" fill="none" stroke="black"/>
<path d="M238,342v 4" fill="none" stroke="black"/>
<path d="M249,342v 4" fill="none" stroke="black"/>
<path d="M261,342v 4" fill="none" stroke="black"/>
<path d="M272,342v 4" fill="none" stroke="black"/>
<path d="M283,337v 9" fill="none" stroke="black"/>
<path d="M295,342v 4" fill="none" stroke="black"/>
<path d="M306,342v 4" fill="none" stroke="black"/>
<path d="M317,342v 4" fill="none" stroke="black"/>
<path d="M329,342v 4" fill="none" stroke="black"/>
<path d="M340,337v 9" fill="none" stroke="black"/>
<path d="M351,342v 4" fill="none" stroke="black"/>
<path d="M363,342v 4" fill="none" stroke="black"/>
<path d="M374,342v 4" fill="none" stroke="black"/>
<path d="M386,342v 4" fill="none" stroke="black"/>
<path d="M397,337v 9" fill="none" stroke="black"/>
<path d="M408,342v 4" fill="none" stroke="black"/>
<path d="M420,342v 4" fill="none" stroke="black"/>
<path d="M431,342v 4" fill="none" stroke="black"/>
<path d="M442,342v 4" fill="none" stroke="black"/>
<path d="M454,337v 9" fill="none" stroke="black"/>
<path d="M465,342v 4" fill="none" stroke="black"/>
<path d="M476,342v 4" fill="none" stroke="black"/>
<path d="M488,342v 4" fill="none" stroke="black"/>
<path d="M499,342v 4" fill="none" stroke="black"/>
<path d="M510,337v 9" fill="none" stroke="black"/>
<text x="36" y="359" fill="black" font-size="12" font-family="Helvetica">
-20000
</text>
<text x="93" y="359" fill="black" font-size="12" font-family="Helvetica">
-15000
</text>
<text x="149" y="359" fill="black" font-size="12" font-family="Helvetica">
-10000
</text>
<text x="210" y="359" fill="black" font-size="12" font-family="Helvetica">
-5000
</text>
<text x="280" y="359" fill="black" font-size="12" font-family="Helvetica">
0
</text>
<text x="325" y="359" fill="black" font-size="12" font-family="Helvetica">
5000
</text>
<text x="379" y="359" fill="black" font-size="12" font-family="Helvetica">
10000
</text>
<text x="435" y="359" fill="black" font-size="12" font-family="Helvetica">
15000
</text>
<text x="492" y="359" fill="black" font-size="12" font-family="Helvetica">
20000
</text>
<path d="M57,346v -308" fill="none" stroke="black"/>
<g transform="rotate(-90,29,72)">
<text x="29" y="72" fill="black" font-size="12" font-family="Helvetica">
Count
</text>
</g>
<path d="M70,346h -13" fill="none" stroke="black"/>
<path d="M63,339h -6" fill="none" stroke="black"/>
<path d="M63,332h -6" fill="none" stroke="black"/>
<path d="M63,324h -6" fill="none" stroke="black"/>
<path d="M70,317h -13" fill="none" stroke="black"/>
<path d="M63,310h -6" fill="none" stroke="black"/>
<path d="M63,302h -6" fill="none" stroke="black"/>
<path d="M63,295h -6" fill="none" stroke="black"/>
<path d="M70,287h -13" fill="none" stroke="black"/>
<path d="M63,280h -6" fill="none" stroke="black"/>
<path d="M63,273h -6" fill="none" stroke="black"/>
<path d="M63,265h -6" fill="none" stroke="black"/>
<path d="M70,258h -13" fill="none" stroke="black"/>
<path d="M63,251h -6" fill="none" stroke="black"/>
<path d="M63,243h -6" fill="none" stroke="black"/>
<path d="M63,236h -6" fill="none" stroke="black"/>
<path d="M70,228h -13" fill="none" stroke="black"/>
<path d="M63,221h -6" fill="none" stroke="black"/>
<path d="M63,214h -6" fill="none" stroke="black"/>
<path d="M63,206h -6" fill="none" stroke="black"/>
<path d="M70,199h -13" fill="none" stroke="black"/>
<path d="M63,192h -6" fill="none" stroke="black"/>
<path d="M63,184h -6" fill="none" stroke="black"/>
<path d="M63,177h -6" fill="none" stroke="black"/>
<path d="M70,169h -13" fill="none" stroke="black"/>
<path d="M63,162h -6" fill="none" stroke="black"/>
<path d="M63,155h -6" fill="none" stroke="black"/>
<path d="M63,147h -6" fill="none" stroke="black"/>
<path d="M70,140h -13" fill="none" stroke="black"/>
<path d="M63,133h -6" fill="none" stroke="black"/>
<path d="M63,125h -6" fill="none" stroke="black"/>
<path d="M63,118h -6" fill="none" stroke="black"/>
<path d="M70,110h -13" fill="none" stroke="black"/>
<path d="M63,103h -6" fill="none" stroke="black"/>
<path d="M63,96h -6" fill="none" stroke="black"/>
<path d="M63,88h -6" fill="none" stroke="black"/>
<path d="M70,81h -13" fill="none" stroke="black"/>
<path d="M63,74h -6" fill="none" stroke="black"/>
<path d="M63,66h -6" fill="none" stroke="black"/>
<path d="M63,59h -6" fill="none" stroke="black"/>
<path d="M70,51h -13" fill="none" stroke="black"/>
<path d="M70,51h -13" fill="none" stroke="black"/>
<path d="M63,44h -6" fill="none" stroke="black"/>
<text x="47" y="350" fill="black" font-size="12" font-family="Helvetica">
0
</text>
<text x="40" y="321" fill="black" font-size="12" font-family="Helvetica">
20
</text>
<text x="40" y="291" fill="black" font-size="12" font-family="Helvetica">
40
</text>
<text x="40" y="262" fill="black" font-size="12" font-family="Helvetica">
60
</text>
<text x="40" y="232" fill="black" font-size="12" font-family="Helvetica">
80
</text>
<text x="33" y="203" fill="black" font-size="12" font-family="Helvetica">
100
</text>
<text x="33" y="173" fill="black" font-size="12" font-family="Helvetica">
120
</text>
<text x="33" y="144" fill="black" font-size="12" font-family="Helvetica">
140
</text>
<text x="33" y="114" fill="black" font-size="12" font-family="Helvetica">
160
</text>
<text x="33" y="84" fill="black" font-size="12" font-family="Helvetica">
180
</text>
<text x="33" y="55" fill="black" font-size="12" font-family="Helvetica">
200
</text>
<rect x="442" y="25" width="114" height="46" fill="white"/>
<path d="M442,71h 114" fill="none" stroke="black"/>
<path d="M556,71v -46" fill="none" stroke="black"/>
<path d="M556,25h -114" fill="none" stroke="black"/>
<path d="M442,25v 46" fill="none" stroke="black"/>
<text x="447" y="52" fill="black" font-size="14" font-family="Helvetica">
Entries 
</text>
<text x="505" y="52" fill="black" font-size="14" font-family="Helvetica">
 37931
</text>
<text x="128" y="21" fill="black" font-size="20" font-family="Helvetica">
mu+_0.5mm_Aluminium_500000
</text>
<path d="M285,110l 2, 20l 3, 19l 2, 17l 2, 16l 2, 14l 3, 13l 2, 12l 2, 11l 3, 10l 2, 9l 2, 8l 2, 8l 3, 7l 2, 6l 2, 6l 2, 5l 3, 5l 2, 4l 2, 4l 2, 4l 3, 3l 2, 3l 2, 3l 2, 3l 3, 2l 2, 2l 2, 2l 2, 2l 3, 1l 2, 2l 2, 1l 3, 2l 2, 1l 2, 1l 2, 1h 3l 2, 1l 2,
 1l 2, 1h 3l 2, 1h 2l 2, 1h 5l 2, 1h 5l 2, 1" fill="none" stroke="#ff0000" stroke-width="2"/>
<path d="M396,344h 7l 2, 1h 16l 2, 1h 84" fill="none" stroke="#ff0000" stroke-width="2"/>
<path d="M507,346h 2" fill="none" stroke="#ff0000" stroke-width="2"/></svg>
