<?xml version="1.0" standalone="no"?>
<svg width="567" height="385" viewBox="0 0 567 385" xmlns="http://www.w3.org/2000/svg">
<title>
images/sim_mu-_0.5mm_Aluminium_loose_f_500k.svg
</title>
<desc>
Creator: ROOT Version 5.34/05
CreationDate: Mon May 27 21:08:17 2013</desc>
<defs>
</defs>
<rect x="0" y="0" width="567" height="385" fill="white"/>
<rect x="57" y="38" width="453" height="308" fill="white"/>
<rect x="57" y="38" width="453" height="308" fill="none" stroke="black"/>
<rect x="57" y="38" width="453" height="308" fill="white"/>
<rect x="57" y="38" width="453" height="308" fill="none" stroke="black"/>
<path d="M57,346h 227v -266v 14v -35v 35h 1v -41v 62v -50v 62v -18h 1v -53v 139v -68v 39v -33v 41v -14h 1v -60v 69v -45v 86v -71v 38h 1v 15v -50v 98v -54h 1v 33v -18v 9v -27v 66h 1v -83v 83v -60v 39v -9h 1v -39v 33v -6v 21v -21v 15v -9v 47h 1v -41v
 15v -60v 66v -27v 39v -48h 1v -6v 51v -18v 9v -9v 21v -27v 27h 1v -39v 27v -15v 6v -15v 53h 1v -47v 36v -42v 44v -74v 95v -41h 1v 26v -59v 45v -9v 23v -6h 1v -29v 9v -3v 29v -29v 32v -29h 1v 26v -41v 44v -26v 26v -32v 26h 1v -5v 14v -20v 35v -50v
 53v -27h 1v -20v 44v -29v 17h 1v -50v 35v -5v 41v -21v 15h 1v -32v 32v -21v 12v -15v 12v -6h 1v -14v 50v -45v 24v -21v 18v -21h 1v 33v -41v 26v -41v 38h 1v -9v 36v -53v 20v -6v 33v -9h 1v 3v -24v 27v -44v 53v -18h 1v -15v 3v -26v 35v -3v 6h 1v 3v
 -12v 27v -12v 12v -18v 3h 1v -12v 18v -33v 33v -12v 27h 1v -24v 30v -45v 27v -9v 6h 1v 9v -18v 24v -24v 18v -9v 6h 1v 15v -54v 36v -9v 27v -12h 1v -30v 21v -27v 39v -21v 15h 1v 9v -33v 15v -6v 21v -27v 30h 1v -15v 9v -6v 12h 1v 6v -3v 9v -27v 21v
 -9h 1v 18v -39v 27v -36v 18v -3v 12h 1v 18v -27v 21h 1v -24v 21v -18v 24v -9v 24h 1v -30v 9v -24v 27v -9h 1v -15v 27v -9v 15v -24v 15v -3h 1v -3v 12v -3v 12v -27v 18h 1v 3v -21v 6v -6v 18v -15h 1v -3v 21v -12v 18h 1v 3v -33v 15v -9v 15v -3h 1v 6v
 -15v 18v -18v 6h 1v -15v 30v -12v 15v -27v 18v -15h 1v -6v 24v -15v 18v -18v 6v -6v 9v -6h 1v 9v -15v 21v -15h 1v 12v -15v 9v -15v 18h 1v -18v 15v -9v 18v -27v 21h 1v -3v 18v -21v 15v -6h 1v -9v 3v -12v 27v -36v 21h 1v -9v 30v -30v 18v -9v 6h 1v -9v
 6v -6v 12v -3v 3h 1v -27v 39v -18v 9v -15h 1v 15v -15v 6v -6v 9h 1v -9v 18v -18v 18v -18v 12h 1v -12v 18v -15v 9v -3h 1v 6v -3v 3v -30v 33h 1v -15v 12v -15v 18v -18v 18h 1v -6v 14v -14v 6v -6h 1v -3v 9v -15v 15v -24v 27v -3h 1v -9v 6v -9v 15v -24v
 29h 1v -11v 3v -24v 24v -6h 1v -15v 12v -3v 18v -12h 1v 12v -15v 3v -12v 21h 1v -3v 6v -27v 21v -3h 1v -18v 29v -14v 9v -9h 1v 14v -17v 9h 1v 6v -6v 6v -6v 3v -12h 1v 15v -12v 9v -18v 9h 1v 9v -6v 9v -6v 3h 1v -24v 24v -12v 6v -12v 21h 1v -3v 3v
 -18v 12v -3h 1v 3v -3v 9v -12v 12v -6h 1v -3v 11v -8h 1v -9v 17v -17v 9v -12v 15v -3v 3h 1v 3v -6v 6v -6v 3v -9v 9h 1v 3v -18v 20v -14h 1v 12v -9v 9v -12v 12v -18h 1v 18v -9v 9v -9v 11v -2h 1v -12v 14v -8h 1v -3v 9v -6v 8v -8v 8h 1v -11v 11v -8v 3h
 1v 5v -8v 8v -2h 1v -3v 3v -6v 8v -8v 8h 1v -8v 3v -12v 12h 1v 5v -8v 6v -12v 14v -5v 3h 1v -6v 8v -8h 1v 8v -5v 5h 1v -2v 2v -14v 14v -5h 1v 5v -11v 6h 1v -3v 8v -8v 8v -2h 1v -3v 5v -5v 5v -5v 5h 1v -5v 3v -9v 9v -3v 3v -3h 1v 5v -2v 2v -2v 2v -5v
 5v -2h 1v 2v -5v 3v -6v 8v -2v 2h 1v -5v 5v -11v 11v -2h 1v -3v 3v -3v 3v -9v 11v -2h 1v -12v 14v -8v 8v -2h 1v 2v -2v 2v -8v 8v -5v 3h 1v -3v 5v -5v 5v -5h 1v 5v -2v 2v -2v 2v -5v 5v -2v 2h 1v -8v 8v -5h 1v 5v -2v 2v -5v 3h 1v 2v -2v 2v -5h 1v 5v
 -5v 5h 1v -5v 5v -2v 2h 1v -2v 2v -2v 2h 1v -5v 5v -5v 3h 1v 2v -5v 5h 1v -5v 5v -2v 2v -2h 1v 2v -2v 2v -2v 2v -2v 2h 1v -5v 5v -5v 5v -8v 8h 1v -5v 5v -5v 3h 1v 2v -2v 2h 1v -2v 2v -2v 2v -2h 1v -3v 5v -2v 2v -2h 1v 2v -8v 8h 1v -2v 2h 1v -2v 2v
 -5v 5v -5v 3h 1v 2v -2v 2v -2h 1v 2v -2v 2v -5v 5h 1v -2v 2v -2h 1v 2v -2v 2v -2h 1v 2v -5v 5v -2v 2h 1v -2v 2h 1v -2v 2v -5v 5h 1v -5v 5v -2h 1v 2v -5v 5v -2v 2h 1v -5v 5h 1v -5v 5v -2v 2v -2v 2v -2h 1v -3v 5v -2v 2v -5h 1v 5v -2v 2v -5v 5h 1v -2h
 1v 2h 1v -2v 2h 1v -2v 2v -2v 2h 1v -2v 2h 2v -2v 2v -2v 2h 1v -2v 2h 1v -2v 2h 1v -2v 2v -2h 1v 2h 1v -2v 2h 1v -2v 2h 1v -2v 2v -2v 2v -2v 2h 3v -5v 5v -2h 1v 2v -5v 5h 1v -5v 5h 1v -2v 2h 1v -5v 5h 4v -5v 5h 2v -2v 2h 1v -2v 2h 1v -2v 2h 3v -2v
 2h 2v -2v 2h 1v -2v 2h 1v -2v 2v -5h 1v 5v -2v 2h 6v -2v 2v -2h 1v 2h 3v -2v 2h 4v -2v 2h 2v -2v 2h 7v -2v 2v -2v 2h 2v -2v 2h 1v -2h 1v 2v -2v 2h 1v -2v 2h 3v -2v 2h 3v -2v 2h 6v -2v 2h 5v -2v 2v -2v 2h 2v -2h 1v 2h 5v -2v 2h 2v -2v 2h 3"
 fill="none" stroke="#000099"/>
<rect x="442" y="25" width="114" height="46" fill="white"/>
<path d="M442,71h 114" fill="none" stroke="black"/>
<path d="M556,71v -46" fill="none" stroke="black"/>
<path d="M556,25h -114" fill="none" stroke="black"/>
<path d="M442,25v 46" fill="none" stroke="black"/>
<text x="447" y="52" fill="black" font-size="14" font-family="Helvetica">
Entries 
</text>
<text x="505" y="52" fill="black" font-size="14" font-family="Helvetica">
 12664
</text>
<path d="M57,346h 453" fill="none" stroke="black"/>
<text x="456" y="372" fill="black" font-size="12" font-family="Helvetica">
Time (ns)
</text>
<path d="M57,337v 9" fill="none" stroke="black"/>
<path d="M68,342v 4" fill="none" stroke="black"/>
<path d="M79,342v 4" fill="none" stroke="black"/>
<path d="M91,342v 4" fill="none" stroke="black"/>
<path d="M102,342v 4" fill="none" stroke="black"/>
<path d="M113,337v 9" fill="none" stroke="black"/>
<path d="M125,342v 4" fill="none" stroke="black"/>
<path d="M136,342v 4" fill="none" stroke="black"/>
<path d="M147,342v 4" fill="none" stroke="black"/>
<path d="M159,342v 4" fill="none" stroke="black"/>
<path d="M170,337v 9" fill="none" stroke="black"/>
<path d="M181,342v 4" fill="none" stroke="black"/>
<path d="M193,342v 4" fill="none" stroke="black"/>
<path d="M204,342v 4" fill="none" stroke="black"/>
<path d="M215,342v 4" fill="none" stroke="black"/>
<path d="M227,337v 9" fill="none" stroke="black"/>
<path d="M238,342v 4" fill="none" stroke="black"/>
<path d="M249,342v 4" fill="none" stroke="black"/>
<path d="M261,342v 4" fill="none" stroke="black"/>
<path d="M272,342v 4" fill="none" stroke="black"/>
<path d="M283,337v 9" fill="none" stroke="black"/>
<path d="M295,342v 4" fill="none" stroke="black"/>
<path d="M306,342v 4" fill="none" stroke="black"/>
<path d="M317,342v 4" fill="none" stroke="black"/>
<path d="M329,342v 4" fill="none" stroke="black"/>
<path d="M340,337v 9" fill="none" stroke="black"/>
<path d="M351,342v 4" fill="none" stroke="black"/>
<path d="M363,342v 4" fill="none" stroke="black"/>
<path d="M374,342v 4" fill="none" stroke="black"/>
<path d="M386,342v 4" fill="none" stroke="black"/>
<path d="M397,337v 9" fill="none" stroke="black"/>
<path d="M408,342v 4" fill="none" stroke="black"/>
<path d="M420,342v 4" fill="none" stroke="black"/>
<path d="M431,342v 4" fill="none" stroke="black"/>
<path d="M442,342v 4" fill="none" stroke="black"/>
<path d="M454,337v 9" fill="none" stroke="black"/>
<path d="M465,342v 4" fill="none" stroke="black"/>
<path d="M476,342v 4" fill="none" stroke="black"/>
<path d="M488,342v 4" fill="none" stroke="black"/>
<path d="M499,342v 4" fill="none" stroke="black"/>
<path d="M510,337v 9" fill="none" stroke="black"/>
<text x="36" y="359" fill="black" font-size="12" font-family="Helvetica">
-20000
</text>
<text x="93" y="359" fill="black" font-size="12" font-family="Helvetica">
-15000
</text>
<text x="149" y="359" fill="black" font-size="12" font-family="Helvetica">
-10000
</text>
<text x="210" y="359" fill="black" font-size="12" font-family="Helvetica">
-5000
</text>
<text x="280" y="359" fill="black" font-size="12" font-family="Helvetica">
0
</text>
<text x="325" y="359" fill="black" font-size="12" font-family="Helvetica">
5000
</text>
<text x="379" y="359" fill="black" font-size="12" font-family="Helvetica">
10000
</text>
<text x="435" y="359" fill="black" font-size="12" font-family="Helvetica">
15000
</text>
<text x="492" y="359" fill="black" font-size="12" font-family="Helvetica">
20000
</text>
<path d="M57,346v -308" fill="none" stroke="black"/>
<g transform="rotate(-90,29,72)">
<text x="29" y="72" fill="black" font-size="12" font-family="Helvetica">
Count
</text>
</g>
<path d="M70,346h -13" fill="none" stroke="black"/>
<path d="M63,332h -6" fill="none" stroke="black"/>
<path d="M63,317h -6" fill="none" stroke="black"/>
<path d="M63,302h -6" fill="none" stroke="black"/>
<path d="M70,287h -13" fill="none" stroke="black"/>
<path d="M63,272h -6" fill="none" stroke="black"/>
<path d="M63,258h -6" fill="none" stroke="black"/>
<path d="M63,243h -6" fill="none" stroke="black"/>
<path d="M70,228h -13" fill="none" stroke="black"/>
<path d="M63,213h -6" fill="none" stroke="black"/>
<path d="M63,198h -6" fill="none" stroke="black"/>
<path d="M63,183h -6" fill="none" stroke="black"/>
<path d="M70,169h -13" fill="none" stroke="black"/>
<path d="M63,154h -6" fill="none" stroke="black"/>
<path d="M63,139h -6" fill="none" stroke="black"/>
<path d="M63,124h -6" fill="none" stroke="black"/>
<path d="M70,109h -13" fill="none" stroke="black"/>
<path d="M63,94h -6" fill="none" stroke="black"/>
<path d="M63,80h -6" fill="none" stroke="black"/>
<path d="M63,65h -6" fill="none" stroke="black"/>
<path d="M70,50h -13" fill="none" stroke="black"/>
<path d="M70,50h -13" fill="none" stroke="black"/>
<text x="47" y="350" fill="black" font-size="12" font-family="Helvetica">
0
</text>
<text x="40" y="291" fill="black" font-size="12" font-family="Helvetica">
20
</text>
<text x="40" y="232" fill="black" font-size="12" font-family="Helvetica">
40
</text>
<text x="40" y="172" fill="black" font-size="12" font-family="Helvetica">
60
</text>
<text x="40" y="113" fill="black" font-size="12" font-family="Helvetica">
80
</text>
<text x="33" y="53" fill="black" font-size="12" font-family="Helvetica">
100
</text>
<rect x="442" y="25" width="114" height="46" fill="white"/>
<path d="M442,71h 114" fill="none" stroke="black"/>
<path d="M556,71v -46" fill="none" stroke="black"/>
<path d="M556,25h -114" fill="none" stroke="black"/>
<path d="M442,25v 46" fill="none" stroke="black"/>
<text x="447" y="52" fill="black" font-size="14" font-family="Helvetica">
Entries 
</text>
<text x="505" y="52" fill="black" font-size="14" font-family="Helvetica">
 12664
</text>
<text x="130" y="21" fill="black" font-size="20" font-family="Helvetica">
mu-_0.5mm_Aluminium_500000
</text>
<path d="M285,110l 2, 80l 3, 31l 2, 16l 2, 11l 2, 9l 3, 8l 2, 7l 2, 7l 3, 6l 2, 5l 2, 5l 2, 4l 3, 4l 2, 4l 2, 4l 2, 3l 3, 3l 2, 2l 2, 2l 2, 3l 3, 2l 2, 1l 2, 2l 2, 2l 3, 1l 2, 1l 2, 1l 2, 1l 3, 1l 2, 1l 2, 1l 3, 1h 2l 2, 1l 2, 1h 3l 2, 1h 4l 3, 1h 4l
 2, 1h 7l 2, 1h 5" fill="none" stroke="#ff0000" stroke-width="2"/>
<path d="M396,345h 11l 3, 1h 97" fill="none" stroke="#ff0000" stroke-width="2"/>
<path d="M507,346h 2" fill="none" stroke="#ff0000" stroke-width="2"/></svg>
