<?xml version="1.0" standalone="no"?>
<svg width="567" height="385" viewBox="0 0 567 385" xmlns="http://www.w3.org/2000/svg">
<title>
images/sim_mu+_5mm_Air_tight_100k.svg
</title>
<desc>
Creator: ROOT Version 5.34/05
CreationDate: Fri May 10 16:15:18 2013</desc>
<defs>
</defs>
<rect x="0" y="0" width="567" height="385" fill="white"/>
<rect x="57" y="38" width="453" height="308" fill="white"/>
<rect x="57" y="38" width="453" height="308" fill="none" stroke="black"/>
<rect x="57" y="38" width="453" height="308" fill="white"/>
<rect x="57" y="38" width="453" height="308" fill="none" stroke="black"/>
<path d="M57,346h 226v -293h 2v 25h 1v 9h 1v -3h 1v 19h 1v 41h 1v -23h 1v 18h 2v 38h 1v -28h 1v 4h 1v 12h 1v 10h 1v 13h 1v 2h 1v 24h 2v -13h 1v 28h 2v -18h 1v 16h 1v -5h 1v 7h 2v 15h 1v -6h 1v 26h 1v -7h 1v 10h 1v 5h 1v -6h 1v 4h 2v 20h 1v -17h 1v
 12h 1v 5h 1v 3h 1v -8h 1v 11h 2v 4h 2v 11h 1v -9h 1v 12h 1v -1h 1v -8h 1v 6h 2v -1h 1v 5h 1v -4h 1v 5h 1v 4h 1v -10h 1v 13h 2v -4h 1v -5h 1v 13h 1v -9h 1v -4h 1v 10h 1v 5h 1v 1h 2v 1h 1v -1h 1v 3h 1v -7h 1v -2h 1v 6h 1v -2h 2v 2h 1v 5h 2v 1h 1v 1h
 1v -2h 1v 1h 2v -5h 1v 8h 1v -4h 1v 1h 1v 5h 1v -6h 1v 6h 1v -5h 2v 4h 1v 1h 1v -3h 1v 8h 1v -9h 1v 7h 1v -3h 2v 4h 1v -1h 1v -3h 1v -1h 1v 3h 1v 1h 1v -2h 1v -1h 2v 2h 2v -1h 1v 4h 1v -4h 1v 3h 1v -1h 2v 2h 1v -4h 1v 4h 3v -2h 1v 2h 1v -1h 3v 1h 2v
 -1h 2v 1h 3v -1h 1v 1h 1v -1h 1v 1h 1v -3h 1v 3h 7v -1h 1v 1h 1v -1h 1v 1h 2v -2h 1v 1h 1v 1h 12v -1h 1v 1h 4v -1h 1v 1h 11v -1h 1v 1h 41" fill="none" stroke="#000099"/>
<rect x="351" y="25" width="205" height="77" fill="white"/>
<path d="M351,102h 205" fill="none" stroke="black"/>
<path d="M556,102v -77" fill="none" stroke="black"/>
<path d="M556,25h -205" fill="none" stroke="black"/>
<path d="M351,25v 77" fill="none" stroke="black"/>
<text x="362" y="40" fill="black" font-size="16" font-family="Helvetica">
Entries 
</text>
<text x="503" y="40" fill="black" font-size="16" font-family="Helvetica">
 7617
</text>
<text x="376" y="61" fill="black" font-size="16" font-family="Helvetica">
 / ndf 
</text>
<text x="370" y="47" fill="black" font-size="11" font-family="Helvetica">
2
</text>
<text x="362" y="61" fill="black" font-size="16" font-family="Times">
&#0967;
</text>
<text x="455" y="59" fill="black" font-size="16" font-family="Helvetica">
 151.7 / 136
</text>
<text x="376" y="73" fill="black" font-size="16" font-family="Helvetica">
    
</text>
<text x="374" y="83" fill="black" font-size="11" font-family="Helvetica">
f
</text>
<text x="362" y="73" fill="black" font-size="16" font-family="Helvetica">
N
</text>
<text x="516" y="79" fill="black" font-size="16" font-family="Helvetica">
 3.9
</text>
<text x="503" y="79" fill="black" font-size="16" font-family="Times">
&#0177;
</text>
<text x="451" y="79" fill="black" font-size="16" font-family="Helvetica">
 341.1 
</text>
<text x="370" y="94" fill="black" font-size="16" font-family="Helvetica">
 
</text>
<text x="367" y="105" fill="black" font-size="11" font-family="Helvetica">
f
</text>
<text x="362" y="94" fill="black" font-size="16" font-family="Times">
&#0964;
</text>
<text x="516" y="98" fill="black" font-size="16" font-family="Helvetica">
 0.0
</text>
<text x="503" y="98" fill="black" font-size="16" font-family="Times">
&#0177;
</text>
<text x="451" y="98" fill="black" font-size="16" font-family="Helvetica">
  2197 
</text>
<path d="M57,346h 453" fill="none" stroke="black"/>
<text x="456" y="372" fill="black" font-size="12" font-family="Helvetica">
Time (ns)
</text>
<path d="M57,337v 9" fill="none" stroke="black"/>
<path d="M68,342v 4" fill="none" stroke="black"/>
<path d="M79,342v 4" fill="none" stroke="black"/>
<path d="M91,342v 4" fill="none" stroke="black"/>
<path d="M102,342v 4" fill="none" stroke="black"/>
<path d="M113,337v 9" fill="none" stroke="black"/>
<path d="M125,342v 4" fill="none" stroke="black"/>
<path d="M136,342v 4" fill="none" stroke="black"/>
<path d="M147,342v 4" fill="none" stroke="black"/>
<path d="M159,342v 4" fill="none" stroke="black"/>
<path d="M170,337v 9" fill="none" stroke="black"/>
<path d="M181,342v 4" fill="none" stroke="black"/>
<path d="M193,342v 4" fill="none" stroke="black"/>
<path d="M204,342v 4" fill="none" stroke="black"/>
<path d="M215,342v 4" fill="none" stroke="black"/>
<path d="M227,337v 9" fill="none" stroke="black"/>
<path d="M238,342v 4" fill="none" stroke="black"/>
<path d="M249,342v 4" fill="none" stroke="black"/>
<path d="M261,342v 4" fill="none" stroke="black"/>
<path d="M272,342v 4" fill="none" stroke="black"/>
<path d="M283,337v 9" fill="none" stroke="black"/>
<path d="M295,342v 4" fill="none" stroke="black"/>
<path d="M306,342v 4" fill="none" stroke="black"/>
<path d="M317,342v 4" fill="none" stroke="black"/>
<path d="M329,342v 4" fill="none" stroke="black"/>
<path d="M340,337v 9" fill="none" stroke="black"/>
<path d="M351,342v 4" fill="none" stroke="black"/>
<path d="M363,342v 4" fill="none" stroke="black"/>
<path d="M374,342v 4" fill="none" stroke="black"/>
<path d="M386,342v 4" fill="none" stroke="black"/>
<path d="M397,337v 9" fill="none" stroke="black"/>
<path d="M408,342v 4" fill="none" stroke="black"/>
<path d="M420,342v 4" fill="none" stroke="black"/>
<path d="M431,342v 4" fill="none" stroke="black"/>
<path d="M442,342v 4" fill="none" stroke="black"/>
<path d="M454,337v 9" fill="none" stroke="black"/>
<path d="M465,342v 4" fill="none" stroke="black"/>
<path d="M476,342v 4" fill="none" stroke="black"/>
<path d="M488,342v 4" fill="none" stroke="black"/>
<path d="M499,342v 4" fill="none" stroke="black"/>
<path d="M510,337v 9" fill="none" stroke="black"/>
<text x="36" y="359" fill="black" font-size="12" font-family="Helvetica">
-20000
</text>
<text x="93" y="359" fill="black" font-size="12" font-family="Helvetica">
-15000
</text>
<text x="149" y="359" fill="black" font-size="12" font-family="Helvetica">
-10000
</text>
<text x="210" y="359" fill="black" font-size="12" font-family="Helvetica">
-5000
</text>
<text x="280" y="359" fill="black" font-size="12" font-family="Helvetica">
0
</text>
<text x="325" y="359" fill="black" font-size="12" font-family="Helvetica">
5000
</text>
<text x="379" y="359" fill="black" font-size="12" font-family="Helvetica">
10000
</text>
<text x="435" y="359" fill="black" font-size="12" font-family="Helvetica">
15000
</text>
<text x="492" y="359" fill="black" font-size="12" font-family="Helvetica">
20000
</text>
<path d="M57,346v -308" fill="none" stroke="black"/>
<g transform="rotate(-90,29,72)">
<text x="29" y="72" fill="black" font-size="12" font-family="Helvetica">
Count
</text>
</g>
<path d="M70,346h -13" fill="none" stroke="black"/>
<path d="M63,338h -6" fill="none" stroke="black"/>
<path d="M63,330h -6" fill="none" stroke="black"/>
<path d="M63,321h -6" fill="none" stroke="black"/>
<path d="M63,313h -6" fill="none" stroke="black"/>
<path d="M70,304h -13" fill="none" stroke="black"/>
<path d="M63,296h -6" fill="none" stroke="black"/>
<path d="M63,287h -6" fill="none" stroke="black"/>
<path d="M63,279h -6" fill="none" stroke="black"/>
<path d="M63,270h -6" fill="none" stroke="black"/>
<path d="M70,262h -13" fill="none" stroke="black"/>
<path d="M63,253h -6" fill="none" stroke="black"/>
<path d="M63,245h -6" fill="none" stroke="black"/>
<path d="M63,236h -6" fill="none" stroke="black"/>
<path d="M63,228h -6" fill="none" stroke="black"/>
<path d="M70,219h -13" fill="none" stroke="black"/>
<path d="M63,211h -6" fill="none" stroke="black"/>
<path d="M63,202h -6" fill="none" stroke="black"/>
<path d="M63,194h -6" fill="none" stroke="black"/>
<path d="M63,185h -6" fill="none" stroke="black"/>
<path d="M70,177h -13" fill="none" stroke="black"/>
<path d="M63,168h -6" fill="none" stroke="black"/>
<path d="M63,160h -6" fill="none" stroke="black"/>
<path d="M63,151h -6" fill="none" stroke="black"/>
<path d="M63,143h -6" fill="none" stroke="black"/>
<path d="M70,134h -13" fill="none" stroke="black"/>
<path d="M63,126h -6" fill="none" stroke="black"/>
<path d="M63,117h -6" fill="none" stroke="black"/>
<path d="M63,109h -6" fill="none" stroke="black"/>
<path d="M63,100h -6" fill="none" stroke="black"/>
<path d="M70,92h -13" fill="none" stroke="black"/>
<path d="M63,83h -6" fill="none" stroke="black"/>
<path d="M63,75h -6" fill="none" stroke="black"/>
<path d="M63,66h -6" fill="none" stroke="black"/>
<path d="M63,58h -6" fill="none" stroke="black"/>
<path d="M70,50h -13" fill="none" stroke="black"/>
<path d="M70,50h -13" fill="none" stroke="black"/>
<path d="M63,41h -6" fill="none" stroke="black"/>
<text x="47" y="350" fill="black" font-size="12" font-family="Helvetica">
0
</text>
<text x="40" y="308" fill="black" font-size="12" font-family="Helvetica">
50
</text>
<text x="33" y="265" fill="black" font-size="12" font-family="Helvetica">
100
</text>
<text x="33" y="223" fill="black" font-size="12" font-family="Helvetica">
150
</text>
<text x="33" y="181" fill="black" font-size="12" font-family="Helvetica">
200
</text>
<text x="33" y="138" fill="black" font-size="12" font-family="Helvetica">
250
</text>
<text x="33" y="96" fill="black" font-size="12" font-family="Helvetica">
300
</text>
<text x="33" y="53" fill="black" font-size="12" font-family="Helvetica">
350
</text>
<rect x="351" y="25" width="205" height="77" fill="white"/>
<path d="M351,102h 205" fill="none" stroke="black"/>
<path d="M556,102v -77" fill="none" stroke="black"/>
<path d="M556,25h -205" fill="none" stroke="black"/>
<path d="M351,25v 77" fill="none" stroke="black"/>
<text x="362" y="40" fill="black" font-size="16" font-family="Helvetica">
Entries 
</text>
<text x="503" y="40" fill="black" font-size="16" font-family="Helvetica">
 7617
</text>
<text x="376" y="61" fill="black" font-size="16" font-family="Helvetica">
 / ndf 
</text>
<text x="370" y="47" fill="black" font-size="11" font-family="Helvetica">
2
</text>
<text x="362" y="61" fill="black" font-size="16" font-family="Times">
&#0967;
</text>
<text x="455" y="59" fill="black" font-size="16" font-family="Helvetica">
 151.7 / 136
</text>
<text x="376" y="73" fill="black" font-size="16" font-family="Helvetica">
    
</text>
<text x="374" y="83" fill="black" font-size="11" font-family="Helvetica">
f
</text>
<text x="362" y="73" fill="black" font-size="16" font-family="Helvetica">
N
</text>
<text x="516" y="79" fill="black" font-size="16" font-family="Helvetica">
 3.9
</text>
<text x="503" y="79" fill="black" font-size="16" font-family="Times">
&#0177;
</text>
<text x="451" y="79" fill="black" font-size="16" font-family="Helvetica">
 341.1 
</text>
<text x="370" y="94" fill="black" font-size="16" font-family="Helvetica">
 
</text>
<text x="367" y="105" fill="black" font-size="11" font-family="Helvetica">
f
</text>
<text x="362" y="94" fill="black" font-size="16" font-family="Times">
&#0964;
</text>
<text x="516" y="98" fill="black" font-size="16" font-family="Helvetica">
 0.0
</text>
<text x="503" y="98" fill="black" font-size="16" font-family="Times">
&#0177;
</text>
<text x="451" y="98" fill="black" font-size="16" font-family="Helvetica">
  2197 
</text>
<path d="M285,76l 2, 24l 3, 21l 2, 20l 2, 17l 2, 17l 3, 15l 2, 13l 2, 13l 3, 11l 2, 10l 2, 10l 2, 9l 3, 7l 2, 8l 2, 6l 2, 6l 3, 6l 2, 5l 2, 4l 2, 5l 3, 3l 2, 4l 2, 3l 2, 3l 3, 3l 2, 2l 2, 2l 2, 2l 3, 2l 2, 2l 2, 1l 3, 2l 2, 1l 2, 1l 2, 1l 3, 1l 2, 1l
 2, 1l 2, 1h 3l 2, 1l 2, 1h 5l 2, 1h 2l 2, 1h 5" fill="none" stroke="#ff0000" stroke-width="2"/>
<path d="M396,343l 2, 1h 9l 3, 1h 13l 2, 1h 82" fill="none" stroke="#ff0000" stroke-width="2"/>
<path d="M507,346h 2" fill="none" stroke="#ff0000" stroke-width="2"/>
<text x="173" y="21" fill="black" font-size="20" font-family="Helvetica">
mu+_5mm_Air_100000
</text></svg>
