<?xml version="1.0" standalone="no"?>
<svg width="567" height="328" viewBox="0 0 567 328" xmlns="http://www.w3.org/2000/svg">
<title>
images/sim_data_mu+_5mm_Aluminium.svg
</title>
<desc>
Creator: ROOT Version 5.34/05
CreationDate: Tue May  7 15:25:25 2013</desc>
<defs>
</defs>
<rect x="0" y="0" width="567" height="328" fill="white"/>
<rect x="57" y="33" width="453" height="262" fill="white"/>
<rect x="57" y="33" width="453" height="262" fill="none" stroke="black"/>
<rect x="57" y="33" width="453" height="262" fill="white"/>
<rect x="57" y="33" width="453" height="262" fill="none" stroke="black"/>
<path d="M57,295h 226v -250h 2v 231h 1v -1h 1v 1h 2v 5h 1v -5h 1v 4h 2v 2h 1v -3h 1v 2h 1v -3h 1v 7h 1v -2h 1v -1h 1v 3h 3v 2h 1v -2h 1v -1h 1v 6h 1v -1h 1v -1h 2v -1h 1v 2h 3v -2h 1v 3h 1v -1h 1v 2h 3v -1h 1v 1h 2v -1h 4v 1h 2v 2h 1v -2h 1v 1h 3v 1h
 3v -1h 1v 1h 1v -1h 1v 1h 1v -1h 1v 1h 2v 1h 2v -1h 5v 1h 2v -1h 1v 1h 7v 1h 1v -1h 3v 1h 1v -1h 1v 1h 3v -1h 2v 1h 2v -1h 1v 1h 5v -1h 1v 1h 1v -1h 1v 1h 127" fill="none" stroke="#000099"/>
<path d="M285,256l 2, 16l 3, 6l 2, 3l 2, 1l 2, 1l 3, 2h 2l 2, 1l 3, 1l 2, 1h 2l 2, 1l 3, 1h 4l 2, 1h 3l 2, 1h 7l 2, 1h 9l 2, 1h 23l 2, 1h 25" fill="none" stroke="#ff0000" stroke-width="2"/>
<path d="M396,295h 111" fill="none" stroke="#ff0000" stroke-width="2"/>
<path d="M507,295h 2" fill="none" stroke="#ff0000" stroke-width="2"/>
<rect x="351" y="21" width="205" height="105" fill="white"/>
<path d="M351,126h 205" fill="none" stroke="black"/>
<path d="M556,126v -105" fill="none" stroke="black"/>
<path d="M556,21h -205" fill="none" stroke="black"/>
<path d="M351,21v 105" fill="none" stroke="black"/>
<text x="361" y="32" fill="black" font-size="13" font-family="Helvetica">
Entries 
</text>
<text x="512" y="32" fill="black" font-size="13" font-family="Helvetica">
 4042
</text>
<text x="373" y="49" fill="black" font-size="13" font-family="Helvetica">
 / ndf 
</text>
<text x="368" y="39" fill="black" font-size="8" font-family="Helvetica">
2
</text>
<text x="361" y="49" fill="black" font-size="13" font-family="Times">
&#0967;
</text>
<text x="478" y="47" fill="black" font-size="13" font-family="Helvetica">
  1110 / 111
</text>
<text x="376" y="59" fill="black" font-size="13" font-family="Helvetica">
    
</text>
<text x="371" y="66" fill="black" font-size="8" font-family="Helvetica">
b
</text>
<text x="361" y="59" fill="black" font-size="13" font-family="Helvetica">
N
</text>
<text x="508" y="64" fill="black" font-size="13" font-family="Helvetica">
 0.190
</text>
<text x="497" y="64" fill="black" font-size="13" font-family="Times">
&#0177;
</text>
<text x="456" y="64" fill="black" font-size="13" font-family="Helvetica">
 0.348 
</text>
<text x="361" y="77" fill="black" font-size="13" font-family="Helvetica">
N_Cu     
</text>
<text x="515" y="79" fill="black" font-size="13" font-family="Helvetica">
 21.9
</text>
<text x="505" y="79" fill="black" font-size="13" font-family="Times">
&#0177;
</text>
<text x="464" y="79" fill="black" font-size="13" font-family="Helvetica">
 300.8 
</text>
<text x="366" y="94" fill="black" font-size="13" font-family="Helvetica">
_Cu  
</text>
<text x="361" y="94" fill="black" font-size="13" font-family="Times">
&#0964;
</text>
<text x="523" y="94" fill="black" font-size="13" font-family="Helvetica">
 1.1
</text>
<text x="512" y="94" fill="black" font-size="13" font-family="Times">
&#0177;
</text>
<text x="472" y="94" fill="black" font-size="13" font-family="Helvetica">
 162.5 
</text>
<text x="373" y="104" fill="black" font-size="13" font-family="Helvetica">
    
</text>
<text x="371" y="111" fill="black" font-size="8" font-family="Helvetica">
f
</text>
<text x="361" y="104" fill="black" font-size="13" font-family="Helvetica">
N
</text>
<text x="523" y="109" fill="black" font-size="13" font-family="Helvetica">
 2.8
</text>
<text x="512" y="109" fill="black" font-size="13" font-family="Times">
&#0177;
</text>
<text x="472" y="109" fill="black" font-size="13" font-family="Helvetica">
 110.6 
</text>
<text x="369" y="121" fill="black" font-size="13" font-family="Helvetica">
 
</text>
<text x="366" y="128" fill="black" font-size="8" font-family="Helvetica">
f
</text>
<text x="361" y="121" fill="black" font-size="13" font-family="Times">
&#0964;
</text>
<text x="523" y="124" fill="black" font-size="13" font-family="Helvetica">
 0.0
</text>
<text x="512" y="124" fill="black" font-size="13" font-family="Times">
&#0177;
</text>
<text x="472" y="124" fill="black" font-size="13" font-family="Helvetica">
  2197 
</text>
<path d="M57,295h 453" fill="none" stroke="black"/>
<text x="424" y="317" fill="black" font-size="11" font-family="Helvetica">
TDC - TDC0 (ns)
</text>
<path d="M57,287v 8" fill="none" stroke="black"/>
<path d="M68,291v 4" fill="none" stroke="black"/>
<path d="M79,291v 4" fill="none" stroke="black"/>
<path d="M91,291v 4" fill="none" stroke="black"/>
<path d="M102,291v 4" fill="none" stroke="black"/>
<path d="M113,287v 8" fill="none" stroke="black"/>
<path d="M125,291v 4" fill="none" stroke="black"/>
<path d="M136,291v 4" fill="none" stroke="black"/>
<path d="M147,291v 4" fill="none" stroke="black"/>
<path d="M159,291v 4" fill="none" stroke="black"/>
<path d="M170,287v 8" fill="none" stroke="black"/>
<path d="M181,291v 4" fill="none" stroke="black"/>
<path d="M193,291v 4" fill="none" stroke="black"/>
<path d="M204,291v 4" fill="none" stroke="black"/>
<path d="M215,291v 4" fill="none" stroke="black"/>
<path d="M227,287v 8" fill="none" stroke="black"/>
<path d="M238,291v 4" fill="none" stroke="black"/>
<path d="M249,291v 4" fill="none" stroke="black"/>
<path d="M261,291v 4" fill="none" stroke="black"/>
<path d="M272,291v 4" fill="none" stroke="black"/>
<path d="M283,287v 8" fill="none" stroke="black"/>
<path d="M295,291v 4" fill="none" stroke="black"/>
<path d="M306,291v 4" fill="none" stroke="black"/>
<path d="M317,291v 4" fill="none" stroke="black"/>
<path d="M329,291v 4" fill="none" stroke="black"/>
<path d="M340,287v 8" fill="none" stroke="black"/>
<path d="M351,291v 4" fill="none" stroke="black"/>
<path d="M363,291v 4" fill="none" stroke="black"/>
<path d="M374,291v 4" fill="none" stroke="black"/>
<path d="M386,291v 4" fill="none" stroke="black"/>
<path d="M397,287v 8" fill="none" stroke="black"/>
<path d="M408,291v 4" fill="none" stroke="black"/>
<path d="M420,291v 4" fill="none" stroke="black"/>
<path d="M431,291v 4" fill="none" stroke="black"/>
<path d="M442,291v 4" fill="none" stroke="black"/>
<path d="M454,287v 8" fill="none" stroke="black"/>
<path d="M465,291v 4" fill="none" stroke="black"/>
<path d="M476,291v 4" fill="none" stroke="black"/>
<path d="M488,291v 4" fill="none" stroke="black"/>
<path d="M499,291v 4" fill="none" stroke="black"/>
<path d="M510,287v 8" fill="none" stroke="black"/>
<text x="39" y="306" fill="black" font-size="11" font-family="Helvetica">
-20000
</text>
<text x="95" y="306" fill="black" font-size="11" font-family="Helvetica">
-15000
</text>
<text x="152" y="306" fill="black" font-size="11" font-family="Helvetica">
-10000
</text>
<text x="212" y="306" fill="black" font-size="11" font-family="Helvetica">
-5000
</text>
<text x="280" y="306" fill="black" font-size="11" font-family="Helvetica">
0
</text>
<text x="327" y="306" fill="black" font-size="11" font-family="Helvetica">
5000
</text>
<text x="381" y="306" fill="black" font-size="11" font-family="Helvetica">
10000
</text>
<text x="437" y="306" fill="black" font-size="11" font-family="Helvetica">
15000
</text>
<text x="494" y="306" fill="black" font-size="11" font-family="Helvetica">
20000
</text>
<path d="M57,295v -262" fill="none" stroke="black"/>
<g transform="rotate(-90,29,63)">
<text x="29" y="63" fill="black" font-size="11" font-family="Helvetica">
Count
</text>
</g>
<path d="M70,295h -13" fill="none" stroke="black"/>
<path d="M63,286h -6" fill="none" stroke="black"/>
<path d="M63,278h -6" fill="none" stroke="black"/>
<path d="M63,269h -6" fill="none" stroke="black"/>
<path d="M70,260h -13" fill="none" stroke="black"/>
<path d="M63,251h -6" fill="none" stroke="black"/>
<path d="M63,242h -6" fill="none" stroke="black"/>
<path d="M63,233h -6" fill="none" stroke="black"/>
<path d="M70,224h -13" fill="none" stroke="black"/>
<path d="M63,216h -6" fill="none" stroke="black"/>
<path d="M63,207h -6" fill="none" stroke="black"/>
<path d="M63,198h -6" fill="none" stroke="black"/>
<path d="M70,189h -13" fill="none" stroke="black"/>
<path d="M63,180h -6" fill="none" stroke="black"/>
<path d="M63,171h -6" fill="none" stroke="black"/>
<path d="M63,163h -6" fill="none" stroke="black"/>
<path d="M70,154h -13" fill="none" stroke="black"/>
<path d="M63,145h -6" fill="none" stroke="black"/>
<path d="M63,136h -6" fill="none" stroke="black"/>
<path d="M63,127h -6" fill="none" stroke="black"/>
<path d="M70,118h -13" fill="none" stroke="black"/>
<path d="M63,110h -6" fill="none" stroke="black"/>
<path d="M63,101h -6" fill="none" stroke="black"/>
<path d="M63,92h -6" fill="none" stroke="black"/>
<path d="M70,83h -13" fill="none" stroke="black"/>
<path d="M63,74h -6" fill="none" stroke="black"/>
<path d="M63,65h -6" fill="none" stroke="black"/>
<path d="M63,57h -6" fill="none" stroke="black"/>
<path d="M70,48h -13" fill="none" stroke="black"/>
<path d="M70,48h -13" fill="none" stroke="black"/>
<path d="M63,39h -6" fill="none" stroke="black"/>
<text x="48" y="299" fill="black" font-size="11" font-family="Helvetica">
0
</text>
<text x="35" y="263" fill="black" font-size="11" font-family="Helvetica">
200
</text>
<text x="35" y="228" fill="black" font-size="11" font-family="Helvetica">
400
</text>
<text x="35" y="193" fill="black" font-size="11" font-family="Helvetica">
600
</text>
<text x="35" y="157" fill="black" font-size="11" font-family="Helvetica">
800
</text>
<text x="29" y="122" fill="black" font-size="11" font-family="Helvetica">
1000
</text>
<text x="29" y="87" fill="black" font-size="11" font-family="Helvetica">
1200
</text>
<text x="29" y="51" fill="black" font-size="11" font-family="Helvetica">
1400
</text>
<rect x="351" y="21" width="205" height="105" fill="white"/>
<path d="M351,126h 205" fill="none" stroke="black"/>
<path d="M556,126v -105" fill="none" stroke="black"/>
<path d="M556,21h -205" fill="none" stroke="black"/>
<path d="M351,21v 105" fill="none" stroke="black"/>
<text x="361" y="32" fill="black" font-size="13" font-family="Helvetica">
Entries 
</text>
<text x="512" y="32" fill="black" font-size="13" font-family="Helvetica">
 4042
</text>
<text x="373" y="49" fill="black" font-size="13" font-family="Helvetica">
 / ndf 
</text>
<text x="368" y="39" fill="black" font-size="8" font-family="Helvetica">
2
</text>
<text x="361" y="49" fill="black" font-size="13" font-family="Times">
&#0967;
</text>
<text x="478" y="47" fill="black" font-size="13" font-family="Helvetica">
  1110 / 111
</text>
<text x="376" y="59" fill="black" font-size="13" font-family="Helvetica">
    
</text>
<text x="371" y="66" fill="black" font-size="8" font-family="Helvetica">
b
</text>
<text x="361" y="59" fill="black" font-size="13" font-family="Helvetica">
N
</text>
<text x="508" y="64" fill="black" font-size="13" font-family="Helvetica">
 0.190
</text>
<text x="497" y="64" fill="black" font-size="13" font-family="Times">
&#0177;
</text>
<text x="456" y="64" fill="black" font-size="13" font-family="Helvetica">
 0.348 
</text>
<text x="361" y="77" fill="black" font-size="13" font-family="Helvetica">
N_Cu     
</text>
<text x="515" y="79" fill="black" font-size="13" font-family="Helvetica">
 21.9
</text>
<text x="505" y="79" fill="black" font-size="13" font-family="Times">
&#0177;
</text>
<text x="464" y="79" fill="black" font-size="13" font-family="Helvetica">
 300.8 
</text>
<text x="366" y="94" fill="black" font-size="13" font-family="Helvetica">
_Cu  
</text>
<text x="361" y="94" fill="black" font-size="13" font-family="Times">
&#0964;
</text>
<text x="523" y="94" fill="black" font-size="13" font-family="Helvetica">
 1.1
</text>
<text x="512" y="94" fill="black" font-size="13" font-family="Times">
&#0177;
</text>
<text x="472" y="94" fill="black" font-size="13" font-family="Helvetica">
 162.5 
</text>
<text x="373" y="104" fill="black" font-size="13" font-family="Helvetica">
    
</text>
<text x="371" y="111" fill="black" font-size="8" font-family="Helvetica">
f
</text>
<text x="361" y="104" fill="black" font-size="13" font-family="Helvetica">
N
</text>
<text x="523" y="109" fill="black" font-size="13" font-family="Helvetica">
 2.8
</text>
<text x="512" y="109" fill="black" font-size="13" font-family="Times">
&#0177;
</text>
<text x="472" y="109" fill="black" font-size="13" font-family="Helvetica">
 110.6 
</text>
<text x="369" y="121" fill="black" font-size="13" font-family="Helvetica">
 
</text>
<text x="366" y="128" fill="black" font-size="8" font-family="Helvetica">
f
</text>
<text x="361" y="121" fill="black" font-size="13" font-family="Times">
&#0964;
</text>
<text x="523" y="124" fill="black" font-size="13" font-family="Helvetica">
 0.0
</text>
<text x="512" y="124" fill="black" font-size="13" font-family="Times">
&#0177;
</text>
<text x="472" y="124" fill="black" font-size="13" font-family="Helvetica">
  2197 
</text>
<text x="145" y="17" fill="black" font-size="17" font-family="Helvetica">
86710 mu+s at a 5mm_Aluminium
</text></svg>
