<?xml version="1.0" standalone="no"?>
<svg width="567" height="385" viewBox="0 0 567 385" xmlns="http://www.w3.org/2000/svg">
<title>
images/sim_mu+_1mm_Aluminium_tight_500k.svg
</title>
<desc>
Creator: ROOT Version 5.34/05
CreationDate: Sun May 26 12:30:33 2013</desc>
<defs>
</defs>
<rect x="0" y="0" width="567" height="385" fill="white"/>
<rect x="57" y="38" width="453" height="308" fill="white"/>
<rect x="57" y="38" width="453" height="308" fill="none" stroke="black"/>
<rect x="57" y="38" width="453" height="308" fill="white"/>
<rect x="57" y="38" width="453" height="308" fill="none" stroke="black"/>
<path d="M57,346h 227v -279v 60v -60h 1v 10v -24v 35v -21v 51h 1v -41v 39v -38v 22v -19v 33h 1v -44v 51v -37v 23v -21v 44v -22h 1v 36v -47v 38v -24v 11v -19v 27h 1v 7v -23v 23v -15v 22v -41v 24v -5h 1v -14v 59v -62v 22v -14v 24h 1v -10v 29v -43v 52v
 -16h 1v 8v -30v 25v -19v 35v -33h 1v 55v -38v 56v -49v 31v -41h 1v 18v -16v 30v -35v 52v -30h 1v 17v -25v 5v -16v 33v -12v 17h 1v -33v 17v -1v 23v -20v 8h 1v -37v 67v -48v 52v -47v 16h 1v 16v -27v 44v -30h 1v -3v 35v -38v 3h 1v 31v -11v 13v -11v 6v
 -22h 1v -6v 8v -7v 53v -21v 14v -14h 1v -11v 5v -3v 6v -11v 28h 1v -23v 22v -40v 43v -40v 8h 1v 41v -23v 23v -47v 35v -7v 11h 1v 8v -12v 11v -30v 36v -19v 19h 1v -9v 1v -14v 3v -8v 30v -36v 19h 1v 12v -28v 40v -18v 19v -36h 1v 27v -19v 14v -21v 54h
 1v -44v 27v -27v 36v -39v 31h 1v -16v 18v -14v 1v -12v 23v -19h 1v -15v 18v -15v 31v -16v 26v -21v 2v -16h 1v 25v -11v 30v -28h 1v 14v -24v 41v -34v 25h 1v -25v 33v -21v 10v -14v 1v -9v 25h 1v 19v -27v 17v -11v 22v -34h 1v -7v 27v -14v 17v -6v 9h 1v
 -22v 34v -35v 25v -20v 9h 1v 11v -36v 44v -30h 1v 30v -30v 16v -3v 7v -7v 4h 1v 2v -17v 30v -24v 22v -21v 18v -11h 1v 4v -6v 19v -14v 5v -5h 1v 24v -19v 1v -3v 6v -9v 9h 1v 7v -7v 13v -14v 5v -35v 41h 1v 5v -23v 12v -26v 27v -1h 1v -13v 9v -9v 17v
 -23v 26v -14h 1v 14v -23v 27v -13h 1v -13v 21v -16v 17v -15v 11h 1v 4v -14v 16v -9v 11v -8v 1v -3h 1v -16v 29v -16v 13v -15v 7v -7h 1v 13v -14v 12v -3v 10h 1v -27v 33v -30v 11v -6v 20h 1v -12v 15v -14v 14v -4v 8v -8h 1v 12v -20v 11v -16v 25v -4h 1v
 -11v 1v -3v 6v -8v 15v -13h 1v 2v -15v 22v -7v 9v -2h 1v -22v 27v -20v 19v -10v 10h 1v -24v 27v -13v 8v -13h 1v 18v -19v 22v -21v 16v -6v 3h 1v -5v 13v -25v 23v -6h 1v 2v -8v 16v -19v 19v -12h 1v 5v -17v 8v -5v 19v -14v 19h 1v -16v 13v -10v 5v -2v
 2v -3h 1v 11v -16v 14h 1v -11v 8v -5v 11v -6h 1v 2v -5v 1v -9v 6v -1v 12v -11h 1v 5v -3v 16h 1v -21v 11v -5v 4v -4v 10v -5h 1v -6v 8v -10v 5v -3v 12v -9h 1v 13v -13v 6v -11v 8v -11h 1v 11v -8v 7v -4v 16v -9h 1v -5v 8v -8v 3v -3h 1v -3v 14v -14v 8v
 -8h 1v 8v -5v 11v -16v 11v -4h 1v 11v -7v 2v -6v 6h 1v -6v 11v -19v 12v -3h 1v -1v 3v -3v 4v -4v 4v -1v 4h 1v -12v 16v -13v 11v -8v 5h 1v -10v 16v -3v 2v -15v 10v -6v 4v -4h 1v 14v -18v 10v -3v 4h 1v 8v -12v 6v -3v 3v -6h 1v -2v 2v -5v 14v -9v 8h 1v
 -8v 6v -14v 9v -1v 9v -3h 1v -3v 8v -14v 9v -2v 2h 1v 5v -11v 6v -3v 5h 1v -13v 11v -8v 10v -2h 1v 2v -2v 8v -11v 8v -7h 1v -3v 11v -8v 2v -16v 18h 1v -5v 6v -8v 11v -8h 1v 2v -2v 7v -2v 3v -11h 1v 7v -2v 3v -9v 8v -2h 1v 2v -7v 8v -1v 6v -5h 1v 3v
 -9v 11v -6v 3h 1v -5v 3v -14v 16h 1v -7v 8v -8v 5h 1v 6v -15v 14v -10h 1v 8v -4v 3v -5v 6v -8h 1v 8v -6v 5v -2v 5v -5h 1v -1v 6v -5v 3h 1v -9v 11v -14h 1v 14v -8v 5v -2v 6v -11v 7h 1v -2v 2v -2v 5v -8v 8h 1v -5v 5v -6v 3v -3v 4h 1v -3v 5v -5v 5v -6v
 6h 1v -10v 11v -9v 6v -4v 3v -5v 8h 1v 1v -4v 3v -5v 2v -3v 4h 1v 2v -10v 8v -4v 1v -3h 1v 6v -9v 11v -2h 1v 2v -2v 2v -3v 1v -3v 3h 1v -3v 3v -3v 2v -2v 5h 1v -5v 5v -3v 1v -3h 1v 5v -5v 6v -1h 1v -3v 3v -5v 5v -3v 3h 1v -6v 7v -3v 3h 1v -6v 6v -3h
 1v -1v 1v -1v 4v -7v 4v -3h 1v 6v -6v 5v -2v 3v -1h 1v -2v 2v -3v 1v -4v 6h 1v -3v 3v -3v 4v -3h 1v 3v -4v 4v -3v 2h 1v -8v 9v -3v 2v -5v 6v -1h 1v -2v 2v -6v 6v -8v 6v -1h 1v 3v -3v 3v -3h 1v 4v -1v 1v -1v 1v -3v 2v -5h 1v 6v -4v 4h 1v -3v 2v -2v
 2h 1v 1v -3v 3v -6v 6v -1h 1v -5v 6v -3v 3v -6v 6v -1h 1v 1v -9v 8v -3v 4h 1v -1v 1v -4v 4v -3h 1v 3v -4v 4v -1v 1h 1v -3v 3v -4v 4v -3h 1v 3v -1v 1v -1h 1v -3v 4h 1v -3v 2v -2v 2v -2h 1v 3v -3v 2h 1v -3v 4h 1v -4v 4v -3v 3h 1v -3v 3v -3h 1v 3v -3v
 3v -1h 1v -2v 3v -1v 1v -1v 1v -1v 1h 1v -4v 3h 1v 1v -1v 1v -1h 1v 1v -1v 1v -3v 3h 1v -3v 3h 1v -1v 1h 1v -4v 4v -1v 1v -1h 1v 1v -1v 1h 1v -1v 1v -1v 1h 1v -1v 1v -1h 1v 1v -3v 3v -3v 3v -1v 1v -1h 1v -2v 3v -1v 1v -1h 1v 1v -1v 1v -1v 1v -1h 1v
 -2v 3v -1v 1v -1h 1v 1v -1v 1h 1v -1v 1v -1v 1h 1v -1v 1v -1h 1v 1v -1v 1v -1v 1h 1v -1v 1h 1v -1v 1h 1v -1v 1v -1v 1h 1v -1v 1v -1v 1v -1v 1h 1v -4v 4h 1v -1v 1v -1v 1v -1h 1v 1h 1v -1v 1h 2v -1v 1v -3v 3h 1v -1v 1h 2v -1v 1h 1v -1v 1h 1v -1v 1v
 -1v 1h 1v -1v 1v -1v 1h 1v -1v 1h 1v -1v 1v -1h 1v 1v -1v 1v -1v 1h 1v -1v 1h 1v -1h 1v 1v -1v 1h 3v -1v 1v -1v 1h 1v -1v 1h 3v -1v 1h 1v -1v 1h 1v -1v 1v -1v 1h 2v -1v 1h 1v -1v 1v -1v 1h 1v -1v 1h 1v -1v 1h 2v -1v 1v -1v 1h 1v -3v 3h 1v -3v 3v -1v
 1v -1v 1h 1v -1v 1h 4v -1h 1v 1h 3v -1v 1h 1v -1v 1h 1v -1v 1h 5v -1v 1h 2v -1v 1h 4v -1v 1h 5v -1v 1h 3v -1v 1h 1v -1v 1h 1v -1v 1h 1" fill="none" stroke="#000099"/>
<rect x="442" y="25" width="114" height="46" fill="white"/>
<path d="M442,71h 114" fill="none" stroke="black"/>
<path d="M556,71v -46" fill="none" stroke="black"/>
<path d="M556,25h -114" fill="none" stroke="black"/>
<path d="M442,25v 46" fill="none" stroke="black"/>
<text x="447" y="52" fill="black" font-size="14" font-family="Helvetica">
Entries 
</text>
<text x="505" y="52" fill="black" font-size="14" font-family="Helvetica">
 37666
</text>
<path d="M57,346h 453" fill="none" stroke="black"/>
<text x="456" y="372" fill="black" font-size="12" font-family="Helvetica">
Time (ns)
</text>
<path d="M57,337v 9" fill="none" stroke="black"/>
<path d="M68,342v 4" fill="none" stroke="black"/>
<path d="M79,342v 4" fill="none" stroke="black"/>
<path d="M91,342v 4" fill="none" stroke="black"/>
<path d="M102,342v 4" fill="none" stroke="black"/>
<path d="M113,337v 9" fill="none" stroke="black"/>
<path d="M125,342v 4" fill="none" stroke="black"/>
<path d="M136,342v 4" fill="none" stroke="black"/>
<path d="M147,342v 4" fill="none" stroke="black"/>
<path d="M159,342v 4" fill="none" stroke="black"/>
<path d="M170,337v 9" fill="none" stroke="black"/>
<path d="M181,342v 4" fill="none" stroke="black"/>
<path d="M193,342v 4" fill="none" stroke="black"/>
<path d="M204,342v 4" fill="none" stroke="black"/>
<path d="M215,342v 4" fill="none" stroke="black"/>
<path d="M227,337v 9" fill="none" stroke="black"/>
<path d="M238,342v 4" fill="none" stroke="black"/>
<path d="M249,342v 4" fill="none" stroke="black"/>
<path d="M261,342v 4" fill="none" stroke="black"/>
<path d="M272,342v 4" fill="none" stroke="black"/>
<path d="M283,337v 9" fill="none" stroke="black"/>
<path d="M295,342v 4" fill="none" stroke="black"/>
<path d="M306,342v 4" fill="none" stroke="black"/>
<path d="M317,342v 4" fill="none" stroke="black"/>
<path d="M329,342v 4" fill="none" stroke="black"/>
<path d="M340,337v 9" fill="none" stroke="black"/>
<path d="M351,342v 4" fill="none" stroke="black"/>
<path d="M363,342v 4" fill="none" stroke="black"/>
<path d="M374,342v 4" fill="none" stroke="black"/>
<path d="M386,342v 4" fill="none" stroke="black"/>
<path d="M397,337v 9" fill="none" stroke="black"/>
<path d="M408,342v 4" fill="none" stroke="black"/>
<path d="M420,342v 4" fill="none" stroke="black"/>
<path d="M431,342v 4" fill="none" stroke="black"/>
<path d="M442,342v 4" fill="none" stroke="black"/>
<path d="M454,337v 9" fill="none" stroke="black"/>
<path d="M465,342v 4" fill="none" stroke="black"/>
<path d="M476,342v 4" fill="none" stroke="black"/>
<path d="M488,342v 4" fill="none" stroke="black"/>
<path d="M499,342v 4" fill="none" stroke="black"/>
<path d="M510,337v 9" fill="none" stroke="black"/>
<text x="36" y="359" fill="black" font-size="12" font-family="Helvetica">
-20000
</text>
<text x="93" y="359" fill="black" font-size="12" font-family="Helvetica">
-15000
</text>
<text x="149" y="359" fill="black" font-size="12" font-family="Helvetica">
-10000
</text>
<text x="210" y="359" fill="black" font-size="12" font-family="Helvetica">
-5000
</text>
<text x="280" y="359" fill="black" font-size="12" font-family="Helvetica">
0
</text>
<text x="325" y="359" fill="black" font-size="12" font-family="Helvetica">
5000
</text>
<text x="379" y="359" fill="black" font-size="12" font-family="Helvetica">
10000
</text>
<text x="435" y="359" fill="black" font-size="12" font-family="Helvetica">
15000
</text>
<text x="492" y="359" fill="black" font-size="12" font-family="Helvetica">
20000
</text>
<path d="M57,346v -308" fill="none" stroke="black"/>
<g transform="rotate(-90,29,72)">
<text x="29" y="72" fill="black" font-size="12" font-family="Helvetica">
Count
</text>
</g>
<path d="M70,346h -13" fill="none" stroke="black"/>
<path d="M63,339h -6" fill="none" stroke="black"/>
<path d="M63,331h -6" fill="none" stroke="black"/>
<path d="M63,323h -6" fill="none" stroke="black"/>
<path d="M70,315h -13" fill="none" stroke="black"/>
<path d="M63,307h -6" fill="none" stroke="black"/>
<path d="M63,299h -6" fill="none" stroke="black"/>
<path d="M63,291h -6" fill="none" stroke="black"/>
<path d="M70,283h -13" fill="none" stroke="black"/>
<path d="M63,275h -6" fill="none" stroke="black"/>
<path d="M63,268h -6" fill="none" stroke="black"/>
<path d="M63,260h -6" fill="none" stroke="black"/>
<path d="M70,252h -13" fill="none" stroke="black"/>
<path d="M63,244h -6" fill="none" stroke="black"/>
<path d="M63,236h -6" fill="none" stroke="black"/>
<path d="M63,228h -6" fill="none" stroke="black"/>
<path d="M70,220h -13" fill="none" stroke="black"/>
<path d="M63,212h -6" fill="none" stroke="black"/>
<path d="M63,204h -6" fill="none" stroke="black"/>
<path d="M63,197h -6" fill="none" stroke="black"/>
<path d="M70,189h -13" fill="none" stroke="black"/>
<path d="M63,181h -6" fill="none" stroke="black"/>
<path d="M63,173h -6" fill="none" stroke="black"/>
<path d="M63,165h -6" fill="none" stroke="black"/>
<path d="M70,157h -13" fill="none" stroke="black"/>
<path d="M63,149h -6" fill="none" stroke="black"/>
<path d="M63,141h -6" fill="none" stroke="black"/>
<path d="M63,133h -6" fill="none" stroke="black"/>
<path d="M70,126h -13" fill="none" stroke="black"/>
<path d="M63,118h -6" fill="none" stroke="black"/>
<path d="M63,110h -6" fill="none" stroke="black"/>
<path d="M63,102h -6" fill="none" stroke="black"/>
<path d="M70,94h -13" fill="none" stroke="black"/>
<path d="M63,86h -6" fill="none" stroke="black"/>
<path d="M63,78h -6" fill="none" stroke="black"/>
<path d="M63,70h -6" fill="none" stroke="black"/>
<path d="M70,62h -13" fill="none" stroke="black"/>
<path d="M70,62h -13" fill="none" stroke="black"/>
<path d="M63,55h -6" fill="none" stroke="black"/>
<path d="M63,47h -6" fill="none" stroke="black"/>
<path d="M63,39h -6" fill="none" stroke="black"/>
<text x="47" y="350" fill="black" font-size="12" font-family="Helvetica">
0
</text>
<text x="40" y="318" fill="black" font-size="12" font-family="Helvetica">
20
</text>
<text x="40" y="287" fill="black" font-size="12" font-family="Helvetica">
40
</text>
<text x="40" y="255" fill="black" font-size="12" font-family="Helvetica">
60
</text>
<text x="40" y="224" fill="black" font-size="12" font-family="Helvetica">
80
</text>
<text x="33" y="192" fill="black" font-size="12" font-family="Helvetica">
100
</text>
<text x="33" y="161" fill="black" font-size="12" font-family="Helvetica">
120
</text>
<text x="33" y="129" fill="black" font-size="12" font-family="Helvetica">
140
</text>
<text x="33" y="97" fill="black" font-size="12" font-family="Helvetica">
160
</text>
<text x="33" y="66" fill="black" font-size="12" font-family="Helvetica">
180
</text>
<rect x="442" y="25" width="114" height="46" fill="white"/>
<path d="M442,71h 114" fill="none" stroke="black"/>
<path d="M556,71v -46" fill="none" stroke="black"/>
<path d="M556,25h -114" fill="none" stroke="black"/>
<path d="M442,25v 46" fill="none" stroke="black"/>
<text x="447" y="52" fill="black" font-size="14" font-family="Helvetica">
Entries 
</text>
<text x="505" y="52" fill="black" font-size="14" font-family="Helvetica">
 37666
</text>
<path d="M285,95l 2, 22l 3, 20l 2, 18l 2, 17l 2, 15l 3, 14l 2, 13l 2, 11l 3, 11l 2, 9l 2, 9l 2, 8l 3, 7l 2, 7l 2, 6l 2, 6l 3, 5l 2, 5l 2, 4l 2, 4l 3, 3l 2, 3l 2, 3l 2, 3l 3, 3l 2, 2l 2, 2l 2, 2l 3, 1l 2, 2l 2, 1l 3, 2l 2, 1l 2, 1l 2, 1l 3, 1l 2, 1l
 2, 1h 2l 3, 1h 2l 2, 1h 2l 3, 1h 2l 2, 1h 5l 2, 1" fill="none" stroke="#ff0000" stroke-width="2"/>
<path d="M396,344h 9l 2, 1h 16l 2, 1h 82" fill="none" stroke="#ff0000" stroke-width="2"/>
<path d="M507,346h 2" fill="none" stroke="#ff0000" stroke-width="2"/>
<text x="137" y="21" fill="black" font-size="20" font-family="Helvetica">
mu+_1mm_Aluminium_500000
</text></svg>
