<?xml version="1.0" standalone="no"?>
<svg width="567" height="328" viewBox="0 0 567 328" xmlns="http://www.w3.org/2000/svg">
<title>
images/sim_data_mu-_0.5mm_Aluminium.svg
</title>
<desc>
Creator: ROOT Version 5.34/05
CreationDate: Thu Apr 25 16:21:05 2013</desc>
<defs>
</defs>
<rect x="0" y="0" width="567" height="328" fill="white"/>
<rect x="57" y="33" width="453" height="262" fill="white"/>
<rect x="57" y="33" width="453" height="262" fill="none" stroke="black"/>
<rect x="57" y="33" width="453" height="262" fill="white"/>
<rect x="57" y="33" width="453" height="262" fill="none" stroke="black"/>
<path d="M57,295h 226v -250h 2v 228h 1v 3h 1v -7h 1v 11h 1v -6h 1v 8h 1v 7h 2v -10h 1v 1h 1v -1h 1v 3h 1v 6h 2v -2h 1v 5h 2v -8h 1v 2h 1v 7h 1v -3h 2v -1h 1v -3h 2v 7h 1v 2h 1v -3h 1v 1h 1v 2h 2v -6h 1v 1h 2v 3h 1v 2h 2v 1h 1v -4h 1v 1h 1v -3h 2v 5h
 1v -2h 1v -1h 1v 3h 1v 1h 1v -3h 1v -1h 1v 3h 2v 1h 1v -1h 1v 1h 2v -1h 1v 1h 3v -1h 1v 1h 6v -1h 3v 1h 1v -3h 1v 2h 5v 1h 2v -1h 1v 1h 3v -1h 2v -2h 1v 3h 2v -1h 1v 1h 18v -1h 1v 1h 14v -1h 1v 1h 16v -3h 1v 3h 86" fill="none" stroke="#000099"/>
<path d="M285,249l 2, 25l 3, 8l 2, 3l 2, 2l 2, 1l 3, 1h 2l 2, 1h 3l 2, 1h 2l 2, 1h 7l 2, 1h 25l 2, 1h 48" fill="none" stroke="#ff0000" stroke-width="2"/>
<path d="M396,294h 111" fill="none" stroke="#ff0000" stroke-width="2"/>
<path d="M507,294h 2" fill="none" stroke="#ff0000" stroke-width="2"/>
<rect x="351" y="21" width="205" height="105" fill="white"/>
<path d="M351,126h 205" fill="none" stroke="black"/>
<path d="M556,126v -105" fill="none" stroke="black"/>
<path d="M556,21h -205" fill="none" stroke="black"/>
<path d="M351,21v 105" fill="none" stroke="black"/>
<text x="361" y="32" fill="black" font-size="13" font-family="Helvetica">
Entries 
</text>
<text x="519" y="32" fill="black" font-size="13" font-family="Helvetica">
 414
</text>
<text x="373" y="49" fill="black" font-size="13" font-family="Helvetica">
 / ndf 
</text>
<text x="368" y="39" fill="black" font-size="8" font-family="Helvetica">
2
</text>
<text x="361" y="49" fill="black" font-size="13" font-family="Times">
&#0967;
</text>
<text x="482" y="47" fill="black" font-size="13" font-family="Helvetica">
 143.8 / 56
</text>
<text x="376" y="59" fill="black" font-size="13" font-family="Helvetica">
    
</text>
<text x="371" y="66" fill="black" font-size="8" font-family="Helvetica">
b
</text>
<text x="361" y="59" fill="black" font-size="13" font-family="Helvetica">
N
</text>
<text x="500" y="64" fill="black" font-size="13" font-family="Helvetica">
 0.2759
</text>
<text x="490" y="64" fill="black" font-size="13" font-family="Times">
&#0177;
</text>
<text x="441" y="64" fill="black" font-size="13" font-family="Helvetica">
 0.9763 
</text>
<text x="361" y="77" fill="black" font-size="13" font-family="Helvetica">
N_Cu     
</text>
<text x="515" y="79" fill="black" font-size="13" font-family="Helvetica">
 9.74
</text>
<text x="505" y="79" fill="black" font-size="13" font-family="Times">
&#0177;
</text>
<text x="464" y="79" fill="black" font-size="13" font-family="Helvetica">
 54.23 
</text>
<text x="366" y="94" fill="black" font-size="13" font-family="Helvetica">
_Cu  
</text>
<text x="361" y="94" fill="black" font-size="13" font-family="Times">
&#0964;
</text>
<text x="523" y="94" fill="black" font-size="13" font-family="Helvetica">
 1.7
</text>
<text x="512" y="94" fill="black" font-size="13" font-family="Times">
&#0177;
</text>
<text x="472" y="94" fill="black" font-size="13" font-family="Helvetica">
 162.5 
</text>
<text x="373" y="104" fill="black" font-size="13" font-family="Helvetica">
    
</text>
<text x="371" y="111" fill="black" font-size="8" font-family="Helvetica">
f
</text>
<text x="361" y="104" fill="black" font-size="13" font-family="Helvetica">
N
</text>
<text x="508" y="109" fill="black" font-size="13" font-family="Helvetica">
 2.361
</text>
<text x="497" y="109" fill="black" font-size="13" font-family="Times">
&#0177;
</text>
<text x="456" y="109" fill="black" font-size="13" font-family="Helvetica">
 9.398 
</text>
<text x="369" y="121" fill="black" font-size="13" font-family="Helvetica">
 
</text>
<text x="366" y="128" fill="black" font-size="8" font-family="Helvetica">
f
</text>
<text x="361" y="121" fill="black" font-size="13" font-family="Times">
&#0964;
</text>
<text x="508" y="124" fill="black" font-size="13" font-family="Helvetica">
 320.6
</text>
<text x="497" y="124" fill="black" font-size="13" font-family="Times">
&#0177;
</text>
<text x="456" y="124" fill="black" font-size="13" font-family="Helvetica">
  1362 
</text>
<path d="M57,295h 453" fill="none" stroke="black"/>
<text x="424" y="317" fill="black" font-size="11" font-family="Helvetica">
TDC - TDC0 (ns)
</text>
<path d="M57,287v 8" fill="none" stroke="black"/>
<path d="M68,291v 4" fill="none" stroke="black"/>
<path d="M79,291v 4" fill="none" stroke="black"/>
<path d="M91,291v 4" fill="none" stroke="black"/>
<path d="M102,291v 4" fill="none" stroke="black"/>
<path d="M113,287v 8" fill="none" stroke="black"/>
<path d="M125,291v 4" fill="none" stroke="black"/>
<path d="M136,291v 4" fill="none" stroke="black"/>
<path d="M147,291v 4" fill="none" stroke="black"/>
<path d="M159,291v 4" fill="none" stroke="black"/>
<path d="M170,287v 8" fill="none" stroke="black"/>
<path d="M181,291v 4" fill="none" stroke="black"/>
<path d="M193,291v 4" fill="none" stroke="black"/>
<path d="M204,291v 4" fill="none" stroke="black"/>
<path d="M215,291v 4" fill="none" stroke="black"/>
<path d="M227,287v 8" fill="none" stroke="black"/>
<path d="M238,291v 4" fill="none" stroke="black"/>
<path d="M249,291v 4" fill="none" stroke="black"/>
<path d="M261,291v 4" fill="none" stroke="black"/>
<path d="M272,291v 4" fill="none" stroke="black"/>
<path d="M283,287v 8" fill="none" stroke="black"/>
<path d="M295,291v 4" fill="none" stroke="black"/>
<path d="M306,291v 4" fill="none" stroke="black"/>
<path d="M317,291v 4" fill="none" stroke="black"/>
<path d="M329,291v 4" fill="none" stroke="black"/>
<path d="M340,287v 8" fill="none" stroke="black"/>
<path d="M351,291v 4" fill="none" stroke="black"/>
<path d="M363,291v 4" fill="none" stroke="black"/>
<path d="M374,291v 4" fill="none" stroke="black"/>
<path d="M386,291v 4" fill="none" stroke="black"/>
<path d="M397,287v 8" fill="none" stroke="black"/>
<path d="M408,291v 4" fill="none" stroke="black"/>
<path d="M420,291v 4" fill="none" stroke="black"/>
<path d="M431,291v 4" fill="none" stroke="black"/>
<path d="M442,291v 4" fill="none" stroke="black"/>
<path d="M454,287v 8" fill="none" stroke="black"/>
<path d="M465,291v 4" fill="none" stroke="black"/>
<path d="M476,291v 4" fill="none" stroke="black"/>
<path d="M488,291v 4" fill="none" stroke="black"/>
<path d="M499,291v 4" fill="none" stroke="black"/>
<path d="M510,287v 8" fill="none" stroke="black"/>
<text x="39" y="306" fill="black" font-size="11" font-family="Helvetica">
-20000
</text>
<text x="95" y="306" fill="black" font-size="11" font-family="Helvetica">
-15000
</text>
<text x="152" y="306" fill="black" font-size="11" font-family="Helvetica">
-10000
</text>
<text x="212" y="306" fill="black" font-size="11" font-family="Helvetica">
-5000
</text>
<text x="280" y="306" fill="black" font-size="11" font-family="Helvetica">
0
</text>
<text x="327" y="306" fill="black" font-size="11" font-family="Helvetica">
5000
</text>
<text x="381" y="306" fill="black" font-size="11" font-family="Helvetica">
10000
</text>
<text x="437" y="306" fill="black" font-size="11" font-family="Helvetica">
15000
</text>
<text x="494" y="306" fill="black" font-size="11" font-family="Helvetica">
20000
</text>
<path d="M57,295v -262" fill="none" stroke="black"/>
<g transform="rotate(-90,29,63)">
<text x="29" y="63" fill="black" font-size="11" font-family="Helvetica">
Count
</text>
</g>
<path d="M70,295h -13" fill="none" stroke="black"/>
<path d="M63,288h -6" fill="none" stroke="black"/>
<path d="M63,280h -6" fill="none" stroke="black"/>
<path d="M63,273h -6" fill="none" stroke="black"/>
<path d="M70,266h -13" fill="none" stroke="black"/>
<path d="M63,258h -6" fill="none" stroke="black"/>
<path d="M63,251h -6" fill="none" stroke="black"/>
<path d="M63,243h -6" fill="none" stroke="black"/>
<path d="M70,236h -13" fill="none" stroke="black"/>
<path d="M63,229h -6" fill="none" stroke="black"/>
<path d="M63,221h -6" fill="none" stroke="black"/>
<path d="M63,214h -6" fill="none" stroke="black"/>
<path d="M70,206h -13" fill="none" stroke="black"/>
<path d="M63,199h -6" fill="none" stroke="black"/>
<path d="M63,192h -6" fill="none" stroke="black"/>
<path d="M63,184h -6" fill="none" stroke="black"/>
<path d="M70,177h -13" fill="none" stroke="black"/>
<path d="M63,169h -6" fill="none" stroke="black"/>
<path d="M63,162h -6" fill="none" stroke="black"/>
<path d="M63,155h -6" fill="none" stroke="black"/>
<path d="M70,147h -13" fill="none" stroke="black"/>
<path d="M63,140h -6" fill="none" stroke="black"/>
<path d="M63,132h -6" fill="none" stroke="black"/>
<path d="M63,125h -6" fill="none" stroke="black"/>
<path d="M70,118h -13" fill="none" stroke="black"/>
<path d="M63,110h -6" fill="none" stroke="black"/>
<path d="M63,103h -6" fill="none" stroke="black"/>
<path d="M63,95h -6" fill="none" stroke="black"/>
<path d="M70,88h -13" fill="none" stroke="black"/>
<path d="M63,81h -6" fill="none" stroke="black"/>
<path d="M63,73h -6" fill="none" stroke="black"/>
<path d="M63,66h -6" fill="none" stroke="black"/>
<path d="M70,58h -13" fill="none" stroke="black"/>
<path d="M70,58h -13" fill="none" stroke="black"/>
<path d="M63,51h -6" fill="none" stroke="black"/>
<path d="M63,44h -6" fill="none" stroke="black"/>
<path d="M63,36h -6" fill="none" stroke="black"/>
<text x="48" y="299" fill="black" font-size="11" font-family="Helvetica">
0
</text>
<text x="41" y="269" fill="black" font-size="11" font-family="Helvetica">
20
</text>
<text x="41" y="239" fill="black" font-size="11" font-family="Helvetica">
40
</text>
<text x="41" y="210" fill="black" font-size="11" font-family="Helvetica">
60
</text>
<text x="41" y="180" fill="black" font-size="11" font-family="Helvetica">
80
</text>
<text x="35" y="151" fill="black" font-size="11" font-family="Helvetica">
100
</text>
<text x="35" y="121" fill="black" font-size="11" font-family="Helvetica">
120
</text>
<text x="35" y="91" fill="black" font-size="11" font-family="Helvetica">
140
</text>
<text x="35" y="62" fill="black" font-size="11" font-family="Helvetica">
160
</text>
<rect x="351" y="21" width="205" height="105" fill="white"/>
<path d="M351,126h 205" fill="none" stroke="black"/>
<path d="M556,126v -105" fill="none" stroke="black"/>
<path d="M556,21h -205" fill="none" stroke="black"/>
<path d="M351,21v 105" fill="none" stroke="black"/>
<text x="361" y="32" fill="black" font-size="13" font-family="Helvetica">
Entries 
</text>
<text x="519" y="32" fill="black" font-size="13" font-family="Helvetica">
 414
</text>
<text x="373" y="49" fill="black" font-size="13" font-family="Helvetica">
 / ndf 
</text>
<text x="368" y="39" fill="black" font-size="8" font-family="Helvetica">
2
</text>
<text x="361" y="49" fill="black" font-size="13" font-family="Times">
&#0967;
</text>
<text x="482" y="47" fill="black" font-size="13" font-family="Helvetica">
 143.8 / 56
</text>
<text x="376" y="59" fill="black" font-size="13" font-family="Helvetica">
    
</text>
<text x="371" y="66" fill="black" font-size="8" font-family="Helvetica">
b
</text>
<text x="361" y="59" fill="black" font-size="13" font-family="Helvetica">
N
</text>
<text x="500" y="64" fill="black" font-size="13" font-family="Helvetica">
 0.2759
</text>
<text x="490" y="64" fill="black" font-size="13" font-family="Times">
&#0177;
</text>
<text x="441" y="64" fill="black" font-size="13" font-family="Helvetica">
 0.9763 
</text>
<text x="361" y="77" fill="black" font-size="13" font-family="Helvetica">
N_Cu     
</text>
<text x="515" y="79" fill="black" font-size="13" font-family="Helvetica">
 9.74
</text>
<text x="505" y="79" fill="black" font-size="13" font-family="Times">
&#0177;
</text>
<text x="464" y="79" fill="black" font-size="13" font-family="Helvetica">
 54.23 
</text>
<text x="366" y="94" fill="black" font-size="13" font-family="Helvetica">
_Cu  
</text>
<text x="361" y="94" fill="black" font-size="13" font-family="Times">
&#0964;
</text>
<text x="523" y="94" fill="black" font-size="13" font-family="Helvetica">
 1.7
</text>
<text x="512" y="94" fill="black" font-size="13" font-family="Times">
&#0177;
</text>
<text x="472" y="94" fill="black" font-size="13" font-family="Helvetica">
 162.5 
</text>
<text x="373" y="104" fill="black" font-size="13" font-family="Helvetica">
    
</text>
<text x="371" y="111" fill="black" font-size="8" font-family="Helvetica">
f
</text>
<text x="361" y="104" fill="black" font-size="13" font-family="Helvetica">
N
</text>
<text x="508" y="109" fill="black" font-size="13" font-family="Helvetica">
 2.361
</text>
<text x="497" y="109" fill="black" font-size="13" font-family="Times">
&#0177;
</text>
<text x="456" y="109" fill="black" font-size="13" font-family="Helvetica">
 9.398 
</text>
<text x="369" y="121" fill="black" font-size="13" font-family="Helvetica">
 
</text>
<text x="366" y="128" fill="black" font-size="8" font-family="Helvetica">
f
</text>
<text x="361" y="121" fill="black" font-size="13" font-family="Times">
&#0964;
</text>
<text x="508" y="124" fill="black" font-size="13" font-family="Helvetica">
 320.6
</text>
<text x="497" y="124" fill="black" font-size="13" font-family="Times">
&#0177;
</text>
<text x="456" y="124" fill="black" font-size="13" font-family="Helvetica">
  1362 
</text>
<text x="145" y="17" fill="black" font-size="17" font-family="Helvetica">
9009 mu-s at a 0.5mm_Aluminium
</text></svg>
