<?xml version="1.0" standalone="no"?>
<svg width="567" height="385" viewBox="0 0 567 385" xmlns="http://www.w3.org/2000/svg">
<title>
images/sim_mu+_5mm_Air_loose_f_500k.svg
</title>
<desc>
Creator: ROOT Version 5.34/05
CreationDate: Mon May 27 21:04:10 2013</desc>
<defs>
</defs>
<rect x="0" y="0" width="567" height="385" fill="white"/>
<rect x="57" y="38" width="453" height="308" fill="white"/>
<rect x="57" y="38" width="453" height="308" fill="none" stroke="black"/>
<rect x="57" y="38" width="453" height="308" fill="white"/>
<rect x="57" y="38" width="453" height="308" fill="none" stroke="black"/>
<path d="M57,346h 227v -252v 27v -32v 5h 1v 14v -6v 18v -67v 81v -20v 18h 1v -43v 52v -58v 29v -9v 21h 1v -32v 32v -39v 56v -33v 9h 1v 9v -29v 49v -41v 50h 1v -28v 20v -36v 47v -17h 1v -15v 35v -12v 16v -28v 41v -38v 25h 1v -35v 58v -44h 1v -6v 46v
 -25v 10v -20v 4h 1v 50v -16v 6v -24v 3v -19v 14h 1v 18v -10v 1v -4v 15v -26h 1v 38v -47v 27v -4v 28v -30h 1v -1v 35v -11v 4v -45v 44v -37h 1v 41v -18v 11v -24v 16v -18v 59v -42h 1v 3v -12v 19v -32v 51v -16v 11v -14h 1v -9v 37v -29v 17v -16v 26h 1v
 -45v 50v -41h 1v 47v -12v 12v -5v 2v -3v 3h 1v 9v -37v 43v -26v 29h 1v -42v 28v -12v 11v -6h 1v -3v 21v -21v 6v -17v 35v -14h 1v 26v -47v 17v -23v 30h 1v -15v 19v -17v 20v -5v 18v -18v 8h 1v 30v -36v 6v -13v 10h 1v -23v 39v -9v 9v -4v 21v -47v 35h
 1v -37v 31v -26v 17v -13v 28h 1v -21v 16v -6v 8h 1v -17v 23v -15v 15v -18v 9v -8h 1v -3v 12v -10v 24v -18v 6h 1v -18v 25v -16v 23v -20v 15h 1v 9v -41v 40v -16v 20v -9h 1v 21v -42v 21v -12v 26v -28v 26h 1v -14v 13v -17v 15v -14v 14v -9h 1v 11v -13v
 5v -6v 17v -25v 25h 1v 6v -17v 5v -13v 20v -12h 1v 6v -12v 23v -9v 22v -24h 1v 5v -6v 15v -29v 24v -4h 1v -20v 23v -5v 15v -7v 4v -19v 21h 1v 3v -23v 27v -28v 9h 1v 4v -6v 18v -12v 20v -18v 9h 1v -20v 9v -4v 7h 1v 11v -11v 3v -3v 11v -15v 16h 1v 2v
 -14v 20v -15v 6v -21v 24h 1v -5v 8v -21v 15v -3v 4h 1v 3v -12v 14v -11v 2h 1v 4v -13v 18v -6v 4h 1v 5v -11v 10v -23v 33h 1v -33v 24v -15v 3h 1v 12v -11v 14v -11v 14h 1v -20v 11v -17v 14v -3h 1v -6v 9v -5v 11v -8v 7h 1v 4v -1v 4v -12v 9v -12h 1v 11v
 -8v 3v -20v 25v -10v 19h 1v -17v 15v -9v 8v -8v 12h 1v -18v 18v -21v 11v -3h 1v -10v 13v -10v 19v -14h 1v 18v -12v 5v -3v 4v -3h 1v -9v 12v -6v 3v -3v 14v -12h 1v 10v -18v 15v -12v 12v -10h 1v 10v -12v 15v -15v 11h 1v -17v 11v -5v 17v -15h 1v -7v
 19v -14v 14v -9v 3h 1v -16v 22v -19v 16v -8h 1v 11v -12v 13v -9v 2h 1v -8v 14v -8v 3v -3v 8h 1v -14v 11v -5v 14v -5h 1v -7v 7v -7v 6v -3h 1v 1v -9v 12v -3v 6h 1v -9v 11v -8v 5v -5h 1v -6v 17v -15v 15v -18h 1v 16v -6v 9v -16v 13h 1v -9v 3v -7v 10v
 -12h 1v 15v -12v 8v -5v 12h 1v -15v 14v -9v 1v -6v 15h 1v -13v 3v -2v 12v -9v 12h 1v -16v 4v -1v 4v -13v 18v -5v 5h 1v -3v 3v -18v 18v -8h 1v 3v -3v 6v -6v 6h 1v -4v 7v -7v 6v -6v 6v -6h 1v 10v -6v 5v -12v 6v -5v 3h 1v -1v 3v -2v 6v -3v 3v -7v 4h 1v
 -3v 2v -5v 9v -10v 12h 1v -12v 10v -9v 8v -5h 1v 5v -6v 7v -10v 10v -7h 1v 9v -8v 5v -5h 1v 6v -7v 6v -8v 8v -8h 1v 11v -14v 12v -7v 9v -3h 1v -2v 6v -10v 6v -2v 3v -4h 1v -5v 12v -4v 3v -5v 2h 1v -5v 5v -3v 1v -7v 9v -5h 1v 11v -5v 2v -8v 9v -3h 1v
 -4v 3v -2v 8v -6v 3v -2h 1v 2v -5v 8h 1v -6v 1v -3v 6v -4v 3h 1v -5v 6v -7v 7v -1h 1v 3v -9v 7v -4h 1v 6v -5v 3v -7v 7v -10v 9v -5v 2h 1v -3v 4v -1v 6v -6v 3h 1v 4v -16h 1v 13v -1v 1v -3h 1v 5v -5v 2v -2v 3h 1v -6v 5v -6v 9v -5h 1v 2v -5v 6v -3v 5v
 -6h 1v -3v 10v -3v 2h 1v -3v 4v -9v 5v -2h 1v 5v -5v 3h 1v -3v 6v -3v 2v -3v 1v -1h 1v 1v -3v 5v -8v 6v -3v 3v -1h 1v 4v -4v 4v -4v 4h 1v -4v 1v -3v 3v -1h 1v -2v 2v -3v 7v -4v 4v -3h 1v 3v -7v 6v -3v 4h 1v -4v 4v -6v 5v -3h 1v 3v -2v 3h 1v -3v 3v
 -6v 6v -7v 7v -3h 1v 2v -2v 3v -6v 6h 1v -4v 1v -3v 6v -1h 1v 1v -4v 1v -1h 1v 3v -2v 3v -4v 4v -4v 3h 1v -2v 3v -3v 2h 1v -5v 6v -3v 3v -6v 3h 1v 3v -1v 1v -3v 2h 1v 1v -4v 4v -4h 1v 4v -3v 3h 1v -3v 3v -4h 1v 4v -3v 3h 1v -1v 1v -3v 3v -3h 1v 2v
 -2v 2v -2v 3v -1h 1v 1v -3v 2v -2v 3h 1v -3v 3v -4v 4v -1h 1v 1v -1v 1v -1v 1v -3v 3h 1v -3v 3v -6v 6h 1v -3v 2v -2v 3v -1v 1v -1h 1v 1v -1v 1v -1v 1v -1h 1v 1v -3v 3h 1v -3v 3v -1v 1h 1v -6v 6v -1v 1v -1v 1v -1v 1h 1v -3v 3v -4v 4v -1h 1v 1v -4v 4v
 -1h 1v 1v -3v 3v -1v 1v -1h 1v 1v -3v 3v -1v 1h 1v -3v 3v -4v 3h 1v 1v -1v 1v -1h 1v 1v -1h 1v 1v -4v 4v -1v 1v -1h 1v 1v -1v 1h 1v -4v 4v -1v 1h 1v -3v 3v -1v 1h 1v -1v 1v -1v 1v -1v 1v -3h 1v 3v -1v 1v -1v 1h 1v -1v 1v -3v 3v -1v 1h 1v -1v 1v -3v
 3h 1v -1v 1v -1v 1h 1v -3v 3v -3h 1v 3v -1v 1v -1v 1h 1v -1v 1v -1v 1v -1h 1v 1v -1v 1h 1v -1v 1h 1v -4v 4v -1v 1h 1v -1v 1v -3v 3h 2v -3v 3h 1v -1v 1v -3v 3v -1h 1v 1v -1v 1h 2v -1v 1v -1v 1v -3v 3h 1v -1v 1h 1v -1v 1h 1v -1v 1v -1v 1v -1v 1h 2v
 -1v 1v -1v 1h 1v -1v 1h 1v -1v 1v -1h 1v 1v -1v 1h 1v -1h 1v 1v -1v 1v -1v 1h 2v -1v 1h 1v -1v 1h 4v -1v 1h 1v -1v 1h 1v -1v 1v -1v 1h 1v -3v 3v -1v 1h 2v -1v 1h 1v -1v 1h 1v -1v 1v -1v 1h 1v -1v 1h 1v -1v 1h 1v -1v 1h 2v -3v 3h 2v -1v 1h 3v -1v 1v
 -1h 1v 1h 2v -1v 1h 2v -1v 1h 7v -1h 1v 1h 6v -1v 1h 4v -1v 1h 4" fill="none" stroke="#000099"/>
<rect x="442" y="25" width="114" height="46" fill="white"/>
<path d="M442,71h 114" fill="none" stroke="black"/>
<path d="M556,71v -46" fill="none" stroke="black"/>
<path d="M556,25h -114" fill="none" stroke="black"/>
<path d="M442,25v 46" fill="none" stroke="black"/>
<text x="447" y="34" fill="black" font-size="10" font-family="Helvetica">
Entries 
</text>
<text x="518" y="34" fill="black" font-size="10" font-family="Helvetica">
 36964
</text>
<text x="455" y="47" fill="black" font-size="10" font-family="Helvetica">
 / ndf 
</text>
<text x="452" y="39" fill="black" font-size="7" font-family="Helvetica">
2
</text>
<text x="447" y="47" fill="black" font-size="10" font-family="Times">
&#0967;
</text>
<text x="490" y="46" fill="black" font-size="10" font-family="Helvetica">
  1138 / 1252
</text>
<text x="456" y="54" fill="black" font-size="10" font-family="Helvetica">
    
</text>
<text x="455" y="61" fill="black" font-size="7" font-family="Helvetica">
f
</text>
<text x="447" y="54" fill="black" font-size="10" font-family="Helvetica">
N
</text>
<text x="533" y="58" fill="black" font-size="10" font-family="Helvetica">
 0.9
</text>
<text x="525" y="58" fill="black" font-size="10" font-family="Times">
&#0177;
</text>
<text x="493" y="58" fill="black" font-size="10" font-family="Helvetica">
 167.8 
</text>
<text x="452" y="67" fill="black" font-size="10" font-family="Helvetica">
 
</text>
<text x="450" y="74" fill="black" font-size="7" font-family="Helvetica">
f
</text>
<text x="447" y="67" fill="black" font-size="10" font-family="Times">
&#0964;
</text>
<text x="533" y="70" fill="black" font-size="10" font-family="Helvetica">
 0.0
</text>
<text x="525" y="70" fill="black" font-size="10" font-family="Times">
&#0177;
</text>
<text x="493" y="70" fill="black" font-size="10" font-family="Helvetica">
  2197 
</text>
<path d="M57,346h 453" fill="none" stroke="black"/>
<text x="456" y="372" fill="black" font-size="12" font-family="Helvetica">
Time (ns)
</text>
<path d="M57,337v 9" fill="none" stroke="black"/>
<path d="M68,342v 4" fill="none" stroke="black"/>
<path d="M79,342v 4" fill="none" stroke="black"/>
<path d="M91,342v 4" fill="none" stroke="black"/>
<path d="M102,342v 4" fill="none" stroke="black"/>
<path d="M113,337v 9" fill="none" stroke="black"/>
<path d="M125,342v 4" fill="none" stroke="black"/>
<path d="M136,342v 4" fill="none" stroke="black"/>
<path d="M147,342v 4" fill="none" stroke="black"/>
<path d="M159,342v 4" fill="none" stroke="black"/>
<path d="M170,337v 9" fill="none" stroke="black"/>
<path d="M181,342v 4" fill="none" stroke="black"/>
<path d="M193,342v 4" fill="none" stroke="black"/>
<path d="M204,342v 4" fill="none" stroke="black"/>
<path d="M215,342v 4" fill="none" stroke="black"/>
<path d="M227,337v 9" fill="none" stroke="black"/>
<path d="M238,342v 4" fill="none" stroke="black"/>
<path d="M249,342v 4" fill="none" stroke="black"/>
<path d="M261,342v 4" fill="none" stroke="black"/>
<path d="M272,342v 4" fill="none" stroke="black"/>
<path d="M283,337v 9" fill="none" stroke="black"/>
<path d="M295,342v 4" fill="none" stroke="black"/>
<path d="M306,342v 4" fill="none" stroke="black"/>
<path d="M317,342v 4" fill="none" stroke="black"/>
<path d="M329,342v 4" fill="none" stroke="black"/>
<path d="M340,337v 9" fill="none" stroke="black"/>
<path d="M351,342v 4" fill="none" stroke="black"/>
<path d="M363,342v 4" fill="none" stroke="black"/>
<path d="M374,342v 4" fill="none" stroke="black"/>
<path d="M386,342v 4" fill="none" stroke="black"/>
<path d="M397,337v 9" fill="none" stroke="black"/>
<path d="M408,342v 4" fill="none" stroke="black"/>
<path d="M420,342v 4" fill="none" stroke="black"/>
<path d="M431,342v 4" fill="none" stroke="black"/>
<path d="M442,342v 4" fill="none" stroke="black"/>
<path d="M454,337v 9" fill="none" stroke="black"/>
<path d="M465,342v 4" fill="none" stroke="black"/>
<path d="M476,342v 4" fill="none" stroke="black"/>
<path d="M488,342v 4" fill="none" stroke="black"/>
<path d="M499,342v 4" fill="none" stroke="black"/>
<path d="M510,337v 9" fill="none" stroke="black"/>
<text x="36" y="359" fill="black" font-size="12" font-family="Helvetica">
-20000
</text>
<text x="93" y="359" fill="black" font-size="12" font-family="Helvetica">
-15000
</text>
<text x="149" y="359" fill="black" font-size="12" font-family="Helvetica">
-10000
</text>
<text x="210" y="359" fill="black" font-size="12" font-family="Helvetica">
-5000
</text>
<text x="280" y="359" fill="black" font-size="12" font-family="Helvetica">
0
</text>
<text x="325" y="359" fill="black" font-size="12" font-family="Helvetica">
5000
</text>
<text x="379" y="359" fill="black" font-size="12" font-family="Helvetica">
10000
</text>
<text x="435" y="359" fill="black" font-size="12" font-family="Helvetica">
15000
</text>
<text x="492" y="359" fill="black" font-size="12" font-family="Helvetica">
20000
</text>
<path d="M57,346v -308" fill="none" stroke="black"/>
<g transform="rotate(-90,29,72)">
<text x="29" y="72" fill="black" font-size="12" font-family="Helvetica">
Count
</text>
</g>
<path d="M70,346h -13" fill="none" stroke="black"/>
<path d="M63,339h -6" fill="none" stroke="black"/>
<path d="M63,331h -6" fill="none" stroke="black"/>
<path d="M63,324h -6" fill="none" stroke="black"/>
<path d="M70,316h -13" fill="none" stroke="black"/>
<path d="M63,308h -6" fill="none" stroke="black"/>
<path d="M63,301h -6" fill="none" stroke="black"/>
<path d="M63,293h -6" fill="none" stroke="black"/>
<path d="M70,286h -13" fill="none" stroke="black"/>
<path d="M63,278h -6" fill="none" stroke="black"/>
<path d="M63,270h -6" fill="none" stroke="black"/>
<path d="M63,263h -6" fill="none" stroke="black"/>
<path d="M70,255h -13" fill="none" stroke="black"/>
<path d="M63,248h -6" fill="none" stroke="black"/>
<path d="M63,240h -6" fill="none" stroke="black"/>
<path d="M63,232h -6" fill="none" stroke="black"/>
<path d="M70,225h -13" fill="none" stroke="black"/>
<path d="M63,217h -6" fill="none" stroke="black"/>
<path d="M63,210h -6" fill="none" stroke="black"/>
<path d="M63,202h -6" fill="none" stroke="black"/>
<path d="M70,194h -13" fill="none" stroke="black"/>
<path d="M63,187h -6" fill="none" stroke="black"/>
<path d="M63,179h -6" fill="none" stroke="black"/>
<path d="M63,172h -6" fill="none" stroke="black"/>
<path d="M70,164h -13" fill="none" stroke="black"/>
<path d="M63,156h -6" fill="none" stroke="black"/>
<path d="M63,149h -6" fill="none" stroke="black"/>
<path d="M63,141h -6" fill="none" stroke="black"/>
<path d="M70,134h -13" fill="none" stroke="black"/>
<path d="M63,126h -6" fill="none" stroke="black"/>
<path d="M63,118h -6" fill="none" stroke="black"/>
<path d="M63,111h -6" fill="none" stroke="black"/>
<path d="M70,103h -13" fill="none" stroke="black"/>
<path d="M63,96h -6" fill="none" stroke="black"/>
<path d="M63,88h -6" fill="none" stroke="black"/>
<path d="M63,80h -6" fill="none" stroke="black"/>
<path d="M70,73h -13" fill="none" stroke="black"/>
<path d="M63,65h -6" fill="none" stroke="black"/>
<path d="M63,57h -6" fill="none" stroke="black"/>
<path d="M63,50h -6" fill="none" stroke="black"/>
<path d="M70,42h -13" fill="none" stroke="black"/>
<path d="M70,42h -13" fill="none" stroke="black"/>
<text x="47" y="350" fill="black" font-size="12" font-family="Helvetica">
0
</text>
<text x="40" y="320" fill="black" font-size="12" font-family="Helvetica">
20
</text>
<text x="40" y="290" fill="black" font-size="12" font-family="Helvetica">
40
</text>
<text x="40" y="259" fill="black" font-size="12" font-family="Helvetica">
60
</text>
<text x="40" y="229" fill="black" font-size="12" font-family="Helvetica">
80
</text>
<text x="33" y="198" fill="black" font-size="12" font-family="Helvetica">
100
</text>
<text x="33" y="168" fill="black" font-size="12" font-family="Helvetica">
120
</text>
<text x="33" y="137" fill="black" font-size="12" font-family="Helvetica">
140
</text>
<text x="33" y="106" fill="black" font-size="12" font-family="Helvetica">
160
</text>
<text x="33" y="76" fill="black" font-size="12" font-family="Helvetica">
180
</text>
<text x="33" y="46" fill="black" font-size="12" font-family="Helvetica">
200
</text>
<rect x="442" y="25" width="114" height="46" fill="white"/>
<path d="M442,71h 114" fill="none" stroke="black"/>
<path d="M556,71v -46" fill="none" stroke="black"/>
<path d="M556,25h -114" fill="none" stroke="black"/>
<path d="M442,25v 46" fill="none" stroke="black"/>
<text x="447" y="34" fill="black" font-size="10" font-family="Helvetica">
Entries 
</text>
<text x="518" y="34" fill="black" font-size="10" font-family="Helvetica">
 36964
</text>
<text x="455" y="47" fill="black" font-size="10" font-family="Helvetica">
 / ndf 
</text>
<text x="452" y="39" fill="black" font-size="7" font-family="Helvetica">
2
</text>
<text x="447" y="47" fill="black" font-size="10" font-family="Times">
&#0967;
</text>
<text x="490" y="46" fill="black" font-size="10" font-family="Helvetica">
  1138 / 1252
</text>
<text x="456" y="54" fill="black" font-size="10" font-family="Helvetica">
    
</text>
<text x="455" y="61" fill="black" font-size="7" font-family="Helvetica">
f
</text>
<text x="447" y="54" fill="black" font-size="10" font-family="Helvetica">
N
</text>
<text x="533" y="58" fill="black" font-size="10" font-family="Helvetica">
 0.9
</text>
<text x="525" y="58" fill="black" font-size="10" font-family="Times">
&#0177;
</text>
<text x="493" y="58" fill="black" font-size="10" font-family="Helvetica">
 167.8 
</text>
<text x="452" y="67" fill="black" font-size="10" font-family="Helvetica">
 
</text>
<text x="450" y="74" fill="black" font-size="7" font-family="Helvetica">
f
</text>
<text x="447" y="67" fill="black" font-size="10" font-family="Times">
&#0964;
</text>
<text x="533" y="70" fill="black" font-size="10" font-family="Helvetica">
 0.0
</text>
<text x="525" y="70" fill="black" font-size="10" font-family="Times">
&#0177;
</text>
<text x="493" y="70" fill="black" font-size="10" font-family="Helvetica">
  2197 
</text>
<text x="173" y="21" fill="black" font-size="20" font-family="Helvetica">
mu+_5mm_Air_500000
</text>
<path d="M285,108l 2, 21l 3, 19l 2, 17l 2, 16l 2, 14l 3, 13l 2, 12l 2, 11l 3, 10l 2, 9l 2, 9l 2, 7l 3, 7l 2, 7l 2, 5l 2, 6l 3, 5l 2, 4l 2, 4l 2, 4l 3, 3l 2, 3l 2, 3l 2, 3l 3, 2l 2, 2l 2, 2l 2, 2l 3, 1l 2, 2l 2, 1l 3, 1l 2, 2l 2, 1l 2, 1h 3l 2, 1l 2,
 1l 2, 1h 3l 2, 1h 2l 2, 1h 5l 2, 1h 5l 2, 1" fill="none" stroke="#ff0000" stroke-width="2"/>
<path d="M396,344h 7l 2, 1h 16l 2, 1h 84" fill="none" stroke="#ff0000" stroke-width="2"/>
<path d="M507,346h 2" fill="none" stroke="#ff0000" stroke-width="2"/></svg>
