<?xml version="1.0" standalone="no"?>
<svg width="567" height="328" viewBox="0 0 567 328" xmlns="http://www.w3.org/2000/svg">
<title>
images/sim_mu-_5mm_Aluminium_loose_f_16ns_bins_500k.svg
</title>
<desc>
Creator: ROOT Version 5.34/05
CreationDate: Mon Jun 17 13:16:25 2013</desc>
<defs>
</defs>
<rect x="0" y="0" width="567" height="328" fill="white"/>
<rect x="57" y="33" width="453" height="262" fill="white"/>
<rect x="57" y="33" width="453" height="262" fill="none" stroke="black"/>
<rect x="57" y="33" width="453" height="262" fill="white"/>
<rect x="57" y="33" width="453" height="262" fill="none" stroke="black"/>
<path d="M57,295h 227v -250v 51h 1v -39v 61v -7v 24v -2h 1v -32v 56v -20v 25h 1v 22v -5v 2v -19v 9h 1v -14v 46v -24h 1v 14v -36v 68v -58v 36h 1v -41v 41v -5h 1v 15v -22v 24v -7h 1v -8v 10v -22v 39h 1v -19v 12v -29v 5h 1v -22v 41h 1v -36v 58v -46v 24h
 1v -10v 8h 1v -17v 26v -26v 43h 1v -34v 42v -34v 19h 1v -2v 9v -17v 29v -21v 14h 1v 10v -32v 12v -12h 1v 20v -12v 21v -21h 1v 14v -31v 38h 1v -21v 17v -10v 12v -12h 1v 24v -39v 5h 1v 39v -44v 29h 1v -17v 22h 1v -22v 30v -5h 1v -10v 7v -34v 27h 1v
 -10v 20v -22v 14v -12v 3h 1v -12v 14v -14v 34h 1v -17v 17v -17h 1v -5v 14v -19v 34h 1v -15v 3v -25v 17h 1v 8v -5v 17h 1v -5v 10v -17h 1v 5v -8v 12v -4h 1v 2v -5v 7h 1v -14v 19v -12h 1v -10v 27v -27v 25v -22h 1v 10v -10v 10v -15v 12h 1v 20v -15v 2h
 1v -14v 22v -8h 1v 20v -37v 30v -5h 1v -17v 19v -10v 3v -7h 1v 14v -17h 1v 20v -5v 9v -14h 1v 12v -27v 15h 1v -5v 15v -15v 12h 1v -2v 7v -15v 5v -7h 1v 19v -14h 1v 10v -13v 15v -19h 1v 17v -5v 9v -9v 7h 1v -17v 15h 1v -15v 15v -3h 1v 7v -14v 14h 1v
 -7v 3v -15v 15h 1v -3v 10v -5h 1v -2v 2v -7v 17h 1v -15v 7v -12h 1v 8v -10v 19v -14h 1v 12v -17v 10v -8h 1v 15v -3v 3v -12v 7h 1v -10v 10h 1v 5v -12v 14v -12h 1v 7v -4v 4h 1v 5v -7v 5v -5h 1v 2v -4h 1v 12v -10v 7v -5v 5h 1v -9v 7v -10h 1v 10v -3v 5v
 -7v 7v -2h 1v -3v 8v -8v 8h 1v -8v 5h 1v -5v 5h 1v -5v 5v -5v 3h 1v 7v -10v 5v -2v 5v -3h 1v 5v -2v 2v -5h 1v -2v 5v -3v 3v -5h 1v -5v 10h 1v -3v 3v -5v 5v -8h 1v 5v -7v 10v -5v 5h 1v -8v 8h 1v -12v 14v -12h 1v 7v -5v 8v -5v 5h 1v -3v 5v -5h 1v 5v
 -7v 7v -5v 3h 1v -8v 10v -12h 1v 10v -3h 1v -5v 8h 1v -3v 5v -12v 7h 1v 3h 1v 2v -10v 10v -5h 1v 5v -5h 1v 5v -5v 3v -3v 5h 1v -7v 7h 1v -5v 5v -5h 1v 5v -5v 5h 1v -5v 3v -3v 5h 1v -5v 3v -5h 1v 7v -2v 2v -2h 1v 2v -7v 7v -5v 3h 1v -3v 5h 1v -7v 5h
 1v 2h 1v -7v 2h 1v 5v -2v 2v -2v 2h 1v -5v 3h 1v 2v -5v 3h 1v -3v 5v -2h 1v 2v -5v 5v -2h 1v 2v -2v 2v -2h 1v -3v 5v -2h 1v -3v 5h 1v -5v 5v -2v 2h 1v -2v 2v -2h 1v 2v -2v 2v -5h 1v 5v -5v 5h 1v -5v 5v -5h 1v 3v -3v 5h 2v -2v 2v -2h 1v 2v -2v 2v -2v
 2h 1v -2v 2h 1v -2v 2v -2v 2h 1v -2v 2v -2h 1v 2v -2v 2h 1v -7v 7h 1v -5v 5v -2h 1v -3v 5v -2v 2v -5h 1v 5v -2h 1v 2v -2v 2v -2h 1v 2v -2v 2v -2h 1v 2v -2v 2v -2h 1v 2h 1v -2v 2h 1v -2v 2v -5h 1v 5v -2v 2h 2v -2v 2v -7v 7h 1v -2h 1v 2h 1v -2v 2h 2v
 -2v 2h 2v -2h 1v 2v -2v 2h 2v -2v 2h 1v -2v 2v -2v 2h 1v -2v 2h 1v -2v 2h 2v -2h 1v 2h 1v -2v 2h 1v -2h 1v 2h 1v -2v 2h 1v -2h 1v 2h 3v -2v 2h 4v -2h 1v 2h 6v -2v 2h 4v -2v 2h 4v -2v 2h 8v -2v 2h 5v -2v 2h 30v -2v 2h 5" fill="none"
 stroke="#000099"/>
<path d="M285,119l 2, 49l 3, 21l 2, 12l 2, 10l 2, 7l 3, 7l 2, 6l 2, 6l 3, 5l 2, 5l 2, 4l 2, 4l 3, 3l 2, 4l 2, 3l 2, 2l 3, 3l 2, 2l 2, 2l 2, 2l 3, 2l 2, 1l 2, 2l 2, 1l 3, 1l 2, 1l 2, 1l 2, 1l 3, 1l 2, 1h 2l 3, 1h 2l 2, 1h 2l 3, 1h 2l 2, 1h 7l 2, 1h 9l
 2, 1h 5" fill="none" stroke="#ff0000" stroke-width="2"/>
<path d="M396,294h 16l 2, 1h 93" fill="none" stroke="#ff0000" stroke-width="2"/>
<path d="M507,295h 2" fill="none" stroke="#ff0000" stroke-width="2"/>
<rect x="351" y="21" width="205" height="92" fill="white"/>
<path d="M351,113h 205" fill="none" stroke="black"/>
<path d="M556,113v -92" fill="none" stroke="black"/>
<path d="M556,21h -205" fill="none" stroke="black"/>
<path d="M351,21v 92" fill="none" stroke="black"/>
<text x="361" y="33" fill="black" font-size="13" font-family="Helvetica">
Entries 
</text>
<text x="511" y="33" fill="black" font-size="13" font-family="Helvetica">
 7531
</text>
<text x="373" y="50" fill="black" font-size="13" font-family="Helvetica">
 / ndf 
</text>
<text x="368" y="39" fill="black" font-size="9" font-family="Helvetica">
2
</text>
<text x="361" y="50" fill="black" font-size="13" font-family="Times">
&#0967;
</text>
<text x="464" y="48" fill="black" font-size="13" font-family="Helvetica">
 714.7 / 1243
</text>
<text x="381" y="60" fill="black" font-size="13" font-family="Helvetica">
   
</text>
<text x="371" y="67" fill="black" font-size="9" font-family="Helvetica">
cu
</text>
<text x="361" y="60" fill="black" font-size="13" font-family="Helvetica">
N
</text>
<text x="515" y="64" fill="black" font-size="13" font-family="Helvetica">
 5.93
</text>
<text x="504" y="64" fill="black" font-size="13" font-family="Times">
&#0177;
</text>
<text x="462" y="64" fill="black" font-size="13" font-family="Helvetica">
 56.33 
</text>
<text x="376" y="77" fill="black" font-size="13" font-family="Helvetica">
 
</text>
<text x="367" y="85" fill="black" font-size="9" font-family="Helvetica">
cu
</text>
<text x="361" y="77" fill="black" font-size="13" font-family="Times">
&#0964;
</text>
<text x="522" y="80" fill="black" font-size="13" font-family="Helvetica">
 1.1
</text>
<text x="512" y="80" fill="black" font-size="13" font-family="Times">
&#0177;
</text>
<text x="469" y="80" fill="black" font-size="13" font-family="Helvetica">
 162.5 
</text>
<text x="374" y="90" fill="black" font-size="13" font-family="Helvetica">
    
</text>
<text x="371" y="98" fill="black" font-size="9" font-family="Helvetica">
f
</text>
<text x="361" y="90" fill="black" font-size="13" font-family="Helvetica">
N
</text>
<text x="522" y="95" fill="black" font-size="13" font-family="Helvetica">
 1.1
</text>
<text x="512" y="95" fill="black" font-size="13" font-family="Times">
&#0177;
</text>
<text x="473" y="95" fill="black" font-size="13" font-family="Helvetica">
  53.8 
</text>
<text x="369" y="107" fill="black" font-size="13" font-family="Helvetica">
 
</text>
<text x="367" y="115" fill="black" font-size="9" font-family="Helvetica">
f
</text>
<text x="361" y="107" fill="black" font-size="13" font-family="Times">
&#0964;
</text>
<text x="515" y="110" fill="black" font-size="13" font-family="Helvetica">
 28.1
</text>
<text x="504" y="110" fill="black" font-size="13" font-family="Times">
&#0177;
</text>
<text x="462" y="110" fill="black" font-size="13" font-family="Helvetica">
  2161 
</text>
<path d="M57,295h 453" fill="none" stroke="black"/>
<text x="462" y="317" fill="black" font-size="11" font-family="Helvetica">
Time (ns)
</text>
<path d="M57,287v 8" fill="none" stroke="black"/>
<path d="M68,291v 4" fill="none" stroke="black"/>
<path d="M79,291v 4" fill="none" stroke="black"/>
<path d="M91,291v 4" fill="none" stroke="black"/>
<path d="M102,291v 4" fill="none" stroke="black"/>
<path d="M113,287v 8" fill="none" stroke="black"/>
<path d="M125,291v 4" fill="none" stroke="black"/>
<path d="M136,291v 4" fill="none" stroke="black"/>
<path d="M147,291v 4" fill="none" stroke="black"/>
<path d="M159,291v 4" fill="none" stroke="black"/>
<path d="M170,287v 8" fill="none" stroke="black"/>
<path d="M181,291v 4" fill="none" stroke="black"/>
<path d="M193,291v 4" fill="none" stroke="black"/>
<path d="M204,291v 4" fill="none" stroke="black"/>
<path d="M215,291v 4" fill="none" stroke="black"/>
<path d="M227,287v 8" fill="none" stroke="black"/>
<path d="M238,291v 4" fill="none" stroke="black"/>
<path d="M249,291v 4" fill="none" stroke="black"/>
<path d="M261,291v 4" fill="none" stroke="black"/>
<path d="M272,291v 4" fill="none" stroke="black"/>
<path d="M283,287v 8" fill="none" stroke="black"/>
<path d="M295,291v 4" fill="none" stroke="black"/>
<path d="M306,291v 4" fill="none" stroke="black"/>
<path d="M317,291v 4" fill="none" stroke="black"/>
<path d="M329,291v 4" fill="none" stroke="black"/>
<path d="M340,287v 8" fill="none" stroke="black"/>
<path d="M351,291v 4" fill="none" stroke="black"/>
<path d="M363,291v 4" fill="none" stroke="black"/>
<path d="M374,291v 4" fill="none" stroke="black"/>
<path d="M386,291v 4" fill="none" stroke="black"/>
<path d="M397,287v 8" fill="none" stroke="black"/>
<path d="M408,291v 4" fill="none" stroke="black"/>
<path d="M420,291v 4" fill="none" stroke="black"/>
<path d="M431,291v 4" fill="none" stroke="black"/>
<path d="M442,291v 4" fill="none" stroke="black"/>
<path d="M454,287v 8" fill="none" stroke="black"/>
<path d="M465,291v 4" fill="none" stroke="black"/>
<path d="M476,291v 4" fill="none" stroke="black"/>
<path d="M488,291v 4" fill="none" stroke="black"/>
<path d="M499,291v 4" fill="none" stroke="black"/>
<path d="M510,287v 8" fill="none" stroke="black"/>
<text x="39" y="306" fill="black" font-size="11" font-family="Helvetica">
-20000
</text>
<text x="95" y="306" fill="black" font-size="11" font-family="Helvetica">
-15000
</text>
<text x="152" y="306" fill="black" font-size="11" font-family="Helvetica">
-10000
</text>
<text x="212" y="306" fill="black" font-size="11" font-family="Helvetica">
-5000
</text>
<text x="280" y="306" fill="black" font-size="11" font-family="Helvetica">
0
</text>
<text x="327" y="306" fill="black" font-size="11" font-family="Helvetica">
5000
</text>
<text x="381" y="306" fill="black" font-size="11" font-family="Helvetica">
10000
</text>
<text x="437" y="306" fill="black" font-size="11" font-family="Helvetica">
15000
</text>
<text x="494" y="306" fill="black" font-size="11" font-family="Helvetica">
20000
</text>
<path d="M57,295v -262" fill="none" stroke="black"/>
<g transform="rotate(-90,29,63)">
<text x="29" y="63" fill="black" font-size="11" font-family="Helvetica">
Count
</text>
</g>
<path d="M70,295h -13" fill="none" stroke="black"/>
<path d="M63,283h -6" fill="none" stroke="black"/>
<path d="M63,271h -6" fill="none" stroke="black"/>
<path d="M63,259h -6" fill="none" stroke="black"/>
<path d="M70,247h -13" fill="none" stroke="black"/>
<path d="M63,234h -6" fill="none" stroke="black"/>
<path d="M63,222h -6" fill="none" stroke="black"/>
<path d="M63,210h -6" fill="none" stroke="black"/>
<path d="M70,198h -13" fill="none" stroke="black"/>
<path d="M63,186h -6" fill="none" stroke="black"/>
<path d="M63,174h -6" fill="none" stroke="black"/>
<path d="M63,162h -6" fill="none" stroke="black"/>
<path d="M70,150h -13" fill="none" stroke="black"/>
<path d="M63,137h -6" fill="none" stroke="black"/>
<path d="M63,125h -6" fill="none" stroke="black"/>
<path d="M63,113h -6" fill="none" stroke="black"/>
<path d="M70,101h -13" fill="none" stroke="black"/>
<path d="M63,89h -6" fill="none" stroke="black"/>
<path d="M63,77h -6" fill="none" stroke="black"/>
<path d="M63,65h -6" fill="none" stroke="black"/>
<path d="M70,52h -13" fill="none" stroke="black"/>
<path d="M70,52h -13" fill="none" stroke="black"/>
<path d="M63,40h -6" fill="none" stroke="black"/>
<text x="48" y="299" fill="black" font-size="11" font-family="Helvetica">
0
</text>
<text x="41" y="250" fill="black" font-size="11" font-family="Helvetica">
20
</text>
<text x="41" y="201" fill="black" font-size="11" font-family="Helvetica">
40
</text>
<text x="41" y="153" fill="black" font-size="11" font-family="Helvetica">
60
</text>
<text x="41" y="104" fill="black" font-size="11" font-family="Helvetica">
80
</text>
<text x="35" y="56" fill="black" font-size="11" font-family="Helvetica">
100
</text>
<rect x="351" y="21" width="205" height="92" fill="white"/>
<path d="M351,113h 205" fill="none" stroke="black"/>
<path d="M556,113v -92" fill="none" stroke="black"/>
<path d="M556,21h -205" fill="none" stroke="black"/>
<path d="M351,21v 92" fill="none" stroke="black"/>
<text x="361" y="33" fill="black" font-size="13" font-family="Helvetica">
Entries 
</text>
<text x="511" y="33" fill="black" font-size="13" font-family="Helvetica">
 7531
</text>
<text x="373" y="50" fill="black" font-size="13" font-family="Helvetica">
 / ndf 
</text>
<text x="368" y="39" fill="black" font-size="9" font-family="Helvetica">
2
</text>
<text x="361" y="50" fill="black" font-size="13" font-family="Times">
&#0967;
</text>
<text x="464" y="48" fill="black" font-size="13" font-family="Helvetica">
 714.7 / 1243
</text>
<text x="381" y="60" fill="black" font-size="13" font-family="Helvetica">
   
</text>
<text x="371" y="67" fill="black" font-size="9" font-family="Helvetica">
cu
</text>
<text x="361" y="60" fill="black" font-size="13" font-family="Helvetica">
N
</text>
<text x="515" y="64" fill="black" font-size="13" font-family="Helvetica">
 5.93
</text>
<text x="504" y="64" fill="black" font-size="13" font-family="Times">
&#0177;
</text>
<text x="462" y="64" fill="black" font-size="13" font-family="Helvetica">
 56.33 
</text>
<text x="376" y="77" fill="black" font-size="13" font-family="Helvetica">
 
</text>
<text x="367" y="85" fill="black" font-size="9" font-family="Helvetica">
cu
</text>
<text x="361" y="77" fill="black" font-size="13" font-family="Times">
&#0964;
</text>
<text x="522" y="80" fill="black" font-size="13" font-family="Helvetica">
 1.1
</text>
<text x="512" y="80" fill="black" font-size="13" font-family="Times">
&#0177;
</text>
<text x="469" y="80" fill="black" font-size="13" font-family="Helvetica">
 162.5 
</text>
<text x="374" y="90" fill="black" font-size="13" font-family="Helvetica">
    
</text>
<text x="371" y="98" fill="black" font-size="9" font-family="Helvetica">
f
</text>
<text x="361" y="90" fill="black" font-size="13" font-family="Helvetica">
N
</text>
<text x="522" y="95" fill="black" font-size="13" font-family="Helvetica">
 1.1
</text>
<text x="512" y="95" fill="black" font-size="13" font-family="Times">
&#0177;
</text>
<text x="473" y="95" fill="black" font-size="13" font-family="Helvetica">
  53.8 
</text>
<text x="369" y="107" fill="black" font-size="13" font-family="Helvetica">
 
</text>
<text x="367" y="115" fill="black" font-size="9" font-family="Helvetica">
f
</text>
<text x="361" y="107" fill="black" font-size="13" font-family="Times">
&#0964;
</text>
<text x="515" y="110" fill="black" font-size="13" font-family="Helvetica">
 28.1
</text>
<text x="504" y="110" fill="black" font-size="13" font-family="Times">
&#0177;
</text>
<text x="462" y="110" fill="black" font-size="13" font-family="Helvetica">
  2161 
</text>
<text x="160" y="17" fill="black" font-size="17" font-family="Helvetica">
mu-_5mm_Aluminium_500000
</text></svg>
