<?xml version="1.0" standalone="no"?>
<svg width="567" height="328" viewBox="0 0 567 328" xmlns="http://www.w3.org/2000/svg">
<title>
images/g4bl_sim_mu+_1mm_Aluminium_loose_f_16ns_bins.svg
</title>
<desc>
Creator: ROOT Version 5.34/05
CreationDate: Mon Jun 17 18:34:19 2013</desc>
<defs>
</defs>
<rect x="0" y="0" width="567" height="328" fill="white"/>
<rect x="57" y="33" width="453" height="262" fill="white"/>
<rect x="57" y="33" width="453" height="262" fill="none" stroke="black"/>
<rect x="57" y="33" width="453" height="262" fill="white"/>
<rect x="57" y="33" width="453" height="262" fill="none" stroke="black"/>
<path d="M57,295h 227v -217v 32h 1v 60v -54v 92h 1v -163v 169v -82h 1v 49v -27v 5v -38v 27h 1v 28v -71v 60v -33h 1v 22v -11v 38h 1v -54v 59v -5h 1v -38v 60v -38v 5h 1v -54v 70v -16h 1v 11v -5v 38v -71h 1v 49v -38v 38v -33h 1v 60v -33v 22v -43h 1v 11v
 -11v 32v -11h 1v 33v -60v 55h 1v -33v 38v -60h 1v 27v -21v 76v -98h 1v 120v -71v 38v -33h 1v 33v -22h 1v 17v -6v 16v -27h 1v 38v -5v 11v -44v 44v -60h 1v 16v -5v 32v -27h 1v 27v -43v 54h 1v -21v 21v -49h 1v 49v -60v 39v -22v 16h 1v 27v -27h 1v -11v
 44v -27v 16v -33h 1v 27v -10v 27v -44v 6h 1v 38v -44v 27h 1v 6v -16v 16v -27v 11h 1v 32v -27v 27h 1v -27v 16v -27h 1v 44v -44h 1v 65v -49v 11v -16v 27h 1v -5v 11v -38v 27h 1v 11v -11v 21h 1v -32v 22h 1v 5v -16v 21v -16v 6h 1v 10v -21h 1v 11v -6v 11v
 -11v 22v -27h 1v 5v -5v 21h 1v -32v 32v -5v 5v -16h 1v 22v -33h 1v 33v -16v 16v -33h 1v 27v -21v 16h 1v -5v 16v -22v 11h 1v -5v 16v -22h 1v 11v -27v 38v -6h 1v -21h 1v 27v -16v 16v -11h 1v 5v -10v 16v -22h 1v 16v -5v 16h 1v -21v 16h 1v -11v 22v -11h
 1v -16v 27v -17h 1v -21v 43v -5h 1v -27v 10h 1v 6v -27v 38h 1v -38v 32v -11h 1v 11v -16v 22v -11h 1v -6v 11v -27v 22h 1v -11v 27v -16v 5h 1v -11v 22v -16h 1v 5v -16v 16v -5v 5h 1v -11v 11h 1v 6v -17v 6h 1v -16v 21v -5h 1v 16v -16v 16v -5h 1v -6v 6v
 -11v 11h 1v -17v 22v -16h 1v -6v 17v -17v 22h 1v -16v 5v -11v 22h 1v -22v 11h 1v 11v -16h 1v 5v -5v 16v -22v 6h 1v -6v 22h 1v -11v 11v -11v 11h 1v -16v 16v -11h 1v 11v -5v 5v -11h 1v 11h 1v -5v 5v -5v 5h 1v -16v 11v -11h 1v 11v -11v 16h 1v -5v 5v
 -11v 11h 1v -5v 5v -11v 11v -5h 1v -11v 11h 1v 5v -5v 5v -5v 5v -5h 1v 5v -5v 5v -16h 1v 16v -5v 5v -5v 5v -5h 1v 5v -16v 16h 1v -11v 11v -5h 1v -6v 11v -22h 1v 22v -11v 11v -11h 1v 11v -5v 5v -11v 6h 1v 5v -5v 5h 1v -5v 5v -5h 1v 5v -5v 5h 1v -5v
 5v -5h 1v 5v -11v 11v -16v 11h 1v 5v -11v 11v -5h 1v 5v -11v 11h 1v -5v 5h 1v -5v 5v -5v 5h 1v -5v 5v -5v 5h 3v -5v 5v -11v 11h 1v -5v 5v -5h 1v 5h 1v -5v 5v -5v 5h 1v -5v 5v -11v 11h 1v -5v 5h 1v -5v 5h 1v -5v 5h 2v -5v 5v -5v 5h 2v -5h 1v 5h 1v
 -5v 5h 4v -5v 5h 1v -5v 5v -5v 5h 1v -11v 11h 1v -5v 5h 2v -5v 5h 1v -5v 5h 1v -5v 5h 2v -11v 11h 1v -5v 5h 1v -5v 5h 1v -11h 1v 11h 1v -5v 5h 1v -5v 5h 1v -5v 5h 3v -5v 5h 4v -5v 5v -5v 5h 1v -5v 5v -5h 1v 5h 1v -5v 5h 7v -5v 5h 3v -5v 5h 1v -5h 1v
 5v -5v 5v -5h 1v 5v -5v 5h 1v -5v 5h 3v -5h 1v 5v -5v 5h 4v -5v 5h 56" fill="none" stroke="#000099"/>
<path d="M285,131l 2, 14l 3, 13l 2, 12l 2, 11l 2, 10l 3, 10l 2, 8l 2, 8l 3, 7l 2, 6l 2, 6l 2, 5l 3, 5l 2, 4l 2, 4l 2, 4l 3, 3l 2, 3l 2, 3l 2, 2l 3, 3l 2, 2l 2, 2l 2, 1l 3, 2l 2, 1l 2, 2l 2, 1l 3, 1l 2, 1l 2, 1l 3, 1h 2l 2, 1l 2, 1h 3l 2, 1h 2l 2, 1h
 5l 2, 1h 5l 2, 1h 9" fill="none" stroke="#ff0000" stroke-width="2"/>
<path d="M396,293l 2, 1h 21l 2, 1h 86" fill="none" stroke="#ff0000" stroke-width="2"/>
<path d="M507,295h 2" fill="none" stroke="#ff0000" stroke-width="2"/>
<rect x="351" y="21" width="205" height="66" fill="white"/>
<path d="M351,87h 205" fill="none" stroke="black"/>
<path d="M556,87v -66" fill="none" stroke="black"/>
<path d="M556,21h -205" fill="none" stroke="black"/>
<path d="M351,21v 66" fill="none" stroke="black"/>
<text x="361" y="33" fill="black" font-size="14" font-family="Helvetica">
Entries 
</text>
<text x="508" y="33" fill="black" font-size="14" font-family="Helvetica">
 4283
</text>
<text x="374" y="52" fill="black" font-size="14" font-family="Helvetica">
 / ndf 
</text>
<text x="369" y="41" fill="black" font-size="9" font-family="Helvetica">
2
</text>
<text x="361" y="52" fill="black" font-size="14" font-family="Times">
&#0967;
</text>
<text x="458" y="50" fill="black" font-size="14" font-family="Helvetica">
 578.5 / 1245
</text>
<text x="375" y="63" fill="black" font-size="14" font-family="Helvetica">
    
</text>
<text x="372" y="71" fill="black" font-size="9" font-family="Helvetica">
f
</text>
<text x="361" y="63" fill="black" font-size="14" font-family="Helvetica">
N
</text>
<text x="512" y="67" fill="black" font-size="14" font-family="Helvetica">
 0.71
</text>
<text x="500" y="67" fill="black" font-size="14" font-family="Times">
&#0177;
</text>
<text x="454" y="67" fill="black" font-size="14" font-family="Helvetica">
 32.47 
</text>
<text x="369" y="80" fill="black" font-size="14" font-family="Helvetica">
 
</text>
<text x="367" y="90" fill="black" font-size="9" font-family="Helvetica">
f
</text>
<text x="361" y="80" fill="black" font-size="14" font-family="Times">
&#0964;
</text>
<text x="512" y="84" fill="black" font-size="14" font-family="Helvetica">
 33.1
</text>
<text x="500" y="84" fill="black" font-size="14" font-family="Times">
&#0177;
</text>
<text x="454" y="84" fill="black" font-size="14" font-family="Helvetica">
  2158 
</text>
<path d="M57,295h 453" fill="none" stroke="black"/>
<text x="462" y="317" fill="black" font-size="11" font-family="Helvetica">
Time (ns)
</text>
<path d="M57,287v 8" fill="none" stroke="black"/>
<path d="M68,291v 4" fill="none" stroke="black"/>
<path d="M79,291v 4" fill="none" stroke="black"/>
<path d="M91,291v 4" fill="none" stroke="black"/>
<path d="M102,291v 4" fill="none" stroke="black"/>
<path d="M113,287v 8" fill="none" stroke="black"/>
<path d="M125,291v 4" fill="none" stroke="black"/>
<path d="M136,291v 4" fill="none" stroke="black"/>
<path d="M147,291v 4" fill="none" stroke="black"/>
<path d="M159,291v 4" fill="none" stroke="black"/>
<path d="M170,287v 8" fill="none" stroke="black"/>
<path d="M181,291v 4" fill="none" stroke="black"/>
<path d="M193,291v 4" fill="none" stroke="black"/>
<path d="M204,291v 4" fill="none" stroke="black"/>
<path d="M215,291v 4" fill="none" stroke="black"/>
<path d="M227,287v 8" fill="none" stroke="black"/>
<path d="M238,291v 4" fill="none" stroke="black"/>
<path d="M249,291v 4" fill="none" stroke="black"/>
<path d="M261,291v 4" fill="none" stroke="black"/>
<path d="M272,291v 4" fill="none" stroke="black"/>
<path d="M283,287v 8" fill="none" stroke="black"/>
<path d="M295,291v 4" fill="none" stroke="black"/>
<path d="M306,291v 4" fill="none" stroke="black"/>
<path d="M317,291v 4" fill="none" stroke="black"/>
<path d="M329,291v 4" fill="none" stroke="black"/>
<path d="M340,287v 8" fill="none" stroke="black"/>
<path d="M351,291v 4" fill="none" stroke="black"/>
<path d="M363,291v 4" fill="none" stroke="black"/>
<path d="M374,291v 4" fill="none" stroke="black"/>
<path d="M386,291v 4" fill="none" stroke="black"/>
<path d="M397,287v 8" fill="none" stroke="black"/>
<path d="M408,291v 4" fill="none" stroke="black"/>
<path d="M420,291v 4" fill="none" stroke="black"/>
<path d="M431,291v 4" fill="none" stroke="black"/>
<path d="M442,291v 4" fill="none" stroke="black"/>
<path d="M454,287v 8" fill="none" stroke="black"/>
<path d="M465,291v 4" fill="none" stroke="black"/>
<path d="M476,291v 4" fill="none" stroke="black"/>
<path d="M488,291v 4" fill="none" stroke="black"/>
<path d="M499,291v 4" fill="none" stroke="black"/>
<path d="M510,287v 8" fill="none" stroke="black"/>
<text x="39" y="306" fill="black" font-size="11" font-family="Helvetica">
-20000
</text>
<text x="95" y="306" fill="black" font-size="11" font-family="Helvetica">
-15000
</text>
<text x="152" y="306" fill="black" font-size="11" font-family="Helvetica">
-10000
</text>
<text x="212" y="306" fill="black" font-size="11" font-family="Helvetica">
-5000
</text>
<text x="280" y="306" fill="black" font-size="11" font-family="Helvetica">
0
</text>
<text x="327" y="306" fill="black" font-size="11" font-family="Helvetica">
5000
</text>
<text x="381" y="306" fill="black" font-size="11" font-family="Helvetica">
10000
</text>
<text x="437" y="306" fill="black" font-size="11" font-family="Helvetica">
15000
</text>
<text x="494" y="306" fill="black" font-size="11" font-family="Helvetica">
20000
</text>
<path d="M57,295v -262" fill="none" stroke="black"/>
<g transform="rotate(-90,29,63)">
<text x="29" y="63" fill="black" font-size="11" font-family="Helvetica">
Count
</text>
</g>
<path d="M70,295h -13" fill="none" stroke="black"/>
<path d="M63,290h -6" fill="none" stroke="black"/>
<path d="M63,284h -6" fill="none" stroke="black"/>
<path d="M63,279h -6" fill="none" stroke="black"/>
<path d="M63,273h -6" fill="none" stroke="black"/>
<path d="M70,268h -13" fill="none" stroke="black"/>
<path d="M63,263h -6" fill="none" stroke="black"/>
<path d="M63,257h -6" fill="none" stroke="black"/>
<path d="M63,252h -6" fill="none" stroke="black"/>
<path d="M63,246h -6" fill="none" stroke="black"/>
<path d="M70,241h -13" fill="none" stroke="black"/>
<path d="M63,235h -6" fill="none" stroke="black"/>
<path d="M63,230h -6" fill="none" stroke="black"/>
<path d="M63,225h -6" fill="none" stroke="black"/>
<path d="M63,219h -6" fill="none" stroke="black"/>
<path d="M70,214h -13" fill="none" stroke="black"/>
<path d="M63,208h -6" fill="none" stroke="black"/>
<path d="M63,203h -6" fill="none" stroke="black"/>
<path d="M63,197h -6" fill="none" stroke="black"/>
<path d="M63,192h -6" fill="none" stroke="black"/>
<path d="M70,186h -13" fill="none" stroke="black"/>
<path d="M63,181h -6" fill="none" stroke="black"/>
<path d="M63,176h -6" fill="none" stroke="black"/>
<path d="M63,170h -6" fill="none" stroke="black"/>
<path d="M63,165h -6" fill="none" stroke="black"/>
<path d="M70,159h -13" fill="none" stroke="black"/>
<path d="M63,154h -6" fill="none" stroke="black"/>
<path d="M63,148h -6" fill="none" stroke="black"/>
<path d="M63,143h -6" fill="none" stroke="black"/>
<path d="M63,138h -6" fill="none" stroke="black"/>
<path d="M70,132h -13" fill="none" stroke="black"/>
<path d="M63,127h -6" fill="none" stroke="black"/>
<path d="M63,121h -6" fill="none" stroke="black"/>
<path d="M63,116h -6" fill="none" stroke="black"/>
<path d="M63,110h -6" fill="none" stroke="black"/>
<path d="M70,105h -13" fill="none" stroke="black"/>
<path d="M63,99h -6" fill="none" stroke="black"/>
<path d="M63,94h -6" fill="none" stroke="black"/>
<path d="M63,89h -6" fill="none" stroke="black"/>
<path d="M63,83h -6" fill="none" stroke="black"/>
<path d="M70,78h -13" fill="none" stroke="black"/>
<path d="M63,72h -6" fill="none" stroke="black"/>
<path d="M63,67h -6" fill="none" stroke="black"/>
<path d="M63,61h -6" fill="none" stroke="black"/>
<path d="M63,56h -6" fill="none" stroke="black"/>
<path d="M70,51h -13" fill="none" stroke="black"/>
<path d="M70,51h -13" fill="none" stroke="black"/>
<path d="M63,45h -6" fill="none" stroke="black"/>
<path d="M63,40h -6" fill="none" stroke="black"/>
<path d="M63,34h -6" fill="none" stroke="black"/>
<text x="48" y="299" fill="black" font-size="11" font-family="Helvetica">
0
</text>
<text x="48" y="271" fill="black" font-size="11" font-family="Helvetica">
5
</text>
<text x="41" y="244" fill="black" font-size="11" font-family="Helvetica">
10
</text>
<text x="41" y="217" fill="black" font-size="11" font-family="Helvetica">
15
</text>
<text x="41" y="190" fill="black" font-size="11" font-family="Helvetica">
20
</text>
<text x="41" y="163" fill="black" font-size="11" font-family="Helvetica">
25
</text>
<text x="41" y="136" fill="black" font-size="11" font-family="Helvetica">
30
</text>
<text x="41" y="108" fill="black" font-size="11" font-family="Helvetica">
35
</text>
<text x="41" y="81" fill="black" font-size="11" font-family="Helvetica">
40
</text>
<text x="41" y="54" fill="black" font-size="11" font-family="Helvetica">
45
</text>
<rect x="351" y="21" width="205" height="66" fill="white"/>
<path d="M351,87h 205" fill="none" stroke="black"/>
<path d="M556,87v -66" fill="none" stroke="black"/>
<path d="M556,21h -205" fill="none" stroke="black"/>
<path d="M351,21v 66" fill="none" stroke="black"/>
<text x="361" y="33" fill="black" font-size="14" font-family="Helvetica">
Entries 
</text>
<text x="508" y="33" fill="black" font-size="14" font-family="Helvetica">
 4283
</text>
<text x="374" y="52" fill="black" font-size="14" font-family="Helvetica">
 / ndf 
</text>
<text x="369" y="41" fill="black" font-size="9" font-family="Helvetica">
2
</text>
<text x="361" y="52" fill="black" font-size="14" font-family="Times">
&#0967;
</text>
<text x="458" y="50" fill="black" font-size="14" font-family="Helvetica">
 578.5 / 1245
</text>
<text x="375" y="63" fill="black" font-size="14" font-family="Helvetica">
    
</text>
<text x="372" y="71" fill="black" font-size="9" font-family="Helvetica">
f
</text>
<text x="361" y="63" fill="black" font-size="14" font-family="Helvetica">
N
</text>
<text x="512" y="67" fill="black" font-size="14" font-family="Helvetica">
 0.71
</text>
<text x="500" y="67" fill="black" font-size="14" font-family="Times">
&#0177;
</text>
<text x="454" y="67" fill="black" font-size="14" font-family="Helvetica">
 32.47 
</text>
<text x="369" y="80" fill="black" font-size="14" font-family="Helvetica">
 
</text>
<text x="367" y="90" fill="black" font-size="9" font-family="Helvetica">
f
</text>
<text x="361" y="80" fill="black" font-size="14" font-family="Times">
&#0964;
</text>
<text x="512" y="84" fill="black" font-size="14" font-family="Helvetica">
 33.1
</text>
<text x="500" y="84" fill="black" font-size="14" font-family="Times">
&#0177;
</text>
<text x="454" y="84" fill="black" font-size="14" font-family="Helvetica">
  2158 
</text>
<text x="98" y="17" fill="black" font-size="16" font-family="Helvetica">
final_st_Copper_0.5mm_deg_1mm_Aluminium
</text></svg>
