<?xml version="1.0" standalone="no"?>
<svg width="567" height="328" viewBox="0 0 567 328" xmlns="http://www.w3.org/2000/svg">
<title>
images/sim_mu+_5mm_Air_loose_f_100ns_bins_500k.svg
</title>
<desc>
Creator: ROOT Version 5.34/05
CreationDate: Mon Jun 17 11:14:56 2013</desc>
<defs>
</defs>
<rect x="0" y="0" width="567" height="328" fill="white"/>
<rect x="57" y="33" width="453" height="262" fill="white"/>
<rect x="57" y="33" width="453" height="262" fill="none" stroke="black"/>
<rect x="57" y="33" width="453" height="262" fill="white"/>
<rect x="57" y="33" width="453" height="262" fill="none" stroke="black"/>
<path d="M57,295h 226v -127h 2v -121h 1v 7h 1v 6h 1v 13h 1v 14h 1v 9h 1v 6h 2v 19h 1v -1h 1v 7h 1v 2h 1v 7h 1v 10h 1v 10h 1v 11h 2v 8h 1v -2h 1v 9h 1v -7h 1v 20h 2v 1h 2v 5h 1v 2h 1v 3h 1v 8h 1v 5h 1v 2h 1v 3h 1v 5h 2v 5h 1v -2h 1v 8h 1v 3h 1v 1h 1v
 1h 1v 4h 2v 3h 1v 1h 1v 1h 1v 1h 1v 2h 1v 1h 1v -2h 1v 8h 2v -4h 1v 6h 1v -3h 1v 5h 1v 2h 1v 1h 3v -6h 1v 6h 3v 1h 1v 5h 1v -2h 1v 4h 2v 1h 2v -1h 1v 1h 1v -1h 1v 3h 1v 1h 2v -1h 1v 3h 1v -2h 1v 2h 1v -1h 2v 1h 2v -1h 1v 2h 2v 1h 1v -1h 1v 3h 6v -2h
 1v 4h 1v -2h 1v 1h 1v -1h 2v 1h 1v 1h 1v -1h 1v 1h 1v -1h 1v 2h 6v 1h 2v -1h 1v 1h 3v 1h 1v -2h 1v 2h 1v -1h 1v 1h 1v -1h 1v 1h 1v -1h 2v 1h 2v -1h 1v 1h 3v 1h 2v -1h 6v 1h 1v -1h 3v 1h 1v -1h 4v 1h 2v -1h 2v 1h 2v -1h 1v 1h 7v -1h 1v 1h 18v -1h 1v
 1h 41" fill="none" stroke="#000099"/>
<path d="M285,56l 2, 20l 3, 18l 2, 17l 2, 16l 2, 14l 3, 13l 2, 12l 2, 11l 3, 10l 2, 9l 2, 8l 2, 8l 3, 7l 2, 6l 2, 6l 2, 5l 3, 5l 2, 5l 2, 4l 2, 4l 3, 3l 2, 3l 2, 3l 2, 3l 3, 2l 2, 3l 2, 2l 2, 2l 3, 1l 2, 2l 2, 1l 3, 2l 2, 1l 2, 1l 2, 1l 3, 1l 2, 1l
 2, 1h 2l 3, 1l 2, 1h 2l 2, 1h 3l 2, 1h 4l 3, 1h 2" fill="none" stroke="#ff0000" stroke-width="2"/>
<path d="M396,292h 5l 2, 1h 9l 2, 1h 20l 3, 1h 70" fill="none" stroke="#ff0000" stroke-width="2"/>
<path d="M507,295h 2" fill="none" stroke="#ff0000" stroke-width="2"/>
<rect x="351" y="21" width="205" height="66" fill="white"/>
<path d="M351,87h 205" fill="none" stroke="black"/>
<path d="M556,87v -66" fill="none" stroke="black"/>
<path d="M556,21h -205" fill="none" stroke="black"/>
<path d="M351,21v 66" fill="none" stroke="black"/>
<text x="361" y="33" fill="black" font-size="14" font-family="Helvetica">
Entries 
</text>
<text x="499" y="33" fill="black" font-size="14" font-family="Helvetica">
 36964
</text>
<text x="374" y="52" fill="black" font-size="14" font-family="Helvetica">
 / ndf 
</text>
<text x="369" y="41" fill="black" font-size="9" font-family="Helvetica">
2
</text>
<text x="361" y="52" fill="black" font-size="14" font-family="Times">
&#0967;
</text>
<text x="466" y="50" fill="black" font-size="14" font-family="Helvetica">
  1012 / 198
</text>
<text x="375" y="63" fill="black" font-size="14" font-family="Helvetica">
    
</text>
<text x="372" y="71" fill="black" font-size="9" font-family="Helvetica">
f
</text>
<text x="361" y="63" fill="black" font-size="14" font-family="Helvetica">
N
</text>
<text x="512" y="67" fill="black" font-size="14" font-family="Helvetica">
 12.0
</text>
<text x="500" y="67" fill="black" font-size="14" font-family="Times">
&#0177;
</text>
<text x="454" y="67" fill="black" font-size="14" font-family="Helvetica">
  1626 
</text>
<text x="369" y="80" fill="black" font-size="14" font-family="Helvetica">
 
</text>
<text x="367" y="90" fill="black" font-size="9" font-family="Helvetica">
f
</text>
<text x="361" y="80" fill="black" font-size="14" font-family="Times">
&#0964;
</text>
<text x="513" y="84" fill="black" font-size="14" font-family="Helvetica">
 11.9
</text>
<text x="501" y="84" fill="black" font-size="14" font-family="Times">
&#0177;
</text>
<text x="455" y="84" fill="black" font-size="14" font-family="Helvetica">
  2274 
</text>
<path d="M57,295h 453" fill="none" stroke="black"/>
<text x="462" y="317" fill="black" font-size="11" font-family="Helvetica">
Time (ns)
</text>
<path d="M57,287v 8" fill="none" stroke="black"/>
<path d="M68,291v 4" fill="none" stroke="black"/>
<path d="M79,291v 4" fill="none" stroke="black"/>
<path d="M91,291v 4" fill="none" stroke="black"/>
<path d="M102,291v 4" fill="none" stroke="black"/>
<path d="M113,287v 8" fill="none" stroke="black"/>
<path d="M125,291v 4" fill="none" stroke="black"/>
<path d="M136,291v 4" fill="none" stroke="black"/>
<path d="M147,291v 4" fill="none" stroke="black"/>
<path d="M159,291v 4" fill="none" stroke="black"/>
<path d="M170,287v 8" fill="none" stroke="black"/>
<path d="M181,291v 4" fill="none" stroke="black"/>
<path d="M193,291v 4" fill="none" stroke="black"/>
<path d="M204,291v 4" fill="none" stroke="black"/>
<path d="M215,291v 4" fill="none" stroke="black"/>
<path d="M227,287v 8" fill="none" stroke="black"/>
<path d="M238,291v 4" fill="none" stroke="black"/>
<path d="M249,291v 4" fill="none" stroke="black"/>
<path d="M261,291v 4" fill="none" stroke="black"/>
<path d="M272,291v 4" fill="none" stroke="black"/>
<path d="M283,287v 8" fill="none" stroke="black"/>
<path d="M295,291v 4" fill="none" stroke="black"/>
<path d="M306,291v 4" fill="none" stroke="black"/>
<path d="M317,291v 4" fill="none" stroke="black"/>
<path d="M329,291v 4" fill="none" stroke="black"/>
<path d="M340,287v 8" fill="none" stroke="black"/>
<path d="M351,291v 4" fill="none" stroke="black"/>
<path d="M363,291v 4" fill="none" stroke="black"/>
<path d="M374,291v 4" fill="none" stroke="black"/>
<path d="M386,291v 4" fill="none" stroke="black"/>
<path d="M397,287v 8" fill="none" stroke="black"/>
<path d="M408,291v 4" fill="none" stroke="black"/>
<path d="M420,291v 4" fill="none" stroke="black"/>
<path d="M431,291v 4" fill="none" stroke="black"/>
<path d="M442,291v 4" fill="none" stroke="black"/>
<path d="M454,287v 8" fill="none" stroke="black"/>
<path d="M465,291v 4" fill="none" stroke="black"/>
<path d="M476,291v 4" fill="none" stroke="black"/>
<path d="M488,291v 4" fill="none" stroke="black"/>
<path d="M499,291v 4" fill="none" stroke="black"/>
<path d="M510,287v 8" fill="none" stroke="black"/>
<text x="39" y="306" fill="black" font-size="11" font-family="Helvetica">
-20000
</text>
<text x="95" y="306" fill="black" font-size="11" font-family="Helvetica">
-15000
</text>
<text x="152" y="306" fill="black" font-size="11" font-family="Helvetica">
-10000
</text>
<text x="212" y="306" fill="black" font-size="11" font-family="Helvetica">
-5000
</text>
<text x="280" y="306" fill="black" font-size="11" font-family="Helvetica">
0
</text>
<text x="327" y="306" fill="black" font-size="11" font-family="Helvetica">
5000
</text>
<text x="381" y="306" fill="black" font-size="11" font-family="Helvetica">
10000
</text>
<text x="437" y="306" fill="black" font-size="11" font-family="Helvetica">
15000
</text>
<text x="494" y="306" fill="black" font-size="11" font-family="Helvetica">
20000
</text>
<path d="M57,295v -262" fill="none" stroke="black"/>
<g transform="rotate(-90,29,63)">
<text x="29" y="63" fill="black" font-size="11" font-family="Helvetica">
Count
</text>
</g>
<path d="M70,295h -13" fill="none" stroke="black"/>
<path d="M63,287h -6" fill="none" stroke="black"/>
<path d="M63,279h -6" fill="none" stroke="black"/>
<path d="M63,272h -6" fill="none" stroke="black"/>
<path d="M70,264h -13" fill="none" stroke="black"/>
<path d="M63,256h -6" fill="none" stroke="black"/>
<path d="M63,248h -6" fill="none" stroke="black"/>
<path d="M63,240h -6" fill="none" stroke="black"/>
<path d="M70,232h -13" fill="none" stroke="black"/>
<path d="M63,224h -6" fill="none" stroke="black"/>
<path d="M63,217h -6" fill="none" stroke="black"/>
<path d="M63,209h -6" fill="none" stroke="black"/>
<path d="M70,201h -13" fill="none" stroke="black"/>
<path d="M63,193h -6" fill="none" stroke="black"/>
<path d="M63,185h -6" fill="none" stroke="black"/>
<path d="M63,177h -6" fill="none" stroke="black"/>
<path d="M70,169h -13" fill="none" stroke="black"/>
<path d="M63,162h -6" fill="none" stroke="black"/>
<path d="M63,154h -6" fill="none" stroke="black"/>
<path d="M63,146h -6" fill="none" stroke="black"/>
<path d="M70,138h -13" fill="none" stroke="black"/>
<path d="M63,130h -6" fill="none" stroke="black"/>
<path d="M63,122h -6" fill="none" stroke="black"/>
<path d="M63,114h -6" fill="none" stroke="black"/>
<path d="M70,107h -13" fill="none" stroke="black"/>
<path d="M63,99h -6" fill="none" stroke="black"/>
<path d="M63,91h -6" fill="none" stroke="black"/>
<path d="M63,83h -6" fill="none" stroke="black"/>
<path d="M70,75h -13" fill="none" stroke="black"/>
<path d="M63,67h -6" fill="none" stroke="black"/>
<path d="M63,59h -6" fill="none" stroke="black"/>
<path d="M63,51h -6" fill="none" stroke="black"/>
<path d="M70,44h -13" fill="none" stroke="black"/>
<path d="M70,44h -13" fill="none" stroke="black"/>
<path d="M63,36h -6" fill="none" stroke="black"/>
<text x="48" y="299" fill="black" font-size="11" font-family="Helvetica">
0
</text>
<text x="35" y="267" fill="black" font-size="11" font-family="Helvetica">
200
</text>
<text x="35" y="236" fill="black" font-size="11" font-family="Helvetica">
400
</text>
<text x="35" y="204" fill="black" font-size="11" font-family="Helvetica">
600
</text>
<text x="35" y="173" fill="black" font-size="11" font-family="Helvetica">
800
</text>
<text x="29" y="141" fill="black" font-size="11" font-family="Helvetica">
1000
</text>
<text x="29" y="110" fill="black" font-size="11" font-family="Helvetica">
1200
</text>
<text x="29" y="79" fill="black" font-size="11" font-family="Helvetica">
1400
</text>
<text x="29" y="47" fill="black" font-size="11" font-family="Helvetica">
1600
</text>
<rect x="351" y="21" width="205" height="66" fill="white"/>
<path d="M351,87h 205" fill="none" stroke="black"/>
<path d="M556,87v -66" fill="none" stroke="black"/>
<path d="M556,21h -205" fill="none" stroke="black"/>
<path d="M351,21v 66" fill="none" stroke="black"/>
<text x="361" y="33" fill="black" font-size="14" font-family="Helvetica">
Entries 
</text>
<text x="499" y="33" fill="black" font-size="14" font-family="Helvetica">
 36964
</text>
<text x="374" y="52" fill="black" font-size="14" font-family="Helvetica">
 / ndf 
</text>
<text x="369" y="41" fill="black" font-size="9" font-family="Helvetica">
2
</text>
<text x="361" y="52" fill="black" font-size="14" font-family="Times">
&#0967;
</text>
<text x="466" y="50" fill="black" font-size="14" font-family="Helvetica">
  1012 / 198
</text>
<text x="375" y="63" fill="black" font-size="14" font-family="Helvetica">
    
</text>
<text x="372" y="71" fill="black" font-size="9" font-family="Helvetica">
f
</text>
<text x="361" y="63" fill="black" font-size="14" font-family="Helvetica">
N
</text>
<text x="512" y="67" fill="black" font-size="14" font-family="Helvetica">
 12.0
</text>
<text x="500" y="67" fill="black" font-size="14" font-family="Times">
&#0177;
</text>
<text x="454" y="67" fill="black" font-size="14" font-family="Helvetica">
  1626 
</text>
<text x="369" y="80" fill="black" font-size="14" font-family="Helvetica">
 
</text>
<text x="367" y="90" fill="black" font-size="9" font-family="Helvetica">
f
</text>
<text x="361" y="80" fill="black" font-size="14" font-family="Times">
&#0964;
</text>
<text x="513" y="84" fill="black" font-size="14" font-family="Helvetica">
 11.9
</text>
<text x="501" y="84" fill="black" font-size="14" font-family="Times">
&#0177;
</text>
<text x="455" y="84" fill="black" font-size="14" font-family="Helvetica">
  2274 
</text>
<text x="188" y="17" fill="black" font-size="17" font-family="Helvetica">
mu+_5mm_Air_500000
</text></svg>
