<?xml version="1.0" standalone="no"?>
<svg width="567" height="328" viewBox="0 0 567 328" xmlns="http://www.w3.org/2000/svg">
<title>
images/analysis_g4bl_sin_phase_loose_cu/fits/0.5mm_Aluminium_0.5mm_Aluminium_combined_0.5mm_Aluminium.svg
</title>
<desc>
Creator: ROOT Version 5.34/09
CreationDate: Mon Sep  9 14:52:26 2013</desc>
<defs>
</defs>
<rect x="0" y="0" width="567" height="328" fill="white"/>
<rect x="57" y="33" width="453" height="262" fill="white"/>
<rect x="57" y="33" width="453" height="262" fill="none" stroke="black"/>
<rect x="57" y="33" width="453" height="262" fill="white"/>
<rect x="57" y="33" width="453" height="262" fill="none" stroke="black"/>
<path d="M57,295h 227v -186v 24v -12h 1v 58v -58v 6v -52v 11h 1v 35v -41v 24v -59v 12h 1v 64v -35v 47v -53v 41h 1v -29v 64v -41v 58h 1v -23v 41v -105v 81h 1v -40v 11v -5v 11h 1v 29v -75v 98v -98v 58h 1v 35v -87v 69v -35h 1v -29v 58v -23v 47h 1v -58v
 40v -35v 6h 1v 52v -34v 64h 1v -76v 17v -40h 1v 52v -17v 17h 1v 35v -52v 34v -52h 1v 76v -41v 35h 1v -41v 6v -17v 17h 1v 6v -12v 35v -41h 1v 64v -46v 41v -30h 1v -23v 35v -41v 76h 1v -52v 40v -75v 23h 1v 52v -46v 64h 1v -87v 75v -29h 1v 47v -59v 30h
 1v -47v 64v -47v 30h 1v -18v 29v -17v 17h 1v -70v 88v -47v 41v -18h 1v -40v 52v -17v 34h 1v -46v 52v -58h 1v 23v -35v 30h 1v 34v -64v 35h 1v -17v 35v -29v 35v -47h 1v 18v -12v 29v -17h 1v 23v -35v 52h 1v -6v 12v -35v 18h 1v -6v 17v -29h 1v 18v -29v
 40v -40h 1v 46v -46v 5h 1v 41v -23v 29v -29h 1v 6v -12v 12v -18h 1v 41v -29v 23v -6v 6h 1v 17v -40v 40v -34h 1v -12v 35v -23v 17h 1v -23v 23v -23h 1v 11v -11v 11v -34v 29h 1v -18v 18v -18v 23h 1v 18v -23v 29v -29h 1v -24v 47v -12v 18h 1v 5v -29v 6h
 1v 12v -18h 1v 18v -12v 6v -6h 1v 18v -18v 18v -53v 58h 1v -11v 6v -24h 1v -5v 34v -11v 6h 1v -24v 24v -18v 12h 1v 17v -23h 1v 12v -18v 18h 1v -12v 6h 1v -12v 18v -18h 1v 6v -6v 23v -23h 1v 18v -12v 23v -58h 1v 47v -6v 6v -6v 17h 1v -23v 6v -18v 12v
 -12v 12h 1v 17v -23v 23h 1v 6v -11v 11v -23v 12h 1v 5v -11h 1v -6v 23v -11v 5h 1v -11v 11v -5v 11h 1v -17v 6h 1v -12v 17v -5v 5v -11v 6h 1v 11v -23v 23v -6h 1v -17v 17v -5v 5v -5h 1v -6v 11v -11v 17h 1v -17v 11v -23h 1v 29v -6v 6h 1v -6v 6v -6h 1v
 -23v 23v -17h 1v 17v -11v 6v -6h 1v 17v -23v 23v -11h 1v 11v -11h 1v 11v -6v 6v -17h 1v 11v -5v 11v -23v 6h 1v 11v -5v 5h 1v -5v 11v -11h 1v -6v 11h 1v 6v -6v 6v -17v 11h 1v 6v -6v 6h 1v -11v 11v -6h 1v -11v 11v -11h 1v 17v -11v 11v -6v 6h 1v -6v 6v
 -6h 1v 6v -11v 11v -11h 1v 11v -11v 11v -6v 6h 1v -6v 6v -17v 17h 1v -11v 11v -11v 11h 1v -6v 6h 1v -17v 11v -11v 11h 1v -5v 11v -11h 1v 11h 1v -11v 11v -6h 1v 6v -11v 11h 1v -11v 5v -5h 1v 11v -11v 11v -6h 1v 6v -11v 11h 1v -6v 6h 1v -6v 6v -6h 1v
 6v -6v 6h 1v -17v 17h 1v -6v 6h 1v -6h 1v 6v -6v 6h 1v -6v 6h 2v -11v 11h 1v -6v 6v -6h 1v 6v -11v 11h 1v -6v 6v -6h 1v 6v -6v 6h 1v -6v 6h 1v -11v 11v -6v 6h 1v -6v 6h 2v -6v 6h 1v -6h 1v 6v -6v 6h 1v -6h 1v 6v -6v 6h 1v -6h 1v 6v -11h 1v 11v -6v
 6h 1v -6v 6h 1v -6v 6v -6h 1v 6v -6v 6h 5v -6v 6h 2v -6v 6h 1v -6v 6v -6v 6h 2v -6v 6h 1v -6v 6h 1v -6v 6h 4v -6v 6v -6v 6h 1v -6v 6h 1v -6h 1v 6v -6v 6h 2v -6v 6h 6v -6v 6h 3v -6v 6h 2v -6v 6h 1v -6v 6h 4v -6v 6h 4v -6v 6h 4v -6v 6h 8v -6v 6h 3v
 -6v 6h 15v -6v 6h 5v -6v 6h 18" fill="none" stroke="#000099"/>
<rect x="442" y="22" width="114" height="39" fill="white"/>
<path d="M442,61h 114" fill="none" stroke="black"/>
<path d="M556,61v -39" fill="none" stroke="black"/>
<path d="M556,22h -114" fill="none" stroke="black"/>
<path d="M442,22v 39" fill="none" stroke="black"/>
<text x="448" y="27" fill="black" font-size="6" font-family="Helvetica">
Entries 
</text>
<text x="536" y="27" fill="black" font-size="6" font-family="Helvetica">
 4736
</text>
<text x="453" y="33" fill="black" font-size="6" font-family="Helvetica">
 / ndf 
</text>
<text x="451" y="31" fill="black" font-size="4" font-family="Helvetica">
2
</text>
<text x="448" y="33" fill="black" font-size="6" font-family="Times">
&#0967;
</text>
<text x="518" y="33" fill="black" font-size="6" font-family="Helvetica">
 753.8 / 1243
</text>
<text x="455" y="39" fill="black" font-size="6" font-family="Helvetica">
   
</text>
<text x="452" y="41" fill="black" font-size="4" font-family="Helvetica">
cu
</text>
<text x="448" y="39" fill="black" font-size="6" font-family="Helvetica">
N
</text>
<text x="531" y="40" fill="black" font-size="6" font-family="Helvetica">
 2.3248
</text>
<text x="528" y="40" fill="black" font-size="6" font-family="Times">
&#0177;
</text>
<text x="508" y="40" fill="black" font-size="6" font-family="Helvetica">
 0.6756 
</text>
<text x="454" y="45" fill="black" font-size="6" font-family="Helvetica">
 
</text>
<text x="450" y="47" fill="black" font-size="4" font-family="Helvetica">
cu
</text>
<text x="448" y="45" fill="black" font-size="6" font-family="Times">
&#0964;
</text>
<text x="531" y="46" fill="black" font-size="6" font-family="Helvetica">
 1635.8
</text>
<text x="528" y="46" fill="black" font-size="6" font-family="Times">
&#0177;
</text>
<text x="511" y="46" fill="black" font-size="6" font-family="Helvetica">
  1455 
</text>
<text x="453" y="52" fill="black" font-size="6" font-family="Helvetica">
    
</text>
<text x="452" y="54" fill="black" font-size="4" font-family="Helvetica">
f
</text>
<text x="448" y="52" fill="black" font-size="6" font-family="Helvetica">
N
</text>
<text x="538" y="53" fill="black" font-size="6" font-family="Helvetica">
 1.86
</text>
<text x="534" y="53" fill="black" font-size="6" font-family="Times">
&#0177;
</text>
<text x="519" y="53" fill="black" font-size="6" font-family="Helvetica">
 34.81 
</text>
<text x="451" y="58" fill="black" font-size="6" font-family="Helvetica">
 
</text>
<text x="450" y="60" fill="black" font-size="4" font-family="Helvetica">
f
</text>
<text x="448" y="58" fill="black" font-size="6" font-family="Times">
&#0964;
</text>
<text x="541" y="59" fill="black" font-size="6" font-family="Helvetica">
 0.0
</text>
<text x="538" y="59" fill="black" font-size="6" font-family="Times">
&#0177;
</text>
<text x="521" y="59" fill="black" font-size="6" font-family="Helvetica">
  2197 
</text>
<path d="M284,94v 1" fill="none" stroke="#ff0000" stroke-width="2"/>
<path d="M284,96v 2" fill="none" stroke="#ff0000" stroke-width="2"/>
<path d="M285,99v 3" fill="none" stroke="#ff0000" stroke-width="2"/>
<path d="M285,102v 3" fill="none" stroke="#ff0000" stroke-width="2"/>
<path d="M286,105v 3" fill="none" stroke="#ff0000" stroke-width="2"/>
<path d="M286,108v 3" fill="none" stroke="#ff0000" stroke-width="2"/>
<path d="M286,111v 3" fill="none" stroke="#ff0000" stroke-width="2"/>
<path d="M287,114v 3" fill="none" stroke="#ff0000" stroke-width="2"/>
<path d="M287,117v 2" fill="none" stroke="#ff0000" stroke-width="2"/>
<path d="M288,120v 2" fill="none" stroke="#ff0000" stroke-width="2"/>
<path d="M288,122v 3" fill="none" stroke="#ff0000" stroke-width="2"/>
<path d="M288,125v 3" fill="none" stroke="#ff0000" stroke-width="2"/>
<path d="M289,128v 2" fill="none" stroke="#ff0000" stroke-width="2"/>
<path d="M289,130v 3" fill="none" stroke="#ff0000" stroke-width="2"/>
<path d="M290,133v 3" fill="none" stroke="#ff0000" stroke-width="2"/>
<path d="M290,136v 2" fill="none" stroke="#ff0000" stroke-width="2"/>
<path d="M290,138v 2" fill="none" stroke="#ff0000" stroke-width="2"/>
<path d="M291,141v 2" fill="none" stroke="#ff0000" stroke-width="2"/>
<path d="M291,143v 2" fill="none" stroke="#ff0000" stroke-width="2"/>
<path d="M292,145v 3" fill="none" stroke="#ff0000" stroke-width="2"/>
<path d="M292,148v 2" fill="none" stroke="#ff0000" stroke-width="2"/>
<path d="M292,150v 2" fill="none" stroke="#ff0000" stroke-width="2"/>
<path d="M293,153v 2" fill="none" stroke="#ff0000" stroke-width="2"/>
<path d="M293,155v 2" fill="none" stroke="#ff0000" stroke-width="2"/>
<path d="M293,157v 2" fill="none" stroke="#ff0000" stroke-width="2"/>
<path d="M294,159v 2" fill="none" stroke="#ff0000" stroke-width="2"/>
<path d="M294,161v 2" fill="none" stroke="#ff0000" stroke-width="2"/>
<path d="M295,164v 1" fill="none" stroke="#ff0000" stroke-width="2"/>
<path d="M295,166v 2" fill="none" stroke="#ff0000" stroke-width="2"/>
<path d="M295,168v 2" fill="none" stroke="#ff0000" stroke-width="2"/>
<path d="M296,170v 2" fill="none" stroke="#ff0000" stroke-width="2"/>
<path d="M296,172v 2" fill="none" stroke="#ff0000" stroke-width="2"/>
<path d="M297,174v 2" fill="none" stroke="#ff0000" stroke-width="2"/>
<path d="M297,176v 2" fill="none" stroke="#ff0000" stroke-width="2"/>
<path d="M297,178v 1" fill="none" stroke="#ff0000" stroke-width="2"/>
<path d="M298,179v 2" fill="none" stroke="#ff0000" stroke-width="2"/>
<path d="M298,181v 2" fill="none" stroke="#ff0000" stroke-width="2"/>
<path d="M299,183v 2" fill="none" stroke="#ff0000" stroke-width="2"/>
<path d="M299,185v 1" fill="none" stroke="#ff0000" stroke-width="2"/>
<path d="M299,187v 1" fill="none" stroke="#ff0000" stroke-width="2"/>
<path d="M300,188v 2" fill="none" stroke="#ff0000" stroke-width="2"/>
<path d="M300,190v 1" fill="none" stroke="#ff0000" stroke-width="2"/>
<path d="M301,192v 1" fill="none" stroke="#ff0000" stroke-width="2"/>
<path d="M301,193v 2" fill="none" stroke="#ff0000" stroke-width="2"/>
<path d="M301,195v 1" fill="none" stroke="#ff0000" stroke-width="2"/>
<path d="M302,197v 1" fill="none" stroke="#ff0000" stroke-width="2"/>
<path d="M302,198v 1" fill="none" stroke="#ff0000" stroke-width="2"/>
<path d="M303,200v 1" fill="none" stroke="#ff0000" stroke-width="2"/>
<path d="M303,201v 1" fill="none" stroke="#ff0000" stroke-width="2"/>
<path d="M303,202v 2" fill="none" stroke="#ff0000" stroke-width="2"/>
<path d="M304,204v 1" fill="none" stroke="#ff0000" stroke-width="2"/>
<path d="M304,205v 2" fill="none" stroke="#ff0000" stroke-width="2"/>
<path d="M305,207v 1" fill="none" stroke="#ff0000" stroke-width="2"/>
<path d="M305,208v 2" fill="none" stroke="#ff0000" stroke-width="2"/>
<path d="M305,210v 1" fill="none" stroke="#ff0000" stroke-width="2"/>
<path d="M306,211v 1" fill="none" stroke="#ff0000" stroke-width="2"/>
<path d="M306,212v 2" fill="none" stroke="#ff0000" stroke-width="2"/>
<path d="M307,214v 1" fill="none" stroke="#ff0000" stroke-width="2"/>
<path d="M307,215v 1" fill="none" stroke="#ff0000" stroke-width="2"/>
<path d="M307,216v 2" fill="none" stroke="#ff0000" stroke-width="2"/>
<path d="M308,218v 1" fill="none" stroke="#ff0000" stroke-width="2"/>
<path d="M308,219v 1" fill="none" stroke="#ff0000" stroke-width="2"/>
<path d="M309,220v 1" fill="none" stroke="#ff0000" stroke-width="2"/>
<path d="M309,221v 1" fill="none" stroke="#ff0000" stroke-width="2"/>
<path d="M309,222v 1" fill="none" stroke="#ff0000" stroke-width="2"/>
<path d="M310,223v 2" fill="none" stroke="#ff0000" stroke-width="2"/>
<path d="M310,225" fill="none" stroke="#ff0000" stroke-width="2"/>
<path d="M311,226v 1" fill="none" stroke="#ff0000" stroke-width="2"/>
<path d="M311,227v 1" fill="none" stroke="#ff0000" stroke-width="2"/>
<path d="M311,228v 1" fill="none" stroke="#ff0000" stroke-width="2"/>
<path d="M312,229v 1" fill="none" stroke="#ff0000" stroke-width="2"/>
<path d="M312,230v 1" fill="none" stroke="#ff0000" stroke-width="2"/>
<path d="M312,231v 1" fill="none" stroke="#ff0000" stroke-width="2"/>
<path d="M313,232v 1" fill="none" stroke="#ff0000" stroke-width="2"/>
<path d="M313,233v 1" fill="none" stroke="#ff0000" stroke-width="2"/>
<path d="M314,234v 1" fill="none" stroke="#ff0000" stroke-width="2"/>
<path d="M314,235v 1" fill="none" stroke="#ff0000" stroke-width="2"/>
<path d="M314,236v 1" fill="none" stroke="#ff0000" stroke-width="2"/>
<path d="M315,237v 1" fill="none" stroke="#ff0000" stroke-width="2"/>
<path d="M315,238v 1" fill="none" stroke="#ff0000" stroke-width="2"/>
<path d="M316,239v 1" fill="none" stroke="#ff0000" stroke-width="2"/>
<path d="M316,240v 1" fill="none" stroke="#ff0000" stroke-width="2"/>
<path d="M316,241" fill="none" stroke="#ff0000" stroke-width="2"/>
<path d="M317,241v 1" fill="none" stroke="#ff0000" stroke-width="2"/>
<path d="M317,242v 1" fill="none" stroke="#ff0000" stroke-width="2"/>
<path d="M318,243v 1" fill="none" stroke="#ff0000" stroke-width="2"/>
<path d="M318,244" fill="none" stroke="#ff0000" stroke-width="2"/>
<path d="M318,244v 1" fill="none" stroke="#ff0000" stroke-width="2"/>
<path d="M319,246" fill="none" stroke="#ff0000" stroke-width="2"/>
<path d="M319,246v 1" fill="none" stroke="#ff0000" stroke-width="2"/>
<path d="M320,247v 1" fill="none" stroke="#ff0000" stroke-width="2"/>
<path d="M320,248" fill="none" stroke="#ff0000" stroke-width="2"/>
<path d="M320,248v 1" fill="none" stroke="#ff0000" stroke-width="2"/>
<path d="M321,249v 1" fill="none" stroke="#ff0000" stroke-width="2"/>
<path d="M321,250v 1" fill="none" stroke="#ff0000" stroke-width="2"/>
<path d="M322,251" fill="none" stroke="#ff0000" stroke-width="2"/>
<path d="M322,252" fill="none" stroke="#ff0000" stroke-width="2"/>
<path d="M322,252v 1" fill="none" stroke="#ff0000" stroke-width="2"/>
<path d="M323,253v 1" fill="none" stroke="#ff0000" stroke-width="2"/>
<path d="M323,254" fill="none" stroke="#ff0000" stroke-width="2"/>
<path d="M324,254v 1" fill="none" stroke="#ff0000" stroke-width="2"/>
<path d="M324,255" fill="none" stroke="#ff0000" stroke-width="2"/>
<path d="M324,256" fill="none" stroke="#ff0000" stroke-width="2"/>
<path d="M325,256v 1" fill="none" stroke="#ff0000" stroke-width="2"/>
<path d="M325,257" fill="none" stroke="#ff0000" stroke-width="2"/>
<path d="M326,257v 1" fill="none" stroke="#ff0000" stroke-width="2"/>
<path d="M326,258" fill="none" stroke="#ff0000" stroke-width="2"/>
<path d="M326,258v 1" fill="none" stroke="#ff0000" stroke-width="2"/>
<path d="M327,259v 1" fill="none" stroke="#ff0000" stroke-width="2"/>
<path d="M327,260" fill="none" stroke="#ff0000" stroke-width="2"/>
<path d="M328,260v 1" fill="none" stroke="#ff0000" stroke-width="2"/>
<path d="M328,261" fill="none" stroke="#ff0000" stroke-width="2"/>
<path d="M328,261v 1" fill="none" stroke="#ff0000" stroke-width="2"/>
<path d="M329,262" fill="none" stroke="#ff0000" stroke-width="2"/>
<path d="M329,262v 1" fill="none" stroke="#ff0000" stroke-width="2"/>
<path d="M330,263" fill="none" stroke="#ff0000" stroke-width="2"/>
<path d="M330,263v 1" fill="none" stroke="#ff0000" stroke-width="2"/>
<path d="M330,264" fill="none" stroke="#ff0000" stroke-width="2"/>
<path d="M331,264v 1" fill="none" stroke="#ff0000" stroke-width="2"/>
<path d="M331,265" fill="none" stroke="#ff0000" stroke-width="2"/>
<path d="M331,265v 1" fill="none" stroke="#ff0000" stroke-width="2"/>
<path d="M332,266" fill="none" stroke="#ff0000" stroke-width="2"/>
<path d="M332,266v 1" fill="none" stroke="#ff0000" stroke-width="2"/>
<path d="M333,267" fill="none" stroke="#ff0000" stroke-width="2"/>
<path d="M333,267" fill="none" stroke="#ff0000" stroke-width="2"/>
<path d="M333,267v 1" fill="none" stroke="#ff0000" stroke-width="2"/>
<path d="M334,268" fill="none" stroke="#ff0000" stroke-width="2"/>
<path d="M334,268v 1" fill="none" stroke="#ff0000" stroke-width="2"/>
<path d="M335,269" fill="none" stroke="#ff0000" stroke-width="2"/>
<path d="M335,269v 1" fill="none" stroke="#ff0000" stroke-width="2"/>
<path d="M335,270" fill="none" stroke="#ff0000" stroke-width="2"/>
<path d="M336,270v 1" fill="none" stroke="#ff0000" stroke-width="2"/>
<path d="M336,271" fill="none" stroke="#ff0000" stroke-width="2"/>
<path d="M337,271" fill="none" stroke="#ff0000" stroke-width="2"/>
<path d="M337,271z" fill="none" stroke="#ff0000" stroke-width="2"/>
<path d="M337,272z" fill="none" stroke="#ff0000" stroke-width="2"/>
<path d="M338,272" fill="none" stroke="#ff0000" stroke-width="2"/>
<path d="M338,272v 1" fill="none" stroke="#ff0000" stroke-width="2"/>
<path d="M339,273" fill="none" stroke="#ff0000" stroke-width="2"/>
<path d="M339,273" fill="none" stroke="#ff0000" stroke-width="2"/>
<path d="M339,273v 1" fill="none" stroke="#ff0000" stroke-width="2"/>
<path d="M340,274" fill="none" stroke="#ff0000" stroke-width="2"/>
<path d="M340,274v 1" fill="none" stroke="#ff0000" stroke-width="2"/>
<path d="M341,275z" fill="none" stroke="#ff0000" stroke-width="2"/>
<path d="M341,275" fill="none" stroke="#ff0000" stroke-width="2"/>
<path d="M341,275" fill="none" stroke="#ff0000" stroke-width="2"/>
<path d="M342,275v 1" fill="none" stroke="#ff0000" stroke-width="2"/>
<path d="M342,276" fill="none" stroke="#ff0000" stroke-width="2"/>
<path d="M343,276z" fill="none" stroke="#ff0000" stroke-width="2"/>
<path d="M343,276v 1" fill="none" stroke="#ff0000" stroke-width="2"/>
<path d="M343,277" fill="none" stroke="#ff0000" stroke-width="2"/>
<path d="M344,277" fill="none" stroke="#ff0000" stroke-width="2"/>
<path d="M344,277z" fill="none" stroke="#ff0000" stroke-width="2"/>
<path d="M345,277v 1" fill="none" stroke="#ff0000" stroke-width="2"/>
<path d="M345,278" fill="none" stroke="#ff0000" stroke-width="2"/>
<path d="M345,278z" fill="none" stroke="#ff0000" stroke-width="2"/>
<path d="M346,278v 1" fill="none" stroke="#ff0000" stroke-width="2"/>
<path d="M346,279" fill="none" stroke="#ff0000" stroke-width="2"/>
<path d="M347,279z" fill="none" stroke="#ff0000" stroke-width="2"/>
<path d="M347,279" fill="none" stroke="#ff0000" stroke-width="2"/>
<path d="M347,279v 1" fill="none" stroke="#ff0000" stroke-width="2"/>
<path d="M348,280z" fill="none" stroke="#ff0000" stroke-width="2"/>
<path d="M348,280" fill="none" stroke="#ff0000" stroke-width="2"/>
<path d="M349,280z" fill="none" stroke="#ff0000" stroke-width="2"/>
<path d="M349,280" fill="none" stroke="#ff0000" stroke-width="2"/>
<path d="M349,280v 1" fill="none" stroke="#ff0000" stroke-width="2"/>
<path d="M350,281z" fill="none" stroke="#ff0000" stroke-width="2"/>
<path d="M350,281" fill="none" stroke="#ff0000" stroke-width="2"/>
<path d="M350,281z" fill="none" stroke="#ff0000" stroke-width="2"/>
<path d="M351,281v 1" fill="none" stroke="#ff0000" stroke-width="2"/>
<path d="M351,282z" fill="none" stroke="#ff0000" stroke-width="2"/>
<path d="M352,282" fill="none" stroke="#ff0000" stroke-width="2"/>
<path d="M352,282z" fill="none" stroke="#ff0000" stroke-width="2"/>
<path d="M352,282" fill="none" stroke="#ff0000" stroke-width="2"/>
<path d="M353,282z" fill="none" stroke="#ff0000" stroke-width="2"/>
<path d="M353,282v 1" fill="none" stroke="#ff0000" stroke-width="2"/>
<path d="M354,283z" fill="none" stroke="#ff0000" stroke-width="2"/>
<path d="M354,283" fill="none" stroke="#ff0000" stroke-width="2"/>
<path d="M354,283z" fill="none" stroke="#ff0000" stroke-width="2"/>
<path d="M355,283v 1" fill="none" stroke="#ff0000" stroke-width="2"/>
<path d="M355,284z" fill="none" stroke="#ff0000" stroke-width="2"/>
<path d="M356,284" fill="none" stroke="#ff0000" stroke-width="2"/>
<path d="M356,284z" fill="none" stroke="#ff0000" stroke-width="2"/>
<path d="M356,284" fill="none" stroke="#ff0000" stroke-width="2"/>
<path d="M357,284z" fill="none" stroke="#ff0000" stroke-width="2"/>
<path d="M357,284z" fill="none" stroke="#ff0000" stroke-width="2"/>
<path d="M358,284v 1" fill="none" stroke="#ff0000" stroke-width="2"/>
<path d="M358,285z" fill="none" stroke="#ff0000" stroke-width="2"/>
<path d="M358,285" fill="none" stroke="#ff0000" stroke-width="2"/>
<path d="M359,285z" fill="none" stroke="#ff0000" stroke-width="2"/>
<path d="M359,285z" fill="none" stroke="#ff0000" stroke-width="2"/>
<path d="M360,285v 1" fill="none" stroke="#ff0000" stroke-width="2"/>
<path d="M360,286z" fill="none" stroke="#ff0000" stroke-width="2"/>
<path d="M360,286" fill="none" stroke="#ff0000" stroke-width="2"/>
<path d="M361,286z" fill="none" stroke="#ff0000" stroke-width="2"/>
<path d="M361,286z" fill="none" stroke="#ff0000" stroke-width="2"/>
<path d="M362,286" fill="none" stroke="#ff0000" stroke-width="2"/>
<path d="M362,286z" fill="none" stroke="#ff0000" stroke-width="2"/>
<path d="M362,286z" fill="none" stroke="#ff0000" stroke-width="2"/>
<path d="M363,286v 1" fill="none" stroke="#ff0000" stroke-width="2"/>
<path d="M363,287z" fill="none" stroke="#ff0000" stroke-width="2"/>
<path d="M364,287z" fill="none" stroke="#ff0000" stroke-width="2"/>
<path d="M364,287" fill="none" stroke="#ff0000" stroke-width="2"/>
<path d="M364,287z" fill="none" stroke="#ff0000" stroke-width="2"/>
<path d="M365,287z" fill="none" stroke="#ff0000" stroke-width="2"/>
<path d="M365,287v 1" fill="none" stroke="#ff0000" stroke-width="2"/>
<path d="M366,288z" fill="none" stroke="#ff0000" stroke-width="2"/>
<path d="M366,288z" fill="none" stroke="#ff0000" stroke-width="2"/>
<path d="M366,288z" fill="none" stroke="#ff0000" stroke-width="2"/>
<path d="M367,288" fill="none" stroke="#ff0000" stroke-width="2"/>
<path d="M367,288z" fill="none" stroke="#ff0000" stroke-width="2"/>
<path d="M368,288z" fill="none" stroke="#ff0000" stroke-width="2"/>
<path d="M368,288" fill="none" stroke="#ff0000" stroke-width="2"/>
<path d="M368,288z" fill="none" stroke="#ff0000" stroke-width="2"/>
<path d="M369,288z" fill="none" stroke="#ff0000" stroke-width="2"/>
<path d="M369,288z" fill="none" stroke="#ff0000" stroke-width="2"/>
<path d="M369,288v 1" fill="none" stroke="#ff0000" stroke-width="2"/>
<path d="M370,289z" fill="none" stroke="#ff0000" stroke-width="2"/>
<path d="M370,289z" fill="none" stroke="#ff0000" stroke-width="2"/>
<path d="M371,289z" fill="none" stroke="#ff0000" stroke-width="2"/>
<path d="M371,289" fill="none" stroke="#ff0000" stroke-width="2"/>
<path d="M371,289z" fill="none" stroke="#ff0000" stroke-width="2"/>
<path d="M372,289z" fill="none" stroke="#ff0000" stroke-width="2"/>
<path d="M372,289z" fill="none" stroke="#ff0000" stroke-width="2"/>
<path d="M373,289v 1" fill="none" stroke="#ff0000" stroke-width="2"/>
<path d="M373,290z" fill="none" stroke="#ff0000" stroke-width="2"/>
<path d="M373,290z" fill="none" stroke="#ff0000" stroke-width="2"/>
<path d="M374,290z" fill="none" stroke="#ff0000" stroke-width="2"/>
<path d="M374,290z" fill="none" stroke="#ff0000" stroke-width="2"/>
<path d="M375,290" fill="none" stroke="#ff0000" stroke-width="2"/>
<path d="M375,290z" fill="none" stroke="#ff0000" stroke-width="2"/>
<path d="M375,290z" fill="none" stroke="#ff0000" stroke-width="2"/>
<path d="M376,290z" fill="none" stroke="#ff0000" stroke-width="2"/>
<path d="M376,290z" fill="none" stroke="#ff0000" stroke-width="2"/>
<path d="M377,290" fill="none" stroke="#ff0000" stroke-width="2"/>
<path d="M377,290z" fill="none" stroke="#ff0000" stroke-width="2"/>
<path d="M377,290z" fill="none" stroke="#ff0000" stroke-width="2"/>
<path d="M378,290z" fill="none" stroke="#ff0000" stroke-width="2"/>
<path d="M378,290z" fill="none" stroke="#ff0000" stroke-width="2"/>
<path d="M379,290v 1" fill="none" stroke="#ff0000" stroke-width="2"/>
<path d="M379,291z" fill="none" stroke="#ff0000" stroke-width="2"/>
<path d="M379,291z" fill="none" stroke="#ff0000" stroke-width="2"/>
<path d="M380,291z" fill="none" stroke="#ff0000" stroke-width="2"/>
<path d="M380,291z" fill="none" stroke="#ff0000" stroke-width="2"/>
<path d="M381,291z" fill="none" stroke="#ff0000" stroke-width="2"/>
<path d="M381,291" fill="none" stroke="#ff0000" stroke-width="2"/>
<path d="M381,291z" fill="none" stroke="#ff0000" stroke-width="2"/>
<path d="M382,291z" fill="none" stroke="#ff0000" stroke-width="2"/>
<path d="M382,291z" fill="none" stroke="#ff0000" stroke-width="2"/>
<path d="M383,291z" fill="none" stroke="#ff0000" stroke-width="2"/>
<path d="M383,291z" fill="none" stroke="#ff0000" stroke-width="2"/>
<path d="M383,291v 1" fill="none" stroke="#ff0000" stroke-width="2"/>
<path d="M384,292z" fill="none" stroke="#ff0000" stroke-width="2"/>
<path d="M384,292z" fill="none" stroke="#ff0000" stroke-width="2"/>
<path d="M385,292z" fill="none" stroke="#ff0000" stroke-width="2"/>
<path d="M385,292z" fill="none" stroke="#ff0000" stroke-width="2"/>
<path d="M385,292z" fill="none" stroke="#ff0000" stroke-width="2"/>
<path d="M386,292z" fill="none" stroke="#ff0000" stroke-width="2"/>
<path d="M386,292z" fill="none" stroke="#ff0000" stroke-width="2"/>
<path d="M387,292" fill="none" stroke="#ff0000" stroke-width="2"/>
<path d="M387,292z" fill="none" stroke="#ff0000" stroke-width="2"/>
<path d="M387,292z" fill="none" stroke="#ff0000" stroke-width="2"/>
<path d="M388,292z" fill="none" stroke="#ff0000" stroke-width="2"/>
<path d="M388,292z" fill="none" stroke="#ff0000" stroke-width="2"/>
<path d="M388,292z" fill="none" stroke="#ff0000" stroke-width="2"/>
<path d="M389,292z" fill="none" stroke="#ff0000" stroke-width="2"/>
<path d="M389,292z" fill="none" stroke="#ff0000" stroke-width="2"/>
<path d="M390,292" fill="none" stroke="#ff0000" stroke-width="2"/>
<path d="M390,292z" fill="none" stroke="#ff0000" stroke-width="2"/>
<path d="M390,292z" fill="none" stroke="#ff0000" stroke-width="2"/>
<path d="M391,292z" fill="none" stroke="#ff0000" stroke-width="2"/>
<path d="M391,292z" fill="none" stroke="#ff0000" stroke-width="2"/>
<path d="M392,292z" fill="none" stroke="#ff0000" stroke-width="2"/>
<path d="M392,292z" fill="none" stroke="#ff0000" stroke-width="2"/>
<path d="M392,292z" fill="none" stroke="#ff0000" stroke-width="2"/>
<path d="M393,292z" fill="none" stroke="#ff0000" stroke-width="2"/>
<path d="M393,292v 1" fill="none" stroke="#ff0000" stroke-width="2"/>
<path d="M394,293z" fill="none" stroke="#ff0000" stroke-width="2"/>
<path d="M394,293z" fill="none" stroke="#ff0000" stroke-width="2"/>
<path d="M394,293z" fill="none" stroke="#ff0000" stroke-width="2"/>
<path d="M395,293z" fill="none" stroke="#ff0000" stroke-width="2"/>
<path d="M395,293z" fill="none" stroke="#ff0000" stroke-width="2"/>
<path d="M396,293z" fill="none" stroke="#ff0000" stroke-width="2"/>
<path d="M396,293z" fill="none" stroke="#ff0000" stroke-width="2"/>
<path d="M396,293z" fill="none" stroke="#ff0000" stroke-width="2"/>
<path d="M397,293z" fill="none" stroke="#ff0000" stroke-width="2"/>
<path d="M397,293z" fill="none" stroke="#ff0000" stroke-width="2"/>
<path d="M398,293" fill="none" stroke="#ff0000" stroke-width="2"/>
<path d="M398,293z" fill="none" stroke="#ff0000" stroke-width="2"/>
<path d="M398,293z" fill="none" stroke="#ff0000" stroke-width="2"/>
<path d="M399,293z" fill="none" stroke="#ff0000" stroke-width="2"/>
<path d="M399,293z" fill="none" stroke="#ff0000" stroke-width="2"/>
<path d="M400,293z" fill="none" stroke="#ff0000" stroke-width="2"/>
<path d="M400,293z" fill="none" stroke="#ff0000" stroke-width="2"/>
<path d="M400,293z" fill="none" stroke="#ff0000" stroke-width="2"/>
<path d="M401,293z" fill="none" stroke="#ff0000" stroke-width="2"/>
<path d="M401,293z" fill="none" stroke="#ff0000" stroke-width="2"/>
<path d="M402,293z" fill="none" stroke="#ff0000" stroke-width="2"/>
<path d="M402,293z" fill="none" stroke="#ff0000" stroke-width="2"/>
<path d="M402,293z" fill="none" stroke="#ff0000" stroke-width="2"/>
<path d="M403,293z" fill="none" stroke="#ff0000" stroke-width="2"/>
<path d="M403,293v 1" fill="none" stroke="#ff0000" stroke-width="2"/>
<path d="M404,294z" fill="none" stroke="#ff0000" stroke-width="2"/>
<path d="M404,294z" fill="none" stroke="#ff0000" stroke-width="2"/>
<path d="M404,294z" fill="none" stroke="#ff0000" stroke-width="2"/>
<path d="M405,294z" fill="none" stroke="#ff0000" stroke-width="2"/>
<path d="M405,294z" fill="none" stroke="#ff0000" stroke-width="2"/>
<path d="M406,294z" fill="none" stroke="#ff0000" stroke-width="2"/>
<path d="M406,294z" fill="none" stroke="#ff0000" stroke-width="2"/>
<path d="M406,294z" fill="none" stroke="#ff0000" stroke-width="2"/>
<path d="M407,294z" fill="none" stroke="#ff0000" stroke-width="2"/>
<path d="M407,294z" fill="none" stroke="#ff0000" stroke-width="2"/>
<path d="M408,294z" fill="none" stroke="#ff0000" stroke-width="2"/>
<path d="M408,294z" fill="none" stroke="#ff0000" stroke-width="2"/>
<path d="M408,294z" fill="none" stroke="#ff0000" stroke-width="2"/>
<path d="M409,294z" fill="none" stroke="#ff0000" stroke-width="2"/>
<path d="M409,294z" fill="none" stroke="#ff0000" stroke-width="2"/>
<path d="M409,294z" fill="none" stroke="#ff0000" stroke-width="2"/>
<path d="M410,294" fill="none" stroke="#ff0000" stroke-width="2"/>
<path d="M410,294z" fill="none" stroke="#ff0000" stroke-width="2"/>
<path d="M411,294z" fill="none" stroke="#ff0000" stroke-width="2"/>
<path d="M411,294z" fill="none" stroke="#ff0000" stroke-width="2"/>
<path d="M411,294z" fill="none" stroke="#ff0000" stroke-width="2"/>
<path d="M412,294z" fill="none" stroke="#ff0000" stroke-width="2"/>
<path d="M412,294z" fill="none" stroke="#ff0000" stroke-width="2"/>
<path d="M413,294z" fill="none" stroke="#ff0000" stroke-width="2"/>
<path d="M413,294z" fill="none" stroke="#ff0000" stroke-width="2"/>
<path d="M413,294z" fill="none" stroke="#ff0000" stroke-width="2"/>
<path d="M414,294z" fill="none" stroke="#ff0000" stroke-width="2"/>
<path d="M414,294z" fill="none" stroke="#ff0000" stroke-width="2"/>
<path d="M415,294z" fill="none" stroke="#ff0000" stroke-width="2"/>
<path d="M415,294z" fill="none" stroke="#ff0000" stroke-width="2"/>
<path d="M415,294z" fill="none" stroke="#ff0000" stroke-width="2"/>
<path d="M416,294z" fill="none" stroke="#ff0000" stroke-width="2"/>
<path d="M416,294z" fill="none" stroke="#ff0000" stroke-width="2"/>
<path d="M417,294z" fill="none" stroke="#ff0000" stroke-width="2"/>
<path d="M417,294z" fill="none" stroke="#ff0000" stroke-width="2"/>
<path d="M417,294z" fill="none" stroke="#ff0000" stroke-width="2"/>
<path d="M418,294z" fill="none" stroke="#ff0000" stroke-width="2"/>
<path d="M418,294z" fill="none" stroke="#ff0000" stroke-width="2"/>
<path d="M419,294z" fill="none" stroke="#ff0000" stroke-width="2"/>
<path d="M419,294" fill="none" stroke="#ff0000" stroke-width="2"/>
<path d="M419,294z" fill="none" stroke="#ff0000" stroke-width="2"/>
<path d="M420,294z" fill="none" stroke="#ff0000" stroke-width="2"/>
<path d="M420,294z" fill="none" stroke="#ff0000" stroke-width="2"/>
<path d="M421,294z" fill="none" stroke="#ff0000" stroke-width="2"/>
<path d="M421,294z" fill="none" stroke="#ff0000" stroke-width="2"/>
<path d="M421,294z" fill="none" stroke="#ff0000" stroke-width="2"/>
<path d="M422,294z" fill="none" stroke="#ff0000" stroke-width="2"/>
<path d="M422,294z" fill="none" stroke="#ff0000" stroke-width="2"/>
<path d="M423,294z" fill="none" stroke="#ff0000" stroke-width="2"/>
<path d="M423,294z" fill="none" stroke="#ff0000" stroke-width="2"/>
<path d="M423,294z" fill="none" stroke="#ff0000" stroke-width="2"/>
<path d="M424,294z" fill="none" stroke="#ff0000" stroke-width="2"/>
<path d="M424,294z" fill="none" stroke="#ff0000" stroke-width="2"/>
<path d="M425,294z" fill="none" stroke="#ff0000" stroke-width="2"/>
<path d="M425,294z" fill="none" stroke="#ff0000" stroke-width="2"/>
<path d="M425,294z" fill="none" stroke="#ff0000" stroke-width="2"/>
<path d="M426,294z" fill="none" stroke="#ff0000" stroke-width="2"/>
<path d="M426,294z" fill="none" stroke="#ff0000" stroke-width="2"/>
<path d="M427,294z" fill="none" stroke="#ff0000" stroke-width="2"/>
<path d="M427,294z" fill="none" stroke="#ff0000" stroke-width="2"/>
<path d="M427,294z" fill="none" stroke="#ff0000" stroke-width="2"/>
<path d="M428,294z" fill="none" stroke="#ff0000" stroke-width="2"/>
<path d="M428,294z" fill="none" stroke="#ff0000" stroke-width="2"/>
<path d="M428,294z" fill="none" stroke="#ff0000" stroke-width="2"/>
<path d="M429,294z" fill="none" stroke="#ff0000" stroke-width="2"/>
<path d="M429,294z" fill="none" stroke="#ff0000" stroke-width="2"/>
<path d="M430,294z" fill="none" stroke="#ff0000" stroke-width="2"/>
<path d="M430,294z" fill="none" stroke="#ff0000" stroke-width="2"/>
<path d="M430,294z" fill="none" stroke="#ff0000" stroke-width="2"/>
<path d="M431,294z" fill="none" stroke="#ff0000" stroke-width="2"/>
<path d="M431,294z" fill="none" stroke="#ff0000" stroke-width="2"/>
<path d="M432,294z" fill="none" stroke="#ff0000" stroke-width="2"/>
<path d="M432,294z" fill="none" stroke="#ff0000" stroke-width="2"/>
<path d="M432,294z" fill="none" stroke="#ff0000" stroke-width="2"/>
<path d="M433,294z" fill="none" stroke="#ff0000" stroke-width="2"/>
<path d="M433,294z" fill="none" stroke="#ff0000" stroke-width="2"/>
<path d="M434,294z" fill="none" stroke="#ff0000" stroke-width="2"/>
<path d="M434,294v 1" fill="none" stroke="#ff0000" stroke-width="2"/>
<path d="M434,295z" fill="none" stroke="#ff0000" stroke-width="2"/>
<path d="M435,295z" fill="none" stroke="#ff0000" stroke-width="2"/>
<path d="M435,295z" fill="none" stroke="#ff0000" stroke-width="2"/>
<path d="M436,295z" fill="none" stroke="#ff0000" stroke-width="2"/>
<path d="M436,295z" fill="none" stroke="#ff0000" stroke-width="2"/>
<path d="M436,295z" fill="none" stroke="#ff0000" stroke-width="2"/>
<path d="M437,295z" fill="none" stroke="#ff0000" stroke-width="2"/>
<path d="M437,295z" fill="none" stroke="#ff0000" stroke-width="2"/>
<path d="M438,295z" fill="none" stroke="#ff0000" stroke-width="2"/>
<path d="M438,295z" fill="none" stroke="#ff0000" stroke-width="2"/>
<path d="M438,295z" fill="none" stroke="#ff0000" stroke-width="2"/>
<path d="M439,295z" fill="none" stroke="#ff0000" stroke-width="2"/>
<path d="M439,295z" fill="none" stroke="#ff0000" stroke-width="2"/>
<path d="M440,295z" fill="none" stroke="#ff0000" stroke-width="2"/>
<path d="M440,295z" fill="none" stroke="#ff0000" stroke-width="2"/>
<path d="M440,295z" fill="none" stroke="#ff0000" stroke-width="2"/>
<path d="M441,295z" fill="none" stroke="#ff0000" stroke-width="2"/>
<path d="M441,295z" fill="none" stroke="#ff0000" stroke-width="2"/>
<path d="M442,295z" fill="none" stroke="#ff0000" stroke-width="2"/>
<path d="M442,295z" fill="none" stroke="#ff0000" stroke-width="2"/>
<path d="M442,295z" fill="none" stroke="#ff0000" stroke-width="2"/>
<path d="M443,295z" fill="none" stroke="#ff0000" stroke-width="2"/>
<path d="M443,295z" fill="none" stroke="#ff0000" stroke-width="2"/>
<path d="M444,295z" fill="none" stroke="#ff0000" stroke-width="2"/>
<path d="M444,295z" fill="none" stroke="#ff0000" stroke-width="2"/>
<path d="M444,295z" fill="none" stroke="#ff0000" stroke-width="2"/>
<path d="M445,295z" fill="none" stroke="#ff0000" stroke-width="2"/>
<path d="M445,295z" fill="none" stroke="#ff0000" stroke-width="2"/>
<path d="M446,295z" fill="none" stroke="#ff0000" stroke-width="2"/>
<path d="M446,295z" fill="none" stroke="#ff0000" stroke-width="2"/>
<path d="M446,295z" fill="none" stroke="#ff0000" stroke-width="2"/>
<path d="M447,295z" fill="none" stroke="#ff0000" stroke-width="2"/>
<path d="M447,295z" fill="none" stroke="#ff0000" stroke-width="2"/>
<path d="M447,295z" fill="none" stroke="#ff0000" stroke-width="2"/>
<path d="M448,295z" fill="none" stroke="#ff0000" stroke-width="2"/>
<path d="M448,295z" fill="none" stroke="#ff0000" stroke-width="2"/>
<path d="M449,295z" fill="none" stroke="#ff0000" stroke-width="2"/>
<path d="M449,295z" fill="none" stroke="#ff0000" stroke-width="2"/>
<path d="M449,295z" fill="none" stroke="#ff0000" stroke-width="2"/>
<path d="M450,295z" fill="none" stroke="#ff0000" stroke-width="2"/>
<path d="M450,295z" fill="none" stroke="#ff0000" stroke-width="2"/>
<path d="M451,295z" fill="none" stroke="#ff0000" stroke-width="2"/>
<path d="M451,295z" fill="none" stroke="#ff0000" stroke-width="2"/>
<path d="M451,295z" fill="none" stroke="#ff0000" stroke-width="2"/>
<path d="M452,295z" fill="none" stroke="#ff0000" stroke-width="2"/>
<path d="M452,295z" fill="none" stroke="#ff0000" stroke-width="2"/>
<path d="M453,295z" fill="none" stroke="#ff0000" stroke-width="2"/>
<path d="M453,295z" fill="none" stroke="#ff0000" stroke-width="2"/>
<path d="M453,295z" fill="none" stroke="#ff0000" stroke-width="2"/>
<path d="M454,295z" fill="none" stroke="#ff0000" stroke-width="2"/>
<path d="M454,295z" fill="none" stroke="#ff0000" stroke-width="2"/>
<path d="M455,295z" fill="none" stroke="#ff0000" stroke-width="2"/>
<path d="M455,295z" fill="none" stroke="#ff0000" stroke-width="2"/>
<path d="M455,295z" fill="none" stroke="#ff0000" stroke-width="2"/>
<path d="M456,295z" fill="none" stroke="#ff0000" stroke-width="2"/>
<path d="M456,295z" fill="none" stroke="#ff0000" stroke-width="2"/>
<path d="M457,295z" fill="none" stroke="#ff0000" stroke-width="2"/>
<path d="M457,295z" fill="none" stroke="#ff0000" stroke-width="2"/>
<path d="M457,295z" fill="none" stroke="#ff0000" stroke-width="2"/>
<path d="M458,295z" fill="none" stroke="#ff0000" stroke-width="2"/>
<path d="M458,295z" fill="none" stroke="#ff0000" stroke-width="2"/>
<path d="M459,295z" fill="none" stroke="#ff0000" stroke-width="2"/>
<path d="M459,295z" fill="none" stroke="#ff0000" stroke-width="2"/>
<path d="M459,295z" fill="none" stroke="#ff0000" stroke-width="2"/>
<path d="M460,295z" fill="none" stroke="#ff0000" stroke-width="2"/>
<path d="M460,295z" fill="none" stroke="#ff0000" stroke-width="2"/>
<path d="M461,295z" fill="none" stroke="#ff0000" stroke-width="2"/>
<path d="M461,295z" fill="none" stroke="#ff0000" stroke-width="2"/>
<path d="M461,295z" fill="none" stroke="#ff0000" stroke-width="2"/>
<path d="M462,295z" fill="none" stroke="#ff0000" stroke-width="2"/>
<path d="M462,295z" fill="none" stroke="#ff0000" stroke-width="2"/>
<path d="M463,295z" fill="none" stroke="#ff0000" stroke-width="2"/>
<path d="M463,295z" fill="none" stroke="#ff0000" stroke-width="2"/>
<path d="M463,295z" fill="none" stroke="#ff0000" stroke-width="2"/>
<path d="M464,295z" fill="none" stroke="#ff0000" stroke-width="2"/>
<path d="M464,295z" fill="none" stroke="#ff0000" stroke-width="2"/>
<path d="M465,295z" fill="none" stroke="#ff0000" stroke-width="2"/>
<path d="M465,295z" fill="none" stroke="#ff0000" stroke-width="2"/>
<path d="M465,295z" fill="none" stroke="#ff0000" stroke-width="2"/>
<path d="M466,295z" fill="none" stroke="#ff0000" stroke-width="2"/>
<path d="M466,295z" fill="none" stroke="#ff0000" stroke-width="2"/>
<path d="M466,295z" fill="none" stroke="#ff0000" stroke-width="2"/>
<path d="M467,295z" fill="none" stroke="#ff0000" stroke-width="2"/>
<path d="M467,295z" fill="none" stroke="#ff0000" stroke-width="2"/>
<path d="M468,295z" fill="none" stroke="#ff0000" stroke-width="2"/>
<path d="M468,295z" fill="none" stroke="#ff0000" stroke-width="2"/>
<path d="M468,295z" fill="none" stroke="#ff0000" stroke-width="2"/>
<path d="M469,295z" fill="none" stroke="#ff0000" stroke-width="2"/>
<path d="M469,295z" fill="none" stroke="#ff0000" stroke-width="2"/>
<path d="M470,295z" fill="none" stroke="#ff0000" stroke-width="2"/>
<path d="M470,295z" fill="none" stroke="#ff0000" stroke-width="2"/>
<path d="M470,295z" fill="none" stroke="#ff0000" stroke-width="2"/>
<path d="M471,295z" fill="none" stroke="#ff0000" stroke-width="2"/>
<path d="M471,295z" fill="none" stroke="#ff0000" stroke-width="2"/>
<path d="M472,295z" fill="none" stroke="#ff0000" stroke-width="2"/>
<path d="M472,295z" fill="none" stroke="#ff0000" stroke-width="2"/>
<path d="M472,295z" fill="none" stroke="#ff0000" stroke-width="2"/>
<path d="M473,295z" fill="none" stroke="#ff0000" stroke-width="2"/>
<path d="M473,295z" fill="none" stroke="#ff0000" stroke-width="2"/>
<path d="M474,295z" fill="none" stroke="#ff0000" stroke-width="2"/>
<path d="M474,295z" fill="none" stroke="#ff0000" stroke-width="2"/>
<path d="M474,295z" fill="none" stroke="#ff0000" stroke-width="2"/>
<path d="M475,295z" fill="none" stroke="#ff0000" stroke-width="2"/>
<path d="M475,295z" fill="none" stroke="#ff0000" stroke-width="2"/>
<path d="M476,295z" fill="none" stroke="#ff0000" stroke-width="2"/>
<path d="M476,295z" fill="none" stroke="#ff0000" stroke-width="2"/>
<path d="M476,295z" fill="none" stroke="#ff0000" stroke-width="2"/>
<path d="M477,295z" fill="none" stroke="#ff0000" stroke-width="2"/>
<path d="M477,295z" fill="none" stroke="#ff0000" stroke-width="2"/>
<path d="M478,295z" fill="none" stroke="#ff0000" stroke-width="2"/>
<path d="M478,295z" fill="none" stroke="#ff0000" stroke-width="2"/>
<path d="M478,295z" fill="none" stroke="#ff0000" stroke-width="2"/>
<path d="M479,295z" fill="none" stroke="#ff0000" stroke-width="2"/>
<path d="M284,94v 3l 1, 3v 3l 1, 3v 6l 1, 3v 3l 1, 3v 5l 1, 3v 3l 1, 2v 5l 1, 3v 2l 1, 3v 4l 1, 2v 5l 1, 2v 2l 1, 2v 4l 1, 2v 2l 1, 2v 4l 1, 2v 2l 1, 2v 3l 1, 2v 2l 1, 1v 3l 1, 2v 2l 1, 1v 3l 1, 1v 2l 1, 1v 3l 1, 2v 1l 1, 1v 3l 1, 1v 1l 1, 1v 3l 1,
 1v 1l 1, 1v 2l 1, 1v 2l 1, 2l 1, 2v 1l 1, 1v 1l 1, 1v 2l 1, 1l 1, 1v 2l 1, 1l 1, 1v 2l 1, 1l 1, 1v 1l 1, 1v 1h 1v 2h 1v 1l 1, 1v 1h 1v 1h 1v 1l 1, 1l 1, 1v 1h 1v 1l 1, 1l 1, 1l 1, 1v 1h 1v 1h 1v 1h 1v 1h 1l 1, 1l 1, 1l 1, 1h 1v 1h 1v 1h 2v 1h 1v 1h
 1l 1, 1h 1l 1, 1h 1v 1h 2l 1, 1h 1v 1h 3v 1h 2v 1h 3v 1h 2l 1, 1h 3l 1, 1h 3v 1h 6v 1h 4l 1, 1h 9l 1, 1h 9l 1, 1h 30v 1h 45" fill="none" stroke="#ff0000" stroke-width="2"/>
<path d="M57,295h 453" fill="none" stroke="black"/>
<text x="436" y="317" fill="black" font-size="11" font-family="Helvetica">
TDC-TDC0 (ns)
</text>
<path d="M57,287v 8" fill="none" stroke="black"/>
<path d="M68,291v 4" fill="none" stroke="black"/>
<path d="M79,291v 4" fill="none" stroke="black"/>
<path d="M91,291v 4" fill="none" stroke="black"/>
<path d="M102,291v 4" fill="none" stroke="black"/>
<path d="M113,287v 8" fill="none" stroke="black"/>
<path d="M125,291v 4" fill="none" stroke="black"/>
<path d="M136,291v 4" fill="none" stroke="black"/>
<path d="M147,291v 4" fill="none" stroke="black"/>
<path d="M159,291v 4" fill="none" stroke="black"/>
<path d="M170,287v 8" fill="none" stroke="black"/>
<path d="M181,291v 4" fill="none" stroke="black"/>
<path d="M193,291v 4" fill="none" stroke="black"/>
<path d="M204,291v 4" fill="none" stroke="black"/>
<path d="M215,291v 4" fill="none" stroke="black"/>
<path d="M227,287v 8" fill="none" stroke="black"/>
<path d="M238,291v 4" fill="none" stroke="black"/>
<path d="M249,291v 4" fill="none" stroke="black"/>
<path d="M261,291v 4" fill="none" stroke="black"/>
<path d="M272,291v 4" fill="none" stroke="black"/>
<path d="M283,287v 8" fill="none" stroke="black"/>
<path d="M295,291v 4" fill="none" stroke="black"/>
<path d="M306,291v 4" fill="none" stroke="black"/>
<path d="M317,291v 4" fill="none" stroke="black"/>
<path d="M329,291v 4" fill="none" stroke="black"/>
<path d="M340,287v 8" fill="none" stroke="black"/>
<path d="M351,291v 4" fill="none" stroke="black"/>
<path d="M363,291v 4" fill="none" stroke="black"/>
<path d="M374,291v 4" fill="none" stroke="black"/>
<path d="M386,291v 4" fill="none" stroke="black"/>
<path d="M397,287v 8" fill="none" stroke="black"/>
<path d="M408,291v 4" fill="none" stroke="black"/>
<path d="M420,291v 4" fill="none" stroke="black"/>
<path d="M431,291v 4" fill="none" stroke="black"/>
<path d="M442,291v 4" fill="none" stroke="black"/>
<path d="M454,287v 8" fill="none" stroke="black"/>
<path d="M465,291v 4" fill="none" stroke="black"/>
<path d="M476,291v 4" fill="none" stroke="black"/>
<path d="M488,291v 4" fill="none" stroke="black"/>
<path d="M499,291v 4" fill="none" stroke="black"/>
<path d="M510,287v 8" fill="none" stroke="black"/>
<text x="40" y="306" fill="black" font-size="11" font-family="Helvetica">
-20000
</text>
<text x="97" y="306" fill="black" font-size="11" font-family="Helvetica">
-15000
</text>
<text x="153" y="306" fill="black" font-size="11" font-family="Helvetica">
-10000
</text>
<text x="213" y="306" fill="black" font-size="11" font-family="Helvetica">
-5000
</text>
<text x="281" y="306" fill="black" font-size="11" font-family="Helvetica">
0
</text>
<text x="328" y="306" fill="black" font-size="11" font-family="Helvetica">
5000
</text>
<text x="382" y="306" fill="black" font-size="11" font-family="Helvetica">
10000
</text>
<text x="439" y="306" fill="black" font-size="11" font-family="Helvetica">
15000
</text>
<text x="495" y="306" fill="black" font-size="11" font-family="Helvetica">
20000
</text>
<path d="M57,295v -262" fill="none" stroke="black"/>
<g transform="rotate(-90,29,61)">
<text x="29" y="61" fill="black" font-size="11" font-family="Helvetica">
Count
</text>
</g>
<path d="M70,295h -13" fill="none" stroke="black"/>
<path d="M63,289h -6" fill="none" stroke="black"/>
<path d="M63,284h -6" fill="none" stroke="black"/>
<path d="M63,278h -6" fill="none" stroke="black"/>
<path d="M63,272h -6" fill="none" stroke="black"/>
<path d="M70,266h -13" fill="none" stroke="black"/>
<path d="M63,260h -6" fill="none" stroke="black"/>
<path d="M63,255h -6" fill="none" stroke="black"/>
<path d="M63,249h -6" fill="none" stroke="black"/>
<path d="M63,243h -6" fill="none" stroke="black"/>
<path d="M70,237h -13" fill="none" stroke="black"/>
<path d="M63,231h -6" fill="none" stroke="black"/>
<path d="M63,226h -6" fill="none" stroke="black"/>
<path d="M63,220h -6" fill="none" stroke="black"/>
<path d="M63,214h -6" fill="none" stroke="black"/>
<path d="M70,208h -13" fill="none" stroke="black"/>
<path d="M63,202h -6" fill="none" stroke="black"/>
<path d="M63,196h -6" fill="none" stroke="black"/>
<path d="M63,191h -6" fill="none" stroke="black"/>
<path d="M63,185h -6" fill="none" stroke="black"/>
<path d="M70,179h -13" fill="none" stroke="black"/>
<path d="M63,173h -6" fill="none" stroke="black"/>
<path d="M63,167h -6" fill="none" stroke="black"/>
<path d="M63,162h -6" fill="none" stroke="black"/>
<path d="M63,156h -6" fill="none" stroke="black"/>
<path d="M70,150h -13" fill="none" stroke="black"/>
<path d="M63,144h -6" fill="none" stroke="black"/>
<path d="M63,138h -6" fill="none" stroke="black"/>
<path d="M63,133h -6" fill="none" stroke="black"/>
<path d="M63,127h -6" fill="none" stroke="black"/>
<path d="M70,121h -13" fill="none" stroke="black"/>
<path d="M63,115h -6" fill="none" stroke="black"/>
<path d="M63,109h -6" fill="none" stroke="black"/>
<path d="M63,104h -6" fill="none" stroke="black"/>
<path d="M63,98h -6" fill="none" stroke="black"/>
<path d="M70,92h -13" fill="none" stroke="black"/>
<path d="M63,86h -6" fill="none" stroke="black"/>
<path d="M63,80h -6" fill="none" stroke="black"/>
<path d="M63,75h -6" fill="none" stroke="black"/>
<path d="M63,69h -6" fill="none" stroke="black"/>
<path d="M70,63h -13" fill="none" stroke="black"/>
<path d="M63,57h -6" fill="none" stroke="black"/>
<path d="M63,51h -6" fill="none" stroke="black"/>
<path d="M63,45h -6" fill="none" stroke="black"/>
<path d="M63,40h -6" fill="none" stroke="black"/>
<path d="M70,34h -13" fill="none" stroke="black"/>
<path d="M70,34h -13" fill="none" stroke="black"/>
<text x="48" y="299" fill="black" font-size="11" font-family="Helvetica">
0
</text>
<text x="48" y="270" fill="black" font-size="11" font-family="Helvetica">
5
</text>
<text x="42" y="241" fill="black" font-size="11" font-family="Helvetica">
10
</text>
<text x="42" y="212" fill="black" font-size="11" font-family="Helvetica">
15
</text>
<text x="42" y="183" fill="black" font-size="11" font-family="Helvetica">
20
</text>
<text x="42" y="154" fill="black" font-size="11" font-family="Helvetica">
25
</text>
<text x="42" y="125" fill="black" font-size="11" font-family="Helvetica">
30
</text>
<text x="42" y="96" fill="black" font-size="11" font-family="Helvetica">
35
</text>
<text x="42" y="67" fill="black" font-size="11" font-family="Helvetica">
40
</text>
<text x="42" y="38" fill="black" font-size="11" font-family="Helvetica">
45
</text>
<rect x="442" y="22" width="114" height="39" fill="white"/>
<path d="M442,61h 114" fill="none" stroke="black"/>
<path d="M556,61v -39" fill="none" stroke="black"/>
<path d="M556,22h -114" fill="none" stroke="black"/>
<path d="M442,22v 39" fill="none" stroke="black"/>
<text x="448" y="27" fill="black" font-size="6" font-family="Helvetica">
Entries 
</text>
<text x="536" y="27" fill="black" font-size="6" font-family="Helvetica">
 4736
</text>
<text x="453" y="33" fill="black" font-size="6" font-family="Helvetica">
 / ndf 
</text>
<text x="451" y="31" fill="black" font-size="4" font-family="Helvetica">
2
</text>
<text x="448" y="33" fill="black" font-size="6" font-family="Times">
&#0967;
</text>
<text x="518" y="33" fill="black" font-size="6" font-family="Helvetica">
 753.8 / 1243
</text>
<text x="455" y="39" fill="black" font-size="6" font-family="Helvetica">
   
</text>
<text x="452" y="41" fill="black" font-size="4" font-family="Helvetica">
cu
</text>
<text x="448" y="39" fill="black" font-size="6" font-family="Helvetica">
N
</text>
<text x="531" y="40" fill="black" font-size="6" font-family="Helvetica">
 2.3248
</text>
<text x="528" y="40" fill="black" font-size="6" font-family="Times">
&#0177;
</text>
<text x="508" y="40" fill="black" font-size="6" font-family="Helvetica">
 0.6756 
</text>
<text x="454" y="45" fill="black" font-size="6" font-family="Helvetica">
 
</text>
<text x="450" y="47" fill="black" font-size="4" font-family="Helvetica">
cu
</text>
<text x="448" y="45" fill="black" font-size="6" font-family="Times">
&#0964;
</text>
<text x="531" y="46" fill="black" font-size="6" font-family="Helvetica">
 1635.8
</text>
<text x="528" y="46" fill="black" font-size="6" font-family="Times">
&#0177;
</text>
<text x="511" y="46" fill="black" font-size="6" font-family="Helvetica">
  1455 
</text>
<text x="453" y="52" fill="black" font-size="6" font-family="Helvetica">
    
</text>
<text x="452" y="54" fill="black" font-size="4" font-family="Helvetica">
f
</text>
<text x="448" y="52" fill="black" font-size="6" font-family="Helvetica">
N
</text>
<text x="538" y="53" fill="black" font-size="6" font-family="Helvetica">
 1.86
</text>
<text x="534" y="53" fill="black" font-size="6" font-family="Times">
&#0177;
</text>
<text x="519" y="53" fill="black" font-size="6" font-family="Helvetica">
 34.81 
</text>
<text x="451" y="58" fill="black" font-size="6" font-family="Helvetica">
 
</text>
<text x="450" y="60" fill="black" font-size="4" font-family="Helvetica">
f
</text>
<text x="448" y="58" fill="black" font-size="6" font-family="Times">
&#0964;
</text>
<text x="541" y="59" fill="black" font-size="6" font-family="Helvetica">
 0.0
</text>
<text x="538" y="59" fill="black" font-size="6" font-family="Times">
&#0177;
</text>
<text x="521" y="59" fill="black" font-size="6" font-family="Helvetica">
  2197 
</text>
<text x="114" y="16" fill="black" font-size="15" font-family="Helvetica">
0.5mm_Aluminium_combined_0.5mm_Aluminium
</text></svg>
