<?xml version="1.0" standalone="no"?>
<svg width="567" height="433" viewBox="0 0 567 433" xmlns="http://www.w3.org/2000/svg">
<title>
/Users/scook/code/MuSIC/offline_analysis_music5/MuSIC5_offline_analysis/MuSIC5_offline_analysis/scripts/images/raw_data_455_d1_no_tdc0_subtraction_red_blue_is tdc0_subtracted_no_bin_ps_adjustment.svg
</title>
<desc>
Creator: ROOT Version 5.34/05
CreationDate: Tue Jun 11 15:16:14 2013</desc>
<defs>
</defs>
<rect x="0" y="0" width="567" height="433" fill="white"/>
<rect x="56" y="25" width="454" height="364" fill="white"/>
<rect x="56" y="25" width="454" height="364" fill="none" stroke="black"/>
<rect x="56" y="25" width="454" height="364" fill="white"/>
<rect x="56" y="25" width="454" height="364" fill="none" stroke="black"/>
<path d="M56,381h 1v -34v 16h 1v -10v 14h 1v -16v 20h 1v -29h 1v 15h 1v 2h 1v -21h 1v -12h 1v 23h 1v -13v 25v -12h 1v 2v -9h 1v 29v -12h 1v 6h 1v -4v 4h 1v 10v -16v 8h 1v -29h 1v 21h 1v -23v 15h 1v -11v 2h 1v -24v 14h 1v 17v -13h 1v 31h 1v -8h 1v 8h
 1v 12h 1v -10v 12v -8h 1v -22v 10h 1v -10v 10h 1v -14v 14h 1v -27h 1v 6v -10h 1v 29v -19h 1v 29v -4h 1v 14v -6h 1v 6v -12h 1v 2v -20v 20h 1v -14v 10h 1v -16v 8h 1v 20h 1v -26v 2h 1v -19v 13h 1v -7v 7h 1v 8v -15h 1v 27v -6h 1v -6v 8h 1v 10h 1v -8v 8h
 1v -12h 1v 2v -27h 1v 23v -8h 1v -41v 20h 1v 23v -29h 1v -2v 25h 1v -9h 1v 13h 1v 18v -2h 1v -16v 24h 1v -28v 24h 1v 2v -4h 1v -14h 1v 20h 1v -33v 9v -2h 1v -21h 1v -10v 37h 1v -33v 41h 1v -16v 8h 1v 28v -2h 1v -18v 6h 1v -6h 1v -4v 8h 1v -8v 12h 1v
 -22v 32v -22h 1v 6v -35h 1v 19v -13h 1v -2v 6h 1v -18v 20h 1v -2v 33h 1v -18v 24h 1v -28v 20h 1v -16h 1v 10h 1v -10v 10h 1v 8v -2h 1v -24h 1v -23v 4h 1v -2v 4h 1v 8v -2h 1v 23v -4h 1v 8v -2h 1v -4v 12h 1v -12v 10h 1v -16v 20h 1v -16v 30h 1v -20v 10h
 1v -31h 1v 15v -19h 1v -18v 14h 1v -18v 24h 1v -8v 25h 1v 2h 1v 10h 1v -18v 4h 1v -15v 13v -4h 1v -4v 28h 1v -10h 1v -14v 2h 1v -27h 1v 25v -33v 24h 1v -22h 1v 49h 1v 2v -10h 1v 14v -35h 1v 41v -22h 1v 16h 1v -12v 2h 1v 2v -2h 1v -23h 1v -22h 1v -2v
 22v -6h 1v -10h 1v 18h 1v 21h 1v -16h 1v 30v -20h 1v 20h 1v -16v 2h 1v -14v 18h 1v -14v 4h 1v -13h 1v -24v 22h 1v 13h 1v 2v -6h 1v 12v -6h 1v -10v 28h 1v -10h 1v 4v -2h 1v 2v -18h 1v 4h 1v 16v -31h 1v -12h 1v 10h 1v -6v 2h 1v 19h 1v -9v 17h 1v 6h 1v
 -18v 12h 1v -8h 1v 24v -2h 1v -8v 10h 1v -28h 1v -25h 1v -18v 28h 1v -6h 1v 8v -20h 1v 53h 1v -12v 12h 1v -4h 1v -18h 1v 6v -2h 1v 24h 1v -33h 1v 11h 1v -27v 16h 1v 5v -21h 1v -14v 47h 1v 2v -10h 1v -4v 16h 1v -19v 21h 1v -16v 20h 1v -29v 33h 1v
 -37h 1v 19v -6h 1v -7h 1v 5v -21h 1v 27v -31h 1v 33h 1v -4v 16h 1v -16h 1v 22h 1v -2h 1v -6v 4v -6h 1v -14h 1v 8v -8h 1v 2v -21h 1v 23v -9h 1v -26v 24h 1v 21h 1v -12v 4h 1v 18h 1v -12h 1v 6v -25h 1v 29h 1v -12h 1v -8h 1v 6h 1v -43v 20h 1v 2v -8h 1v
 21h 1v 8v -4h 1v 18v -6h 1v 8v -12v 4h 1v -18v 28h 1v -16h 1v 10v -8h 1v 8v -8h 1v -27v 19h 1v -29v 18h 1v -22h 1v 37v -43h 1v 47h 1v -12v 14h 1v 14v -14h 1v 4h 1v -14h 1v 20h 1v -16v 6h 1v -21v 5v -9h 1v 13v -15h 1v -10h 1v 21v -3h 1v 11v -2h 1v
 20v -4h 1v 4v -6h 1v -18h 1v 24h 1v 6v -24h 1v 24v -10h 1v -18v 2h 1v -13v 15h 1v -31v 4h 1v 33h 1v -25v 13h 1v 30h 1v -28v 12h 1v -14v 14h 1v 8v -16h 1v -11h 1v 13v -29h 1v 10h 1v 21v -25h 1v 17h 1v -27h 1v 45v -10h 1v 4v -12h 1v 20h 1v 8v -28h 1v
 -9v 29h 1v -18h 1v 28v -24h 1v 12v -6h 1v -31h 1v -12h 1v -2v 35h 1v -15v 2h 1v 27v -10h 1v 16h 1v 4v -12h 1v 14v -26h 1v 4h 1v 2v -15h 1v 33h 1v -39h 1v -6v 31h 1v -16v 6h 1v 10v -21h 1v 31v -14h 1v 10v -8h 1v 6v -18h 1v 24v -20h 1v 6h 1v 8v -12h
 1v 8v -19h 1v -12v 23h 1v -27v 8v -14h 1v 31h 1v -41v 45h 1v 16v -14h 1v 6h 2v 8v -18h 1v 8v -35h 1v 37h 1v 4h 1v 2v -37v 19h 1v -25v 2h 1v -4h 1v 37h 1v -12v 6h 1v -15v 27v -4h 1v -25h 1v 25h 1v 6h 1v -22h 1v 24v -29h 1v -6v 13h 1v -9h 1v 2v -26h
 1v 37v -2h 1v 16v -8h 1v 12v -16h 1v 14v -10h 1v -4v 18h 1v -12h 1v -4v 4h 1v -6v 14h 1v -27h 1v 5v -5h 1v -20v 14h 1v 9h 1v 2v -2v 6h 1v 28v -18h 1v 12h 1v -18h 1v 12v -6h 1v 12v -31v 15h 1v 4v -6h 1v 4v -25h 1v 4v -6h 1v -6v 21h 1v -37v 35h 1v 18h
 1v 16v -20h 1v 10h 1v -31h 1v 33v -4h 1v -20h 1v 8h 1v -15v 9h 1v -31h 1v -6v 33h 1v 2v -17h 1v 45h 1v -2h 1v -14v 10h 1v -16h 1v 16v -10v 8h 1v -2h 1v 8v -35h 1v 31h 1v -35v 17h 1v -54v 31h 1v 14v -2h 1v 23v -12h 1v 18v -20h 1v 26h 1v -12v 2h 1v
 -12h 1v 18v -6h 1v 18h 1v -41h 1v -2v 11h 1v -45v 28h 1v -2v 10h 1v -2v 7h 1v 22v -29h 1v 35v -10h 1v 10v -16h 1v 22v -30h 1v 18h 1v -33h 1v 29h 1v -39v 12v -34h 1v 43v -11h 1v 2v -6h 1v 25h 1v 14v -22h 1v 26v -2h 1v 6v -24h 1v 8h 1v -8v 6h 1v 16v
 -26h 1v 4v -13h 1v 15v -10h 1v -13v 8h 1v -14v 14h 1v 17h 1v -8v 16h 1v 8v -14h 1v 18h 1v -20v 10h 1v -16h 1v 20v -14h 1v -12v 2h 1v -15h 1v -28v 14h 1v 37h 1v -35v 43v -20h 1v 28v -8h 1v 10v -18h 1v 14h 1v -6h 1v 4h 1v -24v 28h 1v -49h 1v -2v 8h 1v
 19v -13h 1v -28v 22h 1v -2v 23h 1v -6h 1v 8v -13h 1v 31v -8h 1v -8v 4h 1v 12v -12h 1v 8v -6h 1v 12h 1v -53h 1v 39h 1v -29v 10h 1v 7v -5h 1v 25h 1v 8h 1v -16h 1v 12v -2h 1v -18v 12h 1v 24h 1v -42v 4h 1v -27h 1v 20h 1v -24v 20h 2v 45v -34h 1v 16h 1v
 4v -6h 1v 10v -6h 1v 6v -26h 1v 18v -4h 1v -10h 1v -13h 1v -6v 8v -4h 1v -30v 20h 1v 37h 1v -2v 6h 1v -6v 12h 1v -4v 4v -10h 1v -18v 24h 1v -16v 10h 1v -14h 1v 2v -4h 1v -11v 17h 1v -17h 1v -10v 14h 1v -6v 13h 1v 12v -8h 1v 16v -22v 18h 1v -2v 10h
 1v -8v 4h 1v -8v 6h 1v -23v 33h 1v -14v 6h 1v -57h 1v 22v -2h 1v -18h 1v 12v -16h 1v 26" fill="none" stroke="#000099"/>
<rect x="442" y="28" width="114" height="69" fill="white"/>
<path d="M442,97h 114" fill="none" stroke="black"/>
<path d="M556,97v -69" fill="none" stroke="black"/>
<path d="M556,28h -114" fill="none" stroke="black"/>
<path d="M442,28v 69" fill="none" stroke="black"/>
<text x="494" y="41" fill="black" font-size="15" font-family="Helvetica">
h
</text>
<path d="M442,45h 114" fill="none" stroke="black"/>
<text x="448" y="57" fill="black" font-size="11" font-family="Helvetica">
Entries 
</text>
<text x="505" y="57" fill="black" font-size="11" font-family="Helvetica">
 516737
</text>
<text x="448" y="74" fill="black" font-size="11" font-family="Helvetica">
Mean  
</text>
<text x="487" y="74" fill="black" font-size="11" font-family="Helvetica">
 6.779e+05
</text>
<text x="448" y="92" fill="black" font-size="11" font-family="Helvetica">
RMS   
</text>
<text x="487" y="92" fill="black" font-size="11" font-family="Helvetica">
 2.869e+04
</text>
<path d="M56,389h 454" fill="none" stroke="black"/>
<path d="M65,379v 10" fill="none" stroke="black"/>
<path d="M74,384v 5" fill="none" stroke="black"/>
<path d="M83,384v 5" fill="none" stroke="black"/>
<path d="M92,384v 5" fill="none" stroke="black"/>
<path d="M101,384v 5" fill="none" stroke="black"/>
<path d="M110,379v 10" fill="none" stroke="black"/>
<path d="M119,384v 5" fill="none" stroke="black"/>
<path d="M128,384v 5" fill="none" stroke="black"/>
<path d="M138,384v 5" fill="none" stroke="black"/>
<path d="M147,384v 5" fill="none" stroke="black"/>
<path d="M156,379v 10" fill="none" stroke="black"/>
<path d="M165,384v 5" fill="none" stroke="black"/>
<path d="M174,384v 5" fill="none" stroke="black"/>
<path d="M183,384v 5" fill="none" stroke="black"/>
<path d="M192,384v 5" fill="none" stroke="black"/>
<path d="M201,379v 10" fill="none" stroke="black"/>
<path d="M211,384v 5" fill="none" stroke="black"/>
<path d="M220,384v 5" fill="none" stroke="black"/>
<path d="M229,384v 5" fill="none" stroke="black"/>
<path d="M238,384v 5" fill="none" stroke="black"/>
<path d="M247,379v 10" fill="none" stroke="black"/>
<path d="M256,384v 5" fill="none" stroke="black"/>
<path d="M265,384v 5" fill="none" stroke="black"/>
<path d="M274,384v 5" fill="none" stroke="black"/>
<path d="M283,384v 5" fill="none" stroke="black"/>
<path d="M293,379v 10" fill="none" stroke="black"/>
<path d="M302,384v 5" fill="none" stroke="black"/>
<path d="M311,384v 5" fill="none" stroke="black"/>
<path d="M320,384v 5" fill="none" stroke="black"/>
<path d="M329,384v 5" fill="none" stroke="black"/>
<path d="M338,379v 10" fill="none" stroke="black"/>
<path d="M347,384v 5" fill="none" stroke="black"/>
<path d="M356,384v 5" fill="none" stroke="black"/>
<path d="M366,384v 5" fill="none" stroke="black"/>
<path d="M375,384v 5" fill="none" stroke="black"/>
<path d="M384,379v 10" fill="none" stroke="black"/>
<path d="M393,384v 5" fill="none" stroke="black"/>
<path d="M402,384v 5" fill="none" stroke="black"/>
<path d="M411,384v 5" fill="none" stroke="black"/>
<path d="M420,384v 5" fill="none" stroke="black"/>
<path d="M429,379v 10" fill="none" stroke="black"/>
<path d="M438,384v 5" fill="none" stroke="black"/>
<path d="M448,384v 5" fill="none" stroke="black"/>
<path d="M457,384v 5" fill="none" stroke="black"/>
<path d="M466,384v 5" fill="none" stroke="black"/>
<path d="M475,379v 10" fill="none" stroke="black"/>
<path d="M65,379v 10" fill="none" stroke="black"/>
<path d="M475,379v 10" fill="none" stroke="black"/>
<path d="M484,384v 5" fill="none" stroke="black"/>
<path d="M493,384v 5" fill="none" stroke="black"/>
<path d="M502,384v 5" fill="none" stroke="black"/>
<text x="52" y="404" fill="black" font-size="14" font-family="Helvetica">
630
</text>
<text x="98" y="404" fill="black" font-size="14" font-family="Helvetica">
640
</text>
<text x="143" y="404" fill="black" font-size="14" font-family="Helvetica">
650
</text>
<text x="189" y="404" fill="black" font-size="14" font-family="Helvetica">
660
</text>
<text x="234" y="404" fill="black" font-size="14" font-family="Helvetica">
670
</text>
<text x="280" y="404" fill="black" font-size="14" font-family="Helvetica">
680
</text>
<text x="326" y="404" fill="black" font-size="14" font-family="Helvetica">
690
</text>
<text x="371" y="404" fill="black" font-size="14" font-family="Helvetica">
700
</text>
<text x="417" y="404" fill="black" font-size="14" font-family="Helvetica">
710
</text>
<text x="462" y="404" fill="black" font-size="14" font-family="Helvetica">
720
</text>
<text x="538" y="377" fill="black" font-size="9" font-family="Helvetica">
3
</text>
<text x="521" y="389" fill="black" font-size="14" font-family="Helvetica">
10
</text>
<text x="512" y="389" fill="black" font-size="14" font-family="Times">
&#0215;
</text>
<path d="M56,389v -364" fill="none" stroke="black"/>
<path d="M71,371h -15" fill="none" stroke="black"/>
<path d="M64,361h -8" fill="none" stroke="black"/>
<path d="M64,351h -8" fill="none" stroke="black"/>
<path d="M64,340h -8" fill="none" stroke="black"/>
<path d="M71,330h -15" fill="none" stroke="black"/>
<path d="M64,320h -8" fill="none" stroke="black"/>
<path d="M64,310h -8" fill="none" stroke="black"/>
<path d="M64,299h -8" fill="none" stroke="black"/>
<path d="M71,289h -15" fill="none" stroke="black"/>
<path d="M64,279h -8" fill="none" stroke="black"/>
<path d="M64,269h -8" fill="none" stroke="black"/>
<path d="M64,259h -8" fill="none" stroke="black"/>
<path d="M71,248h -15" fill="none" stroke="black"/>
<path d="M64,238h -8" fill="none" stroke="black"/>
<path d="M64,228h -8" fill="none" stroke="black"/>
<path d="M64,218h -8" fill="none" stroke="black"/>
<path d="M71,207h -15" fill="none" stroke="black"/>
<path d="M64,197h -8" fill="none" stroke="black"/>
<path d="M64,187h -8" fill="none" stroke="black"/>
<path d="M64,177h -8" fill="none" stroke="black"/>
<path d="M71,166h -15" fill="none" stroke="black"/>
<path d="M64,156h -8" fill="none" stroke="black"/>
<path d="M64,146h -8" fill="none" stroke="black"/>
<path d="M64,136h -8" fill="none" stroke="black"/>
<path d="M71,126h -15" fill="none" stroke="black"/>
<path d="M64,115h -8" fill="none" stroke="black"/>
<path d="M64,105h -8" fill="none" stroke="black"/>
<path d="M64,95h -8" fill="none" stroke="black"/>
<path d="M71,85h -15" fill="none" stroke="black"/>
<path d="M64,74h -8" fill="none" stroke="black"/>
<path d="M64,64h -8" fill="none" stroke="black"/>
<path d="M64,54h -8" fill="none" stroke="black"/>
<path d="M71,44h -15" fill="none" stroke="black"/>
<path d="M71,371h -15" fill="none" stroke="black"/>
<path d="M64,381h -8" fill="none" stroke="black"/>
<path d="M71,44h -15" fill="none" stroke="black"/>
<path d="M64,33h -8" fill="none" stroke="black"/>
<text x="37" y="375" fill="black" font-size="14" font-family="Helvetica">
20
</text>
<text x="37" y="334" fill="black" font-size="14" font-family="Helvetica">
40
</text>
<text x="37" y="293" fill="black" font-size="14" font-family="Helvetica">
60
</text>
<text x="37" y="253" fill="black" font-size="14" font-family="Helvetica">
80
</text>
<text x="28" y="212" fill="black" font-size="14" font-family="Helvetica">
100
</text>
<text x="28" y="171" fill="black" font-size="14" font-family="Helvetica">
120
</text>
<text x="28" y="130" fill="black" font-size="14" font-family="Helvetica">
140
</text>
<text x="28" y="89" fill="black" font-size="14" font-family="Helvetica">
160
</text>
<text x="28" y="48" fill="black" font-size="14" font-family="Helvetica">
180
</text>
<rect x="442" y="28" width="114" height="69" fill="white"/>
<path d="M442,97h 114" fill="none" stroke="black"/>
<path d="M556,97v -69" fill="none" stroke="black"/>
<path d="M556,28h -114" fill="none" stroke="black"/>
<path d="M442,28v 69" fill="none" stroke="black"/>
<text x="494" y="41" fill="black" font-size="15" font-family="Helvetica">
h
</text>
<path d="M442,45h 114" fill="none" stroke="black"/>
<text x="448" y="57" fill="black" font-size="11" font-family="Helvetica">
Entries 
</text>
<text x="505" y="57" fill="black" font-size="11" font-family="Helvetica">
 516737
</text>
<text x="448" y="74" fill="black" font-size="11" font-family="Helvetica">
Mean  
</text>
<text x="487" y="74" fill="black" font-size="11" font-family="Helvetica">
 6.779e+05
</text>
<text x="448" y="92" fill="black" font-size="11" font-family="Helvetica">
RMS   
</text>
<text x="487" y="92" fill="black" font-size="11" font-family="Helvetica">
 2.869e+04
</text>
<path d="M56,349h 1v -21v 8h 1v 27h 1v -14h 1v -11v 31h 1v -27v 19h 1v -25v 21h 1v -23h 1v 19h 1v -25v 14h 1v -12v 25h 1v -4v 14h 1v -21v 27h 1v -33h 1v 33v -10h 1v -8v 4v -13h 1v 15h 1v -19v 7h 1v -13v 13h 1v -27v 14h 1v 21v -15h 1v 13h 1v -11h 1v
 23h 1v -27h 1v 19h 1v 4v -2h 1v -12h 1v -11v 11h 1v -35h 1v 35v -9h 1v 19v -10v 12h 1v -25v 13h 1v 6v -11h 1v 13v -4h 1v -9h 1v -6v 27v -8h 1v 4v -35h 1v 33h 1v -35v 10h 1v 39h 1v -47v 10h 1v 15v -11h 1v 17h 1v 14v -27h 1v 2v -6h 1v 33v -31h 1v 29v
 -14h 1v 10v -8h 1v -17v 2h 1v -4v 11h 1v -37v 45h 1v -27h 1v -10v 4h 1v 20v -10h 1v 31v -8h 1v 2v -6h 1v -9v 15v -21h 1v 17v -11h 1v 11v -15h 1v -6h 1v -8h 1v 43v -47h 1v 14h 1v -24v 16h 1v -14h 1v 35v -2h 1v 12v -27h 1v 15v -7h 1v 13v -2h 1v -19v
 6h 1v 17h 1v -31v 16v -4h 1v -8v 10h 1v -24h 1v 18v -8h 1v 12v -28h 1v 34v -6h 1v -20v 31h 1v -11h 1v 15v -25h 1v 33v -23h 1v -4v 8h 1v -14h 1v -2v 10h 1v -8v 12h 1v -20h 1v -4v 26h 1v -28v 26v -16h 1v 16v -6h 1v 17v -7h 1v -6v 6h 1v -24v 26h 1v 5v
 -21h 1v 10v -12h 1v 6v -33h 1v 37h 1v -37v 21h 1v -10v 12v -27h 1v 25v -4h 1v -59h 1v -138h 1v -22v 2h 1v 10v -8h 1v 53v -12h 1v 104h 1v 64h 1v 57v -18h 1v -76h 1v -90h 1v -29v 4h 1v -67h 1v -23v 31h 1v -37v 51v -2h 1v 21v -35h 1v 33v -2h 1v -52h 1v
 54h 1v 24v -10h 1v -10v 22h 1v -37v 7h 1v 36h 1v 39h 1v -26v 20h 1v -37v 33v -25h 1v -40v 65h 1v 12v -47h 1v 13v -3h 1v -6h 1v 17v -51v 57h 1v -37h 1v 57h 1v -18v 4h 1v -49v 53h 1v -12v 28v -53h 1v 37v -6h 1v -8v 35h 1v -41h 1v 30v -16h 1v -8v 14h
 1v -12h 1v -27h 1v 43v -10h 1v -18v 36h 1v -2v 15v -17h 1v 39v -39h 1v 15v -31h 1v 37v -72h 1v 51h 1v 29h 1v -59v 26v -26h 1v -2v 22h 1v 4v -41h 1v -6v 43h 1v -31v 70h 1v -31v 19v -39h 1v 57v -18h 1v -72h 1v 57v -4h 1v 39h 1v -59v 49h 1v -74h 1v 41v
 -8h 1v -10v 24h 1v 4v -69h 1v 69v -16h 1v 33h 1v -17h 1v 17v -39h 1v 31v -60h 1v 49v -6h 1v 12v -16h 1v -10v 28h 1v 3v -17h 1v 29h 1v -53v 26h 1v -8v 41h 1v -41v 33h 1v -43v 71h 1v -43h 1v 27h 1v -43v 21v -11h 1v -10v 45h 1v -16v 2h 1v -27v 12h 1v
 2v -10h 1v -26v 49v -53h 1v 75h 1v -75h 1v 59h 1v -35v 29h 1v 12v -57h 1v 80h 1v -48h 1v 31v -41h 1v 37v -45h 1v 33v -51h 1v 61v -4h 1v -59v 61h 1v 6v -4h 1v -57v 30h 1v 29v -24h 1v 18h 1v 16v -20h 1v -37h 1v 59v -30h 1v -39h 1v 43v -41h 1v 74h 1v
 -62v 49h 1v -53v 14h 1v 27h 1v 20v -26h 1v -4v 12h 1v 20v -18h 1v -39h 1v 31h 1v -41v 49h 1v -6v 6h 1v -18h 1v 16v -25h 1v -47v 76h 1v -33v 31h 1v -27v 9h 1v 32h 1v -18h 1v 25v -29h 1v 55v -82h 1v 58h 1v -50h 1v -26h 1v 45h 1v 14v -31h 1v 17v -29h
 1v 51h 1v -26h 1v 30v -18h 1v 18h 1v -20v 18v -65h 1v 57v -6h 1v -33v 35h 1v 6v -26h 1v 26v -51h 1v 70v -39h 1v 24h 1v -20v 8h 1v -43v 31h 1v 28v -34h 1v 8v -4v 14h 1v -18v 2h 1v 28v -24h 1v -12v 32h 1v -20v 12h 1v 6v -33v 62h 1v -21h 1v 5v -17h 1v
 31v -25h 1v -45h 1v 41v -8h 1v -51h 1v 82h 1v -27h 1v -16v 6h 1v 29v -39v 45h 1v -25h 1v 16v -38h 1v 6v -2h 1v 30h 1v -4v 15h 1v -25v 23v -33h 1v 55v -37h 1v -22h 1v 14v -12h 1v 28v -16h 1v 25v -33v 6h 1v 47v -67h 1v 28h 1v 19v -21h 1v -20v 51h 1v
 -43v 41h 1v -12v 18h 1v -51h 1v 22v -6h 1v -22v 26h 1v -20v 22v -28h 1v 28v -4h 1v 17v -21h 1v 21h 1v 8v -31h 1v -33v 64h 1v -43h 1v 20v -6h 1v 16v -20h 1v 41h 1v -53v 20h 1v 21h 1v -31v 12h 1v -35v 23h 1v 41h 1v -68h 1v 39v -20v 26h 1v 27v -31h 1v
 -12v 10h 1v 17v -21h 1v -2v 25h 1v 26v -51v 8h 1v -63v 69h 1v -16v 33h 1v -29h 1v 25v -33h 1v 33v -31h 1v -6v 53h 1v -20v 14h 1v -47h 1v 76v -37h 1v -21v 19h 1v -35h 1v 31v -7h 1v -28h 1v -2v 43h 1v -33v 29v -35h 1v 43h 1v 6v -25h 1v 31v -37h 1v 29v
 -10h 1v 4v -23h 1v 8h 1v -26v 49h 1v -57v 43h 1v -13h 1v 19h 1v -37v 10v -2h 1v 12v -22h 1v 49h 1v -25h 1v 13v -2h 1v 20v -35h 1v 29v -22h 1v 20v -14h 1v 18h 1v -70v 29h 1v -18v 63h 1v -26v 8h 1v 4v -8h 1v 6v -4h 1v 26v -43h 1v 37v -28v 10h 1v -13h
 1v -20h 1v 33h 1v 8v -33h 1v -2v 8v -2h 1v 27h 1v -25v 13h 1v -9h 1v 27v -27h 1v 31v -31h 1v 5v -19h 1v 61v -49h 1v 56h 1v -66h 1v 25v -29h 1v 35v -45v 37h 1v -54v 43h 1v -8v 15h 1v -19v 17h 1v 18h 1v 12h 1v -6v 8h 1v -43v 21h 1v -17v 27h 1v -37v 6h
 1v 29v -8h 1v 10v -49h 1v 37h 1v 20h 1v -41v 25h 1v 4v -2h 1v 2v -14h 1v 14v -16h 1v 20v -47h 1v 51v -18h 1v 18v -20h 1v 24v -12h 1v 8v -27h 1v 25v -37h 1v 29h 1v -6v 18v -12h 1v -10v 22h 1v -16h 1v 39v -41h 1v 6v -4h 1v 24h 1v -30v 8h 1v -19v 25h
 1v 18v -69h 1v 53v -14h 1v 14h 1v -25v 54h 1v -15h 1v 2v -18h 1v 16v -4h 1v -4h 1v 19v -7h 1v -34h 1v 2v -11h 1v 19v -14h 2v 12v -27v 62h 1v -47h 1v 45v -37h 1v 49v -19h 1v -53h 1v 23v -6v 18h 1v -8v 2h 1v 22v -24h 1v 6v -8h 1v 28h 1v -34v 8h 1v 12v
 -70h 1v 84v -20h 1v 18v -34h 1v 18v -2h 1v 14h 1v 25v -47h 1v -6v 45h 1v -25v 8h 1v -12v 4h 1v -12v 2h 1v -14v 14h 1v -4v 2h 1v 18h 1v -4v 2h 1v 8v -20h 1v 43v -41v 20h 1v -22h 1v 12v -16h 1v 26h 1v -41h 1v 23v -8v 2h 1v 8v -14h 1v -19v 35h 1v 27v
 -29h 1v 14h 1v -2v 17v -29h 1v 20v -8h 1v -2v 25h 1v -17v 5h 1v -45v 8h 1v 4v -12v 38h 1v -41h 1v 17h 1v -6v 32h 1v -43v 25h 1" fill="none" stroke="#ff0000"/>
<rect x="442" y="101" width="113" height="69" fill="white"/>
<path d="M442,170h 113" fill="none" stroke="black"/>
<path d="M555,170v -69" fill="none" stroke="black"/>
<path d="M555,101h -113" fill="none" stroke="black"/>
<path d="M442,101v 69" fill="none" stroke="black"/>
<text x="490" y="114" fill="black" font-size="15" font-family="Helvetica">
h2
</text>
<path d="M442,118h 113" fill="none" stroke="black"/>
<text x="447" y="130" fill="black" font-size="11" font-family="Helvetica">
Entries 
</text>
<text x="505" y="130" fill="black" font-size="11" font-family="Helvetica">
 516737
</text>
<text x="447" y="147" fill="black" font-size="11" font-family="Helvetica">
Mean  
</text>
<text x="501" y="147" fill="black" font-size="11" font-family="Helvetica">
 6.8e+05
</text>
<text x="447" y="165" fill="black" font-size="11" font-family="Helvetica">
RMS   
</text>
<text x="487" y="165" fill="black" font-size="11" font-family="Helvetica">
 2.524e+04
</text>
<rect x="442" y="101" width="113" height="69" fill="white"/>
<path d="M442,170h 113" fill="none" stroke="black"/>
<path d="M555,170v -69" fill="none" stroke="black"/>
<path d="M555,101h -113" fill="none" stroke="black"/>
<path d="M442,101v 69" fill="none" stroke="black"/>
<text x="490" y="114" fill="black" font-size="15" font-family="Helvetica">
h2
</text>
<path d="M442,118h 113" fill="none" stroke="black"/>
<text x="447" y="130" fill="black" font-size="11" font-family="Helvetica">
Entries 
</text>
<text x="505" y="130" fill="black" font-size="11" font-family="Helvetica">
 516737
</text>
<text x="447" y="147" fill="black" font-size="11" font-family="Helvetica">
Mean  
</text>
<text x="501" y="147" fill="black" font-size="11" font-family="Helvetica">
 6.8e+05
</text>
<text x="447" y="165" fill="black" font-size="11" font-family="Helvetica">
RMS   
</text>
<text x="487" y="165" fill="black" font-size="11" font-family="Helvetica">
 2.524e+04
</text>
<text x="276" y="24" fill="black" font-size="23" font-family="Helvetica">
h
</text></svg>
