<?xml version="1.0" standalone="no"?>
<svg width="567" height="433" viewBox="0 0 567 433" xmlns="http://www.w3.org/2000/svg">
<title>
/Users/scook/code/MuSIC/offline_analysis_music5/MuSIC5_offline_analysis/MuSIC5_offline_analysis/scripts/images/run_455_d1_tdc0_and_non_tdc0_adjusted_data.svg
</title>
<desc>
Creator: ROOT Version 5.34/05
CreationDate: Tue Jun 11 15:17:40 2013</desc>
<defs>
</defs>
<rect x="0" y="0" width="567" height="433" fill="white"/>
<rect x="56" y="25" width="454" height="364" fill="white"/>
<rect x="56" y="25" width="454" height="364" fill="none" stroke="black"/>
<rect x="56" y="25" width="454" height="364" fill="white"/>
<rect x="56" y="25" width="454" height="364" fill="none" stroke="black"/>
<path d="M56,389h 79v -9v 1v -3v 7v -3v 3v -3v 1v -2v 2v -2v 2v -3v 5v -6v 2v -2h 1v -2v 6v -4v 6v -2v 1v -5v 4v -3v 3v -6v 1v -1v 3v -1v 4v -3v 3v -2v 4v -4v 1v -3v 1h 1v 1v -6v 7v -1v 3v -3v 1v -1v 2v -2v 1v -2v 3v -7v 3v -1v 3v -1v 4v -3v 2v -1v
 3v -4h 1v 2v -7v 2v -1v 4v -4v 5v -3v 4v -3v 1v -4v 4v -4v 3v -3v 4v -2v 5v -2v 3h 1v -2v 1v -2v 2v -6v 4v -6v 2v -3v 8v -5v 4v -1v 2v -6v 3v -4v 6h 1v 3v -3v 1v -2v 1v -1v 2v -5v 5v -6v 1v -4v 7v -1v 4v -3v 2v -3v 3v -2v 2v -7v 2v -1v 1v -4v 5h 1v
 2v -3v 5v -2v 3v -2v 3v -4v 2v -2v 3v -5v 1v -6v 8v -2v 2v -2v 3v -3v 4v -5v 5v -3v 2v -6v 1h 1v 1v -1v 2v -2v 7v -5v 5v -6v 3v -4v 3v -4v 7v -1v 1v -2v 1v -2v 1v -2v 3h 1v 1v -7v 2v -2v 2v -1v 6v -3v 3v -4v 3v -3v 4v -5v 2v -4v 1v -7v 7v -3v 4v -1v
 4v -2v 5v -4v 1v -1v 3h 1v -2v 2v -2v 1v -5v 3v -7v 8v -6v 6v -4v 6v -3v 3v -4v 1v -1v 3v -4v 4v -4v 3v -9v 6v -2v 4v -3v 5v -3v 3h 1v -3v 2v -1v 2v -7v 4v -5v 9v -2v 1v -2v 1v -2v 3v -2v 2v -3v 2v -1v 3v -7v 3v -3v 4v -2h 1v 5v -3v 3v -3v 2v -7v 4v
 -2v 1v -5v 6v -2v 5v -3v 3v -3v 4v -7v 4v -6h 1v 4v -5v 9v -3v 4v -4v 2v -3v 3v -5v 3v -2v 4v -4v 6v -4v 5v -3v 3v -5v 2v -5h 1v 5v -5v 3v -3v 2v -1v 5v -3v 4v -2v 1v -1v 2v -5v 1v -2v 6v -3v 3v -3v 3v -3h 1v 2v -3v 3v -6v 4v -4v 2v -3v 6v -1v 3v
 -1v 2v -4v 1v -1v 1v -4v 3v -2v 2v -3v 2v -1v 3v -2v 3v -2h 1v -3v 7v -3v 2v -4v 3v -5v 3v -7v 5v -3v 4v -1v 4v -2v 2v -2v 2v -4v 1v -2v 4v -6v 3v -1v 1v -2v 4v -4v 2v -1v 4h 1v 1v -3v 4v -4v 4v -7v 7v -2v 2v -6v 3v -5v 8v -3v 1v -1v 1v -7v 5h 1v 1v
 -3v 6v -6v 6v -4v 3v -2v 2v -1v 3v -8v 1v -2v 9v -5v 2v -1v 3v -2v 2v -2v 1v -3h 1v -7v 7v -3v 4v -4v 4v -2v 5v -3v 4v -4v 3v -3v 2v -4v 1v -4v 6v -5v 6v -2v 3v -1v 1v -3v 3v -2v 1h 1v 1v -4v 3v -7v 5v -1v 1v -1v 5v -3v 1v -2v 1v -1v 3v -4v 1v -3v
 2v -1v 5v -1v 2v -2v 2h 1v -6v 5v -7v 2v -1v 1v -5v 10v -1v 1v -6v 7v -6v 3v -2v 1v -6v 6v -6v 5v -3v 5v -2v 3h 1v -2v 4v -7v 7v -4v 1v -5v 1v -1v 1v -2v 10v -5v 2v -1v 2v -4v 4v -3v 1v -7v 4v -3v 5v -4v 2h 1v -1v 5v -2v 2v -6v 2v -2v 4v -2v 4v -4v
 3v -2v 2v -2v 3v -6v 6v -5h 1v 1v -2v 4v -5v 5v -1v 4v -4v 4v -2v 1v -2v 2v -3v 1v -4v 4v -3v 2v -2v 3v -2v 5v -3v 2v -4v 5v -5h 1v -1v 2v -3v 3v -2v 5v -1v 1v -3v 4v -1v 2v -3v 2v -3v 1v -5v 4v -3v 1v -1v 5v -5v 5v -3h 1v 4v -4v 2v -7v 4v -5v 4v
 -1v 7v -3v 1v -2v 3v -4v 3v -4v 3v -7v 6v -1v 5v -2v 1h 1v 1v -5v 5v -3v 4v -8v 3v -5v 5v -5v 8v -2v 3v -3v 3v -3v 1v -4v 3v -6v 5v -2v 5h 1v -2v 2v -4v 7v -5v 2v -5v 4v -7v 6v -3v 5v -1v 1v -2v 2v -2v 2v -3v 2v -3v 3v -4v 3v -2v 2h 1v -6v 8v -3v 2v
 -1v 2v -2v 4v -2v 2v -4v 3v -5v 2v -1v 1v -5v 2v -1v 8v -6v 5v -2v 2v -5h 1v 3v -6v 3v -2v 5v -2v 1v -2v 5v -4v 5v -7v 2v -6v 5v -2v 5v -1v 2v -2v 3v -4h 1v 3v -2v 2v -8v 8v -8v 6v -3v 5v -3v 4v -5v 3v -1v 1v -1v 4v -6v 3v -3v 2v -3v 1v -3v 8h 1v
 -3v 2v -3v 2v -4v 3v -3v 2v -2v 6v -4v 5v -4v 1v -2v 2v -3v 1v -3v 3v -3v 7h 1v -2v 2v -3v 4v -3v 2v -5v 2v -2v 2v -3v 6v -4v 5v -7v 4v -2v 1v -8v 8v -5v 2h 1v -2v 6v -1v 2v -2v 4v -3v 2v -5v 2v -3v 2v -2v 1v -1v 2v -2v 6v -3v 3v -2v 1v -4v 4v -6h
 1v 2v -3v 3v -3v 5v -1v 4v -3v 4v -2v 1v -5v 3v -3v 2v -7v 5v -5v 7v -2v 4v -1v 1v -2v 2v -2h 1v 1v -7v 8v -2v 5v -4v 2v -2v 3v -4v 1v -3v 3v -1v 1v -4v 2v -1v 1v -1v 5v -1h 1v -2v 1v -4v 4v -5v 2v -2v 6v -5v 5v -2v 5v -4v 3v -2v 1v -7v 1v -2v 7v
 -3v 2v -1h 1v 1v -2v 5v -3v 1v -5v 2v -2v 2v -2v 1v -1v 4v -2v 1v -1v 2v -2v 6v -5v 2v -5v 3v -4v 6h 1v -5v 5v -2v 3v -2v 2v -3v 4v -8v 2v -1v 4v -7v 7v -2v 2v -4v 6v -3v 2v -4v 1v -1v 2v -1h 1v -2v 1v -1v 5v -2v 2v -2v 4v -4v 1v -8v 5v -2v 5v -1v
 2v -3v 5v -5v 3v -3v 3v -1h 1v -1v 2v -8v 3v -2v 6v -2v 5v -3v 2v -3v 3v -4v 4v -4v 1v -6v 2v -1v 7v -5v 7v -2h 1v -3v 4v -5v 3v -6v 4v -3v 7v -4v 4v -3v 1v -1v 4v -9v 7v -1v 1v -1h 1v 1v -2v 1v -2v 2v -1v 2v -3v 1v -4v 4v -8v 6v -2v 2v -1v 6v -2v
 3v -4v 2v -1v 1v -4v 2v -3v 1v -1v 2v -2v 3h 1v -1v 4v -3v 2v -4v 6v -4v 2v -7v 6v -5v 3v -1v 6v -3v 3v -4v 4v -3v 2v -2v 3v -5v 2v -4v 3h 1v -6v 6v -3v 5v -3v 3v -2v 1v -4v 2v -6v 5v -2v 6v -2v 3v -2v 2v -4v 3v -1v 1v -4v 1h 1v -4v 3v -2v 2v -1v 4v
 -2v 3v -3v 3v -3v 4v -6v 1v -2v 3v -3v 3v -2v 6v -4v 2v -3v 3v -3v 3h 1v -1v 1v -4v 4v -6v 8v -6v 4v -1v 2v -2v 3v -4v 1v -1v 2v -6v 2v -3v 7v -3v 6v -3v 1h 1v -2v 2v -3v 1v -4v 3v -4v 7v -2v 2v -5v 7v -6v 5v -5v 2v -6v 5v -2v 3v -3v 3h 1v 4v -2v 1v
 -1v 1v -5v 3v -1v 2v -3v 2v -5v 5v -4v 2v -1v 3v -1v 2v -3v 5v -4v 2v -4v 4v -6v 4v -5v 1h 1v 3v -3v 8v -5v 5v -3v 1v -2v 2v -1v 2v -1v 1v -4v 1v -4v 1v -5v 12v -4v 2v -3v 1v -1v 4v -3v 2v -2v 1v -2h 1v -3v 2v -1v 3v -1v 5v -5v 4v -5v 3v -7v 3v -1v
 4v -5v 3v -1v 5v -2v 4v -2v 2v -4v 1v -1h 1v 2v -5v 1v -6v 8v -2v 4v -2v 4v -3v 3v -4v 3v -3v 2v -4v 1v -2v 4v -1v 4v -5v 3v -1v 1h 1v 2v -4v 2v -3v 3v -9v 5v -1v 6v -1v 1v -5v 4v -4v 2v -3v 5v -5v 1v -3v 5v -3v 5h 1v 2v -4v 2v -2v 3v -1v 2v -5v 3v
 -6v 4v -4v 4v -1v 3v -1v 3v -3v 1v -2v 4v -8v 4v -5v 3v -1h 1v 5v -1v 4v -4v 2v -4v 1v -2v 4v -2v 2v -5v 2v -3v 3v -3v 7v -2v 1v -2v 3v -6v 2v -4h 1v 7v -2v 2v -3v 5v -2v 1v -4v 3v -2v 2v -10v 5v -4v 9v -2v 1v -2v 3v -3v 5v -5v 2h 1v -4v 2v -4v 8v
 -4v 2v -3v 7v -6v 2v -4v 2v -2v 1v -4v 3v -1v 4v -1v 5v -3v 1v -1h 1v 4v -6v 4v -6v 2v -4v 4v -4v 4v -5v 5v -1v 3v -1v 2v -2v 3v -4v 4v -3v 2v -4v 2v -3v 3v -9v 6v -2v 2v -1v 4v -1v 4v -1v 2h 1v -6v 4v -2v 3v -2v 2v -3v 2v -5v 3v -6v 5v -3v 8v -4v
 4v -4v 2v -2v 2v -4v 2v -4v 4v -4v 1v -3v 6h 1v 3v -2v 1v -4v 2v -3v 3v -2v 2v -3v 5v -5v 5v -2v 5v -5v 1v -2v 4v -7v 4v -7v 4h 1v 3v -2v 4v -1v 2v -2v 3v -6v 4v -1v 3v -4v 2v -7v 5v -6v 7v -1v 3v -5v 5v -5v 3v -1v 1v -2h 1v -5v 4v -5v 8v -2v 4v -3v
 4v -3v 1v -1v 1v -8v 4v -3v 4v -3v 7v -6v 6v -3h 1v 2v -5v 6v -7v 4v -3v 7v -4v 3v -6v 5v -7v 3v -4v 8v -1v 1v -3h 1v 3v -2v 2v -3v 5v -4v 1v -3v 2v -4v 1v -1v 4v -3v 7v -4v 4v -2v 1v -3v 2v -4v 4v -10v 5v -1v 4v -5v 7h 1v -2v 2v -1v 1v -4v 5v -5v
 1v -6v 7v -7v 11v -4v 4v -3v 2v -6v 6v -6v 2v -2h 1v 4v -2v 3v -2v 3v -3v 3v -3v 1v -5v 5v -5v 1v -1v 6v -3v 4v -1v 1v -2v 2v -6v 6v -4v 2v -5v 3v -6h 1v 4v -1v 5v -1v 4v -5v 2v -1v 1v -4v 4v -8v 6v -7v 9v -1v 3v -3v 4v -4v 3v -3v 1v -1v 1h 1v -4v
 2v -6v 4v -3v 6v -1v 3v -3v 3v -1v 3v -3v 2v -6v 3v -6v 4v -1v 3v -2v 5v -3v 4v -4h 1v 4v -3v 3v -7v 4v -6v 5v -4v 4v -2v 3v -1v 3v -3v 3v -4v 3v -4v 3v -6v 3v -2v 6v -3v 3v -2v 2h 1v -2v 4v -5v 4v -2v 1v -5v 2v -3v 3v -3v 5v -3v 6v -5v 5v -6v 5v
 -1v 1v -7v 2v -2v 3v -4v 4h 1v 4v -2v 1v -1v 1v -2v 4v -6v 4v -1v 1v -5v 2v -3v 1v -2v 7v -1v 1v -2v 2v -2v 2v -5v 3v -1h 1v -2v 3v -3v 7v -4v 3v -5v 4v -2v 2v -5v 3v -2v 2v -5v 5v -5v 3v -1v 5v -2v 2v -2v 2v -3v 2h 1v -7v 4v -1v 4v -4v 4v -1v 1v
 -3v 4v -2v 2v -3v 4v -6v 4v -5v 2v -4v 5v -2v 5v -2v 2v -2v 2v -4v 4h 1v -2v 3v -3v 1v -5v 3v -6v 7v -3v 1v -2v 6v -1v 2v -5v 3v -4v 3v -5v 3v -3v 8v -5v 4v -1h 1v 4v -4v 2v -4v 2v -6v 2v -1v 4v -5v 7v -1v 2v -4v 4v -2v 3v -7v 6v -6v 2v -3v 3v -5v
 8h 1v -2v 1v -1v 3v -3v 1v -2v 5v -3v 2v -4v 3v -5v 4v -11v 10v -2v 6v -3v 2v -3v 3v -4v 5v -5v 3v -4v 4v -7v 5v -4h 1v 1v -1v 6v -3v 3v -3v 3v -5v 3v -4v 3v -2v 5v -4v 6v -4v 3v -6v 3v -1v 3v -4h 1v 2v -4v 2v -4v 6v -2v 5v -3v 4v -5v 5v -5v 1v -3v
 4v -5v 4v -4v 7v -3v 2h 1v -4v 4v -7v 3v -5v 8v -3v 4v -2v 3v -3v 1v -6v 2v -2v 4v -1v 5v -6v 5v -4v 3h 1v 3v -5v 3v -3v 3v -8v 6v -8v 6v -1v 5v -1v 2v -3v 2v -7v 8v -2v 2h 1v -5v 1v -1v 4v -2v 1v -4v 2v -3v 4v -1v 5v -2v 1v -4v 3v -2v 2v -3v 3v -5v
 2v -3v 4v -2v 1v -5h 1v 7v -4v 5v -5v 6v -3v 3v -2v 1v -7v 2v -3v 4v -4v 9v -3v 2v -2v 3v -3v 2v -4v 2h 1v -4v 2v -2v 4v -2v 6v -4v 3v -4v 3v -1v 2v -7v 4v -3v 6v -3v 3v -5v 3h 1v -3v 4v -3v 1v -7v 10v -3v 2v -3v 2v -3v 5v -8v 5v -5v 5v -3v 7v -3v
 2h 1v -2v 1v -1v 2v -6v 2v -2v 2v -2v 3v -2v 5v -5v 4v -3v 5v -3v 2v -3v 2v -3v 2v -4v 2v -4v 2v -2v 6v -1v 3v -3h 1v 4v -4v 4v -4v 3v -6v 6v -6v 1v -1v 3v -5v 5v -5v 7v -6v 6v -3v 5v -3v 3v -6v 1v -2v 2v -3v 4v -2h 1v 3v -1v 2v -1v 3v -4v 1v -1v 3v
 -3v 1v -8v 6v -2v 3v -2v 4v -5v 5v -3v 5v -5v 2v -1v 3v -3v 4v -5v 4v -6v 3v -4h 1v -4v 6v -1v 4v -1v 3v -6v 4v -1v 3v -3v 2v -2v 1v -7v 7v -3v 1v -1v 3v -1v 3v -3v 3v -3v 4v -3h 1v -6v 4v -4v 7v -2v 3v -4v 3v -2v 1v -3v 2v -3v 1v -1v 2v -4v 7v -2v
 3v -3v 4v -5h 1v 2v -2v 4v -5v 3v -7v 3v -1v 7v -5v 3v -2v 5v -3v 2v -6v 3v -7v 6v -1v 3v -1v 3v -3h 1v 2v -2v 4v -4v 1v -2v 1v -1v 2v -5v 3v -4v 4v -1v 5v -3v 4v -4v 1v -1v 1v -4v 3v -6v 3v -2v 7v -3v 1h 1v 1v -1v 2v -2v 3v -2v 1v -3v 1v -4v 4v -5v
 8v -3v 4v -8v 3v -2v 2v -3v 1h 1v 3v -3v 5v -2v 3v -7v 7v -8v 2v -4v 4v -1v 3v -2v 7v -4v 2v -2v 4v -6h 1v -1v 1v -2v 3v -1v 5v -3v 3v -5v 5v -3v 2v -6v 1v -3v 5v -2v 5v -4v 5v -3v 3v -3v 1h 1v -1v 1v -6v 5v -3v 3v -3v 2v -3v 4v -1v 3v -2v 2v -1v 1v
 -5v 5v -5v 3v -5v 4v -2v 4v -5v 8v -4h 1v 2v -5v 6v -6v 4v -8v 2v -1v 10v -5v 5v -4v 1v -2v 1v -3v 3v -5v 7v -6v 6h 1v -2v 3v -2v 1v -2v 1v -1v 1v -3v 2v -7v 7v -5v 7v -2v 3v -5v 5v -4v 1v -3v 1v -3v 4v -2h 1v 6v -3v 5v -6v 4v -3v 1v -5v 3v -4v 8v
 -3v 4v -4v 1v -4v 5v -4v 2v -2h 1v -5v 4v -1v 4v -2v 3v -1v 5v -4v 1v -3v 3v -2v 1v -6v 5v -5v 8v -6v 4v -1v 4v -5v 3v -2h 1v 2v -4v 1v -1v 1v -2v 2v -1v 3v -1v 1v -2v 3v -1v 2v -6v 3v -3v 3v -2v 2v -6v 1v -2v 9v -5v 7v -4v 3h 1v -6v 6v -2v 2v -5v
 1v -3v 1v -2v 7v -3v 3v -2v 1v -4v 3v -7v 5v -1v 5v -2v 1h 1v -2v 4v -4v 4v -7v 2v -3v 2v -3v 4v -3v 6v -3v 4v -5v 6v -5v 4v -2v 1v -4v 4v -6v 4v -1v 1v -2h 1v 6v -3v 2v -5v 5v -3v 3v -6v 4v -7v 7v -4v 7v -3v 1v -1v 4v -5v 1v -4v 6v -3v 2v -1v 3v
 -7v 4v -9h 1v 11v -2v 2v -1v 1v -1v 2v -6v 4v -1v 2v -9v 6v -6v 9v -1v 1v -2v 3v -3v 2v -2h 1v 1v -4v 1v -4v 4v -4v 7v -3v 6v -4v 3v -4v 4v -6v 3v -3v 3v -4v 2v -2v 1v -2v 7v -2v 1v -2v 4v -4h 1v 5v -8v 4v -3v 4v -2v 3v -3v 3v -3v 3v -2v 3v -4v 3v
 -3v 1v -2v 2v -5v 6v -6v 5v -3v 7v -3v 1v -1h 1v 3v -6v 6v -5v 3v -11v 9v -2v 5v -4v 3v -2v 1v -4v 6v -6v 2v -3v 4v -1v 5h 1v -3v 3v -5v 5v -5v 3v -1v 1v -5v 3v -3v 3v -7v 6v -1v 4v -1v 3v -3v 1v -4v 5v -3v 1v -7v 3v -3v 6h 1v -6v 7v -1v 1v -3v 2v
 -3v 4v -4v 3v -4v 6v -3v 3v -3v 1v -1v 3v -4v 3v -1h 1v -1v 1v -5v 7v -3v 2v -2v 6v -5v 2v -3v 1v -2v 2v -6v 4v -2v 4v -2v 4v -1v 1v -3v 3v -2v 3v -3h 1v -1v 1v -3v 2v -6v 2v -1v 3v -2v 7v -2v 2v -2v 3v -3v 2v -2v 1v -4v 1v -3v 6v -2v 5v -4v 4h 1v
 -7v 3v -5v 6v -3v 3v -3v 5v -4v 5v -10v 6v -2v 2v -5v 6v -5v 8h 1v -4v 4v -4v 2v -6v 2v -6v 5v -5v 9v -4v 6v -3v 2v -2v 2v -4v 5v -5v 1v -3v 2h 1v 4v -2v 1v -1v 1v -3v 3v -3v 2v -3v 1v -4v 2v -1v 7v -2v 3v -6v 6v -4v 3v -3v 1v -1v 2v -6v 4h 1v -4v
 3v -1v 5v -1v 1v -3v 2v -3v 6v -7v 4v -6v 1v -4v 11v -4v 5v -2v 2v -5v 2v -3v 1h 1v 2v -5v 2v -4v 4v -1v 6v -2v 2v -3v 1v -2v 3v -4v 1v -2v 2v -6v 7v -7v 8v -1v 2v -2v 1v -1v 2h 1v -2v 2v -7v 3v -2v 1v -1v 3v -1v 7v -5v 1v -2v 2v -1v 3v -3v 2v -7v
 2v -4v 7v -5v 5v -5v 9v -5v 1h 1v 2v -2v 3v -3v 1v -2v 4v -7v 3v -8v 10v -3v 4v -2v 3v -4v 1v -3v 6v -4v 1v -7v 4v -1v 4v -2h 1v 4v -2v 2v -1v 1v -1v 1v -5v 7v -8v 3v -2v 2v -6v 7v -4v 1v -2v 4v -1v 7v -5v 1v -2v 2v -2v 1v -4v 3v -3v 2h 1v -1v 3v
 -5v 6v -4v 5v -2v 2v -5v 5v -3v 4v -6v 3v -4v 3v -6v 7v -1v 2v -1v 1v -2v 2v -2v 4v -4v 2v -2h 1v 1v -3v 1v -5v 8v -2v 3v -2v 3v -2v 1v -1v 1v -2v 3v -6v 3v -6v 7v -4v 5v -3v 4v -4v 3v -2h 1v -1v 3v -3v 2v -7v 4v -2v 1v -2v 5v -1v 2v -1v 2v -2v 1v
 -1v 4v -5v 3v -2v 1v -4v 3v -2v 1v -4v 9v -5v 2h 1v -2v 2v -1v 1v -2v 4v -5v 3v -4v 3v -2v 2v -1v 3v -2v 2v -2v 1v -1v 2v -6v 2v -2v 2v -2v 5v -1h 1v -1v 4v -3v 2v -6v 3v -8v 6v -2v 6v -3v 5v -1v 1v -4v 2v -3v 4v -2v 2v -5v 2v -6h 1v 5v -1v 3v -3v
 4v -1v 1v -1v 2v -4v 5v -6v 3v -6v 3v -1v 7v -3v 2v -2v 1v -3v 4v -2v 1v -5h 1v 1v -5v 9v -2v 4v -4v 1v -1v 4v -6v 3v -5v 4v -5v 5v -2v 7v -3v 1v -2h 1v 1v -2v 1v -3v 2v -3v 3v -1v 2v -1v 5v -3v 3v -7v 5v -8v 3v -5v 4v -2v 9v -4v 4h 1v -3v 1v -2v 1v
 -2v 4v -5v 2v -5v 3v -3v 8v -4v 3v -4v 4v -2v 2v -1v 1v -5v 4v -7v 5v -2v 5v -3h 1v 4v -2v 3v -4v 1v -1v 1v -4v 3v -2v 1v -5v 6v -2v 4v -1v 1v -1v 1v -2v 1v -3v 4v -3v 2v -6v 4v -2v 2h 1v 4v -3v 3v -3v 3v -2v 1v -5v 3v -5v 3v -2v 2v -1v 8v -4v 2v
 -2v 2v -5v 2v -4v 5h 1v -4v 1v -4v 7v -3v 5v -2v 2v -3v 2v -3v 4v -5v 3v -4v 3v -6v 8v -3v 3v -1v 3v -4v 3v -2v 4v -4v 2h 1v -5v 1v -2v 3v -4v 7v -4v 2v -2v 4v -3v 4v -4v 2v -3v 2v -5v 2v -2v 8v -1v 2v -4v 2v -3v 1h 1v -1v 1v -1v 1v -6v 3v -2v 2v
 -3v 6v -1v 4v -2v 1v -9v 8v -7v 4v -2v 5h 1v 3v -6v 2v -1v 4v -6v 3v -7v 5v -1v 4v -6v 6v -1v 1v -1v 1v -2v 2v -2v 2v -5v 1v -1v 2v -3v 2v -1h 1v 5v -1v 2v -2v 3v -4v 2v -2v 1v -3v 1v -9v 14v -6v 4v -2v 4v -7v 2v -3v 3h 1v -3v 7v -5v 6v -5v 5v -3v
 3v -6v 1v -4v 6v -5v 6v -2v 2v -2v 5v -6v 2h 1v -6v 6v -3v 7v -6v 3v -5v 5v -1v 2v -2v 1v -2v 1v -6v 5v -3v 3v -1v 4v -4v 4v -2h 1v 3v -5v 1v -5v 4v -1v 1v -3v 9v -4v 2v -6v 4v -1v 1v -1v 1v -4v 1v -4v 5v -1v 1v -1v 6v -6v 2h 1v 4v -4v 1v -4v 3v -4v
 4v -6v 5v -3v 6v -2v 4v -5v 2v -1v 3v -3v 4v -5v 2v -7v 6v -7v 8v -3v 5h 1v -3v 5v -5v 3v -4v 6v -5v 1v -6v 4v -1v 1v -2v 3v -2v 5v -2v 3v -4v 1v -1v 4v -6v 3v -2v 1v -5v 4h 1v -4v 5v -1v 3v -3v 3v -1v 3v -7v 6v -5v 3v -5v 4v -3v 1v -1v 6v -4v 4v
 -2v 2v -4v 5v -4v 3v -5v 5v -4v 1h 1v -4v 3v -4v 5v -2v 4v -2v 4v -1v 1v -2v 2v -4v 1v -4v 1v -4v 7v -1v 2v -1v 4v -4v 1v -3v 3v -4h 1v 2v -2v 2v -5v 5v -9v 10v -3v 6v -4v 4v -3v 1v -2v 3v -4v 6v -4v 1v -7v 3v -2v 2v -1v 7v -6v 5v -3h 1v -1v 5v -3v
 1v -6v 2v -1v 3v -3v 7v -3v 2v -2v 3v -8v 5v -7v 5v -2v 1v -1v 3v -4v 5v -1h 1v 3v -2v 1v -2v 4v -4v 1v -4v 4v -3v 2v -6v 3v -1v 5v -2v 2v -1v 4v -7v 4v -3v 4v -6v 4v -3v 2v -1h 1v 3v -1v 2v -4v 4v -1v 2v -6v 4v -5v 3v -3v 2v -1v 2v -1v 4v -2v 3v
 -6v 3v -2v 6v -4v 2v -5v 1v -4h 1v -3v 11v -3v 4v -4v 4v -4v 1v -2v 3v -1v 1v -6v 3v -5v 7v -4v 5v -3v 3v -1v 1v -4v 7v -3v 1h 1v -8v 5v -5v 6v -4v 7v -4v 1v -1v 4v -5v 3v -3v 1v -3v 4v -4v 2v -4v 2v -6v 9v -4v 5v -90h 1v -248v 347v -76v 27v -5v 12v
 -7v 12v -15v 11v -2v 7v -3h 1v 4v -4v 7v -6v 5v -3v 3v -4v 3v -7v 7v -8v 12v -6v 5v -2v 3v -6v 9v -5v 3v -6v 1v -4v 9h 1v -4v 6v -7v 8v -5v 3v -6v 2v -10v 9v -9v 12v -1v 3v -3v 3v -6v 1v -1v 4v -1v 4v -7v 8v -12v 4h 1v -5v 7v -8v 13v -7v 7v -1v 1v
 -9v 8v -5v 5v -5v 9v -16v 10v -6v 9v -3v 3v -7v 10v -5v 6v -10v 10v -9v 4h 1v -6v 9v -9v 5v -2v 8v -11v 12v -5v 2v -10v 6v -5v 7v -1v 2v -4v 6v -11v 5v -2v 8v -6h 1v 7v -8v 1v -1v 4v -6v 5v -2v 7v -8v 6v -10v 9v -3v 5v -10v 7v -10v 11v -4v 2v -5v
 10h 1v -4v 3v -3v 5v -6v 2v -5v 4v -5v 3v -1v 5v -2v 4v -1v 1v -6v 6v -4v 9v -14v 6v -3v 5v -2v 6h 1v -11v 5v -2v 2v -3v 6v -6v 5v -9v 11v -6v 5v -4v 8v -4v 3v -2v 1v -9v 6v -6v 5v -3v 3v -1v 3v -8v 3v -1h 1v 3v -4v 6v -3v 5v -1v 4v -8v 4v -3v 8v
 -13v 8v -5v 3v -7v 9v -2v 6v -10v 5v -3v 7v -7v 6v -4v 1v -2v 3v -2h 1v 1v -4v 2v -6v 9v -2v 2v -1v 3v -4v 7v -11v 11v -9v 4v -7v 4v -3v 5v -7v 10v -7v 8v -7v 6v -8v 11h 1v -5v 3v -7v 1v -3v 8v -10v 7v -3v 7v -8v 6v -8v 9v -2v 6v -11v 5v -8v 10v -8v
 10v -1v 1v -3v 5h 1v -11v 4v -2v 7v -11v 9v -6v 8v -8v 7v -2v 4v -7v 3v -3v 4v -1v 4v -1v 1v -13v 11v -3v 2v -3v 6v -1h 1v -3v 4v -6v 3v -5v 7v -4v 2v -2v 4v -7v 1v -2v 2v -2v 6v -4v 9v -6v 2v -3v 1v -1v 5v -5v 4v -10v 3v -3v 6v -4v 1h 1v 5v -5v 8v
 -2v 1v -1v 2v -8v 5v -1v 4v -5v 5v -11v 7v -4v 9v -7v 5v -3v 5v -5v 2v -3v 4v -4v 8v -9h 1v -4v 10v -9v 10v -8v 6v -4v 7v -8v 9v -2v 1v -5v 5v -9v 6v -4v 3v -7v 8v -2v 9v -6v 2v -2v 3v -4v 2v -4v 4v -1h 1v -3v 2v -8v 4v -4v 9v -5v 1v -1v 8v -7v 6v
 -5v 3v -4v 4v -3v 1v -4v 3v -2v 2v -6v 10v -5v 5v -3v 2v -5v 7v -1v 1h 1v -3v 2v -5v 3v -6v 6v -7v 6v -1v 6v -7v 7v -6v 6v -7v 6v -8v 3v -1v 5v -3v 5v -3h 1v 3v -4v 4v -3v 2v -4v 4v -9v 6v -6v 8v -4v 2v -4v 7v -1v 1v -4v 6v -8v 3v -3v 4v -5v 1v -4v
 11h 1v -8v 6v -1v 5v -6v 4v -2v 2v -7v 5v -6v 2v -2v 8v -5v 4v -1v 2v -4v 4v -3v 4v -3v 3v -8v 5v -2v 2v -5v 1h 1v 2v -3v 7v -3v 3v -3v 1v -4v 4v -5v 3v -6v 10v -7v 5v -4v 8v -6v 4v -4v 4v -2v 2v -6v 5h 1v -3v 3v -4v 1v -2v 4v -2v 4v -4v 5v -3v 5v
 -7v 4v -4v 5v -8v 7v -4v 3v -3h 1v 4v -4v 2v -8v 12v -1v 1v -3v 2v -4v 1v -1v 5v -6v 3v -5v 3v -9v 13v -2v 1v -1v 1h 1v 3v -4v 2v -8v 4v -1v 1v -1v 1v -1v 3v -1v 5v -7v 6v -6v 6v -9v 5v -3v 1v -4v 7v -1v 2h 1v 2v -1v 2v -6v 3v -3v 4v -4v 3v -5v 2v
 -2v 6v -1v 4v -6v 6v -5v 4v -8v 7v -9v 2v -3h 1v 10v -4v 5v -1v 2v -6v 7v -5v 2v -2v 1v -7v 3v -4v 7v -3v 6v -6v 5v -4v 5v -4v 2v -3v 6v -8h 1v 1v -4v 8v -4v 7v -10v 8v -2v 1v -1v 3v -5v 3v -4v 3v -5v 6v -5v 2v -4v 5v -3v 4v -2v 3v -1v 4v -4v 2v -6v
 4v -3v 4h 1v -4v 1v -2v 4v -8v 7v -6v 10v -5v 4v -2v 4v -4v 4v -4v 2v -8v 4v -3v 3v -4v 7v -1v 2v -2v 5v -2h 1v -3v 5v -5v 1v -4v 5v -6v 1v -3v 1v -4v 11v -1v 4v -3v 4v -4v 2v -3v 2v -2v 3v -4v 6v -9v 4v -9v 6v -2v 8v -2h 1v 1v -1v 4v -4v 3v -7v 3v
 -6v 6v -6v 6v -1v 5v -3v 1v -1v 4v -5v 2v -3v 3v -5v 2v -3v 2v -4v 5h 1v -2v 7v -3v 1v -3v 2v -1v 2v -2v 5v -9v 3v -5v 4v -2v 6v -3v 2v -1v 3v -3v 2v -1v 1v -2v 1v -1h 1v -8v 7v -1v 5v -6v 7v -5v 4v -1v 4v -7v 3v -3v 1v -6v 7v -5v 1v -1v 6v -1v 2v
 -6v 5v -2v 3h 1v -5v 2v -2v 2v -4v 3v -2v 7v -3v 2v -2v 1v -2v 2v -3v 4v -9v 9v -6v 10v -6v 3v -5h 1v 4v -4v 4v -4v 1v -2v 1v -7v 8v -2v 3v -3v 7v -3v 2v -4v 1v -2v 3v -3v 2v -6v 7v -6v 8v -2v 2h 1v -4v 3v -4v 3v -3v 4v -7v 3v -6v 6v -2v 2v -1v 6v
 -1v 1v -4v 7v -8v 2v -2v 4v -7v 1v -5v 8v -1v 3h 1v -1v 2v -2v 2v -3v 4v -2v 1v -3v 4v -4v 2v -7v 5v -3v 3v -1v 3v -2v 6v -3v 4v -7v 3v -2v 4v -4v 2v -3v 3v -2v 1v -7h 1v 3v -1v 4v -1v 6v -4v 4v -3v 3v -5v 2v -4v 7v -6v 1v -4v 4v -5v 3v -1v 6v -3v
 4v -4v 4v -5v 3v -1h 1v -2v 3v -4v 5v -6v 7v -5v 4v -6v 3v -1v 4v -4v 4v -8v 4v -1v 6v -7v 6v -3v 4v -4v 4v -7v 6v -2h 1v -4v 2v -1v 2v -2v 6v -2v 3v -3v 1v -2v 2v -5v 4v -1v 1v -5v 4v -4v 5v -3v 4v -1v 2v -2h 1v -1v 3v -4v 3v -2v 2v -7v 5v -5v 6v
 -2v 3v -4v 5v -3v 1v -2v 5v -6v 3v -4v 3v -5v 8v -5h 1v 5v -1v 2v -3v 2v -1v 1v -5v 1v -5v 6v -3v 8v -4v 1v -4v 6v -4v 4v -3v 2v -4v 3v -5v 1h 1v 2v -2v 5v -4v 4v -5v 6v -5v 5v -6v 1v -4v 5v -3v 6v -2v 1v -2v 2v -1v 1v -4v 3v -6h 1v 2v -1v 4v -4v 7v
 -5v 6v -4v 3v -2v 2v -5v 1v -4v 2v -4v 12v -3v 1v -1v 2v -5h 1v 3v -3v 3v -8v 5v -1v 4v -5v 8v -7v 6v -4v 3v -3v 2v -3v 2v -4v 4v -4v 1v -2v 7v -4v 6v -2v 1v -3v 1h 1v -2v 3v -6v 2v -6v 11v -4v 5v -5v 5v -4v 3v -4v 3v -3v 2v -4v 2v -3v 7v -4v 2v -2h
 1v 5v -2v 2v -5v 1v -5v 5v -6v 6v -2v 5v -6v 6v -5v 2v -2v 1v -7v 8h 1v -1v 3v -2v 2v -3v 3v -2v 1v -2v 4v -7v 4v -6v 6v -5v 8v -2v 1v -1v 2v -1v 2v -4v 3v -7v 2h 1v -1v 5v -3v 5v -2v 3v -6v 3v -1v 2v -4v 2v -4v 4v -6v 5v -4v 5v -3v 2v -1v 3v -1v 2v
 -2v 1v -3h 1v 1v -3v 1v -1v 2v -4v 8v -1v 1v -2v 1v -2v 1v -3v 1v -5v 5v -3v 7v -2v 1v -3v 4h 1v 1v -6v 5v -6v 1v -5v 5v -2v 7v -2v 1v -2v 3v -1v 2v -4v 1v -4v 5v -8v 5v -6v 7v -4v 6v -2v 4v -2h 1v 2v -4v 2v -5v 4v -5v 3v -1v 2v -4v 2v -1v 6v -2v 3v
 -1v 1v -3v 1v -1v 1v -1v 2v -6v 5v -6v 4v -4v 4v -1v 2h 1v 1v -1v 4v -5v 3v -3v 3v -5v 3v -3v 3v -4v 3v -5v 9v -3v 1v -3v 4v -2v 4v -3v 2v -5v 2v -6v 5h 1v -2v 3v -4v 7v -4v 4v -3v 2v -6v 5v -6v 5v -1v 4v -4v 5v -5v 4v -4v 5v -4v 2v -5h 1v 2v -7v 7v
 -5v 8v -1v 2v -7v 7v -3v 3v -7v 3v -2v 1v -6v 10v -3v 5v -4v 2v -1v 2v -3h 1v 2v -2v 2v -7v 3v -4v 9v -6v 4v -1v 3v -3v 5v -3v 2v -4v 2v -7v 5v -6v 5v -2v 6v -3v 2v -2h 1v 2v -2v 2v -4v 2v -2v 2v -3v 1v -2v 5v -1v 2v -2v 2v -6v 6v -2v 2v -5v 4v -7v
 7v -7v 7v -5v 5h 1v -3v 3v -1v 2v -4v 2v -1v 4v -6v 3v -4v 2v -2v 7v -1v 3v -5v 4v -4v 1v -2v 4v -3v 1v -9v 7v -1h 1v 5v -1v 1v -3v 4v -8v 5v -7v 8v -2v 4v -5v 2v -2v 4v -5v 4v -6v 1h 1v 2v -3v 4v -1v 5v -4v 3v -2v 1v -3v 3v -2v 3v -3v 3v -5v 3v -6v
 8v -1v 1v -2v 3v -6v 1h 1v 3v -3v 2v -5v 3v -5v 4v -1v 5v -1v 3v -3v 4v -5v 4v -4v 1v -2v 2v -5v 4v -8v 5v -2v 4v -1v 5v -2v 1v -6v 8h 1v -3v 3v -6v 3v -1v 1v -5v 3v -2v 7v -3v 3v -3v 1v -1v 3v -8v 3v -2v 2v -4v 9v -6v 2h 1v 3v -6v 9v -6v 3v -5v 1v
 -1v 2v -1v 1v -2v 5v -1v 3v -3v 1v -3v 4v -6v 4v -6v 5v -6h 1v 7v -2v 6v -7v 4v -3v 2v -4v 4v -5v 2v -3v 6v -1v 3v -2v 3v -3v 2v -5v 3v -4v 5v -8v 2h 1v -2v 5v -6v 10v -3v 3v -2v 2v -2v 4v -7v 2v -4v 5v -2v 3v -1v 1v -3v 4v -4h 1v -2v 3v -2v 1v -7v
 7v -2v 7v -6v 3v -1v 3v -4v 2v -1v 2v -2v 1v -3v 2v -6v 5v -3v 2v -1v 6v -2v 1v -2h 1v 2v -1v 2v -5v 2v -4v 4v -3v 7v -4v 1v -2v 4v -5v 4v -1v 4v -9v 4v -8v 6v -3v 7v -3v 3v -3v 6h 1v -4v 1v -3v 4v -5v 3v -4v 2v -3v 5v -1v 5v -6v 5v -4v 2v -7v 4v
 -3v 2v -1v 5h 1v -2v 3v -4v 4v -4v 4v -3v 3v -4v 1v -5v 5v -3v 4v -1v 3v -3v 4v -6v 5v -3v 3v -2v 3v -8v 1v -2v 3v -1h 1v 2v -1v 3v -3v 4v -2v 2v -2v 2v -3v 2v -4v 3v -4v 3v -1v 4v -3v 4v -4v 5v -2v 1v -5v 4h 1v -6v 4v -5v 7v -1v 1v -2v 2v -3v 3v
 -2v 2v -4v 3v -4v 2v -4v 4v -1v 3v -3v 5v -4v 4v -2v 3v -5v 1h 1v 2v -6v 2v -1v 1v -1v 7v -6v 3v -2v 4v -2v 5v -10v 8v -10v 9v -5v 4v -3h 1v 3v -2v 3v -2v 1v -6v 3v -2v 4v -2v 3v -2v 3v -2v 2v -5v 3v -2v 1v -6v 6v -3v 3v -3v 7v -1h 1v -3v 3v -4v 4v
 -5v 4v -4v 1v -4v 4v -3v 1v -3v 9v -6v 8v -4v 3v -5v 1v -2v 5v -6v 1v -3v 4h 1v 3v -5v 4v -1v 2v -1v 1v -3v 3v -4v 5v -8v 6v -5v 7v -2v 1v -3v 5v -4v 1v -4v 4v -1v 1v -3h 1v 2v -5v 9v -4v 3v -5v 6v -5v 3v -3v 2v -3v 1v -4v 7v -4v 2v -2v 5v -1v 1v
 -3v 3v -6h 1v 4v -4v 1v -4v 6v -4v 4v -1v 5v -4v 3v -3v 3v -5v 4v -5v 2v -4v 8v -3v 3v -1h 1v -2v 3v -4v 1v -5v 6v -5v 6v -2v 4v -4v 2v -1v 3v -5v 2v -2v 2v -3v 2v -2v 2v -4v 6v -6v 7h 1v -1v 1v -5v 3v -1v 1v -3v 1v -6v 4v -3v 7v -1v 3v -1v 2v -3v
 2v -2v 1v -3v 4v -6v 3v -5v 6v -1v 2h 1v 1v -4v 4v -2v 1v -4v 3v -3v 2v -2v 2v -1v 1v -3v 2v -1v 4v -2v 3v -2v 2v -4v 4v -4v 2v -3v 3v -2v 1v -3h 1v 1v -1v 3v -2v 6v -5v 4v -9v 4v -2v 7v -5v 7v -6v 3v -1v 1v -2v 2v -3v 3h 1v -6v 3v -4v 8v -4v 4v -2v
 3v -4v 2v -1v 1v -4v 2v -4v 2v -5v 6v -3v 8v -5v 6v -5v 2v -1v 1v -1h 1v 2v -4v 4v -8v 4v -1v 5v -3v 2v -1v 2v -4v 5v -3v 2v -6v 2v -1v 3v -1v 4v -1v 1v -2v 1h 1v -4v 4v -3v 4v -8v 4v -3v 4v -9v 5v -2v 6v -1v 2v -1v 1v -4v 5v -2v 2v -5v 3v -2v 3v
 -7v 7v -2h 1v 2v -2v 2v -1v 3v -5v 2v -10v 9v -3v 6v -4v 5v -3v 1v -4v 5v -7v 5v -4v 2v -1h 1v -1v 6v -3v 3v -2v 3v -3v 4v -6v 4v -8v 4v -3v 3v -4v 8v -3v 3v -3v 4v -6v 3v -3v 2h 1v 2v -5v 2v -2v 6v -3v 4v -3v 1v -2v 2v -5v 3v -2v 5v -2v 2v -4v 4h
 1v 1v -9v 3v -4v 12v -7v 3v -4v 4v -6v 5v -2v 2v -2v 2v -1v 1v -1v 4v -3h 1v -1v 5v -6v 1v -2v 3v -3v 1v -3v 3v -2v 5v -3v 5v -4v 4v -3v 1v -2v 2v -2v 1v -6v 3v -1v 6v -2v 2h 1v 2v -6v 4v -5v 6v -8v 2v -2v 5v -2v 5v -2v 3v -5v 5v -5v 3v -4v 1v -3v
 3v -6v 5v -2v 2h 1v 2v -2v 4v -2v 4v -4v 1v -1v 2v -7v 8v -4v 3v -3v 5v -4v 1v -5v 3v -4v 1h 1v -2v 6v -2v 3v -1v 2v -4v 4v -1v 3v -6v 3v -5v 5v -9v 6v -1v 6v -3v 1v -4v 3v -2v 3v -3h 1v 4v -6v 2v -3v 3v -1v 6v -4v 3v -3v 3v -4v 5v -4v 2v -6v 3v -1v
 2v -2v 4v -2v 3v -1v 3v -3h 1v -2v 3v -2v 1v -3v 2v -1v 1v -4v 5v -2v 4v -3v 2v -4v 3v -8v 5v -2v 5v -2v 3v -1v 3h 1v -5v 4v -2v 1v -2v 2v -4v 2v -3v 1v -4v 4v -1v 5v -3v 4v -5v 5v -4v 3v -5v 5h 1v -2v 4v -4v 2v -3v 6v -6v 2v -4v 2v -4v 4v -3v 5v
 -1v 3v -4v 3v -4v 4v -2v 2v -4v 1v -6v 4h 1v -1v 5v -4v 7v -4v 2v -3v 2v -3v 4v -6v 2v -4v 5v -1v 2v -2v 4v -1v 1v -5v 5v -3v 4v -6v 3h 1v -1v 1v -3v 2v -2v 2v -3v 3v -1v 2v -2v 6v -4v 3v -1v 2v -4v 2v -4v 1v -4v 4v -2v 3v -3v 4v -1v 2v -3h 1v 4v
 -7v 2v -1v 1v -5v 7v -1v 3v -2v 2v -4v 3v -3v 2v -5v 6v -6v 3v -1v 6v -2v 2v -2h 1v -1v 1v -2v 5v -7v 6v -8v 2v -4v 6v -5v 6v -3v 4v -1v 3v -4v 4v -3v 1v -1v 3v -6v 1v -3v 5v -3v 6h 1v -3v 1v -1v 2v -4v 4v -2v 3v -6v 4v -6v 4v -4v 5v -4v 9v -8v 5v
 -6v 5v -3v 4v -4v 2v -3v 2v -4v 2h 1v -1v 4v -4v 5v -1v 3v -2v 1v -2v 3v -3v 1v -7v 3v -1v 2v -2v 8v -4v 3v -2v 1v -3v 4v -4v 2v -5v 2h 1v -3v 3v -2v 5v -1v 5v -5v 3v -3v 2v -2v 2v -2v 2v -5v 4v -6v 3v -1v 5v -3v 3v -2v 1v -1v 1v -2h 1v 1v -2v 1v
 -2v 2v -2v 1v -1v 7v -5v 4v -3v 3v -2v 3v -7v 3v -6v 8v -6v 5v -2v 4v -1v 1v -3v 2h 1v -3v 3v -7v 4v -3v 3v -5v 9v -2v 3v -3v 3v -3v 1v -5v 3v -1v 1v -4v 1v -2v 6v -2v 2h 1v -2v 3v -3v 2v -1v 2v -4v 2v -8v 10v -4v 4v -2v 2v -5v 4v -6v 5v -7v 5v -5v
 6h 1v 2v -1v 2v -3v 3v -5v 3v -2v 5v -2v 3v -3v 2v -3v 3v -7v 2v -3v 2v -3v 8v -4v 7v -5v 4v -3v 1v -4v 2v -4v 3v -1h 1v -1v 1v -1v 5v -1v 2v -3v 2v -1v 2v -3v 3v -3v 3v -4v 1v -5v 7v -3v 5v -6v 2v -1v 3v -5v 2h 1v -2v 1v -4v 8v -1v 1v -1v 3v -5v 2v
 -1v 4v -5v 2v -6v 2v -2v 6v -3v 4v -1v 2v -5v 2h 1v 1v -2v 4v -6v 4v -6v 5v -3v 4v -2v 4v -3v 3v -3v 3v -5v 4v -7v 2v -1v 2v -3v 8v -1h 1v -1v 2v -2v 2v -3v 2v -3v 1v -3v 1v -2v 3v -6v 9v -4v 6v -6v 5v -3v 2v -6v 3v -3v 4h 1v -2v 5v -3v 3v -4v 3v
 -5v 1v -2v 8v -3v 2v -3v 3v -4v 3v -3v 4v -6v 2v -2h 1v -2v 4v -1v 4v -2v 1v -1v 4v -5v 2v -5v 1v -3v 5v -6v 4v -1v 7v -1v 3v -5v 5v -5v 2v -4v 4v -2h 1v -5v 3v -1v 3v -2v 5v -2v 1v -3v 2v -2v 1v -3v 2v -3v 5v -2v 2v -1v 3v -7v 7v -5h 1v 4v -6v 3v
 -3v 5v -3v 4v -3v 4v -3v 3v -3v 1v -3v 4v -5v 2v -5v 5v -4v 8v -4v 3v -2v 2v -4v 2h 1v 3v -4v 3v -3v 3v -6v 3v -4v 5v -3v 6v -4v 4v -3v 3v -6v 2v -4v 2v -5v 6v -4v 10h 1v -6v 5v -3v 3v -2v 1v -1v 2v -8v 3v -2v 4v -1v 5v -4v 4v -3v 1v -2v 3v -7v 4v
 -3v 1v -1v 3h 1v -3v 3v -3v 7v -2v 1v -3v 3v -6v 4v -6v 4v -5v 7v -2v 4v -3v 3v -5v 4v -2v 2v -4v 3v -3h 1v -1v 1v -3v 7v -1v 1v -5v 6v -2v 1v -5v 3v -5v 1v -2v 6v -6v 8v -5v 6v -3v 3v -3h 1v -1v 1v -5v 2v -2v 7v -6v 7v -3v 1v -4v 1v -3v 5v -5v 8v
 -5h 1v 4v -2v 3v -4v 1v -9v 7v -3v 6v -2v 3v -1v 3v -7v 1v -2v 3v -2v 4v -6v 7v -1h 1v 3v -4v 3v -3v 1v -4v 4v -4v 2v -5v 6v -2v 5v -3v 3v -3v 2v -2v 3v -4v 1v -1v 1v -5v 5v -3v 3v -2v 1h 1v -4v 7v -4v 4v -2v 1v -2v 4v -7v 3v -3v 2v -2v 2v -2v 5v
 -2v 5v -3v 1v -2v 2v -7v 6h 1v -9v 7v -7v 13v -6v 4v -1v 1v -3v 2v -1v 1v -5v 3v -3v 1v -2v 3v -6v 9v -1v 2v -3v 3v -4v 3v -4v 5v -4v 2h 1v -4v 3v -5v 9v -3v 1v -3v 5v -6v 4v -4v 2v -4v 1v -1v 2v -1v 4v -3v 5v -3v 3v -3h 1v 2v -6v 3v -2v 1v -3v 5v
 -2v 7v -5v 2v -2v 2v -4v 1v -2v 5v -7v 6v -4v 6v -2v 2v -3v 3h 1v -3v 2v -5v 7v -4v 1v -5v 3v -3v 1v -1v 6v -2v 3v -4v 3v -2v 1v -3v 2v -5v 5v -7v 9v -3h 1v 5v -3v 3v -5v 4v -5v 1v -3v 2v -1v 5v -3v 4v -6v 5v -4v 6v -7v 2v -6v 2h 1v 5v -3v 6v -3v 3v
 -3v 3v -5v 4v -4v 3v -7v 6v -6v 7v -2v 3v -3v 4v -2v 2v -5h 1v -5v 6v -2v 2v -1v 6v -6v 3v -1v 3v -2v 1v -3v 4v -3v 1v -8v 3v -1v 3v -4v 6v -2v 5v -2v 2v -5v 3h 1v -1v 2v -5v 1v -3v 3v -4v 7v -1v 2v -3v 4v -3v 2v -2v 3v -9v 4v -3v 2v -1v 7v -3v 1v
 -1h 1v -1v 3v -4v 1v -2v 2v -3v 6v -1v 2v -4v 4v -4v 4v -3v 1v -6v 2v -2v 3v -3v 6v -1h 1v -1v 4v -2v 2v -3v 4v -5v 2v -7v 7v -5v 9v -5v 2v -4v 3v -1v 1v -7v 1v -6v 9v -1h 1v 3v -2v 5v -3v 2v -2v 3v -2v 2v -3v 1v -1v 1v -5v 2v -2v 1v -4v 9v -1v 3v
 -4v 3v -3v 3v -2v 3v -5v 1v -3v 4v -7v 4h 1v -4v 3v -1v 5v -3v 5v -3v 1v -2v 3v -2v 1v -4v 3v -3v 1v -1v 7v -4v 2v -2v 2v -1v 1h 1v 1v -5v 2v -4v 3v -2v 5v -2v 4v -3v 2v -2v 1v -3v 1v -5v 4v -5v 9v -4v 5v -5v 3h 1v -1v 1v -2v 2v -7v 5v -4v 1v -1v 5v
 -2v 3v -1v 1v -1v 3v -5v 1v -5v 3v -2v 1v -1v 8v -5v 3h 1v 2v -6v 3v -4v 6v -5v 3v -6v 5v -4v 6v -1v 2v -5v 6v -5v 1v -6v 6v -3v 3v -3h 1v 3v -1v 3v -1v 1v -2v 1v -1v 3v -2v 3v -8v 3v -6v 9v -3v 3v -2v 2v -2v 1v -3v 3v -1v 1v -4v 3h 1v -4v 3v -1v 4v
 -4v 3v -2v 3v -4v 6v -12v 8v -4v 4v -6v 6v -5v 7v -2v 2v -2v 3v -5h 1v 1v -5v 6v -4v 1v -3v 6v -1v 5v -5v 3v -2v 2v -5v 1v -2v 2v -1v 5v -3v 5v -3v 1v -3v 1h 1v 3v -4v 3v -6v 3v -2v 5v -4v 6v -4v 2v -3v 3v -5v 5v -4v 1v -5v 6v -2v 5v -1v 2v -3h 1v
 1v -3v 2v -2v 2v -2v 1v -1v 1v -9v 7v -4v 5v -2v 5v -3v 4v -3v 4v -4v 3v -4v 3v -6v 4v -4v 2v -3v 4v -2v 5h 1v -2v 4v -5v 6v -9v 8v -5v 1v -3v 4v -3v 1v -3v 5v -1v 1v -4v 4v -2v 4v -4v 3v -6v 4v -1h 1v -2v 5v -2v 2v -2v 2v -4v 4v -6v 4v -3v 3v -1v
 4v -5v 4v -2v 2v -4v 4v -5h 1v 2v -2v 2v -4v 6v -2v 5v -5v 2v -1v 2v -3v 3v -4v 2v -4v 3v -2v 4v -3v 4v -2v 3v -3v 2v -4h 1v -1v 3v -3v 2v -5v 5v -2v 5v -2v 4v -2v 2v -5v 2v -2v 2v -2v 2v -4v 1v -2v 4v -2v 4v -1v 3v -1v 1v -5h 1v 3v -2v 1v -2v 4v
 -4v 1v -3v 2v -1v 2v -2v 4v -2v 3v -2v 2v -6v 3v -7v 7v -5v 4v -2v 5h 1v -3v 4v -4v 4v -3v 3v -5v 1v -5v 6v -5v 6v -2v 5v -3v 1v -2v 2v -2v 2v -3v 5v -4v 1v -5v 3v -2v 1v -3v 3h 1v 5v -3v 4v -5v 3v -2v 1v -1v 3v -8v 6v -1v 2v -2v 2v -3v 3v -2v 4v
 -3v 2v -5v 2v -2h 1v -3v 2v -3v 4v -1v 5v -4v 2v -1v 4v -4v 1v -4v 3v -5v 4v -3v 7v -1v 2v -5v 6v -4v 3v -2v 1v -1h 1v -7v 4v -3v 6v -2v 4v -3v 3v -4v 3v -7v 5v -1v 2v -2v 4v -2v 1h 1v -3v 3v -6v 4v -2v 4v -3v 2v -1v 3v -1v 1v -10v 4v -1v 1v -3v 8v
 -2v 2h 1v -3v 1v -1v 4v -5v 2v -4v 3v -6v 8v -2v 2v -3v 3v -2v 3v -4v 5v -6v 3v -2v 1v -3v 4v -5v 5h 1v -1v 3v -3v 4v -2v 1v -3v 1v -4v 4v -6v 7v -2v 4v -2v 1v -4v 4v -3v 1v -6v 3h 1v -1v 6v -1v 2v -4v 4v -3v 2v -1v 1v -5v 3v -5v 3v -3v 5v -6v 7v
 -2v 4v -2v 1v -2v 3v -3v 1v -3h 1v 1v -2v 2v -3v 3v -1v 5v -1v 1v -4v 5v -4v 4v -5v 1v -2v 2v -5v 6v -4v 7v -5v 2v -2v 3v -3h 1v -1v 2v -4v 4v -3v 2v -4v 7v -2v 1v -2v 5v -6v 4v -2v 4v -4v 2v -8v 6v -3v 5v -2v 3v -2h 1v 3v -6v 5v -6v 4v -2v 2v -3v
 5v -3v 2v -1v 1v -3v 4v -3v 2v -2v 1v -4v 3v -4v 1v -2v 5v -7v 10v -3h 1v 3v -3v 1v -5v 6v -5v 3v -4v 5v -2v 1v -2v 4v -4v 4v -3v 4v -6v 2v -5h 1v 8v -1v 2v -3v 2v -2v 3v -3v 1v -1v 2v -4v 1v -4v 9v -3v 2v -3v 2v -1v 2v -5v 3v -1v 1v -4h 1v 1v -2v
 3v -6v 11v -3v 1v -4v 5v -4v 1v -2v 1v -5v 5v -2v 6v -2v 1v -2v 2v -1v 1h 1v 1v -5v 4v -5v 3v -8v 9v -1v 2v -3v 4v -2v 1v -2v 3v -1v 2v -6v 2v -7v 9v -4v 5v -1v 1v -2h 1v 3v -4v 2v -5v 5v -6v 2v -5v 6v -2v 1v -1v 6v -4v 5v -4v 1v -1v 4v -6v 2v -3v
 1v -2v 5v -1v 2h 1v 1v -2v 3v -3v 1v -2v 3v -10v 7v -5v 7v -3v 4v -1v 1v -3v 3v -4v 4v -8v 4v -6v 4v -1h 1v 4v -1v 1v -2v 5v -3v 3v -2v 1v -1v 2v -8v 6v -4v 2v -1v 5v -2v 2v -3v 5v -10v 1h 1v 2v -3v 9v -5v 3v -1v 2v -1v 1v -4v 3v -5v 1v -5v 9v -1v
 2v -1v 1v -4v 3v -2v 1v -2v 1h 1v -3v 3v -4v 2v -1v 4v -1v 2v -3v 4v -2v 1v -1v 1v -4v 5v -2v 1v -9v 4v -3v 2v -3v 11v -2v 1v -1h 1v -2v 3v -3v 1v -4v 2v -4v 4v -2v 6v -3v 3v -3v 4v -6v 5v -2v 1v -5v 4v -6v 3v -1v 5v -2v 3h 1v -3v 2v -2v 2v -6v 2v
 -4v 3v -4v 11v -4v 3v -3v 3v -8v 5v -2h 1v 5v -4v 5v -5v 1v -1v 3v -1v 1v -6v 1v -1v 6v -2v 2v -3v 4v -3v 1v -4v 6v -4v 1v -6v 3v -1v 1h 1v 1v -2v 3v -1v 5v -4v 2v -1v 1v -4v 2v -1v 2v -7v 7v -3v 6v -3v 4v -4v 2v -4v 1h 1v 1v -4v 3v -5v 8v -2v 3v
 -2v 1v -2v 3v -4v 5v -2v 1v -5v 2v -8v 7v -2v 4v -2v 5v -4v 3v -3v 5v -6h 1v 2v -2v 1v -1v 2v -3v 1v -5v 5v -2v 4v -2v 3v -2v 5v -5v 2v -3v 3v -5v 2v -6v 7v -5v 5v -3v 6v -4v 3h 1v -1v 3v -6v 2v -5v 2v -4v 5v -3v 6v -4v 4v -4v 4v -2v 2v -3v 3v -8v
 5v -3v 5v -3v 3h 1v 3v -4v 4v -3v 1v -2v 4v -4v 1v -4v 1v -3v 5v -2v 3v -1v 1v -1v 1v -1v 3v -1v 2v -5v 4v -5v 4v -4v 2v -3v 3h 1v -2v 3v -1v 6v -4v 1v -4v 4v -5v 1v -4v 6v -6v 10v -3v 1v -4v 3v -1v 2v -2v 3v -6h 1v 1v -5v 3v -2v 7v -1v 1v -2v 5v
 -7v 7v -5v 3v -3v 2v -5v 3v -5v 7v -4v 6v -3v 2v -2v 2v -1v 1h 1v -3v 1v -5v 5v -4v 1v -3v 5v -1v 6v -4v 2v -2v 2v -3v 5v -11v 7v -2v 6v -4v 1h 1v -4v 7v -4v 3v -8v 3v -3v 5v -2v 5v -3v 1v -3v 2v -7v 4v -2v 8h 1v -3v 3v -4v 1v -2v 2v -3v 3v -5v 2v
 -2v 6v -1v 4v -5v 4v -4v 4v -6v 2v -10v 11v -3h 1v 6v -3v 2v -2v 2v -3v 2v -2v 3v -3v 1v -3v 2v -3v 3v -6v 8v -1v 2v -1v 1v -5v 6v -2v 1v -7v 2h 1v -2v 8v -3v 4v -4v 3v -3v 2v -4v 4v -5v 2v -1v 1v -2v 6v -3v 3v -3v 2v -4v 3v -2h 1v -2v 3v -3v 1v -3v
 6v -1v 4v -5v 2v -1v 2v -3v 4v -8v 3v -5v 9v -1v 1v -3v 5h 1v -3v 2v -7v 5v -3v 4v -3v 4v -2v 2v -3v 1v -5v 3v -4v 7v -4v 5v -2h 1v -3v 3v -2v 2v -2v 1v -1v 1v -6v 4v -2v 5v -1v 4v -4v 2v -4v 6v -11v 7v -7v 9v -5v 4h 1v -2v 3v -2v 3v -4v 2v -1v 3v
 -8v 4v -5v 6v -4v 6v -3v 5v -6v 3v -5v 1v -1h 1v -1v 5v -1v 2v -1v 3v -3v 3v -3v 1v -4v 3v -6v 5v -2v 7v -3v 2v -1v 2v -5h 1v -6v 6v -6v 8v -2v 1v -1v 4v -3v 2v -2v 3v -7v 3v -7v 7v -5v 7v -1v 2v -2v 2v -3v 4h 1v -3v 4v -6v 3v -5v 1v -5v 12v -4v 3v
 -3v 2v -4v 1v -4v 6v -1v 2v -1v 2v -3v 3v -5v 4h 1v 1v -5v 5v -3v 1v -5v 3v -2v 1v -3v 5v -2v 4v -2v 4v -4v 1v -1v 4v -4v 1v -1v 1v -2v 3v -4v 2v -5v 6v -3h 1v 3v -2v 2v -1v 3v -4v 4v -1v 2v -6v 2v -6v 5v -2v 5v -3v 4v -4v 5v -6v 4v -2v 2v -1v 3v
 -8v 4v -4v 4v -2h 1v -1v 4v -1v 5v -6v 4v -3v 2v -3v 2v -8v 6v -3v 6v -3v 4v -4v 4v -3v 2v -1v 2v -9h 1v 4v -5v 8v -4v 4v -1v 3v -5v 2v -1v 3v -2v 1v -7v 8v -5v 6v -2v 4v -6v 3v -2v 3v -3h 1v -1v 3v -7v 3v -1v 3v -4v 7v -3v 3v -3v 2v -2v 1v -2v 1v
 -1v 3v -7v 4v -2v 6v -4v 3v -4v 4v -3v 2h 1v 1v -1v 2v -7v 3v -6v 11v -4v 3v -3v 3v -8v 5v -6v 8v -3v 5h 1v -3v 3v -8v 6v -5v 2v -6v 7v -1v 3v -1v 1v -3v 5v -5v 4v -4v 4v -3v 2v -2v 1v -5v 3v -3v 1v -2v 4h 1v 3v -2v 1v -1v 3v -2v 2v -3v 2v -4v 2v
 -4v 3v -4v 3v -1v 2v -2v 6v -4v 4v -5v 2v -1v 5v -5v 1h 1v -6v 3v -3v 7v -3v 4v -2v 1v -2v 3v -7v 3v -2v 4v -4v 3v -2v 4v -1v 3v -3v 2v -2v 1v -1h 1v 1v -5v 2v -1v 4v -1v 3v -2v 2v -3v 3v -6v 2v -4v 4v -2v 4v -3v 5v -3v 2v -2h 1v 4v -2v 2v -4v 7v
 -3v 3v -2v 3v -1v 1v -1v 1v -2v 2v -1v 1v -1v 1v -1v 1v -1v 1v -1v 1v -1v 1v -1h 1v 1v -1v 1v -1v 1v -1v 1v -1v 1v -1v 1h 28" fill="none" stroke="#000099"/>
<rect x="442" y="28" width="114" height="69" fill="white"/>
<path d="M442,97h 114" fill="none" stroke="black"/>
<path d="M556,97v -69" fill="none" stroke="black"/>
<path d="M556,28h -114" fill="none" stroke="black"/>
<path d="M442,28v 69" fill="none" stroke="black"/>
<text x="494" y="41" fill="black" font-size="15" font-family="Helvetica">
h
</text>
<path d="M442,45h 114" fill="none" stroke="black"/>
<text x="448" y="57" fill="black" font-size="11" font-family="Helvetica">
Entries 
</text>
<text x="505" y="57" fill="black" font-size="11" font-family="Helvetica">
 516737
</text>
<text x="448" y="74" fill="black" font-size="11" font-family="Helvetica">
Mean  
</text>
<text x="487" y="74" fill="black" font-size="11" font-family="Helvetica">
 1.039e+05
</text>
<text x="448" y="92" fill="black" font-size="11" font-family="Helvetica">
RMS   
</text>
<text x="494" y="92" fill="black" font-size="11" font-family="Helvetica">
 4.06e+05
</text>
<path d="M56,389h 454" fill="none" stroke="black"/>
<path d="M56,379v 10" fill="none" stroke="black"/>
<path d="M68,384v 5" fill="none" stroke="black"/>
<path d="M79,384v 5" fill="none" stroke="black"/>
<path d="M90,384v 5" fill="none" stroke="black"/>
<path d="M102,379v 10" fill="none" stroke="black"/>
<path d="M113,384v 5" fill="none" stroke="black"/>
<path d="M124,384v 5" fill="none" stroke="black"/>
<path d="M136,384v 5" fill="none" stroke="black"/>
<path d="M147,379v 10" fill="none" stroke="black"/>
<path d="M158,384v 5" fill="none" stroke="black"/>
<path d="M170,384v 5" fill="none" stroke="black"/>
<path d="M181,384v 5" fill="none" stroke="black"/>
<path d="M193,379v 10" fill="none" stroke="black"/>
<path d="M204,384v 5" fill="none" stroke="black"/>
<path d="M215,384v 5" fill="none" stroke="black"/>
<path d="M227,384v 5" fill="none" stroke="black"/>
<path d="M238,379v 10" fill="none" stroke="black"/>
<path d="M249,384v 5" fill="none" stroke="black"/>
<path d="M261,384v 5" fill="none" stroke="black"/>
<path d="M272,384v 5" fill="none" stroke="black"/>
<path d="M283,379v 10" fill="none" stroke="black"/>
<path d="M295,384v 5" fill="none" stroke="black"/>
<path d="M306,384v 5" fill="none" stroke="black"/>
<path d="M317,384v 5" fill="none" stroke="black"/>
<path d="M329,379v 10" fill="none" stroke="black"/>
<path d="M340,384v 5" fill="none" stroke="black"/>
<path d="M351,384v 5" fill="none" stroke="black"/>
<path d="M363,384v 5" fill="none" stroke="black"/>
<path d="M374,379v 10" fill="none" stroke="black"/>
<path d="M385,384v 5" fill="none" stroke="black"/>
<path d="M397,384v 5" fill="none" stroke="black"/>
<path d="M408,384v 5" fill="none" stroke="black"/>
<path d="M419,379v 10" fill="none" stroke="black"/>
<path d="M431,384v 5" fill="none" stroke="black"/>
<path d="M442,384v 5" fill="none" stroke="black"/>
<path d="M453,384v 5" fill="none" stroke="black"/>
<path d="M465,379v 10" fill="none" stroke="black"/>
<path d="M476,384v 5" fill="none" stroke="black"/>
<path d="M487,384v 5" fill="none" stroke="black"/>
<path d="M499,384v 5" fill="none" stroke="black"/>
<path d="M510,379v 10" fill="none" stroke="black"/>
<text x="37" y="404" fill="black" font-size="14" font-family="Helvetica">
-1000
</text>
<text x="87" y="404" fill="black" font-size="14" font-family="Helvetica">
-800
</text>
<text x="132" y="404" fill="black" font-size="14" font-family="Helvetica">
-600
</text>
<text x="177" y="404" fill="black" font-size="14" font-family="Helvetica">
-400
</text>
<text x="223" y="404" fill="black" font-size="14" font-family="Helvetica">
-200
</text>
<text x="279" y="404" fill="black" font-size="14" font-family="Helvetica">
0
</text>
<text x="316" y="404" fill="black" font-size="14" font-family="Helvetica">
200
</text>
<text x="361" y="404" fill="black" font-size="14" font-family="Helvetica">
400
</text>
<text x="407" y="404" fill="black" font-size="14" font-family="Helvetica">
600
</text>
<text x="452" y="404" fill="black" font-size="14" font-family="Helvetica">
800
</text>
<text x="493" y="404" fill="black" font-size="14" font-family="Helvetica">
1000
</text>
<text x="538" y="377" fill="black" font-size="9" font-family="Helvetica">
3
</text>
<text x="521" y="389" fill="black" font-size="14" font-family="Helvetica">
10
</text>
<text x="512" y="389" fill="black" font-size="14" font-family="Times">
&#0215;
</text>
<path d="M56,389v -364" fill="none" stroke="black"/>
<path d="M71,389h -15" fill="none" stroke="black"/>
<path d="M64,374h -8" fill="none" stroke="black"/>
<path d="M64,359h -8" fill="none" stroke="black"/>
<path d="M64,343h -8" fill="none" stroke="black"/>
<path d="M71,328h -15" fill="none" stroke="black"/>
<path d="M64,313h -8" fill="none" stroke="black"/>
<path d="M64,297h -8" fill="none" stroke="black"/>
<path d="M64,282h -8" fill="none" stroke="black"/>
<path d="M71,267h -15" fill="none" stroke="black"/>
<path d="M64,251h -8" fill="none" stroke="black"/>
<path d="M64,236h -8" fill="none" stroke="black"/>
<path d="M64,221h -8" fill="none" stroke="black"/>
<path d="M71,205h -15" fill="none" stroke="black"/>
<path d="M64,190h -8" fill="none" stroke="black"/>
<path d="M64,175h -8" fill="none" stroke="black"/>
<path d="M64,159h -8" fill="none" stroke="black"/>
<path d="M71,144h -15" fill="none" stroke="black"/>
<path d="M64,129h -8" fill="none" stroke="black"/>
<path d="M64,113h -8" fill="none" stroke="black"/>
<path d="M64,98h -8" fill="none" stroke="black"/>
<path d="M71,83h -15" fill="none" stroke="black"/>
<path d="M71,83h -15" fill="none" stroke="black"/>
<path d="M64,68h -8" fill="none" stroke="black"/>
<path d="M64,52h -8" fill="none" stroke="black"/>
<path d="M64,37h -8" fill="none" stroke="black"/>
<text x="45" y="394" fill="black" font-size="14" font-family="Helvetica">
0
</text>
<text x="28" y="332" fill="black" font-size="14" font-family="Helvetica">
200
</text>
<text x="28" y="271" fill="black" font-size="14" font-family="Helvetica">
400
</text>
<text x="28" y="210" fill="black" font-size="14" font-family="Helvetica">
600
</text>
<text x="28" y="148" fill="black" font-size="14" font-family="Helvetica">
800
</text>
<text x="20" y="87" fill="black" font-size="14" font-family="Helvetica">
1000
</text>
<rect x="442" y="28" width="114" height="69" fill="white"/>
<path d="M442,97h 114" fill="none" stroke="black"/>
<path d="M556,97v -69" fill="none" stroke="black"/>
<path d="M556,28h -114" fill="none" stroke="black"/>
<path d="M442,28v 69" fill="none" stroke="black"/>
<text x="494" y="41" fill="black" font-size="15" font-family="Helvetica">
h
</text>
<path d="M442,45h 114" fill="none" stroke="black"/>
<text x="448" y="57" fill="black" font-size="11" font-family="Helvetica">
Entries 
</text>
<text x="505" y="57" fill="black" font-size="11" font-family="Helvetica">
 516737
</text>
<text x="448" y="74" fill="black" font-size="11" font-family="Helvetica">
Mean  
</text>
<text x="487" y="74" fill="black" font-size="11" font-family="Helvetica">
 1.039e+05
</text>
<text x="448" y="92" fill="black" font-size="11" font-family="Helvetica">
RMS   
</text>
<text x="494" y="92" fill="black" font-size="11" font-family="Helvetica">
 4.06e+05
</text>
<path d="M56,389h 227v -11v 3v -4v 6v -3v 3h 1v -2v 1v -1v 2v -4v 3v -2v 2v -2v 2v -2v 2v -2v 4v -3v 2v -3v 2v -2v 3v -5v 3v -1v 2v -3v 4v -7v 4v -2v 4h 1v 1v -3v 5v -5v 4v -6v 3v -3v 1v -2v 1v -3v 8v -3v 2v -3v 5v -3v 1v -1v 2v -4v 2v -2h 1v 1v -2v
 3v -4v 5v -2v 2v -1v 3v -2v 2v -4v 2v -4v 2v -2v 3v -3v 4v -4v 5v -3v 3v -3v 2v -3v 2v -2h 1v 2v -3v 2v -1v 3v -3v 3v -2v 3v -2v 3v -6v 4v -3v 1v -2v 3v -3v 2v -1v 4v -3v 3v -3h 1v 5v -8v 5v -6v 4v -2v 5v -2v 4v -4v 2v -5v 3v -2v 3v -3v 1v -2v 6v
 -3v 3v -2v 1v -1h 1v -1v 3v -6v 1v -1v 5v -4v 2v -3v 1v -1v 4v -4v 4v -4v 7v -5v 3v -4v 4v -3v 1v -3v 6v -4v 2v -3v 4h 1v -4v 4v -5v 4v -3v 2v -1v 3v -5v 5v -7v 3v -2v 5v -2v 1v -3v 5v -2v 1v -2v 1v -1v 2v -3v 3v -4v 3v -3v 2v -3h 1v 5v -2v 4v -3v
 3v -5v 5v -3v 1v -2v 2v -1v 1v -3v 1v -1v 4v -4v 2v -1v 3v -2v 1v -3v 1v -1v 5v -3v 3v -8v 1h 1v 3v -4v 4v -3v 7v -4v 3v -4v 3v -3v 3v -3v 2v -2v 2v -3v 4v -2v 4v -4v 2v -2v 3v -4h 1v 3v -4v 2v -2v 3v -4v 4v -3v 5v -2v 3v -5v 3v -2v 2v -5v 6v -8v 6v
 -4v 6v -3v 2v -2v 2v -1v 2h 1v -3v 2v -4v 3v -3v 4v -4v 3v -6v 6v -2v 3v -5v 5v -2v 5v -4v 2v -5v 2v -4v 5v -1v 2v -5v 6v -4h 1v 1v -1v 5v -3v 2v -8v 6v -4v 5v -1v 4v -4v 4v -6v 2v -2v 3v -3v 1v -2v 4h 1v -2v 2v -2v 3v -3v 2v -2v 4v -7v 5v -5v 5v
 -5v 7v -3v 3v -4v 1v -3v 5v -3v 1v -3h 1v 2v -1v 1v -2v 4v -1v 2v -3v 3v -2v 2v -2v 2v -2v 1v -2v 1v -1v 1v -3v 4v -2v 2v -5v 6v -3v 3v -3v 2v -2h 1v -2v 5v -3v 1v -4v 4v -3v 2v -2v 5v -3v 3v -4v 5v -5v 3v -3v 2v -3v 4v -4v 3v -1v 2v -2v 2v -2v 4v
 -5h 1v 3v -4v 4v -6v 6v -4v 3v -2v 4v -2v 2v -5v 6v -3v 2v -3v 1v -1v 3v -5v 5v -1v 1v -1h 1v -1v 3v -4v 1v -3v 4v -2v 1v -5v 6v -3v 4v -2v 2v -2v 4v -6v 3v -1v 1v -5v 3v -2v 3v -3v 1h 1v 5v -4v 4v -3v 3v -6v 1v -1v 4v -3v 5v -2v 3v -4v 3v -6v 4v
 -5v 4h 1v -2v 3v -1v 2v -2v 3v -3v 1v -4v 4v -4v 3v -2v 3v -2v 4v -3v 2v -3v 1v -2v 2h 1v 1v -4v 5v -4v 3v -1v 3v -3v 1v -2v 2v -2v 3v -3v 1v -1v 2v -3v 2v -2v 3v -3v 2v -4v 5v -2v 4v -4v 1v -2v 1v -1h 1v 2v -3v 2v -3v 6v -5v 4v -4v 5v -2v 2v -3v 1v
 -4v 5v -5v 3v -1v 5v -3v 2v -3h 1v 2v -1v 1v -3v 3v -4v 4v -5v 2v -2v 5v -3v 3v -3v 6v -6v 4v -4v 2v -4v 6v -3v 4h 1v -3v 1v -2v 4v -6v 2v -1v 3v -5v 7v -5v 5v -3v 1v -3v 4v -3v 4v -3v 1v -4v 3v -3v 5h 1v -3v 2v -1v 2v -3v 2v -2v 1v -3v 4v -6v 7v
 -2v 2v -2v 1v -1v 1v -2v 4v -6v 5v -2h 1v -2v 2v -3v 6v -3v 2v -2v 2v -4v 2v -2v 1v -5v 6v -2v 1v -1v 2v -2v 4v -1v 1v -3v 5v -6v 3v -4v 2h 1v 2v -2v 1v -2v 2v -3v 3v -2v 4v -1v 1v -4v 5v -4v 4v -6v 3v -2v 1v -2v 3v -2v 2v -3v 3v -1v 3v -4v 5v -2v
 2v -5v 3h 1v -1v 1v -1v 1v -5v 4v -3v 6v -3v 3v -3v 2v -3v 1v -2v 3v -5v 3v -2v 4v -1v 3v -3v 1v -1h 1v 1v -4v 5v -3v 2v -4v 4v -2v 3v -1v 3v -7v 7v -6v 4v -5v 4v -5v 3h 1v 1v -3v 7v -4v 1v -1v 4v -5v 1v -3v 3v -3v 3v -1v 1v -2v 3v -4v 5v -1v 2v -5v
 3v -3v 2v -2v 4v -4v 1v -1h 1v -2v 5v -2v 4v -4v 3v -2v 2v -6v 4v -2v 2v -4v 3v -3v 6v -4v 5v -4v 1v -3v 5v -3h 1v 2v -3v 4v -3v 4v -4v 4v -5v 4v -3v 1v -3v 5v -4v 2v -2v 2v -2v 1v -1v 5v -5v 3v -2v 1v -3h 1v 5v -5v 5v -5v 3v -4v 4v -1v 3v -2v 3v
 -3v 3v -1v 2v -3v 2v -4v 3v -4v 2v -3v 3v -1v 1v -2v 5v -3h 1v 4v -6v 3v -3v 2v -3v 4v -4v 6v -3v 1v -2v 3v -1v 1v -3v 2v -2v 2v -4v 5v -4v 2v -2v 4h 1v 1v -4v 2v -1v 4v -6v 3v -4v 2v -2v 5v -5v 2v -1v 2v -1v 2v -1v 1v -1v 4v -5v 2v -3v 2v -3v 4v
 -5v 2h 1v 2v -3v 3v -3v 5v -3v 2v -1v 1v -1v 2v -5v 2v -2v 5v -4v 5v -3v 3v -3v 1v -5v 5h 1v -4v 4v -3v 4v -2v 1v -2v 3v -2v 2v -2v 1v -4v 3v -2v 2v -3v 3v -1v 4v -3v 2v -2v 3v -3h 1v -4v 5v -3v 2v -3v 4v -3v 3v -2v 3v -2v 3v -3v 2v -5v 3v -3v 2v
 -3v 5v -2v 2v -1v 2v -2v 3h 1v -3v 2v -3v 1v -2v 2v -3v 3v -1v 3v -4v 5v -4v 2v -4v 4v -3v 3v -6v 5v -2v 4v -3v 2h 1v -2v 2v -2v 4v -6v 6v -6v 3v -3v 5v -4v 4v -3v 2v -5v 6v -4v 4v -5v 5v -7v 5v -3v 3h 1v -2v 2v -1v 4v -4v 3v -2v 2v -4v 2v -3v 2v
 -3v 4v -2v 1v -1v 2v -3v 5v -1v 1v -1v 2v -2v 1v -3v 1v -4h 1v 4v -2v 4v -6v 4v -3v 4v -2v 1v -2v 5v -7v 4v -2v 3v -2v 1v -1v 3v -2v 1h 1v -3v 3v -3v 2v -1v 2v -2v 3v -2v 3v -6v 4v -3v 2v -3v 1v -3v 3v -1v 5v -3v 4v -5h 1v 2v -2v 3v -2v 3v -6v 4v
 -2v 3v -3v 3v -3v 4v -4v 4v -1v 3v -8v 4v -2v 2v -3v 5v -1v 4v -4v 1h 1v -1v 3v -5v 2v -3v 3v -4v 4v -4v 5v -1v 1v -1v 2v -5v 2v -1v 3v -4v 2v -5v 5v -4v 7v -5v 2h 1v 4v -6v 4v -2v 2v -1v 2v -4v 2v -4v 3v -3v 4v -4v 1v -2v 4v -2v 4v -3v 2v -4v 4v
 -4v 3v -3v 5v -5h 1v 3v -3v 4v -2v 2v -1v 1v -3v 5v -5v 5v -5v 2v -3v 5v -1v 2v -3v 1v -1v 3v -4v 1v -4h 1v -1v 6v -5v 6v -3v 1v -1v 3v -4v 4v -5v 1v -2v 5v -3v 5v -5v 4v -2v 2h 1v -4v 4v -3v 1v -3v 3v -2v 3v -2v 3v -3v 1v -2v 3v -3v 3v -4v 5v -3v
 1v -1v 2v -1v 1v -1h 1v 2v -6v 5v -3v 3v -6v 5v -3v 4v -3v 3v -1v 4v -4v 3v -3v 2v -1v 2v -6v 3v -5v 6h 1v -4v 5v -3v 3v -3v 5v -4v 2v -5v 3v -3v 3v -1v 2v -4v 4v -1v 3v -4v 1v -2v 3v -4v 5v -5v 2v -2v 5v -4h 1v 5v -5v 2v -2v 4v -3v 4v -2v 1v -3v 1v
 -4v 4v -3v 3v -3v 4v -1v 3v -2v 1v -1v 1v -4v 5v -4v 2v -2h 1v 2v -4v 4v -3v 3v -1v 2v -4v 4v -2v 3v -2v 2v -4v 1v -4v 2v -1v 4v -2v 3v -3v 4v -5v 3h 1v -4v 4v -6v 3v -1v 6v -4v 3v -4v 4v -1v 3v -4v 3v -3v 3v -7v 4v -4v 4v -2v 4v -3v 4v -1v 1v -3h
 1v 1v -3v 1v -3v 3v -3v 5v -4v 3v -3v 6v -4v 3v -2v 2v -2v 1v -4v 3v -3v 3v -2v 3v -2h 1v 4v -3v 2v -2v 1v -2v 1v -3v 4v -2v 1v -2v 2v -2v 4v -3v 2v -2v 3v -4v 3v -4v 3v -5v 1v -2v 6v -2v 3h 1v -4v 4v -4v 5v -6v 6v -5v 5v -2v 2v -6v 4v -2v 4v -3v 1v
 -1v 3v -1v 1v -5v 5v -5h 1v 2v -3v 3v -1v 5v -4v 3v -4v 3v -5v 7v -6v 1v -3v 7v -3v 2v -2v 1v -1v 3v -5h 1v 3v -3v 2v -2v 2v -5v 8v -1v 1v -3v 5v -4v 2v -2v 2v -2v 1v -3v 4v -6v 3v -2v 4v -2v 2v -1v 3v -4h 1v 1v -2v 3v -3v 1v -1v 3v -3v 2v -2v 3v
 -1v 3v -4v 1v -4v 4v -3v 4v -5v 5v -3v 3v -1v 5v -2h 1v -4v 3v -2v 1v -4v 3v -2v 2v -1v 1v -3v 4v -1v 1v -4v 5v -2v 1v -1v 2v -4v 2v -5v 4v -2v 5v -1h 1v -5v 6v -2v 1v -1v 2v -3v 2v -4v 1v -1v 2v -5v 8v -3v 3v -2v 3v -3v 3v -6v 1v -1v 1h 1v -1v 3v
 -1v 3v -2v 2v -3v 4v -6v 5v -3v 3v -6v 6v -7v 6v -2v 3v -3v 1v -1v 1v -1v 4v -3v 2v -4v 2h 1v -6v 4v -2v 4v -3v 4v -2v 2v -3v 3v -1v 4v -5v 6v -6v 1v -2v 4v -5v 2v -2v 4v -4v 4v -2v 4v -1v 1v -3h 1v -3v 4v -4v 4v -3v 3v -4v 6v -3v 1v -3v 4v -4v 4v
 -2v 4v -6v 2v -3v 5v -5v 1v -4v 6v -4v 5v -1v 3v -3h 1v -2v 2v -1v 1v -1v 2v -2v 1v -2v 3v -5v 6v -3v 4v -4v 2v -1v 2v -3v 4v -7v 4v -2v 4h 1v -5v 6v -3v 1v -2v 3v -3v 2v -1v 1v -2v 1v -3v 3v -3v 3v -5v 6v -3v 3v -1v 2v -4v 2v -3v 5v -6v 3v -3v 4h
 1v -2v 4v -4v 4v -4v 3v -2v 1v -4v 4v -4v 6v -4v 2v -5v 4v -2v 6v -3v 2v -3v 1v -1v 1v -2v 1h 1v 2v -3v 3v -2v 4v -3v 4v -4v 2v -4v 2v -3v 5v -5v 4v -2v 3v -3v 2v -3v 4v -1v 1v -2v 1v -1h 1v -2v 3v -5v 4v -1v 2v -2v 1v -3v 4v -2v 3v -2v 3v -7v 4v
 -1v 3v -4v 4v -7v 5v -1v 2v -3v 2v -1v 5v -2h 1v -2v 1v -3v 4v -5v 5v -6v 8v -4v 1v -1v 2v -4v 6v -6v 5v -3v 1v -5v 3v -3v 4v -2v 4h 1v -1v 1v -4v 4v -3v 1v -1v 1v -4v 6v -1v 1v -3v 2v -2v 2v -1v 1v -3v 3v -4v 3v -3v 4h 1v -3v 3v -3v 4v -4v 4v -2v
 1v -3v 1v -1v 2v -2v 2v -3v 4v -3v 2v -2v 3v -2v 2v -2v 4v -5v 3v -1v 2v -5v 4v -3h 1v -2v 5v -5v 4v -3v 7v -5v 2v -2v 4v -4v 3v -5v 2v -1v 3v -2v 1v -2v 2v -1v 5v -4v 3v -5v 2v -6v 10v -4h 1v -3v 5v -4v 1v -2v 3v -2v 3v -2v 4v -3v 1v -2v 2v -6v 5v
 -1v 1v -6v 8v -4v 4v -2v 1v -1v 4v -2v 1h 1v -5v 2v -1v 1v -4v 4v -2v 2v -2v 5v -4v 3v -3v 5v -8v 4v -3v 4v -1v 2v -4v 2v -1v 2v -2v 4v -1h 1v -4v 3v -1v 3v -8v 6v -5v 4v -3v 5v -5v 5v -3v 1v -2v 3v -3v 2v -4v 4v -2v 4v -5v 6v -5h 1v 5v -5v 5v -5v
 3v -4v 2v -2v 4v -5v 6v -6v 6v -4v 4v -2v 3v -4v 4v -7v 7h 1v -4v 1v -2v 5v -3v 1v -1v 1v -3v 1v -3v 3v -1v 2v -2v 2v -3v 4v -4v 5v -1v 2v -6v 4v -2v 4v -7v 4h 1v -3v 2v -4v 7v -4v 4v -2v 3v -7v 4v -5v 5v -2v 3v -3v 5v -4v 2v -3v 4v -5h 1v 5v -7v 7v
 -3v 1v -5v 6v -3v 3v -3v 4v -4v 3v -1v 1v -3v 5v -9v 7v -4v 4v -2v 3v -2v 1v -1h 1v 2v -3v 2v -4v 4v -5v 4v -5v 5v -1v 3v -4v 2v -1v 2v -3v 1v -2v 3v -5v 5v -1v 2v -4v 1h 1v 4v -1v 2v -6v 4v -3v 3v -4v 2v -2v 5v -2v 1v -3v 3v -2v 2v -1v 2v -3v 3v
 -6v 4v -3v 2v -2v 3v -2h 1v 3v -4v 5v -3v 4v -4v 3v -2v 1v -1v 1v -4v 3v -3v 2v -3v 5v -4v 4v -2v 4v -4v 4v -6v 4v -1v 2v -4h 1v 1v -2v 4v -4v 5v -3v 2v -2v 4v -2v 3v -5v 1v -2v 2v -1v 2v -3v 2v -5v 6v -2v 2v -2v 5v -4v 2v -5v 7h 1v -5v 1v -4v 6v
 -2v 1v -2v 3v -3v 5v -6v 4v -4v 4v -5v 1v -1v 3v -3v 5v -4v 2v -1v 3v -1h 1v 1v -3v 3v -1v 1v -5v 3v -4v 7v -4v 3v -2v 1v -1v 2v -3v 1v -4v 3v -1v 2v -3v 4v -3v 3v -1h 1v 2v -2v 3v -4v 2v -3v 2v -3v 3v -3v 3v -1v 2v -4v 3v -1v 2v -1v 2v -5v 4v -2v
 4v -3v 3v -4v 1v -2v 3h 1v -3v 6v -4v 1v -1v 4v -4v 2v -3v 2v -4v 4v -5v 4v -2v 3v -3v 4v -2v 2v -2v 3v -5v 4v -7v 6v -4v 3h 1v -3v 4v -3v 3v -1v 2v -1v 1v -3v 2v -2v 4v -4v 1v -2v 1v -2v 3v -4v 4v -1v 2v -1v 2v -2v 2v -3v 2h 1v -5v 1v -2v 7v -3v 2v
 -1v 3v -3v 2v -3v 1v -3v 2v -4v 4v -1v 4v -3v 2v -1v 1v -3h 1v 6v -6v 5v -6v 2v -5v 7v -4v 3v -3v 6v -4v 2v -3v 2v -1v 1v -3v 4v -2v 5v -4h 1v 2v -4v 3v -3v 2v -2v 1v -5v 7v -4v 3v -2v 4v -4v 5v -4v 2v -6v 4v -5v 5v -3v 4v -1v 2h 1v -1v 1v -4v 5v
 -2v 1v -3v 2v -1v 1v -1v 1v -2v 4v -3v 3v -2v 1v -1v 1v -2v 2v -1v 1v -3v 2v -3v 3v -3v 3h 1v -2v 2v -2v 4v -4v 5v -3v 3v -5v 2v -2v 2v -3v 3v -4v 4v -1v 3v -3v 5v -5v 4v -5v 4v -3v 1v -3h 1v 3v -3v 3v -2v 2v -4v 5v -1v 1v -5v 5v -3v 2v -2v 2v -1v
 2v -4v 2v -3v 4v -2v 3v -3v 2v -1v 3v -1v 1v -2h 1v -1v 3v -4v 1v -2v 2v -2v 5v -5v 6v -3v 1v -1v 2v -3v 4v -7v 5v -3v 2v -1v 1v -2v 2v -1v 2v -2v 5v -5v 5v -8h 1v 7v -4v 3v -3v 1v -2v 1v -2v 4v -3v 4v -5v 5v -3v 3v -4v 3v -1v 2v -4v 1v -7v 10v -2v
 2v -3v 2h 1v 1v -3v 4v -2v 1v -4v 2v -1v 2v -3v 1v -3v 5v -2v 2v -1v 3v -3v 3v -6v 5v -5v 2v -5v 5h 1v -1v 3v -1v 1v -1v 2v -2v 1v -3v 3v -5v 3v -3v 4v -2v 3v -4v 3v -2v 4v -2v 2v -3v 2v -3v 3v -5v 4v -2h 1v -1v 2v -2v 3v -1v 3v -4v 3v -3v 3v -1v 2v
 -3v 2v -3v 2v -5v 7v -4v 4v -4v 3v -2v 3v -6v 4v -1v 2h 1v 1v -2v 1v -4v 5v -3v 1v -2v 2v -2v 5v -5v 6v -4v 1v -4v 1v -1v 3v -3v 1v -1v 3v -2v 2v -3v 3h 1v 1v -4v 3v -4v 3v -1v 4v -5v 3v -1v 1v -2v 2v -1v 1v -1v 3v -5v 3v -2v 3v -4v 5v -5v 3h 1v 2v
 -2v 1v -5v 4v -3v 5v -5v 3v -2v 3v -2v 1v -1v 3v -3v 1v -3v 1v -1v 4v -1v 2v -4v 1h 1v 3v -5v 4v -1v 3v -5v 2v -4v 3v -3v 4v -1v 2v -1v 3v -6v 4v -2v 2v -6v 3v -2v 3h 1v 1v -2v 3v -3v 5v -3v 2v -5v 3v -3v 2v -2v 7v -5v 3v -5v 4v -1v 1v -4v 2h 1v 4v
 -5v 2v -4v 4v -1v 5v -4v 4v -7v 1v -1v 3v -3v 4v -3v 6v -7v 5v -6v 6v -3v 3h 1v -5v 3v -3v 3v -4v 4v -1v 3v -4v 5v -3v 3v -4v 3v -4v 4v -5v 3v -4v 4v -5v 2v -4v 9v -4h 1v 5v -6v 5v -5v 4v -3v 1v -2v 3v -1v 1v -1v 2v -3v 4v -4v 3v -4v 3v -2v 2v -1v
 2v -1h 1v 2v -4v 3v -1v 1v -1v 1v -2v 4v -6v 4v -4v 4v -3v 2v -2v 3v -2v 2v -5v 7v -3v 2v -3v 1v -2v 2v -4v 3h 1v -3v 6v -2v 3v -3v 1v -2v 1v -3v 3v -9v 8v -3v 3v -2v 2v -1v 4v -4v 3v -3v 5v -5v 4v -4v 2h 1v -5v 6v -4v 5v -2v 1v -4v 3v -2v 3v -2v 2v
 -4v 3v -4v 3v -1v 2v -5v 5v -5v 6v -1v 2v -3v 3v -3v 1h 1v -1v 2v -4v 2v -2v 2v -4v 7v -1v 1v -2v 3v -4v 1v -1v 1v -6v 6v -2v 2v -5v 6v -2v 4v -2v 1h 1v -1v 1v -3v 6v -7v 4v -5v 1v -1v 4v -1v 1v -3v 2v -2v 4v -5v 3v -5v 2v -1v 3v -4v 7h 1v 1v -3v 4v
 -5v 1v -2v 4v -5v 3v -3v 6v -5v 4v -5v 5v -3v 1v -4v 7v -7v 5v -2v 1v -4v 2v -1v 2h 1v -1v 2v -2v 4v -2v 1v -2v 2v -4v 3v -3v 3v -2v 2v -2v 1v -2v 3v -1v 1v -1v 3v -4v 2v -3h 1v 3v -5v 5v -1v 2v -1v 4v -6v 4v -5v 4v -4v 1v -3v 3v -1v 4v -4v 4v -2v
 4v -6v 4v -3v 1h 1v -2v 2v -2v 3v -3v 3v -4v 6v -4v 6v -6v 3v -5v 7v -6v 1v -1v 3v -5v 6v -3v 5v -4v 2v -2h 1v 1v -1v 2v -5v 3v -2v 3v -2v 1v -1v 5v -5v 2v -1v 3v -1v 2v -5v 3v -4v 1v -4v 6v -4v 4v -2v 4h 1v -5v 3v -2v 1v -4v 5v -3v 3v -2v 3v -2v 2v
 -4v 1v -1v 5v -2v 1v -2v 1v -4v 5v -2v 3v -5v 2v -3h 1v 5v -4v 3v -1v 4v -4v 2v -3v 1v -2v 3v -4v 5v -1v 1v -1v 1v -2v 3v -1v 2v -5v 2v -2v 2v -3v 3h 1v -1v 2v -2v 2v -3v 2v -1v 2v -1v 1v -1v 2v -5v 3v -4v 4v -3v 7v -7v 5v -2v 2v -3v 3v -2v 2v -4v
 1h 1v -1v 1v -1v 2v -3v 5v -4v 2v -2v 4v -3v 4v -4v 2v -1v 1v -2v 1v -4v 5v -5v 4v -7v 8v -1v 2v -3h 1v -1v 2v -2v 2v -4v 4v -2v 4v -4v 4v -2v 1v -4v 2v -2v 1v -1v 4v -4v 3v -1v 2v -3v 5v -3h 1v -2v 4v -3v 4v -4v 1v -4v 5v -5v 4v -2v 3v -2v 4v -6v
 3v -1v 1v -4v 4v -5v 6v -4v 6h 1v -4v 2v -3v 3v -3v 1v -1v 1v -5v 4v -1v 3v -3v 5v -5v 6v -3v 3v -7v 2v -1v 1v -2v 3h 1v -1v 4v -5v 5v -1v 1v -2v 1v -3v 4v -3v 1v -2v 3v -2v 2v -4v 4v -2v 3v -4v 4v -3v 4v -1v 1v -6v 5v -7v 3v -1h 1v 3v -8v 6v -1v 4v
 -1v 2v -5v 4v -3v 3v -4v 3v -3v 2v -2v 2v -4v 4v -2v 3v -1v 2v -1v 1v -3h 1v 2v -4v 3v -3v 5v -7v 6v -3v 1v -1v 3v -3v 5v -2v 1v -3v 3v -1v 1v -5v 4v -3v 3v -1v 2v -5v 3v -2v 3v -3v 3v -2v 3v -2h 1v 2v -1v 1v -5v 2v -3v 6v -3v 3v -3v 2v -1v 4v -4v
 2v -2v 1v -5v 5v -4v 4v -6v 9v -5v 1h 1v 3v -2v 1v -5v 4v -6v 6v -1v 1v -2v 1v -1v 1v -1v 3v -5v 5v -2v 2v -3v 2v -3v 1v -1v 2v -2h 1v 4v -3v 5v -6v 5v -3v 3v -4v 2v -4v 6v -6v 6v -3v 1v -3v 3v -2v 2v -1v 3v -1v 1v -6v 5v -4h 1v -1v 4v -3v 4v -8v 8v
 -2v 5v -3v 2v -5v 2v -2v 2v -2v 1v -4v 2v -1v 3v -1v 2v -3v 3v -2v 6v -4v 2v -3v 1v -3v 4v -1h 1v -4v 2v -1v 1v -2v 4v -4v 6v -4v 3v -2v 2v -2v 1v -2v 3v -4v 3v -5v 6v -3v 3v -2v 2v -4v 3v -1h 1v 1v -3v 4v -8v 6v -3v 4v -3v 5v -3v 3v -2v 2v -5v 2v
 -2v 3v -4v 2v -1v 2v -4v 4v -1v 3v -2v 1v -2v 3h 1v -3v 5v -3v 3v -7v 5v -3v 2v -3v 2v -1v 4v -4v 4v -5v 5v -5v 1v -1v 4v -4v 3v -3v 5h 1v -5v 5v -4v 3v -2v 2v -4v 3v -3v 3v -2v 2v -1v 2v -2v 2v -4v 4v -2v 3v -4v 1v -1v 2h 1v -4v 4v -1v 3v -4v 3v
 -4v 4v -2v 2v -4v 5v -6v 5v -2v 1v -1v 3v -3v 2v -2v 3v -5h 1v -4v 5v -3v 5v -2v 4v -5v 3v -1v 3v -4v 3v -3v 1v -3v 4v -4v 1v -3v 5v -2v 1v -4v 5v -2v 4v -2v 4v -6h 1v 3v -3v 2v -5v 6v -2v 3v -2v 2v -2v 2v -1v 2v -6v 5v -6v 7v -5v 2v -2v 4v -4v 2v
 -6v 9v -4v 1v -2v 3v -1h 1v 4v -6v 2v -1v 2v -4v 4v -3v 3v -2v 1v -1v 3v -2v 1v -3v 4v -3v 2v -3v 1v -3v 2v -2v 4v -2v 2h 1v 5v -7v 5v -2v 2v -3v 1v -3v 4v -3v 4v -6v 5v -1v 1v -2v 3v -3v 2v -4v 4h 1v -3v 4v -6v 4v -1v 2v -1v 1v -2v 1v -4v 3v -3v 3v
 -6v 7v -2v 5v -4v 4v -4v 1v -3v 1h 1v -1v 2v -5v 7v -5v 3v -3v 5v -4v 5v -4v 3v -4v 3v -3v 3v -4v 2v -2v 4v -1v 2v -3v 4v -5v 5v -4v 1h 1v 1v -2v 1v -2v 2v -4v 5v -2v 2v -2v 3v -4v 4v -4v 2v -6v 6v -2v 3v -1v 1v -3v 3v -2v 2v -3v 4h 1v -6v 5v -5v 7v
 -7v 4v -2v 5v -5v 5v -4v 4v -2v 1v -4v 2v -6v 7v -5v 3v -1v 4v -1h 1v -2v 2v -3v 3v -2v 2v -4v 6v -7v 2v -4v 3v -2v 6v -3v 2v -1v 2v -3v 3v -5v 3v -2v 1v -3v 3v -2v 2v -4h 1v 5v -4v 5v -2v 2v -3v 4v -3v 1v -3v 2v -1v 1v -3v 4v -5v 4v -2v 4v -2v 1v
 -4v 5v -3v 1v -1v 1v -5v 5h 1v -5v 3v -2v 2v -4v 4v -34v 2v -1v 8v -2v 34v -45v 5v -6v 8v -1v 3v -5v 5v -8h 1v 12v -3v 3v -5v 12v -4v 3v -6v 5v -9v 11v -7v 2v -1v 2v -7v 8v -5v 8v -3v 1v -7v 8v -2v 4v -8v 6v -2v 5h 1v -6v 4v -3v 2v -6v 6v -4v 7v -2v
 6v -6v 2v -5v 6v -11v 12v -9v 4v -4v 4v -7v 6v -4v 10v -4v 2v -5v 8v -3h 1v -10v 13v -8v 7v -11v 6v -3v 4v -10v 10v -2v 5v -3v 3v -6v 5v -9v 7v -1v 2v -4v 5v -3v 5v -8v 4v -2v 6h 1v -6v 5v -6v 11v -7v 4v -6v 3v -3v 6v -6v 2v -5v 7v -8v 12v -12v 9v
 -5v 6v -8v 11v -7v 5v -6v 5v -6v 5v -8h 1v 9v -9v 10v -9v 8v -3v 5v -9v 9v -10v 6v -6v 11v -9v 7v -8v 10v -5v 5v -9v 5v -2h 1v -4v 7v -1v 1v -3v 3v -11v 11v -5v 5v -4v 6v -3v 4v -4v 8v -12v 8v -11v 9v -5v 3v -4v 7v -4v 5v -3v 2h 1v 1v -3v 3v -10v 8v
 -6v 7v -4v 4v -8v 10v -5v 3v -3v 1v -6v 9v -5v 1v -1v 2v -2v 4v -5v 5v -3v 2v -5v 10v -5v 4v -10h 1v 6v -9v 12v -6v 5v -6v 7v -4v 3v -6v 7v -4v 3v -4v 8v -9v 2v -2v 5v -3v 4v -5v 8v -10v 7v -3h 1v -3v 7v -6v 6v -2v 3v -8v 4v -5v 4v -3v 4v -5v 5v -1v
 2v -3v 5v -10v 10v -7v 3v -1v 3v -3v 6v -8v 6v -5v 2v -5v 3h 1v 7v -11v 6v -3v 8v -6v 4v -4v 8v -8v 2v -10v 11v -3v 5v -4v 3v -5v 5v -5v 8v -3v 2v -7v 11v -8v 2v -5v 5v -1h 1v -5v 7v -5v 4v -5v 7v -3v 4v -5v 4v -2v 1v -3v 1v -4v 7v -8v 6v -2v 3v -6v
 4v -4v 8v -4v 2v -1v 3v -5v 5v -4h 1v 3v -2v 3v -11v 5v -3v 9v -4v 2v -1v 1v -1v 4v -6v 5v -4v 2v -5v 6v -5v 5v -4v 2v -1v 4v -4v 4v -7h 1v 10v -8v 9v -10v 3v -4v 5v -6v 5v -8v 7v -2v 2v -2v 7v -1v 1v -6v 3v -3v 4v -5v 5v -1v 1v -7v 8v -6v 5v -1h 1v
 1v -3v 3v -3v 3v -7v 8v -3v 3v -3v 3v -1v 1v -4v 4v -6v 4v -1v 3v -3v 3v -2v 6v -7v 4v -4v 1v -3v 7v -11v 8v -2v 2v -3h 1v 8v -3v 1v -3v 2v -1v 3v -7v 2v -2v 2v -4v 9v -7v 7v -6v 8v -11v 3v -1v 3v -1v 4v -4v 1v -1v 4v -5h 1v 3v -11v 13v -3v 3v -6v
 9v -8v 7v -4v 1v -2v 1v -4v 5v -1v 2v -3v 6v -6v 3v -3v 1v -2v 4v -1h 1v -5v 3v -1v 2v -5v 9v -4v 2v -1v 3v -4v 3v -2v 4v -3v 1v -7v 2v -2v 6v -6v 2v -1v 5v -6v 4v -4v 5v -2v 4v -7v 7v -3h 1v 7v -10v 5v -2v 1v -7v 7v -3v 4v -6v 7v -3v 2v -6v 7v -4v
 1v -2v 6v -5v 5v -7v 9v -4v 3v -6h 1v 4v -3v 3v -5v 3v -1v 2v -8v 10v -7v 5v -3v 4v -3v 3v -1v 3v -6v 3v -2v 3v -7v 6v -4v 2v -1v 4v -3v 2v -3v 3h 1v -2v 4v -1v 1v -3v 1v -3v 5v -6v 6v -8v 7v -1v 7v -10v 6v -4v 2v -1v 2v -6v 8v -9v 7v -2h 1v -2v 6v
 -6v 3v -5v 6v -7v 8v -5v 4v -6v 7v -3v 2v -4v 4v -5v 5v -4v 6v -3v 2v -4v 8v -14h 1v 8v -6v 5v -3v 6v -3v 4v -6v 7v -6v 1v -2v 6v -5v 2v -5v 6v -4v 3v -1v 3v -5v 6v -6v 3v -2h 1v -2v 3v -4v 6v -4v 4v -7v 9v -4v 3v -2v 4v -7v 4v -4v 2v -2v 3v -3v 4v
 -2v 5v -6v 5h 1v -4v 5v -6v 2v -4v 6v -2v 1v -4v 7v -6v 6v -6v 8v -5v 2v -6v 4v -3v 1v -4v 6v -3v 4v -3v 3v -5v 5h 1v 1v -3v 2v -4v 5v -5v 1v -2v 5v -4v 4v -7v 10v -5v 4v -7v 6v -6v 4v -3v 5v -5v 3v -3v 2h 1v 3v -5v 2v -3v 4v -3v 6v -4v 4v -8v 5v
 -5v 8v -8v 4v -8v 13v -5v 2v -1v 3v -3v 2v -4v 2v -8v 9h 1v -7v 5v -2v 4v -4v 6v -6v 7v -2v 2v -6v 3v -5v 6v -5v 1v -1v 2v -2v 8v -4v 3v -6v 8v -7v 4v -3h 1v 2v -3v 2v -7v 7v -1v 1v -4v 8v -7v 5v -3v 4v -3v 2v -4v 3v -5v 5v -4v 2v -1v 2v -7v 7v -5v
 7v -3v 4v -1h 1v -2v 1v -5v 7v -4v 1v -2v 3v -1v 2v -4v 1v -2v 3v -1v 3v -3v 3v -4v 5v -8v 6v -4v 4v -6v 6v -1v 1h 1v 1v -4v 4v -3v 2v -4v 6v -4v 1v -2v 3v -9v 9v -2v 2v -3v 5v -2v 2v -4v 1v -1v 2v -1v 3v -5v 2v -1h 1v 2v -6v 7v -4v 4v -2v 3v -4v 4v
 -4v 1v -4v 6v -3v 3v -5v 6v -5v 5v -3v 4v -6v 6v -5v 2v -1v 1v -4h 1v -4v 9v -4v 7v -4v 3v -4v 1v -2v 3v -3v 2v -1v 2v -4v 3v -6v 7v -4v 5v -2v 2v -7v 5v -2v 2v -2h 1v 5v -5v 2v -3v 4v -2v 5v -3v 1v -6v 8v -6v 6v -6v 7v -8v 5v -10v 6v -3v 3v -2v 4v
 -2v 3v -1v 1v -1v 3v -6v 6v -5h 1v 4v -3v 1v -3v 2v -1v 4v -4v 6v -5v 3v -2v 1v -3v 4v -3v 3v -5v 5v -6v 7v -4v 4v -1v 1h 1v -1v 2v -6v 2v -2v 3v -4v 4v -3v 5v -4v 4v -3v 5v -8v 1v -1v 2v -1v 3v -3v 6v -6h 1v 4v -2v 3v -1v 2v -3v 2v -4v 3v -5v 2v
 -1v 6v -6v 4v -1v 3v -7v 3v -3v 5v -1v 2v -4v 3v -4v 4v -2v 3v -3v 2v -5h 1v 3v -4v 2v -1v 7v -5v 4v -2v 4v -5v 4v -8v 4v -2v 4v -5v 7v -6v 4v -2v 4v -4v 2v -8v 8v -3v 1h 1v 1v -1v 2v -4v 6v -6v 4v -3v 4v -6v 5v -1v 2v -2v 4v -5v 4v -7v 2v -1v 5v
 -3v 3v -1v 1v -4v 5h 1v -4v 2v -2v 2v -4v 4v -3v 3v -2v 6v -4v 1v -4v 5v -2v 1v -1v 3v -7v 3v -4v 1v -1v 5v -1v 4v -6v 4v -1h 1v 1v -1v 2v -6v 4v -3v 2v -1v 4v -4v 2v -1v 5v -5v 3v -3v 2v -2v 1v -3v 3v -4v 3v -3v 7v -4v 3h 1v -4v 2v -3v 3v -3v 2v
 -2v 3v -4v 4v -3v 2v -3v 6v -6v 8v -5v 5v -4v 1v -4v 3v -5v 3v -5v 6v -2h 1v 4v -1v 2v -1v 3v -5v 4v -4v 2v -4v 1v -4v 6v -4v 6v -2v 4v -5v 3v -3v 6v -9v 4v -3v 5v -6v 4v -1h 1v -3v 4v -2v 4v -2v 2v -2v 2v -3v 3v -3v 3v -6v 5v -4v 5v -4v 5v -4v 1v
 -1v 3h 1v -4v 2v -3v 3v -3v 3v -1v 2v -1v 4v -4v 3v -1v 1v -7v 6v -3v 2v -5v 3v -2v 3v -4v 1v -1v 4v -2v 5v -7v 5h 1v -3v 3v -5v 4v -4v 2v -1v 3v -3v 4v -2v 4v -5v 5v -6v 4v -2v 1v -4v 3v -5v 10v -8v 7h 1v -4v 5v -6v 4v -3v 5v -6v 3v -3v 4v -2v 2v
 -1v 4v -5v 1v -2v 1v -1v 1v -4v 4v -3v 5v -3h 1v 3v -2v 4v -4v 3v -4v 4v -7v 2v -2v 5v -5v 4v -2v 2v -1v 4v -2v 1v -2v 3v -5v 2v -4v 6v -6v 6v -5h 1v 3v -4v 2v -1v 5v -2v 3v -7v 3v -1v 6v -3v 3v -4v 1v -5v 4v -3v 5v -2v 5v -3v 1v -2v 1v -5v 5v -4h
 1v 2v -2v 5v -7v 7v -6v 4v -3v 4v -3v 3v -5v 5v -6v 5v -4v 5v -4v 3v -3v 7v -4v 1v -1h 1v 2v -6v 3v -1v 3v -2v 1v -4v 5v -4v 5v -1v 1v -2v 2v -3v 2v -6v 6v -3v 1v -3v 6v -5v 4v -1v 3v -1h 1v -1v 3v -5v 4v -4v 2v -2v 2v -5v 4v -3v 3v -2v 7v -6v 4v
 -2v 1v -3v 2v -4v 5v -3v 3v -7v 7v -5h 1v 3v -1v 6v -6v 4v -3v 2v -2v 3v -5v 3v -5v 2v -2v 2v -4v 7v -2v 1v -1v 3v -2v 3v -4v 1v -3v 3v -3v 2v -4v 4h 1v -1v 3v -2v 2v -1v 4v -7v 5v -5v 6v -4v 1v -1v 1v -3v 1v -1v 4v -4v 7v -4v 3v -2v 5v -7v 2v -4v
 1h 1v 2v -4v 5v -3v 4v -3v 3v -2v 1v -6v 6v -2v 1v -1v 2v -4v 1v -1v 5v -4v 3v -5v 5v -2v 3v -6v 4v -4v 3v -2h 1v 5v -4v 2v -3v 2v -4v 8v -6v 5v -1v 1v -2v 2v -3v 2v -2v 1v -2v 3v -5v 5v -4v 6v -6v 5v -1v 3v -5v 2h 1v 1v -1v 1v -6v 2v -3v 6v -3v 4v
 -2v 1v -1v 3v -3v 2v -2v 3v -4v 3v -5v 4v -4v 4v -3v 4v -6v 5h 1v -2v 4v -2v 1v -5v 3v -4v 3v -2v 4v -2v 1v -1v 3v -1v 1v -6v 4v -3v 3v -2v 5h 1v -6v 3v -1v 3v -1v 1v -2v 4v -5v 2v -6v 7v -4v 2v -2v 3v -3v 6v -4v 2v -5v 5v -2v 2v -6h 1v 2v -1v 4v
 -5v 6v -5v 8v -4v 1v -2v 3v -5v 4v -5v 2v -2v 5v -6v 3v -4v 9v -3v 2v -1v 1v -3h 1v 2v -3v 1v -5v 5v -3v 5v -3v 5v -3v 1v -3v 4v -2v 2v -5v 3v -3v 5v -2v 1v -3v 5v -4v 2v -1v 1v -2h 1v 3v -2v 1v -5v 4v -2v 1v -2v 2v -5v 7v -4v 4v -1v 3v -4v 3v -1v
 1v -4v 3v -7v 7v -4v 4v -3v 3v -2v 2v -2v 4h 1v -5v 3v -1v 2v -3v 3v -5v 2v -1v 2v -5v 7v -5v 6v -4v 4v -1v 5v -7v 2v -3v 2v -5v 5v -6v 4h 1v 3v -3v 4v -3v 3v -5v 2v -1v 3v -5v 1v -1v 3v -3v 4v -3v 1v -1v 3v -3v 5v -5v 3v -2v 2v -3v 4v -4v 2v -4v 2h
 1v 4v -3v 2v -3v 2v -1v 4v -2v 4v -5v 2v -4v 4v -5v 2v -2v 5v -3v 3v -3v 3v -2v 1v -2v 3v -2v 1v -5v 5v -5h 1v 5v -6v 6v -5v 2v -3v 5v -3v 7v -5v 5v -5v 4v -5v 3v -4v 2v -1v 2v -3v 4v -3v 5v -4v 3v -2h 1v -1v 3v -5v 4v -4v 3v -3v 4v -3v 4v -3v 2v
 -3v 5v -4v 4v -3v 1v -1v 2v -5v 6v -3v 3v -7v 7v -3v 1v -2h 1v 3v -1v 1v -3v 2v -4v 4v -4v 5v -5v 3v -1v 3v -4v 4v -1v 1v -4v 3v -2v 3v -3v 1v -3v 4v -3v 1v -2v 4h 1v -3v 4v -2v 2v -3v 4v -8v 4v -1v 3v -4v 3v -1v 2v -3v 3v -1v 1v -1v 4v -5v 4v -5v
 5v -7v 4v -4v 5v -1v 1h 1v -3v 4v -4v 1v -1v 5v -5v 3v -1v 2v -8v 6v -3v 3v -2v 3v -1v 2v -1v 1v -4v 3v -1v 3v -5v 3v -3h 1v -3v 5v -3v 5v -3v 2v -1v 2v -3v 5v -3v 1v -4v 4v -5v 2v -1v 1v -1v 4v -4v 3v -1v 2v -2v 3v -3v 3v -4h 1v 2v -5v 4v -2v 3v
 -1v 1v -2v 4v -4v 4v -5v 3v -3v 2v -2v 2v -2v 2v -2v 2v -2v 3v -2v 4v -5v 4h 1v -2v 2v -4v 4v -5v 3v -1v 6v -7v 2v -2v 1v -2v 5v -4v 5v -4v 2v -5v 8v -9v 5v -3v 5v -4v 4v -3v 3h 1v -5v 8v -8v 5v -2v 1v -6v 6v -2v 2v -2v 4v -4v 2v -3v 2v -2v 4v -4v
 1v -1v 2v -2h 1v 5v -4v 4v -4v 4v -3v 2v -4v 5v -3v 1v -2v 1v -3v 3v -2v 4v -2v 3v -2v 2v -4v 4v -2v 2v -5v 2v -1h 1v -2v 2v -3v 5v -4v 4v -1v 4v -4v 4v -6v 3v -3v 2v -1v 2v -2v 1v -3v 5v -2v 1v -3v 6v -4v 1v -2h 1v -1v 2v -4v 6v -3v 3v -3v 2v -2v
 2v -7v 6v -2v 2v -4v 4v -3v 4v -1v 4v -4v 1v -3v 2h 1v 2v -4v 3v -6v 5v -2v 4v -4v 4v -2v 1v -3v 5v -3v 1v -2v 3v -6v 5v -3v 1v -3v 6v -5v 5v -5v 3v -1h 1v 4v -2v 1v -2v 2v -4v 4v -4v 2v -4v 7v -5v 3v -1v 1v -2v 3v -2v 1v -2v 2v -3v 2v -3v 3v -3v 5v
 -5v 8h 1v -5v 1v -1v 1v -2v 4v -2v 2v -4v 2v -4v 3v -2v 2v -1v 1" fill="none" stroke="#ff0000"/>
<rect x="442" y="101" width="113" height="69" fill="white"/>
<path d="M442,170h 113" fill="none" stroke="black"/>
<path d="M555,170v -69" fill="none" stroke="black"/>
<path d="M555,101h -113" fill="none" stroke="black"/>
<path d="M442,101v 69" fill="none" stroke="black"/>
<text x="490" y="114" fill="black" font-size="15" font-family="Helvetica">
h2
</text>
<path d="M442,118h 113" fill="none" stroke="black"/>
<text x="447" y="130" fill="black" font-size="11" font-family="Helvetica">
Entries 
</text>
<text x="505" y="130" fill="black" font-size="11" font-family="Helvetica">
 516737
</text>
<text x="447" y="147" fill="black" font-size="11" font-family="Helvetica">
Mean  
</text>
<text x="487" y="147" fill="black" font-size="11" font-family="Helvetica">
 5.491e+05
</text>
<text x="447" y="165" fill="black" font-size="11" font-family="Helvetica">
RMS   
</text>
<text x="487" y="165" fill="black" font-size="11" font-family="Helvetica">
 2.739e+05
</text>
<rect x="442" y="101" width="113" height="69" fill="white"/>
<path d="M442,170h 113" fill="none" stroke="black"/>
<path d="M555,170v -69" fill="none" stroke="black"/>
<path d="M555,101h -113" fill="none" stroke="black"/>
<path d="M442,101v 69" fill="none" stroke="black"/>
<text x="490" y="114" fill="black" font-size="15" font-family="Helvetica">
h2
</text>
<path d="M442,118h 113" fill="none" stroke="black"/>
<text x="447" y="130" fill="black" font-size="11" font-family="Helvetica">
Entries 
</text>
<text x="505" y="130" fill="black" font-size="11" font-family="Helvetica">
 516737
</text>
<text x="447" y="147" fill="black" font-size="11" font-family="Helvetica">
Mean  
</text>
<text x="487" y="147" fill="black" font-size="11" font-family="Helvetica">
 5.491e+05
</text>
<text x="447" y="165" fill="black" font-size="11" font-family="Helvetica">
RMS   
</text>
<text x="487" y="165" fill="black" font-size="11" font-family="Helvetica">
 2.739e+05
</text>
<text x="276" y="24" fill="black" font-size="23" font-family="Helvetica">
h
</text></svg>
