<?xml version="1.0" standalone="no"?>
<svg width="567" height="385" viewBox="0 0 567 385" xmlns="http://www.w3.org/2000/svg">
<title>
images/analysis_tight/451_D3.svg
</title>
<desc>
Creator: ROOT Version 5.34/05
CreationDate: Wed Jun 12 17:41:57 2013</desc>
<defs>
</defs>
<rect x="0" y="0" width="567" height="385" fill="white"/>
<rect x="57" y="38" width="453" height="308" fill="white"/>
<rect x="57" y="38" width="453" height="308" fill="none" stroke="black"/>
<rect x="57" y="38" width="453" height="308" fill="white"/>
<rect x="57" y="38" width="453" height="308" fill="none" stroke="black"/>
<path d="M57,346h 45v -1v 1h 1v -1v 1v -1v 1v -26h 1v 20v -24v 20v -1h 1v -9v 12v -22v 9h 1v 8v -15v 20h 1v -13v 13v -10v 7v -25h 1v 20v -9v 12h 1v -20v 28v -16h 1v 11v -21v 11h 1v 7v -25v 27v -14h 1v 17v -17v 15h 1v -8v 7v -17h 1v 22v -37v 35h 1v
 -28v 25v -17h 1v 22v -35v 16h 1v 17v -17v 12v -10h 1v -3v 21v -25v 15h 1v 10v -25v 19v -10h 1v 6v -20v 20h 1v -6v 6v -8v 10v -15h 1v -8v 21v -5v 7h 1v -3v 5v -27v 25v -3h 1v -4v 14v -15v 3h 1v 5v -7v 7v -2h 1v 5v -6v 8v -18v 10h 1v -10v 11v -8h 1v
 8v -8v 7h 1v 3v -15v 17h 1v -14v 19v -24h 1v 19v -12v 18v -15h 1v -6v 10v -10h 1v 13v -12v 12v -7h 1v 2v -2v 7v -20h 1v 25v -25v 15v -2h 1v 9v -5v 1h 1v 4v -9v 4v -4h 1v -15v 24v -9h 1v -5v 7v -8v 10v -7h 1v 2v -2v 3v -5h 1v 12v -3v 1h 1v -10v 10v
 -1h 1v -5v 13v -17v 4v -2h 1v 5v -15h 1v 27v -14v 4h 1v -12v 15v -10h 1v 10v -12v 9h 1v 3v -17v 22v -10h 1v 3v -6v 8h 1v -13v 13v -7v 7v -15h 1v 17v -20v 11h 1v 12v -23v 8v -3h 1v 11v -16v 11h 1v -6v 8v -7v 15v -16h 1v -2v 13v -15v 15h 1v -13v 22v
 -14h 1v 14v -17v 17h 1v -17v 2v -2v 7v -5h 1v 6v -15v 4h 1v 18v -13v 10v -9h 1v -10v 20v -18h 1v 12v -9v 12v -8h 1v -5v 16v -20v 7h 1v 2v -4v 15v -5h 1v -1v 5v -14h 1v 19v -15v 15v -7h 1v -12v 15v -26h 1v 31v -16v 5h 1v -20v 25v -9h 1v 15v -16v 10v
 -2h 1v -18v 20v -27h 1v 23v -6v 11h 1v -15v 14v -9h 1v -8v 8v -8v 18h 1v -10v 5v -3v 2v -7h 1v 8v -16v 23v -5h 1v -3v 5v -7h 1v 7v -17v 13h 1v -16v 21v -6v 8h 1v -20v 12v -10v 8h 1v 5v -13v 11v -5h 1v -1v 8v -8v 6v -3h 1v 8v -25v 25v -6h 1v -10v 13v
 -10v 7h 1v -12v 13v -8h 1v 12v -24v 25h 1v -21v 20v -10h 1v -7v 23v -18v 8h 1v 2v -13v 15v -17h 1v 15v -15v 18h 1v -15v 12v -7h 1v 4v -7v 10h 1v -12v 14v -17h 1v -12v 24v -15h 1v 18v -17v 15v -6v 5h 1v -22v 28v -25h 1v 22v -5v 8v -11h 1v 3v -3v 5v
 -10h 1v 15v -25v 23h 1v -5v 10v -13h 1v 11v -16v 8h 1v -3v 15v -19v 10h 1v 9v -10v 5v -14h 1v 12v -10h 1v -5v 13v -16v 16v -1h 1v -14v 19v -19h 1v 22v -18v 8v -3h 1v 5v -2v 5v -23h 1v 20v -12v 20h 1v -13v 6v -6h 1v 10v -30v 28h 1v -10v 10v -13h 1v
 -10v 18v -7v 5h 1v -11v 26v -18h 1v 10v -15v 17h 1v -20v 20v -5h 1v -5v 5v -10v 13h 1v -10v 10v -18h 1v 13v -7v 7h 1v -13v 10h 1v -12v 20v -15v 12v -2h 1v -5v 13v -23v 23h 1v -25v 15v -18v 18h 1v -15v 7v -7v 15v -6h 1v -2v 12v -12h 1v 13v -16v 23v
 -17h 1v 15v -23v 23h 1v -10v 4v -15v 21v -18h 1v 3v -1v 11v -16v 3h 1v 10v -15v 22v -15h 1v 16v -10v 5v -16h 1v 20v -29v 27v -17h 1v 17v -18v 11h 1v 10v -30v 25v -1h 1v -12v 17v -24h 1v 20v -15v 14v -5h 1v -14v 25v -15h 1v 15v -16v 11v -8h 1v -8v
 16v -13h 1v 18v -20v 12v -3h 1v 1v -1v 6v -16h 1v 11v -8v 8v -3h 1v -15v 23v -20h 1v 29v -17v 8h 1v -20v 14v -5v 10v -14h 1v 5v -10v 15v -1v 10h 1v -17v 15v -5h 1v -5v 13v -20v 12h 1v -13v 18v -8v 5h 1v -14v 15v -11v 5h 1v 8v -15v 17v -17h 1v 3v -6v
 25v -22h 1v 15v -23v 20v -12h 1v -8v 23v -13v 8h 1v -7v 14v -10h 1v -25v 36v -23v 20h 1v -10v 13v -10v 7h 1v -12v 9v -15h 1v 8v -7v 14v -7h 1v -7v 19v -19v 12h 1v 2v -12v 17v -5h 1v -14v 12v -3h 1v 6v -8v 7h 1v -29v 24v -17v 8h 1v 9v -10v 15h 1v
 -14v 12v -10v 10v -18h 1v 16v -10v 14v -9v 7h 1v -15v 15v -12h 1v 14v -15v 16v -1h 1v -36v 39v -20h 1v 12v -34v 30v -5v 4h 1v -17v 30v -27h 1v 25v -26v 26v -16h 1v 15v -17h 1v 15v -3v 1v -1h 1v -12v 17v -20h 1v 18v -17v 22v -15h 1v -7v 17v -13h 1v
 15v -7v 2v -31v 39v -7h 1v 4v -20v 13h 1v -20v 23v -20v 22v -5h 1v -10v 10v -7h 1v -8v 7v -17v 48h 1v -293v 70h 1v 73v -4v 47v -60v 53h 1v -50v 67v -17v 14h 1v -15v 15v -25v 32h 1v -29v 22v -9h 1v 7v -8v 13v -23v 37h 1v -29v 22v -17h 1v 25v -32v 34v
 -13h 1v 3v -15v 25v -24h 1v 34v -20v 3h 1v -13v 50h 1v -42v 19v -37v 37h 1v 15v -62v 52v -4h 1v -15v 29v -24v 14h 1v -12v 18v -28v 25h 1v -13v 18v -27v 39h 1v -30v 13h 1v -18v 37v -26v 2h 1v -2v 4v -9v 9h 1v -2v 12v -4v 17v -15v 3h 1v -18v 27v -14v
 2h 1v -25v 33v -13h 1v 8v -13v 22h 1v -12v 10v -3v 20v -32v 27h 1v -22v 15v -40v 39h 1v 1v -13v 13v -22h 1v 26v -12v 10v -12v 19h 1v -26v 36v -41h 1v 22v -7v 4v -9h 1v 11v -7v 1h 1v 22v -13v 7v -24v 20h 1v -22v 12v -23v 10h 1v 28v -10v 10v -18v 10h
 1v -9v 11v -19h 1v 32v -17v 17h 1v -7v 5v -13v 3h 1v -12v 24v -18v 1v -7h 1v 11v -4v 10h 1v -13v 18v -20v 15h 1v -27h 1v 26v -4v 19v -25h 1v 6v -6v 16v -8h 1v 13v -6v 5v -17h 1v 22v -22v 12h 1v 3v -3v 1v -8v 13h 1v -16v 8v -3v 10h 1v -15v 6v -6v 13h
 1v 3v -16v 20h 1v -15v 13v -15v 20h 1v -25v 7v -2h 1v -7v 24v -19v 9h 1v 6v -11v 8v -10h 1v 17v -19v 17h 1v -15v 13h 1v -10v 4v -12v 17h 1v -5v 11v -18v 13h 1v -8v 7v -24v 34h 1v -25v 16v -3h 1v 5v -12v 14v -17v 12h 1v 5v -12v 5v -13v 25h 1v -14v
 12v -17h 1v 15v -11v 5h 1v -12v 18v -10h 1v 17v -15v 2v -4h 1v 10v -25v 27v -5h 1v 3v -13v 13h 1v -5v 4v -4v 5v -23h 1v 22v -2v 5v -22h 1v 22v -5h 1v -3v 10v -15v 8h 1v -2v 5v -1h 1v 11v -18v 10h 1v -15v 15v -13h 1v 15v -20v 20v -2h 1v -20v 20v -7h
 1v -15v 22v -13v 13h 1v -7v 17v -15h 1v -10v 17v -10v 13h 1v -13v 8v -12v 4h 1v -5v 13v -7v 4v -10v 16h 1v -8v 8v -15h 1v 19v -22v 7h 1v 8v -5v 2h 1v -15v 13v -10v 17h 1v 13v -28v 6v -3h 1v -2v 9v -9v 15h 1v 2v -20v 22v -7h 1v -8v 11v -10h 1v 10v
 -21v 18h 1v -3v 6v -5v 5v -10h 1v 2v -13v 25h 1v -22v 27v -35v 21h 1v 5v -13v 7h 1v 3v -7v 15v -21v 8h 1v 2v -9v 12h 1v -18v 23v -23h 1v 25v -10v 3h 1v -12v 20v -23h 1v 20v -8v 11h 1v -23v 18v -23h 1v 27v -15v 8v -5h 1v -2v 9v -19h 1v 25v -20v 9h 1v
 -5v 6v -15v 22v -8h 1v 3v -7v 7h 1v -12v 17v -23h 1v 23v -13v 16h 1v -26v 16v -3h 1v 13v -15v 4v -4v 4h 1v 8v -10v 18v -20h 1v -3v 8v -5v 19h 1v -20v 16v -13v 2h 1v 10v -12v 8h 1v 2v -18v 21v -3v 5h 1v -22v 22v -13h 1v 1v -8v 15v -18h 1v 11v -5v 10h
 1v -18v 32v -19h 1v 10v -26v 21h 1v -11v 11v -1h 1v -5v 8v -10v 8v -10v 12h 1v -10v 3v -5v 10h 1v -23v 25v -8v 1v -5v 10h 1v -1v 1v -18h 1v 17v -2v 2v -17v 8h 1v 5v -11v 18h 1v -8v 10v -14v 5h 1v 19v -27v 15v -3h 1v -9v 9v -14v 15h 1v 5v -5v 4h 1v
 -9v 10v -25v 10h 1v 15v -26v 16h 1v 12v -12v 7v -18v 5h 1v 15v -15v 5v -2h 1v 5v -13v 26v -23h 1v 20v -15v 13h 1v 4v -19v 15v -15h 1v 14v -22v 10h 1v 7v -10v 18v -12h 1v 12v -18v 16h 1v -6v 5v -9v 12v -17h 1v 7v -2v 7v -18v 18h 1v -12v 19v -10h 1v
 3v -2v 4v -9v 9h 1v -15v 16v -13v 12v -5h 1v -15v 23v -20h 1v 10v -8v 11v -8h 1v 3v -15v 7h 1v 22v -19v 14v -12h 1v -10v 22v -14v 7h 1v -2v 9v -2h 1v -10v 8v -20v 17h 1v 3v -18v 25v -8h 1v -20v 16v -5v 2h 1v 7v -22v 30h 1v -15v 15v -20v 17h 1v -12v
 8v -8h 1v -7v 27v -30v 23h 1v 5v -23v 18v -3h 1v -17v 15v -8v 7h 1v 1v -15v 15v -3h 1v -8v 10v -12h 1v 12v -7v 5h 1v 7v -14v 12v -3v 1v -5h 1v 10v -16v 15h 1v -22v 18v -11v 5h 1v 11v -28v 25v -12h 1v 12v -22v 25v -20v 7h 1v 13v -6v 10h 1v -30v 23v
 -8v 3h 1v 3v -16v 16h 1v -11v 15v -17v 7h 1v -2v 10v -18v 16h 1v -3v 2v -14h 1v 17v -5v 7v -12v 3h 1v -5v 14v -22h 1v 13v -6v 1v -5v 15h 1v 9v -19v 9v -7h 1v -3v 8v -12v 14h 1v 5v -2v 7v -24h 1v 10v -8v 15v -13v 5h 1v 13v -18v 13v -10h 1v 13v -11v
 5h 1v -17v 22v -9h 1v -8v 15v -2h 1v 7v -12v 10v -5h 1v -8v 12v -4h 1v 2v -17v 15v -1h 1v -17v 17v -14h 1v 20v -30v 29v -12h 1v 5v -10v 7h 1v 8v -15v 13v -6h 1v 8v -2v 2v -8v 5h 1v 5v -5v 10h 1v -17v 17v -15v 8h 1v -28v 28h 1v -13v 6v -11v 13h 1v
 -10v 12v -7v 3h 1v -6v 16v -13v 7h 1v 5v -15v 10h 1v -9v 10v -13v 13v -11v 15h 1v -5v 6v -13v 10h 1v -15v 18v -10v 10h 1v -18v 15h 1v -13v 13v -10h 1v -2v 9v -7v 12v -2h 1v -18v 23v -22v 12h 1v 10v -25v 17h 1v -14v 12v -10h 1v 15v -13v 6h 1v 2v -3v
 8v -8v 6h 1v -5v 12v -20v 15h 1v -17v 17v -23h 1v 26v -18v 15h 1v 8v -20v 4v -2v 2h 1v 6v -1v 1h 1v 2v -18v 25v -12h 1v -3v 8v -13v 10h 1v 8v -27v 20v -16h 1v 21h 1v -20v 12v -2h 1v -15v 15v -6v 10h 1v -5v 6v -10v 17v -8h 1v 8v -12v 5v -8h 1v 13v
 -21v 30v -19h 1v -11v 15v -9v 4h 1v 13v -20v 12" fill="none" stroke="#000099"/>
<rect x="442" y="25" width="114" height="46" fill="white"/>
<path d="M442,71h 114" fill="none" stroke="black"/>
<path d="M556,71v -46" fill="none" stroke="black"/>
<path d="M556,25h -114" fill="none" stroke="black"/>
<path d="M442,25v 46" fill="none" stroke="black"/>
<text x="447" y="28" fill="black" font-size="4" font-family="Helvetica">
Entries 
</text>
<text x="538" y="28" fill="black" font-size="4" font-family="Helvetica">
 36072
</text>
<text x="450" y="35" fill="black" font-size="4" font-family="Helvetica">
 / ndf 
</text>
<text x="449" y="31" fill="black" font-size="3" font-family="Helvetica">
2
</text>
<text x="447" y="35" fill="black" font-size="4" font-family="Times">
&#0967;
</text>
<text x="526" y="34" fill="black" font-size="4" font-family="Helvetica">
  2437 / 1240
</text>
<text x="452" y="37" fill="black" font-size="4" font-family="Helvetica">
   
</text>
<text x="450" y="40" fill="black" font-size="3" font-family="Helvetica">
cu
</text>
<text x="447" y="37" fill="black" font-size="4" font-family="Helvetica">
N
</text>
<text x="541" y="40" fill="black" font-size="4" font-family="Helvetica">
 6.51
</text>
<text x="538" y="40" fill="black" font-size="4" font-family="Times">
&#0177;
</text>
<text x="526" y="40" fill="black" font-size="4" font-family="Helvetica">
 84.55 
</text>
<text x="450" y="43" fill="black" font-size="4" font-family="Helvetica">
 
</text>
<text x="448" y="46" fill="black" font-size="3" font-family="Helvetica">
cu
</text>
<text x="447" y="43" fill="black" font-size="4" font-family="Times">
&#0964;
</text>
<text x="543" y="45" fill="black" font-size="4" font-family="Helvetica">
 1.8
</text>
<text x="541" y="45" fill="black" font-size="4" font-family="Times">
&#0177;
</text>
<text x="529" y="45" fill="black" font-size="4" font-family="Helvetica">
 162.5 
</text>
<text x="450" y="48" fill="black" font-size="4" font-family="Helvetica">
    
</text>
<text x="450" y="51" fill="black" font-size="3" font-family="Helvetica">
f
</text>
<text x="447" y="48" fill="black" font-size="4" font-family="Helvetica">
N
</text>
<text x="541" y="50" fill="black" font-size="4" font-family="Helvetica">
 0.99
</text>
<text x="538" y="50" fill="black" font-size="4" font-family="Times">
&#0177;
</text>
<text x="526" y="50" fill="black" font-size="4" font-family="Helvetica">
 57.94 
</text>
<text x="448" y="53" fill="black" font-size="4" font-family="Helvetica">
 
</text>
<text x="448" y="57" fill="black" font-size="3" font-family="Helvetica">
f
</text>
<text x="447" y="53" fill="black" font-size="4" font-family="Times">
&#0964;
</text>
<text x="543" y="55" fill="black" font-size="4" font-family="Helvetica">
 0.0
</text>
<text x="541" y="55" fill="black" font-size="4" font-family="Times">
&#0177;
</text>
<text x="529" y="55" fill="black" font-size="4" font-family="Helvetica">
  2197 
</text>
<text x="452" y="58" fill="black" font-size="4" font-family="Helvetica">
  
</text>
<text x="450" y="61" fill="black" font-size="3" font-family="Helvetica">
sin
</text>
<text x="447" y="58" fill="black" font-size="4" font-family="Helvetica">
N
</text>
<text x="543" y="60" fill="black" font-size="4" font-family="Helvetica">
 0.4
</text>
<text x="541" y="60" fill="black" font-size="4" font-family="Times">
&#0177;
</text>
<text x="532" y="60" fill="black" font-size="4" font-family="Helvetica">
     1 
</text>
<text x="447" y="65" fill="black" font-size="4" font-family="Helvetica">
T        
</text>
<text x="543" y="66" fill="black" font-size="4" font-family="Helvetica">
 0.0
</text>
<text x="541" y="66" fill="black" font-size="4" font-family="Times">
&#0177;
</text>
<text x="530" y="66" fill="black" font-size="4" font-family="Helvetica">
  59.2 
</text>
<text x="450" y="68" fill="black" font-size="4" font-family="Helvetica">
    
</text>
<text x="450" y="71" fill="black" font-size="3" font-family="Helvetica">
b
</text>
<text x="447" y="68" fill="black" font-size="4" font-family="Helvetica">
N
</text>
<text x="541" y="71" fill="black" font-size="4" font-family="Helvetica">
 0.12
</text>
<text x="538" y="71" fill="black" font-size="4" font-family="Times">
&#0177;
</text>
<text x="527" y="71" fill="black" font-size="4" font-family="Helvetica">
 11.51 
</text>
<path d="M284,129v 11" fill="none" stroke="#ff0000" stroke-width="2"/>
<path d="M285,141v 35" fill="none" stroke="#ff0000" stroke-width="2"/>
<path d="M285,177v 25" fill="none" stroke="#ff0000" stroke-width="2"/>
<path d="M286,203v 16" fill="none" stroke="#ff0000" stroke-width="2"/>
<path d="M287,219v 10" fill="none" stroke="#ff0000" stroke-width="2"/>
<path d="M288,228v 8" fill="none" stroke="#ff0000" stroke-width="2"/>
<path d="M289,235v 7" fill="none" stroke="#ff0000" stroke-width="2"/>
<path d="M289,243v 6" fill="none" stroke="#ff0000" stroke-width="2"/>
<path d="M290,248v 5" fill="none" stroke="#ff0000" stroke-width="2"/>
<path d="M291,251v 4" fill="none" stroke="#ff0000" stroke-width="2"/>
<path d="M292,254v 4" fill="none" stroke="#ff0000" stroke-width="2"/>
<path d="M293,256v 5" fill="none" stroke="#ff0000" stroke-width="2"/>
<path d="M293,260v 4" fill="none" stroke="#ff0000" stroke-width="2"/>
<path d="M294,262v 4" fill="none" stroke="#ff0000" stroke-width="2"/>
<path d="M295,264v 4" fill="none" stroke="#ff0000" stroke-width="2"/>
<path d="M296,265v 4" fill="none" stroke="#ff0000" stroke-width="2"/>
<path d="M297,269v 3" fill="none" stroke="#ff0000" stroke-width="2"/>
<path d="M298,270v 4" fill="none" stroke="#ff0000" stroke-width="2"/>
<path d="M298,272v 4" fill="none" stroke="#ff0000" stroke-width="2"/>
<path d="M299,273v 4" fill="none" stroke="#ff0000" stroke-width="2"/>
<path d="M300,274v 4" fill="none" stroke="#ff0000" stroke-width="2"/>
<path d="M301,277v 4" fill="none" stroke="#ff0000" stroke-width="2"/>
<path d="M302,278v 4" fill="none" stroke="#ff0000" stroke-width="2"/>
<path d="M302,280v 4" fill="none" stroke="#ff0000" stroke-width="2"/>
<path d="M303,281v 4" fill="none" stroke="#ff0000" stroke-width="2"/>
<path d="M304,282v 4" fill="none" stroke="#ff0000" stroke-width="2"/>
<path d="M305,284v 4" fill="none" stroke="#ff0000" stroke-width="2"/>
<path d="M306,286v 4" fill="none" stroke="#ff0000" stroke-width="2"/>
<path d="M307,286v 5" fill="none" stroke="#ff0000" stroke-width="2"/>
<path d="M307,287v 4" fill="none" stroke="#ff0000" stroke-width="2"/>
<path d="M308,290v 2" fill="none" stroke="#ff0000" stroke-width="2"/>
<path d="M309,291v 4" fill="none" stroke="#ff0000" stroke-width="2"/>
<path d="M310,291v 4" fill="none" stroke="#ff0000" stroke-width="2"/>
<path d="M311,292v 4" fill="none" stroke="#ff0000" stroke-width="2"/>
<path d="M311,293v 4" fill="none" stroke="#ff0000" stroke-width="2"/>
<path d="M312,295v 3" fill="none" stroke="#ff0000" stroke-width="2"/>
<path d="M313,295v 4" fill="none" stroke="#ff0000" stroke-width="2"/>
<path d="M314,296v 4" fill="none" stroke="#ff0000" stroke-width="2"/>
<path d="M315,297v 4" fill="none" stroke="#ff0000" stroke-width="2"/>
<path d="M315,298v 4" fill="none" stroke="#ff0000" stroke-width="2"/>
<path d="M316,299v 4" fill="none" stroke="#ff0000" stroke-width="2"/>
<path d="M317,300v 4" fill="none" stroke="#ff0000" stroke-width="2"/>
<path d="M318,300v 4" fill="none" stroke="#ff0000" stroke-width="2"/>
<path d="M319,301v 4" fill="none" stroke="#ff0000" stroke-width="2"/>
<path d="M320,303v 3" fill="none" stroke="#ff0000" stroke-width="2"/>
<path d="M320,304v 3" fill="none" stroke="#ff0000" stroke-width="2"/>
<path d="M321,304v 4" fill="none" stroke="#ff0000" stroke-width="2"/>
<path d="M322,304v 4" fill="none" stroke="#ff0000" stroke-width="2"/>
<path d="M323,305v 3" fill="none" stroke="#ff0000" stroke-width="2"/>
<path d="M324,306v 3" fill="none" stroke="#ff0000" stroke-width="2"/>
<path d="M324,307v 3" fill="none" stroke="#ff0000" stroke-width="2"/>
<path d="M325,307v 4" fill="none" stroke="#ff0000" stroke-width="2"/>
<path d="M326,308v 3" fill="none" stroke="#ff0000" stroke-width="2"/>
<path d="M327,308v 4" fill="none" stroke="#ff0000" stroke-width="2"/>
<path d="M328,308v 5" fill="none" stroke="#ff0000" stroke-width="2"/>
<path d="M329,309v 4" fill="none" stroke="#ff0000" stroke-width="2"/>
<path d="M329,309v 4" fill="none" stroke="#ff0000" stroke-width="2"/>
<path d="M330,310v 3" fill="none" stroke="#ff0000" stroke-width="2"/>
<path d="M331,311v 3" fill="none" stroke="#ff0000" stroke-width="2"/>
<path d="M332,311v 4" fill="none" stroke="#ff0000" stroke-width="2"/>
<path d="M333,312v 3" fill="none" stroke="#ff0000" stroke-width="2"/>
<path d="M333,312v 4" fill="none" stroke="#ff0000" stroke-width="2"/>
<path d="M334,313v 3" fill="none" stroke="#ff0000" stroke-width="2"/>
<path d="M335,313v 4" fill="none" stroke="#ff0000" stroke-width="2"/>
<path d="M336,313v 4" fill="none" stroke="#ff0000" stroke-width="2"/>
<path d="M337,313v 4" fill="none" stroke="#ff0000" stroke-width="2"/>
<path d="M337,314v 3" fill="none" stroke="#ff0000" stroke-width="2"/>
<path d="M338,314v 3" fill="none" stroke="#ff0000" stroke-width="2"/>
<path d="M339,315v 3" fill="none" stroke="#ff0000" stroke-width="2"/>
<path d="M340,315v 3" fill="none" stroke="#ff0000" stroke-width="2"/>
<path d="M341,315v 4" fill="none" stroke="#ff0000" stroke-width="2"/>
<path d="M342,316v 3" fill="none" stroke="#ff0000" stroke-width="2"/>
<path d="M342,316v 3" fill="none" stroke="#ff0000" stroke-width="2"/>
<path d="M343,317v 3" fill="none" stroke="#ff0000" stroke-width="2"/>
<path d="M344,317v 3" fill="none" stroke="#ff0000" stroke-width="2"/>
<path d="M345,317v 3" fill="none" stroke="#ff0000" stroke-width="2"/>
<path d="M346,317v 4" fill="none" stroke="#ff0000" stroke-width="2"/>
<path d="M346,317v 4" fill="none" stroke="#ff0000" stroke-width="2"/>
<path d="M347,317v 4" fill="none" stroke="#ff0000" stroke-width="2"/>
<path d="M348,318v 3" fill="none" stroke="#ff0000" stroke-width="2"/>
<path d="M349,318v 3" fill="none" stroke="#ff0000" stroke-width="2"/>
<path d="M350,318v 3" fill="none" stroke="#ff0000" stroke-width="2"/>
<path d="M351,318v 4" fill="none" stroke="#ff0000" stroke-width="2"/>
<path d="M351,319v 3" fill="none" stroke="#ff0000" stroke-width="2"/>
<path d="M352,319v 3" fill="none" stroke="#ff0000" stroke-width="2"/>
<path d="M353,319v 3" fill="none" stroke="#ff0000" stroke-width="2"/>
<path d="M354,319v 3" fill="none" stroke="#ff0000" stroke-width="2"/>
<path d="M355,320v 3" fill="none" stroke="#ff0000" stroke-width="2"/>
<path d="M355,320v 3" fill="none" stroke="#ff0000" stroke-width="2"/>
<path d="M356,320v 3" fill="none" stroke="#ff0000" stroke-width="2"/>
<path d="M357,320v 3" fill="none" stroke="#ff0000" stroke-width="2"/>
<path d="M358,320v 4" fill="none" stroke="#ff0000" stroke-width="2"/>
<path d="M359,321v 3" fill="none" stroke="#ff0000" stroke-width="2"/>
<path d="M359,321v 3" fill="none" stroke="#ff0000" stroke-width="2"/>
<path d="M360,321v 3" fill="none" stroke="#ff0000" stroke-width="2"/>
<path d="M361,321v 3" fill="none" stroke="#ff0000" stroke-width="2"/>
<path d="M362,321v 3" fill="none" stroke="#ff0000" stroke-width="2"/>
<path d="M363,321v 4" fill="none" stroke="#ff0000" stroke-width="2"/>
<path d="M364,321v 4" fill="none" stroke="#ff0000" stroke-width="2"/>
<path d="M364,321v 4" fill="none" stroke="#ff0000" stroke-width="2"/>
<path d="M365,321v 4" fill="none" stroke="#ff0000" stroke-width="2"/>
<path d="M366,321v 4" fill="none" stroke="#ff0000" stroke-width="2"/>
<path d="M367,321v 4" fill="none" stroke="#ff0000" stroke-width="2"/>
<path d="M368,321v 5" fill="none" stroke="#ff0000" stroke-width="2"/>
<path d="M368,321v 5" fill="none" stroke="#ff0000" stroke-width="2"/>
<path d="M369,322v 4" fill="none" stroke="#ff0000" stroke-width="2"/>
<path d="M370,322v 4" fill="none" stroke="#ff0000" stroke-width="2"/>
<path d="M371,322v 4" fill="none" stroke="#ff0000" stroke-width="2"/>
<path d="M372,322v 4" fill="none" stroke="#ff0000" stroke-width="2"/>
<path d="M372,322v 4" fill="none" stroke="#ff0000" stroke-width="2"/>
<path d="M373,322v 4" fill="none" stroke="#ff0000" stroke-width="2"/>
<path d="M374,322v 4" fill="none" stroke="#ff0000" stroke-width="2"/>
<path d="M375,322v 4" fill="none" stroke="#ff0000" stroke-width="2"/>
<path d="M376,322v 4" fill="none" stroke="#ff0000" stroke-width="2"/>
<path d="M377,323v 3" fill="none" stroke="#ff0000" stroke-width="2"/>
<path d="M377,323v 3" fill="none" stroke="#ff0000" stroke-width="2"/>
<path d="M378,323v 3" fill="none" stroke="#ff0000" stroke-width="2"/>
<path d="M379,323v 3" fill="none" stroke="#ff0000" stroke-width="2"/>
<path d="M380,323v 3" fill="none" stroke="#ff0000" stroke-width="2"/>
<path d="M381,323v 3" fill="none" stroke="#ff0000" stroke-width="2"/>
<path d="M381,323v 3" fill="none" stroke="#ff0000" stroke-width="2"/>
<path d="M382,323v 3" fill="none" stroke="#ff0000" stroke-width="2"/>
<path d="M383,323v 3" fill="none" stroke="#ff0000" stroke-width="2"/>
<path d="M384,323v 3" fill="none" stroke="#ff0000" stroke-width="2"/>
<path d="M385,323v 4" fill="none" stroke="#ff0000" stroke-width="2"/>
<path d="M386,323v 4" fill="none" stroke="#ff0000" stroke-width="2"/>
<path d="M386,324v 3" fill="none" stroke="#ff0000" stroke-width="2"/>
<path d="M387,324v 3" fill="none" stroke="#ff0000" stroke-width="2"/>
<path d="M388,324v 3" fill="none" stroke="#ff0000" stroke-width="2"/>
<path d="M389,324v 3" fill="none" stroke="#ff0000" stroke-width="2"/>
<path d="M390,324v 3" fill="none" stroke="#ff0000" stroke-width="2"/>
<path d="M390,324v 3" fill="none" stroke="#ff0000" stroke-width="2"/>
<path d="M391,324v 3" fill="none" stroke="#ff0000" stroke-width="2"/>
<path d="M392,324v 3" fill="none" stroke="#ff0000" stroke-width="2"/>
<path d="M393,324v 3" fill="none" stroke="#ff0000" stroke-width="2"/>
<path d="M394,324v 3" fill="none" stroke="#ff0000" stroke-width="2"/>
<path d="M394,324v 3" fill="none" stroke="#ff0000" stroke-width="2"/>
<path d="M395,324v 3" fill="none" stroke="#ff0000" stroke-width="2"/>
<path d="M396,324v 3" fill="none" stroke="#ff0000" stroke-width="2"/>
<path d="M397,324v 3" fill="none" stroke="#ff0000" stroke-width="2"/>
<path d="M398,324v 3" fill="none" stroke="#ff0000" stroke-width="2"/>
<path d="M399,324v 3" fill="none" stroke="#ff0000" stroke-width="2"/>
<path d="M399,324v 3" fill="none" stroke="#ff0000" stroke-width="2"/>
<path d="M400,324v 3" fill="none" stroke="#ff0000" stroke-width="2"/>
<path d="M401,324v 4" fill="none" stroke="#ff0000" stroke-width="2"/>
<path d="M402,324v 4" fill="none" stroke="#ff0000" stroke-width="2"/>
<path d="M403,324v 4" fill="none" stroke="#ff0000" stroke-width="2"/>
<path d="M403,324v 4" fill="none" stroke="#ff0000" stroke-width="2"/>
<path d="M404,325v 3" fill="none" stroke="#ff0000" stroke-width="2"/>
<path d="M405,325v 3" fill="none" stroke="#ff0000" stroke-width="2"/>
<path d="M406,325v 3" fill="none" stroke="#ff0000" stroke-width="2"/>
<path d="M407,325v 3" fill="none" stroke="#ff0000" stroke-width="2"/>
<path d="M408,325v 3" fill="none" stroke="#ff0000" stroke-width="2"/>
<path d="M408,325v 3" fill="none" stroke="#ff0000" stroke-width="2"/>
<path d="M409,325v 3" fill="none" stroke="#ff0000" stroke-width="2"/>
<path d="M410,325v 3" fill="none" stroke="#ff0000" stroke-width="2"/>
<path d="M411,325v 3" fill="none" stroke="#ff0000" stroke-width="2"/>
<path d="M412,325v 3" fill="none" stroke="#ff0000" stroke-width="2"/>
<path d="M412,325v 3" fill="none" stroke="#ff0000" stroke-width="2"/>
<path d="M413,325v 3" fill="none" stroke="#ff0000" stroke-width="2"/>
<path d="M414,325v 3" fill="none" stroke="#ff0000" stroke-width="2"/>
<path d="M415,325v 3" fill="none" stroke="#ff0000" stroke-width="2"/>
<path d="M416,325v 3" fill="none" stroke="#ff0000" stroke-width="2"/>
<path d="M416,325v 3" fill="none" stroke="#ff0000" stroke-width="2"/>
<path d="M417,325v 3" fill="none" stroke="#ff0000" stroke-width="2"/>
<path d="M418,325v 3" fill="none" stroke="#ff0000" stroke-width="2"/>
<path d="M419,325v 3" fill="none" stroke="#ff0000" stroke-width="2"/>
<path d="M420,325v 3" fill="none" stroke="#ff0000" stroke-width="2"/>
<path d="M421,325v 3" fill="none" stroke="#ff0000" stroke-width="2"/>
<path d="M421,325v 3" fill="none" stroke="#ff0000" stroke-width="2"/>
<path d="M422,325v 3" fill="none" stroke="#ff0000" stroke-width="2"/>
<path d="M423,325v 3" fill="none" stroke="#ff0000" stroke-width="2"/>
<path d="M424,325v 3" fill="none" stroke="#ff0000" stroke-width="2"/>
<path d="M425,325v 3" fill="none" stroke="#ff0000" stroke-width="2"/>
<path d="M425,325v 3" fill="none" stroke="#ff0000" stroke-width="2"/>
<path d="M426,325v 3" fill="none" stroke="#ff0000" stroke-width="2"/>
<path d="M427,325v 3" fill="none" stroke="#ff0000" stroke-width="2"/>
<path d="M428,325v 3" fill="none" stroke="#ff0000" stroke-width="2"/>
<path d="M429,325v 3" fill="none" stroke="#ff0000" stroke-width="2"/>
<path d="M430,325v 3" fill="none" stroke="#ff0000" stroke-width="2"/>
<path d="M430,325v 3" fill="none" stroke="#ff0000" stroke-width="2"/>
<path d="M431,325v 3" fill="none" stroke="#ff0000" stroke-width="2"/>
<path d="M432,325v 3" fill="none" stroke="#ff0000" stroke-width="2"/>
<path d="M433,325v 3" fill="none" stroke="#ff0000" stroke-width="2"/>
<path d="M434,325v 3" fill="none" stroke="#ff0000" stroke-width="2"/>
<path d="M434,325v 3" fill="none" stroke="#ff0000" stroke-width="2"/>
<path d="M435,325v 3" fill="none" stroke="#ff0000" stroke-width="2"/>
<path d="M436,325v 3" fill="none" stroke="#ff0000" stroke-width="2"/>
<path d="M437,325v 3" fill="none" stroke="#ff0000" stroke-width="2"/>
<path d="M438,325v 3" fill="none" stroke="#ff0000" stroke-width="2"/>
<path d="M438,325v 3" fill="none" stroke="#ff0000" stroke-width="2"/>
<path d="M439,325v 3" fill="none" stroke="#ff0000" stroke-width="2"/>
<path d="M440,325v 3" fill="none" stroke="#ff0000" stroke-width="2"/>
<path d="M441,325v 3" fill="none" stroke="#ff0000" stroke-width="2"/>
<path d="M442,325v 3" fill="none" stroke="#ff0000" stroke-width="2"/>
<path d="M443,325v 3" fill="none" stroke="#ff0000" stroke-width="2"/>
<path d="M443,325v 3" fill="none" stroke="#ff0000" stroke-width="2"/>
<path d="M444,325v 3" fill="none" stroke="#ff0000" stroke-width="2"/>
<path d="M445,325v 3" fill="none" stroke="#ff0000" stroke-width="2"/>
<path d="M446,325v 3" fill="none" stroke="#ff0000" stroke-width="2"/>
<path d="M447,325v 3" fill="none" stroke="#ff0000" stroke-width="2"/>
<path d="M447,325v 3" fill="none" stroke="#ff0000" stroke-width="2"/>
<path d="M448,325v 3" fill="none" stroke="#ff0000" stroke-width="2"/>
<path d="M449,325v 3" fill="none" stroke="#ff0000" stroke-width="2"/>
<path d="M450,325v 3" fill="none" stroke="#ff0000" stroke-width="2"/>
<path d="M451,325v 3" fill="none" stroke="#ff0000" stroke-width="2"/>
<path d="M452,325v 3" fill="none" stroke="#ff0000" stroke-width="2"/>
<path d="M452,325v 3" fill="none" stroke="#ff0000" stroke-width="2"/>
<path d="M453,325v 3" fill="none" stroke="#ff0000" stroke-width="2"/>
<path d="M454,325v 3" fill="none" stroke="#ff0000" stroke-width="2"/>
<path d="M455,325v 3" fill="none" stroke="#ff0000" stroke-width="2"/>
<path d="M456,325v 3" fill="none" stroke="#ff0000" stroke-width="2"/>
<path d="M456,325v 3" fill="none" stroke="#ff0000" stroke-width="2"/>
<path d="M457,325v 3" fill="none" stroke="#ff0000" stroke-width="2"/>
<path d="M458,325v 3" fill="none" stroke="#ff0000" stroke-width="2"/>
<path d="M459,325v 3" fill="none" stroke="#ff0000" stroke-width="2"/>
<path d="M460,325v 3" fill="none" stroke="#ff0000" stroke-width="2"/>
<path d="M460,325v 3" fill="none" stroke="#ff0000" stroke-width="2"/>
<path d="M461,325v 3" fill="none" stroke="#ff0000" stroke-width="2"/>
<path d="M462,325v 3" fill="none" stroke="#ff0000" stroke-width="2"/>
<path d="M463,325v 3" fill="none" stroke="#ff0000" stroke-width="2"/>
<path d="M464,325v 3" fill="none" stroke="#ff0000" stroke-width="2"/>
<path d="M465,325v 3" fill="none" stroke="#ff0000" stroke-width="2"/>
<path d="M465,325v 3" fill="none" stroke="#ff0000" stroke-width="2"/>
<path d="M466,325v 3" fill="none" stroke="#ff0000" stroke-width="2"/>
<path d="M467,325v 3" fill="none" stroke="#ff0000" stroke-width="2"/>
<path d="M468,325v 3" fill="none" stroke="#ff0000" stroke-width="2"/>
<path d="M469,325v 3" fill="none" stroke="#ff0000" stroke-width="2"/>
<path d="M469,325v 3" fill="none" stroke="#ff0000" stroke-width="2"/>
<path d="M470,325v 3" fill="none" stroke="#ff0000" stroke-width="2"/>
<path d="M471,325v 3" fill="none" stroke="#ff0000" stroke-width="2"/>
<path d="M472,325v 3" fill="none" stroke="#ff0000" stroke-width="2"/>
<path d="M473,325v 3" fill="none" stroke="#ff0000" stroke-width="2"/>
<path d="M473,325v 3" fill="none" stroke="#ff0000" stroke-width="2"/>
<path d="M474,325v 3" fill="none" stroke="#ff0000" stroke-width="2"/>
<path d="M475,325v 4" fill="none" stroke="#ff0000" stroke-width="2"/>
<path d="M476,325v 4" fill="none" stroke="#ff0000" stroke-width="2"/>
<path d="M477,325v 4" fill="none" stroke="#ff0000" stroke-width="2"/>
<path d="M478,325v 4" fill="none" stroke="#ff0000" stroke-width="2"/>
<path d="M478,325v 4" fill="none" stroke="#ff0000" stroke-width="2"/>
<path d="M479,325v 4" fill="none" stroke="#ff0000" stroke-width="2"/>
<path d="M480,325v 4" fill="none" stroke="#ff0000" stroke-width="2"/>
<path d="M481,325v 4" fill="none" stroke="#ff0000" stroke-width="2"/>
<path d="M482,325v 4" fill="none" stroke="#ff0000" stroke-width="2"/>
<path d="M482,325v 4" fill="none" stroke="#ff0000" stroke-width="2"/>
<path d="M483,325v 4" fill="none" stroke="#ff0000" stroke-width="2"/>
<path d="M484,325v 4" fill="none" stroke="#ff0000" stroke-width="2"/>
<path d="M485,325v 4" fill="none" stroke="#ff0000" stroke-width="2"/>
<path d="M486,325v 4" fill="none" stroke="#ff0000" stroke-width="2"/>
<path d="M487,325v 4" fill="none" stroke="#ff0000" stroke-width="2"/>
<path d="M487,325v 4" fill="none" stroke="#ff0000" stroke-width="2"/>
<path d="M488,325v 4" fill="none" stroke="#ff0000" stroke-width="2"/>
<path d="M489,325v 4" fill="none" stroke="#ff0000" stroke-width="2"/>
<path d="M490,325v 4" fill="none" stroke="#ff0000" stroke-width="2"/>
<path d="M491,325v 4" fill="none" stroke="#ff0000" stroke-width="2"/>
<path d="M491,325v 4" fill="none" stroke="#ff0000" stroke-width="2"/>
<path d="M492,325v 4" fill="none" stroke="#ff0000" stroke-width="2"/>
<path d="M493,325v 4" fill="none" stroke="#ff0000" stroke-width="2"/>
<path d="M494,325v 4" fill="none" stroke="#ff0000" stroke-width="2"/>
<path d="M495,325v 4" fill="none" stroke="#ff0000" stroke-width="2"/>
<path d="M495,325v 4" fill="none" stroke="#ff0000" stroke-width="2"/>
<path d="M496,325v 4" fill="none" stroke="#ff0000" stroke-width="2"/>
<path d="M497,325v 4" fill="none" stroke="#ff0000" stroke-width="2"/>
<path d="M498,325v 4" fill="none" stroke="#ff0000" stroke-width="2"/>
<path d="M499,325v 4" fill="none" stroke="#ff0000" stroke-width="2"/>
<path d="M500,325v 4" fill="none" stroke="#ff0000" stroke-width="2"/>
<path d="M500,325v 4" fill="none" stroke="#ff0000" stroke-width="2"/>
<path d="M501,325v 4" fill="none" stroke="#ff0000" stroke-width="2"/>
<path d="M502,325v 4" fill="none" stroke="#ff0000" stroke-width="2"/>
<path d="M503,325v 4" fill="none" stroke="#ff0000" stroke-width="2"/>
<path d="M504,325v 4" fill="none" stroke="#ff0000" stroke-width="2"/>
<path d="M504,325v 4" fill="none" stroke="#ff0000" stroke-width="2"/>
<path d="M505,325v 4" fill="none" stroke="#ff0000" stroke-width="2"/>
<path d="M506,325v 4" fill="none" stroke="#ff0000" stroke-width="2"/>
<path d="M507,325v 4" fill="none" stroke="#ff0000" stroke-width="2"/>
<path d="M508,325v 4" fill="none" stroke="#ff0000" stroke-width="2"/>
<path d="M509,325v 4" fill="none" stroke="#ff0000" stroke-width="2"/>
<path d="M509,325v 4" fill="none" stroke="#ff0000" stroke-width="2"/>
<path d="M510,326v 3" fill="none" stroke="#ff0000" stroke-width="2"/>
<path d="M284,134l 1, 24v 32l 1, 21l 1, 13l 1, 8l 1, 6v 8l 1, 5l 1, 2l 1, 2l 1, 4v 3l 1, 2l 1, 1l 1, 2l 1, 3l 1, 2v 1l 1, 2l 1, 1l 1, 3l 1, 1v 2h 1l 1, 2l 1, 2l 1, 1l 1, 1v 1l 1, 2l 1, 1l 1, 1l 1, 1v 1l 1, 1l 1, 1l 1, 1l 1, 1l 1, 2l 1, 1h 1l 1, 1l 1,
 1v 1h 1l 1, 1l 1, 1l 1, 1h 1l 1, 1l 1, 1h 1l 1, 1l 1, 1l 1, 1h 2l 1, 1l 1, 1h 2v 1h 1l 1, 1h 3l 1, 1h 2l 1, 1h 1l 1, 1h 3v 1h 7l 1, 1h 3l 1, 1h 5l 1, 1h 7l 1, 1h 9v 1h 123l 1, 1" fill="none" stroke="#ff0000" stroke-width="2"/>
<path d="M57,346h 453" fill="none" stroke="black"/>
<text x="419" y="372" fill="black" font-size="12" font-family="Helvetica">
TDC-TDC0 (ns)
</text>
<path d="M57,337v 9" fill="none" stroke="black"/>
<path d="M68,342v 4" fill="none" stroke="black"/>
<path d="M79,342v 4" fill="none" stroke="black"/>
<path d="M91,342v 4" fill="none" stroke="black"/>
<path d="M102,342v 4" fill="none" stroke="black"/>
<path d="M113,337v 9" fill="none" stroke="black"/>
<path d="M125,342v 4" fill="none" stroke="black"/>
<path d="M136,342v 4" fill="none" stroke="black"/>
<path d="M147,342v 4" fill="none" stroke="black"/>
<path d="M159,342v 4" fill="none" stroke="black"/>
<path d="M170,337v 9" fill="none" stroke="black"/>
<path d="M181,342v 4" fill="none" stroke="black"/>
<path d="M193,342v 4" fill="none" stroke="black"/>
<path d="M204,342v 4" fill="none" stroke="black"/>
<path d="M215,342v 4" fill="none" stroke="black"/>
<path d="M227,337v 9" fill="none" stroke="black"/>
<path d="M238,342v 4" fill="none" stroke="black"/>
<path d="M249,342v 4" fill="none" stroke="black"/>
<path d="M261,342v 4" fill="none" stroke="black"/>
<path d="M272,342v 4" fill="none" stroke="black"/>
<path d="M283,337v 9" fill="none" stroke="black"/>
<path d="M295,342v 4" fill="none" stroke="black"/>
<path d="M306,342v 4" fill="none" stroke="black"/>
<path d="M317,342v 4" fill="none" stroke="black"/>
<path d="M329,342v 4" fill="none" stroke="black"/>
<path d="M340,337v 9" fill="none" stroke="black"/>
<path d="M351,342v 4" fill="none" stroke="black"/>
<path d="M363,342v 4" fill="none" stroke="black"/>
<path d="M374,342v 4" fill="none" stroke="black"/>
<path d="M386,342v 4" fill="none" stroke="black"/>
<path d="M397,337v 9" fill="none" stroke="black"/>
<path d="M408,342v 4" fill="none" stroke="black"/>
<path d="M420,342v 4" fill="none" stroke="black"/>
<path d="M431,342v 4" fill="none" stroke="black"/>
<path d="M442,342v 4" fill="none" stroke="black"/>
<path d="M454,337v 9" fill="none" stroke="black"/>
<path d="M465,342v 4" fill="none" stroke="black"/>
<path d="M476,342v 4" fill="none" stroke="black"/>
<path d="M488,342v 4" fill="none" stroke="black"/>
<path d="M499,342v 4" fill="none" stroke="black"/>
<path d="M510,337v 9" fill="none" stroke="black"/>
<text x="36" y="359" fill="black" font-size="12" font-family="Helvetica">
-20000
</text>
<text x="93" y="359" fill="black" font-size="12" font-family="Helvetica">
-15000
</text>
<text x="149" y="359" fill="black" font-size="12" font-family="Helvetica">
-10000
</text>
<text x="210" y="359" fill="black" font-size="12" font-family="Helvetica">
-5000
</text>
<text x="280" y="359" fill="black" font-size="12" font-family="Helvetica">
0
</text>
<text x="325" y="359" fill="black" font-size="12" font-family="Helvetica">
5000
</text>
<text x="379" y="359" fill="black" font-size="12" font-family="Helvetica">
10000
</text>
<text x="435" y="359" fill="black" font-size="12" font-family="Helvetica">
15000
</text>
<text x="492" y="359" fill="black" font-size="12" font-family="Helvetica">
20000
</text>
<path d="M57,346v -308" fill="none" stroke="black"/>
<g transform="rotate(-90,29,72)">
<text x="29" y="72" fill="black" font-size="12" font-family="Helvetica">
Count
</text>
</g>
<path d="M70,346h -13" fill="none" stroke="black"/>
<path d="M63,338h -6" fill="none" stroke="black"/>
<path d="M63,330h -6" fill="none" stroke="black"/>
<path d="M63,321h -6" fill="none" stroke="black"/>
<path d="M70,313h -13" fill="none" stroke="black"/>
<path d="M63,305h -6" fill="none" stroke="black"/>
<path d="M63,296h -6" fill="none" stroke="black"/>
<path d="M63,288h -6" fill="none" stroke="black"/>
<path d="M70,279h -13" fill="none" stroke="black"/>
<path d="M63,271h -6" fill="none" stroke="black"/>
<path d="M63,263h -6" fill="none" stroke="black"/>
<path d="M63,254h -6" fill="none" stroke="black"/>
<path d="M70,246h -13" fill="none" stroke="black"/>
<path d="M63,237h -6" fill="none" stroke="black"/>
<path d="M63,229h -6" fill="none" stroke="black"/>
<path d="M63,221h -6" fill="none" stroke="black"/>
<path d="M70,212h -13" fill="none" stroke="black"/>
<path d="M63,204h -6" fill="none" stroke="black"/>
<path d="M63,196h -6" fill="none" stroke="black"/>
<path d="M63,187h -6" fill="none" stroke="black"/>
<path d="M70,179h -13" fill="none" stroke="black"/>
<path d="M63,170h -6" fill="none" stroke="black"/>
<path d="M63,162h -6" fill="none" stroke="black"/>
<path d="M63,154h -6" fill="none" stroke="black"/>
<path d="M70,145h -13" fill="none" stroke="black"/>
<path d="M63,137h -6" fill="none" stroke="black"/>
<path d="M63,128h -6" fill="none" stroke="black"/>
<path d="M63,120h -6" fill="none" stroke="black"/>
<path d="M70,112h -13" fill="none" stroke="black"/>
<path d="M63,103h -6" fill="none" stroke="black"/>
<path d="M63,95h -6" fill="none" stroke="black"/>
<path d="M63,86h -6" fill="none" stroke="black"/>
<path d="M70,78h -13" fill="none" stroke="black"/>
<path d="M63,70h -6" fill="none" stroke="black"/>
<path d="M63,61h -6" fill="none" stroke="black"/>
<path d="M63,53h -6" fill="none" stroke="black"/>
<path d="M70,45h -13" fill="none" stroke="black"/>
<path d="M70,45h -13" fill="none" stroke="black"/>
<text x="47" y="350" fill="black" font-size="12" font-family="Helvetica">
0
</text>
<text x="40" y="317" fill="black" font-size="12" font-family="Helvetica">
20
</text>
<text x="40" y="283" fill="black" font-size="12" font-family="Helvetica">
40
</text>
<text x="40" y="250" fill="black" font-size="12" font-family="Helvetica">
60
</text>
<text x="40" y="216" fill="black" font-size="12" font-family="Helvetica">
80
</text>
<text x="33" y="182" fill="black" font-size="12" font-family="Helvetica">
100
</text>
<text x="33" y="149" fill="black" font-size="12" font-family="Helvetica">
120
</text>
<text x="33" y="115" fill="black" font-size="12" font-family="Helvetica">
140
</text>
<text x="33" y="82" fill="black" font-size="12" font-family="Helvetica">
160
</text>
<text x="33" y="49" fill="black" font-size="12" font-family="Helvetica">
180
</text>
<rect x="442" y="25" width="114" height="46" fill="white"/>
<path d="M442,71h 114" fill="none" stroke="black"/>
<path d="M556,71v -46" fill="none" stroke="black"/>
<path d="M556,25h -114" fill="none" stroke="black"/>
<path d="M442,25v 46" fill="none" stroke="black"/>
<text x="447" y="28" fill="black" font-size="4" font-family="Helvetica">
Entries 
</text>
<text x="538" y="28" fill="black" font-size="4" font-family="Helvetica">
 36072
</text>
<text x="450" y="35" fill="black" font-size="4" font-family="Helvetica">
 / ndf 
</text>
<text x="449" y="31" fill="black" font-size="3" font-family="Helvetica">
2
</text>
<text x="447" y="35" fill="black" font-size="4" font-family="Times">
&#0967;
</text>
<text x="526" y="34" fill="black" font-size="4" font-family="Helvetica">
  2437 / 1240
</text>
<text x="452" y="37" fill="black" font-size="4" font-family="Helvetica">
   
</text>
<text x="450" y="40" fill="black" font-size="3" font-family="Helvetica">
cu
</text>
<text x="447" y="37" fill="black" font-size="4" font-family="Helvetica">
N
</text>
<text x="541" y="40" fill="black" font-size="4" font-family="Helvetica">
 6.51
</text>
<text x="538" y="40" fill="black" font-size="4" font-family="Times">
&#0177;
</text>
<text x="526" y="40" fill="black" font-size="4" font-family="Helvetica">
 84.55 
</text>
<text x="450" y="43" fill="black" font-size="4" font-family="Helvetica">
 
</text>
<text x="448" y="46" fill="black" font-size="3" font-family="Helvetica">
cu
</text>
<text x="447" y="43" fill="black" font-size="4" font-family="Times">
&#0964;
</text>
<text x="543" y="45" fill="black" font-size="4" font-family="Helvetica">
 1.8
</text>
<text x="541" y="45" fill="black" font-size="4" font-family="Times">
&#0177;
</text>
<text x="529" y="45" fill="black" font-size="4" font-family="Helvetica">
 162.5 
</text>
<text x="450" y="48" fill="black" font-size="4" font-family="Helvetica">
    
</text>
<text x="450" y="51" fill="black" font-size="3" font-family="Helvetica">
f
</text>
<text x="447" y="48" fill="black" font-size="4" font-family="Helvetica">
N
</text>
<text x="541" y="50" fill="black" font-size="4" font-family="Helvetica">
 0.99
</text>
<text x="538" y="50" fill="black" font-size="4" font-family="Times">
&#0177;
</text>
<text x="526" y="50" fill="black" font-size="4" font-family="Helvetica">
 57.94 
</text>
<text x="448" y="53" fill="black" font-size="4" font-family="Helvetica">
 
</text>
<text x="448" y="57" fill="black" font-size="3" font-family="Helvetica">
f
</text>
<text x="447" y="53" fill="black" font-size="4" font-family="Times">
&#0964;
</text>
<text x="543" y="55" fill="black" font-size="4" font-family="Helvetica">
 0.0
</text>
<text x="541" y="55" fill="black" font-size="4" font-family="Times">
&#0177;
</text>
<text x="529" y="55" fill="black" font-size="4" font-family="Helvetica">
  2197 
</text>
<text x="452" y="58" fill="black" font-size="4" font-family="Helvetica">
  
</text>
<text x="450" y="61" fill="black" font-size="3" font-family="Helvetica">
sin
</text>
<text x="447" y="58" fill="black" font-size="4" font-family="Helvetica">
N
</text>
<text x="543" y="60" fill="black" font-size="4" font-family="Helvetica">
 0.4
</text>
<text x="541" y="60" fill="black" font-size="4" font-family="Times">
&#0177;
</text>
<text x="532" y="60" fill="black" font-size="4" font-family="Helvetica">
     1 
</text>
<text x="447" y="65" fill="black" font-size="4" font-family="Helvetica">
T        
</text>
<text x="543" y="66" fill="black" font-size="4" font-family="Helvetica">
 0.0
</text>
<text x="541" y="66" fill="black" font-size="4" font-family="Times">
&#0177;
</text>
<text x="530" y="66" fill="black" font-size="4" font-family="Helvetica">
  59.2 
</text>
<text x="450" y="68" fill="black" font-size="4" font-family="Helvetica">
    
</text>
<text x="450" y="71" fill="black" font-size="3" font-family="Helvetica">
b
</text>
<text x="447" y="68" fill="black" font-size="4" font-family="Helvetica">
N
</text>
<text x="541" y="71" fill="black" font-size="4" font-family="Helvetica">
 0.12
</text>
<text x="538" y="71" fill="black" font-size="4" font-family="Times">
&#0177;
</text>
<text x="527" y="71" fill="black" font-size="4" font-family="Helvetica">
 11.51 
</text>
<text x="270" y="21" fill="black" font-size="21" font-family="Helvetica">
D3
</text></svg>
