<?xml version="1.0" standalone="no"?>
<svg width="567" height="328" viewBox="0 0 567 328" xmlns="http://www.w3.org/2000/svg">
<title>
images/analysis_g4bl_sin_phase_loose_f_cu/counts/run_muon_rate_in_cu.svg
</title>
<desc>
Creator: ROOT Version 5.34/09
CreationDate: Sun Sep  8 18:21:53 2013</desc>
<defs>
</defs>
<rect x="0" y="0" width="567" height="328" fill="white"/>
<rect x="57" y="33" width="453" height="262" fill="white"/>
<rect x="57" y="33" width="453" height="262" fill="none" stroke="black"/>
<path d="M94,155v -5" fill="none" stroke="#000099"/>
<path d="M94,150v -5" fill="none" stroke="#000099"/>
<path d="M57,150h 37" fill="none" stroke="#000099"/>
<path d="M94,150h 38" fill="none" stroke="#000099"/>
<g stroke="black" stroke-width="1" fill="none">
<line x1="93" y1="150" x2="94" y2="150"/>
</g>
<path d="M170,192v -2" fill="none" stroke="#000099"/>
<path d="M170,190v -3" fill="none" stroke="#000099"/>
<path d="M132,190h 38" fill="none" stroke="#000099"/>
<path d="M170,190h 38" fill="none" stroke="#000099"/>
<g stroke="black" stroke-width="1" fill="none">
<line x1="169" y1="190" x2="170" y2="190"/>
</g>
<path d="M246,275v -103" fill="none" stroke="#000099"/>
<path d="M246,172v -104" fill="none" stroke="#000099"/>
<path d="M208,172h 38" fill="none" stroke="#000099"/>
<path d="M246,172h 37" fill="none" stroke="#000099"/>
<g stroke="black" stroke-width="1" fill="none">
<line x1="245" y1="172" x2="246" y2="172"/>
</g>
<path d="M321,283v -119" fill="none" stroke="#000099"/>
<path d="M321,164v -119" fill="none" stroke="#000099"/>
<path d="M283,164h 38" fill="none" stroke="#000099"/>
<path d="M321,164h 38" fill="none" stroke="#000099"/>
<g stroke="black" stroke-width="1" fill="none">
<line x1="320" y1="164" x2="321" y2="164"/>
</g>
<path d="M397,169v -1" fill="none" stroke="#000099"/>
<path d="M397,168v -1" fill="none" stroke="#000099"/>
<path d="M359,168h 38" fill="none" stroke="#000099"/>
<path d="M397,168h 38" fill="none" stroke="#000099"/>
<g stroke="black" stroke-width="1" fill="none">
<line x1="396" y1="168" x2="397" y2="168"/>
</g>
<path d="M472,185v -2" fill="none" stroke="#000099"/>
<path d="M472,183v -3" fill="none" stroke="#000099"/>
<path d="M435,183h 37" fill="none" stroke="#000099"/>
<path d="M472,183h 38" fill="none" stroke="#000099"/>
<g stroke="black" stroke-width="1" fill="none">
<line x1="471" y1="183" x2="472" y2="183"/>
</g>
<path d="M57,295h 453" fill="none" stroke="black"/>
<text x="466" y="317" fill="black" font-size="11" font-family="Helvetica">
Degrader
</text>
<text x="92" y="304" fill="black" font-size="7" font-family="Helvetica">
0
</text>
<text x="165" y="304" fill="black" font-size="7" font-family="Helvetica">
0.5
</text>
<text x="240" y="304" fill="black" font-size="7" font-family="Helvetica">
0.5
</text>
<text x="319" y="304" fill="black" font-size="7" font-family="Helvetica">
1
</text>
<text x="395" y="304" fill="black" font-size="7" font-family="Helvetica">
5
</text>
<text x="470" y="304" fill="black" font-size="7" font-family="Helvetica">
5
</text>
<path d="M57,287v 8" fill="none" stroke="black"/>
<path d="M132,287v 8" fill="none" stroke="black"/>
<path d="M208,287v 8" fill="none" stroke="black"/>
<path d="M283,287v 8" fill="none" stroke="black"/>
<path d="M359,287v 8" fill="none" stroke="black"/>
<path d="M435,287v 8" fill="none" stroke="black"/>
<path d="M510,287v 8" fill="none" stroke="black"/>
<path d="M57,295v -262" fill="none" stroke="black"/>
<g transform="rotate(-90,29,88)">
<text x="29" y="88" fill="black" font-size="11" font-family="Helvetica">
Muon count
</text>
</g>
<path d="M70,272h -13" fill="none" stroke="black"/>
<path d="M63,265h -6" fill="none" stroke="black"/>
<path d="M63,259h -6" fill="none" stroke="black"/>
<path d="M63,253h -6" fill="none" stroke="black"/>
<path d="M70,246h -13" fill="none" stroke="black"/>
<path d="M63,240h -6" fill="none" stroke="black"/>
<path d="M63,233h -6" fill="none" stroke="black"/>
<path d="M63,227h -6" fill="none" stroke="black"/>
<path d="M70,221h -13" fill="none" stroke="black"/>
<path d="M63,214h -6" fill="none" stroke="black"/>
<path d="M63,208h -6" fill="none" stroke="black"/>
<path d="M63,201h -6" fill="none" stroke="black"/>
<path d="M70,195h -13" fill="none" stroke="black"/>
<path d="M63,188h -6" fill="none" stroke="black"/>
<path d="M63,182h -6" fill="none" stroke="black"/>
<path d="M63,176h -6" fill="none" stroke="black"/>
<path d="M70,169h -13" fill="none" stroke="black"/>
<path d="M63,163h -6" fill="none" stroke="black"/>
<path d="M63,156h -6" fill="none" stroke="black"/>
<path d="M63,150h -6" fill="none" stroke="black"/>
<path d="M70,144h -13" fill="none" stroke="black"/>
<path d="M63,137h -6" fill="none" stroke="black"/>
<path d="M63,131h -6" fill="none" stroke="black"/>
<path d="M63,124h -6" fill="none" stroke="black"/>
<path d="M70,118h -13" fill="none" stroke="black"/>
<path d="M63,111h -6" fill="none" stroke="black"/>
<path d="M63,105h -6" fill="none" stroke="black"/>
<path d="M63,99h -6" fill="none" stroke="black"/>
<path d="M70,92h -13" fill="none" stroke="black"/>
<path d="M63,86h -6" fill="none" stroke="black"/>
<path d="M63,79h -6" fill="none" stroke="black"/>
<path d="M63,73h -6" fill="none" stroke="black"/>
<path d="M70,67h -13" fill="none" stroke="black"/>
<path d="M63,60h -6" fill="none" stroke="black"/>
<path d="M63,54h -6" fill="none" stroke="black"/>
<path d="M63,47h -6" fill="none" stroke="black"/>
<path d="M70,41h -13" fill="none" stroke="black"/>
<path d="M70,272h -13" fill="none" stroke="black"/>
<path d="M63,278h -6" fill="none" stroke="black"/>
<path d="M63,285h -6" fill="none" stroke="black"/>
<path d="M63,291h -6" fill="none" stroke="black"/>
<path d="M70,41h -13" fill="none" stroke="black"/>
<path d="M63,34h -6" fill="none" stroke="black"/>
<text x="39" y="276" fill="black" font-size="11" font-family="Helvetica">
-60
</text>
<text x="39" y="250" fill="black" font-size="11" font-family="Helvetica">
-40
</text>
<text x="39" y="224" fill="black" font-size="11" font-family="Helvetica">
-20
</text>
<text x="48" y="199" fill="black" font-size="11" font-family="Helvetica">
0
</text>
<text x="42" y="173" fill="black" font-size="11" font-family="Helvetica">
20
</text>
<text x="42" y="147" fill="black" font-size="11" font-family="Helvetica">
40
</text>
<text x="42" y="122" fill="black" font-size="11" font-family="Helvetica">
60
</text>
<text x="42" y="96" fill="black" font-size="11" font-family="Helvetica">
80
</text>
<text x="36" y="70" fill="black" font-size="11" font-family="Helvetica">
100
</text>
<text x="36" y="45" fill="black" font-size="11" font-family="Helvetica">
120
</text>
<text x="74" y="26" fill="black" font-size="7" font-family="Helvetica">
3
</text>
<text x="63" y="31" fill="black" font-size="11" font-family="Helvetica">
10
</text>
<text x="57" y="31" fill="black" font-size="11" font-family="Times">
&#0215;
</text>
<text x="175" y="16" fill="black" font-size="16" font-family="Helvetica">
Count of muons decaying in cu
</text>
<rect x="442" y="22" width="114" height="39" fill="white"/>
<path d="M442,61h 114" fill="none" stroke="black"/>
<path d="M556,61v -39" fill="none" stroke="black"/>
<path d="M556,22h -114" fill="none" stroke="black"/>
<path d="M442,22v 39" fill="none" stroke="black"/>
<text x="448" y="47" fill="black" font-size="16" font-family="Helvetica">
Entries 
</text>
<text x="536" y="47" fill="black" font-size="16" font-family="Helvetica">
 6
</text>
<text x="175" y="16" fill="black" font-size="16" font-family="Helvetica">
Count of muons decaying in cu
</text></svg>
