<?xml version="1.0" standalone="no"?>
<svg width="567" height="384" viewBox="0 0 567 384" xmlns="http://www.w3.org/2000/svg">
<title>
images/analysis_g4bl_exec_d4_d5_loose/zoom/448_448_D1.svg
</title>
<desc>
Creator: ROOT Version 5.34/09
CreationDate: Sun Sep  8 18:06:25 2013</desc>
<defs>
</defs>
<rect x="0" y="0" width="567" height="384" fill="white"/>
<rect x="57" y="38" width="453" height="308" fill="white"/>
<rect x="57" y="38" width="453" height="308" fill="none" stroke="black"/>
<rect x="57" y="38" width="453" height="308" fill="white"/>
<rect x="57" y="38" width="453" height="308" fill="none" stroke="black"/>
<path d="M57,304h 17v 5h 18v -15h 17v 1h 17v 13h 18v -2h 17v -12h 18v 6h 17v 5h 18v -8h 17v -18h 18v 17h 17v -243h 17v 293h 18v -1h 17v -224h 18v 57h 17v -18h 18v 41h 17v 4h 18v -5h 17v -1h 17v 4h 18v 16h 17v -6h 18v -10h 17" fill="none"
 stroke="#000099"/>
<rect x="442" y="25" width="114" height="46" fill="white"/>
<path d="M442,71h 114" fill="none" stroke="black"/>
<path d="M556,71v -46" fill="none" stroke="black"/>
<path d="M556,25h -114" fill="none" stroke="black"/>
<path d="M442,25v 46" fill="none" stroke="black"/>
<text x="447" y="53" fill="black" font-size="14" font-family="Helvetica">
Entries 
</text>
<text x="492" y="53" fill="black" font-size="14" font-family="Helvetica">
 1535863
</text>
<path d="M57,346h 453" fill="none" stroke="black"/>
<text x="425" y="371" fill="black" font-size="12" font-family="Helvetica">
TDC-TDC0 (ns)
</text>
<path d="M65,336v 10" fill="none" stroke="black"/>
<path d="M76,341v 5" fill="none" stroke="black"/>
<path d="M87,341v 5" fill="none" stroke="black"/>
<path d="M98,341v 5" fill="none" stroke="black"/>
<path d="M109,341v 5" fill="none" stroke="black"/>
<path d="M120,336v 10" fill="none" stroke="black"/>
<path d="M131,341v 5" fill="none" stroke="black"/>
<path d="M142,341v 5" fill="none" stroke="black"/>
<path d="M153,341v 5" fill="none" stroke="black"/>
<path d="M164,341v 5" fill="none" stroke="black"/>
<path d="M174,336v 10" fill="none" stroke="black"/>
<path d="M185,341v 5" fill="none" stroke="black"/>
<path d="M196,341v 5" fill="none" stroke="black"/>
<path d="M207,341v 5" fill="none" stroke="black"/>
<path d="M218,341v 5" fill="none" stroke="black"/>
<path d="M229,336v 10" fill="none" stroke="black"/>
<path d="M240,341v 5" fill="none" stroke="black"/>
<path d="M251,341v 5" fill="none" stroke="black"/>
<path d="M262,341v 5" fill="none" stroke="black"/>
<path d="M273,341v 5" fill="none" stroke="black"/>
<path d="M283,336v 10" fill="none" stroke="black"/>
<path d="M294,341v 5" fill="none" stroke="black"/>
<path d="M305,341v 5" fill="none" stroke="black"/>
<path d="M316,341v 5" fill="none" stroke="black"/>
<path d="M327,341v 5" fill="none" stroke="black"/>
<path d="M338,336v 10" fill="none" stroke="black"/>
<path d="M349,341v 5" fill="none" stroke="black"/>
<path d="M360,341v 5" fill="none" stroke="black"/>
<path d="M371,341v 5" fill="none" stroke="black"/>
<path d="M382,341v 5" fill="none" stroke="black"/>
<path d="M392,336v 10" fill="none" stroke="black"/>
<path d="M403,341v 5" fill="none" stroke="black"/>
<path d="M414,341v 5" fill="none" stroke="black"/>
<path d="M425,341v 5" fill="none" stroke="black"/>
<path d="M436,341v 5" fill="none" stroke="black"/>
<path d="M447,336v 10" fill="none" stroke="black"/>
<path d="M458,341v 5" fill="none" stroke="black"/>
<path d="M469,341v 5" fill="none" stroke="black"/>
<path d="M480,341v 5" fill="none" stroke="black"/>
<path d="M491,341v 5" fill="none" stroke="black"/>
<path d="M502,336v 10" fill="none" stroke="black"/>
<path d="M65,336v 10" fill="none" stroke="black"/>
<path d="M502,336v 10" fill="none" stroke="black"/>
<text x="53" y="358" fill="black" font-size="12" font-family="Helvetica">
-200
</text>
<text x="108" y="358" fill="black" font-size="12" font-family="Helvetica">
-150
</text>
<text x="162" y="358" fill="black" font-size="12" font-family="Helvetica">
-100
</text>
<text x="220" y="358" fill="black" font-size="12" font-family="Helvetica">
-50
</text>
<text x="280" y="358" fill="black" font-size="12" font-family="Helvetica">
0
</text>
<text x="331" y="358" fill="black" font-size="12" font-family="Helvetica">
50
</text>
<text x="381" y="358" fill="black" font-size="12" font-family="Helvetica">
100
</text>
<text x="436" y="358" fill="black" font-size="12" font-family="Helvetica">
150
</text>
<text x="490" y="358" fill="black" font-size="12" font-family="Helvetica">
200
</text>
<path d="M57,346v -308" fill="none" stroke="black"/>
<g transform="rotate(-90,29,70)">
<text x="29" y="70" fill="black" font-size="12" font-family="Helvetica">
Count
</text>
</g>
<path d="M70,346h -13" fill="none" stroke="black"/>
<path d="M63,339h -6" fill="none" stroke="black"/>
<path d="M63,332h -6" fill="none" stroke="black"/>
<path d="M63,325h -6" fill="none" stroke="black"/>
<path d="M63,318h -6" fill="none" stroke="black"/>
<path d="M70,311h -13" fill="none" stroke="black"/>
<path d="M63,304h -6" fill="none" stroke="black"/>
<path d="M63,297h -6" fill="none" stroke="black"/>
<path d="M63,291h -6" fill="none" stroke="black"/>
<path d="M63,284h -6" fill="none" stroke="black"/>
<path d="M70,277h -13" fill="none" stroke="black"/>
<path d="M63,270h -6" fill="none" stroke="black"/>
<path d="M63,263h -6" fill="none" stroke="black"/>
<path d="M63,256h -6" fill="none" stroke="black"/>
<path d="M63,249h -6" fill="none" stroke="black"/>
<path d="M70,242h -13" fill="none" stroke="black"/>
<path d="M63,236h -6" fill="none" stroke="black"/>
<path d="M63,229h -6" fill="none" stroke="black"/>
<path d="M63,222h -6" fill="none" stroke="black"/>
<path d="M63,215h -6" fill="none" stroke="black"/>
<path d="M70,208h -13" fill="none" stroke="black"/>
<path d="M63,201h -6" fill="none" stroke="black"/>
<path d="M63,194h -6" fill="none" stroke="black"/>
<path d="M63,187h -6" fill="none" stroke="black"/>
<path d="M63,180h -6" fill="none" stroke="black"/>
<path d="M70,174h -13" fill="none" stroke="black"/>
<path d="M63,167h -6" fill="none" stroke="black"/>
<path d="M63,160h -6" fill="none" stroke="black"/>
<path d="M63,153h -6" fill="none" stroke="black"/>
<path d="M63,146h -6" fill="none" stroke="black"/>
<path d="M70,139h -13" fill="none" stroke="black"/>
<path d="M63,132h -6" fill="none" stroke="black"/>
<path d="M63,125h -6" fill="none" stroke="black"/>
<path d="M63,119h -6" fill="none" stroke="black"/>
<path d="M63,112h -6" fill="none" stroke="black"/>
<path d="M70,105h -13" fill="none" stroke="black"/>
<path d="M63,98h -6" fill="none" stroke="black"/>
<path d="M63,91h -6" fill="none" stroke="black"/>
<path d="M63,84h -6" fill="none" stroke="black"/>
<path d="M63,77h -6" fill="none" stroke="black"/>
<path d="M70,70h -13" fill="none" stroke="black"/>
<path d="M70,70h -13" fill="none" stroke="black"/>
<path d="M63,64h -6" fill="none" stroke="black"/>
<path d="M63,57h -6" fill="none" stroke="black"/>
<path d="M63,50h -6" fill="none" stroke="black"/>
<path d="M63,43h -6" fill="none" stroke="black"/>
<text x="47" y="350" fill="black" font-size="12" font-family="Helvetica">
0
</text>
<text x="33" y="316" fill="black" font-size="12" font-family="Helvetica">
500
</text>
<text x="27" y="281" fill="black" font-size="12" font-family="Helvetica">
1000
</text>
<text x="27" y="247" fill="black" font-size="12" font-family="Helvetica">
1500
</text>
<text x="27" y="212" fill="black" font-size="12" font-family="Helvetica">
2000
</text>
<text x="27" y="178" fill="black" font-size="12" font-family="Helvetica">
2500
</text>
<text x="27" y="144" fill="black" font-size="12" font-family="Helvetica">
3000
</text>
<text x="27" y="109" fill="black" font-size="12" font-family="Helvetica">
3500
</text>
<text x="27" y="75" fill="black" font-size="12" font-family="Helvetica">
4000
</text>
<rect x="442" y="25" width="114" height="46" fill="white"/>
<path d="M442,71h 114" fill="none" stroke="black"/>
<path d="M556,71v -46" fill="none" stroke="black"/>
<path d="M556,25h -114" fill="none" stroke="black"/>
<path d="M442,25v 46" fill="none" stroke="black"/>
<text x="447" y="53" fill="black" font-size="14" font-family="Helvetica">
Entries 
</text>
<text x="492" y="53" fill="black" font-size="14" font-family="Helvetica">
 1535863
</text>
<text x="253" y="18" fill="black" font-size="18" font-family="Helvetica">
448_D1
</text></svg>
