<?xml version="1.0" standalone="no"?>
<svg width="567" height="328" viewBox="0 0 567 328" xmlns="http://www.w3.org/2000/svg">
<title>
images/analysis_phase_exec_d4_d5_tight/rates/sim_muon_rate_in_cu.svg
</title>
<desc>
Creator: ROOT Version 5.34/09
CreationDate: Wed Sep  4 18:04:10 2013</desc>
<defs>
</defs>
<rect x="0" y="0" width="567" height="328" fill="white"/>
<rect x="57" y="33" width="453" height="262" fill="white"/>
<rect x="57" y="33" width="453" height="262" fill="none" stroke="black"/>
<path d="M113,178v -14" fill="none" stroke="#000099"/>
<path d="M113,164v -13" fill="none" stroke="#000099"/>
<path d="M57,164h 56" fill="none" stroke="#000099"/>
<path d="M113,164h 57" fill="none" stroke="#000099"/>
<g stroke="black" stroke-width="1" fill="none">
<line x1="112" y1="164" x2="113" y2="164"/>
</g>
<path d="M227,283v -119" fill="none" stroke="#000099"/>
<path d="M227,164v -119" fill="none" stroke="#000099"/>
<path d="M170,164h 57" fill="none" stroke="#000099"/>
<path d="M227,164h 56" fill="none" stroke="#000099"/>
<g stroke="black" stroke-width="1" fill="none">
<line x1="226" y1="164" x2="227" y2="164"/>
</g>
<path d="M340,184v -20" fill="none" stroke="#000099"/>
<path d="M340,164v -20" fill="none" stroke="#000099"/>
<path d="M283,164h 57" fill="none" stroke="#000099"/>
<path d="M340,164h 57" fill="none" stroke="#000099"/>
<g stroke="black" stroke-width="1" fill="none">
<line x1="339" y1="164" x2="340" y2="164"/>
</g>
<path d="M454,170v -6" fill="none" stroke="#000099"/>
<path d="M454,164v -5" fill="none" stroke="#000099"/>
<path d="M397,164h 57" fill="none" stroke="#000099"/>
<path d="M454,164h 56" fill="none" stroke="#000099"/>
<g stroke="black" stroke-width="1" fill="none">
<line x1="453" y1="164" x2="454" y2="164"/>
</g>
<path d="M57,295h 453" fill="none" stroke="black"/>
<text x="466" y="317" fill="black" font-size="11" font-family="Helvetica">
Degrader
</text>
<text x="111" y="304" fill="black" font-size="7" font-family="Helvetica">
0
</text>
<text x="221" y="304" fill="black" font-size="7" font-family="Helvetica">
0.5
</text>
<text x="338" y="304" fill="black" font-size="7" font-family="Helvetica">
1
</text>
<text x="451" y="304" fill="black" font-size="7" font-family="Helvetica">
5
</text>
<path d="M57,287v 8" fill="none" stroke="black"/>
<path d="M170,287v 8" fill="none" stroke="black"/>
<path d="M283,287v 8" fill="none" stroke="black"/>
<path d="M397,287v 8" fill="none" stroke="black"/>
<path d="M510,287v 8" fill="none" stroke="black"/>
<path d="M57,295v -262" fill="none" stroke="black"/>
<g transform="rotate(-90,28,116)">
<text x="28" y="116" fill="black" font-size="11" font-family="Helvetica">
Muons per proton
</text>
</g>
<path d="M70,277h -13" fill="none" stroke="black"/>
<path d="M63,266h -6" fill="none" stroke="black"/>
<path d="M63,255h -6" fill="none" stroke="black"/>
<path d="M63,243h -6" fill="none" stroke="black"/>
<path d="M63,232h -6" fill="none" stroke="black"/>
<path d="M70,221h -13" fill="none" stroke="black"/>
<path d="M63,209h -6" fill="none" stroke="black"/>
<path d="M63,198h -6" fill="none" stroke="black"/>
<path d="M63,187h -6" fill="none" stroke="black"/>
<path d="M63,176h -6" fill="none" stroke="black"/>
<path d="M70,164h -13" fill="none" stroke="black"/>
<path d="M63,153h -6" fill="none" stroke="black"/>
<path d="M63,142h -6" fill="none" stroke="black"/>
<path d="M63,131h -6" fill="none" stroke="black"/>
<path d="M63,119h -6" fill="none" stroke="black"/>
<path d="M70,108h -13" fill="none" stroke="black"/>
<path d="M63,97h -6" fill="none" stroke="black"/>
<path d="M63,86h -6" fill="none" stroke="black"/>
<path d="M63,74h -6" fill="none" stroke="black"/>
<path d="M63,63h -6" fill="none" stroke="black"/>
<path d="M70,52h -13" fill="none" stroke="black"/>
<path d="M70,277h -13" fill="none" stroke="black"/>
<path d="M63,288h -6" fill="none" stroke="black"/>
<path d="M70,52h -13" fill="none" stroke="black"/>
<path d="M63,40h -6" fill="none" stroke="black"/>
<text x="38" y="281" fill="black" font-size="11" font-family="Helvetica">
-0.1
</text>
<text x="30" y="225" fill="black" font-size="11" font-family="Helvetica">
-0.05
</text>
<text x="48" y="168" fill="black" font-size="11" font-family="Helvetica">
0
</text>
<text x="33" y="112" fill="black" font-size="11" font-family="Helvetica">
0.05
</text>
<text x="41" y="56" fill="black" font-size="11" font-family="Helvetica">
0.1
</text>
<text x="74" y="26" fill="black" font-size="7" font-family="Helvetica">
-6
</text>
<text x="63" y="31" fill="black" font-size="11" font-family="Helvetica">
10
</text>
<text x="57" y="31" fill="black" font-size="11" font-family="Times">
&#0215;
</text>
<text x="145" y="16" fill="black" font-size="16" font-family="Helvetica">
Simulated rate of muons decaying in cu
</text>
<rect x="442" y="22" width="114" height="39" fill="white"/>
<path d="M442,61h 114" fill="none" stroke="black"/>
<path d="M556,61v -39" fill="none" stroke="black"/>
<path d="M556,22h -114" fill="none" stroke="black"/>
<path d="M442,22v 39" fill="none" stroke="black"/>
<text x="448" y="47" fill="black" font-size="16" font-family="Helvetica">
Entries 
</text>
<text x="536" y="47" fill="black" font-size="16" font-family="Helvetica">
 4
</text>
<text x="145" y="16" fill="black" font-size="16" font-family="Helvetica">
Simulated rate of muons decaying in cu
</text></svg>
