<?xml version="1.0" standalone="no"?>
<svg width="567" height="385" viewBox="0 0 567 385" xmlns="http://www.w3.org/2000/svg">
<title>
modded_g4_mu-loose_cu_cu.svg
</title>
<desc>
Creator: ROOT Version 5.34/05
CreationDate: Sat May 25 21:38:14 2013</desc>
<defs>
</defs>
<rect x="0" y="0" width="567" height="385" fill="white"/>
<rect x="57" y="38" width="453" height="308" fill="white"/>
<rect x="57" y="38" width="453" height="308" fill="none" stroke="black"/>
<rect x="57" y="38" width="453" height="308" fill="white"/>
<rect x="57" y="38" width="453" height="308" fill="none" stroke="black"/>
<path d="M57,346h 453" fill="none" stroke="#000099"/>
<path d="M59,232l 4, 100l 5, 13l 5, 1h 208" fill="none" stroke="#ff0000" stroke-width="2"/>
<path d="M281,346h 222" fill="none" stroke="#ff0000" stroke-width="2"/>
<path d="M503,346h 5" fill="none" stroke="#ff0000" stroke-width="2"/>
<rect x="442" y="25" width="114" height="15" fill="white"/>
<path d="M442,40h 114" fill="none" stroke="black"/>
<path d="M556,40v -15" fill="none" stroke="black"/>
<path d="M556,25h -114" fill="none" stroke="black"/>
<path d="M442,25v 15" fill="none" stroke="black"/>
<text x="447" y="28" fill="black" font-size="3" font-family="Helvetica">
Entries 
</text>
<text x="546" y="28" fill="black" font-size="3" font-family="Helvetica">
 81
</text>
<text x="450" y="31" fill="black" font-size="3" font-family="Helvetica">
 / ndf 
</text>
<text x="449" y="28" fill="black" font-size="2" font-family="Helvetica">
2
</text>
<text x="447" y="31" fill="black" font-size="3" font-family="Times">
&#0967;
</text>
<text x="535" y="31" fill="black" font-size="3" font-family="Helvetica">
 15.21 / 12
</text>
<text x="450" y="35" fill="black" font-size="3" font-family="Helvetica">
   
</text>
<text x="449" y="36" fill="black" font-size="2" font-family="Helvetica">
cu
</text>
<text x="447" y="35" fill="black" font-size="3" font-family="Helvetica">
N
</text>
<text x="543" y="36" fill="black" font-size="3" font-family="Helvetica">
 4.01
</text>
<text x="541" y="36" fill="black" font-size="3" font-family="Times">
&#0177;
</text>
<text x="531" y="36" fill="black" font-size="3" font-family="Helvetica">
 18.38 
</text>
<text x="450" y="39" fill="black" font-size="3" font-family="Helvetica">
 
</text>
<text x="448" y="41" fill="black" font-size="2" font-family="Helvetica">
cu
</text>
<text x="447" y="39" fill="black" font-size="3" font-family="Times">
&#0964;
</text>
<text x="543" y="40" fill="black" font-size="3" font-family="Helvetica">
 33.4
</text>
<text x="541" y="40" fill="black" font-size="3" font-family="Times">
&#0177;
</text>
<text x="531" y="40" fill="black" font-size="3" font-family="Helvetica">
 191.9 
</text>
<path d="M57,346h 453" fill="none" stroke="black"/>
<text x="456" y="372" fill="black" font-size="12" font-family="Helvetica">
Time (ns)
</text>
<path d="M57,337v 9" fill="none" stroke="black"/>
<path d="M68,342v 4" fill="none" stroke="black"/>
<path d="M79,342v 4" fill="none" stroke="black"/>
<path d="M91,342v 4" fill="none" stroke="black"/>
<path d="M102,342v 4" fill="none" stroke="black"/>
<path d="M113,337v 9" fill="none" stroke="black"/>
<path d="M125,342v 4" fill="none" stroke="black"/>
<path d="M136,342v 4" fill="none" stroke="black"/>
<path d="M147,342v 4" fill="none" stroke="black"/>
<path d="M159,342v 4" fill="none" stroke="black"/>
<path d="M170,337v 9" fill="none" stroke="black"/>
<path d="M181,342v 4" fill="none" stroke="black"/>
<path d="M193,342v 4" fill="none" stroke="black"/>
<path d="M204,342v 4" fill="none" stroke="black"/>
<path d="M215,342v 4" fill="none" stroke="black"/>
<path d="M227,337v 9" fill="none" stroke="black"/>
<path d="M238,342v 4" fill="none" stroke="black"/>
<path d="M249,342v 4" fill="none" stroke="black"/>
<path d="M261,342v 4" fill="none" stroke="black"/>
<path d="M272,342v 4" fill="none" stroke="black"/>
<path d="M283,337v 9" fill="none" stroke="black"/>
<path d="M295,342v 4" fill="none" stroke="black"/>
<path d="M306,342v 4" fill="none" stroke="black"/>
<path d="M317,342v 4" fill="none" stroke="black"/>
<path d="M329,342v 4" fill="none" stroke="black"/>
<path d="M340,337v 9" fill="none" stroke="black"/>
<path d="M351,342v 4" fill="none" stroke="black"/>
<path d="M363,342v 4" fill="none" stroke="black"/>
<path d="M374,342v 4" fill="none" stroke="black"/>
<path d="M386,342v 4" fill="none" stroke="black"/>
<path d="M397,337v 9" fill="none" stroke="black"/>
<path d="M408,342v 4" fill="none" stroke="black"/>
<path d="M420,342v 4" fill="none" stroke="black"/>
<path d="M431,342v 4" fill="none" stroke="black"/>
<path d="M442,342v 4" fill="none" stroke="black"/>
<path d="M454,337v 9" fill="none" stroke="black"/>
<path d="M465,342v 4" fill="none" stroke="black"/>
<path d="M476,342v 4" fill="none" stroke="black"/>
<path d="M488,342v 4" fill="none" stroke="black"/>
<path d="M499,342v 4" fill="none" stroke="black"/>
<path d="M510,337v 9" fill="none" stroke="black"/>
<text x="36" y="359" fill="black" font-size="12" font-family="Helvetica">
-20000
</text>
<text x="93" y="359" fill="black" font-size="12" font-family="Helvetica">
-15000
</text>
<text x="149" y="359" fill="black" font-size="12" font-family="Helvetica">
-10000
</text>
<text x="210" y="359" fill="black" font-size="12" font-family="Helvetica">
-5000
</text>
<text x="280" y="359" fill="black" font-size="12" font-family="Helvetica">
0
</text>
<text x="325" y="359" fill="black" font-size="12" font-family="Helvetica">
5000
</text>
<text x="379" y="359" fill="black" font-size="12" font-family="Helvetica">
10000
</text>
<text x="435" y="359" fill="black" font-size="12" font-family="Helvetica">
15000
</text>
<text x="492" y="359" fill="black" font-size="12" font-family="Helvetica">
20000
</text>
<path d="M57,346v -308" fill="none" stroke="black"/>
<g transform="rotate(-90,29,72)">
<text x="29" y="72" fill="black" font-size="12" font-family="Helvetica">
Count
</text>
</g>
<path d="M70,346h -13" fill="none" stroke="black"/>
<path d="M63,340h -6" fill="none" stroke="black"/>
<path d="M63,334h -6" fill="none" stroke="black"/>
<path d="M63,328h -6" fill="none" stroke="black"/>
<path d="M63,322h -6" fill="none" stroke="black"/>
<path d="M70,316h -13" fill="none" stroke="black"/>
<path d="M63,309h -6" fill="none" stroke="black"/>
<path d="M63,303h -6" fill="none" stroke="black"/>
<path d="M63,297h -6" fill="none" stroke="black"/>
<path d="M63,291h -6" fill="none" stroke="black"/>
<path d="M70,285h -13" fill="none" stroke="black"/>
<path d="M63,279h -6" fill="none" stroke="black"/>
<path d="M63,272h -6" fill="none" stroke="black"/>
<path d="M63,266h -6" fill="none" stroke="black"/>
<path d="M63,260h -6" fill="none" stroke="black"/>
<path d="M70,254h -13" fill="none" stroke="black"/>
<path d="M63,248h -6" fill="none" stroke="black"/>
<path d="M63,242h -6" fill="none" stroke="black"/>
<path d="M63,236h -6" fill="none" stroke="black"/>
<path d="M63,229h -6" fill="none" stroke="black"/>
<path d="M70,223h -13" fill="none" stroke="black"/>
<path d="M63,217h -6" fill="none" stroke="black"/>
<path d="M63,211h -6" fill="none" stroke="black"/>
<path d="M63,205h -6" fill="none" stroke="black"/>
<path d="M63,199h -6" fill="none" stroke="black"/>
<path d="M70,192h -13" fill="none" stroke="black"/>
<path d="M63,186h -6" fill="none" stroke="black"/>
<path d="M63,180h -6" fill="none" stroke="black"/>
<path d="M63,174h -6" fill="none" stroke="black"/>
<path d="M63,168h -6" fill="none" stroke="black"/>
<path d="M70,162h -13" fill="none" stroke="black"/>
<path d="M63,155h -6" fill="none" stroke="black"/>
<path d="M63,149h -6" fill="none" stroke="black"/>
<path d="M63,143h -6" fill="none" stroke="black"/>
<path d="M63,137h -6" fill="none" stroke="black"/>
<path d="M70,131h -13" fill="none" stroke="black"/>
<path d="M63,125h -6" fill="none" stroke="black"/>
<path d="M63,118h -6" fill="none" stroke="black"/>
<path d="M63,112h -6" fill="none" stroke="black"/>
<path d="M63,106h -6" fill="none" stroke="black"/>
<path d="M70,100h -13" fill="none" stroke="black"/>
<path d="M63,94h -6" fill="none" stroke="black"/>
<path d="M63,88h -6" fill="none" stroke="black"/>
<path d="M63,81h -6" fill="none" stroke="black"/>
<path d="M63,75h -6" fill="none" stroke="black"/>
<path d="M70,69h -13" fill="none" stroke="black"/>
<path d="M63,63h -6" fill="none" stroke="black"/>
<path d="M63,57h -6" fill="none" stroke="black"/>
<path d="M63,51h -6" fill="none" stroke="black"/>
<path d="M63,44h -6" fill="none" stroke="black"/>
<path d="M70,38h -13" fill="none" stroke="black"/>
<text x="47" y="350" fill="black" font-size="12" font-family="Helvetica">
0
</text>
<text x="21" y="319" fill="black" font-size="12" font-family="Helvetica">
3.252
</text>
<text x="21" y="289" fill="black" font-size="12" font-family="Helvetica">
6.504
</text>
<text x="21" y="258" fill="black" font-size="12" font-family="Helvetica">
9.755
</text>
<text x="15" y="227" fill="black" font-size="12" font-family="Helvetica">
13.007
</text>
<text x="15" y="196" fill="black" font-size="12" font-family="Helvetica">
16.259
</text>
<text x="15" y="165" fill="black" font-size="12" font-family="Helvetica">
19.511
</text>
<text x="15" y="134" fill="black" font-size="12" font-family="Helvetica">
22.762
</text>
<text x="15" y="103" fill="black" font-size="12" font-family="Helvetica">
26.014
</text>
<text x="15" y="73" fill="black" font-size="12" font-family="Helvetica">
29.266
</text>
<text x="15" y="42" fill="black" font-size="12" font-family="Helvetica">
32.518
</text>
<text x="78" y="25" fill="black" font-size="8" font-family="Helvetica">
45
</text>
<text x="64" y="36" fill="black" font-size="12" font-family="Helvetica">
10
</text>
<text x="56" y="36" fill="black" font-size="12" font-family="Times">
&#0215;
</text>
<rect x="442" y="25" width="114" height="15" fill="white"/>
<path d="M442,40h 114" fill="none" stroke="black"/>
<path d="M556,40v -15" fill="none" stroke="black"/>
<path d="M556,25h -114" fill="none" stroke="black"/>
<path d="M442,25v 15" fill="none" stroke="black"/>
<text x="447" y="28" fill="black" font-size="3" font-family="Helvetica">
Entries 
</text>
<text x="546" y="28" fill="black" font-size="3" font-family="Helvetica">
 81
</text>
<text x="450" y="31" fill="black" font-size="3" font-family="Helvetica">
 / ndf 
</text>
<text x="449" y="28" fill="black" font-size="2" font-family="Helvetica">
2
</text>
<text x="447" y="31" fill="black" font-size="3" font-family="Times">
&#0967;
</text>
<text x="535" y="31" fill="black" font-size="3" font-family="Helvetica">
 15.21 / 12
</text>
<text x="450" y="35" fill="black" font-size="3" font-family="Helvetica">
   
</text>
<text x="449" y="36" fill="black" font-size="2" font-family="Helvetica">
cu
</text>
<text x="447" y="35" fill="black" font-size="3" font-family="Helvetica">
N
</text>
<text x="543" y="36" fill="black" font-size="3" font-family="Helvetica">
 4.01
</text>
<text x="541" y="36" fill="black" font-size="3" font-family="Times">
&#0177;
</text>
<text x="531" y="36" fill="black" font-size="3" font-family="Helvetica">
 18.38 
</text>
<text x="450" y="39" fill="black" font-size="3" font-family="Helvetica">
 
</text>
<text x="448" y="41" fill="black" font-size="2" font-family="Helvetica">
cu
</text>
<text x="447" y="39" fill="black" font-size="3" font-family="Times">
&#0964;
</text>
<text x="543" y="40" fill="black" font-size="3" font-family="Helvetica">
 33.4
</text>
<text x="541" y="40" fill="black" font-size="3" font-family="Times">
&#0177;
</text>
<text x="531" y="40" fill="black" font-size="3" font-family="Helvetica">
 191.9 
</text>
<path d="M285,346h 111" fill="none" stroke="#ff0000" stroke-width="2"/>
<path d="M396,346h 111" fill="none" stroke="#ff0000" stroke-width="2"/>
<path d="M507,346h 2" fill="none" stroke="#ff0000" stroke-width="2"/>
<text x="248" y="21" fill="black" font-size="21" font-family="Helvetica">
test_cu
</text></svg>
