<?xml version="1.0" standalone="no"?>
<svg width="567" height="364" viewBox="0 0 567 364" xmlns="http://www.w3.org/2000/svg">
<title>
/Users/scook/code/MuSIC/offline_analysis_music5/MuSIC5_offline_analysis/MuSIC5_offline_analysis/scripts/images/run_455_d2_peak_and_pre_peak_spike_raw_data.svg
</title>
<desc>
Creator: ROOT Version 5.34/05
CreationDate: Wed Jun 12 11:13:57 2013</desc>
<defs>
</defs>
<rect x="0" y="0" width="567" height="364" fill="white"/>
<rect x="57" y="37" width="453" height="291" fill="white"/>
<rect x="57" y="37" width="453" height="291" fill="none" stroke="black"/>
<rect x="57" y="37" width="453" height="291" fill="white"/>
<rect x="57" y="37" width="453" height="291" fill="none" stroke="black"/>
<path d="M57,279h 2v -4h 2v -5h 2v 7h 3v -7h 2v 6h 2v -9h 3v 9h 2v 5h 2v -7h 3v -4h 2v 2h 2v 9h 2v -6h 3v 9h 2v 3h 2v -11h 3v 10h 2v -4h 2v -11h 2v 14h 3v -7h 2v 1h 2v 4h 3v -14h 2v 3h 2v -4h 2v -3h 3v -10h 2v 22h 2v -19h 3v 6h 2v 14h 2v -26h 2v 13h
 3v -5h 2v 4h 2v 1h 3v 18h 2v -4h 4v 7h 3v 11h 2v -3h 2v 13h 3v 3h 2v -4h 2v 3h 3v -1h 2v 7h 2v -2h 2v -2h 3v 2h 4v -18h 3v -24h 2v -10h 2v -25h 2v -47h 3v -34h 4v -41h 3v -23h 2v -11h 2v -16h 2v -1h 3v 1h 2v -14h 2v 28h 3v 24h 2v -4h 2v 4h 2v -18h
 3v 35h 2v 6h 2v -2h 3v -5h 2v 29h 2v -19h 2v 1h 3v 13h 2v -18h 2v -4h 3v 50h 2v -18h 2v -10h 3v 6h 2v -8h 2v 19h 2v 11h 3v -13h 2v 5h 2v -9h 3v 9h 2v -15h 2v 19h 5v -20h 2v 18h 2v -5h 3v -16h 2v 21h 2v -9h 2v 11h 3v -7h 2v -2h 2v 10h 3v -19h 2v 11h
 2v 36h 2v -12h 3v -27h 2v 5h 2v 25h 3v -10h 2v 9h 2v -15h 2v 7h 3v -11h 7v 5h 2v -1h 2v 16h 3v -34h 2v 3h 2v -9h 2v 12h 3v 16h 2v -30h 2v 20h 3v 1h 2v 12h 2v 16h 2v -31h 3v 42h 2v -18h 2v -1h 3v -12h 2v 13h 2v -31h 2v 33h 3v 3h 2v -27h 2v 24h 3v
 -20h 2v 6h 2v -3h 2v 22h 3v -48h 2v 32h 2v 8h 3v -14h 2v -3h 2v 10h 2v 4h 3v 3h 2v -27h 2v 22h 3v -8h 2v 29h 2v -18h 3v -4h 2v -9h 2v 30h 2v -19h 3v 15h 2v -5h 5v -20h 2v 4h 4v -11h 3v 29h 2v -19h 2v -12h 3v 19h 2v -3h 2v 10h 2v -7h 3v -18h 2v 11h
 2v 30h 3v -15h 2v -4h 2v 5h 2v -22h 3v 18h 2v 1h 2v 17h 3v -12h 2v 8h 2v -30h 2v 22h 3v -9h 2v 2h 2v 8h 3v 7h 2" fill="none" stroke="#000099"/>
<rect x="442" y="24" width="114" height="58" fill="white"/>
<path d="M442,82h 114" fill="none" stroke="black"/>
<path d="M556,82v -58" fill="none" stroke="black"/>
<path d="M556,24h -114" fill="none" stroke="black"/>
<path d="M442,24v 58" fill="none" stroke="black"/>
<text x="492" y="35" fill="black" font-size="12" font-family="Helvetica">
h2
</text>
<path d="M442,39h 114" fill="none" stroke="black"/>
<text x="448" y="49" fill="black" font-size="11" font-family="Helvetica">
Entries 
</text>
<text x="506" y="49" fill="black" font-size="11" font-family="Helvetica">
 822492
</text>
<text x="448" y="64" fill="black" font-size="11" font-family="Helvetica">
Mean  
</text>
<text x="489" y="64" fill="black" font-size="11" font-family="Helvetica">
 6.574e+05
</text>
<text x="448" y="79" fill="black" font-size="11" font-family="Helvetica">
RMS   
</text>
<text x="513" y="79" fill="black" font-size="11" font-family="Helvetica">
   4902
</text>
<path d="M57,328h 453" fill="none" stroke="black"/>
<path d="M98,319v 9" fill="none" stroke="black"/>
<path d="M109,323v 5" fill="none" stroke="black"/>
<path d="M121,323v 5" fill="none" stroke="black"/>
<path d="M132,323v 5" fill="none" stroke="black"/>
<path d="M144,319v 9" fill="none" stroke="black"/>
<path d="M155,323v 5" fill="none" stroke="black"/>
<path d="M167,323v 5" fill="none" stroke="black"/>
<path d="M178,323v 5" fill="none" stroke="black"/>
<path d="M189,319v 9" fill="none" stroke="black"/>
<path d="M201,323v 5" fill="none" stroke="black"/>
<path d="M212,323v 5" fill="none" stroke="black"/>
<path d="M224,323v 5" fill="none" stroke="black"/>
<path d="M235,319v 9" fill="none" stroke="black"/>
<path d="M247,323v 5" fill="none" stroke="black"/>
<path d="M258,323v 5" fill="none" stroke="black"/>
<path d="M270,323v 5" fill="none" stroke="black"/>
<path d="M281,319v 9" fill="none" stroke="black"/>
<path d="M292,323v 5" fill="none" stroke="black"/>
<path d="M304,323v 5" fill="none" stroke="black"/>
<path d="M315,323v 5" fill="none" stroke="black"/>
<path d="M327,319v 9" fill="none" stroke="black"/>
<path d="M338,323v 5" fill="none" stroke="black"/>
<path d="M350,323v 5" fill="none" stroke="black"/>
<path d="M361,323v 5" fill="none" stroke="black"/>
<path d="M373,319v 9" fill="none" stroke="black"/>
<path d="M384,323v 5" fill="none" stroke="black"/>
<path d="M395,323v 5" fill="none" stroke="black"/>
<path d="M407,323v 5" fill="none" stroke="black"/>
<path d="M418,319v 9" fill="none" stroke="black"/>
<path d="M430,323v 5" fill="none" stroke="black"/>
<path d="M441,323v 5" fill="none" stroke="black"/>
<path d="M453,323v 5" fill="none" stroke="black"/>
<path d="M464,319v 9" fill="none" stroke="black"/>
<path d="M476,323v 5" fill="none" stroke="black"/>
<path d="M487,323v 5" fill="none" stroke="black"/>
<path d="M498,323v 5" fill="none" stroke="black"/>
<path d="M510,319v 9" fill="none" stroke="black"/>
<path d="M98,319v 9" fill="none" stroke="black"/>
<path d="M86,323v 5" fill="none" stroke="black"/>
<path d="M75,323v 5" fill="none" stroke="black"/>
<path d="M63,323v 5" fill="none" stroke="black"/>
<text x="87" y="339" fill="black" font-size="12" font-family="Helvetica">
648
</text>
<text x="133" y="339" fill="black" font-size="12" font-family="Helvetica">
650
</text>
<text x="179" y="339" fill="black" font-size="12" font-family="Helvetica">
652
</text>
<text x="225" y="339" fill="black" font-size="12" font-family="Helvetica">
654
</text>
<text x="270" y="339" fill="black" font-size="12" font-family="Helvetica">
656
</text>
<text x="316" y="339" fill="black" font-size="12" font-family="Helvetica">
658
</text>
<text x="362" y="339" fill="black" font-size="12" font-family="Helvetica">
660
</text>
<text x="408" y="339" fill="black" font-size="12" font-family="Helvetica">
662
</text>
<text x="454" y="339" fill="black" font-size="12" font-family="Helvetica">
664
</text>
<text x="499" y="339" fill="black" font-size="12" font-family="Helvetica">
666
</text>
<text x="533" y="317" fill="black" font-size="8" font-family="Helvetica">
3
</text>
<text x="519" y="327" fill="black" font-size="12" font-family="Helvetica">
10
</text>
<text x="511" y="327" fill="black" font-size="12" font-family="Times">
&#0215;
</text>
<path d="M57,328v -291" fill="none" stroke="black"/>
<path d="M70,328h -13" fill="none" stroke="black"/>
<path d="M63,320h -6" fill="none" stroke="black"/>
<path d="M63,312h -6" fill="none" stroke="black"/>
<path d="M63,304h -6" fill="none" stroke="black"/>
<path d="M63,296h -6" fill="none" stroke="black"/>
<path d="M70,288h -13" fill="none" stroke="black"/>
<path d="M63,280h -6" fill="none" stroke="black"/>
<path d="M63,272h -6" fill="none" stroke="black"/>
<path d="M63,264h -6" fill="none" stroke="black"/>
<path d="M63,256h -6" fill="none" stroke="black"/>
<path d="M70,249h -13" fill="none" stroke="black"/>
<path d="M63,241h -6" fill="none" stroke="black"/>
<path d="M63,233h -6" fill="none" stroke="black"/>
<path d="M63,225h -6" fill="none" stroke="black"/>
<path d="M63,217h -6" fill="none" stroke="black"/>
<path d="M70,209h -13" fill="none" stroke="black"/>
<path d="M63,201h -6" fill="none" stroke="black"/>
<path d="M63,193h -6" fill="none" stroke="black"/>
<path d="M63,185h -6" fill="none" stroke="black"/>
<path d="M63,177h -6" fill="none" stroke="black"/>
<path d="M70,170h -13" fill="none" stroke="black"/>
<path d="M63,162h -6" fill="none" stroke="black"/>
<path d="M63,154h -6" fill="none" stroke="black"/>
<path d="M63,146h -6" fill="none" stroke="black"/>
<path d="M63,138h -6" fill="none" stroke="black"/>
<path d="M70,130h -13" fill="none" stroke="black"/>
<path d="M63,122h -6" fill="none" stroke="black"/>
<path d="M63,114h -6" fill="none" stroke="black"/>
<path d="M63,106h -6" fill="none" stroke="black"/>
<path d="M63,99h -6" fill="none" stroke="black"/>
<path d="M70,91h -13" fill="none" stroke="black"/>
<path d="M63,83h -6" fill="none" stroke="black"/>
<path d="M63,75h -6" fill="none" stroke="black"/>
<path d="M63,67h -6" fill="none" stroke="black"/>
<path d="M63,59h -6" fill="none" stroke="black"/>
<path d="M70,51h -13" fill="none" stroke="black"/>
<path d="M70,51h -13" fill="none" stroke="black"/>
<path d="M63,43h -6" fill="none" stroke="black"/>
<text x="47" y="331" fill="black" font-size="12" font-family="Helvetica">
0
</text>
<text x="40" y="291" fill="black" font-size="12" font-family="Helvetica">
50
</text>
<text x="33" y="252" fill="black" font-size="12" font-family="Helvetica">
100
</text>
<text x="33" y="212" fill="black" font-size="12" font-family="Helvetica">
150
</text>
<text x="33" y="173" fill="black" font-size="12" font-family="Helvetica">
200
</text>
<text x="33" y="134" fill="black" font-size="12" font-family="Helvetica">
250
</text>
<text x="33" y="94" fill="black" font-size="12" font-family="Helvetica">
300
</text>
<text x="33" y="55" fill="black" font-size="12" font-family="Helvetica">
350
</text>
<rect x="442" y="24" width="114" height="58" fill="white"/>
<path d="M442,82h 114" fill="none" stroke="black"/>
<path d="M556,82v -58" fill="none" stroke="black"/>
<path d="M556,24h -114" fill="none" stroke="black"/>
<path d="M442,24v 58" fill="none" stroke="black"/>
<text x="492" y="35" fill="black" font-size="12" font-family="Helvetica">
h2
</text>
<path d="M442,39h 114" fill="none" stroke="black"/>
<text x="448" y="49" fill="black" font-size="11" font-family="Helvetica">
Entries 
</text>
<text x="506" y="49" fill="black" font-size="11" font-family="Helvetica">
 822492
</text>
<text x="448" y="64" fill="black" font-size="11" font-family="Helvetica">
Mean  
</text>
<text x="489" y="64" fill="black" font-size="11" font-family="Helvetica">
 6.574e+05
</text>
<text x="448" y="79" fill="black" font-size="11" font-family="Helvetica">
RMS   
</text>
<text x="513" y="79" fill="black" font-size="11" font-family="Helvetica">
   4902
</text>
<text x="272" y="20" fill="black" font-size="19" font-family="Helvetica">
h2
</text></svg>
